<svg xmlns="http://www.w3.org/2000/svg" width="756.41498" height="407.33435" viewBox="0 0 200.13479 107.77388"><path d="M1546.701-695h208.16v-390.96h-208.16zm73.763-39.37 16.5 4.399 6.618 24.571zm44.522-113.693 19.539-33.842 7.689 36.479v21.123l-11.947 3.822zm31.214-108.19 46.2-46.2-6.253 36.821 7.413 25.508-8.802 32.85-3.474-26.4z" style="fill:#405f3a;fill-opacity:1;fill-rule:evenodd;stroke:#1f2d1a;stroke-width:2.11667;stroke-linecap:round;stroke-linejoin:round;stroke-dasharray:none;stroke-opacity:1" transform="rotate(90 212.876 -558.54)scale(.5)"/><path d="M1544.057-705.479h213.099v10.619h-213.1zm-.001-16.807h86.051l-8.473-10.619h-77.578zm81.907-10.619 11.002 2.934 2.07 7.685h118.121v-10.619zm-81.906-27.979h213.099v10.619h-213.1zm0-27.426h213.099v10.619h-213.1zm0-27.458h213.099v10.618h-213.1zm-.001-16.807h135.069l-4.667-10.619h-130.402zm146.942 0h66.158v-10.619h-64.942zm-146.942-27.98h128.142l9.604-10.618h-137.746zm142.73-10.618-1.756 10.618h72.126v-10.618zM1544.057-898.6h213.099v10.62h-213.1zm-.001-14.929h189.879l-1.397-10.618h-188.482zm192.378 0h20.722v-10.618h-13.708zm-192.378-27.425h178.52l-10.112-10.619h-168.408zm193.224-10.619 6.039 10.619h13.837v-10.619zm-193.224-17.361h178.894l1.586-10.619h-180.48zm186.4 0h26.7v-10.619h-13.782zm-186.4-27.426h183.566l14.778-6.093 4.176 6.093h10.58v-10.618h-213.1zm.001-36.15h213.099v10.619h-213.1zm0-27.98h213.099v10.62h-213.1zm0-27.425h213.099v10.619h-213.1z" style="fill:#486c42;fill-opacity:1;fill-rule:evenodd;stroke:#1f2d1a;stroke-width:2.44811;stroke-linecap:round;stroke-linejoin:round;stroke-dasharray:none;stroke-opacity:1" transform="rotate(90 212.876 -558.54)scale(.5)"/><path d="M1645.606-1090.54h10.96v398.152h-10.96z" style="fill:#486c42;fill-opacity:1;fill-rule:evenodd;stroke:#1f2d1a;stroke-width:2.11667;stroke-linecap:round;stroke-linejoin:round;stroke-dasharray:none;stroke-opacity:1" transform="rotate(90 212.876 -558.54)scale(.5)"/></svg>