<svg xmlns="http://www.w3.org/2000/svg" xmlns:xlink="http://www.w3.org/1999/xlink" width="695.28552" height="460.59424" viewBox="0 0 183.96096 121.86556"><defs><pattern xlink:href="#a" id="b" patternTransform="translate(30.753 -120.014)scale(.26458)" preserveAspectRatio="xMidYMid"/><pattern id="a" width="160.17165" height="124.22794" patternTransform="translate(28.632 1028.247)" patternUnits="userSpaceOnUse" preserveAspectRatio="xMidYMid"><g style="stroke-width:1.00593" transform="matrix(1.16485 0 0 .90436 700.022 -1367.97)"><rect width="137.50397" height="137.36168" x="-600.9538" y="1512.641" ry="0" style="fill:#3f2e16;fill-opacity:1;stroke-width:4.04142;paint-order:markers stroke fill"/><path d="M-530.42 1611.65c-.987 0-1.782.793-1.782 1.78v36.574h29.68v-36.574c0-.987-.795-1.78-1.781-1.78zm34.87-24.203a2.273 2.273 0 0 0-2.278 2.28v60.277h29.678v-60.277a2.274 2.274 0 0 0-2.28-2.28zm-68.766-36.955a2.255 2.255 0 0 0-2.26 2.26v97.254h29.68v-97.25a2.255 2.255 0 0 0-2.26-2.26zm32.114-37.852v92.05a2.255 2.255 0 0 0 2.26 2.26h25.16a2.255 2.255 0 0 0 2.26-2.26v-92.049z" style="fill:#9e7437;fill-opacity:1;stroke-width:1.2117;paint-order:markers stroke fill"/><path d="M-597.744 1512.641a3.2 3.2 0 0 0-3.205 3.206v126.319a3.2 3.2 0 0 0 3.205 3.205h23.27a3.2 3.2 0 0 0 3.204-3.205v-126.32a3.2 3.2 0 0 0-3.205-3.205z" style="fill:#9e7437;fill-opacity:1;stroke-width:1.2118;paint-order:markers stroke fill"/><path d="M-566.576 1512.641v31.378c0 .986.796 1.781 1.782 1.781h26.119c.986 0 1.78-.795 1.78-1.781v-31.378zm68.748 0v67.673a2.43 2.43 0 0 0 2.435 2.436h24.807a2.43 2.43 0 0 0 2.436-2.436v-67.673z" style="fill:#9e7437;fill-opacity:1;stroke-width:1.2117;paint-order:markers stroke fill"/></g></pattern></defs><g transform="translate(9.142 -71.702)"><path d="M-159.314-128.358H-6.397V46.267h-152.917z" style="fill:#9d9489;fill-opacity:1;fill-rule:evenodd;stroke:none;stroke-width:.94493;stroke-linecap:round;stroke-opacity:.467153" transform="scale(-1)"/><path d="M8.21-45.91h160.346v234.13H8.21z" style="opacity:1;fill:url(#b);stroke:none;stroke-width:.266152"/><path d="M-1292.332 1163.891h27.541v25.948h-27.541z" style="display:inline;fill:#333;fill-opacity:1;stroke-width:.481827;stroke-opacity:.575758;paint-order:markers stroke fill;stop-color:#000" transform="matrix(0 -1 .69823 0 -822.19 -1256.854)"/><path d="M-1291.01 1166.725h24.574v20.828h-24.573z" style="display:inline;fill:#666;stroke-width:.407756;stroke-opacity:.575758;paint-order:markers stroke fill;stop-color:#000" transform="matrix(0 -1 .69823 0 -822.19 -1256.854)"/><path d="M-1264.992 1163.89h27.542v25.948h-27.542z" style="display:inline;fill:#333;fill-opacity:1;stroke-width:.481827;stroke-opacity:.575758;paint-order:markers stroke fill;stop-color:#000" transform="matrix(0 -1 .69823 0 -822.19 -1256.854)"/><path d="M-1263.67 1166.723h24.574v20.829h-24.573z" style="display:inline;fill:#666;stroke-width:.407756;stroke-opacity:.575758;paint-order:markers stroke fill;stop-color:#000" transform="matrix(0 -1 .69823 0 -822.19 -1256.854)"/><g transform="translate(-1648.93 -1639.49)scale(1.34168)"><g style="opacity:.5;stroke:#3f2e16;stroke-opacity:1"><g style="stroke:#3f2e16;stroke-opacity:1"><g style="opacity:.25"><path d="M92.102 11.89c-2.39 31.684-10.424 34.44-18.052 39.562-7.628-5.011-15.662-7.878-18.054-39.562 6.304-.415 12.683-.679 18.054-4.805 5.37 4.037 11.748 4.39 18.052 4.805Z" style="fill:none;fill-opacity:1;fill-rule:nonzero;stroke:#000;stroke-width:3.17684;stroke-linejoin:round;stroke-dasharray:none;stroke-opacity:1" transform="translate(1205.877 1238.043)scale(1.21387)"/><path stroke="none" d="M66.939 8.936V19.77H55.644v3.129H66.94v25.64h3.128V22.9h22.314v-3.13H70.067V8.937Z" style="fill:#000;fill-opacity:1;fill-rule:nonzero;stroke:#000;stroke-width:0;stroke-linejoin:round;stroke-dasharray:none;stroke-opacity:1" transform="translate(1205.877 1238.043)scale(1.21387)"/></g></g></g><circle cx="1295.5573" cy="1271.363" r="34.633347" style="opacity:.15;fill:none;fill-opacity:1;stroke:#000;stroke-width:3.933;stroke-linejoin:miter;stroke-dasharray:none;stroke-opacity:1;stop-color:#000"/></g><rect width="9.9885378" height="58.911995" x="-4.3655758" y="-139.35411" rx="2.6860566" ry="2.6860566" style="fill:#333;fill-opacity:1;stroke-width:.970411;stroke-linecap:square;stop-color:#000" transform="scale(1 -1)"/><rect width="53.046921" height="3.7421968" x="83.37413" y="-2.2153075" rx="1.1133809" ry="1.1133809" style="display:inline;fill:#656565;fill-opacity:1;stroke-width:.223198" transform="matrix(0 1 1 0 0 0)"/><path d="M3.603 35.06h11.13v158.045H3.603z" style="fill:#262626;fill-opacity:1;stroke:none;stroke-width:1.11738;stroke-linejoin:round;stroke-dasharray:none;stroke-opacity:1;stop-color:#000"/><rect width="6.2327733" height="41.784416" x="6.0426273" y="37.626022" rx="1.2432752" ry="1.2432752" style="fill:#606060;fill-opacity:1;stroke:none;stroke-width:.498237;stroke-linejoin:round;stroke-dasharray:none;stroke-opacity:1;stop-color:#000"/><path d="M-193.102 14.1h11.13v160.72h-11.13z" style="fill:#262626;fill-opacity:1;stroke:none;stroke-width:1.1268;stroke-linejoin:round;stroke-dasharray:none;stroke-opacity:1;stop-color:#000" transform="rotate(-90)"/><rect width="6.2327733" height="51.496506" x="6.1452885" y="139.06334" rx="1.2432752" ry="1.2432752" style="fill:#606060;fill-opacity:1;stroke:none;stroke-width:.553116;stroke-linejoin:round;stroke-dasharray:none;stroke-opacity:1;stop-color:#000"/><rect width="6.2327733" height="166.18651" x="184.36685" y="-172.32706" rx="1.2432752" ry="1.2432752" style="fill:#606060;fill-opacity:1;stroke:none;stroke-width:.993632;stroke-linejoin:round;stroke-dasharray:none;stroke-opacity:1;stop-color:#000" transform="rotate(90)"/><path d="M-49.477-164.318h11.13V-3.599h-11.13z" style="fill:#262626;fill-opacity:1;stroke:none;stroke-width:1.1268;stroke-linejoin:round;stroke-dasharray:none;stroke-opacity:1;stop-color:#000" transform="rotate(90)"/><path d="M-174.817-182.085h11.13V49.471h-11.13z" style="fill:#262626;fill-opacity:1;stroke:none;stroke-width:1.35252;stroke-linejoin:round;stroke-dasharray:none;stroke-opacity:1;stop-color:#000" transform="scale(-1)"/><rect width="6.2327733" height="236.99777" x="166.06668" y="-46.952892" rx="1.2432752" ry="1.2432752" style="fill:#606060;fill-opacity:1;stroke:none;stroke-width:1.18659;stroke-linejoin:round;stroke-dasharray:none;stroke-opacity:1;stop-color:#000"/><rect width="6.2327733" height="166.25163" x="40.741707" y="6.0262699" rx="1.2432752" ry="1.2432752" style="fill:#606060;fill-opacity:1;stroke:none;stroke-width:.993827;stroke-linejoin:round;stroke-dasharray:none;stroke-opacity:1;stop-color:#000" transform="rotate(-90)"/><path d="M3.603-40.224h11.13v21.954H3.603z" style="fill:#262626;fill-opacity:1;stroke:none;stroke-width:.416453;stroke-linejoin:round;stroke-dasharray:none;stroke-opacity:1;stop-color:#000"/><rect width="6.2327733" height="25.17392" x="6.0426273" y="-46.317272" rx="1.2432752" ry="1.2432752" style="fill:#606060;fill-opacity:1;stroke:none;stroke-width:.386727;stroke-linejoin:round;stroke-dasharray:none;stroke-opacity:1;stop-color:#000"/></g></svg>