<svg xmlns="http://www.w3.org/2000/svg" xmlns:xlink="http://www.w3.org/1999/xlink" width="1078.7454" height="932.31616" viewBox="0 0 285.41804 246.67532"><defs><pattern xlink:href="#a" id="b" patternTransform="translate(-191.808 -34.092)scale(.26458)" preserveAspectRatio="xMidYMid"/><pattern id="a" width="160.17165" height="124.22794" patternTransform="translate(28.632 1028.247)" patternUnits="userSpaceOnUse" preserveAspectRatio="xMidYMid"><g style="stroke-width:1.00593" transform="matrix(1.16485 0 0 .90436 700.022 -1367.97)"><rect width="137.50397" height="137.36168" x="-600.9538" y="1512.641" ry="0" style="fill:#3f2e16;fill-opacity:1;stroke-width:4.04142;paint-order:markers stroke fill"/><path d="M-530.42 1611.65c-.987 0-1.782.793-1.782 1.78v36.574h29.68v-36.574c0-.987-.795-1.78-1.781-1.78zm34.87-24.203a2.273 2.273 0 0 0-2.278 2.28v60.277h29.678v-60.277a2.274 2.274 0 0 0-2.28-2.28zm-68.766-36.955a2.255 2.255 0 0 0-2.26 2.26v97.254h29.68v-97.25a2.255 2.255 0 0 0-2.26-2.26zm32.114-37.852v92.05a2.255 2.255 0 0 0 2.26 2.26h25.16a2.255 2.255 0 0 0 2.26-2.26v-92.049z" style="fill:#9e7437;fill-opacity:1;stroke-width:1.2117;paint-order:markers stroke fill"/><path d="M-597.744 1512.641a3.2 3.2 0 0 0-3.205 3.206v126.319a3.2 3.2 0 0 0 3.205 3.205h23.27a3.2 3.2 0 0 0 3.204-3.205v-126.32a3.2 3.2 0 0 0-3.205-3.205z" style="fill:#9e7437;fill-opacity:1;stroke-width:1.2118;paint-order:markers stroke fill"/><path d="M-566.576 1512.641v31.378c0 .986.796 1.781 1.782 1.781h26.119c.986 0 1.78-.795 1.78-1.781v-31.378zm68.748 0v67.673a2.43 2.43 0 0 0 2.435 2.436h24.807a2.43 2.43 0 0 0 2.436-2.436v-67.673z" style="fill:#9e7437;fill-opacity:1;stroke-width:1.2117;paint-order:markers stroke fill"/></g></pattern></defs><path d="M-58.578 1000.774h256.12v437.605h-256.12z" style="opacity:1;fill:#4d4d4d;fill-opacity:1;stroke:#404040;stroke-width:3.17891;stroke-linejoin:round;stroke-dasharray:none;stroke-opacity:1;stop-color:#000" transform="translate(71.264 -973.615)"/><path d="M-64.043-6.417h251.097V428.6H-64.043z" style="opacity:1;fill:url(#b);stroke:none;stroke-width:.266152" transform="translate(81.581 34.66)"/><g transform="translate(71.264 -973.615)"><rect width="9.9885378" height="58.911995" x="-71.967819" y="-1370.6534" rx="2.6860566" ry="2.6860566" style="fill:#333;fill-opacity:1;stroke-width:.970411;stroke-linecap:square;stop-color:#000" transform="scale(1 -1)"/><rect width="53.046921" height="3.7421968" x="1314.674" y="-69.81749" rx="1.1133809" ry="1.1133809" style="display:inline;fill:#656565;fill-opacity:1;stroke-width:.223198" transform="matrix(0 1 1 0 0 0)"/><rect width="9.9885378" height="58.911995" x="-214.15436" y="1341.4375" rx="2.6860566" ry="2.6860566" style="fill:#333;fill-opacity:1;stroke-width:.970411;stroke-linecap:square;stop-color:#000" transform="scale(-1 1)"/><rect width="53.046921" height="3.7421968" x="-1397.417" y="-212.00403" rx="1.1133809" ry="1.1133809" style="display:inline;fill:#656565;fill-opacity:1;stroke-width:.223198" transform="scale(1 -1)rotate(90)"/><rect width="9.9885378" height="58.911995" x="-214.15436" y="1139.3483" rx="2.6860566" ry="2.6860566" style="fill:#333;fill-opacity:1;stroke-width:.970411;stroke-linecap:square;stop-color:#000" transform="scale(-1 1)"/><rect width="53.046921" height="3.7421968" x="-1195.3276" y="-212.00403" rx="1.1133809" ry="1.1133809" style="display:inline;fill:#656565;fill-opacity:1;stroke-width:.223198" transform="scale(1 -1)rotate(90)"/><g style="display:inline"><g style="display:inline"><path d="M22.065 306.075h27.541v25.948H22.065z" style="fill:#4d4d4d;stroke-width:.481827;stroke-opacity:.575758;paint-order:markers stroke fill;stop-color:#000" transform="translate(38.12 667.542)"/><path d="M23.387 307.542H47.96v23.151H23.387z" style="display:inline;fill:#666;stroke-width:.42989;stroke-opacity:.575758;paint-order:markers stroke fill;stop-color:#000" transform="translate(38.12 667.542)"/></g><g style="display:inline"><path d="M49.405 306.176h27.542v25.948H49.405z" style="display:inline;fill:#4d4d4d;stroke-width:.481827;stroke-opacity:.575758;paint-order:markers stroke fill;stop-color:#000" transform="translate(38.12 667.44)"/><path d="M50.728 307.643H75.3v23.151H50.728z" style="display:inline;fill:#666;stroke-width:.42989;stroke-opacity:.575758;paint-order:markers stroke fill;stop-color:#000" transform="translate(38.12 667.44)"/></g></g><g style="display:inline"><g style="display:inline"><path d="M22.065 306.075h27.541v25.948H22.065z" style="fill:#4d4d4d;stroke-width:.481827;stroke-opacity:.575758;paint-order:markers stroke fill;stop-color:#000" transform="rotate(180 62.213 885.35)"/><path d="M23.387 307.542H47.96v23.151H23.387z" style="display:inline;fill:#666;stroke-width:.42989;stroke-opacity:.575758;paint-order:markers stroke fill;stop-color:#000" transform="rotate(180 62.213 885.35)"/></g><g style="display:inline"><path d="M49.405 306.176h27.542v25.948H49.405z" style="display:inline;fill:#4d4d4d;stroke-width:.481827;stroke-opacity:.575758;paint-order:markers stroke fill;stop-color:#000" transform="rotate(180 62.213 885.402)"/><path d="M50.728 307.643H75.3v23.151H50.728z" style="display:inline;fill:#666;stroke-width:.42989;stroke-opacity:.575758;paint-order:markers stroke fill;stop-color:#000" transform="rotate(180 62.213 885.402)"/></g></g><path d="M-64 994.98h11.13v448.338H-64z" style="opacity:1;fill:#262626;fill-opacity:1;stroke:none;stroke-width:1.88198;stroke-linejoin:round;stroke-dasharray:none;stroke-opacity:1;stop-color:#000"/><rect width="6.2327733" height="313.72485" x="-61.559555" y="998.21454" rx="1.2432752" ry="1.2432752" style="opacity:1;fill:#606060;fill-opacity:1;stroke:none;stroke-width:1.36522;stroke-linejoin:round;stroke-dasharray:none;stroke-opacity:1;stop-color:#000"/><path d="M195.137 994.98h11.13v448.338h-11.13z" style="opacity:1;fill:#262626;fill-opacity:1;stroke:none;stroke-width:1.88198;stroke-linejoin:round;stroke-dasharray:none;stroke-opacity:1;stop-color:#000"/><path d="M994.989-60.973h11.13V53.5h-11.13z" style="opacity:1;fill:#262626;fill-opacity:1;stroke:none;stroke-width:.950972;stroke-linejoin:round;stroke-dasharray:none;stroke-opacity:1;stop-color:#000" transform="rotate(90)"/><path d="M994.989-205.28h11.13v90.898h-11.13z" style="opacity:1;fill:#262626;fill-opacity:1;stroke:none;stroke-width:.847399;stroke-linejoin:round;stroke-dasharray:none;stroke-opacity:1;stop-color:#000" transform="rotate(90)"/><path d="M-1443.32 101.581h11.13V205.28h-11.13z" style="opacity:1;fill:#262626;fill-opacity:1;stroke:none;stroke-width:.905103;stroke-linejoin:round;stroke-dasharray:none;stroke-opacity:1;stop-color:#000" transform="rotate(-90)"/><path d="M-1443.316-53.501h11.13V48.164h-11.13z" style="opacity:1;fill:#262626;fill-opacity:1;stroke:none;stroke-width:.896189;stroke-linejoin:round;stroke-dasharray:none;stroke-opacity:1;stop-color:#000" transform="rotate(-90)"/><rect width="6.2327733" height="40.512249" x="197.57729" y="1400.3138" rx="1.2432752" ry="1.2432752" style="opacity:1;fill:#606060;fill-opacity:1;stroke:none;stroke-width:.490592;stroke-linejoin:round;stroke-dasharray:none;stroke-opacity:1;stop-color:#000"/><path d="M-1119.855-53.96h11.13V49.484h-11.13z" style="opacity:1;fill:#262626;fill-opacity:1;stroke:none;stroke-width:.903996;stroke-linejoin:round;stroke-dasharray:none;stroke-opacity:1;stop-color:#000" transform="rotate(-90)"/><rect width="13.358694" height="14.20422" x="-107.17033" y="-1317.1832" rx="1.3894486" ry="1.3894486" style="opacity:1;fill:#606060;fill-opacity:1;stroke:#262626;stroke-width:2.629;stroke-linejoin:round;stroke-dasharray:none;stroke-opacity:1;stop-color:#000" transform="scale(-1)"/><path d="M1304.336-195.304h11.13v87.118h-11.13z" style="opacity:1;fill:#262626;fill-opacity:1;stroke:none;stroke-width:.829597;stroke-linejoin:round;stroke-dasharray:none;stroke-opacity:1;stop-color:#000" transform="rotate(90)"/><rect width="6.2327733" height="141.67134" x="197.83736" y="997.35175" rx="1.2432752" ry="1.2432752" style="opacity:1;fill:#606060;fill-opacity:1;stroke:none;stroke-width:.917419;stroke-linejoin:round;stroke-dasharray:none;stroke-opacity:1;stop-color:#000"/><rect width="6.2327733" height="143.45479" x="197.83736" y="1198.6676" rx="1.2432752" ry="1.2432752" style="opacity:1;fill:#606060;fill-opacity:1;stroke:none;stroke-width:.923176;stroke-linejoin:round;stroke-dasharray:none;stroke-opacity:1;stop-color:#000"/><rect width="6.2327733" height="70.409752" x="-61.456985" y="1370.3627" rx="1.2432752" ry="1.2432752" style="opacity:1;fill:#606060;fill-opacity:1;stroke:none;stroke-width:.646761;stroke-linejoin:round;stroke-dasharray:none;stroke-opacity:1;stop-color:#000"/><rect width="6.2327733" height="107.43782" x="1434.5807" y="-45.976131" rx="1.2432752" ry="1.2432752" style="opacity:1;fill:#606060;fill-opacity:1;stroke:none;stroke-width:.798926;stroke-linejoin:round;stroke-dasharray:none;stroke-opacity:1;stop-color:#000" transform="rotate(90)"/><rect width="6.2327733" height="96.365456" x="1434.5807" y="-200.46823" rx="1.2432752" ry="1.2432752" style="opacity:1;fill:#606060;fill-opacity:1;stroke:none;stroke-width:.756639;stroke-linejoin:round;stroke-dasharray:none;stroke-opacity:1;stop-color:#000" transform="rotate(90)"/><rect width="6.2327733" height="120.22532" x="997.35236" y="-58.676788" rx="1.2432752" ry="1.243275" style="opacity:1;fill:#606060;fill-opacity:1;stroke:none;stroke-width:.845135;stroke-linejoin:round;stroke-dasharray:none;stroke-opacity:1;stop-color:#000" transform="rotate(90)"/><rect width="6.2327733" height="83.295715" x="997.35236" y="-200.38139" rx="1.2432752" ry="1.2432752" style="opacity:1;fill:#606060;fill-opacity:1;stroke:none;stroke-width:.70346;stroke-linejoin:round;stroke-dasharray:none;stroke-opacity:1;stop-color:#000" transform="rotate(90)"/><rect width="6.2327733" height="107.45274" x="1111.2225" y="-46.641087" rx="1.2432752" ry="1.243275" style="opacity:1;fill:#606060;fill-opacity:1;stroke:none;stroke-width:.798982;stroke-linejoin:round;stroke-dasharray:none;stroke-opacity:1;stop-color:#000" transform="rotate(90)"/><rect width="6.2327733" height="92.429062" x="1306.8334" y="-202.88052" rx="1.2432752" ry="1.243275" style="opacity:1;fill:#606060;fill-opacity:1;stroke:none;stroke-width:.741024;stroke-linejoin:round;stroke-dasharray:none;stroke-opacity:1;stop-color:#000" transform="rotate(90)"/><rect width="13.358694" height="14.20422" x="-63.879539" y="-1121.4314" rx="1.3894486" ry="1.3894486" style="opacity:1;fill:#606060;fill-opacity:1;stroke:#262626;stroke-width:2.629;stroke-linejoin:round;stroke-dasharray:none;stroke-opacity:1;stop-color:#000" transform="scale(-1)"/></g></svg>