<svg xmlns="http://www.w3.org/2000/svg" width="335.08875" height="249.62338" viewBox="0 0 88.658898 66.046187"><path d="M32.93-306.794h202.372v-192.461H32.931Zm21.582-123.091 46.404 31.675 22.539-31.078-34.913 96.818-26.958-30.48z" style="fill:#405f3a;fill-opacity:1;fill-rule:evenodd;stroke:#1f2d1a;stroke-width:2.15753;stroke-linecap:round;stroke-linejoin:round;stroke-dasharray:none;stroke-opacity:1" transform="matrix(0 .6016 -.44487 0 -134.948 -18.091)"/><path d="M304.642 32.913h196.935v10.94H304.642zm-.001 23.933v10.941h70.62l7.014-6.203 25.518-4.738zm110.262 4.083-.911 6.858h87.585v-10.94h-77.282zM304.641 80.78v10.94h46.306l-8.815-3.178 8.776-7.762zm89.784 0-7.468 10.94h114.62V80.78Zm-89.784 23.932v10.941h84.924l-2.452-10.94zm100.853 0 13.036 10.941h83.047v-10.94zm-100.852 23.934h196.935v10.94H304.642zm0 23.933h196.935v10.94H304.642zm0 23.933h196.935v10.941H304.642zm0 23.933h196.935v10.941H304.642zm0 23.934h196.935v10.94H304.642z" style="fill:#486c42;fill-opacity:1;fill-rule:evenodd;stroke:#1f2d1a;stroke-width:2.11667;stroke-linecap:round;stroke-linejoin:round;stroke-dasharray:none;stroke-opacity:1" transform="matrix(.44487 0 0 .6016 -134.948 -18.091)"/><path d="M31.393-411.38h205.443v16.542H31.393z" style="fill:#486c42;fill-opacity:1;fill-rule:evenodd;stroke:#1f2d1a;stroke-width:2.64336;stroke-linecap:round;stroke-linejoin:round;stroke-dasharray:none;stroke-opacity:1" transform="matrix(0 .6016 -.44487 0 -134.948 -18.091)"/></svg>