<svg xmlns="http://www.w3.org/2000/svg" xmlns:xlink="http://www.w3.org/1999/xlink" width="420.913545" height="309.013945" viewBox="0 0 222.73342 163.51988"><defs><pattern xlink:href="#a" id="b" x="0" y="0" patternTransform="matrix(0 -.265 .265 0 580.44 5.951)" preserveAspectRatio="xMidYMid"/><pattern id="a" width="338.127" height="182.91212" patternTransform="translate(245 644)" patternUnits="userSpaceOnUse" preserveAspectRatio="xMidYMid"><path d="M0 0v182.912h338.127V0Z" style="fill:#543d2b;fill-opacity:1;stroke-width:5.1292;paint-order:markers stroke fill"/><rect width="39.616203" height="163.38123" x="-136.36732" y="-291.73346" rx="3.6018958" ry="3.602" style="fill:#644c33;fill-opacity:1;stroke-width:1.54049;paint-order:markers stroke fill" transform="scale(1 -1)rotate(90)"/><rect width="39.616203" height="163.38123" x="-90.501572" y="-216.4617" rx="3.602" ry="3.602" style="fill:#694c30;fill-opacity:1;stroke-width:1.54049;paint-order:markers stroke fill" transform="scale(1 -1)rotate(90)"/><rect width="39.616203" height="163.38123" x="-45.341015" y="-246.04015" rx="3.6018958" ry="3.602" style="fill:#644c33;fill-opacity:1;stroke-width:1.54049;paint-order:markers stroke fill" transform="scale(1 -1)rotate(90)"/><rect width="39.616203" height="163.38123" x="-182.91211" y="-338.12701" rx="3.6018958" ry="3.602" style="fill:#694c30;fill-opacity:1;stroke-width:1.54049;paint-order:markers stroke fill" transform="scale(1 -1)rotate(90)"/><rect width="39.616203" height="163.38123" x="-182.91211" y="-169.08337" rx="3.602" ry="3.602" style="fill:#644c33;fill-opacity:1;stroke-width:1.54049;paint-order:markers stroke fill" transform="scale(1 -1)rotate(90)"/><path d="M0 5.725v39.617h73.05a3.595 3.595 0 0 0 3.602-3.604V9.326a3.593 3.593 0 0 0-3.601-3.601zm255.648.001a3.593 3.593 0 0 0-3.601 3.602V41.74a3.593 3.593 0 0 0 3.601 3.602h82.479V5.726Z" style="fill:#694c30;fill-opacity:1;stroke-width:1.54049;paint-order:markers stroke fill"/><path d="M0 50.828v39.615h43.395a3.593 3.593 0 0 0 3.601-3.601V54.43a3.593 3.593 0 0 0-3.601-3.602zm226.148-.058a3.593 3.593 0 0 0-3.601 3.602v32.412a3.595 3.595 0 0 0 3.601 3.603h111.979V50.77Z" style="fill:#644c33;fill-opacity:1;stroke-width:1.54049;paint-order:markers stroke fill"/><path d="M0 96.727v39.617h118.332a3.595 3.595 0 0 0 3.602-3.604v-32.412a3.593 3.593 0 0 0-3.602-3.602zm301.754.011a3.593 3.593 0 0 0-3.602 3.602v32.412a3.595 3.595 0 0 0 3.602 3.603h36.373V96.738Z" style="fill:#694c30;fill-opacity:1;stroke-width:1.54049;paint-order:markers stroke fill"/></pattern></defs><g transform="rotate(90 78.518 194.935)"><path d="M-113.29 62.496h295.322V264.19h-295.321z" style="fill:url(#b);stroke:none;stroke-width:3.06255;stroke-linecap:round;stroke-linejoin:round;stroke-dasharray:none"/><path d="M-148.427-118.401h27.542v25.948h-27.542z" style="display:inline;fill:#4d4d4d;stroke-width:.481827;stroke-opacity:.575758;-inkscape-stroke:none;paint-order:markers stroke fill;stop-color:#000" transform="matrix(0 -1.01108 -1.03681 0 87.174 20.657)"/><path d="M-146.781-117.071h24.573v23.15h-24.573z" style="display:inline;fill:#666;stroke-width:.42989;stroke-opacity:.575758;-inkscape-stroke:none;paint-order:markers stroke fill;stop-color:#000" transform="matrix(0 -1.01108 -1.03681 0 87.174 20.657)"/><path d="M-175.767-118.4h27.541v25.948h-27.541z" style="display:inline;fill:#4d4d4d;stroke-width:.481827;stroke-opacity:.575758;-inkscape-stroke:none;paint-order:markers stroke fill;stop-color:#000" transform="matrix(0 -1.01108 -1.03681 0 87.174 20.657)"/><path d="M-174.121-117.07h24.573v23.151h-24.573z" style="display:inline;fill:#666;stroke-width:.42989;stroke-opacity:.575758;-inkscape-stroke:none;paint-order:markers stroke fill;stop-color:#000" transform="matrix(0 -1.01108 -1.03681 0 87.174 20.657)"/><rect width="75.161728" height="1.6819171" x="126.69892" y="181.36806" ry="0" style="fill:#737373;fill-opacity:1;stroke:none;stroke-width:2.261;stroke-linecap:square;stroke-linejoin:miter;stroke-opacity:1;paint-order:normal;stop-color:#000" transform="matrix(0 1 1 0 0 0)"/><path d="M115.354 51.268c-.77 0-1.39.62-1.39 1.39v1.41H58.287v-1.28c0-.77-.62-1.39-1.39-1.39H53.74c-.77 0-1.39.62-1.39 1.39v1.28h-167.712v7.877c.111 67.769.056 135.373.056 203.022h-.013v7.43h298.713v-.072h.035v-73.657h-7.422v66.3h-283.891V61.944H53.55q.093.013.191.013h3.156q.098 0 .192-.013H176.19v81.483h7.24v-89.32h-3.7c-19.854-.08-39.905-.04-59.83-.04v-1.41c0-.77-.62-1.39-1.391-1.39z" style="fill:#4f4f4f;fill-opacity:1;stroke:#323232;stroke-width:2.111;stroke-linejoin:round;stroke-dasharray:none;stroke-opacity:1"/><rect width="183.49736" height="7.6631761" x="-6.2690229" y="54.145523" rx="0" ry="0" style="fill:#323232;fill-opacity:1;stroke:none;stroke-width:1.57;stroke-linejoin:round;stroke-opacity:1;stop-color:#000"/><rect width="189.80009" height="2.440213" x="-8.477458" y="58.490559" rx="0.62410283" ry="0.62410295" style="fill:#4f4f4f;fill-opacity:1;stroke:none;stroke-width:.788685;stroke-linecap:square;stroke-linejoin:round;stroke-dasharray:none;stroke-opacity:1"/><rect width="4.5683722" height="8.2620296" x="52.972828" y="52.353958" rx="0.62410295" ry="0.62410295" style="fill:#4f4f4f;fill-opacity:1;stroke:none;stroke-width:.788682;stroke-linecap:square;stroke-linejoin:round;stroke-dasharray:none;stroke-opacity:1"/><rect width="4.5683722" height="8.2620296" x="52.972828" y="52.353958" rx="0.62410295" ry="0.62410295" style="fill:#4f4f4f;fill-opacity:1;stroke:none;stroke-width:.788682;stroke-linecap:square;stroke-linejoin:round;stroke-dasharray:none;stroke-opacity:1"/><rect width="4.5683722" height="8.2620296" x="114.69585" y="52.353958" rx="0.62410295" ry="0.62410295" style="fill:#4f4f4f;fill-opacity:1;stroke:none;stroke-width:.788682;stroke-linecap:square;stroke-linejoin:round;stroke-dasharray:none;stroke-opacity:1"/></g></svg>