<svg xmlns="http://www.w3.org/2000/svg" width="418.26199" height="573.62024" viewBox="0 0 110.66515 151.77036"><g transform="matrix(0 .5 -.5 0 143.47 166.21)"><g transform="translate(490.385 -97.236)"><path fill="#4d4d4d" d="m-817.12 165.743-.475 216.375h294.627V165.743Zm191.092 85.195h80.403v27.395h-80.403zm-.168 41.17h80.907v27.55h-80.907z" style="stroke-width:.99579"/><path d="M-816.434 356.757h293.741v25.824h-293.741z" style="fill:#606060;fill-opacity:1;stroke:none;stroke-width:2.32177;stroke-linecap:square;stroke-dasharray:none;stroke-opacity:1;stop-color:#000"/><path d="M-818.709 304.81v25.824h296.073v-25.825h-22.36v14.627h-81.6V304.81z" style="fill:#606060;fill-opacity:1;stroke:none;stroke-width:1.95032;stroke-linecap:square;stroke-dasharray:none;stroke-opacity:1;stop-color:#000"/><path d="M-816.481 252.4v25.824h191.018V252.4zm271.18 0v25.824h22.682V252.4z" style="fill:#606060;fill-opacity:1;stroke:none;stroke-width:1.93919;stroke-linecap:square;stroke-dasharray:none;stroke-opacity:1;stop-color:#000"/><path d="M-813.025 201.312h290.414v25.824h-290.414z" style="fill:#606060;fill-opacity:1;stroke:none;stroke-width:2.0943;stroke-linecap:square;stroke-dasharray:none;stroke-opacity:1;stop-color:#000"/><path d="M-812.457 165.547h290.238v10.947h-290.238z" style="fill:#606060;fill-opacity:1;stroke:none;stroke-width:1.52854;stroke-linecap:square;stroke-dasharray:none;stroke-opacity:1;stop-color:#000"/><path d="M-580.574 255.306h31.262v4.197h-31.262zm0 13.494h31.262v4.198h-31.262zm0-6.747h31.262v4.197h-31.262zm-41.408-6.747h31.261v4.197h-31.261z" style="fill:#999;stroke-width:.505896"/><path fill="#333" d="M-544.285 248.292h-82.52v32.032h82.52zm-4.414 27.896h-32.759v-23.926h32.759zm-40.786 0h-32.633v-23.926h32.633z"/><path fill="#666" d="M-581.322 250.55c-1.237 0-2.232.98-2.232 2.197v23.122c0 1.218.995 2.197 2.232 2.197h32.758c1.237 0 2.232-.98 2.232-2.197v-23.122c0-1.217-.995-2.198-2.232-2.198zm.992 2.823h30.777v21.59h-30.777z"/><path d="M-621.982 268.8h31.261v4.198h-31.261zm0-6.747h31.261v4.197h-31.261z" style="fill:#999;stroke-width:.505896"/><path fill="#666" d="M-622.525 250.55c-1.237 0-2.232.98-2.232 2.197v23.122c0 1.218.995 2.197 2.231 2.197h32.76c1.236 0 2.231-.98 2.231-2.197v-23.122c0-1.217-.995-2.198-2.232-2.198zm.992 2.823h30.777v21.59h-30.777z"/><path d="M-580.55 297.382h31.262v4.197h-31.262zm0 13.495h31.262v4.197h-31.262zm0-6.747h31.262v4.197h-31.262zm-41.408-6.748h31.261v4.197h-31.261z" style="fill:#999;stroke-width:.505896"/><path fill="#333" d="M-544.26 290.368h-82.52V322.4h82.52zm-4.415 27.897h-32.759v-23.926h32.76zm-40.786 0h-32.633v-23.926h32.633z"/><path fill="#666" d="M-581.298 292.626c-1.237 0-2.232.98-2.232 2.198v23.122c0 1.217.995 2.197 2.232 2.197h32.758c1.237 0 2.232-.98 2.232-2.197v-23.122c0-1.218-.995-2.198-2.232-2.198zm.992 2.823h30.777v21.59h-30.777z"/><path d="M-621.958 310.877h31.261v4.197h-31.261zm0-6.747h31.261v4.197h-31.261z" style="fill:#999;stroke-width:.505896"/><path fill="#666" d="M-622.501 292.626c-1.237 0-2.232.98-2.232 2.198v23.122c0 1.217.995 2.197 2.232 2.197h32.758c1.237 0 2.232-.98 2.232-2.197v-23.122c0-1.218-.995-2.198-2.232-2.198zm.992 2.823h30.777v21.59h-30.777z"/><path d="M-660.338 272.81c.338-2.029-.714-3.541-1.508-5.253-.222-.479-.28-1.022-.502-1.5-.165-.355-1.635-2.717-1.76-3.253-.195-.844-.166-5.759 0-6.753.114-.68 5.206-3.871 5.78-4.253 3.633-2.41 7.74-4.173 11.057-7.004 1.159-.988 1.471-2.628 2.513-3.752.684-.738 1.548-1.291 2.262-2.001.88-.876 1.59-1.92 2.513-2.752 1.294-1.166 4.443-3.49 6.282-4.252 2.198-.912 4.203-1 6.533-1 .587 0 1.187.126 1.76 0 .957-.212 1.834-.692 2.764-1.001.578-.192 1.213-.229 1.759-.5.318-.159.476-.53.754-.75 2.13-1.697 1.82-.754 3.266-3.503 2.927-5.56 3.518-10.58 3.518-16.76 0-2.023.501-2.94-1.256-4.252-.776-.579-.205-.022-1.005-.25-2.514-.715-4.908-1.436-7.539-1.75-3.701-.443-11.42-1.384-14.826.5-.732.404-1.3 1.058-2.01 1.5-1.661 1.034-.461-.154-2.262 1.501-.697.64-1.297 1.38-2.01 2.001-.63.55-1.4.93-2.01 1.501-.821.77-1.412 1.766-2.262 2.502-6.07 5.254-1.497 1.188-4.775 3.001-.366.203-.63.564-1.005.75-.31.155-.688.115-1.005.25-.278.12-.461.428-.754.501-.806.2-7.01.082-7.79 0-3.06-.32-1.563-.57-4.523-1.5-.815-.257-1.682-.306-2.513-.501-.594-.139-1.154-.43-1.76-.5-1.783-.21-3.966 0-5.78 0-2.18 0-2.958-.033-4.774 1-.162.093-.382.107-.502.25-.967 1.155-1.351 2.69-2.01 4.003-.136.269-.384.474-.503.75-1.052 2.442 1.143 2.201 1.759 3.252.454.776.658 1.672 1.005 2.501 1.195 2.854 2.953 4.8 3.267 8.005.656 6.694.466 9.541-2.262 16.26-.422 1.04-1.43 1.743-2.261 2.5-.346.316-1.257.25-1.257.25-.52 2.073 1.075 3.687 1.76 5.504.312.831.285 1.637.502 2.501.436 1.738.82 2.352 1.759 3.752.545.814.202.952 1.256 2.001.427.426 1.016.652 1.508 1.001 2.345 1.668-.251-.25 1.759 1.751 1.612 1.605 3.462 2.898 5.277 4.252.284.213.417.639.754.75.25.084 1.04-.143 1.256 0 .156.104.12.37.252.501.347.346 1.158.018 1.508.25.197.131.29.395.502.5.533.266 2.843-.115 3.518-.25 1.011-.2.116-.182.754-.5.148-.074.585 0 .754 0 1.774 0 1.82-.027 2.513-1.75" style="opacity:.292683;fill:#333;fill-opacity:1;stroke:none;stroke-width:2.11799;stroke-linecap:square;stroke-dasharray:none;stroke-opacity:1;stop-color:#000"/><path d="M-822.806 162.864h11.505v221.273h-11.505z" style="opacity:1;fill:#262626;fill-opacity:1;stroke:none;stroke-width:5.27992;stroke-linecap:square;stroke-dasharray:none;stroke-opacity:1;stop-color:#000"/><path d="M-530.77 162.9h11.505v221.273h-11.506z" style="fill:#262626;fill-opacity:1;stroke:none;stroke-width:5.27992;stroke-linecap:square;stroke-dasharray:none;stroke-opacity:1;stop-color:#000"/><path d="M-384.173-812.808h11.452v284.536h-11.452z" style="fill:#262626;fill-opacity:1;stroke:none;stroke-width:5.98524;stroke-linecap:square;stroke-dasharray:none;stroke-opacity:1;stop-color:#000" transform="rotate(-90)"/><path d="M-174.296-812.816h11.453v288.783h-11.453z" style="fill:#262626;fill-opacity:1;stroke:none;stroke-width:6.01377;stroke-linecap:square;stroke-dasharray:none;stroke-opacity:1;stop-color:#000" transform="rotate(-90)"/><rect width="6.3922424" height="216.48911" x="-820.32465" y="165.32162" rx="2.8711586" ry="2.8711586" style="opacity:1;fill:#606060;fill-opacity:1;stroke:none;stroke-width:1.51691;stroke-linecap:square;stroke-dasharray:none;stroke-opacity:1;stop-color:#000"/><rect width="6.3922424" height="215.44519" x="-528.03345" y="165.32974" rx="2.8666646" ry="2.8666646" style="fill:#606060;fill-opacity:1;stroke:none;stroke-width:1.51572;stroke-linecap:square;stroke-dasharray:none;stroke-opacity:1;stop-color:#000"/><rect width="6.3922424" height="298.69485" x="-381.7821" y="-820.32916" rx="3.0620272" ry="3.0620275" style="fill:#606060;fill-opacity:1;stroke:none;stroke-width:1.71498;stroke-linecap:square;stroke-dasharray:none;stroke-opacity:1;stop-color:#000" transform="rotate(-90)"/><rect width="6.3922424" height="298.08951" x="-171.71013" y="-820.32764" rx="2.1664672" ry="2.1664674" style="fill:#606060;fill-opacity:1;stroke:none;stroke-width:1.74889;stroke-linecap:square;stroke-dasharray:none;stroke-opacity:1;stop-color:#000" transform="rotate(-90)"/></g><circle cx="-118.84828" cy="-241.55751" r="10.00125" fill="#a7a7aa" transform="scale(1 -1)rotate(15)"/><circle cx="-118.84828" cy="-241.55751" r="7.0114584" fill="#cbcbcd" transform="scale(1 -1)rotate(15)"/></g><g transform="matrix(-.5 0 0 -.5 246.642 565.19)"><rect width="61.279179" height="3.9698756" x="1004.4308" y="-452.20993" rx="1.8358727" ry="1.5191084" style="fill:#4d4d4d;fill-opacity:1;stroke:#333;stroke-width:2.11;stroke-linecap:square;stroke-linejoin:round;stroke-dasharray:none;stroke-opacity:1;stop-color:#000" transform="rotate(90)"/><path d="M-476.86-1094.974h11.463v206.988h-11.463z" style="fill:#bfbfbf;fill-opacity:1;stroke:#666;stroke-width:4;stroke-linejoin:round;stroke-dasharray:none;stroke-opacity:1;stop-color:#000" transform="scale(1 -1)rotate(45)"/><path d="M-997.212-574.623h11.464v206.99h-11.464z" style="fill:#bfbfbf;fill-opacity:1;stroke:#666;stroke-width:4;stroke-linejoin:round;stroke-dasharray:none;stroke-opacity:1;stop-color:#000" transform="rotate(-135)"/><path d="M-1108.522 293.794h11.463v149.021h-11.463z" style="fill:#710f0f;fill-opacity:1;stroke:#4f0d0d;stroke-width:4;stroke-linejoin:round;stroke-dasharray:none;stroke-opacity:1;stop-color:#000" transform="rotate(-90)"/><path d="M-305.244-1108.536h11.463v149.021h-11.463z" style="fill:#710f0f;fill-opacity:1;stroke:#4f0d0d;stroke-width:4;stroke-linejoin:round;stroke-dasharray:none;stroke-opacity:1;stop-color:#000" transform="scale(-1)"/><circle cx="-1102.7236" cy="299.5228" r="9.6954565" style="fill:#b8b8b8;fill-opacity:1;stroke:#666;stroke-width:4;stroke-linejoin:round;stroke-dasharray:none;stroke-opacity:1;stop-color:#000" transform="rotate(-90)"/><path d="M959.529-442.802h11.463v149.021h-11.463z" style="fill:#710f0f;fill-opacity:1;stroke:#4f0d0d;stroke-width:4;stroke-linejoin:round;stroke-dasharray:none;stroke-opacity:1;stop-color:#000" transform="rotate(90)"/><path d="M431.352 959.515h11.463v149.02h-11.463z" style="fill:#710f0f;fill-opacity:1;stroke:#4f0d0d;stroke-width:4;stroke-linejoin:round;stroke-dasharray:none;stroke-opacity:1;stop-color:#000"/><circle cx="-965.3316" cy="299.5228" r="9.6954565" style="fill:#b8b8b8;fill-opacity:1;stroke:#666;stroke-width:4;stroke-linejoin:round;stroke-dasharray:none;stroke-opacity:1;stop-color:#000" transform="rotate(-90)"/><circle cx="-1102.7236" cy="437.16751" r="9.6954565" style="fill:#b8b8b8;fill-opacity:1;stroke:#666;stroke-width:4;stroke-linejoin:round;stroke-dasharray:none;stroke-opacity:1;stop-color:#000" transform="rotate(-90)"/><circle cx="-965.3316" cy="437.16751" r="9.6954565" style="fill:#b8b8b8;fill-opacity:1;stroke:#666;stroke-width:4;stroke-linejoin:round;stroke-dasharray:none;stroke-opacity:1;stop-color:#000" transform="rotate(-90)"/><path d="M-1086.232 317.268h7.865v102.256h-7.865z" style="fill:#ccc;fill-opacity:1;stroke:#737373;stroke-width:4.00001;stroke-linejoin:round;stroke-dasharray:none;stroke-opacity:1;stop-color:#000" transform="rotate(-90)"/><path d="M-325.125-1084.765h7.866v102.254h-7.866z" style="fill:#ccc;fill-opacity:1;stroke:#737373;stroke-width:4.00001;stroke-linejoin:round;stroke-dasharray:none;stroke-opacity:1;stop-color:#000" transform="scale(-1)"/><ellipse cx="-1080.7775" cy="321.19907" rx="6.6527476" ry="6.6528697" style="fill:#851414;fill-opacity:1;stroke:#570f0f;stroke-width:4.00001;stroke-linejoin:round;stroke-dasharray:none;stroke-opacity:1;stop-color:#000" transform="rotate(-90)"/><path d="M982.521-419.515h7.866v102.256h-7.866z" style="fill:#ccc;fill-opacity:1;stroke:#737373;stroke-width:4.00001;stroke-linejoin:round;stroke-dasharray:none;stroke-opacity:1;stop-color:#000" transform="rotate(90)"/><path d="M411.658 982.512h7.866v102.254h-7.866z" style="fill:#ccc;fill-opacity:1;stroke:#737373;stroke-width:4.00001;stroke-linejoin:round;stroke-dasharray:none;stroke-opacity:1;stop-color:#000"/><ellipse cx="-986.50299" cy="321.19907" rx="6.6527476" ry="6.6528697" style="fill:#851414;fill-opacity:1;stroke:#570f0f;stroke-width:4.00001;stroke-linejoin:round;stroke-dasharray:none;stroke-opacity:1;stop-color:#000" transform="rotate(-90)"/><ellipse cx="-1080.7775" cy="415.64868" rx="6.6527476" ry="6.6528697" style="fill:#851414;fill-opacity:1;stroke:#570f0f;stroke-width:4.00001;stroke-linejoin:round;stroke-dasharray:none;stroke-opacity:1;stop-color:#000" transform="rotate(-90)"/><ellipse cx="-986.50299" cy="415.64868" rx="6.6527476" ry="6.6528697" style="fill:#851414;fill-opacity:1;stroke:#570f0f;stroke-width:4.00001;stroke-linejoin:round;stroke-dasharray:none;stroke-opacity:1;stop-color:#000" transform="rotate(-90)"/><g style="fill:#a6a6a6;stroke:#4d4d4d;stroke-width:4.972"><path stroke="none" d="m-39.518 796.004-14.808 14.808" style="color:#000;fill-rule:evenodd;stroke:none;stroke-linecap:round;stroke-linejoin:round;stroke-miterlimit:20;-inkscape-stroke:none" transform="rotate(-90 349.502 710.934)"/></g><g transform="translate(.436 -.086)"><rect width="61.279179" height="3.8922374" x="1004.5172" y="-444.95023" rx="1.8358727" ry="1.5191084" style="fill:#4d4d4d;fill-opacity:1;stroke:#333;stroke-width:2.11;stroke-linecap:square;stroke-linejoin:round;stroke-dasharray:none;stroke-opacity:1;stop-color:#000" transform="rotate(90)"/><rect width="23.626871" height="4.5774093" x="422.81531" y="1055.9226" rx="2.2887046" ry="2.2887046" style="fill:#4d4d4d;fill-opacity:1;stroke:#333;stroke-width:2.09287;stroke-linecap:square;stroke-linejoin:round;stroke-dasharray:none;stroke-opacity:1;stop-color:#000"/><rect width="23.626871" height="4.5774093" x="422.76465" y="1009.2867" rx="2.2887046" ry="2.2887046" style="fill:#4d4d4d;fill-opacity:1;stroke:#333;stroke-width:2.09287;stroke-linecap:square;stroke-linejoin:round;stroke-dasharray:none;stroke-opacity:1;stop-color:#000"/></g><rect width="61.279179" height="3.8922374" x="1004.4308" y="-438.64029" rx="1.8358727" ry="1.5191084" style="fill:#4d4d4d;fill-opacity:1;stroke:#333;stroke-width:2.11;stroke-linecap:square;stroke-linejoin:round;stroke-dasharray:none;stroke-opacity:1;stop-color:#000" transform="rotate(90)"/><rect width="61.279179" height="3.8922374" x="1004.4308" y="-425.14832" rx="1.8358727" ry="1.5191084" style="fill:#4d4d4d;fill-opacity:1;stroke:#333;stroke-width:2.11;stroke-linecap:square;stroke-linejoin:round;stroke-dasharray:none;stroke-opacity:1;stop-color:#000" transform="rotate(90)"/><rect width="61.279179" height="3.8922374" x="1004.4308" y="-431.89432" rx="1.8358727" ry="1.5191084" style="fill:#4d4d4d;fill-opacity:1;stroke:#333;stroke-width:2.11;stroke-linecap:square;stroke-linejoin:round;stroke-dasharray:none;stroke-opacity:1;stop-color:#000" transform="rotate(90)"/><rect width="23.626871" height="4.5774093" x="414.37399" y="1055.8363" rx="2.2887046" ry="2.2887046" style="fill:#4d4d4d;fill-opacity:1;stroke:#333;stroke-width:2.09287;stroke-linecap:square;stroke-linejoin:round;stroke-dasharray:none;stroke-opacity:1;stop-color:#000"/><rect width="40.929646" height="4.5773926" x="414.32333" y="1009.2003" rx="2.2887046" ry="2.2886963" style="fill:#4d4d4d;fill-opacity:1;stroke:#333;stroke-width:2.09287;stroke-linecap:square;stroke-linejoin:round;stroke-dasharray:none;stroke-opacity:1;stop-color:#000"/><rect width="40.929646" height="4.5773926" x="414.37399" y="1055.8363" rx="2.2887046" ry="2.2886963" style="fill:#4d4d4d;fill-opacity:1;stroke:#333;stroke-width:2.09287;stroke-linecap:square;stroke-linejoin:round;stroke-dasharray:none;stroke-opacity:1;stop-color:#000"/><g style="stroke-width:.870687"><path d="M263.118 1226.352h84.621v84.201h-84.621z" style="fill:#666;fill-opacity:1;stroke:#333;stroke-width:2.50583;stroke-linecap:square;stroke-linejoin:miter;stroke-dasharray:none;stroke-opacity:1;stop-color:#000" transform="translate(17.88 -423.322)scale(1.14852)"/><g style="stroke-width:.711601"><path fill="#d9d9d9" d="M8052.37 3599.98c9.78 9.7 17.63 10.51 17.63 10.51s-.45-4.3-4.62-10.51zm-15.1 21.89c-2.47 2.47-4.81 4.37-6.94 5.83v-13.11c9.77-9.69 17.61-10.5 17.61-10.5s-.83 7.93-10.67 17.78m37.19-7.3v13.11c-6.4 4.4-10.87 4.86-10.87 4.86s1.02-8.12 10.87-17.97m-9.07 29.54h-12.99c-9.85-9.85-10.86-17.97-10.86-17.97s7.94.83 17.79 10.68c2.6 2.6 4.57 5.07 6.06 7.29" opacity="0.4" style="stroke-width:.581583" transform="translate(-2118.475 -26.879)scale(.30388)"/></g><g style="stroke-width:.711601"><path fill="#d9d9d9" d="M8052.37 3599.98c9.78 9.7 17.63 10.51 17.63 10.51s-.45-4.3-4.62-10.51zm-15.1 21.89c-2.47 2.47-4.81 4.37-6.94 5.83v-13.11c9.77-9.69 17.61-10.5 17.61-10.5s-.83 7.93-10.67 17.78m37.19-7.3v13.11c-6.4 4.4-10.87 4.86-10.87 4.86s1.02-8.12 10.87-17.97m-9.07 29.54h-12.99c-9.85-9.85-10.86-17.97-10.86-17.97s7.94.83 17.79 10.68c2.6 2.6 4.57 5.07 6.06 7.29" opacity="0.4" style="stroke-width:.581583" transform="translate(-2105.063 -26.879)scale(.30388)"/></g><g style="stroke-width:.711601"><path fill="#d9d9d9" d="M8052.37 3599.98c9.78 9.7 17.63 10.51 17.63 10.51s-.45-4.3-4.62-10.51zm-15.1 21.89c-2.47 2.47-4.81 4.37-6.94 5.83v-13.11c9.77-9.69 17.61-10.5 17.61-10.5s-.83 7.93-10.67 17.78m37.19-7.3v13.11c-6.4 4.4-10.87 4.86-10.87 4.86s1.02-8.12 10.87-17.97m-9.07 29.54h-12.99c-9.85-9.85-10.86-17.97-10.86-17.97s7.94.83 17.79 10.68c2.6 2.6 4.57 5.07 6.06 7.29" opacity="0.4" style="stroke-width:.581583" transform="translate(-2091.652 -26.879)scale(.30388)"/></g><g style="stroke-width:.711601"><path fill="#d9d9d9" d="M8052.37 3599.98c9.78 9.7 17.63 10.51 17.63 10.51s-.45-4.3-4.62-10.51zm-15.1 21.89c-2.47 2.47-4.81 4.37-6.94 5.83v-13.11c9.77-9.69 17.61-10.5 17.61-10.5s-.83 7.93-10.67 17.78m37.19-7.3v13.11c-6.4 4.4-10.87 4.86-10.87 4.86s1.02-8.12 10.87-17.97m-9.07 29.54h-12.99c-9.85-9.85-10.86-17.97-10.86-17.97s7.94.83 17.79 10.68c2.6 2.6 4.57 5.07 6.06 7.29" opacity="0.4" style="stroke-width:.581583" transform="translate(-2078.24 -26.879)scale(.30388)"/></g><g style="stroke-width:.711601"><path fill="#d9d9d9" d="M8052.37 3599.98c9.78 9.7 17.63 10.51 17.63 10.51s-.45-4.3-4.62-10.51zm-15.1 21.89c-2.47 2.47-4.81 4.37-6.94 5.83v-13.11c9.77-9.69 17.61-10.5 17.61-10.5s-.83 7.93-10.67 17.78m37.19-7.3v13.11c-6.4 4.4-10.87 4.86-10.87 4.86s1.02-8.12 10.87-17.97m-9.07 29.54h-12.99c-9.85-9.85-10.86-17.97-10.86-17.97s7.94.83 17.79 10.68c2.6 2.6 4.57 5.07 6.06 7.29" opacity="0.4" style="stroke-width:.581583" transform="translate(-2064.833 -26.879)scale(.30388)"/></g><g style="stroke-width:.711601"><path fill="#d9d9d9" d="M8052.37 3599.98c9.78 9.7 17.63 10.51 17.63 10.51s-.45-4.3-4.62-10.51zm-15.1 21.89c-2.47 2.47-4.81 4.37-6.94 5.83v-13.11c9.77-9.69 17.61-10.5 17.61-10.5s-.83 7.93-10.67 17.78m37.19-7.3v13.11c-6.4 4.4-10.87 4.86-10.87 4.86s1.02-8.12 10.87-17.97m-9.07 29.54h-12.99c-9.85-9.85-10.86-17.97-10.86-17.97s7.94.83 17.79 10.68c2.6 2.6 4.57 5.07 6.06 7.29" opacity="0.4" style="stroke-width:.581583" transform="translate(-2051.422 -26.879)scale(.30388)"/></g><g style="stroke-width:.711601"><path fill="#d9d9d9" d="M8052.37 3599.98c9.78 9.7 17.63 10.51 17.63 10.51s-.45-4.3-4.62-10.51zm-15.1 21.89c-2.47 2.47-4.81 4.37-6.94 5.83v-13.11c9.77-9.69 17.61-10.5 17.61-10.5s-.83 7.93-10.67 17.78m37.19-7.3v13.11c-6.4 4.4-10.87 4.86-10.87 4.86s1.02-8.12 10.87-17.97m-9.07 29.54h-12.99c-9.85-9.85-10.86-17.97-10.86-17.97s7.94.83 17.79 10.68c2.6 2.6 4.57 5.07 6.06 7.29" opacity="0.4" style="stroke-width:.581583" transform="translate(-2118.475 -40.286)scale(.30388)"/></g><g style="stroke-width:.711601"><path fill="#d9d9d9" d="M8052.37 3599.98c9.78 9.7 17.63 10.51 17.63 10.51s-.45-4.3-4.62-10.51zm-15.1 21.89c-2.47 2.47-4.81 4.37-6.94 5.83v-13.11c9.77-9.69 17.61-10.5 17.61-10.5s-.83 7.93-10.67 17.78m37.19-7.3v13.11c-6.4 4.4-10.87 4.86-10.87 4.86s1.02-8.12 10.87-17.97m-9.07 29.54h-12.99c-9.85-9.85-10.86-17.97-10.86-17.97s7.94.83 17.79 10.68c2.6 2.6 4.57 5.07 6.06 7.29" opacity="0.4" style="stroke-width:.581583" transform="translate(-2105.063 -40.286)scale(.30388)"/></g><g style="stroke-width:.711601"><path fill="#d9d9d9" d="M8052.37 3599.98c9.78 9.7 17.63 10.51 17.63 10.51s-.45-4.3-4.62-10.51zm-15.1 21.89c-2.47 2.47-4.81 4.37-6.94 5.83v-13.11c9.77-9.69 17.61-10.5 17.61-10.5s-.83 7.93-10.67 17.78m37.19-7.3v13.11c-6.4 4.4-10.87 4.86-10.87 4.86s1.02-8.12 10.87-17.97m-9.07 29.54h-12.99c-9.85-9.85-10.86-17.97-10.86-17.97s7.94.83 17.79 10.68c2.6 2.6 4.57 5.07 6.06 7.29" opacity="0.4" style="stroke-width:.581583" transform="translate(-2091.652 -40.286)scale(.30388)"/></g><g style="stroke-width:.711601"><path fill="#d9d9d9" d="M8052.37 3599.98c9.78 9.7 17.63 10.51 17.63 10.51s-.45-4.3-4.62-10.51zm-15.1 21.89c-2.47 2.47-4.81 4.37-6.94 5.83v-13.11c9.77-9.69 17.61-10.5 17.61-10.5s-.83 7.93-10.67 17.78m37.19-7.3v13.11c-6.4 4.4-10.87 4.86-10.87 4.86s1.02-8.12 10.87-17.97m-9.07 29.54h-12.99c-9.85-9.85-10.86-17.97-10.86-17.97s7.94.83 17.79 10.68c2.6 2.6 4.57 5.07 6.06 7.29" opacity="0.4" style="stroke-width:.581583" transform="translate(-2078.24 -40.286)scale(.30388)"/></g><g style="stroke-width:.711601"><path fill="#d9d9d9" d="M8052.37 3599.98c9.78 9.7 17.63 10.51 17.63 10.51s-.45-4.3-4.62-10.51zm-15.1 21.89c-2.47 2.47-4.81 4.37-6.94 5.83v-13.11c9.77-9.69 17.61-10.5 17.61-10.5s-.83 7.93-10.67 17.78m37.19-7.3v13.11c-6.4 4.4-10.87 4.86-10.87 4.86s1.02-8.12 10.87-17.97m-9.07 29.54h-12.99c-9.85-9.85-10.86-17.97-10.86-17.97s7.94.83 17.79 10.68c2.6 2.6 4.57 5.07 6.06 7.29" opacity="0.4" style="stroke-width:.581583" transform="translate(-2064.833 -40.286)scale(.30388)"/></g><g style="stroke-width:.711601"><path fill="#d9d9d9" d="M8052.37 3599.98c9.78 9.7 17.63 10.51 17.63 10.51s-.45-4.3-4.62-10.51zm-15.1 21.89c-2.47 2.47-4.81 4.37-6.94 5.83v-13.11c9.77-9.69 17.61-10.5 17.61-10.5s-.83 7.93-10.67 17.78m37.19-7.3v13.11c-6.4 4.4-10.87 4.86-10.87 4.86s1.02-8.12 10.87-17.97m-9.07 29.54h-12.99c-9.85-9.85-10.86-17.97-10.86-17.97s7.94.83 17.79 10.68c2.6 2.6 4.57 5.07 6.06 7.29" opacity="0.4" style="stroke-width:.581583" transform="translate(-2051.422 -40.286)scale(.30388)"/></g><g style="stroke-width:.711601"><path fill="#d9d9d9" d="M8052.37 3599.98c9.78 9.7 17.63 10.51 17.63 10.51s-.45-4.3-4.62-10.51zm-15.1 21.89c-2.47 2.47-4.81 4.37-6.94 5.83v-13.11c9.77-9.69 17.61-10.5 17.61-10.5s-.83 7.93-10.67 17.78m37.19-7.3v13.11c-6.4 4.4-10.87 4.86-10.87 4.86s1.02-8.12 10.87-17.97m-9.07 29.54h-12.99c-9.85-9.85-10.86-17.97-10.86-17.97s7.94.83 17.79 10.68c2.6 2.6 4.57 5.07 6.06 7.29" opacity="0.4" style="stroke-width:.581583" transform="translate(-2118.475 -53.695)scale(.30388)"/></g><g style="stroke-width:.711601"><path fill="#d9d9d9" d="M8052.37 3599.98c9.78 9.7 17.63 10.51 17.63 10.51s-.45-4.3-4.62-10.51zm-15.1 21.89c-2.47 2.47-4.81 4.37-6.94 5.83v-13.11c9.77-9.69 17.61-10.5 17.61-10.5s-.83 7.93-10.67 17.78m37.19-7.3v13.11c-6.4 4.4-10.87 4.86-10.87 4.86s1.02-8.12 10.87-17.97m-9.07 29.54h-12.99c-9.85-9.85-10.86-17.97-10.86-17.97s7.94.83 17.79 10.68c2.6 2.6 4.57 5.07 6.06 7.29" opacity="0.4" style="stroke-width:.581583" transform="translate(-2105.063 -53.695)scale(.30388)"/></g><g style="stroke-width:.711601"><path fill="#d9d9d9" d="M8052.37 3599.98c9.78 9.7 17.63 10.51 17.63 10.51s-.45-4.3-4.62-10.51zm-15.1 21.89c-2.47 2.47-4.81 4.37-6.94 5.83v-13.11c9.77-9.69 17.61-10.5 17.61-10.5s-.83 7.93-10.67 17.78m37.19-7.3v13.11c-6.4 4.4-10.87 4.86-10.87 4.86s1.02-8.12 10.87-17.97m-9.07 29.54h-12.99c-9.85-9.85-10.86-17.97-10.86-17.97s7.94.83 17.79 10.68c2.6 2.6 4.57 5.07 6.06 7.29" opacity="0.4" style="stroke-width:.581583" transform="translate(-2091.652 -53.695)scale(.30388)"/></g><g style="stroke-width:.711601"><path fill="#d9d9d9" d="M8052.37 3599.98c9.78 9.7 17.63 10.51 17.63 10.51s-.45-4.3-4.62-10.51zm-15.1 21.89c-2.47 2.47-4.81 4.37-6.94 5.83v-13.11c9.77-9.69 17.61-10.5 17.61-10.5s-.83 7.93-10.67 17.78m37.19-7.3v13.11c-6.4 4.4-10.87 4.86-10.87 4.86s1.02-8.12 10.87-17.97m-9.07 29.54h-12.99c-9.85-9.85-10.86-17.97-10.86-17.97s7.94.83 17.79 10.68c2.6 2.6 4.57 5.07 6.06 7.29" opacity="0.4" style="stroke-width:.581583" transform="translate(-2078.24 -53.695)scale(.30388)"/></g><g style="stroke-width:.711601"><path fill="#d9d9d9" d="M8052.37 3599.98c9.78 9.7 17.63 10.51 17.63 10.51s-.45-4.3-4.62-10.51zm-15.1 21.89c-2.47 2.47-4.81 4.37-6.94 5.83v-13.11c9.77-9.69 17.61-10.5 17.61-10.5s-.83 7.93-10.67 17.78m37.19-7.3v13.11c-6.4 4.4-10.87 4.86-10.87 4.86s1.02-8.12 10.87-17.97m-9.07 29.54h-12.99c-9.85-9.85-10.86-17.97-10.86-17.97s7.94.83 17.79 10.68c2.6 2.6 4.57 5.07 6.06 7.29" opacity="0.4" style="stroke-width:.581583" transform="translate(-2064.833 -53.695)scale(.30388)"/></g><g style="stroke-width:.711601"><path fill="#d9d9d9" d="M8052.37 3599.98c9.78 9.7 17.63 10.51 17.63 10.51s-.45-4.3-4.62-10.51zm-15.1 21.89c-2.47 2.47-4.81 4.37-6.94 5.83v-13.11c9.77-9.69 17.61-10.5 17.61-10.5s-.83 7.93-10.67 17.78m37.19-7.3v13.11c-6.4 4.4-10.87 4.86-10.87 4.86s1.02-8.12 10.87-17.97m-9.07 29.54h-12.99c-9.85-9.85-10.86-17.97-10.86-17.97s7.94.83 17.79 10.68c2.6 2.6 4.57 5.07 6.06 7.29" opacity="0.4" style="stroke-width:.581583" transform="translate(-2051.422 -53.695)scale(.30388)"/></g><g style="stroke-width:.711601"><path fill="#d9d9d9" d="M8052.37 3599.98c9.78 9.7 17.63 10.51 17.63 10.51s-.45-4.3-4.62-10.51zm-15.1 21.89c-2.47 2.47-4.81 4.37-6.94 5.83v-13.11c9.77-9.69 17.61-10.5 17.61-10.5s-.83 7.93-10.67 17.78m37.19-7.3v13.11c-6.4 4.4-10.87 4.86-10.87 4.86s1.02-8.12 10.87-17.97m-9.07 29.54h-12.99c-9.85-9.85-10.86-17.97-10.86-17.97s7.94.83 17.79 10.68c2.6 2.6 4.57 5.07 6.06 7.29" opacity="0.4" style="stroke-width:.581583" transform="translate(-2118.475 -67.102)scale(.30388)"/></g><g style="stroke-width:.711601"><path fill="#d9d9d9" d="M8052.37 3599.98c9.78 9.7 17.63 10.51 17.63 10.51s-.45-4.3-4.62-10.51zm-15.1 21.89c-2.47 2.47-4.81 4.37-6.94 5.83v-13.11c9.77-9.69 17.61-10.5 17.61-10.5s-.83 7.93-10.67 17.78m37.19-7.3v13.11c-6.4 4.4-10.87 4.86-10.87 4.86s1.02-8.12 10.87-17.97m-9.07 29.54h-12.99c-9.85-9.85-10.86-17.97-10.86-17.97s7.94.83 17.79 10.68c2.6 2.6 4.57 5.07 6.06 7.29" opacity="0.4" style="stroke-width:.581583" transform="translate(-2105.063 -67.102)scale(.30388)"/></g><g style="stroke-width:.711601"><path fill="#d9d9d9" d="M8052.37 3599.98c9.78 9.7 17.63 10.51 17.63 10.51s-.45-4.3-4.62-10.51zm-15.1 21.89c-2.47 2.47-4.81 4.37-6.94 5.83v-13.11c9.77-9.69 17.61-10.5 17.61-10.5s-.83 7.93-10.67 17.78m37.19-7.3v13.11c-6.4 4.4-10.87 4.86-10.87 4.86s1.02-8.12 10.87-17.97m-9.07 29.54h-12.99c-9.85-9.85-10.86-17.97-10.86-17.97s7.94.83 17.79 10.68c2.6 2.6 4.57 5.07 6.06 7.29" opacity="0.4" style="stroke-width:.581583" transform="translate(-2091.652 -67.102)scale(.30388)"/></g><g style="stroke-width:.711601"><path fill="#d9d9d9" d="M8052.37 3599.98c9.78 9.7 17.63 10.51 17.63 10.51s-.45-4.3-4.62-10.51zm-15.1 21.89c-2.47 2.47-4.81 4.37-6.94 5.83v-13.11c9.77-9.69 17.61-10.5 17.61-10.5s-.83 7.93-10.67 17.78m37.19-7.3v13.11c-6.4 4.4-10.87 4.86-10.87 4.86s1.02-8.12 10.87-17.97m-9.07 29.54h-12.99c-9.85-9.85-10.86-17.97-10.86-17.97s7.94.83 17.79 10.68c2.6 2.6 4.57 5.07 6.06 7.29" opacity="0.4" style="stroke-width:.581583" transform="translate(-2078.24 -67.102)scale(.30388)"/></g><g style="stroke-width:.711601"><path fill="#d9d9d9" d="M8052.37 3599.98c9.78 9.7 17.63 10.51 17.63 10.51s-.45-4.3-4.62-10.51zm-15.1 21.89c-2.47 2.47-4.81 4.37-6.94 5.83v-13.11c9.77-9.69 17.61-10.5 17.61-10.5s-.83 7.93-10.67 17.78m37.19-7.3v13.11c-6.4 4.4-10.87 4.86-10.87 4.86s1.02-8.12 10.87-17.97m-9.07 29.54h-12.99c-9.85-9.85-10.86-17.97-10.86-17.97s7.94.83 17.79 10.68c2.6 2.6 4.57 5.07 6.06 7.29" opacity="0.4" style="stroke-width:.581583" transform="translate(-2064.833 -67.102)scale(.30388)"/></g><g style="stroke-width:.711601"><path fill="#d9d9d9" d="M8052.37 3599.98c9.78 9.7 17.63 10.51 17.63 10.51s-.45-4.3-4.62-10.51zm-15.1 21.89c-2.47 2.47-4.81 4.37-6.94 5.83v-13.11c9.77-9.69 17.61-10.5 17.61-10.5s-.83 7.93-10.67 17.78m37.19-7.3v13.11c-6.4 4.4-10.87 4.86-10.87 4.86s1.02-8.12 10.87-17.97m-9.07 29.54h-12.99c-9.85-9.85-10.86-17.97-10.86-17.97s7.94.83 17.79 10.68c2.6 2.6 4.57 5.07 6.06 7.29" opacity="0.4" style="stroke-width:.581583" transform="translate(-2051.422 -67.102)scale(.30388)"/></g><g style="stroke-width:.711601"><path fill="#d9d9d9" d="M8052.37 3599.98c9.78 9.7 17.63 10.51 17.63 10.51s-.45-4.3-4.62-10.51zm-15.1 21.89c-2.47 2.47-4.81 4.37-6.94 5.83v-13.11c9.77-9.69 17.61-10.5 17.61-10.5s-.83 7.93-10.67 17.78m37.19-7.3v13.11c-6.4 4.4-10.87 4.86-10.87 4.86s1.02-8.12 10.87-17.97m-9.07 29.54h-12.99c-9.85-9.85-10.86-17.97-10.86-17.97s7.94.83 17.79 10.68c2.6 2.6 4.57 5.07 6.06 7.29" opacity="0.4" style="stroke-width:.581583" transform="translate(-2118.475 -80.506)scale(.30388)"/></g><g style="stroke-width:.711601"><path fill="#d9d9d9" d="M8052.37 3599.98c9.78 9.7 17.63 10.51 17.63 10.51s-.45-4.3-4.62-10.51zm-15.1 21.89c-2.47 2.47-4.81 4.37-6.94 5.83v-13.11c9.77-9.69 17.61-10.5 17.61-10.5s-.83 7.93-10.67 17.78m37.19-7.3v13.11c-6.4 4.4-10.87 4.86-10.87 4.86s1.02-8.12 10.87-17.97m-9.07 29.54h-12.99c-9.85-9.85-10.86-17.97-10.86-17.97s7.94.83 17.79 10.68c2.6 2.6 4.57 5.07 6.06 7.29" opacity="0.4" style="stroke-width:.581583" transform="translate(-2105.063 -80.506)scale(.30388)"/></g><g style="stroke-width:.711601"><path fill="#d9d9d9" d="M8052.37 3599.98c9.78 9.7 17.63 10.51 17.63 10.51s-.45-4.3-4.62-10.51zm-15.1 21.89c-2.47 2.47-4.81 4.37-6.94 5.83v-13.11c9.77-9.69 17.61-10.5 17.61-10.5s-.83 7.93-10.67 17.78m37.19-7.3v13.11c-6.4 4.4-10.87 4.86-10.87 4.86s1.02-8.12 10.87-17.97m-9.07 29.54h-12.99c-9.85-9.85-10.86-17.97-10.86-17.97s7.94.83 17.79 10.68c2.6 2.6 4.57 5.07 6.06 7.29" opacity="0.4" style="stroke-width:.581583" transform="translate(-2091.652 -80.506)scale(.30388)"/></g><g style="stroke-width:.711601"><path fill="#d9d9d9" d="M8052.37 3599.98c9.78 9.7 17.63 10.51 17.63 10.51s-.45-4.3-4.62-10.51zm-15.1 21.89c-2.47 2.47-4.81 4.37-6.94 5.83v-13.11c9.77-9.69 17.61-10.5 17.61-10.5s-.83 7.93-10.67 17.78m37.19-7.3v13.11c-6.4 4.4-10.87 4.86-10.87 4.86s1.02-8.12 10.87-17.97m-9.07 29.54h-12.99c-9.85-9.85-10.86-17.97-10.86-17.97s7.94.83 17.79 10.68c2.6 2.6 4.57 5.07 6.06 7.29" opacity="0.4" style="stroke-width:.581583" transform="translate(-2078.24 -80.506)scale(.30388)"/></g><g style="stroke-width:.711601"><path fill="#d9d9d9" d="M8052.37 3599.98c9.78 9.7 17.63 10.51 17.63 10.51s-.45-4.3-4.62-10.51zm-15.1 21.89c-2.47 2.47-4.81 4.37-6.94 5.83v-13.11c9.77-9.69 17.61-10.5 17.61-10.5s-.83 7.93-10.67 17.78m37.19-7.3v13.11c-6.4 4.4-10.87 4.86-10.87 4.86s1.02-8.12 10.87-17.97m-9.07 29.54h-12.99c-9.85-9.85-10.86-17.97-10.86-17.97s7.94.83 17.79 10.68c2.6 2.6 4.57 5.07 6.06 7.29" opacity="0.4" style="stroke-width:.581583" transform="translate(-2064.833 -80.506)scale(.30388)"/></g><g style="stroke-width:.711601"><path fill="#d9d9d9" d="M8052.37 3599.98c9.78 9.7 17.63 10.51 17.63 10.51s-.45-4.3-4.62-10.51zm-15.1 21.89c-2.47 2.47-4.81 4.37-6.94 5.83v-13.11c9.77-9.69 17.61-10.5 17.61-10.5s-.83 7.93-10.67 17.78m37.19-7.3v13.11c-6.4 4.4-10.87 4.86-10.87 4.86s1.02-8.12 10.87-17.97m-9.07 29.54h-12.99c-9.85-9.85-10.86-17.97-10.86-17.97s7.94.83 17.79 10.68c2.6 2.6 4.57 5.07 6.06 7.29" opacity="0.4" style="stroke-width:.581583" transform="translate(-2051.422 -80.506)scale(.30388)"/></g><g style="stroke-width:.711601"><path fill="#d9d9d9" d="M8052.37 3599.98c9.78 9.7 17.63 10.51 17.63 10.51s-.45-4.3-4.62-10.51zm-15.1 21.89c-2.47 2.47-4.81 4.37-6.94 5.83v-13.11c9.77-9.69 17.61-10.5 17.61-10.5s-.83 7.93-10.67 17.78m37.19-7.3v13.11c-6.4 4.4-10.87 4.86-10.87 4.86s1.02-8.12 10.87-17.97m-9.07 29.54h-12.99c-9.85-9.85-10.86-17.97-10.86-17.97s7.94.83 17.79 10.68c2.6 2.6 4.57 5.07 6.06 7.29" opacity="0.4" style="stroke-width:.581583" transform="translate(-2118.475 -93.913)scale(.30388)"/></g><g style="stroke-width:.711601"><path fill="#d9d9d9" d="M8052.37 3599.98c9.78 9.7 17.63 10.51 17.63 10.51s-.45-4.3-4.62-10.51zm-15.1 21.89c-2.47 2.47-4.81 4.37-6.94 5.83v-13.11c9.77-9.69 17.61-10.5 17.61-10.5s-.83 7.93-10.67 17.78m37.19-7.3v13.11c-6.4 4.4-10.87 4.86-10.87 4.86s1.02-8.12 10.87-17.97m-9.07 29.54h-12.99c-9.85-9.85-10.86-17.97-10.86-17.97s7.94.83 17.79 10.68c2.6 2.6 4.57 5.07 6.06 7.29" opacity="0.4" style="stroke-width:.581583" transform="translate(-2105.063 -93.913)scale(.30388)"/></g><g style="stroke-width:.711601"><path fill="#d9d9d9" d="M8052.37 3599.98c9.78 9.7 17.63 10.51 17.63 10.51s-.45-4.3-4.62-10.51zm-15.1 21.89c-2.47 2.47-4.81 4.37-6.94 5.83v-13.11c9.77-9.69 17.61-10.5 17.61-10.5s-.83 7.93-10.67 17.78m37.19-7.3v13.11c-6.4 4.4-10.87 4.86-10.87 4.86s1.02-8.12 10.87-17.97m-9.07 29.54h-12.99c-9.85-9.85-10.86-17.97-10.86-17.97s7.94.83 17.79 10.68c2.6 2.6 4.57 5.07 6.06 7.29" opacity="0.4" style="stroke-width:.581583" transform="translate(-2091.652 -93.913)scale(.30388)"/></g><g style="stroke-width:.711601"><path fill="#d9d9d9" d="M8052.37 3599.98c9.78 9.7 17.63 10.51 17.63 10.51s-.45-4.3-4.62-10.51zm-15.1 21.89c-2.47 2.47-4.81 4.37-6.94 5.83v-13.11c9.77-9.69 17.61-10.5 17.61-10.5s-.83 7.93-10.67 17.78m37.19-7.3v13.11c-6.4 4.4-10.87 4.86-10.87 4.86s1.02-8.12 10.87-17.97m-9.07 29.54h-12.99c-9.85-9.85-10.86-17.97-10.86-17.97s7.94.83 17.79 10.68c2.6 2.6 4.57 5.07 6.06 7.29" opacity="0.4" style="stroke-width:.581583" transform="translate(-2078.24 -93.913)scale(.30388)"/></g><g style="stroke-width:.711601"><path fill="#d9d9d9" d="M8052.37 3599.98c9.78 9.7 17.63 10.51 17.63 10.51s-.45-4.3-4.62-10.51zm-15.1 21.89c-2.47 2.47-4.81 4.37-6.94 5.83v-13.11c9.77-9.69 17.61-10.5 17.61-10.5s-.83 7.93-10.67 17.78m37.19-7.3v13.11c-6.4 4.4-10.87 4.86-10.87 4.86s1.02-8.12 10.87-17.97m-9.07 29.54h-12.99c-9.85-9.85-10.86-17.97-10.86-17.97s7.94.83 17.79 10.68c2.6 2.6 4.57 5.07 6.06 7.29" opacity="0.4" style="stroke-width:.581583" transform="translate(-2064.833 -93.913)scale(.30388)"/></g><g style="stroke-width:.711601"><path fill="#d9d9d9" d="M8052.37 3599.98c9.78 9.7 17.63 10.51 17.63 10.51s-.45-4.3-4.62-10.51zm-15.1 21.89c-2.47 2.47-4.81 4.37-6.94 5.83v-13.11c9.77-9.69 17.61-10.5 17.61-10.5s-.83 7.93-10.67 17.78m37.19-7.3v13.11c-6.4 4.4-10.87 4.86-10.87 4.86s1.02-8.12 10.87-17.97m-9.07 29.54h-12.99c-9.85-9.85-10.86-17.97-10.86-17.97s7.94.83 17.79 10.68c2.6 2.6 4.57 5.07 6.06 7.29" opacity="0.4" style="stroke-width:.581583" transform="translate(-2051.422 -93.913)scale(.30388)"/></g><g style="stroke-width:.711601"><path fill="#d9d9d9" d="M8052.37 3599.98c9.78 9.7 17.63 10.51 17.63 10.51s-.45-4.3-4.62-10.51zm-15.1 21.89c-2.47 2.47-4.81 4.37-6.94 5.83v-13.11c9.77-9.69 17.61-10.5 17.61-10.5s-.83 7.93-10.67 17.78m37.19-7.3v13.11c-6.4 4.4-10.87 4.86-10.87 4.86s1.02-8.12 10.87-17.97m-9.07 29.54h-12.99c-9.85-9.85-10.86-17.97-10.86-17.97s7.94.83 17.79 10.68c2.6 2.6 4.57 5.07 6.06 7.29" opacity="0.4" style="stroke-width:.581583" transform="translate(-2038.025 -26.879)scale(.30388)"/></g><g style="stroke-width:.711601"><path fill="#d9d9d9" d="M8052.37 3599.98c9.78 9.7 17.63 10.51 17.63 10.51s-.45-4.3-4.62-10.51zm-15.1 21.89c-2.47 2.47-4.81 4.37-6.94 5.83v-13.11c9.77-9.69 17.61-10.5 17.61-10.5s-.83 7.93-10.67 17.78m37.19-7.3v13.11c-6.4 4.4-10.87 4.86-10.87 4.86s1.02-8.12 10.87-17.97m-9.07 29.54h-12.99c-9.85-9.85-10.86-17.97-10.86-17.97s7.94.83 17.79 10.68c2.6 2.6 4.57 5.07 6.06 7.29" opacity="0.4" style="stroke-width:.581583" transform="translate(-2038.025 -40.286)scale(.30388)"/></g><g style="stroke-width:.711601"><path fill="#d9d9d9" d="M8052.37 3599.98c9.78 9.7 17.63 10.51 17.63 10.51s-.45-4.3-4.62-10.51zm-15.1 21.89c-2.47 2.47-4.81 4.37-6.94 5.83v-13.11c9.77-9.69 17.61-10.5 17.61-10.5s-.83 7.93-10.67 17.78m37.19-7.3v13.11c-6.4 4.4-10.87 4.86-10.87 4.86s1.02-8.12 10.87-17.97m-9.07 29.54h-12.99c-9.85-9.85-10.86-17.97-10.86-17.97s7.94.83 17.79 10.68c2.6 2.6 4.57 5.07 6.06 7.29" opacity="0.4" style="stroke-width:.581583" transform="translate(-2038.025 -53.695)scale(.30388)"/></g><g style="stroke-width:.711601"><path fill="#d9d9d9" d="M8052.37 3599.98c9.78 9.7 17.63 10.51 17.63 10.51s-.45-4.3-4.62-10.51zm-15.1 21.89c-2.47 2.47-4.81 4.37-6.94 5.83v-13.11c9.77-9.69 17.61-10.5 17.61-10.5s-.83 7.93-10.67 17.78m37.19-7.3v13.11c-6.4 4.4-10.87 4.86-10.87 4.86s1.02-8.12 10.87-17.97m-9.07 29.54h-12.99c-9.85-9.85-10.86-17.97-10.86-17.97s7.94.83 17.79 10.68c2.6 2.6 4.57 5.07 6.06 7.29" opacity="0.4" style="stroke-width:.581583" transform="translate(-2038.025 -67.102)scale(.30388)"/></g><g style="stroke-width:.711601"><path fill="#d9d9d9" d="M8052.37 3599.98c9.78 9.7 17.63 10.51 17.63 10.51s-.45-4.3-4.62-10.51zm-15.1 21.89c-2.47 2.47-4.81 4.37-6.94 5.83v-13.11c9.77-9.69 17.61-10.5 17.61-10.5s-.83 7.93-10.67 17.78m37.19-7.3v13.11c-6.4 4.4-10.87 4.86-10.87 4.86s1.02-8.12 10.87-17.97m-9.07 29.54h-12.99c-9.85-9.85-10.86-17.97-10.86-17.97s7.94.83 17.79 10.68c2.6 2.6 4.57 5.07 6.06 7.29" opacity="0.4" style="stroke-width:.581583" transform="translate(-2038.025 -80.506)scale(.30388)"/></g><g style="stroke-width:.711601"><path fill="#d9d9d9" d="M8052.37 3599.98c9.78 9.7 17.63 10.51 17.63 10.51s-.45-4.3-4.62-10.51zm-15.1 21.89c-2.47 2.47-4.81 4.37-6.94 5.83v-13.11c9.77-9.69 17.61-10.5 17.61-10.5s-.83 7.93-10.67 17.78m37.19-7.3v13.11c-6.4 4.4-10.87 4.86-10.87 4.86s1.02-8.12 10.87-17.97m-9.07 29.54h-12.99c-9.85-9.85-10.86-17.97-10.86-17.97s7.94.83 17.79 10.68c2.6 2.6 4.57 5.07 6.06 7.29" opacity="0.4" style="stroke-width:.581583" transform="translate(-2038.025 -93.913)scale(.30388)"/></g><g style="stroke-width:.711601"><path fill="#d9d9d9" d="M8052.37 3599.98c9.78 9.7 17.63 10.51 17.63 10.51s-.45-4.3-4.62-10.51zm-15.1 21.89c-2.47 2.47-4.81 4.37-6.94 5.83v-13.11c9.77-9.69 17.61-10.5 17.61-10.5s-.83 7.93-10.67 17.78m37.19-7.3v13.11c-6.4 4.4-10.87 4.86-10.87 4.86s1.02-8.12 10.87-17.97m-9.07 29.54h-12.99c-9.85-9.85-10.86-17.97-10.86-17.97s7.94.83 17.79 10.68c2.6 2.6 4.57 5.07 6.06 7.29" opacity="0.4" style="stroke-width:.581583" transform="translate(-2118.475 -107.32)scale(.30388)"/></g><g style="stroke-width:.711601"><path fill="#d9d9d9" d="M8052.37 3599.98c9.78 9.7 17.63 10.51 17.63 10.51s-.45-4.3-4.62-10.51zm-15.1 21.89c-2.47 2.47-4.81 4.37-6.94 5.83v-13.11c9.77-9.69 17.61-10.5 17.61-10.5s-.83 7.93-10.67 17.78m37.19-7.3v13.11c-6.4 4.4-10.87 4.86-10.87 4.86s1.02-8.12 10.87-17.97m-9.07 29.54h-12.99c-9.85-9.85-10.86-17.97-10.86-17.97s7.94.83 17.79 10.68c2.6 2.6 4.57 5.07 6.06 7.29" opacity="0.4" style="stroke-width:.581583" transform="translate(-2105.063 -107.32)scale(.30388)"/></g><g style="stroke-width:.711601"><path fill="#d9d9d9" d="M8052.37 3599.98c9.78 9.7 17.63 10.51 17.63 10.51s-.45-4.3-4.62-10.51zm-15.1 21.89c-2.47 2.47-4.81 4.37-6.94 5.83v-13.11c9.77-9.69 17.61-10.5 17.61-10.5s-.83 7.93-10.67 17.78m37.19-7.3v13.11c-6.4 4.4-10.87 4.86-10.87 4.86s1.02-8.12 10.87-17.97m-9.07 29.54h-12.99c-9.85-9.85-10.86-17.97-10.86-17.97s7.94.83 17.79 10.68c2.6 2.6 4.57 5.07 6.06 7.29" opacity="0.4" style="stroke-width:.581583" transform="translate(-2091.652 -107.32)scale(.30388)"/></g><g style="stroke-width:.711601"><path fill="#d9d9d9" d="M8052.37 3599.98c9.78 9.7 17.63 10.51 17.63 10.51s-.45-4.3-4.62-10.51zm-15.1 21.89c-2.47 2.47-4.81 4.37-6.94 5.83v-13.11c9.77-9.69 17.61-10.5 17.61-10.5s-.83 7.93-10.67 17.78m37.19-7.3v13.11c-6.4 4.4-10.87 4.86-10.87 4.86s1.02-8.12 10.87-17.97m-9.07 29.54h-12.99c-9.85-9.85-10.86-17.97-10.86-17.97s7.94.83 17.79 10.68c2.6 2.6 4.57 5.07 6.06 7.29" opacity="0.4" style="stroke-width:.581583" transform="translate(-2078.24 -107.32)scale(.30388)"/></g><g style="stroke-width:.711601"><path fill="#d9d9d9" d="M8052.37 3599.98c9.78 9.7 17.63 10.51 17.63 10.51s-.45-4.3-4.62-10.51zm-15.1 21.89c-2.47 2.47-4.81 4.37-6.94 5.83v-13.11c9.77-9.69 17.61-10.5 17.61-10.5s-.83 7.93-10.67 17.78m37.19-7.3v13.11c-6.4 4.4-10.87 4.86-10.87 4.86s1.02-8.12 10.87-17.97m-9.07 29.54h-12.99c-9.85-9.85-10.86-17.97-10.86-17.97s7.94.83 17.79 10.68c2.6 2.6 4.57 5.07 6.06 7.29" opacity="0.4" style="stroke-width:.581583" transform="translate(-2064.833 -107.32)scale(.30388)"/></g><g style="stroke-width:.711601"><path fill="#d9d9d9" d="M8052.37 3599.98c9.78 9.7 17.63 10.51 17.63 10.51s-.45-4.3-4.62-10.51zm-15.1 21.89c-2.47 2.47-4.81 4.37-6.94 5.83v-13.11c9.77-9.69 17.61-10.5 17.61-10.5s-.83 7.93-10.67 17.78m37.19-7.3v13.11c-6.4 4.4-10.87 4.86-10.87 4.86s1.02-8.12 10.87-17.97m-9.07 29.54h-12.99c-9.85-9.85-10.86-17.97-10.86-17.97s7.94.83 17.79 10.68c2.6 2.6 4.57 5.07 6.06 7.29" opacity="0.4" style="stroke-width:.581583" transform="translate(-2051.422 -107.32)scale(.30388)"/></g><g style="stroke-width:.711601"><path fill="#d9d9d9" d="M8052.37 3599.98c9.78 9.7 17.63 10.51 17.63 10.51s-.45-4.3-4.62-10.51zm-15.1 21.89c-2.47 2.47-4.81 4.37-6.94 5.83v-13.11c9.77-9.69 17.61-10.5 17.61-10.5s-.83 7.93-10.67 17.78m37.19-7.3v13.11c-6.4 4.4-10.87 4.86-10.87 4.86s1.02-8.12 10.87-17.97m-9.07 29.54h-12.99c-9.85-9.85-10.86-17.97-10.86-17.97s7.94.83 17.79 10.68c2.6 2.6 4.57 5.07 6.06 7.29" opacity="0.4" style="stroke-width:.581583" transform="translate(-2038.025 -107.32)scale(.30388)"/></g></g><path d="M323.362 992.648h3.607v81.869h-3.607z" style="fill:#999;fill-opacity:1;stroke:#4a4a4a;stroke-width:1.725;stroke-dasharray:none;stroke-opacity:1;paint-order:fill markers stroke;stop-color:#000"/><path d="M1075.394-411.027H1079v81.87h-3.606z" style="fill:#999;fill-opacity:1;stroke:#4a4a4a;stroke-width:1.725;stroke-dasharray:none;stroke-opacity:1;paint-order:fill markers stroke;stop-color:#000" transform="rotate(90)"/><circle cx="327.42014" cy="1074.7235" r="6.1198201" style="fill:#b2b2b2;fill-opacity:1;stroke:#4d4d4d;stroke-width:3.508;stroke-linecap:square;stroke-linejoin:miter;stroke-dasharray:none;stroke-opacity:1;paint-order:fill markers stroke;stop-color:#000"/><circle cx="409.86996" cy="1074.7235" r="6.1198201" style="fill:#b2b2b2;fill-opacity:1;stroke:#4d4d4d;stroke-width:3.508;stroke-linecap:square;stroke-linejoin:miter;stroke-dasharray:none;stroke-opacity:1;paint-order:fill markers stroke;stop-color:#000"/><path d="M988.274-411.027h3.607v81.87h-3.607z" style="fill:#999;fill-opacity:1;stroke:#4a4a4a;stroke-width:1.725;stroke-dasharray:none;stroke-opacity:1;paint-order:fill markers stroke;stop-color:#000" transform="rotate(90)"/><circle cx="327.42014" cy="992.29028" r="6.1198201" style="fill:#b2b2b2;fill-opacity:1;stroke:#4d4d4d;stroke-width:3.508;stroke-linecap:square;stroke-linejoin:miter;stroke-dasharray:none;stroke-opacity:1;paint-order:fill markers stroke;stop-color:#000"/><circle cx="409.86996" cy="992.29028" r="6.1198201" style="fill:#b2b2b2;fill-opacity:1;stroke:#4d4d4d;stroke-width:3.508;stroke-linecap:square;stroke-linejoin:miter;stroke-dasharray:none;stroke-opacity:1;paint-order:fill markers stroke;stop-color:#000"/><g style="stroke-width:1.09486" transform="rotate(45 248.446 1099.157)scale(.91336)"><ellipse cx="-1138.0603" cy="314.87015" rx="13.657473" ry="40.972416" style="fill:#b3b3b3;fill-opacity:1;stroke:#4a4a4a;stroke-width:5.44363;stroke-linejoin:round;stroke-dasharray:none;stroke-opacity:1;stop-color:#000" transform="rotate(-90)"/><rect width="5.9123516" height="29.271757" x="-317.8176" y="1135.6056" rx="3.4288023" ry="3.4288023" style="fill:#b2b2b2;fill-opacity:1;fill-rule:evenodd;stroke:#595959;stroke-width:3.28456;stroke-linecap:round;stroke-linejoin:round;stroke-miterlimit:20;stroke-dasharray:none;stroke-opacity:1" transform="scale(-1 1)"/></g><rect width="49.014656" height="9.2579784" x="948.3656" y="-372.00296" rx="3.1920662" ry="1.5577719" style="fill:#bfbfbf;fill-opacity:1;stroke:#4d4d4d;stroke-width:2.828;stroke-linejoin:round;stroke-dasharray:none;stroke-opacity:1;stop-color:#000" transform="rotate(90)"/><rect width="49.014656" height="9.2579784" x="948.3656" y="-385.36441" rx="3.1920662" ry="1.5577719" style="fill:#a6a6a6;fill-opacity:1;stroke:#4d4d4d;stroke-width:2.828;stroke-linejoin:round;stroke-dasharray:none;stroke-opacity:1;stop-color:#000" transform="rotate(90)"/><rect width="49.014656" height="9.2579784" x="948.3656" y="-398.85815" rx="3.1920662" ry="1.5577719" style="fill:#bfbfbf;fill-opacity:1;stroke:#4d4d4d;stroke-width:2.828;stroke-linejoin:round;stroke-dasharray:none;stroke-opacity:1;stop-color:#000" transform="rotate(90)"/></g><g transform="matrix(-.5 0 0 -.5 245.617 565.191)"><g style="fill:#a6a6a6;stroke:#4d4d4d;stroke-width:4.972"><path stroke="none" d="m-39.518 796.004-14.808 14.808" style="color:#000;fill-rule:evenodd;stroke:none;stroke-linecap:round;stroke-linejoin:round;stroke-miterlimit:20;-inkscape-stroke:none" transform="rotate(-90 228.978 711.705)"/><g style="fill:#a6a6a6;fill-opacity:1;stroke:#4d4d4d;stroke-opacity:1"><path d="m-41.275 794.246-14.809 14.809a2.486 2.486 0 0 0 0 3.515 2.486 2.486 0 0 0 3.516 0l14.808-14.808a2.486 2.486 0 0 0 0-3.516 2.486 2.486 0 0 0-3.515 0" style="color:#000;fill:#a6a6a6;fill-opacity:1;fill-rule:evenodd;stroke:#4d4d4d;stroke-linecap:round;stroke-linejoin:round;stroke-miterlimit:20;stroke-opacity:1;-inkscape-stroke:none" transform="rotate(-90 302.567 641.473)scale(.81432)"/><path d="M-27.17 778.7a4.96 4.96 0 0 0-3.516 1.442l-14.81 14.808c-1.92 1.92-1.92 5.11 0 7.031 1.922 1.921 5.111 1.921 7.032 0l14.809-14.808c1.92-1.921 1.92-5.11 0-7.031a4.96 4.96 0 0 0-3.516-1.442" style="color:#000;fill:#b2b2b2;fill-opacity:1;fill-rule:evenodd;stroke:#595959;stroke-linecap:round;stroke-linejoin:round;stroke-miterlimit:20;stroke-opacity:1;-inkscape-stroke:none" transform="rotate(-90 302.567 641.473)scale(.81432)"/></g></g><rect width="80.176132" height="21.011896" x="431.49777" y="-928.76514" rx="3.1175773" ry="3.1460948" style="fill:#a6a6a6;fill-opacity:1;stroke:#4d4d4d;stroke-width:4.972;stroke-linejoin:round;stroke-dasharray:none;stroke-opacity:1;stop-color:#000" transform="rotate(135)"/></g><g transform="matrix(.5 0 0 .5 -120.714 -468.054)"><g style="fill:#a6a6a6;stroke:#4d4d4d;stroke-width:4.972"><path stroke="none" d="m-39.518 796.004-14.808 14.808" style="color:#000;fill-rule:evenodd;stroke:none;stroke-linecap:round;stroke-linejoin:round;stroke-miterlimit:20;-inkscape-stroke:none" transform="rotate(-90 228.978 711.705)"/><g style="fill:#b2b2b2;fill-opacity:1;stroke:#595959;stroke-opacity:1"><path d="m-41.275 794.246-14.809 14.809a2.486 2.486 0 0 0 0 3.515 2.486 2.486 0 0 0 3.516 0l14.808-14.808a2.486 2.486 0 0 0 0-3.516 2.486 2.486 0 0 0-3.515 0" style="color:#000;fill:#b2b2b2;fill-opacity:1;fill-rule:evenodd;stroke:#595959;stroke-linecap:round;stroke-linejoin:round;stroke-miterlimit:20;stroke-opacity:1;-inkscape-stroke:none" transform="rotate(-90 302.567 641.473)scale(.81432)"/><path d="M-27.17 778.7a4.96 4.96 0 0 0-3.516 1.442l-14.81 14.808c-1.92 1.92-1.92 5.11 0 7.031 1.922 1.921 5.111 1.921 7.032 0l14.809-14.808c1.92-1.921 1.92-5.11 0-7.031a4.96 4.96 0 0 0-3.516-1.442" style="color:#000;fill:#b2b2b2;fill-opacity:1;fill-rule:evenodd;stroke:#595959;stroke-linecap:round;stroke-linejoin:round;stroke-miterlimit:20;stroke-opacity:1;-inkscape-stroke:none" transform="rotate(-90 302.567 641.473)scale(.81432)"/></g></g><rect width="80.176132" height="21.011896" x="431.49777" y="-928.76514" rx="3.1175773" ry="3.1460948" style="fill:#a6a6a6;fill-opacity:1;stroke:#4d4d4d;stroke-width:4.972;stroke-linejoin:round;stroke-dasharray:none;stroke-opacity:1;stop-color:#000" transform="rotate(135)"/></g></svg>