<svg xmlns="http://www.w3.org/2000/svg" xmlns:xlink="http://www.w3.org/1999/xlink" width="115.55894mm" height="97.875595mm" viewBox="0 0 231.11787 195.75119"><defs><pattern xlink:href="#a" id="b" x="300" y="25" patternTransform="rotate(90 -1697.08 15447.881)scale(.32)" preserveAspectRatio="xMidYMid"/><pattern id="a" width="1409.481" height="1413.6944" patternTransform="translate(19467.5 18557.5)" patternUnits="userSpaceOnUse" preserveAspectRatio="xMidYMid"><g style="fill:#595959;fill-opacity:1;stroke:#404040;stroke-width:7.01868;stroke-dasharray:none;stroke-opacity:1"><g style="fill:#595959;fill-opacity:1;stroke:#404040;stroke-width:7.01868;stroke-dasharray:none;stroke-opacity:1"><g style="fill:#595959;fill-opacity:1;stroke:#404040;stroke-width:7.01868;stroke-dasharray:none;stroke-opacity:1"><g style="fill:#595959;fill-opacity:1;stroke:#404040;stroke-width:7.01868;stroke-dasharray:none;stroke-opacity:1"><g style="fill:#595959;fill-opacity:1;stroke:#404040;stroke-width:7.01868;stroke-dasharray:none;stroke-opacity:1"><path d="M3872 4527h171.056v171.056H3872zm-176 0h171.056v171.056H3696zm176 177.056h171.056v171.056H3872zm-176 0h171.056v171.056H3696z" style="fill:#595959;fill-opacity:1;stroke:#404040;stroke-width:7.01868;stroke-linecap:square;stroke-linejoin:miter;stroke-dasharray:none;stroke-opacity:1" transform="translate(-2978.43 -4158.28)scale(.99734)"/></g><g style="fill:#595959;fill-opacity:1;stroke:#404040;stroke-width:7.01868;stroke-dasharray:none;stroke-opacity:1"><path d="M3872 4527h171.056v171.056H3872zm-176 0h171.056v171.056H3696zm176 177.056h171.056v171.056H3872zm-176 0h171.056v171.056H3696z" style="fill:#595959;fill-opacity:1;stroke:#404040;stroke-width:7.01868;stroke-linecap:square;stroke-linejoin:miter;stroke-dasharray:none;stroke-opacity:1" transform="translate(-2978.43 -4511.45)scale(.99734)"/></g></g><g style="fill:#595959;fill-opacity:1;stroke:#404040;stroke-width:7.01868;stroke-dasharray:none;stroke-opacity:1"><g style="fill:#595959;fill-opacity:1;stroke:#404040;stroke-width:7.01868;stroke-dasharray:none;stroke-opacity:1"><path d="M3872 4527h171.056v171.056H3872zm-176 0h171.056v171.056H3696zm176 177.056h171.056v171.056H3872zm-176 0h171.056v171.056H3696z" style="fill:#595959;fill-opacity:1;stroke:#404040;stroke-width:7.01868;stroke-linecap:square;stroke-linejoin:miter;stroke-dasharray:none;stroke-opacity:1" transform="translate(-2978.43 -3451.94)scale(.99734)"/></g><g style="fill:#595959;fill-opacity:1;stroke:#404040;stroke-width:7.01868;stroke-dasharray:none;stroke-opacity:1"><path d="M3872 4527h171.056v171.056H3872zm-176 0h171.056v171.056H3696zm176 177.056h171.056v171.056H3872zm-176 0h171.056v171.056H3696z" style="fill:#595959;fill-opacity:1;stroke:#404040;stroke-width:7.01868;stroke-linecap:square;stroke-linejoin:miter;stroke-dasharray:none;stroke-opacity:1" transform="translate(-2978.43 -3805.11)scale(.99734)"/></g></g></g><g style="fill:#595959;fill-opacity:1;stroke:#404040;stroke-width:7.01868;stroke-dasharray:none;stroke-opacity:1"><g style="fill:#595959;fill-opacity:1;stroke:#404040;stroke-width:7.01868;stroke-dasharray:none;stroke-opacity:1"><g style="fill:#595959;fill-opacity:1;stroke:#404040;stroke-width:7.01868;stroke-dasharray:none;stroke-opacity:1"><path d="M3872 4527h171.056v171.056H3872zm-176 0h171.056v171.056H3696zm176 177.056h171.056v171.056H3872zm-176 0h171.056v171.056H3696z" style="fill:#595959;fill-opacity:1;stroke:#404040;stroke-width:7.01868;stroke-linecap:square;stroke-linejoin:miter;stroke-dasharray:none;stroke-opacity:1" transform="translate(-2626.313 -4158.28)scale(.99734)"/></g><g style="fill:#595959;fill-opacity:1;stroke:#404040;stroke-width:7.01868;stroke-dasharray:none;stroke-opacity:1"><path d="M3872 4527h171.056v171.056H3872zm-176 0h171.056v171.056H3696zm176 177.056h171.056v171.056H3872zm-176 0h171.056v171.056H3696z" style="fill:#595959;fill-opacity:1;stroke:#404040;stroke-width:7.01868;stroke-linecap:square;stroke-linejoin:miter;stroke-dasharray:none;stroke-opacity:1" transform="translate(-2626.313 -4511.45)scale(.99734)"/></g></g><g style="fill:#595959;fill-opacity:1;stroke:#404040;stroke-width:7.01868;stroke-dasharray:none;stroke-opacity:1"><g style="fill:#595959;fill-opacity:1;stroke:#404040;stroke-width:7.01868;stroke-dasharray:none;stroke-opacity:1"><path d="M3872 4527h171.056v171.056H3872zm-176 0h171.056v171.056H3696zm176 177.056h171.056v171.056H3872zm-176 0h171.056v171.056H3696z" style="fill:#595959;fill-opacity:1;stroke:#404040;stroke-width:7.01868;stroke-linecap:square;stroke-linejoin:miter;stroke-dasharray:none;stroke-opacity:1" transform="translate(-2626.313 -3451.94)scale(.99734)"/></g><g style="fill:#595959;fill-opacity:1;stroke:#404040;stroke-width:7.01868;stroke-dasharray:none;stroke-opacity:1"><path d="M3872 4527h171.056v171.056H3872zm-176 0h171.056v171.056H3696zm176 177.056h171.056v171.056H3872zm-176 0h171.056v171.056H3696z" style="fill:#595959;fill-opacity:1;stroke:#404040;stroke-width:7.01868;stroke-linecap:square;stroke-linejoin:miter;stroke-dasharray:none;stroke-opacity:1" transform="translate(-2626.313 -3805.11)scale(.99734)"/></g></g></g></g><g style="fill:#595959;fill-opacity:1;stroke:#404040;stroke-width:7.01868;stroke-dasharray:none;stroke-opacity:1"><g style="fill:#595959;fill-opacity:1;stroke:#404040;stroke-width:7.01868;stroke-dasharray:none;stroke-opacity:1"><g style="fill:#595959;fill-opacity:1;stroke:#404040;stroke-width:7.01868;stroke-dasharray:none;stroke-opacity:1"><g style="fill:#595959;fill-opacity:1;stroke:#404040;stroke-width:7.01868;stroke-dasharray:none;stroke-opacity:1"><path d="M3872 4527h171.056v171.056H3872zm-176 0h171.056v171.056H3696zm176 177.056h171.056v171.056H3872zm-176 0h171.056v171.056H3696z" style="fill:#595959;fill-opacity:1;stroke:#404040;stroke-width:7.01868;stroke-linecap:square;stroke-linejoin:miter;stroke-dasharray:none;stroke-opacity:1" transform="translate(-3682.662 -4158.28)scale(.99734)"/></g><g style="fill:#595959;fill-opacity:1;stroke:#404040;stroke-width:7.01868;stroke-dasharray:none;stroke-opacity:1"><path d="M3872 4527h171.056v171.056H3872zm-176 0h171.056v171.056H3696zm176 177.056h171.056v171.056H3872zm-176 0h171.056v171.056H3696z" style="fill:#595959;fill-opacity:1;stroke:#404040;stroke-width:7.01868;stroke-linecap:square;stroke-linejoin:miter;stroke-dasharray:none;stroke-opacity:1" transform="translate(-3682.662 -4511.45)scale(.99734)"/></g></g><g style="fill:#595959;fill-opacity:1;stroke:#404040;stroke-width:7.01868;stroke-dasharray:none;stroke-opacity:1"><g style="fill:#595959;fill-opacity:1;stroke:#404040;stroke-width:7.01868;stroke-dasharray:none;stroke-opacity:1"><path d="M3872 4527h171.056v171.056H3872zm-176 0h171.056v171.056H3696zm176 177.056h171.056v171.056H3872zm-176 0h171.056v171.056H3696z" style="fill:#595959;fill-opacity:1;stroke:#404040;stroke-width:7.01868;stroke-linecap:square;stroke-linejoin:miter;stroke-dasharray:none;stroke-opacity:1" transform="translate(-3682.662 -3451.94)scale(.99734)"/></g><g style="fill:#595959;fill-opacity:1;stroke:#404040;stroke-width:7.01868;stroke-dasharray:none;stroke-opacity:1"><path d="M3872 4527h171.056v171.056H3872zm-176 0h171.056v171.056H3696zm176 177.056h171.056v171.056H3872zm-176 0h171.056v171.056H3696z" style="fill:#595959;fill-opacity:1;stroke:#404040;stroke-width:7.01868;stroke-linecap:square;stroke-linejoin:miter;stroke-dasharray:none;stroke-opacity:1" transform="translate(-3682.662 -3805.11)scale(.99734)"/></g></g></g><g style="fill:#595959;fill-opacity:1;stroke:#404040;stroke-width:7.01868;stroke-dasharray:none;stroke-opacity:1"><g style="fill:#595959;fill-opacity:1;stroke:#404040;stroke-width:7.01868;stroke-dasharray:none;stroke-opacity:1"><g style="fill:#595959;fill-opacity:1;stroke:#404040;stroke-width:7.01868;stroke-dasharray:none;stroke-opacity:1"><path d="M3872 4527h171.056v171.056H3872zm-176 0h171.056v171.056H3696zm176 177.056h171.056v171.056H3872zm-176 0h171.056v171.056H3696z" style="fill:#595959;fill-opacity:1;stroke:#404040;stroke-width:7.01868;stroke-linecap:square;stroke-linejoin:miter;stroke-dasharray:none;stroke-opacity:1" transform="translate(-3330.546 -4158.28)scale(.99734)"/></g><g style="fill:#595959;fill-opacity:1;stroke:#404040;stroke-width:7.01868;stroke-dasharray:none;stroke-opacity:1"><path d="M3872 4527h171.056v171.056H3872zm-176 0h171.056v171.056H3696zm176 177.056h171.056v171.056H3872zm-176 0h171.056v171.056H3696z" style="fill:#595959;fill-opacity:1;stroke:#404040;stroke-width:7.01868;stroke-linecap:square;stroke-linejoin:miter;stroke-dasharray:none;stroke-opacity:1" transform="translate(-3330.546 -4511.45)scale(.99734)"/></g></g><g style="fill:#595959;fill-opacity:1;stroke:#404040;stroke-width:7.01868;stroke-dasharray:none;stroke-opacity:1"><g style="fill:#595959;fill-opacity:1;stroke:#404040;stroke-width:7.01868;stroke-dasharray:none;stroke-opacity:1"><path d="M3872 4527h171.056v171.056H3872zm-176 0h171.056v171.056H3696zm176 177.056h171.056v171.056H3872zm-176 0h171.056v171.056H3696z" style="fill:#595959;fill-opacity:1;stroke:#404040;stroke-width:7.01868;stroke-linecap:square;stroke-linejoin:miter;stroke-dasharray:none;stroke-opacity:1" transform="translate(-3330.546 -3451.94)scale(.99734)"/></g><g style="fill:#595959;fill-opacity:1;stroke:#404040;stroke-width:7.01868;stroke-dasharray:none;stroke-opacity:1"><path d="M3872 4527h171.056v171.056H3872zm-176 0h171.056v171.056H3696zm176 177.056h171.056v171.056H3872zm-176 0h171.056v171.056H3696z" style="fill:#595959;fill-opacity:1;stroke:#404040;stroke-width:7.01868;stroke-linecap:square;stroke-linejoin:miter;stroke-dasharray:none;stroke-opacity:1" transform="translate(-3330.546 -3805.11)scale(.99734)"/></g></g></g></g></g></pattern><mask id="c" width="60" height="60" x="-30" y="-30" maskUnits="userSpaceOnUse"><path fill="#fff" d="M-27-27h54v54h-54Z"/><path d="M2-23v-4h-4v4M-.5-6v4h1v-4"/><circle cy="-15" r="10.5"/><g transform="rotate(120)"><path d="M2-23v-4h-4v4M-.5-6v4h1v-4"/><circle cy="-15" r="10.5"/></g><g transform="rotate(-120)"><path d="M2-23v-4h-4v4M-.5-6v4h1v-4"/><circle cy="-15" r="10.5"/></g><circle r="3"/></mask></defs><g transform="translate(-.333)"><path d="m84.667 262.701-2.375-73.407-77.626-3.39-.42-182.87 220.494-.973 3.637 187.53-81.593 1.483v71.627" style="fill:url(#b);fill-opacity:1;fill-rule:evenodd;stroke:none;stroke-width:10.5833;stroke-linecap:square;stroke-linejoin:miter;stroke-dasharray:none;stroke-opacity:1"/><circle cx="8.483366" cy="171.77777" r="13.140326" style="fill:#3d3d3d;fill-opacity:1;fill-rule:evenodd;stroke:none;stroke-width:1.79751;stroke-linecap:round;stroke-linejoin:round;stroke-dasharray:none;stroke-opacity:1" transform="rotate(-14.006)"/><circle cx="89.092735" cy="68.903984" r="13.140326" style="fill:#3d3d3d;fill-opacity:1;fill-rule:evenodd;stroke:none;stroke-width:1.79751;stroke-linecap:round;stroke-linejoin:round;stroke-dasharray:none;stroke-opacity:1" transform="rotate(-14.006)"/><circle cx="127.42282" cy="180.41766" r="13.140326" style="fill:#3d3d3d;fill-opacity:1;fill-rule:evenodd;stroke:none;stroke-width:1.79751;stroke-linecap:round;stroke-linejoin:round;stroke-dasharray:none;stroke-opacity:1" transform="rotate(-14.006)"/><circle cx="19.759245" cy="160.39008" r="7.4112778" style="fill:#3d3d3d;fill-opacity:1;fill-rule:evenodd;stroke:none;stroke-width:1.01381;stroke-linecap:round;stroke-linejoin:round;stroke-dasharray:none;stroke-opacity:1" transform="rotate(-14.006)"/><circle cx="134.5937" cy="194.6037" r="7.4112778" style="fill:#3d3d3d;fill-opacity:1;fill-rule:evenodd;stroke:none;stroke-width:1.01381;stroke-linecap:round;stroke-linejoin:round;stroke-dasharray:none;stroke-opacity:1" transform="rotate(-14.006)"/><circle cx="161.75337" cy="101.0285" r="7.4112778" style="fill:#3d3d3d;fill-opacity:1;fill-rule:evenodd;stroke:none;stroke-width:1.01381;stroke-linecap:round;stroke-linejoin:round;stroke-dasharray:none;stroke-opacity:1" transform="rotate(-14.006)"/><circle cx="79.847618" cy="55.509941" r="7.4112778" style="fill:#3d3d3d;fill-opacity:1;fill-rule:evenodd;stroke:none;stroke-width:1.01381;stroke-linecap:round;stroke-linejoin:round;stroke-dasharray:none;stroke-opacity:1" transform="rotate(-14.006)"/><path d="M141.986 248.324H89.465v8.383h52.52z" style="fill:#525252;fill-opacity:1;stroke-width:2.38125;stroke-linecap:round;stroke-linejoin:round;stroke-dasharray:none"/><path d="M89.465 246.366v2.381h52.52v-2.381z" style="fill:#262626;fill-opacity:1;stroke-width:2.62308;stroke-linecap:round;stroke-linejoin:round;stroke-dasharray:none"/><path d="M141.986 238.228H89.465v8.383h52.52z" style="fill:#4a4a4a;fill-opacity:1;stroke-width:2.38125;stroke-linecap:round;stroke-linejoin:round;stroke-dasharray:none"/><path d="M141.986 258.419H89.465v8.383h52.52z" style="fill:#595959;fill-opacity:1;stroke-width:2.38125;stroke-linecap:round;stroke-linejoin:round;stroke-dasharray:none"/><path d="M89.465 256.68v2.38h52.52v-2.38z" style="fill:#262626;fill-opacity:1;stroke-width:2.62308;stroke-linecap:round;stroke-linejoin:round;stroke-dasharray:none"/><path d="M141.986 219.75H89.465v8.383h52.52z" style="fill:#3b3b3b;fill-opacity:1;stroke-width:2.38125;stroke-linecap:round;stroke-linejoin:round;stroke-dasharray:none"/><path d="M89.465 217.792v2.382h52.52v-2.382z" style="fill:#262626;fill-opacity:1;stroke-width:2.62308;stroke-linecap:round;stroke-linejoin:round;stroke-dasharray:none"/><path d="M141.986 209.655H89.465v8.383h52.52z" style="fill:#383838;fill-opacity:1;stroke-width:2.38125;stroke-linecap:round;stroke-linejoin:round;stroke-dasharray:none"/><path d="M89.465 207.697v2.381h52.52v-2.38z" style="fill:#262626;fill-opacity:1;stroke-width:2.62308;stroke-linecap:round;stroke-linejoin:round;stroke-dasharray:none"/><path d="M141.986 209.655H89.465v8.383h52.52z" style="fill:#333;fill-opacity:1;stroke-width:2.30212;stroke-linecap:round;stroke-linejoin:round;stroke-dasharray:none"/><path d="M141.986 229.845H89.465v8.383h52.52z" style="fill:#424242;fill-opacity:1;stroke-width:2.38125;stroke-linecap:round;stroke-linejoin:round;stroke-dasharray:none"/><path d="M89.465 228.106v2.38h52.52v-2.38z" style="fill:#262626;fill-opacity:1;stroke-width:2.62308;stroke-linecap:round;stroke-linejoin:round;stroke-dasharray:none"/><path d="M89.465 237.236v2.381h52.52v-2.381z" style="display:inline;fill:#262626;fill-opacity:1;stroke-width:2.62308;stroke-linecap:round;stroke-linejoin:round;stroke-dasharray:none"/><path d="M89.465 266.802h52.52" style="display:inline;fill:none;stroke:#262626;stroke-width:2.38125;stroke-linecap:butt;stroke-dasharray:none;stroke-opacity:1"/><path d="M84.667 262.701V190.5H5.292V5.292h220.867V190.5h-79.375v72.201" style="fill:none;fill-opacity:.486275;fill-rule:evenodd;stroke:#171717;stroke-width:10.5833;stroke-linecap:square;stroke-linejoin:miter;stroke-dasharray:none;stroke-opacity:1"/><path d="M84.667 262.701V190.5H5.292V5.292h220.867V190.5h-79.375v72.201" style="fill:none;fill-opacity:.486275;fill-rule:evenodd;stroke:#333;stroke-width:6.08542;stroke-linecap:square;stroke-linejoin:miter;stroke-dasharray:none;stroke-opacity:1"/><circle cx="116.31105" cy="95.255913" r="40.42049" style="fill:#595959;fill-opacity:1;stroke:#404040;stroke-width:3.175;stroke-linejoin:round;stroke-miterlimit:4;stroke-dasharray:none;stroke-opacity:1"/><g mask="url(#c)" style="fill:#ff7500;fill-opacity:1;stroke:none;stroke-width:2.39173;stroke-dasharray:none;stroke-opacity:1" transform="matrix(1.3275 0 0 1.32749 116.311 96.121)"><circle cy="-11" r="15" style="fill:#404040;fill-opacity:1;stroke:none;stroke-width:2.39173;stroke-dasharray:none;stroke-opacity:1"/><circle cy="-11" r="15" style="fill:#404040;fill-opacity:1;stroke:none;stroke-width:2.39173;stroke-dasharray:none;stroke-opacity:1" transform="rotate(120)"/><circle cy="-11" r="15" style="fill:#404040;fill-opacity:1;stroke:none;stroke-width:2.39173;stroke-dasharray:none;stroke-opacity:1" transform="rotate(-120)"/></g><circle r="11.75" fill="none" stroke="#000" stroke-width="3.5" style="stroke:#404040;stroke-width:2.39173;stroke-dasharray:none;stroke-opacity:1" transform="matrix(1.3275 0 0 1.32749 116.311 96.121)"/></g></svg>