<svg xmlns="http://www.w3.org/2000/svg" width="724.7475" height="766.26569" viewBox="0 0 191.75611 202.74112"><g transform="translate(-1092.73 -1602.052)"><path d="M1110.286 1607.32a2.62 2.62 0 0 0-2.624 2.623v186.502a2.62 2.62 0 0 0 2.624 2.624h156.335a2.62 2.62 0 0 0 2.624-2.624v-186.502a2.62 2.62 0 0 0-2.624-2.623zm39.05 96.364h77.086v34.521h-77.086z" style="fill:#bfbfbf;fill-opacity:1;stroke:#585858;stroke-width:3.72301;stroke-linejoin:round;stroke-dasharray:none;stroke-opacity:1;stop-color:#000"/><g transform="matrix(-1 0 0 1 3002.675 2093.633)"><path d="M1739.949-482.336h3.606v187.863h-3.606z" style="fill:#999;fill-opacity:1;stroke:#595959;stroke-width:1.725;stroke-dasharray:none;stroke-opacity:1;paint-order:fill markers stroke;stop-color:#000"/><circle cx="1741.8978" cy="-296.71387" r="6.1198201" style="fill:#a6a6a6;fill-opacity:1;stroke:#4d4d4d;stroke-width:3.508;stroke-linecap:square;stroke-linejoin:miter;stroke-dasharray:none;stroke-opacity:1;paint-order:fill markers stroke;stop-color:#000"/><circle cx="1741.8978" cy="-483.70737" r="6.1198201" style="fill:#a6a6a6;fill-opacity:1;stroke:#4d4d4d;stroke-width:3.508;stroke-linecap:square;stroke-linejoin:miter;stroke-dasharray:none;stroke-opacity:1;paint-order:fill markers stroke;stop-color:#000"/><circle cx="1741.8978" cy="-391.88361" r="6.1198201" style="fill:#a6a6a6;fill-opacity:1;stroke:#4d4d4d;stroke-width:3.508;stroke-linecap:square;stroke-linejoin:miter;stroke-dasharray:none;stroke-opacity:1;paint-order:fill markers stroke;stop-color:#000"/></g><ellipse cx="1134.8104" cy="1777.9871" rx="10.367999" ry="10.368" style="fill:#b3b3b3;fill-opacity:1;stroke:#666;stroke-width:2.6009;stroke-dasharray:none;stroke-opacity:1;paint-order:fill markers stroke;stop-color:#000"/><ellipse cx="1242.0715" cy="1777.9871" rx="10.367999" ry="10.368" style="fill:#b3b3b3;fill-opacity:1;stroke:#666;stroke-width:2.6009;stroke-dasharray:none;stroke-opacity:1;paint-order:fill markers stroke;stop-color:#000"/><g transform="translate(-626.114 2093.633)"><path d="M1739.949-482.336h3.606v187.863h-3.606z" style="fill:#999;fill-opacity:1;stroke:#595959;stroke-width:1.725;stroke-dasharray:none;stroke-opacity:1;paint-order:fill markers stroke;stop-color:#000"/><circle cx="1742.1173" cy="-296.71387" r="6.1198201" style="fill:#a6a6a6;fill-opacity:1;stroke:#4d4d4d;stroke-width:3.508;stroke-linecap:square;stroke-linejoin:miter;stroke-dasharray:none;stroke-opacity:1;paint-order:fill markers stroke;stop-color:#000"/><circle cx="1742.1173" cy="-483.70737" r="6.1198201" style="fill:#a6a6a6;fill-opacity:1;stroke:#4d4d4d;stroke-width:3.508;stroke-linecap:square;stroke-linejoin:miter;stroke-dasharray:none;stroke-opacity:1;paint-order:fill markers stroke;stop-color:#000"/><circle cx="1742.1173" cy="-391.88361" r="6.1198201" style="fill:#a6a6a6;fill-opacity:1;stroke:#4d4d4d;stroke-width:3.508;stroke-linecap:square;stroke-linejoin:miter;stroke-dasharray:none;stroke-opacity:1;paint-order:fill markers stroke;stop-color:#000"/></g><g transform="translate(-441.988 2098.084)"><rect width="30.426735" height="60.741829" x="1615.3812" y="-475.43198" rx="8.6611614" ry="8.6241732" style="fill:#a6a6a6;fill-opacity:1;stroke:#4d4d4d;stroke-width:2.77344;stroke-dasharray:none;stroke-opacity:1;paint-order:fill markers stroke;stop-color:#000"/><ellipse cx="1630.5948" cy="-443.87061" rx="94.491333" ry="16.859758" style="fill:#a6a6a6;fill-opacity:1;stroke:#4d4d4d;stroke-width:2.77344;stroke-dasharray:none;stroke-opacity:1;paint-order:fill markers stroke;stop-color:#000"/><ellipse cx="1630.5948" cy="-444.29968" rx="9.7398767" ry="12.017064" style="fill:#464646;fill-opacity:1;stroke:#161616;stroke-width:2.77344;stroke-dasharray:none;stroke-opacity:1;paint-order:fill markers stroke;stop-color:#000"/><rect width="32.071419" height="9.6387815" x="1614.5585" y="-479.48798" rx="4.8400607" ry="4.8193908" style="fill:none;fill-opacity:1;stroke:#404040;stroke-width:2.77344;stroke-dasharray:none;stroke-opacity:1;paint-order:fill markers stroke;stop-color:#000"/><rect width="114.70969" height="11.578503" x="1531.7339" y="-385.28076" rx="4.3842592" ry="4.3998313" style="fill:#b3b3b3;fill-opacity:1;stroke:#666;stroke-width:3.51021;stroke-dasharray:none;stroke-opacity:1;paint-order:fill markers stroke;stop-color:#000" transform="matrix(.9991 -.04262 -.11276 .99362 0 0)"/><rect width="32.071419" height="9.6387815" x="1614.5585" y="-418.39185" rx="4.8400607" ry="4.8193908" style="fill:none;fill-opacity:1;stroke:#404040;stroke-width:2.77344;stroke-dasharray:none;stroke-opacity:1;paint-order:fill markers stroke;stop-color:#000"/></g><path fill="#333" d="M1150.66 1737.162h74.652v-32.85h-74.652zm2.856-28.61h30.112v24.538h-30.112zm37.491 0h29.997v24.538h-29.997z" style="stroke-width:.999996"/><path d="M1155.436 1711.505h27.926v4.304h-27.926zm0 13.839h27.926v4.304h-27.926zm0-6.92h27.926v4.305h-27.926z" style="fill:#999;stroke-width:.495627"/><path fill="#666" d="M1154.951 1706.627c-1.104 0-1.993 1.005-1.993 2.253v23.713c0 1.249.889 2.254 1.993 2.254h29.263c1.105 0 1.994-1.005 1.994-2.254v-23.713c0-1.248-.89-2.253-1.994-2.253zm.886 2.895h27.494v22.141h-27.493z" style="stroke-width:.999996"/><path d="M1192.242 1711.505h27.926v4.304h-27.926zm0 13.839h27.926v4.304h-27.926zm0-6.92h27.926v4.305h-27.926z" style="fill:#999;stroke-width:.495627"/><path fill="#666" d="M1191.757 1706.627c-1.104 0-1.993 1.005-1.993 2.253v23.713c0 1.249.889 2.254 1.993 2.254h29.263c1.105 0 1.994-1.005 1.994-2.254v-23.713c0-1.248-.889-2.253-1.993-2.253zm.887 2.895h27.493v22.141h-27.493z" style="stroke-width:.999996"/></g></svg>