<svg xmlns="http://www.w3.org/2000/svg" xmlns:xlink="http://www.w3.org/1999/xlink" width="1080" height="1061.2758" viewBox="0 0 285.74999 280.79587"><defs><pattern xlink:href="#a" id="b" patternTransform="matrix(.2646 0 0 .26457 -172.876 -132.5)"/><pattern id="a" width="1079.8988" height="2120.101" patternTransform="translate(-653.389 -500.786)" patternUnits="userSpaceOnUse"><path d="M1969.145-153.418h142.452V-8.504h-142.452z" style="fill:#616161;fill-opacity:1;stroke:#4d4d4d;stroke-width:17.0079;stroke-dasharray:none;stroke-opacity:1;paint-order:markers stroke fill;stop-color:#000" transform="rotate(90)"/><path d="M1969.145-306.291h142.452v144.914h-142.452zm0-153.179h142.452v144.915h-142.452z" style="fill:#5e5e5e;fill-opacity:1;stroke:#4d4d4d;stroke-width:17.0079;stroke-dasharray:none;stroke-opacity:1;paint-order:markers stroke fill;stop-color:#000" transform="rotate(90)"/><path d="M1969.145-612.342h142.452v144.914h-142.452z" style="fill:#5c5c5c;fill-opacity:1;stroke:#4d4d4d;stroke-width:17.0079;stroke-dasharray:none;stroke-opacity:1;paint-order:markers stroke fill;stop-color:#000" transform="rotate(90)"/><path d="M1969.145-765.343h142.452v144.915h-142.452z" style="fill:#5e5e5e;fill-opacity:1;stroke:#4d4d4d;stroke-width:17.0079;stroke-dasharray:none;stroke-opacity:1;paint-order:markers stroke fill;stop-color:#000" transform="rotate(90)"/><path d="M1969.145-918.216h142.452V-773.3h-142.452z" style="fill:#616161;fill-opacity:1;stroke:#4d4d4d;stroke-width:17.0079;stroke-dasharray:none;stroke-opacity:1;paint-order:markers stroke fill;stop-color:#000" transform="rotate(90)"/><path d="M1969.145-1071.395h142.452v144.915h-142.452zm-150.717 917.977h142.452V-8.504h-142.452zm0-152.873h142.452v144.914h-142.452z" style="fill:#5e5e5e;fill-opacity:1;stroke:#4d4d4d;stroke-width:17.0079;stroke-dasharray:none;stroke-opacity:1;paint-order:markers stroke fill;stop-color:#000" transform="rotate(90)"/><path d="M1818.428-459.47h142.452v144.915h-142.452z" style="fill:#616161;fill-opacity:1;stroke:#4d4d4d;stroke-width:17.0079;stroke-dasharray:none;stroke-opacity:1;paint-order:markers stroke fill;stop-color:#000" transform="rotate(90)"/><path d="M1818.428-612.342h142.452v144.914h-142.452zm0-153.001h142.452v144.915h-142.452zm0-152.873h142.452V-773.3h-142.452zm0-153.179h142.452v144.915h-142.452zm-150.873 917.977h142.452V-8.504h-142.452zm0-152.873h142.452v144.914h-142.452zm0-153.179h142.452v144.915h-142.452zm0-152.872h142.452v144.914h-142.452z" style="fill:#5e5e5e;fill-opacity:1;stroke:#4d4d4d;stroke-width:17.0079;stroke-dasharray:none;stroke-opacity:1;paint-order:markers stroke fill;stop-color:#000" transform="rotate(90)"/><path d="M1667.555-765.343h142.452v144.915h-142.452z" style="fill:#5c5c5c;fill-opacity:1;stroke:#4d4d4d;stroke-width:17.0079;stroke-dasharray:none;stroke-opacity:1;paint-order:markers stroke fill;stop-color:#000" transform="rotate(90)"/><path d="M1667.555-918.216h142.452V-773.3h-142.452zm0-153.179h142.452v144.915h-142.452z" style="fill:#5e5e5e;fill-opacity:1;stroke:#4d4d4d;stroke-width:17.0079;stroke-dasharray:none;stroke-opacity:1;paint-order:markers stroke fill;stop-color:#000" transform="rotate(90)"/><path d="M1516.838-153.418h142.452V-8.504h-142.452z" style="fill:#616161;fill-opacity:1;stroke:#4d4d4d;stroke-width:17.0079;stroke-dasharray:none;stroke-opacity:1;paint-order:markers stroke fill;stop-color:#000" transform="rotate(90)"/><path d="M1516.838-306.291h142.452v144.914h-142.452zm0-153.179h142.452v144.915h-142.452zm0-152.872h142.452v144.914h-142.452z" style="fill:#5e5e5e;fill-opacity:1;stroke:#4d4d4d;stroke-width:17.0079;stroke-dasharray:none;stroke-opacity:1;paint-order:markers stroke fill;stop-color:#000" transform="rotate(90)"/><path d="M1516.838-765.343h142.452v144.915h-142.452z" style="fill:#616161;fill-opacity:1;stroke:#4d4d4d;stroke-width:17.0079;stroke-dasharray:none;stroke-opacity:1;paint-order:markers stroke fill;stop-color:#000" transform="rotate(90)"/><path d="M1516.838-918.216h142.452V-773.3h-142.452zm0-153.179h142.452v144.915h-142.452zM1365.97-153.418h142.451V-8.504H1365.97z" style="fill:#5e5e5e;fill-opacity:1;stroke:#4d4d4d;stroke-width:17.0079;stroke-dasharray:none;stroke-opacity:1;paint-order:markers stroke fill;stop-color:#000" transform="rotate(90)"/><path d="M1365.97-306.291h142.451v144.914H1365.97z" style="fill:#5c5c5c;fill-opacity:1;stroke:#4d4d4d;stroke-width:17.0079;stroke-dasharray:none;stroke-opacity:1;paint-order:markers stroke fill;stop-color:#000" transform="rotate(90)"/><path d="M1365.97-459.47h142.451v144.915H1365.97z" style="fill:#5e5e5e;fill-opacity:1;stroke:#4d4d4d;stroke-width:17.0079;stroke-dasharray:none;stroke-opacity:1;paint-order:markers stroke fill;stop-color:#000" transform="rotate(90)"/><path d="M1365.97-612.342h142.451v144.914H1365.97z" style="fill:#616161;fill-opacity:1;stroke:#4d4d4d;stroke-width:17.0079;stroke-dasharray:none;stroke-opacity:1;paint-order:markers stroke fill;stop-color:#000" transform="rotate(90)"/><path d="M1365.97-765.343h142.451v144.915H1365.97zm0-152.873h142.451V-773.3H1365.97zm0-153.179h142.451v144.915H1365.97zm-150.718 917.977h142.452V-8.504h-142.452z" style="fill:#5e5e5e;fill-opacity:1;stroke:#4d4d4d;stroke-width:17.0079;stroke-dasharray:none;stroke-opacity:1;paint-order:markers stroke fill;stop-color:#000" transform="rotate(90)"/><path d="M1215.252-306.291h142.452v144.914h-142.452z" style="fill:#616161;fill-opacity:1;stroke:#4d4d4d;stroke-width:17.0079;stroke-dasharray:none;stroke-opacity:1;paint-order:markers stroke fill;stop-color:#000" transform="rotate(90)"/><path d="M1215.252-459.47h142.452v144.915h-142.452zm0-152.872h142.452v144.914h-142.452zm0-153.001h142.452v144.915h-142.452zm0-152.873h142.452V-773.3h-142.452z" style="fill:#5e5e5e;fill-opacity:1;stroke:#4d4d4d;stroke-width:17.0079;stroke-dasharray:none;stroke-opacity:1;paint-order:markers stroke fill;stop-color:#000" transform="rotate(90)"/><path d="M1215.252-1071.395h142.452v144.915h-142.452z" style="fill:#5c5c5c;fill-opacity:1;stroke:#4d4d4d;stroke-width:17.0079;stroke-dasharray:none;stroke-opacity:1;paint-order:markers stroke fill;stop-color:#000" transform="rotate(90)"/><path d="M1064.379-153.418h142.452V-8.504h-142.452zm0-152.873h142.452v144.914h-142.452zm0-153.179h142.452v144.915h-142.452zm0-152.872h142.452v144.914h-142.452z" style="fill:#5e5e5e;fill-opacity:1;stroke:#4d4d4d;stroke-width:17.0079;stroke-dasharray:none;stroke-opacity:1;paint-order:markers stroke fill;stop-color:#000" transform="rotate(90)"/><path d="M1064.379-765.343h142.452v144.915h-142.452z" style="fill:#5c5c5c;fill-opacity:1;stroke:#4d4d4d;stroke-width:17.0079;stroke-dasharray:none;stroke-opacity:1;paint-order:markers stroke fill;stop-color:#000" transform="rotate(90)"/><path d="M1064.379-918.216h142.452V-773.3h-142.452z" style="fill:#5e5e5e;fill-opacity:1;stroke:#4d4d4d;stroke-width:17.0079;stroke-dasharray:none;stroke-opacity:1;paint-order:markers stroke fill;stop-color:#000" transform="rotate(90)"/><path d="M1064.379-1071.395h142.452v144.915h-142.452z" style="fill:#616161;fill-opacity:1;stroke:#4d4d4d;stroke-width:17.0079;stroke-dasharray:none;stroke-opacity:1;paint-order:markers stroke fill;stop-color:#000" transform="rotate(90)"/><path d="M913.662-153.418h142.452V-8.504H913.662z" style="fill:#5c5c5c;fill-opacity:1;stroke:#4d4d4d;stroke-width:17.0079;stroke-dasharray:none;stroke-opacity:1;paint-order:markers stroke fill;stop-color:#000" transform="rotate(90)"/><path d="M913.662-306.291h142.452v144.914H913.662zm0-153.179h142.452v144.915H913.662z" style="fill:#5e5e5e;fill-opacity:1;stroke:#4d4d4d;stroke-width:17.0079;stroke-dasharray:none;stroke-opacity:1;paint-order:markers stroke fill;stop-color:#000" transform="rotate(90)"/><path d="M913.662-612.342h142.452v144.914H913.662z" style="fill:#616161;fill-opacity:1;stroke:#4d4d4d;stroke-width:17.0079;stroke-dasharray:none;stroke-opacity:1;paint-order:markers stroke fill;stop-color:#000" transform="rotate(90)"/><path d="M913.662-765.343h142.452v144.915H913.662zm0-152.873h142.452V-773.3H913.662zm0-153.179h142.452v144.915H913.662zM762.747-153.418h142.452V-8.504H762.747z" style="fill:#5e5e5e;fill-opacity:1;stroke:#4d4d4d;stroke-width:17.0079;stroke-dasharray:none;stroke-opacity:1;paint-order:markers stroke fill;stop-color:#000" transform="rotate(90)"/><path d="M762.747-306.291h142.452v144.914H762.747z" style="fill:#616161;fill-opacity:1;stroke:#4d4d4d;stroke-width:17.0079;stroke-dasharray:none;stroke-opacity:1;paint-order:markers stroke fill;stop-color:#000" transform="rotate(90)"/><path d="M762.747-459.47h142.452v144.915H762.747zm0-152.872h142.452v144.914H762.747zm0-153.001h142.452v144.915H762.747z" style="fill:#5e5e5e;fill-opacity:1;stroke:#4d4d4d;stroke-width:17.0079;stroke-dasharray:none;stroke-opacity:1;paint-order:markers stroke fill;stop-color:#000" transform="rotate(90)"/><path d="M762.747-918.216h142.452V-773.3H762.747z" style="fill:#5c5c5c;fill-opacity:1;stroke:#4d4d4d;stroke-width:17.0079;stroke-dasharray:none;stroke-opacity:1;paint-order:markers stroke fill;stop-color:#000" transform="rotate(90)"/><path d="M762.747-1071.395h142.452v144.915H762.747zM611.878-153.418H754.33V-8.504H611.878zm0-152.873H754.33v144.914H611.878z" style="fill:#5e5e5e;fill-opacity:1;stroke:#4d4d4d;stroke-width:17.0079;stroke-dasharray:none;stroke-opacity:1;paint-order:markers stroke fill;stop-color:#000" transform="rotate(90)"/><path d="M611.878-459.47H754.33v144.915H611.878z" style="fill:#5c5c5c;fill-opacity:1;stroke:#4d4d4d;stroke-width:17.0079;stroke-dasharray:none;stroke-opacity:1;paint-order:markers stroke fill;stop-color:#000" transform="rotate(90)"/><path d="M611.878-612.342H754.33v144.914H611.878zm0-153.001H754.33v144.915H611.878z" style="fill:#5e5e5e;fill-opacity:1;stroke:#4d4d4d;stroke-width:17.0079;stroke-dasharray:none;stroke-opacity:1;paint-order:markers stroke fill;stop-color:#000" transform="rotate(90)"/><path d="M611.878-918.216H754.33V-773.3H611.878z" style="fill:#616161;fill-opacity:1;stroke:#4d4d4d;stroke-width:17.0079;stroke-dasharray:none;stroke-opacity:1;paint-order:markers stroke fill;stop-color:#000" transform="rotate(90)"/><path d="M611.878-1071.395H754.33v144.915H611.878zM461.161-153.418h142.452V-8.504H461.161zm0-152.873h142.452v144.914H461.161z" style="fill:#5e5e5e;fill-opacity:1;stroke:#4d4d4d;stroke-width:17.0079;stroke-dasharray:none;stroke-opacity:1;paint-order:markers stroke fill;stop-color:#000" transform="rotate(90)"/><path d="M461.161-459.47h142.452v144.915H461.161z" style="fill:#616161;fill-opacity:1;stroke:#4d4d4d;stroke-width:17.0079;stroke-dasharray:none;stroke-opacity:1;paint-order:markers stroke fill;stop-color:#000" transform="rotate(90)"/><path d="M461.161-612.342h142.452v144.914H461.161zm0-153.001h142.452v144.915H461.161z" style="fill:#5e5e5e;fill-opacity:1;stroke:#4d4d4d;stroke-width:17.0079;stroke-dasharray:none;stroke-opacity:1;paint-order:markers stroke fill;stop-color:#000" transform="rotate(90)"/><path d="M461.161-918.216h142.452V-773.3H461.161z" style="fill:#5c5c5c;fill-opacity:1;stroke:#4d4d4d;stroke-width:17.0079;stroke-dasharray:none;stroke-opacity:1;paint-order:markers stroke fill;stop-color:#000" transform="rotate(90)"/><path d="M461.161-1071.395h142.452v144.915H461.161z" style="fill:#5e5e5e;fill-opacity:1;stroke:#4d4d4d;stroke-width:17.0079;stroke-dasharray:none;stroke-opacity:1;paint-order:markers stroke fill;stop-color:#000" transform="rotate(90)"/><path d="M310.288-153.418H452.74V-8.504H310.288z" style="fill:#5c5c5c;fill-opacity:1;stroke:#4d4d4d;stroke-width:17.0079;stroke-dasharray:none;stroke-opacity:1;paint-order:markers stroke fill;stop-color:#000" transform="rotate(90)"/><path d="M310.288-306.291H452.74v144.914H310.288zm0-153.179H452.74v144.915H310.288zm0-152.872H452.74v144.914H310.288zm0-153.001H452.74v144.915H310.288zm0-152.873H452.74V-773.3H310.288z" style="fill:#5e5e5e;fill-opacity:1;stroke:#4d4d4d;stroke-width:17.0079;stroke-dasharray:none;stroke-opacity:1;paint-order:markers stroke fill;stop-color:#000" transform="rotate(90)"/><path d="M310.288-1071.395H452.74v144.915H310.288z" style="fill:#616161;fill-opacity:1;stroke:#4d4d4d;stroke-width:17.0079;stroke-dasharray:none;stroke-opacity:1;paint-order:markers stroke fill;stop-color:#000" transform="rotate(90)"/><path d="M159.57-153.418h142.453V-8.504H159.57zm0-152.873h142.453v144.914H159.57z" style="fill:#5e5e5e;fill-opacity:1;stroke:#4d4d4d;stroke-width:17.0079;stroke-dasharray:none;stroke-opacity:1;paint-order:markers stroke fill;stop-color:#000" transform="rotate(90)"/><path d="M159.57-459.47h142.453v144.915H159.57z" style="fill:#5c5c5c;fill-opacity:1;stroke:#4d4d4d;stroke-width:17.0079;stroke-dasharray:none;stroke-opacity:1;paint-order:markers stroke fill;stop-color:#000" transform="rotate(90)"/><path d="M159.57-612.342h142.453v144.914H159.57z" style="fill:#616161;fill-opacity:1;stroke:#4d4d4d;stroke-width:17.0079;stroke-dasharray:none;stroke-opacity:1;paint-order:markers stroke fill;stop-color:#000" transform="rotate(90)"/><path d="M159.57-765.343h142.453v144.915H159.57zm0-152.873h142.453V-773.3H159.57z" style="fill:#5e5e5e;fill-opacity:1;stroke:#4d4d4d;stroke-width:17.0079;stroke-dasharray:none;stroke-opacity:1;paint-order:markers stroke fill;stop-color:#000" transform="rotate(90)"/><path d="M159.57-1071.395h142.453v144.915H159.57zM8.504-153.418h142.452V-8.504H8.504z" style="fill:#616161;fill-opacity:1;stroke:#4d4d4d;stroke-width:17.0079;stroke-dasharray:none;stroke-opacity:1;paint-order:markers stroke fill;stop-color:#000" transform="rotate(90)"/><path d="M8.504-306.291h142.452v144.914H8.504z" style="fill:#5e5e5e;fill-opacity:1;stroke:#4d4d4d;stroke-width:17.0079;stroke-dasharray:none;stroke-opacity:1;paint-order:markers stroke fill;stop-color:#000" transform="rotate(90)"/><path d="M8.504-459.47h142.452v144.915H8.504z" style="fill:#5c5c5c;fill-opacity:1;stroke:#4d4d4d;stroke-width:17.0079;stroke-dasharray:none;stroke-opacity:1;paint-order:markers stroke fill;stop-color:#000" transform="rotate(90)"/><path d="M8.504-612.342h142.452v144.914H8.504z" style="fill:#5e5e5e;fill-opacity:1;stroke:#4d4d4d;stroke-width:17.0079;stroke-dasharray:none;stroke-opacity:1;paint-order:markers stroke fill;stop-color:#000" transform="rotate(90)"/><path d="M8.504-765.343h142.452v144.915H8.504z" style="fill:#5c5c5c;fill-opacity:1;stroke:#4d4d4d;stroke-width:17.0079;stroke-dasharray:none;stroke-opacity:1;paint-order:markers stroke fill;stop-color:#000" transform="rotate(90)"/><path d="M8.504-918.216h142.452V-773.3H8.504z" style="fill:#5e5e5e;fill-opacity:1;stroke:#4d4d4d;stroke-width:17.0079;stroke-dasharray:none;stroke-opacity:1;paint-order:markers stroke fill;stop-color:#000" transform="rotate(90)"/><path d="M8.504-1071.395h142.452v144.915H8.504z" style="fill:#616161;fill-opacity:1;stroke:#4d4d4d;stroke-width:17.0079;stroke-dasharray:none;stroke-opacity:1;paint-order:markers stroke fill;stop-color:#000" transform="rotate(90)"/></pattern></defs><path d="M-172.876-132.5h285.75v560.917h-285.75z" style="fill:url(#b);stroke:none;stroke-width:.264583;stroke-dasharray:none" transform="translate(172.876 132.5)"/><path d="M-79.012-21.307q-2.649 0-5.436.737c-5.742 2.005-18.586 3.785-18.896 11.6-.486 3.508 4.773 8.464 8.045 9.447 9.031 3.46 16.884 4.977 25.537 2.058 8.036-3.167 8.223-13.815 3.18-18.896-3.74-3.32-7.922-4.943-12.43-4.946M67.96 45.97c-7.917.052-15.447 5.025-18.572 13.163-5.273 13.135-10.933 31.37 5.5 36.944 8.584 3.554 17.604 5.45 26.358.46 8.37-5.297-7.423-10.344-3.896-16.064 3.287-5.707 7.692-10.581 10.313-16.75 4.342-8.88-7.434-14.177-14.21-16.981a19 19 0 0 0-5.493-.772M-88.282 233.684c-17.752-.024-22.631 26.673-21.345 40.784.373 3.735 2.014 7.467 3.368 10.851 5.72 11.553-1.071 22.571 9.354 23.574 5.89.026 8.365 5.174 12.348 6.735 10.47 3.926 25.303.44 32.18-8.607 12.008-16.668-2.594-32.37-10.104-33.676-9.514-1.261-14.925-37.745-22.076-39.288a20 20 0 0 0-3.725-.373" style="fill:#000;fill-opacity:.251799;stroke:none;stroke-width:2.5;stroke-linecap:round;stroke-linejoin:miter;stroke-dasharray:none;stroke-opacity:1;stop-color:#000" transform="translate(172.876 132.5)"/><g transform="translate(-1377.74 -1003.737)"><ellipse cx="1521.1271" cy="1284.1949" rx="52.340981" ry="52.340992" style="fill:none;fill-opacity:1;stroke:#000;stroke-width:3.61892;stroke-linejoin:round;stroke-dasharray:none;stroke-opacity:.2"/><path d="M1521.11 1244.359c-1.972 0-3.91.139-5.81.398l-2.435 7.281a35.5 35.5 0 0 0-10.486 4.342l-6.865-3.425a42.6 42.6 0 0 0-8.217 8.217l3.425 6.866a35.5 35.5 0 0 0-4.34 10.487l-7.284 2.434a42.7 42.7 0 0 0 0 11.619l7.283 2.434a35.5 35.5 0 0 0 4.34 10.487l-3.423 6.866a42.6 42.6 0 0 0 6.85 7.13q.318-.587.602-1.196a76 76 0 0 0 1.526-3.643 89 89 0 0 0 1.181-3.17c.373-.995.613-2.03.893-3.052q.267-1.026.548-2.047l.236-.72a28.87 28.87 0 0 1-7.01-18.899c0-16.008 12.979-28.984 28.986-28.984s28.985 12.976 28.985 28.984c0 7.904-3.165 15.069-8.295 20.297.367 1.208.735 2.415 1.13 3.613.931 2.928 1.828 5.869 2.62 8.838q.078.285.16.569l.997.497a42.6 42.6 0 0 0 8.216-8.217l-3.423-6.866a35.5 35.5 0 0 0 4.34-10.487l7.282-2.434c.26-1.9.398-3.839.398-5.81s-.138-3.91-.398-5.81l-7.283-2.433a35.5 35.5 0 0 0-4.34-10.487l3.425-6.866a42.7 42.7 0 0 0-8.218-8.217l-6.867 3.425a35.5 35.5 0 0 0-10.485-4.342l-2.434-7.28c-1.9-.26-3.839-.4-5.81-.4" style="fill:#000;fill-opacity:.2;stroke:none;stroke-width:1.87322;stroke-dasharray:none;stroke-opacity:1"/><path d="M1521.918 1265.011c-.132.013-.283.101-.464.308-.362.416-.844 1.3-1.5 2.692s-1.487 3.296-2.264 5.077-1.5 3.443-2.063 4.715c-.562 1.273-.964 2.157-1.326 3.054a51 51 0 0 0-.978 2.68c-.294.87-.562 1.7-.817 2.477s-.495 1.5-.682 2.076-.322 1.005-.255 1.474.335.978.576 1.58.456 1.3.482 1.848c.026.55-.134.951-.388 1.246-.255.295-.603.482-.991.67-.389.187-.818.375-1.18.63-.361.254-.655.575-.923.937a5.7 5.7 0 0 0-.697 1.219c-.188.455-.321.965-.281 1.393s.254.777.603 1.058c.348.281.83.496 1.232.858.402.361.723.87.723 1.34 0 .468-.322.896-.737 1.312-.415.415-.924.817-1.393 1.178-.468.362-.897.683-1.286 1.058a7.2 7.2 0 0 0-1.03 1.26c-.296.455-.537.937-.738 1.38-.2.441-.361.843-.576 1.325s-.482 1.045-.71 1.54-.415.925-.616 1.42c-.2.496-.415 1.059-.696 1.621-.282.563-.63 1.125-.898 1.607-.268.483-.455.885-.642 1.273-.188.388-.376.764-.563 1.139-.188.375-.375.75-.429 1.205s.027.992.47 1.246c.441.254 1.245.227 2.29.134s2.33-.255 3.496-.362 2.21-.16 3-.241 1.326-.188 2.13-.375c.803-.188 1.875-.456 2.585-.83.71-.376 1.058-.858 1.353-1.488.294-.629.535-1.406.776-2.09.241-.682.483-1.272.75-1.914.268-.643.563-1.34.75-1.902.188-.563.269-.991.55-1.34.281-.348.764-.616 1.246-.71a2.2 2.2 0 0 1 1.353.174c.388.188.683.483.883.83.201.35.309.751.59 1.287s.737 1.205 1.152 1.969c.415.763.79 1.62 1.179 2.41.388.791.79 1.514 1.272 2.023s1.045.804 1.849 1.072c.803.268 1.848.509 2.746.696.897.188 1.647.322 2.625.47.978.146 2.183.307 3.094.428.911.12 1.527.2 2.103.174s1.112-.161 1.286-.348c.174-.188-.014-.429-.322-1.219s-.736-2.13-1.312-3.818c-.576-1.687-1.3-3.723-1.809-5.384s-.803-2.947-1.03-3.911c-.229-.965-.39-1.608-.59-2.063-.201-.455-.442-.724-.804-1.085-.362-.362-.844-.817-1.393-1.152s-1.165-.55-1.674-.777c-.51-.228-.911-.469-1.059-.75s-.04-.603.242-1.005.736-.884 1.098-1.34c.362-.455.63-.883.696-1.486.067-.602-.067-1.38-.134-1.768s-.067-.389-.187-.55a6 6 0 0 0-.603-.709c-.24-.228-.482-.362-.977-.55-.496-.187-1.246-.428-1.635-.776-.388-.348-.415-.804-.375-1.246s.148-.87.416-1.192c.267-.322.696-.536.937-.844s.295-.71-.067-1.982-1.138-3.416-1.915-5.76a229 229 0 0 1-2.17-6.978c-.616-2.09-1.072-3.724-1.447-5.05s-.67-2.344-.91-3.054c-.242-.71-.43-1.112-.643-1.34-.107-.114-.222-.184-.354-.174" style="fill:#000;fill-opacity:.2;stroke:none;stroke-width:1.91643;stroke-linecap:round;stroke-linejoin:round;stroke-miterlimit:10;stroke-dasharray:none;stroke-opacity:1"/></g><path d="M-171.817-83.803v463.55h71.966v-8.467h-63.5V-75.336h63.5v-8.467zm283.633 0v463.55H39.849v-8.467h63.5V-75.336h-63.5v-8.467z" style="fill:#404040;fill-opacity:1;stroke:#1a1a1a;stroke-width:2.11667;stroke-linecap:square;stroke-linejoin:miter;stroke-miterlimit:24.5;stroke-dasharray:none;stroke-opacity:1;paint-order:markers fill stroke;stop-color:#000" transform="translate(172.876 132.5)"/></svg>