<svg xmlns="http://www.w3.org/2000/svg" id="Layer_2" width="38.398182" height="81.418243" data-name="Layer 2" version="1.1" viewBox="0 0 38.398182 81.418245"><defs id="defs1"><style id="style1">.cls-1{fill:rgba(255,228,54,.9)}.cls-3{fill:#f6c626;opacity:.9}</style></defs><g id="Layer_2-2" data-name="Layer 2" transform="translate(8.444 -.75)scale(1.55678)"><path id="path1" d="m5.992 15.035-3.293 23.01c-.666 4.703 5.074 7.496 8.366 4.075a4.9 4.9 0 0 0 1.256-2.357l3.224-26.796c.271-2.25 2.231-6.045.68-9.377-3.835-2.447-5.916-.367-7.568 2.335l-2.512 8.418a6 6 0 0 0-.153.704z" style="fill:#ccc;stroke:#333;stroke-miterlimit:10;stroke-width:4.11506;stroke-dasharray:none"/><path id="path2" d="M5.249 40.84s5.265-.744 3.446 5.022c-1.268 4.01-2.665 4.92-3.408 5.099-.423.102-.833.397-1.128.794-.243.32-.5.667-.627.884-.026.039-.052.09-.077.141 0-.038 0-.077-.026-.115a8 8 0 0 0-.282-.807 1.36 1.36 0 0 0-.897-.82c-.704-.192-1.806-1.14-1.73-5.074.103-4.753 3.537-5.138 4.729-5.125" class="cls-1" style="stroke-width:1.28125"/><path id="path3" d="M4.864 39.865s4.895 3.114-.333 7.713c-3.626 3.19-5.381 3.088-6.124 2.717-.423-.205-.961-.205-1.461-.013-.41.154-.833.32-1.09.448a1 1 0 0 0-.153.09.6.6 0 0 0 .051-.14 11 11 0 0 0 .282-1.039c.128-.55.052-1.089-.217-1.512-.462-.717-.782-2.498 1.806-6.496 3.126-4.804 6.253-2.665 7.252-1.768z" class="cls-3" style="stroke-width:1.28125"/><path id="path4" d="M6.427 22.556s.487-5.292-5.189-3.204c-3.946 1.461-4.779 2.896-4.92 3.652-.09.436-.359.846-.743 1.166-.307.256-.64.525-.858.666-.039.026-.09.051-.141.077.038 0 .077 0 .115.013.205.051.525.14.82.243.423.141.73.449.871.859.23.692 1.217 1.755 5.15 1.486 4.742-.32 4.96-3.78 4.895-4.971z" class="cls-1" style="stroke-width:1.28125"/><path id="path5" d="M11.95 29.692s2.588-3.805 5.547-1.217c2.063 1.794 1.858 2.972 1.55 3.523a1.23 1.23 0 0 0-.115.961c.077.244.167.487.244.641.013.026.038.051.051.09h-.09c-.18 0-.461 0-.73.012-.384.013-.782.18-1.102.423-.55.436-1.858.987-4.574.026-3.267-1.153-1.512-3.613-.794-4.433z" class="cls-1" style="stroke-width:1.28125"/><path id="path6" d="M12.103 38.315s-1.64 2.088 1.32 3.28c2.05.833 2.793.513 3.062.243.154-.153.384-.23.628-.23.192 0 .41 0 .538.025.026 0 .051 0 .077.013-.013-.013-.026-.038-.039-.051a11 11 0 0 1-.281-.41.88.88 0 0 1-.129-.68c.09-.383-.038-1.203-1.768-2.536-2.075-1.602-3.113-.205-3.408.333z" class="cls-3" style="stroke-width:1.28125"/></g></svg>