<svg xmlns="http://www.w3.org/2000/svg" xmlns:xlink="http://www.w3.org/1999/xlink" width="90" height="90" viewBox="0 0 23.8125 23.8125"><defs><linearGradient id="b"><stop offset="0" style="stop-color:#ffd101;stop-opacity:1"/><stop offset="1" style="stop-color:#c0b040;stop-opacity:1"/></linearGradient><linearGradient id="a"><stop offset="0" style="stop-color:#f1c40f;stop-opacity:1"/><stop offset="1" style="stop-color:#614f05;stop-opacity:1"/></linearGradient><linearGradient xlink:href="#a" id="c" x1="1.5875006" x2="25.400002" y1="11.90625" y2="11.90625" gradientTransform="translate(3.344 -11.906)" gradientUnits="userSpaceOnUse"/><linearGradient xlink:href="#b" id="d" x1="11.636142" x2="11.636142" y1="18.56839" y2="5.2273512" gradientTransform="rotate(90 13.871 11.642)scale(1.18728)" gradientUnits="userSpaceOnUse"/></defs><g transform="rotate(-90 11.906 11.906)"><circle cx="16.83798" cy="1.0986921e-07" r="11.90625" style="fill:url(#c);fill-opacity:1;stroke-width:1.48828;stroke-linecap:round" transform="rotate(45)"/><path d="M16.933 6.638h-.005a.87.87 0 0 0-.952-.776l-5.889.695a.87.87 0 0 0-.783.867v7.402a2.54 2.54 0 0 0-1.307-.352c-1.2 0-2.176.778-2.176 1.74S6.8 17.954 8 17.954s2.176-.778 2.176-1.74V8.277l5.886-.672v5.479a2.54 2.54 0 0 0-1.305-.35c-1.2 0-2.176.778-2.176 1.74s.976 1.74 2.176 1.74 2.176-.778 2.176-1.74z" style="fill:url(#d);fill-opacity:1;stroke:none;stroke-width:.0185092;stroke-opacity:1"/></g></svg>