<svg xmlns="http://www.w3.org/2000/svg" xmlns:xlink="http://www.w3.org/1999/xlink" width="90.000595" height="90.006119" viewBox="0 0 23.812657 23.814119"><defs><linearGradient id="c"><stop offset="0" style="stop-color:#666;stop-opacity:1"/><stop offset="1" style="stop-color:#ccc;stop-opacity:1"/></linearGradient><linearGradient id="d"><stop offset="0" style="stop-color:#666;stop-opacity:1"/><stop offset="1" style="stop-color:#ccc;stop-opacity:1"/></linearGradient><linearGradient xlink:href="#a" id="g" x1="-2622.2874" x2="-2598.4749" y1="-254.58966" y2="-254.58966" gradientTransform="translate(5124.08 199.832)" gradientUnits="userSpaceOnUse"/><linearGradient id="a"><stop offset="0" style="stop-color:#3986ac;stop-opacity:1"/><stop offset="1" style="stop-color:#193b4d;stop-opacity:1"/></linearGradient><linearGradient xlink:href="#b" id="h" x1="-2622.2224" x2="-2616.9819" y1="-253.71561" y2="-253.71561" gradientUnits="userSpaceOnUse"/><linearGradient id="b"><stop offset="0" style="stop-color:gray;stop-opacity:1"/><stop offset="1" style="stop-color:#ccc;stop-opacity:1"/></linearGradient><linearGradient xlink:href="#c" id="j" x1="-2618.9377" x2="-2608.3462" y1="-253.63652" y2="-253.63652" gradientTransform="translate(96.611 199.022)" gradientUnits="userSpaceOnUse"/><linearGradient xlink:href="#d" id="i" x1="-2622.2224" x2="-2616.9819" y1="-253.71561" y2="-253.71561" gradientUnits="userSpaceOnUse"/><pattern xlink:href="#f" id="k" x="0" y="0" patternTransform="translate(1544.248 2147.537)scale(.265)" preserveAspectRatio="xMidYMid"/><pattern id="f" width="32.290772" height="56.34085" patternTransform="translate(1473.46 1965.476)" patternUnits="userSpaceOnUse" preserveAspectRatio="xMidYMid"><path d="M0 43.144c1.71 1.03 3.505 2.178 5.2 3.4 5.145 3.71 8.461 8.681 9.188 9.797h3.567l-.48-.777s-2.467-4.04-6.514-8c2.533-1.303 7.538-4.008 11.955-7.193A32 32 0 0 0 24.68 39c1.088.541 4.173 2.066 7.612 4.143v-3.448c-2.141-1.245-4.03-2.194-5.263-2.827 2.37-2.33 4.172-4.539 5.263-6.067v-5.263C31.2 24.01 29.398 21.8 27.028 19.47c1.234-.632 3.122-1.582 5.263-2.826v-3.448c-3.44 2.077-6.524 3.603-7.612 4.144a32 32 0 0 0-1.763-1.37c-4.417-3.185-9.422-5.89-11.955-7.193 4.047-3.96 6.515-8.001 6.515-8.001L17.955 0h-3.567c-.727 1.116-4.043 6.088-9.188 9.797-1.695 1.222-3.49 2.37-5.2 3.4v3.447c2.184-1.267 4.634-2.79 6.93-4.445q.867-.625 1.675-1.296c1.783.89 7.629 3.9 12.58 7.47 5.146 3.71 8.461 8.681 9.188 9.797-.727 1.116-4.042 6.088-9.187 9.797-4.952 3.57-10.798 6.58-12.581 7.47a32 32 0 0 0-1.674-1.295C4.634 42.486 2.184 40.962 0 39.696Zm0-12.342a37 37 0 0 0 1.26-1.855l.48-.777-.48-.777S.805 26.657 0 25.54v2.631z" style="color:#000;mix-blend-mode:normal;fill:#132c3a;fill-opacity:1;stroke:none;stroke-width:1.50803;stroke-linecap:round;stroke-dasharray:none;stroke-opacity:1;paint-order:markers fill stroke"/></pattern></defs><g transform="translate(2525.606 66.665)"><circle cx="2513.6992" cy="-54.757401" r="11.906251" style="fill:url(#g);stroke:none;stroke-width:.261;stroke-linecap:round;stroke-linejoin:round;stroke-miterlimit:10;stroke-dasharray:none;stroke-opacity:1" transform="scale(-1 1)"/><g style="fill:url(#h)" transform="translate(96.617 199.022)"><path d="m-2621.406-249.802 2.836-1.802 1.588-2.274-2.456-2.753-2.018-1.141-.01-.183a11.9 11.9 0 0 0 .047 8.478" style="fill:url(#i);fill-opacity:1;stroke:none;stroke-width:1.05833;stroke-linecap:butt;stroke-linejoin:round;stroke-dasharray:none;stroke-opacity:1"/></g><path d="m-2517.836-59.632-4.49 2.593 1.93 1.93-.356 1.324-1.558 1.558 4.555 2.63 3.574-2.456 2.446-2.5-2.312-2.74z" style="fill:url(#j);fill-opacity:1;stroke:none;stroke-width:.430021;stroke-linecap:butt;stroke-linejoin:round;stroke-dasharray:none;stroke-opacity:1"/><circle cx="-2513.6992" cy="-54.759018" r="11.906251" style="fill:url(#k);fill-opacity:1;stroke:none;stroke-width:.261;stroke-linecap:round;stroke-linejoin:round;stroke-miterlimit:10;stroke-dasharray:none;stroke-opacity:1"/></g></svg>