<svg xmlns="http://www.w3.org/2000/svg" xmlns:xlink="http://www.w3.org/1999/xlink" width="90" height="90" viewBox="0 0 23.812501 23.812501"><defs><linearGradient id="f"><stop offset="0" style="stop-color:#000;stop-opacity:.89483392"/><stop offset="1" style="stop-color:#000;stop-opacity:0"/></linearGradient><linearGradient id="e"><stop offset="0" style="stop-color:#000;stop-opacity:.87084872"/><stop offset="1" style="stop-color:#000;stop-opacity:0"/></linearGradient><linearGradient id="b"><stop offset="0" style="stop-color:#000;stop-opacity:.92619926"/><stop offset="1" style="stop-color:#000;stop-opacity:0"/></linearGradient><linearGradient id="c"><stop offset="0" style="stop-color:#000;stop-opacity:.95202953"/><stop offset="1" style="stop-color:#000;stop-opacity:0"/></linearGradient><linearGradient id="d"><stop offset="0" style="stop-color:#000;stop-opacity:.90405905"/><stop offset="1" style="stop-color:#000;stop-opacity:0"/></linearGradient><linearGradient id="h"><stop offset="0" style="stop-color:#000;stop-opacity:.88191885"/><stop offset="1" style="stop-color:#000;stop-opacity:0"/></linearGradient><linearGradient id="j"><stop offset="0" style="stop-color:#000;stop-opacity:.48523986"/><stop offset="1" style="stop-color:#000;stop-opacity:0"/></linearGradient><linearGradient id="i"><stop offset="0" style="stop-color:#000;stop-opacity:.72693729"/><stop offset="1" style="stop-color:#000;stop-opacity:0"/></linearGradient><linearGradient id="g"><stop offset="0" style="stop-color:#000;stop-opacity:.87453872"/><stop offset="1" style="stop-color:#000;stop-opacity:0"/></linearGradient><linearGradient id="a"><stop offset="0" style="stop-color:#000;stop-opacity:1"/><stop offset="1" style="stop-color:#000;stop-opacity:0"/></linearGradient><linearGradient xlink:href="#a" id="A" x1="-10.69848" x2="-10.762414" y1="26.096189" y2="5.8287516" gradientTransform="matrix(.625 0 0 1 15.52 -4.177)" gradientUnits="userSpaceOnUse"/><linearGradient xlink:href="#b" id="B" x1="-10.800776" x2="-10.762414" y1="21.25843" y2="5.8287516" gradientTransform="matrix(.625 0 0 1 17.033 -2.962)" gradientUnits="userSpaceOnUse"/><linearGradient xlink:href="#c" id="C" x1="-10.459788" x2="-10.762414" y1="22.345327" y2="5.8287516" gradientTransform="matrix(.625 0 0 1 18.461 -2.515)" gradientUnits="userSpaceOnUse"/><linearGradient xlink:href="#d" id="D" x1="-10.324397" x2="-10.762414" y1="21.607401" y2="5.8287516" gradientTransform="matrix(.625 0 0 1 19.91 -2.984)" gradientUnits="userSpaceOnUse"/><linearGradient xlink:href="#e" id="E" x1="-10.59376" x2="-10.762414" y1="21.835405" y2="5.8287516" gradientTransform="matrix(.625 0 0 1 -7.896 -26.77)" gradientUnits="userSpaceOnUse"/><linearGradient xlink:href="#a" id="F" x1="-10.738429" x2="-10.762414" y1="23.320728" y2="5.8287516" gradientTransform="matrix(.625 0 0 .9226 .563 -26.105)" gradientUnits="userSpaceOnUse"/><linearGradient xlink:href="#a" id="G" x1="-10.937171" x2="-10.762414" y1="22.389168" y2="5.8287516" gradientTransform="matrix(.625 0 0 .9226 -.8 -25.42)" gradientUnits="userSpaceOnUse"/><linearGradient xlink:href="#f" id="H" x1="-10.664381" x2="-10.762414" y1="24.260237" y2="5.8287516" gradientTransform="matrix(.625 0 0 .9226 -9.364 -25.957)" gradientUnits="userSpaceOnUse"/><linearGradient xlink:href="#a" id="I" x1="-10.664381" x2="-10.762414" y1="24.260237" y2="5.8287516" gradientTransform="matrix(.625 0 0 .4066 -6.425 -10.87)" gradientUnits="userSpaceOnUse"/><linearGradient xlink:href="#a" id="J" x1="-10.664381" x2="-10.762414" y1="24.260237" y2="5.8287516" gradientTransform="matrix(.625 0 0 .4066 -5.047 -10.968)" gradientUnits="userSpaceOnUse"/><linearGradient xlink:href="#a" id="K" x1="-10.664381" x2="-10.762414" y1="24.260237" y2="5.8287516" gradientTransform="matrix(.625 0 0 .4066 -3.653 -10.938)" gradientUnits="userSpaceOnUse"/><linearGradient xlink:href="#a" id="L" x1="-10.664381" x2="-10.762414" y1="24.260237" y2="5.8287516" gradientTransform="matrix(.625 0 0 .4066 -2.116 -11.571)" gradientUnits="userSpaceOnUse"/><linearGradient xlink:href="#g" id="M" x1="-10.664381" x2="-10.762414" y1="24.260237" y2="5.8287516" gradientTransform="matrix(.625 0 0 .4066 2.187 -14.736)" gradientUnits="userSpaceOnUse"/><linearGradient xlink:href="#g" id="N" x1="-10.664381" x2="-10.762414" y1="24.260237" y2="5.8287516" gradientTransform="matrix(.625 0 0 .4066 3.694 -16.115)" gradientUnits="userSpaceOnUse"/><linearGradient xlink:href="#g" id="O" x1="-10.664381" x2="-10.762414" y1="24.260237" y2="5.8287516" gradientTransform="matrix(.5625 0 0 .34385 4.708 -17)" gradientUnits="userSpaceOnUse"/><linearGradient xlink:href="#a" id="P" x1="-10.358496" x2="-10.762414" y1="18.495892" y2="5.8287516" gradientTransform="matrix(.625 0 0 .85036 25.607 -1.406)" gradientUnits="userSpaceOnUse"/><linearGradient xlink:href="#h" id="Q" x1="-10.972273" x2="-10.762414" y1="21.381046" y2="5.8287516" gradientTransform="matrix(.625 0 0 .74605 27.023 .128)" gradientUnits="userSpaceOnUse"/><linearGradient xlink:href="#a" id="R" x1="-10.358496" x2="-10.762414" y1="18.495892" y2="5.8287516" gradientTransform="matrix(.625 0 0 .41038 22.744 11.925)" gradientUnits="userSpaceOnUse"/><linearGradient xlink:href="#i" id="S" x1="-10.664381" x2="-10.762414" y1="24.260237" y2="5.8287516" gradientTransform="matrix(.5625 0 0 .34385 -15.752 -15.614)" gradientUnits="userSpaceOnUse"/><linearGradient xlink:href="#i" id="T" x1="-10.664381" x2="-10.762414" y1="24.260237" y2="5.8287516" gradientTransform="matrix(.5625 0 0 .34385 -11.447 -10.798)" gradientUnits="userSpaceOnUse"/><linearGradient xlink:href="#i" id="U" x1="-10.664381" x2="-10.762414" y1="24.260237" y2="5.8287516" gradientTransform="matrix(.5625 0 0 .34385 20.67 14.356)" gradientUnits="userSpaceOnUse"/><linearGradient xlink:href="#j" id="V" x1="-10.664381" x2="-10.762414" y1="24.260237" y2="5.8287516" gradientTransform="matrix(.5625 0 0 .34385 13.46 12.9)" gradientUnits="userSpaceOnUse"/><linearGradient xlink:href="#j" id="W" x1="-10.664381" x2="-10.762414" y1="24.260237" y2="5.8287516" gradientTransform="matrix(.5625 0 0 .34385 10.248 10.562)" gradientUnits="userSpaceOnUse"/><linearGradient xlink:href="#j" id="X" x1="-10.664381" x2="-10.762414" y1="24.260237" y2="5.8287516" gradientTransform="matrix(.5625 0 0 .34385 9.13 10.134)" gradientUnits="userSpaceOnUse"/><linearGradient xlink:href="#j" id="Y" x1="-10.664381" x2="-10.762414" y1="24.260237" y2="5.8287516" gradientTransform="matrix(.5625 0 0 .34385 23.568 12.992)" gradientUnits="userSpaceOnUse"/><path id="k" d="M-43.254 5.96h5.316v99.316h-5.316z"/><path id="l" d="M-43.254 5.96h5.316v99.316h-5.316z"/><path id="m" d="M-43.254 5.96h5.316v99.316h-5.316z"/><path id="n" d="M-43.254 5.96h5.316v99.316h-5.316z"/><path id="o" d="M-43.254 5.96h5.316v99.316h-5.316z"/><path id="p" d="M-43.254 5.96h5.316v99.316h-5.316z"/><path id="q" d="M-43.254 5.96h5.316v99.316h-5.316z"/><path id="r" d="M-43.254 5.96h5.316v99.316h-5.316z"/><path id="s" d="M-43.254 5.96h5.316v99.316h-5.316z"/><path id="t" d="M-43.254 5.96h5.316v99.316h-5.316z"/><path id="u" d="M-43.254 5.96h5.316v99.316h-5.316z"/><path id="v" d="M-43.254 5.96h5.316v99.316h-5.316z"/><path id="w" d="M-43.254 5.96h5.316v99.316h-5.316z"/><path id="x" d="M-43.254 5.96h5.316v99.316h-5.316z"/><path id="y" d="M-43.254 5.96h5.316v99.316h-5.316z"/><path id="z" d="M-43.254 5.96h5.316v99.316h-5.316z"/></defs><circle cx="-11.902903" cy="11.905354" r="11.906251" style="fill:#000;fill-opacity:1;stroke:none;stroke-width:.260903;stroke-linecap:round;stroke-linejoin:round;stroke-miterlimit:10;stroke-dasharray:none;stroke-opacity:1" transform="rotate(-90)"/><text xml:space="preserve" style="font-size:8px;font-family:&quot;DejaVu Sans Mono&quot;;-inkscape-font-specification:&quot;DejaVu Sans Mono, Normal&quot;;white-space:pre;shape-inside:url(#k);display:inline;fill:#0cdd02;fill-opacity:.703883;fill-rule:evenodd" transform="rotate(-90 4.982 6.768)scale(.26458)"><tspan x="-43.253906" y="13.039062">
</tspan><tspan x="-43.253906" y="23.039062">
</tspan><tspan x="-43.253906" y="33.039062">
</tspan><tspan x="-43.253906" y="43.039062">0
</tspan><tspan x="-43.253906" y="53.039062">R
</tspan><tspan x="-43.253906" y="63.039062">E
</tspan></text><text xml:space="preserve" style="font-size:8px;font-family:&quot;DejaVu Sans Mono&quot;;-inkscape-font-specification:&quot;DejaVu Sans Mono, Normal&quot;;white-space:pre;shape-inside:url(#l);display:inline;fill:#0cdd02;fill-opacity:.703883;fill-rule:evenodd" transform="rotate(-90 4.905 5.076)scale(.26458)"><tspan x="-43.253906" y="13.039062">
</tspan><tspan x="-43.253906" y="23.039062">
</tspan><tspan x="-43.253906" y="33.039062">0
</tspan><tspan x="-43.253906" y="43.039062">R
</tspan><tspan x="-43.253906" y="53.039062">E
</tspan><tspan x="-43.253906" y="63.039062">R
</tspan><tspan x="-43.253906" y="73.039062">R
</tspan><tspan x="-43.253906" y="83.039062">
</tspan><tspan x="-43.253906" y="93.039062">
</tspan></text><text xml:space="preserve" style="font-size:8px;font-family:&quot;DejaVu Sans Mono&quot;;-inkscape-font-specification:&quot;DejaVu Sans Mono, Normal&quot;;white-space:pre;shape-inside:url(#m);display:inline;fill:#0cdd02;fill-opacity:.703883;fill-rule:evenodd" transform="rotate(-90 4.264 4.222)scale(.26458)"><tspan x="-43.253906" y="13.039062">
</tspan><tspan x="-43.253906" y="23.039062">0
</tspan><tspan x="-43.253906" y="33.039062">R
</tspan><tspan x="-43.253906" y="43.039062">E
</tspan><tspan x="-43.253906" y="53.039062">R
</tspan><tspan x="-43.253906" y="63.039062">R
</tspan><tspan x="-43.253906" y="73.039062">0
</tspan><tspan x="-43.253906" y="83.039062">
</tspan><tspan x="-43.253906" y="93.039062">
</tspan></text><text xml:space="preserve" style="font-size:8px;font-family:&quot;DejaVu Sans Mono&quot;;-inkscape-font-specification:&quot;DejaVu Sans Mono, Normal&quot;;white-space:pre;shape-inside:url(#n);display:inline;fill:#0cdd02;fill-opacity:.703883;fill-rule:evenodd" transform="rotate(-90 2.154 4.798)scale(.26458)"><tspan x="-43.253906" y="13.039062">
</tspan><tspan x="-43.253906" y="23.039062">R
</tspan><tspan x="-43.253906" y="33.039062">E
</tspan><tspan x="-43.253906" y="43.039062">R
</tspan><tspan x="-43.253906" y="53.039062">R
</tspan><tspan x="-43.253906" y="63.039062">0
</tspan><tspan x="-43.253906" y="73.039062">E
</tspan><tspan x="-43.253906" y="83.039062">R
</tspan></text><text xml:space="preserve" style="font-size:8px;font-family:&quot;DejaVu Sans Mono&quot;;-inkscape-font-specification:&quot;DejaVu Sans Mono, Normal&quot;;white-space:pre;shape-inside:url(#o);display:inline;fill:#0cdd02;fill-opacity:.703883;fill-rule:evenodd" transform="rotate(-90 1.397 4.168)scale(.26458)"><tspan x="-43.253906" y="13.039062">
</tspan><tspan x="-43.253906" y="23.039062">E
</tspan><tspan x="-43.253906" y="33.039062">R
</tspan><tspan x="-43.253906" y="43.039062">R
</tspan><tspan x="-43.253906" y="53.039062">0
</tspan><tspan x="-43.253906" y="63.039062">R
</tspan><tspan x="-43.253906" y="73.039062">R
</tspan><tspan x="-43.253906" y="83.039062">E
</tspan><tspan x="-43.253906" y="93.039062">R
</tspan></text><text xml:space="preserve" style="font-size:8px;font-family:&quot;DejaVu Sans Mono&quot;;-inkscape-font-specification:&quot;DejaVu Sans Mono, Normal&quot;;white-space:pre;shape-inside:url(#p);display:inline;fill:#0cdd02;fill-opacity:.703883;fill-rule:evenodd" transform="rotate(-90 1.962 2.219)scale(.26458)"><tspan x="-43.253906" y="13.039062">R
</tspan><tspan x="-43.253906" y="23.039062">R
</tspan><tspan x="-43.253906" y="33.039062">0
</tspan><tspan x="-43.253906" y="43.039062">R
</tspan><tspan x="-43.253906" y="53.039062">E
</tspan><tspan x="-43.253906" y="63.039062">R
</tspan><tspan x="-43.253906" y="73.039062">R
</tspan><tspan x="-43.253906" y="83.039062">0
</tspan></text><text xml:space="preserve" style="font-size:8px;font-family:&quot;DejaVu Sans Mono&quot;;-inkscape-font-specification:&quot;DejaVu Sans Mono, Normal&quot;;white-space:pre;shape-inside:url(#q);display:inline;fill:#0cdd02;fill-opacity:.703883;fill-rule:evenodd" transform="rotate(-90 .491 .748)scale(.26458)"><tspan x="-43.253906" y="13.039062">0
</tspan><tspan x="-43.253906" y="23.039062">R
</tspan><tspan x="-43.253906" y="33.039062">E
</tspan><tspan x="-43.253906" y="43.039062">R
</tspan><tspan x="-43.253906" y="53.039062">R
</tspan><tspan x="-43.253906" y="63.039062">0
</tspan><tspan x="-43.253906" y="73.039062">E
</tspan><tspan x="-43.253906" y="83.039062">R
</tspan><tspan x="-43.253906" y="93.039062">
</tspan></text><text xml:space="preserve" style="font-size:8px;font-family:&quot;DejaVu Sans Mono&quot;;-inkscape-font-specification:&quot;DejaVu Sans Mono, Normal&quot;;white-space:pre;shape-inside:url(#r);display:inline;fill:#0cdd02;fill-opacity:.703883;fill-rule:evenodd" transform="rotate(-90 1.333 1.462)scale(.26458)"><tspan x="-43.253906" y="13.039062">E
</tspan><tspan x="-43.253906" y="23.039062">R
</tspan><tspan x="-43.253906" y="33.039062">R
</tspan><tspan x="-43.253906" y="43.039062">0
</tspan><tspan x="-43.253906" y="53.039062">R
</tspan><tspan x="-43.253906" y="63.039062">E
</tspan><tspan x="-43.253906" y="73.039062">R
</tspan><tspan x="-43.253906" y="83.039062">R
</tspan><tspan x="-43.253906" y="93.039062">
</tspan></text><text xml:space="preserve" style="font-size:8px;font-family:&quot;DejaVu Sans Mono&quot;;-inkscape-font-specification:&quot;DejaVu Sans Mono, Normal&quot;;white-space:pre;shape-inside:url(#s);display:inline;fill:#0cdd02;fill-opacity:.703883;fill-rule:evenodd" transform="rotate(-90 -1.469 1.302)scale(.26458)"><tspan x="-43.253906" y="13.039062">
</tspan><tspan x="-43.253906" y="23.039062">0
</tspan><tspan x="-43.253906" y="33.039062">R
</tspan><tspan x="-43.253906" y="43.039062">E
</tspan><tspan x="-43.253906" y="53.039062">R
</tspan><tspan x="-43.253906" y="63.039062">R
</tspan><tspan x="-43.253906" y="73.039062">0
</tspan><tspan x="-43.253906" y="83.039062">R
</tspan><tspan x="-43.253906" y="93.039062">E
</tspan></text><text xml:space="preserve" style="font-size:8px;font-family:&quot;DejaVu Sans Mono&quot;;-inkscape-font-specification:&quot;DejaVu Sans Mono, Normal&quot;;white-space:pre;shape-inside:url(#t);display:inline;fill:#0cdd02;fill-opacity:.703883;fill-rule:evenodd" transform="rotate(-90 -.883 -.733)scale(.26458)"><tspan x="-43.253906" y="13.039062">R
</tspan><tspan x="-43.253906" y="23.039062">0
</tspan><tspan x="-43.253906" y="33.039062">R
</tspan><tspan x="-43.253906" y="43.039062">E
</tspan><tspan x="-43.253906" y="53.039062">R
</tspan><tspan x="-43.253906" y="63.039062">R
</tspan><tspan x="-43.253906" y="73.039062">0
</tspan><tspan x="-43.253906" y="83.039062">R
</tspan><tspan x="-43.253906" y="93.039062">
</tspan></text><text xml:space="preserve" style="font-size:8px;font-family:&quot;DejaVu Sans Mono&quot;;-inkscape-font-specification:&quot;DejaVu Sans Mono, Normal&quot;;white-space:pre;shape-inside:url(#u);display:inline;fill:#0cdd02;fill-opacity:.703883;fill-rule:evenodd" transform="rotate(-90 -2.29 -2.15)scale(.26458)"><tspan x="-43.253906" y="13.039062">R
</tspan><tspan x="-43.253906" y="23.039062">E
</tspan><tspan x="-43.253906" y="33.039062">R
</tspan><tspan x="-43.253906" y="43.039062">R
</tspan><tspan x="-43.253906" y="53.039062">0
</tspan><tspan x="-43.253906" y="63.039062">R
</tspan><tspan x="-43.253906" y="73.039062">R
</tspan><tspan x="-43.253906" y="83.039062">E
</tspan></text><text xml:space="preserve" style="font-size:8px;font-family:&quot;DejaVu Sans Mono&quot;;-inkscape-font-specification:&quot;DejaVu Sans Mono, Normal&quot;;white-space:pre;shape-inside:url(#v);display:inline;fill:#0cdd02;fill-opacity:.703883;fill-rule:evenodd" transform="rotate(-90 -5.049 -2.214)scale(.26458)"><tspan x="-43.253906" y="13.039062">
</tspan><tspan x="-43.253906" y="23.039062">
</tspan><tspan x="-43.253906" y="33.039062">R
</tspan><tspan x="-43.253906" y="43.039062">0
</tspan><tspan x="-43.253906" y="53.039062">R
</tspan><tspan x="-43.253906" y="63.039062">E
</tspan><tspan x="-43.253906" y="73.039062">R
</tspan><tspan x="-43.253906" y="83.039062">R</tspan></text><text xml:space="preserve" style="font-size:8px;font-family:&quot;DejaVu Sans Mono&quot;;-inkscape-font-specification:&quot;DejaVu Sans Mono, Normal&quot;;white-space:pre;shape-inside:url(#w);display:inline;fill:#0cdd02;fill-opacity:.703883;fill-rule:evenodd" transform="rotate(-90 -1.511 -1.425)scale(.26458)"><tspan x="-43.253906" y="13.039062">R
</tspan><tspan x="-43.253906" y="23.039062">E
</tspan><tspan x="-43.253906" y="33.039062">R
</tspan><tspan x="-43.253906" y="43.039062">R
</tspan><tspan x="-43.253906" y="53.039062">0
</tspan><tspan x="-43.253906" y="63.039062">R
</tspan><tspan x="-43.253906" y="73.039062">R
</tspan><tspan x="-43.253906" y="83.039062">E
</tspan></text><text xml:space="preserve" style="font-size:8px;font-family:&quot;DejaVu Sans Mono&quot;;-inkscape-font-specification:&quot;DejaVu Sans Mono, Normal&quot;;white-space:pre;shape-inside:url(#x);display:inline;fill:#0cdd02;fill-opacity:.703883;fill-rule:evenodd" transform="rotate(-90 -1.73 -4.233)scale(.26458)"><tspan x="-43.253906" y="13.039062">E
</tspan><tspan x="-43.253906" y="23.039062">R
</tspan><tspan x="-43.253906" y="33.039062">R
</tspan><tspan x="-43.253906" y="43.039062">0
</tspan><tspan x="-43.253906" y="53.039062">R
</tspan><tspan x="-43.253906" y="63.039062">E
</tspan><tspan x="-43.253906" y="73.039062">
</tspan></text><text xml:space="preserve" style="font-size:8px;font-family:&quot;DejaVu Sans Mono&quot;;-inkscape-font-specification:&quot;DejaVu Sans Mono, Normal&quot;;white-space:pre;shape-inside:url(#y);display:inline;fill:#0cdd02;fill-opacity:.703883;fill-rule:evenodd" transform="rotate(-90 -3.14 -5.545)scale(.26458)"><tspan x="-43.253906" y="13.039062">
</tspan><tspan x="-43.253906" y="23.039062">E
</tspan><tspan x="-43.253906" y="33.039062">R
</tspan><tspan x="-43.253906" y="43.039062">R
</tspan><tspan x="-43.253906" y="53.039062">0
</tspan></text><text xml:space="preserve" style="font-size:8px;font-family:&quot;DejaVu Sans Mono&quot;;-inkscape-font-specification:&quot;DejaVu Sans Mono, Normal&quot;;white-space:pre;shape-inside:url(#z);display:inline;fill:#0cdd02;fill-opacity:.703883;fill-rule:evenodd" transform="rotate(-90 -1.192 -8.884)scale(.26458)"><tspan x="-43.253906" y="13.039062">R
</tspan><tspan x="-43.253906" y="23.039062">0
</tspan></text><g style="display:inline"><path d="M8.141 1.428h1.385v20.65H8.141z" style="fill:url(#A);fill-rule:evenodd;stroke-width:.209171" transform="rotate(-90 11.904 11.905)"/><path d="M9.654 2.643h1.385v20.65H9.654z" style="fill:url(#B);fill-rule:evenodd;stroke-width:.209171" transform="rotate(-90 11.904 11.905)"/><path d="M11.082 3.09h1.385v20.651h-1.385z" style="fill:url(#C);fill-rule:evenodd;stroke-width:.209171" transform="rotate(-90 11.904 11.905)"/><path d="M12.531 2.621h1.386v20.651H12.53z" style="fill:url(#D);fill-rule:evenodd;stroke-width:.209171" transform="rotate(-90 11.904 11.905)"/><path d="M-15.275-21.165h1.385v20.65h-1.385z" style="fill:url(#E);fill-rule:evenodd;stroke-width:.209171" transform="matrix(0 1 -1 0 0 23.81)"/><path d="M-6.816-20.934h1.385v19.053h-1.385z" style="display:inline;fill:url(#F);fill-rule:evenodd;stroke-width:.200913" transform="matrix(0 1 -1 0 0 23.81)"/><path d="M-8.178-20.249h1.385v19.053h-1.385z" style="fill:url(#G);fill-rule:evenodd;stroke-width:.200913" transform="matrix(0 1 -1 0 0 23.81)"/><path d="M-16.743-20.786h1.385v19.052h-1.385z" style="fill:url(#H);fill-rule:evenodd;stroke-width:.200913" transform="matrix(0 1 -1 0 0 23.81)"/><path d="M-13.805-8.591h1.386v8.397h-1.386z" style="fill:url(#I);fill-rule:evenodd;stroke-width:.133379" transform="matrix(0 1 -1 0 0 23.81)"/><path d="M-12.426-8.69h1.385v8.398h-1.385z" style="fill:url(#J);fill-rule:evenodd;stroke-width:.133379" transform="matrix(0 1 -1 0 0 23.81)"/><path d="M-11.032-8.66h1.385v8.398h-1.385z" style="fill:url(#K);fill-rule:evenodd;stroke-width:.133379" transform="matrix(0 1 -1 0 0 23.81)"/><path d="M-9.495-9.292h1.386v8.397h-1.386z" style="fill:url(#L);fill-rule:evenodd;stroke-width:.133379" transform="matrix(0 1 -1 0 0 23.81)"/><path d="M-5.192-12.457h1.385v8.397h-1.385z" style="fill:url(#M);fill-rule:evenodd;stroke-width:.133379" transform="matrix(0 1 -1 0 0 23.81)"/><path d="M-3.685-13.836H-2.3v8.397h-1.385z" style="fill:url(#N);fill-rule:evenodd;stroke-width:.133379" transform="matrix(0 1 -1 0 0 23.81)"/><path d="M-1.934-15.072h1.247v7.1h-1.247z" style="fill:url(#O);fill-rule:evenodd;stroke-width:.116361" transform="matrix(0 1 -1 0 0 23.81)"/><path d="M18.228 3.36h1.385v17.562h-1.385z" style="fill:url(#P);fill-rule:evenodd;stroke-width:.192887" transform="rotate(-90 11.904 11.905)"/><path d="M19.644 4.31h1.385v15.406h-1.385z" style="fill:url(#Q);fill-rule:evenodd;stroke-width:.18067" transform="rotate(-90 11.904 11.905)"/><path d="M15.364 14.225h1.386V22.7h-1.386z" style="fill:url(#R);fill-rule:evenodd;stroke-width:.133997" transform="rotate(-90 11.904 11.905)"/><path d="M-22.393-13.687h1.247v7.101h-1.247z" style="fill:url(#S);fill-rule:evenodd;stroke-width:.116361" transform="matrix(0 1 -1 0 0 23.81)"/><path d="M-18.088-8.87h1.247v7.1h-1.247z" style="fill:url(#T);fill-rule:evenodd;stroke-width:.116361" transform="matrix(0 1 -1 0 0 23.81)"/><path d="M14.028 16.283h1.247v7.1h-1.247z" style="fill:url(#U);fill-rule:evenodd;stroke-width:.116361" transform="rotate(-90 11.904 11.905)"/><path d="M6.819 14.828h1.246v7.1H6.82z" style="fill:url(#V);fill-rule:evenodd;stroke-width:.116361" transform="rotate(-90 11.904 11.905)"/><path d="M3.607 12.49h1.246v7.1H3.607z" style="fill:url(#W);fill-rule:evenodd;stroke-width:.116361" transform="rotate(-90 11.904 11.905)"/><path d="M2.49 12.061h1.246v7.101H2.49z" style="fill:url(#X);fill-rule:evenodd;stroke-width:.116361" transform="rotate(-90 11.904 11.905)"/><path d="M16.927 14.919h1.246v7.1h-1.246z" style="fill:url(#Y);fill-rule:evenodd;stroke-width:.116361" transform="rotate(-90 11.904 11.905)"/></g></svg>