<svg xmlns="http://www.w3.org/2000/svg" xmlns:xlink="http://www.w3.org/1999/xlink" width="90" height="90" viewBox="0 0 23.812499 23.812501"><defs><linearGradient id="a"><stop offset="0" style="stop-color:#351c75;stop-opacity:1"/><stop offset="1" style="stop-color:#073763;stop-opacity:1"/></linearGradient><linearGradient xlink:href="#a" id="b" x1="48.552654" x2="72.365154" y1="62.972805" y2="62.972805" gradientTransform="rotate(-135 -1.778 87.28)" gradientUnits="userSpaceOnUse"/></defs><g transform="translate(-48.553 -51.067)"><circle cx="-62.972801" cy="60.4589" r="11.90625" style="fill:url(#b);fill-opacity:1;stroke:none;stroke-width:1.05833;stroke-linecap:round" transform="rotate(-90)"/><path fill="#fff" fill-rule="evenodd" d="M53.682 63.897a.29.29 0 0 1 .292-.287c.078 0 .152.03.207.084a.28.28 0 0 1 .085.203.29.29 0 0 1-.292.287.29.29 0 0 1-.292-.287" style="stroke-width:.104721;fill:#fff;fill-opacity:1"/><path fill-rule="evenodd" stroke="#fff" stroke-linejoin="round" stroke-width="0.104721" d="M53.682 63.897a.29.29 0 0 1 .292-.287c.078 0 .152.03.207.084a.28.28 0 0 1 .085.203.29.29 0 0 1-.292.287.29.29 0 0 1-.292-.287z" style="fill:#fff;fill-opacity:1"/><path fill="#fff" fill-rule="evenodd" d="M50.303 59.405a.29.29 0 0 1 .292-.287c.078 0 .152.03.207.084a.28.28 0 0 1 .085.203.29.29 0 0 1-.292.286.29.29 0 0 1-.292-.286" style="stroke-width:.104721;fill:#fff;fill-opacity:1"/><path fill-rule="evenodd" stroke="#fff" stroke-linejoin="round" stroke-width="0.104721" d="M50.303 59.405a.29.29 0 0 1 .292-.287c.078 0 .152.03.207.084a.28.28 0 0 1 .085.203.29.29 0 0 1-.292.286.29.29 0 0 1-.292-.286z" style="fill:#fff;fill-opacity:1"/><path fill="#fff" fill-rule="evenodd" d="M54.097 60.05a.29.29 0 0 1 .292-.287c.077 0 .151.03.206.084a.28.28 0 0 1 .086.203.29.29 0 0 1-.292.287.29.29 0 0 1-.292-.287" style="stroke-width:.104721;fill:#fff;fill-opacity:1"/><path fill-rule="evenodd" stroke="#fff" stroke-linejoin="round" stroke-width="0.104721" d="M54.097 60.05a.29.29 0 0 1 .292-.287c.077 0 .151.03.206.084a.28.28 0 0 1 .086.203.29.29 0 0 1-.292.287.29.29 0 0 1-.292-.287zm3.307 6.34a.29.29 0 0 1 .292-.288c.077 0 .151.03.206.084a.28.28 0 0 1 .086.203.29.29 0 0 1-.292.287.29.29 0 0 1-.292-.287z" style="fill:#fff;fill-opacity:1"/><path fill="#fff" fill-rule="evenodd" d="M59.174 54.102a.503.503 0 1 1 1.006 0 .503.503 0 0 1-1.006 0m3.133 6.115a.503.503 0 1 1 1.006 0 .503.503 0 0 1-1.006 0" style="fill:#fff;fill-opacity:1;stroke-width:.104721"/><path fill-rule="evenodd" stroke="#fff" stroke-linejoin="round" stroke-width="0.104721" d="M55.124 53.962a.503.503 0 1 1 1.006 0 .503.503 0 0 1-1.006 0z" style="fill:#fff;fill-opacity:1"/><path fill="#fff" fill-rule="evenodd" d="M60.516 68.582a.503.503 0 1 1 1.006 0 .503.503 0 1 1-1.006 0" style="fill:#fff;fill-opacity:1;stroke-width:.104721"/><path fill-rule="evenodd" stroke="#fff" stroke-linejoin="round" stroke-width="0.104721" d="M65.539 70.29a.503.503 0 0 1 1.006 0 .503.503 0 1 1-1.006 0z" style="fill:#fff;fill-opacity:1"/><path fill="#fff" fill-rule="evenodd" d="M68.375 67.568a.29.29 0 0 1 .291-.287c.078 0 .152.03.207.084a.28.28 0 0 1 .085.203.29.29 0 0 1-.292.287.29.29 0 0 1-.291-.287m.843-5.639a.503.503 0 1 1 1.006 0 .503.503 0 1 1-1.006 0" style="fill:#fff;fill-opacity:1;stroke-width:.104721"/><path fill-rule="evenodd" stroke="#fff" stroke-linejoin="round" stroke-width="0.104721" d="M65.435 61.923a.503.503 0 1 1 1.006 0 .503.503 0 1 1-1.006 0zm-4.954-4.643a.503.503 0 1 1 1.006 0 .503.503 0 0 1-1.006 0zM55.76 71.428a.29.29 0 0 1 .292-.287c.077 0 .151.03.206.084a.28.28 0 0 1 .086.203.29.29 0 0 1-.292.287.29.29 0 0 1-.292-.287z" style="fill:#fff;fill-opacity:1"/><path fill="#fff" fill-rule="evenodd" d="M52.459 67.955a.29.29 0 0 1 .291-.287c.078 0 .152.03.207.084a.28.28 0 0 1 .085.203.29.29 0 0 1-.292.287.29.29 0 0 1-.291-.287" style="stroke-width:.104721;fill:#fff;fill-opacity:1"/><path fill-rule="evenodd" stroke="#fff" stroke-linejoin="round" stroke-width="0.104721" d="M52.459 67.955a.29.29 0 0 1 .291-.287c.078 0 .152.03.207.084a.28.28 0 0 1 .085.203.29.29 0 0 1-.292.287.29.29 0 0 1-.291-.287z" style="fill:#fff;fill-opacity:1"/><path fill="#fff" fill-rule="evenodd" d="M60.394 72.18a.503.503 0 1 1 1.006 0 .503.503 0 0 1-1.006 0" style="fill:#fff;fill-opacity:1;stroke-width:.104721"/><path fill-rule="evenodd" stroke="#fff" stroke-linejoin="round" stroke-width="0.104721" d="M60.71 64.923a.503.503 0 1 1 1.006 0 .503.503 0 0 1-1.006 0z" style="fill:#fff;fill-opacity:1"/><path fill="#fff" fill-rule="evenodd" d="m55.186 57.012 1.034-.222.222-1.035.222 1.035 1.035.222-1.035.222-.222 1.034-.222-1.034zm8.435-2.62 1.035-.222.222-1.035.222 1.035 1.034.222-1.034.222-.222 1.034-.222-1.034zM54.63 68.751l1.035-.222.222-1.035.222 1.035 1.034.222-1.034.222-.222 1.035-.222-1.035zm2.863-6.552 1.035-.222.222-1.035.222 1.035 1.035.222-1.035.222-.222 1.034-.222-1.034zm6.521 3.444 1.034-.222.222-1.035.223 1.035 1.034.222-1.034.222-.223 1.034-.222-1.034zM49.65 63.892l1.035-.222.222-1.034.223 1.034 1.034.222-1.034.222-.223 1.035-.222-1.035zm17.09-5.456 1.034-.223.222-1.034.223 1.034 1.034.223-1.034.222-.223 1.034-.222-1.034z" style="fill:#fff;fill-opacity:1;stroke-width:.104721"/></g></svg>