<svg xmlns="http://www.w3.org/2000/svg" width="90.000023" height="90.000008" viewBox="0 0 23.812506 23.812502"><defs><clipPath id="a" clipPathUnits="userSpaceOnUse"><circle cx="51.559044" cy="-53.649162" r="11.90625" style="fill:#b22929;fill-opacity:1;stroke:none;stroke-width:.260903;stroke-linecap:round;stroke-linejoin:round;stroke-miterlimit:10;stroke-dasharray:none;stroke-opacity:1"/></clipPath><clipPath id="b" clipPathUnits="userSpaceOnUse"><circle cx="51.559044" cy="-53.649162" r="11.90625" style="fill:#b22929;fill-opacity:1;stroke:none;stroke-width:.260903;stroke-linecap:round;stroke-linejoin:round;stroke-miterlimit:10;stroke-dasharray:none;stroke-opacity:1"/></clipPath><clipPath id="c" clipPathUnits="userSpaceOnUse"><circle cx="51.559044" cy="-53.649162" r="11.90625" style="fill:#b22929;fill-opacity:1;stroke:none;stroke-width:.260903;stroke-linecap:round;stroke-linejoin:round;stroke-miterlimit:10;stroke-dasharray:none;stroke-opacity:1"/></clipPath><clipPath id="d" clipPathUnits="userSpaceOnUse"><circle cx="51.559044" cy="-53.649162" r="11.90625" style="fill:#b22929;fill-opacity:1;stroke:none;stroke-width:.260903;stroke-linecap:round;stroke-linejoin:round;stroke-miterlimit:10;stroke-dasharray:none;stroke-opacity:1"/></clipPath><clipPath id="e" clipPathUnits="userSpaceOnUse"><circle cx="51.559044" cy="-53.649162" r="11.90625" style="fill:#b22929;fill-opacity:1;stroke:none;stroke-width:.260903;stroke-linecap:round;stroke-linejoin:round;stroke-miterlimit:10;stroke-dasharray:none;stroke-opacity:1"/></clipPath><clipPath id="f" clipPathUnits="userSpaceOnUse"><circle cx="51.559044" cy="-53.649162" r="11.90625" style="fill:#b22929;fill-opacity:1;stroke:none;stroke-width:.260903;stroke-linecap:round;stroke-linejoin:round;stroke-miterlimit:10;stroke-dasharray:none;stroke-opacity:1"/></clipPath><clipPath id="g" clipPathUnits="userSpaceOnUse"><circle cx="51.559044" cy="-53.649162" r="11.90625" style="fill:#b22929;fill-opacity:1;stroke:none;stroke-width:.260903;stroke-linecap:round;stroke-linejoin:round;stroke-miterlimit:10;stroke-dasharray:none;stroke-opacity:1"/></clipPath><clipPath id="h" clipPathUnits="userSpaceOnUse"><circle cx="51.559044" cy="-53.649162" r="11.90625" style="fill:#b22929;fill-opacity:1;stroke:none;stroke-width:.260903;stroke-linecap:round;stroke-linejoin:round;stroke-miterlimit:10;stroke-dasharray:none;stroke-opacity:1"/></clipPath></defs><g transform="translate(-94.192 -126.735)"><circle cx="169.47278" cy="41.919678" r="11.90625" style="fill:#b22929;fill-opacity:1;stroke:none;stroke-width:.260903;stroke-linecap:round;stroke-linejoin:round;stroke-miterlimit:10;stroke-dasharray:none;stroke-opacity:1" transform="rotate(38.68)"/><circle cx="60.499798" cy="-47.310043" r="2.5250087" clip-path="url(#a)" style="fill:#d6d6d6;fill-opacity:1;stroke:#e4b8b8;stroke-width:.0134667;stroke-dasharray:none;stroke-opacity:1" transform="rotate(38.68 -195.1 120.19)"/><circle cx="61.552174" cy="-57.389442" r="3.7644711" clip-path="url(#b)" style="fill:#d6d6d6;fill-opacity:1;stroke:#e4b8b8;stroke-width:.00169333;stroke-dasharray:none;stroke-opacity:1" transform="rotate(38.68 -195.1 120.19)"/><circle cx="45.369003" cy="-61.78603" r="2.7822554" clip-path="url(#c)" style="fill:#d6d6d6;fill-opacity:1;stroke:#e4b8b8;stroke-width:.0148386;stroke-dasharray:none;stroke-opacity:1" transform="rotate(38.68 -195.1 120.19)"/><circle cx="51.776787" cy="-49.718815" r="2.1274452" clip-path="url(#d)" style="fill:#d6d6d6;fill-opacity:1;stroke:#e4b8b8;stroke-width:.0113463;stroke-dasharray:none;stroke-opacity:1" transform="rotate(38.68 -195.1 120.19)"/><circle cx="46.210896" cy="-42.702988" r="3.3902936" clip-path="url(#e)" style="fill:#d6d6d6;fill-opacity:1;stroke:#e4b8b8;stroke-width:.0180815;stroke-dasharray:none;stroke-opacity:1" transform="rotate(38.68 -195.1 120.19)"/><circle cx="39.265236" cy="-52.314667" r="2.4314642" clip-path="url(#f)" style="fill:#d6d6d6;fill-opacity:1;stroke:#e4b8b8;stroke-width:.0129678;stroke-dasharray:none;stroke-opacity:1" transform="rotate(38.68 -195.1 120.19)"/><circle cx="45.556091" cy="-55.84597" r="1.5661792" clip-path="url(#g)" style="fill:#d6d6d6;fill-opacity:1;stroke:#e4b8b8;stroke-width:.00835296;stroke-dasharray:none;stroke-opacity:1" transform="rotate(38.68 -195.1 120.19)"/><circle cx="60.499798" cy="-47.310043" r="2.5250087" clip-path="url(#h)" style="fill:#d6d6d6;fill-opacity:1;stroke:#e4b8b8;stroke-width:.00169333;stroke-dasharray:none;stroke-opacity:1" transform="rotate(38.68 -195.1 120.19)"/><path d="M50.384-51.327a2.13 2.13 0 0 0-.735 1.608 2.127 2.127 0 0 0 2.128 2.127 2.127 2.127 0 0 0 2.127-2.127 2.13 2.13 0 0 0-.43-1.274 12 12 0 0 0-2.877-.493 2 2 0 0 0-.213.16z" clip-path="url(#d)" style="fill:#d6d6d6;fill-opacity:1;stroke:#e4b8b8;stroke-width:.0113463;stroke-dasharray:none;stroke-opacity:1" transform="rotate(38.68 -175.834 129.379)"/></g></svg>