<svg xmlns="http://www.w3.org/2000/svg" width="57" height="17" fill="none" viewBox="0 0 57 17"><path fill="#D9D9D9" d="M15.226 1.12v.85h.518l1.222.105.158.676h-2.821V.332h.34c.24 0 .583.328.583.787m6.066 7.307v1.242l3.888-.741-.082-.26V7.475l.651-.208V4.619l.951-.934h11.4v-.734H13.358v4.152q.348.107.696.219.13.045.193.07l.065.024c1.192.426 2.4.662 3.324.671h.613q-.045.105-.08.2c-.19.547-.079.897.37 1.456.08.099.225.034.188-.085l-.01-.024c-.262-.533-.27-.863.091-1.346q.072-.096.163-.2h.46l.471.038h1.09a.3.3 0 0 1 .3.3"/><path fill="#D9D9D9" d="M21.091 9.756v-1.33a.1.1 0 0 0-.1-.1h-.652a.5.5 0 0 1 .045.09.7.7 0 0 1 .036.243v.843c-.09.184-.186.311-.383.354l-1.574.175-1.284-.465c-.176-.278-.029-.784.311-1.282-.867-.028-1.94-.237-3.01-.598.138.367.176.801.187 1.19l-2.091 3.563.8.454 1.093.505.594.282a.1.1 0 0 0 .143-.091v-.308l1.367-3.117.028-.042c.11-.158.234-.289.396-.343l1.466.499 2-.248zM38.1 3.885H26.783l-.833.818v2.499l1.074.003.225-.197H38.1zm.201.475h.285v.052c0 .078.063.14.14.14h.258a.14.14 0 0 0 .14-.14V4.36h.207c.046 0 .083-.026.083-.058v-.67c0-.032-.037-.058-.083-.058h-.207v-.052a.14.14 0 0 0-.14-.14h-.257a.14.14 0 0 0-.14.14v.052H38.3zm0 .677v.669h1.037v.252a.1.1 0 0 0 .1.1h5.967a.1.1 0 0 0 .1-.1V4.78a.1.1 0 0 0-.1-.1h-5.967a.1.1 0 0 0-.1.1v.257zM13.157 7.042v-4.09l-.923.473-7.189.376c-.253.006-.59.015-.544.463L4.577 5H2.912l-.657-.998H.764c-.349 0-.411.098-.349.59C.601 6.245.51 7.79.428 9.187.407 9.536.385 9.92.37 10.25c-.014.294-.022.478.028.701.049.183.09.236.305.224.335-.04.622-.09.883-.144l1.653-.297.643-1.91-.175-.34c.206-.7.37-1.26 1.234-1.26l4.205-.034v-.402h2.125v.255zm8.22 2.814 3.462-.66c.02 1.68.308 3.562.741 5.364.112.01.209.09.235.208l.077.35a.297.297 0 0 1-.209.346l-3.106.858a.26.26 0 0 1-.33-.198l-.077-.35a.3.3 0 0 1 .1-.289c-.471-1.819-.82-3.76-.893-5.629m15.51-7.105h-2.484l-.03-2.016a.8.8 0 0 0 .285-.363c.409 0 .748.363.817.835l.06.672s.17.008.283.02c.375.043 1.06.265 1.06.265z"/><path fill="url(#a)" d="M45.505 5.102h10.81v.534h-10.81z"/><defs><linearGradient id="a" x1="56.3159" x2="45.505" y1="5.36873" y2="5.36873" gradientUnits="userSpaceOnUse"><stop stop-color="#D9D9D9"/><stop offset="1" stop-color="#D9D9D9" stop-opacity="0"/></linearGradient></defs></svg>