<svg xmlns="http://www.w3.org/2000/svg" width="21" height="17" fill="none" viewBox="0 0 21 17"><path fill="#D9D9D9" d="M15.175 2.149c1.522 1.09 2.581 2.754 2.703 5.007l.005.078-5.188 5.48-.667-.622 4.739-5.018c-.035-.133-.166-.289-.424-.438-.291-.169-.698-.299-1.142-.355-.892-.113-1.85.08-2.33.738l-1.55 4.978-.953-.008 1.518-4.926c-.353-.567-1.128-.828-1.969-.807-.43.01-.86.095-1.23.24-.334.13-.609.304-.793.507l1.576 5.015-1.037-.012-1.548-4.928c-.383-.552-1.178-.846-2.02-.844-.79.003-1.553.266-1.98.745l4.987 5.171-.904.727L1.885 7.2v-.07c.028-2.125 1.02-3.754 2.494-4.854C5.848 1.18 7.793.61 9.74.58c1.949-.03 3.918.481 5.434 1.568m1.23 11.73 1.012-2.27-4.855 4.563v.409l6.782-1.38-2.808-.31 3.542-1.975zm-12.492.082-.858-2.312 4.15 4.523v.409l-6.94-.926 2.79-.573-3.005-2.956z"/><path fill="#D9D9D9" d="M8.4 12.646c-.321 0-.502.263-.581.431-.093.197-.14.444-.14.696v2.806h4.407v-2.806a1.7 1.7 0 0 0-.14-.696c-.08-.168-.26-.431-.582-.431z"/></svg>