<svg xmlns="http://www.w3.org/2000/svg" width="66" height="17" fill="none" viewBox="0 0 66 17"><path fill="#D9D9D9" d="M64.567.482 57.99 2.837l.42.216-.42.44.323.356-.323.323 6.256 2.253-.871-1.024 1.656-.511-2.292-1.158 3.027-1.37-2.883-.264zM33.283 2.647v2.827l-2.861.137-7.661.335a1.3 1.3 0 0 0-.294.27.8.8 0 0 0-.166.608c.032.239.103.473.687.681.111.04.055.209-.084.153-.683-.273-.88-.499-.903-1.196-.21-.024-.337-.08-.438-.207a1 1 0 0 1-.14-.251l-4.197.183-.43-2.772h.023l.01-.373.279-.304-.39-.03.348-.472h.5l.75-.82a.62.62 0 0 1 .32-.195l13.346-.07v-.055h.793l.038-.034a.28.28 0 0 1-.196-.16h-.62l-.084-.056-.028-.487.292.125v.167h.454a.278.278 0 0 1 .482 0h1.693a.27.27 0 0 1 .249-.194c.115 0 .213.08.249.194h.279v-.11h.528l.035.003v2.103z"/><path fill="#D9D9D9" fill-rule="evenodd" d="M43.687 4.964c.122-.037.237-.114.237-.184l.002-.169 4.754-.05a.345.345 0 0 0 .476-.004l6.4-.068c.231.227.471.198.769-.042l.035-.235.452-.113v-.056h.25V4.1h.222V3.07h-.222v.084h-.25V3.07H56.7v-.167h-.306V.804s-.083-.34-.458-.403a.406.406 0 0 0-.473.278l-.931 2.28v.25h-3.67v-.194s-.765 0-1.321-.626-.598-1.043-.598-1.043H44.87v-.083h-.918c0-.075-.07-.195-.21-.264zm.242-.81h.663v-.027h3.962v.139q0 .038.006.073l-4.633.049zm4.625-.945h-3.962v-.584h3.656c.208.098.306.292.306.584m6.701 1.06-.195-.087-.403-.041-.012-.014h-3.784v.139h-1.584a.4.4 0 0 1-.006.066zm.778-1.38h-.64c-.083 0-.347-.152-.347-.382 0-.243.264-.382.348-.382h.5c.222 0 .278.056.278.278v.348c0 .097-.028.139-.139.139" clip-rule="evenodd"/><path fill="#D9D9D9" d="M43.486.943 36.987.846v.111c-.11-.073-.304-.04-.35.063a.1.1 0 0 0-.011.048v.167h-.223v1.53h.584v-.056h.334l.111-.167h1.918l.112.167h1.223l.111-.167h1.724l.111.167h.83zm-.855 1.933h.828l-.029 2.09c-.04.056-.245.134-.382.134-2.34.1-3.642.125-5.991.125 0 0-.89.14-1.293.297a5 5 0 0 0-.211.092c-.258.117-.613.278-.846.278-.361 0-.524-.08-.778-.236l-.39-.195V2.903h2.864v-.027h.918l.111.139h1.918l.112-.14h1.223l.111.14h1.724zM26.503 6.04l3.964-.173c.326 1.741.92 2.97 1.668 4.056.79 1.146 1.766 2.127 3.42 3.183L33.4 16.36c-2.71-1.64-3.968-3.302-5.055-5.032-.925-1.473-1.52-3.077-1.842-5.288m-1.717.074 1.305-.057.01 1.059c0 .123-.136.292-.274.372l-.156.754c-.028.111-.18.097-.18 0V7.63l-.086-.097h-.415c0 .278-.39.542-.57.542l-2.544.083c-.317 0-.662-.382-.668-.551l-.027.023c-.064.047-.099.061-.132.075a.5.5 0 0 0-.133.078.7.7 0 0 0-.222.25c-.008.018-.07.136-.164.315-.43.817-1.539 2.925-1.38 2.925 0 0 .194.194.181.57-.012.375-.194.57-.194.57s-.487.18-1.043.208c-.723.014-1.042-.097-1.042-.097s-.39-.125-.543-.556c-.152-.431 0-1.001 0-1.001.147-.38.375-.939.6-1.489.233-.574.465-1.14.596-1.486 0 0 .056-.153.056-.265 0 0 .014-.226-.181-.556a4 4 0 0 0-.145-.226c-.065-.095-.078-.113-.078-.232 0-.04.007-.16.015-.275l4.003-.175v1.173c0 .25.306.528.542.528l2.461-.07c.222 0 .43-.236.43-.361zm-7.818.084-.43-2.78-4.672.64s-.375.083-1.223-.112c-.71-.354-.784-.353-.981-.348h-.076c-.264 0-3.434.36-3.948.432a1320 1320 0 0 0-4.91.74c-.06.01-.192.035-.26.092l-.002.002c-.083.073-.088.146-.086.178l.003.016c.629 2.25.87 3.594 1.038 5.803l.032.453s.013.086.106.154c.1.063.194.07.235.07 0 0 .169-.012.53-.095.13-.027.433-.09.867-.24 2.352-.815 8.272-3.003 8.272-3.003z"/></svg>