<svg xmlns="http://www.w3.org/2000/svg" width="58" height="17" fill="none" viewBox="0 0 58 17"><path fill="#D9D9D9" d="m38.369 6.508-1.094-3.857-.534.003-.063-.736-1.299-.145V.797l-.22-.404h-.535v2.27l-17.263.081-.082-.826-1.298-.145V.797l-.22-.404h-.536v2.361l-1.81.009-.3.699-.408.1.102 1.67v1.064h1.748a.44.44 0 0 0 .197-.027.2.2 0 0 0 .042-.029.34.34 0 0 1-.058-.261l.252-1.315a.34.34 0 0 1 .298-.273.7.7 0 0 1 .118-.152.53.53 0 0 1 .372-.147h8.9c.307 0 .634.107.944.264.312.158.62.375.893.614.273.24.515.505.691.763.124.182.225.374.271.561l-.014 1.328H37.5l.477-1.114zm-.595-2.978.67 2.442a.194.194 0 0 0 .194-.19v-.084h1.318c.048 0 .1-.04.1-.1V4.093a.1.1 0 0 0-.1-.098h-.438V2.897h-.3v1.098h-.58V3.72a.19.19 0 0 0-.19-.19zm2.496 1.242v.848h5.226l.197-.086h.227l.183.157h2.7a.16.16 0 0 0 .16-.16V4.86a.16.16 0 0 0-.16-.16h-2.7l-.184.162h-.225l-.198-.09z"/><path fill="#D9D9D9" fill-rule="evenodd" d="M12.81 7.358V6.51h1.11c0 .233.146.358.353.385 1.125.102 1.462.435 1.896.863q.114.114.244.234c.226.203.52.014.831-.186.234-.15.478-.307.71-.308h2.981c1.167-.008 2.417-.026 3.235.178.872.219.652.74.652.74v.473l-1.609.393-1.759.114v.736c0 .092-.02.141-.203.142v.129c-.154.155-.524.32-.94.403-.171.034-.433 0-.55-.063a.94.94 0 0 1-.35-.294s-1.212-.01-1.472-.11c-.292-.115-.474-.31-.697-.56l-.116-.132c-.09-.074-.246-.055-.294.012l-.39.694c-.147.244-.156.4.037.736.036.062.01.097-.064.097-.237 0-.415.156-.567.418l-.702 1.572v.235c0 .014.03.03.064.05.038.02.082.045.095.071.04.082.045.21-.007.23-.133.053-.326.069-.396.044l-2.55-.944a.3.3 0 0 1 .028-.08c.03-.045.066-.059.13-.063v-.237l2.207-3.736c.104-.176 0-.694-.126-.754zm6.137 1.145-.246-.018a3 3 0 0 0-.186.202c-.29.357-.288.614-.111 1.012.08.18-.06.265-.15.154-.334-.411-.346-.747-.182-1.18q.039-.1.09-.212h-.074c-.07 0-.142-.047-.205-.088-.05-.032-.096-.061-.131-.061-.091-.001-.18.06-.244.173l-.343.624c-.027.04-.044.209-.016.242.04.048.179.196.223.24.346.335.75.542 1.1.542h1.352c.223-.035.367-.205.39-.3.064-.273.053-.401 0-.704-.05-.276-.295-.484-.44-.516-.319-.069-.584-.09-.828-.11" clip-rule="evenodd"/><path fill="#D9D9D9" d="m24.694 9.14-1.448.354-1.556.1a9.3 9.3 0 0 0 1.18 2.928c.822 1.327 1.774 2.604 3.838 3.87l1.663-2.475c-1.26-.815-2-1.57-2.598-2.45a7.5 7.5 0 0 1-1.08-2.327M5.127 6.512V4.253h6.801l.576-.51.092 1.495v2.094l-4.464-.385zM1.445 5.231l.18.843v.924l.885.107c-.29.244-.243.595-.194.964q.016.11.027.222h-.725l-.173 2.501c-.052.306-.106.402-.24.402H.89c-.112 0-.222-.193-.27-.498L.162 7.972V4.191h1.23v1.04z"/><path fill="#D9D9D9" d="M4.914 4.61H1.607v.408h.01L1.84 6.05v.299h3.075zm22.382 1.898-.054 1.286-2.204.646a.65.65 0 0 0-.013-.38c-.085-.25-.324-.47-.803-.59-.845-.212-2.139-.204-3.287-.196l-2.913.01c-.162 0-.384.056-.516.12-.13.064-.259.146-.372.219l-.005.003a2 2 0 0 1-.4.222c-.096.032-.137.018-.173-.014-.084-.077-.168-.16-.244-.235-.213-.21-.425-.419-.731-.583-.311-.167-.705-.28-1.284-.334-.07-.01-.108-.032-.127-.051-.017-.017-.037-.049-.037-.12h.424q.045 0 .085-.002a.44.44 0 0 0 .378-.206 1 1 0 0 0 .07-.13l-.043-.008a.125.125 0 0 1-.1-.146l.253-1.315a.125.125 0 0 1 .146-.1l.072.015c.067-.184.172-.313.36-.313h8.9c1.039 0 2.618 1.466 2.618 2.202m22.257-1.582-.211-.19 7.356-2.455-2.793 2.177 3.737.96-3.162.597 2.732 2.221-7.87-2.594.157-.223-.157-.33z"/></svg>