<svg xmlns="http://www.w3.org/2000/svg" width="57" height="17" fill="none" viewBox="0 0 57 17"><path fill="#D9D9D9" d="m55.383 7.365-9.62-2.276.416-.265-.415-.43.694-.43-.694-.144L55.85.714l-3.572 2.281 4.617 1.1-4.425.714zM15.568 2.708c.53.01 1.215.398 1.6.647h6.92v1.81c0 .492.399.89.891.89h7.238v.534c.266-.016.556-.036.788-.052.255-.017.447-.03.487-.03h.977c.02-.001.43-.02.42-.672a.3.3 0 0 0-.02-.113h2.696s.141-.094.141-.476a.7.7 0 0 0-.063-.303h4.106v.03c0 .058.048.106.107.106h.42c.06 0 .108-.048.108-.107v-.03h.606c.028.08.104.137.193.137h1.614a.204.204 0 0 0 .205-.204v-.913a.204.204 0 0 0-.205-.204h-1.614a.204.204 0 0 0-.204.201h-.595v-.094a.107.107 0 0 0-.108-.107h-.42a.107.107 0 0 0-.107.107v.094h-4.535v-.25H34.15c0-.05-.002-.093-.005-.12l.166-.396a.28.28 0 0 0-.15-.368l-1.416-.618a.3.3 0 0 0-.181-.023l-.356.054a.24.24 0 0 0-.203.267l.034.222-.047-.019h-.995v-.367H15.415v.366h.32l.037.001zM34.47 6.764h-.462v.54h-.898c-.45 0-.128.417-.128.417s.512.854.289 1.851c-.224.998-.29 2.638-.29 3.478s1.484.63 1.484.63 1.155-.21.958-.42c-.196-.21-.223-1.089-.223-1.089s.236-1.102 0-1.89-.09-2.976-.09-2.976h-.64z"/><path fill="#D9D9D9" fill-rule="evenodd" d="M16.669 3.355H1.791c-.536 0-.887.145-1.114.359-.031.03-.074.088-.088.105-.234.315-.773.89-.432 2.078.095.333.244.838.42 1.433.635 2.151 1.583 5.468 1.682 6.17.019.13.114.275.754.275h2.779c.911 0 .528-.783.528-.783-.692-.667.39-1.265.39-1.265s1.514-1.014 2.692-1.732l.313.26 1.342-.962c.24.096.263.425.274.578q.003.057.008.075c.001.003.01.004.01.004v.002l.01-.002c.31.008 4.065-.791 4.169-.815a1 1 0 0 0 .101-.039h.001c.192-.092.547-.339.57-.765.03-.527.6-.644.6-.644s.93-.281 2.532-.615c1.16-.241 1.667.257 1.667.257s.342.572-.526 1.792c-1.189 1.672-1.038 4.156-.995 4.375s.556.249 2.722.278 2.879-.945 2.879-.945 1.744-2.105 3.277-4.18c1.226-1.658 2.957-1.981 3.604-2.044v-.293h-6.98a1.15 1.15 0 0 1-1.15-1.148V3.612h-6.738l-.063-.041a7 7 0 0 0-.36-.216m10.362 3.477h-1.422a1.7 1.7 0 0 0-.136 1.273.09.09 0 0 1-.026.092.1.1 0 0 1-.064.025H24.32c.004.095.016.227.054.369a.053.053 0 0 1-.051.066h-.174l-.034-.003c-.06-.01-.32-.026-.531.45-.242.545-1.342 2.987-1.342 2.987s-.363.738.822.738c1.019 0 1.334-.415 1.418-.527l.004-.004.003-.004.004-.006 3.155-3.886c.036-.036.686-.706-.151-1.406a.72.72 0 0 0-.465-.164" clip-rule="evenodd"/><path fill="#D9D9D9" d="M15.585 9.386a184 184 0 0 1-3.411.696c-.2.037-.374.068-.51.09a3 3 0 0 1-.273.034c.174 1.024.823 4.788 1.12 5.418 0 0 .141.473.092.781-.05.309.506.309.506.309l3.305-.925s.498-.058.148-.913c-.415-1.011-1.045-4.59-.978-5.49"/></svg>