<svg xmlns="http://www.w3.org/2000/svg" width="54" height="17" fill="none" viewBox="0 0 54 17"><path fill="#D9D9D9" d="M40.395 7.503c2.441-.385 3.428-1.58 3.064-3.891l7.936-3.6-2.87 4.146 5.198.84L49.1 7.184l3.487 3.572-6.344-1.933.756 4.454-3.782-3.235-1.554 4.243z"/><path fill="#D9D9D9" d="M41.851 3.54c-.372-1.39-.718-1.987-3.311-1.292L24.558 6.547s-5.366 2.12-8.12 2.966l-13.54 3.872c-.541.15-.948.26-1.177.323-.24-.363-.604-.91-.855-.883-.273.03-.47.463-.428 1.077.015.223.055.464.12.712.25.93.857 1.525 1.155 1.374.255-.13.287-.77.306-1.176.566-.122 12.782-3.114 14.848-3.627 2.81-.653 8.504-1.602 8.504-1.602L39.63 6.315c2.62-.507 2.594-1.386 2.221-2.775"/></svg>