<svg xmlns="http://www.w3.org/2000/svg" width="25" height="17" fill="none" viewBox="0 0 25 17"><path fill="#D9D9D9" d="M11.521 11.916h-.709v4.567h.709v-3.427h3.173v3.427h.709v-4.567h-.71v.211h-3.172zm-1.209.294-.303-.023a.325.325 0 0 0-.348.344l.065 1.065q.038.605 0 1.212l-.065 1.066a.324.324 0 0 0 .346.342l.305-.022z"/><path fill="#D9D9D9" fill-rule="evenodd" d="M14.194 15.865H12.02v-2.309h2.172zm-2.085-1.927h.368v.368h-.368zm0 .543h.368v.368h-.368zm.543-.543h.368v.368h-.368zm0 .543h.368v.368h-.368zm.543-.543h.368v.368h-.368zm0 .543h.368v.368h-.368zm.543-.543h.368v.368h-.368zm0 .543h.368v.368h-.368z" clip-rule="evenodd"/><path fill="#D9D9D9" d="m15.903 16.194.26.02a.362.362 0 0 0 .386-.384l-.067-1.108a9 9 0 0 1 0-1.04l.067-1.11a.36.36 0 0 0-.385-.382l-.261.02z"/><path fill="#D9D9D9" d="m24.444 8.455-6.686 4.823c0-1.396-2.19-3.1-4.818-3.1-2.63 0-4.525 1.495-4.525 3.1L.628 9.69l6.586.286L4.07 4.447l5.972 3.489-.25-5.334 2.684 5.334L15.557.482l.63 7.226 4.594-4.103-1.837 5.57z"/></svg>