<svg xmlns="http://www.w3.org/2000/svg" width="36" height="17" fill="none" viewBox="0 0 36 17"><path fill="#D9D9D9" d="M19.22 1.912h-.211l-.26-.232h-2.655l-1.048 2.947h3.963l-.26-1.252.715-.974a.613.613 0 1 0-.244-.49m-2.43 3.126v1.011h-.404a2.253 2.253 0 0 0-2.257 2.257v6.248q0 .277.063.534a2.26 2.26 0 0 0 2.194 1.723h3.028a2.25 2.25 0 0 0 2.257-2.257V8.305a2.265 2.265 0 0 0-2.257-2.257h-.405v-1.01zM31.265 1.9l-.483-.785.588-.306zM26.663.827l-.958.737.26.336.957-.736zM4.532 8.617l.957.736-.259.337-.957-.737zm23.117-.416-.824.14-.162-.958.823-.14zM3.684 7.052l-.823-.14.162-.957.823.14zm30.524-3.9-1.007-.348.12-.35 1.008.349zM1.373 5.259l-1.008.348-.12-.35 1.007-.348zm33.711 4.354.353 1.799-.388.076-.353-1.8zM6.99 5.181l.352-1.8.388.077-.352 1.8zm18.841-.038-.78-.549h.965zM2.49 9.586l-.78.549-.185-.55zm9.39 4.203-.482.785-.105-1.091zm19.034-2.454-.82-.603.982-.295zm-25.891.815-.82.604-.162-.898zm18.616-3.576a.04.04 0 0 1 .062-.02l.249.178a.04.04 0 0 0 .022.007l.306.009a.04.04 0 0 1 .038.053l-.092.291a.04.04 0 0 0 0 .024l.086.293a.04.04 0 0 1-.039.053l-.305.003a.04.04 0 0 0-.023.007l-.252.172a.04.04 0 0 1-.062-.02l-.097-.29a.04.04 0 0 0-.014-.02l-.242-.186a.04.04 0 0 1 0-.065l.246-.182a.04.04 0 0 0 .014-.02zm-11.915-.02a.04.04 0 0 1 .063.02l.102.288a.04.04 0 0 0 .014.019l.246.182a.04.04 0 0 1 0 .065l-.242.186a.04.04 0 0 0-.014.02l-.097.29a.04.04 0 0 1-.062.02l-.252-.172a.04.04 0 0 0-.022-.007l-.306-.003a.04.04 0 0 1-.039-.053l.086-.293a.04.04 0 0 0 0-.024l-.091-.291a.04.04 0 0 1 .038-.053l.305-.009a.04.04 0 0 0 .023-.007zm15.543 5.176a.04.04 0 0 1-.065-.012l-.086-.178a.04.04 0 0 0-.016-.018l-.172-.1a.04.04 0 0 1-.007-.064l.142-.138a.04.04 0 0 0 .012-.02l.042-.194a.04.04 0 0 1 .06-.027l.174.093a.04.04 0 0 0 .023.004l.197-.02a.04.04 0 0 1 .045.048l-.035.195a.04.04 0 0 0 .003.024l.08.181a.04.04 0 0 1-.032.057l-.196.028a.04.04 0 0 0-.022.01zm-19.2-4.51a.04.04 0 0 1-.064.014l-.148-.132a.04.04 0 0 0-.021-.01l-.196-.028a.04.04 0 0 1-.032-.057l.08-.181a.04.04 0 0 0 .002-.024l-.034-.195a.04.04 0 0 1 .044-.048l.197.02a.04.04 0 0 0 .024-.004l.174-.094a.04.04 0 0 1 .06.028l.042.193a.04.04 0 0 0 .011.021l.143.138a.04.04 0 0 1-.008.065l-.171.1a.04.04 0 0 0-.016.017zm21.178-5.003a.04.04 0 0 1-.053-.04l-.001-.305a.04.04 0 0 0-.008-.022l-.171-.253a.04.04 0 0 1 .02-.062l.29-.096a.04.04 0 0 0 .02-.014l.187-.241a.04.04 0 0 1 .066 0l.18.247a.04.04 0 0 0 .02.014l.287.103c.026.01.036.04.02.063l-.178.248a.04.04 0 0 0-.008.022l-.01.306a.04.04 0 0 1-.053.038l-.29-.093a.04.04 0 0 0-.025 0zM4.894 2.643a.04.04 0 0 1-.052.039l-.294-.085a.04.04 0 0 0-.023 0l-.291.093a.04.04 0 0 1-.054-.038l-.01-.305a.04.04 0 0 0-.007-.023l-.178-.248a.04.04 0 0 1 .02-.063l.287-.103a.04.04 0 0 0 .019-.014l.181-.246a.04.04 0 0 1 .065-.001l.188.241a.04.04 0 0 0 .02.014L5.053 2a.04.04 0 0 1 .02.062l-.17.253a.04.04 0 0 0-.008.023zm18.657 10.686c.034-.01.07.005.09.034l.3.458a.08.08 0 0 1-.005.097l-.343.426a.08.08 0 0 1-.093.025l-.512-.195a.08.08 0 0 1-.052-.08l.027-.547a.08.08 0 0 1 .06-.075zM9.985 10.527a.08.08 0 0 1 .09-.034l.528.143c.034.01.059.04.06.075l.027.547a.08.08 0 0 1-.053.08l-.51.195a.08.08 0 0 1-.094-.025l-.343-.426a.08.08 0 0 1-.004-.097zm23.61 1.62c.034-.01.07.005.09.034l.218.334c.02.03.018.069-.005.097l-.25.31a.08.08 0 0 1-.093.025l-.372-.141a.08.08 0 0 1-.053-.081l.02-.398a.08.08 0 0 1 .06-.075zM9.867 5.464a.08.08 0 0 1 .09-.035l.385.105c.034.01.059.04.06.075l.02.398a.08.08 0 0 1-.053.081l-.372.142a.08.08 0 0 1-.093-.026l-.25-.31a.08.08 0 0 1-.005-.096zm22.259 1.292a.08.08 0 0 1 .076-.031l.468.063q.047.008.065.05l.179.437a.08.08 0 0 1-.011.081l-.289.374a.08.08 0 0 1-.076.03l-.467-.063a.08.08 0 0 1-.065-.05l-.18-.437a.08.08 0 0 1 .012-.08zm-24.167 5.97a.08.08 0 0 1 .076.031l.289.374a.08.08 0 0 1 .01.081l-.178.437a.08.08 0 0 1-.065.05l-.468.063a.08.08 0 0 1-.076-.03l-.288-.374a.08.08 0 0 1-.011-.082l.178-.436a.08.08 0 0 1 .065-.05z"/></svg>