<svg xmlns="http://www.w3.org/2000/svg" width="37" height="17" fill="none" viewBox="0 0 37 17"><path fill="#D9D9D9" d="M26.436 3.416c1.283 3.89.693 5.73-2.244 8.51l7.483 5.056-3.57-6.508 8.542-.588L29.64 6.09 36.06.982zm-2.269.777-.159-.09-.094-.287-1.992-1.15-2.063 1.756 2.973 1.717.348-1.051.957-.421a.53.53 0 0 0 .42.319.531.531 0 1 0-.39-.793M20.99 5.487l-.438.758-.302-.175a1.95 1.95 0 0 0-2.672.716l-2.706 4.687q-.12.208-.183.428a1.96 1.96 0 0 0 .9 2.243l2.27 1.311a1.95 1.95 0 0 0 2.393-.342q.158-.165.279-.373l2.706-4.687a1.96 1.96 0 0 0-.716-2.671l-.304-.176.438-.758zm-17.505.726h12.671v.379H3.486zM.606 8.938h14.177v.379H.606zm1.11 3.146h11.837v.38H1.716z"/></svg>