<svg xmlns="http://www.w3.org/2000/svg" width="17" height="17" fill="none" viewBox="0 0 17 17"><path fill="#D9D9D9" d="M8.74 9.68c.503 0 .91-.41.91-.915a.913.913 0 0 0-.91-.915.913.913 0 0 0-.912.915c0 .505.408.914.911.914"/><path fill="#D9D9D9" fill-rule="evenodd" d="m8.132 4.508.626-3.99.625 3.988.127.023 1.318-2.466-.567 2.682.016.006.016.006 1.77-1.75-1.033 2.137q.064.042.127.087l3.712-3.13-2.74 3.908 1.492-.691-1.21 1.321.058.105 3.918-.407-3.426 2.28.001.071 2.898.855-2.879.32 3.94 2.607-4.444-1.271 1.103 1.969-2.126-1.082a4 4 0 0 1-.179.137l1.15 3.675-2.556-2.462.191 1.856L9.034 13.2l-.842 3.317-.61-3.595-.165-.061-1.945 2.774.556-3.548-3.186 2.274 2.276-3.218-4.686 1.59 3.905-2.787-2.134-.09 2.38-.63-.008-.095-3.32-1.523 3.584-.372v-.003l-1.601-.715 1.784.293.067-.127-2.84-2.18L5.928 5.59l.034-.035-.896-2.198 1.682 1.616-.478-3.055L8.08 4.52zm2.47 4.257c0 1.032-.834 1.87-1.863 1.87a1.867 1.867 0 0 1-1.863-1.87c0-1.033.834-1.87 1.863-1.87 1.03 0 1.864.837 1.864 1.87" clip-rule="evenodd"/></svg>