<svg xmlns="http://www.w3.org/2000/svg" width="40" height="30" fill="none" viewBox="0 0 27 17"><path fill="#d9d9d9" d="m19.455 12.031 4.702.854-3.395-2.159 5.704-2.125-7.433-.466c-.437 1.128-2.198 1.773-3.246.721l-3.163 5.319 3.809-1.931 2.094 3.722z"/><path d="M156.616 239.218h1.711v23.9h-1.711z" style="fill:#d9d9d9;fill-opacity:1;stroke:#d9d9d9;stroke-width:1;stroke-linecap:square;stroke-miterlimit:5;stroke-dasharray:none;stroke-opacity:1" transform="matrix(-.13693 -.4183 -.44486 .13614 142.97 38.487)"/><path d="M156.595 263.117h1.754s.023 1.64.2 2.503c.177.862.893 2.553.893 2.553s-.965-.566-1.448-.99c-.482-.423-.925-.847-1.199-1.563-.273-.717-.2-2.503-.2-2.503zm.021-26.888s.138-1.484-1.683-1.601-4.193 1.4-4.193 1.4c2.018-4.382 7.041-3.934 7.587-.952v4.287h-1.711z" style="fill:#d9d9d9;stroke:#d9d9d9;stroke-linecap:square;stroke-miterlimit:5" transform="matrix(-.13693 -.4183 -.44486 .13614 142.97 38.487)"/></svg>