<svg xmlns="http://www.w3.org/2000/svg" width="94" height="16" fill="none" viewBox="0 0 94 16"><path fill="#D9D9D9" fill-rule="evenodd" d="M82.29.233a.14.14 0 0 0-.123-.079h-.121v.084h-1.935V.154h-.287a.085.085 0 0 0-.078.119c.102.248.126.467.127.613a.28.28 0 0 1-.17.26 5.7 5.7 0 0 1-2.114.433c-.686 0-.962.14-1.071.269a.3.3 0 0 0-.067.138.2.2 0 0 0 0 .068 5 5 0 0 1-.324.084l-.001-.005-.002-.008-.004-.018-.006-.049v-.004h-30.91v-.193h-4.276v.193h-5.914v-.193H32.63l-.159.193h-2.659s-.659.321-1.19.7a5.3 5.3 0 0 1 1.014-.206 8 8 0 0 1 .7-.047h1.44V5.76a.88.88 0 0 0 .647 1.638.89.89 0 0 0 .585-.83.88.88 0 0 0-.533-.808V2.5H67.41c.576 0 .974.265 1.22.524.092.096.164.192.218.275h15.216V2.054h-1.009v.336h-6.862l-.066-.25.325-.086h6.268v-.308l-.015-.125A5.3 5.3 0 0 0 82.29.233m-.507.508h-1.42c0 .138.05.244.133.326L80.487.94l1.376.282z" clip-rule="evenodd"/><path fill="#D9D9D9" d="M58.707 1.719h1.954a1 1 0 0 1-.157-.286.15.15 0 0 0-.145-.105h-.521l-.16-.676-.236.056.147.62h-.464a.16.16 0 0 0-.147.105c-.045.11-.155.208-.271.286M32.81 5.563V2.837h34.6c.497 0 .824.242 1.02.466.127.145.2.282.228.341l.013.031s.337 1.09-1.682 1.09c-.716 0-1.422.022-2.034.049-1.114.05-1.919.12-1.919.12s-19.283 1.47-29.058 2.04l-.72.042q.085-.21.086-.448c0-.418-.212-.787-.533-1.005m.003 2.008q.13-.089.233-.208.279-.014.57-.032a.66.66 0 0 0-.104.364v.425c0 .497-.335 1.908-1.601 1.908h-1.399c-1.037 0-1.373-1.321-1.373-1.908 0-.233-.08-.432-.175-.587h.006q.35 0 .898-.019c-.142.124-.25.315-.25.606 0 1.44.894 1.44.894 1.44h1.399s1.096 0 1.096-1.44c0-.25-.08-.426-.194-.549M1.899 15.664l.003.013-1.108.325s0-4.025-.168-5.786q-.037-.383-.08-.79C.378 7.814.194 6.041.626 5.84l.843-.23v.012a204 204 0 0 0 .017 1.287c.014.84.035 1.973.066 3.148.032 1.175.074 2.395.13 3.406.054.994.123 1.828.217 2.201"/><path fill="#D9D9D9" d="M28.467 3.172c.726-.329 1.87-.335 1.87-.335h1.103v2.726a1.214 1.214 0 0 0-.208 1.832l-.068.066c-.201.202-.374.441-.395.681-.032.364.085.704.183.915.034.073-.037.151-.105.109-.223-.139-.53-.41-.53-.86 0-.303.06-.587.126-.813.042-.139.086-.256.122-.34-.687.028-1.228.044-1.594.044q-.144 0-.282.008c-4.12.24-4.764 5.694-4.764 5.694-.926.252-3.617-1.006-3.617-1.006s-.841-.252-.841-.503c0-.252-.337-.42-.337-.42-.588-.251-1.766.168-1.766.168l-15.14 4.444a3 3 0 0 1-.06-.331c-.287-2.06-.36-9.73-.36-9.73 6.298-1.726 10.66-1.577 13.79-1.47.672.023 1.288.044 1.854.044 3.196 0 3.453.724 3.453.724s.248.533 1.51.785c1.261.252 3.953-1.593 3.953-1.593s.781-.278 1.571-.608q.272-.113.532-.23M93.05.002l-7.801 2.12.21.153-.21.305.356.382-.356.344 6.494 2.279-2.073-1.7 1.68-.746-2.39-.691z"/></svg>