<svg xmlns="http://www.w3.org/2000/svg" width="36" height="17" fill="none" viewBox="0 0 36 17"><path fill="#D9D9D9" d="M34.592.8 24.008 3.185l.416.162-.416.505.572.286-.572.385 10.584 3.505-3.162-2.975 4.06-1.537-3.827-.523z"/><path fill="#D9D9D9" fill-rule="evenodd" d="M16.495 3.714H2.81l-.057-.103c.206-.356.493-.59.63-.68a.3.3 0 0 1 .173-.054h.497v-.66a.162.162 0 1 1 .325 0v.66h14.181a.374.374 0 1 1 .321.005c.04.001.063.003.06.005.163 0 .293.14.293.292v1.885c-.002.33-.19.458-.329.507l-.894.03h-.906a.3.3 0 0 0-.12.035l-.334.011a4 4 0 0 0-.043-.412l-.005-.028-.002-.016zm2.23-1.274a.101.101 0 1 0 0 .202.101.101 0 0 0 0-.202" clip-rule="evenodd"/><path fill="#D9D9D9" fill-rule="evenodd" d="M16.216 5.98c-1.072.003-2.875.006-3.243 0-.548-.032-.686.64-.726.831l-.042 1.547c0 .097-.022.265-.108.319-1.06.67-2.757.634-3.968.277-1.265-.378-1.47.517-1.47.517l-1.017 4.12c-.075.313-.021.508.033.637a.2.2 0 0 1 .018.086.2.2 0 0 1-.018.075.22.22 0 0 1-.13.12c-.562.152-2.065.292-3.319.292-.789 0-1.107-.265-1.228-.529-.074-.162-.06-.342-.052-.452l.004-.067c0-1.582.687-3.144 1.086-3.91.074-.141.146-.268.199-.361a3 3 0 0 0 .083-.153c.075-.175.454-1.057.614-1.94l.03-.177a.74.74 0 0 0-.051-.41c-.147-.336-.538-.547-.912-.682-.238-.087-.303-.433-.087-.584q.118-.084.225-.19c-.272-.255-.451-.33-.617-.361a1 1 0 0 1-.162.054c-.314.043-.617-.195-.67-.54-.055-.347.15-.671.464-.714.325-.054.616.183.681.551.176.24.449.38.641.452q.043-.15.044-.322 0-.167.03-.317l13.538.004.076 1.06q.001.022.01.087c.017.105.044.29.044.528zM9.48 8.954c.27.021 2.265-.017 2.344-.665.09-.54.136-1.08.136-1.31 0-.087-.095-.34-.149-.393l-.05-.048c-.175-.17-.35-.338-.734-.288l-1.021.13c-.736.473-.241 1.41-.05 1.73.011.032-.043.053-.086.042-1.002-.44-.728-1.545-.695-1.665l-.592.076c-.344.047-.81.746-.703 1.427.141.779 1.4.949 1.6.964M1.228 4.25c.086-.01.162.055.184.141.023.094-.044.173-.13.195a.16.16 0 0 1-.193-.14c-.011-.097.063-.185.139-.196" clip-rule="evenodd"/><path fill="#D9D9D9" d="M22.737 4.53h-3.066v-1.2h3.066a.26.26 0 0 1 .269.26v.681a.26.26 0 0 1-.269.26m-5.515 1.87v.227c0 .195-.152.335-.357.335h-.388l2.896 8.66a.16.16 0 0 1-.009.15.5.5 0 0 1 .128.065l.26.184c.205.14.259.41.13.616-.055.087-.109.162-.152.162h-1.287l.082-.177-.06.06a.18.18 0 0 1-.14.054h-1.157c-.087 0-.152-.054-.184-.13l-3.54-9.644h-.765s0-.065.005-.095c.004-.03.054-.23.116-.338a.3.3 0 0 1 .08-.098.13.13 0 0 1 .076-.014c.418.008 2.655.002 3.617 0 0 0 .122-.007.181-.022zM2.226 15.24c.846 0 1.82-.063 2.557-.154l.037.495s1.284-.21 1.007-.034c-.278.178-4.642.38-4.92.227s1.023-.053 1.023-.053l-.05-.498q.162.017.346.017"/></svg>