<svg xmlns="http://www.w3.org/2000/svg" width="39" height="17" fill="none" viewBox="0 0 39 17"><path fill="#D9D9D9" d="m4.98 4.51-.42-.363a.4.4 0 0 0-.26-.097h-.235c-.048 0-.066.074-.066.14v.319h.302l.09.091q.061.062.085.147l.142-.004a.3.3 0 0 1 .063-.122l.092-.112zM2.227 6.806q.111.112.222.18l-.181.664a.3.3 0 0 0-.011.09c-.297-.043-.59.011-.917.132-.119.045-.211-.02-.255-.066-.053-.053-.115-.186-.029-.29l.046-.058.052-.006a.01.01 0 0 0 .006-.008l-.002-.056.01-.014.05-.009a.01.01 0 0 0 .006-.007V7.3l.009-.014.044-.008a.01.01 0 0 0 .007-.008l-.004-.052.009-.014.048-.006a.01.01 0 0 0 .007-.008l-.01-.057.01-.018.049-.003a.01.01 0 0 0 .007-.01l-.014-.06.008-.015.044-.01a.01.01 0 0 0 .006-.009l-.01-.057.008-.018.043-.007a.01.01 0 0 0 .006-.009l-.014-.055.066-.148c.035-.08.158-.12.25-.083z"/><path fill="#D9D9D9" fill-rule="evenodd" d="M.916 8.067c-.218.094-.36.19-.36.25 0 .182.21.324.34.324l1.338.02c.425 0 .844.235 1.058.564.192.294.274.703.192 1.075l-.067.011c-.124.438-.287.813-.489 1.279-.1.232-.211.486-.331.782-.459 1.128-.612 1.761-.628 2.812 0 .05.04.092.09.094l.255.01v.02h-.277a.015.015 0 0 0-.016.015v.26q0 .008.006.012a2.5 2.5 0 0 0 .643.394h3.142c.255 0 .485-.001.7-.01a4.5 4.5 0 0 0 .916-.123.046.046 0 0 0 .032-.06l-.214-.612a1.1 1.1 0 0 1-.036-.59l.584-2.685a1.12 1.12 0 0 1 1.099-.88l.341.057c.15.026 1.19.019 2.075.004a.217.217 0 0 0 .213-.235l-.006-.068c-.114-.913-.024-1.35.61-2.016l.34-.03a.02.02 0 0 0 .014-.014l.015-.374h.388v.362q.002.015.015.016h.343a.016.016 0 0 0 .016-.016v-.362h.486v.362q.001.015.016.016h.343a.015.015 0 0 0 .015-.016v-.362h.487v.362q.002.015.015.016h.343a.016.016 0 0 0 .016-.016v-.362h.486v.362c0 .009.008.016.016.016h.343a.016.016 0 0 0 .016-.016v-.362h.486v.362q.001.015.016.016h.343a.015.015 0 0 0 .015-.016v-.362h.487v.362q.002.015.015.016h.343a.016.016 0 0 0 .016-.016v-.362h.487v.362q0 .015.015.016h.343a.015.015 0 0 0 .015-.016v-.362h.487v.362q.001.015.016.016h.343a.016.016 0 0 0 .015-.016v-.362h.487v.362q.002.015.015.016h.343a.016.016 0 0 0 .016-.016v-.657H2.58l-.034-.002-.404-.02c-.206-.017-.426.024-.695.124a.53.53 0 0 1-.531-.093m7.45.783c-.283.296-.237.928-.061 1.315l.025.053a.2.2 0 0 0 .065.065c.05.034.088.086.104.148a.2.2 0 0 0 .04.082.94.94 0 0 0 .684.293h1.529a.42.42 0 0 0 .42-.42v-.688a1.2 1.2 0 0 0-.109-.474.3.3 0 0 0-.082-.09l-.007-.006-.005-.005a.2.2 0 0 1-.07-.118l-.003-.015a.3.3 0 0 0-.04-.115l-.05-.064c-.185-.229-.453-.366-.829-.366h-.505c-.086.01-.19.032-.298.06-.368.624-.347 1.456.134 1.952.036.038.034.07.017.088q-.023.027-.09.013c-.365-.085-.736-.4-.834-.682-.128-.37-.094-.621-.035-1.026" clip-rule="evenodd"/><path fill="#D9D9D9" d="M19.457 7.751h.991v.292l.305-.02a.09.09 0 0 0 .081-.061l.543-1.183a.2.2 0 0 0 .012-.04l.08-.5V4.877a.06.06 0 0 0-.062-.062h-.312l-.009-.28c.003-.033-.03-.102-.075-.146a.19.19 0 0 0-.175-.035l-.665.309a.05.05 0 0 0-.027.042v.11h-.171a.1.1 0 0 0-.028.004l-.164.05-.027.004h-.533a.015.015 0 0 0-.015.016v.183a.04.04 0 0 1-.038.039h-.41a.04.04 0 0 1-.039-.039v-.183a.016.016 0 0 0-.015-.016h-.343a.016.016 0 0 0-.016.016v.183a.04.04 0 0 1-.038.039h-.41a.04.04 0 0 1-.038-.039v-.183a.016.016 0 0 0-.016-.016H17.5a.015.015 0 0 0-.015.016v.183a.04.04 0 0 1-.039.039h-.41a.04.04 0 0 1-.038-.039v-.183a.015.015 0 0 0-.016-.016h-.343a.016.016 0 0 0-.015.016v.183a.04.04 0 0 1-.038.039h-.41a.04.04 0 0 1-.039-.039v-.183a.016.016 0 0 0-.015-.016h-.343a.016.016 0 0 0-.016.016v.183a.04.04 0 0 1-.038.039h-.41a.04.04 0 0 1-.038-.039v-.183a.015.015 0 0 0-.016-.016h-.343a.015.015 0 0 0-.015.016v.183a.04.04 0 0 1-.039.039h-.41a.04.04 0 0 1-.038-.039v-.183a.016.016 0 0 0-.016-.016h-.343a.016.016 0 0 0-.015.016v.183a.04.04 0 0 1-.038.039h-.41a.04.04 0 0 1-.039-.039v-.183a.016.016 0 0 0-.015-.016h-.343a.015.015 0 0 0-.016.016v.183a.04.04 0 0 1-.038.039h-.41a.04.04 0 0 1-.038-.039v-.183a.015.015 0 0 0-.016-.016h-.456a.63.63 0 0 1-.327-.127.05.05 0 0 0-.032-.012H9.767V5.75c0 .04.018.083.053.118a.14.14 0 0 0 .07.044h9.244c.178 0 .323.145.323.323z"/><path fill="#D9D9D9" d="m9.438 4.644-.01-.001H6.524l-.012.001-.641.16a.4.4 0 0 1-.092.012h-.86a.03.03 0 0 0-.005.035l.07.143a.033.033 0 0 1-.029.048l-.854.022a.033.033 0 0 1-.028-.051l.104-.155a.033.033 0 0 0-.004-.042h-.179a.07.07 0 0 0-.04.019c-.123.122-.81.8-.837.859l-.27.837a.01.01 0 0 0 .006.01l.023.006a.01.01 0 0 1 .006.01l-.32 1.174c-.002.01.006.02.017.02h16.57V6.234a.016.016 0 0 0-.016-.017H9.89c-.197 0-.43-.203-.43-.468V4.675a.03.03 0 0 0-.022-.03M3.186 16.296h2.626c.255 0 .485-.002.7-.012v.13l.989.007c.025 0 .046.02.046.046v.08c0 .025-.02.046-.047.046h-.376c-.181.043-.346.05-.585.05h-3.4a.044.044 0 0 1-.044-.044v-.163c0-.025.02-.044.044-.044h.076l-.042-.028zM34.519.643l-12.48 4.543.16.185-.16.215.16.219-.16.242.217.269-.217.19 14.279 5.06-4.488-4.442 6.472-1.633-7.567-1.149z"/></svg>