<svg xmlns="http://www.w3.org/2000/svg" width="83" height="17" fill="none" viewBox="0 0 83 17"><path fill="url(#a)" d="M47.116 4.646h35.701V5.68H47.116z"/><path fill="url(#b)" d="M47.116 4.646h35.701V5.68H47.116z"/><path fill="url(#c)" d="M66.232 4.496 68.474.62v2.974l3.03-2.35-.842 2.35 4.057-.632-2.043 1.285z"/><path fill="url(#d)" d="m65.65 5.804-.155.394.642 3.879 1.538-2.64 2.719 2.744-.75-3.09 3.41 1.534-1.591-2.596z"/><path fill="url(#e)" d="m78.358 3.547-1.073.798.989-.366.372.187.939-1.049-.892.689z"/><path fill="url(#f)" d="m73.873 4.28 1.331-.827.216.254 1.26-.524-1.476.911-.21-.174z"/><path fill="url(#g)" d="m73.002 5.886 1.013 1.038.362-.346.9.728-.947-1.203-.395.376z"/><path fill="url(#h)" d="m79.794 6.144.938.741.261-.198.79.36-.837-.72-.372.187z"/><path fill="url(#i)" d="m77.304 6.538-.97-.528.951.981.327-.186.823.377-.864-.776z"/><path fill="url(#j)" d="m80.256 4.317.844-.369.31.132.946-.934-.798.483-.476-.134z"/><path fill="#D9D9D9" fill-rule="evenodd" d="M63.85.822a.07.07 0 0 1 .082-.062l.911.18a.07.07 0 0 1 .055.058l.267 1.974.976.015h.018l.01.001.006.001q.03.005.045.018.025.022 0 .066l-.983 1.573h-2.088L62.32 5.68h2.244l-.179.286.103.064.002.001.002.002.008.01a.04.04 0 0 1-.001.034l-.011.017h.464a.07.07 0 0 1 .07.07v.69a.07.07 0 0 1-.04.062l-.005.002-.003.001h-.002l-.006.002-.014.002h-.982l-.073.117a.03.03 0 0 1-.018.014l-.005.002h-.013l-.006-.002h-.002l-.004-.003-.102-.064-.172.276c-.041.06-.078.075-.136.08l-6.074.408h-2.932v.03a.07.07 0 0 1-.034.06l-.57.338a.1.1 0 0 1-.036.01H53.5V6.363a.62.62 0 0 0-.621-.621H45.16a.97.97 0 0 0-.925.688l-.397 1.322h-4.214V2.58l23.462.36.631-.591zm-3.825 3.824h2.502L61.7 5.68h-2.503zm-.621 0-.829 1.035h-2.502l.828-1.035zm-3.124 0-.83 1.034h-2.5l.828-1.035zm-3.124 0-.828 1.035h-2.503l.828-1.035zm-3.124 0-.828 1.035h-2.089V4.646zm-6.897-.88a.07.07 0 0 1 .062-.099h1.147a.07.07 0 0 1 .062.039l.038.077h-1.301zm3.448.017H45.28l-.008-.016a.07.07 0 0 1 .062-.1h1.147a.07.07 0 0 1 .062.039zm.89-.116a.07.07 0 0 0-.061.1l.078.158a.07.07 0 0 0 .062.039h1.147a.07.07 0 0 0 .062-.1l-.078-.158a.07.07 0 0 0-.062-.039zm2.139 0a.07.07 0 0 0-.062.1l.079.158a.07.07 0 0 0 .061.039h1.148a.07.07 0 0 0 .055-.028.07.07 0 0 0 .007-.072l-.079-.158a.07.07 0 0 0-.062-.039zm2.138 0a.07.07 0 0 0-.062.1l.079.158a.07.07 0 0 0 .062.039h1.147q.008 0 .015-.002a.07.07 0 0 0 .047-.098l-.078-.158a.07.07 0 0 0-.044-.036l-.018-.003zm2.139 0a.07.07 0 0 0-.062.1l.078.158.01.015a.07.07 0 0 0 .052.024h1.148a.07.07 0 0 0 .061-.1l-.078-.158a.07.07 0 0 0-.062-.039zm2.138 0a.07.07 0 0 0-.062.1l.079.158a.07.07 0 0 0 .062.039h1.147a.07.07 0 0 0 .062-.1l-.079-.158a.07.07 0 0 0-.061-.039z" clip-rule="evenodd"/><path fill="#D9D9D9" d="M44.09 7.875c-.066.221.1.444.331.444h7.727c.116 0 .284 0 .374.14.103.161.253.272.413.272s.29-.13.29-.289v-2.08a.345.345 0 0 0-.345-.344h-7.72a.69.69 0 0 0-.66.492zM32.715 4.663h5.143v1h-5.143z"/><path fill="#D9D9D9" fill-rule="evenodd" d="M39.28 2.575V2.16h-.328v.277h-.337V2.16h-.328v.277h-.406V2.16h-.328v.277h-.406V2.16h-.328v.277h-.406V2.16h-.327v.277h-.407V2.16h-.328v.277h-.406V2.16h-.328v.277h-.405V2.16h-.329v.277h-.406V2.16h-.327v.277h-.407V2.16h-.327v.277h-.406V2.16h-.328v.277h-.406V2.16h-.328v.277h-.406V2.16h-.328v.277h-.406V2.16h-.328v.277h-.406V2.16h-.328v.277h-.406V2.16h-.328v.277h-.406V2.16h-.328v.277h-.406V2.16h-.328v.277h-.406V2.16h-.328v.277h-.406V2.16H25.1v-.187a.207.207 0 0 0-.207-.207h-1.192v-.36a.184.184 0 0 0 0-.303V.814h-.207v.289a.183.183 0 0 0 0 .303v.36h-.189a.14.14 0 0 0-.138.138v.256h-.294v.415h-.092l-1.242.207h-1.018c-.157 0-.3.089-.37.23l-.37.743v2.71l.08 1.033a.276.276 0 0 0 .276.254h6.085c.002.064.07.185.173.276a.45.45 0 0 0 .235.116c-.17.506-.017.878.55 1.379.106.093.24-.072.151-.15-.388-.332-.382-.83-.134-1.345q.066-.137.154-.276H39.35V2.575zm-6.84 1.967a.154.154 0 0 1 .155-.155h5.385c.085 0 .155.07.155.155v1.243c0 .085-.07.155-.155.155h-5.385a.16.16 0 0 1-.108-.044l-.005-.004-.006-.008-.007-.008a.16.16 0 0 1-.03-.091z" clip-rule="evenodd"/><path fill="#D9D9D9" fill-rule="evenodd" d="m19.522 3.656-.002.002q-.039.022-.076.047l-2.086 1.393a1.4 1.4 0 0 1-.774.233h-.017v1.042a1.24 1.24 0 0 1-1.24 1.24H7.574a1.24 1.24 0 0 1-1.24-1.24V5.279l-1.823-.01v8.758a.34.34 0 0 0 .34.339H9.22c.448 0 .549-.08.915-.609.966-1.395 2.852-1.652 3.918-1.042l6.701 3.838a.51.51 0 0 0 .718-.23l2.761-6.014a.62.62 0 0 1 .567-.364h.19a.28.28 0 0 0 .282-.282V8.028h-5.134a.55.55 0 0 1-.55-.509l-.082-1.033V3.69zm-.764 5.183c1.775 0 2.196.876 2.196 1.401 0 .963-1.095 1.407-2.197 1.407-1.504 0-2.063-.68-2.063-1.407 0-.922.957-1.4 2.064-1.4" clip-rule="evenodd"/><path fill="#D9D9D9" d="m28.693 9.36.229-1.332h10.273L38.34 9.56a.69.69 0 0 1-.603.354l-9.15-.002-.032.002h-2.938a.4.4 0 0 1-.118-.02.6.6 0 0 0 .05-.23v-.095a.35.35 0 0 0 .275.138h2.524c.19 0 .303-.138.345-.345M6.61 3.925h9.681v2.448a.964.964 0 0 1-.964.964H7.574a.964.964 0 0 1-.964-.964zM3.796 5.27h.438v8.756q.002.156.07.286H2.747a.2.2 0 0 1-.091-.019l-.01-.004-.01-.006-.023-.015-1.09.289a.4.4 0 0 1-.499-.417c.248-3.305.235-5.361-.057-8.685a.342.342 0 0 1 .423-.362l1.139.285a.07.07 0 0 1 .056-.036z"/><defs><linearGradient id="a" x1="82.8172" x2="47.1157" y1="5.16326" y2="5.16329" gradientUnits="userSpaceOnUse"><stop offset="0.484375" stop-color="#05F" stop-opacity="0.5"/><stop offset="1" stop-color="#05F" stop-opacity="0"/></linearGradient><linearGradient id="b" x1="64.9664" x2="64.9664" y1="5.68101" y2="4.64551" gradientUnits="userSpaceOnUse"><stop stop-color="#05F" stop-opacity="0"/><stop offset="0.500452" stop-color="#37F"/><stop offset="1" stop-color="#05F" stop-opacity="0"/></linearGradient><linearGradient id="e" x1="77.6789" x2="77.6789" y1="3.11719" y2="7.30622" gradientUnits="userSpaceOnUse"><stop offset="5.46456e-09" stop-color="#FF0" stop-opacity="0.3"/><stop offset="0.364885" stop-color="#FF0"/><stop offset="0.612143" stop-color="#FF0"/><stop offset="1" stop-color="#FF0" stop-opacity="0.3"/></linearGradient><linearGradient id="f" x1="77.6789" x2="77.6789" y1="3.11719" y2="7.30622" gradientUnits="userSpaceOnUse"><stop offset="5.46456e-09" stop-color="#FF0" stop-opacity="0.3"/><stop offset="0.364885" stop-color="#FF0"/><stop offset="0.612143" stop-color="#FF0"/><stop offset="1" stop-color="#FF0" stop-opacity="0.3"/></linearGradient><linearGradient id="g" x1="77.6789" x2="77.6789" y1="3.11719" y2="7.30622" gradientUnits="userSpaceOnUse"><stop offset="5.46456e-09" stop-color="#FF0" stop-opacity="0.3"/><stop offset="0.364885" stop-color="#FF0"/><stop offset="0.612143" stop-color="#FF0"/><stop offset="1" stop-color="#FF0" stop-opacity="0.3"/></linearGradient><linearGradient id="h" x1="77.6789" x2="77.6789" y1="3.11719" y2="7.30622" gradientUnits="userSpaceOnUse"><stop offset="5.46456e-09" stop-color="#FF0" stop-opacity="0.3"/><stop offset="0.364885" stop-color="#FF0"/><stop offset="0.612143" stop-color="#FF0"/><stop offset="1" stop-color="#FF0" stop-opacity="0.3"/></linearGradient><linearGradient id="i" x1="77.6789" x2="77.6789" y1="3.11719" y2="7.30622" gradientUnits="userSpaceOnUse"><stop offset="5.46456e-09" stop-color="#FF0" stop-opacity="0.3"/><stop offset="0.364885" stop-color="#FF0"/><stop offset="0.612143" stop-color="#FF0"/><stop offset="1" stop-color="#FF0" stop-opacity="0.3"/></linearGradient><linearGradient id="j" x1="77.6789" x2="77.6789" y1="3.11719" y2="7.30622" gradientUnits="userSpaceOnUse"><stop offset="5.46456e-09" stop-color="#FF0" stop-opacity="0.3"/><stop offset="0.364885" stop-color="#FF0"/><stop offset="0.612143" stop-color="#FF0"/><stop offset="1" stop-color="#FF0" stop-opacity="0.3"/></linearGradient><radialGradient id="c" cx="0" cy="0" r="1" gradientTransform="matrix(4.68485 0 0 4.51995 65.272 5.203)" gradientUnits="userSpaceOnUse"><stop stop-color="#D97F26" stop-opacity="0.5"/><stop offset="1" stop-color="#BF7F40"/></radialGradient><radialGradient id="d" cx="0" cy="0" r="1" gradientTransform="matrix(4.68485 0 0 4.51995 65.272 5.203)" gradientUnits="userSpaceOnUse"><stop stop-color="#D97F26" stop-opacity="0.5"/><stop offset="1" stop-color="#BF7F40"/></radialGradient></defs></svg>