<svg xmlns="http://www.w3.org/2000/svg" width="104" height="17" fill="none" viewBox="0 0 104 17"><path fill="#D9D9D9" d="M16.848.79V.61h.255v.18z"/><path fill="#D9D9D9" fill-rule="evenodd" d="M48.474 5.004c.09-.712.1-1.17.065-1.936L48.48 3 46.8 1.13l-.242-.298h-.64V.609h-.255v.223h-.279V.609h-.255v.223h-.279V.609h-.254v.223h-.28V.609h-.254v.223h-.279V.609h-.254v.223h-.28V.609h-.254v.223h-.279V.609h-.255v.223h-.279V.609h-.254v.223h-.28V.609h-.254v.223h-.279V.609h-.255v.223h-.279V.609h-.254v.223h-.28V.609h-.254v.223h-.279V.609h-.254v.223h-.28V.609h-.254v.223h-.279V.609h-.255v.223h-.279V.609h-.254v.223h-.28V.609h-.186v5.17q0 .022-.002.04H38.8l.316-.217v-.386h9.33l.013-.093zm-2.157-2.522h-1.65a.12.12 0 0 0 .088.041h1.473a.12.12 0 0 0 .089-.041m-2.08 0h-1.65l.005.005a.12.12 0 0 0 .084.036h1.472a.12.12 0 0 0 .09-.041m-2.08 0h-1.65a.12.12 0 0 0 .09.041h1.472a.12.12 0 0 0 .089-.041m-2.079 0h-1.65a.12.12 0 0 0 .089.041h1.472a.12.12 0 0 0 .09-.041m4.496 2.378a.06.06 0 0 0-.059.058v.108c0 .032.026.058.059.058h1.59a.06.06 0 0 0 .058-.058v-.108a.06.06 0 0 0-.022-.045.06.06 0 0 0-.037-.013zm-2.138.058c0-.032.026-.058.058-.058h1.59c.032 0 .058.026.058.058v.108a.06.06 0 0 1-.058.058h-1.596l-.006-.001a.06.06 0 0 1-.046-.057zm8.812-3.7h-4.084L48.3 2.482h2.951v.153h1.081c.14 0 .235.194.255.337h.004v1.866h1.806V2.842a.06.06 0 0 0-.059-.058h-.344a.29.29 0 0 1-.292-.292V1.341a.234.234 0 0 0-.234-.234h-2.217zm-2.212.228a.167.167 0 0 0-.168.168.168.168 0 1 0 .168-.168m-.168.786a.168.168 0 1 1 .336 0 .168.168 0 0 1-.336 0m1.143-.45a.168.168 0 1 0 0-.336.168.168 0 0 0 0 .336m.168.45a.168.168 0 1 1-.336 0 .168.168 0 0 1 .336 0" clip-rule="evenodd"/><path fill="#D9D9D9" d="M52.378 4.5V3.058h-.547V3H48.75l.002.057c.027.595.027 1.01-.015 1.498h3.094V4.5zm10.524 0H54.61V3.058h8.292zm.266.924a.053.053 0 0 1-.053-.053V2.186c0-.029.024-.053.053-.053h26.206l.315.236h3.59q.023 0 .042.017l.246.228q.02.02.02.046v2.242l-.001.007-.002.007a.1.1 0 0 1-.017.027l-.246.228a.06.06 0 0 1-.043.017h-3.59l-.314.236zM3.45 1.082a.175.175 0 0 1 .174-.167l31.252.207c.064 0 .116.052.116.117v1.788a.116.116 0 0 1-.12.116l-3.11-.072a.06.06 0 0 1-.056-.059V1.9c0-.16-.13-.291-.291-.292l-9.239-.03c-.16 0-.29.158-.293.317l-.013.778a.35.35 0 0 1-.356.344l-3.563-.054a.35.35 0 0 0-.356.336l-.023.58a.175.175 0 0 1-.18.168l-3.089-.085-.255.148-10.723-.05z"/><path fill="#D9D9D9" d="m3.436 4.274 10.669.05.253-.148 3.028.085c.212.006.39-.16.399-.373l.012-.289 14.078-.067v-.245l2.992.07a.33.33 0 0 0 .338-.33v-.47h1.775V5.78a.2.2 0 0 1-.018.073.2.2 0 0 1-.025.041.18.18 0 0 1-.13.06l-15.962.135v.284a.06.06 0 0 1-.017.042.06.06 0 0 1-.042.017l-.905-.013a.92.92 0 0 0 .565.956c.104.042.075.195-.036.182-.6-.068-.85-.662-.853-1.142l-.53-.007-.072-.002-3.551-.048-.116-.002a.06.06 0 0 1-.057-.054l-.016-.23-11.489-.053a.29.29 0 0 1-.29-.292z"/><path fill="#D9D9D9" d="m17.805 3.386 13.857-.066v-.056a.27.27 0 0 1-.17-.252V1.9a.08.08 0 0 0-.078-.078l-9.239-.03q-.016 0-.028.01l-.022.023a.13.13 0 0 0-.029.074l-.013.777a.564.564 0 0 1-.572.555l-3.564-.054a.14.14 0 0 0-.096.038.14.14 0 0 0-.043.093zm13.887 2.825-8.88.075v.95l-.838.64a.23.23 0 0 1-.145.049l-2.921-.035a.117.117 0 0 1-.116-.124l.03-.471a.4.4 0 0 0 .021-.086l.083-.59-3.236-.044v.177c0 .078.026.154.074.215.186.242.254.56.179.855l-.653 2.561a.993.993 0 0 0 .87 1.234l.597.055a.7.7 0 0 0 .763-.761 2 2 0 0 1 .057-.687l.536-2.042c.065-.246.216-.46.426-.603l.13-.088.025-.019-.018.287a.23.23 0 0 0 .23.248l2.922.035a.35.35 0 0 0 .217-.072l.768-.588V8.46h.208l-.176.733c-.029.12.143.174.189.06l.322-.793h.061v.028a.175.175 0 0 0 .206.175l.454-.082v.061c0 .118.096.213.214.213h.998v1.012h3.555l1.012-1.012h1.297a.213.213 0 0 0 .213-.213V6.83a.64.64 0 0 0 .322-.528z"/><path fill="#D9D9D9" d="M24.75 10.297c0-.12.097-.216.216-.216h3.987c.12 0 .216.097.216.216v5.59a.72.72 0 0 1-.721.722h-2.976a.72.72 0 0 1-.722-.722zM8.206 6.253l2.27.01-.475 1.278c-.166.445-.073.944.242 1.3l.036.04c.376.426-.014 1.083-.567.957l-1.256-.285a4 4 0 0 0-.308-.058v.177H7.82v.276h-.095v.221h-.254v-.222h-.28v.223h-.254v-.223h-.279v.223h-.254v-.223h-.28v.223H5.87v-.223h-.095v-.275h-.33V9.47l-3.005.036a1.4 1.4 0 0 1-1.415-1.501l.08-1.129A8.8 8.8 0 0 0 .73 3.644l-.066-.212a2.3 2.3 0 0 1-.1-.86l.023-.328A1.17 1.17 0 0 1 1.77 1.158l1.462.023-.13 3.092h.12v1.454c0 .278.225.504.503.505l1.145.006-.05 1.705a.35.35 0 0 0 .353.36L6.93 8.29a1.11 1.11 0 0 0 1.052-.783l.255-.829a.58.58 0 0 0-.032-.425"/><path fill="#D9D9D9" d="m7.358 6.45.017-.2h.117l-.009.01-.004.006-.001.003a.1.1 0 0 0-.012.04.1.1 0 0 0 .09.108.1.1 0 0 0 .106-.076l.003-.019a.1.1 0 0 0-.026-.072h.127l-.019.232a.06.06 0 0 1-.063.054l-.272-.022a.06.06 0 0 1-.054-.063M17.382.793l.254.002V.609h-.254zm.788.005-.255-.001V.609h.255zm.279.002.255.002V.609h-.255zm.788.005-.254-.002V.61h.254zm.279.002.255.002v-.2h-.255zm.788.005L20.05.811V.609h.254zm.279.002.255.002V.609h-.255zm.789.006-.255-.002V.609h.255zm.278.001.255.002V.609h-.254zm.789.005-.255-.001V.609h.255zm.279.002.255.002V.61h-.255zm12.487 1.516V1.239a.33.33 0 0 0-.328-.33L23.251.831V.609h.255v.223h.28V.609h.254v.223h.279V.609h.254v.223h.28V.609h.254v.223h.279V.609h.255v.223h.279V.609h.254v.223h.28V.609h.254v.223h.279V.609h.254v.223h.28V.609h.254v.223h.279V.609h.255v.223h.278V.609h.255v.223h.28V.609h.254v.223h.279V.609h.254v.223h.28V.609h.254v.223h.279V.609h.255v.223h.279V.609h.254v.223h.28V.609h.254v.223h.279V.609h.254v.223h.28V.609h.254v.223h.279V.609h.255v.223h.279V.609h.254v.223h.28V.609h.254v.223h.279V.609h.255v.223h.278V.609h.255v.223h.28V.609h.254v.223h.279V.609h.254v.223h.134v1.512z"/><path fill="url(#a)" d="m101.686 1.22-7.552 1.742.2.271-.2.266.297.274-.297.296.2.273-.2.245 6.291 1.718-1.2-1.718 4.208-.814-3.843-.382z"/><defs><radialGradient id="a" cx="0" cy="0" r="1" gradientTransform="matrix(8.80423 0 0 4.66221 94.134 3.9)" gradientUnits="userSpaceOnUse"><stop stop-color="#D6D65C"/><stop offset="1" stop-color="#636336" stop-opacity="0"/></radialGradient></defs></svg>