<svg xmlns="http://www.w3.org/2000/svg" width="96" height="17" fill="none" viewBox="0 0 96 17"><path fill="#D9D9D9" d="m84.264 5.395-.458-.36.346-.507-.446-.612L94.884.691l-4.8 3.404 5.402.658-5.186.955 3.508 3.147-10.052-2.573zM81.663 3.02l-.5.512-51.239-.008c-.247.686-.267 1.454-.089 1.872l1.124.001.642-.518 1.971.005v.503l.56-.002.005-.905 16.047.001c1.764-.023 2.126.644 2.298.9l30.329-.014-.002-1.847h-.445v-.5zm-13.246.775h3.51c.13-.002.147.048.08.101l-.003.002c-.078.061-.05.063-.228.062h-3.474c-.146.004-.125-.03-.061-.098l.007-.01c.034-.04.029-.056.169-.057m5.426 0h3.51c.13-.002.147.048.08.101l-.003.002c-.079.061-.05.063-.228.062h-3.474c-.146.004-.126-.03-.061-.098l.007-.01c.033-.04.029-.056.169-.057m-22.147 0h3.511c.13-.002.147.05.08.102l-.004.002c-.078.061-.049.062-.228.061h-3.474c-.145.005-.125-.029-.06-.097l.007-.01c.033-.041.029-.057.168-.057m5.604 0 3.511.001c.13-.003.147.048.08.101l-.004.002c-.078.061-.049.063-.228.061h-3.474c-.146.005-.125-.029-.06-.097l.007-.01c.033-.041.028-.056.168-.057m5.555.004h3.51c.13-.002.147.048.08.101l-.003.002c-.078.061-.05.063-.228.062H62.74c-.146.004-.125-.03-.061-.098l.007-.01c.034-.04.03-.056.169-.057m-21.923 0h3.213c.13-.002.146.048.079.101l-.003.002c-.078.061-.05.063-.228.061h-3.176c-.146.005-.126-.029-.061-.097l.007-.01c.034-.041.029-.056.169-.057m5.197 0h3.51c.13-.002.147.049.08.102l-.003.001c-.078.062-.05.063-.228.062h-3.474c-.146.005-.125-.03-.06-.097l.007-.01c.033-.041.028-.057.168-.058m6.484 1.853 30.203-.013v1.354l-30.047.134c-.006-.59.007-1.03-.156-1.475"/><path fill="#D9D9D9" d="m34.406 4.753 15.995-.003c1.96.028 2.055.985 2.086 1.94.022.674-.017 1.194-1.44 1.278L36.69 8.19a17 17 0 0 1-2.01-.117c.96-1.305.48-1.96-.276-2.561z"/><path fill="#D9D9D9" d="M29.623 3.547a7 7 0 0 0-.996.237c-.53 1.057-.57 1.333-.004 1.826.184.17.225.217.237.477l-.022.957c-.032.249-.16.38-.281.433-.425.176-.34.593.07.628l4.924-.173.81.104c.724-.95.92-1.64-.215-2.372h-.85v-.509h-1.6l-.629.513h-1.425c-.264-.636-.265-1.301-.02-2.121m-1.344.336c-.574.218-1.045.318-1.912.523-.206.03-.27.004-.45-.062-.145-.057-.143-.056-.36-.05l-.361.004c-.134 0-.228.037-.342.173-.127.134-.212.33-.158.527l2.002-.368a4.6 4.6 0 0 1 1.277-.04c.067-.247.169-.441.304-.707M3.643 6.645c.143-.27.388-.468.878-.47l12.54-.097c.473 0 .804.222.918.503l-.94.72c-.393.29-.693.38-1.205.384l-11.288.128c-.651.009-.743-.215-.784-.442zm-1.403.757c-.697.054-1.437.09-1.41 1.98a32 32 0 0 0 .658 6.868c.058.265.321.518.728.419l.703-.225c-.235-.105-.405-.32-.496-.672-.566-2.374-1.117-5.148-.526-7.736.072-.269.19-.474.343-.634"/><path fill="#D9D9D9" d="M26.609 4.925a4.5 4.5 0 0 1 1.34-.056c-.017.4.194.684.46.92.136.098.179.13.172.345l-.02.776c-.003.267-.03.28-.195.365l-.092.048c-.172.11-.388.479-.189.769l-.093.007q-.493.038-.965.078v-.001l-.352.026v.007c.026.227-.111.279-.195.298-.624.135-.834.512-.837.882v.018c.001.225.079.446.185.606l-.136.062q-.051-.06-.108-.113c-.12-.118-.238-.235-.252-.477q-.006-.097.013-.224.024-.158.097-.375a.4.4 0 0 0 .03-.11.3.3 0 0 0-.002-.061c-.012-.087-.076-.148-.2-.161-.145-.018-.175-.054-.169-.148h-.003a9 9 0 0 0-.381.07c-.588.116-1.085.253-1.435.393q-.03.011-.057.024h-.002c-2.786 1.212-2.972 2.557-2.811 3.856.07.406-.115.551-.406.582-1.137.046-2.227-.005-3.155-.39-.174-.072-.26-.152-.286-.234-.068-.218-.407-.245-.663-.179l-12.269 3.7c-.77.088-.859-.12-1.052-.845-.598-2.322-.868-4.903-.513-6.887.138-.737.177-.813.757-1.177l.596-.332c.127 1.1.697 1.105 1.174 1.108l.088.001 10.982-.122c.61-.003 1.038-.08 1.619-.506l.676-.54c.308.32.66.447 1.195.257l.013-.005a73 73 0 0 1 2.89-1.083c-.04-.125.125-.246.279-.327a1 1 0 0 1 .093-.043c.068-.028.13-.053.335-.205a1 1 0 0 1 .262-.139l.393-.127c.095-.035.121-.03.227-.01a.8.8 0 0 0 .441-.023c.132-.065.335-.03.472.086z"/><path fill="#D9D9D9" d="M23.827 8.984c.149.115.266.28.332.43.441 1.03 1.328 1.4 2.335 1.357.972-.098 2.16-.36 2.293-1.57a1.2 1.2 0 0 0-.294-.84l-.061-.021c-.383.027-.738.055-1.074.084.877.064 1.125.767.659 1.18-1.037.998-2.63.742-3.158-.067-.178-.283-.092-.47.001-.613a.27.27 0 0 0 .027-.2 12 12 0 0 0-1.06.26"/></svg>