<svg xmlns="http://www.w3.org/2000/svg" width="57" height="17" fill="none" viewBox="0 0 57 17"><path fill="#D9D9D9" d="m19.5 2.821-.005.923.07.002 1.274 1.098.362-.008.854 1.154.471-.003.5-.872 10.618.01V1.728H20.635l-.64 1.107zM5.199.34l-.015.894-.4 1.296.03.685c.02.45-.508 1.164-1.002 1.285l.05 1.795 2.89-.002.3-.235.344-1.095.003-.051-.966-.003-.008-3.527 1.07-.004-.007-.225.005-.1 3.394.004.004.33.547-.005.019 2.545v.08l.738-.002v-.087l.001-3.097V.615l-.688.005H5.63L5.445.34z"/><path fill="#D9D9D9" d="m6.807 1.758 4.274.01-.003 2.24-2.627.005-.197-.274-.799-.019-.034.807-.624.002zM16.833.344l-.719.003.008.257-3.541.009.003 3.393 5.76-.007v-.252l.773-.006.001-1.314-.713-.986-.314.002zm-3.696 1.234 1.634.005.367.438a.54.54 0 0 0-.176.23l-1.721-.001c-.09.002-.103-.067-.1-.114zm2.123-.005 1.794-.002.382.338H15.57zm.269.5h2.384c.231 0 .417.186.417.417v.36a.416.416 0 0 1-.417.418h-2.384a.416.416 0 0 1-.418-.417v-.36c0-.232.186-.418.418-.418"/><path fill="#D9D9D9" d="M17.758 2.445h-2.093a.19.19 0 0 0-.189.19v.06c0 .105.085.19.189.19h2.093a.19.19 0 0 0 .188-.19v-.06a.19.19 0 0 0-.189-.19M8.076 6.67l-.501-.002c.03.286.12.999.852 1.139.362.054.388-.278.125-.367-.24-.07-.526-.397-.476-.77M3.433 4.559l-1.854.347c-.867.152-.448.79-.057.846.297.063 1.28.556.844 1.448C1.428 8.696.862 10.093.829 11.995c-.007.226.089.525.417.536l2.465.015c.104-.238.359-.89.65-1.284.56-.756.442-1.128-.352-1.36-1.067-.363-.873-1.436.03-1.58-.033-.27-.035-.443.027-.543.281-.45 1.487-.722 1.685-.688l.544-.436-2.799.017zM2.07 4.316c-.161.125-.229.054-.258.022-.03-.03-.084-.118.074-.235.476-.353.797-.43 1.395-.415l.971-.81.13.12-.061.33.077.08c-.135.364-.404.717-1.08.842l-.083-.108c-.376.026-.824-.005-1.165.174m20.035 2.278-.01 2.148.477.007.69 1.014h12.987V5.5H23.241l-.64 1.108z"/><path fill="#D9D9D9" d="M8.05 4.117h-.245l-.015.895-.4 1.295.03.685c.02.45-.508 1.164-1.002 1.285l.05 1.795 8.332-.004.002-5.47v-.206l-.689.005H8.236zm.981 1.042 1.07-.004-.007-.224.005-.1 3.394.003.004.33.547-.005.026 3.539-5.032-.011z"/><path fill="#D9D9D9" d="m9.413 5.535 4.274.01.011 2.774-4.296-.013zm10.025-1.414-.719.003.008.258-3.541.008-.002 5.517.399-.141.85-.017.003-.428.38-.35h4.898l.01-2.767-.714-.986-.314.003zm-3.696 1.234 1.634.006.367.438a.54.54 0 0 0-.176.23l-1.72-.002c-.09.002-.104-.067-.101-.114zm2.123-.005 1.794-.002.383.339h-1.868zm.269.5h2.384c.231 0 .418.186.418.418v.36a.416.416 0 0 1-.418.418h-2.384a.416.416 0 0 1-.417-.418v-.36c0-.232.186-.418.417-.418"/><path fill="#D9D9D9" d="M20.363 6.219H18.27a.19.19 0 0 0-.189.189v.061c0 .105.085.19.19.19h2.092a.19.19 0 0 0 .189-.19v-.061a.19.19 0 0 0-.189-.19M9.631 11.582l-.21.451c.141.021.287.067.32.091.118.083.6.147.886.081l2.041-.38c.732-.212.824-.742.848-1.372l-.384-.004c.004.33-.034.873-.606 1.012l-1.816.345c-.812.124-.869-.092-1.079-.224"/><path fill="#D9D9D9" d="m10.682 10.448-.501-.003c.03.286.12 1 .852 1.14.362.054.388-.278.125-.368-.24-.07-.526-.397-.476-.77M6.039 8.336l-1.855.347c-.867.153-.447.791-.056.847.297.062 1.28.556.843 1.447-.937 1.497-1.504 2.894-1.537 4.795-.007.227.09.525.418.536l2.724.033c.558-.003.768-.097.883-.661l.73-3.347.7-.033.829-1.85H6.102zm-1.363-.242c-.162.124-.23.053-.258.021-.03-.03-.085-.118.074-.235.476-.353.797-.43 1.395-.415l.97-.809.131.12-.062.33.077.08c-.135.363-.403.716-1.08.841l-.083-.108c-.375.027-.823-.005-1.164.175"/><path fill="url(#a)" d="M36.289 6.605h20.69V8.33h-20.69z"/><path fill="url(#b)" d="M33.636 3.023h20.69v1.725h-20.69z"/><defs><linearGradient id="a" x1="56.979" x2="36.289" y1="7.46756" y2="7.46756" gradientUnits="userSpaceOnUse"><stop stop-color="#D9D9D9"/><stop offset="1" stop-color="#D9D9D9" stop-opacity="0"/></linearGradient><linearGradient id="b" x1="54.3257" x2="33.6356" y1="3.88553" y2="3.88553" gradientUnits="userSpaceOnUse"><stop stop-color="#D9D9D9"/><stop offset="1" stop-color="#D9D9D9" stop-opacity="0"/></linearGradient></defs></svg>