<svg xmlns="http://www.w3.org/2000/svg" width="33" height="17" fill="none" viewBox="0 0 33 17"><path fill="#D9D9D9" d="M13.48 5.577v3.088l-2.988.122V5.573z"/><path fill="#D9D9D9" fill-rule="evenodd" d="m15.162 5.214-.069-.018-.038-.01-.032-.007-.127-.026a7 7 0 0 0-.74-.082l-.038-.002-.082-.005-.076-.004-3.663-.022h-.004l-.23-.007h-.003l-.246-.008c-.12 0-.433-.001-.551-.11h-.359l-.16 1.97c-.1.297-.208.535-.332.724-.28.428-.643.606-1.194.65l-.178.01c-.415.012-.928-.036-1.575-.103l-.006.027-.073.335-.023.095-.016.065a7 7 0 0 1-.07.262 5 5 0 0 1-.2.558c.36-.076.793-.127 1.213.017.55.188.994.672 1.31 1.571.08-.061.198-.145.282-.203a4.8 4.8 0 0 1 2.08-.794l.03-.004.035-.004.02-.002.018-.014.113-.08q.066.061.072.137c.01.087-.037.176-.129.29l-.027.033-.02.024c-.26.3-.33.761-.192 1.118.165.43.597.729 1.026.636.088-.02.073-.134-.016-.142-.157-.015-.226-.073-.377-.218l-.027-.026-.005-.004a.86.86 0 0 1-.257-.725c.039-.288.157-.511.36-.635.288-.175.522-.271.833-.35l-.068-.353-.361-.084c.21-.032.47-.056.819-.084l2.13-.199a.6.6 0 0 0 .215-.096l.003-.002c.145-.114.137-.284.129-.454a1 1 0 0 1 .003-.231.4.4 0 0 1 .023-.085c.148-.648.403-.905.704-1.008a1 1 0 0 1 .146-.037zm-1.344.024-3.665-.005V9.14l3.665-.15z" clip-rule="evenodd"/><path fill="#D9D9D9" d="M8.156 7.38 6.429 5.842l.955-.687-.113-.126-1.127.56-.06-.052-.245.28-.197-.168-.193.215.403.62c-.002.29-.124.557-.522.77l-.61.393.107.138a1.5 1.5 0 0 1 .39-.192c.185-.065.458-.177.66-.38.2-.204.413-.304.689-.108.085.078.173.142.261.205.177.128.353.255.502.494l-.034.082-.009.024q.17-.02.3-.062c.223-.07.404-.199.57-.468m.744 4.17c-.132-.299-.307-.48-.515-.571a4.5 4.5 0 0 1 1.175-.466c-.864 1.203.034 1.62.722 1.843.38.123 1.195.074 1.823-.166s.99-.618 1.144-1.086c.181-.548-.011-1.043-.522-1.24l1.084-.1a.8.8 0 0 0-.219.38c-.04.138-.033.347-.027.534.005.134.01.257-.004.335l-.012.07-.009.05c-.055.336-.12.726-.455.985-.436.336-1.6.672-2.351.617-.51-.037-1.415-.238-1.833-1.184m8.826-4.284V5.416h-2.226v1.85zm.339-1.748v.813h5.157a.043.043 0 0 0 .044-.042v-.78a.043.043 0 0 0-.044-.043h-.043a.497.497 0 0 0-.502-.477v.159l-.609.182v.136h-.07l-.107.052zm0 1.386v.307h.917v.059l.685.023a.36.36 0 0 0 .063-.236.36.36 0 0 0-.063-.235l-.685.023v.059zM4.864 9.902c-1.219 1.69-1.468 3.528-1.5 5.401q.467.265.94.38a2.82 2.82 0 0 0 1.724-.132c-.165-1.378-.024-2.758.863-3.802q.19-.224.428-.426c-.6-1.851-1.62-1.621-2.455-1.42m-.463 6.145q.22.04.441.049a.6.6 0 0 1-.107.118v.43c0 .05-.03.09-.074.108a.1.1 0 0 1-.045.009.117.117 0 0 1-.118-.116v-.43a.5.5 0 0 1-.097-.168"/><path fill="#D9D9D9" d="m12.621 2.673-.03-.008-.038-.01-.038-.01-.032-.007a3 3 0 0 0-.305-.054 5 5 0 0 0-.321-.036l-.24-.018-.04-.002-.081-.005-.077-.004-3.663-.022h-.004l-.23-.007H7.52l-.246-.008c-.12 0-.434-.001-.552-.11h-.359l-.159 1.97c-.1.297-.208.535-.332.724q-.073.111-.154.201l.087.075.025-.029.224-.256.144.127 1.153-.573.261.291v-2.21l3.666.005v2.008l1.343.008zm1.434 2.053-.076-.005h-.017l-1.002-.006v-1.84h2.227v1.851zm-1.709.324-1.068-.006v.19l.835.002a.8.8 0 0 1 .233-.186m-.44.524h-.628v.875l-.786.032v.474l.907-.085a.6.6 0 0 0 .215-.096l.002-.002c.146-.114.137-.284.129-.454l-.002-.039-.002-.053a1 1 0 0 1 .008-.14l.002-.013.003-.013.005-.022.005-.016.004-.01.003-.01q.058-.25.135-.428m-1.414 1.721.779-.073a.8.8 0 0 0-.22.38c-.04.14-.033.348-.026.535.005.134.01.257-.005.335l-.012.07-.008.05-.03.175-.352.015q.053-.106.09-.219c.14-.42.059-.809-.216-1.056zm-.119 1.835.119-.004h.014l.372-.016a1 1 0 0 1-.334.467c-.435.336-1.6.672-2.35.617-.51-.037-1.416-.238-1.834-1.184-.132-.3-.307-.481-.515-.572q.192-.11.396-.2.302.023.558.03h.034c-.523.978.28 1.343.908 1.547.38.123 1.195.074 1.823-.166.348-.134.614-.31.81-.519m-.221-2.144v-.49l-1.381.055-.027.332q-.045.129-.09.243c.17-.02.37-.037.613-.057zm-1.526.209-.048.108a3 3 0 0 1-.166.303q-.084.127-.176.225c.208-.11.402-.18.642-.24l-.068-.354z"/><path fill="#D9D9D9" d="M7.866 8.102a1.4 1.4 0 0 1-.177.069 2 2 0 0 1-.338.072c-.1.261-.105.562-.01.811.165.43.598.729 1.026.636a.07.07 0 0 0 .053-.039l.003-.007.002-.01v-.02c-.003-.032-.03-.062-.073-.066a.5.5 0 0 1-.106-.02l-.011-.004-.014-.005-.017-.008a.9.9 0 0 1-.23-.18l-.027-.027-.004-.004a.86.86 0 0 1-.257-.725 1 1 0 0 1 .18-.473m-.255-.262a1 1 0 0 0 .14-.06.9.9 0 0 0 .273-.219 1.3 1.3 0 0 0 .132-.182L6.429 5.842l.955-.687-.113-.126-1.126.56-.06-.053-.223.255-.022.026-.198-.169-.193.216.004.006.4.613a.8.8 0 0 1-.09.376 1 1 0 0 1-.1.142c-.08.09-.188.175-.333.253l-.264.17-.06.039-.051.033-.224.144-.01.007.106.138a1.5 1.5 0 0 1 .39-.193c.071-.024.155-.056.243-.097l.02-.01c.135-.065.278-.153.396-.273q.07-.071.143-.123c.16-.11.335-.135.547.016.085.078.173.141.261.205.117.084.234.168.342.285q.126-.024.253-.04l.03-.003.035-.004.019-.002.018-.014.036-.026.02-.015.057-.04q.034.032.052.068l.004.007.005.013.01.038.002.012c.008.076-.027.155-.099.25"/><path fill="#D9D9D9" d="m6.767 7.687-.138-.102-.003-.003a3 3 0 0 1-.27-.21.2.2 0 0 0-.066-.033.04.04 0 0 0-.021 0c-.019.004-.067.025-.152.111-.18.182-.397.302-.578.38q.352.038.644.062.284-.12.584-.205m-1.152.492-.15-.016-.006.028-.02.096q.087-.056.176-.108m-.573.328.014-.058.072-.329.006-.027.023-.111a1 1 0 0 0-.143.086l-.12.078q.078.168.148.36M4.43 7.431l.717-.462.011-.007.012-.007a.7.7 0 0 0 .282-.236.4.4 0 0 0 .054-.147l-.483-.742.205-.228q-.239.091-.55.114l-.038.003-.036.002-.028.002-.076.003c-.415.012-.928-.036-1.576-.103l-.006.027-.073.335-.023.095-.016.065-.01.043a6 6 0 0 1-.131.445q-.057.167-.128.332c.36-.076.792-.127 1.212.017.25.085.477.231.68.45m4.37-1.221 1.354-.055v-.923h.143l.643.001v-.192l-.642-.004h-.004l-.23-.007h-.003l-.242-.008h-.004c-.12 0-.433-.002-.551-.11l-.359-.001z"/><path fill="#D9D9D9" d="M10.939 4.703V3.036L7.95 3.032v3.214l.507-.02.134-1.654.803.003.083.076.007.002a1 1 0 0 0 .096.02c.084.01.173.01.233.01h.011l.246.009h.008l.22.007zm0 .87h-.447v.57l.447-.02zm-2.509.992-.02.248a4 4 0 0 1-.097.253l-.532-.474zm-.818-.123V5.408l-.03.022-.612.44zM3.889 3.301 5.615 4.84c-.165.27-.347.398-.569.468a1.5 1.5 0 0 1-.3.062l.008-.024.034-.082c-.148-.24-.325-.366-.501-.494a3 3 0 0 1-.262-.205c-.276-.196-.488-.096-.69.107-.2.204-.473.316-.658.38a3 3 0 0 0-.184.074 1.3 1.3 0 0 0-.207.12l-.106-.139.61-.393c.397-.213.52-.48.522-.77l-.404-.62.194-.216.197.169.245-.28.06.053 1.126-.56.113.125zm11.637-.324v.814h5.157l.02-.005a.04.04 0 0 0 .023-.037v-.78a.04.04 0 0 0-.024-.039.04.04 0 0 0-.02-.004h-.043a.497.497 0 0 0-.502-.477v.159l-.608.182v.136h-.07l-.107.051zm0 1.693v-.306h.916v-.06l.686-.022a.36.36 0 0 1 .063.235.37.37 0 0 1-.063.235l-.686-.022v-.06zM2.324 7.361c-1.22 1.69-1.469 3.528-1.5 5.401q.466.265.94.38a2.8 2.8 0 0 0 1.442-.036q.083-.496.222-.986c-.01-1.069.227-2.094.923-2.912a4 4 0 0 1 .427-.426C4.18 6.931 3.16 7.161 2.324 7.362m-.304 6.17-.16-.025.028.062a.4.4 0 0 0 .07.106v.43c0 .037.018.07.046.092a.12.12 0 0 0 .117.015.12.12 0 0 0 .073-.107v-.431a.6.6 0 0 0 .108-.118 3 3 0 0 1-.281-.024M32.072 3.303l-8.215 2.189.34.123-.34.396.452.214-.452.152 7.349 2.032-2.099-1.504 2.833-1.102-2.378-1.101zM21.316 2.95 29.531.763l-2.51 1.399 2.379 1.1-2.832 1.102.055.04-1.655.441-3.65-1.01.451-.151-.452-.214.34-.396z"/><path fill="#D9D9D9" d="m26.979 4.66 1.686 1.208-3.053-.844z"/></svg>