<svg xmlns="http://www.w3.org/2000/svg" width="33" height="17" fill="none" viewBox="0 0 33 17"><path fill="#D9D9D9" d="m31.537 3.344-8.78 1.976.346.135-.345.42.475.236-.475.32 8.779 2.907-2.623-2.468 3.368-1.275-3.174-.434zm-11.508-.752L28.808.615l-2.43 1.817 3.175.434-3.368 1.275.03.028-2.843.64-3.343-1.107.475-.32-.475-.236.345-.42z"/><path fill="#D9D9D9" d="m26.535 4.47 2.273 2.14-4.765-1.579z"/><path fill="#D9D9D9" fill-rule="evenodd" d="M16.526 5.76H5.176l-.048-.085a1.8 1.8 0 0 1 .523-.565.24.24 0 0 1 .143-.045h.413v-.547a.135.135 0 1 1 .269 0v.547h11.762a.31.31 0 1 1 .267.005.2.2 0 0 1 .05.004c.135 0 .242.117.242.242V6.88c-.001.274-.157.38-.272.42l-.742.025h-.751a.2.2 0 0 0-.1.03l-.277.009a3 3 0 0 0-.036-.342l-.003-.023-.002-.013zm1.85-1.057a.084.084 0 1 0 0 .168.084.084 0 0 0 0-.168" clip-rule="evenodd"/><path fill="#D9D9D9" fill-rule="evenodd" d="M16.295 7.64c-.889.002-2.385.005-2.69-.001-.454-.026-.569.53-.601.69l-.036 1.283c0 .08-.018.22-.09.264-.878.556-2.286.526-3.29.23-1.05-.313-1.22.43-1.22.43l-.843 3.416c-.063.26-.018.422.027.53a.14.14 0 0 1 .014.07.2.2 0 0 1-.014.062.18.18 0 0 1-.108.1c-.466.126-1.713.243-2.753.243-.654 0-.918-.22-1.018-.44-.062-.134-.05-.283-.043-.374l.003-.056c0-1.312.57-2.608.9-3.242.062-.118.121-.223.165-.301l.07-.126c.062-.146.376-.877.509-1.61L5.3 8.66a.6.6 0 0 0-.042-.34c-.121-.278-.446-.453-.756-.565-.198-.072-.251-.36-.072-.485q.098-.07.186-.158c-.225-.21-.374-.273-.512-.299a1 1 0 0 1-.134.045c-.26.036-.511-.162-.556-.448s.125-.556.385-.592c.27-.045.512.152.565.457.146.2.372.315.532.375a1 1 0 0 0 .036-.267q.001-.138.026-.263l11.229.003.062.879q0 .02.01.072c.012.088.035.24.035.439zm-5.587 2.467c.224.017 1.878-.014 1.944-.552.075-.449.113-.895.113-1.087a.8.8 0 0 0-.123-.326l-.042-.04c-.146-.14-.29-.28-.61-.239l-.846.109c-.61.392-.2 1.169-.041 1.434.009.027-.036.044-.072.035-.83-.364-.604-1.281-.576-1.38l-.49.062c-.286.039-.674.619-.584 1.184.117.646 1.162.787 1.327.8M3.863 6.204c.072-.009.135.045.153.117.02.077-.036.143-.108.161a.133.133 0 0 1-.16-.115c-.01-.081.052-.154.115-.163" clip-rule="evenodd"/><path fill="#D9D9D9" d="M21.704 6.437h-2.543v-.995h2.543c.12 0 .223.09.223.215v.565a.216.216 0 0 1-.223.215M17.13 7.99v.187c0 .162-.126.278-.297.278h-.321l2.402 7.183a.13.13 0 0 1-.008.125q.056.017.106.054l.216.152c.17.117.215.34.107.511-.045.072-.09.135-.125.135h-1.067l.067-.147-.05.049a.15.15 0 0 1-.116.045h-.96c-.071 0-.125-.045-.152-.108l-2.937-7.999h-.633s0-.054.003-.079c.004-.025.045-.19.097-.28a.3.3 0 0 1 .066-.082.1.1 0 0 1 .063-.011c.347.006 2.202.002 3 0 0 0 .101-.006.15-.018zM4.691 15.32a19 19 0 0 0 2.121-.128l.03.411s1.066-.175.836-.028c-.23.148-3.85.316-4.08.189s.848-.045.848-.045l-.043-.413q.135.015.288.014"/><path fill="#D9D9D9" fill-rule="evenodd" d="M13.797 3.032H2.447l-.048-.086a1.8 1.8 0 0 1 .523-.564.24.24 0 0 1 .143-.045h.413V1.79a.135.135 0 0 1 .269 0v.547h11.762a.31.31 0 1 1 .267.004.2.2 0 0 1 .05.005c.135 0 .242.116.242.242v1.564c-.001.274-.157.38-.272.42l-.742.025h-.751a.2.2 0 0 0-.1.029l-.277.009a4 4 0 0 0-.037-.348l-.002-.017-.002-.013zm1.85-1.057a.084.084 0 1 0 0 .168.084.084 0 0 0 0-.168" clip-rule="evenodd"/><path fill="#D9D9D9" d="M10.504 5.065H6.475v-.547a.135.135 0 0 0-.269 0v.547h-.412a.24.24 0 0 0-.144.045 1.7 1.7 0 0 0-.522.565l.047.085H6.82c.12-.205.279-.347.415-.365l.49-.063c-.01.04-.054.212-.047.428h.416a.66.66 0 0 1 .32-.517l.848-.108c.32-.041.463.098.609.239l.042.04a.8.8 0 0 1 .123.325v.021h.234l.005-.16c.02-.101.075-.364.229-.535m-.244 1.058h-.246a10 10 0 0 1-.091.703c-.066.538-1.72.57-1.944.552-.165-.013-1.21-.154-1.327-.8a1.2 1.2 0 0 1 .022-.456H4.958a1.4 1.4 0 0 0-.025.262 1 1 0 0 1-.036.267 1.4 1.4 0 0 1-.334-.179 1 1 0 0 1-.198-.196c-.054-.305-.296-.502-.565-.457-.26.036-.43.305-.385.592s.296.484.556.448a1 1 0 0 0 .134-.045.7.7 0 0 1 .218.077c.084.046.179.115.294.222a1.5 1.5 0 0 1-.186.158.25.25 0 0 0-.08.092.29.29 0 0 0 .152.393c.31.112.634.287.756.565.042.096.06.22.042.34l-.024.147c-.133.733-.447 1.464-.51 1.61q-.015.032-.069.126c-.044.078-.104.183-.165.3a9 9 0 0 0-.532 1.264 6 6 0 0 0 .714-.122.18.18 0 0 0 .112-.11.2.2 0 0 0 .01-.052.14.14 0 0 0-.014-.071c-.045-.108-.09-.27-.027-.53l.843-3.416s.17-.743 1.22-.429c1.004.296 2.412.326 3.29-.23.072-.045.09-.184.09-.265z"/><path fill="#D9D9D9" fill-rule="evenodd" d="M3.597 12.15c-.51.047-1.1.078-1.635.078-.654 0-.918-.22-1.018-.439a.76.76 0 0 1-.043-.375l.003-.056c0-1.311.57-2.608.9-3.242.062-.118.121-.223.165-.3l.07-.127c.062-.145.376-.877.509-1.61l.024-.146a.6.6 0 0 0-.042-.34c-.121-.278-.446-.454-.756-.566-.198-.072-.251-.359-.072-.484q.097-.07.186-.158c-.225-.211-.374-.274-.512-.3a1 1 0 0 1-.134.045c-.26.036-.511-.161-.556-.448s.125-.556.385-.592c.27-.045.512.153.565.457.146.2.372.315.532.375a1 1 0 0 0 .036-.267q.001-.139.026-.262l11.229.002.062.88q0 .019.01.072c.01.075.029.197.034.355H6.839v-.184a.498.498 0 0 0-.996 0v.184h-.05a.7.7 0 0 0-.176.025.7.7 0 0 0-.168.08c-.146.097-.43.329-.636.686 0 0-.121.177-.154.264s-.033.168-.033.168c-.162-.313-.487-.53-.88-.466-.503.072-.76.568-.69 1.008.07.457.481.816.96.753a.65.65 0 0 0-.05.372.65.65 0 0 0 .413.506c.139.05.266.11.367.178.101.07.155.135.18.19a.26.26 0 0 1 .015.142l-.022.135c-.124.68-.417 1.371-.484 1.526l-.053.096a9.4 9.4 0 0 0-.785 1.786M1.134 3.476c.072-.01.135.045.153.116.02.078-.036.144-.108.162a.133.133 0 0 1-.16-.116c-.01-.08.052-.153.115-.162" clip-rule="evenodd"/><path fill="#D9D9D9" d="m14.545 8.006 1.64 4.904a.13.13 0 0 1-.008.124q.056.018.106.054l.216.153c.17.116.215.34.107.51-.045.072-.09.135-.125.135h-.492l-1.994-5.43h-.634s.001-.06.005-.085l.008-.035c.016-.061.049-.173.087-.24l.003-.005a.24.24 0 0 1 .064-.076c.01-.007.03-.014.063-.012.142.002.51.003.954.003"/><path fill="#D9D9D9" d="m13.915 6.123.508 1.52c-.386 0-.697-.002-.818-.004a.44.44 0 0 0-.281.075.6.6 0 0 0-.178.2 1 1 0 0 0-.096.227c-.013.042-.047.188-.047.188l-.035 1.283c0 .08-.018.22-.09.265q-.035.023-.072.043l-.148-.403c.07-.435.107-.863.107-1.049a.6.6 0 0 0-.035-.146 1 1 0 0 0-.066-.148l-.023-.032-.041-.04c-.137-.131-.272-.262-.551-.244l-.637-1.735zm-.121-.363h-2.515l-.013-.033h-.633s0-.054.003-.08a1.2 1.2 0 0 1 .097-.28.3.3 0 0 1 .066-.081c.01-.007.03-.014.063-.012.347.007 2.202.002 3 0 0 0 .101-.006.15-.018l.388.005v.188c0 .161-.125.278-.296.278h-.321z"/><path fill="#D9D9D9" d="m12.384 8.772-.197-.537.01.005a.7.7 0 0 1 .15.124l.013.013a1 1 0 0 1 .041.112 4 4 0 0 1-.017.283m.549 1.494a3 3 0 0 0 .14-.082.55.55 0 0 0 .229-.332 1 1 0 0 0 .03-.234l.022-.799h.387l1.86 5.067h-.187l.067-.147-.05.05a.15.15 0 0 1-.116.044h-.96c-.071 0-.125-.044-.152-.107zM3.375 13.02c-1.093.063-2.373.089-2.507.015-.23-.127.849-.044.849-.044l-.043-.413q.135.014.288.014c.491 0 1.034-.026 1.526-.067q-.065.24-.113.495m.382-.025q.056-.26.126-.508l.2-.023.03.41s1.066-.174.836-.027c-.08.051-.574.105-1.192.148M7.74 6.122c.078.227.241.45.562.591.036.009.08-.009.072-.036a2.2 2.2 0 0 1-.244-.555zm8.692-2.413h2.543c.13 0 .223-.099.223-.215v-.565a.216.216 0 0 0-.223-.216h-2.543z"/></svg>