<svg xmlns="http://www.w3.org/2000/svg" width="38" height="17" fill="none" viewBox="0 0 38 17"><path fill="#D9D9D9" d="M33.75 1.879 22.713 5.897l.141.163-.141.191.141.193-.141.214.192.238-.192.17 12.628 4.473-3.969-3.928 5.724-1.444-6.692-1.016zM7.627 5.299l-.372-.321a.35.35 0 0 0-.228-.085h-.208c-.043 0-.059.065-.059.124V5.3h.268l.08.08q.052.054.074.13l.125-.003a.3.3 0 0 1 .057-.108l.08-.1zm-2.435 2.03q.097.1.196.159l-.16.588a.3.3 0 0 0-.01.08c-.262-.039-.522.01-.81.116-.105.04-.187-.018-.226-.058-.046-.048-.102-.165-.025-.257l.04-.05.046-.007a.01.01 0 0 0 .006-.007l-.002-.05.009-.011.043-.008a.01.01 0 0 0 .006-.007v-.051l.008-.012.04-.007.005-.007-.004-.047.008-.011.043-.006a.01.01 0 0 0 .006-.008l-.01-.05.01-.015.043-.003a.01.01 0 0 0 .006-.008l-.012-.055.007-.012.04-.01.005-.007-.01-.05.008-.017.038-.005a.01.01 0 0 0 .005-.009l-.013-.049q.03-.06.06-.13c.03-.071.139-.107.22-.074z"/><path fill="#D9D9D9" fill-rule="evenodd" d="M4.033 8.444c-.193.084-.318.168-.318.222 0 .16.185.286.3.286l1.183.017c.376 0 .746.209.936.5.17.26.242.621.17.95l-.06.01c-.109.387-.253.719-.432 1.13-.089.206-.187.431-.293.693-.406.997-.54 1.557-.555 2.486 0 .045.035.082.08.084l.225.008v.018h-.245a.014.014 0 0 0-.014.013v.23q0 .007.005.011a2.2 2.2 0 0 0 .569.349h2.779q.336.001.618-.01a4 4 0 0 0 .81-.108.04.04 0 0 0 .029-.053l-.19-.541a.96.96 0 0 1-.031-.523l.517-2.374a.99.99 0 0 1 .97-.777l.303.049c.132.023 1.052.017 1.835.004a.19.19 0 0 0 .188-.208l-.005-.06c-.1-.807-.021-1.194.539-1.783l.3-.026a.014.014 0 0 0 .013-.013l.014-.33h.342v.32q.002.012.014.013h.303a.014.014 0 0 0 .014-.013v-.32h.43v.32q.002.012.014.013h.304a.014.014 0 0 0 .013-.013v-.32h.43v.32q.002.012.014.013h.304a.014.014 0 0 0 .014-.013v-.32h.43v.32q.001.012.014.013h.303a.014.014 0 0 0 .014-.013v-.32h.43v.32q.001.012.014.013h.303a.014.014 0 0 0 .014-.013v-.32h.43v.32q.001.012.014.013h.303a.014.014 0 0 0 .014-.013v-.32h.43v.32q.001.012.014.013h.303a.014.014 0 0 0 .014-.013v-.32h.43v.32q.001.012.014.013h.303a.014.014 0 0 0 .014-.013v-.32h.43v.32q.002.012.014.013h.304a.014.014 0 0 0 .013-.013v-.582H5.504l-.03-.001-.357-.018c-.183-.015-.377.021-.615.11a.47.47 0 0 1-.47-.083m6.588.693c-.25.261-.21.82-.054 1.163l.023.046a.16.16 0 0 0 .056.058c.045.03.079.076.093.13a.16.16 0 0 0 .036.074.83.83 0 0 0 .604.259h1.352a.37.37 0 0 0 .371-.371v-.61q-.002-.209-.096-.419a.2.2 0 0 0-.072-.08l-.006-.004-.005-.004a.18.18 0 0 1-.065-.118.24.24 0 0 0-.034-.102l-.045-.057c-.164-.202-.4-.323-.733-.323H11.6a2 2 0 0 0-.264.052c-.326.553-.307 1.288.118 1.727.032.034.03.061.015.078q-.019.024-.08.011c-.322-.075-.65-.354-.737-.603-.113-.327-.083-.55-.03-.907" clip-rule="evenodd"/><path fill="#D9D9D9" d="M20.43 8.165h.876v.258l.27-.018a.08.08 0 0 0 .072-.054l.48-1.046a.1.1 0 0 0 .01-.035l.071-.442V5.622a.055.055 0 0 0-.055-.055h-.276l-.008-.247c.003-.03-.027-.09-.066-.13a.16.16 0 0 0-.155-.03l-.588.273a.04.04 0 0 0-.024.037v.097h-.151l-.025.004-.145.044-.024.004h-.47a.014.014 0 0 0-.015.014v.162a.034.034 0 0 1-.033.034h-.363a.034.034 0 0 1-.034-.034v-.162a.014.014 0 0 0-.014-.014h-.303a.014.014 0 0 0-.014.014v.162a.034.034 0 0 1-.034.034h-.362a.034.034 0 0 1-.034-.034v-.162a.014.014 0 0 0-.014-.014H18.7a.014.014 0 0 0-.014.014v.162a.034.034 0 0 1-.034.034h-.362a.034.034 0 0 1-.034-.034v-.162a.014.014 0 0 0-.014-.014h-.303a.014.014 0 0 0-.014.014v.162a.034.034 0 0 1-.034.034h-.362a.034.034 0 0 1-.034-.034v-.162a.014.014 0 0 0-.014-.014h-.303a.014.014 0 0 0-.014.014v.162a.034.034 0 0 1-.034.034h-.363a.034.034 0 0 1-.033-.034v-.162a.014.014 0 0 0-.014-.014h-.303a.014.014 0 0 0-.014.014v.162a.034.034 0 0 1-.034.034h-.363a.034.034 0 0 1-.033-.034v-.162a.014.014 0 0 0-.014-.014h-.303a.014.014 0 0 0-.014.014v.162a.034.034 0 0 1-.034.034h-.363a.034.034 0 0 1-.034-.034v-.162a.014.014 0 0 0-.013-.014h-.304a.014.014 0 0 0-.013.014v.162a.034.034 0 0 1-.034.034h-.363a.034.034 0 0 1-.034-.034v-.162a.014.014 0 0 0-.014-.014h-.403a.56.56 0 0 1-.29-.112.05.05 0 0 0-.027-.01H11.86v.897a.15.15 0 0 0 .047.105c.031.032.058.038.061.039h8.176c.158 0 .285.128.285.285z"/><path fill="#D9D9D9" d="m11.57 5.418-.01-.002H8.993l-.01.001-.568.142a.3.3 0 0 1-.081.01h-.76a.03.03 0 0 0-.004.032l.061.126a.03.03 0 0 1-.025.042l-.756.02a.03.03 0 0 1-.025-.046l.093-.137a.03.03 0 0 0-.004-.037h-.158a.06.06 0 0 0-.035.017c-.11.108-.718.708-.74.76l-.24.74a.007.007 0 0 0 .005.01l.02.004q.007.002.006.009L5.49 8.147a.015.015 0 0 0 .014.018h14.654V6.823a.015.015 0 0 0-.014-.014h-8.175c-.174 0-.38-.18-.38-.415v-.949a.03.03 0 0 0-.02-.027M6.04 15.722h2.323q.336.001.618-.01v.114l.875.006a.04.04 0 0 1 .04.041v.07a.04.04 0 0 1-.04.042h-.333a2.2 2.2 0 0 1-.518.044H6a.04.04 0 0 1-.04-.039v-.145a.04.04 0 0 1 .04-.039h.066l-.037-.024zM4.097 3.128l.372.32h-.182l-.082.1a.3.3 0 0 0-.056.108l-.125.003a.3.3 0 0 0-.075-.13l-.08-.08h-.267v-.282c0-.058.016-.124.059-.124h.207a.35.35 0 0 1 .229.085M2.23 5.638a1 1 0 0 1-.196-.159l-.383-.154c-.082-.034-.191.002-.222.073q-.03.07-.059.13l.013.05a.01.01 0 0 1-.005.008l-.038.006-.008.016.01.05a.01.01 0 0 1-.005.008l-.04.01-.007.012.012.054a.01.01 0 0 1-.006.008l-.043.003-.01.016.01.05a.01.01 0 0 1-.006.008l-.043.005-.008.012.004.046a.01.01 0 0 1-.006.007l-.04.007-.008.012v.052l-.005.006-.044.008-.009.012.002.05-.005.007-.046.006-.04.05c-.077.092-.022.21.025.257.039.04.12.098.226.059.288-.108.548-.156.81-.117q0-.04.01-.08z"/><path fill="#D9D9D9" d="M.874 6.594c-.192.084-.317.168-.317.222 0 .161.185.287.3.287l1.183.016c.376 0 .746.209.936.5.17.26.242.622.17.95l-.06.01c-.11.388-.253.719-.432 1.131-.09.205-.187.43-.293.692-.406.998-.541 1.558-.555 2.487 0 .044.035.081.08.083l.225.008v.018h-.245a.014.014 0 0 0-.014.014v.23q0 .006.005.01a2.2 2.2 0 0 0 .569.349H4.8c.088-.444.235-.88.467-1.45a24 24 0 0 1 .295-.698c.074-.17.14-.322.2-.468q.06-.144.11-.285l.028-.079.02-.06q.033-.1.063-.205l.05-.175.027-.003a1 1 0 0 0-.154-.561.88.88 0 0 0-.709-.377l-1.185-.016a.6.6 0 0 1-.366-.147.55.55 0 0 1-.203-.41c0-.052.013-.097.03-.134a.4.4 0 0 1 .09-.122 1 1 0 0 1 .15-.109q.07-.042.161-.084L3.86 8.16a.46.46 0 0 1 .044-.31l.045-.065.079-.099a2 2 0 0 0 .256-.422l.056-.123a.42.42 0 0 1 .255-.225.48.48 0 0 1 .308.004l.444.18.04.04a1 1 0 0 0 .078.072l.014-.054a.3.3 0 0 1 .005-.155l.135-.416H2.346l-.03-.002-.358-.017c-.182-.015-.376.02-.614.11a.47.47 0 0 1-.47-.084"/><path fill="#D9D9D9" d="m5.903 6.587-.162.5a.007.007 0 0 0 .006.01l.02.004q.006.002.005.009L5.49 8.148v.003q.001.014.014.015h1.814c-.067-.315-.044-.681.145-.879-.05.348-.08.567.022.88h.513a1.6 1.6 0 0 1 .18-1.185c.096-.025.187-.044.263-.053h.447c.332 0 .569.121.733.324l.044.057a.2.2 0 0 1 .035.101l.003.014c.007.04.03.078.062.104l.005.004.006.005c.028.023.057.046.072.08q.095.21.096.42v.128h.294c.06-.33.223-.605.55-.949l.3-.026a.014.014 0 0 0 .013-.012l.013-.33h.343v.32q.001.012.014.013h.303a.014.014 0 0 0 .014-.014v-.32h.43v.32q.002.013.014.014h.303a.014.014 0 0 0 .014-.014v-.32h.43v.32q.002.013.014.014h.303a.014.014 0 0 0 .014-.014v-.32h.43v.32q.002.013.014.014h.304a.014.014 0 0 0 .013-.014v-.32h.43v.32q.002.013.014.014h.304a.014.014 0 0 0 .013-.014v-.32h.43v.32q.001.013.015.014h.303a.014.014 0 0 0 .014-.014v-.32h.43v.32q.001.013.014.014h.303a.014.014 0 0 0 .014-.014v-.32h.43v.32q.001.013.014.014h.303a.014.014 0 0 0 .014-.014v-.32h.43v.32q.001.013.014.014h.303a.014.014 0 0 0 .014-.014V6.81H11.97c-.122 0-.26-.089-.331-.222zm5.687-.271H6.003c.035-.042.107-.117.192-.204a27 27 0 0 1 .525-.525.06.06 0 0 1 .04-.017h.153a.03.03 0 0 1 .004.037l-.092.137-.002.003a.03.03 0 0 0 .027.042l.749-.02h.006a.03.03 0 0 0 .028-.025q0-.007-.003-.016l-.06-.122-.001-.004a.03.03 0 0 1 .004-.032h.76a.3.3 0 0 0 .082-.01l.567-.142.01-.002h2.567a.03.03 0 0 1 .03.03zm6.873.222h-.315v-.222h-.877V5.62h.21q.012.001.013.014v.162c0 .019.015.034.034.034h.363a.034.034 0 0 0 .033-.034v-.162q.001-.013.014-.014h.303q.013.001.014.014v.162c0 .019.016.033.034.034h.363a.034.034 0 0 0 .034-.034v-.162q.001-.013.013-.014h.195l-.405.882a.1.1 0 0 1-.027.036m-8.25 1.899h-.268v.21a.37.37 0 0 1-.371.37H8.221a.83.83 0 0 1-.604-.259.16.16 0 0 1-.036-.073.23.23 0 0 0-.093-.13.16.16 0 0 1-.057-.058l-.028-.06H5.498l-.019-.001h-.004l-.358-.018a1.1 1.1 0 0 0-.35.028q-.123.03-.265.081a.47.47 0 0 1-.469-.083 2 2 0 0 0-.14.067 1 1 0 0 0-.103.064q-.074.053-.075.091c0 .141.142.255.255.281a.2.2 0 0 0 .045.006l1.183.016q.125 0 .245.03a1.2 1.2 0 0 1 .518.27q.102.09.173.2a1.2 1.2 0 0 1 .184.5c.022.15.02.306-.015.454l-.058.007c-.11.387-.254.718-.433 1.13l-.016.037-.106.248a24 24 0 0 0-.17.407c-.218.534-.357.942-.442 1.349h.127c.225 0 .428-.002.618-.01a4 4 0 0 0 .81-.108.04.04 0 0 0 .029-.053l-.19-.541a.96.96 0 0 1-.032-.522l.517-2.374a.99.99 0 0 1 .972-.778l.302.05c.132.023 1.052.016 1.835.003a.19.19 0 0 0 .188-.208L10.249 9a4 4 0 0 1-.037-.563m-5.183 5.435h.176c.225 0 .428-.002.618-.01v.114l.875.006c.022 0 .04.019.04.042v.07a.04.04 0 0 1-.04.041h-.333c-.16.037-.306.045-.518.045h-.855q.015-.159.037-.308m-.274 0q-.021.15-.035.308H2.84a.04.04 0 0 1-.038-.04v-.144a.04.04 0 0 1 .039-.04l.066.001-.037-.025.012-.06z"/><path fill="#D9D9D9" d="M7.645 8.437c.147.165.368.31.586.36q.06.014.08-.01c.015-.017.017-.045-.015-.078a1.2 1.2 0 0 1-.195-.272zm11.347-3.088h-.293a.29.29 0 0 0-.229.116.28.28 0 0 0-.229-.116h-.303a.28.28 0 0 0-.229.116.28.28 0 0 0-.229-.116h-.209v-.375a.286.286 0 0 0-.285-.286H8.81a.13.13 0 0 1-.063-.038.15.15 0 0 1-.046-.105v-.898h1.854q.015 0 .029.01a.56.56 0 0 0 .289.112h.403q.013.002.014.014v.162c0 .02.015.034.034.034h.363a.034.034 0 0 0 .033-.034v-.162q.001-.012.014-.014h.303q.013.002.014.014v.162c0 .02.015.034.034.034h.363a.034.034 0 0 0 .034-.034v-.162q.001-.012.013-.014h.304q.012.002.013.014v.162c0 .02.015.034.034.034h.363a.034.034 0 0 0 .034-.034v-.162q.001-.012.013-.014h.304q.012.002.013.014v.162c0 .02.016.034.034.034h.363a.034.034 0 0 0 .034-.034v-.162q.001-.012.013-.014h.304q.012.002.014.014v.162c0 .02.015.034.034.034h.362a.034.034 0 0 0 .034-.034v-.162q.001-.012.014-.014h.303q.013.002.014.014v.162c0 .02.015.034.034.034h.362a.034.034 0 0 0 .034-.034v-.162q.001-.012.014-.014h.303q.013.002.014.014v.162c0 .02.015.034.034.034h.362a.034.034 0 0 0 .034-.034v-.162q.001-.012.014-.014h.303q.013.002.014.014v.162c0 .02.015.034.034.034h.362a.034.034 0 0 0 .034-.034v-.162q.001-.012.014-.014h.47l.025-.003.145-.045.024-.003h.152V3.62q0-.025.024-.038l.588-.273a.16.16 0 0 1 .154.031c.04.039.07.1.067.13l.008.247h.276c.03 0 .055.024.055.055v1.206z"/><path fill="#D9D9D9" d="M17 5.41v-.436a.015.015 0 0 0-.014-.015H8.81c-.174 0-.38-.18-.38-.414v-.95a.03.03 0 0 0-.03-.029H5.836q-.006 0-.01.002l-.568.142a.3.3 0 0 1-.081.01h-.76a.03.03 0 0 0-.005.031l.062.126a.03.03 0 0 1-.026.042l-.755.02a.03.03 0 0 1-.025-.045l.092-.137a.03.03 0 0 0-.003-.037h-.158a.06.06 0 0 0-.035.016c-.11.108-.718.709-.74.76l-.24.74a.007.007 0 0 0 .005.01l.02.004q.007.002.006.01l-.282 1.037a.015.015 0 0 0 .014.019h3.36l.021-.067.006-.013a.5.5 0 0 1 .078-.112q.061-.068.125-.134l.19-.193.364-.363a4 4 0 0 1-.002-.28l.001-.136a.5.5 0 0 1 .032-.184c.023-.056.105-.212.298-.212h.208a.62.62 0 0 1 .405.151l.61.526h.292l.016-.002.567-.142a.3.3 0 0 1 .076-.01h2.567a.3.3 0 0 1 .205.081h1.95c.08 0 .148.03.198.07l.021.015a.4.4 0 0 0 .1.038h.402c.094 0 .177.045.229.116l.03-.035a.28.28 0 0 1 .198-.081h.304c.094 0 .177.045.229.116a.28.28 0 0 1 .229-.116h.303c.094 0 .177.045.229.116a.3.3 0 0 1 .039-.043.3.3 0 0 1 .19-.073h.303c.094 0 .177.045.229.116A.3.3 0 0 1 17 5.41"/><path fill="#D9D9D9" d="M17 5.83h-.233a.034.034 0 0 1-.034-.034v-.162a.014.014 0 0 0-.014-.014h-.303a.014.014 0 0 0-.014.014v.162a.034.034 0 0 1-.034.034h-.362a.034.034 0 0 1-.034-.034v-.162a.014.014 0 0 0-.014-.014h-.303a.014.014 0 0 0-.014.014v.162a.034.034 0 0 1-.034.034h-.362a.034.034 0 0 1-.034-.034v-.162a.014.014 0 0 0-.014-.014h-.303a.014.014 0 0 0-.014.014v.162a.034.034 0 0 1-.034.034h-.363a.034.034 0 0 1-.034-.034v-.162a.014.014 0 0 0-.013-.014h-.404a.56.56 0 0 1-.289-.112.05.05 0 0 0-.028-.011H11.86v.819H17zM4.362 7.682l-.007.012.003.047-.004.006h-.001l-.04.008-.003.005-.005.007v.051l-.005.007-.044.008-.003.004-.006.008.002.05-.006.006-.045.006-.041.05c-.076.093-.021.21.025.258.037.037.11.09.207.064l.019-.006c.252-.094.483-.142.712-.127q.05.004.098.01v-.004q0-.037.01-.076l.16-.588a1 1 0 0 1-.187-.15h-.002l-.003-.004-.004-.004-.383-.155a.2.2 0 0 0-.074-.012c-.064.002-.126.035-.148.086l-.058.13.013.05a.01.01 0 0 1-.006.008l-.038.005-.003.008-.005.009.01.05a.01.01 0 0 1-.005.008l-.04.009-.003.005-.003.007.011.054a.01.01 0 0 1-.006.008l-.043.004-.01.016.001.003.01.046q0 .007-.007.008zM6.76 5.3v-.282l.001-.023c.004-.052.02-.102.058-.102h.208a.35.35 0 0 1 .228.085l.372.321h-.182l-.081.1a.3.3 0 0 0-.056.107l-.126.004a.3.3 0 0 0-.075-.13l-.08-.08zm12.795-1.253L30.592.03l-3.346 3.272 1.275.194-6.04 2.199v-.071a.326.326 0 0 0-.327-.326h-.013a.5.5 0 0 0-.046-.16.5.5 0 0 0-.102-.14.4.4 0 0 0-.218-.108.46.46 0 0 0-.22.018l-.608.28a.3.3 0 0 0-.133.117l-.032.008-.118.037h-.442a.3.3 0 0 0-.158.047l-.51-.18.193-.17-.192-.238.141-.213-.141-.194.141-.19z"/><path fill="#D9D9D9" d="m22.21 6.156-1.515-.536.022-.004.052-.016.093-.028.024-.004h.152V5.47q0-.025.023-.038l.588-.273a.2.2 0 0 1 .092-.002.14.14 0 0 1 .063.033.3.3 0 0 1 .043.056.15.15 0 0 1 .024.073l.008.248h.275c.03 0 .055.025.055.055zm.27-.046.027-.036-.027-.032zm8.067-.937-2.333.588 3.969 3.929-9.388-3.326-.082-.112.142-.191-.142-.164L29.08 3.58l2.537.385-1.213 1.186z"/><path fill="#D9D9D9" d="m33.938 4.317-2.713.685-.243-.037.97-.95z"/></svg>