<svg xmlns="http://www.w3.org/2000/svg" width="32" height="17" fill="none" viewBox="0 0 32 17"><path fill="#D9D9D9" d="M29.114 9.972 21.99 6.92l.39-.45-.39-.505.315-.33-.315-.38 7.956-1.916-2.667 2.626 3.814.955-3.814 1.194zM5.234 4.689h-.355l-.156.364h-.436c-.273 0-.5.218-.49.5v1.65c.085-.037.209-.085.285-.108a.8.8 0 0 1 .205-.04h16.254v-.364h.355V5.417h-.363a.45.45 0 0 0-.406-.363l-.26-.274h-.336l-.046.273H5.234zm2.557 11.829-3.561-.405-.206.297s-.42.2.036.292c.455.09 3.367.273 3.367.273s.364-.091.364-.364z"/><path fill="#D9D9D9" fill-rule="evenodd" d="M4.185 7.444a1 1 0 0 1 .102-.025H20.36v.665c0 .154-.05.239-.096.287a.3.3 0 0 1-.097.068h-.186a.28.28 0 0 0-.258-.182h-.273a.27.27 0 0 0-.257.182h-3.457s-.065 0-.133.035a1.15 1.15 0 0 0-.4.35c-.165.226-.303.567-.303 1.07 0 .886.157 1.267.21 1.374l-3.781.001a2.6 2.6 0 0 0-.556-.192c-.285-.06-.66-.077-.97.132l-.067.05c-.22.18-.309.451-.342.693-.036.269-.008.54.02.712a.07.07 0 0 1-.03.068 1.5 1.5 0 0 0-.562.549 1.7 1.7 0 0 0-.123.416 1 1 0 0 0-.005.325c.011.07.035.144.079.211-.191.096-.463.324-.601.792-.075.272-.049.549.006.782.036.152.086.29.134.404l-4.443-.505-.635-.434c-.037-.057-.085-.175-.072-.405.027-.47.305-1.358 1.335-2.982 1.002-1.588 1.126-2.605.9-3.255a1.44 1.44 0 0 0-1.033-.937 3 3 0 0 1-.368-.07 1 1 0 0 1-.137-.041c.071-.032.242-.112.327-.138m6.81 2.041.1-.19c.009-.02.009-.037.009-.055 0-.03 0-.082.004-.143l-.003-.008-.001-.004.005-.01.001-.026c-.589.273-.589.6-.589.6v.41c0 .546.91 1.037.91 1.037h2.458s.728.055.728-1.22c0-1.273-.728-1.182-.728-1.182-.848-.023-1.483.026-1.957.112q.001.082-.01.188c-.052.523.077.896.195 1.118.244.116.97.474.588.474a.6.6 0 0 1-.246-.06c.052.08.025.152-.3.106-.354-.05-.64-.524-.825-.934l-.248-.04a.12.12 0 0 1-.091-.173" clip-rule="evenodd"/><path fill="#D9D9D9" d="M2.505 2.324H2.15l-.156.364h-.436c-.273 0-.5.218-.491.5v1.65c.086-.038.21-.085.286-.108a.8.8 0 0 1 .205-.04h2.686l.043-.001h.196l.156-.364h.959v.364h12.214v-.363h.355V3.052h-.363a.45.45 0 0 0-.406-.363l-.26-.274h-.336l-.046.273H2.505z"/><path fill="#D9D9D9" d="M5.234 4.69v-.001h-.355v.001zm-.984.364h13.38v.665c0 .154-.05.239-.096.286a.3.3 0 0 1-.097.069h-.186a.28.28 0 0 0-.258-.182h-.273a.27.27 0 0 0-.257.182h-3.457s-.065 0-.133.034c-.076.04-.244.14-.4.35a1.5 1.5 0 0 0-.257.597h-.367c-.15-.794-.69-.727-.69-.727-.847-.023-1.482.027-1.956.113q.001.082-.01.188a2.3 2.3 0 0 0-.003.426H8.3l.066-.126c.009-.018.009-.036.009-.055 0-.029 0-.08.004-.142l-.003-.009-.001-.003.005-.01.001-.026c-.268.124-.415.26-.494.37h-3.6a.5.5 0 0 0-.127.02l-.079.021c-.076.023-.2.07-.285.108v-1.65a.485.485 0 0 1 .453-.499"/><path fill="#D9D9D9" d="M3.582 5.054H1.558a1 1 0 0 0-.102.025c-.07.02-.195.078-.278.115l-.049.022q.06.022.137.042c.158.04.324.064.367.07a1.44 1.44 0 0 1 1.033.937c.227.65.103 1.667-.9 3.255C.738 11.143.46 12.032.433 12.502c-.013.23.035.348.071.404l.636.435 2.019.23c.216-.498.544-1.115 1.03-1.88.982-1.556 1.035-2.45.864-2.941a1.08 1.08 0 0 0-.741-.696c-.046-.007-.23-.033-.407-.079a2 2 0 0 1-.172-.052l-.27-.1-.03-.45V5.557a.84.84 0 0 1 .15-.504m-.193 8.91 1.672.19v.092c0 .273-.364.365-.364.365s-.709-.045-1.482-.1c.037-.155.092-.336.174-.547m-.373-.043a4 4 0 0 0-.168.562c-.675-.05-1.323-.106-1.518-.146-.455-.09-.036-.29-.036-.29l.206-.298z"/><path fill="#D9D9D9" d="M3.537 13.613c.205-.454.51-1.021.959-1.728 1.002-1.588 1.125-2.605.9-3.255a1.44 1.44 0 0 0-1.033-.937l-.052-.008-.056-.008a3 3 0 0 1-.26-.054 1 1 0 0 1-.137-.042l.049-.022.118-.052c.06-.026.12-.05.16-.063a1 1 0 0 1 .1-.025h3.507v.274c0 .546.91 1.038.91 1.038h2.458s.728.054.728-1.22q0-.047-.002-.092h.286l-.002.11c0 .644.083 1.02.148 1.22q-.21.024-.387.057l-.001.097H8.599a2.6 2.6 0 0 0-.556-.19c-.285-.061-.66-.079-.97.13l-.067.05c-.22.181-.309.452-.342.694-.036.269-.008.539.02.712a.07.07 0 0 1-.03.068 1.5 1.5 0 0 0-.562.548c-.022.044-.092.22-.123.417a1 1 0 0 0-.005.325c.011.07.035.144.079.211-.192.096-.463.324-.601.792-.075.272-.049.548.006.781.036.152.086.291.134.405z"/><path fill="#D9D9D9" d="M9.257 7.42h-.613c.185.387.457.8.786.847.325.046.352-.026.3-.107a.6.6 0 0 0 .247.061c.381 0-.345-.358-.589-.474a1.7 1.7 0 0 1-.131-.328m12.562-1.801-.023.023-.536-.23v-.358h-.49a.8.8 0 0 0-.46-.335l-.286-.302h-.642l.269-.31-.39-.506.315-.329-.315-.382L27.217.975 24.55 3.6l1.351.339-4.562 1.098zm-1.896-.779-.056-.06h-.081z"/><path fill="#D9D9D9" d="m26.385 7.608-4.232-1.814.152-.158-.315-.382 4.674-1.125 1.7.426L24.55 5.75z"/></svg>