<svg xmlns="http://www.w3.org/2000/svg" width="35" height="25" fill="none" viewBox="0 0 27 17"><path fill="#d9d9d9" d="m23.647 4.968 2.168-3.042-2.829 1.132-.468-2.777-1.874 4.992c.867.337 1.358 1.68.545 2.473l3.921 2.404-1.74-3.151 3.306-1.309z" style="stroke-width:.801201"/><g style="fill:#d9d9d9;fill-opacity:1;stroke:none"><g style="fill:#d9d9d9;fill-opacity:1;stroke:none;stroke-opacity:1"><path d="M768.813-391.93s-1.926-.247-3.133.96-1.164 2.598-1.164 2.598m-.438 0h.875v1.591h-.875z" style="fill:#d9d9d9;fill-opacity:1;stroke:none;stroke-width:1.1;stroke-linecap:round;stroke-linejoin:round;stroke-miterlimit:5;stroke-dasharray:none;stroke-opacity:1;paint-order:fill markers stroke" transform="matrix(-.11086 -.43571 -.44359 .08686 -81.642 380.696)"/></g><g style="fill:#d9d9d9;fill-opacity:1;stroke:none"><path d="M775.045-423.566s-.099 1.4.023 2.255c.122.857.711 1.612.711 1.612s-1.658 2.644-2.693 8.864c-1.036 6.219-.625 19.194-.625 19.194h-2.799s-.71-14.152.868-21.991c1.58-7.84 4.515-9.934 4.515-9.934" style="fill:#d9d9d9;fill-opacity:1;stroke:none;stroke-width:1.1;stroke-linecap:square;stroke-linejoin:miter;stroke-miterlimit:5;stroke-opacity:1;paint-order:fill markers stroke" transform="matrix(-.11086 -.43571 -.44359 .08686 -81.14 380.598)"/><path d="M772.118-390.405h-2.136s-.53 1.056-.48 2.616c.052 1.56.787 6.73.787 6.73h1.522s.653-5.17.704-6.73-.397-2.616-.397-2.616" style="fill:#d9d9d9;fill-opacity:1;stroke:none;stroke-width:1.1;stroke-linecap:round;stroke-linejoin:round;stroke-miterlimit:5;stroke-opacity:1;paint-order:fill markers stroke" transform="matrix(-.11086 -.43571 -.44359 .08686 -81.14 380.598)"/><path d="M771.65-409.455s-.262 1.738-.377 7.408c-.115 5.669.035 9.92.035 9.92h-.608s-.168-4.607-.06-9.89c.107-5.282.41-7.438.41-7.438s.033-.302.332-.302.269.302.269.302" style="fill:#d9d9d9;fill-opacity:1;stroke:none;stroke-width:.680184;stroke-linecap:square;stroke-miterlimit:5;paint-order:fill markers stroke" transform="matrix(-.11086 -.43571 -.44359 .08686 -81.14 380.598)"/><path d="M768.813-391.64h4.498v1.686h-4.498z" style="fill:#d9d9d9;fill-opacity:1;stroke:none;stroke-width:1.1;stroke-linecap:square;stroke-linejoin:round;stroke-miterlimit:5;stroke-dasharray:none;stroke-opacity:1;paint-order:fill markers stroke" transform="matrix(-.11086 -.43571 -.44359 .08686 -81.14 380.598)"/><g style="fill:#d9d9d9;fill-opacity:1;stroke:none;stroke-opacity:1"><path d="M768.813-391.93s-1.926-.247-3.133.96-1.164 2.598-1.164 2.598m-.438 0h.875v1.591h-.875z" style="fill:#d9d9d9;fill-opacity:1;stroke:none;stroke-width:1.1;stroke-linecap:round;stroke-linejoin:round;stroke-miterlimit:5;stroke-dasharray:none;stroke-opacity:1;paint-order:fill markers stroke" transform="matrix(.11086 .43571 .44359 -.08686 95.102 -359.31)"/></g><g style="fill:#d9d9d9;fill-opacity:1;stroke:none" transform="matrix(-.11086 -.43571 -.44359 .08686 -81.14 380.598)"><ellipse cx="-771.00928" cy="-379.97137" rx="2.0579753" ry="1.5902536" style="fill:#d9d9d9;fill-opacity:1;stroke:none;stroke-width:1.1;stroke-linecap:round;stroke-linejoin:round;stroke-miterlimit:5;stroke-dasharray:none;stroke-opacity:1;paint-order:fill markers stroke" transform="scale(-1 1)"/><path d="M769.499-382.735h3.068l-.148 1.246h-2.75z" style="fill:#d9d9d9;fill-opacity:1;stroke:none;stroke-width:1.1;stroke-linecap:round;stroke-linejoin:round;stroke-miterlimit:5;paint-order:fill markers stroke"/></g></g></g></svg>