<svg xmlns="http://www.w3.org/2000/svg" width="29" height="16" fill="none" viewBox="0 0 29 16"><g fill="#D9D9D9" clip-path="url(#a)"><path d="M16.654 7.976c-1.276-.774-1.76-.77-2.78-.778h-7.82c-.311-.001-.429-.114-.405-.259a1.26 1.26 0 0 0-.152-.77c-.028-.072.013-.171.17-.17L13.292 6c.87 0 1.668-.36 2.303-.786-.638-.426-1.42-.769-2.349-.777H5.062c-.216-.009-.43-.025-.735-.456-.199-.375-.643-.779-1.634-.737-.865.037-1.529.905-1.269 1.954.055.545-.253.524-.31.09-.127-.923-.72-.75-.773-.387-.49 2.135-.418 4.3 0 6.214.083.353.62.594.776-.41.052-.288.323-.52.287.178-.047.544-.047.833.194 1.207.172.267.29.449.95.655.484.152 1.474.087 1.872-.911.056-.164.245-.27.536-.272l8.314.018c.898-.017 1.711-.343 2.383-.799-.88-.628-1.54-.742-2.383-.778l-7.449-.001c-.16-.002-.37-.037-.277-.247.09-.182.113-.36.121-.598 0-.083-.031-.38.385-.396l7.823-.001c.99.009 1.77-.075 2.78-.785M5.024 9.15a.95.95 0 1 1-1.899 0 .95.95 0 0 1 1.9 0m-.002-2.292a.95.95 0 1 1-1.9 0 .95.95 0 0 1 1.9 0M3.926 4.783a.95.95 0 1 1-1.9 0 .95.95 0 0 1 1.9 0m-.01 6.464a.95.95 0 1 1-1.9 0 .95.95 0 0 1 1.9 0M2.697 8.01c0 .055-.03.108-.084.14a1 1 0 0 0-.094.071c-.293.304-.336.749-.245 1.275.03.124-.033.143-.099.122-.99-.204-1.02-1.117-1.008-1.653.011-.53.012-1.38.986-1.574.14-.034.14.031.126.101-.072.458-.102.95.24 1.295.03.025.063.05.09.067.061.041.09.1.088.156"/><path d="M16.508 5.304c1.373 2.058 1.398 3.234 0 5.37L20.975 16v-4.534l5.873 2.477-3.709-4.81 5.795-2.695-7.07-.695L26.645.44l-6.378 3.622V0z"/></g><defs><clipPath id="a"><path fill="#fff" d="M0 0h28.935v16H0z"/></clipPath></defs></svg>