<svg xmlns="http://www.w3.org/2000/svg" width="50" height="17" fill="none" viewBox="0 0 50 17"><path fill="url(#a)" d="m42.35 4.211 2.991-2.35-4.87 1.283L42.806.695 34.247 4.92l.521.396-.52.496.52.55-.52.537 9.223 4.144-3.194-3.211 5.064 1.346-3.443-2.562 4.717-.51z"/><path fill="url(#b)" d="m42.35 4.211 2.991-2.35-4.87 1.283L42.806.695 34.247 4.92l.521.396-.52.496.52.55-.52.537 9.223 4.144-3.194-3.211 5.064 1.346-3.443-2.562 4.717-.51z"/><path fill="#D9D9D9" d="m48.48 6.664 1.104-.796-1.108-.792v.175l-2.524-.001v.3h-.434v.64h.434v.3l2.523-.001zM13.178.434h.375c.052 0 .095.042.095.094v1.936a.396.396 0 0 1 0 .551v.726h.338v.654h-2.79V3.74h1.888v-.726a.393.393 0 0 1 0-.55V.527c0-.052.042-.094.094-.094m4.284 5.091h-3.188v.846h3.188z"/><path fill="#D9D9D9" fill-rule="evenodd" d="M18.286 4.61q.027.025.029.067v3.78h-.342c-.139-.119-.285-.217-.476-.217a.6.6 0 0 0-.38.138h-5.993a.33.33 0 0 0-.33.33v.25c0 .182.148.33.33.33h5.992a.6.6 0 0 0 .38.138c.193 0 .337-.098.477-.216h.342v.357l-.087.117h-.008v.224a.4.4 0 0 1-.012.101l-.344 1.398a.33.33 0 0 1-.32.25H15.01l.074-.188h2.46a.14.14 0 0 0 .137-.107l.344-1.398a.2.2 0 0 0 .007-.056v-.224H2.765a.58.58 0 0 0-.582-.582V6.288l3.929-1.705H18.22q.04.001.066.026m-.824.725h-3.188a.19.19 0 0 0-.188.189v.846c0 .104.084.188.188.188h3.188a.19.19 0 0 0 .188-.188v-.846a.19.19 0 0 0-.188-.189" clip-rule="evenodd"/><path fill="#D9D9D9" d="M18.503 9.21v.174h7.766V9.21zm11.712.174h-.364V8.27a.28.28 0 0 0-.282-.282H26.55a.28.28 0 0 0-.282.282v.187h-7.766V7.44h11.712zm0-2.464H18.503V4.974h11.712zm.26 3.676a.5.5 0 0 1-.072-.112V4.456h.84v5.65l-.002-.003.002.004v.377l-.013.027a.5.5 0 0 1-.097.125 3 3 0 0 0 0-.246.3.3 0 0 0-.016-.084v-.003a.3.3 0 0 0-.027-.06.272.272 0 0 0-.497-.091.33.33 0 0 0-.12.269 2 2 0 0 1 .002.175m.096-6.329h.504V.527a.094.094 0 0 0-.094-.093h-.316a.094.094 0 0 0-.094.094zm.86 2.653V4.974h.598l1.757-.183a.047.047 0 0 1 .052.047v2.216c0 .028-.024.05-.052.047l-1.757-.183zm0 .897v1.19h.337v-1.19zM16.42 9.873c-.429.46-.39.967.077 1.408h-1.34c.18-.46.362-.924.557-1.408zM2.182 9.29a.394.394 0 1 0 .003.787.394.394 0 0 0-.003-.787"/><path fill="#D9D9D9" d="M1.995 9.133a.58.58 0 0 0-.394.551h-.296a.19.19 0 0 1-.189-.188v-.57h-.56V7.373h.56v-.57c0-.104.085-.188.189-.188h.69zm.602.96a.6.6 0 0 0 .137-.22H6.97v.23c0 .13-.105.235-.235.235H2.833a.235.235 0 0 1-.236-.236zm12.913-.22h-2.188l-1.548 3.812a.5.5 0 0 1-.104.162l-.327.344a.047.047 0 0 0 .017.076l2.47.968c.087.035.165-.066.11-.142l-.33-.462v-.001c.455-1.072.825-2.018 1.198-2.973l.039-.1v-.002c.215-.548.43-1.1.664-1.682m-4.366 4.31a.23.23 0 0 1 .062-.122l.318-.336-1.84-.722-.838-1.23a7 7 0 0 0 .754 1.804zm-2.573-4.31h.376v.75l-.272.154a6 6 0 0 1-.02-.457.33.33 0 0 0-.084-.22zm-.858 0h.377v.216a.33.33 0 0 0-.094.23c0 .49.062.983.174 1.465l-.457-.67z"/><path fill="#D9D9D9" d="M9.89 14.791c-1.002-1.177-1.704-2.84-1.705-4.471a.141.141 0 0 1 .283 0 5 5 0 0 0 .028.559q.024.24.067.477c.13.724.39 1.434.739 2.075.232.428.504.825.804 1.178.968 1.137 2.195 1.766 3.3 1.47l.136-.04q.214-.064.433-.124.46-.128.93-.243c1.403-.344 2.874-.612 4.33-.85.69-.114 1.377-.22 2.051-.324 1.267-.196 2.49-.386 3.614-.601 1.726-.33 3.2-.718 4.229-1.273.91-.491 1.448-1.1 1.525-1.9a2 2 0 0 0 .008-.299v-.022a.141.141 0 0 1 .282-.004l.002.06v.079c-.007 1.036-.654 1.779-1.683 2.334-1.07.578-2.582.972-4.31 1.302-1.13.216-2.36.407-3.631.604a237 237 0 0 0-2.042.322c-1.95.319-3.916.69-5.704 1.223l-.055.016-.04.012-.088.022c-1.235.28-2.53-.439-3.502-1.582m8.424-6.146h-.428a.14.14 0 0 0-.078-.07.404.404 0 1 0 0 .515.14.14 0 0 0 .077-.068h8.383v-.377zm-1.348.454a.59.59 0 0 1 0-.532h-5.843a.14.14 0 0 0-.14.14v.25a.14.14 0 0 0 .14.142zm9.584-.923a.094.094 0 0 0-.094.094v1.6c0 .052.042.094.094.095h3.018a.095.095 0 0 0 .094-.094V8.27a.094.094 0 0 0-.094-.094z"/><defs><linearGradient id="a" x1="40.0739" x2="40.1019" y1="6.86751" y2="6.35054" gradientUnits="userSpaceOnUse"><stop stop-color="#D9D9D9"/><stop offset="1" stop-color="#D9D9D9" stop-opacity="0.2"/></linearGradient><linearGradient id="b" x1="40.4715" x2="40.4839" y1="5.00425" y2="5.51573" gradientUnits="userSpaceOnUse"><stop stop-color="#D9D9D9"/><stop offset="1" stop-color="#D9D9D9" stop-opacity="0.2"/></linearGradient></defs></svg>