<svg xmlns="http://www.w3.org/2000/svg" width="26" height="17" fill="none" viewBox="0 0 26 17"><path fill="#D9D9D9" d="M15.707 3.916c2.481 2.753 2.478 4.598 0 8.398l3.14 3.909-.334-5.02 4.68 1.11-3.538-4.209 6.183-1.355-6.183-1.33 4.704-2.598-5.513.494L21.042.223zM6.27 10.062H.432V5.533c2.841.004 5.243-.022 5.838-.114.344-.054.958-.165 1.727-.304l.008-.002h.002c2.946-.533 5.526-.719 6.478-.396 1.201.408.908 3.794.564 4.76-.176.494-.704.591-1.19.567v-.056h-.037a10 10 0 0 1-.492-.015 14 14 0 0 1-1.2-.107c-.445-.06-.902-.152-1.272-.288-.374-.137-.645-.314-.742-.536-.099-.227-.083-.508.021-.798s.297-.584.54-.833c.491-.502 1.172-.804 1.755-.559.299.125.41.274.433.416.022.147-.047.309-.164.466a2.4 2.4 0 0 1-.394.401 3 3 0 0 1-.205.155l-.016.01.056.086.006.009.018-.013.018-.013a3 3 0 0 0 .194-.147c.13-.106.29-.255.414-.421.122-.165.213-.358.184-.55-.03-.196-.184-.37-.5-.502-.647-.272-1.375.069-1.879.583a2.5 2.5 0 0 0-.565.874c-.11.306-.133.618-.018.88.117.269.428.46.805.598.382.14.847.232 1.296.293a14 14 0 0 0 1.645.122l.061.001h.037c.097.595-.24 1.868-1.1 1.868l-2.934-.215c-1.527-.254-2.275-.71-3.554-1.69"/></svg>