<svg xmlns="http://www.w3.org/2000/svg" width="68" height="17" fill="none" viewBox="0 0 68 17"><path fill="#D9D9D9" d="m21.677 4.008 28.508.183c.478 1.347 0 2.61 0 2.61l-1.67.025a.5.5 0 0 0-.142-.196l-.014-.012-.01-.008-.063-.044a1.1 1.1 0 0 0-.38-.135l-.043-.008-.017-.004-.029-.005-.02-.004-.065-.01-.2-.027-.024-.003H29.36v.205l-7.697.265c-.078-.1-.251-.472-.227-1.564l.01-.462-3.565.263-.202-.006a6 6 0 0 0-.522.016 5 5 0 0 0-1.538.342c-.222.092-.844.315-1.669.604-.262-.618.371-.774.371-.774s.207-.183.821-.12l.55.066c.098.01.176.016.218.011.056-.006.237-.062.33-.087.17-.044.394-.101.64-.161.218-.054.866-.179 1.615-.296 1.072-.168 2.349-.334 2.856-.374a.9.9 0 0 1 .326-.29"/><path fill="#D9D9D9" d="M16.88 5.536a4.5 4.5 0 0 0-1.1.281c-.32.132-1.411.517-2.74.977.04-.306.002-.597-.287-.619-.63-.045-.831.53-.831.53l-1.045.18c-.175.278-.757.795-.974.983-2.425.83-3.4 1.153-3.4 1.153s-5.03 2.08-5.722 6.073c0 0-.12 1.299 1.968 1.299s2.63-.869 2.63-.869 1.431-2.785 6.298-4.513a19 19 0 0 1 .681-.23 21 21 0 0 1 2.123-.55l.062-.013.107-.022.228-.044-.099.087c-.2.18-.408.385-.565.586-.079.1-.149.204-.2.308a.7.7 0 0 0-.083.335q.013.503.251.652l-.005-.004c.094.057.21.051.288 0a.27.27 0 0 0 .124-.236 1.3 1.3 0 0 1 .213-.75c.207-.331.64-.724 1.491-.995-.125.427-.121.787 0 1.13.103.463.283.762.56.885a.3.3 0 0 0 .163.022.25.25 0 0 0 .177-.124c.066-.12.01-.253-.068-.445a2.7 2.7 0 0 1-.2-.67c-.07-.488.087-.817.468-1.132l.124-.011.13-.011V5.49a6 6 0 0 0-.768.045m30.917 1.302q.147.03.224.064c.366.156-.297.35-.297.35-1.401.571-15.334 1.501-17.943 1.67V6.79h17.704a6 6 0 0 1 .273.04z"/><path fill="#D9D9D9" d="M12.28 11.248q-.165.054-.326.11l1.157 1.53c.054.064.2.213.315.277.232.129.55.226 1.142.232.717.006 2.653-.109 2.653-.109.191 0 .953-.302 1.123-.422.57-.4 1.03-.865 1.124-1.747.043-.404-.042-.735-.224-.99l-.71.023-.12.004c.127.129.235.25.279.301.097.115.173.292.14.595-.065.624-.443 1.024-.836 1.28a3 3 0 0 1-.28.157 2 2 0 0 1-.456.176c-.123.023-.409.03-.664.038a61 61 0 0 1-2.029.056c-.442 0-.718-.157-.842-.227-.146-.083-.766-.895-1.12-1.388q-.165.051-.326.104m17.08-2.299c-.651.415-7.927.688-10.443.77l-.43.014-.274.009-.146.004V5.49l2.949-.223-.002.08a9 9 0 0 0 .002.34c.046 1.766.661 1.572.661 1.572l7.683-.264zM63.977.393 51.503 4.115l.522.631-.522.936.522.675-.522.632 14.912 3.287-5.552-3.81 6.292-2.503-5.856-.806z"/></svg>