<svg xmlns="http://www.w3.org/2000/svg" width="37" height="17" fill="none" viewBox="0 0 37 17"><path fill="#D9D9D9" d="m19.086 6.09-.676.92.246 1.184V9.29a3.94 3.94 0 0 0-2.098 0V8.194h-1.65l.991-2.786h2.511l.246.218h.199a.58.58 0 1 1 .23.464m-1.478 3.448a3.55 3.55 0 0 1 2.512 1.041 3.56 3.56 0 0 1 .973 1.825h-6.97a3.556 3.556 0 0 1 3.485-2.866m3.553 3.603-.001-.095a4 4 0 0 0-.012-.254h-7.08a4 4 0 0 0-.012.276v.078q.003.124.013.25h7.079q.01-.127.012-.255m-7.036.642h6.969a3.56 3.56 0 0 1-2.126 2.596 3.55 3.55 0 0 1-3.87-.771 3.56 3.56 0 0 1-.973-1.825m22.191-.305L22.229 15.74c.55-2.547.465-3.88-.588-6.077L34.176.65l-5.911 7.798 5.366.21-3.899 3.73zM.056 14.786l12.93.957c-.552-2.548-.466-3.88.587-6.078L1.927 1.69l7.092 8.659L3.537 10l3.916 3.437z"/></svg>