<svg xmlns="http://www.w3.org/2000/svg" width="30" height="17" fill="none" viewBox="0 0 30 17"><path fill="#D9D9D9" d="m20.314 2.98-.861.38-.313.945-.452.783a3.25 3.25 0 0 0-1.497-.865l.452-.782-1.177-.68 1.855-1.58 1.792 1.035.085.257.142.082a.477.477 0 1 1-.026.426m-2.476 1.851a2.92 2.92 0 0 1 1.438 2.918 3 3 0 0 1-.132.563L14.171 5.44a2.93 2.93 0 0 1 3.667-.61m1.05 4.036.04-.067q.05-.092.095-.187l-5.051-2.916c-.04.059-.086.13-.123.191l-.031.056q-.05.09-.094.183l5.05 2.917q.06-.086.114-.177m-5.285-2.44 4.973 2.871a2.93 2.93 0 0 1-3.668.61 2.926 2.926 0 0 1-1.305-3.481M3.74 5.172h9.27v.34H3.74zM.459 6.771h10.804v.341H.46zM2.425 8.37h9.866v.34H2.425zm16.219 2.92c2.048-1.501 2.631-2.569 2.363-4.947l8.28-2.257-5.942 4.044 5.941 4.126-6.663-.703.722 4.61z"/></svg>