<svg xmlns="http://www.w3.org/2000/svg" width="39" height="17" fill="none" viewBox="0 0 39 17"><path fill="url(#a)" d="M22.535 5.674h5.444v.446h-5.444z"/><circle cx="28.2706" cy="5.89658" r="0.369239" fill="#D9D9D9"/><path fill="url(#b)" d="M25.7 6.697h5.443v.446H25.7z"/><circle cx="31.4347" cy="6.92002" r="0.369239" fill="#D9D9D9"/><path fill="url(#c)" d="M28.863 5.674h5.444v.446h-5.444z"/><circle cx="34.5987" cy="5.89658" r="0.369239" fill="#D9D9D9"/><path fill="url(#d)" d="M32.028 6.697h5.444v.446h-5.444z"/><circle cx="37.7638" cy="6.92002" r="0.369239" fill="#D9D9D9"/><path fill="#D9D9D9" d="M8.691.426H9.95l.312.21h.072v.14h-.038v.01h-.108v2.672a8 8 0 0 1-1.898-.017V1.127l.015-.014h.041V.777h-.038v-.14h.072z"/><path fill="#D9D9D9" d="M7.941 1.134V3.61h.07v.69h.239v-.21h.4v.21h.388v-.212h.4V4.3h.389v-.212h.4V4.3h.238v-.69h.07V1.134h1.36V3.61h.07v.587l.088.06v.337H6.437v-.328l.074-.056v-.6h.07V1.134zm-1.709.19h-.766v.031h-.314v-.221h-.257v.082L3.38.98H.739v2.709H3.38l1.514-.237v.082h.257v-.22h.314v.03h.766zm6.011 2.019h1.076l2.355.385h2.064V.94h-2.064l-2.355.384h-1.076zM8.03 4.942l3.438 3.245-.037.552v.453l.236.177h.795v-.212h.364v.212h.4v-.212h.39v.212h.4v-.212h.324v.212h.4l.249-.168V8.74l.096-.552-2.832-2.885a.5.5 0 0 1-.135-.27l-.013-.09h-1.27l2.435 2.203.034.032a.4.4 0 0 1 .076.1c.03.06.04.127.032.19a.35.35 0 0 1-.12.224.34.34 0 0 1-.218.078h-1.019a.32.32 0 0 1-.232-.097L9.599 5.415a.3.3 0 0 1-.086-.166v-.008a.32.32 0 0 1 .134-.3zm6.739 2.427.689.702-.072.414q.245-.012.432-.025c.108-.008.292-.034.292-.224 0-.023.022-.03.045-.037.023-.008.048-.016.054-.04a2.1 2.1 0 0 0 .062-.669l-.002-.121zm1.503-.349h-1.845l-1.41-1.436 2.299-.02.107-.27a.07.07 0 0 1 .067-.049h.195q.023 0 .039.018l.214.283h.016l.169-.004c.056 0 .093.032.116.079a.3.3 0 0 1 .018.049q.015.053.014.11v1.241m.349.209h5.742a.174.174 0 0 0 .174-.173V5.673a.174.174 0 0 0-.174-.174H16.62z"/><path fill="#D9D9D9" d="M9.726 7.02 8.26 5.639l-.838.008a.04.04 0 0 0-.02.006.03.03 0 0 1-.015.005h-.062c0-.028-.053-.044-.122-.044l-4.67-.01-.095-.333H2.17l-.142.333-.519-.001c-.14 0-.166.152-.166.206L1.335 7.02h4.397v.223h.258v-.136h1.198l.151-.087z"/><path fill="#D9D9D9" fill-rule="evenodd" d="m11.11 8.327-1.016-.958H7.432l-.15.087h-.944v.136h-.832l-.122-.127V7.37H1.333v.092c-.153 0-.183.16-.182.311s.104.192.155.197c.512.047.658.16.85.308.39.296.494.846.354 1.39-.164.634-.463 1.265-.683 1.728l-.028.059c-.062.13-.166.316-.291.541-.48.86-1.273 2.28-1.185 3.225.184.19.307.287.566.413a.3.3 0 0 0 .016.078c.019.046.055.068.119.076h.001c.101.009 3.009-.005 3.472-.06a.3.3 0 0 0 .056-.01l.002-.002c.214-.106.258-.285.236-.759l1.339-3.604c.192-.55.304-.597.441-.655a.44.44 0 0 1 .385 0l.207.102c.178.076.351.139.544.137l2.834-.026c.239.006.327-.073.25-.281-.085-.227-.173-.482-.173-.723v-.543c0-.316.195-.595.47-.718zm-1.667.291h-.394l-.27.052-.07.014a2 2 0 0 1-.204.034 1 1 0 0 1-.118.002h-.3c-.006.303.014.541.07.754a20 20 0 0 0 .58.623c.023.023.03.058.03.094q0 .046-.009.085c-.01.046-.056.072-.085.061l-.039-.015a.09.09 0 0 1-.014.109.1.1 0 0 1-.11.024c-.409-.165-.65-.311-.84-.602l-.12-.068-.017-.01-.015-.188-.453-.127.058-.102a1 1 0 0 1-.107-.08c-.18.303-.19.674.048.954a.95.95 0 0 0 .706.333h1.693c.44 0 .796-.357.796-.796v-.334a.816.816 0 0 0-.816-.817m-.71-.402.213.044-.025.065zm-.037.078.22.045-.014.036a.03.03 0 0 1-.04.018l-.15-.057a.03.03 0 0 1-.017-.04zm.207.032L8.7 8.285l.023-.063zm.03-.08-.203-.04.014-.04.143.054z" clip-rule="evenodd"/><path fill="#D9D9D9" d="M1.131 16.29c0-.03.022-.09.054-.152h.004l.399-.001a113 113 0 0 0 2.381-.034l.135-.005.084-.003a9 9 0 0 0 .347-.023l.052-.007a.6.6 0 0 1-.08.083c-.15.13-.375.247-.734.224l-2.504.054c-.104 0-.138-.085-.138-.136m10.882-8.921-1.736-1.761.803-.007L13 7.369z"/><defs><linearGradient id="a" x1="27.9791" x2="22.5352" y1="5.89667" y2="5.89667" gradientUnits="userSpaceOnUse"><stop stop-color="#D9D9D9" stop-opacity="0.5"/><stop offset="1" stop-color="#D9D9D9" stop-opacity="0"/></linearGradient><linearGradient id="b" x1="31.1432" x2="25.6992" y1="6.92011" y2="6.92011" gradientUnits="userSpaceOnUse"><stop stop-color="#D9D9D9" stop-opacity="0.5"/><stop offset="1" stop-color="#D9D9D9" stop-opacity="0"/></linearGradient><linearGradient id="c" x1="34.3072" x2="28.8633" y1="5.89667" y2="5.89667" gradientUnits="userSpaceOnUse"><stop stop-color="#D9D9D9" stop-opacity="0.5"/><stop offset="1" stop-color="#D9D9D9" stop-opacity="0"/></linearGradient><linearGradient id="d" x1="37.4723" x2="32.0283" y1="6.92011" y2="6.92011" gradientUnits="userSpaceOnUse"><stop stop-color="#D9D9D9" stop-opacity="0.5"/><stop offset="1" stop-color="#D9D9D9" stop-opacity="0"/></linearGradient></defs></svg>