<svg xmlns="http://www.w3.org/2000/svg" width="34" height="17" fill="none" viewBox="0 0 34 17"><path fill="#D9D9D9" d="M2.865 1.767h-.417l-.183.427h-.51a.57.57 0 0 0-.577.587v1.936c.1-.044.245-.1.335-.127a1 1 0 0 1 .241-.047h19.073v-.427h.416V2.621h-.425a.525.525 0 0 0-.476-.426l-.305-.322h-.395l-.054.32H2.865zm3.001 13.88-4.18-.475-.241.35s-.492.234.042.34c.534.108 3.952.321 3.952.321s.427-.107.427-.427z"/><path fill="#D9D9D9" fill-rule="evenodd" d="M1.635 5c.07-.021.11-.028.12-.03h18.858v.78c0 .181-.06.28-.112.337a.4.4 0 0 1-.114.08h-.218a.32.32 0 0 0-.303-.214h-.32a.32.32 0 0 0-.302.214h-4.056s-.077 0-.156.04a1.36 1.36 0 0 0-.47.411c-.194.266-.356.666-.356 1.257 0 1.04.184 1.486.247 1.612l-4.437.001a3 3 0 0 0-.653-.225c-.334-.071-.773-.091-1.139.154a1 1 0 0 0-.078.058c-.257.213-.362.53-.4.815-.043.315-.01.632.024.835a.08.08 0 0 1-.037.08 1.8 1.8 0 0 0-.66.644 2 2 0 0 0-.143.489 1.2 1.2 0 0 0-.007.38c.014.083.042.17.093.248-.224.113-.543.38-.705.93-.087.318-.057.643.008.916.042.18.1.342.156.475l-5.213-.593-.746-.51c-.043-.065-.1-.203-.084-.474.032-.552.359-1.594 1.567-3.5 1.176-1.862 1.32-3.056 1.055-3.818a1.69 1.69 0 0 0-1.212-1.1c-.05-.007-.246-.034-.43-.082a2 2 0 0 1-.161-.05c.083-.036.283-.13.384-.16m7.99 2.395.117-.224c.01-.022.01-.043.01-.065 0-.034.002-.095.005-.166l-.003-.01-.001-.005.006-.011.001-.03c-.69.319-.69.703-.69.703v.48c0 .641 1.067 1.218 1.067 1.218h2.884s.854.064.854-1.431-.854-1.388-.854-1.388c-.995-.027-1.74.03-2.297.132q.002.097-.01.22c-.061.614.089 1.052.228 1.313.286.135 1.138.556.69.556a.8.8 0 0 1-.288-.072c.06.096.028.18-.352.125-.416-.059-.753-.614-.97-1.095l-.29-.047a.14.14 0 0 1-.107-.203" clip-rule="evenodd"/><path fill="#D9D9D9" d="m30.887 7.967-8.36-3.582.458-.528-.457-.593.37-.386-.37-.448L31.863.183l-3.13 3.081 4.477 1.12-4.476 1.401z"/></svg>