<svg xmlns="http://www.w3.org/2000/svg" width="18" height="17" fill="none" viewBox="0 0 18 17"><path fill="#D9D9D9" d="M7.912.614A5.18 5.18 0 0 0 3.42 5.737q.003.43.077.854a5 5 0 0 0-.776.358A5.18 5.18 0 0 0 .53 13.402l.161-.093a3.63 3.63 0 0 1 1.61-4.322 3.63 3.63 0 0 1 1.986-.482 3.63 3.63 0 0 1 2.872 1.668l.474-.275a1.037 1.037 0 0 1 .797-1.38v-.55a3.63 3.63 0 0 1-3.456-3.613A3.63 3.63 0 0 1 7.912.796zm1.382 0v.182a3.63 3.63 0 0 1 2.938 3.559 3.63 3.63 0 0 1-3.455 3.623v.54a1.037 1.037 0 0 1 .796 1.38l.474.275a3.63 3.63 0 0 1 2.872-1.668 3.628 3.628 0 0 1 3.602 4.808l.165.096a5.18 5.18 0 0 0-2.201-6.46 5 5 0 0 0-.776-.358q.075-.424.077-.854A5.18 5.18 0 0 0 9.294.614m-.691 4.26A4.64 4.64 0 0 0 5.71 5.888c.19.357.443.675.748.94a3.44 3.44 0 0 1 2.144-.746c.815 0 1.562.281 2.152.75a3.3 3.3 0 0 0 .746-.94 4.64 4.64 0 0 0-2.898-1.018M4.27 8.851q-.14 0-.278.012a5 5 0 0 0-.056.675c0 1.965 1.23 3.65 2.957 4.334.215-.343.365-.722.443-1.12a3.44 3.44 0 0 1-2.19-3.214c0-.168.017-.331.04-.493a3.3 3.3 0 0 0-.916-.194m8.664 0c-.313.02-.622.086-.916.194a3.445 3.445 0 0 1-2.14 3.705c.077.398.226.777.441 1.12a4.675 4.675 0 0 0 2.948-4.332c0-.23-.023-.454-.056-.675a3 3 0 0 0-.277-.012m-5.129 1.347-.467.27a3.63 3.63 0 0 1-1.411 4.803 3.63 3.63 0 0 1-4.546-.766l-.161.093a5.18 5.18 0 0 0 6.683 1.329q.372-.216.703-.49.327.272.695.49a5.18 5.18 0 0 0 6.683-1.329l-.162-.093a3.63 3.63 0 0 1-4.545.766 3.63 3.63 0 0 1-1.405-4.798L9.4 10.2a1.04 1.04 0 0 1-1.236.275 1 1 0 0 1-.357-.277"/></svg>