<svg xmlns="http://www.w3.org/2000/svg" width="29.347" height="17" viewBox="0 0 7.7647269 4.4979168"><g transform="rotate(100 40.285 21.16)"><rect width="0.95961428" height="0.16588818" x="-43.604656" y="49.593529" rx="0.082944088" ry="0.082944088" style="fill:#d9d9d9;fill-opacity:1;stroke:none;stroke-width:.151439;stroke-linecap:round;stroke-linejoin:round;stroke-dasharray:none;stroke-opacity:1" transform="rotate(-66.047)skewX(-.001)"/><path d="M23.295 61.733h.262v.423h-.262z" style="fill:#d9d9d9;fill-opacity:1;stroke:none;stroke-width:.151439;stroke-linecap:round;stroke-linejoin:round;stroke-dasharray:none;stroke-opacity:1" transform="rotate(-4.045)skewX(-.003)"/><path d="m26.3 61.04.366.716 1.662-1.404-1.126-.069zm.327-.025.569-.477a.1.1 0 1 1 .128.153l-.569.477a.1.1 0 1 1-.128-.153" style="fill:#d9d9d9;fill-opacity:1;stroke:none;stroke-width:.151439;stroke-linecap:round;stroke-linejoin:round;stroke-dasharray:none;stroke-opacity:1"/><rect width="3.1224136" height="2.2086251" x="64.24855" y="17.07465" rx="0.27199072" ry="0.27199072" style="fill:#d9d9d9;fill-opacity:1;stroke:none;stroke-width:.151439;stroke-linecap:round;stroke-linejoin:round;stroke-dasharray:none;stroke-opacity:1" transform="rotate(50.002)skewX(.004)"/><rect width="2.5627937" height="1.658342" x="64.528358" y="17.349792" rx="0.20834713" ry="0.20834713" style="fill:#d9d9d9;fill-opacity:1;stroke:none;stroke-width:.151439;stroke-linecap:round;stroke-linejoin:round;stroke-dasharray:none;stroke-opacity:1" transform="rotate(50.002)skewX(.004)"/><path d="m28.232 61.155.285 1.89" style="fill:#333;stroke:none;stroke-width:.151439;stroke-linecap:round;stroke-linejoin:round;stroke-dasharray:none;stroke-opacity:1"/><path d="m27.468 61.796 1.813.609" style="fill:#333;stroke:none;stroke-width:.151405;stroke-linecap:round;stroke-linejoin:round;stroke-dasharray:none;stroke-opacity:1"/></g><path fill="#d9d9d9" d="M99.857 166.967c.656.729.656 1.217 0 2.222l.83 1.034-.088-1.328 1.239.294-.937-1.114 1.636-.358-1.636-.352 1.245-.687-1.458.13.58-.818z" style="stroke-width:.264583" transform="translate(-95.004 -165.858)"/></svg>