<svg xmlns="http://www.w3.org/2000/svg" width="35" height="25" fill="none" viewBox="0 0 27 17"><path fill="#d9d9d9" d="m20.673 12.598 3.632 2.821-1.365-3.699 3.3-.63-5.95-2.424c-.394 1.138-1.99 1.788-2.936.728l-2.835 5.15 3.737-2.297 1.578 4.322z"/><g style="fill:#d9d9d9;fill-opacity:1;stroke:#d9d9d9;stroke-opacity:1"><path d="M934.516-352.098s.304 1.659-.541 3.681c-.846 2.023-.298 16.265-.629 23.54-.338 5.578-1.06 8.7-1.06 8.7s-.583-.016-1.608-1.042-1.107-1.905-1.107-1.905 1.152-2.419 1.52-5.548.094-27.426.094-27.426z" style="fill:#d9d9d9;stroke:#d9d9d9;stroke-width:1.1;stroke-linecap:round;stroke-linejoin:round;stroke-miterlimit:5;paint-order:fill markers stroke;fill-opacity:1;stroke-opacity:1" transform="matrix(-.14514 -.47367 -.45036 .2064 -6.34 520.282)"/><path d="M930.162-356.695h6.325v4.795h-6.325l-3.417.736s-.8-1.498-.8-3.134.8-3.133.8-3.133z" style="fill:#d9d9d9;stroke:#d9d9d9;stroke-width:1.1;stroke-linecap:round;stroke-miterlimit:5;stroke-opacity:1;paint-order:fill markers stroke;fill-opacity:1" transform="matrix(-.14514 -.47367 -.45036 .2064 -6.34 520.282)"/><path d="m928.034-356.607-.974-.198s-.553.636-.553 2.47c0 1.836.578 2.54.578 2.54l.9-.19s-.448-.465-.448-2.35c0-1.883.497-2.272.497-2.272z" style="fill:#d9d9d9;stroke-width:.911052;stroke-linecap:square;stroke-miterlimit:5;paint-order:fill markers stroke;fill-opacity:1;stroke:#d9d9d9;stroke-opacity:1" transform="matrix(-.14514 -.47367 -.45036 .2064 -6.34 520.282)"/></g></svg>