<svg xmlns="http://www.w3.org/2000/svg" width="37" height="17" fill="none" viewBox="0 0 37 17"><path fill="url(#a)" fill-rule="evenodd" d="M22.769 4.453a1.387 1.387 0 0 1 1.7.981l-1.341.36z" clip-rule="evenodd"/><path fill="url(#b)" fill-rule="evenodd" d="M22.769 4.453a1.387 1.387 0 0 1 1.7.981l-1.341.36z" clip-rule="evenodd"/><path fill="url(#c)" fill-rule="evenodd" d="M24.468 5.434a1.39 1.39 0 0 1-.981 1.7l-.36-1.34z" clip-rule="evenodd"/><path fill="url(#d)" fill-rule="evenodd" d="M24.468 5.434a1.39 1.39 0 0 1-.981 1.7l-.36-1.34z" clip-rule="evenodd"/><path fill="url(#e)" fill-rule="evenodd" d="m22.769 4.453.718 2.68-16.378 4.389-.719-2.68z" clip-rule="evenodd"/><path fill="#D9D9D9" d="M6.25 8.68a.08.08 0 0 1 .11.05l.816 3.043a.08.08 0 0 1-.07.1l.179.184.918.068-1.166.163-.338-.385-1.035.076a.08.08 0 0 1-.083-.058l-.01-.04-.469-.529a.157.157 0 0 1-.111.193l-3.888 1.042a.16.16 0 0 1-.194-.111l-.326-1.22a.157.157 0 0 1 .111-.194l1.676-.448c-.061-.05-.03-.139.04-.144l.67-.047 1.502-.402a.16.16 0 0 1 .193.111l.142-.691-.011-.041a.08.08 0 0 1 .042-.092l.935-.45.1-.503 1.091-.442-.761.517zm16.761-.393c2.316-.637 2.98-1.376 2.492-3.7l5.945-4.21-2.971 4.21 7.763 1.49-6.944 2.21 5.351 5.214-6.567-2.69.655 5.567-3.052-3.776-3.825 2.42z"/><path fill="url(#f)" fill-opacity="0.5" d="M23.011 8.287c2.316-.637 2.98-1.376 2.492-3.7l5.945-4.21-2.971 4.21 7.763 1.49-6.944 2.21 5.351 5.214-6.567-2.69.655 5.567-3.052-3.776-3.825 2.42z"/><defs><radialGradient id="a" cx="0" cy="0" r="1" gradientTransform="rotate(75 7.789 17.967)scale(1.50014 1.49399)" gradientUnits="userSpaceOnUse"><stop stop-color="#CCC"/><stop offset="0.19" stop-color="#A8CEF0"/><stop offset="0.56" stop-color="#2685D9"/><stop offset="0.93" stop-color="#2685D9" stop-opacity="0"/></radialGradient><radialGradient id="b" cx="0" cy="0" r="1" gradientTransform="rotate(-105 13.787 -5.977)scale(1.38764)" gradientUnits="userSpaceOnUse"><stop stop-color="#2685D9" stop-opacity="0"/><stop offset="0.249909" stop-color="#ABB3BA"/></radialGradient><radialGradient id="c" cx="0" cy="0" r="1" gradientTransform="rotate(75 7.789 17.967)scale(1.50014 1.49399)" gradientUnits="userSpaceOnUse"><stop stop-color="#CCC"/><stop offset="0.19" stop-color="#F0CAA8"/><stop offset="0.56" stop-color="#D97A26"/><stop offset="0.93" stop-color="#D97A26" stop-opacity="0"/></radialGradient><radialGradient id="d" cx="0" cy="0" r="1" gradientTransform="rotate(75 7.789 17.967)scale(1.38764)" gradientUnits="userSpaceOnUse"><stop stop-color="#D97A26" stop-opacity="0"/><stop offset="0.749995" stop-color="#BAB2AB"/></radialGradient><radialGradient id="f" cx="0" cy="0" r="1" gradientTransform="matrix(7.26627 6.55803 -4.90902 5.43917 23.516 5.653)" gradientUnits="userSpaceOnUse"><stop offset="0.289871" stop-color="#2685D9"/><stop offset="1" stop-color="#D97A26"/></radialGradient><linearGradient id="e" x1="14.5795" x2="15.2978" y1="6.64691" y2="9.32764" gradientUnits="userSpaceOnUse"><stop stop-color="#2685D9" stop-opacity="0"/><stop offset="0.2" stop-color="#2685D9"/><stop offset="0.4" stop-color="#A8CEF0"/><stop offset="0.6" stop-color="#F0CAA8"/><stop offset="0.8" stop-color="#D97A26"/><stop offset="1" stop-color="#D97A26" stop-opacity="0"/></linearGradient></defs></svg>