<svg xmlns="http://www.w3.org/2000/svg" width="24" height="17" fill="none" viewBox="0 0 24 17"><path fill="#D9D9D9" d="M19.212 9.955c-1.103.925-1.765 1.073-2.983.504l-1.905 4.287 1.995-1.862 1.158 3.252.873-3.252 2.77 2.288-.993-3.012 3.253.365z"/><path fill="#D9D9D9" fill-rule="evenodd" d="M15.22.136c.382.597.766 1.194 1.092 1.72.326.527.595.984.8 1.362.203.379.341.679.488 1.098.147.418.301.955.4 1.42.098.464.14.855.161 1.29s.02.913-.013 1.353-.1.84-.165 1.24l-.082.23-.39.223q.01-.234.01-.45l-.172.041.173-.211q0-.11-.002-.217l-.208.05.204-.25-.008-.216-.237.057.225-.275-.007-.109-.25.06.233-.284-.012-.13-.004-.04-.255.06.232-.283-.003-.03-.004-.03-.005-.038-.252.06.226-.276-.009-.062v-.001l-.006-.04-.242.058.213-.262-.007-.053-.005-.036-.006-.038-.228.055.198-.243-.012-.078-.01-.07-.014-.08a1.5 1.5 0 0 0-.13-.406 2 2 0 0 1-.076-.184 5 5 0 0 1-.181-.704c-.028-.15-.047-.255-.143-.35a1.6 1.6 0 0 0-.419-.277l-.01-.005a.9.9 0 0 1-.254-.163c-.207.12-.507.218-.887.343q-.251.083-.548.185c-.88.309-2.049.8-2.99 1.245-.94.445-1.65.843-2.31 1.242A60 60 0 0 0 7.44 8.834a254 254 0 0 1-2.428 1.551c-.608.384-1.3.822-1.98 1.257q-.023.014-.036.012a3.6 3.6 0 0 1-.845.403 5 5 0 0 1-.825.157 5 5 0 0 1-.455.032c.098-.218.196-.436.266-.585s.11-.228.169-.317l.003-.006c.062-.093.2-.303.332-.443.101-.108.376-.293.57-.424l.055-.037a.24.24 0 0 1 .078-.064q.054-.033.125-.071.108-.058.248-.144c.154-.096.354-.218.555-.34a265 265 0 0 0 3.483-2.036c.567-.35 1.133-.701 1.652-1.012.52-.312.994-.585 1.487-.856a22 22 0 0 1 1.694-.85c.55-.247 1.211-.517 1.86-.781l.487-.2.073-.03c.615-.252 1.183-.485 1.607-.523a.7.7 0 0 1 .118-.223c.07-.104.16-.238.249-.458a.7.7 0 0 0 .054-.461c-.028-.172-.11-.313-.286-.538a9 9 0 0 0-.542-.575c-.203-.206-.412-.417-.538-.562zm1.527 3.268c-.317-.1-.502.387 0 .818.347.146.482-.198.4-.392-.132-.258-.276-.387-.4-.426m.566 1.275c-.205-.068-.429.244-.134.562.346.16.4-.23.267-.449a.26.26 0 0 0-.133-.113m.317 1.02c-.127-.036-.436.191-.244.46.336.45.488-.2.266-.449zm.175.95c-.134-.058-.317.163-.19.428.047.067.435.272.27-.341a.16.16 0 0 0-.08-.087M2.034 11.015c.123 0 .443.375.373.54-.068.144-.417.204-.514.2-.101-.003-.339-.15-.228-.375l.021-.039v-.001c.066-.12.177-.324.348-.325" clip-rule="evenodd"/></svg>