<svg xmlns="http://www.w3.org/2000/svg" width="46" height="17" fill="none" viewBox="0 0 46 17"><path fill="#D9D9D9" d="M32.948 5.45c1.373 2.058 1.398 3.234 0 5.37l4.467 5.325v-4.533l5.873 2.476-3.709-4.81 5.795-2.694-7.07-.696L43.085.586l-6.378 3.621V.146zm-.466 2.028s-1.356 1.51-2.25 1.932c-1.159.547-2.851.66-3.788.66-.704 0-9.002.02-12.351.028-.079.732-.19 1.383-.279 1.457-.153.128-.335.07-.393-.02s.08-.995.08-.995l-.2-.48-1.782.133-.015-.106-.45.007.018.133-1.572.117-.033-.227-.451.007.037.253-1.042.078-.549-.019s-.017-.112-.04-.288l-.453.007c.015.114.028.206.037.263l-1.593-.06-.026-.18-.451.007q.014.105.023.156l-1.6-.06-.01-.072-.45.007.006.049-.943-.036H1.96c-.124.323-.704.314-.962.31-.415 0-.565-.612-.565-1.69S.586 7.1 1 7.1c.26-.005.835-.015.959.306l.895-.059-.003.044.452-.008.006-.063 1.598-.096-.012.131.453-.007.013-.151 1.6-.096c-.002.016-.01.096-.02.219l.451-.008.022-.232.54-.039 1.047.034-.02.21.453-.008.017-.188 1.585.05-.004.047-.006.063.452-.007.008-.088 1.787.057.214-.462s-.208-1.157-.066-1.24c.142-.081.272-.092.393.02.07.066.185.721.27 1.459L24.9 7.04s2.592.329 3.89.408c1.298.08 3.691.03 3.691.03"/></svg>