<svg xmlns="http://www.w3.org/2000/svg" width="95" height="17" fill="none" viewBox="0 0 95 17"><path fill="#D9D9D9" d="m29.282 2.299-.7.006-.002 2.19.505.002.002.068.224.196 2.308.003.225-.2-.002-.036.986.008V2.262l-1.178.015V.58h-.222V.277h-1.927v.317h-.219zm3.819 2.871V2.038l.99.009V5.17zm-11.695.652v1.481l.386-.211c.187-.088.545-.167.977-.17l1.718.004c-.047.376-.114.623-.265.835-.245.293-.458.43-.876.626a.94.94 0 0 0-1.029-.165c-.426.22-.603.73-.335 1.224.282.442.84.431 1.161.327.37-.16.45-.468.428-.83.827-.365 1.454-.93 1.434-1.705l-.007-.727 1.577.005c.22-.003.46.098.57.318q.028.057.043.096c.035.09.046.117.22.12l4.788-.012c.185.008.209-.055.239-.134l.03-.07c.103-.172.254-.335.611-.327l16.883.005c1.284-.02 1.342.661 1.374 1.028q.005.077.014.132l24.676-.214.005-1.56-33.82-.223-4.545.006-.866-.234-13.007-.019-.21.39z"/><path fill="#D9D9D9" fill-rule="evenodd" d="M32.696 6.992c.107-.19.186-.212.475-.212l16.706.008c1.07-.03 1.197.348 1.192.988l.006 2.186-13.848.033-4.617 1.263-3.135.264c-.473-.826-1.823-.808-2.148.245l-.512.02a2 2 0 0 1-.155.009q-.083.001-.168.01a231 231 0 0 0-.118 1.367c-.035.328-.445.238-.413-.032 0 0 .048-.59.1-1.139a2.4 2.4 0 0 0-.276.26c-.318.325-.6.605-1.298.616l-1.449-.013c-.45-.007-1.13-.293-1.395-.633-.113-.14-.225-.067-.274.18l-.56 3.21c-.058.336-.232.698-.79.651l-1.405-.08a3.4 3.4 0 0 1-1.327-.335c-.875-.418-1.563-.447-2.234-.447-.346.02-.521-.092-.37-.303l1.401-2.053c.083-.11.126-.098.288-.033 2.2.601 4.224-2.974 1.187-3.006l-.052-2.237 3.02.008c.58.005.661-.04.814-.127l.01-.005.007-.004.008-.005c.395-.259.736-.46 1.34-.45l1.458.005c-.055.376-.36.674-.79.864-.447-.245-.803-.286-1.273-.043-.638.459-.583 1.14-.374 1.548.253.446.752.577 1.304.526.652-.167.795-.621.812-.972 1.093-.547 1.418-1.235 1.434-1.761v-.58l1.195.007c.37-.014.437.139.457.273.023.134.15.272.48.26l4.808-.008c.24-.004.33-.007.479-.323m-8.054 3.342-1.078-.006c-.346.45-.646 1.062.32 1.693.126.088.088.23-.177.206-1.027-.192-.982-1.418-.779-1.888-1.064.133-1.312 1.955.357 1.98l1.112.006c.51.006 1.043-.268 1.056-.822l-.025-.537c0-.307-.307-.66-.786-.632" clip-rule="evenodd"/><path fill="#D9D9D9" d="m27.575 12.039-.927.033.002.26 6.12-.568-.006-.264-.117.032-3.323.278c-.443-.973-1.762-.673-1.749.229"/><path fill="#D9D9D9" fill-rule="evenodd" d="m76.301 5.904 1.377-.427h6.146l.003 2.365-6.078-.013-1.45-.376zm5.376.445c-.004-.167-.098-.325-.313-.325l-.417.004c-.153-.001-.28.114-.28.3l-.004.625c-.004.136.048.324.297.329h.424c.174-.007.292-.107.293-.336zm-1.565 0c-.003-.167-.097-.325-.312-.325l-.417.004c-.153 0-.28.115-.28.3l-.004.626c-.004.135.048.323.297.328h.424c.174-.007.292-.106.292-.335zm3.131 0c-.003-.167-.097-.325-.312-.325l-.417.004c-.153 0-.28.115-.28.3l-.004.626c-.004.135.048.323.297.328h.424c.174-.007.292-.106.292-.335z" clip-rule="evenodd"/><path fill="#D9D9D9" d="M54.322 10.01a3 3 0 0 0-.256.01l-5.99.269-3.322-.026c-.383-.02-.518.262-.3.533l.624.8c.183.228.378.415.677.603l-.01.155c-.002.135.037.205.189.27l.783.317.181-.324c.116.013.321.006.452-.026l-.082.156c-.026.048-.038.087.018.157.21.245.608.183.735.042.095-.102.08-.133.014-.223-.068-.104-.052-.494.131-.294l.01.01.002.003.01.011c.059.064.092.102.402 0l-.007.332-.429.006.015.271 1.137-.005.005-.287-.434-.002-.014-.372.9-.214c.126-.029.172-.081.184-.133l8.075-.307-.003-.109.612-.02c.036.234.184.314.499.284l.004.004c.036.034.115.11.434.089l.415-.024c.103.259.268.289.383.039.093.21.223.374.364.164l.28-.45c.127-.236.207-.58-.011-.847l-.343-.463c-.097-.136-.15-.128-.264.114-.226-.363-.288-.384-.423-.06l-.983.061c-.212.03-.398.121-.391.399L58 10.95l-.01-.17-.2.004c.02-.21.014-.319-.235-.218l-.353-.185c.135-.11-.089-.159-.239-.143-.292-.255-.707-.047-.709.112l-.001.487-.654.017c-.326-.606-.707-.837-1.277-.845M27.318 2.037v3.134h.99V2.046zm7.046.207.632-.005 2.726-.796 4.221-.007.005 3.899h-4.24l-2.726-.77-.62-.007zm-7.37.081h.052l-.004 2.152H27l-.118.066h-1.91l-.253.163h-.48l-.168-.077h-.592l-.452.107h-3.41V2.071h3.408l.447.089h.616l.133-.065h.478l.267.17h1.922zm-9.76 5.464h-.874v2.242h.926zm-3.379.004 2.221-.022.005 2.658c-1.035.645-.898 1.681-.396 2.168.128.124.228.282.056.474l-1.292 1.898c-.176.268-.37.197-.624.048l-2.25-1.606c-.217-.146-.556-.22-.962-.224l-2.11-.021c-.405-.002-.737.22-.697.68l.078.8c.092.791-.42 1.213-1.45.672l-.05-.03c-.075-.046-.185-.114-.339-.102l-1.05.048c-.459.382-.77.101-.745-.402l-.029-1.034v-.01c-.008-.225-.016-.433-.063-.545-.046-.104-.174-1.034-.172-1.704l-.047-3.828 8.72-.004c.321 0 .501.014.685.044.153.022.238.033.51.042m-9.872-.357 8.895.002c.174 0 .258.011.366.027h.003l.094.014c.114.017.205.03.39.03.014-.204.002-.92-1.143-.922l-6.955.009c-.703.008-1.412.335-1.65.84"/><path fill="#D9D9D9" d="m2.35 7.088 1.522.004a1.03 1.03 0 0 0-.208.637l.057 4.17c.015.435.084 1.117.142 1.318l.018.056a1 1 0 0 1 .051.333l.046 1.258c.008.22.02.36.14.548l-1.046.008a2 2 0 0 0-.651.079l-.912.27c-.288.083-.465.085-.513-.279-.147-1.76-.15-3.17-.156-5.225 0-.704-.003-1.484-.01-2.38.004-.702.236-1.054.87-.906.084.016.149.033.208.049.124.033.227.06.444.06M80.46 4.677l2.928.43-3.261-2.91.055 1.406-5.162-2.056 1.71 1.742-5.55.193 7.162 1.652-.112-.367 2.385.355zm4.14 2.28-.392-.31.296-.434-.383-.525 9.592-2.767-4.119 2.92 4.636.565-4.45.82 3.01 2.7-8.626-2.207zm-1.169 1.205-2.927.43.155-.444-2.385.355.112-.367-7.162 1.652 5.55.192-1.71 1.743 5.161-2.057-.055 1.407z"/></svg>