<svg xmlns="http://www.w3.org/2000/svg" width="40" height="17" fill="none" viewBox="0 0 40 17"><path fill="#D9D9D9" d="M24.913 5.25 39.068.258v1.875L24.913 6.078zm1.581 3.052 9.4-1.233v1.346l-9.4.195zM.864 6.751l11.193 1.107.264-.512L1.458 5.249zm10.729 5.952L3.82 16.26l-.66-1.508 8.14-2.53zm16.622 3.556.541-1.407-1.19-.469v1.114zM6.1 3.791 7.645 5.25 6.1 5.794l-.37-1.241zm26.218 6.363.98.674-1.655.588v-.588zm3.99-4.616-1.306.566-.327-1.132h1.22zm-22.5 10.721 1.24-.936-1.24.174zm-4.204-4.922-1.959.697-.87-1.306 1.697.13zM4.428 9.28V8.06l-.953 1.22.472.94zm14.814.728c.4 0 .726-.327.726-.729a.727.727 0 0 0-.726-.728.727.727 0 0 0 0 1.457"/><path fill="#D9D9D9" fill-rule="evenodd" d="m18.758 5.89.498-3.179.498 3.177q.051.008.101.018l1.05-1.965-.452 2.137.013.005.013.005 1.41-1.395-.823 1.702.101.07 2.956-2.493-2.182 3.112 1.188-.55-.963 1.052.046.084 3.12-.324-2.729 1.816.002.056 2.308.68-2.293.256 3.138 2.076-3.54-1.012.879 1.568-1.693-.862a3 3 0 0 1-.143.11l.916 2.926L20.142 13l.152 1.477-.818-1.665-.67 2.642-.486-2.863-.131-.05-1.55 2.21.443-2.825-2.537 1.81 1.813-2.562-3.732 1.266 3.11-2.22-1.7-.072 1.895-.5-.005-.077L13.28 8.36l2.854-.296V8.06l-1.275-.57 1.421.234.053-.1-2.26-1.737 2.928.864.008-.008.004-.005.007-.006.008-.009-.714-1.751 1.34 1.287-.38-2.433 1.44 2.073zm1.968 3.39c0 .822-.665 1.488-1.484 1.488-.82 0-1.484-.666-1.484-1.489 0-.822.664-1.49 1.484-1.49s1.484.668 1.484 1.49" clip-rule="evenodd"/></svg>