<svg xmlns="http://www.w3.org/2000/svg" width="113" height="17" fill="none" viewBox="0 0 113 17"><path fill="#D9D9D9" d="m97.952 3.526 12.879-1.313-4.774 2.06 6.161.652-6.161 1.466 3.733 2.206-11.838-2.105L99.362 6l-1.41-1.171.981-.444zM81.527.324a.22.22 0 0 1 .22-.22h.93a.22.22 0 0 1 .22.22v1.63c.273 0 1.23.013 2.134.206 1.066.229 3.276.077 3.276.077v-.153h2.057v.153h5.526a.46.46 0 0 1 .34-.153h.457c.251 0 .457.206.457.457v4.876a.46.46 0 0 1-.457.457h-.457a.46.46 0 0 1-.34-.152h-5.526v.533s.152.282-.29.358-.343.457-.343.457.023.381-.396.374-.419-.297-.419-.297.077-.458-.228-.458-.381-.434-.381-.434v-.533h-2.53s-.67-.076-1.127.152c-.207.104-.974.176-1.752.224v.538h-1.371v-.473c-.322.011-.534.016-.534.016s-.138-.028-.533-.05v.964h-1.143v-.99h-2.135V1.955h4.344z"/><path fill="#D9D9D9" fill-rule="evenodd" d="M76.88 1.566h-2.621v6.782c-.01.474.015.905.2.905.173 0 .227.048.243.114H64.256V9.14h-2.141v.229h-6.072V8.102h17.913V1.955H51.663V1.78h-1.448v.175h-2.362V1.78h-1.676v1.327h.608V8.33h1.068v-.228h2.362v.228h1.02c-.14.15-.228.34-.136.564.097.238.35.576.614.89-.404.026-.965.122-.965.459 0 .068.038.13.1.175.426.32 2.035.22 2.035.22h2.208v.367h.952v-.359h6.072v.237h2.14v-.237h10.778a.85.85 0 0 0 .46.115c.952 0 .8-.465.8-.465v-.754s0-.35.325-.35c.202 0 .251-.403.261-.845zM52.134 8.103l2.956 1.265V8.102z" clip-rule="evenodd"/><path fill="#D9D9D9" fill-rule="evenodd" d="M46.482 3.41v4.92h-.305v-.15h-3.781c-.297.435-.942.38-.942.38l-.007-.377c-1.087.044-1.448.53-1.448.53s-.305.457-.838.534c-.192.027-.306-.086-.373-.242v1.384s-.305 1.6-2.286 1.524c-1.785-.069-2.84-3.015-3.031-3.596H19.414l-.015.001-.006-.583-.033-.974-2.993.429a.503.503 0 0 1-.564-.42.493.493 0 0 1 .419-.563l3.11-.445a90 90 0 0 1-.026-1.772h.001c.023-.922.51-1.676.51-1.676h.077v-.457h.748l-.558-.495 6.37-.039a.19.19 0 0 1 .153.077h.372v.914h.076V1.14a.05.05 0 0 1 .046-.046h.213a.05.05 0 0 1 .046.046v1.173h3.2v.151h.305v1.097h14.93V3.41zM21.418 7.34h10.665v-.533H21.418z" clip-rule="evenodd"/><path fill="#D9D9D9" fill-rule="evenodd" d="M24.617 10.846c.541-1.499-.259-2.042-1.097-2.227h9.357c-.115.16-.184.322-.184.322v.914s-.61 0-.99.533c-.381.534-.762.534-.762.534h-1.905c-.914 0-.914.99-.914.99s-.61 1.676-.914 2.21c-.305.533-.153 1.066-.153 1.066.305.99-.685.914-.685.914l-2.667-.533c-.762-.153-.305-1.067-.305-1.067s.229-.914 1.22-3.657m5.234-2.187s-.32.549-.32 1.158c0 .61.229.686.229.686s.076 0 0-.153c-.076-.152-.229-.61.076-1.142.305-.534.335-.572.335-.572h.48s1.082.229 1.082 1.067-.861 1.066-.869 1.066H28.96s-.99-.076-.99-1.066 1.218-1.067 1.218-1.067h.663z" clip-rule="evenodd"/><path fill="#D9D9D9" d="m19.09 7.74.006.598c-4.334.329-7.671 1.572-9.802 2.628l.437.756a.22.22 0 0 1 .024.155c.202.066.159.187.159.187s.076.838-.762.915c-.72.065-.596-.207-.45-.527l.07-.159a.65.65 0 0 1 .174-.246l-.401-.692c-1.29.7-1.968 1.243-1.968 1.243l-.091.02v.284c0 .13-.1.229-.229.229h-1.6l-.042-.004c-.86.309-2.46.865-3.218 1.017-1.067.213-.96-.48-.96-.48v-.853C.538 9.81.302 7.823.187 6.856l-.017-.14c-.107-.906.899-1.059.899-1.059l3.044-.175a.4.4 0 0 1-.027-.118l-.069-.838a.384.384 0 0 1 .35-.411l1.143-.091a.38.38 0 0 1 .412.35l.068.838a.4.4 0 0 1-.022.163L10.6 5.11s.899 1.226 3.2 0c1.874-1 4.35-1.114 5.203-1.122.003.475.01 1.062.019 1.512l-2.842.407a.797.797 0 0 0-.677.905v.005l.001.005c.072.42.46.73.904.668h.001l2.66-.381zM31.856.716h-.307v.229h-.685V2.16h.304v1.097h14.325V.945h-.686V.716H44.5v.229h-.912V.716h-.383v.229h-.988V.716h-.535v.229h-1.218V.716h-.763v.229h-1.065V.716h-.916v.229h-1.065V.716h-.763v.229h-1.218V.716h-.535v.229h-.988V.716h-.383v.229h-.912z"/></svg>