<svg xmlns="http://www.w3.org/2000/svg" width="79" height="17" fill="none" viewBox="0 0 79 17"><path fill="#D9D9D9" d="m69.303 4.458 7.189-2.808-2.25 2.482 3.975.73-4.306 1.496 3.713 2.248-8.32-2.458.438-.551-.439-.22.329-.515z"/><path fill="#D9D9D9" fill-rule="evenodd" d="M23.409.337c0-.381-1.4-.354-1.722-.107l-.316.325v.896h.149v.227l-.52.056-.429 1.612h12.596V3h-.14v-.088l-.044-.023V1.716c0-.107-.124-.314-.301-.463a1 1 0 0 0-.54-.235zm1.248 2.423a.57.57 0 0 0-.39-.294v-.59c0-.18.215-.371.383-.371l7.233-.103c.208 0 .364.276.364.35v.708l-.081-.005c-.22 0-.41.124-.506.305zm-3.237-.368h-.123V2.11h.123zm1.661 0h.124V2.11h-.124zm1.945.828v.051h.342V3.22zm.653 0v.051h.341V3.22zm.652 0v.051h.341V3.22zm.653 0v.051h.34V3.22zm.652 0v.051h.341V3.22zm.653 0v.051h.34V3.22zm.652 0v.051h.341V3.22zm.652 0v.051h.342V3.22zm.653 0v.051h.341V3.22zm.652 0v.051h.341V3.22zm2.269.387H20.426v.073h-.301a.3.3 0 0 0-.126.026l-.168.07a.03.03 0 0 0-.02.03v.51l-.662.07v3.731c.517-.03.806-.046 1.074.13.268.175.542.454.63.915h2.374a.13.13 0 0 1 .13.13v1.926c0 .056.036.126.089.126h.783c.06 0 .141-.056.173-.15h2.69a.4.4 0 0 0 .058.062c.062.051.147.074.273.05a.27.27 0 0 0 .133-.064.14.14 0 0 0 .121.035l4.766-.912a.138.138 0 0 0-.049-.27c-.05-.018-.086-.053-.086-.11v-1.93c0-.18.098-.313.435-.542s.424-.308.424-.512zm-6.089 7.263c-.03.02-.045.079-.048.132h-2.68a1.024 1.024 0 0 1 .296-1.919c-.186.342-.167.62-.118.93.05.316.176.515.503.872.027.03.07.03.099.004.03-.025.036-.057.007-.102l-.039-.06c-.157-.239-.217-.33-.227-.685-.01-.38.151-.612.495-.974h1.045a1.024 1.024 0 0 1 1.024 1.025c0 .31-.121.611-.357.777" clip-rule="evenodd"/><path fill="#D9D9D9" d="m27.726 11.533 4.58-.876v3.426c0 .065-.047.12-.112.13l-4.27.663a.263.263 0 0 1-.303-.26v-3.077a.4.4 0 0 0 .105-.006m-4.629-.017V9.423h-2.252c-.025.365-.103.605-.132.649l-3.27 4.862c-.095.139-.066.308.072.355l2.942.743c.102.029.382.013.544-.026.171-.042.312-.127.363-.287.05-.158-.02-.239-.091-.323a1 1 0 0 1-.066-.084.31.31 0 0 1 0-.31l.969-1.733s.096-.15.253-.162h.024l.02-.002h.172c.146.003.243.005.288-.084.065-.13-.054-.303-.17-.45-.03-.038-.024-.23 0-.283l.29-.68a1 1 0 0 1 .043-.092M1.39 4.252l17.498.132V8.14c-1.547.15-2.477.355-4.057.832l-5.726 1.872c-1.26.404-2.511.844-3.75 1.309-.747.287-1.502.561-2.269.79v.744a.133.133 0 1 1-.265 0v-.668c-.376.102-.693.161-.954.167-.403.01-.725-.463-.742-.558C.55 9.57.419 7.9.7 4.87c.022-.245.423-.617.69-.617m32.038-.563v.284h.057v.08h-.057v2.615h.057v.514l1.06-.196V3.56l-1.06-.195v.327z"/><path fill="#D9D9D9" fill-rule="evenodd" d="M34.859 7.53v-.562l-.053-.007V3.49l.03-.01.004-.002.006-.002.013-.003v-.468h.366v-.23h.318v.23h.414v-.23h.318v.23h.413v-.23h.319v.23h.413v-.23h.318v.23h.414v-.23h.318v.23h.414v-.23h.318v.23h.414v-.23h.318v.23h.414v-.23h.318v.23h.414v-.23h.318v.23h.414v-.23h.318v.23h.414v-.23h.318v.23h.414v-.23h.318v.23h.413v-.23h.318v.23h.414v-.23h.318v.23h.414v-.23h.318v.23h.414v-.23h.318v.23h.413v-.23h.319v.23h.413v-.23h.318v.23h.414v-.23h.318v.23h.414v-.23h.318v.23h.413v-.23h.319v.23h.413v-.23h.318v.23h.414v-.23h.318v.23h.414v-.23h.318v.23h.413v-.23h.319v.23h.413v-.23h.318v.23h.358v.212h-.424v.318h.425v2.888h-.425v.328h.425v.16h-.359v.23h-.318v-.23h-.413v.23h-.319v-.23h-.413v.23h-.318v-.23h-.414v.23h-.318v-.23h-.414v.23h-.318v-.23h-.414v.23h-.318v-.23h-.413v.23h-.318v-.23h-.414v.23h-.318v-.23h-.414v.23h-.318v-.23h-.413v.23h-.319v-.23h-.236v.617zm12.52-3.517c.002-.223.246-.403.548-.403.301 0 .545.18.547.403zm1.272 0c.002-.223.247-.403.548-.403s.546.18.548.403zm2.218.283h.744a.95.95 0 0 0-.42.25.8.8 0 0 0-.14.194h-.183zm1.83 1.61c-.231.02-.408.133-.408.269 0 .111.119.207.289.249h.384c.17-.042.288-.138.288-.25 0-.081-.064-.154-.165-.204h-.09zm-.834.269c0 .111-.119.207-.289.249h-.384c-.17-.042-.289-.138-.289-.25 0-.15.215-.27.481-.27s.48.12.48.27m-1.388 0c0 .111-.119.207-.289.249h-.384c-.17-.042-.288-.138-.288-.25 0-.15.215-.27.48-.27.266 0 .481.12.481.27m-1.387 0c0 .111-.12.207-.29.249h-.383c-.17-.042-.289-.138-.289-.25 0-.15.215-.27.48-.27.266 0 .482.12.482.27m-1.388 0c0 .111-.119.207-.289.249h-.384c-.17-.042-.289-.138-.289-.25 0-.15.216-.27.481-.27.266 0 .481.12.481.27m6.757.895v-3.88L56.11.943h.063l.075-.102.03-.04c.264-.361.43-.588.765-.588.498 0 .684.466.684.73l.072 5.206h.118l.11.018q.021.006.041.016l.336.158a.09.09 0 0 1 .052.08v.516l-.104.102h-.484v.014a.02.02 0 0 1-.022.022h-.194v.19h-.51a.09.09 0 0 1-.089-.09v-.794l-.183-.133V4.586a.09.09 0 0 0-.089-.09h-1.627a.09.09 0 0 0-.09.09v1.37a.5.5 0 0 1-.008.095l-.061.336a.1.1 0 0 1-.032.053v.358a.33.33 0 0 1-.214.308v.616a.11.11 0 0 1-.218 0v-.616a.3.3 0 0 1-.074-.039m2.962-3.445c0 .123-.1.223-.223.223h-2.125a.267.267 0 0 1-.215-.426l1.261-1.71a.18.18 0 0 1 .143-.073h.266c.148 0 .268.12.268.268v.485c0 .098.08.178.178.178h.179c.147 0 .267.12.267.267zM54.756 6.81a.1.1 0 0 1-.007.04.11.11 0 0 0-.217 0l-.006-.03v-.01c0-.064.051-.117.115-.117s.115.053.115.117" clip-rule="evenodd"/><path fill="#D9D9D9" d="M58.04 4.65h6.949v1.24h-6.932zm-1.43 1.241V4.757h-1.283V5.89z"/><path fill="#D9D9D9" fill-rule="evenodd" d="M65.815 6.1h-.565V4.44h.565v.123h.177V4.44h.389v.123h.14V4.44h.432a3 3 0 0 0 .558.04 5 5 0 0 0 .339-.012q.135-.011.22-.028h.431V6.1h-.431a3 3 0 0 0-.559-.04 3 3 0 0 0-.558.04h-.431v-.123h-.141v.124h-.39v-.124h-.176zm2.262-1.468a.097.097 0 0 1 0 .195h-1.131a.097.097 0 0 1 0-.195zm-1.228.638c0-.088.07-.159.159-.159h1.007a.159.159 0 0 1 0 .318h-1.007a.16.16 0 0 1-.16-.159m.097.444a.097.097 0 0 0-.084.146l.003.005.004.005.003.004.005.006.002.001.004.004a.1.1 0 0 0 .063.023h1.13a.097.097 0 0 0 .06-.174l-.003-.002a.1.1 0 0 0-.056-.018z" clip-rule="evenodd"/></svg>