<svg xmlns="http://www.w3.org/2000/svg" width="35" height="17" fill="none" viewBox="0 0 35 17"><path fill="#D9D9D9" d="m34.95.484-9.765 2.603.404.146-.404.471.537.254-.537.18 8.735 2.417-2.494-1.788 3.367-1.31-2.827-1.31zM12.848 3.189v3.67l-3.552.146V3.184z"/><path fill="#D9D9D9" fill-rule="evenodd" d="m14.848 2.758-.081-.022-.045-.012-.039-.008-.15-.03a8 8 0 0 0-.88-.098l-.046-.003-.097-.006-.09-.005-4.355-.025H9.06l-.273-.01h-.003L8.49 2.53c-.143 0-.515-.001-.655-.13l-.427-.002-.19 2.344a3.8 3.8 0 0 1-.394.86c-.334.51-.765.72-1.42.773a4 4 0 0 1-.211.011c-.494.015-1.104-.042-1.873-.122l-.007.032q-.042.198-.088.398l-.027.114-.018.077a8 8 0 0 1-.084.31 6 6 0 0 1-.236.664c.427-.09.94-.15 1.44.02.654.225 1.182.8 1.557 1.869.096-.074.237-.173.337-.242a5.7 5.7 0 0 1 2.472-.944l.036-.005.042-.004.022-.003.022-.016.134-.096q.079.073.086.163c.012.103-.044.21-.153.345l-.056.067a1.36 1.36 0 0 0-.228 1.33c.195.511.71.866 1.22.756.104-.023.087-.16-.02-.17-.186-.017-.269-.086-.448-.257l-.032-.032-.005-.004a1.02 1.02 0 0 1-.306-.863c.046-.342.186-.608.427-.754a3.3 3.3 0 0 1 .991-.416l-.08-.42-.43-.1c.248-.038.558-.066.973-.1l2.533-.236a.7.7 0 0 0 .256-.114l.003-.003c.172-.135.162-.337.152-.54-.004-.093-.009-.187.005-.274a.5.5 0 0 1 .027-.102c.175-.77.48-1.075.837-1.197q.084-.03.173-.045zm-1.597.028L8.894 2.78v4.644l4.357-.178z" clip-rule="evenodd"/><path fill="#D9D9D9" d="M6.52 5.332 4.466 3.504l1.135-.816-.134-.15-1.34.666-.07-.063-.292.333-.234-.2-.23.256.48.737c-.003.345-.149.662-.621.916l-.725.467.126.164a1.8 1.8 0 0 1 .465-.23c.22-.076.544-.21.783-.451s.492-.361.82-.127c.1.092.205.168.31.243.21.152.42.303.597.587a1 1 0 0 0-.04.098l-.011.028q.202-.024.357-.073c.264-.084.48-.237.676-.557m.887 4.958c-.157-.356-.365-.572-.612-.68.433-.245.9-.436 1.396-.553-1.027 1.43.04 1.925.858 2.19.451.146 1.42.089 2.167-.197s1.177-.735 1.36-1.29c.216-.653-.013-1.24-.62-1.474l1.289-.12a.95.95 0 0 0-.26.451c-.05.165-.04.413-.033.635.006.16.011.306-.005.4l-.015.083-.01.058c-.065.4-.142.863-.541 1.172-.517.399-1.902.798-2.795.733-.606-.045-1.682-.283-2.179-1.408m10.493-5.092v-2.2H15.25v2.2zM18.3 3.12v.967h6.132a.05.05 0 0 0 .051-.05v-.929a.05.05 0 0 0-.051-.05h-.052a.59.59 0 0 0-.597-.567v.189l-.724.216v.162h-.083l-.127.061zm0 1.647v.365h1.09v.07l.815.028a.43.43 0 0 0 .075-.28.43.43 0 0 0-.075-.28l-.814.027v.07zM2.607 8.33C1.157 10.338.861 12.525.824 14.75q.554.316 1.118.452.423.1.851.092.592-.012 1.197-.248c-.196-1.638-.029-3.279 1.027-4.52q.226-.266.508-.506C4.812 7.819 3.6 8.093 2.607 8.33m-.55 7.307q.26.047.524.057a.7.7 0 0 1-.128.14v.513a.14.14 0 0 1-.087.127.14.14 0 0 1-.195-.127v-.51a.6.6 0 0 1-.114-.2"/></svg>