<svg xmlns="http://www.w3.org/2000/svg" width="82" height="17" fill="none" viewBox="0 0 82 17"><path fill="#D9D9D9" d="m73.584 6.571 6.59.673-2.167-1.779L81.524 4.4l-3.147-.488L80.553.359 73.584 4.99l.564.19-.564.592.376.36zm-38.776-.027V4.883c0-.034.028-.062.062-.062h.058c.034 0 .062.028.062.062v.066q.015.015.04.029l.026.011c.091.035.255.048.533.05h.093l7.173.22h28.11v1.31H53.46l.01-.146c0-.064-.04-.129-.163-.145-1.493-.2-2.33-.258-3.824-.31L34.99 5.914v.473a.5.5 0 0 1-.033.211.1.1 0 0 1-.029.008h-.058a.06.06 0 0 1-.062-.062"/><path fill="#D9D9D9" d="M34.808 7.003v1.933l2.44.182 14.898-.072.09-.084.319-.3c.246-.227.438-.654.596-1.42l.002-.02.008-.089.054-.617c-1.446-.193-2.273-.25-3.738-.3l-14.239-.053v.224c0 .109-.01.228-.067.337a.56.56 0 0 1-.248.229z"/><path fill="#D9D9D9" fill-rule="evenodd" d="M34.56 8.936V4.657H23.192l-2.039.783.128.71.6 2.33.233.016.514 1.205c.112.247.358.425.473.491.383.219.756.328 1.348.419.236.036.473.036.728-.055l1.493-1.074c.52-.353.831-.511 1.423-.72q.183-.032.397-.081c.171-.19.28-.31.51-.31h.142l4.137.474v-.433l.764.524zm-11.654.16c-.062.116-.061.22-.06.329v.039c0 .162.083.372.255.528.182.164.408.24.729.31.418.09.809.14 1.092.054.39-.119.6-.435.6-.82 0-.29-.072-.501-.49-.673a4.8 4.8 0 0 0-1.187-.183c-.48.44-.585.745-.38 1.312.023.06-.05.09-.072.054-.181-.283-.256-.45-.182-.8.026-.106-.086-.164-.164-.164-.041 0-.09 0-.141.013m12.94-4.298c.379-.02.598-.05.928-.121l32.99.175v-.03h.036v-.036h-.109v-.146h.11v-.073h.145v.073h.073v-.073h.145v.073h.11v.146h-.11v.036h.037v.033l.765.004v.152h-4.644l-.472-.007-.04.007h-1.877l-.032-.007-2.239-.036a1 1 0 0 0-.179.043H59.6l-.032-.007-2.239-.036a1 1 0 0 0-.179.043h-1.883l-.032-.007-2.24-.036a1 1 0 0 0-.178.043h-1.816a2 2 0 0 0-.172-.043l-2.093-.036a1.2 1.2 0 0 0-.281.08H46.77a1.3 1.3 0 0 0-.256-.08l-2.111-.037a1.2 1.2 0 0 0-.36.116H42.86l-.293-.009a1.2 1.2 0 0 0-.312-.107l-2.184-.036a2 2 0 0 0-.27.06zm34.1-.012v.036h.073v-.036z" clip-rule="evenodd"/><path fill="#D9D9D9" d="M71.213 6.57V5.257h1.464V6.57zm-17.79.42-.026.29c-.16.78-.365 1.279-.674 1.565l-.062.057 1.97-.114.11-.245c.127-.284.181-.485.183-.658.002-.167-.043-.33-.159-.54l-.147-.269zm19.363.235H54.982q.072.127.116.247c.109.296.098.568-.03.925q-.042.117-.101.248h17.82zm.248 1.565V7.08h2.082c.101 0 .183.081.183.182v1.347c0 .1-.082.182-.183.182z"/><path fill="#D9D9D9" fill-rule="evenodd" d="M20.662 8.499c.378-.021.734-.024.963-.022l-.587-2.274-.116-.647c-1.404.698-2.332 1.07-4.047 1.614-.583.185-.82.146-1.074 0l-.273-.2c-.17-.129-.292-.151-.547-.128L6.17 7.84c-1.43.104-2.367.176-3.6.35-.301.041-.621.09-.97.146-.45.073-.708.3-.785.634a1 1 0 0 0-.024.227q0 .069.008.14c.04.373.1.709.157 1.031l.004.023q.03.167.057.33c.31 1.839.516 3.206.82 5.335.031.207.244.316.407.304a.3.3 0 0 0 .066-.013l1.584-.601 3.327-1.384.278.146c.09.036.218.018.273-.055l.302-.446 6.106-2.54c.172-.076.283-.067.383-.036a.47.47 0 0 1 .273.237c.023.04.033.072.041.097.017.052.024.072.123.085l2.73.31c.11 0 .219-.092.219-.165 0 0-.01-.707.218-1.474.152-.511.403-1.001.874-1.42.492-.437.965-.565 1.62-.601M7.599 14.452a.137.137 0 1 0 0-.273.137.137 0 0 0 0 .273" clip-rule="evenodd"/></svg>