<svg xmlns="http://www.w3.org/2000/svg" width="81" height="17" fill="none" viewBox="0 0 81 17"><path fill="#D9D9D9" d="M55.92 5.86v.074l-.462-.003v1.723l.458.003v.352h1.523v-.087h.76l.415-.37h.436c.105-.135.204-.276.243-.469h.309c.354-.012.406-.61 0-.614h-.321a.9.9 0 0 0-.24-.441h-.446l-.215-.169zm-11.213-.582c-.122.09-.073.21-.626.211h-1.548v2.492c-.001.294.24.427.517.432h10.447l1.02-.07c.396-.047.63-.261.636-.596V5.796c-.001-.414-.57-.526-.945-.522zm-7.911.687h4.063l.163.163h1.202V7.71h-5.419z"/><path fill="#D9D9D9" d="m36.8 3.715 28.766.1v-.102l.914-.488h.45v-.224l.577-.288c.24-.113.385-.002.388.22v.29h.343v.302h.15v.3h.506v1.693l-13.484.038c-.245-.493-.602-.597-1.453-.59l-9.392.005c-.143.173-.144.22-.4.215h-1.94v.458h-5.426zM29.77 14.24l.09.394.479.874c.154.265.443.33.707.28l4.343-.838c.625-.13.77-.695.243-1.028l.159-.364-.032-.195m.061-.317-.453-2.906-.259-.28c-.066-.072-.078-.197-.082-.312l-.024-1.093-.135-.324-.002-.149-.059-.24c-.052-.182-.078-.163-.174-.163h-3.938v.596h-.399l-.879.623.203 5.15"/><path fill="#D9D9D9" d="m25.36 3.504-1.149.299-.058-.137-1.11.008-.922.563.042.126-.892.424.898 3.033 1.814.014.002 1.866a1.63 1.63 0 0 0 1.114.48h1.545c.57 0 1.089-.3 1.32-.96l.163-.503h.862l1.05-.739v-.113h.348l.01-.593h4.288a.41.41 0 0 1 .391.306l.07.267h1.346V3.504zm-.008 4.339h1.2c1.248.023 1.083 1.722.153 1.725h-1.62c-1.066-.019-1.093-1.276-.583-1.536-.19.582-.172 1.125.471 1.421.124.051.21-.022.104-.126-.527-.49-.39-1.085.275-1.484m6.112-4.645h-3.776l-.165-.67c-.08-.456.073-.675.535-.587l.268.078c.153.046.297.144.42.377.171.285.393.532.89.584.864.07 1.662.144 1.828.218"/><path fill="#D9D9D9" d="m20.997 4.934-1.405.81-1.401.036.013.14-.511.075.18 2.128.494-.066.022.137.802-.141c1.79-.388 1.055 2.401.581 2.899-.585.616-1.398 1.891-1.41 3.432l2.6 1.027c.323.108.64-.29.352-.59l1.653-4.948.713-.256V8.145h-1.735zm-3.593 1.238-1.3.078.194 2.364.704-.046.51-.583.035-.01zm-1.63-.113-11.171.8c-.196-.1-.211-.138-.486-.124L3.1 6.803c.152 2.972.551 5.998 1.084 9.053l2.354-1.459c.113-.074.616-.088.964-.067v-1.18c.443.014.672-.051.94-.358l.287-.291a.94.94 0 0 1 .138-.438l1.14-1.749-.293.012s-.073.03-.187.14l-1.668 1.62a.78.78 0 0 1-.562.202L5.9 12.275l-.11-1.26a.8.8 0 0 0 .243-.192l2.27-.22c.348-.042.615-.207.7-.54l1.38-.074q.222-.088.527-.063c.59.051 1.286.088 2.03.052l.01.437c.09.122.138.252.155.386.553.016 1.133-.023 1.453-.713l.551-1.153.899-.061zM13.283 9.6l.47.004c-.021.28-.198.38-.47.372zm-4.613.478c-.058.084-.106.183-.318.21l-2.145.207a1 1 0 0 0 .01-.29z"/><path fill="#D9D9D9" d="m12.64 10.296-1.816-.067c-.304-.018-.454.073-.562.257l-1.133 1.747c-.23.374.013.652.424.743l1.028-1.308c.328-.423.75-.58 1.223-.589.159.577 1.08.414 1.01-.151-.023-.126-.02-.25-.174-.385zM2.788 6.898l-1.538.454c-.48.164-.465.506-.365.837.238.744.481 1.616.802 4.772q.1 1.112.312 2.273c.236 1.13 1.05 1.272 1.895.829a85 85 0 0 1-1.106-9.165M70.129 4.79l-.437-.345.33-.483-.426-.585L80.273.297l-4.585 3.251 5.16.629-4.953.912 3.35 3.006-9.601-2.458z"/></svg>