<svg xmlns="http://www.w3.org/2000/svg" width="27" height="17" fill="none" viewBox="0 0 27 17"><path fill="#D9D9D9" d="M17.053 2.029 16.904.154s-.634.064-.938.146c-.305.081-.886.343-.886.343l.874 1.68-.396.106.163.609L.838 7.025c-.052.015-.09.075-.105.17a.8.8 0 0 0 .026.33.8.8 0 0 0 .143.301c.06.074.123.108.176.094l14.883-3.988.163.608.313-.084s.333.867.496 1.564.403 2.626.403 2.626.367-1.146.39-2.127-.09-2.384-.09-2.384l.313-.084-.566-2.11zm2.402 10.191 4.013 2.794-2.706-4.1 6.08-1.06-7.81-1.531c-.436 1.128-2.197 1.773-3.245.721l-1.035 5.507 2.182-3.183 1.593 4.786z"/></svg>