<svg xmlns="http://www.w3.org/2000/svg" width="73" height="17" fill="none" viewBox="0 0 73 17"><path fill="#D9D9D9" d="M72.062 3.629 68.397 4.98l3.27 2.045-8.623-2.045.398-.424-.398-.4.23-.501-.23-.232L72.496.545l-3.494 2.03zM54.026 4.79l-.072-1.31h5.12v-.1h1.827v.08h1.549v.397h-1.549v.556h1.549v.397h-1.549v.08h-1.826v-.1z"/><path fill="#D9D9D9" fill-rule="evenodd" d="M53.555.938h-10.25v.495h.883c.058 0 .086.072.042.11l-.335.302h-.908l-.464.478h-9.057v-.207a.3.3 0 0 0-.118-.021.3.3 0 0 0-.11.015v1.74l.278.159v.802l-.28.3-.02 1.229h2.886c.146-.192.552-.596 1.013-.675h16.38l.278-.914zM34.746 3.18l.373-.661h.82q0 .045-.025.091l-.456.81-.505-.24zm1.09.08.417-.741h.82q0 .045-.025.091l-.47.837a.2.2 0 0 1-.025.033h-.693a.19.19 0 0 1-.024-.22m1.134 0 .417-.741h.82q0 .045-.025.091l-.47.837a.2.2 0 0 1-.025.033h-.693a.19.19 0 0 1-.024-.22m1.134 0 .417-.741h.82q0 .045-.025.091l-.47.837a.2.2 0 0 1-.025.033h-.693a.19.19 0 0 1-.024-.22m1.134 0 .417-.741h.82a.2.2 0 0 1-.024.091l-.472.837a.2.2 0 0 1-.024.033h-.693a.19.19 0 0 1-.024-.22m1.134 0 .417-.741h.82a.2.2 0 0 1-.024.091l-.471.837a.2.2 0 0 1-.025.033h-.693a.19.19 0 0 1-.024-.22m1.041 0 .418-.741h.401v.79c0 .058-.054.124-.114.171h-.68a.19.19 0 0 1-.025-.22m1.05-.462c0-.102.028-.197.075-.28h.972a.56.56 0 1 1-1.046.28m1.538-.047.134-.232h.829v.39a.317.317 0 0 1-.317.317h-.372a.317.317 0 0 1-.274-.475m7.2.06h.043v.48H51.2a.24.24 0 0 1 0-.48m1.954.48h-.728v-.48h.728a.24.24 0 0 1 0 .48M33.812 5.943a.2.2 0 0 1-.118-.04h.486a.2.2 0 0 1-.118.04zm.856-.852-.254.436V5.09zm-.017.567.341-.585.595-.282h.225a.2.2 0 0 1-.026.105l-.556.953a.19.19 0 0 1-.164.094h-.25a.19.19 0 0 1-.165-.285m1.004 0 .505-.867h.656a.2.2 0 0 1-.026.105l-.556.953a.19.19 0 0 1-.165.094h-.25a.19.19 0 0 1-.164-.285m2.157-.293V4.79h.575l.495.465c.042.039.014.11-.044.11zm1.142-.54a.06.06 0 0 1-.019-.034h.994l.495.465a.064.064 0 0 1-.043.11h-.826a.06.06 0 0 1-.044-.018zm1.542 0a.06.06 0 0 1-.019-.034h.994l.495.465a.064.064 0 0 1-.043.11h-.826l-.014-.003h-.005l-.002-.001-.023-.014zm1.542 0a.06.06 0 0 1-.018-.034h.993l.495.465a.063.063 0 0 1-.043.11h-.826a.06.06 0 0 1-.043-.018zm1.543 0a.06.06 0 0 1-.02-.034h.995l.495.465c.042.039.014.11-.044.11h-.826a.06.06 0 0 1-.043-.018zm1.542 0a.06.06 0 0 1-.019-.034h.994l.495.465a.063.063 0 0 1 .008.083.06.06 0 0 1-.051.026h-.826a.06.06 0 0 1-.044-.017zm1.542 0a.06.06 0 0 1-.019-.034h1.11v.574h-.49a.06.06 0 0 1-.043-.017zM45.516 1.68h-.983a.063.063 0 0 1-.046-.107l.24-.252c.011-.01.03-.02.047-.02h.983c.056 0 .085.068.046.108l-.24.252-.016.011a.1.1 0 0 1-.03.008m-.077 1.13a.24.24 0 0 0 0 .482h1.954a.24.24 0 0 0 0-.481zm2.881 0a.24.24 0 0 0 0 .482h1.954a.24.24 0 0 0 0-.481zm.016 2.151a.153.153 0 0 0 0 .306h2.13a.153.153 0 0 0 0-.306zm2.777 0a.153.153 0 1 0 0 .306h2.13a.153.153 0 1 0 0-.306zm-5.075-3.28h.984a.06.06 0 0 0 .046-.02l.24-.252a.063.063 0 0 0-.045-.107h-.984a.06.06 0 0 0-.046.02l-.24.251a.063.063 0 0 0 .045.107m1.505 0h.984a.06.06 0 0 0 .046-.02l.241-.252a.063.063 0 0 0-.046-.107h-.984a.06.06 0 0 0-.045.02l-.241.251a.063.063 0 0 0 .045.107m1.506 0h.983l.01-.001a.1.1 0 0 0 .031-.014l.005-.005.241-.252a.063.063 0 0 0-.045-.107h-.984a.06.06 0 0 0-.046.02l-.241.251a.063.063 0 0 0 .046.107m1.505 0h.984a.06.06 0 0 0 .046-.02l.24-.252a.063.063 0 0 0-.045-.107h-.984a.06.06 0 0 0-.046.02l-.24.251a.063.063 0 0 0 .045.107m1.505 0h.984a.06.06 0 0 0 .046-.02l.241-.252a.063.063 0 0 0-.046-.107h-.983a.06.06 0 0 0-.046.02l-.241.251a.063.063 0 0 0 .045.107" clip-rule="evenodd"/><path fill="#D9D9D9" d="M53.92 2.884h.644V1.732h-.71l.022.381h.315l.004.39h-.297z"/><path fill="#D9D9D9" fill-rule="evenodd" d="M15.75.938h-.873v.477h.675v.158h.468l-.011.058c-.308-.032-.99-.037-1.41.18l-.62.001v3.406l1.156.982c.212.119.71.361 1.012.377q.19.01.32.009l-.064-.547.25-.031c.777-.097 1.354.16 1.75.532.315.295.512.656.615.955h1.597c.19 0 .365.088.488.204a.68.68 0 0 1 .222.486v1.917c.326.037.723.086 1.072.13.433.053.793.098.859.098.126 0 1.346-.18 2.109-.318l.063.016 6.167-1.068v-.537l-.12-.119V6.617c.082-.09.518-.35.874-.496l.616-.16.02-.953.278-.297v-.556l-.278-.16V2.07q0-.036.011-.066c.095-.244.723-.206.723.066h8.697l.635-.655V.938H16.147l-.031.159h-.366zm9.108 6.979.343.48.016.203c.024.283.014.679.008.929a1 1 0 0 1-.302.185c-.178.06-1.33.258-1.667.258-.27 0-.934-.08-1.231-.119-.14-.04-.425-.195-.457-.496-.032-.302-.013-.88 0-1.132 0-.126.075-.366.354-.437h.556c-.211 1.333.163 1.609.301 1.688.111.063.14.026.14 0-.462-.667-.127-1.31.098-1.549l.047-.139h1.542c.066.015.16.055.252.129m-9.167-6.026c.125.08.321.322.099.655a.3.3 0 0 1-.1.04c-.063.016-.78.007-1.131 0-.066-.073-.179-.27-.1-.477.08-.206.854-.231 1.232-.218" clip-rule="evenodd"/><path fill="#D9D9D9" d="m31.283 9.27.955 5.947c.034.22-.169.387-.277.424l-4.53.818c-.344.072-.965.156-1.07-.01-.106-.167-.199-.558-.207-.833l-.119-.785.118-.018-.687-4.535zm-10.243.802h.032V8.185c0-.223-.23-.437-.457-.437h-1.787c-.124-.533-.672-1.529-1.892-1.507a2 2 0 0 0-.253.018l.12 1.013c.33.152 1.02.647 1.131 1.41-.556.734-1.75 2.736-2.084 4.864l-.12.477c-.018.06-.04.167.12.278.198.139 2.62.913 3.415.913.139-.053.417-.21.417-.417l-.318-.318c.245-1.257.786-3.836.993-4.09.193-.238.518-.309.683-.317"/><path fill="#D9D9D9" fill-rule="evenodd" d="M13.725 1.812h-.478c-.104.078-.197.148-.614.278a1.96 1.96 0 0 0-.854-.277v-.16H1.757c-.31 0-.584 0-.71.262-.204.427.053 4.356.257 6.297l.475 1.383h1.73l1.493-2.522 5.972-.913.643-2.005h.162v-.298h.457l.397 1.35h1.092zM3.56 5.425a.238.238 0 0 0-.476 0V7.61a.238.238 0 1 0 .476 0z" clip-rule="evenodd"/></svg>