<svg xmlns="http://www.w3.org/2000/svg" width="59" height="17" fill="none" viewBox="0 0 59 17"><path fill="#D9D9D9" d="m53.07 6.53-.246-.232 6.158-1.444-3.417 1.603 3.26.462-2.977.723 1.478 1.383-4.502-1.709.245-.331-.245-.3zM18.858.315a.05.05 0 0 1 .045-.031h.547a.26.26 0 0 1 .26.26V.89a6 6 0 0 1 .487.02q.012.001.02.011l.002.004.001.004.001.004v.539h-.511v.509a.16.16 0 0 1 .083-.024l9.466.059a.78.78 0 0 1 .532.213l2.574 2.437h-1.308l-1.094-1.389a2.6 2.6 0 0 0-2.045-.992H21.12a.52.52 0 0 0-.52.52v1.976h-.209v.065h-4.917v-.708l-.563-.045a.1.1 0 0 1-.092-.08c-.15-.638-.147-1.026-.001-1.656a.1.1 0 0 1 .1-.08h.556v-.811h.106v-.08L15.7.318l.004-.016a.04.04 0 0 1 .02-.019.8.8 0 0 1 .406-.01c.042.01.105.063.106.115h1.267c.029 0 .052.024.052.052v.073h1.266v.001a2 2 0 0 1 .038-.199"/><path fill="#D9D9D9" fill-rule="evenodd" d="M31.12 4.992h-.014v1.004H27.37a.16.16 0 0 0-.134.076l-1.178 1.984v.747l.176-.12c.281-.003.438-.082.717-.28 2.232-.016 5.132-.015 8.034-.015h.226c2.041 0 3.89.001 5.584-.005v.163a.05.05 0 0 0 .052.052h1.098a.05.05 0 0 0 .052-.052v-.168l.284-.002v.17a.05.05 0 0 0 .015.037q.015.015.038.015h.34a.05.05 0 0 0 .053-.052v-.334l.005-.012h.07a.17.17 0 0 0 .117-.047h.447a.124.124 0 1 0 0-.247h-.447a.2.2 0 0 0-.033-.025l.176-.367a.5.5 0 0 0 .044-.139l.003-.015a.5.5 0 0 0-.017-.22l-.495-1.658a.69.69 0 0 0-.658-.49H32.63l-.056-.093-.017-.017-.027-.008h-1.357a.05.05 0 0 0-.052.052zm1.881.543a.2.2 0 0 1 .1-.026h.766q.061 0 .11.033l-.008.043h-.038l-.009-.052-.035.004-.038-.004-.009.052h-.038l-.009-.052-.035.004-.038-.004-.009.052h-.038l-.009-.052-.035.004-.037-.004-.01.052h-.037l-.01-.052-.035.004-.037-.004-.01.052h-.037l-.01-.052-.035.004-.037-.004-.01.052h-.037l-.01-.052-.035.004-.037-.004-.01.052h-.037l-.01-.052-.035.004-.037-.004-.009.052h-.038l-.009-.052zm-.039.315q.022.02.049.035l-.009-.049h-.037zm.055.037a.2.2 0 0 0 .083.019h.767a.2.2 0 0 0 .09-.021h-.006l-.037.003-.01-.052h-.037l-.01.052-.035-.004-.037.004-.01-.052h-.037l-.01.052-.035-.004-.037.004-.01-.052h-.037l-.009.052-.036-.004-.037.004-.009-.052h-.038l-.009.052-.035-.004-.038.004-.009-.052h-.038l-.009.052-.035-.004-.038.004-.009-.052h-.037l-.01.052-.035-.004-.037.004-.01-.052h-.037l-.01.052-.035-.004zm.974-.025.027-.026h-.022zm.642.017q.044.026.099.027h.767a.2.2 0 0 0 .09-.021l-.01-.049h-.037l-.01.052-.035-.004-.037.004-.01-.052h-.037l-.009.052-.036-.004-.037.004-.009-.052h-.038l-.009.052-.035-.004-.038.004-.009-.052h-.037l-.01.052-.035-.004-.037.004-.01-.052h-.037l-.01.052-.035-.004-.037.004-.01-.052h-.037l-.01.052-.035-.004-.037.004-.01-.052h-.037l-.01.052-.035-.004-.037.004-.01-.052h-.037zm1.586-.036.007.008-.002-.015h-.011zm.054.04a.2.2 0 0 0 .09.023h.767a.2.2 0 0 0 .134-.052h-.894v.034h-.067V5.88zm.998-.316h-.901v-.034h-.067v.052h-.052l-.007-.036a.2.2 0 0 1 .12-.04h.776l.014.001.008.001a.2.2 0 0 1 .11.056m.63.315a.2.2 0 0 0 .043.017v-.045h-.083a.2.2 0 0 0 .04.028m.098.024h.763q.015 0 .027-.002v-.002H38zm.79-.395-.027-.002H38v.01h.79zm-.845.004v.052h-.09a.2.2 0 0 1 .09-.052m-2.298.06-.002.01h-.038l-.008-.05a.2.2 0 0 1 .048.04m-.051-.042a.2.2 0 0 0-.096-.024h-.767a.2.2 0 0 0-.097.025l.025.003.035-.004.01.052h.037l.01-.052.036.004.036-.004.01.052h.037l.01-.052.036.004.036-.004.01.052H35l.01-.052.036.004.036-.004.009.052h.038l.009-.052.037.004.036-.004.009.052h.038l.009-.052.037.004.036-.004.009.052h.038l.009-.052.037.004.035-.004.01.052h.037l.01-.052.037.004zm-.974.01a.2.2 0 0 0-.046.042h.038zm6.439.164c0-.11.089-.198.199-.198h.766a.199.199 0 1 1 0 .397h-.766a.2.2 0 0 1-.199-.199m-4.757.174-.008-.045h.008z" clip-rule="evenodd"/><path fill="#D9D9D9" d="m43.096 6.428.194.652q.018.06.025.12h1.106v.058h.02v.255h-.02v.1h.553v-.1h-.058v-.255h.134l.01-.002.007-.005a.03.03 0 0 0 .008-.018v-.006h.098v.006c0 .014.011.025.025.025h.714q.031 0 .044-.028l.012-.03h2.615v.168h.35a.016.016 0 0 0 .016-.016q.002-.015.016-.016h.4q.016.001.017.016 0 .01.009.014l.004.002h2.666a.24.24 0 0 0 .193-.096c.008-.01 0-.025-.014-.025h-1.776l-.03-.001c-.087-.008-.432-.043-.432-.122 0-.08.345-.115.433-.123l.04-.001h1.81q.008 0 .014-.008l.003-.01v-.337a.02.02 0 0 0-.017-.017h-1.83l-.02-.002c-.088-.008-.433-.043-.433-.122 0-.027.038-.048.092-.065a1 1 0 0 1 .094-.024 2 2 0 0 1 .272-.035h1.78a.02.02 0 0 0 .015-.008v-.003l.002-.004q0-.005-.003-.01a.24.24 0 0 0-.193-.096h-2.663a.016.016 0 0 0-.016.016.016.016 0 0 1-.016.016h-.4a.016.016 0 0 1-.017-.016l-.003-.01-.002-.002-.003-.002-.003-.001-.005-.001h-.35v.169h-2.615l-.006-.014-.002-.005-.003-.008-.002-.004a.05.05 0 0 0-.043-.028h-.719l-.003.002h-.002l-.002.001-.002.001-.002.003-.006.006-.001.004-.001.003v.012h-.1v-.007a.025.025 0 0 0-.024-.025h-.604a.03.03 0 0 0-.024.017l-.001.008v.034zm-12.198-.925v.285h-3.529a.36.36 0 0 0-.313.178l-1.207 2.033v.959q-.179.14-.317.289c-.2.216-.352.46-.511.804l-3.744.775-.014.724a.116.116 0 0 1-.226.035l-.225-.663-.05.01-.27.001c0 .106-.054.196-.146.224a.2.2 0 0 1-.041.009l-1.836.183a.55.55 0 0 1-.329-.07l-.645-.372a.24.24 0 0 0-.34.11l-1.34 2.966a.15.15 0 0 0 .042.174.16.16 0 0 1 .041.204l-.028.053a.21.21 0 0 1-.29.086l-2.084-1.155a.206.206 0 0 1-.075-.289l1.782-2.88c.397-.6.067-1.142-.136-1.246h.116c.436.348.817.578 1.229.717.38.129.775.175 1.244.175l.004.03-.262.529a.275.275 0 0 0 .115.363l.686.376a.3.3 0 0 0 .174.037l1.84-.152a.2.2 0 0 0 .113-.045.2.2 0 0 0 .067-.101l.002-.007a.2.2 0 0 0 .007-.052V9.622q0-.03-.006-.059l-.006-.022-.011-.03a.3.3 0 0 0-.067-.092v.142a.035.035 0 0 1-.034.034h-.197a.034.034 0 0 1-.034-.034v-.208l-1.336.118c-.201.322-.27.607-.25.84s.106.463.37.675c.029.025.032.063.011.088q-.022.032-.081.027a.63.63 0 0 1-.415-.238l-.013.002h-.008c-.06 0-.108-.067-.108-.15a.2.2 0 0 1 .006-.05 1.05 1.05 0 0 1 .055-.971c-.126-.02-.185-.058-.248-.161a.45.45 0 0 0-.193.079c-1.08.024-1.682-.16-2.58-.89h-.409V4.738h-.798v-.01c0-.057.046-.103.104-.103h1.11v.43h5.126V5.5a.276.276 0 0 0 .277.277h6.382v-.071h2.27a.28.28 0 0 0 .24-.137h1.27a.07.07 0 0 0 .069-.066"/><path fill="#D9D9D9" d="M26.841 5.498v.071h-.512v-.258h-.014v.258h-5.648A.07.07 0 0 1 20.6 5.5v-.446h.208V4.99h3.72l.138.08h2.657v.24h.014v-.179l.001-.007a.07.07 0 0 1 .067-.055h1.916c.038 0 .069.03.069.069v.291a.07.07 0 0 1-.07.069zm-2.062 4.815-3.414.707-.013.036v1.62h-.148a.115.115 0 0 0-.116.116v1.37c0 .064.052.115.116.115h.148v1.755c0 .1.08.183.181.185l1.66.034a.07.07 0 0 0 .071-.07v.025c0 .025.02.046.046.046h.318a.21.21 0 0 0 .207-.208v-.107a.057.057 0 0 1 .058-.058h.757c.09 0 .162-.072.162-.161v-.21h.137v.27c0 .02.015.035.034.035h.578a.39.39 0 0 0 .392-.392v-3.888a.39.39 0 0 0-.392-.392h-.578a.035.035 0 0 0-.034.035v.27h-.137v-.882a.023.023 0 0 0-.023-.023h-.01z"/><path fill="#D9D9D9" fill-rule="evenodd" d="M14.64 8.827v-3.88h-.808l-.13.008c-1.19.729-2.685 1.026-4.147 1.026l-7.867.143a.1.1 0 0 0-.097.072 12 12 0 0 1-.774-.165.21.21 0 0 0-.259.23c.34 2.595.308 4.298.128 7.095a.24.24 0 0 0 .309.247l.724-.217.001.09h.185a.344.344 0 0 0 .33-.247l.274-.944A3.78 3.78 0 0 1 5.401 9.63l4.038-.805zm-4.856-1.89a.344.344 0 0 0-.344.344v.831c0 .19.154.344.344.344h2.001c.19 0 .344-.154.344-.344v-.831a.344.344 0 0 0-.344-.344zm-.73 1.3V6.795a.344.344 0 0 0-.35-.343l-5.826.113a.7.7 0 0 0-.273.292v1.822a.6.6 0 0 0 .146.183c.264 0 .479.214.479.478v.04c.001.075.003.202-.013.332L8.78 8.574a.344.344 0 0 0 .275-.337M2.935 9.31a.18.18 0 1 1-.028-.097l.004.005.004.008a.2.2 0 0 1 .02.084" clip-rule="evenodd"/></svg>