<svg xmlns="http://www.w3.org/2000/svg" width="55" height="17" fill="none" viewBox="0 0 55 17"><path fill="#D9D9D9" d="M13.102 2.222V.736c0-.071.056-.127.127-.127l4.442.036c.095 0 .154.098.114.181l-.334.702a.14.14 0 0 0-.012.055v.639a.124.124 0 0 1-.127.126h-.15v.39h-3.626v-.39h-.307a.125.125 0 0 1-.127-.126m-.212.674h12.295a.14.14 0 0 1 .138.138v.294h.3l.028.001c.15 0 .271.143.271.3 0 .18-.15.33-.331.33h-.426v.509h-1.222v-.43h-2.326v.552h-7.726c-.789 0-1.183-.237-1.183-.237l-.212-.107-.024-.01-.611-.3a.1.1 0 0 0-.044-.012h-.11a.104.104 0 0 1-.103-.102v-.548c0-.055.048-.103.099-.103h.359c.015 0 .031 0 .043.008.052.024.18.084.312.15h.133v-.295a.14.14 0 0 1 .138-.138z"/><path fill="#D9D9D9" d="M23.448 4.334h.257v.345h-.257l-.153.056-1.417.008-.043-.01v-.02h-.055v.032h-.004v-.476h.004V4.3h.055v-.02l.043-.01 1.417.008zm3.378 3.615a1 1 0 0 1 .071-.127c.11-.173.31-.45.428-.61a.31.31 0 0 1 .257-.13h4.787l.917.54v.746q0 .03-.003.058c-.028.34-.289.343-.419.343h-2.55a.2.2 0 0 0-.115.036l-.382.26q-.044.032-.086.057a.544.544 0 0 1-.73-.1l-.905-1.032a.2.2 0 0 0-.148-.064h-.56l-.023.005a.06.06 0 0 0-.036.053l.004 1.353a.27.27 0 0 1-.13.234.257.257 0 0 1-.382-.223V7.97q0-.007.005-.02m-.164.035v.822l-.05.08h-.5v.158H21.34v-.158h-.46v-.212q-.001-.012.01-.034l.037-.054a.2.2 0 0 1 .028-.029.37.37 0 0 0 .161-.31v-.265zm-4.995 3.2.23-1.982h3.706l.43 1.97h-4.258a.5.5 0 0 0-.108.012m4.969.505a.37.37 0 0 0-.371-.358h-4.49a.372.372 0 0 0-.367.425c.042.29.092.697.118 1.12.02.322.026.654.003.95a3 3 0 0 1-.03.264 4 4 0 0 0-.035.322c-.015.222-.01.436.004.632.035.455.128.812.169.954a.35.35 0 0 0 .095.162c.114.11.386.284.989.335l.055.005.07.006c.983.087 3.156.278 3.344-.287a2.7 2.7 0 0 0 .14-1.154l-.014-.201v-.001l-.008-.103a8 8 0 0 1 .023-.972c.04-.553.12-1.127.214-1.314.056-.111.08-.287.09-.467a5 5 0 0 0 0-.317m-8.029-1.909a.47.47 0 0 0-.17-.23l.515-.388h.026c-.126.358.192.807.192.807s-.437.162-.564-.189"/><path fill="#D9D9D9" fill-rule="evenodd" d="M20.722 9.904c0 .158-.197.355-.394.552s-1.064.197-1.498.197a9 9 0 0 1-1.029-.094.225.225 0 0 0-.228.118 148 148 0 0 1-1.23 2.381c-.126.217-.075.288-.052.308q.003 0 .004.003l.002.002h.001l.002.002.02.02c.03.04.098.126.098.217 0 .079-.122.142-.205.174a.23.23 0 0 1-.138.007l-2.37-.63a.2.2 0 0 1-.133-.099.22.22 0 0 1 .003-.236l.652-.984q.526-.787 1.043-1.579c.513-.78-.031-1.064-.319-1.155a.2.2 0 0 1-.098-.063h-.596s-.287 0-.287-.276l-.868.04s-.307.007-.307-.332V7.98l8.163.003v.266a.21.21 0 0 1-.09.177.5.5 0 0 0-.114.134.24.24 0 0 0-.032.115zm-2.925.13a1 1 0 0 1-.008-.13c0-.043.024-.086.06-.11l1.013-.76a.1.1 0 0 1 .044-.023.2.2 0 0 1 .043-.005h1.091c.213 0 .335.173.375.248a.15.15 0 0 1 .02.071v.473l-.001.022c-.022.33-.448.487-.551.518l-.008.002a.1.1 0 0 1-.036.006h-1.69c-.25 0-.329-.169-.352-.313" clip-rule="evenodd"/><path fill="#D9D9D9" d="M10.663 3.746c.13 0 .223.119.232.247v3.829c-1.099-.011-2.263-.088-3.218-.153-.823-.055-1.49-.1-1.824-.082-.584.031-.757.828-.808 1.178a.25.25 0 0 1-.197.21c-.501.098-1.64.157-2.121.18l-.936.018a.12.12 0 0 1-.11-.07l-.071-.156a.04.04 0 0 0-.036-.024h-.035a.12.12 0 0 1-.118-.104L.862 4.232A.17.17 0 0 1 1 4.047l1.258-.178.378-.023a.2.2 0 0 1 .122.023c4.199 2.01 6.564.682 6.8.406.204-.237.616-.404.78-.466a1 1 0 0 1 .325-.063m17.668 1.081v.453l1.197.007v-.46h-.22v-1.38a.12.12 0 0 0-.118-.118h-.359a.12.12 0 0 0-.118.119v1.38zm1.356.631v-.982h.516a.262.262 0 0 0 .512 0h.584a.26.26 0 0 0 .256.205.26.26 0 0 0 .256-.205h2.125a.258.258 0 0 0 .458 0h.504a.258.258 0 0 0 .457 0h.505a.258.258 0 0 0 .457 0h.505a.258.258 0 0 0 .457 0l4.43.008V6.69a.1.1 0 0 1-.014.057.12.12 0 0 1-.104.062h-.787a.12.12 0 0 1-.119-.119V5.458zm11.751-1.133-1.305-.002v-.097h.202v-2.29c0-.176.142-.318.317-.318h.197c.175 0 .317.142.317.317v2.291h.272zm.43 1.409v-.907h4.525q.017.001.028.008l.17.103.027.008h.134c.031 0 .055.023.055.05v.608c0 .027-.024.051-.055.051h-.099q-.006-.001-.02.004l-.157.071q-.012.005-.024.004z"/><path fill="#D9D9D9" d="M41.525 6.967v.143a.16.16 0 0 1-.162.161h-.311v.158H39.75v.193h-1.24V6.286h.326a.3.3 0 0 1 .136.035h.779v.083h.776v.285c0 .153.124.278.277.278z"/><path fill="#D9D9D9" fill-rule="evenodd" d="M38.351 5.734h2.176v-.118h-8.423v.118h5.794v.512h-5.953v-.63h-2.417v-.171l-1.355-.007v-1.49a.5.5 0 0 0-.083-.272l-.15-.229a.19.19 0 0 0-.153-.083l-1.813-.03a.46.46 0 0 1 .106.294c0 .269-.22.49-.49.49h-.267v.35h.08v.273l2.562.61v1.573h4.447l1.032.607v.607h2.425v-.516h2.482zm-8.298.532h1.285v-.438l-1.127-.015-.158.118z" clip-rule="evenodd"/><path fill="#D9D9D9" d="M11.403 3.761h.043v.06c0 .143.118.262.26.262h.094l.601.295.031.013.2.102.003.001a1 1 0 0 0 .082.04q.083.04.241.09c.211.063.522.124.933.124h7.62a.6.6 0 0 0 .185.275h1.16l-.136-.117h1.144v-.28h1.38v.24l2.562.61v1.448h-.224a.47.47 0 0 0-.385.195c-.085.115-.212.29-.318.444a5 5 0 0 0-.167.259H11.053v-3.8a.46.46 0 0 0-.146-.343c.02-.08.08-.193.242-.194.254 0 .254.276.254.276m42.381-.48-6.55 1.787.078.125-.077.094.115.14-.115.152 6.204 2.17-2.304-1.625 3.5-.624-2.886-.539z"/></svg>