<svg xmlns="http://www.w3.org/2000/svg" width="28" height="17" fill="none" viewBox="0 0 28 17"><path fill="#D9D9D9" d="m25.275 8.864-9.27-4.158.535-.315-.534-.588.455-.342-.455-.193L26.4.038l-3.395 2.906 4.414 1.082-4.096 1.719zM1.144 3.975h.216c1.42.002 9.363.012 9.743 0 .418-.013.353.248.353.248l-1.177 1.309H8.597s-.07 0-.2.216q-.028.048-.06.11c-.17.326.195.976.195.976H8.53c-.005.002-.028.01-.072-.005-.05-.018-.13-.067-.24-.191-.222-.248-.13-1.106-.13-1.106h-.816v5.331s.07.146.169.218c.029.084.017.108.017.108s-.3.06-.453.075l-2.422.017A7 7 0 0 1 4 11.268c-.075-.032-.405-.174-.431-.575a1 1 0 0 1 .006-.166l-.025-.016a.114.114 0 0 1-.035-.13c.015-.04.034-.06.087-.075l.012-.074-.015-.011a.114.114 0 0 1-.034-.13c.019-.05.042-.062.085-.074l.012-.063a.2.2 0 0 1-.036-.023l-.017-.017a.11.11 0 0 1-.008-.12.11.11 0 0 1 .102-.055l.015-.079a.2.2 0 0 1-.036-.029.1.1 0 0 1-.029-.068.11.11 0 0 1 .108-.114l.02-.094a.2.2 0 0 1-.048-.045.109.109 0 0 1 .095-.172l.018-.081-.022-.016a.1.1 0 0 1-.032-.048.1.1 0 0 1 0-.077.12.12 0 0 1 .101-.074l.016-.07a.1.1 0 0 1-.034-.024.11.11 0 0 1-.003-.157c.027-.03.043-.04.087-.034l.017-.076a.1.1 0 0 1-.04-.029.108.108 0 0 1 .079-.18c.042-.327.158-1.286.115-1.709-.052-.513-.297-.808-.43-.816-.111-.007-.128-.174-.13-.232h-.103L1.144 4.42zm11.383.625V3.508h.07V3.39h2.705v1.265h-2.706V4.6z"/><path fill="#D9D9D9" d="m8.267 7.516-.772-.367v-.478l.89.42a16 16 0 0 0 .548.026c.333.01.682.008.849-.025a.38.38 0 0 0 .248-.18.5.5 0 0 0 .061-.134v-1.03h.377V6.83c0 .094-.082.237-.127.31-.092.146-.202.32-.474.374-.225.045-.626.044-.947.034a17 17 0 0 1-.623-.03zM6.766 11.49H4.904v4.547h1.862zM11.636.928s-.597.567-.58.646v.315h-.653s-.015-.105-.214-.105h-.277V.963s-.288-.114-.29.218c-.003.33-.5.508-.5.508v.095H3.204c-.147 0-.11.157-.11.157h-.513c-.058.028-.035.078-.035.078h-.658v-.548c0-.328-.026-.392-.208-.404H.57c-.362-.005-.408.404-.408.404v2.663c.002.195.066.22.203.222h.563v-.597h10.169c.26 0 .436.067.527.23a.4.4 0 0 1 .044.273l-.016.066-.541.602h1.152s.044-.1.047-.257l-.027-2.654h-.04c-.002-.11-.015-.715.001-.88.018-.182-.181-.211-.181-.211z"/></svg>