<svg xmlns="http://www.w3.org/2000/svg" width="87" height="17" fill="none" viewBox="0 0 87 17"><path fill="#D9D9D9" d="m74.637 2.126.276-.22v-.693c0-.281.325-.549.724-.549.4 0 .716.198.716.549v.997c.108.019.227.087.227.22v.622c0 .226-.173.33-.289.33l-.034.001-.04.078h-1.514l-.004-.06-11.392.127-2.311.12-.035.752c-.457.288-.722.826-.723 1.139v.634l-1.16.031c.093-.146.143-.339.154-.557v-2.08a.4.4 0 0 0-.098-.262v-1.43h.225c.013 0 .051.009.051.009.05.018.101.066.146.158h1.207q.027.002.068.059l2.476.054 11.333.043z"/><path fill="#D9D9D9" fill-rule="evenodd" d="M58.817 1.618V3.17l-6.846.049a.4.4 0 0 0-.295.134 3.7 3.7 0 0 1-.9.702 1 1 0 0 1-.092.041l-8.91-.03V2.62c0-.266-.172-.514-.49-.514h-.371v-.464l17.311.12v-.144zm-6.584.247a.17.17 0 0 0-.172.171v.403c0 .094.077.171.172.171h.6a.17.17 0 0 0 .172-.171v-.403a.17.17 0 0 0-.172-.171zm1.485.171a.17.17 0 0 1 .171-.171h.6c.095 0 .172.077.172.171v.403a.17.17 0 0 1-.171.171h-.6a.17.17 0 0 1-.172-.171zm1.827-.171h.601c.095 0 .172.077.172.171v.403a.17.17 0 0 1-.172.171h-.6a.17.17 0 0 1-.172-.171v-.403c0-.109.084-.171.171-.171m1.486.171a.17.17 0 0 1 .17-.171h.602c.094 0 .171.077.171.171v.403a.17.17 0 0 1-.171.171h-.601a.17.17 0 0 1-.171-.171z" clip-rule="evenodd"/><path fill="#D9D9D9" d="M27.955 4.332a.4.4 0 0 1-.104-.013.26.26 0 0 1-.135-.08.4.4 0 0 1-.074-.246 4 4 0 0 0-.317.013 2 2 0 0 0-.253.045l-3.566 1.39c-.444.2-1.098.275-1.742.218s-1.244-.25-1.585-.494c-.319-.23-.814-.24-1.287-.18l-17.473.951-1.075.047c-.378.04-.341 1.001-.29 1.853l.29 7.595c.005.496.05.645.258.985.012.02.069 0 .069 0l15.837-5.75c.264-.108 1.098-.138 1.805.043 0 0 .99.326 1.662.52.67.193 1.583.248 1.583.248.137 0 .195-.058.283-.248.463-1 1.25-2.019 2.41-2.653.717-.391 1.56-.619 2.656-.723l.25-.022q.454-.034.968-.044l.138-.004a2.3 2.3 0 0 0-.293.325c-.333.458-.227.82.04 1.274.06.102.252.056.163-.113-.26-.495-.17-.857.256-1.173q.235-.173.604-.335l1.164-.032v.055h-.274a1 1 0 0 0-.187.275 1 1 0 0 0-.073.431c0 .186.182.342.536.434-.02.157-.401.415-.737.51-.374.105-1.248.091-1.476.035-.252-.062-.543-.21-.701-.673a2.2 2.2 0 0 1-.122-.647l-.236.02c.029.34.082.78.12.92.121.436.59.665.924.752.127.033.921.015 1.49-.015.463-.025.752-.396.968-.856.203.03.374-.034.385-.24.018-.35.25-.679.45-.721.168-.036.147-.114.096-.313l1.839-.052.153.14h.582c.03 0 .071.061.11.154.06.151.114.385.108.57-.004.124.278.182.293.06l.052-.96 4.03-.113c.403-.111.79-.21 1.17-.3 2.523-.595 4.703-.751 8.844-.859l9.86-.106c.21 0 .488-.072.513-.59V3.566a.08.08 0 0 0-.08-.08l-6.86.049a.08.08 0 0 0-.06.027c-.343.387-1.017.854-1.224.854z"/><path fill="#D9D9D9" d="m27.96 4.014 13.496.05V2.62a.197.197 0 0 0-.197-.197h-.663v-.901h-1.174v.348H38.31c-.36.164-.92.346-1.062.346h-.671V1.87h-.321v.304h-1.823l-.087-.132-.209-.449h-1.476v.222h-.515l-.003-.154a.07.07 0 0 0-.04-.061.1.1 0 0 0-.032-.007c-.331.008-.414-.043-.688-.38q-.041-.052-.075-.106l-.02-.029-.013-.02c-.065-.093-.137-.17-.279-.175-.346-.012-.566.2-.566.33v1.24l-2.287.308a.17.17 0 0 0-.145.134l-.163.779.124-.002zm6.857 3.902 3.757-.105c.388-.107.799-.213 1.165-.3.24 1.834.458 2.993.975 4.88a.17.17 0 0 1-.12.212l-4.369 1.208a.17.17 0 0 1-.209-.114c-.69-2.18-1.007-3.503-1.199-5.78M84.72.426 76.964 2.25l.533.306-.533.33.362.384-.362.33 7.244 2.008-2.323-2.009 4.407-.329-4.565-.889z"/></svg>