<svg xmlns="http://www.w3.org/2000/svg" width="76" height="17" fill="none" viewBox="0 0 76 17"><path fill="#D9D9D9" d="M30.73 4.703v3.504h22.927l.992-1.162c.109-.14.216-.169.415-.232.328-.086.442-.16.5-.493l.239-1.573zm3.958.956h2.224l.252.312h-.466l-.932-.131h-.947zm3.048.007h3.312l.244.295h-3.314zm4.224.01h3.198l.245.3h-3.191zm4.233.013h.67l.087.132 1.715-.007.07.15H46.44zm4.726.01 2.904.005.246.257h-3.302zM36.988 7.447h3.315l-.272.33h-3.32zm13.92 0h2.026c.072.085.068.225-.057.331l-3.567.004.18-.196h1.284zm2.817.002-.238.272c-.018-.075-.016-.212.019-.27zm-12.513.005h3.2l-.264.325h-3.223zm4.233 0h3.076l-.275.32h-3.078zm-9.384.114-.165.203-1.237.003.133-.166.986.003z"/><path fill="#D9D9D9" d="M55.81 6.129h5.317v1.225H54.67l.163-.187c.07-.078.184-.118.339-.155.498-.124.56-.43.604-.637zm6.632-.336-1.091.338-.003 1.228 1.15.298 4.817.01-.002-1.874zm2.921.433c.17 0 .245.125.248.258v.473c0 .182-.094.26-.233.266h-.335c-.197-.004-.239-.153-.236-.26l.004-.496c0-.147.1-.239.222-.238zm-1.24 0c.17 0 .245.126.248.258v.474c0 .181-.094.26-.232.265h-.336c-.197-.003-.238-.153-.235-.26l.003-.496c0-.146.1-.238.222-.237zm2.482 0c.17 0 .245.126.247.258v.474c0 .181-.093.26-.232.265h-.336c-.197-.003-.238-.153-.235-.26l.003-.496c0-.147.101-.238.222-.237zm1.323.742-.311-.245.234-.344-.303-.416L75.15 3.77l-3.265 2.314 3.674.448-3.526.65 2.385 2.14-6.836-1.75zm-.927.955-2.32.341.123-.352-1.89.281.089-.29-5.676 1.308 4.399.153-1.356 1.38 4.09-1.629-.043 1.115zm-.034-2.421-2.32-.342.123.353-1.89-.282.089.291-5.676-1.309 4.399-.152-1.357-1.381 4.091 1.63-.043-1.116zM34.313 8.43l.055.433.202.247.47 1.62.197.294c.188.246.447.152.479-.181.016-.097.037-.178.151-.237l1.39-.844c.163-.1.305-.094.356-.078.3.12.422-.124.35-.301.488-.434.75-.474 1.133-.49l.758.007c.344.01.37.094.413.21.106.33.512.298.514-.058V8.43zm2.028.46c.169-.004.219.1.086.177l-.775.527c-.15.092-.255.06-.284-.057l-.104-.477c-.019-.109.018-.146.146-.147zM17.568 4.52l-1.24 1.116v3.026l1.29-.018c.936.022.945.61 1.01.884l1.517-.002c.244.01.42.122.428.436l-.002 1.312c.088-.009.127-.049.38.035l.535.163c.305.093.614.111 1.051.049l7.278-1.286-.01-1.193.706-.842V4.683L18.297 4.7l-.002-.18zm4.718 4.974c.55 0 .845.207.85.598v.428c.003.536-.817.703-1.411.57l-.481-.152c-.227-.098-.248-.239-.217-.363l.275-.87c.067-.14.096-.207.342-.207-.013.539.04 1.07.3 1.44.083.101.199.044.157-.098a3.6 3.6 0 0 1-.034-1.345zm1.605 2.004.242 1.358 5.727-.992-.239-1.376zm-2.207-7.025V4.06h1.492c.149-.009.213-.09.3-.197l.249-.32a.56.56 0 0 0 .083-.306l.02-1.832h.892l.012 2.03c0 .115-.025.22.245.233l2.76.003c.444.006.467-.219.478-.42l.01-1.846.882-.003.005 1.897c-.001.145-.055.256-.186.38l-.46.394c-.147.126-.193.118-.388.12l-2.19.008-.07.148-.002.125z"/><path fill="#D9D9D9" d="m23.61 1.538-.944-.004-.691-.346h-.125l-.098-.17h-.664l.003-.476.06-.102V.195h-.468V.42l.063.103-.002.502h-.194l-.084.162-3.558-.001V3.68l4.998-.006.746-.358h.936c.004-.02.003-.037.003-.07zm1.33-.004c.017-.004.688 0 .688 0l.092-.07V.473h1.886v.984l.085.075h.316l-.01 1.785h-.188l-.239.236h-1.81l-.244-.244h-.57zm4.39.001h2.428v1.788h-2.424zM16.119 5.654l-4.945-.001-1.726 3.326c-.17.259-.323.475-.792.486h-2.04c-.532-.005-.757-.223-.955-.55L4.077 6.157l-.002-.506H2.372l.38 7.044 7.414-.673v-.842a.9.9 0 0 1 .126-.469l.94-1.662c.164-.256.298-.582.967-.578l3.92-.023z"/><path fill="#D9D9D9" d="M4.295 5.16v.933l1.573 2.734c.191.325.39.418.708.425l2.022-.005c.358 0 .496-.106.663-.383L11.18 5.17zm-2.142.492h-.71c-.37-.003-.636.367-.613.927l.215 5.153a.86.86 0 0 0 .132.415l.25.38c.173.242.245.287.47.257l.635-.068zm13.433 8.518 3.252.311c-.031-.336.035-.628.573-.737.206-.049.265-.239.133-.382-.196-.218.183-.669.447-.791.243-.123.24-.268.157-.383-.15-.205-.008-.562.208-.777V9.995c.002-.218-.08-.25-.25-.251l-1.684-.002c-.023-.812-.362-.885-.864-.878h-.327l-.027.315c1.002.768.848 1.19.119 1.822a2.8 2.8 0 0 0-.556.812zm-1.589.088 5.472.491-.535 1.245c-1.928.335-4.682.305-5.65-.501z"/></svg>