<svg xmlns="http://www.w3.org/2000/svg" width="75" height="17" fill="none" viewBox="0 0 75 17"><path fill="#D9D9D9" d="M25.608 3.818h-.67v.54h-.253v.504h-.531c-.12 1.236-.73 1.553-1.208 1.748l1.002 2.341-.18.058c-.122.35-.192.66-.191.937 0 .341.105.631.353.879.051.051.104.005.102-.038l-.006-.027c-.183-.32-.276-.59-.277-.853 0-.216.061-.428.19-.661q.096-.177.243-.374c1.117-.381 1.853-.619 3.816-.619 0 0 2.501-.148 4.346-.202V4.507H31.33c0 .241-.212.355-.53.355h-2.49v-.39l-1.9-.114h-.802zm7.012 1.769v2.241c4.354.328 9.116.467 13.54-.097q.733-.093 1.453-.213c1.064 0 1.667-.286 1.667-1.143a.9.9 0 0 0-.042-.264 1 1 0 0 0-.04-.093c-.178-.338-.663-.46-1.585-.524z"/><path fill="#D9D9D9" d="m32.62 5.312 15.012-.093c.593.04 1.06.108 1.381.268.17.084.31.2.406.359q.05.082.08.172h9.78v.093h-9.754q.03.125.03.26v.002c0 .318-.073.59-.223.807h10.68c.038 0 .07-.048.07-.107v-.855c0-.059-.032-.107-.07-.107h-.173v-.093h1.67c.038 0 .07-.06.07-.132V4.83c0-.073-.032-.132-.07-.132h-.295v-.355l-.153-.243h-.895v.598H32.62z"/><path fill="#D9D9D9" fill-rule="evenodd" d="M25.478 8.764c.816.386 1.22 1.637.416 2.44-.944.945-2.518-.006-2.472-1.032a.24.24 0 0 0-.117-.227l-.265-.14a.2.2 0 0 0-.162-.014l-.59.197q-.22.071-.402.126c-.698.216-1.06.328-1.888 1.045-.972.842-1.247 1.863-1.247 2.027 0 .302.142 1.017.603 1.27s.77.225 1.127.148c.305-.065.469-.271 1.142-1.118l.177-.222c.522-.655 1.742-1.28 2.805-1.219.7.041 1.2-.226 1.683-.71.557-.556.818-1.208.635-1.88-.11-.405-.012-.689.22-.908a9 9 0 0 0-1.43.165zm-2.47 3.352c-1.192.73-1.451.959-2.073 1.912-.216.331-.688.49-1.272.304-.46-.146-.785-.73-.672-1.157.231-1.102 1.374-2.432 3.093-2.895.65-.176.989.079 1.285.523.317.475-.02 1.104-.36 1.313" clip-rule="evenodd"/><path fill="#D9D9D9" d="m22.682 6.693 1.004 2.347-.305.099c-2.42.78-4.675 1.508-5.126 4.517l-2.413-1.094c.1-.558-.292-.616-.606-.532l-7.168 2.302-.045.014L.85 16.65.36 7.692l14.737-.174c.523 0 1.205.565 1.815 1.392a63 63 0 0 1 5.77-2.216m-.323-.684.406.366a69 69 0 0 0-.788.263l.053-.117c.02-.043-.063-.109-.103-.092-.162.067-.255.051-.45-.011-.255-.081-.356-.084-.541.02-.05.029-.153-.032-.114-.07.223-.211.378-.263.88-.238.098.005.192-.058.344-.16.109-.075.24-.026.313.04M70.802.65l-8.544 4.173.367.304-.367.194.51.168-.51.328 7.848 4.147-2.732-3.03 7.104-1.117L67.97 4.35z"/></svg>