<svg xmlns="http://www.w3.org/2000/svg" width="83" height="17" fill="none" viewBox="0 0 83 17"><path fill="#D9D9D9" d="M71.603 3.431 81.759.037l-2.95 2.914 3.183 1.304L78.81 5.53l3.585 2.51-10.791-3.303.43-.201-.43-.317.233-.473zm-28.446.999V3.357h21.09v.476c0 .085-.017.137-.054.172-.04.037-.129.082-.336.082h-18.41l-.751.341zM35.45 3.219c.076 0 .137.06.137.135v3.931a.137.137 0 0 1-.136.136h-1.025v-.154a.273.273 0 0 0-.273-.273h-4.134a.273.273 0 0 0-.273.273v.154h-4.72l-.89-3.802c.884-.246 1.872-.4 2.074-.4zm7.517 3.928h-7.102V5.678h7.102zm-15.934.552h1.22c-.317.209-.506.458-.506.644v.137c0 .444-.359.922-.683.956-.388.041-.94.058-1.315 0-.667-.102-1.008-.58-1.008-.87v-.257c0-.141-.141-.36-.322-.525l.355-.085h1.22c-.285.171-.399.383-.433.593-.034.205-.052.359.085.615.051.096-.102.182-.154.12-.177-.217-.272-.362-.307-.547-.03-.16 0-.32.068-.529a.74.74 0 0 0-.222.529c-.008.29.17.478.478.649.189.105.427.11.799.119h.021c.718.018 1.128-.41 1.128-.836 0-.24-.069-.445-.274-.615a.8.8 0 0 0-.15-.098m-10.816 3.463c-.24-.069-.717-.052-.888 0L1.134 16.03c-.075.03-.202-.032-.232-.105a.1.1 0 0 1-.007-.032L.639 8.138c-.002-.04.027-.1.079-.146a.25.25 0 0 1 .126-.059s11.417-1.37 14.74-1.704c.475-.048.785-.074.872-.072a6 6 0 0 1 1.052.124l.123.024c.216.043.406.08.58.089l.073.002c.736 0 1.49-.485 2.466-1.16l.199-.138c.881-.613 1.502-.923 2.478-1.256q.21-.07.442-.145l.872 3.724q-.338.08-.651.158c-1.379.342-2.414.657-3.134 1.191-.974.722-1.579 1.674-2.006 3.126z"/><path fill="#D9D9D9" d="m7.864 14.016.342-.118v1.005a.17.17 0 0 1-.342 0zm35.41-8.771c-.008.012-.03.054-.03.229v1.913c0 .034.01.049.025.064.021.02.065.046.142.068h10.092c.178-.08.254-.22.254-.406V5.576c0-.206-.11-.347-.248-.405H43.42c-.123.041-.142.069-.146.074"/><path fill="#D9D9D9" fill-rule="evenodd" d="M35.865 3.492h7.014v1.215h1.877l.752-.341h18.35c.236 0 .412-.05.526-.158a.5.5 0 0 0 .142-.374V3.32h5.19v.137h.82v1.366h-.82V5.2h.683c.076 0 .137.061.137.137v.786a.137.137 0 0 1-.137.136h-.683v-.205h-.546s-.202-.427-.479-.666-.546-.393-.666-.393h-1.247s-.137 0-.17.137c-.052.205-.154.205-.308.205s-.256 0-.308-.205c-.034-.137-.17-.137-.17-.137h-.7c-.223 0-.496.205-.53.325l-.376 1.76c-.063.21-.205.34-.342.358v.564h-.376v.785a.17.17 0 0 1-.341 0v-.785h-.24v-3.04h-4.919v.102s-.41.034-.683.307-.273.478-.273.478v.889h-.547v.614H54.24v-.205h-.205V5.678h.205V5.44h.069v-.478h-.602a.7.7 0 0 0-.15-.068h-10.18c-.273.083-.372.176-.4.396l-7.112.243zM55.13 5.439v-.478h1.366v.478z" clip-rule="evenodd"/></svg>