<svg xmlns="http://www.w3.org/2000/svg" width="101" height="17" fill="none" viewBox="0 0 101 17"><path fill="#D9D9D9" d="M88.478 3.324 99.684.07l-2.97 2.271 3.61.983-3.901 1.754 2.701 2.041-10.646-2.491.447-.332-.447-.31.736-.425zM80.5 5.696l4.855-.042c.052.06.129.096.214.095l.244-.002a.283.283 0 1 0-.005-.566l-.244.002a.28.28 0 0 0-.212.1l-3.697.031a1 1 0 0 0 .121-.086c.234-.195.234-.361.234-.361v-.425h5.481V3.55h-1.784V1.893h-.723V3.55h-3.987l.021.64-.044.831c-.03.308-.214.528-.474.675"/><path fill="#D9D9D9" d="m80.712 3.526.002.024.022.637-.043.807c-.04.421-.54.653-1.487.714l-.17.009h-3.244V3.333l3.881-.06h.701c.059 0 .136.032.201.078q.065.046.104.102.025.037.033.073m-5.967 2.318-21.897.461V3.547l21.897-.189v-.085h.764v2.635h-.764z"/><path fill="#D9D9D9" fill-rule="evenodd" d="M51.843 6.63c-2.167.574-8.71 1.466-9.199 1.466l-6.267.085c-1.15-.04-3.23 0-5.269.127l-.062.004a.085.085 0 0 0-.09-.072l-1.465.104a.085.085 0 0 0-.078.09q-.624.059-1.216.129c-.251.03-.475.06-.786.103l-.594.556a1 1 0 0 0-.088.095c-.185.236-.225.577.045.925q.014.018.024.035c.096.176-.116.318-.236.198-.246-.246-.323-.464-.319-.7.006-.278.165-.603.482-1.003-.259.044-.405.07-.642.12a9 9 0 0 0-1.114.287c-8.732 2.975-13.518 4.482-22.307 6.862a.8.8 0 0 1-.334.018c-.132-.026-.236-.099-.26-.23-.455-2.4-.792-3.777-1.402-6.06l-.107-.398a.8.8 0 0 1-.035-.211c0-.131.058-.235.226-.32.68-.347 1.253-.532 2.316-.702L15.6 6.8c.637-.085 1.104.064 1.678.446.775.517 1.254.616 2.103.34l5.714-2.43c-.055-.432-.01-.725.129-1.351.042-.192.212-.192.212.02v.404c.241.115.39.118.68 0 0-.106.34-.7.913-.68h3.314v.32h.767a.76.76 0 0 1 .846 0h4.251v-.32h6.926l.977.32h.34v-.256l.333-.051-.515-.014.004-.141-.162-.006a.814.814 0 0 1-.744-.701h.255c.093.21.178.301.489.34l.171.007.005-.156.86.023-.004.167 2.173.086c.65-.11.916-.135 1.596.085.17-.255.446-.276.659-.042l.233.297h1.105v-.149h1.657v3.06h-.53v-.019c-.002.147-.065.198-.192.231m-6.71-3.194.376.013-.378.059zM14.094 10.21a.298.298 0 0 0 .133.58l1.03-.236a.298.298 0 1 0-.134-.58z" clip-rule="evenodd"/><path fill="#D9D9D9" d="M29.439 8.716q-.18.015-.356.034c.2.178.372.455.39.833.027.574-.487.97-.83 1.02-.88.126-1.316.17-2.123.233-.234.019-.843-.297-.914-.913a1.03 1.03 0 0 1 .124-.665 8 8 0 0 0-.584.16c.266.28.3.707.12.887.23.514.531.723 1.02.808.364.063.854.039 1.232-.021 2.376-.38 5.07-.87 6.147-1.098q.13-.027.226-.05c1.812-.414 2.882-.786 4.194-1.504l-1.711.023c-1.137-.039-3.214 0-5.248.127l-.062.004-.261.017-.011-.077-1.084.077.006.08z"/></svg>