<svg xmlns="http://www.w3.org/2000/svg" width="61" height="17" fill="none" viewBox="0 0 61 17"><path fill="#D9D9D9" d="m59.585 1.12-6.368 1.2.226.264-.226.458.401.307-.4.334 6.161 1.93-1.768-1.93 2.514-.641-2.092-.422zM37.081 7.712c.026.026 0 .078-.039.078H34.04c-.045 0-.098-.04-.067-.078a1 1 0 0 0 .067-.14v-.001l.012-.03c.106-.267.252-.718.252-.718s.135-1.096-.767-1.096c-.857 0-1.044-.631-1.044-.805V1.005l.008-.022.012-.017h.522q.015.004.028.016l.013.018.004.015v2.052c0 .702.267.805.49.805h2.878c.567 0 .646-.638.646-.664v-2.19c0-.017.01-.034.024-.043l.002-.001.026-.008h.528c.026 0 .051.025.051.051v2.726s.02.233-.1.448a.64.64 0 0 1-.215.229c-.42.276-.567.433-.567.528V6.88c0 .291.067.51.139.66a1 1 0 0 0 .1.171m-.427.327h-2.164v8.812h2.165zm1.253-3.87a1.1 1.1 0 0 0 .066-.34V1.641h.995V1.12c0-.083.058-.16.161-.16h.516c.09 0 .16.077.16.16v.522h.71l1.005.806h5.844v-.09h2.017l.793-.729q.026-.012.03-.043l.001-.015.001-.032.026-.528a.16.16 0 0 1 .059-.124.16.16 0 0 1 .102-.037h.754q.066.001.11.045a.16.16 0 0 1 .051.116l-.02 1.347h.265v.277h.21v-.277h.782v1.23h-.782v-.277h-.21v.277h-1.257c-.855.158-2.034.699-2.705 1.25-.087.07-.227.01-.227-.101V3.492l-5.844.012-1.018.664h-.696v.22c0 .09-.078.16-.161.16h-.516a.164.164 0 0 1-.16-.16v-.22z"/><path fill="#D9D9D9" d="M36.845 1.642h-3.517v1.424c0 .329.064.46.104.507.029.035.065.05.137.05h2.88c.166 0 .256-.084.318-.194a.7.7 0 0 0 .077-.225l.001-.008zm-4.6 0h-4.877V1.52a.124.124 0 0 0-.124-.125h-.631V1.05l-.159-.062h-.07v.381a.15.15 0 0 0-.151-.15h-.36l-.083.159v.017h-.43a.124.124 0 0 0-.125.125v.122h-5.314v-.155h-1.94s-.73.108-.877.68c-.333.168-1.447.802-1.685 1.892a1.19 1.19 0 1 1 .695 2.232q.248.319.598.662c.03-.345.223-.59.353-.717.16-.23.261-.403.324-.571.063-.17.093-.348.093-.595l-.002-.009-.007-.03a1 1 0 0 0-.042-.099 4 4 0 0 0-.162-.284l-.001-.002-.066-.11-.1-.155-.007-.012a8 8 0 0 0-.3-.42l-.027-.033-.013-.017a.4.4 0 0 1-.044-.118.4.4 0 0 1 .007-.188q.063-.229.358-.38a12 12 0 0 1 .488-.237l.118-.055h.002l.14-.066.013-.007.015-.005.006-.002a.6.6 0 0 1 .188-.036h12.97a.718.718 0 0 1 1.229-.473z"/><path fill="#D9D9D9" d="M32.2 2.871a.467.467 0 0 1-.467.434.47.47 0 0 1-.47-.47v-.004a.47.47 0 0 1 .47-.465.47.47 0 0 1 .468.505"/><path fill="#D9D9D9" d="M31.049 3.054a.718.718 0 0 0 1.115.355v.56l.003.09q.005.031.013.11c.055.522.147 2.496-1.678 2.752l-.03.004a3 3 0 0 1-.383.024s-.378-.005-.828-.107a3.2 3.2 0 0 1-.653-.219c-.664-.309-3.093-.16-3.093-.16l-4.627-.265s-.288-.033-.594.077c-.158.056-.32.151-.45.308l-.002.001c-.128.155-.225.371-.255.671q-.016.15-.007.328s.055.071-.066.336a2 2 0 0 1-.147.27c-.1.166-.298.499-.515.865l-.003.006-.002.003-.91 1.542s-.252.29-.303.819c-.052.522-.896.386-.896.386l-1.443-.844s-.555-.348-.162-.94c.394-.593 1.65-2.365 1.65-2.365s.14-.124.169-.483l.002-.038.002-.023v-.042l.001-.033c0-.311.18-.532.298-.644.345-.491.475-.79.475-1.328 0-.138-.12-.339-.248-.55l-.037-.063-.03-.05-.07-.11-.017-.025-.027-.04c-.176-.264-.337-.47-.337-.47s-.09-.167.225-.328a19 19 0 0 1 .741-.355.4.4 0 0 1 .116-.026z"/><path fill="#D9D9D9" d="M15.07 5.358a.941.941 0 1 0 0-.498H3.317c-.274-.438-1.264-.337-1.264-.337-.342-.935-.355-1.573-.29-1.953.025-.2-.207-.329-.355-.2a2.1 2.1 0 0 0-.438.542c-.077.251.754 5.09.754 5.09s.528.658.631.316c.103-.335-.238-2.713-.238-2.713s.954.18 1.208-.247zm7.735 1.199.64.036-.011.008-.013.01a.56.56 0 0 0-.226.476c0 .369-.121.653-.32.86a1.4 1.4 0 0 1-.663.373c-.227.06-.606.075-.768.077-.767-.002-1.387-.172-1.717-.348.059-.123.091-.223.105-.305a.5.5 0 0 0-.006-.21v-.027q.028.02.061.04l.023.014.031.018.018.01.01.005c.25.133.748.282 1.45.282h.18c.135-.002.308-.008.478-.054a.9.9 0 0 0 .426-.23c.1-.104.176-.258.176-.505 0-.204.046-.38.126-.53"/><path fill="#D9D9D9" d="M20.286 6.933a1 1 0 0 1-.047-.361 1 1 0 0 1 .314-.11 1.3 1.3 0 0 1 .226-.02h.003l-.005.017a.54.54 0 0 0-.002.312c.03.09.1.198.272.301a.258.258 0 1 1-.267.442c-.26-.158-.42-.357-.495-.58"/></svg>