<svg xmlns="http://www.w3.org/2000/svg" width="70" height="17" fill="none" viewBox="0 0 70 17"><path fill="#D9D9D9" d="m58.34 3.815-.268-.252L67.64.55l-4.527 2.542 6.464 1.314-6.464.356 2.252 2.784-7.294-3.14.183-.264-.183-.212zM23.391 2.33h-1.064c-.02-.11-.05-.22-.079-.33l-.044-.168c-.053-.219-.239-.465-.333-.531-.176-.125-.385-.024-.633.095-.21.102-.45.217-.722.22-1.087.01-1.365-.536-1.365-.536s-.317-.61-.961-.61c-.599 0-.599.65-.599.65v1.21h-.821v.458h.38v.132h7.301zm7.541.988c0 .013.011.024.024.024h3.013c.025 0 .034-.03.014-.044l-1.366-.923-1.66-.02a.024.024 0 0 0-.025.024z"/><path fill="#D9D9D9" d="m31.125 2.135-.168-.002a.247.247 0 0 0-.247.246v.54h-5.056v-.628c0-.082.066-.148.148-.148h.495q.046 0 .082.025v-.163h.563v-.256c0-.097.079-.176.176-.176h3.523c.097 0 .176.079.176.176v.256h.308zm2.564.696.418.282a.243.243 0 0 1 .05.365h4.146c.08.002.16.005.228.013.088.01.198.034.29.113.082.07.126.163.15.26h.18l.107-.606-.075-.427z"/><path fill="#D9D9D9" d="m39.339 4.087.02-.113h.615V2.72h.484l.161-1.358a.18.18 0 0 1 .18-.16h.639a.18.18 0 0 1 .18.165l.124 1.353h.024c.186.023.275.326.324.522l.013.052q.016.073.027.1v1.647l1.477.17a.12.12 0 0 1 .107.122l-.007.399a.12.12 0 0 1-.11.118l-.72.062a1 1 0 0 0-.171-.015l-1.154-.01a.66.66 0 0 0-.4.106.5.5 0 0 0-.15.184H38.91c.066-.139.108-.304.111-.495l-.026-1.367a3 3 0 0 0 .003-.228zm3.962 3.081v.19q0 .197-.066.371l1.79.036-.044.16a.092.092 0 0 0 .087.116l7.086.194a.09.09 0 0 0 .094-.088l.01-.235 2.867.058-.02.335a.09.09 0 0 0 .092.097l.398.002a.09.09 0 0 0 .092-.087l.065-1.218a.09.09 0 0 0-.09-.097l-.393-.005a.09.09 0 0 0-.093.087l-.02.355-2.878-.065.009-.23a.09.09 0 0 0-.09-.095l-6.895-.052a.09.09 0 0 0-.09.068l-.039.146zm-4.669-.618q.075-.066.142-.15h.676v1.302a.09.09 0 0 1 0 .115l-.415.506a.1.1 0 0 1-.07.033h-.444a.3.3 0 0 1 .074.193c0 .122-.082.232-.215.311l.01.026.006.015.003.006.002.006c.495 1.284.074 2.15.074 2.15s-.055.064.158.232c.43.34-.109 1.006-.604.951-.495-.054-.905-.41-.673-.742.232-.333.13-.52.13-.52-.361-1.066-.085-2.018-.085-2.018l.025-.06c-.183-.08-.302-.21-.302-.357 0-.126.087-.239.227-.319v-.47c0-.05.04-.09.091-.09h.824v-.9l.072-.03c.091-.04.195-.103.294-.19"/><path fill="#D9D9D9" d="M39.397 3.752h.355V3.4l-.292-.004zm2.956-.319v.879h11.735c.032.114.119.195.218.195h3.031c.127 0 .232-.132.232-.295v-.475c0-.158-.111-.295-.232-.295h-3.03c-.082 0-.154.054-.196.136zm-11.584.045a.25.25 0 0 1-.06-.16v-.176H17.152v3.295h-.49l.753.937h5.073q.007.141.004.294a3 3 0 0 1-.049.5c.39.263.814.503 1.099.503.037 0 .06-.03.061-.062l-.002-.02a.06.06 0 0 0-.024-.032 1.35 1.35 0 0 1-.473-.583 1.2 1.2 0 0 1-.08-.377 2 2 0 0 1 .004-.223h2.936V6.051c0-.304.211-.627.557-.627h3.025c.278 0 .469.208.533.448h.618V3.478zm6.465 3.708c0-.07.014-.209.04-.375h.285a7 7 0 0 0-.028.375.175.175 0 0 0 .35 0c0-.035-.01-.19-.028-.375h.232l.052-.005c.026.168.041.31.041.38a.477.477 0 0 1-.472.483.477.477 0 0 1-.472-.483m.843-.597h-7.158V3.7l7.384.002c.373.007.5.01.47.61l.026 1.37a.93.93 0 0 1-.533.846.5.5 0 0 1-.19.06"/><path fill="#D9D9D9" d="M29.877 5.992c-.024-.195-.163-.346-.332-.346H26.52c-.185 0-.335.182-.335.405v2.395a2.7 2.7 0 0 0-.036.47l.057.041a1 1 0 0 1 .125.124q.042.05.083.103c.133.176.288.43.462.716.175.29.588.486 1.188.447.592-.04 1.327-.311 2.064-.903.277-.235.506-.39.698-.457-.054-.483-.624-.938-.893-.933l-.053.001V6.051z"/><path fill="#D9D9D9" d="M31.238 10.664a2.5 2.5 0 0 1 .014-.349c.014-.182.028-.357.033-.511a2 2 0 0 0-.009-.301c-.046-.41-.27-.514-1.006.112-1.534 1.233-3.115 1.175-3.584.4-.701-1.16-.986-1.554-.975.654v1.692q-.001.173-.026.346l-.032.214a7 7 0 0 0-.039 1.773l.083.787q.01.091.025.183.021.125.033.235c.038.332.062.545.572.536.74-.006 1.375.008 1.918.02 2.879.06 3.18.067 3.068-3.161zM16.929 3.01v3.205h-1.676V3.01z"/><path fill="#D9D9D9" fill-rule="evenodd" d="M15.03 5.87v-.635h-1.18v-.959h1.181v-.578H13.85v-.38c0-.097-.242-.176-.54-.176h-.316c-.298 0-.539.078-.539.175v.463h-.965a.23.23 0 0 0-.202.113H2.483a.12.12 0 0 1-.07-.021l-.08-.054c-.078-.053-.167-.113-.253-.114v-.042c0-.06-.048-.11-.109-.111l-.687-.014c-.305.025-.316.21-.337.555l-.005.094.242 1.729.021.938-.337 3.552c-.057.65.237.596.515.544.133-.025.268-.036.404-.048l.142-.012a.167.167 0 0 0 .151-.166v-.062a.3.3 0 0 0 .192-.063 3 3 0 0 1 .32-.178c.24-.12.451-.227.544-.471.45-1.17.977-1.47 4.414-3.43l.187-.107c.419-.24.878-.378 1.27-.422l2.308-.081a.24.24 0 0 0 .174.074h.965v.162c0 .097.242.175.54.175h.316c.298 0 .539-.078.539-.175V5.87zm-3.585-.764v-.449l.044.004h.965v.44h-.965zm-4.988.96c-.679.28-1.224.547-1.664.762-.42.206-.742.364-.99.44a.202.202 0 0 1-.26-.184l-.018-.394a10 10 0 0 0-.102-1.248.202.202 0 0 1 .2-.235H6.31c.18 0 .499.07.541.364l.002.04c-.01.181-.095.328-.395.455" clip-rule="evenodd"/><path fill="#D9D9D9" d="M22.24 8.03a1.95 1.95 0 0 1-.353.903c.684.384 1.14.385 1.557.287a1.65 1.65 0 0 0 .933-.608c.236-.314.372-.614.514-.927l.04-.088h.458c-.4.834-.948 1.606-1.663 1.862-.555.199-1.197.016-2.023-.317l-.014.014c-.88.833-1.302 2.108-1.545 2.968-.102.369.018.544.119.69.07.103.13.191.097.322-.038.173-.159.162-.51.13l-.03-.002-.076-.007-1.787-.069c.055-.785.306-1.609.539-2.373.252-.83.483-1.59.42-2.154-.04-.374-.197-.509-.521-.788-.091-.078-.195-.167-.313-.276h4.187q.001.21-.03.432M41.162 6.43c-.01.092-.006.2-.002.317l.001.026q.004.09.005.19v.395q0 .056.007.11a.87.87 0 0 0 .878.744h.142c.355 0 .66-.198.801-.488a.8.8 0 0 0 .085-.366v-.395l.008-.486c-.01-.218-.08-.357-.382-.357l-1.155-.01c-.282-.004-.367.122-.388.32"/></svg>