<svg xmlns="http://www.w3.org/2000/svg" width="66" height="17" fill="none" viewBox="0 0 66 17"><path fill="url(#a)" d="M52.51 3.826h12.653v.445H52.51z"/><path fill="#D9D9D9" fill-rule="evenodd" d="m28.4 1.264-1.37-.036-.059-.546.356.085.01.14.073.003c.13.005.399.009.453-.03l.03-.025c.06-.051.127-.11.365.004l.091.04c.208.077.378.067.631.051l.088-.005.017-.001a2 2 0 0 0 .133-.015l.037-.006.045-.008.055-.011.024-.005.021-.005.086-.017a.34.34 0 0 1 .29.072c.14.121.22.358.22.358l.016.044h3.77l.75.006 1.373.012c.391.004.77.013 1.064.022l.21.006.194.006.165.006.285.007c.14.003.206.137.237.237a1 1 0 0 1 .024.107c.093.44.093.676.093 1.22l-.006.637c-.003.307-.007.662-.013.916-.002.057-.01.145-.018.281-.018.317-.261.326-.261.326h-.455c-.08.135-.237.245-.523.272v.508h-.721v-.497l-.464.001v.497h-.392v-.496h-.098c-1.033.002-2.35.003-3.274.003h-.542v.493h-.392v-.493h-.146a1.7 1.7 0 0 0-.317.03v.463h-.392V5.59a5 5 0 0 0-.195.098 3 3 0 0 1-.26.123q-.104.043-.185.085c-.196.097-.335.166-.75.064a1.1 1.1 0 0 1-.375-.154.5.5 0 0 1-.138-.137l-.013-.022-.005-.012-.007-.015a.2.2 0 0 1-.011-.042V3.445h-1.332V1.788h.248v-.437h1.26zm9.105 2.181h-6.72V2.85h6.72z" clip-rule="evenodd"/><path fill="#D9D9D9" d="M38.394 4.45h.155v-.11h.354v.265h.9V2.706h-.321c-.172 0-.151-.266-.14-.397l.002-.03.003-.076c0-.122.026-.148.553-.148l.003.547h.137l-.006-.265a10 10 0 0 1 .01-.688l.008-.203c.01-.257.019-.465.005-.561-.028-.196-.144-.219-.4-.219s-.382 0-.466.149a2.2 2.2 0 0 0-.155.464 2 2 0 0 0-.04.22l-.019.252-.437.009h-.217c.088.434.088.692.088 1.213v.007h.543v.637h-.548l-.002.164c-.003.227-.006.47-.01.67m4.731.786.08-.061 9.306-.001v-2.25h-9.305l-.095-.088h-3.075v2.4zm-7.918.423-3.274.002c.025.364.277.715.402.861v.063c-.001.042.018.149.018.149-.023.53-.117 1.748-.178 2.53l-.027.347c-.013.158.004.21.478.316.474.105 1.31.131 1.495.118.184-.013.25-.237.263-.5l.03-.433.006-.093.04-.561.015-.203.004-.05.003-.04.04-.556.035-.495c.014-.186.023-.321.025-.37l.005-.087.004-.048.002-.026q0-.012.002-.013a.3.3 0 0 1 .033-.044l.033-.036.12-.125A8 8 0 0 0 35 6.137a2 2 0 0 0 .108-.139.4.4 0 0 0 .033-.06c.033-.077.054-.182.067-.278M15.724 2.378c-.473.456-1.181 1.148-1.193 1.338l.172 2.514 4.325-.21s0 .033.008.06a.14.14 0 0 0 .024.051c.022.027.112.023.21.018l.12-.004c.071 0 .141.025.188.082.04.048.064.12.058.221-.02.235.001.726.306.987h.001c.305.26.8.237.8.237s-.114-.088-.252-.207a5 5 0 0 1-.274-.253c-.21-.216-.2-.43-.173-.658l.006-.05q.008-.057.013-.116.01-.112.012-.174c.005-.12.005-.122.1-.122.075 0 .107-.006.127-.033a.3.3 0 0 0 .036-.104l3.678-.18.02.234.015.158.025.268c.042.474.086 1.038.065 1.07l-.013.019c-.021.03-.05.07-.053.107l.001.014c.005.035.042.064.144.074.242.024 2.063-.065 2.407-.093q.109-.008.183-.02a.6.6 0 0 0 .126-.031l.024-.015q.035-.029-.015-.074l-.034-.027c-.118-.086-.218-.314-.257-.532a3 3 0 0 1-.027-.18c-.021-.189-.039-.383.07-.466a.2.2 0 0 1 .056-.028 1.3 1.3 0 0 1 .2-.049l.213-.03.177-.017.113-.007.01-.542.523-.022V3.68h-1.33V1.554h.246v-.29H25.77v.517l-.464-.002v-.515h-.392v.515h-.464v-.515h-.392v.515h-.464v-.515h-.392v.515l-.464.001v-.515h-.391v.515h-.464v-.515h-.392v.515h-.464v-.515h-.392v.515h-.464v-.515h-.392v.515h-.464v-.515h-.392v.515h-.464v-.515h-.391v.515H17.6v-.515h-.506l-.26.516h-.248s-.301-.001-.46.195a3 3 0 0 1-.156.164l-.231.224zm8.816 5.577c.07.34.227 1.05.499 2.101.395 1.528 1.343 4.016 1.5 4.319.139.264.367 1.01.466 1.336l.035.112.017.053.053.165.076.23.082.25.049.145 2.171-1.067s-.312-.488-1.25-2.712c-.862-2.044-1.38-4.307-1.534-5.033l-.058.005a79 79 0 0 1-1.25.066l-.22.01-.261.01-.259.007z"/><path fill="#D9D9D9" d="m23.842 7.613.002-.02a.4.4 0 0 1 .062-.16l.006-.01c0-.027-.002-.066-.004-.107l-.005-.088a19 19 0 0 0-.044-.582l-.02-.228-.032-.346-.005-.051-1.781.087c.02.337.052.979.05 1.439v.02l-.002.012-.003.026c-.045.326-.39.364-1.075.438l-.198.022-.123.014c-1.313.117-1.393.078-1.677-.497l-.043-.146-.04-.12a9 9 0 0 0-.01-.518l-.004-.134-.008-.184-.01-.219-3.929.192.008.07c.006.057.026.089.063.115.042.03.091.048.138.07l.06.029c.176.088.27.237.38.46.113.224.14.76-.027 1.025-.033.052-.11.194-.213.392l-.154.297-.125.242-.135.263-.146.286-.248.493c-.214.43-.428.86-.674 1.271-.255.429-.279.624.205.862.404.197.845.32 1.28.423a27 27 0 0 1 .601.158c.317.093.554.089.838 0 .23-.072.21-.235.178-.477q-.012-.084-.02-.179c-.02-.252-.01-.286.045-.48a6 6 0 0 0 .076-.274c.121-.47.838-2.835.969-3.24.13-.405.223-.6.465-.624l.056-.005.112-.012.05.157c.227.612.599.712 1.02.712.346 0 1.34-.111 1.774-.168.44-.057.628-.163.759-.353.063-.093.125-.359.125-.359l.236-.014.047-.002.247-.008c.204-.006.456-.014.55-.014l-.301.644.293.113.325-.688h.035z"/><path fill="#D9D9D9" fill-rule="evenodd" d="m14.473 6.305-.176-2.582h-.7l.003.138-12.507.385.003-.065h-.44c-.168 0-.266.032-.275.358-.004.134.026.323.067.577.058.364.138.864.17 1.532a24 24 0 0 1-.04 2.631c-.023.28.007.823.224.853s.464-.017.464-.017l.027-.182c.209-.034 1.612-.27 2.633-.628.986-.346 8.207-2.445 9.734-2.889l.002.124zM1.335 5.14l-.024-.092 11.514-.476.027 1.266L1.41 9.134l.053-.369-.095-.128-.012-.016-.014-.018a.1.1 0 0 1-.017-.03.1.1 0 0 1-.007-.054q0-.032.006-.098c.01-.112.026-.312.034-.696.018-.85-.093-1.89-.124-2.176l-.006-.051c-.018-.18.145-.23.145-.23z" clip-rule="evenodd"/><defs><linearGradient id="a" x1="65.1626" x2="52.5109" y1="4.0488" y2="4.0488" gradientUnits="userSpaceOnUse"><stop stop-color="#D9D9D9"/><stop offset="1" stop-color="#D9D9D9" stop-opacity="0"/></linearGradient></defs></svg>