<svg xmlns="http://www.w3.org/2000/svg" width="39" height="17" fill="none" viewBox="0 0 39 17"><path fill="#D9D9D9" d="m38.196 13.308-14.483 2.327c.567-2.62.479-3.989-.604-6.248L35.997.119 29.92 8.136l5.517.216-4.008 3.836zM.916 14.65l13.294.985c-.567-2.62-.48-3.99.603-6.249L2.84 1.186l7.291 8.902-5.636-.358 4.026 3.534zm18.711-6.113.117.77-.108.046a1.35 1.35 0 0 0-1.348 0l-.064-.027.22-.563a.2.2 0 0 0 .009-.12l-.243-1.01a.2.2 0 0 1 .095-.221l.275-.157a.2.2 0 0 1 .267.064l.75 1.138a.2.2 0 0 1 .03.08m-1.681 7.511-.06.021a.93.93 0 0 1-.6 0c-1.092-.373-1.85-1.532-1.85-3.022 0-1.677.502-2.718 1.589-3.411.291-.186.654-.214.966-.083a3.4 3.4 0 0 0-1.064 1.292c-.286.609-.416 1.335-.416 2.202 0 1.305.549 2.413 1.435 3.001m3.466-3.001c0-.867-.13-1.593-.415-2.202a3.4 3.4 0 0 0-1.064-1.291c.312-.132.675-.104.966.082 1.087.694 1.589 1.734 1.589 3.411 0 1.49-.758 2.649-1.85 3.022a.93.93 0 0 1-.66-.02c.886-.59 1.434-1.697 1.434-3.002"/><path fill="#D9D9D9" d="M16.818 13.29c.067 1.193.631 2.146 1.456 2.607q.186.102.388.172a.93.93 0 0 0 .6 0q.201-.07.388-.173c.88-.49 1.462-1.542 1.462-2.849 0-1.61-.463-2.634-1.462-3.327l-.126-.084a1.05 1.05 0 0 0-1.124 0l-.126.084c-1 .693-1.463 1.716-1.463 3.327q0 .123.007.242m-.094-3.813a1.04 1.04 0 0 0-.474.16c-1.087.694-1.589 1.734-1.589 3.411 0 1.49.758 2.65 1.85 3.022q.075.026.152.038c-.94-.571-1.527-1.71-1.527-3.06 0-.867.13-1.593.415-2.202a3.4 3.4 0 0 1 1.173-1.37m4.688 6.595q-.075.024-.151.037c.94-.571 1.527-1.71 1.527-3.06 0-.867-.13-1.593-.415-2.202a3.4 3.4 0 0 0-1.172-1.37c.165.015.328.068.473.16 1.086.694 1.589 1.735 1.588 3.412 0 1.49-.757 2.65-1.85 3.022"/></svg>