<svg xmlns="http://www.w3.org/2000/svg" width="61" height="17" fill="none" viewBox="0 0 61 17"><circle cx="20.2231" cy="6.16741" r="0.792409" fill="url(#a)"/><path fill="url(#b)" d="M58.966 3.246 47.474 7.237l.574.349-.574.438.714.509-.714.299 12.343 2.563-3.972-2.862L60.97 7.11l-5.384-.676z"/><path fill="#C65353" d="M45.984 3.975h.92v.86h.862v.922h-.861v.86h-.922v-.86h-.86v-.921h.86zm-1.691.185h-.822v-.768h-.768V2.57h.768v-.768h.822v.768h.769v.822h-.769zm-2.445 1.604h-.72V5.09h-.673v-.72h.673v-.673h.72v.674h.673v.72h-.673zm-2.407-4.313h.672v.629h.63v.672h-.63v.629h-.672v-.629h-.629V2.08h.63zm-2.474 1.383h.61v.57h.57v.61h-.57v.57h-.61v-.57h-.57v-.61h.57zM35.177.715h.513v.48h.48v.512h-.48v.48h-.513v-.48h-.48v-.513h.48zM32.15 2.71h.304v.286h.285v.305h-.285v.285h-.305v-.285h-.285v-.305h.285z"/><path fill="#D9D9D9" fill-rule="evenodd" d="M23.384 6.068a.6.6 0 0 1 .42.17c.052.046.105.103.152.155q.07.08.151.157c.216.205.554.422 1.337.422h1.995c.06 0 .114.026.153.048q.047.027.09.059h.001l.014.009.014.01c.08.053.147.088.218.088H45.04c.002 0 .013-.004.035-.023q.022-.018.046-.041.025-.025.057-.051a.3.3 0 0 1 .177-.078c.083-.004.156.034.222.099a.1.1 0 0 1 .077-.032h1.222c.06 0 .11.049.11.109v1.604a.11.11 0 0 1-.124.108l-1.377-.188a.11.11 0 0 1-.095-.107V7.322a.1.1 0 0 1 .032-.076c-.038-.038-.054-.036-.055-.036-.006 0-.02.004-.05.029l-.046.041-.055.05a.28.28 0 0 1-.174.074h.13v1.15h-.017v.08s-.323.027-.538.241-.215.374-.215.374v.696h-.43v.481h-1.774v-.16h-.161v-1.15h.161v-.188h.054v-.374h-.473a.5.5 0 0 0-.118-.053h-8.008c-.214.065-.293.138-.315.31l-5.594.19V7.404h.185a.6.6 0 0 1-.34-.125l-.106-.07-.033-.016-.011-.003h-.017c.058.002.103.05.103.107v3.076a.107.107 0 0 1-.107.107h-.806v-.12a.215.215 0 0 0-.215-.215h-3.252a.214.214 0 0 0-.215.214v.12h-3.712l-.12-.506h1.513a.38.38 0 0 0 .293-.136h.24c.18 0 .329-.146.329-.328v-.012a.544.544 0 0 0 0-.846V8.64a.33.33 0 0 0-.328-.327h-.241a.38.38 0 0 0-.293-.136h-1.935l-.159-.674c.632-.18 1.25-.298 1.576-.31v-.22h.055l-.518-1.54a.11.11 0 0 1 .116-.146l3.53.421c.055.007.091.054.096.108zm.098.904h-.055l-.032-.686a.38.38 0 0 1 .263.113c.042.038.09.089.139.143q.069.077.16.166c.256.244.643.476 1.458.482h-1.933zm19.415 1.582v.374h1.075v-.374z" clip-rule="evenodd"/><path fill="#D9D9D9" d="M33.33 9.116v1.15h-5.586v-1.15zm-14.587 1.651.276-.069h.97a.87.87 0 0 0-.351.464.7.7 0 0 0 .006.34 1 1 0 0 0 .067.155.06.06 0 0 1 0 .035c-.016.051-.096.083-.127.045-.139-.17-.214-.284-.242-.428a.8.8 0 0 1 .045-.387l.009-.027a.6.6 0 0 0-.175.414c-.006.227.135.374.377.508.15.083.359.088.58.092l.064.002c.565.013.887-.321.887-.656a.58.58 0 0 0-.331-.557h.956c-.248.164-.396.358-.396.504v.107c0 .348-.282.722-.538.749-.305.032-.74.045-1.034 0-.524-.08-.793-.455-.793-.682v-.2c0-.11-.11-.28-.25-.409"/><path fill="#D9D9D9" fill-rule="evenodd" d="m4.577 8.154-.178.594h13.085v-.109a.11.11 0 0 1 .11-.109h.45a.164.164 0 0 1 .162-.136h2.405c.081 0 .149.059.162.136h.372c.06 0 .11.049.11.109v.134a.326.326 0 0 1 0 .603v.133c0 .06-.05.11-.11.11h-.372a.164.164 0 0 1-.162.135h-2.405a.164.164 0 0 1-.162-.136h-.45a.11.11 0 0 1-.11-.109v-.108H6.15c-.484 0-.91.317-1.048.78l-.759 2.54c-.138.463-.564.78-1.047.78H2.98l-.45 1.51a.43.43 0 0 1-.346.302 4.7 4.7 0 0 1-1.48.009.424.424 0 0 1-.359-.377C.03 12.03.024 10.255.341 7.348a.43.43 0 0 1 .388-.384c1.323-.126 2.193-.117 3.52.005a.41.41 0 0 1 .377.356c.033.294.019.53-.05.829m-.724 3.915c-.1.332-.347.59-.657.708l.873-2.923c.19.262.264.608.161.953z" clip-rule="evenodd"/><path fill="#D9D9D9" d="M18.206 8.176h.245l-.143-.612-.21.067a73 73 0 0 0-2.56.898h1.746a.33.33 0 0 1 .31-.217h.32a.38.38 0 0 1 .292-.136M12.59 9.62a1.3 1.3 0 0 0-.28.21c-.401.42-.396.91-.264 1.34l.024.073c.042.125.095.244.15.354l.002.003.011.02c.068.104.19.088.347.058l.006-.001.028-.005.015-.003.027-.005a3 3 0 0 1 .233-.032 1 1 0 0 1 .102 0c.092.003.19.02.291.061.504.203.509.661.386.96a7 7 0 0 1-.337.696c-.253.46-.548.898-.81 1.288-.342.508-.63.935-.7 1.223-.042.173-.006.287.143.313.728.13 1.31.239 2.001.368l.806.15c.273.052.476.026.525-.184.023-.1-.053-.165-.168-.242 0 0 .012.008 0 0-.079-.052-.15-.098-.126-.165.532-1.477 1.556-3.907 2.133-4.585l.091-.108.013-.015c.323-.386.469-.56 1.256-.784q.213-.06.498-.128l-.12-.507h-.667a.38.38 0 0 1-.293-.136h-.32a.33.33 0 0 1-.309-.218zm20.981-.842c-.006.008-.022.04-.022.177v1.498c0 .026.007.038.019.05.016.015.05.035.112.052h7.939a.33.33 0 0 0 .145-.116.35.35 0 0 0 .055-.2V9.035c0-.16-.086-.27-.196-.316h-7.936c-.097.033-.113.054-.116.059"/><defs><radialGradient id="a" cx="0" cy="0" r="1" gradientTransform="rotate(90 7.028 13.195)scale(.79241)" gradientUnits="userSpaceOnUse"><stop stop-color="#F2FF00"/><stop offset="1" stop-color="#F2FF00" stop-opacity="0"/></radialGradient><radialGradient id="b" cx="0" cy="0" r="1" gradientTransform="matrix(13.4949 0 0 19.7256 47.474 7.862)" gradientUnits="userSpaceOnUse"><stop stop-color="#E46767"/><stop offset="1" stop-color="#D9D9D9"/></radialGradient></defs></svg>