<svg xmlns="http://www.w3.org/2000/svg" width="71" height="17" fill="none" viewBox="0 0 71 17"><path fill="#D9D9D9" d="m24.699 3.323-.014 2.81.626.01.902 1.327h17V1.89H26.186l-.837 1.45zM6.302.078h-.321l-.02 1.17-.524 1.696.04.897c.025.59-.665 1.523-1.311 1.682l.064 2.35 10.907-.006.003-7.159v-.27l-.902.007H6.546zm1.284 1.364 1.4-.005-.008-.294.006-.132 4.443.006.005.432.716-.007.033 4.632-6.585-.014z"/><path fill="#D9D9D9" d="m8.086 1.934 5.594.012.015 3.631-5.623-.016zM21.209.082l-.941.004.01.337-4.635.011-.003 7.222.522-.186 1.112-.021.005-.561.496-.457 6.412-.002.012-3.62-.933-1.291-.41.003zM16.37 1.697l2.138.007.481.574a.7.7 0 0 0-.23.3h-2.253c-.117.001-.135-.088-.131-.15zm2.778-.006 2.349-.003.5.443h-2.444zm.352.654h3.121c.303 0 .546.244.546.547v.472a.545.545 0 0 1-.546.546h-3.12a.545.545 0 0 1-.547-.546v-.472c0-.303.244-.547.546-.547"/><path fill="#D9D9D9" d="M22.419 2.832h-2.74a.247.247 0 0 0-.246.247v.08c0 .137.11.248.247.248h2.739c.136 0 .247-.11.247-.247v-.08a.247.247 0 0 0-.247-.248M8.372 9.854l-.276.59c.186.028.376.087.42.12.154.107.784.192 1.159.106l2.672-.498c.958-.278 1.077-.972 1.11-1.796l-.503-.005c.005.43-.044 1.143-.794 1.324l-2.376.452c-1.063.162-1.138-.121-1.412-.293"/><path fill="#D9D9D9" d="m9.746 8.367-.655-.004c.04.375.157 1.308 1.115 1.491.475.071.508-.363.164-.48-.314-.091-.688-.52-.624-1.007M3.67 5.602l-2.428.454c-1.135.2-.586 1.035-.074 1.108.39.082 1.676.728 1.104 1.895C1.045 11.018.304 12.846.261 15.335c-.01.297.116.687.546.701l3.566.044c.73-.004 1.005-.127 1.156-.866l.955-4.38.917-.044 1.084-2.422H3.752zm-1.785-.318c-.21.163-.3.07-.337.028-.04-.039-.111-.155.097-.308.623-.462 1.043-.562 1.825-.543l1.272-1.059.17.157-.08.432.1.104c-.177.476-.528.938-1.413 1.102l-.11-.142c-.49.035-1.077-.006-1.524.229"/><path fill="url(#a)" d="M43.174 3.605h27.082v2.257H43.174z"/><defs><linearGradient id="a" x1="70.2563" x2="43.1744" y1="4.73389" y2="4.73389" gradientUnits="userSpaceOnUse"><stop stop-color="#D9D9D9"/><stop offset="1" stop-color="#D9D9D9" stop-opacity="0"/></linearGradient></defs></svg>