<svg xmlns="http://www.w3.org/2000/svg" width="42" height="17" fill="none" viewBox="0 0 42 17"><path fill="#D9D9D9" d="m36.036 3.739 4.848-1.829-1.908 1.486L41.5 4.412l-1.783.48 1.167 1.54-4.848-1.712.265-.2-.265-.397.265-.178zM13.723 6.475h-.045v-.358h1.049l1.44.664h.94v.12h.2v-.17h.113v.53h-.114v-.17h-.199v.853c0 .17.095.36.247.36h2.029c.199 0 .654-.37.654-.597v-.995h.152V6.56H18.31v1.07c0 .142.029.193.133.37.056.095-.038.218-.133.133-.555-.5-.726-.841-.748-1.574h-1.347l-1.44-.664h-1.098V1.763h.196v-.038h1.081v-.599a.1.1 0 0 1-.019-.062v-.14a.1.1 0 0 1 .02-.061V.359h.094v.095c0 .021.017.038.038.038h.076a.04.04 0 0 0 .038-.038V.36h.076v.504a.1.1 0 0 1 .019.062v.14a.1.1 0 0 1-.02.061v.485c0 .019-.009.038-.037.038-.029 0-.038.019-.038.038v.038h.379v.36h.91v-.36h.266v.227h.313v-.227h.265v.227h.313v-.227h.265v.227h.313v-.227h.266v.227h.313v-.227h.265v.227h.313v-.227h.265v.227h.313v-.227h.266v.227h.313v-.227h.265v.227h.313v-.227h.265v.227h.313v-.227h.266v.227h.313v-.227h.265v.227h.313v-.227h.265v.227h.313v-.227h.266v.227H24v-.227h.462v.846h.43v1.767h-.125c-.1 0-.22.047-.28.167a.37.37 0 0 0 0 .316l.504 1.352a2.8 2.8 0 0 0-.635-.025l-1.304.412h-2.18v.342a.4.4 0 0 1-.015.083l-.27 1.613c-.01.076-.14.067-.161 0a3.2 3.2 0 0 1-.142-.749c-.02-.185-.02-.305-.02-.489v-.042h-.075v.389c0 .322-.455.749-.806.749h-2.03c-.224 0-.389-.205-.397-.468v.098c0 .18.199.417.256.417h.142q.042 0 .038.048c-.017.17-.101.275-.18.275h-.275l-1.688 3.043c-.074.12-.077.18 0 .275l.226.208c.014.019.012.03 0 .048l-.292.398c-.153.145-.265.147-.512 0l-1.972-1.194a.44.44 0 0 1-.19-.39V10.6c0-.207.118-.617.367-1.033.104-.175.231-.35.382-.513l1.043-1.213c.076-.087.152-.304.152-.522 0-.18-.104-.341-.237-.493-.191-.218-.36-.35-.493-.35"/><path fill="#D9D9D9" fill-rule="evenodd" d="M24.768 4.56c-.076 0-.126.064-.076.18l.72 1.934.436.734-.412.2.337.689.466-.228.416.7c.046.07.098.093.398 0l.813-.295a.15.15 0 0 1 .2-.072l.302-.11a.15.15 0 0 1 .206-.075l.296-.107a.15.15 0 0 1 .212-.078l.29-.105a.15.15 0 0 1 .219-.08l.283-.102a.15.15 0 0 1 .225-.082l.278-.101a.15.15 0 0 1 .23-.084l.178-.065.095-.034a.15.15 0 0 1 .233-.086l.106-.038.164-.06a.15.15 0 0 1 .236-.087l.25-.093c.56-.23.901-.272.93-.18.024.082.06.131.094.154q.04.024.072.005c.024-.014.041-.048.042-.099V4.91c0-.284-.114-.398-.398-.398zm2.778 1.99a2 2 0 0 1-.175.033c-.181.025-.35.011-.422-.146l-.294-.787c-.105-.294 0-.427.293-.446l4.56-.142c.14-.005.224.104.238.218.01.085-.018.172-.077.217a.15.15 0 0 1-.065.03z" clip-rule="evenodd"/><path fill="#D9D9D9" fill-rule="evenodd" d="M25.112 4.336V2.35h-.43v-.625h1.385v.227h.313v-.227h.265v.227h.313v-.227h.265v.227h.313v-.227h.266v.227h.313v-.227h.265v.227h.91v-.227h.152V.777h.152V.663h.113v.114h.152v.948H31.3l2.626 1.687v.114h.152c.114 0 .193.098.213.246h1.219v.91h-1.214v.532l-.37.28v.288l-.698.46V4.91c0-.164-.032-.336-.157-.462-.126-.126-.298-.157-.462-.157zm.854-1.74a.152.152 0 0 0-.074.285h.292a.152.152 0 0 0-.073-.284zm4.53.218a.15.15 0 0 1-.064.067h-.293a.152.152 0 0 1 .074-.284h.145c.112 0 .185.116.137.217m-1.062 0a.15.15 0 0 1-.064.067h-.293a.152.152 0 0 1 .074-.284h.146c.111 0 .184.116.136.217m-1.062 0a.15.15 0 0 1-.064.067h-.292a.152.152 0 0 1 .073-.284h.146c.111 0 .185.116.137.217m-1.062 0a.15.15 0 0 1-.064.067h-.292a.152.152 0 0 1 .073-.284h.146c.111 0 .185.116.137.217" clip-rule="evenodd"/><path fill="#D9D9D9" d="m20.994 7.506.122-.725h1.97l.18-.057.146 1.324c.018.138-.01.159-.072.169l1.02 8.023-.085.019-.038-.218-.152.028c.029.114 0 .152-.085.161l-1.697.123a.5.5 0 0 1-.204-.008c-.076-.018-.077-.053-.08-.111v-.032l-.048-.55-.795-7.205c-.042-.007-.063-.038-.076-.124z"/><path fill="#D9D9D9" fill-rule="evenodd" d="M13.457 6.475H13l-.187.142h-.51V2.982l.026-.016c0-.199.104-.55.17-.55h.958zm-.55-3.726a.19.19 0 1 1-.379 0 .19.19 0 0 1 .38 0" clip-rule="evenodd"/><path fill="#D9D9D9" d="m12.082 3.116-.331.201H6.423v.266l-.304.265H.47a.5.5 0 0 0-.204.03l-.028.017c-.04.03-.063.077-.071.15l-.004.067q0 .098.022.248.022.148.04.29c.324 2.324.359 3.47.14 5.702-.02.209.057.341.228.341h.692c.152 0 .294-.009.389-.047l.692-.294c.085-.038.132-.123.19-.246l.075-.189 1.356-2.333c.161-.237.332-.313.616-.417l1.555-.55h5.925z"/></svg>