<svg xmlns="http://www.w3.org/2000/svg" width="42" height="17" fill="none" viewBox="0 0 42 17"><path fill="#D9D9D9" d="M25.625 10.232c1.928-1.53 2.346-2.736 1.51-5.714L38.724.906l-5.391 4.097 8.143 2.68-8.609.537 4.843 3.92-7.072-.768.923 5.534zm-2.731-1.888 3.087-2.772-15.507 3.394c-.221.06-.437-.009-.483-.259l-.145-.784-.57.099.2 1.245-7.3 1.182A3.9 3.9 0 0 0 1.573 9.4l-.35.708-.581-.028.124.678-.391.324.125.774.462.18.064.683.562-.198.512.468c.186-.4.28-.802.298-1.194l7.296-1.18.173 1.071.587-.11-.066-.532c-.025-.221-.03-.345.246-.491z"/></svg>