<svg xmlns="http://www.w3.org/2000/svg" width="35" height="25" fill="none" viewBox="0 0 27 17"><path fill="#d9d9d9" d="m18.683 12.265 4.25 2.82-3.067-4.138 5.502-1.07-7.067-1.544c-.395 1.138-1.99 1.788-2.937.728l-3.067 4.595 4.105-2.25-.756 4.074z"/><g style="stroke-width:1.29311;stroke-dasharray:none" transform="matrix(-.3652 -.39353 -.4402 .34875 155.285 13.301)"><path d="M176.507 172.647c-2.248-.068-7.06 1.939-7.06 1.939 5.347-6.939 13.267-3.742 13.63 1.48.193 2.784-1.187 4.662-3.027 6.367-1.839 1.705-3.537 3.275-3.537 3.275v2.366h-2.463v-2.787s6.932-5.433 7.003-8.454c.072-3.021-2.297-4.118-4.546-4.186z" style="fill:#d9d9d9;stroke:#d9d9d9;stroke-width:1.29311;stroke-linecap:round;stroke-linejoin:miter;stroke-dasharray:none;paint-order:fill markers"/><path d="M172.73 188.16h4.939s-1.044 2.789-1.059 4.337 1.059 4.735 1.059 4.735v0h-4.94s1.068-3.104 1.06-4.652c-.01-1.548-1.06-4.42-1.06-4.42" style="fill:#d9d9d9;stroke:#d9d9d9;stroke-width:1.29311;stroke-linecap:round;stroke-linejoin:round;stroke-dasharray:none;paint-order:fill markers"/><rect width="5.0171289" height="1.7457931" x="172.69061" y="195.96376" rx="0.42958337" ry="0.61723393" style="fill:#d9d9d9;fill-opacity:1;stroke:#d9d9d9;stroke-width:1.29311;stroke-linecap:round;stroke-linejoin:round;stroke-dasharray:none;stroke-opacity:1;paint-order:fill markers"/><rect width="5.0172563" height="1.7457824" x="172.69061" y="187.5544" rx="0.42959425" ry="0.61723018" style="fill:#d9d9d9;fill-opacity:1;stroke:#d9d9d9;stroke-width:1.29311;stroke-linecap:round;stroke-linejoin:round;stroke-dasharray:none;stroke-opacity:1;paint-order:fill markers"/></g></svg>