<svg xmlns="http://www.w3.org/2000/svg" width="101" height="17" fill="none" viewBox="0 0 101 17"><path fill="#D9D9D9" d="M52.117 4.283h11.99V2.658c0-.302-.07-.424-.437-.424H52.495c-.265-.003-.388.106-.383.424zM64.334 2.23a1 1 0 0 1 .082.415v1.147h7.48l-.002 2.452h1.864v-2.25a.4.4 0 0 0-.105-.257l-.681-1.003c-.079-.114-.197-.14-.335-.137h-7.976c.004-.203-.102-.352-.328-.367"/><path fill="#D9D9D9" d="M64.414 4.11h7.165v2.137h-7.163zm9.657-.008 7.19-.008V6.13q-.044.058-.082.115h-7.104zm9.775.008H87.7c.194 0 .285.167.285.354v1.474c-.001.25-.163.312-.51.312h-3.54a2 2 0 0 0-.08-.118zm1.548-.319h1.667V1.27c.003-.173-.092-.306-.31-.31h-1.03c-.211.003-.327.132-.329.329z"/><path fill="#D9D9D9" d="M81.574 4.08c.002-.225.166-.316.392-.314h1.278c.194-.002.293.17.29.357v2.129c.793.795.021 1.83-.984 1.82-.942.002-1.802-.88-.97-1.835z"/><path fill="#D9D9D9" d="M81.018 6.559H64.321c-.125.168-.194.243-.55.312l-4.82 1.114c1.804.173 3.758.332 6.058.293l10.33-.188c.505.008 1.003-.093 1.516-.206h.5v1.532c.002.164.023.23.222.23h.584c.151 0 .212-.036.218-.181V7.88h2.947c-.197-.266-.558-.654-.308-1.321M44.797 4.285c-.424.007-.423.075-.575.349-.225.397-.696.492-1.405.513h-3.595l-1.175-.569h-3.993c-2.922.051-6.05.015-8.207.386-.408.06-.537.198-.73.401-2.703 2.382-5.231 2.096-7.765 1.339-.78-.216-1.599-.275-2.912-.159l-13.294.746c-.261.01-.384.16-.282.526 1.129 3.776.98 6.064 1.003 8.722.003.372.186.47.608.331l14.006-3.747c.424-.128.956-.002 1.139.068 1.41.446 2.514.251 3.279-.626l1.396-1.569c.856-1 1.813-1.668 4.278-1.683h.693c-.727.908-.349 2.935.954 2.94l2.606.004c1.176-.005 1.835-.539 1.804-1.88V9.312h4.426l20.667-1.335 6.111-1.449c.234-.07.264-.19.264-.392l-.002-1.544H51.803v-.308zm-15.368 5.02h2.567v1.443c-.004.33-.274.876-1.037.883h-2.566c-.994.006-1.371-2.002-.053-2.314h.288l-.116.708c-.12.555.15 1.028.607 1.443.15.118.457-.076.278-.281-.573-.637-.618-.962.032-1.882"/><path fill="#D9D9D9" d="M35.881 9.617h.637c.368.633-.34.692-.519.386-.073-.134-.094-.263-.118-.386m1.486-.013c.307.317.21.279.696.285l.475 1.77c.059.19.197.327.61.154l3.615-1.338.363-.481 1.85-.88zM25.208 4.87V3.033c.002-.287.152-.352.45-.357l17.115.006c.386-.314.807-.205 1.064.003H45.1c.171.004.298.16.301.264v.218h.508v-.79c-.012-.194.096-.234.272-.157l.573.259.379-.036v-.03l-.272-.002a.17.17 0 0 1-.116-.045l-.345-.352c-.13-.162.087-.33.23-.217l.293.298.214.002v-.153c.004-.085.041-.158.155-.16l.977.013c.108.007.144.081.141.15l-.002.163.855.009c.007-.01.044-.021.081-.02h.14c.157-.2.423-.204.592 0h.448c.294-.272.587-.16.758.069.024.034.028.06.029.104v.388h.258a.31.31 0 0 1 .236-.176V3.97h-7.042c-.543-.015-.608.186-.759.411-.23.433-.66.436-1.19.451l-3.516-.006-1.182-.568c-6.388-.026-12.176.048-12.908.61m64.234.665-.447-.354.337-.495-.435-.599L99.834.93l-4.697 3.33 5.286.644-5.074.935 3.433 3.079-9.836-2.517z"/></svg>