<svg xmlns="http://www.w3.org/2000/svg" width="40" height="17" fill="none" viewBox="0 0 40 17"><path fill="#D9D9D9" d="m25.64 3.237-1.155.508-.364 1.102-.25.432-1.815-1.048.25-.432-1.302-.752 2.163-1.84 2.088 1.205.1.3.305.177a.39.39 0 1 1-.02.348m-.879 3.053c.103.059.138.19.079.293l-2.516 4.358-4.408-2.545 2.516-4.358a.215.215 0 0 1 .294-.079zm-3.346 6.224.694-1.201-4.408-2.545-.693 1.202zm-4.622-2.172 4.407 2.544-.698 1.21a.215.215 0 0 1-.293.078l-4.035-2.33a.215.215 0 0 1-.08-.293zM.744 6.652H17.98v.459H.744zM1.471 8.8h14.516v.459H1.471zM.9 10.947h13.256v.458H.9zm26.536-8.295c.817 3.843.187 5.607-2.714 8.18l7.56 5.299-2.64-6.958 10.063-1.967-9.196-1.795 4.828-5.28z"/></svg>