<svg xmlns="http://www.w3.org/2000/svg" width="34" height="17" fill="none" viewBox="0 0 34 17"><path fill="#D9D9D9" d="m17.717 5.635-.655.893.207 1v.438h-1.843v-.439h-1.32l.837-2.351h2.119l.207.184h.31a.343.343 0 1 1 .138.275m.673 2.709c.104 0 .188.084.188.188v4.422h-4.472V8.532c0-.104.085-.188.189-.188zm.188 6.206v-1.219h-4.472v1.22zm-4.472.378h4.472v1.227a.19.19 0 0 1-.189.189h-4.094a.19.19 0 0 1-.189-.189zm19.731-2.106-13.573 2.637c.537-2.478.324-4.21-.7-6.347L31.757.344l-5.75 7.585 5.22.203-3.792 3.63zM.077 14.529l12.577.93c-.944-2.389-1.006-3.717 0-6.104L1.897 1.789l6.899 8.422-5.333-.338 3.81 3.344z"/></svg>