<svg xmlns="http://www.w3.org/2000/svg" width="82" height="17" fill="none" viewBox="0 0 82 17"><path fill="#D9D9D9" d="m79.503 1.68-11.6 2.98.551.535-.55.477.729.435-.73.55L79.991 8.84l-2.799-2.183 3.968-1.6-3.599-.923zM22.178 3.384v.166h39.289v-.47l-.538-.463h-.415V1.406a.21.21 0 0 0-.211-.211h-.36a.21.21 0 0 0-.212.21v1.593q.001.06.031.11h-36.08v-.082l-.354-.354h-.333V1.345s-.232-.055-.232-.361.007-.558.007-.558h-.401v.96l-.191-.041V2.68a.428.428 0 0 0 0 .704"/><path fill="#D9D9D9" fill-rule="evenodd" d="M35 3.822H21.702v-.28h-1.613v.695h-1.987V7.68s-.055.401.251.401l2.307.007s.909.205 1.15.96h1.96c.365 0 .603.127.741.306a.7.7 0 0 1 .137.363v1.833l.715-.025s.3.034.51.15a.97.97 0 0 0 .525.112l.226-.012c.658-.033 1.112-.055 1.821-.33l.13-.07 5.261-1.008.422-.08-.02-2.097s-.024-.248.236-.452A.42.42 0 0 0 35 7.584v-.46l-.002-.002.002-.259zm-9.3 5.764c-.046.154-.202.799.221 1.246.483.51.47.183.47.183s-.803-.887-.05-1.429h1.152s.926.32.926 1.048c0 .546-.176.744-.264.809l-.066.015c-.611.138-.993.224-1.596.224 0 0-1.647-.15-1.668-1.109-.02-.96.77-.987.77-.987z" clip-rule="evenodd"/><path fill="#D9D9D9" d="M62.134 6.15h-.51V4.964h.51v-.327h.85c.133 0 .25.059.33.15h3.543c.136 0 .238.109.238.238v.463h-2.838v.28h2.831v.285a.29.29 0 0 1-.292.293H63.31a.45.45 0 0 1-.34.15h-.837zm-.783.707V3.822H35.272v3.035H45.46v.055h-.98a.13.13 0 0 0-.13.129v.245c0 .068.055.13.13.13h2.43a.134.134 0 0 0 .129-.13c0 .068.054.13.13.13h2.429a.13.13 0 0 0 .13-.13V7.04a.13.13 0 0 0-.13-.13h-.987v-.054h7.048l-.195.007v.422l1.144.442h4.11v-.87zm-27.515 3.788-5.206.998v4.783l5.206-.967z"/><path fill="#D9D9D9" fill-rule="evenodd" d="M17.83 4.68h-4.425a.27.27 0 0 0-.251-.17L1.196 4.426c-.49 0-.918.348-1 .83a2.34 2.34 0 0 0 .15 1.307c.496 1.171.728 6.187.728 6.527 0 .293.537.463.687.504.02.006.048.006.075.006h1.66c.382 0 .64-.224.64-.755 0-.53.402-.728.402-.728l7.908-3.825a.25.25 0 0 1 .123-.027h.585c.15 0 .272-.123.272-.272v-.899h.783l.867-.537h2.753zM4.3 11.13s3.695-1.96 3.927-2.164c.23-.204.163-.415.156-.415v-.783H4.232c-1.225 0-.98.783-.98.783s.109.81.163 1.912.885.667.885.667" clip-rule="evenodd"/><path fill="#D9D9D9" d="M23.77 9.32c.593 0 .606.402.606.402v1.839l-.17.006-.476.565c-.477.564-.034.952-.034.952s.12.167-.147.181l-.055.001h-.002q-.037 0-.082-.005c-.306-.028-.462.262-.713.73-.113.208-.244.453-.417.72-.376.582-.313.75-.245.934.033.088.068.18.055.325-.035.367-.728.202-1.907-.08l-.707-.165c-1.606-.368-1.164-.613-1.164-.613l3.158-4.471c.242-.407.358-.753.39-1.045v-.01l.001-.007V9.57l.002-.02a1.4 1.4 0 0 0 0-.23z"/></svg>