<svg xmlns="http://www.w3.org/2000/svg" width="66" height="17" fill="none" viewBox="0 0 66 17"><path fill="#D9D9D9" d="M41.619 3.556v-.218q0-.1.04-.185h-.285s-.694.006-.806-.94c-.099-.831-.456-1.26-.985-1.353V.662c0-.274-.28-.269-.28-.269s-.163-.017-.292.14-.386.095-.386.095c-.717-.19-1.954-.23-1.954-.23s-.761-.05-1.573.18c-.358.1-.571.117-.694.106l-.018-.002h-.008l-.01-.003a.25.25 0 0 1-.16-.107c-.023-.039-.079-.095-.235-.145-.247-.084-.275.078-.275.078v.985s.028.163.275.079c.15-.05.212-.112.235-.146a.27.27 0 0 1 .196-.112c.123-.01.336.006.694.107.812.23 1.573.179 1.573.179s1.237-.04 1.954-.23c0 0 .258-.061.386.095.13.163.292.14.292.14s.272.006.28-.257c.35.149.548.527.548.968 0 .527.56 1.243 1.086 1.243z"/><path fill="#D9D9D9" fill-rule="evenodd" d="M50.726 5.426h5.468c.023.04.065.068.117.068h1.938a.133.133 0 0 0 .134-.135v-.806a.133.133 0 0 0-.134-.134h-1.937a.14.14 0 0 0-.118.072h-5.468zm6.548-.38c.248 0 .448-.038.448-.084s-.2-.084-.448-.084c-.247 0-.447.037-.447.084 0 .046.2.084.447.084" clip-rule="evenodd"/><path fill="#D9D9D9" d="M43.772 3.338a.4.4 0 0 0-.041-.185h.134s.174-.022.219.18-.123.223-.123.223h-.189zm-28.22 4.457h.25a.88.88 0 0 1-.2-.583c0-.07.002-.191.006-.346a90 90 0 0 1 .05-1.357l.037-.922v-.03c-.1.061-.242.154-.439.287-.666.46-2.388.648-2.475.65-.285.005-10.57.201-11.393.212-.712.011-.716.282-.717.362v.008c-.067 2.447.896 5.638 1.154 6.36.028.084.408.1.492.073.604-.218 9.718-3.547 12.172-4.446.423-.141.817-.268 1.063-.268m2.246 1.203c.016-.189-.067-.55-.314-.751l3.275.195a.66.66 0 0 0-.106.702q.03.073.04.134.015.077.01.136.027.02.059.041c.056.036.123.073.214.108.2.077.516.144 1.094.174.688.036.907-.26.976-.43a.23.23 0 0 1-.07-.174l.026-.556.716.042-.025.547a.225.225 0 0 1-.235.213l-.19-.008-.012.031c-.092.23-.23.57-1.186.599-.582.017-.931-.067-1.132-.151a1 1 0 0 1-.119-.059.6.6 0 0 1-.127-.098l-.01-.024-.005-.015-.031-.084c-.06.081-.144.106-.144.106-.644.039-.767.57-.767.57s-.99 1.636-1.215 1.95c-.224.313-.157.509-.157.509l.062.621a.3.3 0 0 1-.033.165.3.3 0 0 1-.051.07l-.19.196a.17.17 0 0 1-.174.04c-.414-.14-2.027-.69-2.497-.874-.543-.213-.32-.51-.32-.51.51-1.197 1.988-2.524 1.988-2.524s.107-.091.337-.295c.256-.226.296-.394.313-.596m7.392-.291 3.118.315a.7.7 0 0 0 .37-.08l.071-.041a.4.4 0 0 1 .022.103l.493 5.957a.415.415 0 0 1-.269.42l-2.648.985a.41.41 0 0 1-.554-.352z"/><path fill="#D9D9D9" fill-rule="evenodd" d="m21.892 8.284 6.432.513a.47.47 0 0 0 .24-.05l1.618-.936a.4.4 0 0 0 .13-.117h.301v.078a.24.24 0 0 0 .241.241h1.915c.134 0 .24-.106.24-.24v-.197h9.283a.124.124 0 0 0 .123-.123v-.65h.784v-.195h3.959v.352c0 .107.09.196.195.196a.2.2 0 0 0 .197-.196v-.352h1.702v.022c0 .067.055.123.123.123h1.002a.124.124 0 0 0 .123-.123V2.97a.363.363 0 0 0-.364-.364H49.7a.395.395 0 0 0-.397.397v2.622a.12.12 0 0 0-.05.1v.33H47.55v-.432a.2.2 0 0 0-.196-.196.2.2 0 0 0-.195.196v.431H43.2v-.13a.3.3 0 0 0 .148-.256.207.207 0 0 0 .2-.207V3.338a.207.207 0 0 0-.208-.207h-1.288a.203.203 0 0 0-.207.207v.89L30.58 4.223l-.049.018c-.136-.055-.136-.304-.136-.304v-.095c0-.1-.038-.192-.1-.262a.314.314 0 0 0-.433-.136h-1.236V3.31a.325.325 0 0 0-.325-.325h-4.104a.15.15 0 0 0-.067.017c-.045.028-.157.073-.37.073h-2.457a.14.14 0 0 0-.107.05l-.336.431a.57.57 0 0 1-.453.224l-1.395.006a.176.176 0 0 0 .135-.174v-.134c0-.1-.078-.18-.179-.18h-.18a.17.17 0 0 1-.156-.1c-.022-.045-.067-.09-.162-.09h-.8v.504c0 .086.056.156.135.175 0 0-.132.01-.132.117h-.093V3.5c0-.016-.012-.033-.028-.044l-.185-.13q-.018-.009-.034-.01h-.43a.06.06 0 0 0-.034.01.06.06 0 0 0-.023.046v.532h-.134a6 6 0 0 0-.474-.005c-.262.02-.299.257-.299.257l-.018.436c-.032.763-.094 2.292-.094 2.62a.8.8 0 0 0 .057.292l.034.065a.6.6 0 0 0 .234.22l1.092.084.117.14 4.082.244a1 1 0 0 0-.006.327c-.183 0-.274.118-.274.263s.117.263.263.263a.3.3 0 0 0 .157-.05c.078.162.19.342.347.537 0 0 .197.108.179.06a.1.1 0 0 0-.023-.032c-.106-.117-.201-.313-.201-.313s-.172-.4-.076-.807a1 1 0 0 1 .083-.221m-.421.68a.124.124 0 0 1-.123-.122c0-.068.056-.124.123-.124s.123.056.123.124q0 .044-.028.077a.12.12 0 0 1-.095.046" clip-rule="evenodd"/><path fill="#D9D9D9" d="M47.354 5.426h1.722v-.935h-5.304v.935zm11.771-.346-.27-.235.204-.32-.204-.157 6.542-2.284-2.835 2.188 3.192.42-3.063.617 2.07 2.02-5.906-1.927z"/></svg>