<svg xmlns="http://www.w3.org/2000/svg" width="85" height="17" fill="none" viewBox="0 0 85 17"><path fill="#D9D9D9" d="m73.748 5.094 10.338-2.328-4.468 2.04 2.866.65-3.206.946 3.691 1.658-9.221-1.658.433-.14-.433-.397.284-.408zM33.179 1.127h-.338v.423h.239c.178 0 .324.125.324.284v.026h1.234v1.468h-1.234v.159c0 .158-.146.284-.324.284h-1.673c-.178 0-.324-.126-.324-.284v-.16h-1.941V1.86h1.941v-.026c0-.159.146-.284.324-.284h.252v-.423h-.41V.935s-.066-.185.396-.185h1.164s.37-.027.37.132zm-4.297.158v2.38h.066v.49h.218v1.084h-2.598V4.154h.793v.238h.331v-.727h.066v-2.38z"/><path fill="#D9D9D9" d="M26.852 1.86h.647v1.468h-.713c0 .264-.27.264-.27.264h-1.092c-.337 0-.337-.264-.337-.264h-1.956l-1.283.271h-1.89V1.616h1.95l1.223.244h1.976c.02-.284.37-.277.37-.277h.985c.357 0 .39.277.39.277"/><path fill="#D9D9D9" fill-rule="evenodd" d="M26.309 5.02h-1.083l-.29.245H23.83s-.238.073-.238.635.265.707.265.707h.611l.18-.04V5.96c0-.204.155-.386.38-.392l.375-.025a.39.39 0 0 1 .418.39v.397c.273-.051.435-.079.435-.079l2.952-.013v.259c.003.148.082.269.185.269h4c.099 0 .185-.126.185-.278v-.27l20.246-.093s.307-.039.449.51l14.643-.14s1.012.146 2.334.16c1.322.012 1.567.02 1.567.02s.304-.06.31-.788c.02-.727-.211-.859-.211-.859l-2.962-.04s-1.09.12-1.718.113c-.622-.007-27.687-.08-27.687-.08s-1.808.017-3.885.033v.379h-3.117v-.36l-.217.001-1.396.007h-.006l-1.295.006-.512-.006q-.273-.002-.513-.007l-.183-.002v.427h-3.117zm44.572.873c0 .126-.126.231-.278.225s-.27-.106-.27-.238v-.2c0-.125.125-.231.277-.224.152.006.27.105.27.238zm.932.013c0 .126-.126.232-.278.225s-.27-.106-.27-.238v-.198c0-.126.125-.232.277-.225.152.006.27.106.27.238zm.939.007c0 .125-.126.231-.278.225s-.271-.106-.271-.238v-.2c0-.125.126-.231.278-.225s.27.106.27.238z" clip-rule="evenodd"/><path fill="#D9D9D9" d="M33.807 4.088h.793v.245h.225v-.675h.073V1.153h1.124v2.505h.06v.43h.323v1.084h-2.598z"/><path fill="#D9D9D9" d="M36.281 1.86v1.468h.382l5.427.96h3.848V1.016H42.09l-5.389.844zM25.424 5.8a.13.13 0 0 1 .138.133v1.414a.16.16 0 0 1-.033.093c-.958 1.031-.76 1.68-.76 1.68.08.411-.032.874-.196 1.291a5 5 0 0 1-.232.508 10 10 0 0 1-.247.448l-.03.05-.062.108a.14.14 0 0 1-.185.053l-1.302-.733a.14.14 0 0 1-.047-.192l.847-1.27c.26-.399.556-.53.723-.574l.063-.014a.13.13 0 0 0 .091-.065l.009-.014.082-.199.02-.047.005-.01v-.001l.342-.818.046-.109c.13-.287.18-.452.2-.533l.012-.055V5.96c0-.073.053-.132.132-.132z"/><path fill="#D9D9D9" d="m24.525 6.86.123-.027v.086c-.01.05-.05.2-.189.507v.003l-.002.002-.389.928-.008.02-.073.176c-.217.054-.58.214-.889.686l-.702 1.052-.158.01a1 1 0 0 0-.41.128c-.982.537-2.078 2.59-2.142 3.342a1 1 0 0 1-.026.15c-.19.684-1.236.498-1.236.498s-2.32.04-2.638-.826c-.238-.65-.896-.522-1.21-.418-.105.035-.172.067-.172.067L3.847 16.702a1 1 0 0 1-.305.046l-1.81-.02S.024 9.833.17 8.974c.145-.86.674-.92.674-.92s10.928-.323 13.625-.627c2.122-.238 2.248.158 2.248.158s.247.562.875.965q.119.075.253.113c.626.179 1.444-.185 1.444-.185l1.46-.708c.68-.372 1.84-.713 2.921-.977l.12.073h.706zm-.553 4.993-.009-.008a.4.4 0 0 0 .262-.186l.001-.003.002-.002.007-.013c.309.237.794.357 1.286.387.527.033.85.014 1.082-.072.22-.082.378-.231.552-.511a.44.44 0 0 0 .045-.324 1.3 1.3 0 0 0-.156-.4 2.7 2.7 0 0 0-.284-.409l-1.904.087c.15-.411.253-.885.168-1.329l-.003-.014-.002-.008-.001-.005-.006-.053a1 1 0 0 1 .03-.263c.058-.24.223-.622.677-1.11l.01-.01.008-.011a.4.4 0 0 0 .085-.249v-.753c.144-.028.261-.05.343-.064l.087-.016.028-.005 2.67-.012a.6.6 0 0 0 .095.328.42.42 0 0 0 .35.2h3.999a.42.42 0 0 0 .345-.197.6.6 0 0 0 .1-.34v-.013l19.998-.091.022.01c.024.014.104.077.163.304l.051.197.248-.003q.014.108.02.237c.052 1.058-1.138 1.045-1.138 1.045l-4.01.283.05.318a.663.663 0 0 1-.542.76.66.66 0 0 1-.398-.059l-9.196.984.034.328-1.118.12-.12-1.118 1.118-.12.03.265 8.889-.952-.07-.433c-5.953.418-15.329 1.07-19.742 1.343-.066.202-.324.943-.592 1.438a.7.7 0 0 1-.1.289c-.196.314-.403.529-.718.646-.303.112-.687.125-1.218.092-.54-.034-1.14-.17-1.528-.505"/><path fill="#D9D9D9" d="M25.015 11.697s-.294-.156-.526-.502q.083-.15.168-.327c.111.286.285.579.543.657 0 0 .053.1 0 .166s-.185.006-.185.006"/></svg>