<svg xmlns="http://www.w3.org/2000/svg" width="57" height="17" fill="none" viewBox="0 0 57 17"><path fill="#D9D9D9" fill-rule="evenodd" d="M13.16.07a.02.02 0 0 0-.022.022v.323c-.134-.012-.208.039-.283.156-.186.29-.332.541-.47.777-.189.325-.361.621-.598.948h-.256a.6.6 0 0 0-.403-.115h-.474v3.307a.2.2 0 0 1-.009.059l-.012.03h.202v.002h.088v.044l.018.016c.031.025.06.05.084.05h7.53L21.25 5.5c.128-.004.187.008.208.085a.2.2 0 0 1 .008.045l.003.058.03.952c.009.055.076.081.146.04l1.26-.653c.07-.044.1-.088.1-.159v-.17q0-.03.016-.059c.029-.056.099-.1.192-.1h.268l.005-.053.009-.061.027-.025V2.235l.005-.048c-.234-.023-.586.022-.766.11h-1.044a14 14 0 0 0-.644-1.305c-.108-.204-.2-.256-.352-.257L13.249.419V.092a.02.02 0 0 0-.021-.022zm7.609 1.767c.075.196.034.325-.119.46h-7.374c-.168-.251-.133-.468.053-.617a1 1 0 0 0 .327-.377c.068-.122.201-.138.324-.138h6.233c.184.001.258.053.355.207z" clip-rule="evenodd"/><path fill="#D9D9D9" d="M23.733 5.762c-.054 0-.095-.126-.076-.252l.006-.007.01-.013.012-.024a.2.2 0 0 0 .01-.074V2.225a.1.1 0 0 1 .013-.047.13.13 0 0 1 .108-.063l8.703.032c.159 1.102.148 2.078 0 3.277z"/><path fill="#D9D9D9" fill-rule="evenodd" d="M32.475 1.974h.194l.02.148c.162 1.12.15 2.112.001 3.323l-.002.022h.996v-1.73h.49a.344.344 0 0 0 .345-.344v-.067h.09v.058c0 .025.02.045.045.043l.173-.012a.043.043 0 0 0 .04-.043v-.44a.043.043 0 0 0-.04-.043l-.172-.014a.043.043 0 0 0-.047.043v.13h-.089v-.22a.345.345 0 0 0-.344-.345h-.533a.13.13 0 0 0-.074-.033h-.105c0-.47 0-1.009-.072-1.244.049 0 .08-.017.08-.073.003-.317-.012-.468-.064-.579s-.102-.142-.194-.142L32.91.389 32.72.25h-.173a.6.6 0 0 0-.072.252v.546c0 .11.084.144.215.196l-.215.603zm.33-.169h.352v.23h-.351zm.352.334h-.351v.193h.351z" clip-rule="evenodd"/><path fill="#D9D9D9" d="M33.856 4.17v.928h7.634V4.17z"/><path fill="#D9D9D9" fill-rule="evenodd" d="M18.39 5.86h-7.365a.2.2 0 0 1-.096-.022.3.3 0 0 1-.072-.046l-.022-.018v.223c0 .122.095.194.303.258l1.616.43c.098.035.266.095.333.242q.031.064.032.154c0 .172-.006.275-.073.369l-1.897 2.754c-.136.231-.155.361.092.452.65.237 1.005.312 1.724.44.156.029.237.035.348-.077.112-.111.085-.235 0-.34-.1-.126-.053-.21-.014-.277l1.17-1.997c.044-.088.124-.147.206-.147h.553c.026 0 .058-.02.068-.048h1.37a.07.07 0 0 0 .025.035.1.1 0 0 0 .046.016h.55l.317-.12.022-.009.866-.282zm-1.894 2.21H15.42a.5.5 0 0 1-.11-.012l-.006-.002-.008-.002c-.22-.058-.334-.272-.334-.529 0-.264.189-.484.439-.533-.109.406-.06.627.246.992a.04.04 0 0 0 .027.013h.016l.023-.01c.006-.003.02-.018.009-.041-.181-.375-.208-.587.05-.965h.638c.3 0 .544.244.544.544 0 .238-.099.44-.288.515a.5.5 0 0 1-.17.03" clip-rule="evenodd"/><path fill="#D9D9D9" d="m18.563 5.86 2.733-.188.029.958a.24.24 0 0 0 .192.236c.046.527.1 1.027.162 1.51l.011.08.008.06a29 29 0 0 0 .447 2.49q.121.546.266 1.112l.02.078.02.076a52 52 0 0 0 .297 1.093c.137.483.286.988.449 1.526l.045.149c.032.115.016.147-.05.17l-2.852.86-.047-.149-.005-.014a47 47 0 0 1-.874-3.041l-.017-.07-.026-.11a26 26 0 0 1-.48-2.588 33 33 0 0 1-.15-1.338l-.01-.11-.013-.14a45 45 0 0 1-.056-.716zM.214 1.979c-.004-.03.002-.04.005-.045l.01-.01a.1.1 0 0 1 .04-.018c.072-.023.199-.03.4-.024l9.812.382V5.49h-3.26c-.34.01-.602.038-.853.1a4 4 0 0 0-.779.306L3 7.184c-.396.189-.594.235-.911.243H.802a2 2 0 0 1-.25-.015.4.4 0 0 1-.132-.038.1.1 0 0 1-.044-.056.4.4 0 0 1-.007-.146C.539 5.19.482 4.04.214 1.98m41.848 2.384-.267-.225 3.705-1.31-1.594 1.23 3.17.63-2.665.81 1.585 1.038-4.201-1.358.22-.245-.22-.326z"/><path fill="url(#a)" d="M41.49 4.414H56.5v.439H41.49z"/><defs><linearGradient id="a" x1="56.4989" x2="41.4902" y1="4.63353" y2="4.63354" gradientUnits="userSpaceOnUse"><stop stop-color="#D9D9D9"/><stop offset="1" stop-color="#D9D9D9" stop-opacity="0"/></linearGradient></defs></svg>