<svg xmlns="http://www.w3.org/2000/svg" width="39" height="17" fill="none" viewBox="0 0 39 17"><path fill="#D9D9D9" d="m14.087.684.071 2.09h-1.271v.19h18.168v-.188h-.086l-.042-.442c-.01-.101-.042-.122-.087-.133a2.7 2.7 0 0 0-.652-.092h-.392l-.061-.608c-.038-.336-.102-.464-.17-.566a.26.26 0 0 0-.231-.131h-.304l-.069.153h-.26v1.819l-12.63-.001-.07-.461c-.013-.07-.06-.153-.154-.165l-.945-.083v-.609c0-.276-.145-.526-.331-.72-.126-.13-.263-.136-.39-.135-.064 0-.094.023-.094.082m4.445 4.21c-.018.18-.038.433-.005.503l.268.588c.004.007 0 .024-.008.029l-.093.038a.38.38 0 0 1-.273-.094.8.8 0 0 1-.095-.26l-.016-.07a2 2 0 0 0-.032-.132q-.02-.065-.034-.129c-.076-.18-.253-.297-.391-.365l.121-.108z"/><path fill="#D9D9D9" fill-rule="evenodd" d="M15.148 4.91c.03.061.086.298.086.454a.25.25 0 0 1-.019.114c-.15.276-.226.381-.301.485q-.032.042-.066.092l-.51.851c-.207.445-.41.917-.601 1.487l-.054.211a9 9 0 0 0-.18.816c-.02.154-.033.402.159.5l4.347 1.504h1.08l2.08-5.912.794-.558h6.655l.384-.418h2.606l-.224-1.388H12.577v1.898h.993c.044-.04.097-.114.155-.194.117-.161.253-.35.38-.36.377-.03.557.007.634.025.28.09.353.26.41.393m4.669-.2c.13 0 .39.15.39.352a.2.2 0 0 1-.015.083l-.417 1.26-1.47-.066-.885-.36c-.073-.037-.13-.095-.13-.158a.1.1 0 0 1 .013-.051l.37-.845.231-.215zM17.37 6.238l.968.4 1.286.068-.735 2.171-1.202 1.286c-.163.17-.373.223-.456.197l-1.398-.482.017-.2 1.252-3.307c.048-.088.162-.163.268-.133" clip-rule="evenodd"/><path fill="#D9D9D9" d="M24.519 11.424h-5.235l2.039-5.795.698-.492h6.677l.385-.417h2.54l.135 1.703-4.1.1-.218.384-.643.041-.467.326-1.57 3.55s.008.081.008.18c.001.106-.007.23-.042.295-.068.125-.207.125-.207.125m-2.217.184-1.671 4.197v.797h1.613v-.154l1.926-4.84z"/><path fill="#D9D9D9" d="M27.7 6.823V7h3.963v-.392l-3.897.095zm4.204-.873h.355v.128h1.011V5.005h-1.01v.13h-.42z"/><path fill="#D9D9D9" fill-rule="evenodd" d="M12.393 3.148h-1.378V3.2H4.947L4.45 4.39H1.379l-.42.433.022.736-.135.003.006.198.135-.004L1 6.23l-.137.004.006.197.136-.003.014.472-.139.004.006.198.14-.004.013.478L.9 7.58l.006.197.141-.003.014.472-.144.004.006.198.144-.004.013.473-.145.003.006.198.145-.004.026.85H2.74l.224-.223h.896l.514-.617 1.715-4.129h4.973l.041.051h1.29zm-8.5 2.605H2.227v2.78l.493-.015z" clip-rule="evenodd"/><path fill="#D9D9D9" d="m37.381 7.037-3.73-1.062.165-.234-.166-.242.245-.152-.245-.24 5.187-1.545-2.448 1.452 1.95.77-2.322.382z"/></svg>