<svg xmlns="http://www.w3.org/2000/svg" width="59" height="17" fill="none" viewBox="0 0 59 17"><path fill="#D9D9D9" d="m27.091 2.54-.133-.084-.036-.018c-.053-.024-.232-.137-.357-.566a9 9 0 0 1-.197-.834C26.35.937 26.231.86 26.094.86h-3.02a.207.207 0 0 0-.21.233c.03.268.007.72-.375 1.15l-.02.023h-.218l-.316.489-.155.753h8.568v-.151a.817.817 0 0 0-.816-.816zm5.448 5.635V5.868h2.657v-.23h7.026v2.108a.23.23 0 0 1-.23.23h-.457a.5.5 0 0 0-.13-.1l-.01-.004a.4.4 0 0 0-.174-.039l-2.415.043L38.8 7.6a.38.38 0 0 0-.386-.373l-3.163.056a.38.38 0 0 0-.373.385l.005.24-1.29.023a.376.376 0 0 0-.36.386v.006a2.7 2.7 0 0 1-.696-.148m9.006-4.165v1.397h-6.347v-1.67h6.06c.154 0 .28.121.287.274m.909 2.861h.834V5.675h-.834z"/><path fill="#D9D9D9" d="M43.517 7.036c0 .032.025.058.057.058h2.638a.06.06 0 0 0 .057-.058V5.638a.06.06 0 0 0-.057-.058h-.055V3.29a.203.203 0 0 0-.203-.203h-.501a.2.2 0 0 0-.193.132l-.187.755-.003.01-.002.006-.005.02h-3.29v1.394h1.743zm5.116-.164H46.5V5.675h2.136a.254.254 0 0 1 .254-.217h2.246c.143 0 .256.114.256.257V6.93a.26.26 0 0 1-.256.256H48.89a.254.254 0 0 1-.257-.256z"/><path fill="#D9D9D9" fill-rule="evenodd" d="M33.465 8.32a.14.14 0 0 0 .085.123l1.626.597a.15.15 0 0 1 .062.043l.011.016q.009.014.015.032l.407 1.628c.019.071.08.118.15.11l.447-.03a.15.15 0 0 0 .123-.087l.747-1.627a.2.2 0 0 1 .044-.057.14.14 0 0 1 .067-.029c.53-.075 3.584-.522 3.834-.562l.028-.005.02-.003h.002l.103-.019a.3.3 0 0 0 .057-.017l.023-.015a.2.2 0 0 0 .036-.06l.032-.065a.15.15 0 0 0 .017-.089.13.13 0 0 0-.023-.055.2.2 0 0 0-.035-.038.3.3 0 0 0-.047-.03.2.2 0 0 0-.071-.017l-2.496.043a.15.15 0 0 1-.08-.02.15.15 0 0 1-.072-.126l-.006-.357a.147.147 0 0 0-.152-.147l-3.163.056a.147.147 0 0 0-.146.151l.005.322a.147.147 0 0 1-.146.152l-1.37.024c-.072.001-.136.068-.134.151zm2.165.45.295 1.216c.02.065.074.112.145.105h.006a.15.15 0 0 0 .13-.092l.472-1.272.004-.018.002-.013a.1.1 0 0 0-.002-.046l-.078-.359a.146.146 0 0 0-.14-.116l-.405-.011a.16.16 0 0 0-.123.068l-.29.424a.2.2 0 0 0-.018.105z" clip-rule="evenodd"/><path fill="#D9D9D9" d="m32.244 8.32-6.492.323.61 2.233 5.413-1.492-.052-.164.521-.576zm-5.434 2.67 4.533-1.248c.524 1.713 1.074 3.002 2 4.905a.116.116 0 0 1-.05.153l-3.916 2.046a.116.116 0 0 1-.159-.054c-1.054-2.265-1.724-3.866-2.408-5.801m-1.117-1.689-.335 1.109a.06.06 0 0 1-.072.038l-.03-.009-.004-.001-.007-.004-.005-.002-.007-.006-.002-.003-.003-.003a.06.06 0 0 1-.01-.052l.402-1.332zm-1.557-.578.159-.008v.621c.071 1.234-1.076 1.127-1.076 1.127h-1.221c-.596 0-.745-.179-.745-.179s-.104-.1-.187-.221v.037c0 .09-.063.166-.15.183a.8.8 0 0 0-.626.59c-.263 1.039-.474 1.758-.925 2.617a1.8 1.8 0 0 0-.218.848.47.47 0 0 1-.645.438l-1.599-.634a.735.735 0 0 1-.431-.916c.35-1.032.68-1.752 1.317-2.847.21-.359.038-.977-.223-1.152-.04-.027-.055-.095-.06-.175l3.56-.177v.9q.035.039.076.092c.061.077.131.164.187.205.28.202.68.212.68.212h.996c1.144.03 1.13-.733 1.13-.733z"/><path fill="#D9D9D9" fill-rule="evenodd" d="m16.684 8.418-.308-2.365-.364.045-.05.12-2.619.265a.23.23 0 0 0-.219-.115l-5.605.465a.23.23 0 0 0-.21.249v.01l-.553.055a.115.115 0 0 0-.128-.098l-3.137.382q-.163.02-.323-.012l-.86-.167a1 1 0 0 0-.318-.012l-.889.103a.29.29 0 0 0-.25.344c.242 1.2.423 2.187.565 3.198.123.878.217 1.774.296 2.844l.035.499c.004.064.06.114.125.108l1.944-.171a.4.4 0 0 0 .098-.021l.048-.02a.4.4 0 0 0 .146-.126l.114-.158c.083-.117.093-.261.052-.411L9.01 9.55a2.44 2.44 0 0 1 1.315-.542l5.756-.554.009.016zm-1.066-.786-2.14.206-.042-.497 2.15-.217a.59.59 0 0 0 .032.508m-8.75.746-.033-.372.546-.055.03.372zm1.42.648L3.742 12.75a1 1 0 0 0-.523-.175l-.375-3.052a.29.29 0 0 1 .258-.322l3.696-.356A.115.115 0 0 0 6.9 8.72l-.015-.17.541-.055.03.369a.23.23 0 0 0 .25.21z" clip-rule="evenodd"/><path fill="#D9D9D9" d="M32.308 5.638v2.449l-10.26.51v.123q-.002.054-.001.107l.007.098a1.8 1.8 0 0 0 .104.437q.03.064.08.123a.9.9 0 0 0 .354.238l.043.019.013.005c.06.025.115.049.145.072.053.042.035.09-.024.113a.54.54 0 0 1-.292-.006 1.07 1.07 0 0 1-.691-.53.95.95 0 0 1-.125-.4l-.002-.017a2 2 0 0 1-.01-.132 5 5 0 0 1-.008-.23l-4.669.232-.38-2.917h.43v-.231l1.42-1.719h.457l.265-.316a.35.35 0 0 1 .265-.123h.17v.194h.127v-.194h.234v.194h.36v-.194h.233v.194h.36v-.194h.234v.194h.36v-.194h.234v.194h13.224v1.9zm23.439 3.286-3.905-1.875.266-.365-.266-.282.346-.42-.346-.28 6.685-2.214-3.029 2.06 3.197.434-3.37 1.478z"/></svg>