<svg xmlns="http://www.w3.org/2000/svg" width="91" height="17" fill="none" viewBox="0 0 91 17"><path fill="#D9D9D9" d="M38.347 6.779v.473h.089v.257h-.09V9.2h.093v.231h-.092V9.9h.093v.614h26.24v.07h1.166v-4.61h-1.153v.084H38.436v.722zm-.242 1.487.006 2.445-10.793.106c-.167-.32-.245-.35-.612-.351h-.609V8.66c-.005-.149.032-.393.388-.393z"/><path fill="#D9D9D9" d="M14.394 6.648h23.72v1.383H26.58c-.363-.008-.723.093-.718.715v1.704l-8.193-.033c-.287.006-.452.086-.432.355l.056.847-6.372.86-.586-.023c-.271-1.49-2.986-.972-3.824 1.408-.194.459-.329.439-.708.44H3.868c-.51-1.562-.84-3.389-.832-5h7.458c.433.005.688-.28.693-.608l.008-.583c0-.108.035-.15.166-.153l2.51.001c.245 0 .526-.14.532-.584z"/><path fill="#D9D9D9" d="M2.876 9.075h7.611c.329.003.466-.161.464-.422l.012-.69c.003-.167.133-.232.285-.233h2.606c.216.002.315-.1.315-.36v-.895L3.58 6.465c-.468-.004-.71.365-.708.644z"/><path fill="#D9D9D9" d="M2.642 6.992H1.567c-.394 0-.435.276-.375.446.992 2.207.709 4.45-.324 6.716-.13.267.057.47.607.39l2.144-.23c-.638-1.87-.81-3.613-.82-5.007H2.64zm18.361 3.668 3.421.023v1.35h2.098c.58-.011.8-.161.788-.985h.47c-.003.897-.082 1.415-1.249 1.453h-2.107c-.306 0-.434.13-.48.424l-.582 2.903c-.097.372-.214.495-.603.416l-2.421-.54c-.294-.068-.408-.204-.234-.586l1.35-3.218c.184-.646.06-.968-.45-1.24"/><path fill="#D9D9D9" d="M24.956 10.68h.511c-.15.338-.182.728-.13 1.156.034.207-.165.229-.25.075-.103-.222-.209-.463-.13-1.231m-14.021 2.033 6.045-.822.497 3.459-6.271.87c.038-.786.027-1.587-.07-2.208zm4.321-6.297h4.488v-.18H17.53V5.96h-.696l.032-.122h1.43v-.665h-1.698V4.81h-.593v.824h-.608l-.141.342zm19.419.001h3.051v-.499h-3.046zM20.448 2.11l-.003 4.305h7.909V2.113h-1.942v2.655h-3.927V2.109zm5.215 2.956a.532.532 0 1 1 0 1.063.532.532 0 0 1 0-1.063m-1.19.001a.531.531 0 1 1 0 1.063.531.531 0 0 1 0-1.063m-1.262.025a.532.532 0 1 1 0 1.063.532.532 0 0 1 0-1.063"/><path fill="#D9D9D9" d="M24.038.898v.264h-.184v1.455h-1.138v1.858h.971v.06h2.342V4.49h.148v-1.9h-.313V1.163h-.184V.904zm-10.171.356-.14.333 1.91.802v2.299h2.897l.38-.09h.53l.109.061h.41l.254-.144v-1.94l-.253-.134h-.409l-.116.057h-.52l-.385-.073h-1.996l-.52-.333h-.192zM28.59 2.563h.112l2.327-.677h2.622l.583-.374h.164l2.94-1.246.137.323-2.865 1.216v3.41h-3.583l-2.321-.677h-.116z"/><path fill="url(#a)" d="M66.71 7.395h23.635v1.572H66.71z"/><defs><linearGradient id="a" x1="90.3446" x2="66.7095" y1="8.18081" y2="8.18081" gradientUnits="userSpaceOnUse"><stop stop-color="#D9D9D9"/><stop offset="1" stop-color="#D9D9D9" stop-opacity="0"/></linearGradient></defs></svg>