<svg xmlns="http://www.w3.org/2000/svg" width="87" height="17" fill="none" viewBox="0 0 87 17"><path fill="#D9D9D9" d="M43.104.646a.146.146 0 0 0-.291 0v.437a.25.25 0 0 0 .079.175c.073.074.19.116.357.116h2.607c-.133.208-.163.436-.163.436l-1.644-.08s-.458 0-.705.247v.41h-.168V2.21a.18.18 0 0 0-.181-.182h-.435l.032 2.902h.403a.18.18 0 0 0 .181-.182V4.65h22.698a.18.18 0 0 0 .176.134h.356a.18.18 0 0 0 .182-.181V2.355a.18.18 0 0 0-.182-.181h-.356c-.102 0-.19.08-.182.181v.033h-.059v-.622a.1.1 0 0 0-.087-.101c-.102-.008-.254-.073-.276-.364a.094.094 0 0 0-.073-.087c-.218-.051-.815-.124-.815.596v.578H47.396v-.665s-.291-.684-.946-.684a.7.7 0 0 0-.251.044H43.25a.4.4 0 0 1-.122-.015l-.023-.01z"/><path fill="#D9D9D9" fill-rule="evenodd" d="m35.613 6.803-.086-4.877h-1a.22.22 0 0 0-.216-.189h-1.68a.22.22 0 0 0-.216.19h-1.166c0-.095-.08-.19-.174-.19h-1.753c-.102 0-.175.097-.175.19h-1.163c0-.14-.08-.19-.175-.19h-1.76c-.102 0-.174.071-.174.19h-1.317a.193.193 0 0 0-.189-.19h-.858c-.102 0-.19.08-.19.19h-.763s-.21-.08-.538.247c-.327.327-1.31.894-1.31.894l-.003.485.291.01-.002 2.441-.002.016v.008a.4.4 0 0 0 .015.141c.01.032.023.047.03.053.006.004.03.022.1.022h4.253l.91 1.945.076.095.015.29h4.347l.582-.291zm-7.526.994c-.587-.613-.492-1.275-.33-1.696h-1.33v2.178h3.657l-.013-2.178h-1.72c-.109.545-.132 1.343-.01 1.672.077.214-.14.143-.254.024" clip-rule="evenodd"/><path fill="#D9D9D9" d="M35.525 7.145 31.59 8.483l.063.404a.145.145 0 0 0 .045.283q.095.596.26 1.53a.146.146 0 0 0-.118.166c.013.08.09.133.17.12a178 178 0 0 0 1.086 5.515l4.335-1.164s-.157-.484-.381-1.236a.146.146 0 0 0-.08-.27 75 75 0 0 1-.365-1.284c.076-.027.124-.112.098-.188a.145.145 0 0 0-.174-.093 58 58 0 0 1-.33-1.283.145.145 0 0 0-.069-.283 39 39 0 0 1-.257-1.153.146.146 0 0 0-.056-.282c-.154-.784-.263-1.52-.292-2.12"/><path fill="#D9D9D9" fill-rule="evenodd" d="m20.705 3.846-1.776-.058s-2.18 1.272-5.269 1.408c-.206.009-.42.012-.633.01-2.255-.023-8.063-.091-11.767-.135a.24.24 0 0 0-.055.201c.124.691.393 2.48.356 3.724-.036 1.243-.421 3.25-.589 4.073a.32.32 0 0 0 .254.379l17.521-.212s.082.002.21.013c.385.034 1.186.156 1.448.576l4.211.167a.13.13 0 0 0 .102-.218c-.218-.24-.465-.662-.269-1.236.32-.939 1.12-3.448 1.12-3.448s.01-.027.032-.07c.064-.128.226-.39.499-.439l-.01-.187-.039-.049-.846-1.808H21.14c-.51 0-.437-.552-.437-.552zm-8.002 4.99c.48-1.513-1.117-1.865-1.117-1.865l-5.29-.164c-2.182-.066-1.31 2.29-1.31 2.29s.132.364.605 1.55c.472 1.185 1.563 1.236 1.563 1.236l4.071.121c.612-.312.838-1.125.838-1.125s.16-.53.64-2.044m7.84-1.586-3.52-.11c-.8-.028-1.258.924-1.258.924s-.16.575-.64 2.088c-.436 1.374.569 1.908.756 1.994 1.886.06 3.434.11 3.812.13 1.304.025 1.85-1.358 2.16-2.866.574-2.167-1.31-2.16-1.31-2.16" clip-rule="evenodd"/><path fill="#D9D9D9" d="m35.905 6.765-.087-4.912a.07.07 0 0 1 .064-.064l6.327.088c.03 0 .058.028.058.062l.035 3.243-.038.02c-.054.023-.12.04-.163.051l-5.96 1.5a.6.6 0 0 1-.236.012"/><path fill="url(#a)" d="M66.588 3.224h20.099v.51h-20.1z"/><defs><linearGradient id="a" x1="86.6865" x2="66.5882" y1="3.47872" y2="3.47872" gradientUnits="userSpaceOnUse"><stop stop-color="#D9D9D9"/><stop offset="1" stop-color="#D9D9D9" stop-opacity="0"/></linearGradient></defs></svg>