<svg xmlns="http://www.w3.org/2000/svg" xml:space="preserve" width="47.488869mm" height="48.712952mm" viewBox="0 0 47.488868 48.712952"><g transform="translate(-144.674 -82.3)"><path d="M146.175 83.8h40.654v45.712h-40.654z" style="fill:#a66e20;fill-opacity:1;stroke:#593c11;stroke-width:3;stroke-linecap:square;stroke-linejoin:round;stroke-dasharray:none;stroke-opacity:1;paint-order:fill markers stroke;stop-color:#000"/><circle cx="152.99449" cy="90.618927" r="3.1088541" style="fill:#a69d8f;fill-opacity:1;stroke:#595651;stroke-width:2;stroke-linecap:square;stroke-linejoin:round;stroke-dasharray:none;stroke-opacity:1;paint-order:fill markers stroke;stop-color:#000"/><path d="M152.874 94.737c-2.431.013-4.366.996-6.7 1.872v32.903h25.263l.023-.15c.19-2.698-.597-6.556-1.59-6.642-.339-.471-.636-.978-1.03-1.403-1.513-1.635-3.705-2.435-5.332-3.93-1.23-1.13-2.253-2.282-3.18-3.647-.243-.359-.518-.712-.655-1.123-.09-.269.072-1.552.093-1.777-.144-3.674-.26-16.06-6.892-16.103z" style="fill:#c9d1d9;fill-opacity:1;stroke:#a2a5c0;stroke-width:3;stroke-linecap:square;stroke-linejoin:round;stroke-dasharray:none;stroke-opacity:1;paint-order:fill markers stroke;stop-color:#000"/><circle cx="173.701" cy="106.65545" r="17.212158" style="fill:#be7f26;fill-opacity:1;stroke:#714c18;stroke-width:2.5;stroke-linecap:square;stroke-linejoin:round;stroke-dasharray:none;stroke-opacity:1;paint-order:fill markers stroke;stop-color:#000"/><circle cx="173.701" cy="106.65545" r="4.7624998" style="fill:#99661e;fill-opacity:1;stroke:#664514;stroke-width:2.5;stroke-linecap:square;stroke-linejoin:round;stroke-dasharray:none;stroke-opacity:1;paint-order:fill markers stroke;stop-color:#000"/><path d="M173.797 89.443a17.21 17.21 0 0 0-16.345 11.845c8.862-1.05 10.367-3.179 18.996-2.863 7.478.606-.423 9.042-.87 12.134-.876 4.343 6.793 4.324 9.445 9.128a17.21 17.21 0 0 0 5.986-13.031c0-9.507-7.706-17.213-17.212-17.213z" style="fill:#c9d1d9;fill-opacity:1;stroke:#a2a5c0;stroke-width:2.5;stroke-linecap:square;stroke-linejoin:round;stroke-dasharray:none;stroke-opacity:1;paint-order:fill markers stroke;stop-color:#000"/><path d="M151.076 143.8c-1.913.131-3.355 1.514-3.106 3.628s2.189 4.959 3.724 6.498 2.666 1.775 3.994 1.201c1.327-.573 2.852-1.955 3.228-3.626s-.394-3.63-1.97-5.171c-1.576-1.54-3.958-2.661-5.87-2.53z" style="fill:#c9d1d9;fill-opacity:1;stroke:#a2a5c0;stroke-width:2.5;stroke-miterlimit:4;stroke-dasharray:none;stroke-opacity:1" transform="translate(11.06 -36.234)"/></g></svg>