<svg xmlns="http://www.w3.org/2000/svg" xml:space="preserve" width="24.292746mm" height="24.293459mm" viewBox="0 0 24.292745 24.293459"><g transform="translate(.005)"><rect width="22.898762" height="22.898762" x="0.6945343" y="0.69453782" rx="0" ry="0" style="fill:#af7a53;fill-opacity:1;fill-rule:nonzero;stroke:#342318;stroke-width:1.38907;stroke-linecap:round;stroke-linejoin:round;stroke-miterlimit:4;stroke-dasharray:none;stroke-dashoffset:0;stroke-opacity:1;paint-order:normal"/><path d="M12.144.695v22.898" style="fill:none;stroke:#342318;stroke-width:1.38907;stroke-linecap:round;stroke-linejoin:round;stroke-miterlimit:4;stroke-dasharray:none;stroke-opacity:1;paint-order:normal"/><path d="M7.674 4.661h6.472l-.287.863.287.877H7.674l.405-.88ZM9.405 16.52l5.77 2.929-.646.64-.14.91-5.772-2.929.76-.6z" style="fill:#e2cec0;fill-opacity:1;fill-rule:nonzero;stroke:#342418;stroke-width:2.08359;stroke-linecap:round;stroke-linejoin:round;stroke-miterlimit:4;stroke-dasharray:none;stroke-dashoffset:0;stroke-opacity:1;paint-order:stroke fill markers"/></g><path d="M-92.741 213.85h11.304a9 9 0 0 0-.032-.74c-.022-.159-.088-.308-.132-.463-.372-1.302-1.497-2.464-2.25-3.572-1.686-3.625-4.529-2.904-7.407-4.431-.178-.098-.304-.272-.463-.397-.327-.257-.692-.47-1.02-.727z" style="fill:#c9d1d9;fill-opacity:1;fill-rule:nonzero;stroke:#a2a5c0;stroke-width:1.38900005;stroke-linecap:round;stroke-linejoin:round;stroke-miterlimit:4;stroke-dasharray:none;stroke-dashoffset:0;stroke-opacity:1;paint-order:normal" transform="translate(93.436 -190.25)"/><path d="M-804.735 263.506q-.915.353-1.85.648c-.869.274-1.755.51-2.662.586-.908.075-1.843-.017-2.677-.38-.835-.364-1.563-1.016-1.913-1.857a2.84 2.84 0 0 1-.215-1.335c.04-.454.201-.898.473-1.263.248-.333.58-.594.893-.867s.619-.573.79-.952c.17-.377.194-.808.134-1.217s-.2-.803-.347-1.19-.303-.772-.396-1.175-.124-.829-.017-1.229c.107-.403.35-.765.671-1.031.32-.267.715-.44 1.125-.516.82-.151 1.675.085 2.396.504 1.442.837 2.373 2.328 3.665 3.383.405.33.845.617 1.25.947.407.33.784.711 1.02 1.178.213.422.301.9.292 1.373a4.5 4.5 0 0 1-.273 1.385 6.04 6.04 0 0 1-2.359 3.008z" style="fill:#c9d1d9;fill-opacity:1;stroke:#a2a5c0;stroke-width:1.389;stroke-dasharray:none;stroke-opacity:1" transform="rotate(-90 -521.467 -279.674)"/><path d="M-73.825 211.348c-.694.19-1.78.261-2.125-.37-.343-.628.603-1.3.836-1.978s.125-1.524.556-2.074c.426-.542 1.197-1.248 1.782-.922 1.092.608 1.085 2.677.627 3.918-.254.688-.968 1.233-1.676 1.426z" style="fill:#c9d1d9;fill-opacity:1;stroke:#a2a5c0;stroke-width:1.389;stroke-linejoin:round;stroke-dasharray:none;stroke-opacity:1" transform="translate(93.436 -190.25)"/></svg>