<svg xmlns="http://www.w3.org/2000/svg" width="187.93051" height="109.76546" viewBox="0 0 49.72328 29.04211"><g transform="translate(-133.768 -184.68)"><path d="M156.918 210.534h3.423c.24 0 .42.22.42.512v1.17c0 .292-.18.512-.42.512h-3.423c-.24 0-.42-.22-.42-.512v-1.17c0-.292.18-.512.42-.512" class="st21" style="fill:#727272;fill-opacity:1;stroke:#4d4d4d;stroke-width:1.98764;stroke-linecap:round;stroke-linejoin:round;stroke-miterlimit:11.3386;stroke-opacity:1"/><path d="M139.46 195.51v6.875c0 .24-.22.42-.512.42H135c-.292 0-.511-.18-.511-.42v-6.875c0-.24.219-.42.511-.42h3.948c.293.03.512.21.512.42m43.31 0v6.875c0 .24-.219.42-.51.42h-3.949c-.292 0-.511-.18-.511-.42v-6.875c0-.24.219-.42.511-.42h3.948c.292.03.512.21.512.42" class="st0" style="fill:none;stroke:#4d4d4d;stroke-width:1.44104;stroke-linecap:round;stroke-linejoin:round;stroke-miterlimit:11.3386;stroke-opacity:1"/><path d="M144.55 185.71h3.422c.24 0 .42.219.42.511v1.17c0 .293-.18.512-.42.512h-3.423c-.24 0-.42-.22-.42-.512v-1.17c0-.292.18-.511.42-.511m24.768 2.156h3.423c.24 0 .42-.219.42-.511v-1.17c0-.292-.18-.512-.42-.512h-3.423c-.24 0-.42.22-.42.512v1.17c0 .292.18.511.42.511" class="st21" style="fill:#1c302b;fill-opacity:1;stroke:#1c312b;stroke-width:1.98764;stroke-linecap:round;stroke-linejoin:round;stroke-miterlimit:11.3386;stroke-opacity:1"/><path d="M140.226 187.866h36.807c1.651 0 3.002 1.645 3.002 3.656v15.864c0 2.01-1.35 3.655-3.002 3.655h-36.807c-1.651 0-3.002-1.644-3.002-3.655v-15.864c0-2.01 1.35-3.656 3.002-3.656" class="st22" style="fill:#2e3726;stroke:#2e3726;stroke-width:1.98764;stroke-linecap:round;stroke-linejoin:round;stroke-miterlimit:11.3386"/><path d="M140.226 187.866h36.807c1.651 0 3.002 1.645 3.002 3.656v15.864c0 2.01-1.35 3.655-3.002 3.655h-36.807c-1.651 0-3.002-1.644-3.002-3.655v-15.864c0-2.01 1.35-3.656 3.002-3.656" class="st24" style="fill:#406c65;fill-opacity:1;stroke:#1c302b;stroke-width:1.98764;stroke-linecap:round;stroke-linejoin:round;stroke-miterlimit:11.3386;stroke-opacity:1"/><rect width="35.505341" height="1.9868299" x="140.96623" y="191.29163" rx="0.76951581" ry="0.9369356" style="fill:#1c302b;fill-opacity:1;stroke:none;stroke-width:1.68435;stroke-opacity:1;stop-color:#000"/><rect width="35.505341" height="1.9868299" x="140.96623" y="205.14566" rx="0.76951581" ry="0.9369356" style="fill:#1c302b;fill-opacity:1;stroke:none;stroke-width:1.68435;stroke-opacity:1;stop-color:#000"/><path d="M136.934 208.38c.887 4.058 3.373 2.963 8.682 3.01 4.392.038 9.684.004 13.21.004-.072-.093-.637-2.306-.727-2.382-4.08-3.35-11.456-3.257-14.369-8.534-1.145-3.443.307-10.305-1.403-13.09.269.057-4.378-1.324-5.46 3.6 0 6.095-.326 15.846.067 17.391zm43.513-7.751c-.072-2.7.53-9.7-.983-11.959-.945-1.48-7.63-1.322-9.93-1.158-.032.814 2.692 2.101 3.16 3.63 1.18 5.102 4.9 8.988 7.753 9.487" style="fill:#c9d1d9;fill-opacity:1;stroke:#a2a5c0;stroke-width:1.228;stroke-linecap:round;stroke-linejoin:round;stroke-dasharray:none;stroke-opacity:1;stop-color:#000"/></g></svg>