<svg xmlns="http://www.w3.org/2000/svg" width="39.836823mm" height="76.604408mm" viewBox="0 0 39.836823 76.604408"><path d="M58.118 137.498V78.113" style="fill:#171717;fill-opacity:1;fill-rule:evenodd;stroke:#262626;stroke-width:1.5875;stroke-linecap:round;stroke-linejoin:round;stroke-dasharray:none;stroke-opacity:1" transform="translate(-57.116 -69.317)"/><path d="M63.306 144.731V70.508H93.85v74.223z" style="fill:#3c7033;fill-opacity:1;stroke:#11200e;stroke-width:2.38125;stroke-linecap:square;stroke-linejoin:round;stroke-miterlimit:5;stroke-dasharray:none;stroke-opacity:1" transform="translate(-57.116 -69.317)"/><path d="M69.46 70.508h-6.154v8.656c3.475-.262 5.766-5.62 6.153-8.656m24.391 74.223H68.129c2.913-.548 5.742-1.86 8.14-3.595 4.585-3.317 4.562-9.103 9.097-11.251.942-.446 6.557-1.506 7.652-.958 1.675.837.794 13.083.834 15.804" style="fill:#c9d1d9;stroke:#a2a5c0;stroke-width:2.38125;stroke-linecap:round;stroke-linejoin:round;stroke-dasharray:none" transform="translate(-57.116 -69.317)"/><path d="M-141.537 61.394h67.86v34.369h-67.86z" style="fill:#3c7033;fill-opacity:1;stroke:#11200e;stroke-width:2.381;stroke-linecap:square;stroke-linejoin:round;stroke-miterlimit:5;stroke-dasharray:none;stroke-opacity:1" transform="rotate(-90 -63.217 -6.1)"/><path d="M60.997 138.58v-30.925h32.02v30.925z" style="fill:#383838;stroke:#171717;stroke-width:1.5875;stroke-linecap:square;stroke-linejoin:round;stroke-miterlimit:5" transform="translate(-57.116 -69.317)"/><path d="M-137.125 58.307h2.656V60.6h-2.656zm25.359 0h2.656V60.6h-2.656z" style="fill:#171717;fill-opacity:1;fill-rule:evenodd;stroke:#171717;stroke-width:2.38125;stroke-linecap:round;stroke-linejoin:round;stroke-dasharray:none;stroke-opacity:1" transform="rotate(-90 -63.217 -6.1)"/><path d="M199.98 169.2h4.487v24.407h-4.488zm9.51.082h4.488v24.406h-4.488zm9.511-.11h4.488v24.406h-4.488z" style="fill:#383838;fill-opacity:1;stroke:#262626;stroke-width:1.5875;stroke-linecap:square;stroke-linejoin:round;stroke-miterlimit:5;stroke-dasharray:none;stroke-opacity:1" transform="rotate(-90 51.998 213.537)"/><path d="M60.997 107.655V76.73h32.02v30.925Z" style="fill:#383838;stroke:#171717;stroke-width:1.5875;stroke-linecap:square;stroke-linejoin:round;stroke-miterlimit:5" transform="translate(-57.116 -69.317)"/><path d="M-80.84 58.307h2.655V60.6h-2.656zm-25.36 0h2.656V60.6h-2.656z" style="fill:#171717;fill-opacity:1;fill-rule:evenodd;stroke:#171717;stroke-width:2.38125;stroke-linecap:round;stroke-linejoin:round;stroke-dasharray:none;stroke-opacity:1" transform="rotate(-90 -63.217 -6.1)"/><path d="M199.98 169.2h4.487v24.407h-4.488zm9.51.082h4.488v24.406h-4.488zm9.511-.11h4.488v24.406h-4.488z" style="fill:#383838;fill-opacity:1;stroke:#262626;stroke-width:1.5875;stroke-linecap:square;stroke-linejoin:round;stroke-miterlimit:5;stroke-dasharray:none;stroke-opacity:1" transform="rotate(-90 36.535 198.074)"/><path d="M81.774 141.537h-20.38v-26.575c2.305-.15 3.777 1.023 4.5 3.192 1.456 4.368-.343 9.625 2.554 13.486 1.274 1.7 5.763 1.453 7.66 1.995 3.907 1.116 4.46 4.678 5.666 7.902m13.989-50.115V73.677h-34.37V84.4c2.027-.184 11.118-3.762 13.598-2.633 4.288 1.953 2.61 9.279 6.623 12.289 4.715 3.535 13.877 2.931 14.149-2.633m-23.645 3.35c2.991 8.807 20.978 2.662 16.519 16.04-1.04 3.118-12.151 1.12-14.204.24-1.82-.78-3.788-2.95-5.108-4.39-3.09-3.372-7.158-10.353-5.266-15.082.28-.701 1.316-.897 1.915-1.197 4.125-2.062 4.917 1.524 6.144 4.39m6.703 23.38c3.541 3.687 8.682-.734 12.37.32 7.01 2.002 4.654 18.327-.24 17.715-2.823-.353-23.331-18.035-12.13-18.035" style="fill:#c9d1d9;stroke:#a2a5c0;stroke-width:2.38125;stroke-linecap:round;stroke-linejoin:round;stroke-dasharray:none" transform="translate(-57.116 -69.317)"/></svg>