<svg xmlns="http://www.w3.org/2000/svg" width="189.63771" height="498.88821" viewBox="0 0 50.174978 131.9975"><g transform="translate(-2055.25 -1419.093)scale(.26458)"><path d="M-5616.493 7784.606h154.128v154.128h-154.128z" class="cls-20" style="fill:#474437;stroke:#1e1a10;stroke-width:9.12601px;stroke-miterlimit:10;stroke-opacity:1" transform="rotate(-90)"/><path d="M7790.606 5556.014v-74.95h142.128v74.95l-19.266 14h-103.596z" class="cls-20" style="fill:#3e4d57;fill-opacity:1;stroke:#13181b;stroke-width:9.12756;stroke-linecap:round;stroke-linejoin:round;stroke-miterlimit:10;stroke-dasharray:none;stroke-opacity:1"/><path d="M7785.63 5696.712v-20.564a16.047 16.047 0 0 1 16.082-16.082h121.964c8.91 0 16.082 7.173 16.082 16.083v20.563c0 8.91-7.173 16.082-16.082 16.082h-19.81l3.964-34.76-86.596 4.27-5.793 30.49h-13.73a16.047 16.047 0 0 1-16.081-16.082z" class="cls-20" style="fill:#411f16;fill-opacity:1;stroke:#23110b;stroke-width:9.12601px;stroke-miterlimit:10;stroke-opacity:1"/><path d="M7784.606 5461.351v-53.215c0-22.125 17.968-40.073 40.073-40.073h76.557c21.254 0 38.492 17.258 38.492 38.491v54.797z" class="cls-21" style="fill:#ac5339;fill-opacity:1;stroke:#23110b;stroke-width:9.12601px;stroke-miterlimit:10;stroke-opacity:1"/><path d="M-5691.53 7785.63h75.037v154.128h-75.036z" class="cls-21" style="fill:#ac5339;fill-opacity:1;stroke:#23110b;stroke-width:9.12601px;stroke-miterlimit:10;stroke-opacity:1" transform="rotate(-90)"/><rect width="121.68008" height="20.280012" x="-5857.8252" y="7893.1147" class="cls-17" rx="6.0840034" ry="6.0840034" style="fill:#636363;fill-opacity:1;stroke:#242424;stroke-width:9.12601px;stroke-miterlimit:10;stroke-opacity:1" transform="rotate(-90)"/><rect width="121.68008" height="20.280012" x="-5857.8252" y="7809.9648" class="cls-17" rx="6.0840034" ry="6.0840034" style="fill:#636363;fill-opacity:1;stroke:#242424;stroke-width:9.12601px;stroke-miterlimit:10;stroke-opacity:1" transform="rotate(-90)"/><rect width="28.392015" height="26.364014" x="-5728.7056" y="7803.8809" class="cls-17" rx="5.0902829" ry="5.0902829" style="fill:#636363;fill-opacity:1;stroke:#171717;stroke-width:9.12601px;stroke-miterlimit:10;stroke-opacity:1" transform="rotate(-90)"/><path d="M385.549 72.05c0-10.207-8.288-18.505-18.505-18.505h-19.266c-.297 1.113-.401 2.21-.208 3.273.286 1.574 3.81 6.008 4.618 7.158 3.058 4.351 6.615 8.904 7.388 14.315.268 1.876-2.32 4.542-3.232 6.003-1.382 2.21-3.522 7.732-2.31 10.159a20.5 20.5 0 0 0 1.848 3.001c.743 1.005 3.054 3.405 4.156 4.156 6.487 4.423 16.856 5.362 25.51 5.875v-.083z" class="cls-21" style="fill:#c9d1d9;fill-opacity:1;stroke:#a2a5c0;stroke-width:4.21414px;stroke-miterlimit:10;stroke-opacity:1" transform="rotate(-90 6935.835 -732.814)scale(2.16557)"/><rect width="28.392015" height="28.392015" x="-5728.7056" y="7893.1147" class="cls-17" rx="6.5098839" ry="6.5098839" style="fill:#636363;fill-opacity:1;stroke:#171717;stroke-width:9.12601px;stroke-miterlimit:10;stroke-opacity:1" transform="rotate(-90)"/><path d="M253.622 53.296h-18.163v42.67c6.594-.832 7.854-4.217 11-7.436 1.344-1.344 3.6-2.311 4.244-4.244.111-1.75.493-4.02 1.633-5.225 20.207-9.627 1.201-10.863 1.286-25.765z" class="cls-21" style="fill:#c9d1d9;fill-opacity:1;stroke:#a2a5c0;stroke-width:2.77064;stroke-miterlimit:10;stroke-dasharray:none;stroke-opacity:1" transform="rotate(-90 6935.835 -732.814)scale(2.16557)"/><path d="M351.45 112.926c13.75-3.685 14.02 30.366 0 26.609-11.5-3.081-8.96-2.867-20.083-2.788-2.503.018-5.089-1.937-5.61-4.384-1-4.692-1.026-7.838-.074-12.214.54-2.482 3.211-4.453 5.752-4.436 11.361.076 8.559.283 20.014-2.787" style="fill:#4b4b4b;fill-opacity:1;fill-rule:evenodd;stroke:#171717;stroke-width:4.21486;stroke-linecap:round;stroke-linejoin:round;stroke-miterlimit:20;stroke-opacity:1" transform="rotate(-90 7009.387 -508.291)scale(2.83713)"/><path d="M7902.266 5514.74h-60.439l-4.389-23.358 8.899-9.158 19.31-8.501 21.98 1.24 20.28 7.475 4.947 8.485 1.376 5.275-4.266 18.541z" style="fill:#3d3d3d;fill-opacity:1;fill-rule:evenodd;stroke:#383838;stroke-width:5.98152;stroke-linecap:round;stroke-linejoin:round;stroke-miterlimit:20;stroke-dasharray:none;stroke-opacity:1"/><path d="M351.45 112.926c13.75-3.685 14.02 30.366 0 26.609-11.5-3.081-8.96-2.867-20.083-2.788-2.503.018-5.089-1.937-5.61-4.384-1-4.692-1.026-7.838-.074-12.214.54-2.482 3.211-4.453 5.752-4.436 11.361.076 8.559.283 20.014-2.787" style="fill:none;fill-rule:evenodd;stroke:#171717;stroke-width:4.21486;stroke-linecap:round;stroke-linejoin:round;stroke-miterlimit:20;stroke-opacity:1" transform="rotate(-90 7009.387 -508.291)scale(2.83713)"/><path d="M48.733-340.063h6.851a1.253 1.253 45 0 1 1.253 1.253v.968a2.59 2.59 115.852 0 1-.983 2.03l-3.695 2.917-3.695-2.918a2.59 2.59 64.148 0 1-.983-2.029v-.968a1.253 1.253 135 0 1 1.252-1.253" style="fill:#424242;fill-opacity:1;fill-rule:evenodd;stroke:#424242;stroke-width:2.1083;stroke-linecap:round;stroke-linejoin:round;stroke-miterlimit:20;stroke-opacity:1" transform="translate(7727.842 6511.404)scale(2.83713)"/><path d="M7780.895 5423.674c-4.664 0-8.457 3.793-8.457 8.457v185.907c0 4.664 3.793 8.457 8.457 8.457h163.598c4.664 0 8.457-3.793 8.457-8.457V5432.13c0-4.664-3.793-8.457-8.457-8.457zm14.195 16.264h52.446c4.481.207 8.07 3.886 8.07 8.418l-.019.019v106.635h-60.686c-4.564-.115-8.246-3.844-8.246-8.436v-98.199c0-3.887 3.346-8.437 8.436-8.437zm82.762 0h52.445c5.09 0 8.438 4.55 8.438 8.438v98.199c0 4.592-3.681 8.32-8.246 8.435h-60.686v-106.635l-.023-.018c0-4.532 3.589-8.212 8.07-8.418zm-82.72 129.29h60.454v34.614c0 4.665-3.792 8.457-8.457 8.457h-52.21c-4.574-.105-8.264-3.839-8.264-8.437v-26.2c0-3.867 3.41-8.435 8.476-8.435zm74.671 0h60.453c5.066 0 8.479 4.567 8.479 8.435v26.199c0 4.598-3.69 8.332-8.264 8.437h-52.213c-4.664 0-8.455-3.792-8.455-8.457z" class="cls-16" style="fill:#4a4a4a;fill-opacity:1;stroke:#171717;stroke-width:9.12601px;stroke-miterlimit:10;stroke-opacity:1"/><path d="M7780.895 5423.674c-4.664 0-8.457 3.793-8.457 8.457v125.907c0 4.664 3.793 8.457 8.457 8.457h163.598c4.664 0 8.457-3.793 8.457-8.457V5432.13c0-4.664-3.793-8.457-8.457-8.457z" class="cls-16" style="fill:#616161;fill-opacity:1;stroke:#171717;stroke-width:9.12601px;stroke-miterlimit:10;stroke-opacity:1"/><path d="M7803.877 5669.507h117.632v30.55h-117.632z" style="fill:#636363;fill-opacity:1;fill-rule:evenodd;stroke:#171717;stroke-width:9.12;stroke-linecap:round;stroke-linejoin:round;stroke-dasharray:none;stroke-opacity:1"/><path d="M7788.354 5729.435h148.68v15.071h-148.68z" style="fill:#636363;fill-opacity:1;fill-rule:evenodd;stroke:#171717;stroke-width:9.12756;stroke-linecap:round;stroke-linejoin:round;stroke-dasharray:none;stroke-opacity:1"/></g><path d="M161.87 102.976c-1.76 0-3.178 1.44-3.178 3.229v4.304c0 1.789 1.417 3.23 3.177 3.23h14.451c2.126-1.307-.482-5.411.6-8.336 1.785-3.004-11.133-2.427-15.05-2.427z" class="cls-17" style="fill:#c9d1d9;fill-opacity:1;stroke:#a2a5c0;stroke-width:2.77064;stroke-miterlimit:10;stroke-dasharray:none;stroke-opacity:1" transform="rotate(-90 97.935 124.188)scale(.57297)"/><path d="M7954.513 5514.514v44.11a9.39 9.39 135 0 1-9.391 9.39h-42.962c-8.73 0-19.262-10.034-19.262-19.221 0-15.237 23.063-14.438 21.823-34.353-.869-13.942 16.78-10.923 16.78-25.22-.24-3.786-1.068-8.703-3.535-11.314-43.761-20.848-2.603-23.525-2.785-55.795h29.555a9.776 9.776 45 0 1 9.777 9.777zm-183.638 0c14.28-1.8 17.009-9.132 23.82-16.102 2.91-2.91 7.796-5.005 9.192-9.191.24-3.787 1.068-8.704 3.535-11.315 43.76-20.848 2.602-23.525 2.785-55.795h-29.287a10.045 10.045 135 0 0-10.045 10.045z" class="cls-21" style="fill:#c9d1d9;fill-opacity:1;stroke:#a2a5c0;stroke-width:6;stroke-miterlimit:10;stroke-dasharray:none;stroke-opacity:1" transform="translate(-2055.25 -1419.086)scale(.26458)"/><path d="M255.505 119.338c1.62.442 4.16.61 4.964-.864.8-1.468-1.409-3.04-1.952-4.62-.543-1.582-.292-3.563-1.3-4.845-.994-1.268-2.796-2.916-4.163-2.154-2.55 1.42-2.534 6.253-1.465 9.151.594 1.608 2.263 2.881 3.916 3.332z" style="fill:#c9d1d9;fill-opacity:1;stroke:#a2a5c0;stroke-width:2.77064;stroke-linejoin:round;stroke-dasharray:none;stroke-opacity:1" transform="rotate(-90 97.935 124.188)scale(.57297)"/></svg>