<svg xmlns="http://www.w3.org/2000/svg" width="131.72612" height="142.25038" viewBox="0 0 34.852534 37.637081"><g transform="translate(-9.514 -8.32)scale(.39571)"><path d="M25.976 27.949h84.205v4.337H25.976zm.094 76.949h84.113v4.34H26.07z" style="fill:#454326;fill-opacity:1;stroke:#2f2e18;stroke-width:3.86873;stroke-linecap:round;stroke-linejoin:round;stroke-dasharray:none;stroke-opacity:1;paint-order:stroke fill markers"/><path d="M32.723-109.544h72.175V-105H32.723zm-.214 78.496h72.174v4.543H32.51z" style="fill:#454326;fill-opacity:1;stroke:#2f2e18;stroke-width:3.86873;stroke-linecap:round;stroke-linejoin:round;stroke-dasharray:none;stroke-opacity:1;paint-order:stroke fill markers" transform="rotate(90)"/><path d="M34.982 108h9.14v6.152h-9.14zm54.967 0h9.139v6.152h-9.14zM34.982 23.008h9.14v6.152h-9.14zm54.967 0h9.139v6.152h-9.14z" style="fill:#49432b;fill-opacity:1;stroke:#312c1c;stroke-width:3.96875;stroke-linecap:round;stroke-linejoin:round;stroke-dasharray:none;stroke-opacity:1;paint-order:stroke fill markers"/><path d="M28.327 29.924h25.845v77.386H28.327zm26.806 0h25.846v77.323H55.133zm26.807 0h25.845v77.323H81.94z" style="fill:#4c4823;fill-opacity:1;stroke:#292713;stroke-width:5.29167;stroke-linecap:round;stroke-linejoin:round;stroke-dasharray:none;stroke-opacity:1;paint-order:stroke fill markers"/><path d="M28.446 37.499h79.55v10.833h-79.55zm0 51.711h79.55v10.833h-79.55z" style="fill:#504a2a;fill-opacity:1;stroke:#332d1a;stroke-width:5.29167;stroke-linecap:round;stroke-linejoin:round;stroke-dasharray:none;stroke-opacity:1;paint-order:stroke fill markers"/><path d="M62.868 108.516h8.335v1.864h-8.335zm-12.21-81.973h7.56v3.437h-7.56zm26.785-.19h7.559v3.437h-7.56z" style="fill:#3e3e3e;fill-opacity:1;stroke:#2e2e2e;stroke-width:3.96875;stroke-linecap:round;stroke-linejoin:round;stroke-dasharray:none;stroke-opacity:1;paint-order:stroke fill markers"/><path d="M22.686 88.249h5.098v2.083h-5.098z" style="fill:#ababab;fill-opacity:1;fill-rule:evenodd;stroke:#4c4823;stroke-width:0;stroke-linecap:round;stroke-linejoin:round;stroke-dasharray:none;stroke-opacity:1" transform="matrix(.86686 -.49856 .50144 .8652 0 0)"/><path d="m63.563 64.063-1.655.952-1.351 3.49 1.78 8.805-2.816.462-2.185-10.418 2.804-5.757-.31-2.27 4.138-2.38 2.2 1.993v.79l1.58 1.836z" style="fill:#ababab;fill-opacity:1;fill-rule:evenodd;stroke:#4c4823;stroke-width:0;stroke-linecap:round;stroke-linejoin:round;stroke-dasharray:none;stroke-opacity:1"/><ellipse cx="25.449083" cy="97.479645" rx="8.1745262" ry="8.1588345" style="fill:#ababab;fill-opacity:1;fill-rule:evenodd;stroke:#4c4823;stroke-width:0;stroke-linecap:round;stroke-linejoin:round;stroke-dasharray:none;stroke-opacity:1" transform="matrix(.86686 -.49856 .50144 .8652 0 0)"/><path d="m63.905 75.748 14.075-8.096" style="fill:#222;fill-opacity:.697324;fill-rule:evenodd;stroke:#4c4823;stroke-width:1.04265;stroke-linecap:round;stroke-linejoin:round;stroke-dasharray:none;stroke-opacity:1"/><ellipse cx="19.248436" cy="86.627319" rx="3.8535085" ry="3.8461108" style="fill:none;fill-opacity:1;fill-rule:evenodd;stroke:#ababab;stroke-width:1.75819;stroke-linecap:round;stroke-linejoin:round;stroke-dasharray:none;stroke-opacity:1" transform="matrix(.86686 -.49856 .50144 .8652 0 0)"/><ellipse cx="28.468351" cy="82.166168" rx="2.1047797" ry="2.1007385" style="fill:#ababab;fill-opacity:1;fill-rule:evenodd;stroke:#4c4823;stroke-width:0;stroke-linecap:round;stroke-linejoin:round;stroke-dasharray:none;stroke-opacity:1" transform="matrix(.86686 -.49856 .50144 .8652 0 0)"/></g><path d="m39.97 21.572-18.277-.077v17.362c1.929.088 2.648-1.707 3.931-2.734 1.051-.841 2.593-.03 3.329-1.665 1.339-2.975-1.572-5.095 2.14-6.538 4.427-1.722 5.403 1.58 7.648.832 2.231-.744 1.629-5.54 1.228-7.18" style="fill:#c9d1d9;stroke:#a2a5c0;stroke-width:1.05833332;stroke-linecap:round;stroke-linejoin:round;stroke-dasharray:none" transform="translate(-20.515 -18.491)"/><path d="M47.095 34c0 2.558-2.188 5.65-.887 8.252 2.3 4.6 6.46.512 6.736-3.081.241-3.135-.522-6.127-.522-9.243.034-3.814 2.2-6.466-2.193-7.886-6.473-1.754-3.155 8.367-3.134 11.959m-3.411 19.397H21.49v-4.241c4.92 1.105 12.597-5.36 17.924-3.044 2.898 1.26 3.486 4.58 4.27 7.285" style="fill:#c9d1d9;stroke:#a2a5c0;stroke-width:1.05833;stroke-linecap:round;stroke-linejoin:round;stroke-dasharray:none" transform="translate(-20.515 -18.491)"/></svg>