<svg xmlns="http://www.w3.org/2000/svg" xml:space="preserve" width="245.85403" height="183.51721" viewBox="0 0 65.048878 48.555595"><g transform="rotate(180 128.779 85.44)"><rect width="9.6520319" height="62.78521" x="125.89856" y="-256.42535" ry="1.4157451" style="fill:#9e7437;fill-opacity:1;stroke:#8c6331;stroke-width:2.26367;stroke-linecap:square;stroke-dasharray:none;stroke-opacity:1;paint-order:normal;stop-color:#000" transform="rotate(90)"/><rect width="9.6520319" height="62.78521" x="141.77527" y="-256.42535" ry="1.4157451" style="fill:#9e7437;fill-opacity:1;stroke:#8c6331;stroke-width:2.26367;stroke-linecap:square;stroke-dasharray:none;stroke-opacity:1;paint-order:normal;stop-color:#000" transform="rotate(90)"/><rect width="9.6520319" height="62.78521" x="156.99548" y="-256.42535" ry="1.4157451" style="fill:#9e7437;fill-opacity:1;stroke:#8c6331;stroke-width:2.26367;stroke-linecap:square;stroke-dasharray:none;stroke-opacity:1;paint-order:normal;stop-color:#000" transform="rotate(90)"/><rect width="9.947485" height="46.055595" x="242.69696" y="123.57349" ry="1.0385087" style="fill:#9e7437;fill-opacity:1;stroke:#8c6331;stroke-width:2.5;stroke-linecap:square;stroke-dasharray:none;stroke-opacity:1;paint-order:normal;stop-color:#000"/><rect width="9.947485" height="46.055595" x="196.95355" y="123.57349" ry="1.0385087" style="fill:#9e7437;fill-opacity:1;stroke:#8c6331;stroke-width:2.5;stroke-linecap:square;stroke-dasharray:none;stroke-opacity:1;paint-order:normal;stop-color:#000"/><rect width="9.947485" height="46.055595" x="220.05902" y="123.57349" ry="1.0385087" style="fill:#9e7437;fill-opacity:1;stroke:#8c6331;stroke-width:2.5;stroke-linecap:square;stroke-dasharray:none;stroke-opacity:1;paint-order:normal;stop-color:#000"/></g><path d="M-986.102 223.302a2 2 0 0 0-.212.005 2 2 0 0 0-.805.262c-.494.28-.871.73-1.202 1.193-1.165 1.637-1.873 3.62-1.892 5.632-.027 2.786 1.28 5.502 3.283 7.425 2.965 2.547 9.637 3.215 12.395 1.59 1.721-1.156 2.349-4.108 2.355-5.755a8.62 8.62 0 0 0-2.01-5.424c-.325-.386-.692-.748-1.138-.983-.437-.23-.934-.329-1.427-.336s-.984.076-1.463.192c-.959.233-1.891.603-2.874.686-.52.044-1.054.004-1.547-.17s-.944-.489-1.237-.924c-.344-.512-.446-1.143-.615-1.737a3.5 3.5 0 0 0-.348-.855 1.7 1.7 0 0 0-.65-.641c-.188-.099-.4-.15-.613-.16z" style="fill:#c9d1d9;fill-opacity:1;fill-rule:evenodd;stroke:#a2a5c0;stroke-width:1;stroke-dasharray:none;stroke-opacity:1" transform="translate(995.041 -195.107)"/><path d="M-969.76 224.754c-.624.172-1.262.307-1.908.33s-1.304-.068-1.894-.333c-.59-.266-1.107-.714-1.395-1.293-.144-.29-.23-.609-.24-.932s.054-.65.196-.94c.204-.42.557-.75.94-1.017.382-.268.8-.48 1.193-.731.563-.359 1.076-.792 1.644-1.142s1.214-.618 1.88-.594c.62.024 1.216.305 1.666.73.45.426.76.989.931 1.584.135.467.19.96.133 1.443a2.9 2.9 0 0 1-.504 1.353c-.3.425-.723.754-1.183.997-.46.244-.958.407-1.46.545z" style="fill:#c9d1d9;fill-opacity:1;stroke:#a2a5c0;stroke-width:.951;stroke-dasharray:none;stroke-opacity:1" transform="translate(995.041 -195.107)"/><path d="M-935.677 210.777q-.915.352-1.851.648c-.868.274-1.755.51-2.662.586s-1.842-.017-2.677-.38c-.835-.364-1.562-1.016-1.913-1.857a2.84 2.84 0 0 1-.214-1.335c.04-.454.2-.898.473-1.263.248-.333.58-.594.892-.867.314-.273.62-.573.79-.952.17-.377.195-.808.135-1.217s-.2-.803-.348-1.19-.302-.772-.396-1.175-.123-.829-.017-1.229a2.04 2.04 0 0 1 .671-1.031c.32-.267.715-.44 1.125-.516.82-.151 1.676.085 2.397.504 1.441.837 2.373 2.328 3.664 3.383.405.33.845.617 1.251.947s.783.711 1.02 1.178c.212.422.3.9.291 1.373s-.114.94-.272 1.385a6.04 6.04 0 0 1-2.359 3.008z" style="fill:#c9d1d9;fill-opacity:1;stroke:#a2a5c0;stroke-width:.909195;stroke-dasharray:none;stroke-opacity:1" transform="translate(995.041 -195.107)"/><path d="M-989.84 199.494a50 50 0 0 0-2.368 7.994c-.246 1.189-.45 2.391-.477 3.605-.028 1.213.126 2.442.574 3.57.519 1.305 1.425 2.444 2.547 3.287 1.121.843 2.453 1.394 3.834 1.645 2.761.502 5.65-.198 8.112-1.544 1.695-.925 3.21-2.139 4.794-3.24 1.585-1.102 3.283-2.109 5.165-2.538 1.57-.357 3.198-.298 4.807-.323s3.262-.148 4.718-.833c1.936-.909 3.363-2.821 3.697-4.934s-.427-4.365-1.965-5.852c-1.527-1.476-3.647-2.145-5.711-2.644-5.853-1.415-11.973-1.844-17.927-.947a41 41 0 0 0-9.799 2.754zm42.844 40.155c-1.979-1.522-3.647-3.548-4.355-5.942a9.04 9.04 0 0 1-.048-4.962 8.65 8.65 0 0 1 2.644-4.191 8.3 8.3 0 0 1 4.539-1.973 7.96 7.96 0 0 1 4.829 1.05c1.201.712 2.195 1.744 2.968 2.906s1.335 2.455 1.78 3.779c.418 1.243.738 2.528.828 3.836.09 1.31-.055 2.647-.54 3.866-.452 1.136-1.203 2.16-2.19 2.881-1.523 1.11-3.53 1.435-5.387 1.12-1.858-.314-3.575-1.222-5.068-2.37z" style="fill:#c9d1d9;fill-opacity:1;stroke:#a2a5c0;stroke-width:1.358;stroke-dasharray:none;stroke-opacity:1" transform="translate(995.041 -195.107)"/></svg>