<svg xmlns="http://www.w3.org/2000/svg" width="575" height="517.6745" viewBox="0 0 575 517.6745"><defs><clipPath id="d" clipPathUnits="userSpaceOnUse"><path d="M-142.053 3.825h574.806v-499.023h-574.806Z"/></clipPath><clipPath id="c" clipPathUnits="userSpaceOnUse"><path d="M.062 3.567h766.409V668.93H.062Z"/></clipPath><clipPath id="b" clipPathUnits="userSpaceOnUse"><path d="M.062 0h766.409v690.267H.062Z"/></clipPath><clipPath id="g" clipPathUnits="userSpaceOnUse"><path d="M-126.453 3.706h512.406v-444.804h-512.406Z"/></clipPath><clipPath id="f" clipPathUnits="userSpaceOnUse"><path d="M41.796 39.859h683.208V632.93H41.796Z"/></clipPath><clipPath id="e" clipPathUnits="userSpaceOnUse"><path d="M.062 0h766.409v690.267H.062Z"/></clipPath><clipPath id="j" clipPathUnits="userSpaceOnUse"><path d="M-110.853 3.706h450.306v-391.404h-450.306Z"/></clipPath><clipPath id="i" clipPathUnits="userSpaceOnUse"><path d="M83.13 75.592h600.407v521.872H83.13Z"/></clipPath><clipPath id="h" clipPathUnits="userSpaceOnUse"><path d="M.062 0h766.409v690.267H.062Z"/></clipPath><clipPath id="m" clipPathUnits="userSpaceOnUse"><path d="M-3.432 389.6h449.164v-517.7H-3.432Z"/></clipPath><clipPath id="l" clipPathUnits="userSpaceOnUse"><path d="M75.157 0h598.886v690.267H75.157Z"/></clipPath><clipPath id="k" clipPathUnits="userSpaceOnUse"><path d="M.062 0h766.409v690.267H.062Z"/></clipPath><clipPath id="p" clipPathUnits="userSpaceOnUse"><path d="M-3.532 347.5h400.264V-114H-3.532Z"/></clipPath><clipPath id="o" clipPathUnits="userSpaceOnUse"><path d="M107.557 37.333h533.686v615.334H107.557Z"/></clipPath><clipPath id="n" clipPathUnits="userSpaceOnUse"><path d="M.062 0h766.409v690.267H.062Z"/></clipPath><clipPath id="s" clipPathUnits="userSpaceOnUse"><path d="M-3.632 305.8h352.465v-406H-3.632Z"/></clipPath><clipPath id="r" clipPathUnits="userSpaceOnUse"><path d="M139.69 74.4h469.954v541.334H139.691Z"/></clipPath><clipPath id="q" clipPathUnits="userSpaceOnUse"><path d="M.062 0h766.409v690.267H.062Z"/></clipPath><clipPath id="v" clipPathUnits="userSpaceOnUse"><path d="M-350.671 401.082h465.796V-3.066H-350.67Z"/></clipPath><clipPath id="u" clipPathUnits="userSpaceOnUse"><path d="M64.077 75.583h621.062v538.864H64.077Z"/></clipPath><clipPath id="t" clipPathUnits="userSpaceOnUse"><path d="M.062 0h766.409v690.267H.062Z"/></clipPath><clipPath id="y" clipPathUnits="userSpaceOnUse"><path d="M-312.304 357.095h414.58V-3.066h-414.58Z"/></clipPath><clipPath id="x" clipPathUnits="userSpaceOnUse"><path d="M98.285 104.888h552.774v480.215H98.285Z"/></clipPath><clipPath id="w" clipPathUnits="userSpaceOnUse"><path d="M.062 0h766.409v690.267H.062Z"/></clipPath><clipPath id="B" clipPathUnits="userSpaceOnUse"><path d="M-274.928 313.83H89.988V-3.444h-364.916Z"/></clipPath><clipPath id="A" clipPathUnits="userSpaceOnUse"><path d="M131.424 133.61h486.553v423.034H131.424Z"/></clipPath><clipPath id="z" clipPathUnits="userSpaceOnUse"><path d="M.062 0h766.409v690.267H.062Z"/></clipPath><clipPath id="a" clipPathUnits="userSpaceOnUse"><path d="M0 0h766.667v690H0Z"/></clipPath></defs><g clip-path="url(#a)" opacity="0.9487" transform="translate(-.047)scale(.75025)"><g clip-path="url(#b)" opacity="0.949997"><g clip-path="url(#c)" opacity="0.850998"><path d="m0 0 7.4-51.6C8-56 5-60.2.5-60.8H.4l-10.7-1.4c-2-.3-3.4-2.1-3.1-4 .1-.9.6-1.7 1.3-2.3l28-23.3c2.2-1.8 2.5-5.1.7-7.3-.5-.6-1.1-1.1-1.8-1.4l-15.9-7.3c-2.8-1.3-4.1-4.7-2.8-7.5.3-.6.7-1.2 1.2-1.7l6.9-6.7c3.2-3.2 3.5-8.5.7-12.1-10.2-13-18.5-27.4-24.7-42.8-1.7-4.2-6.5-6.7-10.8-5.5l-9.3 2.6c-3 .8-6.2-.9-7-3.9-.2-.7-.2-1.4-.2-2l1.6-17.4c.3-2.9-1.8-5.4-4.7-5.7-.8-.1-1.5 0-2.3.3l-34.2 12.6c-1.9.7-3.9-.3-4.6-2.1-.3-.9-.3-1.8.1-2.6l4.2-10c1.7-4.1-.2-8.9-4.4-10.6h-.1l-48.5-19.7c-1.7-.7-2.5-2.6-1.8-4.3.3-.8 1-1.5 1.8-1.8l48.4-19.4a8.1 8.1 0 0 0 4.5-10.6v-.1l-4.2-10c-.8-1.8.1-3.9 1.9-4.7.8-.3 1.8-.4 2.6-.1l34.2 12.6c2.7 1 5.7-.4 6.7-3.1.3-.7.4-1.5.3-2.3l-1.6-17.4c-.3-3.1 2-5.9 5.1-6.2.7-.1 1.4 0 2 .2l9.3 2.6c4.4 1.2 9.1-1.3 10.8-5.5 6.2-15.3 14.5-29.7 24.7-42.8 2.8-3.6 2.6-9-.7-12.1l-6.9-6.7c-2.2-2.2-2.3-5.8-.1-8 .5-.5 1.1-.9 1.7-1.2l15.9-7.3c2.6-1.2 3.7-4.3 2.5-6.9-.3-.7-.8-1.3-1.4-1.8l-28-23.3c-1.5-1.3-1.7-3.5-.5-5.1.6-.7 1.4-1.1 2.3-1.3l10.7-1.4c4.4-.6 7.6-4.7 7-9.1v-.1l-7.4-51.6c-.3-1.8 1-3.5 2.8-3.7.9-.1 1.8.1 2.5.7l41 32.2c3.5 2.8 8.6 2.2 11.4-1.4 0 0 0-.1.1-.1l6.6-8.6c1.2-1.6 3.5-1.9 5-.7.7.6 1.2 1.4 1.4 2.2l6.2 35.9c.5 2.8 3.2 4.7 6 4.2q1.2-.15 2.1-.9l14.3-10.1c2.6-1.8 6.1-1.2 7.9 1.4.4.6.7 1.2.9 1.9l2.4 9.3c1.1 4.4 5.7 7.3 10.2 6.6 5.5-.8 11-1.3 16.5-1.6 4.5-.2 11.9-.2 16.5 0 5.5.3 11 .8 16.5 1.6 4.5.6 9-2.2 10.2-6.6l2.4-9.3c.8-3 3.9-4.9 6.9-4.1.7.2 1.3.5 1.9.9l14.3 10.1c2.3 1.7 5.6 1.1 7.2-1.3.4-.6.7-1.4.9-2.1l6.2-35.9c.3-2 2.2-3.3 4.2-2.9.9.2 1.7.6 2.2 1.4l6.6 8.6c2.7 3.6 7.8 4.2 11.4 1.5 0 0 .1 0 .1-.1l41-32.2c1.4-1.1 3.5-.9 4.6.6.6.7.8 1.6.7 2.5l-7.4 51.6c-.6 4.4 2.4 8.6 6.9 9.2h.1l10.7 1.4c2 .3 3.4 2.1 3.1 4-.1.9-.6 1.7-1.3 2.3l-28.1 23.4c-2.2 1.8-2.5 5.1-.7 7.3.5.6 1.1 1.1 1.8 1.4l15.9 7.3c2.8 1.3 4.1 4.7 2.8 7.5-.3.6-.7 1.2-1.2 1.7l-6.9 6.7c-3.2 3.2-3.5 8.5-.7 12.1 10.2 13 18.5 27.4 24.7 42.8 1.7 4.2 6.5 6.7 10.8 5.5l9.3-2.6c3-.8 6.2.9 7 3.9.2.7.2 1.4.2 2l-1.6 17.4c-.3 2.9 1.8 5.4 4.7 5.7.8.1 1.5 0 2.3-.3l34.2-12.6c1.9-.7 3.9.3 4.6 2.1.3.9.3 1.8-.1 2.6l-4.2 10c-1.7 4.1.2 8.9 4.4 10.6h.1l48.4 19.4c1.7.7 2.5 2.6 1.8 4.3-.3.8-1 1.5-1.8 1.8l-48.4 19.4a8.1 8.1 0 0 0-4.5 10.6v.1l4.2 10c.8 1.8-.1 3.9-1.9 4.7-.8.3-1.8.4-2.6.1l-34.2-12.6c-2.7-1-5.7.4-6.7 3.1-.3.7-.4 1.5-.3 2.3l1.6 17.4c.3 3.1-2 5.9-5.1 6.2-.7.1-1.4 0-2-.2l-9.2-2.6c-4.4-1.2-9.1 1.3-10.8 5.5-6.2 15.4-14.5 29.8-24.7 42.8-2.8 3.6-2.6 9 .7 12.1l6.8 6.7c2.2 2.2 2.3 5.8.1 8-.5.5-1.1.9-1.7 1.2l-15.9 7.3c-2.6 1.2-3.7 4.3-2.5 6.9.3.7.8 1.3 1.4 1.8l27.9 23.6c1.5 1.3 1.7 3.5.5 5.1-.6.7-1.4 1.1-2.3 1.3l-10.7 1.4c-4.4.6-7.6 4.7-7 9.1v.1L290.8.1c.3 1.8-1 3.5-2.8 3.7-.9.1-1.8-.1-2.5-.7l-41-32.2c-3.5-2.8-8.6-2.2-11.4 1.4 0 0 0 .1-.1.1l-6.6 8.6c-1.2 1.6-3.5 1.9-5 .7-.7-.6-1.2-1.4-1.4-2.2l-6.1-36.1c-.5-2.8-3.2-4.7-6-4.2q-1.2.15-2.1.9l-14.3 10.1c-2.6 1.8-6.1 1.2-7.9-1.4-.4-.6-.7-1.2-.9-1.9l-2.4-9.2c-1.1-4.4-5.7-7.3-10.2-6.6q-8.25 1.2-16.5 1.5c-4.5.2-11.9.2-16.5 0-5.5-.3-11-.8-16.5-1.6-4.5-.6-9 2.2-10.2 6.6l-2.4 9.3c-.8 3-3.9 4.9-6.9 4.1-.7-.2-1.3-.5-1.9-.9L84.9-60c-2.3-1.7-5.6-1.1-7.2 1.3-.4.6-.7 1.4-.9 2.1l-6.2 35.9c-.3 2-2.2 3.3-4.2 2.9-.9-.2-1.7-.6-2.2-1.4l-6.6-8.6c-2.7-3.6-7.8-4.2-11.4-1.5 0 0-.1 0-.1.1L5.1 3.1C3.7 4.2 1.6 4 .5 2.6.2 1.8-.1.9 0 0" clip-path="url(#d)" style="fill:#a7b4a6;fill-opacity:1;fill-rule:nonzero;stroke:none" transform="matrix(1.33333 0 0 -1.33333 189.467 8.667)"/></g></g><g clip-path="url(#e)" opacity="0.949997"><g clip-path="url(#f)" opacity="0.850006"><path d="m0 0 6.4-44.4C7-48.8 4-53-.5-53.6h-.1l-7.9-1c-2-.3-3.4-2.1-3.1-4 .1-.9.6-1.7 1.3-2.3l23.7-19.7c2.2-1.8 2.5-5.1.7-7.3-.5-.6-1.1-1.1-1.8-1.4L-.3-95.1c-2.8-1.3-4.1-4.7-2.8-7.5.3-.6.7-1.2 1.2-1.7l4.9-4.8c3.2-3.2 3.5-8.5.7-12.1-8.7-11.2-15.8-23.6-21.2-36.7-1.7-4.2-6.5-6.7-10.9-5.5l-6.6 1.8c-3 .8-6.2-.9-7-3.9-.2-.7-.2-1.4-.2-2l1.3-13.8c.3-2.9-1.8-5.4-4.7-5.7-.8-.1-1.5 0-2.3.3l-28.9 10.6c-1.9.7-3.9-.3-4.6-2.1-.3-.9-.3-1.8.1-2.6l3-7.3c1.7-4.1-.2-8.9-4.4-10.6h-.1l-41.6-16.6c-1.7-.7-2.5-2.6-1.8-4.3.3-.8 1-1.5 1.8-1.8l41.6-16.8a8.1 8.1 0 0 0 4.5-10.6v-.1l-3-7.3c-.8-1.8.1-3.9 1.9-4.7.8-.3 1.8-.4 2.6-.1l28.9 10.6c2.7 1 5.7-.4 6.7-3.1.3-.7.4-1.5.3-2.3l-1.3-13.8c-.3-3.1 2-5.9 5.1-6.2.7-.1 1.4 0 2 .2l6.6 1.8c4.4 1.2 9.1-1.3 10.9-5.5 5.4-13.1 12.5-25.5 21.2-36.7 2.8-3.6 2.6-9-.7-12.1l-4.9-4.8c-2.2-2.2-2.3-5.8-.1-8 .5-.5 1.1-.9 1.7-1.2l12.6-5.8c2.6-1.2 3.7-4.3 2.5-6.9-.3-.7-.8-1.3-1.4-1.8l-23.6-19.7c-1.5-1.3-1.7-3.5-.5-5.1.6-.7 1.4-1.1 2.3-1.3l7.9-1c4.4-.6 7.6-4.7 7-9.1v-.1L0-437.3c-.3-1.8 1-3.5 2.8-3.7.9-.1 1.8.1 2.5.7l35.2 27.7c3.5 2.8 8.6 2.2 11.4-1.4 0 0 0-.1.1-.1l4.8-6.3c1.2-1.6 3.5-1.9 5-.7.7.6 1.2 1.4 1.4 2.2l5.2 30.3c.5 2.8 3.2 4.7 6 4.2q1.2-.15 2.1-.9l11.3-8c2.6-1.8 6.1-1.2 7.9 1.4.4.6.7 1.2.9 1.9l1.7 6.6c1.1 4.4 5.7 7.3 10.2 6.6 4.3-.6 8.6-1 13-1.3 4.5-.3 11.9-.3 16.5 0 4.3.2 8.7.7 13 1.3 4.5.6 9-2.2 10.2-6.6l1.7-6.6c.8-3 3.9-4.9 6.9-4.1.7.2 1.3.5 1.9.9l11.3 8c2.3 1.7 5.6 1.1 7.2-1.3.4-.6.7-1.4.9-2.1l5.2-30.3c.3-2 2.2-3.3 4.2-2.9.9.2 1.7.6 2.2 1.4l4.8 6.3c2.7 3.6 7.8 4.2 11.4 1.5 0 0 .1 0 .1-.1l35.2-27.7c1.4-1.1 3.5-.9 4.6.6.6.7.8 1.6.7 2.5l-6.4 44.4c-.6 4.4 2.4 8.6 6.9 9.2h.1l7.9 1c2 .3 3.4 2.1 3.1 4-.1.9-.6 1.7-1.3 2.3l-23.7 19.7c-2.2 1.8-2.5 5.1-.7 7.3.5.6 1.1 1.1 1.8 1.4l12.6 5.8c2.8 1.3 4.1 4.7 2.8 7.5-.3.6-.7 1.2-1.2 1.7l-4.9 4.8c-3.2 3.2-3.5 8.5-.7 12.1 8.7 11.2 15.8 23.6 21.2 36.7 1.7 4.2 6.5 6.7 10.9 5.5l6.6-1.8c3-.8 6.2.9 7 3.9.2.7.2 1.4.2 2l-1.3 13.8c-.3 2.9 1.8 5.4 4.7 5.7.8.1 1.5 0 2.3-.3l28.9-10.6c1.9-.7 3.9.3 4.6 2.1.3.9.3 1.8-.1 2.6l-3 7.3c-1.7 4.1.2 8.9 4.4 10.6h.1l41.6 16.6c1.7.7 2.5 2.6 1.8 4.3-.3.8-1 1.5-1.8 1.8l-41.6 16.6a8.1 8.1 0 0 0-4.5 10.6v.1l3 7.3c.8 1.8-.1 3.9-1.9 4.7-.8.3-1.8.4-2.6.1l-28.9-10.6c-2.7-1-5.7.4-6.7 3.1-.3.7-.4 1.5-.3 2.3l1.3 13.8c.3 3.1-2 5.9-5.1 6.2-.7.1-1.4 0-2-.2l-6.5-1.8c-4.4-1.2-9.1 1.3-10.9 5.5-5.4 13.1-12.5 25.5-21.2 36.7-2.8 3.6-2.6 9 .7 12.1l4.8 4.7c2.2 2.2 2.3 5.8.1 8-.5.5-1.1.9-1.7 1.2l-12.6 5.8c-2.6 1.2-3.7 4.3-2.5 6.9.3.7.8 1.3 1.4 1.8l23.6 19.7c1.5 1.3 1.7 3.5.5 5.1-.6.7-1.4 1.1-2.3 1.3l-7.9 1c-4.4.6-7.6 4.7-7 9.1v.1l6.4 44.4c.3 1.8-1 3.5-2.8 3.7-.9.1-1.8-.1-2.5-.7L219-25c-3.5-2.8-8.6-2.2-11.4 1.4 0 0 0 .1-.1.1l-4.8 6.3c-1.2 1.6-3.5 1.9-5 .7-.7-.6-1.2-1.4-1.4-2.2L191.1-49c-.5-2.8-3.2-4.7-6-4.2q-1.2.15-2.1.9l-11.3 8c-2.6 1.8-6.1 1.2-7.9-1.4-.4-.6-.7-1.2-.9-1.9l-1.7-6.5c-1.1-4.4-5.7-7.3-10.2-6.7-4.3.6-8.6 1-13 1.2-4.5.2-11.9.2-16.5 0-4.3-.2-8.7-.7-13-1.3-4.5-.6-9 2.2-10.2 6.6l-1.7 6.6c-.8 3-3.9 4.9-6.9 4.1-.7-.2-1.3-.5-1.9-.9l-11.3-8c-2.3-1.7-5.6-1.1-7.2 1.3-.4.6-.7 1.4-.9 2.1l-5.2 30.6c-.3 2-2.2 3.3-4.2 2.9-.9-.2-1.7-.6-2.2-1.4L52-23.3c-2.7-3.6-7.8-4.2-11.4-1.5 0 0-.1 0-.1.1L5.3 3c-1.4 1.1-3.5.9-4.6-.5C.1 1.8-.1.9 0 0" clip-path="url(#g)" style="fill:#99a99a;fill-opacity:1;fill-rule:nonzero;stroke:none" transform="matrix(1.33333 0 0 -1.33333 210.4 44.8)"/></g></g><g clip-path="url(#h)" opacity="0.949997"><g clip-path="url(#i)" opacity="0.850006"><path d="m0 0 5.4-37.2c.6-4.4-2.4-8.6-6.9-9.2h-.1l-5-.7c-2-.3-3.4-2.1-3.1-4 .1-.9.6-1.7 1.3-2.3L11-69.5c2.2-1.8 2.5-5.1.7-7.3-.5-.6-1.1-1.1-1.8-1.4L.6-82.5c-2.8-1.3-4.1-4.7-2.8-7.5.3-.6.7-1.2 1.2-1.7l2.9-2.9c3.2-3.2 3.5-8.5.7-12.2-7.2-9.4-13.1-19.8-17.7-30.7-1.8-4.2-6.5-6.7-10.9-5.5l-3.9 1.1c-3 .8-6.2-.9-7-3.9-.2-.7-.2-1.4-.2-2l.9-10.3c.3-2.9-1.8-5.4-4.7-5.7-.8-.1-1.5 0-2.3.3l-23.6 8.7c-1.9.7-3.9-.3-4.6-2.1-.3-.9-.3-1.8.1-2.6l1.9-4.7c1.7-4.1-.2-8.9-4.4-10.6h-.1l-34.9-13.9c-1.7-.7-2.5-2.6-1.8-4.3.3-.8 1-1.5 1.8-1.8l34.9-13.9a8.1 8.1 0 0 0 4.5-10.6v-.1l-1.9-4.7c-.8-1.8.1-3.9 1.9-4.7.8-.3 1.8-.4 2.6-.1l23.6 8.7c2.7 1 5.7-.4 6.7-3.1.3-.7.4-1.5.3-2.3l-.9-10.3c-.3-3.1 2-5.9 5.1-6.2.7-.1 1.4 0 2 .2l3.9 1.1c4.4 1.2 9.1-1.3 10.9-5.5 4.6-10.9 10.5-21.3 17.7-30.7 2.8-3.6 2.5-9-.7-12.2l-2.9-2.9c-2.2-2.2-2.3-5.8-.1-8 .5-.5 1.1-.9 1.7-1.2l9.3-4.3c2.6-1.2 3.7-4.3 2.5-6.9-.3-.7-.8-1.3-1.4-1.8l-19.4-16.1c-1.5-1.3-1.7-3.5-.5-5.1.6-.7 1.4-1.1 2.3-1.3l5-.7c4.4-.6 7.6-4.7 7-9.1v-.1l-5.4-37.2c-.3-1.8 1-3.5 2.8-3.7.9-.1 1.8.1 2.5.7l29.5 23.2c3.5 2.8 8.6 2.2 11.4-1.4 0 0 0-.1.1-.1l3.1-4c1.2-1.6 3.5-1.9 5-.7.7.6 1.2 1.4 1.4 2.2l4.3 24.8c.5 2.8 3.2 4.7 6 4.2q1.2-.15 2.1-.9l8.4-5.9c2.6-1.8 6.1-1.2 7.9 1.4.4.6.7 1.2.9 1.9l1 4c1.1 4.4 5.7 7.3 10.2 6.7 3.2-.4 6.3-.7 9.5-.9 4.5-.3 11.9-.3 16.5 0 3.2.2 6.3.5 9.5.9 4.5.6 9-2.3 10.2-6.7l1-4c.8-3 3.9-4.9 6.9-4.1.7.2 1.3.5 1.9.9l8.4 5.9c2.3 1.7 5.6 1.1 7.2-1.3.4-.6.7-1.4.9-2.1l4.3-24.8c.3-2 2.2-3.3 4.2-2.9.9.2 1.7.6 2.2 1.4l3.1 4c2.7 3.6 7.8 4.2 11.4 1.5 0 0 .1 0 .1-.1l29.5-23.2c1.4-1.1 3.5-.9 4.6.6.6.7.8 1.6.7 2.5l-5.4 37.2c-.6 4.4 2.4 8.6 6.9 9.2h.1l5 .7c2 .3 3.4 2.1 3.1 4-.1.9-.6 1.7-1.3 2.3l-19.4 16.1c-2.2 1.8-2.5 5.1-.7 7.3.5.6 1.1 1.1 1.8 1.4l9.3 4.3c2.8 1.3 4.1 4.7 2.8 7.5-.3.6-.7 1.2-1.2 1.7l-2.9 2.9c-3.2 3.2-3.5 8.5-.7 12.2 7.2 9.4 13.1 19.8 17.7 30.7 1.8 4.2 6.5 6.7 10.9 5.5l3.9-1.1c3-.8 6.2.9 7 3.9.2.7.2 1.4.2 2l-.9 10.3c-.3 2.9 1.8 5.4 4.7 5.7.8.1 1.5 0 2.3-.3l23.6-8.7c1.9-.7 3.9.3 4.6 2.1.3.9.3 1.8-.1 2.6l-1.9 4.7c-1.7 4.1.2 8.9 4.4 10.6h.1l34.9 13.9c1.7.7 2.5 2.6 1.8 4.3-.3.8-1 1.5-1.8 1.8l-34.9 13.9a8.1 8.1 0 0 0-4.5 10.6v.1l1.9 4.7c.8 1.8-.1 3.9-1.9 4.7-.8.3-1.8.4-2.6.1l-23.6-8.7c-2.7-1-5.7.4-6.7 3.1-.3.7-.4 1.5-.3 2.3l.9 10.3c.3 3.1-2 5.9-5.1 6.2-.7.1-1.4 0-2-.2l-3.9-1.1c-4.4-1.2-9.1 1.3-10.9 5.5-4.6 11-10.6 21.3-17.7 30.7-2.8 3.6-2.5 9 .7 12.2l2.9 2.8c2.2 2.2 2.3 5.8.1 8-.5.5-1.1.9-1.7 1.2l-9.3 4.3c-2.6 1.2-3.7 4.3-2.5 6.9.3.7.8 1.3 1.4 1.8l19.4 16.1c1.5 1.3 1.7 3.5.5 5.1-.6.7-1.4 1.1-2.3 1.3l-5 .7c-4.4.6-7.6 4.7-7 9.1v.1l5.4 37.2c.3 1.8-1 3.5-2.8 3.7-.9.1-1.8-.1-2.5-.7l-29.5-23.2c-3.5-2.8-8.6-2.2-11.4 1.4 0 0 0 .1-.1.1l-3.1 4c-1.2 1.6-3.5 1.9-5 .7-.7-.6-1.2-1.4-1.4-2.2l-4.3-24.8c-.5-2.8-3.2-4.7-6-4.2q-1.2.15-2.1.9l-8.4 5.9c-2.6 1.8-6.1 1.2-7.9-1.4-.4-.6-.7-1.2-.9-1.9l-1-3.9c-1.1-4.4-5.7-7.3-10.2-6.7-3.2.4-6.3.7-9.5.9-4.5.3-11.9.3-16.5 0-3.2-.2-6.3-.5-9.5-.9-4.5-.6-9 2.3-10.2 6.7l-1 4c-.8 3-3.9 4.9-6.9 4.1-.7-.2-1.3-.5-1.9-.9l-8.4-5.9c-2.3-1.7-5.6-1.1-7.2 1.3-.4.6-.7 1.4-.9 2.1l-4.3 24.7c-.3 2-2.2 3.3-4.2 2.9-.9-.2-1.7-.6-2.2-1.4l-3.1-4c-2.7-3.6-7.8-4.2-11.4-1.5 0 0-.1 0-.1.1L5.3 3c-1.4 1.1-3.5.9-4.6-.5C.2 1.8-.1.9 0 0" clip-path="url(#j)" style="fill:#b8c4b9;fill-opacity:1;fill-rule:nonzero;stroke:none" transform="matrix(1.33333 0 0 -1.33333 230.933 80.533)"/></g></g><g clip-path="url(#k)" opacity="0.949997"><g clip-path="url(#l)" opacity="0.850998"><path d="m0 0 46.4 6.7c4 .6 7.7-2.2 8.3-6.2V.4L56-9.3c.2-1.8 1.9-3 3.6-2.8.8.1 1.5.5 2.1 1.1l21 25.2c1.7 2 4.6 2.3 6.6.6.5-.4 1-1 1.3-1.6l6.6-14.3c1.2-2.6 4.2-3.7 6.8-2.5.6.3 1.1.6 1.5 1.1l6.1 6.2c2.9 2.9 7.7 3.1 10.9.6 11.7-9.2 24.7-16.6 38.5-22.2 3.8-1.5 6-5.8 4.9-9.8l-2.3-8.4c-.8-2.7.8-5.5 3.5-6.3.6-.2 1.2-.2 1.8-.2l15.7 1.4c2.6.2 4.9-1.7 5.1-4.2.1-.7 0-1.4-.3-2l-11.3-30.7c-.6-1.7.2-3.5 1.9-4.2q1.2-.45 2.4 0l9 3.7c3.7 1.5 8-.2 9.6-3.9v-.1l17.4-43.6c.6-1.5 2.3-2.3 3.9-1.7.8.3 1.4.9 1.7 1.7l17.4 43.6c1.5 3.7 5.8 5.6 9.5 4.1h.1l9-3.7c1.7-.7 3.5.1 4.2 1.7q.45 1.2 0 2.4l-11.3 30.7c-.9 2.4.3 5.1 2.8 6 .7.2 1.4.3 2 .3l15.7-1.4c2.8-.3 5.3 1.8 5.6 4.6.1.6 0 1.2-.2 1.8l-2.3 8.4c-1.1 3.9 1.1 8.2 4.9 9.8 13.8 5.6 26.8 13.1 38.5 22.2 3.2 2.5 8.1 2.3 10.9-.6l6.1-6.2c2-2 5.2-2.1 7.2-.1.4.4.8.9 1.1 1.5l6.6 14.3c1.1 2.3 3.9 3.4 6.2 2.3.6-.3 1.2-.7 1.6-1.3l21-25.2c1.1-1.4 3.2-1.6 4.6-.4.6.5 1 1.3 1.1 2.1l1.3 9.7c.5 4 4.2 6.8 8.2 6.3h.1L442.3 0c1.6-.2 3.1.9 3.4 2.5.1.8-.1 1.6-.6 2.3l-29 36.9c-2.5 3.2-1.9 7.8 1.2 10.3 0 0 .1 0 .1.1l7.7 5.9c1.4 1.1 1.7 3.1.6 4.5-.5.6-1.2 1.1-2 1.2l-32.3 5.6c-2.5.4-4.3 2.9-3.8 5.4.1.7.4 1.3.8 1.9l9.1 12.9c1.6 2.3 1.1 5.5-1.2 7.1-.5.4-1.1.6-1.7.8l-8.4 2.2c-4 1-6.5 5.1-6 9.2.7 4.9 1.2 9.9 1.4 14.8.2 4.1.2 10.7 0 14.8-.2 5-.7 9.9-1.4 14.8-.6 4.1 2 8.1 6 9.2l8.4 2.2c2.7.7 4.4 3.5 3.7 6.2-.2.6-.4 1.2-.8 1.7l-9.1 12.9c-1.5 2.1-1 5 1.1 6.5.6.4 1.2.7 1.9.8l32.3 5.6c1.8.3 2.9 2 2.6 3.7-.1.8-.6 1.5-1.2 2l-7.7 5.9c-3.2 2.5-3.8 7-1.4 10.2 0 0 0 .1.1.1l29 36.9c1 1.3.8 3.1-.5 4.2-.6.5-1.5.7-2.3.6l-46.4-6.7c-4-.6-7.7 2.2-8.3 6.2v.1l-1.3 9.7c-.2 1.8-1.9 3-3.6 2.8-.8-.1-1.5-.5-2.1-1.1l-21-25.2c-1.7-2-4.6-2.3-6.6-.6-.5.4-1 1-1.3 1.6l-6.6 14.3c-1.2 2.6-4.2 3.7-6.8 2.5-.6-.3-1.1-.6-1.5-1.1l-6.1-6.2c-2.9-2.9-7.7-3.1-10.9-.6-11.7 9.2-24.7 16.6-38.5 22.2-3.8 1.5-6 5.8-4.9 9.8l2.3 8.4c.8 2.7-.8 5.5-3.5 6.3-.6.2-1.2.2-1.8.2l-15.7-1.4c-2.6-.2-4.9 1.7-5.1 4.2-.1.7 0 1.4.3 2l11.3 30.5c.6 1.7-.2 3.5-1.9 4.2q-1.2.45-2.4 0l-9-3.7c-3.7-1.5-8 .2-9.6 3.9v.1l-17.4 43.4c-.6 1.5-2.3 2.3-3.9 1.7-.8-.3-1.4-.9-1.7-1.7l-17.4-43.6c-1.5-3.7-5.8-5.6-9.5-4.1h-.1l-9 3.7c-1.7.7-3.5-.1-4.2-1.7q-.45-1.2 0-2.4l11.3-30.7c.9-2.4-.3-5.1-2.8-6-.7-.2-1.4-.3-2-.3l-15.7 1.4c-2.8.3-5.3-1.8-5.6-4.6-.1-.6 0-1.2.2-1.8l2.3-8.3c1.1-3.9-1.1-8.2-4.9-9.8-13.8-5.6-26.8-13.1-38.5-22.3-3.2-2.5-8.1-2.3-10.9.6l-6 6.1c-2 2-5.2 2.1-7.2.1-.4-.4-.8-.9-1.1-1.5l-6.6-14.3c-1.1-2.3-3.9-3.4-6.2-2.3-.6.3-1.2.7-1.6 1.3l-21 25.2c-1.1 1.4-3.2 1.6-4.6.4-.6-.5-1-1.3-1.1-2.1l-1.3-9.7c-.5-4-4.2-6.8-8.2-6.3h-.1L.1 261.4c-1.6.2-3.1-.9-3.4-2.5-.1-.8.1-1.6.6-2.3l29-36.9c2.5-3.2 1.9-7.8-1.2-10.3 0 0-.1 0-.1-.1l-7.7-5.9c-1.4-1.1-1.7-3.1-.6-4.5.5-.6 1.2-1.1 2-1.2l32.3-5.6c2.5-.4 4.3-2.9 3.8-5.4-.1-.7-.4-1.3-.8-1.9l-9.1-12.9c-1.6-2.3-1.1-5.5 1.2-7.1.5-.4 1.1-.6 1.7-.8l8.3-2.1c4-1 6.5-5.1 6-9.2-.7-4.9-1.2-9.9-1.4-14.8-.2-4.1-.2-10.7 0-14.8.2-5 .7-9.9 1.4-14.8.6-4.1-2-8.1-6-9.2l-8.4-2.2c-2.7-.7-4.4-3.5-3.7-6.2.2-.6.4-1.2.8-1.7l9.1-12.9c1.5-2.1 1-5-1.1-6.5-.6-.4-1.2-.7-1.9-.8l-32.3-5.6c-1.8-.3-2.9-2-2.6-3.7.1-.8.6-1.5 1.2-2l7.7-5.9c3.2-2.5 3.8-7 1.4-10.2 0 0 0-.1-.1-.1l-29-36.9c-1-1.3-.8-3.1.5-4.2C-1.6.1-.8-.1 0 0" clip-path="url(#m)" style="fill:#9aaf9a;fill-opacity:1;fill-rule:nonzero;stroke:none" transform="matrix(1.33333 0 0 -1.33333 79.733 519.467)"/></g></g><g clip-path="url(#n)" opacity="0.949997"><g clip-path="url(#o)" opacity="0.850006"><path d="m0 0 39.9 5.8c4 .6 7.7-2.2 8.3-6.2v-.1l.9-7.1c.2-1.8 1.9-3 3.6-2.8.8.1 1.5.5 2.1 1.1L72.5 12c1.7 2 4.6 2.3 6.6.6.5-.4 1-1 1.3-1.6L85.6-.3c1.2-2.6 4.2-3.7 6.8-2.5.6.3 1.1.6 1.5 1.1l4.3 4.4c2.9 2.9 7.7 3.1 10.9.6 10.1-7.8 21.2-14.2 33-19.1 3.8-1.6 6-5.8 4.9-9.8l-1.7-5.9c-.8-2.7.8-5.5 3.5-6.3.6-.2 1.2-.2 1.8-.2l12.4 1.1c2.6.2 4.9-1.7 5.1-4.2.1-.7 0-1.4-.3-2l-9.6-26c-.6-1.7.2-3.5 1.9-4.2q1.2-.45 2.4 0l6.6 2.7c3.7 1.5 8-.2 9.6-3.9v-.1l15-37.5c.6-1.5 2.3-2.3 3.9-1.7.8.3 1.4.9 1.7 1.7l15 37.5c1.5 3.7 5.8 5.6 9.5 4.1h.1l6.6-2.7c1.7-.7 3.5.1 4.2 1.7q.45 1.2 0 2.4l-9.6 26c-.9 2.4.3 5.1 2.8 6 .7.2 1.4.3 2 .3l12.4-1.1c2.8-.3 5.3 1.8 5.6 4.6.1.6 0 1.2-.2 1.8l-1.7 5.9c-1.1 3.9 1.1 8.2 4.9 9.8 11.8 4.9 22.9 11.3 33 19.1 3.2 2.5 8.1 2.3 10.9-.6l4.3-4.4c2-2 5.2-2.1 7.2-.1.4.4.8.9 1.1 1.5l5.2 11.3c1.1 2.3 3.9 3.4 6.2 2.3.6-.3 1.2-.7 1.6-1.3l17.7-21.3c1.1-1.4 3.2-1.6 4.6-.4.6.5 1 1.3 1.1 2.1l.9 7.1c.5 4 4.2 6.8 8.2 6.3h.1L392.9 0c1.6-.2 3.1.9 3.4 2.5.1.8-.1 1.6-.6 2.3l-24.5 31.7c-2.5 3.2-1.9 7.8 1.2 10.3 0 0 .1 0 .1.1l5.7 4.3c1.4 1.1 1.7 3.1.6 4.5-.5.6-1.2 1.1-2 1.2l-27.3 4.7c-2.5.4-4.3 2.9-3.8 5.4.1.7.4 1.3.8 1.9l7.2 10.2c1.6 2.3 1.1 5.5-1.2 7.1-.5.4-1.1.6-1.7.8l-6 1.5c-4 1-6.5 5.1-6 9.2.5 3.9.9 7.8 1.1 11.7.2 4.1.2 10.7 0 14.8-.2 3.9-.6 7.8-1.1 11.7-.6 4.1 2 8.1 6 9.2l6 1.5c2.7.7 4.4 3.5 3.7 6.2-.2.6-.4 1.2-.8 1.7l-7.2 10.2c-1.5 2.1-1 5 1.1 6.5.6.4 1.2.7 1.9.8l27.3 4.7c1.8.3 2.9 2 2.6 3.7-.1.8-.6 1.5-1.2 2l-5.7 4.3c-3.2 2.5-3.8 7-1.4 10.2 0 0 0 .1.1.1l24.9 31.7c1 1.3.8 3.1-.5 4.2-.6.5-1.5.7-2.3.6l-39.9-5.8c-4-.6-7.7 2.2-8.3 6.2v.1l-.9 7.1c-.2 1.8-1.9 3-3.6 2.8-.8-.1-1.5-.5-2.1-1.1l-17.6-21.3c-1.7-2-4.6-2.3-6.6-.6-.5.4-1 1-1.3 1.6l-5.2 11.3c-1.2 2.6-4.2 3.7-6.8 2.5-.6-.3-1.1-.6-1.5-1.1l-4.3-4.4c-2.9-2.9-7.7-3.1-10.9-.6-10.1 7.8-21.2 14.2-33 19.1-3.8 1.6-6 5.8-4.9 9.8l1.7 5.9c.8 2.7-.8 5.5-3.5 6.3-.6.2-1.2.2-1.8.2l-12.4-1.1c-2.6-.2-4.9 1.7-5.1 4.2-.1.7 0 1.4.3 2l9.6 26c.6 1.7-.2 3.5-1.9 4.2q-1.2.45-2.4 0l-6.6-2.7c-3.7-1.5-8 .2-9.6 3.9v.1l-15 37.5c-.6 1.5-2.3 2.3-3.9 1.7-.8-.3-1.4-.9-1.7-1.7l-15-37.5c-1.5-3.7-5.8-5.6-9.5-4.1h-.1l-6.6 2.7c-1.7.7-3.5-.1-4.2-1.7q-.45-1.2 0-2.4l9.6-26c.9-2.4-.3-5.1-2.8-6-.7-.2-1.4-.3-2-.3l-12.4 1.1c-2.8.3-5.3-1.8-5.6-4.6-.1-.6 0-1.2.2-1.8l1.6-5.9c1.1-3.9-1.1-8.2-4.9-9.8-11.8-4.9-22.9-11.3-33.1-19.1-3.2-2.5-8.1-2.3-10.9.6l-4.3 4.3c-2 2-5.2 2.1-7.2.1-.4-.4-.8-.9-1.1-1.5l-5.2-11.3c-1.1-2.3-3.9-3.4-6.2-2.3-.6.3-1.2.7-1.6 1.3l-18 21.4c-1.1 1.4-3.2 1.6-4.6.4-.6-.5-1-1.3-1.1-2.1l-.9-7.1c-.5-4-4.2-6.8-8.2-6.3h-.1L0 233.5c-1.6.2-3.1-.9-3.4-2.5-.1-.8.1-1.6.6-2.3L22.1 197c2.5-3.2 1.9-7.8-1.2-10.3 0 0-.1 0-.1-.1l-5.7-4.3c-1.4-1.1-1.7-3.1-.6-4.5.5-.6 1.2-1.1 2-1.2l27.3-4.7c2.5-.4 4.3-2.9 3.8-5.4-.1-.7-.4-1.3-.8-1.9l-7.2-10.2c-1.6-2.3-1.1-5.5 1.2-7.1.5-.4 1.1-.6 1.7-.8l5.9-1.5c4-1 6.5-5.1 6-9.2-.5-3.9-.9-7.8-1.1-11.7-.2-4.1-.2-10.7 0-14.8.2-3.9.6-7.8 1.1-11.7.6-4.1-2-8.1-6-9.2l-6-1.5c-2.7-.7-4.4-3.5-3.7-6.2.2-.6.4-1.2.8-1.7l7.2-10.2c1.5-2.1 1-5-1.1-6.5-.6-.4-1.2-.7-1.9-.8l-27.3-4.7c-1.8-.3-2.9-2-2.6-3.7.1-.8.6-1.5 1.2-2l5.7-4.3c3.2-2.5 3.8-7 1.4-10.2 0 0 0-.1-.1-.1L-2.9 4.8c-1-1.3-.8-3.1.5-4.2Q-1.2-.15 0 0" clip-path="url(#p)" style="fill:#859f86;fill-opacity:1;fill-rule:nonzero;stroke:none" transform="matrix(1.33333 0 0 -1.33333 112.267 500.667)"/></g></g><g clip-path="url(#q)" opacity="0.949997"><g clip-path="url(#r)" opacity="0.850006"><path d="m0 0 33.5 4.8c4 .6 7.7-2.2 8.3-6.2v-.1l.6-4.5c.2-1.8 1.9-3 3.6-2.8.8.1 1.5.5 2.1 1.1L62.6 9.7c1.7 2 4.6 2.3 6.6.6.5-.4 1-1 1.3-1.6L74.4.3c1.2-2.6 4.2-3.7 6.8-2.5.6.3 1.1.6 1.5 1.1l2.6 2.6c2.9 2.9 7.7 3.1 11 .6 8.5-6.5 17.8-11.8 27.6-15.9 3.8-1.6 6-5.9 4.9-9.8l-1-3.6c-.8-2.7.8-5.5 3.5-6.3.6-.2 1.2-.2 1.8-.2l9.2.8c2.6.2 4.9-1.7 5.1-4.2.1-.7 0-1.4-.3-2l-7.8-21.3c-.6-1.7.2-3.5 1.9-4.2q1.2-.45 2.4 0l4.2 1.7c3.7 1.5 8-.2 9.6-3.9v-.1l12.5-31.4c.6-1.5 2.3-2.3 3.9-1.7.8.3 1.4.9 1.7 1.7l12.6 31.4c1.5 3.7 5.8 5.6 9.5 4.1h.1l4.2-1.7c1.7-.7 3.5.1 4.2 1.7q.45 1.2 0 2.4l-7.8 21.3c-.9 2.4.3 5.1 2.8 6 .7.2 1.4.3 2 .3l9.2-.8c2.8-.3 5.3 1.8 5.6 4.6.1.6 0 1.2-.2 1.8l-1 3.6c-1.1 3.9 1.1 8.2 4.9 9.8 9.8 4.1 19.1 9.5 27.6 15.9 3.3 2.5 8.1 2.3 11-.6l2.6-2.6c2-2 5.2-2.1 7.2-.1.4.4.8.9 1.1 1.5l3.9 8.4c1.1 2.3 3.9 3.4 6.2 2.3.6-.3 1.2-.7 1.6-1.3l14.5-17.4c1.1-1.4 3.2-1.6 4.6-.4.6.5 1 1.3 1.1 2.1l.6 4.5c.5 4 4.2 6.8 8.2 6.3h.1L345.4 0c1.6-.2 3.1.9 3.4 2.5.1.8-.1 1.6-.6 2.3l-20.9 26.6c-2.5 3.2-1.9 7.8 1.2 10.3 0 0 .1 0 .1.1l3.6 2.8c1.4 1.1 1.7 3.1.6 4.5-.5.6-1.2 1.1-2 1.2l-22.3 3.8c-2.5.4-4.3 2.9-3.8 5.4.1.7.4 1.3.8 1.9l5.3 7.6c1.6 2.3 1.1 5.5-1.2 7.1-.5.4-1.1.6-1.7.8l-3.6.9c-4 1-6.5 5.1-6 9.2.4 2.8.6 5.7.8 8.5.3 4.1.3 10.7 0 14.8-.2 2.9-.5 5.7-.8 8.5-.5 4.1 2 8.1 6 9.2l3.6.9c2.7.7 4.4 3.5 3.7 6.2-.2.6-.4 1.2-.8 1.7l-5.3 7.6c-1.5 2.1-1 5 1.1 6.5.6.4 1.2.7 1.9.8l22.3 3.8c1.8.3 2.9 2 2.6 3.7-.1.8-.6 1.5-1.2 2l-3.6 2.8c-3.2 2.5-3.8 7-1.4 10.2 0 0 0 .1.1.1l20.9 26.6c1 1.3.8 3.1-.5 4.2-.6.5-1.5.7-2.3.6l-33.5-4.8c-4-.6-7.7 2.2-8.3 6.2v.1l-.6 4.5c-.2 1.8-1.9 3-3.6 2.8-.8-.1-1.5-.5-2.1-1.1l-14.7-17.5c-1.7-2-4.6-2.3-6.6-.6-.5.4-1 1-1.3 1.6l-3.9 8.4c-1.2 2.6-4.2 3.7-6.8 2.5-.6-.3-1.1-.6-1.5-1.1l-2.6-2.6c-2.9-2.9-7.7-3.1-11-.6-8.5 6.5-17.8 11.8-27.6 15.9-3.8 1.6-6 5.9-4.9 9.8l1 3.6c.8 2.7-.8 5.5-3.5 6.3-.6.2-1.2.2-1.8.2l-9.2-.8c-2.6-.2-4.9 1.7-5.1 4.2-.1.7 0 1.4.3 2l7.8 21.3c.6 1.7-.2 3.5-1.9 4.2q-1.2.45-2.4 0l-4.2-1.7c-3.7-1.5-8 .2-9.6 3.9v.1l-12.5 31.4c-.6 1.5-2.3 2.3-3.9 1.7-.8-.3-1.4-.9-1.7-1.7l-12.6-31.4c-1.5-3.7-5.8-5.6-9.5-4.1h-.1l-4.2 1.7c-1.7.7-3.5-.1-4.2-1.7q-.45-1.2 0-2.4l7.8-21.3c.9-2.4-.3-5.1-2.8-6-.7-.2-1.4-.3-2-.3l-9.2.8c-2.8.3-5.3-1.8-5.6-4.6-.1-.6 0-1.2.2-1.8l1-3.5c1.1-3.9-1.1-8.2-4.9-9.8-9.9-4.1-19.1-9.5-27.7-16-3.3-2.5-8.1-2.3-10.9.6l-2.5 2.6c-2 2-5.2 2.1-7.2.1-.4-.4-.8-.9-1.1-1.5l-3.9-8.4c-1.1-2.3-3.9-3.4-6.2-2.3-.6.3-1.2.7-1.6 1.3L48 213.3c-1.1 1.4-3.2 1.6-4.6.4-.6-.5-1-1.3-1.1-2.1l-.6-4.5c-.5-4-4.2-6.8-8.2-6.3h-.1l-33.5 4.8c-1.6.2-3.1-.9-3.4-2.5-.1-.8.1-1.6.6-2.3L18 174.2c2.5-3.2 1.9-7.8-1.2-10.3 0 0-.1 0-.1-.1l-3.6-2.8c-1.4-1.1-1.7-3.1-.6-4.5.5-.6 1.2-1.1 2-1.2l22.3-3.8c2.5-.4 4.3-2.9 3.8-5.4-.1-.7-.4-1.3-.8-1.9l-5.3-7.6c-1.6-2.3-1.1-5.5 1.2-7.1.5-.4 1.1-.6 1.7-.8l3.5-.9c4-1 6.5-5.1 6-9.2-.4-2.8-.6-5.7-.8-8.6-.2-4.1-.2-10.7 0-14.8.2-2.9.5-5.7.8-8.5.5-4.1-2-8.1-6-9.2l-3.6-.9c-2.7-.7-4.4-3.5-3.7-6.2.2-.6.4-1.2.8-1.7l5.3-7.6c1.5-2.1 1-5-1.1-6.5-.6-.4-1.2-.7-1.9-.8L14.4 50c-1.8-.3-2.9-2-2.6-3.7.1-.8.6-1.5 1.2-2l3.6-2.8c3.2-2.5 3.8-7 1.4-10.2 0 0 0-.1-.1-.1L-3 4.6c-1-1.3-.8-3.1.5-4.2C-1.7.1-.8-.1 0 0" clip-path="url(#s)" style="fill:#87a088;fill-opacity:1;fill-rule:nonzero;stroke:none" transform="matrix(1.33333 0 0 -1.33333 144.533 482.133)"/></g></g><g clip-path="url(#t)" opacity="0.949997"><g clip-path="url(#u)" opacity="0.850998"><path d="m0 0-6.071 41.835a6.69 6.69 0 0 0 5.597 7.494h.095l8.727 1.138c1.613.19 2.751 1.708 2.466 3.225a2.94 2.94 0 0 1-1.043 1.898l-22.672 18.877c-1.803 1.518-1.992 4.174-.57 5.977.38.474.949.854 1.518 1.138L.949 87.558c2.276 1.044 3.32 3.795 2.276 6.072-.189.474-.569.948-.948 1.328l-5.597 5.502c-2.656 2.561-2.846 6.925-.569 9.866a143.2 143.2 0 0 1 20.016 34.624c1.423 3.416 5.217 5.408 8.822 4.459l7.494-2.087c2.466-.664 5.028.759 5.692 3.225.19.57.19 1.139.19 1.613l-1.329 14.135c-.189 2.276 1.518 4.363 3.795 4.553.664.095 1.233 0 1.802-.285l27.7-10.245c1.518-.569 3.226.19 3.7 1.708a2.65 2.65 0 0 1 0 2.087l-3.415 8.063c-1.423 3.32.19 7.21 3.51 8.633h.095l39.178 15.652c1.423.474 2.087 1.992 1.613 3.415-.285.759-.854 1.328-1.613 1.518l-39.178 15.652c-3.415 1.328-5.028 5.218-3.7 8.538v.095l3.415 8.063a2.83 2.83 0 0 1-1.613 3.795 2.66 2.66 0 0 1-2.087 0l-27.699-10.246c-2.182-.758-4.649.285-5.408 2.467a6 6 0 0 0-.284 1.802l1.328 14.135c.19 2.561-1.613 4.743-4.174 5.028-.569.094-1.138 0-1.613-.19l-7.494-2.087c-3.51-.949-7.399 1.043-8.822 4.458a143.2 143.2 0 0 1-20.016 34.625c-2.277 2.941-2.087 7.21.569 9.866l5.597 5.502c1.802 1.803 1.802 4.648.095 6.546-.38.379-.854.759-1.328.948l-12.902 5.977c-2.087.948-3.035 3.51-2.087 5.597.285.569.664 1.043 1.139 1.517L9.771 342.36c1.233 1.044 1.423 2.846.379 4.079a2.93 2.93 0 0 1-1.897 1.044l-8.727 1.138c-3.605.474-6.166 3.795-5.692 7.399v.095l6.071 41.835c.19 1.423-.759 2.846-2.277 3.035q-1.138.143-1.992-.569l-33.202-26.087c-2.846-2.277-7.02-1.708-9.201 1.138l-.095.095-5.313 6.925c-.948 1.233-2.845 1.518-4.079.569-.569-.474-.948-1.138-1.138-1.802l-5.028-29.028c-.379-2.277-2.561-3.795-4.838-3.415-.664.095-1.233.379-1.707.664l-11.574 8.158a4.69 4.69 0 0 1-6.45-1.138c-.285-.475-.569-.949-.664-1.518l-1.898-7.589c-.948-3.605-4.553-5.882-8.253-5.407-4.458.664-8.917 1.043-13.375 1.328-3.7.189-9.676.189-13.376 0-4.458-.19-8.917-.664-13.376-1.328-3.604-.57-7.304 1.802-8.253 5.407l-1.897 7.589c-.664 2.466-3.13 3.984-5.597 3.32-.569-.095-1.043-.379-1.518-.664l-11.573-8.158c-1.897-1.328-4.553-.854-5.881 1.043-.38.475-.57 1.139-.664 1.708l-5.028 29.028c-.285 1.613-1.803 2.656-3.32 2.371-.759-.094-1.329-.474-1.803-1.138l-5.312-6.925c-2.182-2.846-6.356-3.415-9.202-1.233l-.095.095-33.202 26.087c-1.138.949-2.846.664-3.699-.474a2.6 2.6 0 0 1-.57-1.992l6.072-41.835a6.69 6.69 0 0 0-5.597-7.494h-.095l-8.728-1.138c-1.612-.19-2.751-1.708-2.466-3.226a2.93 2.93 0 0 1 1.044-1.897l22.672-18.878c1.802-1.518 1.992-4.174.569-5.976-.38-.474-.949-.854-1.518-1.138l-12.901-5.977c-2.277-1.043-3.32-3.794-2.277-6.071.19-.474.569-.949.949-1.328l5.597-5.502c2.656-2.561 2.845-6.925.569-9.866a143.2 143.2 0 0 1-20.016-34.625c-1.423-3.415-5.218-5.407-8.823-4.458l-7.494 2.087c-2.466.664-5.027-.759-5.692-3.226-.189-.569-.189-1.138-.189-1.612l1.328-14.135c.19-2.277-1.518-4.364-3.795-4.553a2.92 2.92 0 0 0-1.802.284l-27.7 10.245c-1.518.57-3.225-.189-3.7-1.707a2.66 2.66 0 0 1 0-2.087l3.415-8.063c1.423-3.321-.189-7.21-3.51-8.633h-.094l-39.274-15.747c-1.328-.569-1.992-2.087-1.517-3.51a2.96 2.96 0 0 1 1.517-1.518l39.179-15.652c3.415-1.328 5.027-5.218 3.699-8.538v-.095l-3.415-8.063a2.83 2.83 0 0 1 1.613-3.795 2.66 2.66 0 0 1 2.087 0l27.7 10.245c2.182.759 4.648-.284 5.407-2.466.19-.569.285-1.233.285-1.802l-1.328-14.135c-.19-2.561 1.612-4.743 4.174-5.028.569-.095 1.138 0 1.612.19l7.4 2.087c3.51.949 7.399-1.043 8.822-4.459a145.6 145.6 0 0 1 20.016-34.719c2.277-2.941 2.087-7.21-.569-9.866l-5.502-5.407c-1.803-1.803-1.803-4.649-.095-6.546.379-.379.854-.759 1.328-.948l12.901-5.977c2.087-.948 3.036-3.51 2.087-5.597-.284-.569-.664-1.043-1.138-1.518l-22.577-18.782c-1.234-1.044-1.423-2.846-.38-4.079a2.93 2.93 0 0 1 1.897-1.044l8.728-1.138c3.605-.475 6.166-3.795 5.691-7.4v-.094L-235.45 0c-.189-1.423.759-2.846 2.277-3.036q1.138-.142 1.992.57l33.202 26.087c2.846 2.277 7.02 1.707 9.202-1.138l.095-.095 5.312-6.925c.949-1.234 2.846-1.518 4.079-.569.569.474.949 1.138 1.138 1.802l5.028 29.028c.38 2.277 2.562 3.794 4.838 3.415.664-.095 1.233-.379 1.708-.664l11.573-8.158a4.69 4.69 0 0 1 6.451 1.138c.284.474.569.949.664 1.518l1.897 7.494c.949 3.605 4.553 5.882 8.253 5.407 4.459-.664 8.917-1.043 13.376-1.233 3.699-.19 9.676-.19 13.375 0 4.459.19 8.918.664 13.376 1.328 3.605.569 7.305-1.802 8.253-5.312l1.897-7.589c.665-2.467 3.131-3.984 5.597-3.32.57.094 1.044.379 1.518.664l11.573 8.158c1.898 1.328 4.554.854 5.882-1.044.379-.474.569-1.138.664-1.707l5.028-29.028c.284-1.613 1.802-2.656 3.32-2.372.759.095 1.328.475 1.802 1.139l5.313 6.925c2.181 2.846 6.355 3.415 9.201 1.233l.095-.095L-4.269-2.466c1.139-.949 2.846-.759 3.7.474C-.095-1.423.095-.664 0 0" clip-path="url(#v)" style="fill:#84a084;fill-opacity:1;fill-rule:nonzero;stroke:none" transform="matrix(1.33333 0 0 -1.33333 531.638 610.36)"/></g></g><g clip-path="url(#w)" opacity="0.949997"><g clip-path="url(#x)" opacity="0.850006"><path d="m0 0-5.217 35.953a6.69 6.69 0 0 0 5.596 7.494h.095l6.356.854c1.613.19 2.751 1.707 2.467 3.225a2.94 2.94 0 0 1-1.044 1.898l-19.162 15.937c-1.803 1.517-1.992 4.174-.569 5.976.379.474.948.854 1.517 1.138L.285 77.218c2.276 1.044 3.32 3.795 2.276 6.072-.189.474-.569.948-.948 1.328l-3.985 3.889c-2.656 2.561-2.845 6.925-.569 9.866 7.02 9.107 12.807 19.067 17.17 29.692 1.423 3.415 5.218 5.407 8.823 4.458l5.312-1.517c2.466-.664 5.028.759 5.692 3.225.189.569.189 1.138.189 1.613l-1.043 11.193c-.19 2.277 1.518 4.364 3.795 4.554.664.095 1.233 0 1.802-.285l23.336-8.632c1.518-.569 3.226.19 3.7 1.707a2.66 2.66 0 0 1 0 2.087l-2.467 5.882c-1.422 3.32.19 7.209 3.51 8.632h.095l33.677 13.471c1.328.569 1.992 2.182 1.423 3.51a2.62 2.62 0 0 1-1.423 1.423l-33.582 13.565c-3.415 1.328-5.028 5.218-3.7 8.538v.095l2.467 5.881a2.83 2.83 0 0 1-1.613 3.795 2.66 2.66 0 0 1-2.087 0l-23.336-8.633c-2.182-.759-4.648.285-5.407 2.467a6 6 0 0 0-.285 1.802l1.044 11.194c.189 2.561-1.613 4.743-4.174 5.028a3.05 3.05 0 0 1-1.613-.19l-5.312-1.518c-3.51-.949-7.4 1.043-8.823 4.459-4.363 10.624-10.15 20.585-17.17 29.692-2.276 2.94-2.087 7.304.569 9.865l3.985 3.89c1.802 1.802 1.802 4.648.094 6.545-.379.38-.853.759-1.328.949l-10.245 4.743c-2.087.949-3.035 3.51-2.087 5.597.285.569.664 1.043 1.139 1.518l19.162 15.937c1.233 1.043 1.423 2.846.379 4.079a2.93 2.93 0 0 1-1.897 1.043l-6.356.854c-3.604.474-6.166 3.795-5.691 7.399v.095L0 354.028c.19 1.423-.759 2.846-2.277 3.036q-1.139.142-1.992-.569l-28.554-22.483c-2.845-2.276-7.019-1.707-9.201 1.139l-.095.095-3.889 5.122c-.949 1.233-2.846 1.518-4.08.569-.569-.474-.948-1.138-1.138-1.802l-4.269-24.57c-.379-2.276-2.561-3.794-4.838-3.415-.664.095-1.233.38-1.707.664l-9.202 6.451a4.69 4.69 0 0 1-6.451-1.138c-.284-.475-.569-.949-.664-1.518l-1.423-5.407c-.948-3.605-4.553-5.882-8.253-5.407-3.51.474-7.02.853-10.529 1.043-3.7.19-9.676.19-13.376 0-3.51-.19-7.02-.569-10.53-1.043-3.605-.475-7.304 1.802-8.253 5.407l-1.423 5.407c-.664 2.466-3.13 3.984-5.597 3.32-.569-.095-1.043-.379-1.518-.664l-9.201-6.451c-1.898-1.328-4.554-.853-5.882 1.044-.379.474-.569 1.138-.664 1.707l-3.889 24.475c-.285 1.613-1.803 2.656-3.321 2.372-.758-.095-1.328-.475-1.802-1.139l-3.889-5.122c-2.182-2.846-6.356-3.415-9.202-1.234l-.095.095-28.554 22.483c-1.138.948-2.846.759-3.699-.475a2.6 2.6 0 0 1-.569-1.992l5.217-35.953a6.69 6.69 0 0 0-5.597-7.494h-.095l-6.356-.854c-1.612-.189-2.751-1.707-2.466-3.225a2.93 2.93 0 0 1 1.043-1.897l19.163-15.937c1.802-1.518 1.992-4.174.569-5.977-.379-.474-.949-.853-1.518-1.138l-10.245-4.743c-2.277-1.044-3.32-3.795-2.277-6.071.19-.475.569-.949.949-1.328l3.984-3.89c2.656-2.561 2.846-6.925.569-9.865-7.02-9.107-12.806-19.068-17.17-29.693-1.423-3.415-5.217-5.407-8.822-4.458l-5.312 1.518c-2.467.664-5.028-.759-5.692-3.226-.19-.569-.19-1.138-.19-1.612l1.044-11.194c.189-2.277-1.518-4.364-3.795-4.554a2.92 2.92 0 0 0-1.802.285l-23.337 8.633c-1.517.569-3.225-.19-3.699-1.708a2.65 2.65 0 0 1 0-2.087l2.466-5.881c1.423-3.321-.19-7.21-3.51-8.633H-277l-33.676-13.471c-1.328-.569-1.992-2.181-1.423-3.509a2.6 2.6 0 0 1 1.423-1.423L-277 161.172c3.415-1.328 5.028-5.217 3.7-8.538v-.094l-2.466-5.882a2.83 2.83 0 0 1 1.612-3.795 2.66 2.66 0 0 1 2.087 0l23.337 8.633c2.181.759 4.648-.285 5.407-2.466.189-.57.284-1.234.284-1.803l-1.043-11.194c-.19-2.561 1.612-4.743 4.174-5.027.569-.095 1.138 0 1.612.189l5.313 1.423c3.51.949 7.399-1.043 8.822-4.458a129.4 129.4 0 0 1 17.17-29.787c2.277-2.941 2.087-7.305-.569-9.866l-3.889-3.794c-1.803-1.803-1.803-4.649-.095-6.546.379-.379.854-.759 1.328-.949l10.245-4.743c2.087-.948 3.036-3.51 2.087-5.597-.285-.569-.664-1.043-1.138-1.517l-19.163-15.937c-1.233-1.044-1.423-2.846-.379-4.079a2.93 2.93 0 0 1 1.897-1.044l6.356-.854c3.605-.474 6.166-3.794 5.692-7.399v-.095L-209.837 0c-.189-1.423.759-2.846 2.277-3.036q1.138-.142 1.992.57l28.554 22.482c2.846 2.277 7.02 1.708 9.202-1.138l.094-.095 3.89-5.123c.948-1.233 2.846-1.517 4.079-.569.569.474.949 1.138 1.138 1.803l4.269 24.569c.38 2.277 2.561 3.795 4.838 3.415.664-.095 1.233-.379 1.708-.664l9.201-6.451a4.69 4.69 0 0 1 6.451 1.139c.285.474.569.948.664 1.518l1.328 5.312c.949 3.605 4.554 5.881 8.253 5.407 3.51-.474 7.02-.759 10.53-.949 3.7-.189 9.676-.189 13.376 0 3.51.19 7.02.57 10.529 1.044 3.605.474 7.305-1.802 8.254-5.407l1.422-5.407c.665-2.467 3.131-3.985 5.597-3.321.57.095 1.044.38 1.518.664l9.202 6.451c1.897 1.328 4.553.854 5.881-1.043.38-.475.57-1.139.664-1.708l4.269-24.569c.285-1.613 1.803-2.657 3.321-2.372.758.095 1.328.474 1.802 1.138l3.889 5.123c2.182 2.846 6.356 3.415 9.202 1.233 0 0 .095 0 .095-.095L-4.269-2.466c1.139-.949 2.846-.759 3.7.474Q.142-1.139 0 0" clip-path="url(#y)" style="fill:#8da58e;fill-opacity:1;fill-rule:nonzero;stroke:none" transform="matrix(1.33333 0 0 -1.33333 514.69 581.015)"/></g></g><g clip-path="url(#z)" opacity="0.949997"><g clip-path="url(#A)" opacity="0.850006"><path d="m0 0-4.364 30.166a6.69 6.69 0 0 0 5.597 7.495h.095l4.079.569c1.613.189 2.751 1.707 2.467 3.225a2.93 2.93 0 0 1-1.044 1.897L-8.822 56.254c-1.803 1.517-1.992 4.174-.569 5.976.379.474.948.854 1.517 1.138l7.589 3.51c2.277 1.044 3.321 3.795 2.277 6.072-.19.474-.569.948-.948 1.328l-2.372 2.276c-2.656 2.562-2.846 6.925-.569 9.866 5.786 7.684 10.624 16.032 14.324 24.854 1.423 3.415 5.312 5.407 8.822 4.459l3.226-.854c2.466-.664 5.027.759 5.691 3.225.19.569.19 1.139.19 1.613l-.759 8.348c-.189 2.277 1.518 4.364 3.795 4.553.664.095 1.233 0 1.802-.284l19.163-7.02c1.517-.569 3.225.19 3.699 1.707a2.65 2.65 0 0 1 0 2.087l-1.612 3.795c-1.423 3.32.189 7.21 3.509 8.632h.095l28.269 11.289c1.329.569 1.993 2.087 1.518 3.51a2.96 2.96 0 0 1-1.518 1.518l-28.269 11.289c-3.415 1.328-5.027 5.217-3.699 8.537v.095l1.612 3.795a2.83 2.83 0 0 1-1.612 3.794 2.65 2.65 0 0 1-2.087 0l-19.163-7.02c-2.181-.759-4.648.285-5.407 2.467a6 6 0 0 0-.284 1.802l.758 8.348c.19 2.561-1.612 4.743-4.174 5.028-.569.095-1.138 0-1.612-.19l-3.226-.854c-3.51-.948-7.399 1.044-8.822 4.459-3.699 8.822-8.537 17.17-14.324 24.854-2.182 2.941-2.087 7.304.569 9.866l2.372 2.276c1.802 1.803 1.802 4.649.094 6.546-.379.379-.853.759-1.328.949l-7.589 3.509c-2.087.949-3.035 3.51-2.087 5.597.285.57.664 1.044 1.139 1.518L6.83 267.513c1.233 1.044 1.423 2.846.38 4.079a2.93 2.93 0 0 1-1.898 1.044l-4.079.569c-3.605.475-6.166 3.795-5.692 7.399v.095l4.364 30.072c.19 1.423-.759 2.846-2.277 3.036q-1.138.142-1.992-.57l-23.905-18.783c-2.846-2.276-7.02-1.707-9.202 1.139l-.095.095-2.466 3.225c-.949 1.233-2.846 1.518-4.079.569-.569-.474-.949-1.138-1.139-1.802l-3.415-20.111c-.379-2.277-2.561-3.795-4.838-3.415-.664.095-1.233.379-1.707.664l-6.735 4.553a4.69 4.69 0 0 1-6.451-1.138c-.285-.474-.569-.949-.664-1.518l-.854-3.225c-.949-3.605-4.553-5.882-8.253-5.407-2.561.379-5.123.569-7.684.758-3.7.19-9.676.19-13.376 0-2.561-.189-5.122-.379-7.683-.758-3.605-.475-7.305 1.802-8.254 5.407l-.853 3.225c-.664 2.467-3.131 3.984-5.597 3.32-.569-.095-1.044-.379-1.518-.664l-6.83-4.838c-1.897-1.328-4.554-.854-5.882 1.044-.379.474-.569 1.138-.664 1.707l-3.415 20.111c-.284 1.613-1.802 2.656-3.32 2.372-.759-.095-1.328-.475-1.802-1.139l-2.467-3.225c-2.182-2.846-6.356-3.415-9.202-1.233l-.094.095-23.906 18.783c-1.138.948-2.846.664-3.7-.475a2.6 2.6 0 0 1-.569-1.992l4.364-30.166a6.69 6.69 0 0 0-5.597-7.494h-.095l-4.079-.57c-1.613-.189-2.751-1.707-2.466-3.225a2.93 2.93 0 0 1 1.043-1.897l15.653-12.996c1.802-1.518 1.992-4.174.569-5.977-.38-.474-.949-.854-1.518-1.138l-7.589-3.51c-2.277-1.044-3.32-3.795-2.277-6.071.19-.475.569-.949.949-1.328l2.371-2.277c2.657-2.561 2.846-6.925.57-9.866-5.787-7.684-10.625-16.032-14.325-24.854-1.423-3.415-5.312-5.407-8.822-4.458l-3.225.853c-2.467.664-5.028-.759-5.692-3.225-.19-.569-.19-1.138-.19-1.613l.759-8.348c.19-2.276-1.518-4.363-3.794-4.553a2.92 2.92 0 0 0-1.803.285l-19.162 7.019c-1.518.57-3.225-.189-3.7-1.707a2.66 2.66 0 0 1 0-2.087l1.613-3.795c1.423-3.32-.19-7.209-3.51-8.632h-.095l-28.269-11.289c-1.328-.569-1.992-2.087-1.423-3.51.285-.664.759-1.233 1.423-1.423l28.269-11.288c3.415-1.329 5.028-5.218 3.7-8.538v-.095l-1.613-3.794a2.83 2.83 0 0 1 1.613-3.795 2.65 2.65 0 0 1 2.087 0l19.162 7.02c2.182.759 4.648-.285 5.407-2.467.19-.569.285-1.233.285-1.802l-.759-8.348c-.19-2.561 1.613-4.743 4.174-5.028.569-.095 1.138 0 1.613.19l3.13.854c3.51.949 7.399-1.044 8.822-4.459a111.5 111.5 0 0 1 14.325-24.854c2.276-2.941 2.087-7.304-.57-9.866l-2.276-2.276c-1.803-1.803-1.803-4.648-.095-6.546.379-.379.854-.759 1.328-.948l7.589-3.51c2.087-.949 3.036-3.51 2.087-5.597-.285-.569-.664-1.044-1.138-1.518l-15.748-12.901c-1.233-1.044-1.423-2.846-.379-4.079a2.93 2.93 0 0 1 1.897-1.044l4.079-.569c3.605-.474 6.166-3.795 5.692-7.399v-.095L-184.983-.19c-.189-1.423.759-2.846 2.277-3.035q1.138-.143 1.992.569l23.906 18.783c2.846 2.276 7.02 1.707 9.201-1.139l.095-.095 2.467-3.225c.948-1.233 2.846-1.518 4.079-.569.569.474.948 1.138 1.138 1.802l3.415 20.111c.38 2.277 2.562 3.795 4.838 3.415.664-.095 1.233-.379 1.708-.664l6.83-4.838a4.69 4.69 0 0 1 6.451 1.139c.284.474.569.948.664 1.517l.758 3.131c.949 3.605 4.554 5.881 8.254 5.407 2.561-.284 5.122-.569 7.683-.759 3.7-.19 9.676-.19 13.376 0 2.561.19 5.123.38 7.684.759 3.605.474 7.305-1.802 8.253-5.407l.854-3.225c.664-2.467 3.13-3.985 5.597-3.321.569.095 1.043.38 1.518.664l6.83 4.838c1.897 1.329 4.553.854 5.881-1.043.38-.474.569-1.138.664-1.708l3.415-20.111c.285-1.612 1.803-2.656 3.321-2.371.758.095 1.328.474 1.802 1.138l2.466 3.226c2.182 2.846 6.356 3.415 9.202 1.233l.095-.095L-4.364-2.846c1.139-.949 2.846-.759 3.7.474C-.095-1.518.095-.759 0 0" clip-path="url(#B)" style="fill:#96ad97;fill-opacity:1;fill-rule:nonzero;stroke:none" transform="matrix(1.33333 0 0 -1.33333 497.994 552.05)"/></g></g></g><path d="m0 0-10.54-8.748-3.373-13.281-13.703 1.265-11.805-6.957-8.748 10.54-13.281 3.373 1.265 13.703-6.957 11.805 10.541 8.748 3.372 13.281 13.703-1.265 11.805 6.957 8.748-10.54 13.281-3.373-1.265-13.703z" style="fill:#372d20;fill-opacity:1;fill-rule:nonzero;stroke:#170e08;stroke-width:8.197;stroke-linecap:round;stroke-linejoin:round;stroke-miterlimit:17.704;stroke-dasharray:none;stroke-opacity:1" transform="matrix(1.00034 0 0 -1.00034 314.669 264.674)"/><path d="m0 0-6.43-5.27-2.108-8.116-8.327.738-7.167-4.217-5.27 6.43-8.116 2.108L-36.68 0l-4.216 7.167 6.429 5.271 2.108 8.116 8.327-.738 7.167 4.216 5.271-6.43 8.116-2.108-.738-8.327z" style="fill:#433828;fill-opacity:1;fill-rule:nonzero;stroke:none" transform="matrix(1.00034 0 0 -1.00034 301.384 262.354)"/></svg>