<svg xmlns="http://www.w3.org/2000/svg" width="185" height="185" viewBox="0 0 48.947917 48.947917"><g transform="scale(1.96165)"><path d="M4 4h16.9v16.9H4z" style="fill:#674b24;fill-opacity:1;stroke:none;stroke-width:.798207;stroke-linecap:butt;stroke-linejoin:miter;stroke-miterlimit:4;stroke-dasharray:none;stroke-opacity:1"/><path d="M8.243 4.041v16.87m8.817-16.87v16.87m-4.408-16.87v16.87" style="fill:none;stroke:#342612;stroke-width:1;stroke-linecap:butt;stroke-linejoin:miter;stroke-miterlimit:4;stroke-dasharray:none;stroke-opacity:1"/><path d="M-14.931 15.644H14.4v4h-29.332z" style="fill:#9e7437;fill-opacity:1;stroke:#3f2e16;stroke-width:1;stroke-linecap:butt;stroke-linejoin:bevel;stroke-miterlimit:4;stroke-dasharray:none;stroke-opacity:1" transform="scale(-1 1)rotate(45)"/><path d="M.5.5v23.952h23.952V.5Zm4.041 4.041h15.87v15.87H4.54Z" style="fill:#9e7437;stroke-width:0;stroke-linecap:round"/><path d="M4 4h16.9v16.9H4z" style="fill:none;fill-opacity:1;stroke:none;stroke-width:1;stroke-linecap:butt;stroke-linejoin:bevel;stroke-miterlimit:4;stroke-dasharray:none;stroke-opacity:1"/><circle cx="2.576957" cy="2.576957" r="0.82695758" style="fill:gray;fill-opacity:1;stroke:#2e2e2e;stroke-width:.499999;stroke-linecap:round;stroke-linejoin:round;stroke-opacity:1"/><circle cx="22.374956" cy="2.576957" r="0.82695758" style="fill:gray;fill-opacity:1;stroke:#2e2e2e;stroke-width:.499999;stroke-linecap:round;stroke-linejoin:round;stroke-opacity:1"/><circle cx="2.576957" cy="22.374956" r="0.82695758" style="fill:gray;fill-opacity:1;stroke:#2e2e2e;stroke-width:.499999;stroke-linecap:round;stroke-linejoin:round;stroke-opacity:1"/><circle cx="22.374956" cy="22.374956" r="0.82695758" style="fill:gray;fill-opacity:1;stroke:#2e2e2e;stroke-width:.499999;stroke-linecap:round;stroke-linejoin:round;stroke-opacity:1"/><path d="M4.54 4.54h15.871v15.871H4.541z" style="fill:none;fill-opacity:1;stroke:#3f2e16;stroke-width:1;stroke-linecap:butt;stroke-linejoin:miter;stroke-miterlimit:4;stroke-dasharray:none;stroke-opacity:1"/><path d="M.5.5h23.952v23.952H.5z" style="fill:none;fill-opacity:1;stroke:#3f2e16;stroke-width:1;stroke-linecap:round;stroke-linejoin:round;stroke-miterlimit:4;stroke-dasharray:none;stroke-opacity:1"/><path d="M20.411 4.54h4m-4 15.871h4m-23.871 0h4M.54 4.54h4" style="fill:none;stroke:#3f2e16;stroke-width:1;stroke-linecap:butt;stroke-linejoin:miter;stroke-miterlimit:4;stroke-dasharray:none;stroke-opacity:1"/></g><path d="M563.652 169.959c.137 1.65 1.031 4.263 3.232 5.81 2.2 1.548 5.708 2.029 8.458.654s4.745-4.608 5.089-7.771-.963-6.258-3.68-8.252c-2.715-1.994-6.841-2.888-8.492-2.27-1.65.62-.825 2.751-.55 4.574s0 3.335-.584 3.988c-.585.653-1.479.447-2.235.688-.757.24-1.376.928-1.238 2.579zM544.5 191.345c.173 2.2 1.96 5.295 4.092 7.048s4.608 2.166 7.083 1.41c2.476-.757 4.951-2.682 5.983-5.02 1.031-2.338.619-5.089-.035-7.633-.653-2.544-1.547-4.882-3.129-5.948-1.581-1.066-3.85-.86-5.845.24s-3.713 3.095-5.295 4.745-3.025 2.957-2.853 5.158z" style="fill:#c9d1d9;fill-opacity:1;stroke:#a2a5c0;stroke-width:1.9616208;stroke-dasharray:none;stroke-opacity:1" transform="translate(-533.487 -153.402)"/><path d="M580.362 183.962c-.014-1.9-.917-3.769-2.397-4.244s-3.535.444-4.668 1.412c-1.132.968-1.341 1.986-.996 3.468s1.244 3.43 2.39 4.361c1.147.932 2.54.849 3.675-.159 1.135-1.007 2.01-2.939 1.996-4.839zm-41.714 2.072c.66.615.984.751 2.058.473 1.074-.279 2.898-.973 4.075-2.475s1.706-3.813 1.31-5.226-1.717-1.928-2.83-2.035c-1.112-.106-2.016.196-3.193 1.341s-2.628 3.134-2.854 4.675.773 2.633 1.434 3.247z" style="fill:#c9d1d9;fill-opacity:1;stroke:#a2a5c0;stroke-width:1.9616208;stroke-miterlimit:4;stroke-dasharray:none;stroke-opacity:1" transform="translate(-533.487 -153.402)"/><path d="M536.447 155.083c-1.195.28-1.35 1.243-1.479 3.22s-.232 4.968 1.367 6.885 4.9 2.76 8.063 2.08 6.188-2.88 7.22-5.561c1.031-2.682.069-5.845-1.847-6.942-1.917-1.097-4.786-.128-7.339.156s-4.79-.118-5.985.162z" style="fill:#c9d1d9;fill-opacity:1;stroke:#a2a5c0;stroke-width:1.96162;stroke-dasharray:none;stroke-opacity:1" transform="translate(-533.113 -152.654)"/></svg>