<svg xmlns="http://www.w3.org/2000/svg" width="52.341473" height="64.067383" fill="none" viewBox="0 0 52.341473 64.067383"><path fill="#373225" stroke="#1b1913" stroke-miterlimit="3.99393" stroke-width="4" d="M38.59 3.813a1.816 1.816 0 0 0 3.49.7 1.816 1.816 0 1 0-3.49-.7Z"/><path fill="#4e4735" stroke="#1b1913" stroke-miterlimit="3.99393" stroke-width="4" d="M26.762 10.939 12.79 9.456 2.425 28.546l3.767 4.274 10.202-18.79 6.232.622Z" style="fill:#8b7f50;fill-opacity:1;stroke:#1f1c11;stroke-opacity:1"/><path fill="#4e4735" stroke="#1b1913" stroke-linecap="square" stroke-miterlimit="3.99393" stroke-width="4" d="m35.848 2.831 1.096.98 1.646.002-2.753 6.184 1.088 5.292-.006 4.324-9.762-.015.007-4.324-6.994-.011 4.452-12.45z" style="fill:#8b7f50;fill-opacity:1;stroke:#1f1c11;stroke-opacity:1"/><rect width="36.756657" height="42.38129" x="13.701969" y="19.570007" rx="9.9833355" ry="21.190645" style="fill:#8a4c70;fill-opacity:1;stroke:#1f1118;stroke-width:4;stroke-linecap:round;stroke-linejoin:round;stroke-dasharray:none;stroke-opacity:1" transform="rotate(.165)"/><circle cx="17.955767" cy="44.943199" r="6.8015032" style="fill:#693a55;fill-opacity:1;stroke:none;stroke-width:4;stroke-linecap:round;stroke-linejoin:round;stroke-dasharray:none;stroke-opacity:1" transform="rotate(-29.909)"/><circle cx="12.125906" cy="49.642204" r="4.3184147" style="fill:#693a55;fill-opacity:1;stroke:none;stroke-width:4;stroke-linecap:round;stroke-linejoin:round;stroke-dasharray:none;stroke-opacity:1" transform="rotate(-29.909)"/><circle cx="-6.4432793" cy="57.523308" r="6.693543" style="fill:#693a55;fill-opacity:1;stroke:none;stroke-width:4;stroke-linecap:round;stroke-linejoin:round;stroke-dasharray:none;stroke-opacity:1" transform="rotate(-29.909)"/><circle cx="0.088324331" cy="61.247944" r="4.0485139" style="fill:#693a55;fill-opacity:1;stroke:none;stroke-width:4;stroke-linecap:round;stroke-linejoin:round;stroke-dasharray:none;stroke-opacity:1" transform="rotate(-29.909)"/><circle cx="-6.0654163" cy="48.184738" r="3.8325932" style="fill:#693a55;fill-opacity:1;stroke:none;stroke-width:4;stroke-linecap:round;stroke-linejoin:round;stroke-dasharray:none;stroke-opacity:1" transform="rotate(-29.909)"/><circle cx="3.087301" cy="35.347363" r="3.8325932" style="fill:#693a55;fill-opacity:1;stroke:none;stroke-width:4;stroke-linecap:round;stroke-linejoin:round;stroke-dasharray:none;stroke-opacity:1" transform="rotate(-29.909)"/><circle cx="10.830381" cy="63.137249" r="5.1820979" style="fill:#693a55;fill-opacity:1;stroke:none;stroke-width:4;stroke-linecap:round;stroke-linejoin:round;stroke-dasharray:none;stroke-opacity:1" transform="rotate(-29.909)"/><rect width="36.756657" height="42.38129" x="13.701965" y="19.570009" rx="9.9833355" ry="21.190645" style="fill:none;fill-opacity:1;stroke:#1f1118;stroke-width:4;stroke-linecap:round;stroke-linejoin:round;stroke-dasharray:none;stroke-opacity:1" transform="rotate(.165)"/></svg>