<svg xmlns="http://www.w3.org/2000/svg" width="40.756901" height="64.067383" fill="none" viewBox="0 0 40.756901 64.067383"><path fill="#373225" stroke="#1b1913" stroke-miterlimit="3.99393" stroke-width="4" d="M27.005 3.813a1.816 1.816 0 0 0 3.49.7 1.816 1.816 0 1 0-3.49-.7z"/><path fill="#4e4735" stroke="#1b1913" stroke-linecap="square" stroke-miterlimit="3.99393" stroke-width="4" d="m24.264 2.831 1.095.98 1.646.002-2.753 6.184 1.089 5.292-.007 4.324-9.762-.015.007-4.324-6.993-.011 4.452-12.45z" style="fill:#8b7f50;fill-opacity:1;stroke:#1f1c11;stroke-opacity:1"/><rect width="36.756657" height="42.38129" x="2.117444" y="19.603298" rx="9.9833355" ry="21.190645" style="fill:#8a4c70;fill-opacity:1;stroke:#1f1118;stroke-width:4;stroke-linecap:round;stroke-linejoin:round;stroke-dasharray:none;stroke-opacity:1" transform="rotate(.165)"/><circle cx="7.9140263" cy="39.166889" r="6.8015032" style="fill:#693a55;fill-opacity:1;stroke:none;stroke-width:4;stroke-linecap:round;stroke-linejoin:round;stroke-dasharray:none;stroke-opacity:1" transform="rotate(-29.909)"/><circle cx="2.0841656" cy="43.865894" r="4.3184147" style="fill:#693a55;fill-opacity:1;stroke:none;stroke-width:4;stroke-linecap:round;stroke-linejoin:round;stroke-dasharray:none;stroke-opacity:1" transform="rotate(-29.909)"/><circle cx="-16.48502" cy="51.746998" r="6.693543" style="fill:#693a55;fill-opacity:1;stroke:none;stroke-width:4;stroke-linecap:round;stroke-linejoin:round;stroke-dasharray:none;stroke-opacity:1" transform="rotate(-29.909)"/><circle cx="-9.9534159" cy="55.47163" r="4.0485139" style="fill:#693a55;fill-opacity:1;stroke:none;stroke-width:4;stroke-linecap:round;stroke-linejoin:round;stroke-dasharray:none;stroke-opacity:1" transform="rotate(-29.909)"/><circle cx="-16.107157" cy="42.408428" r="3.8325932" style="fill:#693a55;fill-opacity:1;stroke:none;stroke-width:4;stroke-linecap:round;stroke-linejoin:round;stroke-dasharray:none;stroke-opacity:1" transform="rotate(-29.909)"/><circle cx="-6.9544396" cy="29.571054" r="3.8325932" style="fill:#693a55;fill-opacity:1;stroke:none;stroke-width:4;stroke-linecap:round;stroke-linejoin:round;stroke-dasharray:none;stroke-opacity:1" transform="rotate(-29.909)"/><circle cx="0.78864098" cy="57.360935" r="5.1820979" style="fill:#693a55;fill-opacity:1;stroke:none;stroke-width:4;stroke-linecap:round;stroke-linejoin:round;stroke-dasharray:none;stroke-opacity:1" transform="rotate(-29.909)"/><rect width="36.756657" height="42.38129" x="2.1174402" y="19.603302" rx="9.9833355" ry="21.190645" style="fill:none;fill-opacity:1;stroke:#1f1118;stroke-width:4;stroke-linecap:round;stroke-linejoin:round;stroke-dasharray:none;stroke-opacity:1" transform="rotate(.165)"/></svg>