<svg xmlns="http://www.w3.org/2000/svg" width="46.321789" height="64.058647" fill="none" viewBox="0 0 46.321789 64.058647"><path fill="#575946" stroke="#191A14" stroke-miterlimit="3.99393" stroke-width="4" d="M18.173 18.22a.5.5 0 0 0-.5.5v9.336a.5.5 0 0 0 .5.5h9.813a.5.5 0 0 0 .5-.5v-9.337a.5.5 0 0 0-.5-.5z" style="fill:#8b7f50;fill-opacity:1;stroke:#1f1c11;stroke-opacity:1"/><path fill="#47443c" stroke="#191815" stroke-miterlimit="3.99393" stroke-width="4" d="M29.512 4.988a2.98 2.98 0 0 0 1.846 2.76 2.993 2.993 0 0 0 4.134-2.76A2.987 2.987 0 0 0 32.502 2a2.99 2.99 0 0 0-2.762 1.844c-.15.363-.228.751-.228 1.144z" style="stroke:#1f1c11;stroke-opacity:1"/><path fill="#4E4735" stroke="#1B1913" stroke-linecap="square" stroke-miterlimit="3.99393" stroke-width="4" d="m27.222 3.86 1.264 1.128h3.968l-5.232 7.132 1.264 6.099H9.173L14.282 3.86Z" style="fill:#8b7f50;fill-opacity:1;stroke:#1f1c11;stroke-opacity:1"/><g transform="rotate(-31.577 14.301 74.138)"><ellipse cx="69.773453" cy="25.645935" rx="11.045409" ry="16.890543" style="fill:#8a4c70;fill-opacity:1;stroke:#1f1118;stroke-width:4;stroke-linecap:round;stroke-linejoin:round;stroke-dasharray:none;stroke-opacity:1" transform="rotate(31.091)skewX(-.018)"/><ellipse cx="49.543045" cy="25.645935" rx="11.045409" ry="16.890543" style="fill:#8a4c70;fill-opacity:1;stroke:#1f1118;stroke-width:4;stroke-linecap:round;stroke-linejoin:round;stroke-dasharray:none;stroke-opacity:1" transform="rotate(31.091)skewX(-.018)"/><circle cx="45.962219" cy="64.476608" r="4.4481807" style="fill:#693a55;fill-opacity:1;stroke:none;stroke-width:4;stroke-linecap:round;stroke-linejoin:round;stroke-dasharray:none;stroke-opacity:1"/><ellipse cx="59.658249" cy="25.645935" rx="12.218193" ry="18.452194" style="fill:#8a4c70;fill-opacity:1;stroke:#1f1118;stroke-width:4;stroke-linecap:round;stroke-linejoin:round;stroke-dasharray:none;stroke-opacity:1" transform="rotate(31.091)skewX(-.018)"/><circle cx="45.946449" cy="47.24836" r="6.0213175" style="fill:#693a55;fill-opacity:1;stroke:none;stroke-width:4;stroke-linecap:round;stroke-linejoin:round;stroke-dasharray:none;stroke-opacity:1"/><circle cx="29.712303" cy="53.79723" r="4.4481807" style="fill:#693a55;fill-opacity:1;stroke:none;stroke-width:4;stroke-linecap:round;stroke-linejoin:round;stroke-dasharray:none;stroke-opacity:1"/><circle cx="31.115597" cy="59.20052" r="3.0920281" style="fill:#693a55;fill-opacity:1;stroke:none;stroke-width:4;stroke-linecap:round;stroke-linejoin:round;stroke-dasharray:none;stroke-opacity:1"/><ellipse cx="59.658249" cy="25.645935" rx="12.218193" ry="18.452194" style="fill:none;fill-opacity:1;stroke:#1f1118;stroke-width:4;stroke-linecap:round;stroke-linejoin:round;stroke-dasharray:none;stroke-opacity:1" transform="rotate(31.091)skewX(-.018)"/></g></svg>