<svg xmlns="http://www.w3.org/2000/svg" width="58.018738" height="64.447655" fill="none" viewBox="0 0 58.018738 64.447655"><path fill="#4E4735" stroke="#1B1913" stroke-miterlimit="3.99393" stroke-width="4" d="M23.42 12.183 8.45 18.366 2.397 41.44l6.167 2.257 6.054-22.682 6.655-2.797z" style="fill:#8b7f50;fill-opacity:1;stroke:#1b1a10;stroke-opacity:1"/><path fill="#575946" stroke="#191A14" stroke-miterlimit="3.99393" stroke-width="4" d="M31.23 19.043a.5.5 0 0 0-.5.5v9.336a.5.5 0 0 0 .5.5h9.812a.5.5 0 0 0 .5-.5v-9.336a.5.5 0 0 0-.5-.5z" style="fill:#8b7f50;fill-opacity:1;stroke:#1f1c11;stroke-opacity:1" transform="translate(-.957 -.823)"/><path fill="#47443c" stroke="#191815" stroke-miterlimit="3.99393" stroke-width="4" d="M42.568 5.811a2.98 2.98 0 0 0 1.846 2.76 2.993 2.993 0 0 0 4.134-2.76 2.987 2.987 0 0 0-2.99-2.988 2.99 2.99 0 0 0-2.762 1.845c-.15.362-.228.75-.228 1.143Z" style="stroke:#1f1c11;stroke-opacity:1" transform="translate(-.957 -.823)"/><path fill="#4E4735" stroke="#1B1913" stroke-linecap="square" stroke-miterlimit="3.99393" stroke-width="4" d="m40.278 4.684 1.264 1.127h3.968l-5.232 7.132 1.264 6.099H22.23l5.109-14.358z" style="fill:#8b7f50;fill-opacity:1;stroke:#1f1c11;stroke-opacity:1" transform="translate(-.957 -.823)"/><g transform="rotate(-30 19.986 53.943)"><ellipse cx="69.773453" cy="25.645935" rx="11.045409" ry="16.890543" style="fill:#8a4c70;fill-opacity:1;stroke:#1f1118;stroke-width:4;stroke-linecap:round;stroke-linejoin:round;stroke-dasharray:none;stroke-opacity:1" transform="rotate(31.091)skewX(-.018)"/><ellipse cx="49.543045" cy="25.645935" rx="11.045409" ry="16.890543" style="fill:#8a4c70;fill-opacity:1;stroke:#1f1118;stroke-width:4;stroke-linecap:round;stroke-linejoin:round;stroke-dasharray:none;stroke-opacity:1" transform="rotate(31.091)skewX(-.018)"/><circle cx="45.962219" cy="64.476608" r="4.4481807" style="fill:#693a55;fill-opacity:1;stroke:none;stroke-width:4;stroke-linecap:round;stroke-linejoin:round;stroke-dasharray:none;stroke-opacity:1"/><ellipse cx="59.658249" cy="25.645935" rx="12.218193" ry="18.452194" style="fill:#8a4c70;fill-opacity:1;stroke:#1f1118;stroke-width:4;stroke-linecap:round;stroke-linejoin:round;stroke-dasharray:none;stroke-opacity:1" transform="rotate(31.091)skewX(-.018)"/><circle cx="45.946449" cy="47.24836" r="6.0213175" style="fill:#693a55;fill-opacity:1;stroke:none;stroke-width:4;stroke-linecap:round;stroke-linejoin:round;stroke-dasharray:none;stroke-opacity:1"/><circle cx="29.712303" cy="53.79723" r="4.4481807" style="fill:#693a55;fill-opacity:1;stroke:none;stroke-width:4;stroke-linecap:round;stroke-linejoin:round;stroke-dasharray:none;stroke-opacity:1"/><circle cx="31.115597" cy="59.20052" r="3.0920281" style="fill:#693a55;fill-opacity:1;stroke:none;stroke-width:4;stroke-linecap:round;stroke-linejoin:round;stroke-dasharray:none;stroke-opacity:1"/><ellipse cx="59.658249" cy="25.645935" rx="12.218193" ry="18.452194" style="fill:none;fill-opacity:1;stroke:#1f1118;stroke-width:4;stroke-linecap:round;stroke-linejoin:round;stroke-dasharray:none;stroke-opacity:1" transform="rotate(31.091)skewX(-.018)"/></g><path fill="#a1a29c" fill-rule="evenodd" stroke="#222220" stroke-miterlimit="3.99393" stroke-width="2" d="M26.382 31.895c6.365 0 11.525-5.16 11.525-11.525S32.747 8.845 26.382 8.845s-11.525 5.16-11.525 11.525 5.16 11.525 11.525 11.525zm0-4.095a7.43 7.43 0 1 0 0-14.862 7.43 7.43 0 1 0 0 14.862z" clip-rule="evenodd"/></svg>