<svg xmlns="http://www.w3.org/2000/svg" width="501" height="41" fill="none" viewBox="0 0 501 41"><path fill="url(#a)" d="M.487.612h480c11.045 0 20 8.955 20 20s-8.955 20-20 20h-480z"/><path fill="url(#b)" d="M499.033 13.112a19.9 19.9 0 0 1 1.454 7.5c0 2.653-.516 5.184-1.454 7.5H.487v-15z"/><path fill="url(#c)" d="M.487 28.112v-15h498.546a20 20 0 0 1 1.454 7.483 20.2 20.2 0 0 1-1.454 7.517z" style="mix-blend-mode:soft-light"/><defs><linearGradient id="a" x1="500.487" x2="0.486786" y1="20.6123" y2="20.6123" gradientUnits="userSpaceOnUse"><stop stop-color="#08F"/><stop offset="0.53125" stop-color="#0AF" stop-opacity="0.5"/><stop offset="1" stop-color="#0FF" stop-opacity="0"/></linearGradient><linearGradient id="b" x1="500.487" x2="0.486813" y1="20.6118" y2="20.6116" gradientUnits="userSpaceOnUse"><stop stop-color="#F70" stop-opacity="0.6"/><stop offset="0.947917" stop-color="#F70" stop-opacity="0"/></linearGradient><linearGradient id="c" x1="250.487" x2="250.487" y1="13.1123" y2="28.1123" gradientUnits="userSpaceOnUse"><stop stop-color="#FFC999" stop-opacity="0"/><stop offset="0.5" stop-color="#FFC999"/><stop offset="1" stop-color="#FFC999" stop-opacity="0"/></linearGradient></defs></svg>