<svg xmlns="http://www.w3.org/2000/svg" xml:space="preserve" width="64.361084" height="63.833401" viewBox="0 0 17.028871 16.889253"><path d="M35.863 13.022s-5.787-4.91-2.893-6.2c2.893-1.291 3.927-4.55 5.167-1.964 1.24 2.584 2.17 4.289 1.137 5.787s-3.41 2.377-3.41 2.377z" style="fill:#af7a53;fill-opacity:1;stroke:#342418;stroke-width:.79375;stroke-linejoin:round;stroke-dasharray:none;stroke-opacity:1" transform="translate(-31.763 -3.49)"/><path d="m47.117 11.646-5.483-3.438.702-.579.223-.895 5.483 3.438-.812.53z" style="fill:#e2cec0;fill-opacity:1;fill-rule:nonzero;stroke:#342418;stroke-width:1.49992;stroke-linecap:round;stroke-linejoin:round;stroke-miterlimit:4;stroke-dasharray:none;stroke-dashoffset:0;stroke-opacity:1;paint-order:stroke fill markers" transform="translate(-31.763 -3.49)"/><path d="M40.458 15.929s1.206-4.382 3.462-2.157c2.256 2.226 4.064 1.891 2.109 3.988s-3.8 2.498-5.571 2.082c-1.772-.417 0-3.913 0-3.913z" style="fill:#af7a53;fill-opacity:1;stroke:#342418;stroke-width:.79375;stroke-linejoin:round;stroke-dasharray:none;stroke-opacity:1" transform="translate(-31.763 -3.49)"/></svg>