<svg xmlns="http://www.w3.org/2000/svg" xmlns:xlink="http://www.w3.org/1999/xlink" xml:space="preserve" width="39.788502mm" height="33.352013mm" viewBox="0 0 39.788502 33.352013"><g transform="translate(-103.482 -156.439)"><g transform="translate(25.2 95.662)scale(.39659)"><path d="M19.789-283.62h11.978v8.356H19.789z" style="fill:#adadad;fill-opacity:1;stroke:#868686;stroke-width:1.8439;stroke-linecap:round;stroke-linejoin:round;stroke-dasharray:none;stroke-opacity:1" transform="rotate(126)"/><path d="m227.816 182.038-4.683-14.413 33.756-10.968 5.269 16.215" style="fill:none;fill-opacity:1;stroke:#5d5d5d;stroke-width:6.81974;stroke-linecap:round;stroke-linejoin:round;stroke-dasharray:none;stroke-opacity:1"/><rect id="a" width="56.169743" height="15.625256" x="262.13678" y="-197.27319" rx="13.815543" ry="13.815543" style="fill:#cfcfcf;fill-opacity:1;stroke:#999;stroke-width:5.777;stroke-linecap:round;stroke-linejoin:round;stroke-dasharray:none;stroke-opacity:1" transform="rotate(69)"/><path d="m287.965 190.309-43.757 13.5m-.177 17.146-43.756 13.5" style="fill:#cfcfcf;fill-opacity:1;stroke:#999;stroke-width:5.777;stroke-linecap:round;stroke-linejoin:round;stroke-dasharray:none;stroke-opacity:1"/><path d="M39.18 69.887h7.477l3.738 6.475-3.738 6.475H39.18l-3.738-6.475z" style="fill:#4a4a4a;fill-opacity:1;stroke:none;stroke-width:5.77699;stroke-linecap:round;stroke-linejoin:round;stroke-dasharray:none;stroke-opacity:1" transform="matrix(.5 0 0 .5 253.242 187.202)"/><path d="M39.18 69.887h7.477l3.738 6.475-3.738 6.475H39.18l-3.738-6.475z" style="fill:#4a4a4a;fill-opacity:1;stroke:none;stroke-width:5.77699;stroke-linecap:round;stroke-linejoin:round;stroke-dasharray:none;stroke-opacity:1" transform="matrix(.5 0 0 .5 211.362 179.981)"/><path d="M39.18 69.887h7.477l3.738 6.475-3.738 6.475H39.18l-3.738-6.475z" style="fill:#4a4a4a;fill-opacity:1;stroke:none;stroke-width:5.77699;stroke-linecap:round;stroke-linejoin:round;stroke-dasharray:none;stroke-opacity:1" transform="matrix(.5 0 0 .5 233.505 147.729)"/></g><path d="m5.313 6.318.785 4.469 3.683-.853 4.739 3.234 4.557-1.264s-2.173-3.499-2.203-3.646c-.014-.067-1.014-.697-2.098-1.363-1.291-.793-2.701-1.636-2.701-1.636l-3.32 1.823Z" style="fill:#c7c7c7;fill-opacity:1;stroke:none;stroke-width:1.37726;stroke-linecap:round;stroke-linejoin:round;stroke-miterlimit:5;stroke-dasharray:none;stroke-opacity:1;paint-order:fill markers stroke" transform="translate(110.368 168.141)"/><path d="m18.253 11.768-1.825-3.717-.5 2.916-2.327 1.67zM5.32 6.678l.362 2.25 3.454-1.275Z" style="fill:#a2a2a2;fill-opacity:1;stroke:none;stroke-width:1.45521;stroke-linecap:round;stroke-linejoin:round;stroke-miterlimit:5;stroke-dasharray:none;stroke-opacity:1;paint-order:fill markers stroke" transform="translate(110.368 168.141)"/><path d="m5.313 6.318.785 4.469 3.683-.853 4.739 3.234 4.557-1.264s-2.173-3.499-2.203-3.646c-.014-.067-1.014-.697-2.098-1.363-1.291-.793-2.701-1.636-2.701-1.636l-3.32 1.823Z" style="fill:none;fill-opacity:1;stroke:#666;stroke-width:1.37726;stroke-linecap:round;stroke-linejoin:round;stroke-miterlimit:5;stroke-dasharray:none;stroke-opacity:1;paint-order:fill markers stroke" transform="translate(110.368 168.141)"/><path d="m17.92 10.216-3.117-.801-3.383 1.357 2.938 2.449 4.185-1.202z" style="fill:none;fill-opacity:1;stroke:none;stroke-width:1.45521;stroke-linecap:round;stroke-linejoin:round;stroke-miterlimit:5;stroke-dasharray:none;stroke-opacity:1;paint-order:fill markers stroke" transform="translate(110.368 168.141)"/><path d="m5.313 6.318.785 4.469 3.683-.853 4.739 3.234 4.557-1.264s-2.173-3.499-2.203-3.646c-.014-.067-1.014-.697-2.098-1.363-1.291-.793-2.701-1.636-2.701-1.636l-3.32 1.823Z" style="fill:#c7c7c7;fill-opacity:1;stroke:none;stroke-width:1.37726;stroke-linecap:round;stroke-linejoin:round;stroke-miterlimit:5;stroke-dasharray:none;stroke-opacity:1;paint-order:fill markers stroke" transform="rotate(135 34.549 120.593)"/><path d="m18.253 11.768-1.825-3.717-.5 2.916-2.327 1.67zM5.32 6.678l.362 2.25 3.454-1.275Z" style="fill:#a2a2a2;fill-opacity:1;stroke:none;stroke-width:1.45521;stroke-linecap:round;stroke-linejoin:round;stroke-miterlimit:5;stroke-dasharray:none;stroke-opacity:1;paint-order:fill markers stroke" transform="rotate(135 34.549 120.593)"/><path d="m5.313 6.318.785 4.469 3.683-.853 4.739 3.234 4.557-1.264s-2.173-3.499-2.203-3.646c-.014-.067-1.014-.697-2.098-1.363-1.291-.793-2.701-1.636-2.701-1.636l-3.32 1.823Z" style="fill:none;fill-opacity:1;stroke:#666;stroke-width:1.37726;stroke-linecap:round;stroke-linejoin:round;stroke-miterlimit:5;stroke-dasharray:none;stroke-opacity:1;paint-order:fill markers stroke" transform="rotate(135 34.549 120.593)"/><path d="m17.92 10.216-3.117-.801-3.383 1.357 2.938 2.449 4.185-1.202z" style="fill:none;fill-opacity:1;stroke:none;stroke-width:1.45521;stroke-linecap:round;stroke-linejoin:round;stroke-miterlimit:5;stroke-dasharray:none;stroke-opacity:1;paint-order:fill markers stroke" transform="rotate(135 34.549 120.593)"/><use xlink:href="#a" style="stroke-width:1.39753" transform="matrix(.10492 .2568 -.27332 .09858 137.614 83.853)"/></g></svg>