<svg xmlns="http://www.w3.org/2000/svg" width="109.76546" height="187.93048" viewBox="0 0 29.04211 49.723273"><path d="m162.72 206.664 1.99.99c.527.263 1.31.136 1.612-.471l3.063-6.155c.302-.608-.069-1.308-.595-1.57l-1.991-.991-.642 1.29 1.804.898-2.795 5.616-1.804-.897zm.618-22.361 1.706-1.426c.452-.377.65-1.145.215-1.666l-4.409-5.275c-.435-.52-1.225-.462-1.677-.085l-1.706 1.426.924 1.106 1.546-1.292 4.023 4.814-1.546 1.292z" style="color:#000;fill:#4d4d4d;stroke-linecap:round;stroke-linejoin:round;stroke-miterlimit:11.3386;-inkscape-stroke:none" transform="translate(-144.198 -174.096)"/><path d="m146.553 184.57 14.913 14.913-2.674-3.766 2.978 2.32-2.814-4.257 4.246 3.118-.528-1.343-1.717-3.07 4.86 2.648-14.914-14.913 3.023 4.046-3.94-3.13-.022.023 1.902 3.354-3.1-2.157-.012.013 1.69 3.054-1.146-.31 1.87 2.345z" style="fill:#406c65;fill-opacity:1;stroke:#1c302b;stroke-width:.820302;stroke-linecap:round;stroke-miterlimit:4;stroke-dasharray:none;stroke-opacity:1" transform="translate(-144.198 -174.096)"/><path d="m150.83 219.183 3.709.186-1.724 1.068 17.945-4.27-3.132-.441 2.436-1.286-5.39.104 2.99-1.565-2.228-.389 1.596-.657-3.61.072 4.001-1.556-17.671 4.205.138.58 3.462.821-1.005.72 3.494-.08zm3.98-30.254-1.64 2.2-.106-1.812-5.535 17.925 1.769-2.41.305 2.753 2.491-3.466-.266 2.457 1.28-1.305-.59 2.26 1.442-2.023-.285 2.684 5.529-17.907-.514.478-1.297 1.962-.602-1.293-1.98 1.344z" style="fill:#406c65;fill-opacity:1;stroke:#1c302b;stroke-width:.820208;stroke-linecap:square;stroke-linejoin:miter;stroke-dasharray:none;stroke-opacity:1;paint-order:fill markers stroke" transform="translate(-144.198 -174.096)"/></svg>