<svg xmlns="http://www.w3.org/2000/svg" xml:space="preserve" width="29.907978mm" height="26.019318mm" viewBox="0 0 29.907977 26.019317"><g transform="rotate(-150 40.226 165.429)"><rect width="8.4699812" height="14.096252" x="141.83298" y="276.95703" rx="0" ry="0" style="fill:none;fill-opacity:1;stroke:#27180c;stroke-width:1.85209;stroke-linecap:round;stroke-linejoin:round;stroke-miterlimit:4;stroke-dasharray:none;stroke-opacity:1" transform="rotate(.048)"/><rect width="4.3566103" height="12.362548" x="145.4371" y="277.8364" rx="0" ry="0" style="fill:#30839e;fill-opacity:1;stroke:#c8c8c8;stroke-width:1.85209;stroke-linecap:round;stroke-linejoin:round;stroke-miterlimit:4;stroke-dasharray:none;stroke-opacity:1" transform="rotate(.048)"/><rect width="8.7190075" height="14.096254" x="140.59055" y="276.96399" rx="0" ry="0" style="fill:#c3793c;fill-opacity:1;stroke:#4e3018;stroke-width:1.85209;stroke-linecap:round;stroke-linejoin:round;stroke-miterlimit:4;stroke-dasharray:none;stroke-opacity:1" transform="rotate(.048)"/><g style="stroke-width:1.85208;stroke-dasharray:none" transform="rotate(179.647 -62.284 77.78)"><rect width="2.112179" height="1.0061817" x="-267.42255" y="-126.06653" rx="0" ry="0" style="opacity:.985;fill:#616161;fill-opacity:1;stroke:#333;stroke-width:.79375;stroke-linecap:round;stroke-linejoin:round;stroke-dasharray:none;stroke-opacity:1;stop-color:#000"/><rect width="2.112179" height="1.0061817" x="-267.42255" y="-134.64095" rx="0" ry="0" style="opacity:.985;fill:#616161;fill-opacity:1;stroke:#333;stroke-width:.79375;stroke-linecap:round;stroke-linejoin:round;stroke-dasharray:none;stroke-opacity:1;stop-color:#000"/><g transform="translate(0 -.052)"><rect width="2.2566941" height="4.5133882" x="-268.09329" y="-132.05498" rx="0" ry="0" style="opacity:.985;fill:#ccc;fill-opacity:1;stroke:#333;stroke-width:.79375;stroke-linecap:round;stroke-linejoin:round;stroke-dasharray:none;stroke-opacity:1;stop-color:#000"/><path d="M-266.548-128.247v-2.88" style="fill:#4d4d4d;fill-opacity:1;fill-rule:evenodd;stroke:#4d4d4d;stroke-width:.3175;stroke-linecap:square;stroke-linejoin:miter;stroke-dasharray:none;stroke-opacity:1" transform="translate(-.125 -.111)"/><path d="M-266.96-130.815v1.3m0 1.203v-.52" style="fill:#4d4d4d;fill-opacity:1;fill-rule:evenodd;stroke:#4d4d4d;stroke-width:.3175;stroke-linecap:square;stroke-linejoin:miter;stroke-dasharray:none;stroke-opacity:1" transform="translate(-.298 -.235)"/></g></g></g><g style="stroke-width:1.25152;stroke-dasharray:none" transform="rotate(69.164 167.283 -17.916)scale(1.47987)"><rect width="5.7234573" height="9.525322" x="94.87188" y="83.152039" rx="0" ry="0" style="fill:none;fill-opacity:1;stroke:#0c2127;stroke-width:1.25152;stroke-linecap:round;stroke-linejoin:round;stroke-miterlimit:4;stroke-dasharray:none;stroke-opacity:1"/><rect width="2.9439113" height="8.3537979" x="97.30732" y="83.746246" rx="0" ry="0" style="fill:#30839e;fill-opacity:1;stroke:#c8c8c8;stroke-width:1.25152;stroke-linecap:round;stroke-linejoin:round;stroke-miterlimit:4;stroke-dasharray:none;stroke-opacity:1"/><rect width="5.8917327" height="9.5253229" x="94.032333" y="83.156738" rx="0" ry="0" style="fill:#3c86c3;fill-opacity:1;stroke:#18364e;stroke-width:1.25152;stroke-linecap:round;stroke-linejoin:round;stroke-miterlimit:4;stroke-dasharray:none;stroke-opacity:1"/></g><g style="stroke-width:1.85208;stroke-dasharray:none" transform="rotate(-111.237 -75.052 -157.36)"><rect width="2.112179" height="1.0061817" x="-267.42255" y="-126.06653" rx="0" ry="0" style="opacity:.985;fill:#616161;fill-opacity:1;stroke:#333;stroke-width:.79375;stroke-linecap:round;stroke-linejoin:round;stroke-dasharray:none;stroke-opacity:1;stop-color:#000"/><rect width="2.112179" height="1.0061817" x="-267.42255" y="-134.64095" rx="0" ry="0" style="opacity:.985;fill:#616161;fill-opacity:1;stroke:#333;stroke-width:.79375;stroke-linecap:round;stroke-linejoin:round;stroke-dasharray:none;stroke-opacity:1;stop-color:#000"/><g transform="translate(0 -.052)"><rect width="2.2566941" height="4.5133882" x="-268.09329" y="-132.05498" rx="0" ry="0" style="opacity:.985;fill:#ccc;fill-opacity:1;stroke:#333;stroke-width:.79375;stroke-linecap:round;stroke-linejoin:round;stroke-dasharray:none;stroke-opacity:1;stop-color:#000"/><path d="M-266.548-128.247v-2.88" style="fill:#4d4d4d;fill-opacity:1;fill-rule:evenodd;stroke:#4d4d4d;stroke-width:.3175;stroke-linecap:square;stroke-linejoin:miter;stroke-dasharray:none;stroke-opacity:1" transform="translate(-.125 -.111)"/><path d="M-266.96-130.815v1.3m0 1.203v-.52" style="fill:#4d4d4d;fill-opacity:1;fill-rule:evenodd;stroke:#4d4d4d;stroke-width:.3175;stroke-linecap:square;stroke-linejoin:miter;stroke-dasharray:none;stroke-opacity:1" transform="translate(-.298 -.235)"/></g></g><path d="m25.744 32.45-5.127.637-1.742 1.327 3.548.926 1.375 3.327 2.66-1.251c2.055-1.036 3.698.883 5.372 2.585l1.133-5.032 5.357-1.2zm.333-17.145 1.463 3.53-4.104 2.992 4.718-.35 6.695 4.971.412-4.179 2.229-2.343-5.612-.01z" style="fill:#6c6042;fill-opacity:1;stroke:#2f2a1d;stroke-width:1.32292;stroke-linecap:round;stroke-linejoin:round;stroke-dasharray:none;stroke-opacity:1" transform="translate(-13.484 -14.643)"/><path d="M19.05 27.637a1.024 1.024 0 0 0 0-1.45 1.023 1.023 0 0 0-1.45 0l-3.298 3.298-6.454-6.454 3.298-3.298a1.023 1.023 0 0 0 0-1.45 1.024 1.024 0 0 0-1.45 0l-4.024 4.023-.036.039c-.367.401-.382.993-.027 1.348l7.968 7.968.063.064c.356.355.947.34 1.35-.027q.02-.017.037-.036z" style="display:inline;fill:gray;fill-opacity:1;stroke:#2e2e2e;stroke-width:.926042;stroke-miterlimit:4;stroke-dasharray:none;stroke-opacity:1" transform="translate(-4.419 -6.48)"/></svg>