<svg xmlns="http://www.w3.org/2000/svg" xml:space="preserve" width="125" height="125" viewBox="0 0 33.072916 33.072916"><path d="m131.323 204.321 3.409 1.078 1.01 4.209-4.37-1.02s-.82-4.511-.049-4.267" style="fill:#26272c;fill-opacity:1;stroke:none;stroke-width:0;stroke-linecap:butt;stroke-linejoin:round;stroke-dasharray:none;stroke-opacity:1" transform="rotate(75 351.438 38.585)scale(1.75)"/><path d="m134.732 205.4 1.01 4.208-4.37-1.02.835-2.545z" style="fill:#212226;fill-opacity:1;stroke:#333;stroke-width:0;stroke-linecap:butt;stroke-linejoin:round;stroke-dasharray:none" transform="rotate(75 351.438 38.585)scale(1.75)"/><path d="m135.237 207.504.504 2.104-2.184-.51.309-1.209z" style="fill:#1c1d20;fill-opacity:1;stroke:#333;stroke-width:0;stroke-linecap:butt;stroke-linejoin:round;stroke-dasharray:none" transform="rotate(75 351.438 38.585)scale(1.75)"/><path fill="none" d="m131.323 204.321 3.409 1.078s1.14 4.086 1.01 4.209c-.131.122-4.37-1.02-4.37-1.02s-.557-4.267-.049-4.267z" style="fill:#999;fill-opacity:0;stroke:#111113;stroke-width:.595063;stroke-linecap:butt;stroke-linejoin:round;stroke-dasharray:none;stroke-opacity:1" transform="rotate(75 351.438 38.585)scale(1.75)"/><path d="m131.323 204.321 3.409 1.078 1.01 4.209-4.37-1.02s-.82-4.511-.049-4.267" style="fill:#26272c;fill-opacity:1;stroke:none;stroke-width:0;stroke-linecap:butt;stroke-linejoin:round;stroke-dasharray:none;stroke-opacity:1" transform="rotate(-150 83.019 221.307)scale(1.75)"/><path d="m134.732 205.4 1.01 4.208-4.37-1.02.835-2.545z" style="fill:#212226;fill-opacity:1;stroke:#333;stroke-width:0;stroke-linecap:butt;stroke-linejoin:round;stroke-dasharray:none" transform="rotate(-150 83.019 221.307)scale(1.75)"/><path d="m135.237 207.504.504 2.104-2.184-.51.309-1.209z" style="fill:#1c1d20;fill-opacity:1;stroke:#333;stroke-width:0;stroke-linecap:butt;stroke-linejoin:round;stroke-dasharray:none" transform="rotate(-150 83.019 221.307)scale(1.75)"/><path fill="none" d="m131.323 204.321 3.409 1.078s1.14 4.086 1.01 4.209c-.131.122-4.37-1.02-4.37-1.02s-.557-4.267-.049-4.267z" style="fill:#999;fill-opacity:0;stroke:#111113;stroke-width:.595063;stroke-linecap:butt;stroke-linejoin:round;stroke-dasharray:none;stroke-opacity:1" transform="rotate(-150 83.019 221.307)scale(1.75)"/><path d="M136.353 208.54c0 1.515-1.478 1.377-2.742 2.09-1.402.552-2.667-.959-2.742-2.09-.102-1.51 1.227-2.742 2.742-2.742a2.74 2.74 0 0 1 2.742 2.742z" style="opacity:1;fill:#212226;fill-opacity:1;stroke:#333;stroke-width:0;stroke-linejoin:round" transform="rotate(-105 -8.984 279.732)scale(1.75)"/><path d="M136.353 208.54c0 1.515-.152.588-1.372 1.534-1.402.551.275-.824.2-1.954-.102-1.512-2.088-2.322-.574-2.322 1.014.877 1.746 1.228 1.746 2.742z" style="fill:#1c1d20;fill-opacity:1;stroke:#333;stroke-width:0;stroke-linejoin:round" transform="rotate(-105 -8.984 279.732)scale(1.75)"/><path d="M131.937 208.567c0 1.515.947 2.206.184 2.041-.454-.286-.845-.94-1.252-2.068.256-1.248.2-1.304 1.07-2.174 1.672-.568-.001.687-.001 2.201z" style="fill:#26272c;fill-opacity:1;stroke:#333;stroke-width:0;stroke-linejoin:round" transform="rotate(-105 -8.984 279.732)scale(1.75)"/><path fill="none" d="M136.353 208.54c0 1.515-1.478 1.377-2.742 2.09-1.402.552-2.667-.959-2.742-2.09-.102-1.51 1.227-2.742 2.742-2.742a2.74 2.74 0 0 1 2.742 2.742z" style="fill:#666;fill-opacity:0;stroke:#111113;stroke-width:.681914;stroke-linejoin:round;stroke-dasharray:none;stroke-opacity:1" transform="rotate(-105 -8.984 279.732)scale(1.75)"/><path d="M136.353 208.54c0 1.515-1.478 1.377-2.742 2.09-1.402.552-2.667-.959-2.742-2.09-.102-1.51 1.227-2.742 2.742-2.742a2.74 2.74 0 0 1 2.742 2.742z" style="opacity:1;fill:#212226;fill-opacity:1;stroke:#333;stroke-width:0;stroke-linejoin:round" transform="rotate(90 305.995 81.966)scale(1.75)"/><path d="M136.353 208.54c0 1.515-.152.588-1.372 1.534-1.402.551.275-.824.2-1.954-.102-1.512-2.088-2.322-.574-2.322 1.014.877 1.746 1.228 1.746 2.742z" style="fill:#1c1d20;fill-opacity:1;stroke:#333;stroke-width:0;stroke-linejoin:round" transform="rotate(90 305.995 81.966)scale(1.75)"/><path d="M131.937 208.567c0 1.515.947 2.206.184 2.041-.454-.286-.845-.94-1.252-2.068.256-1.248.2-1.304 1.07-2.174 1.672-.568-.001.687-.001 2.201z" style="fill:#26272c;fill-opacity:1;stroke:#333;stroke-width:0;stroke-linejoin:round" transform="rotate(90 305.995 81.966)scale(1.75)"/><path fill="none" d="M136.353 208.54c0 1.515-1.478 1.377-2.742 2.09-1.402.552-2.667-.959-2.742-2.09-.102-1.51 1.227-2.742 2.742-2.742a2.74 2.74 0 0 1 2.742 2.742z" style="fill:#666;fill-opacity:0;stroke:#111113;stroke-width:.681914;stroke-linejoin:round;stroke-dasharray:none;stroke-opacity:1" transform="rotate(90 305.995 81.966)scale(1.75)"/></svg>