<svg xmlns="http://www.w3.org/2000/svg" xml:space="preserve" width="28.611835mm" height="24.147943mm" viewBox="0 0 28.611835 24.147943"><g transform="translate(-50.421 -31.085)"><g transform="translate(-130.669 -84.699)"><circle cx="199.75278" cy="128.41595" r="1.1922457" style="fill:#eedfa6;fill-opacity:1;stroke:#41350c;stroke-width:1.32292;stroke-linecap:round;stroke-linejoin:round;stroke-dasharray:none;stroke-opacity:1"/><circle cx="185.99445" cy="127.35762" r="1.1922457" style="fill:#7b714a;fill-opacity:1;stroke:#1d1b11;stroke-width:1.32292;stroke-linecap:round;stroke-linejoin:round;stroke-dasharray:none;stroke-opacity:1"/><circle cx="195.12057" cy="137.43611" r="1.8344485" style="fill:#eedfa6;fill-opacity:1;stroke:#41350c;stroke-width:1.32292;stroke-linecap:round;stroke-linejoin:round;stroke-dasharray:none;stroke-opacity:1"/><path d="m203.48 117.1 1.79 1.542-8.053 9.355c-1.783 1.448-2.992.05-1.62-1.742z" style="fill:#666;fill-opacity:1;stroke:#333;stroke-width:1.32292;stroke-linecap:round;stroke-linejoin:round;stroke-dasharray:none;stroke-opacity:1"/><path d="M187.563 120.792c1.415 1.34 1.925.562 1.968-1.31l6.839 10.276c.77.536-2.123-3.206-2.113 1.09z" style="fill:#666;fill-opacity:1;stroke:#333;stroke-width:1.32292;stroke-linecap:round;stroke-linejoin:round;stroke-dasharray:none;stroke-opacity:1"/><circle cx="185.8429" cy="127.47066" r="1.8344485" style="fill:#eedfa6;fill-opacity:1;stroke:#41350c;stroke-width:1.32292;stroke-linecap:round;stroke-linejoin:round;stroke-dasharray:none;stroke-opacity:1"/><circle cx="206.30186" cy="131.93042" r="1.2071245" style="fill:#eedfa6;fill-opacity:1;stroke:#41350c;stroke-width:1.32292;stroke-linecap:round;stroke-linejoin:round;stroke-dasharray:none;stroke-opacity:1"/><circle cx="186.75327" cy="132.57143" r="1.2071245" style="fill:#eedfa6;fill-opacity:1;stroke:#41350c;stroke-width:1.32292;stroke-linecap:round;stroke-linejoin:round;stroke-dasharray:none;stroke-opacity:1"/><path d="M186.235 125.112c.964 1.694 1.678 1.097 2.263-.68l3.555 11.82c.106 1.43-2.368-1.83-2.34.429z" style="fill:#666;fill-opacity:1;stroke:#333;stroke-width:1.32292;stroke-linecap:round;stroke-linejoin:round;stroke-dasharray:none;stroke-opacity:1"/><path d="M199.465 118.085c-.667 0-1.207.54-1.207 1.208 0 .666.312 1.378.979 1.378.034.153.29.153.365.356a1.207 1.207 0 1 0 2.415 0c0-.667-.54-1.664-1.207-1.663.168-.331.13.125-.138-.071 0-.667-.54-1.208-1.207-1.208" style="fill:#eedfa6;fill-opacity:1;stroke:#41350c;stroke-width:1.32292;stroke-linecap:round;stroke-linejoin:round;stroke-opacity:1"/><path d="m123.63 171.427-1.728 3.02 1.058 3.885-4.296 4.478 4.227 3.002 6.446 1.74 2.235 1.271.129-6.16 4.669-4.43-4.204-.987-2.384-3.818-4.362.853z" style="fill:#616161;fill-opacity:1;stroke:#2b2b2b;stroke-width:1.32292;stroke-linecap:round;stroke-linejoin:round;stroke-dasharray:none;stroke-opacity:1" transform="translate(72.67 -51.578)"/><path d="m123.118 180.945-3.79-.498-.538-5.05-2.056 4.26-7.653 3.313 3.413 2.446.915 3.102 2.815-4.854z" style="fill:#616161;fill-opacity:1;stroke:#2b2b2b;stroke-width:1.32292;stroke-linecap:round;stroke-linejoin:round;stroke-dasharray:none;stroke-opacity:1" transform="translate(72.67 -51.578)"/></g><rect width="3.6900704" height="3.6900437" x="-63.396488" y="-39.33659" rx="0" ry="0" style="fill:#525252;fill-opacity:1;stroke:#262626;stroke-width:1.32292;stroke-linecap:round;stroke-linejoin:round;stroke-dasharray:none;stroke-opacity:1;stop-color:#000" transform="matrix(-.50398 -.86371 -.86375 .50393 0 0)"/><rect width="3.6900704" height="3.6900437" x="-11.818788" y="-88.73204" rx="0" ry="0" style="fill:#525252;fill-opacity:1;stroke:#262626;stroke-width:1.32292;stroke-linecap:round;stroke-linejoin:round;stroke-dasharray:none;stroke-opacity:1;stop-color:#000" transform="matrix(.496 -.86832 -.86829 -.49606 0 0)"/><rect width="3.6900704" height="3.6900437" x="-66.148315" y="-41.471909" rx="0" ry="0" style="fill:#525252;fill-opacity:1;stroke:#262626;stroke-width:1.32292;stroke-linecap:round;stroke-linejoin:round;stroke-dasharray:none;stroke-opacity:1;stop-color:#000" transform="matrix(-.26326 -.96472 -.96474 .2632 0 0)"/></g></svg>