<svg xmlns="http://www.w3.org/2000/svg" width="390.56732" height="238.73586" viewBox="0 0 103.3376 63.165528"><g transform="matrix(1 0 0 -1 -2880.479 -48.037)"><path d="m2955.434-57.031-3.93.875.894-1.628-2.65 1.263-1.5-.22 1.614-1.306 2.804-1.559.648-1.342-15.668 8.48 1.056.547 4.724-1.638-2.548 1.935 2.54-.313-3.652 3.385z" style="fill:#61341a;fill-opacity:1;stroke:#1d0f07;stroke-width:.529167;stroke-linecap:square;stroke-opacity:1"/><path d="M2889.32-82.978a1.024 1.024 0 0 1 1.445-.138c.438.362.499 1.006.137 1.444l-2.972 3.596 7.037 5.814 2.971-3.596a1.023 1.023 0 0 1 1.444-.137c.438.362.5 1.006.137 1.444l-3.625 4.387-.034.04c-.365.404-.953.475-1.34.155l-8.686-7.178-.07-.057c-.388-.32-.428-.91-.102-1.345l.035-.041zm83.334-21.812a1.024 1.024 0 0 1-.158 1.442 1.023 1.023 0 0 1-1.441-.158l-2.922-3.636-7.115 5.717 2.922 3.637a1.023 1.023 0 0 1-.157 1.442 1.024 1.024 0 0 1-1.442-.157l-3.565-4.436-.032-.042c-.32-.44-.272-1.03.12-1.344l8.783-7.058.07-.057c.392-.314.978-.235 1.338.173l.034.04z" style="display:inline;fill:gray;fill-opacity:1;stroke:#2e2e2e;stroke-width:.926042;stroke-miterlimit:4;stroke-dasharray:none;stroke-opacity:1"/><rect width="1.7244346" height="1.7290071" x="1830.3369" y="-2310.1489" rx="0.45817041" ry="0.45817041" style="fill:#606060;fill-opacity:1;stroke:none;stroke-width:2.53369;stroke-linecap:round;stroke-linejoin:round;stroke-miterlimit:5;stroke-dasharray:none;stroke-opacity:1;paint-order:fill markers stroke" transform="scale(1 -1)rotate(53.289)"/><rect width="4.1361995" height="1.7290094" x="2515.375" y="1554.4662" rx="0.45817041" ry="0.45817041" style="fill:#606060;fill-opacity:1;stroke:none;stroke-width:2.53369;stroke-linecap:round;stroke-linejoin:round;stroke-miterlimit:5;stroke-dasharray:none;stroke-opacity:1;paint-order:fill markers stroke" transform="scale(1 -1)rotate(-30.372)"/><rect width="1.7244346" height="1.7290071" x="1228.0297" y="2676.2234" rx="0.45817041" ry="0.45817041" style="fill:#606060;fill-opacity:1;stroke:none;stroke-width:2.53369;stroke-linecap:round;stroke-linejoin:round;stroke-miterlimit:5;stroke-dasharray:none;stroke-opacity:1;paint-order:fill markers stroke" transform="scale(1 -1)rotate(-63.961)"/><rect width="1.7244346" height="1.7290071" x="2518.4316" y="-1524.3032" rx="0.45817041" ry="0.45817041" style="fill:#606060;fill-opacity:1;stroke:none;stroke-width:2.53369;stroke-linecap:round;stroke-linejoin:round;stroke-miterlimit:5;stroke-dasharray:none;stroke-opacity:1;paint-order:fill markers stroke" transform="scale(1 -1)rotate(32.706)"/><rect width="1.7244346" height="1.7290071" x="1870.6313" y="2280.9575" rx="0.45817041" ry="0.45817041" style="fill:#606060;fill-opacity:1;stroke:none;stroke-width:2.53369;stroke-linecap:round;stroke-linejoin:round;stroke-miterlimit:5;stroke-dasharray:none;stroke-opacity:1;paint-order:fill markers stroke" transform="scale(1 -1)rotate(-49.108)"/><rect width="1.7244346" height="1.7290071" x="1822.1106" y="-2296.8132" rx="0.45817041" ry="0.45817041" style="fill:#606060;fill-opacity:1;stroke:none;stroke-width:2.53369;stroke-linecap:round;stroke-linejoin:round;stroke-miterlimit:5;stroke-dasharray:none;stroke-opacity:1;paint-order:fill markers stroke" transform="scale(1 -1)rotate(52.568)"/><rect width="1.7244346" height="1.7290071" x="1363.5275" y="2552.6304" rx="0.45817041" ry="0.45817041" style="fill:#606060;fill-opacity:1;stroke:none;stroke-width:2.53369;stroke-linecap:round;stroke-linejoin:round;stroke-miterlimit:5;stroke-dasharray:none;stroke-opacity:1;paint-order:fill markers stroke" transform="scale(1 -1)rotate(-60.562)"/><rect width="1.7244346" height="1.7290071" x="2445.1292" y="1591.3243" rx="0.45817041" ry="0.45817041" style="fill:#606060;fill-opacity:1;stroke:none;stroke-width:2.53369;stroke-linecap:round;stroke-linejoin:round;stroke-miterlimit:5;stroke-dasharray:none;stroke-opacity:1;paint-order:fill markers stroke" transform="scale(1 -1)rotate(-31.386)"/><rect width="1.7244346" height="1.7290071" x="2838.9924" y="-761.00397" rx="0.45817041" ry="0.45817041" style="fill:#606060;fill-opacity:1;stroke:none;stroke-width:2.53369;stroke-linecap:round;stroke-linejoin:round;stroke-miterlimit:5;stroke-dasharray:none;stroke-opacity:1;paint-order:fill markers stroke" transform="scale(1 -1)rotate(16.306)"/><rect width="1.7244346" height="1.7290071" x="2122.7283" y="-1980.3103" rx="0.45817041" ry="0.45817041" style="fill:#606060;fill-opacity:1;stroke:none;stroke-width:2.53369;stroke-linecap:round;stroke-linejoin:round;stroke-miterlimit:5;stroke-dasharray:none;stroke-opacity:1;paint-order:fill markers stroke" transform="scale(1 -1)rotate(44.567)"/><rect width="1.7244346" height="1.7290071" x="2086.2485" y="-2058.5925" rx="0.45817041" ry="0.45817041" style="fill:#606060;fill-opacity:1;stroke:none;stroke-width:2.53369;stroke-linecap:round;stroke-linejoin:round;stroke-miterlimit:5;stroke-dasharray:none;stroke-opacity:1;paint-order:fill markers stroke" transform="scale(1 -1)rotate(46.288)"/><rect width="4.3303752" height="1.7290071" x="2776.5854" y="-1015.0996" rx="0.45817041" ry="0.45817041" style="fill:#606060;fill-opacity:1;stroke:none;stroke-width:2.53369;stroke-linecap:round;stroke-linejoin:round;stroke-miterlimit:5;stroke-dasharray:none;stroke-opacity:1;paint-order:fill markers stroke" transform="scale(1 -1)rotate(21.614)"/><g transform="scale(1 -1)rotate(51.601 39.892 6183.404)"><path d="M-2979.334 124.766h32.422v12.7h-32.422z" style="fill:#3e3e3e;fill-opacity:1;stroke:#1f1f1f;stroke-width:1.462;stroke-linecap:round;stroke-linejoin:round;stroke-miterlimit:5;stroke-dasharray:none;stroke-opacity:1;paint-order:fill markers stroke"/><rect width="1.7244346" height="1.7290071" x="-2977.6731" y="126.36446" rx="0.45817041" ry="0.45817041" style="fill:#606060;fill-opacity:1;stroke:none;stroke-width:2.53369;stroke-linecap:round;stroke-linejoin:round;stroke-miterlimit:5;stroke-dasharray:none;stroke-opacity:1;paint-order:fill markers stroke"/><rect width="1.7244346" height="1.7290071" x="-2977.6731" y="134.5575" rx="0.45817041" ry="0.45817041" style="fill:#606060;fill-opacity:1;stroke:none;stroke-width:2.53369;stroke-linecap:round;stroke-linejoin:round;stroke-miterlimit:5;stroke-dasharray:none;stroke-opacity:1;paint-order:fill markers stroke"/><rect width="1.7244346" height="1.7290071" x="-2975.605" y="134.47656" rx="0.45817041" ry="0.45817041" style="fill:#606060;fill-opacity:1;stroke:none;stroke-width:2.53369;stroke-linecap:round;stroke-linejoin:round;stroke-miterlimit:5;stroke-dasharray:none;stroke-opacity:1;paint-order:fill markers stroke"/><rect width="1.7244346" height="1.7290071" x="-2973.5369" y="134.47656" rx="0.45817041" ry="0.45817041" style="fill:#606060;fill-opacity:1;stroke:none;stroke-width:2.53369;stroke-linecap:round;stroke-linejoin:round;stroke-miterlimit:5;stroke-dasharray:none;stroke-opacity:1;paint-order:fill markers stroke"/><rect width="1.7244346" height="1.7290071" x="-2971.4688" y="134.47656" rx="0.45817041" ry="0.45817041" style="fill:#606060;fill-opacity:1;stroke:none;stroke-width:2.53369;stroke-linecap:round;stroke-linejoin:round;stroke-miterlimit:5;stroke-dasharray:none;stroke-opacity:1;paint-order:fill markers stroke"/><rect width="1.7244346" height="1.7290071" x="-2956.9922" y="134.52022" rx="0.45817041" ry="0.45817041" style="fill:#606060;fill-opacity:1;stroke:none;stroke-width:2.53369;stroke-linecap:round;stroke-linejoin:round;stroke-miterlimit:5;stroke-dasharray:none;stroke-opacity:1;paint-order:fill markers stroke"/><rect width="1.7244346" height="1.7290071" x="-2954.9241" y="134.51613" rx="0.45817041" ry="0.45817041" style="fill:#606060;fill-opacity:1;stroke:none;stroke-width:2.53369;stroke-linecap:round;stroke-linejoin:round;stroke-miterlimit:5;stroke-dasharray:none;stroke-opacity:1;paint-order:fill markers stroke"/><rect width="2.2622824" height="1.7290071" x="-2950.7878" y="134.51613" rx="0.45817041" ry="0.45817041" style="fill:#606060;fill-opacity:1;stroke:none;stroke-width:2.53369;stroke-linecap:round;stroke-linejoin:round;stroke-miterlimit:5;stroke-dasharray:none;stroke-opacity:1;paint-order:fill markers stroke"/><rect width="12.064934" height="1.7290071" x="-2969.4006" y="134.47656" rx="0.45817041" ry="0.45817041" style="fill:#606060;fill-opacity:1;stroke:none;stroke-width:2.53369;stroke-linecap:round;stroke-linejoin:round;stroke-miterlimit:5;stroke-dasharray:none;stroke-opacity:1;paint-order:fill markers stroke"/><rect width="2.7626474" height="1.7290094" x="-2977.6589" y="128.48203" rx="0.45817041" ry="0.45817041" style="fill:#606060;fill-opacity:1;stroke:none;stroke-width:2.53369;stroke-linecap:round;stroke-linejoin:round;stroke-miterlimit:5;stroke-dasharray:none;stroke-opacity:1;paint-order:fill markers stroke"/><rect width="3.3012776" height="1.7290094" x="-2977.6731" y="130.45747" rx="0.45817041" ry="0.45817041" style="fill:#606060;fill-opacity:1;stroke:none;stroke-width:2.53369;stroke-linecap:round;stroke-linejoin:round;stroke-miterlimit:5;stroke-dasharray:none;stroke-opacity:1;paint-order:fill markers stroke"/><rect width="4.7954493" height="1.7371882" x="-2953.321" y="132.49931" rx="0.45817041" ry="0.45817041" style="fill:#606060;fill-opacity:1;stroke:none;stroke-width:2.53369;stroke-linecap:round;stroke-linejoin:round;stroke-miterlimit:5;stroke-dasharray:none;stroke-opacity:1;paint-order:fill markers stroke"/><rect width="1.7244346" height="1.7290071" x="-2975.605" y="126.36446" rx="0.45817041" ry="0.45817041" style="fill:#606060;fill-opacity:1;stroke:none;stroke-width:2.53369;stroke-linecap:round;stroke-linejoin:round;stroke-miterlimit:5;stroke-dasharray:none;stroke-opacity:1;paint-order:fill markers stroke"/><rect width="1.7244346" height="1.7290071" x="-2973.9272" y="130.49475" rx="0.45817041" ry="0.45817041" style="fill:#606060;fill-opacity:1;stroke:none;stroke-width:2.53369;stroke-linecap:round;stroke-linejoin:round;stroke-miterlimit:5;stroke-dasharray:none;stroke-opacity:1;paint-order:fill markers stroke"/><rect width="1.7244346" height="1.7290071" x="-2969.7683" y="130.49475" rx="0.45817041" ry="0.45817041" style="fill:#606060;fill-opacity:1;stroke:none;stroke-width:2.53369;stroke-linecap:round;stroke-linejoin:round;stroke-miterlimit:5;stroke-dasharray:none;stroke-opacity:1;paint-order:fill markers stroke"/><rect width="1.7244346" height="1.7290071" x="-2967.7136" y="130.49475" rx="0.45817041" ry="0.45817041" style="fill:#606060;fill-opacity:1;stroke:none;stroke-width:2.53369;stroke-linecap:round;stroke-linejoin:round;stroke-miterlimit:5;stroke-dasharray:none;stroke-opacity:1;paint-order:fill markers stroke"/><rect width="1.7244346" height="1.7290071" x="-2965.6589" y="130.49475" rx="0.45817041" ry="0.45817041" style="fill:#606060;fill-opacity:1;stroke:none;stroke-width:2.53369;stroke-linecap:round;stroke-linejoin:round;stroke-miterlimit:5;stroke-dasharray:none;stroke-opacity:1;paint-order:fill markers stroke"/><rect width="1.7244346" height="1.7290071" x="-2963.6042" y="130.49475" rx="0.45817041" ry="0.45817041" style="fill:#606060;fill-opacity:1;stroke:none;stroke-width:2.53369;stroke-linecap:round;stroke-linejoin:round;stroke-miterlimit:5;stroke-dasharray:none;stroke-opacity:1;paint-order:fill markers stroke"/><rect width="1.7244346" height="1.7290071" x="-2961.5496" y="130.49475" rx="0.45817041" ry="0.45817041" style="fill:#606060;fill-opacity:1;stroke:none;stroke-width:2.53369;stroke-linecap:round;stroke-linejoin:round;stroke-miterlimit:5;stroke-dasharray:none;stroke-opacity:1;paint-order:fill markers stroke"/><rect width="1.7244346" height="1.7290071" x="-2957.4402" y="130.49475" rx="0.45817041" ry="0.45817041" style="fill:#606060;fill-opacity:1;stroke:none;stroke-width:2.53369;stroke-linecap:round;stroke-linejoin:round;stroke-miterlimit:5;stroke-dasharray:none;stroke-opacity:1;paint-order:fill markers stroke"/><rect width="1.7244346" height="1.7290071" x="-2955.3855" y="130.49066" rx="0.45817041" ry="0.45817041" style="fill:#606060;fill-opacity:1;stroke:none;stroke-width:2.53369;stroke-linecap:round;stroke-linejoin:round;stroke-miterlimit:5;stroke-dasharray:none;stroke-opacity:1;paint-order:fill markers stroke"/><rect width="1.7244346" height="1.7290071" x="-2973.0649" y="132.50749" rx="0.45817041" ry="0.45817041" style="fill:#606060;fill-opacity:1;stroke:none;stroke-width:2.53369;stroke-linecap:round;stroke-linejoin:round;stroke-miterlimit:5;stroke-dasharray:none;stroke-opacity:1;paint-order:fill markers stroke"/><rect width="1.7244346" height="1.7290071" x="-2970.8687" y="132.50749" rx="0.45817041" ry="0.45817041" style="fill:#606060;fill-opacity:1;stroke:none;stroke-width:2.53369;stroke-linecap:round;stroke-linejoin:round;stroke-miterlimit:5;stroke-dasharray:none;stroke-opacity:1;paint-order:fill markers stroke"/><rect width="1.7244346" height="1.7290071" x="-2966.4758" y="132.50749" rx="0.45817041" ry="0.45817041" style="fill:#606060;fill-opacity:1;stroke:none;stroke-width:2.53369;stroke-linecap:round;stroke-linejoin:round;stroke-miterlimit:5;stroke-dasharray:none;stroke-opacity:1;paint-order:fill markers stroke"/><rect width="1.7244346" height="1.7290071" x="-2964.2793" y="132.50749" rx="0.45817041" ry="0.45817041" style="fill:#606060;fill-opacity:1;stroke:none;stroke-width:2.53369;stroke-linecap:round;stroke-linejoin:round;stroke-miterlimit:5;stroke-dasharray:none;stroke-opacity:1;paint-order:fill markers stroke"/><rect width="1.7244346" height="1.7290071" x="-2962.0828" y="132.50749" rx="0.45817041" ry="0.45817041" style="fill:#606060;fill-opacity:1;stroke:none;stroke-width:2.53369;stroke-linecap:round;stroke-linejoin:round;stroke-miterlimit:5;stroke-dasharray:none;stroke-opacity:1;paint-order:fill markers stroke"/><rect width="1.7244346" height="1.7290071" x="-2959.8865" y="132.50749" rx="0.45817041" ry="0.45817041" style="fill:#606060;fill-opacity:1;stroke:none;stroke-width:2.53369;stroke-linecap:round;stroke-linejoin:round;stroke-miterlimit:5;stroke-dasharray:none;stroke-opacity:1;paint-order:fill markers stroke"/><rect width="1.7244346" height="1.7290071" x="-2957.6899" y="132.50749" rx="0.45817041" ry="0.45817041" style="fill:#606060;fill-opacity:1;stroke:none;stroke-width:2.53369;stroke-linecap:round;stroke-linejoin:round;stroke-miterlimit:5;stroke-dasharray:none;stroke-opacity:1;paint-order:fill markers stroke"/><rect width="1.7244346" height="1.7290071" x="-2955.4937" y="132.49931" rx="0.45817041" ry="0.45817041" style="fill:#606060;fill-opacity:1;stroke:none;stroke-width:2.53369;stroke-linecap:round;stroke-linejoin:round;stroke-miterlimit:5;stroke-dasharray:none;stroke-opacity:1;paint-order:fill markers stroke"/><rect width="1.7244346" height="1.7290071" x="-2970.3838" y="128.48203" rx="0.45817041" ry="0.45817041" style="fill:#606060;fill-opacity:1;stroke:none;stroke-width:2.53369;stroke-linecap:round;stroke-linejoin:round;stroke-miterlimit:5;stroke-dasharray:none;stroke-opacity:1;paint-order:fill markers stroke"/><rect width="1.7244346" height="1.7290071" x="-2968.3157" y="128.48203" rx="0.45817041" ry="0.45817041" style="fill:#606060;fill-opacity:1;stroke:none;stroke-width:2.53369;stroke-linecap:round;stroke-linejoin:round;stroke-miterlimit:5;stroke-dasharray:none;stroke-opacity:1;paint-order:fill markers stroke"/><rect width="1.7244346" height="1.7290071" x="-2966.2476" y="128.48203" rx="0.45817041" ry="0.45817041" style="fill:#606060;fill-opacity:1;stroke:none;stroke-width:2.53369;stroke-linecap:round;stroke-linejoin:round;stroke-miterlimit:5;stroke-dasharray:none;stroke-opacity:1;paint-order:fill markers stroke"/><rect width="1.7244346" height="1.7290071" x="-2962.1113" y="128.48203" rx="0.45817041" ry="0.45817041" style="fill:#606060;fill-opacity:1;stroke:none;stroke-width:2.53369;stroke-linecap:round;stroke-linejoin:round;stroke-miterlimit:5;stroke-dasharray:none;stroke-opacity:1;paint-order:fill markers stroke"/><rect width="1.7244346" height="1.7290071" x="-2960.0432" y="128.48203" rx="0.45817041" ry="0.45817041" style="fill:#606060;fill-opacity:1;stroke:none;stroke-width:2.53369;stroke-linecap:round;stroke-linejoin:round;stroke-miterlimit:5;stroke-dasharray:none;stroke-opacity:1;paint-order:fill markers stroke"/><rect width="1.7244346" height="1.7290071" x="-2957.9751" y="128.48203" rx="0.45817041" ry="0.45817041" style="fill:#606060;fill-opacity:1;stroke:none;stroke-width:2.53369;stroke-linecap:round;stroke-linejoin:round;stroke-miterlimit:5;stroke-dasharray:none;stroke-opacity:1;paint-order:fill markers stroke"/><rect width="1.7244346" height="1.7290071" x="-2953.8389" y="128.42757" rx="0.45817041" ry="0.45817041" style="fill:#606060;fill-opacity:1;stroke:none;stroke-width:2.53369;stroke-linecap:round;stroke-linejoin:round;stroke-miterlimit:5;stroke-dasharray:none;stroke-opacity:1;paint-order:fill markers stroke"/><rect width="1.7244346" height="1.7290071" x="-2973.5369" y="126.36446" rx="0.45817041" ry="0.45817041" style="fill:#606060;fill-opacity:1;stroke:none;stroke-width:2.53369;stroke-linecap:round;stroke-linejoin:round;stroke-miterlimit:5;stroke-dasharray:none;stroke-opacity:1;paint-order:fill markers stroke"/><rect width="1.7244346" height="1.7290071" x="-2971.4688" y="126.36446" rx="0.45817041" ry="0.45817041" style="fill:#606060;fill-opacity:1;stroke:none;stroke-width:2.53369;stroke-linecap:round;stroke-linejoin:round;stroke-miterlimit:5;stroke-dasharray:none;stroke-opacity:1;paint-order:fill markers stroke"/><rect width="1.7244346" height="1.7290071" x="-2969.4006" y="126.36446" rx="0.45817041" ry="0.45817041" style="fill:#606060;fill-opacity:1;stroke:none;stroke-width:2.53369;stroke-linecap:round;stroke-linejoin:round;stroke-miterlimit:5;stroke-dasharray:none;stroke-opacity:1;paint-order:fill markers stroke"/><rect width="1.7244346" height="1.7290071" x="-2967.3325" y="126.36446" rx="0.45817041" ry="0.45817041" style="fill:#606060;fill-opacity:1;stroke:none;stroke-width:2.53369;stroke-linecap:round;stroke-linejoin:round;stroke-miterlimit:5;stroke-dasharray:none;stroke-opacity:1;paint-order:fill markers stroke"/><rect width="1.7244346" height="1.7290071" x="-2965.2646" y="126.36446" rx="0.45817041" ry="0.45817041" style="fill:#606060;fill-opacity:1;stroke:none;stroke-width:2.53369;stroke-linecap:round;stroke-linejoin:round;stroke-miterlimit:5;stroke-dasharray:none;stroke-opacity:1;paint-order:fill markers stroke"/><rect width="1.7244346" height="1.7290071" x="-2961.1284" y="126.36446" rx="0.45817041" ry="0.45817041" style="fill:#606060;fill-opacity:1;stroke:none;stroke-width:2.53369;stroke-linecap:round;stroke-linejoin:round;stroke-miterlimit:5;stroke-dasharray:none;stroke-opacity:1;paint-order:fill markers stroke"/><rect width="1.7244346" height="1.7290071" x="-2956.9922" y="126.36446" rx="0.45817041" ry="0.45817041" style="fill:#606060;fill-opacity:1;stroke:none;stroke-width:2.53369;stroke-linecap:round;stroke-linejoin:round;stroke-miterlimit:5;stroke-dasharray:none;stroke-opacity:1;paint-order:fill markers stroke"/><rect width="1.7244346" height="1.7290071" x="-2954.9241" y="126.36446" rx="0.45817041" ry="0.45817041" style="fill:#606060;fill-opacity:1;stroke:none;stroke-width:2.53369;stroke-linecap:round;stroke-linejoin:round;stroke-miterlimit:5;stroke-dasharray:none;stroke-opacity:1;paint-order:fill markers stroke"/><rect width="4.5429969" height="1.6958215" x="-2953.0686" y="130.49066" rx="0.45817041" ry="0.45817041" style="fill:#606060;fill-opacity:1;stroke:none;stroke-width:2.53369;stroke-linecap:round;stroke-linejoin:round;stroke-miterlimit:5;stroke-dasharray:none;stroke-opacity:1;paint-order:fill markers stroke"/></g><rect width="3.2851579" height="1.7834696" x="1527.5488" y="2450.2927" rx="0.45817041" ry="0.45817041" style="fill:#606060;fill-opacity:1;stroke:none;stroke-width:2.53369;stroke-linecap:round;stroke-linejoin:round;stroke-miterlimit:5;stroke-dasharray:none;stroke-opacity:1;paint-order:fill markers stroke" transform="scale(1 -1)rotate(-56.749)"/><rect width="15.024892" height="7.0491695" x="-344.91687" y="-2937.0991" ry="0" style="fill:#3e3e3e;fill-opacity:1;stroke:#1f1f1f;stroke-width:1.46199;stroke-linecap:round;stroke-linejoin:round;stroke-miterlimit:5;stroke-dasharray:none;stroke-opacity:1;paint-order:fill markers stroke" transform="scale(-1 1)rotate(-82.308)"/><path d="M2960.81-51.766a1.254 1.254 0 0 0 1.755.279l10.161-7.373a1.254 1.254 0 0 0 .28-1.756l-3.675-5.064-6.81 3.339-.314 1.83-6.608 1.563z" style="fill:#9a8a59;fill-opacity:1;stroke:#30291b;stroke-width:1.05833;stroke-linecap:round;stroke-linejoin:round;stroke-miterlimit:5;stroke-dasharray:none;stroke-opacity:1;paint-order:fill markers stroke"/><path d="M2798.81 984.16h11.113v15.345h-11.112z" style="fill:#f3f3f3;fill-opacity:1;stroke:#999;stroke-width:1.2;stroke-linecap:round;stroke-linejoin:round;stroke-dasharray:none;stroke-opacity:1;stop-color:#000" transform="scale(1 -1)rotate(-18.064)"/><rect width="4.3965836" height="0.60803813" x="2802.2356" y="986.03326" rx="0.033072915" ry="0.033072915" style="fill:#999;fill-opacity:1;stroke:none;stroke-width:1.19372;stroke-linecap:round;stroke-linejoin:round;stroke-miterlimit:5;stroke-dasharray:none;stroke-opacity:1;paint-order:fill markers stroke" transform="scale(1 -1)rotate(-18.064)"/><rect width="8.4189901" height="0.60803813" x="2800.1309" y="987.50659" rx="0.033072915" ry="0.033072915" style="fill:#999;fill-opacity:1;stroke:none;stroke-width:1.19372;stroke-linecap:round;stroke-linejoin:round;stroke-miterlimit:5;stroke-dasharray:none;stroke-opacity:1;paint-order:fill markers stroke" transform="scale(1 -1)rotate(-18.064)"/><rect width="8.4189901" height="0.60803813" x="2800.1309" y="988.73029" rx="0.033072915" ry="0.033072915" style="fill:#999;fill-opacity:1;stroke:none;stroke-width:1.19372;stroke-linecap:round;stroke-linejoin:round;stroke-miterlimit:5;stroke-dasharray:none;stroke-opacity:1;paint-order:fill markers stroke" transform="scale(1 -1)rotate(-18.064)"/><rect width="8.4189901" height="0.60803813" x="2800.1309" y="989.98706" rx="0.033072915" ry="0.033072915" style="fill:#999;fill-opacity:1;stroke:none;stroke-width:1.19372;stroke-linecap:round;stroke-linejoin:round;stroke-miterlimit:5;stroke-dasharray:none;stroke-opacity:1;paint-order:fill markers stroke" transform="scale(1 -1)rotate(-18.064)"/><rect width="8.4189901" height="0.60803813" x="2800.1309" y="991.21075" rx="0.033072915" ry="0.033072915" style="fill:#999;fill-opacity:1;stroke:none;stroke-width:1.19372;stroke-linecap:round;stroke-linejoin:round;stroke-miterlimit:5;stroke-dasharray:none;stroke-opacity:1;paint-order:fill markers stroke" transform="scale(1 -1)rotate(-18.064)"/><rect width="8.4189901" height="0.60803813" x="2800.1309" y="992.41791" rx="0.033072915" ry="0.033072915" style="fill:#999;fill-opacity:1;stroke:none;stroke-width:1.19372;stroke-linecap:round;stroke-linejoin:round;stroke-miterlimit:5;stroke-dasharray:none;stroke-opacity:1;paint-order:fill markers stroke" transform="scale(1 -1)rotate(-18.064)"/><rect width="8.4189901" height="0.60803813" x="2800.1309" y="993.6416" rx="0.033072915" ry="0.033072915" style="fill:#999;fill-opacity:1;stroke:none;stroke-width:1.19372;stroke-linecap:round;stroke-linejoin:round;stroke-miterlimit:5;stroke-dasharray:none;stroke-opacity:1;paint-order:fill markers stroke" transform="scale(1 -1)rotate(-18.064)"/><rect width="8.4189901" height="0.60803813" x="2800.1309" y="994.89838" rx="0.033072915" ry="0.033072915" style="fill:#999;fill-opacity:1;stroke:none;stroke-width:1.19372;stroke-linecap:round;stroke-linejoin:round;stroke-miterlimit:5;stroke-dasharray:none;stroke-opacity:1;paint-order:fill markers stroke" transform="scale(1 -1)rotate(-18.064)"/><rect width="4.4998493" height="0.60803813" x="2800.1309" y="996.12207" rx="0.033072915" ry="0.033072915" style="fill:#999;fill-opacity:1;stroke:none;stroke-width:1.19372;stroke-linecap:round;stroke-linejoin:round;stroke-miterlimit:5;stroke-dasharray:none;stroke-opacity:1;paint-order:fill markers stroke" transform="scale(1 -1)rotate(-18.064)"/><rect width="2.6477659" height="0.60803813" x="2805.8689" y="997.79224" rx="0.033072915" ry="0.033072915" style="fill:#999;fill-opacity:1;stroke:none;stroke-width:1.19372;stroke-linecap:round;stroke-linejoin:round;stroke-miterlimit:5;stroke-dasharray:none;stroke-opacity:1;paint-order:fill markers stroke" transform="scale(1 -1)rotate(-18.064)"/><g transform="rotate(-72.732 2951.326 -66.972)"><ellipse cx="2897.2327" cy="567.53796" rx="2.6367474" ry="3.9789164" style="fill:#3e3e3e;fill-opacity:1;stroke:#1f1f1f;stroke-width:1.462;stroke-linecap:square;stroke-linejoin:miter;stroke-miterlimit:5;stroke-dasharray:none;stroke-opacity:1;paint-order:fill markers stroke" transform="matrix(.98537 .17044 .16938 -.98555 0 0)"/><rect width="0.77059895" height="3.8529952" x="-2892.3606" y="-590.83484" rx="0.033072915" ry="0.033072915" style="fill:#1f1f1f;fill-opacity:1;stroke:#1f1f1f;stroke-width:.1;stroke-linecap:round;stroke-linejoin:round;stroke-dasharray:none;stroke-opacity:1;stop-color:#000" transform="scale(-1 1)rotate(-10.277)"/></g><g transform="scale(-1 1)rotate(-32.228 88.987 10106.753)"><rect width="30.673477" height="16.611244" x="-2975.7778" y="97.187302" ry="0" style="fill:#454545;fill-opacity:1;stroke:#1f1f1f;stroke-width:1.462;stroke-linecap:square;stroke-linejoin:miter;stroke-miterlimit:5;stroke-dasharray:none;stroke-opacity:1;paint-order:fill markers stroke" transform="scale(-1)"/><path d="M2947.02 99.101h26.842v12.784h-26.842z" style="fill:#000;fill-opacity:1;stroke:none;stroke-width:2.30002;stroke-linecap:round;stroke-dasharray:none" transform="scale(1 -1)"/><path d="m2956.145-103.281 1.988 1.911 2.282-2.018 3.205 2.352.631-4.14 1.778-1.65-3.451-.336.892-3.087-2.416 1.4-1.6-1.759-.645 2.318-2.525-1.643.7 2.54-3.506-.364 1.614 1.948-1.72 2.69z" style="fill:#272727;fill-opacity:1;stroke:none;stroke-width:2.30002;stroke-linecap:round;stroke-dasharray:none"/></g><path d="m2885.498-54.09 1.34-.134.353-.523.691.206-.327.694 1.126-.552.503.227-.335.82 1.384-.77.35.788-1.193.975.131 1.706 9.452-11.064-1.087.375s-1.176.347-1.262.34c-.086-.008.68-.714.68-.714l-.086-.742-.67.685-1.143.844.862-2.149-.623.553-.579-.37.693-.832-.988.251.18-1.678zm82.235-51.342-.226 1.14.951.431.286.767-1.26-.081 1.131 1.455-.653-.03.47.691-.335.671-.622-.14-.85.08-1.19-.218 13.11 6.32-1.523-1.334-.138-.548.673-.536-1.686-.997 2.436.048-.832-.644.464-.366-.246-.811 3.149.42zm-13.189 33.348-.6-1.166.042-.692-.53-.416-.01-.866.846.4.402-.113.376-.318-.45-.679.277-.142.342.015.161-.458.44.129.537-.266.294.139.56-.125-12.344-7.548-.02.033.704 1.155.448.713.12.51-.456-.158-.083.533.43.805-1.003-.671-.247.304.215.254.377.961-1.55-.414.254.608-1.934-.144-.013.027z" style="fill:#61341a;fill-opacity:1;stroke:#1d0f07;stroke-width:.529167;stroke-linecap:square;stroke-linejoin:miter;stroke-miterlimit:4;stroke-dasharray:none;stroke-opacity:1"/><path d="m2970.617-71.29 3.85-5.457-1.225 4.383 1.777-2.969-.975 3.85 1.335-1.61-.582 3.342 6.16-16.716-.78.735-2.447 3.71 1.802-4.293-2.387 3.215.994-2.747-.664.152-1.622 2.655.925-4.967zm6.841 23.109-.295-3.653.974 1.227-.593-2.174 1.679 2.881-.358-2 .546-.585.62 1.392 1.581 1.306-6.423-16.617s.35 3.523.304 3.439-1.174-1.222-1.174-1.222l.419 1.295.89 2.351-1.14-1.35.65 2.512-2-3.383.377 2.056-2.48-4.092z" style="fill:#61341a;fill-opacity:1;stroke:#1d0f07;stroke-width:.529167;stroke-linecap:square;stroke-opacity:1"/></g></svg>