<svg xmlns="http://www.w3.org/2000/svg" width="390.56732" height="238.73586" viewBox="0 0 103.3376 63.165528"><g transform="matrix(1 0 0 -1 -2880.479 -48.037)"><path d="m2908.702-74.459 3.93.876-.895-1.628 2.65 1.263 1.5-.22-1.614-1.306-2.804-1.56-.648-1.341 15.668 8.48-1.056.547-4.723-1.639 2.548 1.936-2.54-.313 3.651 3.385z" style="fill:#61341a;fill-opacity:1;stroke:#1d0f07;stroke-width:.529167;stroke-linecap:square;stroke-opacity:1"/><path d="M2972.384-69.709a1.024 1.024 0 0 0 1.448-.09 1.023 1.023 0 0 0-.09-1.447l-3.496-3.088 6.043-6.841 3.496 3.088a1.023 1.023 0 0 0 1.448-.09 1.023 1.023 0 0 0-.09-1.447l-4.265-3.768-.04-.035c-.424-.34-1.015-.32-1.348.057l-7.46 8.445-.06.068c-.332.376-.28.966.11 1.344l.04.035zm-68.739-39.293a1.024 1.024 0 0 0-1.323.594 1.023 1.023 0 0 0 .595 1.323l4.361 1.655-3.239 8.534-4.361-1.655a1.023 1.023 0 0 0-1.323.594 1.024 1.024 0 0 0 .595 1.323l5.32 2.02.05.017c.517.17 1.063-.059 1.241-.528l4-10.535.031-.084c.178-.47-.078-1.003-.577-1.22l-.05-.019z" style="display:inline;fill:gray;fill-opacity:1;stroke:#2e2e2e;stroke-width:.926042;stroke-miterlimit:4;stroke-dasharray:none;stroke-opacity:1"/><rect width="1.7244346" height="1.7290071" x="-1676.9803" y="2393.3574" rx="0.45817041" ry="0.45817041" style="fill:#606060;fill-opacity:1;stroke:none;stroke-width:2.53369;stroke-linecap:round;stroke-linejoin:round;stroke-miterlimit:5;stroke-dasharray:none;stroke-opacity:1;paint-order:fill markers stroke" transform="rotate(-126.711)"/><rect width="4.1361995" height="1.7290094" x="-2546.634" y="-1412.0654" rx="0.45817041" ry="0.45817041" style="fill:#606060;fill-opacity:1;stroke:none;stroke-width:2.53369;stroke-linecap:round;stroke-linejoin:round;stroke-miterlimit:5;stroke-dasharray:none;stroke-opacity:1;paint-order:fill markers stroke" transform="rotate(149.628)"/><rect width="1.7244346" height="1.7290071" x="-1372.4823" y="-2623.498" rx="0.45817041" ry="0.45817041" style="fill:#606060;fill-opacity:1;stroke:none;stroke-width:2.53369;stroke-linecap:round;stroke-linejoin:round;stroke-miterlimit:5;stroke-dasharray:none;stroke-opacity:1;paint-order:fill markers stroke" transform="rotate(116.04)"/><rect width="1.7244346" height="1.7290071" x="-2418.5547" y="1645.9353" rx="0.45817041" ry="0.45817041" style="fill:#606060;fill-opacity:1;stroke:none;stroke-width:2.53369;stroke-linecap:round;stroke-linejoin:round;stroke-miterlimit:5;stroke-dasharray:none;stroke-opacity:1;paint-order:fill markers stroke" transform="rotate(-147.294)"/><rect width="1.7244346" height="1.7290071" x="-1970.2286" y="-2154.3599" rx="0.45817041" ry="0.45817041" style="fill:#606060;fill-opacity:1;stroke:none;stroke-width:2.53369;stroke-linecap:round;stroke-linejoin:round;stroke-miterlimit:5;stroke-dasharray:none;stroke-opacity:1;paint-order:fill markers stroke" transform="rotate(130.892)"/><rect width="1.7244346" height="1.7290071" x="-1724.7573" y="2389.4531" rx="0.45817041" ry="0.45817041" style="fill:#606060;fill-opacity:1;stroke:none;stroke-width:2.53369;stroke-linecap:round;stroke-linejoin:round;stroke-miterlimit:5;stroke-dasharray:none;stroke-opacity:1;paint-order:fill markers stroke" transform="rotate(-127.432)"/><rect width="1.7244346" height="1.7290071" x="-1520.0702" y="-2557.0771" rx="0.45817041" ry="0.45817041" style="fill:#606060;fill-opacity:1;stroke:none;stroke-width:2.53369;stroke-linecap:round;stroke-linejoin:round;stroke-miterlimit:5;stroke-dasharray:none;stroke-opacity:1;paint-order:fill markers stroke" transform="rotate(119.438)"/><rect width="1.7244346" height="1.7290071" x="-2538.2549" y="-1472.8416" rx="0.45817041" ry="0.45817041" style="fill:#606060;fill-opacity:1;stroke:none;stroke-width:2.53369;stroke-linecap:round;stroke-linejoin:round;stroke-miterlimit:5;stroke-dasharray:none;stroke-opacity:1;paint-order:fill markers stroke" transform="rotate(148.613)"/><rect width="1.7244346" height="1.7290071" x="-2792.2241" y="886.31061" rx="0.45817041" ry="0.45817041" style="fill:#606060;fill-opacity:1;stroke:none;stroke-width:2.53369;stroke-linecap:round;stroke-linejoin:round;stroke-miterlimit:5;stroke-dasharray:none;stroke-opacity:1;paint-order:fill markers stroke" transform="rotate(-163.694)"/><rect width="1.7244346" height="1.7290071" x="-2057.2263" y="2136.9978" rx="0.45817041" ry="0.45817041" style="fill:#606060;fill-opacity:1;stroke:none;stroke-width:2.53369;stroke-linecap:round;stroke-linejoin:round;stroke-miterlimit:5;stroke-dasharray:none;stroke-opacity:1;paint-order:fill markers stroke" transform="rotate(-135.433)"/><rect width="1.7244346" height="1.7290071" x="-2005.7574" y="2201.968" rx="0.45817041" ry="0.45817041" style="fill:#606060;fill-opacity:1;stroke:none;stroke-width:2.53369;stroke-linecap:round;stroke-linejoin:round;stroke-miterlimit:5;stroke-dasharray:none;stroke-opacity:1;paint-order:fill markers stroke" transform="rotate(-133.712)"/><rect width="4.3303752" height="1.7290071" x="-2680.219" y="1150.6393" rx="0.45817041" ry="0.45817041" style="fill:#606060;fill-opacity:1;stroke:none;stroke-width:2.53369;stroke-linecap:round;stroke-linejoin:round;stroke-miterlimit:5;stroke-dasharray:none;stroke-opacity:1;paint-order:fill markers stroke" transform="rotate(-158.386)"/><g transform="rotate(-165.184 -22.238 -355.347)"><path d="M-2979.334 124.766h32.422v12.7h-32.422z" style="fill:#3e3e3e;fill-opacity:1;stroke:#1f1f1f;stroke-width:1.462;stroke-linecap:round;stroke-linejoin:round;stroke-miterlimit:5;stroke-dasharray:none;stroke-opacity:1;paint-order:fill markers stroke"/><rect width="1.7244346" height="1.7290071" x="-2977.6731" y="126.36446" rx="0.45817041" ry="0.45817041" style="fill:#606060;fill-opacity:1;stroke:none;stroke-width:2.53369;stroke-linecap:round;stroke-linejoin:round;stroke-miterlimit:5;stroke-dasharray:none;stroke-opacity:1;paint-order:fill markers stroke"/><rect width="1.7244346" height="1.7290071" x="-2977.6731" y="134.5575" rx="0.45817041" ry="0.45817041" style="fill:#606060;fill-opacity:1;stroke:none;stroke-width:2.53369;stroke-linecap:round;stroke-linejoin:round;stroke-miterlimit:5;stroke-dasharray:none;stroke-opacity:1;paint-order:fill markers stroke"/><rect width="1.7244346" height="1.7290071" x="-2975.605" y="134.47656" rx="0.45817041" ry="0.45817041" style="fill:#606060;fill-opacity:1;stroke:none;stroke-width:2.53369;stroke-linecap:round;stroke-linejoin:round;stroke-miterlimit:5;stroke-dasharray:none;stroke-opacity:1;paint-order:fill markers stroke"/><rect width="1.7244346" height="1.7290071" x="-2973.5369" y="134.47656" rx="0.45817041" ry="0.45817041" style="fill:#606060;fill-opacity:1;stroke:none;stroke-width:2.53369;stroke-linecap:round;stroke-linejoin:round;stroke-miterlimit:5;stroke-dasharray:none;stroke-opacity:1;paint-order:fill markers stroke"/><rect width="1.7244346" height="1.7290071" x="-2971.4688" y="134.47656" rx="0.45817041" ry="0.45817041" style="fill:#606060;fill-opacity:1;stroke:none;stroke-width:2.53369;stroke-linecap:round;stroke-linejoin:round;stroke-miterlimit:5;stroke-dasharray:none;stroke-opacity:1;paint-order:fill markers stroke"/><rect width="1.7244346" height="1.7290071" x="-2956.9922" y="134.52022" rx="0.45817041" ry="0.45817041" style="fill:#606060;fill-opacity:1;stroke:none;stroke-width:2.53369;stroke-linecap:round;stroke-linejoin:round;stroke-miterlimit:5;stroke-dasharray:none;stroke-opacity:1;paint-order:fill markers stroke"/><rect width="1.7244346" height="1.7290071" x="-2954.9241" y="134.51613" rx="0.45817041" ry="0.45817041" style="fill:#606060;fill-opacity:1;stroke:none;stroke-width:2.53369;stroke-linecap:round;stroke-linejoin:round;stroke-miterlimit:5;stroke-dasharray:none;stroke-opacity:1;paint-order:fill markers stroke"/><rect width="2.2622824" height="1.7290071" x="-2950.7878" y="134.51613" rx="0.45817041" ry="0.45817041" style="fill:#606060;fill-opacity:1;stroke:none;stroke-width:2.53369;stroke-linecap:round;stroke-linejoin:round;stroke-miterlimit:5;stroke-dasharray:none;stroke-opacity:1;paint-order:fill markers stroke"/><rect width="12.064934" height="1.7290071" x="-2969.4006" y="134.47656" rx="0.45817041" ry="0.45817041" style="fill:#606060;fill-opacity:1;stroke:none;stroke-width:2.53369;stroke-linecap:round;stroke-linejoin:round;stroke-miterlimit:5;stroke-dasharray:none;stroke-opacity:1;paint-order:fill markers stroke"/><rect width="2.7626474" height="1.7290094" x="-2977.6589" y="128.48203" rx="0.45817041" ry="0.45817041" style="fill:#606060;fill-opacity:1;stroke:none;stroke-width:2.53369;stroke-linecap:round;stroke-linejoin:round;stroke-miterlimit:5;stroke-dasharray:none;stroke-opacity:1;paint-order:fill markers stroke"/><rect width="3.3012776" height="1.7290094" x="-2977.6731" y="130.45747" rx="0.45817041" ry="0.45817041" style="fill:#606060;fill-opacity:1;stroke:none;stroke-width:2.53369;stroke-linecap:round;stroke-linejoin:round;stroke-miterlimit:5;stroke-dasharray:none;stroke-opacity:1;paint-order:fill markers stroke"/><rect width="4.7954493" height="1.7371882" x="-2953.321" y="132.49931" rx="0.45817041" ry="0.45817041" style="fill:#606060;fill-opacity:1;stroke:none;stroke-width:2.53369;stroke-linecap:round;stroke-linejoin:round;stroke-miterlimit:5;stroke-dasharray:none;stroke-opacity:1;paint-order:fill markers stroke"/><rect width="1.7244346" height="1.7290071" x="-2975.605" y="126.36446" rx="0.45817041" ry="0.45817041" style="fill:#606060;fill-opacity:1;stroke:none;stroke-width:2.53369;stroke-linecap:round;stroke-linejoin:round;stroke-miterlimit:5;stroke-dasharray:none;stroke-opacity:1;paint-order:fill markers stroke"/><rect width="1.7244346" height="1.7290071" x="-2973.9272" y="130.49475" rx="0.45817041" ry="0.45817041" style="fill:#606060;fill-opacity:1;stroke:none;stroke-width:2.53369;stroke-linecap:round;stroke-linejoin:round;stroke-miterlimit:5;stroke-dasharray:none;stroke-opacity:1;paint-order:fill markers stroke"/><rect width="1.7244346" height="1.7290071" x="-2969.7683" y="130.49475" rx="0.45817041" ry="0.45817041" style="fill:#606060;fill-opacity:1;stroke:none;stroke-width:2.53369;stroke-linecap:round;stroke-linejoin:round;stroke-miterlimit:5;stroke-dasharray:none;stroke-opacity:1;paint-order:fill markers stroke"/><rect width="1.7244346" height="1.7290071" x="-2967.7136" y="130.49475" rx="0.45817041" ry="0.45817041" style="fill:#606060;fill-opacity:1;stroke:none;stroke-width:2.53369;stroke-linecap:round;stroke-linejoin:round;stroke-miterlimit:5;stroke-dasharray:none;stroke-opacity:1;paint-order:fill markers stroke"/><rect width="1.7244346" height="1.7290071" x="-2965.6589" y="130.49475" rx="0.45817041" ry="0.45817041" style="fill:#606060;fill-opacity:1;stroke:none;stroke-width:2.53369;stroke-linecap:round;stroke-linejoin:round;stroke-miterlimit:5;stroke-dasharray:none;stroke-opacity:1;paint-order:fill markers stroke"/><rect width="1.7244346" height="1.7290071" x="-2963.6042" y="130.49475" rx="0.45817041" ry="0.45817041" style="fill:#606060;fill-opacity:1;stroke:none;stroke-width:2.53369;stroke-linecap:round;stroke-linejoin:round;stroke-miterlimit:5;stroke-dasharray:none;stroke-opacity:1;paint-order:fill markers stroke"/><rect width="1.7244346" height="1.7290071" x="-2961.5496" y="130.49475" rx="0.45817041" ry="0.45817041" style="fill:#606060;fill-opacity:1;stroke:none;stroke-width:2.53369;stroke-linecap:round;stroke-linejoin:round;stroke-miterlimit:5;stroke-dasharray:none;stroke-opacity:1;paint-order:fill markers stroke"/><rect width="1.7244346" height="1.7290071" x="-2957.4402" y="130.49475" rx="0.45817041" ry="0.45817041" style="fill:#606060;fill-opacity:1;stroke:none;stroke-width:2.53369;stroke-linecap:round;stroke-linejoin:round;stroke-miterlimit:5;stroke-dasharray:none;stroke-opacity:1;paint-order:fill markers stroke"/><rect width="1.7244346" height="1.7290071" x="-2955.3855" y="130.49066" rx="0.45817041" ry="0.45817041" style="fill:#606060;fill-opacity:1;stroke:none;stroke-width:2.53369;stroke-linecap:round;stroke-linejoin:round;stroke-miterlimit:5;stroke-dasharray:none;stroke-opacity:1;paint-order:fill markers stroke"/><rect width="1.7244346" height="1.7290071" x="-2973.0649" y="132.50749" rx="0.45817041" ry="0.45817041" style="fill:#606060;fill-opacity:1;stroke:none;stroke-width:2.53369;stroke-linecap:round;stroke-linejoin:round;stroke-miterlimit:5;stroke-dasharray:none;stroke-opacity:1;paint-order:fill markers stroke"/><rect width="1.7244346" height="1.7290071" x="-2970.8687" y="132.50749" rx="0.45817041" ry="0.45817041" style="fill:#606060;fill-opacity:1;stroke:none;stroke-width:2.53369;stroke-linecap:round;stroke-linejoin:round;stroke-miterlimit:5;stroke-dasharray:none;stroke-opacity:1;paint-order:fill markers stroke"/><rect width="1.7244346" height="1.7290071" x="-2966.4758" y="132.50749" rx="0.45817041" ry="0.45817041" style="fill:#606060;fill-opacity:1;stroke:none;stroke-width:2.53369;stroke-linecap:round;stroke-linejoin:round;stroke-miterlimit:5;stroke-dasharray:none;stroke-opacity:1;paint-order:fill markers stroke"/><rect width="1.7244346" height="1.7290071" x="-2964.2793" y="132.50749" rx="0.45817041" ry="0.45817041" style="fill:#606060;fill-opacity:1;stroke:none;stroke-width:2.53369;stroke-linecap:round;stroke-linejoin:round;stroke-miterlimit:5;stroke-dasharray:none;stroke-opacity:1;paint-order:fill markers stroke"/><rect width="1.7244346" height="1.7290071" x="-2962.0828" y="132.50749" rx="0.45817041" ry="0.45817041" style="fill:#606060;fill-opacity:1;stroke:none;stroke-width:2.53369;stroke-linecap:round;stroke-linejoin:round;stroke-miterlimit:5;stroke-dasharray:none;stroke-opacity:1;paint-order:fill markers stroke"/><rect width="1.7244346" height="1.7290071" x="-2959.8865" y="132.50749" rx="0.45817041" ry="0.45817041" style="fill:#606060;fill-opacity:1;stroke:none;stroke-width:2.53369;stroke-linecap:round;stroke-linejoin:round;stroke-miterlimit:5;stroke-dasharray:none;stroke-opacity:1;paint-order:fill markers stroke"/><rect width="1.7244346" height="1.7290071" x="-2957.6899" y="132.50749" rx="0.45817041" ry="0.45817041" style="fill:#606060;fill-opacity:1;stroke:none;stroke-width:2.53369;stroke-linecap:round;stroke-linejoin:round;stroke-miterlimit:5;stroke-dasharray:none;stroke-opacity:1;paint-order:fill markers stroke"/><rect width="1.7244346" height="1.7290071" x="-2955.4937" y="132.49931" rx="0.45817041" ry="0.45817041" style="fill:#606060;fill-opacity:1;stroke:none;stroke-width:2.53369;stroke-linecap:round;stroke-linejoin:round;stroke-miterlimit:5;stroke-dasharray:none;stroke-opacity:1;paint-order:fill markers stroke"/><rect width="1.7244346" height="1.7290071" x="-2970.3838" y="128.48203" rx="0.45817041" ry="0.45817041" style="fill:#606060;fill-opacity:1;stroke:none;stroke-width:2.53369;stroke-linecap:round;stroke-linejoin:round;stroke-miterlimit:5;stroke-dasharray:none;stroke-opacity:1;paint-order:fill markers stroke"/><rect width="1.7244346" height="1.7290071" x="-2968.3157" y="128.48203" rx="0.45817041" ry="0.45817041" style="fill:#606060;fill-opacity:1;stroke:none;stroke-width:2.53369;stroke-linecap:round;stroke-linejoin:round;stroke-miterlimit:5;stroke-dasharray:none;stroke-opacity:1;paint-order:fill markers stroke"/><rect width="1.7244346" height="1.7290071" x="-2966.2476" y="128.48203" rx="0.45817041" ry="0.45817041" style="fill:#606060;fill-opacity:1;stroke:none;stroke-width:2.53369;stroke-linecap:round;stroke-linejoin:round;stroke-miterlimit:5;stroke-dasharray:none;stroke-opacity:1;paint-order:fill markers stroke"/><rect width="1.7244346" height="1.7290071" x="-2962.1113" y="128.48203" rx="0.45817041" ry="0.45817041" style="fill:#606060;fill-opacity:1;stroke:none;stroke-width:2.53369;stroke-linecap:round;stroke-linejoin:round;stroke-miterlimit:5;stroke-dasharray:none;stroke-opacity:1;paint-order:fill markers stroke"/><rect width="1.7244346" height="1.7290071" x="-2960.0432" y="128.48203" rx="0.45817041" ry="0.45817041" style="fill:#606060;fill-opacity:1;stroke:none;stroke-width:2.53369;stroke-linecap:round;stroke-linejoin:round;stroke-miterlimit:5;stroke-dasharray:none;stroke-opacity:1;paint-order:fill markers stroke"/><rect width="1.7244346" height="1.7290071" x="-2957.9751" y="128.48203" rx="0.45817041" ry="0.45817041" style="fill:#606060;fill-opacity:1;stroke:none;stroke-width:2.53369;stroke-linecap:round;stroke-linejoin:round;stroke-miterlimit:5;stroke-dasharray:none;stroke-opacity:1;paint-order:fill markers stroke"/><rect width="1.7244346" height="1.7290071" x="-2953.8389" y="128.42757" rx="0.45817041" ry="0.45817041" style="fill:#606060;fill-opacity:1;stroke:none;stroke-width:2.53369;stroke-linecap:round;stroke-linejoin:round;stroke-miterlimit:5;stroke-dasharray:none;stroke-opacity:1;paint-order:fill markers stroke"/><rect width="1.7244346" height="1.7290071" x="-2973.5369" y="126.36446" rx="0.45817041" ry="0.45817041" style="fill:#606060;fill-opacity:1;stroke:none;stroke-width:2.53369;stroke-linecap:round;stroke-linejoin:round;stroke-miterlimit:5;stroke-dasharray:none;stroke-opacity:1;paint-order:fill markers stroke"/><rect width="1.7244346" height="1.7290071" x="-2971.4688" y="126.36446" rx="0.45817041" ry="0.45817041" style="fill:#606060;fill-opacity:1;stroke:none;stroke-width:2.53369;stroke-linecap:round;stroke-linejoin:round;stroke-miterlimit:5;stroke-dasharray:none;stroke-opacity:1;paint-order:fill markers stroke"/><rect width="1.7244346" height="1.7290071" x="-2969.4006" y="126.36446" rx="0.45817041" ry="0.45817041" style="fill:#606060;fill-opacity:1;stroke:none;stroke-width:2.53369;stroke-linecap:round;stroke-linejoin:round;stroke-miterlimit:5;stroke-dasharray:none;stroke-opacity:1;paint-order:fill markers stroke"/><rect width="1.7244346" height="1.7290071" x="-2967.3325" y="126.36446" rx="0.45817041" ry="0.45817041" style="fill:#606060;fill-opacity:1;stroke:none;stroke-width:2.53369;stroke-linecap:round;stroke-linejoin:round;stroke-miterlimit:5;stroke-dasharray:none;stroke-opacity:1;paint-order:fill markers stroke"/><rect width="1.7244346" height="1.7290071" x="-2965.2646" y="126.36446" rx="0.45817041" ry="0.45817041" style="fill:#606060;fill-opacity:1;stroke:none;stroke-width:2.53369;stroke-linecap:round;stroke-linejoin:round;stroke-miterlimit:5;stroke-dasharray:none;stroke-opacity:1;paint-order:fill markers stroke"/><rect width="1.7244346" height="1.7290071" x="-2961.1284" y="126.36446" rx="0.45817041" ry="0.45817041" style="fill:#606060;fill-opacity:1;stroke:none;stroke-width:2.53369;stroke-linecap:round;stroke-linejoin:round;stroke-miterlimit:5;stroke-dasharray:none;stroke-opacity:1;paint-order:fill markers stroke"/><rect width="1.7244346" height="1.7290071" x="-2956.9922" y="126.36446" rx="0.45817041" ry="0.45817041" style="fill:#606060;fill-opacity:1;stroke:none;stroke-width:2.53369;stroke-linecap:round;stroke-linejoin:round;stroke-miterlimit:5;stroke-dasharray:none;stroke-opacity:1;paint-order:fill markers stroke"/><rect width="1.7244346" height="1.7290071" x="-2954.9241" y="126.36446" rx="0.45817041" ry="0.45817041" style="fill:#606060;fill-opacity:1;stroke:none;stroke-width:2.53369;stroke-linecap:round;stroke-linejoin:round;stroke-miterlimit:5;stroke-dasharray:none;stroke-opacity:1;paint-order:fill markers stroke"/><rect width="4.5429969" height="1.6958215" x="-2953.0686" y="130.49066" rx="0.45817041" ry="0.45817041" style="fill:#606060;fill-opacity:1;stroke:none;stroke-width:2.53369;stroke-linecap:round;stroke-linejoin:round;stroke-miterlimit:5;stroke-dasharray:none;stroke-opacity:1;paint-order:fill markers stroke"/></g><rect width="3.2851579" height="1.7834696" x="-1667.804" y="-2404.3508" rx="0.45817041" ry="0.45817041" style="fill:#606060;fill-opacity:1;stroke:none;stroke-width:2.53369;stroke-linecap:round;stroke-linejoin:round;stroke-miterlimit:5;stroke-dasharray:none;stroke-opacity:1;paint-order:fill markers stroke" transform="rotate(123.25)"/><rect width="15.024892" height="7.0491695" x="-2430.1865" y="1641.0714" ry="0" style="fill:#3e3e3e;fill-opacity:1;stroke:#1f1f1f;stroke-width:1.46199;stroke-linecap:round;stroke-linejoin:round;stroke-miterlimit:5;stroke-dasharray:none;stroke-opacity:1;paint-order:fill markers stroke" transform="rotate(-146.977)"/><path d="M2918.194-57.013a1.254 1.254 0 0 1-.583 1.68l-11.296 5.477a1.254 1.254 0 0 1-1.68-.583l-2.73-5.63 6.158-4.427 1.763.587 4.497-5.088z" style="fill:#9a8a59;fill-opacity:1;stroke:#30291b;stroke-width:1.05833331;stroke-linecap:round;stroke-linejoin:round;stroke-miterlimit:5;stroke-dasharray:none;stroke-opacity:1;paint-order:fill markers stroke"/><ellipse cx="-2885.2129" cy="-432.45749" rx="2.6367474" ry="3.9789164" style="fill:#3e3e3e;fill-opacity:1;stroke:#1f1f1f;stroke-width:1.462;stroke-linecap:square;stroke-linejoin:miter;stroke-miterlimit:5;stroke-dasharray:none;stroke-opacity:1;paint-order:fill markers stroke" transform="rotate(170.187)skewX(-.062)"/><path d="M-2779.222-835.126h11.113v15.346h-11.113z" style="fill:#f3f3f3;fill-opacity:1;stroke:#999;stroke-width:1.2;stroke-linecap:round;stroke-linejoin:round;stroke-dasharray:none;stroke-opacity:1;stop-color:#000" transform="rotate(161.936)"/><rect width="4.3965836" height="0.60803813" x="-2775.7969" y="-833.25208" rx="0.033072915" ry="0.033072915" style="fill:#999;fill-opacity:1;stroke:none;stroke-width:1.19372;stroke-linecap:round;stroke-linejoin:round;stroke-miterlimit:5;stroke-dasharray:none;stroke-opacity:1;paint-order:fill markers stroke" transform="rotate(161.936)"/><rect width="8.4189901" height="0.60803813" x="-2777.9016" y="-831.77875" rx="0.033072915" ry="0.033072915" style="fill:#999;fill-opacity:1;stroke:none;stroke-width:1.19372;stroke-linecap:round;stroke-linejoin:round;stroke-miterlimit:5;stroke-dasharray:none;stroke-opacity:1;paint-order:fill markers stroke" transform="rotate(161.936)"/><rect width="8.4189901" height="0.60803813" x="-2777.9016" y="-830.55505" rx="0.033072915" ry="0.033072915" style="fill:#999;fill-opacity:1;stroke:none;stroke-width:1.19372;stroke-linecap:round;stroke-linejoin:round;stroke-miterlimit:5;stroke-dasharray:none;stroke-opacity:1;paint-order:fill markers stroke" transform="rotate(161.936)"/><rect width="8.4189901" height="0.60803813" x="-2777.9016" y="-829.29828" rx="0.033072915" ry="0.033072915" style="fill:#999;fill-opacity:1;stroke:none;stroke-width:1.19372;stroke-linecap:round;stroke-linejoin:round;stroke-miterlimit:5;stroke-dasharray:none;stroke-opacity:1;paint-order:fill markers stroke" transform="rotate(161.936)"/><rect width="8.4189901" height="0.60803813" x="-2777.9016" y="-828.07458" rx="0.033072915" ry="0.033072915" style="fill:#999;fill-opacity:1;stroke:none;stroke-width:1.19372;stroke-linecap:round;stroke-linejoin:round;stroke-miterlimit:5;stroke-dasharray:none;stroke-opacity:1;paint-order:fill markers stroke" transform="rotate(161.936)"/><rect width="8.4189901" height="0.60803813" x="-2777.9016" y="-826.86743" rx="0.033072915" ry="0.033072915" style="fill:#999;fill-opacity:1;stroke:none;stroke-width:1.19372;stroke-linecap:round;stroke-linejoin:round;stroke-miterlimit:5;stroke-dasharray:none;stroke-opacity:1;paint-order:fill markers stroke" transform="rotate(161.936)"/><rect width="8.4189901" height="0.60803813" x="-2777.9016" y="-825.64374" rx="0.033072915" ry="0.033072915" style="fill:#999;fill-opacity:1;stroke:none;stroke-width:1.19372;stroke-linecap:round;stroke-linejoin:round;stroke-miterlimit:5;stroke-dasharray:none;stroke-opacity:1;paint-order:fill markers stroke" transform="rotate(161.936)"/><rect width="8.4189901" height="0.60803813" x="-2777.9016" y="-824.38696" rx="0.033072915" ry="0.033072915" style="fill:#999;fill-opacity:1;stroke:none;stroke-width:1.19372;stroke-linecap:round;stroke-linejoin:round;stroke-miterlimit:5;stroke-dasharray:none;stroke-opacity:1;paint-order:fill markers stroke" transform="rotate(161.936)"/><rect width="4.4998493" height="0.60803813" x="-2777.9016" y="-823.16327" rx="0.033072915" ry="0.033072915" style="fill:#999;fill-opacity:1;stroke:none;stroke-width:1.19372;stroke-linecap:round;stroke-linejoin:round;stroke-miterlimit:5;stroke-dasharray:none;stroke-opacity:1;paint-order:fill markers stroke" transform="rotate(161.936)"/><rect width="2.6477659" height="0.60803813" x="-2772.1636" y="-821.4931" rx="0.033072915" ry="0.033072915" style="fill:#999;fill-opacity:1;stroke:none;stroke-width:1.19372;stroke-linecap:round;stroke-linejoin:round;stroke-miterlimit:5;stroke-dasharray:none;stroke-opacity:1;paint-order:fill markers stroke" transform="rotate(161.936)"/><rect width="0.77059895" height="3.8529952" x="2880.7351" y="455.88049" rx="0.033072915" ry="0.033072915" style="fill:#1f1f1f;fill-opacity:1;stroke:#1f1f1f;stroke-width:.1;stroke-linecap:round;stroke-linejoin:round;stroke-dasharray:none;stroke-opacity:1;stop-color:#000" transform="rotate(-10.277)"/><g transform="rotate(-16.708 3105.731 -61.31)"><rect width="30.673477" height="16.611244" x="-2975.7778" y="97.187302" ry="0" style="fill:#454545;fill-opacity:1;stroke:#1f1f1f;stroke-width:1.462;stroke-linecap:square;stroke-linejoin:miter;stroke-miterlimit:5;stroke-dasharray:none;stroke-opacity:1;paint-order:fill markers stroke" transform="scale(-1)"/><path d="M2947.02 99.101h26.842v12.784h-26.842z" style="fill:#000;fill-opacity:1;stroke:none;stroke-width:2.30002;stroke-linecap:round;stroke-dasharray:none" transform="scale(1 -1)"/><path d="m2956.145-103.281 1.988 1.911 2.282-2.018 3.205 2.352.631-4.14 1.778-1.65-3.451-.336.892-3.087-2.416 1.4-1.6-1.759-.645 2.318-2.525-1.643.7 2.54-3.506-.364 1.614 1.948-1.72 2.69z" style="fill:#272727;fill-opacity:1;stroke:none;stroke-width:2.30002;stroke-linecap:round;stroke-dasharray:none"/></g><path d="m2901.873-94.393-1.34-.134-.353-.523-.69.206.327.694-1.127-.552-.503.227.336.82-1.384-.77-.351.789 1.193.975-.13 1.706-9.453-11.065 1.087.376s1.176.347 1.262.339-.68-.713-.68-.713l.087-.743.669.685 1.144.845-.863-2.15.623.553.58-.37-.693-.832.988.252-.18-1.679zm77.404 32.756.226 1.14-.951.432-.286.767 1.26-.081-1.131 1.454.653-.029-.47.69.335.672.622-.14.85.08 1.19-.218-13.11 6.319 1.523-1.334.137-.548-.672-.536 1.686-.996-2.436.048.832-.645-.464-.366.246-.81-3.15.42zm-86.943 10.148.6-1.165-.042-.693.53-.416.01-.866-.846.4-.402-.112-.376-.318.45-.68-.277-.141-.342.014-.162-.458-.44.13-.536-.267-.295.14-.56-.126 12.345-7.548.02.033-.704 1.156-.449.712-.12.51.457-.158.083.533-.43.805 1.003-.671.247.304-.215.254-.377.962 1.55-.414-.254.608 1.934-.144.013.026z" style="fill:#61341a;fill-opacity:1;stroke:#1d0f07;stroke-width:.529167;stroke-linecap:square;stroke-linejoin:miter;stroke-miterlimit:4;stroke-dasharray:none;stroke-opacity:1"/><path d="m2939.034-49.477 1.126-6.582-2.227 3.97.838-3.358-2.028 3.415.192-2.083-1.948 2.778 7.44-16.187.034 1.07-.887 4.355 1.755-4.311-.579 3.962 1.235-2.648.363.577-.726 3.026 2.852-4.17zm-34.222-25.54.295-3.653-.975 1.227.593-2.175-1.678 2.882.357-2-.545-.585-.62 1.391-1.582 1.307 6.423-16.617s-.35 3.522-.304 3.438 1.174-1.221 1.174-1.221l-.418 1.294-.891 2.352 1.14-1.35-.65 2.512 2.001-3.384-.377 2.057 2.48-4.092z" style="fill:#61341a;fill-opacity:1;stroke:#1d0f07;stroke-width:.529167;stroke-linecap:square;stroke-opacity:1"/></g></svg>