<svg xmlns="http://www.w3.org/2000/svg" width="113.38583" height="325.13626" viewBox="0 0 30 86.025636"><g transform="translate(-149.856 -117.562)"><rect width="4.1023607" height="28.246449" x="103.72138" y="206.09319" ry="0.40375993" style="display:inline;fill:#1a1a1a;fill-opacity:1;stroke-width:1.475;paint-order:markers stroke fill;stroke-dasharray:none;stroke:#000;stroke-opacity:1" transform="rotate(-15)"/><rect width="2.245666" height="27.603476" x="103.89431" y="206.39548" ry="0.18881342" style="display:inline;fill:#333;fill-opacity:1;stroke-width:.201479;paint-order:markers stroke fill" transform="rotate(-15)"/><rect width="4.1023607" height="22.555437" x="185.82339" y="77.645782" ry="0.32241157" style="display:inline;fill:#1a1a1a;fill-opacity:1;stroke-width:1.546;paint-order:markers stroke fill;stroke:#000;stroke-opacity:1;stroke-dasharray:none" transform="rotate(15)"/><rect width="2.245666" height="22.042007" x="185.99632" y="77.887161" ry="0.15077186" style="display:inline;fill:#333;fill-opacity:1;stroke-width:.180042;paint-order:markers stroke fill" transform="rotate(15)"/><path d="m158.254 152.644.643.873.086.42-.358.361.466.394-.837.633h2.68l-.242-.742-.637-.444.88-.758v-.737c-.405 1.212-.385 1.092-1.172.188l-.611.785zm.252 15.961.087.15.957.225.12.53 1.358.734 1.14-.658-.911-.315.254-.824-.138-.238-.48-.488-.065-.457-.35.853-.654-.094-.409.697zm2.115 1.521-.255.5.606-.35zm-9.292-11.933.145.52-.3.841-.53.313-.033.715-.623-.068 2.322 1.34-.378-.707.74-.05-.23-.365.067-.426.479-.004.01-.61.652-.159-1.077.214-.04-.86-.033-.018-.682.064z" style="fill:#3e3e3e;fill-opacity:1;stroke:#0a0a0a;stroke-width:.629;stroke-linecap:square;stroke-opacity:1;stroke-dasharray:none"/><rect width="5.1581984" height="1.6360617" x="193.36165" y="97.952484" ry="0.011190997" style="display:inline;fill:#333;fill-opacity:1;stroke-width:1.574;paint-order:markers stroke fill;stroke:#000;stroke-opacity:1;stroke-dasharray:none" transform="rotate(15)"/><rect width="5.1581984" height="1.6360617" x="-13.398359" y="242.8457" ry="0.011190997" style="display:inline;fill:#333;fill-opacity:1;stroke-width:1.574;paint-order:markers stroke fill;stroke:#000;stroke-opacity:1;stroke-dasharray:none" transform="rotate(-45)"/><path d="M144.367 151.576a.25.25 0 0 0-.316.16.25.25 0 0 0 .16.315 4.26 4.26 0 0 1 2.56 2.386c.146.355.242.73.286 1.11a.25.25 0 0 0 .277.219.25.25 0 0 0 .219-.278 4.7 4.7 0 0 0-.319-1.24 4.74 4.74 0 0 0-2.867-2.672z" style="color:#000;fill:#008aff;stroke-linecap:round;stroke:#000102;stroke-opacity:1;stroke-width:.3;stroke-dasharray:none" transform="translate(8.635)"/><path d="M148.47 160.291a.25.25 0 0 0-.185.043 9.6 9.6 0 0 0-3.035 3.648 9.6 9.6 0 0 0-.822 5.495.25.25 0 0 0 .283.21.25.25 0 0 0 .21-.283 9.1 9.1 0 0 1 .78-5.207 9.1 9.1 0 0 1 2.877-3.457.25.25 0 0 0 .057-.35.25.25 0 0 0-.164-.099z" style="color:#000;fill:#ff7500;stroke-linecap:round;stroke:#000102;stroke-opacity:1;stroke-width:.3;stroke-dasharray:none" transform="translate(8.635)"/></g></svg>