<svg xmlns="http://www.w3.org/2000/svg" width="182.381" height="139.496" viewBox="0 0 48.254971 36.908318"><path d="m27.455 5.561.811 3.06-1.77.738-.096 2.023-2.468.282 6.544 2.922 5.661 4.125-1.006-1.495.608-.723-.089-2.06 4.01-1.825-3.933-1.318-3.454-1.216zm-1.02 20.899 4.604 4.605.512-2.53 4.092-2.074-4.604-4.604.093 1.676-1.745.363.108 1.146zM11.106 12.397l-.083 3.107-2.429 1.244 1.2.692.955.208.757.645.788.27.133.398.518.299 2.512-4.351-1.045.817-.696-.83-1.024.015zm2.508 16.713 4.023-2.013-.149 4.25 2.315-4.01 1.075-2.589 1.855-3.117.72-.614.745-1.292-3.874-2.237-.181 2.462-2.32 2.668-1.158 3.908z" style="fill:#ccc;fill-opacity:1;stroke:#a3a3a3;stroke-width:.661458;stroke-linecap:round;stroke-linejoin:round;stroke-miterlimit:4;stroke-dasharray:none;stroke-opacity:1"/></svg>