<svg xmlns="http://www.w3.org/2000/svg" width="56.189705" height="67.435997" viewBox="0 0 14.866859 17.842441"><g transform="translate(1814.161 325.805)scale(.66917)"><path d="m-2709.934-482.784 3.121-.12.443.208h3.483l.401.133h.339l.207 5.843c.116 3.875.081 6.18 1.374 10.353l-8.347 2.405c-.945-3.215-1.44-6.14-1.488-9.824l-.224-7.253.347-.123.038-.97.133-.245v-.255c0-.032-.02-.153.172-.152z" style="fill:#3c3749;fill-opacity:1;stroke:none;stroke-width:.79375;stroke-linecap:round;stroke-linejoin:miter;stroke-dasharray:none;stroke-opacity:1"/><path d="m-2706.899-482.56.041 7.141c-.046 3.903.56 6.818 1.273 10.139m-3.833-16.83.041 7.142c-.046 3.903.682 7.083 1.396 10.404" style="fill:none;fill-opacity:1;stroke:#302c3a;stroke-width:.581025;stroke-linecap:square;stroke-linejoin:miter;stroke-dasharray:none;stroke-dashoffset:0;stroke-opacity:1"/><path d="M-2703.284-482.47c-.033 7.898-.182 10.406 1.279 16.567l-1.31.655c-1.427-6.784-1.408-6.124-1.34-17.12z" style="fill:#302b3b;fill-opacity:1;stroke:none;stroke-width:.581025;stroke-linecap:square;stroke-linejoin:miter;stroke-dasharray:none;stroke-dashoffset:0;stroke-opacity:1"/><path d="m-2709.985-482.588 3.12-.119.443.207h3.483l.402.133h.338l.207 5.843c.117 3.875.081 6.18 1.374 10.353l-8.346 2.405c-.945-3.215-1.44-6.14-1.488-9.824l-.224-7.253.346-.123.038-.969.133-.246v-.255c0-.032-.019-.153.172-.152z" style="fill:none;fill-opacity:1;stroke:#17141a;stroke-width:.79375;stroke-linecap:round;stroke-linejoin:miter;stroke-dasharray:none;stroke-opacity:1"/><rect width="1.5475048" height="2.4008019" x="-2708.9565" y="-479.23593" rx="0.77375239" ry="0.73526543" style="fill:#24202c;fill-opacity:1;stroke:none;stroke-width:.835959;stroke-linecap:square;stroke-linejoin:miter;stroke-dasharray:none;stroke-dashoffset:0;stroke-opacity:1"/><rect width="1.5475048" height="0.94730437" x="-2708.9563" y="-479.2637" rx="0.17907999" ry="0.25547075" style="fill:#16131b;fill-opacity:1;stroke:none;stroke-width:.525111;stroke-linecap:square;stroke-linejoin:miter;stroke-dasharray:none;stroke-dashoffset:0;stroke-opacity:1"/><path d="m-2705.763-484.909 3.12-.12.443.208h3.483l.402.133h.338l.207 5.843c.117 3.875.081 6.18 1.374 10.353l1.005 3.653-8.282 2.787-1.07-4.035c-.944-3.215-1.439-6.14-1.487-9.824l-.224-7.253.347-.123.038-.97.132-.245v-.255c0-.032-.019-.153.172-.152z" style="fill:#484158;fill-opacity:1;stroke:none;stroke-width:.79375;stroke-linecap:round;stroke-linejoin:miter;stroke-dasharray:none;stroke-opacity:1"/><path d="m-2702.728-484.685.04 7.141c-.102 5.743.182 7.61 2.406 14.45m-4.965-21.14.04 7.14c-.119 5.995.913 8.67 2.644 14.312" style="fill:none;fill-opacity:1;stroke:#3c364a;stroke-width:.581025;stroke-linecap:square;stroke-linejoin:miter;stroke-dasharray:none;stroke-dashoffset:0;stroke-opacity:1"/><path d="M-2699.113-484.595c-.033 7.898-.065 13.53 2.262 20.188l-1.413.47c-2.19-7.157-2.288-9.56-2.22-20.556z" style="fill:#302b3b;fill-opacity:1;stroke:none;stroke-width:.581025;stroke-linecap:square;stroke-linejoin:miter;stroke-dasharray:none;stroke-dashoffset:0;stroke-opacity:1"/><path d="m-2705.815-484.713 3.121-.119.443.207h3.483l.401.133h.339l.207 5.843c.116 3.875.207 6.673 2.56 14.014l-8.285 2.59c-2.691-7.774-2.687-9.986-2.736-13.67l-.224-7.253.347-.123.038-.97.133-.245v-.255c0-.032-.02-.153.171-.152z" style="fill:none;fill-opacity:1;stroke:#17141a;stroke-width:.79375;stroke-linecap:round;stroke-linejoin:miter;stroke-dasharray:none;stroke-opacity:1"/><rect width="1.5475048" height="2.4008019" x="-2704.7864" y="-481.36102" rx="0.77375239" ry="0.73526543" style="fill:#312b3b;fill-opacity:1;stroke:none;stroke-width:.835959;stroke-linecap:square;stroke-linejoin:miter;stroke-dasharray:none;stroke-dashoffset:0;stroke-opacity:1"/><rect width="1.5475048" height="0.94730437" x="-2704.7861" y="-481.38879" rx="0.17907999" ry="0.25547075" style="fill:#16131b;fill-opacity:1;stroke:none;stroke-width:.525111;stroke-linecap:square;stroke-linejoin:miter;stroke-dasharray:none;stroke-dashoffset:0;stroke-opacity:1"/><g transform="translate(-72.29 -9.353)"><path d="m-2628.553-477.207 3.121-.12.442.207h3.484l.401.133h.339l.207 5.844c.116 3.875.08 6.18 1.374 10.352l1.966 6.64-8.283 2.787-2.03-7.022c-.945-3.214-1.44-6.14-1.488-9.823l-.224-7.253.347-.124.038-.969.132-.245v-.256c0-.032-.019-.153.172-.151z" style="fill:#605775;fill-opacity:1;stroke:none;stroke-width:.79375;stroke-linecap:round;stroke-linejoin:miter;stroke-dasharray:none;stroke-opacity:1"/><path d="m-2625.518-476.984.041 7.141c-.103 5.743 1.143 10.597 3.367 17.436m-5.927-24.126.041 7.141c-.12 5.995 1.873 11.655 3.605 17.297" style="fill:none;fill-opacity:1;stroke:#484158;stroke-width:.581025;stroke-linecap:square;stroke-linejoin:miter;stroke-dasharray:none;stroke-dashoffset:0;stroke-opacity:1"/><path d="M-2621.903-476.893c-.033 7.898.897 16.515 3.223 23.173l-1.413.47c-2.188-7.157-3.249-12.546-3.18-23.541z" style="fill:#484158;fill-opacity:1;stroke:none;stroke-width:.581025;stroke-linecap:square;stroke-linejoin:miter;stroke-dasharray:none;stroke-dashoffset:0;stroke-opacity:1"/><path d="m-2628.604-477.011 3.12-.12.443.208h3.483l.402.133h.338l.207 5.843c.116 3.875.388 8.328 3.522 17l-8.286 2.59c-3.153-8.411-3.648-12.973-3.696-16.656l-.224-7.253.346-.124.038-.969.133-.245v-.256c0-.032-.02-.153.172-.151z" style="fill:none;fill-opacity:1;stroke:#17141a;stroke-width:.79375;stroke-linecap:round;stroke-linejoin:miter;stroke-dasharray:none;stroke-opacity:1"/><rect width="1.5475048" height="2.4008019" x="-2627.5759" y="-473.65964" rx="0.77375239" ry="0.73526543" style="fill:#3d364a;fill-opacity:1;stroke:none;stroke-width:.835959;stroke-linecap:square;stroke-linejoin:miter;stroke-dasharray:none;stroke-dashoffset:0;stroke-opacity:1"/><rect width="1.5475048" height="0.94730437" x="-2627.5757" y="-473.68741" rx="0.17907999" ry="0.25547075" style="fill:#16131b;fill-opacity:1;stroke:none;stroke-width:.525111;stroke-linecap:square;stroke-linejoin:miter;stroke-dasharray:none;stroke-dashoffset:0;stroke-opacity:1"/></g></g></svg>