<svg xmlns="http://www.w3.org/2000/svg" xml:space="preserve" width="84" height="84" viewBox="0 0 22.224999 22.225"><g transform="translate(-.93 -35.08)scale(.18675)"><path d="M63.166 190.96h10.583l23.812 7.938 10.584 13.23 5.291 42.333v5.291l-15.875 18.521-15.875 15.875-10.583 7.937-10.583 2.646-18.521-13.229-21.167-23.812-5.291-7.938 2.645-37.042 2.646-13.229 7.938-7.937 7.937-5.292 7.938-2.646 10.583-2.646z" style="fill:#0aff20;fill-opacity:1;stroke:none;stroke-width:5.39999;stroke-linecap:round;stroke-linejoin:miter;stroke-dasharray:none;stroke-opacity:1;paint-order:markers fill stroke"/><path d="M55.154 188.266a3 3 0 0 0-.222.023c-21.34 3.15-31.979 11.831-36.74 24.072-4.698 12.08-3.922 27.03-5.212 43.911-.222 2.905 1.293 5.899 2.62 7.72 4.139 5.606 11.3 14.637 18.949 22.946 7.65 8.308 15.487 15.883 22.29 18.7 4.01 1.662 8.645 1.588 12.61.014 7.242-2.874 15.737-10.654 23.881-19.04 8.145-8.387 15.66-17.37 19.725-22.557 1.207-2.012 3.19-5.15 2.943-7.783-1.588-16.86-.514-31.83-5.213-43.91-4.76-12.242-15.398-20.922-36.738-24.073a3 3 0 0 0-.222-.023c-6.395-.718-12.82-.374-18.67 0m18.178 5.379c20.194 2.996 28.29 10.056 32.42 20.675 4.122 10.597 3.789 25.385 4.883 42.783-.244.79-.803 2.31-1.83 3.62-3.938 5.024-11.392 13.931-19.35 22.125-7.957 8.194-16.7 15.684-21.998 17.787-2.593 1.029-6.044 1.052-8.552.013-4.783-1.98-12.918-9.26-20.383-17.369s-14.563-17.055-18.578-22.494c-.564-1.017-1.74-2.291-1.612-3.508 1.108-17.474.757-32.324 4.893-42.957 4.13-10.619 12.229-17.679 32.422-20.675 5.968-.734 12.387-.339 17.685 0" style="color:#000;fill:#005d08;stroke-width:4.50001;stroke-linecap:round;stroke-linejoin:round;stroke-miterlimit:4;stroke-dasharray:none;paint-order:markers fill stroke"/><ellipse cx="-137.50043" cy="199.66902" rx="8.0036755" ry="13.339459" style="opacity:1;fill:#005d08;fill-opacity:1;fill-rule:nonzero;stroke:none;stroke-width:8.83418;stroke-linecap:round;stroke-linejoin:bevel;stroke-miterlimit:4;stroke-dasharray:none;stroke-dashoffset:0;stroke-opacity:1;paint-order:markers stroke fill" transform="rotate(-45)"/><ellipse cx="-107.42883" cy="229.74133" rx="13.339459" ry="8.0036755" style="opacity:1;fill:#005d08;fill-opacity:1;fill-rule:nonzero;stroke:none;stroke-width:8.83418;stroke-linecap:round;stroke-linejoin:bevel;stroke-miterlimit:4;stroke-dasharray:none;stroke-dashoffset:0;stroke-opacity:1;paint-order:markers stroke fill" transform="rotate(-45)"/><path d="M45.968 266.018s18.624 31.651 37.041 0" style="fill:none;fill-opacity:1;stroke:#005d08;stroke-width:5.39999;stroke-linecap:round;stroke-linejoin:miter;stroke-dasharray:none;stroke-opacity:1;paint-order:markers fill stroke"/></g></svg>