<svg xmlns="http://www.w3.org/2000/svg" xml:space="preserve" width="84" height="84" viewBox="0 0 22.225 22.225"><path d="m35.962 45.186.304 4.393v1.023l3.78 3.437.503-.259-2.266-2.695 2.983 2.118.3-.362-2.836-2.37 3.345 1.764.35-.508-3.407-1.75-1.252-1.113-.214-3.75z" style="opacity:1;fill:#4f222f;fill-opacity:1;stroke:#3d1a24;stroke-width:.3;stroke-linecap:square;stroke-linejoin:miter;stroke-dasharray:none;stroke-opacity:1" transform="translate(1.518)scale(.36154)"/><path d="m22.7 52.44.304 4.392v1.023l3.78 3.437.503-.258-2.266-2.695 2.983 2.118.3-.363-2.836-2.37 3.345 1.765.35-.508-3.407-1.751-1.252-1.112-.214-3.75z" style="opacity:1;fill:#662c3d;fill-opacity:1;stroke:#522331;stroke-width:.3;stroke-linecap:square;stroke-linejoin:miter;stroke-dasharray:none;stroke-opacity:1" transform="translate(1.518)scale(.36154)"/><path d="m28.23 46.13-4.005 5.738-1.396.063-1.508-3.298c-17.41 3.532-22.36-3.905-19.033-3.957l2.45-.942-3.77-2.639c-.435-1.186.25-1.572 1.037-1.884l4.052.377c.573-1.338 1.341-2.163 2.45-3.016 5.446-5.503 10.724-13.327 18.75-15.641l3.298-14.322c.652-2.248 1.942-3.601 3.204-4.994 8.884-3.002 11.31 3.364 12.62 6.626 2.822 4.994-.58 2.073-1.153 3.026l-3.363.972c4.246 4.386 8.72 8.954 10.364 14.345-.052 5.586-1.18 10.052-3.203 13.192l-9.329 5.371-3.769 1.225z" style="opacity:1;fill:#e8e8e8;fill-opacity:1;stroke:#adadad;stroke-width:1.7;stroke-linecap:round;stroke-linejoin:round;stroke-dasharray:none;stroke-opacity:1" transform="translate(1.518)scale(.36154)"/><path d="m46.846 8.414 3.831 2.882-5.93.316c-.605-2.153.599-2.799 2.099-3.198Z" style="opacity:1;fill:#d48e2f;fill-opacity:1;stroke:#b67326;stroke-width:1.7;stroke-linecap:square;stroke-linejoin:miter;stroke-dasharray:none;stroke-opacity:1" transform="translate(1.518)scale(.36154)"/><g style="opacity:1" transform="translate(-20.752 -23.842)scale(.36154)"><ellipse cx="99.151466" cy="74.082802" rx="1.9901364" ry="1.9901365" style="opacity:1;fill:#0e0e0e;fill-opacity:1;stroke:#adadad;stroke-width:1;stroke-linecap:square;stroke-linejoin:miter;stroke-dasharray:none;stroke-opacity:1"/><circle cx="98.733002" cy="73.574997" r="0.75" style="opacity:1;fill:#3b3b3b;fill-opacity:1;stroke:none;stroke-width:2.61876;stroke-linecap:square;stroke-linejoin:miter;stroke-dasharray:none;stroke-opacity:1"/></g></svg>