<svg xmlns="http://www.w3.org/2000/svg" xml:space="preserve" width="84" height="84" viewBox="0 0 22.224999 22.225"><g style="display:inline;opacity:1"><path d="M20.997 10.436c0 4.026-1.97 7.604-5.205 9.471-.764.441 1.674 1.788-4.698 1.788-6.003 0-3.617-1.714-4.371-2.15-3.06-1.766-5.532-5.289-5.532-9.11C1.19 4.892 5.624.398 11.094.398c5.469 0 9.903 4.494 9.903 10.039z" style="display:inline;opacity:1;fill:#ffc703;stroke:#584d00;stroke-width:.793753;stroke-dasharray:none" transform="translate(-.048)scale(1.00602)"/><g style="display:inline;opacity:1"><path d="M15.086 19.293c0 1.336-2.298 1.328-3.97 1.328s-3.547.008-3.547-1.373c0-2.512 1.12-7.025 3.594-7.025 2.52 0 3.923 4.649 3.923 7.07z" style="display:inline;opacity:1;fill:#000;fill-opacity:1;stroke:#584d00;stroke-width:.529167;stroke-dasharray:none" transform="translate(-.048)scale(1.00602)"/><path d="m7.928 19.128.058.723c2.113.833 4.453.517 6.81.045l-.117-.836-3.41.486z" style="fill:#fff;fill-opacity:1;stroke:#fff;stroke-width:.264583;stroke-dasharray:none;stroke-opacity:1" transform="translate(-.048)scale(1.00602)"/><path d="M7.78 19.003c.455-.062.777.088 1.072.292.319-.033.594-.064 1.067.156.443-.09 1.07-.064 1.438.094.539-.215 1.065-.151 1.42-.09.342-.174.602-.22 1.023-.158.486-.31.726-.336 1.07-.294" style="opacity:1;fill:#000;fill-opacity:1;stroke:#828483;stroke-width:.264583;stroke-dasharray:none;stroke-opacity:1" transform="translate(-.048)scale(1.00602)"/><path d="M8.906 19.252v1.018m1.064-.867v1.017m1.37-.915v1.017m1.345-1.103v1.017m1.005-1.176v1.018" style="fill:#828483;fill-opacity:1;stroke:#828483;stroke-width:.264583;stroke-dasharray:none;stroke-opacity:1" transform="translate(-.048)scale(1.00602)"/><path fill="none" d="M15.086 19.293c0 1.336-2.298 1.328-3.97 1.328s-3.547.008-3.547-1.373c0-2.512 1.12-7.025 3.594-7.025 2.52 0 3.923 4.649 3.923 7.07z" style="display:inline;fill:#000;fill-opacity:0;stroke:#584d00;stroke-width:.529167;stroke-dasharray:none" transform="translate(-.048)scale(1.00602)"/></g><g style="display:inline" transform="translate(-.067)scale(1.00602)"><ellipse cx="8.4078979" cy="5.2102847" rx="3.2291648" ry="4.0915685" style="fill:#fff;fill-opacity:1;stroke:#584d00;stroke-width:.396875;stroke-dasharray:none;stroke-opacity:1" transform="rotate(15.1)skewX(-.102)"/><ellipse cx="8.4111176" cy="5.4139791" rx="1.6381698" ry="2.0819991" style="fill:#0d8ede;fill-opacity:1;stroke:#11639d;stroke-width:.264583;stroke-dasharray:none;stroke-opacity:1" transform="rotate(15.15)"/><ellipse cx="7.9216743" cy="6.1214018" rx="0.61668169" ry="0.82224226" style="display:inline;fill:#000;fill-opacity:1;stroke:#000;stroke-width:.529166;stroke-dasharray:none;stroke-opacity:1" transform="rotate(10.28)"/></g><g transform="translate(-.067)scale(1.00602)"><ellipse cx="6.279058" cy="11.450988" rx="0.66747469" ry="0.11590877" style="fill:#ffc703;fill-opacity:1;stroke:#ffc703;stroke-width:.264583;stroke-linecap:round;stroke-linejoin:miter;stroke-dasharray:none;stroke-opacity:1;paint-order:normal"/><path d="M4.3 11.327c1.045-.975 2.457-.563 3.038.072" style="opacity:1;fill:#ffc703;fill-opacity:1;stroke:#584d00;stroke-width:.264583;stroke-linecap:round;stroke-linejoin:miter;stroke-dasharray:none;stroke-opacity:1"/></g><g style="display:inline" transform="matrix(-1.00602 0 0 1.00602 22.292 0)"><ellipse cx="8.4078979" cy="5.2102847" rx="3.2291648" ry="4.0915685" style="fill:#fff;fill-opacity:1;stroke:#584d00;stroke-width:.396875;stroke-dasharray:none;stroke-opacity:1" transform="rotate(15.1)skewX(-.102)"/><ellipse cx="8.4111176" cy="5.4139791" rx="1.6381698" ry="2.0819991" style="fill:#0d8ede;fill-opacity:1;stroke:#11639d;stroke-width:.264583;stroke-dasharray:none;stroke-opacity:1" transform="rotate(15.15)"/><ellipse cx="7.9216743" cy="6.1214018" rx="0.61668169" ry="0.82224226" style="fill:#000;fill-opacity:1;stroke:#000;stroke-width:.529166;stroke-dasharray:none;stroke-opacity:1" transform="rotate(10.28)"/></g><g transform="matrix(-1.00602 0 0 1.00602 22.292 0)"><ellipse cx="6.279058" cy="11.450988" rx="0.66747469" ry="0.11590877" style="fill:#ffc703;fill-opacity:1;stroke:#ffc703;stroke-width:.264583;stroke-linecap:round;stroke-linejoin:miter;stroke-dasharray:none;stroke-opacity:1;paint-order:normal"/><path d="M4.3 11.327c1.045-.975 2.457-.563 3.038.072" style="opacity:1;fill:#ffc703;fill-opacity:1;stroke:#584d00;stroke-width:.264583;stroke-linecap:round;stroke-linejoin:miter;stroke-dasharray:none;stroke-opacity:1"/></g><path d="M5.548 2.53c1.997-2.34 3.37-1.352 3.485-.612-.926-.526-1.958-.425-3.485.612Z" style="opacity:1;fill:#0a0900;fill-opacity:1;stroke:#0a0900;stroke-width:.264583;stroke-linecap:round;stroke-linejoin:miter;stroke-miterlimit:100;stroke-dasharray:none;stroke-opacity:1;paint-order:normal" transform="translate(-.067)scale(1.00602)"/><path d="M16.677 2.53c-1.997-2.34-3.37-1.352-3.485-.611.926-.527 1.958-.426 3.485.611Z" style="display:inline;fill:#0a0900;fill-opacity:1;stroke:#0a0900;stroke-width:.264583;stroke-linecap:round;stroke-linejoin:miter;stroke-miterlimit:100;stroke-dasharray:none;stroke-opacity:1;paint-order:normal" transform="translate(-.067)scale(1.00602)"/></g></svg>