<svg xmlns="http://www.w3.org/2000/svg" xml:space="preserve" width="84" height="84" viewBox="0 0 22.225 22.225001"><g transform="translate(-1.147 -33.436)scale(.17642)"><path d="M115.95 230.01c-1.284 1.581 13.72-1.412 7.938-18.521-4.94-14.616-21.167 0-21.167 0zm-93.028 0c1.284 1.581-13.72-1.412-7.938-18.521 4.94-14.616 21.167 0 21.167 0z" style="fill:#ff1313;fill-opacity:1;stroke:#940000;stroke-width:3;stroke-linecap:round;stroke-linejoin:round;stroke-dasharray:none;stroke-dashoffset:631.937;stroke-opacity:1;paint-order:normal"/><path d="M119.23 240.593s2.646 23.812 7.938 13.23c5.291-10.584 3.917-11.147 2.645-18.522-2.757-15.998-9.38-18.307-13.229-7.937-2.058 5.547 2.646 13.229 2.646 13.229m-16.509-29.104c-2.646 2.646-18.52-7.938-18.52-7.938s2.645-2.646 10.583-5.291c7.937-2.646 21.166 7.937 21.166 7.937-2.95 1.451-3.216 2.328-13.229 5.292m-82.974 29.104s-2.646 23.812-7.938 13.23c-5.291-10.584-3.917-11.147-2.646-18.522 2.758-15.998 9.382-18.307 13.23-7.937 2.058 5.547-2.646 13.229-2.646 13.229m16.404-29.104c2.646 2.646 18.52-7.938 18.52-7.938s-2.645-2.646-10.583-5.291c-7.937-2.646-21.166 7.937-21.166 7.937 2.95 1.451 3.216 2.328 13.229 5.292" style="fill:#ff1313;fill-opacity:1;stroke:#940000;stroke-width:3;stroke-linecap:round;stroke-linejoin:round;stroke-dasharray:none;stroke-dashoffset:631.937;stroke-opacity:1;paint-order:normal"/><circle cx="70.197563" cy="254.22728" r="49.488537" style="opacity:1;fill:#fff;fill-opacity:1;fill-rule:nonzero;stroke:#595959;stroke-width:10;stroke-linecap:round;stroke-linejoin:round;stroke-miterlimit:4;stroke-dasharray:none;stroke-dashoffset:0;stroke-opacity:1;paint-order:markers stroke fill"/><g transform="translate(.71)"><circle cx="47.020508" cy="242.61382" r="7.5" style="opacity:1;fill:#000;fill-opacity:1;fill-rule:nonzero;stroke:none;stroke-width:6.4123;stroke-linecap:round;stroke-linejoin:bevel;stroke-miterlimit:4;stroke-dasharray:none;stroke-dashoffset:0;stroke-opacity:1;paint-order:markers stroke fill"/><circle cx="-242.61382" cy="91.956497" r="7.5" style="opacity:1;fill:#000;fill-opacity:1;fill-rule:nonzero;stroke:none;stroke-width:6.4123;stroke-linecap:round;stroke-linejoin:bevel;stroke-miterlimit:4;stroke-dasharray:none;stroke-dashoffset:0;stroke-opacity:1;paint-order:markers stroke fill" transform="rotate(-90)"/></g><circle cx="70.197563" cy="257.20752" r="9.921875" style="fill:#ea0000;fill-opacity:1;stroke:#940000;stroke-width:6.25;stroke-linecap:round;stroke-linejoin:round;stroke-dasharray:none;stroke-dashoffset:631.937;stroke-opacity:1;paint-order:stroke fill markers"/><path d="M100.046 267.051c-1.152 7.063 1.42 10.876-.42 12.604-33.626 36.314-61.216-1.08-60.708 0 .295-4.32.543-8.678-.255-12.604 10.314 4.916 20.63 14.15 30.956 14.552 9.964-.604 20.2-10.287 30.427-14.552" style="opacity:1;fill:#dfdfdf;fill-opacity:1;fill-rule:nonzero;stroke:#595959;stroke-width:4;stroke-linecap:round;stroke-linejoin:round;stroke-miterlimit:4;stroke-dasharray:none;stroke-dashoffset:0;stroke-opacity:1;paint-order:normal" transform="translate(.71)"/><path d="M39.326 273.93c25.838 20.647 37.212 17.385 60.325 0" style="fill:none;fill-opacity:1;stroke:#595959;stroke-width:2;stroke-linecap:round;stroke-linejoin:round;stroke-dasharray:none;stroke-dashoffset:631.937;stroke-opacity:1;paint-order:normal" transform="translate(.71)"/><path d="M44.353 282.58v-11.163" style="fill:none;fill-opacity:1;stroke:#595959;stroke-width:2.08018;stroke-linecap:round;stroke-linejoin:round;stroke-dasharray:none;stroke-dashoffset:631.937;stroke-opacity:1;paint-order:normal" transform="translate(.71)"/><path d="M50.968 275.377v12.769" style="fill:none;fill-opacity:1;stroke:#595959;stroke-width:2.07118;stroke-linecap:round;stroke-linejoin:round;stroke-dasharray:none;stroke-dashoffset:631.937;stroke-opacity:1;paint-order:normal" transform="translate(.71)"/><path d="M57.582 279.353v11.43" style="fill:none;fill-opacity:1;stroke:#595959;stroke-width:2.07852;stroke-linecap:round;stroke-linejoin:round;stroke-dasharray:none;stroke-dashoffset:631.937;stroke-opacity:1;paint-order:normal" transform="translate(.71)"/><path d="M63.668 282.397v10.583" style="fill:none;fill-opacity:1;stroke:#595959;stroke-width:2;stroke-linecap:round;stroke-linejoin:round;stroke-dasharray:none;stroke-dashoffset:631.937;stroke-opacity:1;paint-order:normal" transform="translate(.71)"/><path d="M75.31 281.868v12.28" style="fill:none;fill-opacity:1;stroke:#595959;stroke-width:2.15436;stroke-linecap:round;stroke-linejoin:round;stroke-dasharray:none;stroke-dashoffset:631.937;stroke-opacity:1;paint-order:normal" transform="translate(.71)"/><path d="M81.395 279.336v12.375" style="fill:none;fill-opacity:1;stroke:#595959;stroke-width:2.11061;stroke-linecap:round;stroke-linejoin:round;stroke-dasharray:none;stroke-dashoffset:631.937;stroke-opacity:1;paint-order:normal" transform="translate(.71)"/><path d="M88.01 275.783v12.435" style="fill:none;fill-opacity:1;stroke:#595959;stroke-width:2;stroke-linecap:round;stroke-linejoin:round;stroke-dasharray:none;stroke-dashoffset:631.937;stroke-opacity:1;paint-order:normal" transform="translate(.71)"/><path d="M94.624 270.336v12.59" style="fill:none;fill-opacity:1;stroke:#595959;stroke-width:2.12888;stroke-linecap:round;stroke-linejoin:round;stroke-dasharray:none;stroke-dashoffset:631.937;stroke-opacity:1;paint-order:normal" transform="translate(.71)"/><path d="M69.36 282.926v10.584" style="fill:none;fill-opacity:1;stroke:#595959;stroke-width:2;stroke-linecap:round;stroke-linejoin:round;stroke-dasharray:none;stroke-dashoffset:631.937;stroke-opacity:1;paint-order:normal" transform="translate(.71)"/></g></svg>