<svg xmlns="http://www.w3.org/2000/svg" xml:space="preserve" width="84" height="84" viewBox="0 0 22.224999 22.225"><g transform="translate(0 -28.358)scale(.16406)"><path d="M98.404 201.133c19.05 3.086 20.223-16.809 31.674-21.96-3.409 34.16-4.799 41.534-18.706 53.597m-74.309-31.637c-19.05 3.086-20.224-16.809-31.675-21.96 3.41 34.16 4.8 41.534 18.706 53.597" style="fill:#b055b9;fill-opacity:1;stroke:#3f1c43;stroke-width:7.80041;stroke-linecap:round;stroke-linejoin:miter;stroke-dasharray:none;stroke-opacity:1;paint-order:stroke fill markers"/><circle cx="67.926819" cy="247.59766" r="55.147297" style="fill:#b055b9;fill-opacity:1;fill-rule:nonzero;stroke:#3f1c43;stroke-width:11.1434;stroke-linecap:round;stroke-linejoin:round;stroke-miterlimit:4;stroke-dasharray:none;stroke-dashoffset:0;stroke-opacity:1;paint-order:markers stroke fill"/><g transform="translate(-.228)"><circle cx="44.837261" cy="241.72392" r="8.3575869" style="fill:#3f1c43;fill-opacity:1;fill-rule:nonzero;stroke:none;stroke-width:7.14574;stroke-linecap:round;stroke-linejoin:bevel;stroke-miterlimit:4;stroke-dasharray:none;stroke-dashoffset:0;stroke-opacity:1;paint-order:markers stroke fill"/><circle cx="-241.7242" cy="91.085823" r="8.3575869" style="fill:#3f1c43;fill-opacity:1;fill-rule:nonzero;stroke:none;stroke-width:7.14551;stroke-linecap:round;stroke-linejoin:bevel;stroke-miterlimit:4;stroke-dasharray:none;stroke-dashoffset:0;stroke-opacity:1;paint-order:markers stroke fill" transform="rotate(-90)"/></g><path d="M33.895 260.003c-.567-1.203 30.179 40.467 67.65 0" style="fill:none;fill-opacity:1;fill-rule:nonzero;stroke:#3f1c43;stroke-width:7.24324;stroke-linecap:round;stroke-linejoin:miter;stroke-miterlimit:4;stroke-dasharray:none;stroke-dashoffset:0;stroke-opacity:1;paint-order:stroke markers fill"/><path d="M94.143 221.78c-7.204 2.966-14.843 5.284-17.69 14.742m-34.458-14.741c7.205 2.965 14.843 5.283 17.69 14.742" style="fill:#3f1c43;fill-opacity:1;fill-rule:nonzero;stroke:#3f1c43;stroke-width:7.24324;stroke-linecap:round;stroke-linejoin:miter;stroke-miterlimit:4;stroke-dasharray:none;stroke-dashoffset:0;stroke-opacity:1;paint-order:stroke markers fill" transform="translate(-.336)"/></g></svg>