<svg xmlns="http://www.w3.org/2000/svg" xml:space="preserve" width="84" height="84" viewBox="0 0 22.225 22.225"><g transform="translate(79.302 123.64)scale(.65625)"><circle cx="-104.2385" cy="-171.80229" r="15.079071" style="fill:#ffc703;fill-opacity:1;fill-rule:nonzero;stroke:#584d00;stroke-width:3.04698;stroke-linecap:round;stroke-linejoin:round;stroke-miterlimit:4;stroke-dasharray:none;stroke-dashoffset:0;stroke-opacity:1;paint-order:markers stroke fill"/><path d="M-98.892-161.426c-2.967-2.194-6.23-2.812-9.761-2.32" style="fill:none;fill-opacity:1;stroke:#584d00;stroke-width:1.85866;stroke-linecap:round;stroke-linejoin:round;stroke-opacity:1;paint-order:markers fill stroke"/><path d="M-111.318-182.266c.882 0 1.597 2.547 1.597 3.605s-.715 1.915-1.597 1.915c-.881 0-1.596-.858-1.596-1.915 0-1.058.715-3.605 1.596-3.605" style="fill:#3479ff;fill-opacity:1;stroke-width:1.49495;stroke-linecap:round;stroke-linejoin:bevel;paint-order:markers stroke fill"/><g transform="translate(-168.954 -368.75)"><ellipse cx="59.248234" cy="197.03246" rx="2.2852368" ry="2.7422843" style="fill:#584d00;fill-opacity:1;fill-rule:nonzero;stroke:none;stroke-width:2.1403;stroke-linecap:round;stroke-linejoin:bevel;stroke-miterlimit:4;stroke-dasharray:none;stroke-dashoffset:0;stroke-opacity:1;paint-order:markers stroke fill"/><rect width="7.3429084" height="0.696917" x="110.1666" y="167.52956" ry="0.32850468" style="fill:#584d00;fill-opacity:1;stroke:#574b00;stroke-width:1.07195;stroke-opacity:1;paint-order:fill markers stroke" transform="rotate(17.502)"/></g><g transform="translate(-168.485 -368.598)"><ellipse cx="-69.561371" cy="197.03246" rx="2.2852368" ry="2.7422843" style="fill:#584d00;fill-opacity:1;fill-rule:nonzero;stroke:none;stroke-width:2.1403;stroke-linecap:round;stroke-linejoin:bevel;stroke-miterlimit:4;stroke-dasharray:none;stroke-dashoffset:0;stroke-opacity:1;paint-order:markers stroke fill" transform="scale(-1 1)"/><rect width="7.3429084" height="0.696917" x="-12.679964" y="206.26738" ry="0.32850468" style="fill:#584d00;fill-opacity:1;stroke:#574b00;stroke-width:1.07195;stroke-opacity:1;paint-order:fill markers stroke" transform="scale(-1 1)rotate(17.502)"/></g><path d="M-116.61-174.601c.881 0 1.596 2.547 1.596 3.605s-.715 1.915-1.597 1.915c-.881 0-1.596-.857-1.596-1.915s.715-3.605 1.596-3.605" style="fill:#3479ff;fill-opacity:1;stroke-width:1.49495;stroke-linecap:round;stroke-linejoin:bevel;paint-order:markers stroke fill"/><circle cx="-104.2385" cy="-171.80229" r="15.079071" style="fill:#ffc703;fill-opacity:1;fill-rule:nonzero;stroke:#584d00;stroke-width:3.04698;stroke-linecap:round;stroke-linejoin:round;stroke-miterlimit:4;stroke-dasharray:none;stroke-dashoffset:0;stroke-opacity:1;paint-order:markers stroke fill"/><path d="M-98.892-161.426c-2.967-2.194-6.23-2.812-9.761-2.32" style="fill:none;fill-opacity:1;stroke:#584d00;stroke-width:1.85866;stroke-linecap:round;stroke-linejoin:round;stroke-opacity:1;paint-order:markers fill stroke"/><path d="M-111.318-182.266c.882 0 1.597 2.547 1.597 3.605s-.715 1.915-1.597 1.915c-.881 0-1.596-.858-1.596-1.915 0-1.058.715-3.605 1.596-3.605" style="fill:#3479ff;fill-opacity:1;stroke-width:1.49495;stroke-linecap:round;stroke-linejoin:bevel;paint-order:markers stroke fill"/><g transform="translate(-168.954 -368.75)"><ellipse cx="59.248234" cy="197.03246" rx="2.2852368" ry="2.7422843" style="fill:#584d00;fill-opacity:1;fill-rule:nonzero;stroke:none;stroke-width:2.1403;stroke-linecap:round;stroke-linejoin:bevel;stroke-miterlimit:4;stroke-dasharray:none;stroke-dashoffset:0;stroke-opacity:1;paint-order:markers stroke fill"/><rect width="7.3429084" height="0.696917" x="110.1666" y="167.52956" ry="0.32850468" style="fill:#584d00;fill-opacity:1;stroke:#574b00;stroke-width:1.07195;stroke-opacity:1;paint-order:fill markers stroke" transform="rotate(17.502)"/></g><g transform="translate(-168.485 -368.598)"><ellipse cx="-69.561371" cy="197.03246" rx="2.2852368" ry="2.7422843" style="fill:#584d00;fill-opacity:1;fill-rule:nonzero;stroke:none;stroke-width:2.1403;stroke-linecap:round;stroke-linejoin:bevel;stroke-miterlimit:4;stroke-dasharray:none;stroke-dashoffset:0;stroke-opacity:1;paint-order:markers stroke fill" transform="scale(-1 1)"/><rect width="7.3429084" height="0.696917" x="-12.679964" y="206.26738" ry="0.32850468" style="fill:#584d00;fill-opacity:1;stroke:#574b00;stroke-width:1.07195;stroke-opacity:1;paint-order:fill markers stroke" transform="scale(-1 1)rotate(17.502)"/></g><path d="M-116.61-174.601c.881 0 1.596 2.547 1.596 3.605s-.715 1.915-1.597 1.915c-.881 0-1.596-.857-1.596-1.915s.715-3.605 1.596-3.605" style="fill:#3479ff;fill-opacity:1;stroke-width:1.49495;stroke-linecap:round;stroke-linejoin:bevel;paint-order:markers stroke fill"/><g transform="translate(2.407 3.754)scale(1.01992)"><circle cx="-104.2385" cy="-171.80229" r="15.079071" style="fill:#ffc703;fill-opacity:1;fill-rule:nonzero;stroke:#584d00;stroke-width:3.04698;stroke-linecap:round;stroke-linejoin:round;stroke-miterlimit:4;stroke-dasharray:none;stroke-dashoffset:0;stroke-opacity:1;paint-order:markers stroke fill"/><path d="M-98.892-161.426c-2.967-2.194-6.23-2.812-9.761-2.32" style="fill:none;fill-opacity:1;stroke:#584d00;stroke-width:1.85866;stroke-linecap:round;stroke-linejoin:round;stroke-opacity:1;paint-order:markers fill stroke"/><path d="M-111.318-182.266c.882 0 1.597 2.547 1.597 3.605s-.715 1.915-1.597 1.915c-.881 0-1.596-.858-1.596-1.915 0-1.058.715-3.605 1.596-3.605" style="fill:#3479ff;fill-opacity:1;stroke-width:1.49495;stroke-linecap:round;stroke-linejoin:bevel;paint-order:markers stroke fill"/><g transform="translate(-168.954 -368.75)"><ellipse cx="59.248234" cy="197.03246" rx="2.2852368" ry="2.7422843" style="fill:#584d00;fill-opacity:1;fill-rule:nonzero;stroke:none;stroke-width:2.1403;stroke-linecap:round;stroke-linejoin:bevel;stroke-miterlimit:4;stroke-dasharray:none;stroke-dashoffset:0;stroke-opacity:1;paint-order:markers stroke fill"/><rect width="7.3429084" height="0.696917" x="110.1666" y="167.52956" ry="0.32850468" style="fill:#584d00;fill-opacity:1;stroke:#574b00;stroke-width:1.07195;stroke-opacity:1;paint-order:fill markers stroke" transform="rotate(17.502)"/></g><g transform="translate(-168.485 -368.598)"><ellipse cx="-69.561371" cy="197.03246" rx="2.2852368" ry="2.7422843" style="fill:#584d00;fill-opacity:1;fill-rule:nonzero;stroke:none;stroke-width:2.1403;stroke-linecap:round;stroke-linejoin:bevel;stroke-miterlimit:4;stroke-dasharray:none;stroke-dashoffset:0;stroke-opacity:1;paint-order:markers stroke fill" transform="scale(-1 1)"/><rect width="7.3429084" height="0.696917" x="-12.679964" y="206.26738" ry="0.32850468" style="fill:#584d00;fill-opacity:1;stroke:#574b00;stroke-width:1.07195;stroke-opacity:1;paint-order:fill markers stroke" transform="scale(-1 1)rotate(17.502)"/></g><path d="M-116.61-174.601c.881 0 1.596 2.547 1.596 3.605s-.715 1.915-1.597 1.915c-.881 0-1.596-.857-1.596-1.915s.715-3.605 1.596-3.605" style="fill:#3479ff;fill-opacity:1;stroke-width:1.49495;stroke-linecap:round;stroke-linejoin:bevel;paint-order:markers stroke fill"/></g></g></svg>