<svg xmlns="http://www.w3.org/2000/svg" xml:space="preserve" width="84" height="84" viewBox="0 0 22.225 22.225001"><g transform="translate(-8.894 -53.94)scale(.26282)"><rect width="52.916664" height="5.2916665" x="53.016666" y="231.0775" rx="7.7169566" ry="2.6458333" style="fill:#6e0000;fill-opacity:1;stroke:#6e0000;stroke-width:1.995;stroke-linecap:butt;stroke-linejoin:bevel;stroke-dasharray:none;stroke-opacity:1;paint-order:stroke fill markers"/><path d="M109.996 222.118a1.32 1.32 0 0 0-1.204.83l-2.466 6.138a1.32 1.32 0 0 0 .735 1.721 1.32 1.32 0 0 0 1.72-.734l2.466-6.138a1.32 1.32 0 0 0-1.251-1.817m-5.068-.662c-.672 0-1.245.427-1.315 1.006l-.676 5.576c-.075.618.452 1.166 1.18 1.23.73.063 1.377-.384 1.452-1.001l.676-5.575c.075-.618-.452-1.167-1.181-1.23a2 2 0 0 0-.136-.006" style="fill:#6e0000;fill-opacity:1;stroke:none;stroke-width:3.50059;stroke-linecap:butt;stroke-linejoin:bevel;stroke-dasharray:none;stroke-opacity:1;paint-order:stroke fill markers"/><circle cx="64.488503" cy="247.51151" r="27.837301" style="opacity:1;fill:#ff0a0a;fill-opacity:1;fill-rule:nonzero;stroke:#5d0000;stroke-width:5.625;stroke-linecap:round;stroke-linejoin:round;stroke-miterlimit:4;stroke-dasharray:none;stroke-dashoffset:0;stroke-opacity:1;paint-order:markers stroke fill"/><circle cx="73.568771" cy="245.99373" r="4.21875" style="opacity:1;fill:#5d0000;fill-opacity:1;fill-rule:nonzero;stroke:none;stroke-width:3.60675;stroke-linecap:round;stroke-linejoin:bevel;stroke-miterlimit:4;stroke-dasharray:none;stroke-dashoffset:0;stroke-opacity:1;paint-order:markers stroke fill"/><circle cx="-245.99399" cy="87.203583" r="4.21875" style="opacity:1;fill:#5d0000;fill-opacity:1;fill-rule:nonzero;stroke:none;stroke-width:3.60675;stroke-linecap:round;stroke-linejoin:bevel;stroke-miterlimit:4;stroke-dasharray:none;stroke-dashoffset:0;stroke-opacity:1;paint-order:markers stroke fill" transform="rotate(-90)"/><rect width="13.018749" height="1.9997271" x="74.188538" y="258.69876" rx="6.5093746" ry="0.99986356" style="fill:#5d0000;fill-opacity:1;stroke:#5d0000;stroke-width:3.18484;stroke-linecap:butt;stroke-linejoin:bevel;stroke-dasharray:none;stroke-opacity:1"/><circle cx="50.302082" cy="235.97092" r="4" style="fill:#6e0000;fill-opacity:1;stroke:none;stroke-width:4.99353;stroke-linecap:butt;stroke-linejoin:bevel;stroke-dasharray:none;stroke-opacity:1"/><path d="m50.27 231.97 1.324-2.645 1.323 3.969 3.968 1.323-3.968 2.646 1.323 3.968-3.97-2.645-2.645 2.645v-2.645l-2.646 1.322c3.655-3.679-3.636-7.952 1.323-5.291l-1.323-2.646 2.646 1.323v-3.969z" style="fill:#6e0000;fill-opacity:1;stroke:none;stroke-width:3.30301;stroke-linecap:butt;stroke-linejoin:bevel;stroke-dasharray:none;stroke-opacity:1"/><rect width="9.260417" height="2.6458333" x="109.14062" y="232.23552" rx="1.3229116" ry="2.6458333" style="fill:#6e0000;fill-opacity:1;stroke:none;stroke-width:3.80299;stroke-linecap:butt;stroke-linejoin:bevel;stroke-dasharray:none;stroke-opacity:1;paint-order:stroke fill markers"/><path d="M109.996 245.058a1.32 1.32 0 0 1-1.204-.83l-2.466-6.138a1.32 1.32 0 0 1 .735-1.72 1.32 1.32 0 0 1 1.72.733l2.466 6.139a1.32 1.32 0 0 1-1.251 1.816m-5.068.662c-.672.001-1.245-.427-1.315-1.006l-.676-5.576c-.075-.617.452-1.165 1.18-1.229.73-.063 1.377.383 1.452 1l.676 5.575c.075.618-.452 1.167-1.181 1.23a2 2 0 0 1-.136.006" style="fill:#6e0000;fill-opacity:1;stroke:none;stroke-width:3.50059;stroke-linecap:butt;stroke-linejoin:bevel;stroke-dasharray:none;stroke-opacity:1;paint-order:stroke fill markers"/></g></svg>