<svg xmlns="http://www.w3.org/2000/svg" xml:space="preserve" width="84" height="84" viewBox="0 0 22.225 22.225"><g transform="translate(0 -30.027)scale(.16406)"><circle cx="67.733337" cy="250.75633" r="61.51796" style="fill:#0aff20;fill-opacity:1;fill-rule:nonzero;stroke:#005d08;stroke-width:12.4307;stroke-linecap:round;stroke-linejoin:round;stroke-miterlimit:4;stroke-dasharray:none;stroke-dashoffset:0;stroke-opacity:1;paint-order:markers stroke fill"/><path d="M20.939 262.749c-.27-.795 4.58 10.777 13.166 19.695 14.08 14.623 39.394 27.199 67.48-1.316 4.615-4.685 8.152-11.177 12.954-18.38" style="fill:#005d08;fill-opacity:1;fill-rule:nonzero;stroke:none;stroke-width:11.8107;stroke-linecap:round;stroke-linejoin:miter;stroke-miterlimit:4;stroke-dasharray:none;stroke-dashoffset:0;stroke-opacity:1;paint-order:stroke markers fill"/><path d="M32.308 234.881c6.56-6.1 13.464-7.958 21.166 0m20.595.001c6.56-6.101 13.464-7.959 21.166 0" style="fill:none;fill-opacity:1;stroke:#005d08;stroke-width:6.00001;stroke-linecap:round;stroke-linejoin:round;stroke-opacity:1;paint-order:stroke fill markers" transform="translate(-11.54 -56.919)scale(1.24307)"/><path d="M41.367 235.41s-18.665 10.777-8.118 15.575c10.548 4.799 8.118-15.575 8.118-15.575m44.955 0s18.666 10.777 8.118 15.575c-10.547 4.799-8.118-15.575-8.118-15.575" style="fill:#3479ff;fill-opacity:1;stroke:#0058e3;stroke-width:2.5;stroke-linecap:round;stroke-dasharray:none;stroke-opacity:1;paint-order:stroke fill markers" transform="translate(-11.63 -56.919)scale(1.24307)"/></g></svg>