<svg xmlns="http://www.w3.org/2000/svg" xml:space="preserve" width="84" height="84" viewBox="0 0 22.225 22.225"><g transform="translate(0 .217)scale(.65625)"><circle cx="16.602552" cy="16.602568" r="15.079071" style="fill:#ffc703;fill-opacity:1;fill-rule:nonzero;stroke:#584d00;stroke-width:3.04698;stroke-linecap:round;stroke-linejoin:round;stroke-miterlimit:4;stroke-dasharray:none;stroke-dashoffset:0;stroke-opacity:1;paint-order:markers stroke fill"/><path d="M19.044 23.77c-3.579.01-5.512 1.05-8.223 3.143" style="fill:none;fill-opacity:1;stroke:#584d00;stroke-width:1.85866;stroke-linecap:round;stroke-linejoin:round;stroke-opacity:1;paint-order:markers fill stroke"/><path d="M15.658 14.982c3.98 1.811 13.09.561 16.85 3.386 3.797 6.397-14.418.684-18.06 0" style="fill:#ffc703;fill-opacity:1;stroke:#6a5d00;stroke-width:1.67584;stroke-linecap:square;stroke-dasharray:none;stroke-dashoffset:19.953;stroke-opacity:1;paint-order:stroke fill markers"/><rect width="10.274212" height="5.3137565" x="-18.531477" y="10.095825" rx="1.2773838" ry="2.6067462" style="fill:#ffc703;fill-opacity:1;stroke:none;stroke-width:3.37557;stroke-linecap:square;stroke-dasharray:none;stroke-dashoffset:19.953;stroke-opacity:1;paint-order:stroke fill markers" transform="matrix(-.11052 -.99387 .9726 .2325 0 0)"/><ellipse cx="11.735729" cy="12.419809" rx="2.2852368" ry="2.7422843" style="fill:#584d00;fill-opacity:1;fill-rule:nonzero;stroke:none;stroke-width:2.1403;stroke-linecap:round;stroke-linejoin:bevel;stroke-miterlimit:4;stroke-dasharray:none;stroke-dashoffset:0;stroke-opacity:1;paint-order:markers stroke fill"/><ellipse cx="-12.392374" cy="23.311136" rx="2.7422843" ry="2.2852368" style="fill:#584d00;fill-opacity:1;fill-rule:nonzero;stroke:none;stroke-width:2.1403;stroke-linecap:round;stroke-linejoin:bevel;stroke-miterlimit:4;stroke-dasharray:none;stroke-dashoffset:0;stroke-opacity:1;paint-order:markers stroke fill" transform="rotate(-90)"/><path d="M6.783 9.455c1.853-2.172 4.386-2.74 6.698-2.777m14.673 3.709c-1.448-2.462-4.34-3.11-6.61-3.548" style="fill:none;fill-opacity:1;stroke:#584d00;stroke-width:1.85866;stroke-linecap:round;stroke-linejoin:round;stroke-opacity:1;paint-order:markers fill stroke"/></g></svg>