<svg xmlns="http://www.w3.org/2000/svg" width="84" height="84" viewBox="0 0 83.999999 83.999996"><path fill="#ca947b" stroke="#966e5c" stroke-width="3.50799" d="M5.262 44.685c-1.703-6.36.792-12.482 5.243-13.674s9.44 2.996 11.145 9.355c1.704 6.36-.523 12.482-4.974 13.675-4.451 1.192-9.71-2.996-11.414-9.356zm62.062 9.355c-4.45-1.192-6.678-7.314-4.974-13.674s6.694-10.548 11.145-9.355 6.946 7.315 5.243 13.674c-1.704 6.36-6.963 10.548-11.414 9.355z" style="mix-blend-mode:normal;fill-rule:nonzero;stroke-linecap:butt;stroke-linejoin:miter;stroke-miterlimit:10;stroke-dasharray:none;stroke-dashoffset:0"/><path fill="#bb533e" stroke="#8f3f2f" stroke-width="3.50799" d="M44.116 82.246h-4.45c-14.68 0-28.916-11.259-28.916-27.02 0-4.592 1.708-8.996 2.275-12.992.545-3.84.219-7.317.219-9.523 0-11.886 10.754-22.031 23.405-24.295.816-.146 1.177-1.726.565-3.35-.681-1.81-3.257-3.223-2.329-3.223.303 0 1.593-.263 3.004.115 1.251.335 2.598 1.27 3.436 1.902 2.557 1.927 3.908 4.3 4.716 4.436 13.101 2.19 24.497 14.225 24.497 24.415 0 2.09-.57 5.714-.056 9.292.593 4.134 2.55 8.397 2.55 13.224 0 15.76-14.235 27.019-28.916 27.019z" style="mix-blend-mode:normal;fill-rule:nonzero;stroke-linecap:butt;stroke-linejoin:miter;stroke-miterlimit:10;stroke-dasharray:none;stroke-dashoffset:0"/><path fill="#ca947b" d="M16.822 37.968c0-7.225 5.856-13.081 13.08-13.081s13.082 5.856 13.082 13.08S37.127 51.05 29.903 51.05c-7.225 0-13.081-5.857-13.081-13.081" style="mix-blend-mode:normal;fill-rule:nonzero;stroke-linecap:butt;stroke-linejoin:miter;stroke-miterlimit:10;stroke-dasharray:none;stroke-dashoffset:0"/><path fill="#ca947b" d="M41.016 37.968c0-7.225 5.857-13.081 13.081-13.081 7.225 0 13.081 5.856 13.081 13.08S61.322 51.05 54.098 51.05s-13.082-5.857-13.082-13.081" style="mix-blend-mode:normal;fill-rule:nonzero;stroke-linecap:butt;stroke-linejoin:miter;stroke-miterlimit:10;stroke-dasharray:none;stroke-dashoffset:0"/><path fill="#ca947b" d="M19.092 58.13c0-12.652 10.256-22.908 22.908-22.908S64.908 45.478 64.908 58.13c0 12.651-10.256 22.908-22.908 22.908S19.092 70.78 19.092 58.13" style="mix-blend-mode:normal;fill-rule:nonzero;stroke-linecap:butt;stroke-linejoin:miter;stroke-miterlimit:10;stroke-dasharray:none;stroke-dashoffset:0"/><path fill="#0b0d0e" d="M26.543 42c0-4.009 2.407-7.258 5.376-7.258s5.377 3.25 5.377 7.258c0 4.009-2.408 7.258-5.377 7.258-2.97 0-5.376-3.25-5.376-7.258m20.161 0c0-4.009 2.408-7.258 5.377-7.258 2.97 0 5.376 3.25 5.376 7.258 0 4.009-2.407 7.258-5.376 7.258s-5.377-3.25-5.377-7.258" style="mix-blend-mode:normal;fill-rule:nonzero;stroke-linecap:butt;stroke-linejoin:miter;stroke-miterlimit:10;stroke-dasharray:none;stroke-dashoffset:0;fill:#202020;fill-opacity:1"/><path fill="#9a5542" d="M35.756 56.978a2.554 2.554 0 1 1 3.612-3.611 2.554 2.554 0 0 1-3.612 3.611m8.876 0a2.554 2.554 0 1 1 3.612-3.611 2.554 2.554 0 0 1-3.612 3.611m-15.738 7.479c2.332-2.516 7.975-.99 13.179-1.174 6.025-.213 11.625-1.739 13.425 1.174 2.152 3.482.595 7.213-2.952 9.835-2.82 2.084-7.096 3.467-10.35 3.467-3.172 0-7.553-1.475-10.495-3.585-3.872-2.778-5.645-6.655-2.807-9.717" style="mix-blend-mode:normal;fill-rule:nonzero;stroke-linecap:butt;stroke-linejoin:miter;stroke-miterlimit:10;stroke-dasharray:none;stroke-dashoffset:0"/></svg>