<svg xmlns="http://www.w3.org/2000/svg" width="84" height="84" viewBox="0 0 83.999996 83.999996"><path fill="#f3be3a" stroke="#b76b00" stroke-width="5" d="M177.964 180c0-34.261 27.775-62.036 62.036-62.036S302.036 145.74 302.036 180 274.262 242.036 240 242.036 177.964 214.26 177.964 180z" style="mix-blend-mode:normal;fill:#ffc703;fill-opacity:1;fill-rule:nonzero;stroke:#584d00;stroke-linejoin:miter;stroke-miterlimit:10;stroke-dasharray:none;stroke-dashoffset:0;stroke-opacity:1" transform="translate(-114.193 -75.144)scale(.6508)"/><path fill="none" stroke="#000" stroke-linecap="round" stroke-width="5" d="M208.25 213.75h63.5" style="mix-blend-mode:normal;fill-rule:nonzero;stroke:#584d00;stroke-linejoin:miter;stroke-miterlimit:10;stroke-dasharray:none;stroke-dashoffset:0;stroke-opacity:1" transform="translate(-114.193 -75.144)scale(.6508)"/><path fill="none" stroke="#000" stroke-linecap="round" stroke-width="5" d="M201.709 158.823s2.336-1.764 5.571-3.155c2.53-1.087 5.624-1.814 8.487-2.165 2.578-.317 5.411-.383 7.938.064 3.857.681 6.95 2.105 6.95 2.105m19.054-12s7.595-9.828 14.889-7.67c9.92 4.113 14.058 10.821 14.058 10.821" data-paper-data="{&quot;index&quot;:null}" style="mix-blend-mode:normal;fill-rule:nonzero;stroke:#584d00;stroke-linejoin:miter;stroke-miterlimit:10;stroke-dasharray:none;stroke-dashoffset:0;stroke-opacity:1" transform="translate(-114.193 -75.144)scale(.6508)"/><g transform="translate(.349 6.517)scale(2.45973)"><ellipse cx="10.937675" cy="13.984599" rx="2.3307655" ry="3.1076872" style="fill:#584d00;fill-opacity:1;fill-rule:nonzero;stroke:none;stroke-width:2.30102;stroke-linecap:round;stroke-linejoin:bevel;stroke-miterlimit:4;stroke-dasharray:none;stroke-dashoffset:0;stroke-opacity:1;paint-order:markers stroke fill"/><ellipse cx="-13.984599" cy="22.928991" rx="3.1076872" ry="2.3307655" style="fill:#584d00;fill-opacity:1;fill-rule:nonzero;stroke:none;stroke-width:2.30102;stroke-linecap:round;stroke-linejoin:bevel;stroke-miterlimit:4;stroke-dasharray:none;stroke-dashoffset:0;stroke-opacity:1;paint-order:markers stroke fill" transform="rotate(-90)"/></g></svg>