<svg xmlns="http://www.w3.org/2000/svg" width="84" height="84" viewBox="0 0 83.999996 83.999996"><path fill="#f3be3a" stroke="#b76b00" stroke-width="5" d="M2.5 64.536C2.5 30.274 30.274 2.5 64.536 2.5s62.035 27.774 62.035 62.036-27.774 62.035-62.035 62.035C30.274 126.571 2.5 98.797 2.5 64.536z" style="mix-blend-mode:normal;fill:#ffc703;fill-opacity:1;fill-rule:nonzero;stroke:#584d00;stroke-linejoin:miter;stroke-miterlimit:10;stroke-dasharray:none;stroke-dashoffset:0;stroke-opacity:1" transform="scale(.6508)"/><path d="M98.124 85.45c0 18.341-14.869 28.696-33.21 28.696-18.343 0-33.212-10.355-33.212-28.697 0-5.666 17.123 3.25 33.61 3.269 16.723.018 32.812-9.355 32.812-3.269" data-paper-data="{&quot;index&quot;:null}" style="mix-blend-mode:normal;fill-rule:nonzero;stroke-linejoin:miter;stroke-miterlimit:10;stroke-dasharray:none;stroke-dashoffset:0" transform="scale(.6508)"/><path fill="#fff" d="M91.92 88.766c-.303 6.11-12.26 14.31-27.382 14.31s-27.686-8.807-27.383-14.31c.156-2.822 14.118 3.139 27.71 3.148 13.79.009 27.206-6.18 27.055-3.148" data-paper-data="{&quot;index&quot;:null}" style="mix-blend-mode:normal;fill-rule:nonzero;stroke-linejoin:miter;stroke-miterlimit:10;stroke-dasharray:none;stroke-dashoffset:0" transform="scale(.6508)"/><path fill="none" stroke="#000" stroke-linecap="round" stroke-width="7" d="M32.335 66.044s2.299-1.382 5.27-2.255c1.99-.584 4.28-.789 6.383-.76 1.964.027 4.084.18 5.97.705 3.165.88 5.671 2.31 5.671 2.31m17.813 0s2.338-1.4 5.345-2.277c1.972-.574 4.23-.766 6.308-.738 2.308.032 4.831.342 6.937.988 2.694.826 4.704 2.027 4.704 2.027" style="mix-blend-mode:normal;fill-rule:nonzero;stroke-linejoin:miter;stroke-miterlimit:10;stroke-dasharray:none;stroke-dashoffset:0" transform="scale(.6508)"/><path d="M101.448 5.095S66.317 56.43 99.755 55.758c33.437-.673 1.693-50.663 1.693-50.663" style="fill:#3479ff;fill-opacity:1;stroke:#0058e3;stroke-width:7.21548;stroke-linecap:round;stroke-dasharray:none;stroke-opacity:1;paint-order:stroke fill markers" transform="scale(.6508)"/></svg>