<svg xmlns="http://www.w3.org/2000/svg" width="84" height="84" viewBox="0 0 83.999996 83.999996"><g transform="scale(.6508)"><path fill="#f3be3a" stroke="#b76b00" stroke-width="5" d="M2.5 64.536C2.5 30.274 30.274 2.5 64.536 2.5s62.035 27.774 62.035 62.036-27.774 62.035-62.035 62.035C30.274 126.571 2.5 98.797 2.5 64.536z" style="mix-blend-mode:normal;fill:#ffc703;fill-opacity:1;fill-rule:nonzero;stroke:#584d00;stroke-linejoin:miter;stroke-miterlimit:10;stroke-dasharray:none;stroke-dashoffset:0;stroke-opacity:1"/><ellipse cx="42.124756" cy="55.368961" rx="8.8091927" ry="11.745589" style="fill:#584d00;fill-opacity:1;fill-rule:nonzero;stroke:none;stroke-width:8.69677;stroke-linecap:round;stroke-linejoin:bevel;stroke-miterlimit:4;stroke-dasharray:none;stroke-dashoffset:0;stroke-opacity:1;paint-order:markers stroke fill"/><ellipse cx="-55.368961" cy="87.446266" rx="11.745589" ry="8.8091927" style="fill:#584d00;fill-opacity:1;fill-rule:nonzero;stroke:none;stroke-width:8.69677;stroke-linecap:round;stroke-linejoin:bevel;stroke-miterlimit:4;stroke-dasharray:none;stroke-dashoffset:0;stroke-opacity:1;paint-order:markers stroke fill" transform="rotate(-90)"/><path fill="none" stroke="#000" stroke-linecap="round" stroke-width="5" d="M96.228 83.892s-6.77 5.94-15.323 9.598c-5.096 2.18-10.825 2.817-16.13 2.928-5.685.12-11.872-.731-17.246-3.158-8.03-3.626-14.242-9.368-14.242-9.368" data-paper-data="{&quot;index&quot;:null}" style="mix-blend-mode:normal;fill-rule:nonzero;stroke:#584d00;stroke-linejoin:miter;stroke-miterlimit:10;stroke-dasharray:none;stroke-dashoffset:0;stroke-opacity:1"/><path d="M87.236 68.262s-25.315 43.847 1.779 41.22c27.093-2.627-1.78-41.22-1.78-41.22" style="fill:#3479ff;fill-opacity:1;stroke:#0058e3;stroke-width:5.87278;stroke-linecap:round;stroke-dasharray:none;stroke-opacity:1;paint-order:stroke fill markers"/></g></svg>