<svg xmlns="http://www.w3.org/2000/svg" xml:space="preserve" width="84" height="84" viewBox="0 0 22.225 22.225"><g transform="translate(0 -30.027)scale(.16406)"><circle cx="67.733337" cy="250.75633" r="61.51796" style="fill:#2fe1ff;fill-opacity:1;fill-rule:nonzero;stroke:#006779;stroke-width:12.4307;stroke-linecap:round;stroke-linejoin:round;stroke-miterlimit:4;stroke-dasharray:none;stroke-dashoffset:0;stroke-opacity:1;paint-order:markers stroke fill"/><path d="M40.445 232.678v76.615l8.957 3.476-.91-79.434zm56.318 1.315v75.3l-8.956 3.476.91-80.091z" style="fill:#3479ff;fill-opacity:1;stroke:#1565ff;stroke-width:7.45845;stroke-linecap:round;stroke-linejoin:round;stroke-dasharray:none;stroke-dashoffset:19.953;stroke-opacity:1;paint-order:stroke fill markers"/><rect width="9.9220018" height="14.350038" x="63.393044" y="264.56873" rx="3.4258175" ry="13.559093" style="fill:none;fill-opacity:1;stroke:#006779;stroke-width:10.4566;stroke-linecap:round;stroke-linejoin:round;stroke-dasharray:none;stroke-dashoffset:19.953;stroke-opacity:1;paint-order:stroke fill markers"/><path d="M31.641 236.787c9.383-4.788 18.047-3.966 26.312 0m21.05 0c9.382-4.788 18.046-3.966 26.311 0" style="fill:#0092aa;fill-opacity:1;stroke:#006779;stroke-width:9.69598;stroke-linecap:round;stroke-linejoin:round;stroke-dasharray:none;stroke-dashoffset:19.953;stroke-opacity:1"/><path d="M79.103 212.85c6.129 5.14 13.87 8.33 21.84 9 2.179.184 4.373.184 6.552 0m-50.602-9c-6.13 5.14-13.87 8.33-21.84 9a39 39 0 0 1-6.552 0" style="fill:none;stroke:#006779;stroke-width:6.76139;stroke-linecap:round;stroke-linejoin:miter;stroke-miterlimit:4;stroke-dasharray:none;stroke-opacity:1"/></g></svg>