<svg xmlns="http://www.w3.org/2000/svg" xml:space="preserve" width="84" height="84" viewBox="0 0 22.225 22.225"><g style="display:inline"><path d="M87.241 38.035s-7.572 17.75-7.203 47.772c.368 30.02-1.193 54.757 2.069 74.477a5119 5119 0 0 0 5.484 32.59s-5.506 33.241-11.04 44.445c-5.535 11.204-12.58 67.632-.646 93.208 11.933 25.577 34.142 45.839 54.775 57.651s66.541 22.442 91.17 22.419c24.628-.023 93.746-4.505 120.195-17.62 26.45-13.116 40.479-44.563 43.277-52.844s13.313-48.526 13.313-48.526 4.747-29.274 4.747-38.066-5.633-26.21-8.588-35.637-27.279-41.846-35.94-47.114-12.63-23.98-12.63-23.98-7.782-43.06-7.042-97.67c.739-54.61-28.757-5.213-28.757-5.213s-27.53 49.57-36.31 65.463c-8.778 15.892-26.59 15.732-26.59 15.732l-44.19 2.62s-19.073.07-26.29-4.801-25.244-32.063-25.244-32.063l-17.327-30.81s-10.458-12.175-21.484-18.523c-11.025-6.348-9.918-7.755-15.918-9.618s-9.83 6.108-9.83 6.108" style="display:inline;fill:#1f1f1f;fill-opacity:1;stroke:none;stroke-width:7.9375;stroke-linecap:butt;stroke-linejoin:round;stroke-dasharray:none;stroke-opacity:1" transform="translate(-.437 .013)scale(.05114)"/><path d="M197.964 127.284s1.253 21.308 12.972 40.452 47.425 38.39 48.548 41.143 13.129 35.064 13.129 35.064l-47.954 35.9-47.655 76.386-76.07 9.851-24.122-31-8.388-48.786 7.845-49.92 9.496-29.228 2.389-23.012-7.135-24.969-.871-84.516 7.07-37.78 7.321-6.058 32.495 21.267s13.617 17.812 14.38 18.945c.764 1.132 29.07 46.056 29.07 46.056l11.865 10.395z" style="display:inline;fill:#1a1a1a;fill-opacity:1;stroke:none;stroke-width:.264583px;stroke-linecap:butt;stroke-linejoin:miter;stroke-opacity:1" transform="translate(-.437 .013)scale(.05114)"/><path d="M70.015 301.589s12.64 36.885 50.002 27.34c37.363-9.546 52.128-47.055 68.564-78.956 16.437-31.901 79.202-26.992 79.42-64.916.22-37.924-.597-42.184-.597-42.184s21.525 57.177 54.859 74.634c33.333 17.457 62.779-3.487 72.112 31.063s-6.52 85.725-6.52 85.725l-255.528 36.887-47.783-22.485-14.756-31.395Z" style="display:inline;fill:#262626;fill-opacity:1;stroke:none;stroke-width:.264583px;stroke-linecap:butt;stroke-linejoin:miter;stroke-opacity:1" transform="translate(-.437 .013)scale(.05114)"/><path d="M303.593 215.843a36.777 33.964 0 0 1 36.377-34.091 36.777 33.964 0 0 1 37.172 33.352 36.777 33.964 0 0 1-35.852 34.563 36.777 33.964 0 0 1-37.678-32.864" style="display:inline;fill:#1a1a1a;fill-opacity:1;stroke:none;stroke-width:4.5664;stroke-linecap:round;stroke-linejoin:round;stroke-dasharray:none;stroke-opacity:1" transform="translate(-.437 .013)scale(.05114)"/><path d="M155.788 223.91a50.867 40.2 0 0 1 50.65-40.352 50.867 40.2 0 0 1 51.083 40.012 50.867 40.2 0 0 1-50.608 40.386 50.867 40.2 0 0 1-51.125-39.977" style="display:inline;fill:#141414;fill-opacity:1;stroke:none;stroke-width:5.29167;stroke-linecap:round;stroke-linejoin:round;stroke-dasharray:none;stroke-opacity:1" transform="translate(-.437 .013)scale(.05114)"/><path d="M79.087 335.73s23.077 14.602 36.922 13.116c13.846-1.485 26.99-7.207 35.953-13.84s23.252-19.468 30.08-32.434c6.826-12.967 11.63-53.615 55.507-67.936s33.769-75.93 33.769-75.93 15.108 44.526 32.628 57.452 24.487 15.771 42.952 23.198c18.464 7.427 31.708 12.136 30.878 41.979s10.648 45.182 10.648 45.182l-10.964 30.5-27.127 31.394-24.14 11.862-54.71 8.074-55.322 2.53-51.53-8.982-32.023-12.08-26.613-20.145-23.967-26.76z" style="display:inline;fill:#d9d9d9;fill-opacity:1;stroke:none;stroke-width:.264583px;stroke-linecap:butt;stroke-linejoin:miter;stroke-opacity:1" transform="translate(-.437 .013)scale(.05114)"/><path d="M79.83 68.996s-.164-4.02 7.068-8.088c7.233-4.067 18.282-5.908 23.736.498s35.651 47.034 36.868 56.448c1.217 9.413.534 20.043-2.472 28.268s-8.25 13.937-19.048 21.776-17.778 12.738-23.877 14.72c-6.098 1.983-15.013-1.057-15.013-1.057s-6.543-29.531-6.543-31.213-.457-42.165-.457-42.165z" style="display:inline;fill:#382e2e;fill-opacity:1;stroke:none;stroke-width:.264583px;stroke-linecap:butt;stroke-linejoin:miter;stroke-opacity:1" transform="translate(-.437 .013)scale(.05114)"/><path d="M339.097 57.422s-4.34-14.865-9.097-11.136-10.768 13.884-11.569 15.362c-.8 1.478-15.474 25.44-18.253 31.644-2.78 6.205-6.681 12.924-6.15 17.813.53 4.89 3.054 8.4 10.378 12.135 7.323 3.733 17.036 7.594 22.945 10.682 5.91 3.087 16.643-.309 16.643-.309l-4.686-49.711z" style="display:inline;fill:#564343;fill-opacity:1;stroke:none;stroke-width:.264583px;stroke-linecap:butt;stroke-linejoin:miter;stroke-opacity:1" transform="translate(-.437 .013)scale(.05114)"/><path d="M87.241 38.035s-7.572 17.75-7.203 47.772c.368 30.02-.949 54.718 2.069 74.477 3.055 20.012 3.171 31.777 3.171 31.777s-1.63 22.815-8.728 45.258c-3.768 11.915-12.579 67.632-.645 93.208 11.933 25.577 34.142 45.839 54.775 57.651s66.541 22.442 91.17 22.419c24.628-.023 93.746-4.505 120.195-17.62 26.45-13.116 40.479-44.563 43.277-52.844s13.313-48.526 13.313-48.526 5.306-20.943 4.747-38.066c-.511-15.676-4.908-26.47-8.588-35.637-7.059-17.584-29.794-39.643-35.94-47.114-7.533-9.16-12.116-24.86-12.116-24.86s-8.296-42.18-7.556-96.79-28.757-5.213-28.757-5.213-27.53 49.57-36.31 65.463c-8.778 15.892-26.59 15.732-26.59 15.732l-44.19 2.62s-19.073.07-26.29-4.801-23.998-33.092-23.998-33.092l-19.775-29.685s-11.31-15.735-19.404-20.408c-12.644-7.298-14.313-7.142-16.796-7.829-6.055-1.675-9.83 6.108-9.83 6.108z" style="display:inline;fill:none;fill-opacity:1;stroke:#000;stroke-width:7.9375;stroke-linecap:butt;stroke-linejoin:round;stroke-dasharray:none;stroke-opacity:1" transform="translate(-.437 .013)scale(.05114)"/><path d="M296.501 326.836s16.546-12.6 17.376-23.264.159-18.592.159-18.592 4.593 14.702 6.102 25.588 9.742 12.516 9.742 12.516l-15.646-4.351-12.933 7.108z" style="display:inline;fill:#dabebe;fill-opacity:1;stroke:none;stroke-width:.264583px;stroke-linecap:butt;stroke-linejoin:miter;stroke-opacity:1" transform="translate(-.437 .013)scale(.05114)"/><path d="M316.209 247.331s-13.527-2.81-20.892-.932c-7.366 1.877-12.364 6.047-14.311 10.638s-4.545 8.714-.246 14.864c4.3 6.15 23.136 17.575 28.594 19.438s7.41 1.396 10.46-.515c3.049-1.91 6.714-8.214 14.518-19.661s3.962-15.985.976-17.887c-3.473-2.214-19.1-5.945-19.1-5.945" style="display:inline;fill:#fdced0;fill-opacity:1;stroke:none;stroke-width:.264583px;stroke-linecap:butt;stroke-linejoin:miter;stroke-opacity:1" transform="translate(-.437 .013)scale(.05114)"/><path d="M278.519 265.953s11.212 2.533 19.114 1.247c7.901-1.286 10.545 1.814 11.232 3.733.719 2.01 2.128 8.016-2.378 10.643-4.887 2.849-15.344-2.242-20.923-7.401-5.578-5.16-7.045-8.222-7.045-8.222" style="display:inline;fill:#d1aeae;fill-opacity:1;stroke:none;stroke-width:.264583px;stroke-linecap:butt;stroke-linejoin:miter;stroke-opacity:1" transform="translate(-.437 .013)scale(.05114)"/><path d="M182.816 338.685s34.62 18.387 43.785 20.022c21.312 3.802 35.372 9.152 58.576 17.397s34.495.313 39.018-4.524 11.713-17.378 14.463-24.118 1.428-14.737 1.428-14.737l-25.279-15.672-48.9 33.047s-21.415 9.59-38.09 6.02c-23.269-4.982-45.001-17.435-45.001-17.435" style="display:inline;fill:#bfbfbf;fill-opacity:1;stroke:none;stroke-width:.264583px;stroke-linecap:butt;stroke-linejoin:miter;stroke-opacity:1" transform="translate(-.437 .013)scale(.05114)"/><path d="M251.71 354.94s13.027-5.752 33.482-20.788c20.456-15.037 17.273-12.633 22.107-16.877 3.234-2.839 7.565-5.436 8.271-11.283 1.157-9.582 1.552 5.233 2.906 7.068 2.511 3.4 2.092 2.744 7.903 6.005 7.932 4.452 13.094 11.52 14.514 13.234 1.444 1.744 1.645 3.063 2.933 4.42.424.446-12.561-8.025-20.17-11.487-8.59-3.908-11.914-.607-11.914-.607s-4.215 3.73-8.255 6.902-18.151 11.076-27.997 16.38c-9.846 5.305-23.78 7.033-23.78 7.033" style="display:inline;fill:#c79d9d;fill-opacity:1;stroke:none;stroke-width:.264583px;stroke-linecap:butt;stroke-linejoin:miter;stroke-opacity:1" transform="translate(-.437 .013)scale(.05114)"/><path d="M198.293 193.682s-5.322-.317-11.463 3.052-11.44 7.842-13.568 12.467-1.55 6.32-1.63 8.71c-.08 2.389.703 6.463 7.129 10.366 6.426 3.904 17.553 14.872 48.14 6.229 10.124-2.86 2.712-23.513-.56-26.76-3.524-3.498-14.532-12.806-20.923-13.627-6.391-.82-7.125-.437-7.125-.437m120.164 29.263c1.457 1.314 5.577 5.557 14.317 6.402s20.685-2.009 31.594-10.257c10.91-8.249.09-22.385.09-22.385s-9.046-12.674-24.457-6.635-21.004 12.406-22.525 21.466.944 11.374.944 11.374z" style="display:inline;fill:#b8c7b7;fill-opacity:1;stroke:none;stroke-width:.264583px;stroke-linecap:butt;stroke-linejoin:miter;stroke-opacity:1" transform="translate(-.437 .013)scale(.05114)"/><path d="M329.885 209.906s.156 4.771 2.102 7.42c1.947 2.65 3.186 3.198 5.915 2.816 2.73-.38 7.245-1.148 7.266-10.67s-2.076-11.45-4.441-12.718-5.852-1.654-8.204.506-2.718 5.753-2.722 7.678.08 4.977.08 4.977zm-134.239-.881c-.45 12.36-1.561 16.546 5.932 18.243s9.86-10.885 10.083-12.862c.337-2.99.36-9.491-.767-14.097s-6.046-5.206-7.331-5.145c-1.238.059-6.338 1.835-7.384 8.201-.146.89-.533 5.66-.533 5.66" style="display:inline;fill:#2c3a2c;fill-opacity:1;stroke:none;stroke-width:.264583px;stroke-linecap:butt;stroke-linejoin:miter;stroke-opacity:1" transform="translate(-.437 .013)scale(.05114)"/><path d="M292.669 330.349s11.233-6.956 16.236-11.692c4.223-3.997 6.405-7.706 6.405-7.706s.054 5.377 13.865 15.43c3.897 2.836-10.583-7.871-14.94-5.576-3.827 2.018-4.746 2.431-8.72 4.522-2.402 1.263-12.846 5.022-12.846 5.022" style="display:inline;fill:#b57d7d;fill-opacity:1;stroke:none;stroke-width:.264583px;stroke-linecap:butt;stroke-linejoin:miter;stroke-opacity:1" transform="translate(-.437 .013)scale(.05114)"/><path d="M221.055 295.937s-52.206 11.047-123.74 20.995c-71.536 9.948-88.77 10.625-88.77 10.625s57.284-2.65 109.123-9.22c51.838-6.572 103.387-22.4 103.387-22.4m11.792 12.891s-78.92 22.607-123.044 53.122c-44.125 30.515-47.575 33.776-47.575 33.776s76.527-48.152 101.095-58.234c24.569-10.082 69.524-28.664 69.524-28.664m5.943 11.183s-40.516 15.216-86.358 44.65-63.348 45.936-63.348 45.936 63.531-43.775 82.23-55.184c18.7-11.41 67.477-35.402 67.477-35.402m-10.704 15.059s-33.763 21.72-57.13 41.623c-23.365 19.902-33.335 36.45-33.335 36.45s26.978-29.214 49.735-46.414 40.73-31.66 40.73-31.66m139.393-43.192s22.747-4.53 41.728-4.545 26.96 1.415 26.96 1.415-25.423-.66-36.961.38-31.728 2.75-31.728 2.75m7.54 7.271s14.093.003 34.402 6.316 25.08 9.69 25.08 9.69-30.66-10.023-43.767-12.741-15.715-3.265-15.715-3.265m-4.483-18.388c.926-.385 10.925-8.133 41.738-11.847s30.834-2.917 30.834-2.917-25.418 1.7-46.868 7.292c-21.45 5.59-25.704 7.472-25.704 7.472" style="fill:#fff;fill-opacity:1;stroke:none;stroke-width:.264583px;stroke-linecap:butt;stroke-linejoin:miter;stroke-opacity:1" transform="translate(-.437 .013)scale(.05114)"/></g></svg>