<svg xmlns="http://www.w3.org/2000/svg" xml:space="preserve" width="84" height="84" viewBox="0 0 22.224998 22.225"><g transform="translate(0 -30.027)scale(.16406)"><circle cx="67.733337" cy="252.04358" r="60.348831" style="fill:#1dd3ff;fill-opacity:1;fill-rule:nonzero;stroke:#005063;stroke-width:12.1945;stroke-linecap:round;stroke-linejoin:round;stroke-miterlimit:4;stroke-dasharray:none;stroke-dashoffset:0;stroke-opacity:1;paint-order:markers stroke fill"/><path d="M34.668 290.202c-.19.562 3.236-7.615 9.304-13.916 9.949-10.333 27.835-19.22 47.681.93 3.261 3.31 5.76 7.897 9.153 12.986" style="fill:#005063;fill-opacity:1;fill-rule:nonzero;stroke:none;stroke-width:8.34549;stroke-linecap:round;stroke-linejoin:miter;stroke-miterlimit:4;stroke-dasharray:none;stroke-dashoffset:0;stroke-opacity:1;paint-order:stroke markers fill"/><g transform="translate(-99.146 -59.45)scale(1.21945)"><circle cx="158.01611" cy="242.48433" r="3.1640625" style="opacity:1;mix-blend-mode:normal;fill:#005063;fill-opacity:1;fill-rule:nonzero;stroke:none;stroke-width:2.70519;stroke-linecap:round;stroke-linejoin:bevel;stroke-miterlimit:4;stroke-dasharray:none;stroke-dashoffset:0;stroke-opacity:1;paint-order:markers stroke fill"/><circle cx="-242.48466" cy="115.68048" r="3.1640625" style="opacity:1;fill:#005063;fill-opacity:1;fill-rule:nonzero;stroke:none;stroke-width:2.70525;stroke-linecap:round;stroke-linejoin:bevel;stroke-miterlimit:4;stroke-dasharray:none;stroke-dashoffset:0;stroke-opacity:1;paint-order:markers stroke fill" transform="rotate(-90)"/><circle cx="115.68048" cy="242.48466" r="11.939322" style="fill:none;stroke:#005063;stroke-width:5;stroke-linecap:round;stroke-linejoin:round;stroke-dasharray:none;stroke-dashoffset:19.953;stroke-opacity:1;paint-order:stroke fill markers"/><circle cx="158.01611" cy="242.48433" r="11.939322" style="fill:none;stroke:#005063;stroke-width:5;stroke-linecap:round;stroke-linejoin:round;stroke-dasharray:none;stroke-dashoffset:19.953;stroke-opacity:1;paint-order:stroke fill markers"/></g><path d="m18.056 238.184-1.946-1.693L18.003 234l1.995 2.448" style="fill:#0058e3;fill-opacity:1;stroke:none;stroke-width:1.82918;stroke-linecap:square;stroke-linejoin:miter;stroke-dasharray:none;stroke-dashoffset:19.953;stroke-opacity:1;paint-order:stroke fill markers"/><path d="M18.068 237.677s-21.471 33.063-.296 32.125.296-32.125.296-32.125" style="fill:#3479ff;fill-opacity:1;stroke:#0058e3;stroke-width:4.57294;stroke-linecap:butt;stroke-linejoin:bevel;stroke-dasharray:none;stroke-opacity:1;paint-order:stroke fill markers"/><path d="m114.85 257.543-1.946-1.693 1.893-2.492 1.994 2.449" style="fill:#0058e3;fill-opacity:1;stroke:none;stroke-width:1.82918;stroke-linecap:square;stroke-linejoin:miter;stroke-dasharray:none;stroke-dashoffset:19.953;stroke-opacity:1;paint-order:stroke fill markers"/><path d="M114.862 257.035s-21.471 33.064-.296 32.125c21.175-.938.296-32.125.296-32.125" style="fill:#3479ff;fill-opacity:1;stroke:#0058e3;stroke-width:4.57294;stroke-linecap:butt;stroke-linejoin:bevel;stroke-dasharray:none;stroke-opacity:1;paint-order:stroke fill markers"/><path d="m116.415 187.207-1.947-1.692 1.893-2.492 1.995 2.449" style="fill:#0058e3;fill-opacity:1;stroke:none;stroke-width:1.82918;stroke-linecap:square;stroke-linejoin:miter;stroke-dasharray:none;stroke-dashoffset:19.953;stroke-opacity:1;paint-order:stroke fill markers"/><path d="M116.427 186.7s-21.472 33.063-.297 32.125.297-32.125.297-32.125" style="fill:#3479ff;fill-opacity:1;stroke:#0058e3;stroke-width:4.57294;stroke-linecap:butt;stroke-linejoin:bevel;stroke-dasharray:none;stroke-opacity:1;paint-order:stroke fill markers"/></g></svg>