<svg xmlns="http://www.w3.org/2000/svg" xmlns:xlink="http://www.w3.org/1999/xlink" xml:space="preserve" width="2880" height="1620" viewBox="0 0 762 428.625"><defs><pattern xlink:href="#a" id="d" patternTransform="translate(-348.218 5.592)scale(.26458)"/><pattern xlink:href="#b" id="e" preserveAspectRatio="xMidYMid"/><pattern xlink:href="#c" id="b" preserveAspectRatio="xMidYMid"/><pattern id="c" width="159.99999" height="159.99999" patternTransform="translate(-56.31 -198.228)" patternUnits="userSpaceOnUse" preserveAspectRatio="xMidYMid"><path d="M-450.606-88.918h42.333m-42.033-.302v42.334" style="opacity:.25;fill:#49993e;fill-opacity:1;stroke:#171717;stroke-width:.601397;stroke-linejoin:round" transform="translate(1703.079 337.206)scale(3.77953)"/></pattern><pattern id="a" width="480" height="480" patternUnits="userSpaceOnUse"><g style="stroke-width:1.33333"><path d="M-546.576 410.47h169.333v169.333h-169.333z" style="opacity:1;fill:#c8d1d9;fill-opacity:1;stroke:none;stroke-width:1.41111;stroke-linecap:round;stroke-linejoin:round;stroke-opacity:1" transform="translate(1549.35 -1163.535)scale(2.83465)"/><path d="M-546.576 410.47h169.333v1.587h-169.333z" style="opacity:1;fill:#000;fill-opacity:.1;stroke:none;stroke-width:1.41111;stroke-linecap:round;stroke-linejoin:round;stroke-opacity:1" transform="translate(1549.35 -1163.535)scale(2.83465)"/><path d="M410.47 544.989h169.333v1.587H410.469z" style="opacity:1;fill:#000;fill-opacity:.1;stroke:none;stroke-width:1.41111;stroke-linecap:round;stroke-linejoin:round;stroke-opacity:1" transform="rotate(90 1356.443 192.907)scale(2.83465)"/></g></pattern><filter id="f" width="1" height="1" x="0" y="0" style="color-interpolation-filters:sRGB"><feComposite in2="SourceGraphic" operator="arithmetic" result="composite1"/><feColorMatrix in="composite1" result="colormatrix1" type="saturate" values="1"/><feFlood flood-color="#408000" flood-opacity="1" result="flood1"/><feBlend in="flood1" in2="colormatrix1" mode="multiply" result="blend1"/><feBlend in2="blend1" result="blend2"/><feColorMatrix in="blend2" result="colormatrix2" type="saturate" values="1"/><feComposite in="colormatrix2" in2="SourceGraphic" k2="1" operator="in" result="composite2"/></filter><filter id="g" width="1" height="1" x="0" y="0" style="color-interpolation-filters:sRGB"><feComposite in2="SourceGraphic" operator="arithmetic" result="composite1"/><feColorMatrix in="composite1" result="colormatrix1" type="saturate" values="1"/><feFlood flood-color="#80FFFF" flood-opacity="1" result="flood1"/><feBlend in="flood1" in2="colormatrix1" mode="multiply" result="blend1"/><feBlend in2="blend1" result="blend2"/><feColorMatrix in="blend2" result="colormatrix2" type="saturate" values="1"/><feComposite in="colormatrix2" in2="SourceGraphic" k2="1" operator="in" result="composite2"/></filter></defs><g transform="translate(435.708 36.771)"><path d="M-435.708-36.771h762v428.625h-762z" style="fill:url(#d);stroke:none;stroke-width:.264583"/><image xlink:href="../game/obstacles/regular_crate_winter.svg" width="48.947918" height="48.947918" x="336.73785" y="-190.68404" preserveAspectRatio="none" transform="rotate(90)"/><path d="M-11038.71-4337.182h42.333v42.333h-42.333z" style="opacity:1;fill:#49993e;fill-opacity:1;stroke:none;stroke-width:2.083;stroke-linejoin:round"/><path d="M-11038.71-4337.182h42.333v42.333h-42.333z" style="fill:url(#e);stroke:none;stroke-width:1"/><image xlink:href="../game/obstacles/rock_1.svg" width="46.302082" height="46.302082" x="-4.0445895" y="67.954895" preserveAspectRatio="none" transform="rotate(45)"/><image xlink:href="../game/obstacles/rock_5.svg" width="46.302082" height="46.302082" x="-133.25853" y="327.1893" preserveAspectRatio="none" transform="rotate(-60)"/><image xlink:href="../game/residues/regular_crate_residue.svg" width="33.072918" height="33.072918" x="-178.13141" y="48.679386" preserveAspectRatio="none"/><image xlink:href="../game/residues/gold_airdrop_crate_residue_winter.svg" width="60.689598" height="57.400032" x="-42.366112" y="130.34511" preserveAspectRatio="none"/><g transform="translate(-242.56 151.946)"><image xlink:href="../game/loot/loot_background_gun_556mm.svg" width="35.71875" height="35.71875" x="194.7045" y="5.5703654" preserveAspectRatio="none"/><image xlink:href="../game/weapons/acr.svg" width="24.738543" height="24.738543" x="200.19461" y="11.060477" preserveAspectRatio="none" style="stroke-width:1.17647"/></g><image xlink:href="../game/loot/556mm.svg" width="19.049999" height="13.188421" x="3.7557285" y="163.0155" preserveAspectRatio="none"/><image xlink:href="../game/loot/556mm.svg" width="19.049999" height="13.188421" x="-23.019226" y="128.51881" preserveAspectRatio="none"/><g transform="rotate(135 111.466 -14.236)"><image xlink:href="../game/skins/volcanic_base.svg" width="23.8125" height="23.8125" x="123.98403" y="-85.047493" preserveAspectRatio="none"/><image xlink:href="../game/skins/volcanic_fist.svg" width="8.9958334" height="8.9958334" x="141.46048" y="-86.948616" preserveAspectRatio="none"/><image xlink:href="../game/skins/volcanic_fist.svg" width="8.9958334" height="8.9958334" x="141.45267" y="-68.49556" preserveAspectRatio="none"/></g><image xlink:href="../game/loot/9mm.svg" width="19.049999" height="13.188421" x="-163.87984" y="64.684448" preserveAspectRatio="none"/><image xlink:href="../game/obstacles/rock_4.svg" width="46.302082" height="46.302082" x="-146.54616" y="228.97858" preserveAspectRatio="none" transform="rotate(-15)"/><image xlink:href="../game/obstacles/airdrop_crate_winter.svg" width="48.407635" height="48.407902" x="-391.98648" y="38.075703" preserveAspectRatio="none"/><g transform="scale(-1 1)rotate(-1.704 -3865.92 -3786.744)"><image xlink:href="../game/equipment/tactical_vest_world.svg" width="26.987499" height="26.987499" x="-415.69949" y="419.27136" preserveAspectRatio="none"/><image xlink:href="../game/trails/base_trail.svg" width="330.72916" height="10.583333" x="-353.08734" y="427.47342" preserveAspectRatio="none" style="fill:none;fill-opacity:1;stroke-width:.316228;filter:url(#f)"/><image xlink:href="../game/skins/peppermint_fist.svg" width="8.9958334" height="8.9958334" x="-376.23224" y="427.01343" preserveAspectRatio="none"/><image xlink:href="../game/weapons/barrett_world.svg" width="50.659771" height="10.051521" x="-403.74713" y="428.59814" preserveAspectRatio="none"/><image xlink:href="../game/skins/peppermint_base.svg" width="23.8125" height="23.8125" x="-414.112" y="420.85886" preserveAspectRatio="none"/><image xlink:href="../game/skins/peppermint_fist.svg" width="8.9958334" height="8.9958334" x="-395.87387" y="428.17157" preserveAspectRatio="none"/><image xlink:href="../game/equipment/regular_pack_world.svg" width="11.578696" height="20.562359" x="-422.43668" y="422.79016" preserveAspectRatio="none"/><image xlink:href="../game/equipment/basic_helmet_world.svg" width="16.933332" height="15.885584" x="-412.82214" y="424.81732" preserveAspectRatio="none"/></g><image xlink:href="../game/obstacles/oak_tree_1_winter.svg" width="109.88066" height="117.9875" x="-292.72928" y="237.04509" preserveAspectRatio="none" transform="rotate(-43.486)"/><g transform="scale(-1 1)rotate(-40.363 -364.771 -316.002)"><image xlink:href="../game/equipment/basic_vest_world.svg" width="26.987499" height="26.987499" x="-414.46857" y="469.53137" preserveAspectRatio="none"/><image xlink:href="../game/skins/spearmint_fist.svg" width="8.9958334" height="8.9958334" x="-376.27866" y="477.5947" preserveAspectRatio="none"/><image xlink:href="../game/weapons/m1_garand_world.svg" width="40.688419" height="4.6423259" x="-399.80325" y="480.79477" preserveAspectRatio="none"/><image xlink:href="../game/skins/spearmint_base.svg" width="23.8125" height="23.8125" x="-412.88107" y="471.11887" preserveAspectRatio="none"/><image xlink:href="../game/skins/spearmint_fist.svg" width="8.9958334" height="8.9958334" x="-394.91751" y="478.43213" preserveAspectRatio="none"/><image xlink:href="../game/trails/base_trail.svg" width="132.29167" height="2.6458333" x="-98.918938" y="20.136387" preserveAspectRatio="none" style="stroke-width:.707107;filter:url(#g)" transform="rotate(-.256 93748.19 33038.998)scale(2 1)"/><image xlink:href="../game/equipment/tactical_pack_world.svg" width="13.536613" height="22.051434" x="-422.60327" y="472.06805" preserveAspectRatio="none"/><image xlink:href="../game/equipment/tactical_helmet_world.svg" width="16.933332" height="18.893631" x="-411.49689" y="473.69101" preserveAspectRatio="none"/></g><g transform="scale(-1 1)rotate(-75 -306.624 -173.029)"><g transform="translate(-487.86 674.033)"><image xlink:href="../game/skins/henrys_little_helper_base.svg" width="23.8125" height="23.8125" x="78.767799" y="-138.71674" preserveAspectRatio="none"/><image xlink:href="../game/skins/henrys_little_helper_fist.svg" width="8.9958334" height="8.9958334" x="96.379799" y="-140.55124" preserveAspectRatio="none"/><image xlink:href="../game/skins/henrys_little_helper_fist.svg" width="8.9958334" height="8.9958334" x="103.34283" y="-126.5037" preserveAspectRatio="none"/></g><image xlink:href="../game/equipment/regular_helmet_world.svg" width="16.933332" height="15.885584" x="-407.59641" y="539.42798" preserveAspectRatio="none"/></g><g transform="translate(174.525 27.697)"><path d="M132.02 184.133h33.151v33.151h-33.152z" style="fill:#d96300;fill-opacity:1;stroke:none;stroke-width:1.5658;stroke-linecap:butt;stroke-linejoin:miter;stroke-miterlimit:4;stroke-dasharray:none;stroke-opacity:1"/><path d="M125.153 177.267v46.985h46.986v-46.985zm7.928 7.927h31.13v31.131h-31.13z" style="fill:#da6a0b;fill-opacity:1;stroke-width:0;stroke-linecap:round"/><path d="M132.02 184.133h33.151v33.151h-33.152z" style="fill:none;fill-opacity:1;stroke:none;stroke-width:1.96165;stroke-linecap:butt;stroke-linejoin:bevel;stroke-miterlimit:4;stroke-dasharray:none;stroke-opacity:1"/><circle cx="129.22758" cy="181.34105" r="1.6222014" style="fill:gray;fill-opacity:1;stroke:#2e2e2e;stroke-width:.980823;stroke-linecap:round;stroke-linejoin:round;stroke-opacity:1"/><circle cx="168.06433" cy="181.34105" r="1.6222014" style="fill:gray;fill-opacity:1;stroke:#2e2e2e;stroke-width:.980823;stroke-linecap:round;stroke-linejoin:round;stroke-opacity:1"/><circle cx="129.22758" cy="220.1778" r="1.6222014" style="fill:gray;fill-opacity:1;stroke:#2e2e2e;stroke-width:.980823;stroke-linecap:round;stroke-linejoin:round;stroke-opacity:1"/><circle cx="168.06433" cy="220.1778" r="1.6222014" style="fill:gray;fill-opacity:1;stroke:#2e2e2e;stroke-width:.980823;stroke-linecap:round;stroke-linejoin:round;stroke-opacity:1"/><path d="M133.08 185.194h31.132v31.131H133.08z" style="fill:#383838;fill-opacity:1;stroke:#8e4507;stroke-width:1.96165;stroke-linecap:butt;stroke-linejoin:miter;stroke-miterlimit:4;stroke-dasharray:none;stroke-opacity:1"/><path d="M164.212 185.194h7.846m-7.846 31.131h7.846m-46.824 0h7.846m-7.846-31.131h7.846" style="fill:none;stroke:#8e4507;stroke-width:1.96165;stroke-linecap:butt;stroke-linejoin:miter;stroke-miterlimit:4;stroke-dasharray:none;stroke-opacity:1"/><path d="M24.474 12.725q-.903.002-1.774.122l-.743 2.222a10.8 10.8 0 0 0-3.2 1.325l-2.095-1.045a13 13 0 0 0-2.508 2.508l1.045 2.095a10.8 10.8 0 0 0-1.324 3.2l-2.223.744a13 13 0 0 0 0 3.546l2.223.743a10.8 10.8 0 0 0 1.324 3.2l-1.045 2.096a13 13 0 0 0 2.09 2.176q.099-.18.185-.365c.167-.366.318-.738.465-1.112q.19-.48.361-.968c.114-.303.187-.62.273-.931q.081-.313.167-.625l.072-.22a8.846 8.846 0 1 1 13.022.426q.166.555.344 1.104a60 60 0 0 1 .849 2.87l.304.152a13 13 0 0 0 2.508-2.507l-1.045-2.096a10.8 10.8 0 0 0 1.324-3.2l2.223-.743a13 13 0 0 0 0-3.546l-2.223-.743a10.8 10.8 0 0 0-1.325-3.2l1.046-2.096a13 13 0 0 0-2.508-2.508l-2.096 1.045a10.8 10.8 0 0 0-3.2-1.325l-.743-2.222q-.87-.121-1.773-.122z" style="fill:#a9a9b4;fill-opacity:1;stroke:#51515d;stroke-width:.571703;stroke-dasharray:none;stroke-opacity:1" transform="translate(124.172 176.286)"/><path d="M24.72 19.028c-.04.004-.086.031-.141.094-.11.127-.258.397-.458.822s-.454 1.006-.69 1.55l-.63 1.438c-.172.389-.295.659-.405.933-.11.273-.209.551-.299.817q-.133.4-.249.756l-.208.634c-.058.176-.099.307-.078.45.02.143.102.298.176.482.073.184.139.397.147.564a.52.52 0 0 1-.119.38.9.9 0 0 1-.302.205c-.119.057-.25.114-.36.192s-.2.176-.282.286a1.7 1.7 0 0 0-.213.372.95.95 0 0 0-.085.425.46.46 0 0 0 .184.323c.106.086.253.152.376.262.122.11.22.266.22.409s-.098.274-.224.4a5 5 0 0 1-.426.36c-.143.11-.274.209-.392.323a2.2 2.2 0 0 0-.315.384c-.09.14-.163.286-.225.421-.061.135-.11.258-.175.405-.066.147-.148.319-.217.47-.07.151-.127.282-.188.434-.061.15-.127.322-.213.494s-.192.343-.274.49c-.081.148-.139.27-.196.389q-.085.177-.172.348a1.1 1.1 0 0 0-.13.368c-.017.139.008.302.143.38.135.077.38.07.699.04.319-.028.711-.077 1.067-.11.355-.033.674-.049.915-.073.242-.025.405-.058.65-.115.246-.057.573-.139.79-.253a.9.9 0 0 0 .412-.454c.09-.192.164-.43.237-.638.074-.208.148-.388.23-.584.081-.197.171-.41.228-.58.057-.173.082-.303.168-.41a.67.67 0 0 1 .793-.163.6.6 0 0 1 .27.253c.061.106.094.23.18.393s.225.368.351.6c.127.234.241.495.36.736.119.242.241.462.388.618s.32.245.564.327c.246.081.565.155.839.212s.502.098.8.143c.3.045.667.094.945.131s.466.062.642.053c.176-.008.34-.049.392-.106.054-.057-.004-.13-.098-.372-.094-.241-.225-.65-.4-1.165s-.397-1.137-.552-1.643c-.156-.507-.246-.9-.315-1.194-.07-.294-.119-.49-.18-.63a1 1 0 0 0-.245-.33 2.4 2.4 0 0 0-.425-.352c-.168-.103-.356-.168-.511-.237-.156-.07-.278-.144-.323-.23-.045-.085-.013-.183.073-.306s.225-.27.336-.409c.11-.139.192-.27.212-.454.02-.183-.02-.42-.04-.54-.021-.118-.021-.118-.058-.167a2 2 0 0 0-.184-.216.8.8 0 0 0-.298-.168c-.152-.057-.38-.13-.5-.237-.118-.106-.126-.245-.114-.38a.65.65 0 0 1 .127-.364c.082-.098.213-.164.286-.258.074-.094.09-.216-.02-.605-.11-.388-.348-1.042-.585-1.758a70 70 0 0 1-.662-2.13c-.188-.637-.327-1.136-.442-1.54a21 21 0 0 0-.277-.933c-.074-.216-.131-.339-.197-.408-.032-.035-.067-.057-.108-.054" style="fill:#a9a9b4;fill-opacity:1;stroke:#51515d;stroke-width:.584895;stroke-linecap:round;stroke-linejoin:round;stroke-miterlimit:10;stroke-dasharray:none;stroke-opacity:1" transform="translate(124.172 176.286)"/><path d="M148.438 202.558c-.624.171-1.261.306-1.907.33-.647.023-1.305-.068-1.894-.334-.59-.265-1.108-.713-1.396-1.292a2.3 2.3 0 0 1-.24-.932c-.01-.324.055-.65.196-.94.204-.42.557-.75.94-1.018.383-.267.8-.48 1.194-.73.563-.359 1.075-.793 1.643-1.143s1.214-.618 1.881-.593c.62.023 1.216.305 1.666.73.45.426.759.988.93 1.584.136.467.19.96.134 1.443a2.9 2.9 0 0 1-.504 1.352c-.3.425-.723.754-1.183.998s-.958.407-1.46.545z" style="fill:#c9d1d9;fill-opacity:1;stroke:#a2a5c0;stroke-width:.750659;stroke-dasharray:none;stroke-opacity:1"/><path d="M143.003 217.16q-.915.354-1.85.649c-.87.274-1.755.51-2.663.586s-1.842-.017-2.677-.38c-.834-.364-1.562-1.016-1.913-1.857a2.84 2.84 0 0 1-.214-1.335 2.5 2.5 0 0 1 .473-1.263c.248-.333.58-.593.893-.867.313-.273.619-.573.79-.952.17-.377.194-.808.134-1.217s-.2-.803-.347-1.19-.303-.772-.397-1.175c-.093-.403-.123-.829-.017-1.229.107-.402.351-.765.672-1.031.32-.267.714-.44 1.124-.516.82-.151 1.676.085 2.397.504 1.442.837 2.373 2.328 3.664 3.383.406.33.845.617 1.251.947s.784.711 1.02 1.178c.212.422.301.9.292 1.373a4.5 4.5 0 0 1-.273 1.385 6.04 6.04 0 0 1-2.359 3.008z" style="fill:#c9d1d9;fill-opacity:1;stroke:#a2a5c0;stroke-width:.909195;stroke-dasharray:none;stroke-opacity:1"/><path d="M125.153 177.266h46.986v46.987h-46.986z" style="fill:none;fill-opacity:1;stroke:#8e4507;stroke-width:1.96165;stroke-linecap:round;stroke-linejoin:round;stroke-miterlimit:4;stroke-dasharray:none;stroke-opacity:1"/><path d="M127.773 179.777c-.94 1.057-1.482 2.415-1.795 3.794-.313 1.378-.413 2.795-.573 4.2-.137 1.2-.318 2.397-.362 3.604-.044 1.206.053 2.434.458 3.571.475 1.331 1.366 2.501 2.487 3.362 1.12.86 2.464 1.416 3.855 1.661 2.783.49 5.682-.26 8.152-1.635 1.686-.939 3.2-2.155 4.786-3.254 1.587-1.1 3.289-2.1 5.172-2.524 1.57-.354 3.199-.292 4.808-.317 1.61-.025 3.262-.15 4.717-.839 1.93-.913 3.346-2.826 3.678-4.935.33-2.109-.424-4.354-1.946-5.851-1.516-1.49-3.634-2.19-5.711-2.644-5.86-1.28-11.93-.978-17.927-.947-1.751.009-3.517-.005-5.233.345s-3.403 1.1-4.566 2.409zm31.479 41.226c-1.979-1.523-3.647-3.548-4.355-5.942a9.04 9.04 0 0 1-.048-4.962 8.65 8.65 0 0 1 2.644-4.191 8.3 8.3 0 0 1 4.539-1.973 7.96 7.96 0 0 1 4.829 1.05c1.201.712 2.195 1.744 2.968 2.906s1.335 2.455 1.78 3.779c.418 1.243.738 2.528.828 3.836.09 1.31-.056 2.647-.54 3.866-.452 1.136-1.203 2.16-2.19 2.881-1.523 1.11-3.53 1.435-5.387 1.12-1.858-.314-3.575-1.222-5.068-2.37z" style="fill:#c9d1d9;fill-opacity:1;stroke:#a2a5c0;stroke-width:1.05833;stroke-dasharray:none;stroke-opacity:1"/></g><g transform="translate(-235.327 187.635)"><image xlink:href="../game/loot/loot_background_equipment.svg" width="26.458334" height="26.458334" x="227.19214" y="0.10995547" preserveAspectRatio="none"/><image xlink:href="../game/loot/gauze.svg" width="16.933332" height="10.046229" x="231.95464" y="8.3160076" preserveAspectRatio="none"/></g><image xlink:href="../game/obstacles/bush_winter.svg" width="43.65625" height="43.65625" x="34.924259" y="434.9762" preserveAspectRatio="none" transform="rotate(48.884)"/><image xlink:href="../game/obstacles/bush_winter.svg" width="43.65625" height="43.65625" x="-117.84631" y="-163.77736" preserveAspectRatio="none" transform="rotate(-59.66)"/><image xlink:href="../game/obstacles/bush_winter.svg" width="43.65625" height="43.65625" x="259.21863" y="85.763794" preserveAspectRatio="none" transform="rotate(34.136)"/><image xlink:href="../game/obstacles/bush_winter.svg" width="43.65625" height="43.65625" x="77.741966" y="176.8522" preserveAspectRatio="none" transform="rotate(47.853)"/><image xlink:href="../game/obstacles/blueberry_bush_winter.svg" width="43.65625" height="43.65625" x="122.26747" y="8.0395975" preserveAspectRatio="none"/><image xlink:href="../game/obstacles/oak_tree_1_winter.svg" width="109.88066" height="117.9875" x="-282.93195" y="-54.534737" preserveAspectRatio="none" transform="rotate(-42.908)"/><image xlink:href="../game/obstacles/oak_tree_2_winter.svg" width="82.752937" height="102.6586" x="201.95302" y="-30.089397" preserveAspectRatio="none" transform="rotate(62.962)"/><image xlink:href="../game/obstacles/oak_tree_3_winter.svg" width="108.46514" height="114.72862" x="22.570293" y="429.64859" preserveAspectRatio="none" transform="rotate(66.919)"/><image xlink:href="../game/obstacles/birch_tree_winter.svg" width="88.814804" height="103.96458" x="24.251125" y="-69.319923" preserveAspectRatio="none" transform="rotate(26.816)"/><image xlink:href="../game/obstacles/barrel.svg" width="39.6875" height="39.6875" x="-169.20493" y="-56.118828" preserveAspectRatio="none" transform="rotate(-144.996)"/><image xlink:href="../game/obstacles/barrel.svg" width="39.6875" height="39.6875" x="193.41296" y="187.54314" preserveAspectRatio="none" transform="rotate(72.628)"/><image xlink:href="../game/obstacles/super_barrel.svg" width="39.6875" height="39.6875" x="-409.97101" y="-123.16063" preserveAspectRatio="none" transform="rotate(-54.405)"/><image xlink:href="../game/obstacles/regular_crate_winter.svg" width="48.947918" height="48.947918" x="-310.54385" y="-20.209915" preserveAspectRatio="none"/><image xlink:href="../game/obstacles/regular_crate_winter.svg" width="48.947918" height="48.947918" x="-59.805618" y="-181.12685" preserveAspectRatio="none" transform="rotate(90)"/><image xlink:href="../game/obstacles/regular_crate_winter.svg" width="48.947918" height="48.947918" x="-255.53682" y="296.75485" preserveAspectRatio="none"/><image xlink:href="../game/obstacles/regular_crate_winter.svg" width="48.947918" height="48.947918" x="142.74409" y="151.46353" preserveAspectRatio="none"/><image xlink:href="../game/obstacles/oak_tree_2_winter.svg" width="82.752937" height="102.6586" x="-65.066475" y="295.8999" preserveAspectRatio="none" transform="rotate(-82.317)"/><g transform="translate(-23.683 -3.324)"><image xlink:href="../game/airdrop/airdrop_parachute_winter.svg" width="185.20833" height="184.2606" x="-331.2883" y="31.953623" preserveAspectRatio="none" style="stroke-width:.999994" transform="scale(-1 1)"/><image xlink:href="../game/airdrop/airdrop_plane_winter.svg" width="493.8866" height="224.1243" x="-255.0078" y="-380.95227" preserveAspectRatio="none" style="stroke-width:.5" transform="scale(1 -1)rotate(64.249)"/></g><image xlink:href="../game/obstacles/rock_6_winter.svg" width="52.297806" height="47.19532" x="1.24942" y="231.83713" preserveAspectRatio="none" transform="rotate(74.471)"/><image xlink:href="../game/obstacles/pine_tree.svg" width="152.13542" height="136.92241" x="-134.67982" y="-115.14976" preserveAspectRatio="none" transform="rotate(-17.746)"/><image xlink:href="../game/obstacles/regular_crate_winter.svg" width="48.947918" height="48.947918" x="147.73422" y="374.17346" preserveAspectRatio="none" transform="rotate(90)"/><image xlink:href="../game/obstacles/rock_3.svg" width="46.302082" height="46.302082" x="-385.26877" y="144.16637" preserveAspectRatio="none" transform="rotate(30.657)"/></g></svg>