<svg xmlns="http://www.w3.org/2000/svg" width="178.90872mm" height="164.77309mm" viewBox="0 0 357.81745 329.54618"><g transform="translate(136.228 -1488.09)"><path d="M-45.965 1490.944c-26.896 0-53.791.034-80.682.119h-6.63a.1.1 0 0 0-.098.102v323.483a.1.1 0 0 0 .098.103h6.253c.008 0 .01.01.017.01h82.746c.015.011.03.022.051.022h6.71a.1.1 0 0 0 .098-.103v-54.66h249.279c.016.012.031.023.052.023h6.709a.1.1 0 0 0 .098-.104v-268.792a.1.1 0 0 0-.098-.103h-5.863c-80.681.148-178.05-.107-258.74-.1zm-85.901 1.438h348.915v266.246H-37.402v.35c0 .058-.045-.102-.099-.102h-5.863c-80.68.148 78.09-.106-2.6-.1-26.897 0-53.792.034-80.683.12h-5.22zm0 267.832h92.777v-1.586h-92.777zm0-.203h4.842c.008 0 .01.01.017.01h87.918v53.348h-92.777z" style="display:inline;fill:#404368;fill-opacity:1;stroke:#1d1e2f;stroke-width:5.70656;stroke-dasharray:none;stroke-opacity:1;paint-order:markers stroke fill;stop-color:#000"/><path fill="#7caee4" fill-opacity="0.3671" fill-rule="evenodd" d="M-28.492 537.05V407.288H229.24v129.764z" style="stroke-width:1.88252" transform="matrix(0 .21857 -.4445 0 160.727 1531.785)"/><path fill="#efefef" fill-opacity="0.6329" fill-rule="evenodd" d="m158.597 385.307 83.707 69.555v23.548l-112.046-93.103Z" style="fill:#efefef;fill-opacity:.5;stroke-width:1.95806" transform="matrix(0 .30897 -.29065 0 95.304 1506.613)"/><path fill="#efefef" fill-opacity="0.6329" fill-rule="evenodd" d="m175.372 361.205 83.707 69.556v23.547l-112.046-93.103Z" style="fill:#efefef;fill-opacity:.5;stroke-width:1.95806" transform="matrix(0 .30897 -.29065 0 95.924 1506.064)"/><path fill="#efefef" fill-opacity="0.6329" fill-rule="evenodd" d="m158.597 385.307 83.707 69.555v23.548l-112.046-93.103Z" style="fill:#efefef;fill-opacity:.5;stroke-width:1.95806" transform="matrix(0 -.30897 .29065 0 -192.303 1598.979)"/><path fill="#efefef" fill-opacity="0.6329" fill-rule="evenodd" d="m175.372 361.205 83.707 69.556v23.547l-112.046-93.103Z" style="fill:#efefef;fill-opacity:.5;stroke-width:1.95806" transform="matrix(0 -.30897 .29065 0 -193.346 1599.691)"/><path fill="#7caee4" fill-opacity="0.3671" fill-rule="evenodd" d="M-28.492 537.05V407.288H229.24v129.764z" style="stroke-width:1.88252" transform="matrix(0 .21857 -.4445 0 160.727 1603.438)"/><path fill="#efefef" fill-opacity="0.6329" fill-rule="evenodd" d="m158.597 385.307 83.707 69.555v23.548l-112.046-93.103Z" style="fill:#efefef;fill-opacity:.5;stroke-width:1.95806" transform="matrix(0 .30897 -.29065 0 95.304 1578.266)"/><path fill="#efefef" fill-opacity="0.6329" fill-rule="evenodd" d="m175.372 361.205 83.707 69.556v23.547l-112.046-93.103Z" style="fill:#efefef;fill-opacity:.5;stroke-width:1.95806" transform="matrix(0 .30897 -.29065 0 95.924 1577.717)"/><path fill="#efefef" fill-opacity="0.6329" fill-rule="evenodd" d="m158.597 385.307 83.707 69.555v23.548l-112.046-93.103Z" style="fill:#efefef;fill-opacity:.5;stroke-width:1.95806" transform="matrix(0 -.30897 .29065 0 -192.303 1670.631)"/><path fill="#efefef" fill-opacity="0.6329" fill-rule="evenodd" d="m175.372 361.205 83.707 69.556v23.547l-112.046-93.103Z" style="fill:#efefef;fill-opacity:.5;stroke-width:1.95806" transform="matrix(0 -.30897 .29065 0 -193.346 1671.344)"/><path fill="#7caee4" fill-opacity="0.3671" fill-rule="evenodd" d="M-28.492 537.05V407.288H229.24v129.764z" style="stroke-width:1.88252" transform="matrix(0 .21857 -.4445 0 160.727 1674.015)"/><path fill="#efefef" fill-opacity="0.6329" fill-rule="evenodd" d="m158.597 385.307 83.707 69.555v23.548l-112.046-93.103Z" style="fill:#efefef;fill-opacity:.5;stroke-width:1.95806" transform="matrix(0 .30897 -.29065 0 95.304 1648.844)"/><path fill="#efefef" fill-opacity="0.6329" fill-rule="evenodd" d="m175.372 361.205 83.707 69.556v23.547l-112.046-93.103Z" style="fill:#efefef;fill-opacity:.5;stroke-width:1.95806" transform="matrix(0 .30897 -.29065 0 95.924 1648.295)"/><path fill="#efefef" fill-opacity="0.6329" fill-rule="evenodd" d="m158.597 385.307 83.707 69.555v23.548l-112.046-93.103Z" style="fill:#efefef;fill-opacity:.5;stroke-width:1.95806" transform="matrix(0 -.30897 .29065 0 -192.303 1741.21)"/><path fill="#efefef" fill-opacity="0.6329" fill-rule="evenodd" d="m175.372 361.205 83.707 69.556v23.547l-112.046-93.103Z" style="fill:#efefef;fill-opacity:.5;stroke-width:1.95806" transform="matrix(0 -.30897 .29065 0 -193.346 1741.921)"/><g style="stroke-width:.985924" transform="matrix(1.02332 0 0 1.00531 1.965 -8.625)"><rect width="85.535744" height="3.7636766" x="-128.24318" y="1805.9562" rx="0" ry="0" style="fill:#39385c;fill-opacity:1;stroke:#202037;stroke-width:1.77466;stroke-linejoin:miter;stroke-dasharray:none;stroke-opacity:1;stop-color:#000"/><rect width="85.535744" height="3.7636766" x="-128.24318" y="1798.2799" rx="0" ry="0" style="fill:#39385c;fill-opacity:1;stroke:#202037;stroke-width:1.77466;stroke-linejoin:miter;stroke-dasharray:none;stroke-opacity:1;stop-color:#000"/><rect width="85.535744" height="3.7636766" x="-128.24318" y="1802.114" rx="0" ry="0" style="fill:#404368;fill-opacity:1;stroke:#202037;stroke-width:1.77466;stroke-linejoin:miter;stroke-dasharray:none;stroke-opacity:1;stop-color:#000"/><rect width="85.535744" height="3.7636766" x="-128.24318" y="1794.4379" rx="0" ry="0" style="fill:#404368;fill-opacity:1;stroke:#202037;stroke-width:1.77466;stroke-linejoin:miter;stroke-dasharray:none;stroke-opacity:1;stop-color:#000"/><rect width="85.535744" height="3.7636766" x="-128.24318" y="1790.5808" rx="0" ry="0" style="fill:#353455;fill-opacity:1;stroke:#202037;stroke-width:1.77466;stroke-linejoin:miter;stroke-dasharray:none;stroke-opacity:1;stop-color:#000"/><rect width="85.535744" height="3.7636766" x="-128.24318" y="1782.9045" rx="0" ry="0" style="fill:#353455;fill-opacity:1;stroke:#202037;stroke-width:1.77466;stroke-linejoin:miter;stroke-dasharray:none;stroke-opacity:1;stop-color:#000"/><rect width="85.535744" height="3.7636766" x="-128.24318" y="1786.7386" rx="0" ry="0" style="fill:#3b3e60;fill-opacity:1;stroke:#202037;stroke-width:1.77466;stroke-linejoin:miter;stroke-dasharray:none;stroke-opacity:1;stop-color:#000"/><rect width="85.535744" height="3.7636766" x="-128.24318" y="1779.0625" rx="0" ry="0" style="fill:#3b3e60;fill-opacity:1;stroke:#202037;stroke-width:1.77466;stroke-linejoin:miter;stroke-dasharray:none;stroke-opacity:1;stop-color:#000"/><g style="stroke-width:.966693" transform="matrix(.9695 0 0 1.07291 -2.009 -163.344)"><rect width="88.227379" height="3.5079124" x="-130.20648" y="1806.7513" rx="0" ry="0" style="fill:#31304e;fill-opacity:1;stroke:#202037;stroke-width:1.74005;stroke-linejoin:miter;stroke-dasharray:none;stroke-opacity:1;stop-color:#000"/><rect width="88.227379" height="3.5079124" x="-130.20648" y="1799.5968" rx="0" ry="0" style="fill:#31304e;fill-opacity:1;stroke:#202037;stroke-width:1.74005;stroke-linejoin:miter;stroke-dasharray:none;stroke-opacity:1;stop-color:#000"/><rect width="88.227379" height="3.5079124" x="-130.20648" y="1803.1703" rx="0" ry="0" style="fill:#363958;fill-opacity:1;stroke:#202037;stroke-width:1.74005;stroke-linejoin:miter;stroke-dasharray:none;stroke-opacity:1;stop-color:#000"/><rect width="88.227379" height="3.5079124" x="-130.20648" y="1796.0157" rx="0" ry="0" style="fill:#363958;fill-opacity:1;stroke:#202037;stroke-width:1.74005;stroke-linejoin:miter;stroke-dasharray:none;stroke-opacity:1;stop-color:#000"/></g></g><rect width="89.390938" height="44.728519" x="-130.23424" y="1766.9559" ry="0" style="fill:#000;fill-opacity:.08;stroke:none;stroke-width:8.11042;stroke-linecap:square;stroke-dasharray:none;stroke-opacity:1;stop-color:#000"/><g style="stroke-width:.994185" transform="matrix(1.00513 0 0 1.00657 -.164 -10.614)"><g style="fill:#39385c;fill-opacity:1"><rect width="170.09802" height="3.6771352" x="-41.90691" y="-1503.369" rx="0" ry="0" style="fill:#39385c;fill-opacity:1;stroke:#202037;stroke-width:1.78952;stroke-linejoin:miter;stroke-dasharray:none;stroke-opacity:1;stop-color:#000" transform="scale(-1)"/><rect width="170.09802" height="3.6771352" x="-41.90691" y="-1510.8687" rx="0" ry="0" style="fill:#39385c;fill-opacity:1;stroke:#202037;stroke-width:1.78952;stroke-linejoin:miter;stroke-dasharray:none;stroke-opacity:1;stop-color:#000" transform="scale(-1)"/><rect width="170.09802" height="3.6771352" x="-41.90691" y="-1518.3762" rx="0" ry="0" style="fill:#39385c;fill-opacity:1;stroke:#202037;stroke-width:1.78952;stroke-linejoin:miter;stroke-dasharray:none;stroke-opacity:1;stop-color:#000" transform="scale(-1)"/><rect width="170.09802" height="3.6771352" x="-41.90691" y="-1525.8815" rx="0" ry="0" style="fill:#39385c;fill-opacity:1;stroke:#202037;stroke-width:1.78952;stroke-linejoin:miter;stroke-dasharray:none;stroke-opacity:1;stop-color:#000" transform="scale(-1)"/><rect width="170.09802" height="3.6771352" x="-41.90691" y="-1586.0101" rx="0" ry="0" style="fill:#39385c;fill-opacity:1;stroke:#202037;stroke-width:1.78952;stroke-linejoin:miter;stroke-dasharray:none;stroke-opacity:1;stop-color:#000" transform="scale(-1)"/><rect width="170.09802" height="3.6771352" x="-41.90691" y="-1593.5385" rx="0" ry="0" style="fill:#39385c;fill-opacity:1;stroke:#202037;stroke-width:1.78952;stroke-linejoin:miter;stroke-dasharray:none;stroke-opacity:1;stop-color:#000" transform="scale(-1)"/><path d="M41.907 1597.361v3.677h-61.32v-3.55h-59.664v3.55h-49.127v-3.677zm0 7.507v3.677h-61.32v-3.677zm-120.984 0v3.677h-49.127v-3.677zm120.984 7.506v3.677h-61.32v-3.677zm-120.984 0v3.677h-49.127v-3.677zm120.984 7.499v3.677h-61.32v-3.677zm-120.984 0v3.677h-49.127v-3.677zm120.984 7.507v3.678h-61.32v-3.677zm-120.984 0v3.678h-49.127v-3.677zm120.984 7.603v3.677h-61.32v-3.677zm-120.984 0v3.677h-49.127v-3.677zm120.984 7.499v3.677h-61.32v-3.677zm-120.984 0v3.677h-49.127v-3.677zm120.984 7.508v3.677h-170.111v-3.677h49.127v2.884h59.664v-2.884z" style="fill:#39385c;fill-opacity:1;stroke:#202037;stroke-width:1.78952;stroke-linejoin:miter;stroke-dasharray:none;stroke-opacity:1;stop-color:#000"/><rect width="170.09802" height="3.6771352" x="-41.90691" y="-1661.1725" rx="0" ry="0" style="fill:#39385c;fill-opacity:1;stroke:#202037;stroke-width:1.78952;stroke-linejoin:miter;stroke-dasharray:none;stroke-opacity:1;stop-color:#000" transform="scale(-1)"/><rect width="170.09802" height="3.6771352" x="-41.90691" y="-1668.6721" rx="0" ry="0" style="fill:#39385c;fill-opacity:1;stroke:#202037;stroke-width:1.78952;stroke-linejoin:miter;stroke-dasharray:none;stroke-opacity:1;stop-color:#000" transform="scale(-1)"/><path d="M41.907 1672.503v3.677h-61.32v-3.677zm-120.984 0v3.677h-49.127v-3.677zm120.984 7.47v3.677h-61.32v-3.677zm-120.984 0v3.677h-49.127v-3.677zm120.984 7.499v3.678h-61.32v-3.678zm-120.984 0v3.678h-49.127v-3.678zm120.984 7.508v3.677h-61.32v-3.677zm-120.984 0v3.677h-49.127v-3.677zm120.984 7.505v3.678h-61.32v-3.678zm-120.984 0v3.678h-49.127v-3.678zm120.984 7.5v3.677h-61.32v-3.677zm-120.984 0v3.677h-49.127v-3.677zm120.984 7.507v3.678h-61.32v-3.678zm-120.984 0v3.678h-49.127v-3.678z" style="fill:#39385c;fill-opacity:1;stroke:#202037;stroke-width:1.78952;stroke-linejoin:miter;stroke-dasharray:none;stroke-opacity:1;stop-color:#000"/><rect width="170.09802" height="3.6771352" x="-41.90691" y="-1728.7715" rx="0" ry="0" style="fill:#39385c;fill-opacity:1;stroke:#202037;stroke-width:1.78952;stroke-linejoin:miter;stroke-dasharray:none;stroke-opacity:1;stop-color:#000" transform="scale(-1)"/><rect width="170.09802" height="3.6771352" x="-41.90691" y="-1736.2711" rx="0" ry="0" style="fill:#39385c;fill-opacity:1;stroke:#202037;stroke-width:1.78952;stroke-linejoin:miter;stroke-dasharray:none;stroke-opacity:1;stop-color:#000" transform="scale(-1)"/><rect width="170.09802" height="3.6771352" x="-41.90691" y="-1743.7784" rx="0" ry="0" style="fill:#39385c;fill-opacity:1;stroke:#202037;stroke-width:1.78952;stroke-linejoin:miter;stroke-dasharray:none;stroke-opacity:1;stop-color:#000" transform="scale(-1)"/><path d="M41.718 1529.701v3.677h-61.32v-3.677zm-120.984 0v3.677h-49.127v-3.677zm120.984 7.47v3.677h-61.32v-3.677zm-120.984 0v3.677h-49.127v-3.677zm120.984 7.5v3.677h-61.32v-3.677zm-120.984 0v3.677h-49.127v-3.677zm120.984 7.508v3.676h-61.32v-3.676zm-120.984 0v3.676h-49.127v-3.676zm120.984 7.505v3.677h-61.32v-3.677zm-120.984 0v3.677h-49.127v-3.677zm120.984 7.5v3.677h-61.32v-3.677zm-120.984 0v3.677h-49.127v-3.677zm120.984 7.506v3.678h-61.32v-3.677zm-120.984 0v3.678h-49.127v-3.677z" style="fill:#39385c;fill-opacity:1;stroke:#202037;stroke-width:1.78952;stroke-linejoin:miter;stroke-dasharray:none;stroke-opacity:1;stop-color:#000"/><rect width="170.09802" height="3.6771352" x="-41.90691" y="-1751.2838" rx="0" ry="0" style="fill:#39385c;fill-opacity:1;stroke:#202037;stroke-width:1.78952;stroke-linejoin:miter;stroke-dasharray:none;stroke-opacity:1;stop-color:#000" transform="scale(-1)"/><rect width="170.09802" height="3.6771352" x="-213.46831" y="1503.4376" rx="0" ry="0" style="fill:#39385c;fill-opacity:1;stroke:#202037;stroke-width:1.78952;stroke-linejoin:miter;stroke-dasharray:none;stroke-opacity:1;stop-color:#000" transform="scale(-1 1)"/><rect width="170.09802" height="3.6771352" x="-213.46831" y="1495.9381" rx="0" ry="0" style="fill:#39385c;fill-opacity:1;stroke:#202037;stroke-width:1.78952;stroke-linejoin:miter;stroke-dasharray:none;stroke-opacity:1;stop-color:#000" transform="scale(-1 1)"/><rect width="170.09802" height="3.6771352" x="-213.46831" y="1518.4536" rx="0" ry="0" style="fill:#39385c;fill-opacity:1;stroke:#202037;stroke-width:1.78952;stroke-linejoin:miter;stroke-dasharray:none;stroke-opacity:1;stop-color:#000" transform="scale(-1 1)"/><rect width="170.09802" height="3.6771352" x="-213.46831" y="1510.954" rx="0" ry="0" style="fill:#39385c;fill-opacity:1;stroke:#202037;stroke-width:1.78952;stroke-linejoin:miter;stroke-dasharray:none;stroke-opacity:1;stop-color:#000" transform="scale(-1 1)"/><rect width="170.09802" height="3.6771352" x="-213.46831" y="1533.4049" rx="0" ry="0" style="fill:#39385c;fill-opacity:1;stroke:#202037;stroke-width:1.78952;stroke-linejoin:miter;stroke-dasharray:none;stroke-opacity:1;stop-color:#000" transform="scale(-1 1)"/><rect width="170.09802" height="3.6771352" x="-213.46831" y="1525.9053" rx="0" ry="0" style="fill:#39385c;fill-opacity:1;stroke:#202037;stroke-width:1.78952;stroke-linejoin:miter;stroke-dasharray:none;stroke-opacity:1;stop-color:#000" transform="scale(-1 1)"/><rect width="170.09802" height="3.6771352" x="-213.46831" y="1548.4208" rx="0" ry="0" style="fill:#39385c;fill-opacity:1;stroke:#202037;stroke-width:1.78952;stroke-linejoin:miter;stroke-dasharray:none;stroke-opacity:1;stop-color:#000" transform="scale(-1 1)"/><rect width="170.09802" height="3.6771352" x="-213.46831" y="1540.9211" rx="0" ry="0" style="fill:#39385c;fill-opacity:1;stroke:#202037;stroke-width:1.78952;stroke-linejoin:miter;stroke-dasharray:none;stroke-opacity:1;stop-color:#000" transform="scale(-1 1)"/><rect width="170.09802" height="3.6771352" x="-213.46831" y="1563.4603" rx="0" ry="0" style="fill:#39385c;fill-opacity:1;stroke:#202037;stroke-width:1.78952;stroke-linejoin:miter;stroke-dasharray:none;stroke-opacity:1;stop-color:#000" transform="scale(-1 1)"/><rect width="170.09802" height="3.6771352" x="-213.46831" y="1555.9608" rx="0" ry="0" style="fill:#39385c;fill-opacity:1;stroke:#202037;stroke-width:1.78952;stroke-linejoin:miter;stroke-dasharray:none;stroke-opacity:1;stop-color:#000" transform="scale(-1 1)"/><rect width="170.09802" height="3.6771352" x="-213.46831" y="1578.4763" rx="0" ry="0" style="fill:#39385c;fill-opacity:1;stroke:#202037;stroke-width:1.78952;stroke-linejoin:miter;stroke-dasharray:none;stroke-opacity:1;stop-color:#000" transform="scale(-1 1)"/><rect width="170.09802" height="3.6771352" x="-213.46831" y="1570.9767" rx="0" ry="0" style="fill:#39385c;fill-opacity:1;stroke:#202037;stroke-width:1.78952;stroke-linejoin:miter;stroke-dasharray:none;stroke-opacity:1;stop-color:#000" transform="scale(-1 1)"/><rect width="170.09802" height="3.6771352" x="-213.46831" y="1593.4276" rx="0" ry="0" style="fill:#39385c;fill-opacity:1;stroke:#202037;stroke-width:1.78952;stroke-linejoin:miter;stroke-dasharray:none;stroke-opacity:1;stop-color:#000" transform="scale(-1 1)"/><rect width="170.09802" height="3.6771352" x="-213.46831" y="1585.928" rx="0" ry="0" style="fill:#39385c;fill-opacity:1;stroke:#202037;stroke-width:1.78952;stroke-linejoin:miter;stroke-dasharray:none;stroke-opacity:1;stop-color:#000" transform="scale(-1 1)"/><rect width="170.09802" height="3.6771352" x="-213.46831" y="1608.4435" rx="0" ry="0" style="fill:#39385c;fill-opacity:1;stroke:#202037;stroke-width:1.78952;stroke-linejoin:miter;stroke-dasharray:none;stroke-opacity:1;stop-color:#000" transform="scale(-1 1)"/><rect width="170.09802" height="3.6771352" x="-213.46831" y="1600.9438" rx="0" ry="0" style="fill:#39385c;fill-opacity:1;stroke:#202037;stroke-width:1.78952;stroke-linejoin:miter;stroke-dasharray:none;stroke-opacity:1;stop-color:#000" transform="scale(-1 1)"/><rect width="170.09802" height="3.6771352" x="-213.46831" y="1623.6382" rx="0" ry="0" style="fill:#39385c;fill-opacity:1;stroke:#202037;stroke-width:1.78952;stroke-linejoin:miter;stroke-dasharray:none;stroke-opacity:1;stop-color:#000" transform="scale(-1 1)"/><rect width="170.09802" height="3.6771352" x="-213.46831" y="1616.1387" rx="0" ry="0" style="fill:#39385c;fill-opacity:1;stroke:#202037;stroke-width:1.78952;stroke-linejoin:miter;stroke-dasharray:none;stroke-opacity:1;stop-color:#000" transform="scale(-1 1)"/><rect width="170.09802" height="3.6771352" x="-213.46831" y="1638.6542" rx="0" ry="0" style="fill:#39385c;fill-opacity:1;stroke:#202037;stroke-width:1.78952;stroke-linejoin:miter;stroke-dasharray:none;stroke-opacity:1;stop-color:#000" transform="scale(-1 1)"/><rect width="170.09802" height="3.6771352" x="-213.46831" y="1631.1545" rx="0" ry="0" style="fill:#39385c;fill-opacity:1;stroke:#202037;stroke-width:1.78952;stroke-linejoin:miter;stroke-dasharray:none;stroke-opacity:1;stop-color:#000" transform="scale(-1 1)"/><rect width="170.09802" height="3.6771352" x="-213.46831" y="1653.6055" rx="0" ry="0" style="fill:#39385c;fill-opacity:1;stroke:#202037;stroke-width:1.78952;stroke-linejoin:miter;stroke-dasharray:none;stroke-opacity:1;stop-color:#000" transform="scale(-1 1)"/><rect width="170.09802" height="3.6771352" x="-213.46831" y="1646.1058" rx="0" ry="0" style="fill:#39385c;fill-opacity:1;stroke:#202037;stroke-width:1.78952;stroke-linejoin:miter;stroke-dasharray:none;stroke-opacity:1;stop-color:#000" transform="scale(-1 1)"/><rect width="170.09802" height="3.6771352" x="-213.46831" y="1668.6213" rx="0" ry="0" style="fill:#39385c;fill-opacity:1;stroke:#202037;stroke-width:1.78952;stroke-linejoin:miter;stroke-dasharray:none;stroke-opacity:1;stop-color:#000" transform="scale(-1 1)"/><rect width="170.09802" height="3.6771352" x="-213.46831" y="1661.1217" rx="0" ry="0" style="fill:#39385c;fill-opacity:1;stroke:#202037;stroke-width:1.78952;stroke-linejoin:miter;stroke-dasharray:none;stroke-opacity:1;stop-color:#000" transform="scale(-1 1)"/><rect width="170.09802" height="3.6771352" x="-213.46831" y="1683.6609" rx="0" ry="0" style="fill:#39385c;fill-opacity:1;stroke:#202037;stroke-width:1.78952;stroke-linejoin:miter;stroke-dasharray:none;stroke-opacity:1;stop-color:#000" transform="scale(-1 1)"/><rect width="170.09802" height="3.6771352" x="-213.46831" y="1676.1614" rx="0" ry="0" style="fill:#39385c;fill-opacity:1;stroke:#202037;stroke-width:1.78952;stroke-linejoin:miter;stroke-dasharray:none;stroke-opacity:1;stop-color:#000" transform="scale(-1 1)"/><rect width="170.09802" height="3.6771352" x="-213.46831" y="1698.6769" rx="0" ry="0" style="fill:#39385c;fill-opacity:1;stroke:#202037;stroke-width:1.78952;stroke-linejoin:miter;stroke-dasharray:none;stroke-opacity:1;stop-color:#000" transform="scale(-1 1)"/><rect width="170.09802" height="3.6771352" x="-213.46831" y="1691.1772" rx="0" ry="0" style="fill:#39385c;fill-opacity:1;stroke:#202037;stroke-width:1.78952;stroke-linejoin:miter;stroke-dasharray:none;stroke-opacity:1;stop-color:#000" transform="scale(-1 1)"/><rect width="170.09802" height="3.6771352" x="-213.46831" y="1713.6282" rx="0" ry="0" style="fill:#39385c;fill-opacity:1;stroke:#202037;stroke-width:1.78952;stroke-linejoin:miter;stroke-dasharray:none;stroke-opacity:1;stop-color:#000" transform="scale(-1 1)"/><rect width="170.09802" height="3.6771352" x="-213.46831" y="1706.1285" rx="0" ry="0" style="fill:#39385c;fill-opacity:1;stroke:#202037;stroke-width:1.78952;stroke-linejoin:miter;stroke-dasharray:none;stroke-opacity:1;stop-color:#000" transform="scale(-1 1)"/><rect width="170.09802" height="3.6771352" x="-213.46831" y="1728.644" rx="0" ry="0" style="fill:#39385c;fill-opacity:1;stroke:#202037;stroke-width:1.78952;stroke-linejoin:miter;stroke-dasharray:none;stroke-opacity:1;stop-color:#000" transform="scale(-1 1)"/><rect width="170.09802" height="3.6771352" x="-213.46831" y="1721.1444" rx="0" ry="0" style="fill:#39385c;fill-opacity:1;stroke:#202037;stroke-width:1.78952;stroke-linejoin:miter;stroke-dasharray:none;stroke-opacity:1;stop-color:#000" transform="scale(-1 1)"/><rect width="170.09802" height="3.6771352" x="-213.47917" y="-1740.0295" rx="0" ry="0" style="fill:#39385c;fill-opacity:1;stroke:#202037;stroke-width:1.78952;stroke-linejoin:miter;stroke-dasharray:none;stroke-opacity:1;stop-color:#000" transform="scale(-1)"/><rect width="170.09802" height="3.6771352" x="-213.47917" y="-1747.537" rx="0" ry="0" style="fill:#39385c;fill-opacity:1;stroke:#202037;stroke-width:1.78952;stroke-linejoin:miter;stroke-dasharray:none;stroke-opacity:1;stop-color:#000" transform="scale(-1)"/></g><g style="stroke-width:.994185"><rect width="170.09802" height="3.6771352" x="-41.90691" y="-1499.6152" rx="0" ry="0" style="fill:#404368;fill-opacity:1;stroke:#202037;stroke-width:1.78952;stroke-linejoin:miter;stroke-dasharray:none;stroke-opacity:1;stop-color:#000" transform="scale(-1)"/><rect width="170.09802" height="3.6771352" x="-41.90691" y="-1507.115" rx="0" ry="0" style="fill:#404368;fill-opacity:1;stroke:#202037;stroke-width:1.78952;stroke-linejoin:miter;stroke-dasharray:none;stroke-opacity:1;stop-color:#000" transform="scale(-1)"/><rect width="170.09802" height="3.6771352" x="-41.90691" y="-1514.6223" rx="0" ry="0" style="fill:#404368;fill-opacity:1;stroke:#202037;stroke-width:1.78952;stroke-linejoin:miter;stroke-dasharray:none;stroke-opacity:1;stop-color:#000" transform="scale(-1)"/><rect width="170.09802" height="3.6771352" x="-41.90691" y="-1522.1277" rx="0" ry="0" style="fill:#404368;fill-opacity:1;stroke:#202037;stroke-width:1.78952;stroke-linejoin:miter;stroke-dasharray:none;stroke-opacity:1;stop-color:#000" transform="scale(-1)"/><rect width="170.09802" height="3.6771352" x="-41.90691" y="-1589.7848" rx="0" ry="0" style="fill:#404368;fill-opacity:1;stroke:#202037;stroke-width:1.78952;stroke-linejoin:miter;stroke-dasharray:none;stroke-opacity:1;stop-color:#000" transform="scale(-1)"/><rect width="170.09802" height="3.6771352" x="-41.90691" y="-1597.2844" rx="0" ry="0" style="fill:#404368;fill-opacity:1;stroke:#202037;stroke-width:1.78952;stroke-linejoin:miter;stroke-dasharray:none;stroke-opacity:1;stop-color:#000" transform="scale(-1)"/><path d="M41.907 1601.115v3.677h-61.32v-3.677zm-120.984 0v3.677h-49.127v-3.677zm120.984 7.505v3.677h-61.32v-3.677zm-120.984 0v3.677h-49.127v-3.677zm120.984 7.5v3.677h-61.32v-3.677zm-120.984 0v3.677h-49.127v-3.677zm120.984 7.507v3.678h-61.32v-3.678zm-120.984 0v3.678h-49.127v-3.678zm120.984 7.602v3.678h-61.32v-3.678zm-120.984 0v3.678h-49.127v-3.678zm120.984 7.5v3.677h-61.32v-3.677zm-120.984 0v3.677h-49.127v-3.677zm120.984 7.507v3.678h-61.32v-3.678zm-120.984 0v3.678h-49.127v-3.678z" style="fill:#404368;fill-opacity:1;stroke:#202037;stroke-width:1.78952;stroke-linejoin:miter;stroke-dasharray:none;stroke-opacity:1;stop-color:#000"/><rect width="170.09802" height="3.6771352" x="-41.90691" y="-1657.4187" rx="0" ry="0" style="fill:#404368;fill-opacity:1;stroke:#202037;stroke-width:1.78952;stroke-linejoin:miter;stroke-dasharray:none;stroke-opacity:1;stop-color:#000" transform="scale(-1)"/><rect width="170.09802" height="3.6771352" x="-41.90691" y="-1664.9183" rx="0" ry="0" style="fill:#404368;fill-opacity:1;stroke:#202037;stroke-width:1.78952;stroke-linejoin:miter;stroke-dasharray:none;stroke-opacity:1;stop-color:#000" transform="scale(-1)"/><path d="M41.907 1668.749v3.677h-61.32v-3.677zm-120.984 0v3.677h-49.127v-3.677zm120.984 7.47v3.677h-61.32v-3.677zm-120.984 0v3.677h-49.127v-3.677zm120.984 7.5v3.677h-61.32v-3.677zm-120.984 0v3.677h-49.127v-3.677zm120.984 7.507v3.677h-61.32v-3.677zm-120.984 0v3.677h-49.127v-3.677zm120.984 7.505v3.678h-61.32v-3.678zm-120.984 0v3.678h-49.127v-3.678zm120.984 7.5v3.677h-61.32v-3.677zm-120.984 0v3.677h-49.127v-3.677zm120.984 7.508v3.677h-61.32v-3.677zm-120.984 0v3.677h-49.127v-3.677zm120.984 7.601v3.678h-170.111v-3.678h49.127v2.627h59.664v-2.627z" style="fill:#404368;fill-opacity:1;stroke:#202037;stroke-width:1.78952;stroke-linejoin:miter;stroke-dasharray:none;stroke-opacity:1;stop-color:#000"/><rect width="170.09802" height="3.6771352" x="-41.90691" y="-1732.5173" rx="0" ry="0" style="fill:#404368;fill-opacity:1;stroke:#202037;stroke-width:1.78952;stroke-linejoin:miter;stroke-dasharray:none;stroke-opacity:1;stop-color:#000" transform="scale(-1)"/><rect width="170.09802" height="3.6771352" x="-41.90691" y="-1740.0248" rx="0" ry="0" style="fill:#404368;fill-opacity:1;stroke:#202037;stroke-width:1.78952;stroke-linejoin:miter;stroke-dasharray:none;stroke-opacity:1;stop-color:#000" transform="scale(-1)"/><path d="M41.718 1525.948v3.677h-61.32v-3.677zm-120.984 0v3.677h-49.127v-3.677zm120.984 7.47v3.677h-61.32v-3.677zm-120.984 0v3.677h-49.127v-3.677zm120.984 7.5v3.677h-61.32v-3.677zm-120.984 0v3.677h-49.127v-3.677zm120.984 7.507v3.677h-61.32v-3.677zm-120.984 0v3.677h-49.127v-3.677zm120.984 7.505v3.678h-61.32v-3.678zm-120.984 0v3.678h-49.127v-3.678zm120.984 7.5v3.677h-61.32v-3.677zm-120.984 0v3.677h-49.127v-3.677zm120.984 7.507v3.678h-61.32v-3.678zm-120.984 0v3.678h-49.127v-3.678zm120.984 7.603v3.677h-170.111v-3.678h49.127v2.627h59.664v-2.627z" style="fill:#404368;fill-opacity:1;stroke:#202037;stroke-width:1.78952;stroke-linejoin:miter;stroke-dasharray:none;stroke-opacity:1;stop-color:#000"/><rect width="170.09802" height="3.6771352" x="-41.90691" y="-1747.5302" rx="0" ry="0" style="fill:#404368;fill-opacity:1;stroke:#202037;stroke-width:1.78952;stroke-linejoin:miter;stroke-dasharray:none;stroke-opacity:1;stop-color:#000" transform="scale(-1)"/><rect width="170.09802" height="3.6771352" x="-41.90691" y="-1755.0298" rx="0" ry="0" style="fill:#404368;fill-opacity:1;stroke:#202037;stroke-width:1.78952;stroke-linejoin:miter;stroke-dasharray:none;stroke-opacity:1;stop-color:#000" transform="scale(-1)"/><rect width="170.09802" height="3.6771352" x="-213.46831" y="1507.1915" rx="0" ry="0" style="fill:#404368;fill-opacity:1;stroke:#202037;stroke-width:1.78952;stroke-linejoin:miter;stroke-dasharray:none;stroke-opacity:1;stop-color:#000" transform="scale(-1 1)"/><rect width="170.09802" height="3.6771352" x="-213.46831" y="1499.6918" rx="0" ry="0" style="fill:#404368;fill-opacity:1;stroke:#202037;stroke-width:1.78952;stroke-linejoin:miter;stroke-dasharray:none;stroke-opacity:1;stop-color:#000" transform="scale(-1 1)"/><rect width="170.09802" height="3.6771352" x="-213.46831" y="1522.2074" rx="0" ry="0" style="fill:#404368;fill-opacity:1;stroke:#202037;stroke-width:1.78952;stroke-linejoin:miter;stroke-dasharray:none;stroke-opacity:1;stop-color:#000" transform="scale(-1 1)"/><rect width="170.09802" height="3.6771352" x="-213.46831" y="1514.7076" rx="0" ry="0" style="fill:#404368;fill-opacity:1;stroke:#202037;stroke-width:1.78952;stroke-linejoin:miter;stroke-dasharray:none;stroke-opacity:1;stop-color:#000" transform="scale(-1 1)"/><rect width="170.09802" height="3.6771352" x="-213.46831" y="1537.1587" rx="0" ry="0" style="fill:#404368;fill-opacity:1;stroke:#202037;stroke-width:1.78952;stroke-linejoin:miter;stroke-dasharray:none;stroke-opacity:1;stop-color:#000" transform="scale(-1 1)"/><rect width="170.09802" height="3.6771352" x="-213.46831" y="1529.6589" rx="0" ry="0" style="fill:#404368;fill-opacity:1;stroke:#202037;stroke-width:1.78952;stroke-linejoin:miter;stroke-dasharray:none;stroke-opacity:1;stop-color:#000" transform="scale(-1 1)"/><rect width="170.09802" height="3.6771352" x="-213.46831" y="1552.1746" rx="0" ry="0" style="fill:#404368;fill-opacity:1;stroke:#202037;stroke-width:1.78952;stroke-linejoin:miter;stroke-dasharray:none;stroke-opacity:1;stop-color:#000" transform="scale(-1 1)"/><rect width="170.09802" height="3.6771352" x="-213.46831" y="1544.6749" rx="0" ry="0" style="fill:#404368;fill-opacity:1;stroke:#202037;stroke-width:1.78952;stroke-linejoin:miter;stroke-dasharray:none;stroke-opacity:1;stop-color:#000" transform="scale(-1 1)"/><rect width="170.09802" height="3.6771352" x="-213.46831" y="1567.2142" rx="0" ry="0" style="fill:#404368;fill-opacity:1;stroke:#202037;stroke-width:1.78952;stroke-linejoin:miter;stroke-dasharray:none;stroke-opacity:1;stop-color:#000" transform="scale(-1 1)"/><rect width="170.09802" height="3.6771352" x="-213.46831" y="1559.7145" rx="0" ry="0" style="fill:#404368;fill-opacity:1;stroke:#202037;stroke-width:1.78952;stroke-linejoin:miter;stroke-dasharray:none;stroke-opacity:1;stop-color:#000" transform="scale(-1 1)"/><rect width="170.09802" height="3.6771352" x="-213.46831" y="1582.2301" rx="0" ry="0" style="fill:#404368;fill-opacity:1;stroke:#202037;stroke-width:1.78952;stroke-linejoin:miter;stroke-dasharray:none;stroke-opacity:1;stop-color:#000" transform="scale(-1 1)"/><rect width="170.09802" height="3.6771352" x="-213.46831" y="1574.7303" rx="0" ry="0" style="fill:#404368;fill-opacity:1;stroke:#202037;stroke-width:1.78952;stroke-linejoin:miter;stroke-dasharray:none;stroke-opacity:1;stop-color:#000" transform="scale(-1 1)"/><rect width="170.09802" height="3.6771352" x="-213.46831" y="1597.1814" rx="0" ry="0" style="fill:#404368;fill-opacity:1;stroke:#202037;stroke-width:1.78952;stroke-linejoin:miter;stroke-dasharray:none;stroke-opacity:1;stop-color:#000" transform="scale(-1 1)"/><rect width="170.09802" height="3.6771352" x="-213.46831" y="1589.6816" rx="0" ry="0" style="fill:#404368;fill-opacity:1;stroke:#202037;stroke-width:1.78952;stroke-linejoin:miter;stroke-dasharray:none;stroke-opacity:1;stop-color:#000" transform="scale(-1 1)"/><rect width="170.09802" height="3.6771352" x="-213.46831" y="1612.1973" rx="0" ry="0" style="fill:#404368;fill-opacity:1;stroke:#202037;stroke-width:1.78952;stroke-linejoin:miter;stroke-dasharray:none;stroke-opacity:1;stop-color:#000" transform="scale(-1 1)"/><rect width="170.09802" height="3.6771352" x="-213.46831" y="1604.6975" rx="0" ry="0" style="fill:#404368;fill-opacity:1;stroke:#202037;stroke-width:1.78952;stroke-linejoin:miter;stroke-dasharray:none;stroke-opacity:1;stop-color:#000" transform="scale(-1 1)"/><rect width="170.09802" height="3.6771352" x="-213.46831" y="1627.3921" rx="0" ry="0" style="fill:#404368;fill-opacity:1;stroke:#202037;stroke-width:1.78952;stroke-linejoin:miter;stroke-dasharray:none;stroke-opacity:1;stop-color:#000" transform="scale(-1 1)"/><rect width="170.09802" height="3.6771352" x="-213.46831" y="1619.8923" rx="0" ry="0" style="fill:#404368;fill-opacity:1;stroke:#202037;stroke-width:1.78952;stroke-linejoin:miter;stroke-dasharray:none;stroke-opacity:1;stop-color:#000" transform="scale(-1 1)"/><rect width="170.09802" height="3.6771352" x="-213.46831" y="1642.408" rx="0" ry="0" style="fill:#404368;fill-opacity:1;stroke:#202037;stroke-width:1.78952;stroke-linejoin:miter;stroke-dasharray:none;stroke-opacity:1;stop-color:#000" transform="scale(-1 1)"/><rect width="170.09802" height="3.6771352" x="-213.46831" y="1634.9082" rx="0" ry="0" style="fill:#404368;fill-opacity:1;stroke:#202037;stroke-width:1.78952;stroke-linejoin:miter;stroke-dasharray:none;stroke-opacity:1;stop-color:#000" transform="scale(-1 1)"/><rect width="170.09802" height="3.6771352" x="-213.46831" y="1657.3593" rx="0" ry="0" style="fill:#404368;fill-opacity:1;stroke:#202037;stroke-width:1.78952;stroke-linejoin:miter;stroke-dasharray:none;stroke-opacity:1;stop-color:#000" transform="scale(-1 1)"/><rect width="170.09802" height="3.6771352" x="-213.46831" y="1649.8595" rx="0" ry="0" style="fill:#404368;fill-opacity:1;stroke:#202037;stroke-width:1.78952;stroke-linejoin:miter;stroke-dasharray:none;stroke-opacity:1;stop-color:#000" transform="scale(-1 1)"/><rect width="170.09802" height="3.6771352" x="-213.46831" y="1672.3751" rx="0" ry="0" style="fill:#404368;fill-opacity:1;stroke:#202037;stroke-width:1.78952;stroke-linejoin:miter;stroke-dasharray:none;stroke-opacity:1;stop-color:#000" transform="scale(-1 1)"/><rect width="170.09802" height="3.6771352" x="-213.46831" y="1664.8755" rx="0" ry="0" style="fill:#404368;fill-opacity:1;stroke:#202037;stroke-width:1.78952;stroke-linejoin:miter;stroke-dasharray:none;stroke-opacity:1;stop-color:#000" transform="scale(-1 1)"/><rect width="170.09802" height="3.6771352" x="-213.46831" y="1687.4148" rx="0" ry="0" style="fill:#404368;fill-opacity:1;stroke:#202037;stroke-width:1.78952;stroke-linejoin:miter;stroke-dasharray:none;stroke-opacity:1;stop-color:#000" transform="scale(-1 1)"/><rect width="170.09802" height="3.6771352" x="-213.46831" y="1679.915" rx="0" ry="0" style="fill:#404368;fill-opacity:1;stroke:#202037;stroke-width:1.78952;stroke-linejoin:miter;stroke-dasharray:none;stroke-opacity:1;stop-color:#000" transform="scale(-1 1)"/><rect width="170.09802" height="3.6771352" x="-213.46831" y="1702.4307" rx="0" ry="0" style="fill:#404368;fill-opacity:1;stroke:#202037;stroke-width:1.78952;stroke-linejoin:miter;stroke-dasharray:none;stroke-opacity:1;stop-color:#000" transform="scale(-1 1)"/><rect width="170.09802" height="3.6771352" x="-213.46831" y="1694.9309" rx="0" ry="0" style="fill:#404368;fill-opacity:1;stroke:#202037;stroke-width:1.78952;stroke-linejoin:miter;stroke-dasharray:none;stroke-opacity:1;stop-color:#000" transform="scale(-1 1)"/><rect width="170.09802" height="3.6771352" x="-213.46831" y="1717.382" rx="0" ry="0" style="fill:#404368;fill-opacity:1;stroke:#202037;stroke-width:1.78952;stroke-linejoin:miter;stroke-dasharray:none;stroke-opacity:1;stop-color:#000" transform="scale(-1 1)"/><rect width="170.09802" height="3.6771352" x="-213.46831" y="1709.8822" rx="0" ry="0" style="fill:#404368;fill-opacity:1;stroke:#202037;stroke-width:1.78952;stroke-linejoin:miter;stroke-dasharray:none;stroke-opacity:1;stop-color:#000" transform="scale(-1 1)"/><rect width="170.09802" height="3.6771352" x="-213.46831" y="1732.3978" rx="0" ry="0" style="fill:#404368;fill-opacity:1;stroke:#202037;stroke-width:1.78952;stroke-linejoin:miter;stroke-dasharray:none;stroke-opacity:1;stop-color:#000" transform="scale(-1 1)"/><rect width="170.09802" height="3.6771352" x="-213.46831" y="1724.8981" rx="0" ry="0" style="fill:#404368;fill-opacity:1;stroke:#202037;stroke-width:1.78952;stroke-linejoin:miter;stroke-dasharray:none;stroke-opacity:1;stop-color:#000" transform="scale(-1 1)"/><rect width="170.09802" height="3.6771352" x="-213.47917" y="-1743.7832" rx="0" ry="0" style="fill:#404368;fill-opacity:1;stroke:#202037;stroke-width:1.78952;stroke-linejoin:miter;stroke-dasharray:none;stroke-opacity:1;stop-color:#000" transform="scale(-1)"/><rect width="170.09802" height="3.6771352" x="-213.47917" y="-1751.2886" rx="0" ry="0" style="fill:#404368;fill-opacity:1;stroke:#202037;stroke-width:1.78952;stroke-linejoin:miter;stroke-dasharray:none;stroke-opacity:1;stop-color:#000" transform="scale(-1)"/></g><rect width="170.09802" height="3.6771352" x="-213.47917" y="-1755.0422" rx="0" ry="0" style="fill:#39385c;fill-opacity:1;stroke:#202037;stroke-width:1.78952;stroke-linejoin:miter;stroke-dasharray:none;stroke-opacity:1;stop-color:#000" transform="scale(-1)"/></g><rect width="168.16705" height="262.51559" x="47.119144" y="1494.2609" ry="0" style="fill:#000;fill-opacity:.06;stroke:none;stroke-width:8.11042;stroke-linecap:square;stroke-dasharray:none;stroke-opacity:1;stop-color:#000"/><path d="M47.21 1489.167v272.62h-9.483v-272.62z" style="display:inline;fill:#454572;stroke:#1c1c31;stroke-width:2.154;stroke-linejoin:round;stop-color:#000"/><path d="M44.119 1488.968v272.256h-3.125v-272.256z" style="display:inline;fill:#393960;stroke:#1d1c31;stroke-width:1.75441;stroke-linejoin:round;stop-color:#000"/><path d="M35.617-1767.412h99.534v9.483H35.617Z" style="display:inline;fill:#454572;fill-opacity:1;stroke:#1c1c31;stroke-width:2.15401;stroke-linejoin:round;stop-color:#000" transform="scale(-1)"/><path d="M35.868-1764.321h99.031v3.125H35.868Z" style="display:inline;fill:#393960;fill-opacity:1;stroke:#1d1c31;stroke-width:1.75441;stroke-linejoin:round;stop-color:#000" transform="scale(-1)"/></g></svg>