<svg xmlns="http://www.w3.org/2000/svg" xmlns:xlink="http://www.w3.org/1999/xlink" width="359.56784mm" height="251.148315mm" viewBox="0 0 719.13569 502.29663"><defs><pattern xlink:href="#a" id="e" patternTransform="matrix(.3032 0 0 .29646 -1247.657 -801.136)"/><pattern id="a" width="44.13185" height="44.130772" patternTransform="translate(-8952.829 11274.059)" patternUnits="userSpaceOnUse"><path d="M-2710.991-5339.069h11.676v11.676h-11.676z" style="fill:#8c8c8c;fill-opacity:1;stroke:none;stroke-width:2.878;stroke-linecap:square;stroke-linejoin:miter;stroke-dasharray:none;stroke-opacity:1;stop-color:#000" transform="rotate(-90 4988.52 -15190.65)scale(3.77953)"/><path fill="#d9d9d9" d="M-5339.07 2705.16c2.567-2.588 2.781-4.665 2.781-4.665s-1.137.119-2.78 1.222zm5.792 3.995a13 13 0 0 1 1.543 1.836h-3.469c-2.564-2.585-2.778-4.66-2.778-4.66s2.098.22 4.704 2.824m-1.932-9.84h3.47c1.164 1.693 1.285 2.876 1.285 2.876s-2.148-.27-4.754-2.876m7.816 2.4v3.436c-2.606 2.607-4.755 2.874-4.755 2.874s.22-2.101 2.826-4.707a13 13 0 0 1 1.929-1.603" style="fill:#a6a6a6;fill-opacity:1;stroke-width:.264583" transform="translate(20179.16 -10202.134)scale(3.77953)"/></pattern><pattern xlink:href="#b" id="f" patternTransform="translate(1837.716 3030.365)scale(.26458)"/><pattern id="b" width="633.86858" height="1714.9886" patternTransform="translate(-7579.309 11453.351)" patternUnits="userSpaceOnUse"><path d="M0 215.556h633.869V1499.06H0z" style="fill:url(#c);stroke:none"/><path d="M213.252 1501.105H420.55v209.726H213.252zm0-1496.948H420.55v209.726H213.252z" style="fill:#595959;fill-opacity:1;stroke:#3e3e3e;stroke-width:8.31496;stroke-dasharray:none;stroke-opacity:1;paint-order:fill markers stroke;stop-color:#000"/></pattern><pattern xlink:href="#d" id="c" patternTransform="translate(0 215.556)"/><pattern id="d" width="633.8686" height="1283.5037" patternTransform="translate(-7579.309 11668.907)" patternUnits="userSpaceOnUse"><path d="M426.308 1073.332H629.71v206.014H426.308zm-211.246 0h203.403v206.014H215.062zm-210.905 0h203.404v206.014H4.157zm422.151-213.72H629.71v206.015H426.308zm-211.246 0h203.403v206.015H215.062zm-210.905 0h203.404v206.015H4.157zm422.151-214.008H629.71v206.014H426.308zm-211.246 0h203.403v206.014H215.062zm-210.905 0h203.404v206.014H4.157zm422.151-213.72H629.71V637.9H426.308zm-211.246 0h203.403V637.9H215.062zm-210.905 0h203.404V637.9H4.157zm422.151-214.008H629.71V423.89H426.308zm-211.246 0h203.403V423.89H215.062zm-210.905 0h203.404V423.89H4.157zM426.308 4.157H629.71v206.015H426.308zm-211.246 0h203.403v206.015H215.062zm-210.905 0h203.404v206.015H4.157z" style="fill:#595959;fill-opacity:1;stroke:#3e3e3e;stroke-width:8.31492;stroke-dasharray:none;stroke-opacity:1;paint-order:fill markers stroke;stop-color:#000"/></pattern><filter id="g" width="1.001998" height="1.0007994" x="-0.00099899603" y="-0.00039969593" style="color-interpolation-filters:sRGB"><feGaussianBlur stdDeviation="0.20677045"/></filter></defs><path d="M-1247.657-801.136H-2.669v468.08h-1244.988z" style="fill:url(#e);stroke:none;stroke-width:.264583" transform="translate(1259.48 820.905)"/><path d="M640.163-995.507h68.395v141.318h-68.395z" style="fill:#000;fill-opacity:.25;fill-rule:nonzero;stroke:none;stroke-width:.822853;stroke-opacity:1;paint-order:fill markers stroke;stop-color:#000" transform="rotate(-90 1040.193 -219.288)"/><path d="M-1245.658-802.423H-9.831v466.667h-1235.827z" style="opacity:1;fill:#000;fill-opacity:.15;stroke:none;stroke-width:4.99998;stroke-linecap:round;stroke-linejoin:round;stroke-dasharray:none;stroke-opacity:1;stop-color:#000" transform="translate(1259.48 820.905)"/><path d="M-39.833-520.156H135.43v-4.677H49.904v-91.358h85.525v-4.678H-35.998v.015h-3.835zm4.677-4.677v-91.358h80.383v91.358z" style="fill:#ccc;fill-opacity:1;stroke:none;stroke-width:1.028;stroke-linecap:round;stroke-linejoin:round;stroke-opacity:1;paint-order:stroke fill markers;stop-color:#000" transform="translate(1259.48 820.905)"/><path d="M-305.874-509.143v175.262h4.677v-85.525h154.348v85.525h4.677v-171.427h-.015v-3.835zm4.677 4.677h154.348v80.383h-154.348zm-4.677-125.064v-175.263h4.677v85.525h154.348v-85.524h4.677v171.426h-.015v3.835zm4.677-4.678h154.348v-80.382h-154.348z" style="fill:#bfbfbf;fill-opacity:1;stroke:none;stroke-width:1.028;stroke-linecap:round;stroke-linejoin:round;stroke-opacity:1;paint-order:stroke fill markers;stop-color:#000" transform="translate(1259.48 820.905)"/><path d="M-3144.856 1944.336v-175.262h4.677v85.525h154.349v-85.525h4.677V1940.5h-.015v3.836zm4.677-4.677h154.349v-80.383h-154.349zm-4.677 125.064v175.262h4.677v-85.525h154.349v85.525h4.677V2068.56h-.015v-3.836zm4.677 4.678h154.349v80.382h-154.349z" style="fill:#bfbfbf;fill-opacity:1;stroke:none;stroke-width:1.028;stroke-linecap:round;stroke-linejoin:round;stroke-opacity:1;paint-order:stroke fill markers;stop-color:#000" transform="translate(3872.952 -1752.962)"/><path d="M-3409.773 1944.336v-175.262h4.677v85.525h154.348v-85.525h4.677V1940.5h-.015v3.836zm4.677-4.677h154.348v-80.383h-154.348zm-4.677 125.064v175.262h4.677v-85.525h154.348v85.525h4.677V2068.56h-.015v-3.836zm4.677 4.678h154.348v80.382h-154.348z" style="fill:#bfbfbf;fill-opacity:1;stroke:none;stroke-width:1.028;stroke-linecap:round;stroke-linejoin:round;stroke-opacity:1;paint-order:stroke fill markers;stop-color:#000" transform="translate(3662.29 -1752.962)"/><path d="M-3441.212 1944.336v-175.262h4.677v85.525h158.846v-85.525h4.677V1940.5h-.014v3.836zm4.677-4.677h158.846v-80.383h-158.846zm-4.677 125.064v175.262h4.677v-85.525h158.846v85.525h4.677V2068.56h-.014v-3.836zm4.677 4.678h158.846v80.382h-158.846z" style="fill:#bfbfbf;fill-opacity:1;stroke:none;stroke-width:1.028;stroke-linecap:round;stroke-linejoin:round;stroke-opacity:1;paint-order:stroke fill markers;stop-color:#000" transform="translate(3453.125 -1752.962)"/><g transform="translate(2482.458 -3006.082)"><path d="M1837.716 3030.366h167.71v453.757h-167.71z" style="fill:url(#f);stroke:none;stroke-width:.264583" transform="scale(-1 1)"/><g style="stroke-width:1.03713"><path d="M4997.756 1009.085h95.78v16.934h-95.78z" style="fill:#787878;fill-opacity:1;stroke:#4d4d4d;stroke-width:5.18565;stroke-linecap:square;stroke-linejoin:miter;stroke-dasharray:none;stroke-opacity:1;paint-order:fill markers stroke;stop-color:#000" transform="matrix(0 -.5691 -.76496 0 -1106.589 5930.644)"/><path d="M4997.766 992.166h95.78v16.933h-95.78z" style="fill:#737373;fill-opacity:1;stroke:#4d4d4d;stroke-width:5.18565;stroke-linecap:square;stroke-linejoin:miter;stroke-dasharray:none;stroke-opacity:1;paint-order:fill markers stroke;stop-color:#000" transform="matrix(0 -.5691 -.76496 0 -1106.589 5930.644)"/><path d="M4997.76 975.193h95.78v16.934h-95.78z" style="fill:#6e6e6e;fill-opacity:1;stroke:#4d4d4d;stroke-width:5.18565;stroke-linecap:square;stroke-linejoin:miter;stroke-dasharray:none;stroke-opacity:1;paint-order:fill markers stroke;stop-color:#000" transform="matrix(0 -.5691 -.76496 0 -1106.589 5930.644)"/><path d="M4997.77 958.274h95.78v16.933h-95.78z" style="fill:#696969;fill-opacity:1;stroke:#4d4d4d;stroke-width:5.18565;stroke-linecap:square;stroke-linejoin:miter;stroke-dasharray:none;stroke-opacity:1;paint-order:fill markers stroke;stop-color:#000" transform="matrix(0 -.5691 -.76496 0 -1106.589 5930.644)"/></g><g style="stroke-width:1.03713"><path d="M4997.756 1009.085h95.78v16.934h-95.78z" style="fill:#787878;fill-opacity:1;stroke:#4d4d4d;stroke-width:5.18565;stroke-linecap:square;stroke-linejoin:miter;stroke-dasharray:none;stroke-opacity:1;paint-order:fill markers stroke;stop-color:#000" transform="matrix(0 -.5691 .76496 0 -2736.418 5930.644)"/><path d="M4997.766 992.166h95.78v16.933h-95.78z" style="fill:#737373;fill-opacity:1;stroke:#4d4d4d;stroke-width:5.18565;stroke-linecap:square;stroke-linejoin:miter;stroke-dasharray:none;stroke-opacity:1;paint-order:fill markers stroke;stop-color:#000" transform="matrix(0 -.5691 .76496 0 -2736.418 5930.644)"/><path d="M4997.76 975.193h95.78v16.934h-95.78z" style="fill:#6e6e6e;fill-opacity:1;stroke:#4d4d4d;stroke-width:5.18565;stroke-linecap:square;stroke-linejoin:miter;stroke-dasharray:none;stroke-opacity:1;paint-order:fill markers stroke;stop-color:#000" transform="matrix(0 -.5691 .76496 0 -2736.418 5930.644)"/><path d="M4997.77 958.274h95.78v16.933h-95.78z" style="fill:#696969;fill-opacity:1;stroke:#4d4d4d;stroke-width:5.18565;stroke-linecap:square;stroke-linejoin:miter;stroke-dasharray:none;stroke-opacity:1;paint-order:fill markers stroke;stop-color:#000" transform="matrix(0 -.5691 .76496 0 -2736.418 5930.644)"/></g><g style="stroke-width:1.03713"><path d="M4997.756 1009.085h95.78v16.934h-95.78z" style="fill:#787878;fill-opacity:1;stroke:#4d4d4d;stroke-width:5.18565;stroke-linecap:square;stroke-linejoin:miter;stroke-dasharray:none;stroke-opacity:1;paint-order:fill markers stroke;stop-color:#000" transform="matrix(0 .5691 -.76496 0 -1106.589 583.845)"/><path d="M4997.766 992.166h95.78v16.933h-95.78z" style="fill:#737373;fill-opacity:1;stroke:#4d4d4d;stroke-width:5.18565;stroke-linecap:square;stroke-linejoin:miter;stroke-dasharray:none;stroke-opacity:1;paint-order:fill markers stroke;stop-color:#000" transform="matrix(0 .5691 -.76496 0 -1106.589 583.845)"/><path d="M4997.76 975.193h95.78v16.934h-95.78z" style="fill:#6e6e6e;fill-opacity:1;stroke:#4d4d4d;stroke-width:5.18565;stroke-linecap:square;stroke-linejoin:miter;stroke-dasharray:none;stroke-opacity:1;paint-order:fill markers stroke;stop-color:#000" transform="matrix(0 .5691 -.76496 0 -1106.589 583.845)"/><path d="M4997.77 958.274h95.78v16.933h-95.78z" style="fill:#696969;fill-opacity:1;stroke:#4d4d4d;stroke-width:5.18565;stroke-linecap:square;stroke-linejoin:miter;stroke-dasharray:none;stroke-opacity:1;paint-order:fill markers stroke;stop-color:#000" transform="matrix(0 .5691 -.76496 0 -1106.589 583.845)"/></g><g style="stroke-width:1.03713"><path d="M4997.756 1009.085h95.78v16.934h-95.78z" style="fill:#787878;fill-opacity:1;stroke:#4d4d4d;stroke-width:5.18565;stroke-linecap:square;stroke-linejoin:miter;stroke-dasharray:none;stroke-opacity:1;paint-order:fill markers stroke;stop-color:#000" transform="matrix(0 .5691 .76496 0 -2736.418 583.845)"/><path d="M4997.766 992.166h95.78v16.933h-95.78z" style="fill:#737373;fill-opacity:1;stroke:#4d4d4d;stroke-width:5.18565;stroke-linecap:square;stroke-linejoin:miter;stroke-dasharray:none;stroke-opacity:1;paint-order:fill markers stroke;stop-color:#000" transform="matrix(0 .5691 .76496 0 -2736.418 583.845)"/><path d="M4997.76 975.193h95.78v16.934h-95.78z" style="fill:#6e6e6e;fill-opacity:1;stroke:#4d4d4d;stroke-width:5.18565;stroke-linecap:square;stroke-linejoin:miter;stroke-dasharray:none;stroke-opacity:1;paint-order:fill markers stroke;stop-color:#000" transform="matrix(0 .5691 .76496 0 -2736.418 583.845)"/><path d="M4997.77 958.274h95.78v16.933h-95.78z" style="fill:#696969;fill-opacity:1;stroke:#4d4d4d;stroke-width:5.18565;stroke-linecap:square;stroke-linejoin:miter;stroke-dasharray:none;stroke-opacity:1;paint-order:fill markers stroke;stop-color:#000" transform="matrix(0 .5691 .76496 0 -2736.418 583.845)"/></g><path d="M-2656.75-2465.152h3.605v154.887h-3.606z" style="fill:#999;fill-opacity:1;stroke:#333;stroke-width:1.52496;stroke-dasharray:none;stroke-opacity:1;paint-order:fill markers stroke;stop-color:#000" transform="matrix(0 -1 -1 0 -4310.823 826.907)"/><path d="M-2315.085 2650.463h5.608v8.996h-5.608zm-75.671 0h5.608v8.996h-5.608zm-77.258 0h5.608v8.996h-5.608z" style="fill:#373737;fill-opacity:1;stroke:#191919;stroke-width:2.5;stroke-linecap:round;stroke-linejoin:round;stroke-dasharray:none;stroke-opacity:1;stop-color:#000" transform="matrix(-1 0 0 1 -4310.823 826.907)"/><path d="M-2656.75-2465.152h3.605v154.887h-3.606z" style="fill:#999;fill-opacity:1;stroke:#333;stroke-width:1.52496;stroke-dasharray:none;stroke-opacity:1;paint-order:fill markers stroke;stop-color:#000" transform="rotate(90 -4999.319 688.496)"/><path d="M-2315.085 2650.463h5.608v8.996h-5.608zm-75.671 0h5.608v8.996h-5.608zm-77.258 0h5.608v8.996h-5.608z" style="fill:#373737;fill-opacity:1;stroke:#191919;stroke-width:2.5;stroke-linecap:round;stroke-linejoin:round;stroke-dasharray:none;stroke-opacity:1;stop-color:#000" transform="rotate(180 -2155.412 2843.907)"/><path d="M-2003.456 3089.665v335.159h51.45v-5.534h-45.916v-324.091h45.916v-5.534zm163.308 0v335.159h-51.45v-5.534h45.916v-324.091h-45.915v-5.534z" style="fill:#4f4f4f;fill-opacity:1;stroke:#2e2e2e;stroke-width:5;stroke-linecap:round;stroke-linejoin:miter;stroke-dasharray:none;stroke-opacity:1;paint-order:stroke fill markers;stop-color:#000"/><rect width="324.08035" height="8.2020798" x="3095.2068" y="1838.8501" rx="0" ry="0" style="fill:#2e2e2e;fill-opacity:1;stroke:none;stroke-width:3.30088;stroke-linecap:square;stroke-linejoin:round;stroke-dasharray:none;stroke-opacity:1" transform="rotate(90)"/><rect width="319.12875" height="2.440213" x="-3416.7234" y="-1845.7126" rx="0" ry="0" style="fill:#4f4f4f;fill-opacity:1;stroke:none;stroke-width:.788686;stroke-linecap:square;stroke-linejoin:round;stroke-dasharray:none;stroke-opacity:1" transform="rotate(-90)"/></g><path d="M-3378.733 2966.78h6.536v0h1236.117v-15.875h-1226.835v-466.648h1226.835v-15.875h-1226.835v-.028h-15.818z" style="fill:#1c2e54;fill-opacity:1;stroke:#0d1626;stroke-width:3.25112;stroke-linecap:square;stroke-linejoin:miter;stroke-dasharray:none;stroke-opacity:1;paint-order:fill markers stroke;stop-color:#000" transform="translate(3381.32 -2465.908)"/><path d="M-3189.294-26.222h-5.145v.722h-486.311v-.722h-5.145v.722h-.133v5.145h.133v1235.7h5.145v-73.307l3.584.985q.669.184.993.346.332.17.543.433.385.477.384 1.14l.153.041v-3.053l-.153-.042a1.8 1.8 0 0 1-.106.58.75.75 0 0 1-.278.348.84.84 0 0 1-.536.13c-.216-.01-.552-.071-1.007-.196l-3.577-.984v-.943l5.657-2.88v-2.549l-.153-.042q-.02.379-.106.587a.7.7 0 0 1-.278.34q-.21.148-.543.13c-.216-.01-.547-.071-.993-.194l-3.584-.984v-2.498q.566.307 1.16.472 1.689.464 3.013-.337a3.4 3.4 0 0 0 1.258-1.323q.45-.83.451-1.85a5.3 5.3 0 0 0-.285-1.667 7.4 7.4 0 0 0-.801-1.69 7.2 7.2 0 0 0-1.662-1.848 5.9 5.9 0 0 0-2.06-1.043 4.8 4.8 0 0 0-1.074-.168v-2.478l3.577.983q.458.125.809.262.47.188.734.52.192.237.278.493.086.262.106.645l.153.042v-4.232l-.153-.041a1.9 1.9 0 0 1-.106.587.7.7 0 0 1-.278.34.82.82 0 0 1-.536.138q-.324-.017-1.007-.204l-3.577-.983v-5.682l5.452 1.498q0 1.47-.18 2.037-.204.672-.681.918-.47.255-1.39.181l.012.156 2.444.552v-8.96l-2.444-.79-.013.149q.795.376 1.258.802.503.463.709 1.016.205.56.258 1.594.027.484.027.901l-5.452-1.498v-6.214l5.657-.787v-.378l-5.657-3.75v-6.14l5.452 1.497q0 1.47-.179 2.037-.205.672-.682.918-.47.255-1.39.181l.012.156 2.444.553v-8.96l-2.444-.79-.013.147q.795.378 1.258.803.503.462.71 1.016.204.56.257 1.594.027.484.027.901l-5.452-1.498v-6.085c.208-.045.38-.087.479-.12q.211-.068.35-.182.18-.142.345-.495.105.513.225.83.119.324.305.613.622.953 1.655 1.237.695.19 1.218-.029.531-.211.795-.795.232-.519.278-1.533c0-.166.01-.516.01-1.05v-3.193l-.152-.042a1.9 1.9 0 0 1-.106.588.7.7 0 0 1-.278.34.82.82 0 0 1-.537.138q-.325-.017-1.006-.204l-3.578-.983v-2.498q.566.307 1.16.472 1.69.464 3.014-.337a3.4 3.4 0 0 0 1.258-1.323q.45-.83.45-1.85a5.3 5.3 0 0 0-.284-1.667 7.4 7.4 0 0 0-.802-1.69 7.2 7.2 0 0 0-1.662-1.848 5.9 5.9 0 0 0-2.06-1.043 4.8 4.8 0 0 0-1.074-.168v-5.438l1.075.295v1.298c0 .574.01.938.02 1.092q.06.725.35 1.301.564 1.109 1.775 1.441 1.192.328 1.907-.416a1.6 1.6 0 0 0 .424-.79q.106-.468.106-1.514v-3.993l-.152-.042v.047q-.026.416-.159.645a.7.7 0 0 1-.39.33 1.14 1.14 0 0 1-.504.026 6 6 0 0 1-.874-.187l-3.578-.983v-2.407a1.9 1.9 0 0 0 .77-.203q.615-.307 1.126-1.246l.45-.81q.675-1.239 1.781-.935.279.076.557.252.277.183.483.418.504.569.504 1.31 0 .51-.252.832-.244.323-.762.506-.285.1-.623.134-.33.042-.96.047v.152l2.63.676v-.152q-.339-.173-.338-.404 0-.093.033-.203.04-.109.172-.403.185-.392.245-.641.066-.246.067-.558 0-.96-.65-1.84a3.9 3.9 0 0 0-.874-.863 3.4 3.4 0 0 0-1.06-.51q-.892-.246-1.516.153-.225.143-.443.414a8 8 0 0 0-.537.82q-.363.615-.602.894a2 2 0 0 1-.2.205v-6.088l3.584.985q.668.184.993.346.33.17.543.434.384.476.384 1.139l.152.042v-3.053l-.152-.042a1.8 1.8 0 0 1-.106.58.75.75 0 0 1-.278.347.84.84 0 0 1-.537.13c-.216-.01-.551-.071-1.006-.196l-3.578-.983v-.943l5.657-2.88v-2.55l-.152-.04q-.02.378-.106.586a.7.7 0 0 1-.278.34q-.211.148-.543.13c-.217-.01-.548-.071-.993-.194l-3.585-.984v-4.03l5.657-.787v-.377l-5.657-3.75v-4.36c.208-.047.381-.088.479-.12a1 1 0 0 0 .35-.182q.18-.143.345-.495.106.513.225.83.12.324.305.613.623.953 1.655 1.236.696.192 1.219-.029.53-.211.795-.794.231-.52.278-1.534c0-.166.01-.516.01-1.05v-3.192l-.153-.042a1.9 1.9 0 0 1-.106.586.7.7 0 0 1-.278.341.82.82 0 0 1-.536.138q-.325-.017-1.007-.204l-3.578-.983v-5.682l5.452 1.498q0 1.47-.178 2.037-.206.672-.683.919-.47.255-1.39.18l.013.156 2.444.552v-8.96l-2.444-.79-.013.149q.795.377 1.258.802.503.464.709 1.016.204.56.257 1.594.027.484.027.901l-5.451-1.497v-12.397l3.577.983q.696.19 1.026.362a1.6 1.6 0 0 1 .802.935q.08.255.099.623l.152.042v-4.232l-.152-.042q-.014.355-.092.558a.8.8 0 0 1-.252.348q-.21.167-.55.154c-.22 0-.565-.07-1.033-.198l-3.577-.983v-4.645l3.061.864.01-.151a5 5 0 0 1-.774-.365 1.7 1.7 0 0 1-.45-.395 1.4 1.4 0 0 1-.285-.575q-.08-.327-.08-.929v-.397l3.973 1.091v1.517q0 .702-.1 1.098-.093.398-.324.646-.278.3-.642.4-.365.099-.921.032l.01.154 2.185.488v-7.119l-.152-.042q-.02.38-.106.587a.7.7 0 0 1-.278.34q-.212.148-.543.13c-.217-.01-.55-.071-1-.195l-3.578-.984v-6.081l5.505 5.144.152.042v-7.092l-2.417-.817-.013.149q.517.207.88.506.372.308.676.776.371.572.517 1.201.152.638.152 1.664v1.894l-5.451-5.128v-4.597l5.657-.787v-.378l-5.657-3.75v-3.896l3.577.983q.675.186 1 .347a1.66 1.66 0 0 1 .821.928q.086.262.106.645l.153.042v-4.232l-.153-.042q-.02.379-.106.587a.75.75 0 0 1-.278.347.84.84 0 0 1-.536.131q-.324-.01-1.007-.197l-2.125-.584v-4.702l2.125.584q.675.186 1 .348a1.66 1.66 0 0 1 .821.928q.086.262.106.645l.153.041v-4.231l-.153-.042a1.9 1.9 0 0 1-.106.587.7.7 0 0 1-.278.34.82.82 0 0 1-.536.138q-.324-.016-1.007-.204l-3.577-.983V-20.355h486.31v1235.7h5.145zm-485.786 1103.108q0 .708-.251 1.155-.246.457-.788.73-.663.342-1.616.365a6.8 6.8 0 0 1-2.014-.262 7.5 7.5 0 0 1-1.001-.354v-6.376q.466.054.975.193 1.092.3 2.046.847a6.8 6.8 0 0 1 1.61 1.25q.548.588.794 1.165.245.585.245 1.287m0 52.685q0 .708-.251 1.156-.246.456-.788.73-.663.341-1.616.364a6.8 6.8 0 0 1-2.014-.262 7.5 7.5 0 0 1-1.001-.353v-6.377q.466.054.975.193 1.092.3 2.046.847a6.8 6.8 0 0 1 1.61 1.25q.548.588.794 1.165.245.585.245 1.287m-.218-98.359v.272q0 .709-.093 1.067-.086.36-.311.577-.3.276-.762.347a2.2 2.2 0 0 1-.98-.064q-.98-.27-1.642-1.147a2.2 2.2 0 0 1-.384-.774q-.093-.376-.093-1.198v-.252zm0 35.442v.556c0 .362 0 .592-.013.692q-.06.54-.398.85a1.28 1.28 0 0 1-.741.333q-.45.068-.993-.08a2.8 2.8 0 0 1-1.57-1.08 2.1 2.1 0 0 1-.357-.735q-.093-.376-.093-1.032v-.649zm0 18.84v.271q0 .708-.093 1.067-.086.36-.311.577-.3.276-.762.347a2.2 2.2 0 0 1-.98-.064q-.98-.27-1.642-1.147a2.2 2.2 0 0 1-.384-.775q-.093-.376-.093-1.197v-.252zm-.994-37.549-4.458 2.322v-3.547zm0 88.782-4.458 2.322v-3.547zm-.503-152.234-3.43.448v-2.702zm0 55.917-3.43.448v-2.702zm0 63.592-3.43.448v-2.702zm-2.682-103.36v.378q0 .49-.1.78a.8.8 0 0 1-.311.431 1.1 1.1 0 0 1-.53.173q-.145.014-.332.01v-2.117zm-.133-28.783v4.702l-1.14-.313v-4.702zm-.099 58.142v.324q0 .298-.059.487a.8.8 0 0 1-.185.333c-.152.16-.421.304-.797.437v-1.868zm0 54.28v.325q0 .297-.059.487a.8.8 0 0 1-.185.333c-.151.159-.422.304-.797.437v-1.868zm-.788-102.222v2.913l-.253.034v-3.112zm0 55.916v2.914l-.253.034v-3.112zm0 63.592v2.914l-.253.034v-3.112z" style="fill:#000;fill-opacity:.15;stroke:none;stroke-width:3.5;stroke-linecap:round;stroke-dasharray:none;stroke-opacity:1;filter:url(#g);stop-color:#000" transform="rotate(-90 -1578.314 -1607.622)"/><path d="M-3291.08 2469.167q-.806.328-1.597.688c-1.028.47-2.018 1.02-2.994 1.59-.625.366-1.353 1.058-1.122 1.31 3.668.636 5.82 1.167 6.779 1.557h202.49c-.041-.106-.087-.21-.122-.318-.135-.413-.156-.571-.234-.994-.065-.35-.123-.702-.188-1.052-.03-.16-.056-.321-.093-.48-.01-.025-.017-.05-.036-.07-.014-.014-.055.052-.093.14a2 2 0 0 0-.083.223c-.027.093-.191.757-.21.841-.066.319-.111.641-.176.96-.033.166-.108.181-.257.245-.036.013-.13.068-.175.023-.027-.028-.046-.063-.07-.094-.175-.238-.187-.354-.234-.655a14 14 0 0 1-.105-.888c-.014-.152-.02-.305-.035-.456-.01-.047-.052-.553-.117-.749-.043-.128-.108.171-.129.234-.038.117-.07.234-.105.35-.073.244-.01 1.28-.176 1.475-.046.053-.058.403-.122.432-.148.067-.55-.438-.625-.724-.217-.312-.217-.47-.445-.714-.461-.497-.64-.586-1.017-1.169-.221-.341-.367-.729-.526-1.1-.042-.098-.08-.197-.13-.292-.051-.1-.233-.245-.233-.245l.483-.068zm204.554 0q-.082.3-.148.606c-.115.524-.23 1.087-.257 1.626-.158 3.126-.03 1.473-.013 1.447 0 .016-.01.237-.046.914a25 25 0 0 1-.04.552h1.317c1.056-1.415 4.03-3.144 5.399-5.145zm328.818 0c.174.222.351.479.52.635 1.373 1.276 3.288 2.085 4.233 3.705.144.247.26.544.398.805h65.919a29 29 0 0 1 2.093-2.26c.223-.216.442-.622.748-.56.08.016.056.38.046.514-.062.896-.226 1.53-.038 2.306h.739c.114-.315.216-.634.328-.95.094-.265.151-.546.281-.795.061-.117.166-.346.28-.28.347.195.58.554.796.888.122.189.362.622.647 1.137h104.279c1.311-.406 3.91-1.37 5.581-.615.356.16.495.392.645.615h36.58c.131-.309.301-.601.585-.763.165-.093.348-.132.516-.22.2-.108.364-.253.54-.394.28-.224.535-.46.737-.761.053-.081.067-.206.098-.295.043-.12.104-.248.147-.368.062-.172.041-.187.098-.368q.08-.26.172-.516c.037-.1.095-.191.123-.295.024-.089.015-.487 0-.59-.01-.095-.058-.16-.074-.245-.034-.169-.017-.224-.052-.33zm227.463 0c.01.036.013.073.019.109.026.155.059.31.074.466.01.148-.06.964-.074 1.056-.055.633-.094 1.286.024 1.916.022.117.043.238.098.343.07.136.179.247.27.369.218.295.455.576.688.86q.013.014.02.026h94.048c-.411-.5-1.219-1.322-1.641-1.181-.35.116-.545.43-.728.727-.049.08-.113.53-.33.265-.623-.761-.565-.95-1.059-1.985-.477-1-1.038-1.961-1.495-2.971zm107.602 0c.307.794.67 1.568.939 2.376.244.73.488 1.819.679 2.769h140.427l.281-.692c.334-.82.546-1.364.96-2.152.012-.028.01.063 0 .093-.02.095-.055.186-.07.281-.047.264-.099.528-.118.795-.04.56.02 1.12.12 1.675h.935l.045-.06c.217-.29.43-.582.655-.866.042-.053.232-.419.374-.187.144.236.183.842.21 1.029.015.101 0 0 .015.084h1.139q.039-.196.086-.388c.01-.024.01-.088.024-.07.02.022 0 .062 0 .094q.016.082.024.164c.01.062-.01.124 0 .187v.013h63.716c.289-.268.57-.538.875-.786.121-.098.305-.275.468-.327.412-.132.85-.027 1.24-.117.112-.026.221-.07.327-.117.628-.275 1.15-.697 1.66-1.146.07-.062.15-.115.21-.187.262-.31.385-.744.562-1.1.17-.34.355-.672.538-1.005.062-.126.14-.242.214-.36h-122.914l-.272.437q-.341.556-.661 1.124c-.289.51-.56 1.222-.992 1.654-.143.142-.186-.307-.199-.33-.032-.054-.095-.083-.132-.133-.078-.103-.199-.52-.199-.53-.143-.358-.418-.688-.529-1.057-.087-.292 0-.505-.264-.728-.065-.054-.442.056-.463.066-.531.212-.944.645-1.323 1.058-.072.08-.374.557-.53.596-.517.129-1.504-1.137-1.918-1.456-.14-.108-.287-.237-.463-.264-.758-.117-1.177 1.503-1.786.397q-.223-.41-.418-.834zm217.97 0c-.058.278-.109.56-.198.829-.459 1.375.134-.591-.304.888-.092.31.01.016-.14.35-.05.114-.171.426-.235.539-.055.098-.126.186-.187.28-.08.124-.145.257-.234.375-.018.024-.344.39-.35.397-.26.276-.577.503-.796.818-.134.195-.208.444-.294.669h12.65c.072-.243.085-.238.209-.64.519-1.679.583-1.948.553-1.898.07-.189.192-.534.406-1.145.081-.23.147-.465.232-.694.037-.102.068-.21.132-.298.07-.096.346-.271.621-.47zm28.96 0c-.036.313-.1.626-.153.867-.034.157-.096.307-.132.463-.085.367-.07.789-.265 1.125-.01.012-.218.096-.264.165-.024.034.489.478.529.53.112.145.192.312.297.462.432.617.508.527.728 1.356.015.057-.01.117-.02.177h38.325v-5.145zm-251.386 3.366c0 .088-.184.024-.294.068-.213.085-.408.14-.595.265-.193.128-.532.781-.843 1.445h6.561c-.134-.415-.285-.78-.426-.85-.128-.064-.707 0-.86 0-.665 0-1.413.04-2.05-.199a17 17 0 0 1-.794-.397c-.25-.187-.699-.595-.699-.332m-104.041.743c-.015 0-.03.036-.042.052-.041.068-.13.225-.197.27-.03.021-.067.03-.098.05-.238.15-.412.371-.614.564l-.105.1h1.49c0-.01-.01-.018-.01-.026-.255-.66-.07-.165-.295-.59a1 1 0 0 1-.074-.171c-.01-.026-.016-.246-.05-.246h-.01zm-846.88 32.506v238.962c0 .241.327.22.648.38.488.244 1.168 2.024 2.261 2.345.426.125-.86.262-1.203.433-.079.039-.18-.022-.264 0-.173.043-1.443-.148-1.443.535v1.046c0 .297.588.123.65.139.204.05.726.277.87.42.1.101 1.904.921 2.042 1.06.298.298.778.122 1.174.254.128.043.409.795.409.473V2640.35c0-.03-.037-.05-.056-.074-.028-.034-.071-.056-.093-.093-.051-.085-.043-.196-.094-.28-.08-.133-.104-.042-.14-.187-.01-.045.015-.096 0-.141-.097-.288-.268-.557-.375-.842-.082-.218 0-.169-.14-.374a14 14 0 0 0-.561-.702c-.135-.157-.33-.332-.421-.514-.028-.056 0-.125 0-.187 0-.477.138-.623.233-1.076.172-.816.386-1.873.281-2.713-.075-.603-.403-1.143-.655-1.683-.18-.388-.248-.385-.28-.842-.028-.402.53-.761.701-1.076.054-.1.32-1.17.328-1.263.029-.349-.033-.733-.094-1.075-.024-.142-.08-.279-.093-.422-.02-.17.01-.343 0-.514-.03-.609-.187-1.262-.094-1.871.019-.117.209-.68.233-.748.263-.73.568-1.42.655-2.199.084-.756-.182-1.38-.327-2.104-.043-.215-.114-.44-.14-.655-.033-.261-.05-.535-.094-.796-.024-.142-.073-.275-.094-.42-.013-.093.02-.19 0-.281-.07-.35-.308-.788-.514-1.076-.103-.144-.25-.252-.328-.42a5 5 0 0 1-.187-.469c-.08-.24.369-.76.281-.935-.052-.104-.24-.122-.328-.187-.24-.18-.28-.281-.374-.561-.04-.124.26-.187.328-.187.267 0 .974.06 1.216 0 .125-.031.25-.1.374-.14.016 0 .036.01.047 0 .04-.04-.059-.097-.094-.14-.39-.49-1.038-.583-1.543-.937a3 3 0 0 1-.421-.374c-.086-.086-.08-.172-.187-.233-.146-.083-.863-.26-.749-.375.011-.01.031 0 .047 0 .094-.014.186-.043.281-.047.783-.033.89-.033 1.637.188.625.183 1.834 1.134 1.834.493v-104.18a17 17 0 0 1-1.694.013c-.367-.015-1.412-.01-1.87-.28-.546-.328-2.19-1.589-1.581-1.589zm5.144 251.087c-.508.325-.998.678-1.453 1.087-1.023.92-1.69 2.172-2.778 3.043-.277.221-.914-.183-.914.136v155.252c0 .114-.052.253.037.333.314.283.833.373 1.216.514q.236.088.468.187c.033.014.078.016.094.047.086.173-.183.643-.234.796-.023.068-.084.467-.094.467-.033.033-.094-.01-.14 0-.048.01-.095.031-.14.047l-.281.047c-.33.055-.648.113-.926.295v41.602h-.722v5.145h.722v.133h5.145v-.133h191.482c.663 0 .29-1.384.806-1.47.459-.076 1.212.132 1.587.132.46 0 1.112-.162 1.522-.397.23-.131.365-.397.595-.529.323-.185.56.42.86.463.45.064.907-.67 1.19-.33.076.09.083.222.133.33.176.388.406.746.595 1.125.217.435-.058-.036.066.397a1 1 0 0 0 .09.19l4.474-.587c-.69.23-1.37.49-2.065.676h58.07c.066-.267.023-.054.418-.809.255-.491.422-.977.793-1.389.195-.216.49-.314.728-.463.245-.153.529-.462.661-.727.208-.416.061-.831.133-1.257.024-.146.108-.316.132-.463 0-.014 0-.024.01-.037h-103.233a3.04 3.04 0 0 1-1.67.338c-.292-.028-.727-.09-.981-.28l-.072-.058h-.808c.033.507.068.998-.196 1.46-.13.224-.468.078-.655.234-.053.044-.837.938-.935.889-.04-.02-.081-.051-.094-.093-.03-.088-.024-.848 0-.983.012-.069.078-.119.094-.187.033-.134.033-.636 0-.702-.01-.014-.036.011-.047 0-.026-.024-.023-.068-.047-.093-.18-.18-.168-.138-.137-.087l-.144-.193c-.092-.092-.248-.137-.31-.245h-153.04v-83.36c0-.69-1.066-.81-.99-1.337.078-.552.953-1.405.66-1.918-.372-.651-1.741-.418-2.05-1.19-.093-.234.295-.409.463-.596.365-.405.358-.848.595-1.323.154-.306.57-.752.53-1.124-.012-.098-.089-.176-.133-.265-.225-.45-.52-.816-.86-1.19-.429-.472-.712-.598-.661-1.257.013-.177.013-.36.066-.53.161-.517.492-.966.728-1.454a24 24 0 0 1 1.651-2.87zm198.925 208.909-.681.089h.738q-.031-.045-.056-.089zm107.424-5.056h-43.223c.032.158.042.323.01.434-.077.23-.641.497-.794.727-.033.05.285.153.33.199.035.035.04.09.066.132.052.078.16.093.199.132.061.061.099.3.066.397-.011.03-.052.038-.066.066-.048.096.016.293 0 .397-.044.307-.103.772-.199 1.058-.049.147-.227-.018-.264.133-.041.164.047.366 0 .529-.076.268-.243.529-.33.793-.014.042.018.093 0 .133 0 .01-.015.012-.029.015h41.006c.019-.04.049-.073.066-.114.054-.134.042-.287.065-.43.063-.392.1-.792.066-1.19-.01-.123-.056-.242-.066-.364 0-.016.022-.022.034-.033.044-.044.085-.091.132-.133.118-.102.232-.213.364-.297.145-.093.315-.143.463-.232.162-.097.483-.35.628-.496.383-.382.2-.259.563-.76.263-.364.567-.686.86-1.026l.058-.07zm584.21 0h-122.214q-.165.244-.34.48c-.101.139-.219.266-.33.397-.01.012-.02.043-.033.033-.219-.175-.266-.497-.562-.595-.19-.064-.711.231-.992.231-.297 0-.553-.262-.756-.546h-1.156a1.3 1.3 0 0 1-.238.182c-.141.083-.307.114-.463.166-.07.024-.122-.016-.165-.066a4 4 0 0 1-.215-.281h-75.159c-.294.911-.602 1.82-.914 2.722-.071.205-.165.403-.234.609-.041.121-.066.248-.094.374 0 .015.016.047 0 .047-.097 0-.02-.065-.047-.093-.01-.011-.03 0-.046 0l-.094-.094c-.062-.104-.098-.237-.188-.327-.031-.031-.291.01-.327 0-.402-.115-1.033-.538-1.31-.749-.505-.384-.82-.953-1.356-1.31-.076-.05-.147-.114-.234-.14-.075-.023-.156 0-.234 0-.571 0-.79.48-1.076.889-.044.064-.073.148-.14.187-.285.162-.57-.318-.795-.374-.394-.098-.552.42-.936.42-.062 0-.13.029-.187 0-.182-.09-.36-.491-.42-.607-.266-.511-.5-1.023-.698-1.554h-38.204c.47 1.092 1.043 2.06 1.952 2.864.175.154.383.27.561.42.249.212.47.522.749.702.216.14.476.202.701.328.32.177.65.56 1.029.608.245.03.503-.02.749 0 .095.01.185.04.28.047.124.01.25-.015.374 0 .128.016.248.07.375.094.236.044.478.046.715.082h65.378c.085-.147.15-.307.23-.458.074-.142.155-.28.233-.42l.234-.421c.062-.14.113-.286.187-.42.02-.04.069-.058.094-.094.072-.108.094-.19.14-.328.077-.23.135-.465.187-.701.034-.155.036-.338.094-.28.08.08-.076.215-.094.327a5.2 5.2 0 0 0 .047 1.824c.019.097-.01.28.093.28.016 0-.01-.031 0-.046q.061-.145.14-.28c.04-.067.325-.367.422-.328.06.025.093.094.14.14.094.094.183.19.28.28.268.25.584.444.842.703.068.068.125.147.185.222h161.817l-.474-.59c.13-.252.693-1.185.837-.93.168.297.276.95.48.95.021 0 .048.053.066 0 .066-.194.089-.584.133-.877.118-.786.254-1.512.33-2.412.016-.19.021-.393.033-.584.01-.084.024-.297.033-.222.031.274.04.591.066.877.021.221.046.438.066.659.084.933.138 2.074.347 2.631.045.12.18.353.232.292.036-.044.06-.112.1-.071a.7.7 0 0 1 .093.277h44.415c-.072-.494.287-.252.401-.396.351.127.706.255.684.395h6.297c-.013-.366-.03-.731-.064-1.096a27 27 0 0 0-.298-2.248c-.109-.607-.279-1.201-.42-1.801h-5.576c-.299 0-.663 1.534-.993 3.069-.418-1.29-.956-2.516-1.13-3.068h-28.954c-.065.165-.121.335-.217.485-.078.123-.288.307-.398.398-.115.096-.224.2-.35.28-.139.088-.603.238-.773.14-.285-.162-.435-.522-.725-.678-.3-.161-.522.126-.7.305-.31.308-.113.1-.352.374-.099.113-.213.287-.374.327-.043.011-.077-.341-.093-.397-.025-.086-.102-.345-.164-.422-.01-.013-.03-.013-.047-.023l-.047-.07c-.025-.045-.04-.097-.07-.14-.032-.045-.096-.066-.117-.117-.151-.353-.219-.419-.254-.462zm45.68 0a5 5 0 0 0-.486.643c-.876 1.413-1.427 2.927-1.818 4.502h4.728c-.212-.822-.395-2.09-.463-2.91-.045-.54-.053-1.08-.066-1.621a6 6 0 0 1 0-.61zm4.246 0q-.162.483-.301.974a31 31 0 0 0-.496 2.083c-.108.515-.172 1.037-.265 1.554q-.047.267-.097.534h44.441v-5.145zm-623.686 0c.014.067.042.117.042.203 0 .377-.1.746-.1 1.124 0 .331-.064.763.133 1.058.156.234.563.163.794.232.047.014.086.048.132.066.234.094.546.179.76 0 .097-.08.17-.184.265-.265.234-.198.227-.179.463-.297.021-.011.042-.033.066-.033.177 0 .258.243.298.363.106.32.054.628.066.96.013.353.04.705.066 1.058.01.1.039.198.033.298-.014.233-.056.274-.065.378h124.794l-1.416-.113c.278-.31.483-.676.728-1.01.143-.194.305-.432.545-.528.166-.066.323.093.48.099.262.01.327-.04.53-.2.054-.042.096-.1.148-.148.078-.069.22-.177.314-.231.04-.023.1-.065.132-.033.021.02.024.055.033.083q.024.067.05.132c.021.05.05.097.066.15.066.196.066.423.066.628 0 .186-.037.422.05.595.01.012.106-.013.115-.016.016-.01.113-.08.116-.083q.236-.24.43-.513c.06-.084.06-.114.099-.05.122.205.232.403.314.629.105.286.053.227.166.496q.027.058.057.113h82.405c.4-.536.85-1.056 1.06-1.705.184-.567.22-.979.243-1.555.01-.162 0-.325 0-.487 0-.032-.018-.07 0-.097.026-.038.074-.058.097-.097.026-.044.026-.1.048-.145.111-.222.25-.43.39-.633q.15-.214.303-.425h-117.606a1 1 0 0 0-.04.093c-.02.057-.053.146-.082.198-.026.047-.126.181-.152.222-.047.072-.062.193-.152.223-.013 0-.05-.035-.06-.047-.012-.037 0-.078 0-.117v-.012c-.06.185-.12.35-.198.526 0 .01-.053.176-.082.176-.01 0-.024-.082-.024-.082-.01-.09.02 0-.01-.105-.022-.07-.048-.124-.048-.199 0-.097.052-.195.011-.292-.024-.058-.069-.106-.093-.164-.01-.023-.01-.124-.035-.14-.085-.053-.136.025-.187-.07q-.052-.103-.098-.21zm256.466 0c.304.45.535.895.744 1.397.043.104.166.37.147.389-.033.033-.323-.013-.39 0-.085.017-.159.073-.242.097a8 8 0 0 1-.827.194c-.727.128-.21-.078-1.118.243-2.285.807.674-.017-3.16 1.167-.568.709-1.438.311-2.14.486-.07.018.126.074.195.097.332.111.622.227.972.292 1.216.224 1.628.3 2.869.389.193.014.389-.01.583 0q.245.015.486.048c.066.01.13.035.195.049.015 0 .048-.016.048 0 0 .037-.146.097-.146.097l-24.29.2h67.641c.375-.71.832-1.417 1.142-2.094.331-.723.585-1.636.888-2.385.092-.227.216-.44.312-.665zm44.03 0c.044.546.222 1.093.596 1.508.026.029.22.07.234.047a7 7 0 0 0 .327-.608c.047-.097.236-.53.42-.946zm3.619 0c.21 1.288.456 2.656 1 3.847.138.302.48.84.702 1.122.052.065.123.113.176.176h.615c.038-.092.071-.177.097-.222.171-.291.392-.551.562-.843.028-.048.065-.188.094-.14.191.32.347.755.512 1.205h3.71c.335-.641.623-1.313.922-1.953.555-1.19.082-.268.608-1.123.036-.059.052-.13.094-.186.064-.085.255.105.374.233.143.154.306.292.421.468.153.233.203.528.374.748.137.177.84.77 1.17.748.866-.058 1.392-.81 1.87-1.403.202-.25.427-.483.609-.748.393-.574.747-1.297 1.077-1.928zm556.701 0-.047.084c-.203.35-.39.803-.702 1.075-.396.347-.789-.028-1.17-.14-.228-.067-.981-.094-1.215-.047-.622.125-.643 1.15-1.31 1.076-.208-.023-.293-.147-.468-.234-.028-.014-.07.022-.093 0-.13-.13-.299-.513-.561-.28-.526.467-1.424 2.778-1.59 3.086a9 9 0 0 1-.357.526h65.304v-5.146zm-945.387.212c.109.01.18.23.296.27.219.072 1.485-.024 1.323.462-.068.204-.277.37-.463.463-.047.024-.838.08-.86.066-.04-.027-.03-.097-.066-.132-.02-.022-.215-.108-.264-.132-.053-.027-.629.107-.728.132-.143.036-.59 0-.661 0l.33-.265c.066-.022.14-.028.199-.066.22-.146.704-.741.86-.793h.034zm149.225 1.82h.1c.162.013.334.098.49.14.101.027.203.046.304.07.157.038.309.1.468.117.194.022.39-.01.585 0 .094 0 .187.02.28.023.257.012.516 0 .772 0 .152 0 .174.044.28.14.054.049.128.079.165.14.079.136-.134.487-.258.539-.185.078-.488.088-.678.094-.132 0-.266.016-.397 0-.335-.04-.656-.182-.982-.257-.112-.027-.22.08-.328.07-.17-.017-.543-.314-.655-.258-.11.055-.189.193-.257.28-.168.216-.47.615-.701.749a.36.36 0 0 1-.258.023c-.01 0-.013-.02-.024-.023-.065-.022-.103.059-.164.047-.048-.01-.092-.037-.14-.047h-.07c-.058-.012-.142-.085-.163-.093-.101-.04-.213.039-.281.093-.246.197-.449.44-.678.655-.019.016-.09.095-.14.07-.046-.023-.37-.504-.398-.561-.057-.12-.085-.417-.234-.491-.013-.01-.033.01-.047 0-.095-.047-.149 0-.257.023-.14.025-.324.047-.468.023-.024 0-.046-.02-.07-.023-.024 0-.048.01-.07 0-.02-.01-.027-.037-.047-.046-.029-.014-.065-.01-.093-.023-.056-.028.081-.066-.138.022.727-.647.114-.087.863-.817.062-.06.482-.583.748-.538 1.612.276-.137.185.82.305.1.013.594-.011.653-.023.068-.014.124-.066.188-.094.058-.025.48-.185.561-.21a2.5 2.5 0 0 1 .72-.122zm-120.571 2.872c-.329 0-.686.074-.927.094-.01 0-.375-.027-.397 0a1 1 0 0 0-.097.148h2.552a3.2 3.2 0 0 1-.602-.148c-.145-.072-.332-.095-.53-.094z" style="fill:#bfbfbf;fill-opacity:1;stroke:none;stroke-width:3.5;stroke-linecap:round;stroke-dasharray:none;stroke-opacity:1;stop-color:#000" transform="translate(3381.32 -2465.908)"/><path d="M-3378.733 2966.78h6.536v0h1236.117v-15.875h-1226.835v-466.648h1226.835v-15.875h-1226.835v-.028h-15.818z" style="fill:none;fill-opacity:1;stroke:#0d1626;stroke-width:3.25112;stroke-linecap:square;stroke-linejoin:miter;stroke-dasharray:none;stroke-opacity:1;paint-order:fill markers stroke;stop-color:#000" transform="translate(3381.32 -2465.908)"/><path d="M-2291.941 2954.84q-.96 0-1.841.65a3.9 3.9 0 0 0-.863.874q-.358.51-.51 1.059-.245.894.153 1.517.144.225.415.443.277.22.82.536.614.364.893.603.285.238.407.497.117.25.126.602.016.351-.077.689-.216.78-.852 1.291-.637.51-1.398.51-1.093 0-1.509-1.112-.218-.603-.21-1.65h-.152l-.771 2.736h.152q.207-.318.525-.318.099 0 .171.027t.434.205a3.5 3.5 0 0 0 1.55.337q.933 0 1.737-.417.804-.423 1.362-1.198.398-.556.565-1.166.252-.914-.103-1.602-.307-.616-1.246-1.126l-.81-.45q-1.238-.676-.935-1.782.077-.277.252-.556.183-.278.418-.484a1.92 1.92 0 0 1 1.31-.503q.51 0 .832.252.323.245.506.762.1.285.133.622.04.33.047.96h.153l.675-2.629h-.152q-.172.338-.404.338a.7.7 0 0 1-.203-.033 8 8 0 0 1-.403-.172 3.5 3.5 0 0 0-.64-.245 2.2 2.2 0 0 0-.559-.067zm16.939 0a5.3 5.3 0 0 0-1.668.285 7.4 7.4 0 0 0-1.69.801 7.2 7.2 0 0 0-1.847 1.662 5.9 5.9 0 0 0-1.043 2.06 4.5 4.5 0 0 0-.158 1.636 3.28 3.28 0 0 0 1.784 2.615q.842.432 1.895.431 1.066 0 2.162-.444a7.3 7.3 0 0 0 2.039-1.252 7 7 0 0 0 1.282-1.437q.521-.787.754-1.635.465-1.689-.338-3.013a3.37 3.37 0 0 0-1.322-1.258q-.83-.45-1.85-.45zm52.685 0q-.801 0-1.667.285a7.4 7.4 0 0 0-1.69.801 7.2 7.2 0 0 0-1.848 1.662 5.9 5.9 0 0 0-1.043 2.06 4.5 4.5 0 0 0-.158 1.636 3.28 3.28 0 0 0 1.784 2.615q.843.432 1.895.431 1.067 0 2.162-.444a7.3 7.3 0 0 0 2.04-1.252 7 7 0 0 0 1.281-1.437q.522-.787.754-1.635.465-1.689-.337-3.013a3.4 3.4 0 0 0-1.323-1.258q-.83-.45-1.85-.45zm-52.81.212q.71 0 1.156.252.456.245.73.788.343.662.364 1.616a6.8 6.8 0 0 1-.261 2.013q-.533 1.94-1.944 3.264-.64.597-1.243.861a3.1 3.1 0 0 1-1.291.265q-.69 0-1.146-.265-.448-.271-.757-.86-.684-1.319-.156-3.239.3-1.092.847-2.046a6.8 6.8 0 0 1 1.25-1.61q.588-.548 1.165-.794.585-.245 1.287-.245zm52.686 0q.708 0 1.156.252.456.245.73.788.341.662.364 1.616a6.8 6.8 0 0 1-.262 2.013q-.533 1.94-1.943 3.264-.64.597-1.244.861a3.1 3.1 0 0 1-1.29.265q-.69 0-1.146-.265-.45-.271-.757-.86-.684-1.319-.157-3.239.3-1.092.847-2.046a6.8 6.8 0 0 1 1.25-1.61q.587-.548 1.166-.794.584-.245 1.286-.245zm-159.311.013-.042.152q.372.02.587.106t.34.278q.155.212.138.537t-.204 1.006l-1.341 4.88q-.188.683-.35 1.007a1.6 1.6 0 0 1-.432.537 1.7 1.7 0 0 1-.493.278q-.255.086-.645.106l-.042.152h4.231l.042-.152a1.9 1.9 0 0 1-.593-.106.8.8 0 0 1-.334-.278.87.87 0 0 1-.137-.537q.018-.33.203-1.006l.672-2.443h4.702l-.672 2.443q-.187.682-.357 1.006a1.6 1.6 0 0 1-.425.537 1.8 1.8 0 0 1-.5.278q-.256.086-.645.106l-.042.152h4.231l.042-.152a1.9 1.9 0 0 1-.586-.106.84.84 0 0 1-.341-.278.9.9 0 0 1-.136-.543q.017-.325.202-1l1.34-4.88q.186-.675.349-1a1.66 1.66 0 0 1 .927-.822q.262-.086.645-.105l.042-.153h-4.232l-.042.153q.38.02.587.105.216.086.348.278.147.212.13.537-.013.324-.197 1.007l-.584 2.125h-4.702l.584-2.125q.186-.676.348-1a1.66 1.66 0 0 1 .928-.822q.262-.086.645-.105l.042-.153zm15.078 0-4.14 6.245q-.565.854-.889 1.284a5.4 5.4 0 0 1-.601.696q-.345.337-.652.49a1.7 1.7 0 0 1-.663.172l-.042.152h2.967l.042-.152q-.394-.033-.604-.212a.67.67 0 0 1-.203-.344.9.9 0 0 1 .02-.457q.114-.417.612-1.146l.279-.41.595-.914h2.914l.206 1.562.036.279q.06.456-.014.728-.126.457-.607.715-.272.145-.876.199l-.042.152h2.712c0-.013.017-.026.02-.038.174-.305.34-.606.484-.916q-.099-.338-.207-1.125l-.968-6.96zm10.216 0-.056.205h.73l-.84.894c-.024.256-.05.516-.051.56-.02.413 0 .828 0 1.242l2.568-2.749.042-.152zm3.452 0-.042.152q.379.02.587.106.215.086.34.278.148.213.13.544c-.01.216-.072.55-.195 1l-1.342 4.88q-.186.675-.356 1.006a1.6 1.6 0 0 1-.426.537q-.091.07-.185.125.114.203.22.411h6.685l.81-2.635-.15-.01a7.4 7.4 0 0 1-.542.96q-.244.365-.562.649a2.9 2.9 0 0 1-1.047.629q-.59.198-1.385.199-.756 0-1.159-.219a.99.99 0 0 1-.49-.702 2 2 0 0 1 .012-.688q.067-.418.317-1.325l.416-1.517h.378q.49 0 .78.1.291.099.431.312.146.218.173.53c.022.207.01.48-.047.82h.152l1.003-3.55-.15-.01q-.2.51-.365.775a1.7 1.7 0 0 1-.395.45 1.4 1.4 0 0 1-.576.285q-.326.08-.928.08h-.398l1.092-3.973h1.516q.702 0 1.1.1.397.093.644.324.302.278.4.642.098.365.032.921l.156-.01.488-2.185zm8.45 0-.042.152q.354.015.557.092a.8.8 0 0 1 .348.252q.167.212.154.55c0 .22-.069.565-.198 1.033l-1.34 4.88q-.186.675-.356 1.007-.163.324-.426.536-.468.378-1.137.378l-.043.159h7.907l.833-2.715-.156-.013a8 8 0 0 1-.55.993 4 4 0 0 1-.564.676q-.465.437-1.066.648-.592.206-1.38.206-.756 0-1.152-.219a1 1 0 0 1-.496-.702q-.057-.27.014-.702.072-.43.314-1.31l1.05-3.822q.192-.695.362-1.026a1.6 1.6 0 0 1 .936-.801q.253-.08.623-.1l.042-.152zm11.51 0-.791 2.444.148.013q.378-.795.803-1.258a2.6 2.6 0 0 1 1.016-.709q.56-.205 1.593-.258.485-.027.902-.027l-1.856 6.755q-.187.682-.356 1.007-.162.324-.425.536-.24.191-.5.278-.256.086-.646.106l-.042.152h4.232l.042-.152a1.9 1.9 0 0 1-.587-.106.76.76 0 0 1-.34-.278.87.87 0 0 1-.138-.537q.018-.33.204-1.006l1.856-6.755q1.47 0 2.037.179.671.205.918.682.255.47.181 1.39l.156-.012.552-2.444zm9.462 0-.042.152q.372.02.587.106t.34.278q.155.212.138.537-.018.325-.204 1.006l-1.341 4.88q-.188.683-.35 1.007a1.6 1.6 0 0 1-.432.537 1.7 1.7 0 0 1-.494.278q-.255.086-.645.106l-.042.152h4.232l.042-.152a1.9 1.9 0 0 1-.593-.106.8.8 0 0 1-.335-.278.87.87 0 0 1-.137-.537q.018-.33.203-1.006l.645-2.344h.324q.299 0 .487.059a.8.8 0 0 1 .334.185q.278.265.503.987.225.729.38 1.675l.175 1.053.085.464h4.946l.042-.153q-.394-.034-.604-.211a.67.67 0 0 1-.203-.345.9.9 0 0 1 .02-.456q.114-.418.613-1.146l.278-.41.596-.915h2.914l.206 1.563.036.278q.06.457-.015.729-.126.456-.607.715-.27.146-.876.198l-.042.153h4.35l.043-.153a3.4 3.4 0 0 1-.587-.106.9.9 0 0 1-.313-.185q-.177-.172-.277-.51-.1-.337-.208-1.126l-.967-6.96h-.378l-4.14 6.245q-.565.855-.889 1.285a5.4 5.4 0 0 1-.601.695q-.345.339-.652.49-.247.122-.527.158a1 1 0 0 1-.319-.091.7.7 0 0 1-.24-.285q-.135-.252-.287-.808-.144-.563-.4-1.775a7 7 0 0 0-.175-.735 1 1 0 0 0-.182-.35q-.142-.18-.495-.345.513-.106.83-.225.323-.12.614-.305.953-.623 1.236-1.655.191-.696-.03-1.219-.21-.53-.794-.795-.519-.231-1.533-.278c-.168 0-.516-.01-1.05-.01zm18.184 0-.04.152q.378.02.586.106.214.086.34.278.147.213.13.544c-.01.216-.072.547-.195.993l-1.342 4.887q-.186.675-.356 1.006-.162.326-.425.537-.24.192-.5.278-.256.086-.639.106l-.042.152h3.053l.042-.152a1.9 1.9 0 0 1-.587-.106.76.76 0 0 1-.34-.278.87.87 0 0 1-.138-.537q.016-.325.204-1.006l1.583-5.761 4.084 7.84h.297l1.915-6.966q.183-.669.346-.993.17-.331.434-.544a1.76 1.76 0 0 1 1.138-.384l.042-.152h-3.053l-.042.152a1.8 1.8 0 0 1 .58.106q.216.086.348.278.147.212.13.537c-.01.216-.071.552-.196 1.006l-1.314 4.782-3.492-6.861zm17.257 0-.042.152h.046q.417.026.645.16a.7.7 0 0 1 .33.39q.066.192.027.503a6 6 0 0 1-.187.874l-1.341 4.88q-.188.683-.35 1.007a1.6 1.6 0 0 1-.432.537 1.7 1.7 0 0 1-.493.278q-.256.086-.645.106l-.042.152h4.23l.043-.152a1.9 1.9 0 0 1-.593-.106.8.8 0 0 1-.335-.278.87.87 0 0 1-.137-.537q.019-.33.203-1.006l.654-2.377h1.297c.574 0 .94-.01 1.092-.02q.725-.06 1.301-.351 1.11-.564 1.441-1.775.328-1.191-.415-1.907a1.6 1.6 0 0 0-.791-.424q-.468-.106-1.514-.106zm18.84 0-.042.152q.372.02.587.106t.34.278q.154.212.138.537t-.203 1.006l-1.342 4.88q-.187.683-.35 1.007a1.55 1.55 0 0 1-.432.537 1.7 1.7 0 0 1-.493.278q-.255.086-.645.106l-.042.152h4.231l.042-.152a1.9 1.9 0 0 1-.593-.106.8.8 0 0 1-.334-.278.87.87 0 0 1-.137-.537q.018-.33.203-1.006l.644-2.344h.325q.297 0 .487.059a.8.8 0 0 1 .333.185q.277.265.504.987.223.729.38 1.675l.174 1.053.085.464h2.199l.042-.153a1 1 0 0 1-.401-.106.7.7 0 0 1-.24-.284q-.136-.252-.288-.808a49 49 0 0 1-.4-1.775 7 7 0 0 0-.175-.735 1 1 0 0 0-.182-.35q-.142-.18-.495-.345a6 6 0 0 0 .83-.225q.323-.12.614-.305.952-.623 1.236-1.655.192-.696-.03-1.219-.212-.53-.794-.795-.519-.231-1.533-.278c-.168 0-.516-.01-1.05-.01zm8.629 0-.79 2.444.148.013q.377-.795.802-1.258a2.6 2.6 0 0 1 1.016-.709q.56-.205 1.594-.258.484-.027.902-.027l-1.857 6.755q-.187.682-.355 1.007a1.6 1.6 0 0 1-.926.814q-.255.086-.645.106l-.042.152h4.232l.041-.152a1.9 1.9 0 0 1-.586-.106.76.76 0 0 1-.341-.278.87.87 0 0 1-.137-.537q.018-.33.204-1.006l1.856-6.755q1.47 0 2.036.179.672.205.919.682.255.47.18 1.39l.157-.012.552-2.444zm13.509 0-4.14 6.245q-.566.854-.89 1.284-.315.424-.6.696-.345.337-.652.49a1.7 1.7 0 0 1-.663.172l-.042.152h2.967l.042-.152q-.395-.033-.604-.212a.67.67 0 0 1-.204-.344.9.9 0 0 1 .02-.457q.114-.417.613-1.146l.279-.41.595-.914h2.913l.207 1.562.036.279q.06.456-.015.728-.126.457-.607.715-.272.145-.875.199l-.042.152h4.35l.042-.152a3.4 3.4 0 0 1-.587-.106.9.9 0 0 1-.313-.186q-.177-.171-.277-.51-.099-.337-.207-1.125l-.968-6.96zm5.205 0-.791 2.444.149.013q.377-.795.802-1.258a2.6 2.6 0 0 1 1.016-.709q.56-.205 1.594-.258.485-.027.902-.027l-1.857 6.755q-.186.682-.355 1.007a1.6 1.6 0 0 1-.926.814q-.256.086-.645.106l-.042.152h4.232l.042-.152a1.9 1.9 0 0 1-.587-.106.76.76 0 0 1-.341-.278.87.87 0 0 1-.138-.537q.02-.33.205-1.006l1.856-6.755q1.027 0 1.613.088c.092-.09.21-.196.325-.293zm25.342 0-.042.152q.38.02.587.106.216.086.34.278.148.213.13.544c-.01.216-.071.547-.194.993l-1.342 4.887q-.186.675-.356 1.006a1.6 1.6 0 0 1-.926.815q-.255.086-.638.106l-.042.152h3.052l.042-.152a1.9 1.9 0 0 1-.586-.106.76.76 0 0 1-.341-.278.87.87 0 0 1-.137-.537q.016-.325.203-1.006l1.583-5.761 4.084 7.84h.298l1.914-6.966q.184-.669.346-.993a1.7 1.7 0 0 1 .434-.544 1.76 1.76 0 0 1 1.139-.384l.042-.152h-3.053l-.042.152q.372.02.58.106.215.086.347.278.147.212.131.537c-.01.216-.072.552-.197 1.006l-1.314 4.782-3.491-6.861zm-104.181.205h.271q.709 0 1.067.093.36.086.577.311.276.298.347.762.08.457-.064.98-.27.98-1.147 1.642-.39.291-.774.384-.376.093-1.198.093h-.251zm35.44 0h.557c.362 0 .594 0 .692.013q.54.06.85.398.274.285.334.741.068.45-.081.993a2.8 2.8 0 0 1-1.08 1.57 2.1 2.1 0 0 1-.735.357q-.376.093-1.032.093h-.649zm18.84 0h.272q.709 0 1.067.093.36.086.577.311.276.298.347.762.08.457-.064.98-.27.98-1.147 1.642-.392.291-.774.384-.376.093-1.198.093h-.251zm-101 1.497.449 3.43h-2.703zm55.917 0 .448 3.43h-2.702zm63.592 0 .448 3.43h-2.702zm16.498 1.674c-.309.074-.27.417-.467.655-.095.114-.21.202-.317.299l-.723 2.63q-.187.682-.35 1.006a1.55 1.55 0 0 1-.432.537 1.7 1.7 0 0 1-.493.278q-.256.086-.645.106l-.042.152h4.231l.042-.152q-.443-.026-.68-.153a.73.73 0 0 1-.334-.397 1.2 1.2 0 0 1-.032-.51q.035-.316.185-.867l.823-2.997a2 2 0 0 1-.261-.166c-.126-.096-.33-.463-.506-.42zm-123.809 2.81a4.6 4.6 0 0 1-.458.794q.124.126.246.256l.362-1.044z" style="font-size:13.562px;font-family:&quot;Baskerville Old Face&quot;;-inkscape-font-specification:&quot;Baskerville Old Face&quot;;fill:#bfbfbf;fill-opacity:1;stroke:#bfbfbf;stroke-width:.8;stroke-linecap:round;stroke-dasharray:none;stroke-opacity:1;stop-color:#000" transform="translate(3381.32 -2465.908)"/><path d="M-3086.233 2469.96c-.055 0-.117 0-.194.018-.423.06-.91.03-1.337.03-.074 0-.571-.02-.625.055-.124 0-.294.01-.621.015-.844.019-1.688.01-2.531.036-.272.01-.545.01-.815.036a5 5 0 0 0-.694.126c-.096.023-.248.011-.277.108-.024.08.13.113.208.127.28.044.566.04.85.055q.918.05 1.837.091c.242.011.486 0 .728.018.146.011.29.025.433.054.061.013.155.01.174.072.015.047-.091.025-.139.037-.126.022-.253.055-.381.055-.522.02-.74-.061-1.283-.072a6.5 6.5 0 0 0-.884.018 10 10 0 0 0-1.96.38c-.286.083-.566.193-.849.289-.886.3-.165.037-.728.271-.034.015-.117 0-.103.036.018.044.09.044.138.055.143.027.288.042.433.055q.39.037.78.054c.341.018.682.012 1.023.018l1.352.036c.422.012.844 0 1.266 0 1.1 0 2.278 0 3.363-.018.264 0 .453-.012.592-.013-.024 0-.048.011-.072.013-.209.042-.416.096-.624.145-.26.06-.523.106-.78.18-.281.082-.554.194-.832.29-.23.078-.464.15-.693.235-.118.043-.236.084-.347.144-.04.021-.09.045-.112.086h-.01c-.01.01 0 .014-.01.02 0 .012 0 .017.01.022-.052 0-.102.012-.148.016-.276.035-.545.111-.815.18-.49.127-.405.112-.745.272q-.06.032-.122.054a.14.14 0 0 1-.069.018h-.017c.726.189.519.125 1.596.27q.423.059.849.109c.527.062.595.411 1.121.488l.133.032.526.044 129.814-.292 3.495-.977.307 1.197h195.62c.227.024.519.052.701.063.523.022 1.057-.025 1.578-.056.034 0 .068 0 .101-.01h4.077l.017.014c.015 0 .028-.01.043-.015h.638l2.029-.422c.75-.027 1.747-.131 2.33-.187-.417 0-.833 0-1.249.02.17-.01.337-.015.51-.037.412-.054.658-.092.953-.315.043-.033.099-.081.086-.13-.04-.141-.464-.175-.52-.186-.288-.047-.58-.08-.867-.13-.219-.037-.436-.082-.655-.12.833-.081 1.678-.12 2.476-.195 1.493-.14 1.268-.158 2.774-.452.329-.065.659-.12.988-.18q.303-.057.607-.109c.04-.012.14.02.121-.018-.022-.044-.092-.015-.139-.018-.097-.012-.196-.015-.294-.018-.33-.014-1.1-.033-1.404-.018-.425.021-.656.04-.828.058-.01 0-.016-.012-.023-.012-.572-.114-1.063-.143-1.664-.157h-.493.025c.475.066.946.154 1.422.215.064.012.128.012.191.017a13 13 0 0 1-.71.055 7 7 0 0 1-.815.018 1.4 1.4 0 0 1-.468-.091c-.033-.015-.014-.09.017-.108.073-.048.154-.08.237-.109h.101c-.024 0-.047-.01-.07-.01l.13-.045c.344-.116.688-.24 1.04-.325.643-.156 1.294-.27 1.942-.398q.398-.077.797-.144c.185-.031.37-.055.555-.091.076-.015.168 0 .226-.055.027-.025-.052-.06-.087-.072a1.4 1.4 0 0 0-.33-.091c-.513-.057-1.245.017-1.716.055-.318.025-.635.06-.953.09-.48.06-.957.142-1.44.182q-1.029.084-2.062.108-.374.017-.746-.036c-.17-.022-.37-.013-.502-.126-.062-.053.02-.188.087-.235.102-.073.225-.109.347-.14l2.881-.423H-3073l-7.508-.198h-4.283a3.5 3.5 0 0 0-.543 0h-.7a1 1 0 0 0-.208-.012zm339.353 3.98c.627 0 1.254-.01 1.878-.063a22 22 0 0 0 1.977-.27q.09-.018.18-.039h-.01c-1.31.14-2.624.24-3.936.362-.025 0-.066.012-.092.012zm4.035-.37c.392-.043.788-.07 1.172-.163.038-.01-.014-.12-.052-.108-.379.055-.755.392-1.12.27zm-343.428-1.59h-.03z" style="fill:#e5e5e5;fill-opacity:1;stroke:none;stroke-width:3.49999;stroke-linecap:round;stroke-dasharray:none;stroke-opacity:1;stop-color:#000" transform="translate(3381.32 -2465.908)"/><path d="M-2744.911 2473.342c.243.06.5 0 .744-.016.066-.01.132-.01.199-.01.06 0 .12-.01.181-.01.135 0 .33.015.414-.124.018-.031.041-.105.01-.14-.05-.057-.302-.05-.364-.05-.131 0-.266-.01-.397 0-.17.01-.09.02-.256.032-.081.01-.17 0-.248-.025-.058-.017-.089-.033-.149-.033h-.29l-.01-.01c-.01 0 0 .011 0 .016 0 .025-.01.052 0 .074.01.018.047.037.058.05.054.061-.01.026.066.083.028.021.127.066.091.066-.113 0-.226.01-.339.01-.061 0-.121.01-.182.01h-.024c-.02.01 0 .01-.016.01m4.554-1.616c.144-.07.283-.148.43-.207.198-.079.4-.145.604-.207.167-.05.166.093.298.108.096.01.134-.051.19-.108.063-.063.115-.11.115-.206 0-.02-.038-.01-.058-.01-.036 0-.07.014-.107.016-.178.012-.164-.012-.372-.041a3.2 3.2 0 0 0-.695-.01q-.116.013-.231.016c-.12.01-.102-.013-.199.016-.028.01-.104.03-.14.05-.16.08-.307.206-.496.206h.033c.08-.027.073-.059.14.01m-351.967 2.584c-1.94.05-1.508.13-3.038-.083-.069-.01-.212-.01-.195-.05.032-.072.18-.103.279-.149.875-.405 1.817-.814 3.037-.661.093.012.191.054.28.033.114-.027.205-.083.278.033.017.02 0 .044 0 .066 0 .059.022.13-.056.182-.125.083-.605.21-.753.248-.12.03-.237.063-.362.083-.04.01-.446.028-.474.016-.09-.04.11-.28.167-.314" style="fill:#e5e5e5;fill-opacity:1;stroke:none;stroke-width:3.49999;stroke-linecap:round;stroke-dasharray:none;stroke-opacity:1;stop-color:#000" transform="translate(3381.32 -2465.908)"/><path d="M725.102-1232.362h68.394v141.318h-68.394zM429.657-520.637h68.394v141.319h-68.394z" style="fill:#000;fill-opacity:.25;fill-rule:nonzero;stroke:none;stroke-width:.822853;stroke-opacity:1;paint-order:fill markers stroke;stop-color:#000" transform="rotate(-90 1040.193 -219.288)"/><path d="M-383.765-633.908c-.428-.02-.868.058-1.298.058-6.066 0-9.458 3.101-13.771 7.746-3.56 3.833-9.15 12.575-10.328 18.074-1.657 7.733-.982 15.869-2.151 23.668-.959 6.389-5.826 12.261-3.443 18.934 1.68 4.703 8.3 5.796 12.05 7.746 1.658.863 3.19 1.956 4.733 3.012 4.22 2.887 8.537 6.35 11.188 10.758l9.467 2.152c0-1.434 2.07-8.619 2.582-9.898.43-1.073 1.204-1.978 1.721-3.012.632-1.264.995-2.661 1.722-3.873 1.21-2.017 2.286-4.384 4.303-5.594 3.787-2.272 9.51 2.046 12.05 4.303 1.516 1.348 2.635 3.149 4.302 4.304 2.11 1.46 4.462 2.599 6.885 3.442 2.428.844 10.161-.992 12.48-2.152 2.163-1.081 6.494-4.594 8.176-6.024 4.951-4.208 13.73-13.137 15.061-19.795.482-2.405-6.618-2.543-7.315-2.582-6.403-.355-13.01.725-19.365-.43-1.473-.268-2.863-.88-4.303-1.291-1.622-.464-6.42-1.579-8.176-2.582-10.43-5.96-6.769-8.89-10.758-19.795-2.33-6.365-3.638-5.639-7.316-9.898-1.657-1.919-5.846-8.192-8.176-10.327-1.206-1.105-2.587-2.002-3.873-3.013-1.707-1.34-3.828-3.324-6.025-3.873a2 2 0 0 0-.422-.058m-601.245 87.753q-.15.006-.298.055c-3.156 1.052-2.875 2.715-4.234 5.82-1.54 3.52-3.023 5.082-3.704 8.997-.81 4.654-.39 9.608 0 14.287.075.896.44 1.751.53 2.646.087.878-.746 2.175 0 2.646 6.336 4.002 15.534 4.118 20.108 10.054 23.59 30.618-23.993 23.823 33.337 20.638l31.22-5.821c1.758 0 6.642-4.69 4.234-5.292-8.082-2.02-17.668 1.097-24.87-3.704-.53-.353-1.304-.49-1.588-1.058-1.737-3.475.144-9.304 1.058-12.7.652-2.421 2.978-10.41 4.234-13.759 1.698-4.53 3.175-8.313 3.175-13.229 0-2.252.473-4.584-1.588-6.35-.535-.46-1.41 0-2.117 0-6.237 0-8.996.958-14.816 3.175-5.047 1.923-10.042 3.239-15.346 4.233-2.508.47-10.203 1.154-12.7.53-1.148-.287-2.087-1.122-3.175-1.588-1.385-.594-2.96-.783-4.233-1.587-2.12-1.34-3.988-3.052-5.821-4.763-.316-.295-1.908-3.29-3.406-3.23" style="fill:#636363;fill-opacity:.75;stroke:none;stroke-width:1.028;stroke-linecap:round;stroke-linejoin:round;paint-order:stroke fill markers;stop-color:#000" transform="translate(1259.48 820.905)"/><path d="M-1147.233-700.881c-8.24 3.168-13.765 2.276-21.432-1.852-.732-.395-1.391-.915-2.116-1.323-2.076-1.168-2.038-.46-2.91-2.381-1.862-4.095 1.906-9.51-2.647-12.436-5.762-3.704-13.606-1.995-19.05-6.35-2.482-1.986-4.93-5.234-6.085-8.202-.75-1.929-.6-4.086-.53-6.085.216-6.03 1.654-11.456 5.557-16.14 1.516-1.82 2.986-3.478 5.027-4.762 8.485-5.343 14.31-1.594 21.167 3.704 3.085 2.383 3.315 3.587 7.408 4.233 12.168 1.921 18.536-12.16 30.956-11.642 2.024.084 4.1 1.637 5.557 2.91 4.258 3.727 4.594 7.344 5.027 12.965.267 3.475-.677 7.3 1.587 10.32 2.46 3.28 6.078 3.995 9.79 5.026 2.357.655 3.166.295 5.292 2.117 1.987 1.703.118 7.64-.265 8.731-1.249 3.555-4.236 7.087-6.615 9.79-.992 1.127-2.377 1.848-3.44 2.91-3.424 3.426-7.672 8.537-7.672 13.758" style="fill:#0d0d0d;fill-opacity:.75;stroke:none;stroke-width:1.028;stroke-linecap:round;stroke-linejoin:round;paint-order:stroke fill markers;stop-color:#000" transform="translate(1259.48 820.905)"/><path d="m-2280.237 1748.905-1.496 482.689 94.292-19.458 134.704-84.564 58.372-124.975-36.67-128.717-84.564-74.835-111.504-48.643z" style="opacity:1;fill:#0d0d0d;fill-opacity:1;stroke:none;stroke-width:4;stroke-linecap:round;stroke-linejoin:miter;stroke-dasharray:none;stroke-opacity:1;paint-order:normal;stop-color:#000" transform="translate(3537.269 -1735.302)"/><path d="M-2291.922 1737.779v11.678h-.095v88.513h20.853v-80.334c138.767 10.758 259.35 110.902 259.382 228.217-.188 117.526-113.417 219.204-259.382 229.434v-81.767h-20.852v93.253h.093v9.06c170.144 0 306.213-114.902 306.427-248.83-.037-134.082-136.834-249.228-306.427-249.228zm8.482 111.72v97.979h-8.576v76.828h8.576v97.844h12.276v-272.652z" style="fill:#122b5e;fill-opacity:1;stroke:#06132d;stroke-width:3.5;stroke-linecap:round;stroke-linejoin:miter;stroke-dasharray:none;stroke-opacity:1" transform="translate(3537.269 -1735.302)"/><g style="stroke-width:1.00012"><path d="M533.89 274.659h283.953v129.715H533.89z" style="fill:#3e3e3e;fill-opacity:1;stroke:none;stroke-width:1.53841;stroke-dasharray:none;stroke-opacity:1;paint-order:fill markers stroke;stop-color:#000" transform="matrix(0 -1 1.36284 0 869.407 926.387)"/><path d="M792.627 275.438h24.456v20.256h-24.456zm-25.77.002h24.456v20.255h-24.456zm-25.807-.004h24.456v20.256H741.05zm-25.84-.002h24.455v20.255H715.21zm-25.85 0h24.456v20.255H689.36z" style="fill:#595959;fill-opacity:1;stroke:#3e3e3e;stroke-width:1.53841;stroke-dasharray:none;stroke-opacity:1;paint-order:fill markers stroke;stop-color:#000" transform="matrix(0 -1 1.36284 0 869.407 926.387)"/><path d="M637.926 275.432h24.456v20.256h-24.456z" style="fill:#595959;fill-opacity:1;stroke:#3e3e3e;stroke-width:1.53847;stroke-dasharray:none;stroke-opacity:1;paint-order:fill markers stroke;stop-color:#000" transform="matrix(0 -1 1.36284 0 869.407 926.387)"/><path d="M612.156 275.433h24.456v20.256h-24.456zm-25.806-.003h24.455v20.256H586.35zm-25.841-.002h24.456v20.255h-24.456zm-25.849 0h24.455v20.255H534.66zm129.002.007h24.456v20.255h-24.456zm128.961 21.582h24.456v20.255h-24.456zm-25.77.001h24.456v20.255h-24.456zm-25.806-.004h24.456v20.256h-24.456zm-25.842-.002h24.456v20.256h-24.456zm-25.849 0h24.456v20.256h-24.456zm-51.433-.002h24.456v20.256h-24.456zm-25.77.002h24.456v20.255h-24.456zm-25.806-.003h24.455v20.255h-24.455zm-25.842-.003h24.456v20.256h-24.456zm-25.849 0h24.456v20.256h-24.456zm129.003.007h24.455v20.256H663.66zm128.965 21.6h24.456v20.256h-24.456zm-25.77.001h24.456v20.256h-24.456zm-25.806-.004h24.456v20.257h-24.456zm-25.841-.001h24.456v20.255h-24.456zm-25.849 0h24.456v20.255h-24.456zm-51.434-.002h24.456v20.256h-24.456zm-25.77.001h24.456v20.256h-24.456zm-25.806-.003h24.456v20.256h-24.456zm-25.842-.002h24.456v20.255h-24.456zm-25.848 0h24.455v20.255h-24.455zm129.002.007h24.455v20.255H663.66zm128.961 21.582h24.456v20.255H792.62zm-25.771.001h24.457v20.255H766.85zm-25.805-.003H765.5v20.255h-24.456zm-25.842-.003h24.456v20.256h-24.456zm-25.849 0h24.456v20.256h-24.456zm-51.434-.001h24.457v20.255H637.92zm-25.77.001h24.456v20.255H612.15zm-25.806-.003H610.8v20.255h-24.456zm-25.841-.003h24.456v20.256h-24.456zm-25.849 0h24.456v20.256h-24.456zm129.003.007h24.456v20.256h-24.456zm128.964 21.582h24.456v20.256h-24.456zm-25.77.002h24.456v20.255h-24.456zm-25.806-.003H765.5v20.255h-24.456zm-25.842-.003h24.456v20.256h-24.456zm-25.849 0h24.456v20.256h-24.456zm-51.433-.001h24.456v20.256h-24.456zm-25.771.001h24.457v20.256H612.15zm-25.805-.003H610.8v20.255h-24.455zm-25.842-.003h24.456v20.256h-24.456zm-25.849 0h24.456v20.256h-24.456zm129.003.007h24.456v20.256h-24.456zm128.961 21.583h24.455v20.255h-24.455zm-25.77 0h24.455v20.256h-24.455zm-25.807-.003h24.456v20.256h-24.456zm-25.841-.002h24.456V403.6H715.2zm-25.849 0h24.456V403.6h-24.456zm-51.434-.002h24.456V403.6h-24.456zm-25.77.001h24.456V403.6h-24.456zm-25.807-.003h24.457v20.256H586.34zm-25.84-.002h24.456v20.255H560.5zm-25.85 0h24.457v20.255H534.65zm129.003.007h24.456V403.6h-24.456z" style="fill:#595959;fill-opacity:1;stroke:#3e3e3e;stroke-width:1.53841;stroke-dasharray:none;stroke-opacity:1;paint-order:fill markers stroke;stop-color:#000" transform="matrix(0 -1 1.36284 0 869.407 926.387)"/></g><path d="M5.907-632.856c.74-9.175.688-12.778 3.383-22.53 1.51-5.465 1.787-8.164 5.724-10.739 3.02-1.975 14.121 1.477 17.8 1.873 5.9.635 6.823.494 12.126-.358 2.107-.339 2.896-1.924 4.036-3.502a151 151 0 0 1 3.601-4.75c3.136-3.997 5.093-5.735 8.778-9 .554-.49.923-1.194 1.55-1.587.653-.41 1.472-.468 2.186-.76 1.23-.5 2.411-1.113 3.64-1.613 1.43-.582 2.839-1.36 4.374-1.518 3.522-.364 4.553.551 7.97 1.785 3.064 1.106 9.831 3.726 11.998 6.337 2.214 2.668 5.737 9.681 4.974 13.327-.127.61-.659 1.08-.816 1.684-.665 2.562-.571 5.245-.426 7.85.104 1.857.946 3.338 1.422 5.108.576 2.14 1.171 4.281 1.544 6.466.177 1.04.91 8.118-.414 8.895-2.375 1.397-5.206 1.808-7.81 2.711-3.123 1.085-6.15 2.508-9.37 3.254-1.538.355-3.146.305-4.7.58-3.197.567-8.933 2.228-11.558 4.012-4.014 2.73-7.045 8.64-9.147 12.978-.614 1.268-1.648 4.142-2.773 4.114-.969-.025-3.635-4.243-4.138-4.865-3.322-4.113-2.27-2.009-4.884-6.007-1.22-1.866-1.838-4.09-3.106-5.924-.56-.811-1.502-1.295-2.117-2.066-2.192-2.748-.975-2.006-2.97-3.52-.76-.575-7.217 2.295-7.81 2.711-2.752 1.934-5.125 4.462-7.975 6.27-.69.437-4.052 1.78-5.107 1.422-4.895-1.66-5.42-2-9.15-4.176a75 75 0 0 0-5.157-2.76c-.222-.108-.306-.41-.53-.517-.014-.01-1.604-.292-.95-.72.37-.242.89-.18 1.25-.434.325-.229.395-.722.72-.95.361-.254.855-.239 1.25-.434 1.456-.719 1.48-1.194 2.582-2.647" style="fill:#333;fill-opacity:.413044;stroke:none;stroke-width:1.59943;stroke-linecap:square;stroke-linejoin:round;stroke-dasharray:none;stroke-opacity:1;paint-order:fill markers stroke;stop-color:#000" transform="translate(1259.48 820.905)"/><g style="opacity:.77;fill:#383838;fill-opacity:1;stroke-width:1.00012" transform="matrix(0 -3.9936 -3.99267 0 1466.016 447.367)"><path d="M48.626 33.703h1.268v12.303h-1.268z" style="fill:#383838;fill-opacity:1;stroke:none;stroke-width:.528447;stroke-linecap:round;stroke-linejoin:round;stroke-dasharray:none;stroke-opacity:1"/><path d="M36.12-52.551h1.166v6.518H36.12z" style="fill:#383838;fill-opacity:1;stroke:none;stroke-width:.562811;stroke-linecap:round;stroke-linejoin:round;stroke-dasharray:none;stroke-opacity:1" transform="rotate(90)"/><g style="fill:#383838;fill-opacity:1;stroke-width:1.00012"><path d="M45.97 157.626a60.245 52.682 0 0 0 57.134 36.442 60.245 52.682 0 0 0 56.488-34.82 78.466 64.217 0 0 1-55.942 19.236 78.466 64.217 0 0 1-57.68-20.858" style="fill:#383838;fill-opacity:1;stroke:none;stroke-width:6.74925;stroke-linecap:round;stroke-linejoin:round;stroke-dasharray:none;stroke-opacity:1" transform="translate(36.745 23.1)scale(.12124)"/><path d="m41.815 145.167.055.11 9.222 32.345 6.303-8.283 10.138-2.125zm123.316.556-.055.11-9.222 32.346-6.303-8.284-10.138-2.125z" style="fill:#383838;fill-opacity:1;stroke-width:6.22611;stroke-linecap:round;stroke-linejoin:round" transform="translate(36.745 23.1)scale(.12124)"/></g><circle cx="45.739239" cy="36.698822" r="1.1357701" style="fill:#383838;fill-opacity:1;stroke:none;stroke-width:.970022;stroke-linecap:round;stroke-linejoin:round;stroke-dasharray:none;stroke-opacity:1"/><circle cx="49.264393" cy="32.938183" r="1.1357701" style="fill:none;fill-opacity:1;stroke:#383838;stroke-width:.970022;stroke-linecap:round;stroke-linejoin:round;stroke-dasharray:none;stroke-opacity:1"/><circle cx="52.871014" cy="36.683556" r="1.1357701" style="fill:#383838;fill-opacity:1;stroke:none;stroke-width:.970022;stroke-linecap:round;stroke-linejoin:round;stroke-dasharray:none;stroke-opacity:1"/></g><path d="M-14.831-608.729h9.179v-97.98h162.514v272.653H-5.652v-97.845h-9.18v106.992h180.81v-290.916h-.166v0l-180.643-.03z" style="fill:#4f4f4f;fill-opacity:1;stroke:#292929;stroke-width:2.5;stroke-linecap:square;stroke-linejoin:miter;stroke-dasharray:none;stroke-opacity:1" transform="translate(1259.48 820.905)"/><path d="M143.443-447.4c-.581-.225-1.127-.762-1.744-.676-1.918.27-3.722 1.075-5.555 1.7-4.968 1.69-10.858 4.535-15.951 5.533-1.26.247-2.567.107-3.848.194-.835.056-1.67.35-2.499.235-.247-.034-.264-.424-.396-.635-.264-.424-.807-.772-.791-1.27.03-.974.643-1.84.915-2.776 1.37-4.7 3.2-8.592-.024-12.771-1.713-2.222-7.054-2.567-9.555-3.304-1.532-.452-2.996-1.112-4.52-1.592-6.283-1.976-4.08-.482-8.919-3.699-.665-.442.49-1.522.796-2.26.545-1.314 1.11-2.63 1.472-4.004 1.154-4.368 1.349-6.178-1.97-10.235-3.65-4.461-10.26-4.278-14.347-9.576-.762-.988-1.706-1.959-1.98-3.176-1.8-8.021 8.278-13.43 14.298-15.967 6.123-2.58 2.856-.017 8.73-3.678 2.861-1.783 5.161-4.687 8.772-5.027.278-.026.46.323.714.438.16.073.422-.03.515.12.209.334.142.779.276 1.15.629 1.741 3.87 9.558 4.153 10.198 2.435 5.52 5.241 10.874 7.595 16.43.697 1.644 1.136 3.389 1.819 5.039 1.07 2.588 4.194 1.165 4.713 5.44.341 2.811-2.374 7.933-4.058 10.465-1 1.504-2.182 2.464-2.108 4.4.011.28.82 1.436 1.308 1.39.904-.085 1.72-.619 2.618-.75 5.01-.732 18.486-.016 22.368 1.93 1.028.516 1.617 1.636 2.416 2.462.528.546 1.434.952 1.505 1.708.116 1.227-1.077 5.31-1.435 6.185-.68 1.666-1.08 3.53-2.227 4.916-.72.87-2.037.976-3.056 1.464z" style="opacity:1;fill:#333;fill-opacity:.407725;stroke:none;stroke-width:4;stroke-linecap:round;stroke-linejoin:miter;stroke-dasharray:none;stroke-opacity:1;paint-order:normal;stop-color:#000" transform="translate(1259.48 820.905)"/></svg>