<svg xmlns="http://www.w3.org/2000/svg" width="104.36336mm" height="224.531555mm" viewBox="0 0 208.72672 449.06311"><g transform="translate(1676.934 -.259)"><path d="M-1634.82 445.44v-52.451h-28.134V54.919h28.135V2.134h110.008V54.92h27.991v338.069h-27.991v52.45zm20.581-13.11h69.718v-30.56h-69.718zm0-386.528h69.718v-30.56h-69.718z" style="fill:#8c8c8c;fill-opacity:1;stroke:#212121;stroke-width:3.5;stroke-linecap:round;stroke-linejoin:miter;stroke-dasharray:none;stroke-opacity:1;paint-order:normal;stop-color:#000"/><rect width="5.9492302" height="332.26944" x="-1519.8308" y="56.086006" rx="0" ry="0" style="fill:#999;fill-opacity:1;stroke:none;stroke-width:1.99998;stroke-linecap:round;stroke-linejoin:miter;stroke-opacity:1;paint-order:stroke fill markers;stop-color:#000"/><rect width="5.9492302" height="332.26944" x="-1647.36" y="56.086006" rx="0" ry="0" style="fill:#999;fill-opacity:1;stroke:none;stroke-width:1.99998;stroke-linecap:round;stroke-linejoin:miter;stroke-opacity:1;paint-order:stroke fill markers;stop-color:#000"/><rect width="5.9492302" height="355.14975" x="-1582.3185" y="46.170307" rx="0" ry="0" style="fill:#999;fill-opacity:1;stroke:none;stroke-width:1.99998;stroke-linecap:round;stroke-linejoin:miter;stroke-opacity:1;paint-order:stroke fill markers;stop-color:#000"/><path d="M-1634.82 445.44v-52.451h-28.134V54.919h28.135V2.134h110.008V54.92h27.991v338.069h-27.991v52.45zm20.581-13.11h69.718v-30.56h-69.718zm0-386.528h69.718v-30.56h-69.718z" style="fill:none;fill-opacity:1;stroke:#4d4d4d;stroke-width:3.5;stroke-linecap:round;stroke-linejoin:miter;stroke-dasharray:none;stroke-opacity:1;paint-order:normal;stop-color:#000"/><path d="M-1636.58 1.759V54.05h-27.077v339.293h27.05v54.477h113.346v-54.297h27.144V54.05h-26.544V1.759Zm7.774 7.47h97.891v52.814h27.533V385.87h-26.932v54.6h-98.465c0-10.837-.318-40.64-.318-54.587h-27.232l-.047-323.947h27.57z" style="fill:#23345b;fill-opacity:1;stroke:#0d1626;stroke-width:3;stroke-linecap:round;stroke-linejoin:miter;stroke-dasharray:none;stroke-opacity:1;paint-order:normal;stop-color:#000"/><g transform="translate(455.607 -3026.798)"><circle cx="-2078.98" cy="3380.0859" r="21.594" style="fill:#b3b3b3;fill-opacity:1;stroke:#474747;stroke-width:4;stroke-dasharray:none;stroke-opacity:1;paint-order:fill markers stroke;stop-color:#000"/><path d="m-2094.775 3391.862 31.59-23.552" style="fill:#474747;fill-opacity:1;stroke:#474747;stroke-width:4;stroke-linecap:square;stroke-linejoin:round;stroke-dasharray:none;stroke-opacity:1"/></g><ellipse cx="-1521.5109" cy="367.86475" rx="10.583664" ry="10.577353" style="fill:#b3b3b3;fill-opacity:1;stroke:#474747;stroke-width:4;stroke-linecap:round;stroke-dasharray:none;stroke-opacity:1;stop-color:#000"/><ellipse cx="-1638.4589" cy="79.399223" rx="10.583664" ry="10.577353" style="fill:#b3b3b3;fill-opacity:1;stroke:#474747;stroke-width:4;stroke-linecap:round;stroke-dasharray:none;stroke-opacity:1;stop-color:#000"/><ellipse cx="-1521.5109" cy="79.773247" rx="10.583664" ry="10.577353" style="fill:#b3b3b3;fill-opacity:1;stroke:#474747;stroke-width:4;stroke-linecap:round;stroke-dasharray:none;stroke-opacity:1;stop-color:#000"/><g transform="rotate(-90 -3541.449 1500.054)"><ellipse cx="-2167.0291" cy="3503.7698" rx="21.32041" ry="26.053535" style="fill:none;fill-opacity:1;stroke:#262626;stroke-width:3.0894;stroke-dasharray:none;stroke-opacity:1;paint-order:fill markers stroke;stop-color:#000"/><rect width="41.056313" height="6.5546136" x="2146.501" y="-3507.9934" ry="0" style="fill:none;fill-opacity:1;stroke:#262626;stroke-width:3.4165;stroke-dasharray:none;stroke-opacity:1;paint-order:fill markers stroke;stop-color:#000" transform="scale(-1)"/><rect width="60.800667" height="7.823122" x="3510.1292" y="2163.1174" rx="3.6327446" ry="2.9727864" style="fill:#999;fill-opacity:1;stroke:#4d4d4d;stroke-width:2.77344;stroke-dasharray:none;stroke-opacity:1;paint-order:fill markers stroke;stop-color:#000" transform="rotate(90)"/><ellipse cx="3504.2019" cy="2167.0291" rx="18.437057" ry="15.087611" style="fill:#b3b3b3;fill-opacity:1;stroke:#474747;stroke-width:4.40903;stroke-dasharray:none;stroke-opacity:1;paint-order:fill markers stroke;stop-color:#000" transform="rotate(90)"/><rect width="15.599627" height="4.5966897" x="-2174.8477" y="3567.3123" rx="1.8808062" ry="2.2983449" style="fill:#5c5c5c;fill-opacity:.948097;stroke:#454545;stroke-width:2.77344;stroke-dasharray:none;stroke-opacity:1;paint-order:fill markers stroke;stop-color:#000"/></g><g transform="rotate(-90 -4297.595 1661.285)scale(1.25989)"><rect width="23.336376" height="39.728882" x="-2308.1045" y="3486.5967" rx="2.1434696" ry="2.1434696" style="fill:gray;fill-opacity:1;stroke:#4d4d4d;stroke-width:2.59351;stroke-dasharray:none;stroke-opacity:1;paint-order:fill markers stroke;stop-color:#000"/><ellipse cx="-2296.436" cy="3508.0962" rx="71.913177" ry="12.708494" style="fill:#999;fill-opacity:1;stroke:#4d4d4d;stroke-width:2.77344;stroke-dasharray:none;stroke-opacity:1;paint-order:fill markers stroke;stop-color:#000"/><ellipse cx="-2296.436" cy="3507.7727" rx="7.4125891" ry="9.0581827" style="fill:#383838;fill-opacity:1;stroke:#262626;stroke-width:2.77344;stroke-dasharray:none;stroke-opacity:1;paint-order:fill markers stroke;stop-color:#000"/><rect width="29.82674" height="5.9455729" x="-3522.6221" y="-2363.2539" rx="2.8833795" ry="2.3595581" style="fill:none;fill-opacity:1;stroke:#262626;stroke-width:2.77344;stroke-dasharray:none;stroke-opacity:1;paint-order:fill markers stroke;stop-color:#000" transform="rotate(-90)"/><rect width="29.82674" height="5.9455729" x="-3522.6387" y="-2235.7454" rx="2.8833795" ry="2.3595581" style="fill:none;fill-opacity:1;stroke:#262626;stroke-width:2.77344;stroke-dasharray:none;stroke-opacity:1;paint-order:fill markers stroke;stop-color:#000" transform="rotate(-90)"/><rect width="87.24556" height="8.6713762" x="-3053.3191" y="2627.5952" rx="2.1998136" ry="2.6154029" style="fill:#b3b3b3;fill-opacity:1;stroke:#474747;stroke-width:3.49777;stroke-dasharray:none;stroke-opacity:1;paint-order:fill markers stroke;stop-color:#000" transform="matrix(.95035 -.31118 .21418 .9768 0 0)"/></g><path fill="#333" d="M-1544.704 401.861h-69.464v30.567h69.464zm-2.658 26.62h-28.02v-22.83h28.02zm-34.885 0h-27.912v-22.83h27.912z"/><g style="stroke-width:1.10003"><path d="M199.288-322.403h30.556v4.122h-30.556zm0 13.251h30.556v4.122h-30.556zm0-6.625h30.556v4.121h-30.556z" style="fill:#999;stroke-width:.545207" transform="matrix(-.85037 0 0 -.9718 -1379.68 112.423)"/><path fill="#666" d="M-1548.697 430.274c1.028 0 1.855-.935 1.855-2.097v-22.065c0-1.161-.827-2.096-1.855-2.096h-27.23c-1.027 0-1.854.935-1.854 2.096v22.065c0 1.162.827 2.097 1.855 2.097zm-.825-2.694h-25.582v-20.602h25.582z"/></g><g style="stroke-width:1.10003"><path d="M199.288-322.403h30.556v4.122h-30.556zm0 13.251h30.556v4.122h-30.556zm0-6.625h30.556v4.121h-30.556z" style="fill:#999;stroke-width:.545207" transform="matrix(-.85037 0 0 -.9718 -1413.928 112.423)"/><path fill="#666" d="M-1582.945 430.274c1.028 0 1.855-.935 1.855-2.097v-22.065c0-1.161-.827-2.096-1.855-2.096h-27.23c-1.027 0-1.854.935-1.854 2.096v22.065c0 1.162.827 2.097 1.855 2.097zm-.825-2.694h-25.582v-20.602h25.582z"/></g><path fill="#333" d="M-1544.836 15.173h-69.464V45.74h69.464zm-2.658 26.62h-28.02V18.962h28.02zm-34.886 0h-27.911V18.962h27.911z"/><g style="stroke-width:1.10003"><path d="M199.288-322.403h30.556v4.122h-30.556zm0 13.251h30.556v4.122h-30.556zm0-6.625h30.556v4.121h-30.556z" style="fill:#999;stroke-width:.545207" transform="matrix(-.85037 0 0 -.9718 -1379.812 -274.265)"/><path fill="#666" d="M-1548.83 43.586c1.028 0 1.855-.936 1.855-2.097V19.424c0-1.162-.827-2.097-1.855-2.097h-27.229c-1.027 0-1.855.935-1.855 2.097v22.065c0 1.161.828 2.097 1.855 2.097zm-.824-2.694h-25.583V20.29h25.583z"/></g><g style="stroke-width:1.10003"><path d="M199.288-322.403h30.556v4.122h-30.556zm0 13.251h30.556v4.122h-30.556zm0-6.625h30.556v4.121h-30.556z" style="fill:#999;stroke-width:.545207" transform="matrix(-.85037 0 0 -.9718 -1414.06 -274.265)"/><path fill="#666" d="M-1583.077 43.586c1.027 0 1.855-.936 1.855-2.097V19.424c0-1.162-.828-2.097-1.855-2.097h-27.23c-1.027 0-1.855.935-1.855 2.097v22.065c0 1.161.828 2.097 1.855 2.097zm-.825-2.694h-25.582V20.29h25.582z"/></g><g transform="translate(350.832 -3033.55)"><ellipse cx="-3156.7415" cy="-1976.7865" rx="21.491386" ry="19.908224" style="fill:none;fill-opacity:1;stroke:#262626;stroke-width:2.71138;stroke-dasharray:none;stroke-opacity:1;paint-order:fill markers stroke;stop-color:#000" transform="rotate(-90)"/><rect width="38.037327" height="6.5157251" x="3137.6343" y="1977.4213" ry="0" style="fill:none;fill-opacity:1;stroke:#262626;stroke-width:3.27872;stroke-dasharray:none;stroke-opacity:1;paint-order:fill markers stroke;stop-color:#000" transform="rotate(90)"/><ellipse cx="-3157.0894" cy="-1982.7777" rx="7.4125891" ry="9.0581827" style="fill:#383838;fill-opacity:1;stroke:#262626;stroke-width:2.77344;stroke-dasharray:none;stroke-opacity:1;paint-order:fill markers stroke;stop-color:#000" transform="rotate(-90)"/><rect width="38.593414" height="14.466447" x="-3176.0933" y="-1969.8363" rx="4.4985685" ry="5.4972496" style="fill:gray;fill-opacity:1;stroke:#4d4d4d;stroke-width:3.00478;stroke-dasharray:none;stroke-opacity:1;paint-order:fill markers stroke;stop-color:#000" transform="rotate(-90)"/><rect width="102.85175" height="7.4536724" x="-3782.0139" y="1400.6394" rx="3.0513964" ry="3.046654" style="fill:#b3b3b3;fill-opacity:1;stroke:#474747;stroke-width:3.521;stroke-dasharray:none;stroke-opacity:1;paint-order:fill markers stroke;stop-color:#000" transform="matrix(.8073 -.59014 .73251 .68075 0 0)"/></g><g transform="rotate(34.833 3062.597 2564.555)"><circle cx="-2079.1221" cy="3379.6326" r="21.594" style="fill:#b3b3b3;fill-opacity:1;stroke:#474747;stroke-width:4;stroke-dasharray:none;stroke-opacity:1;paint-order:fill markers stroke;stop-color:#000"/><path d="m-2094.917 3391.409 31.59-23.553" style="fill:#474747;fill-opacity:1;stroke:#474747;stroke-width:4;stroke-linecap:square;stroke-linejoin:round;stroke-dasharray:none;stroke-opacity:1"/></g><g transform="translate(-759.229 -26.458)"><circle cx="-130.35074" cy="876.97827" r="6.1198201" style="fill:gray;fill-opacity:1;stroke:#4d4d4d;stroke-width:3.508;stroke-linecap:square;stroke-linejoin:miter;stroke-dasharray:none;stroke-opacity:1;paint-order:fill markers stroke;stop-color:#000" transform="rotate(66.128)"/><ellipse cx="-725.71112" cy="528.52325" rx="12.47422" ry="37.422657" style="fill:#b3b3b3;fill-opacity:1;stroke:#474747;stroke-width:4;stroke-linejoin:round;stroke-dasharray:none;stroke-opacity:1;stop-color:#000" transform="rotate(21.128)"/><rect width="5.4001188" height="26.735718" x="-531.21539" y="723.46912" rx="3.1317384" ry="3.1317384" style="fill:#999;fill-opacity:1;fill-rule:evenodd;stroke:#4d4d4d;stroke-width:2.99999;stroke-linecap:round;stroke-linejoin:round;stroke-miterlimit:20;stroke-dasharray:none;stroke-opacity:1" transform="scale(1 -1)rotate(68.872)"/></g></g></svg>