<svg xmlns="http://www.w3.org/2000/svg" width="155.009855mm" height="250.779055mm" viewBox="0 0 310.01971 501.55811"><g transform="translate(2636.375 -1753.82)"><path d="M-2624.148 2233.944c157.47 0 283.404-106.343 283.602-230.296-.034-124.096-134.953-230.664-283.602-230.664v183.684h7.224v93.593h-7.224z" style="fill:#999;fill-opacity:1;stroke:#09240a;stroke-width:3.2393;stroke-linecap:round;stroke-linejoin:round;stroke-dasharray:none;stroke-opacity:1"/><path d="M-2589.264 1768.478v474.738h5.086v-474.738zm103.952 41.643v399.1h5.085v-399.1zm104.287 95.185v189.184h5.086v-189.184z" style="fill:#fff;fill-opacity:.1;stroke:none;stroke-width:2.61144;stroke-linecap:square;stroke-linejoin:miter;stroke-dasharray:none;stroke-opacity:1;paint-order:fill markers stroke;stop-color:#000"/><ellipse cx="-2589.7603" cy="2154.4128" rx="10.583664" ry="10.577353" style="fill:#b3b3b3;fill-opacity:1;stroke:#4d4d4d;stroke-width:3.5;stroke-linecap:round;stroke-dasharray:none;stroke-opacity:1;stop-color:#000"/><ellipse cx="-2549.8081" cy="1852.1422" rx="10.583664" ry="10.577353" style="fill:#b3b3b3;fill-opacity:1;stroke:#4d4d4d;stroke-width:3.5;stroke-linecap:round;stroke-dasharray:none;stroke-opacity:1;stop-color:#000"/><ellipse cx="-2549.8081" cy="2154.4128" rx="10.583664" ry="10.577353" style="fill:#b3b3b3;fill-opacity:1;stroke:#4d4d4d;stroke-width:3.5;stroke-linecap:round;stroke-dasharray:none;stroke-opacity:1;stop-color:#000"/><ellipse cx="-2383.2964" cy="2002.5953" rx="10.693154" ry="10.672626" style="fill:#b3b3b3;fill-opacity:1;stroke:#4d4d4d;stroke-width:3.5;stroke-linecap:round;stroke-dasharray:none;stroke-opacity:1;stop-color:#000"/><g transform="rotate(-90 -1317.891 1979.945)"><path d="M-1407.016 794.66h24.341v39.385h-24.341zm106.266 0h24.342v39.385h-24.342z" style="fill:#999;fill-opacity:1;stroke:#4d4d4d;stroke-width:3.5;stroke-linecap:round;stroke-linejoin:round;stroke-dasharray:none;stroke-opacity:1;stop-color:#000"/><path d="M-1422.358 706.354h161.665v69.694h-161.665z" style="fill:gray;fill-opacity:1;stroke:#595959;stroke-width:3.5;stroke-linecap:round;stroke-linejoin:round;stroke-dasharray:none;stroke-opacity:1;stop-color:#000"/><path d="M748.608-1431.95h10.123v180.6h-10.123z" style="fill:#999;fill-opacity:1;stroke:#4d4d4d;stroke-width:3.5;stroke-linecap:round;stroke-linejoin:round;stroke-dasharray:none;stroke-opacity:1;stop-color:#000" transform="matrix(0 1 1 0 0 0)"/><path d="M-1354.1 714.037h24.342v54.394h-24.342z" style="fill:#b3b3b3;fill-opacity:1;stroke:#474747;stroke-width:3.5;stroke-linecap:round;stroke-linejoin:round;stroke-dasharray:none;stroke-opacity:1;stop-color:#000"/><path d="M-1449.86 743.085h30.87v20.954h-30.87z" style="fill:#b3b3b3;fill-opacity:1;stroke:#474747;stroke-width:3.49999;stroke-linecap:round;stroke-linejoin:round;stroke-dasharray:none;stroke-opacity:1;stop-color:#000"/><path d="M1232.948 743.085h30.87v20.954h-30.87z" style="fill:#b3b3b3;fill-opacity:1;stroke:#474747;stroke-width:3.49999;stroke-linecap:round;stroke-linejoin:round;stroke-dasharray:none;stroke-opacity:1;stop-color:#000" transform="scale(-1 1)"/><path d="M-1400.64 735.633h13.097v35.546h-13.096z" style="fill:#383838;fill-opacity:1;stroke:#262626;stroke-width:3.49999;stroke-linecap:round;stroke-linejoin:round;stroke-dasharray:none;stroke-opacity:1;stop-color:#000"/><path d="M-1396.35 735.932h4.49v124.975h-4.49z" style="fill:#262626;fill-opacity:1;stroke:none;stroke-width:3.49999;stroke-linecap:round;stroke-linejoin:round;stroke-dasharray:none;stroke-opacity:1;stop-color:#000"/><path d="M1282.553 735.633h13.096v35.546h-13.096z" style="fill:#383838;fill-opacity:1;stroke:#262626;stroke-width:3.49999;stroke-linecap:round;stroke-linejoin:round;stroke-dasharray:none;stroke-opacity:1;stop-color:#000" transform="scale(-1 1)"/><path d="M1286.843 735.932h4.49v124.975h-4.49z" style="fill:#262626;fill-opacity:1;stroke:none;stroke-width:3.49999;stroke-linecap:round;stroke-linejoin:round;stroke-dasharray:none;stroke-opacity:1;stop-color:#000" transform="scale(-1 1)"/><path d="M-1413.875 714.037h10.123v54.394h-10.123zm134.611 0h10.123v54.394h-10.123z" style="fill:#b3b3b3;fill-opacity:1;stroke:#4d4d4d;stroke-width:3.5;stroke-linecap:round;stroke-linejoin:round;stroke-dasharray:none;stroke-opacity:1;stop-color:#000"/><ellipse cx="-1394.7615" cy="857.59406" rx="10.693154" ry="10.672626" style="fill:#b3b3b3;fill-opacity:1;stroke:#474747;stroke-width:3.5;stroke-linecap:round;stroke-dasharray:none;stroke-opacity:1;stop-color:#000"/><ellipse cx="-1288.4951" cy="857.59406" rx="10.693154" ry="10.672626" style="fill:#b3b3b3;fill-opacity:1;stroke:#474747;stroke-width:3.5;stroke-linecap:round;stroke-dasharray:none;stroke-opacity:1;stop-color:#000"/></g><ellipse cx="-2589.7603" cy="1852.1422" rx="10.583664" ry="10.577353" style="fill:#b3b3b3;fill-opacity:1;stroke:#4d4d4d;stroke-width:3.5;stroke-linecap:round;stroke-dasharray:none;stroke-opacity:1;stop-color:#000"/><path d="m-2634.531 1755.57-.093 11.679h0v197.358h7.223v77.61h-7.224v202.351h.024l.07 9.06c170.144 0 306.213-114.9 306.427-248.83-.038-134.082-136.834-249.228-306.427-249.228m20.758 19.861c138.767 10.758 259.35 110.903 259.382 228.218-.187 117.526-113.417 219.204-259.382 229.433z" style="fill:#545e3b;fill-opacity:1;stroke:#24271b;stroke-width:3.239;stroke-linecap:round;stroke-linejoin:round;stroke-dasharray:none;stroke-opacity:1"/><path d="m-2634.531 1755.57-.093 11.679h0v197.358h7.223v77.61h-7.224v202.351c.032 0-.03 0 0 0l.094 9.06c170.143 0 306.212-114.9 306.426-248.83-.037-134.082-136.833-249.228-306.426-249.228m20.758 19.861c138.767 10.758 259.35 110.903 259.382 228.218-.187 117.526-113.417 219.204-259.382 229.433z" style="fill:#23345b;fill-opacity:1;stroke:#0d1626;stroke-width:3.5;stroke-linecap:round;stroke-linejoin:round;stroke-dasharray:none;stroke-opacity:1"/></g></svg>