<svg xmlns="http://www.w3.org/2000/svg" width="281.18002" height="279.65399" viewBox="0 0 74.395546 73.991786"><path d="M0 74.43V-73.555h74.395V74.429h-11.32l-3.68-6.35H15l-3.681 6.35z" style="fill:#a1a1a1;fill-opacity:1;stroke-width:2.15008;paint-order:markers stroke fill;stop-color:#000" transform="matrix(1 0 0 -1 0 74.43)"/><path d="M3.351 70.759V-69.884h67.693V70.76h-4.088l-4.233-6.35h-51.05l-4.234 6.35z" style="fill:#e0e0e0;fill-opacity:1;stroke-width:1.97626;paint-order:markers stroke fill;stop-color:#000" transform="matrix(1 0 0 -1 0 74.43)"/><path d="M3.351 59.492h67.693V48.755H3.351Zm0-21.474h67.693V27.281H3.351Zm0-21.474h67.693V5.807H3.351Zm0-21.474h67.693v-10.737H3.351Zm0-21.474h67.693v-10.738H3.351Zm0-21.475h67.693v-10.737H3.351Z" style="fill:#fff;stroke-width:2.96972;paint-order:markers stroke fill;stop-color:#000" transform="matrix(1 0 0 -1 0 74.43)"/></svg>