<svg xmlns="http://www.w3.org/2000/svg" width="118.06592" height="629.1488" viewBox="0 0 31.238273 166.46229"><g transform="translate(-141.183 -63.885)"><rect width="10.796866" height="24.678556" x="145.4198" y="205.65909" ry="2.8434758" style="fill:#272727;fill-opacity:1;stroke:none;stroke-width:2.35551;stroke-linecap:square;stroke-linejoin:miter;paint-order:fill markers stroke;stop-color:#000"/><rect width="2.978446" height="24.265575" x="149.32901" y="205.85297" ry="1.489223" style="fill:#4d4d4d;stroke:none;stroke-width:1.87294;stroke-linecap:square;stroke-linejoin:miter;paint-order:fill markers stroke;stop-color:#000"/><rect width="10.796866" height="24.678556" x="157.33647" y="205.66843" ry="2.8434758" style="fill:#272727;fill-opacity:1;stroke:none;stroke-width:2.35551;stroke-linecap:square;stroke-linejoin:miter;paint-order:fill markers stroke;stop-color:#000"/><rect width="2.978446" height="24.265575" x="161.24567" y="205.8623" ry="1.489223" style="fill:#4d4d4d;stroke:none;stroke-width:1.87294;stroke-linecap:square;stroke-linejoin:miter;paint-order:fill markers stroke;stop-color:#000"/><rect width="10.796866" height="24.678556" x="145.4198" y="-88.572601" ry="2.8434758" style="fill:#272727;fill-opacity:1;stroke:none;stroke-width:2.35551;stroke-linecap:square;stroke-linejoin:miter;paint-order:fill markers stroke;stop-color:#000" transform="scale(1 -1)"/><rect width="2.978446" height="24.265575" x="149.32901" y="-88.378723" ry="1.489223" style="fill:#4d4d4d;stroke:none;stroke-width:1.87294;stroke-linecap:square;stroke-linejoin:miter;paint-order:fill markers stroke;stop-color:#000" transform="scale(1 -1)"/><rect width="10.796866" height="24.678556" x="157.33647" y="-88.563255" ry="2.8434758" style="fill:#272727;fill-opacity:1;stroke:none;stroke-width:2.35551;stroke-linecap:square;stroke-linejoin:miter;paint-order:fill markers stroke;stop-color:#000" transform="scale(1 -1)"/><rect width="2.978446" height="24.265575" x="161.24567" y="-88.369377" ry="1.489223" style="fill:#4d4d4d;stroke:none;stroke-width:1.87294;stroke-linecap:square;stroke-linejoin:miter;paint-order:fill markers stroke;stop-color:#000" transform="scale(1 -1)"/><g transform="translate(0 .703)"><path d="M146.846-79.698c-1.118 0-2.018-.9-2.018-2.019v-25.94a5.57 5.57 0 0 1-2.391-4.586v-68.34c0-1.904.944-3.578 2.39-4.586v-25.94c0-1.119.901-2.019 2.02-2.019h19.86c1.118 0 2.019.9 2.019 2.019v25.94a5.57 5.57 0 0 1 2.39 4.586v68.34a5.57 5.57 0 0 1-2.39 4.586v25.94c0 1.119-.9 2.02-2.019 2.02z" style="fill:#cab51d;fill-opacity:1;stroke:#443d0a;stroke-width:2.507;stroke-linecap:square;stroke-linejoin:miter;stroke-dasharray:none;stroke-opacity:1;paint-order:fill markers stroke;stop-color:#000" transform="scale(1 -1)"/><rect width="28.644337" height="77.615402" x="142.5237" y="107.6053" ry="5.3414993" style="fill:none;fill-opacity:1;stroke:#453d0a;stroke-width:2.507;stroke-linecap:square;stroke-linejoin:round;stroke-dasharray:none;stroke-opacity:1"/></g></g></svg>