<svg xmlns="http://www.w3.org/2000/svg" xmlns:xlink="http://www.w3.org/1999/xlink" width="120.8138mm" height="139.53221mm" viewBox="0 0 120.81379 139.53221"><defs><pattern xlink:href="#a" id="k" patternTransform="matrix(.2736 0 0 .26209 252.13 698.523)"/><pattern xlink:href="#b" id="a" patternTransform="matrix(.26374 0 0 .26223 -538.922 1378.213)"/><pattern xlink:href="#c" id="b" x="0" y="0" patternTransform="matrix(.26374 0 0 .26223 243.386 802.713)" preserveAspectRatio="xMidYMid"/><pattern id="c" width="338.127" height="182.91212" patternTransform="translate(245 644)" patternUnits="userSpaceOnUse" preserveAspectRatio="xMidYMid"><path d="M0 0v182.912h338.127V0Z" style="fill:#543d2b;fill-opacity:1;stroke-width:5.1292;paint-order:markers stroke fill"/><rect width="39.616203" height="163.38123" x="-136.36732" y="-291.73346" rx="3.6018958" ry="3.602" style="fill:#644c33;fill-opacity:1;stroke-width:1.54049;paint-order:markers stroke fill" transform="scale(1 -1)rotate(90)"/><rect width="39.616203" height="163.38123" x="-90.501572" y="-216.4617" rx="3.602" ry="3.602" style="fill:#694c30;fill-opacity:1;stroke-width:1.54049;paint-order:markers stroke fill" transform="scale(1 -1)rotate(90)"/><rect width="39.616203" height="163.38123" x="-45.341015" y="-246.04015" rx="3.6018958" ry="3.602" style="fill:#644c33;fill-opacity:1;stroke-width:1.54049;paint-order:markers stroke fill" transform="scale(1 -1)rotate(90)"/><rect width="39.616203" height="163.38123" x="-182.91211" y="-338.12701" rx="3.6018958" ry="3.602" style="fill:#694c30;fill-opacity:1;stroke-width:1.54049;paint-order:markers stroke fill" transform="scale(1 -1)rotate(90)"/><rect width="39.616203" height="163.38123" x="-182.91211" y="-169.08337" rx="3.602" ry="3.602" style="fill:#644c33;fill-opacity:1;stroke-width:1.54049;paint-order:markers stroke fill" transform="scale(1 -1)rotate(90)"/><path d="M0 5.725v39.617h73.05a3.595 3.595 0 0 0 3.602-3.604V9.326a3.593 3.593 0 0 0-3.601-3.601zm255.648.001a3.593 3.593 0 0 0-3.601 3.602V41.74a3.593 3.593 0 0 0 3.601 3.602h82.479V5.726Z" style="fill:#694c30;fill-opacity:1;stroke-width:1.54049;paint-order:markers stroke fill"/><path d="M0 50.828v39.615h43.395a3.593 3.593 0 0 0 3.601-3.601V54.43a3.593 3.593 0 0 0-3.601-3.602zm226.148-.058a3.593 3.593 0 0 0-3.601 3.602v32.412a3.595 3.595 0 0 0 3.601 3.603h111.979V50.77Z" style="fill:#644c33;fill-opacity:1;stroke-width:1.54049;paint-order:markers stroke fill"/><path d="M0 96.727v39.617h118.332a3.595 3.595 0 0 0 3.602-3.604v-32.412a3.593 3.593 0 0 0-3.602-3.602zm301.754.011a3.593 3.593 0 0 0-3.602 3.602v32.412a3.595 3.595 0 0 0 3.602 3.603h36.373V96.738Z" style="fill:#694c30;fill-opacity:1;stroke-width:1.54049;paint-order:markers stroke fill"/></pattern><pattern xlink:href="#d" id="l" patternTransform="matrix(.25547 0 0 .24118 -112.057 178.86)"/><pattern xlink:href="#e" id="d" patternTransform="matrix(.25547 0 0 .24118 -791.413 -611.481)"/><pattern xlink:href="#f" id="e" patternTransform="matrix(.2514 0 0 .23734 133.808 127.221)" preserveAspectRatio="xMidYMid"/><pattern id="f" width="34.015748" height="34.015748" patternTransform="translate(166.647 745.454)" patternUnits="userSpaceOnUse" preserveAspectRatio="xMidYMid"><path d="M0 0h34.016v34.016H0z" style="fill:#404040;fill-opacity:1;stroke:none;stroke-width:6.12102;stroke-linejoin:round;stop-color:#000" transform="matrix(0 1 1 0 0 0)"/><circle cx="17.007874" cy="17.007874" r="2.9558637" style="fill:#bfbfbf;fill-opacity:1;fill-rule:evenodd;stroke:none;stroke-width:6.04887;stroke-linejoin:round;stop-color:#000" transform="matrix(0 1 1 0 0 0)"/></pattern><pattern xlink:href="#g" id="m" patternTransform="matrix(.2427 0 0 .2297 -66.429 -75.906)"/><pattern xlink:href="#h" id="g" patternTransform="matrix(.23388 0 0 .20795 -864.412 735.895)"/><pattern xlink:href="#i" id="h" patternTransform="matrix(.23388 0 0 .20795 -82.105 160.394)" preserveAspectRatio="xMidYMid"/><pattern xlink:href="#j" id="i" patternTransform="translate(-48.854 162.137)scale(.26458)" preserveAspectRatio="xMidYMid"/><pattern id="j" width="64.000003" height="64.000003" patternTransform="translate(102.08 557.182)" patternUnits="userSpaceOnUse" preserveAspectRatio="xMidYMid"><rect width="64" height="64" x="1.7763568e-15" rx="0" ry="0" style="fill:#9c9c9c;fill-opacity:1;fill-rule:evenodd;stroke:none;stroke-width:10.302;stroke-linecap:round;stroke-linejoin:miter;stroke-opacity:1;stop-color:#000"/><rect width="52.000004" height="52.000004" x="6.0000005" y="5.9999771" rx="2.5" ry="2.5" style="fill:#bfbfbf;fill-opacity:1;fill-rule:evenodd;stroke:none;stroke-width:11.1918;stroke-linejoin:miter;stroke-opacity:1;stop-color:#000"/></pattern></defs><g transform="matrix(0 -1 -1 0 -121.1 -213.616)"><rect width="12.956505" height="34.112766" x="-233.96275" y="-75.917305" rx="2.6236489" ry="2.6236489" style="fill:#333;fill-opacity:1;stroke:#181818;stroke-width:2.0632;stroke-linecap:square;stroke-linejoin:round;stroke-dasharray:none;stroke-opacity:1;paint-order:normal;stop-color:#000"/><rect width="12.956505" height="34.112766" x="-233.95459" y="-115.66749" rx="2.6236489" ry="2.6236489" style="fill:#333;fill-opacity:1;stroke:#181818;stroke-width:2.0632;stroke-linecap:square;stroke-linejoin:round;stroke-dasharray:none;stroke-opacity:1;paint-order:normal;stop-color:#000"/></g><g transform="matrix(0 -1 -1 0 -121.1 -112.065)"><rect width="12.956505" height="34.112766" x="-233.96275" y="-75.917305" rx="2.6236489" ry="2.6236489" style="fill:#333;fill-opacity:1;stroke:#181818;stroke-width:2.0632;stroke-linecap:square;stroke-linejoin:round;stroke-dasharray:none;stroke-opacity:1;paint-order:normal;stop-color:#000"/><rect width="12.956505" height="34.112766" x="-233.95459" y="-115.66749" rx="2.6236489" ry="2.6236489" style="fill:#333;fill-opacity:1;stroke:#181818;stroke-width:2.0632;stroke-linecap:square;stroke-linejoin:round;stroke-dasharray:none;stroke-opacity:1;paint-order:normal;stop-color:#000"/></g><path d="M-.232 21.307h231.925v103.896H-.232Z" style="fill:url(#k);stroke:#404040;stroke-width:3.09473;stroke-linecap:round;stroke-linejoin:round;stroke-dasharray:none" transform="translate(-112.637 -8.615)"/><path d="M-249.974 125.521h9.806v51.66h-9.806z" style="fill:#4d4d4d;fill-opacity:1;fill-rule:evenodd;stroke:#333;stroke-width:1.86337;stroke-linecap:round;stroke-linejoin:miter;stroke-dasharray:none;stroke-opacity:1;stop-color:#000" transform="rotate(-90 -117.206 5.963)"/><path d="M-240.095 125.521h9.806v51.66h-9.806z" style="fill:#545454;fill-opacity:1;fill-rule:evenodd;stroke:#333;stroke-width:1.86337;stroke-linecap:round;stroke-linejoin:miter;stroke-dasharray:none;stroke-opacity:1;stop-color:#000" transform="rotate(-90 -117.206 5.963)"/><g style="stroke-width:.793139" transform="translate(-207.868 -16.314)scale(1.26081)"><rect width="9.9885378" height="57.981937" x="12.939449" y="-167.8293" rx="1.9935869" ry="1.993587" style="fill:#404040;fill-opacity:1;stroke-width:.763571;stroke-linecap:square;stop-color:#000" transform="rotate(90)"/><rect width="53.046921" height="3.7421968" x="112.31994" y="15.089779" rx="0.8263495" ry="0.8263495" style="display:inline;fill:#b2b2b2;fill-opacity:1;stroke-width:.177027"/></g><path d="M-121.08 182.757h93.908v44.5h-93.908z" style="fill:url(#l);stroke:none;stroke-width:.248223" transform="rotate(-90 -60.626 52.011)"/><path d="M25.326-47.87h96.058v46.84H25.326z" style="fill:url(#m);stroke:none;stroke-width:.248476" transform="rotate(90 -52.011 -60.626)"/><g transform="translate(-262.684 -444.08)"><g style="opacity:.7" transform="translate(277.812 258.233)"><rect width="115.08278" height="8.1879091" x="-129.76022" y="296.45047" rx="1.0757598" ry="1.0757598" style="opacity:1;fill:#bfbfbf;fill-opacity:1;stroke:none;stroke-width:3.65748;stroke-linecap:round;stroke-linejoin:round;stroke-dasharray:none"/><path d="M-10.53 196.489H99.742v8.182H-10.53z" style="opacity:1;fill:#bfbfbf;fill-opacity:1;stroke:none;stroke-width:3.57899;stroke-linecap:round;stroke-linejoin:round;stroke-dasharray:none"/><rect width="44.627594" height="8.1671591" x="-129.76305" y="196.50414" rx="0.99218744" ry="0.99218744" style="opacity:1;fill:#bfbfbf;fill-opacity:1;stroke:none;stroke-width:2.27473;stroke-linecap:round;stroke-linejoin:round;stroke-dasharray:none"/><path d="M-300.743-129.745h102.62v8.464h-102.62z" style="opacity:1;fill:#bfbfbf;fill-opacity:1;stroke:none;stroke-width:3.5117;stroke-linecap:round;stroke-linejoin:round;stroke-dasharray:none" transform="rotate(-90)"/><path d="M40.534 296.45h58.13v8.142h-58.13z" style="opacity:1;fill:#bfbfbf;fill-opacity:1;stroke:none;stroke-width:2.59197;stroke-linecap:round;stroke-linejoin:round;stroke-dasharray:none"/><rect width="108.14177" height="7.9540486" x="196.47154" y="-105.57834" rx="1.3096206" ry="1.3096206" style="opacity:1;fill:#bfbfbf;fill-opacity:1;stroke:none;stroke-width:3.49448;stroke-linecap:round;stroke-linejoin:round;stroke-dasharray:none" transform="rotate(90)"/></g><path d="M193.36 454.532h73.085v8.895H193.36z" style="fill:#404040;fill-opacity:1;stroke:none;stroke-width:3.0379;stroke-linecap:round;stroke-linejoin:round"/><rect width="69.0457" height="4.7182102" x="195.29941" y="456.66476" rx="0" ry="0" style="display:inline;fill:#8c8c8c;fill-opacity:1;stroke-width:.226779"/></g><path d="M177.503 29.073h4.697v88.388h-4.697z" style="fill:#694c30;fill-opacity:1;stroke:#543d2b;stroke-width:1.91243;stroke-linecap:round;stroke-dasharray:none;stroke-opacity:1;stop-color:#000" transform="translate(-112.637 -8.615)"/></svg>