<svg xmlns="http://www.w3.org/2000/svg" width="237.81261mm" height="109.55579mm" viewBox="0 0 237.81261 109.55579"><g style="stroke-width:.971443" transform="matrix(1.04485 0 0 1.01417 -119.378 -197.417)"><path fill="#7caee4" fill-opacity="0.3671" fill-rule="evenodd" d="M-28.492 537.05V407.288H229.24v129.764z" style="stroke-width:1.02238" transform="matrix(.26903 0 0 .30572 168.638 85.43)"/><path fill="#efefef" fill-opacity="0.6329" fill-rule="evenodd" d="m158.597 385.307 83.707 69.555v23.548l-112.046-93.103Zm16.775-24.102 83.707 69.556v23.547l-112.046-93.103Z" style="stroke-width:1.02238" transform="matrix(-.17999 0 0 .22634 207.988 128.215)"/><g style="stroke-width:.971443"><path fill="#efefef" fill-opacity="0.6329" fill-rule="evenodd" d="m158.597 385.307 83.707 69.555v23.548l-112.046-93.103Zm16.775-24.102 83.707 69.556v23.547l-112.046-93.103Z" style="stroke-width:1.02238" transform="matrix(.17999 0 0 -.22634 183.564 330.47)"/></g><path d="M115.74 196.146v105.05h224.63v-105.05Zm47.654 17.296h64.6v31.711h-64.6z" style="fill:#a8a8a8;stroke:#4d4d4d;stroke-width:2.97509;stroke-linecap:round;stroke-linejoin:round;stroke-dasharray:none;stroke-opacity:1"/><path d="M289.181 197.694h49.665v101.954h-49.665z" style="fill:#bfbfbf;fill-opacity:1;fill-rule:evenodd;stroke:none;stroke-width:6.18266;stroke-linecap:round;stroke-linejoin:miter;stroke-dasharray:none;stroke-opacity:1;stop-color:#000"/><path d="M271.962 197.71h17.493v101.955h-17.493z" style="fill:#b0b0b0;fill-opacity:1;fill-rule:evenodd;stroke:none;stroke-width:3.72557;stroke-linecap:round;stroke-linejoin:miter;stroke-dasharray:none;stroke-opacity:1;stop-color:#000"/><path d="M271.962 214.085h17.493v30.308h-17.493z" style="fill:#b5b5b5;fill-opacity:1;fill-rule:evenodd;stroke:none;stroke-width:2.03129;stroke-linecap:round;stroke-linejoin:miter;stroke-dasharray:none;stroke-opacity:1;stop-color:#000"/><g style="stroke:#404040;stroke-width:1.79919;stroke-dasharray:none;stroke-opacity:1" transform="translate(0 -.066)"><ellipse cx="302.48001" cy="208.75429" rx="6.3610144" ry="6.5534658" style="fill:#a6a6a6;fill-opacity:1;fill-rule:evenodd;stroke:#404040;stroke-width:1.79919;stroke-linecap:round;stroke-linejoin:miter;stroke-dasharray:none;stroke-opacity:1;stop-color:#000"/><ellipse cx="302.48001" cy="288.71988" rx="6.3610144" ry="6.5534658" style="fill:#a6a6a6;fill-opacity:1;fill-rule:evenodd;stroke:#404040;stroke-width:1.79919;stroke-linecap:round;stroke-linejoin:miter;stroke-dasharray:none;stroke-opacity:1;stop-color:#000"/></g><rect width="65.081055" height="39.681057" x="163.79759" y="253.65057" rx="3.0439808" ry="3.1360674" style="fill:#bfbfbf;fill-opacity:1;fill-rule:evenodd;stroke:#404040;stroke-width:2.97747;stroke-linecap:round;stroke-linejoin:miter;stroke-dasharray:none;stroke-opacity:1;stop-color:#000"/><g style="stroke-width:.971443"><path d="M1710.97 3778.601h47.838v49.65h-47.838z" style="fill:#404040;fill-opacity:1;stroke-width:.851025;stroke-linecap:square;stroke-linejoin:round;stop-color:#000" transform="rotate(90 1790.675 914.288)scale(.66275)"/><path d="M1713.875 3781.534h42.019v43.611h-42.02z" style="fill:#999;fill-opacity:1;stroke-width:.747509;stroke-linecap:square;stroke-linejoin:round;stop-color:#000" transform="rotate(90 1790.675 914.288)scale(.66275)"/><path d="M1713.875 3804.82h42.023v4.275h-42.023zm.004 7.57h42.024v4.274h-42.024zm.002-15.14h42.024v4.274h-42.024zm.006-14.947h42.024v4.274h-42.024zm.004 7.469h42.024v4.274h-42.024z" style="fill:#4d4d4d;fill-opacity:1;stroke-width:.234036;stroke-linecap:square;stroke-linejoin:round;stop-color:#000" transform="rotate(90 1789.37 912.979)scale(.66275)"/></g><rect width="2.0078125" height="19.666746" x="-214.87672" y="270.30463" rx="0" ry="0" style="fill:#595959;fill-opacity:1;fill-rule:evenodd;stroke:none;stroke-width:.740838;stroke-linecap:round;stroke-linejoin:round;stroke-dasharray:none;stroke-opacity:1;stop-color:#000" transform="rotate(-90)"/><rect width="1.9710124" height="19.666746" x="-245.64735" y="270.30463" rx="0" ry="0" style="fill:#595959;fill-opacity:1;fill-rule:evenodd;stroke:none;stroke-width:.734018;stroke-linecap:round;stroke-linejoin:round;stroke-dasharray:none;stroke-opacity:1;stop-color:#000" transform="rotate(-90)"/><path d="M332.268 288.365h3.9v8.633h-3.9zm0-88.106h3.9v8.633h-3.9zM119.95 288.365h3.9v8.633h-3.9zm0-88.106h3.9v8.633h-3.9z" style="fill:#e79e21;fill-opacity:1;stroke:#5c3e0a;stroke-width:1.79919;stroke-linecap:round;stroke-linejoin:round;stroke-dasharray:none;stroke-opacity:1;stop-color:#000"/><path d="M230.472 213.897h41.168v30.855h-41.168z" style="fill:#bfbfbf;fill-opacity:1;fill-rule:evenodd;stroke:#595959;stroke-width:2.0363;stroke-linecap:round;stroke-linejoin:miter;stroke-dasharray:none;stroke-opacity:1;stop-color:#000"/><rect width="2.0814569" height="13.184271" x="-236.99716" y="-235.61852" rx="0.99605411" ry="1.0261867" style="fill:#8c8c8c;fill-opacity:1;fill-rule:evenodd;stroke:#404040;stroke-width:3.97417;stroke-linecap:round;stroke-dasharray:none;stroke-opacity:1;paint-order:stroke fill markers;stop-color:#000" transform="scale(-1)"/><rect width="2.0814569" height="13.184271" x="-265.57217" y="-235.61852" rx="0.99605411" ry="1.0261867" style="fill:#8c8c8c;fill-opacity:1;fill-rule:evenodd;stroke:#404040;stroke-width:3.97417;stroke-linecap:round;stroke-dasharray:none;stroke-opacity:1;paint-order:stroke fill markers;stop-color:#000" transform="scale(-1)"/><rect width="1.5606499" height="25.363464" x="-221.27524" y="-286.10452" rx="0.99605411" ry="1.0261867" style="fill:#8c8c8c;fill-opacity:1;fill-rule:evenodd;stroke:#404040;stroke-width:3.89743;stroke-linecap:round;stroke-dasharray:none;stroke-opacity:1;paint-order:stroke fill markers;stop-color:#000" transform="scale(-1)"/><path d="M129.661 213.769h31.441v31.111h-31.44z" style="fill:#bfbfbf;fill-opacity:1;fill-rule:evenodd;stroke:#595959;stroke-width:1.78753;stroke-linecap:round;stroke-linejoin:miter;stroke-dasharray:none;stroke-opacity:1;stop-color:#000"/><rect width="3" height="106.16651" x="127.81135" y="195.38383" rx="0" ry="0" style="fill:#4d4d4d;fill-opacity:1;fill-rule:evenodd;stroke:none;stroke-width:2.10402;stroke-linecap:round;stroke-linejoin:round;stroke-dasharray:none;stroke-opacity:1;stop-color:#000"/><rect width="1.9131211" height="106.16651" x="288.05826" y="195.38383" rx="0" ry="0" style="fill:#4d4d4d;fill-opacity:1;fill-rule:evenodd;stroke:none;stroke-width:1.6802;stroke-linecap:round;stroke-linejoin:round;stroke-dasharray:none;stroke-opacity:1;stop-color:#000"/><rect width="1.9131211" height="106.16651" x="270.74521" y="195.38383" rx="0" ry="0" style="fill:#4d4d4d;fill-opacity:1;fill-rule:evenodd;stroke:none;stroke-width:1.6802;stroke-linecap:round;stroke-linejoin:round;stroke-dasharray:none;stroke-opacity:1;stop-color:#000"/><rect width="61.448952" height="28.640619" x="-226.28555" y="-243.61244" rx="0.50645161" ry="0.5217728" style="opacity:1;fill:none;fill-opacity:1;stroke:#333;stroke-width:2.00766;stroke-linejoin:round;stroke-dasharray:none;stroke-opacity:1;stop-color:#000" transform="scale(-1)"/></g></svg>