<svg xmlns="http://www.w3.org/2000/svg" xmlns:xlink="http://www.w3.org/1999/xlink" width="44.839325mm" height="172.64514mm" viewBox="0 0 44.839326 172.64514"><defs><pattern xlink:href="#a" id="f" patternTransform="translate(-9927.475 628.492)scale(.2628)"/><pattern id="a" width="725.10954" height="1336.2128" patternTransform="translate(-37456.064 2369.919)" patternUnits="userSpaceOnUse"><path d="M0 0v779.581h725.11V0Z" style="fill:url(#b);stroke:none;stroke-width:1.01989"/><path d="M-3915.527-742.233h28.337v29.51h-28.337zm-.008-31.151h28.337v29.51h-28.337zm.011 62.527h28.336v29.51h-28.336zm-.001 31.331h28.336v29.51h-28.336zm-.005 31.302h28.337v29.51h-28.337zm30.072-94.006h28.337v29.51h-28.337zm-.008-31.151h28.337v29.51h-28.337zm.012 62.527h28.337v29.51h-28.337zm-.002 31.331h28.337v29.51h-28.337zm-.004 31.302h28.337v29.51h-28.337zm30.042-94.011h28.337v29.51h-28.337zm-.007-31.151h28.337v29.51h-28.337zm.011 62.527h28.337v29.51h-28.337zm-.002 31.331h28.337v29.51h-28.337zm-.004 31.301h28.338v29.51h-28.337zm30.071-94.005h28.337v29.51h-28.337zm-.006-31.151h28.336v29.51h-28.337zm.01 62.527h28.337v29.51h-28.337zm-.001 31.331h28.337v29.51h-28.337zm-.004 31.302h28.336v29.509h-28.337z" style="fill:#595959;fill-opacity:1;stroke:#3e3e3e;stroke-width:1.99855;stroke-dasharray:none;stroke-opacity:1;paint-order:fill markers stroke;stop-color:#000" transform="rotate(-90 -6602.74 -10186.592)scale(4.62796)"/></pattern><pattern xlink:href="#c" id="b" patternTransform="translate(.001 -334.94)scale(1.01989)"/><pattern id="c" width="710.96689" height="1092.7848" patternTransform="translate(-37446.871 2057.37)" patternUnits="userSpaceOnUse"><path d="M-1088.215 145.89h128.584v133.906h-128.584zm-.035-141.356h128.584V138.44h-128.584zm.049 283.731h128.583V422.17H-1088.2zm-.005 142.171h128.584v133.906h-128.584zm-.019 142.035h128.584v133.906h-128.584zm136.455-426.566h128.585v133.906H-951.77zm-.034-141.355h128.584v133.905h-128.584zm.051 283.726h128.584v133.906h-128.584zm-.009 142.175h128.584v133.906h-128.584zm-.014 142.031h128.584v133.906h-128.584zm136.32-426.588h128.584V279.8h-128.584zm-.035-141.356h128.584v133.906h-128.584zm.051 283.727h128.584V422.17H-815.44zm-.01 142.171h128.585v133.906H-815.45zm-.016 142.035h128.584v133.906h-128.584zm136.458-426.566h128.584v133.906h-128.584zM-679.04 4.55h128.583v133.905H-679.04zm.046 283.73h128.584v133.905h-128.584zm-.004 142.171h128.583v133.906h-128.583zm-.019 142.035h128.584v133.906h-128.584zm136.679-426.556h128.584v133.907h-128.584zm-.035-141.355h128.584v133.906h-128.584zm.049 283.727h128.584v133.906h-128.584zm-.005 142.171h128.584V564.38h-128.584zm-.021 142.035h128.585v133.906H-542.35zm136.458-426.566h128.584v133.906h-128.584zm-.035-141.356h128.584v133.906h-128.584zm.052 283.73h128.584v133.906h-128.584zm-.01 142.172H-277.3v133.906h-128.584zm-.015 142.035h128.583v133.906H-405.9zm136.321-426.593h128.584v133.907h-128.584zm-.032-141.355h128.584v133.906h-128.584zm.051 283.73h128.584v133.906H-269.56zm-.01 142.172h128.585v133.906H-269.57zm-.015 142.035h128.583v133.906h-128.583zm136.45-426.566H-4.55v133.906h-128.584zm-.03-141.356H-4.58v133.906h-128.584zm.047 283.73H-4.534v133.906h-128.584zm-.005 142.172H-4.539v133.906h-128.584zm-.021 142.035H-4.56v133.906h-128.584z" style="fill:#595959;fill-opacity:1;stroke:#3e3e3e;stroke-width:9.06879;stroke-dasharray:none;stroke-opacity:1;paint-order:fill markers stroke;stop-color:#000" transform="rotate(-90)"/></pattern><pattern xlink:href="#d" id="h" patternTransform="matrix(.26007 0 0 .2477 -9459.66 776.6)"/><pattern xlink:href="#e" id="d" patternTransform="matrix(.3032 0 0 .28878 -9459.66 776.6)"/><pattern id="e" width="44.13185" height="44.130772" patternTransform="translate(-8952.829 11274.059)" patternUnits="userSpaceOnUse"><path d="M-2710.991-5339.069h11.676v11.676h-11.676z" style="fill:#8c8c8c;fill-opacity:1;stroke:none;stroke-width:2.878;stroke-linecap:square;stroke-linejoin:miter;stroke-dasharray:none;stroke-opacity:1;stop-color:#000" transform="rotate(-90 4988.52 -15190.65)scale(3.77953)"/><path fill="#d9d9d9" d="M-5339.07 2705.16c2.567-2.588 2.781-4.665 2.781-4.665s-1.137.119-2.78 1.222zm5.792 3.995a13 13 0 0 1 1.543 1.836h-3.469c-2.564-2.585-2.778-4.66-2.778-4.66s2.098.22 4.704 2.824m-1.932-9.84h3.47c1.164 1.693 1.285 2.876 1.285 2.876s-2.148-.27-4.754-2.876m7.816 2.4v3.436c-2.606 2.607-4.755 2.874-4.755 2.874s.22-2.101 2.826-4.707a13 13 0 0 1 1.929-1.603" style="fill:#a6a6a6;fill-opacity:1;stroke-width:.264583" transform="translate(20179.16 -10202.134)scale(3.77953)"/></pattern><clipPath id="g" clipPathUnits="userSpaceOnUse"><circle cx="-9421.1309" cy="-846.45837" r="17.305702" style="fill:#595959;fill-opacity:1;stroke:#595959;stroke-width:3;stroke-linecap:round;stroke-linejoin:round;stroke-opacity:1;stop-color:#000" transform="scale(1 -1)"/></clipPath><clipPath id="j" clipPathUnits="userSpaceOnUse"><circle cx="-9421.1309" cy="-846.45837" r="17.305702" style="fill:#595959;fill-opacity:1;stroke:#595959;stroke-width:3;stroke-linecap:round;stroke-linejoin:round;stroke-opacity:1;stop-color:#000" transform="scale(1 -1)"/></clipPath></defs><g style="stroke-width:.995151"><path d="M-3340.235 20.026c-130.367 0-236.05 128.098-236.05 286.116 0 191.53 161.484 283.508 236.05 283.508 76.763 0 236.05-84.53 236.05-283.508.001-158.018-105.683-286.116-236.05-286.116zm-158.064 286.667h319.8v82.703h-319.8z" style="fill:#551b1b;fill-opacity:1;stroke:#2e0000;stroke-width:5.3097;stroke-linecap:square;stroke-linejoin:miter;stroke-dasharray:none;stroke-opacity:1;paint-order:fill markers stroke;stop-color:#000" transform="matrix(0 .60402 .56941 0 623.816 2104.239)"/><path d="M-3340.198 55.404c-124.568 0-225.55-602.408-225.55 261.19 0 137.36 124.068 261.19 225.55 261.19 101.865 0 225.55-119.037 225.55-261.19 0-773.548-100.982-261.19-225.55-261.19zm-151.033 261.694h305.575v75.498h-305.575z" style="fill:#1c1c1c;fill-opacity:1;stroke:#0d0d0d;stroke-width:5.3097;stroke-linecap:square;stroke-linejoin:miter;stroke-dasharray:none;stroke-opacity:1;paint-order:fill markers stroke;stop-color:#000" transform="matrix(0 .60402 .56941 0 623.816 2104.239)"/><g style="stroke-width:.995151"><path d="M-3576.085-1025.897h471.69v1364.08h-471.69z" style="opacity:1;fill:#661f1f;fill-opacity:1;stroke:#2e0000;stroke-width:5.50418;stroke-linecap:round;stroke-linejoin:round;stroke-dasharray:none;stroke-opacity:1;stop-color:#000" transform="matrix(0 .60414 .54723 0 606.61 2104.658)"/><path d="M-3565.437-1026.79h450.648V338.202h-450.648z" style="opacity:1;fill:#262626;fill-opacity:1;stroke:#0d0d0d;stroke-width:5.50443;stroke-linecap:round;stroke-linejoin:miter;stroke-dasharray:none;stroke-opacity:1;stop-color:#000" transform="matrix(0 .60414 .54723 0 606.61 2104.658)"/><path d="M-3552.776-1025.981h424.62V338.234h-424.62z" style="fill:#376242;fill-opacity:1;stroke:#0d0d0d;stroke-width:5.60418;stroke-linecap:square;stroke-linejoin:miter;stroke-dasharray:none;stroke-opacity:1;paint-order:fill markers stroke;stop-color:#000" transform="matrix(0 .60414 .54723 0 606.61 2104.658)"/><path d="M3132.506-1015.574h415.966V337.527h-415.966z" style="fill:#3a553a;fill-opacity:1;stroke:#1a2d1f;stroke-width:5.60418;stroke-linecap:square;stroke-linejoin:miter;stroke-dasharray:none;stroke-opacity:1;paint-order:fill markers stroke;stop-color:#000" transform="matrix(0 -.60414 .54723 0 606.61 2104.658)"/><g transform="matrix(.56955 0 0 -.58047 6795.58 921.919)"><rect width="446.47147" height="191.40971" x="-1661.4604" y="-11626.048" ry="0" style="fill:#000;fill-opacity:.1;stroke:none;stroke-width:10.8877;stroke-linecap:square;stroke-linejoin:miter;stroke-dasharray:none;stroke-opacity:1;paint-order:fill markers stroke;stop-color:#000" transform="rotate(-90)"/><rect width="446.47147" height="189.17603" x="-1661.4604" y="-11279.283" ry="0" style="fill:#000;fill-opacity:.1;stroke:none;stroke-width:10.8239;stroke-linecap:square;stroke-linejoin:miter;stroke-dasharray:none;stroke-opacity:1;paint-order:fill markers stroke;stop-color:#000" transform="rotate(-90)"/><rect width="446.47147" height="180.24132" x="-1661.4604" y="-10925.314" ry="0" style="fill:#000;fill-opacity:.1;stroke:none;stroke-width:10.5653;stroke-linecap:square;stroke-linejoin:miter;stroke-dasharray:none;stroke-opacity:1;paint-order:fill markers stroke;stop-color:#000" transform="rotate(-90)"/><path d="M-10799.78 1403.816c-2.155 6.522-7.17 11.425-11.914 16.17-1.135 1.135-1.994 2.64-3.405 3.404-7.242 3.923-16.835 3.685-22.552-2.553-2.535-2.766-3.31-6.455-4.681-9.787-1.848-4.488-5.344-11.218-8.937-14.468-8.522-7.71-15.278-5.602-17.446-19.148-1.106-6.914 3.677-14.102 7.234-19.574 2.43-3.74 4.972-8.659 8.51-11.49 3.407-2.725 8.65-2.946 12.766-3.404 10.524-1.169 19.13-.285 28.511 4.681 2.274 1.205 6.93 3.726 8.509 5.532 2.415 2.76 1.802 9.78 1.703 12.766-.213 6.38-1.479 12.06-2.553 18.297-.365 2.115-.484 4.268-.852 6.383-.298 1.718-1.592 6.23-.851 8.085.459 1.144 3.811 1.028 4.681 1.276 2.13.609 7.491 3.236 8.936 4.681" style="fill:#292929;fill-opacity:.88;stroke:none;stroke-width:4;stroke-linecap:round;stroke-linejoin:round;stroke-dasharray:none;stroke-opacity:1;paint-order:stroke fill markers;stop-color:#000"/><rect width="446.47147" height="113.9044" x="-1661.4604" y="-10570.465" ry="0" style="fill:#000;fill-opacity:.1;stroke:none;stroke-width:10.5653;stroke-linecap:square;stroke-linejoin:miter;stroke-dasharray:none;stroke-opacity:1;paint-order:fill markers stroke;stop-color:#000" transform="rotate(-90)"/></g><path d="M-3581.073-1028.438h101.694l76.686-77.744h124.328l76.687 77.744h101.95v18.747h-481.345z" style="fill:#591c1c;fill-opacity:1;stroke:#2e0000;stroke-width:4.48017;stroke-linecap:square;stroke-linejoin:miter;stroke-dasharray:none;stroke-opacity:1;paint-order:fill markers stroke;stop-color:#000" transform="matrix(0 .60414 .54723 0 606.61 2104.658)"/></g><path d="M-3127.9 295.144v-.06zm-.046.344h-425.05c-.023-3.69-.117 2.83-.117-2.554 0 153.766 118.259 267.828 212.342 267.828 94.72 0 212.825-112.28 212.825-265.274z" style="fill:#3b6947;fill-opacity:1;stroke:#0d0d0d;stroke-width:5.67734;stroke-linecap:square;stroke-linejoin:miter;stroke-dasharray:none;stroke-opacity:1;paint-order:fill markers stroke;stop-color:#000" transform="matrix(0 .60402 .56941 0 623.816 2104.239)"/><path d="M-3132.514 293.93c-43.612 1.486-414.13.127-415.977.077 0 151.504 115.702 261.291 207.751 261.291 92.674 0 208.226-110.626 208.226-261.369z" style="fill:#3b6947;fill-opacity:1;stroke:#101e15;stroke-width:5.67734;stroke-linecap:square;stroke-linejoin:miter;stroke-dasharray:none;stroke-opacity:1;paint-order:fill markers stroke;stop-color:#000" transform="matrix(0 .60402 .56941 0 623.816 2104.239)"/><path d="M-3505.753 293.73h10.276v48.644l21.922 23.948v102.313l-11.303-15.875v-79.702l-21.652-23.652v-55.675z" style="fill:#31573b;fill-opacity:1;stroke:none;stroke-width:3;stroke-linecap:round;stroke-linejoin:round;stroke-dasharray:none;stroke-opacity:1;paint-order:stroke fill markers;stop-color:#000" transform="matrix(0 .60402 .56941 0 623.816 2104.239)"/><path d="M-3505.753 293.73h10.276v48.644l21.922 23.948v102.313l-11.303-15.875v-79.702l-21.652-23.652v-55.675z" style="fill:#e3c852;fill-opacity:1;stroke:none;stroke-width:3;stroke-linecap:round;stroke-linejoin:round;stroke-dasharray:none;stroke-opacity:1;paint-order:stroke fill markers;stop-color:#000" transform="matrix(0 .60402 .56941 0 623.816 2104.239)"/><path d="M-3506.51 293.73h11.033v16.465c-.236.073-.615.155-1.226.257-1.841.307-8.515.323-9.682 1.49-.484.484 4.937 5.351 4.469 5.585-.458.229-1.005.21-1.49.372-1.006.336-1.986.745-2.979 1.117l-.125.048zm0 45.404c.01-.276.024-.523.044-.718s.047-.339.082-.409c.028-.055.09-.055.16-.041s.15.041.212.041c1.486 0 2.99-.018 4.489-.12 1.497-.102 2.989-.288 4.448-.624q.378-.089.779-.224.4-.136.82-.314v5.65l21.922 23.947v53.563l-11.304-11.826v-35.001l-21.652-23.652v-11.73c.084-.675.126-1.34.126-1.903 0-.618-.086 7.83-.126 5.964v-1.301zm21.651 101.163c2.066-1.936 3.265-7.224 6.029-6.219 1.043.38 2.167.733 2.979 1.49.794.741 1.557 2.106 2.296 3.255v29.812l-11.304-15.875z" style="fill:#e3c852;fill-opacity:1;stroke:none;stroke-width:3;stroke-linecap:round;stroke-linejoin:round;stroke-dasharray:none;stroke-opacity:1;paint-order:stroke fill markers;stop-color:#000" transform="matrix(0 .60402 .56941 0 623.816 2104.239)"/></g><path d="M-644.055 118.501H90.893v5.796h-734.948z" style="fill:#e3c852;fill-opacity:1;stroke:none;stroke-width:1.75085;stroke-linecap:round;stroke-linejoin:round;stroke-dasharray:none;stroke-opacity:1;paint-order:stroke fill markers;stop-color:#000" transform="matrix(1 0 0 -1 698.886 97.765)"/><g style="stroke-width:1.23352" transform="matrix(.45938 0 0 .4873 4435.693 -336.709)"><rect width="25.69507" height="25.69507" x="-7820.6621" y="683.41388" rx="0" ry="0" style="fill:#666;fill-opacity:1;stroke:#333;stroke-width:7.40109;stroke-linecap:round;stroke-linejoin:round;stroke-dasharray:none;stroke-opacity:1;paint-order:stroke fill markers;stop-color:#000"/><circle cx="-695.94653" cy="-7807.894" r="9.5573559" style="fill:gray;fill-opacity:1;stroke:#262626;stroke-width:3.70055;stroke-dasharray:none;stroke-opacity:1;paint-order:fill markers stroke;stop-color:#000" transform="rotate(-90)"/></g><g transform="matrix(.56666 0 0 -.60108 5123.25 617.862)"><rect width="42.065331" height="20.830765" x="-7633.854" y="688.2782" rx="0" ry="0" style="fill:#666;fill-opacity:1;stroke:#333;stroke-width:6;stroke-linecap:round;stroke-linejoin:round;stroke-dasharray:none;stroke-opacity:1;paint-order:stroke fill markers;stop-color:#000"/><circle cx="-698.43829" cy="-7602.2686" r="7.7480636" style="fill:gray;fill-opacity:1;stroke:#262626;stroke-width:3;stroke-dasharray:none;stroke-opacity:1;paint-order:fill markers stroke;stop-color:#000" transform="rotate(-90)"/><circle cx="-698.43829" cy="-7622.8481" r="7.7480636" style="fill:gray;fill-opacity:1;stroke:#262626;stroke-width:3;stroke-dasharray:none;stroke-opacity:1;paint-order:fill markers stroke;stop-color:#000" transform="rotate(-90)"/></g><g transform="matrix(.56666 0 0 .60108 5123.25 -444.837)"><rect width="42.065331" height="20.830765" x="-7633.854" y="688.2782" rx="0" ry="0" style="fill:#666;fill-opacity:1;stroke:#333;stroke-width:6;stroke-linecap:round;stroke-linejoin:round;stroke-dasharray:none;stroke-opacity:1;paint-order:stroke fill markers;stop-color:#000"/><circle cx="-698.43829" cy="-7602.2686" r="7.7480636" style="fill:gray;fill-opacity:1;stroke:#262626;stroke-width:3;stroke-dasharray:none;stroke-opacity:1;paint-order:fill markers stroke;stop-color:#000" transform="rotate(-90)"/><circle cx="-698.43829" cy="-7622.8481" r="7.7480636" style="fill:gray;fill-opacity:1;stroke:#262626;stroke-width:3;stroke-dasharray:none;stroke-opacity:1;paint-order:fill markers stroke;stop-color:#000" transform="rotate(-90)"/></g><path d="M92.182 88.477V82.29h27.564l13.57-13.198h57.975l-8.996 6.805h-45.163L123.73 88.932H92.182Z" style="fill:#31573b;fill-opacity:1;stroke:none;stroke-width:1.75085;stroke-linecap:round;stroke-linejoin:round;stroke-dasharray:none;stroke-opacity:1;paint-order:stroke fill markers;stop-color:#000" transform="translate(698.886 97.765)"/><path d="M92.182 88.477V82.29h27.564l13.57-13.198h57.975l-8.996 6.805h-45.163L123.73 88.932H92.182Z" style="fill:#e3c852;fill-opacity:1;stroke:none;stroke-width:1.75085;stroke-linecap:round;stroke-linejoin:round;stroke-dasharray:none;stroke-opacity:1;paint-order:stroke fill markers;stop-color:#000" transform="translate(698.886 97.765)"/><path d="m133.316 69.093-5.128 4.987c.521.558 1.163 1.246 1.292 1.372.907.888 1.812 1.917 2.968 2.474.407.196.872.238 1.272.45q.27.143.542.314l2.87-2.792h18.524l.312-1.198c0-.212-.179-.54 0-.636.167.266.3.764.75.477.154-.098.196-.32.3-.477 1.06-1.595 1.61-2.95 3.448-3.34.395-.083.823-.312 1.2-.158.542.22 1.313 2.56 2.099 2.226.565-.24.605-.642 1.049-1.113.85-.903 2.154-2.116 3.48-2.136q.285-.008.568.068c.693.184.87 2.387 1.35 3.022.743.986.146-.038 1.198.954.242.228 1.257 1.76 1.35 1.909.073.115.153.252.238.402h9.297l8.996-6.805zm-7.076 6.882-6.494 6.315h-4.175c-.355.617 1.69 4.432 1.379 5.094a6 6 0 0 0-.3.795c-.018.05.045.182 0 .159-.9-.477-3.887-5.174-4.535-6.048h-1.102c-.375.285.529 1.327.239 1.635-.276.292-.474.661-.75.954-.034.037-.14.052-.15 0 0-1.292-2.314-1.414-3.42-2.589h-14.75v6.642h31.548l7.956-7.738c-.432-.864-1.044-1.673-1.783-2.144-1.032-.657-2.166-.382-2.968-1.574a5.7 5.7 0 0 1-.696-1.501z" style="fill:#e3c852;fill-opacity:1;stroke:none;stroke-width:1.75085;stroke-linecap:round;stroke-linejoin:round;stroke-dasharray:none;stroke-opacity:1;paint-order:stroke fill markers;stop-color:#000" transform="translate(698.886 97.765)"/><g style="stroke-width:1.23352" transform="matrix(.45938 0 0 -.4873 4435.693 509.733)"><rect width="25.69507" height="25.69507" x="-7820.6621" y="683.41388" rx="0" ry="0" style="fill:#666;fill-opacity:1;stroke:#333;stroke-width:7.40109;stroke-linecap:round;stroke-linejoin:round;stroke-dasharray:none;stroke-opacity:1;paint-order:stroke fill markers;stop-color:#000"/><circle cx="-695.94653" cy="-7807.894" r="9.5573559" style="fill:gray;fill-opacity:1;stroke:#262626;stroke-width:3.70055;stroke-dasharray:none;stroke-opacity:1;paint-order:fill markers stroke;stop-color:#000" transform="rotate(-90)"/></g><g style="stroke-width:1.08232" transform="matrix(0 -.55549 .52344 0 457.993 -658.873)"><path d="M-1407.016 788.93h24.341v39.387h-24.341zm106.266 0h24.342v39.387h-24.342zm-121.608-82.576h161.665v69.694h-161.665z" style="fill:#666;fill-opacity:1;stroke:#333;stroke-width:3.78812;stroke-linecap:round;stroke-linejoin:round;stroke-dasharray:none;stroke-opacity:1;stop-color:#000"/><path d="M748.608-1431.95h10.123v180.6h-10.123z" style="fill:gray;fill-opacity:1;stroke:#262626;stroke-width:3.78812;stroke-linecap:round;stroke-linejoin:round;stroke-dasharray:none;stroke-opacity:1;stop-color:#000" transform="matrix(0 1 1 0 0 0)"/><path d="M-1354.1 714.037h24.342v54.394h-24.342z" style="fill:#b3b3b3;fill-opacity:1;stroke:#474747;stroke-width:3.78812;stroke-linecap:round;stroke-linejoin:round;stroke-dasharray:none;stroke-opacity:1;stop-color:#000"/><path d="M-1449.86 743.085h30.87v20.954h-30.87z" style="fill:#b3b3b3;fill-opacity:1;stroke:#474747;stroke-width:3.7881;stroke-linecap:round;stroke-linejoin:round;stroke-dasharray:none;stroke-opacity:1;stop-color:#000"/><path d="M1232.948 743.085h30.87v20.954h-30.87z" style="fill:#b3b3b3;fill-opacity:1;stroke:#474747;stroke-width:3.7881;stroke-linecap:round;stroke-linejoin:round;stroke-dasharray:none;stroke-opacity:1;stop-color:#000" transform="scale(-1 1)"/><path d="M-1400.64 735.633h13.097v35.546h-13.096z" style="fill:#383838;fill-opacity:1;stroke:#262626;stroke-width:3.7881;stroke-linecap:round;stroke-linejoin:round;stroke-dasharray:none;stroke-opacity:1;stop-color:#000"/><path d="M-1396.35 735.932h4.49v124.975h-4.49z" style="fill:#262626;fill-opacity:1;stroke:none;stroke-width:3.7881;stroke-linecap:round;stroke-linejoin:round;stroke-dasharray:none;stroke-opacity:1;stop-color:#000"/><path d="M1282.553 735.633h13.096v35.546h-13.096z" style="fill:#383838;fill-opacity:1;stroke:#262626;stroke-width:3.7881;stroke-linecap:round;stroke-linejoin:round;stroke-dasharray:none;stroke-opacity:1;stop-color:#000" transform="scale(-1 1)"/><path d="M1286.843 735.932h4.49v124.975h-4.49z" style="fill:#262626;fill-opacity:1;stroke:none;stroke-width:3.7881;stroke-linecap:round;stroke-linejoin:round;stroke-dasharray:none;stroke-opacity:1;stop-color:#000" transform="scale(-1 1)"/><path d="M-1413.875 714.037h8.271v54.394h-8.27z" style="fill:#b3b3b3;fill-opacity:1;stroke:#4d4d4d;stroke-width:3.78812;stroke-linecap:round;stroke-linejoin:round;stroke-dasharray:none;stroke-opacity:1;stop-color:#000"/><ellipse cx="-1394.7615" cy="851.29266" rx="10.693154" ry="10.672626" style="fill:gray;fill-opacity:1;stroke:#262626;stroke-width:3.78812;stroke-linecap:round;stroke-dasharray:none;stroke-opacity:1;stop-color:#000"/><ellipse cx="-1288.4951" cy="851.29266" rx="10.693154" ry="10.672626" style="fill:gray;fill-opacity:1;stroke:#262626;stroke-width:3.78812;stroke-linecap:round;stroke-dasharray:none;stroke-opacity:1;stop-color:#000"/><path d="M-1277.272 714.037h8.27v54.394h-8.27z" style="fill:#b3b3b3;fill-opacity:1;stroke:#4d4d4d;stroke-width:3.78812;stroke-linecap:round;stroke-linejoin:round;stroke-dasharray:none;stroke-opacity:1;stop-color:#000"/></g><g style="stroke-width:1.23352" transform="matrix(.45938 0 0 -.4873 4464.566 425.976)"><rect width="25.69507" height="25.69507" x="-7820.6621" y="683.41388" rx="0" ry="0" style="fill:#666;fill-opacity:1;stroke:#333;stroke-width:7.40109;stroke-linecap:round;stroke-linejoin:round;stroke-dasharray:none;stroke-opacity:1;paint-order:stroke fill markers;stop-color:#000"/><circle cx="-695.94653" cy="-7807.894" r="9.5573559" style="fill:gray;fill-opacity:1;stroke:#262626;stroke-width:3.70055;stroke-dasharray:none;stroke-opacity:1;paint-order:fill markers stroke;stop-color:#000" transform="rotate(-90)"/></g><path d="M-644.216 96.01H90.892v5.797h-735.108z" style="fill:#e3c852;fill-opacity:1;stroke:none;stroke-width:1.75085;stroke-linecap:round;stroke-linejoin:round;stroke-dasharray:none;stroke-opacity:1;paint-order:stroke fill markers;stop-color:#000" transform="translate(698.886 97.765)"/><path d="M-644.216 96.01H90.892v5.797h-735.108z" style="fill:#000;fill-opacity:.11;stroke:none;stroke-width:1.75085;stroke-linecap:round;stroke-linejoin:round;stroke-dasharray:none;stroke-opacity:1;paint-order:stroke fill markers;stop-color:#000" transform="translate(698.886 97.765)"/><path d="M-644.215 96.01v5.797c32.462-6.844 96.922-.603 122.338-.603.209-.11.376-.408.53-.562.18-.18.886-.895 1.219-1.012.14-.05.519 1.28.636 1.406.084.088.22-.1.318-.17.534-.376 1.083-.73 1.75-.73.296 0 .265.035.37.281.057.13.106.262.16.394.05.168.09.343.158.506.034.08.15.273.27.49h131.563c.022-.054.056-.094.08-.15.168-.38.271-.788.376-1.193.045-.18-.084-.64.074-.556.18.095-.01.442.075.636.122.273.304.525.525.715 1.09.94 3.039.018 3.823-.795.576-.597.83-1.466 1.2-2.226.197-.407.587-1.308.995-2.227h-74.38c-.113.231-.235.458-.339.695-.207.474-.346.979-.53 1.463-.47 1.233-.201.53-.69 1.461-.022.042-.22.53-.264.506-.179-.094-.308-1.602-.583-1.967-.078-.104-.185-.18-.265-.282-.154-.196-.11-.249-.371-.056-.218.16-.421.342-.636.506-.046.036-.201.23-.319.169-.017-.009.006-.04 0-.057-.353-.75-.553-1.449-.795-2.25a4 4 0 0 0-.062-.188zm276.122 0a14 14 0 0 1-.387 2.546c-.46 1.849-.565 2.223-1.194 3.25h84.177c-.028-.02-.045-.049-.073-.07-1.148-.903-1.983-1.29-3.223-2.067-.006 0 .338.006.374 0 .152-.016.302-.046.45-.08.926-.21.714-.252 1.95-.636 1.235-.383 2.202-.578 3.208-.596.782-.013 1.589.081 2.563.278 1.689.341 3.213.73 4.948.955 1.42.184 2.847.292 4.273.397.677.05 1.965-.17 2.624.08.237.09 2.838 1.536 2.924 1.59.087.055.131.096.211.15h68.998a10 10 0 0 1 .057-.707c.057-.412.385.346.554.707h.367c.196-.306.424-.78.428-.786.492-.81 1.045-1.707 1.875-2.147.13-.07.264.063.374.08.276.04.635.014.9-.08.155-.055.837-.427 1.146-.435q.087-.002.128.037c.064.068-.086.171-.15.239-.278.295-.672.44-.974.716-.172.156-1.378 1.67-1.677 2.376h35.89c.647-.175 1.327-.235 1.969-.378 1.946-.434 3.668-1.61 5.725-1.125.327.077.628.252.954.338.624.166 1.595.251 2.226 0 .703-.28.726-.616 1.697-.787.189-.034.382-.026.575-.015-.078-.024-.193-.079-.787-.21-1.412-.312-2.827-.605-4.241-.9-3.803-.79-1.875-.272-5.513-1.237-.82-.217-3.623-.853-5.05-1.482h-54.107c-.305.502-.513 1.095-.824 1.59-.04.067-.159.036-.225 0-.023-.011-.017-.06 0-.079.017-.018.074.027.074 0 0-.037-.056-.048-.074-.08-.096-.151-.514-.978-.6-1.033-.083-.053-.345.028-.45 0-.108-.029-.19-.14-.3-.159-.216-.038-.548-.027-.75.08-.058.03-.215.248-.299.159-.017-.019.011-.056 0-.08-.065-.138-.166-.256-.225-.398zm232.837 0c-.28.055-.301.039-.726.134a69 69 0 0 0-3.499.9c-.199.055-.735.315-.53.336.352.038.708-.028 1.06 0 1.75.143 1.709.212 3.393.788a76 76 0 0 1 1.59.562c.391.144.776.302 1.166.45.7.265 1.87.24 2.015 1.012.056.297-.472.354-.743.45-1.158.41-2.33.772-3.494 1.165h47.826c.089-.06.208-.071.283-.15.017-.019-.017-.06 0-.08.034-.037.114.038.15 0 .04-.04.04-.119.074-.158.017-.017.82-.218.9-.239.162-.043.176-.16.3-.239.425-.27.808-.533 1.124-.954.034-.046.034-.117.075-.159s.117-.032.15-.08c.046-.066.04-.163.075-.238.136-.287.366-.525.525-.795.233-.394.393-.827.675-1.193.906-1.175-.234.587.824-1.034.17-.258.223-.35.3-.477zm54.779 0c-.174.49-.393.984-.591 1.194a4 4 0 0 1-.45.398c-.113.09-.487.219-.6.318-.28.247-.216.501-.375.795-.061.115-.163.202-.224.318-.431.823-.303 1.855-.366 2.774h56.074c.181-.178.357-.374.54-.49.3-.19.52-.043.848-.113.374-.079.554-.496.849-.674.222-.135.432-.19.63-.185.588.018 1.046.583 1.278 1.196.034.099.057.176.083.266h35.904c.005-.283.017-.516.058-.603 0 0 .484-.195.53-.225.339-.215.705-.362 1.1-.362q.136 0 .279.025c.386.068.512.384.847.562.175.093.205-.062.425.112.104.084.296.283.472.49h74.058v-5.795H49.94c.58.33 1.258.56 1.678.795.585.329.44.964.375 1.511-.12 1.021-.066.607-.3 1.352-.04.128-.034.27-.075.397-.086.276-.733-.137-.824-.159-.098-.022-.2 0-.3 0-.549 0-.684.185-1.05.637-.081.1-.113.258-.225.318-.07.037-.15-.051-.225-.08-.275-.104-.54-.247-.824-.318-.146-.037-.3 0-.45 0-.455 0-.953-.225-1.35-.398-.258-.112-.49-.284-.749-.397-.074-.032-.757-.13-.45-.239.576-.203 1.306-.66 1.8-1.033.045-.034.412-.22.3-.398-.1-.157-.609.15-.675.08-.119-.126-.142-.323-.225-.478-.137-.253-.332-.59-.525-.795a1.4 1.4 0 0 0-.375.16c-.07.059-.096.161-.15.238-.068.097-.197.104-.3.159-.426.226.187-.07-.375.08-.034.008-.045.062-.074.079-.138.073-.506-.268-.6-.318-.216-.115-.12.432-.3.318-.324-.206-1.05-1.238-1.35-1.193-.157.024-.51.405-.674.318-.17-.09-.334-.357-.504-.636h-1.145c-.094.111-.168.262-.3.318-.341.145-.725-.058-1.074-.318h-64.318q-.164.409-.351.807c-.115.244-.292 1.04-.742.562-.157-.167-.405-.86-.607-1.37h-1.096c-.117.09-.28.202-.311.246-.413.583-.363.3-.782-.245z" style="fill:#d1b747;fill-opacity:1;stroke:none;stroke-width:1.75085;stroke-linecap:round;stroke-linejoin:round;stroke-dasharray:none;stroke-opacity:1;paint-order:stroke fill markers;stop-color:#000" transform="translate(698.886 97.765)"/><path d="M-644.055 118.501H90.893v5.796h-734.948z" style="fill:#000;fill-opacity:.11;stroke:none;stroke-width:1.75085;stroke-linecap:round;stroke-linejoin:round;stroke-dasharray:none;stroke-opacity:1;paint-order:stroke fill markers;stop-color:#000" transform="matrix(1 0 0 -1 698.886 97.765)"/><path d="M-644.055-124.296v5.796h307.433c-.898-.363-1.784-.837-2.557-1.115-.415-.148-.837-.269-1.258-.394-.173-.051-.368-.043-.525-.136-.235-.138.49-.25.755-.304 2.169-.445 1.516-.132 4.162-.6 1.184-.21 2.36-.47 3.531-.742.202-.047.747-.283.543-.313-.35-.053-.708-.006-1.059-.048-1.741-.221-1.699-.288-3.357-.939a77 77 0 0 1-1.567-.633c-.385-.16-.764-.337-1.147-.502-.066-.028-.157-.046-.23-.07h-50.23c-.006 0 .045-.09-.361.482-.268.375-.184.372-.478.694-.253.277-.52.43-.777.682-.084.081-.564.527-.618.53h.006l-.006-.001c-.08-.093.017-.473.029-.636.017-.394.408-1.272.741-1.752h-50.007q.19.174.377.35l-7.73 2.24c.294-.56.415-1.208.708-1.768.152-.29.345-.554.53-.822h-71.227l-9.638 2.543-.045.012c.17-.167.006-.008.045-.012.023 0 .124-.063.416-.286.245-.187.463-.41.7-.606.238-.196 2.037-1.61 2.085-1.65zm311.74 0c.098.037.13.06.536.168 1.397.375 2.8.732 4.2 1.09 3.769.96 1.863.355 5.46 1.482.948.298 4.709 1.294 5.647 2.055.466.378-.332.824-.247.89.056.042.131.071.192.11h58.953c.087-.159.168-.325.27-.47.045-.065.158-.03.224.01.017.012.01.06-.006.079-.017.017-.075-.03-.075-.006 0 .037.05.05.071.083.029.044.1.18.16.302h58.336c-.792-.108-1.581-.234-2.374-.328-.674-.08-1.97.081-2.619-.198-.233-.1-2.773-1.662-2.857-1.72-.984-.682-1.39-1.204-2.3-1.643l-2.325.197c.67-.14 1.08-.713 1.996-.343q.175.072.33.146l12.084-1.021c3.037 1.424 6.17 1.487 9.384 1.774l-.524-.023c-.051.02.034.115.068.162.18.256.367.507.57.742.252.29.504.584.792.832.699.6 1.31 1.01 1.947 1.424h82.49c-.277-.038-.556-.067-.828-.136-1.22-.309-2.413-.735-3.635-1.039-.86-.214-1.734-.367-2.606-.515-.715-.12-.73.11-.293-.172l31.362 1.25c-1.108-.025-2.2.22-3.292.409-.366.063-.725.141-1.09.203h60.84c.61-.875 1.185-1.774 1.657-2.745.226-.464.384-.961.588-1.437.52-1.21.223-.52.747-1.43.012-.015.063-.096.107-.185h-257.174c-.034.331-.063.664-.122.998-.087.499-.571-.91-.635-.984-.12-.137-.709.993-.716 1.003-.523.788-1.111 1.659-1.958 2.061-.133.063-.262-.075-.371-.096a2 2 0 0 0-.902.039c-.157.048-.852.389-1.162.383q-.088 0-.127-.043c-.061-.07.093-.167.159-.232.29-.282.689-.41 1.002-.671.194-.161 1.678-1.872 1.837-2.458zm314.235 0c.105.487.192 1.401.387 1.683.075.107.178.188.254.293.146.204.099.254.369.073.223-.15.433-.323.655-.476.051-.034.21-.222.325-.155.017.01-.006.04 0 .057.323.766.495 1.472.704 2.282.012.035.384 1.447.478 1.316.163-.228.226-.557.453-.711.093-.064.068.226.093.342.076.363.145.728.217 1.092h76.703c-.122-.238-.27-.542-.278-.559-.132-.25-.26-.502-.394-.75-.04-.182-.218-.26-.303-.407a.36.36 0 0 1-.045-.17c0-.02.034-.007.05 0 .25.087.477.243.731.314 2.683.75.08-.034 2.107.375.32.065.624.207.945.268.453.086.914.124 1.372.174.986.11 1.971.226 2.96.302.493.038.99.02 1.482.067.177.016.351.062.527.08.3.029.603 0 .9.04.441.056.786.415 1.214.167.046-.025.065-.085.111-.107.034-.016.07.012.106.006.212-.046.269-.187.386-.377-.17.377-.29.583-.29.576H90.89v-5.796zm-314.247 5.546c-.22.012-.409.04-.524.095-.104.05-.19.102-.283.155h3.735l-.058-.008c-2.046-.14.778-.101-1.27-.164-.012 0-.942-.113-1.6-.078" style="fill:#d1b747;fill-opacity:1;stroke:none;stroke-width:1.75085;stroke-linecap:round;stroke-linejoin:round;stroke-dasharray:none;stroke-opacity:1;paint-order:stroke fill markers;stop-color:#000" transform="translate(698.886 97.765)"/><path d="M92.24 114.376c.846-26.343.072-250.142.045-251.258 86.268 0 148.782 69.886 148.782 125.485 0 55.977-62.993 125.773-148.826 125.773z" style="fill:none;fill-opacity:1;stroke:#101e15;stroke-width:3.32952;stroke-linecap:square;stroke-linejoin:miter;stroke-dasharray:none;stroke-opacity:1;paint-order:fill markers stroke;stop-color:#000" transform="translate(698.886 97.765)"/><path d="m174.588 92.812-2.18 1.335-7.519-17.948 10.894 15.88zm33.772-27.19-1.78 1.888-11.642-15.272 14.397 12.349zm23.059-33.614-1.259 2.313-14.97-11.556 16.92 7.976zm11.294-43.926v2.67l-18.412-2.068 18.412-2.066zm-11.294-42.784-1.259-2.313-14.97 11.556 16.92-7.975zM208.36-88.004l-1.78-1.889-11.642 15.273 14.397-12.35zm-33.772-27.314-2.18-1.335-7.519 17.948 10.894-15.881zm-39.416 225.49-2.432.692-2.882-19.4 6.646 18.33zm0-242.851-2.432-.69-2.882 19.4 6.646-18.33z" style="fill:#1c1c1c;fill-opacity:1;stroke:#0d0d0d;stroke-width:5.25256;stroke-linecap:round;stroke-linejoin:round;stroke-dasharray:none;stroke-opacity:1;paint-order:stroke fill markers;stop-color:#000" transform="translate(698.886 97.765)"/><path d="m-7965.6 668.245-.307 1.083 1.65 1.598 14.209-3.8.821-1.365-5.287.047.163-.571z" style="fill:#4d4d4d;fill-opacity:1;stroke:#333;stroke-width:1.5;stroke-linecap:square;stroke-linejoin:round;stroke-dasharray:none;stroke-opacity:1;stop-color:#000" transform="matrix(.56024 -.09023 .08506 .59427 5149.63 -1136.19)"/><path d="m-7965.6 668.245-.307 1.083 1.65 1.598 14.209-3.8.821-1.365-5.287.047.163-.571z" style="opacity:.15;fill:#000;fill-opacity:1;stroke:#000;stroke-width:1.5;stroke-linecap:square;stroke-linejoin:round;stroke-dasharray:none;stroke-opacity:1;stop-color:#000" transform="matrix(.56024 -.09023 .08506 .59427 5149.63 -1136.19)"/><path d="M-655.122-156.639v61.66l-42.486 46.268V26.32l42.486 46.268v61.681h10.311V-156.64z" style="fill:none;fill-opacity:1;stroke:#2e0000;stroke-width:2.5379;stroke-linecap:square;stroke-linejoin:miter;stroke-dasharray:none;stroke-opacity:1;paint-order:fill markers stroke;stop-color:#000" transform="translate(698.886 97.765)"/><path d="M-123.611-86.702h2.167V69.733h-2.167z" style="fill:#737373;fill-opacity:1;stroke:#404040;stroke-width:.889996;stroke-dasharray:none;stroke-opacity:1;paint-order:fill markers stroke;stop-color:#000" transform="matrix(0 -1 -1 0 698.886 97.765)"/><path d="M-3.785 119.354h3.178v5.407h-3.178zm-46.06 0h3.178v5.407h-3.178zm-38.479 0h3.178v5.407h-3.178zm124.441 0h3.178v5.407h-3.178zm31.11 0h3.178v5.407h-3.178z" style="fill:#661f1f;fill-opacity:1;stroke:#2e0000;stroke-width:1.45904;stroke-linecap:round;stroke-linejoin:round;stroke-dasharray:none;stroke-opacity:1;stop-color:#000" transform="matrix(-1 0 0 1 698.886 97.765)"/><path d="M-123.555 107.094h2.167v290.17h-2.167z" style="fill:#737373;fill-opacity:1;stroke:#404040;stroke-width:.889996;stroke-dasharray:none;stroke-opacity:1;paint-order:fill markers stroke;stop-color:#000" transform="matrix(0 -1 -1 0 698.886 97.765)"/><path d="M188.314 119.354h3.178v5.407h-3.178zm-42.879 0h3.178v5.407h-3.178zm-39.963 0h3.178v5.407h-3.178zm124.522 0h3.178v5.407h-3.178zm123.391 0h3.178v5.407h-3.178zm-42.879 0h3.178v5.407h-3.178zm-39.963 0h3.178v5.407h-3.178zm124.522 0h3.178v5.407h-3.178z" style="fill:#661f1f;fill-opacity:1;stroke:#2e0000;stroke-width:1.45904;stroke-linecap:round;stroke-linejoin:round;stroke-dasharray:none;stroke-opacity:1;stop-color:#000" transform="matrix(-1 0 0 1 698.886 97.765)"/><path d="M-123.506 435.423h2.167v204.46h-2.167z" style="fill:#737373;fill-opacity:1;stroke:#404040;stroke-width:.889996;stroke-dasharray:none;stroke-opacity:1;paint-order:fill markers stroke;stop-color:#000" transform="matrix(0 -1 -1 0 698.886 97.765)"/><path d="M518.34 119.354h3.177v5.407h-3.178zm-46.06 0h3.177v5.407h-3.178zm-38.479 0h3.178v5.407h-3.178zm124.44 0h3.178v5.407h-3.178zm40.406 0h3.178v5.407h-3.178zm39.731 0h3.178v5.407h-3.178z" style="fill:#661f1f;fill-opacity:1;stroke:#2e0000;stroke-width:1.45904;stroke-linecap:round;stroke-linejoin:round;stroke-dasharray:none;stroke-opacity:1;stop-color:#000" transform="matrix(-1 0 0 1 698.886 97.765)"/><path d="M-146.052-87.084h2.168v727.661h-2.168z" style="fill:#737373;fill-opacity:1;stroke:#404040;stroke-width:.889996;stroke-dasharray:none;stroke-opacity:1;paint-order:fill markers stroke;stop-color:#000" transform="rotate(90 300.56 398.326)"/><path d="M421.731 141.833h3.178v5.407h-3.178zm-41.979 0h3.178v5.407h-3.178zm-39.662 0h3.177v5.407h-3.178zm121.522 0h3.178v5.407h-3.178zm133.887 0h3.178v5.407h-3.178zm-46.179 0h3.179v5.407h-3.178zm-43.56 0h3.178v5.407h-3.178zm132.618 0h3.178v5.407h-3.178z" style="fill:#661f1f;fill-opacity:1;stroke:#2e0000;stroke-width:1.45904;stroke-linecap:round;stroke-linejoin:round;stroke-dasharray:none;stroke-opacity:1;stop-color:#000" transform="rotate(180 349.443 48.883)"/><path d="M-88.324-147.197h3.178v5.407h-3.178z" style="fill:#661f1f;fill-opacity:1;stroke:#2e0000;stroke-width:1.45904;stroke-linecap:round;stroke-linejoin:round;stroke-dasharray:none;stroke-opacity:1;stop-color:#000" transform="matrix(-1 0 0 1 698.886 97.765)"/><path d="M77.92 141.833h3.178v5.407H77.92zm-44.078 0h3.178v5.407h-3.178zm-41.162 0h3.178v5.407H-7.32zm129.32 0h3.177v5.407H122zm131.187 0h3.178v5.407h-3.178zm-44.679 0h3.178v5.407h-3.178zm-44.161 0h3.178v5.407h-3.178zm132.319 0h3.178v5.407h-3.178zm-344.236 0h3.179v5.407h-3.178z" style="fill:#661f1f;fill-opacity:1;stroke:#2e0000;stroke-width:1.45904;stroke-linecap:round;stroke-linejoin:round;stroke-dasharray:none;stroke-opacity:1;stop-color:#000" transform="rotate(180 349.443 48.883)"/><g transform="matrix(.48196 0 0 -.51124 3997.637 572.478)"><rect width="40.014809" height="11.702641" x="-7632.5972" y="696.54645" rx="0" ry="0" style="fill:#333;fill-opacity:1;stroke:#1a1a1a;stroke-width:6;stroke-linecap:round;stroke-linejoin:round;stroke-dasharray:none;stroke-opacity:1;paint-order:stroke fill markers;stop-color:#000"/><ellipse cx="-702.34088" cy="-7602.2686" rx="3.8454595" ry="7.7480636" style="fill:#404040;fill-opacity:1;stroke:#242424;stroke-width:3;stroke-dasharray:none;stroke-opacity:1;paint-order:fill markers stroke;stop-color:#000" transform="rotate(-90)"/><ellipse cx="-702.34088" cy="-7622.8481" rx="3.8454595" ry="7.7480636" style="fill:#404040;fill-opacity:1;stroke:#242424;stroke-width:3;stroke-dasharray:none;stroke-opacity:1;paint-order:fill markers stroke;stop-color:#000" transform="rotate(-90)"/></g><g transform="matrix(.56666 0 0 .60108 5579.204 -52.578)"><rect width="16.679379" height="9.9535666" x="-8918.3262" y="-447.44666" rx="0" ry="0" style="fill:#333;fill-opacity:1;stroke:#1a1a1a;stroke-width:5.10324;stroke-linecap:round;stroke-linejoin:round;stroke-dasharray:none;stroke-opacity:1;paint-order:stroke fill markers;stop-color:#000" transform="scale(1 -1)"/><ellipse cx="442.51825" cy="-8910.0342" rx="3.2707179" ry="6.5900393" style="fill:#404040;fill-opacity:1;stroke:#242424;stroke-width:2.55162;stroke-dasharray:none;stroke-opacity:1;paint-order:fill markers stroke;stop-color:#000" transform="matrix(0 1 1 0 0 0)"/></g><g transform="matrix(.48196 0 0 -.51124 4157.06 572.478)"><rect width="40.014809" height="11.702641" x="-7632.5972" y="696.54645" rx="0" ry="0" style="fill:#333;fill-opacity:1;stroke:#1a1a1a;stroke-width:6;stroke-linecap:round;stroke-linejoin:round;stroke-dasharray:none;stroke-opacity:1;paint-order:stroke fill markers;stop-color:#000"/><ellipse cx="-702.34088" cy="-7602.2686" rx="3.8454595" ry="7.7480636" style="fill:#404040;fill-opacity:1;stroke:#242424;stroke-width:3;stroke-dasharray:none;stroke-opacity:1;paint-order:fill markers stroke;stop-color:#000" transform="rotate(-90)"/><ellipse cx="-702.34088" cy="-7622.8481" rx="3.8454595" ry="7.7480636" style="fill:#404040;fill-opacity:1;stroke:#242424;stroke-width:3;stroke-dasharray:none;stroke-opacity:1;paint-order:fill markers stroke;stop-color:#000" transform="rotate(-90)"/></g><g transform="matrix(.56666 0 0 .60108 5426.246 -52.578)"><rect width="16.679379" height="9.9535666" x="-8918.3262" y="-447.44666" rx="0" ry="0" style="fill:#333;fill-opacity:1;stroke:#1a1a1a;stroke-width:5.10324;stroke-linecap:round;stroke-linejoin:round;stroke-dasharray:none;stroke-opacity:1;paint-order:stroke fill markers;stop-color:#000" transform="scale(1 -1)"/><ellipse cx="442.51825" cy="-8910.0342" rx="3.2707179" ry="6.5900393" style="fill:#404040;fill-opacity:1;stroke:#242424;stroke-width:2.55162;stroke-dasharray:none;stroke-opacity:1;paint-order:fill markers stroke;stop-color:#000" transform="matrix(0 1 1 0 0 0)"/></g><g transform="matrix(.56666 0 0 .60108 5778.967 -52.578)"><rect width="16.679379" height="9.9535666" x="-8918.3262" y="-447.44666" rx="0" ry="0" style="fill:#333;fill-opacity:1;stroke:#1a1a1a;stroke-width:5.10324;stroke-linecap:round;stroke-linejoin:round;stroke-dasharray:none;stroke-opacity:1;paint-order:stroke fill markers;stop-color:#000" transform="scale(1 -1)"/><ellipse cx="442.51825" cy="-8910.0342" rx="3.2707179" ry="6.5900393" style="fill:#404040;fill-opacity:1;stroke:#242424;stroke-width:2.55162;stroke-dasharray:none;stroke-opacity:1;paint-order:fill markers stroke;stop-color:#000" transform="matrix(0 1 1 0 0 0)"/></g><g transform="matrix(.56666 0 0 .60108 5764.231 -52.578)"><rect width="16.679379" height="9.9535666" x="-8918.3262" y="-447.44666" rx="0" ry="0" style="fill:#333;fill-opacity:1;stroke:#1a1a1a;stroke-width:5.10324;stroke-linecap:round;stroke-linejoin:round;stroke-dasharray:none;stroke-opacity:1;paint-order:stroke fill markers;stop-color:#000" transform="scale(1 -1)"/><ellipse cx="442.51825" cy="-8910.0342" rx="3.2707179" ry="6.5900393" style="fill:#404040;fill-opacity:1;stroke:#242424;stroke-width:2.55162;stroke-dasharray:none;stroke-opacity:1;paint-order:fill markers stroke;stop-color:#000" transform="matrix(0 1 1 0 0 0)"/></g><g transform="matrix(.56666 0 0 -.60108 5673.691 590.809)"><path d="M-1038.25-9924.617h57.99v96.518h-57.99z" style="fill:#595959;fill-opacity:1;stroke:#3e3e3e;stroke-width:2.84938;stroke-dasharray:none;stroke-opacity:1;paint-order:fill markers stroke;stop-color:#000" transform="rotate(-90)"/><path d="M-9927.475 628.492h190.564V979.66h-190.564z" style="fill:url(#f);stroke:none;stroke-width:.262807"/><path d="M-9826.54 710.924c3.226 3.332 6.583 24.76 9.016 25.385 3.978 1.024 9.696 0 13.789 0 3.112 0 6.463.28 9.546 0 3.187-.29 5.906-1.922 9.016-2.456 1.23-.21 2.522.525 3.712 0 .76-.336 1.354-1.343 2.12-1.64.687-.263 1.427.197 2.122 0 2.7-.755 5.386-1.786 7.955-3.273 4.129-2.391 10.593-8.988 13.788-13.922 2.787-4.3.972-11.268 1.592-16.376 3.828-31.524-.136 13.954 2.121-13.92.405-5.005 1.596-15.551-1.06-19.653-1.999-3.086-5.096-1.737-7.425-2.457-4.34.4-7.678-4.412-11.667-5.731-2.329-.772-12.233-.315-13.79 1.636-1.866 2.341-2.834 5.998-4.242 9.008-.723 1.548-8.274 17.635-9.016 18.016-.335.172-.706 0-1.06 0-.53.546-1.02 1.197-1.591 1.637-2.598 2.006-5.097-5.414-6.364-7.37-.87-1.345-10.7-13.322-11.667-13.92-1.798-1.111-10.717-3.513-12.198-2.458-3.993 2.847-1.876 3.264-2.121 5.734-.977 9.804-1.717 17.265 1.59 26.203.555 1.498 1.981 2.712 2.653 4.094.805 1.66-.052 2.752.53 4.095.219.507.731.48 1.06.819 1.271 1.306 1.334 5.16 1.591 6.549" style="opacity:.8;fill:#333;fill-opacity:1;stroke:none;stroke-width:2.18285;stroke-linecap:square;stroke-linejoin:round;stroke-dasharray:none;stroke-opacity:1;paint-order:fill markers stroke;stop-color:#000"/><path d="M-9809.714 664.384c.963 2.792 1.582 6.97 3.707 9.069 1.282 1.267 5.467 1.638 6.353-.697.158-.417-.195-1.008 0-1.396.814-1.61 2.362-2.575 3.177-4.186.804-1.59-.677-7.557-1.06-9.068-.347-1.376.491-3.593 0-4.883-.518-1.37-2.084-2.093-3.176-2.093-.352 0-.81-.329-1.059 0-.21.278-1.493 4.26-1.588 4.884-.104.684.129 1.415 0 2.092-.542 2.854-2.772 1.692-3.177 2.093-1.198 1.184-2.118 2.79-3.177 4.185" style="opacity:.8;fill:#333;fill-opacity:1;stroke:none;stroke-width:2.18285;stroke-linecap:square;stroke-linejoin:round;stroke-dasharray:none;stroke-opacity:1;paint-order:fill markers stroke;stop-color:#000"/><g transform="translate(-11.256 127.22)"><g style="opacity:.82" transform="rotate(-90 -6135.001 2618.407)scale(1.19032)"><path d="M-3571.555-931.788h5.064v49.118h-5.064z" style="opacity:1;fill:#383838;fill-opacity:1;stroke:none;stroke-width:2.11016;stroke-linecap:round;stroke-linejoin:round;stroke-dasharray:none;stroke-opacity:1"/><path d="M-922.142 3555.88h4.66v26.03h-4.66z" style="opacity:1;fill:#383838;fill-opacity:1;stroke:none;stroke-width:2.24738;stroke-linecap:round;stroke-linejoin:round;stroke-dasharray:none;stroke-opacity:1" transform="rotate(90)"/><ellipse cx="-3583.084" cy="-919.82819" rx="4.5358114" ry="4.5347505" style="opacity:1;fill:#383838;fill-opacity:1;stroke:none;stroke-width:3.87343;stroke-linecap:round;stroke-linejoin:round;stroke-dasharray:none;stroke-opacity:1"/><ellipse cx="-3569.0061" cy="-934.84314" rx="4.5358114" ry="4.5347505" style="opacity:1;fill:none;fill-opacity:1;stroke:#383838;stroke-width:3.87343;stroke-linecap:round;stroke-linejoin:round;stroke-dasharray:none;stroke-opacity:1"/><ellipse cx="-3554.6025" cy="-919.8891" rx="4.5358114" ry="4.5347505" style="opacity:1;fill:#383838;fill-opacity:1;stroke:none;stroke-width:3.87343;stroke-linecap:round;stroke-linejoin:round;stroke-dasharray:none;stroke-opacity:1"/><path d="M-3596.745-897.821a29.17 25.501 0 0 0 27.663 17.64 29.17 25.501 0 0 0 27.35-16.855 37.991 31.085 0 0 1-27.086 9.311 37.991 31.085 0 0 1-27.927-10.096" style="opacity:1;fill:#383838;fill-opacity:1;stroke:none;stroke-width:3.26746;stroke-linecap:round;stroke-linejoin:round;stroke-dasharray:none;stroke-opacity:1"/><path d="m-3598.757-903.852.027.053 4.465 15.657 3.052-4.01 4.909-1.028zm59.707.269-.027.053-4.465 15.658-3.052-4.01-4.908-1.029z" style="opacity:1;fill:#383838;fill-opacity:1;stroke-width:3.0142;stroke-linecap:round;stroke-linejoin:round"/></g><circle cx="-732.31274" cy="-9836.6992" r="44.316319" style="opacity:.82;fill:none;fill-opacity:1;stroke:#383838;stroke-width:4.47084;stroke-linecap:square;stroke-dasharray:none;stroke-opacity:1;stop-color:#000" transform="rotate(-90)"/></g><rect width="50.623661" height="64.873962" x="-1038.7435" y="-9777.7891" rx="7.3365045" ry="7.3365035" style="opacity:1;fill:#000;fill-opacity:.25;stroke:none;stroke-width:3.12206;stroke-dasharray:none;stroke-opacity:1;paint-order:fill markers stroke;stop-color:#000" transform="rotate(-90)"/><g style="stroke-width:.863472"><path d="M-306.69 207.874h37.175v12.643h-37.175z" style="fill:#8c8c8c;fill-opacity:1;stroke:#4d4d4d;stroke-width:2.67515;stroke-linecap:square;stroke-linejoin:miter;stroke-dasharray:none;stroke-opacity:1;paint-order:fill markers stroke;stop-color:#000" transform="matrix(0 1.34393 -.93577 0 -9619.608 1400.226)"/><path d="M-306.69 195.135h37.175v12.644h-37.175z" style="fill:#878787;fill-opacity:1;stroke:#4d4d4d;stroke-width:2.67515;stroke-linecap:square;stroke-linejoin:miter;stroke-dasharray:none;stroke-opacity:1;paint-order:fill markers stroke;stop-color:#000" transform="matrix(0 1.34393 -.93577 0 -9619.608 1400.226)"/><path d="M-306.69 182.397h37.175v12.644h-37.175z" style="fill:#828282;fill-opacity:1;stroke:#4d4d4d;stroke-width:2.67515;stroke-linecap:square;stroke-linejoin:miter;stroke-dasharray:none;stroke-opacity:1;paint-order:fill markers stroke;stop-color:#000" transform="matrix(0 1.34393 -.93577 0 -9619.608 1400.226)"/><path d="M-306.69 169.659h37.175v12.644h-37.175z" style="fill:#7d7d7d;fill-opacity:1;stroke:#4d4d4d;stroke-width:2.67515;stroke-linecap:square;stroke-linejoin:miter;stroke-dasharray:none;stroke-opacity:1;paint-order:fill markers stroke;stop-color:#000" transform="matrix(0 1.34393 -.93577 0 -9619.608 1400.226)"/><path d="M-306.69 156.92h37.175v12.645h-37.175z" style="fill:#787878;fill-opacity:1;stroke:#4d4d4d;stroke-width:2.67515;stroke-linecap:square;stroke-linejoin:miter;stroke-dasharray:none;stroke-opacity:1;paint-order:fill markers stroke;stop-color:#000" transform="matrix(0 1.34393 -.93577 0 -9619.608 1400.226)"/><path d="M-306.69 144.183h37.175v12.643h-37.175z" style="fill:#737373;fill-opacity:1;stroke:#4d4d4d;stroke-width:2.67515;stroke-linecap:square;stroke-linejoin:miter;stroke-dasharray:none;stroke-opacity:1;paint-order:fill markers stroke;stop-color:#000" transform="matrix(0 1.34393 -.93577 0 -9619.608 1400.226)"/><path d="M-306.69 131.444h37.175v12.644h-37.175z" style="fill:#6e6e6e;fill-opacity:1;stroke:#4d4d4d;stroke-width:2.67515;stroke-linecap:square;stroke-linejoin:miter;stroke-dasharray:none;stroke-opacity:1;paint-order:fill markers stroke;stop-color:#000" transform="matrix(0 1.34393 -.93577 0 -9619.608 1400.226)"/><path d="M-306.69 118.706h37.175v12.644h-37.175z" style="fill:#696969;fill-opacity:1;stroke:#4d4d4d;stroke-width:2.67515;stroke-linecap:square;stroke-linejoin:miter;stroke-dasharray:none;stroke-opacity:1;paint-order:fill markers stroke;stop-color:#000" transform="matrix(0 1.34393 -.93577 0 -9619.608 1400.226)"/></g><g style="stroke-width:.954404" transform="matrix(-1.04777 0 0 1.04777 -9560.153 1926.455)"><rect width="343.38852" height="9.7219896" x="895.91614" y="159.84392" rx="2.0540483" ry="2.0540483" style="fill:#262626;fill-opacity:1;stroke:none;stroke-width:3.15037;stroke-linecap:square;stroke-linejoin:round;stroke-dasharray:none;stroke-opacity:1" transform="rotate(-90)"/><rect width="13.807254" height="5.4182892" x="-1019.5201" y="-167.50209" rx="0.60727" ry="0.60727" style="fill:#4f4f4f;fill-opacity:1;stroke:none;stroke-width:.426627;stroke-linecap:square;stroke-linejoin:round;stroke-dasharray:none;stroke-opacity:1" transform="rotate(90)"/><rect width="97.177025" height="2.3289483" x="-1118.4819" y="-167.593" rx="0.59564608" ry="0.59564614" style="fill:#4f4f4f;fill-opacity:1;stroke:none;stroke-width:.715706;stroke-linecap:square;stroke-linejoin:round;stroke-dasharray:none;stroke-opacity:1" transform="rotate(90)"/><rect width="97.177025" height="2.3289483" x="-1003.8476" y="-167.593" rx="0.59564608" ry="0.59564614" style="fill:#4f4f4f;fill-opacity:1;stroke:none;stroke-width:.715706;stroke-linecap:square;stroke-linejoin:round;stroke-dasharray:none;stroke-opacity:1" transform="rotate(90)"/></g><path d="M-9822.703 751.983h-119.804s-.01-.115 0-8.143h119.803z" style="fill:#4f4f4f;fill-opacity:1;stroke:#262626;stroke-width:2.44018;stroke-linecap:square;stroke-linejoin:round;stroke-dasharray:none;stroke-opacity:1" transform="translate(92.765)"/><path d="m-10028.085 629.003 206.585.083-.066 8.06h-198.376l.137 403.031h198.291v8.143h-206.435c0-96.614-.136-260.562-.136-419.317z" style="fill:#4f4f4f;fill-opacity:1;stroke:#262626;stroke-width:2.44018;stroke-linecap:square;stroke-linejoin:round;stroke-dasharray:none;stroke-opacity:1" transform="translate(92.765)"/><path d="M-9821.612 986.865h-98.471s-.01-.115 0-8.143h98.47z" style="fill:#4f4f4f;fill-opacity:1;stroke:#262626;stroke-width:2.44018;stroke-linecap:square;stroke-linejoin:round;stroke-dasharray:none;stroke-opacity:1" transform="translate(92.765)"/><path d="M630.272-9828.54h120.481v6.122H630.272z" style="fill:#4f4f4f;fill-opacity:1;stroke:none;stroke-width:2.14617;stroke-linecap:square;stop-color:#000" transform="matrix(0 1 1 0 92.765 0)"/></g><g style="stroke:#404040;stroke-width:2.6;stroke-dasharray:none;stroke-opacity:1" transform="matrix(-.678 0 0 .65937 -6205.822 -345.93)"><path d="M-9459.66 776.6h124.485v139.65h-124.485z" clip-path="url(#g)" style="fill:url(#h);stroke:#404040;stroke-width:2.6;stroke-dasharray:none;stroke-opacity:1"/><rect width="135.89333" height="152.45041" x="-9464.8877" y="769.38312" clip-path="url(#j)" rx="0" ry="0" style="fill:#000;fill-opacity:.3;stroke:#404040;stroke-width:2.6;stroke-dasharray:none;stroke-opacity:1"/></g><path d="M-8717.329 1197.257a23.46 23.46 0 0 0-23.458 23.458 23.46 23.46 0 0 0 23.458 23.458 23.46 23.46 0 0 0 23.458-23.458 23.46 23.46 0 0 0-23.458-23.458m.094 4.584a18.874 18.874 0 0 1 18.874 18.874 18.874 18.874 0 0 1-18.874 18.874 18.874 18.874 0 0 1-18.874-18.874 18.874 18.874 0 0 1 18.874-18.874" style="fill:#a3a3a3;fill-opacity:1;stroke:#404040;stroke-width:2.57634;stroke-linecap:round;stroke-linejoin:round;stroke-opacity:1;stop-color:#000" transform="matrix(.61807 0 0 .60108 5569.581 -521.522)"/><path d="M424.68 126.047h7.958v3.075h-7.959z" style="fill:#5e5e5e;fill-opacity:1;stroke:#161616;stroke-width:1.85208;stroke-linecap:round;stroke-linejoin:round;stroke-miterlimit:5;stroke-dasharray:none;stroke-opacity:1" transform="matrix(.16544 -.65495 .61744 .1755 24.841 468.974)"/><path d="M424.68 148.877h7.958v3.075h-7.959z" style="fill:#5e5e5e;fill-opacity:1;stroke:#161616;stroke-width:1.852;stroke-linecap:round;stroke-linejoin:round;stroke-miterlimit:5;stroke-dasharray:none;stroke-opacity:1" transform="matrix(.16544 -.65495 .61744 .1755 24.841 468.974)"/><path d="m419.261 132.377 4.069-1.403h14.109v16.051h-14.11l-4.068-1.403s-.831-2.873-.831-6.623.831-6.622.831-6.622" style="fill:#a3a3a3;fill-opacity:1;stroke:#595959;stroke-width:1.852;stroke-linecap:round;stroke-linejoin:round;stroke-miterlimit:5;stroke-opacity:1" transform="matrix(.16544 -.65495 .61744 .1755 24.841 468.974)"/><g style="stroke:#2e2825;stroke-opacity:1"><path d="M417.374 118.818h10.671m-10.671 4.94h10.671m-10.671 4.942h10.671" style="fill:#595959;fill-opacity:1;stroke:#595959;stroke-width:1.32292;stroke-linecap:round;stroke-linejoin:round;stroke-miterlimit:5;stroke-dasharray:none;stroke-opacity:1" transform="matrix(.16544 -.65495 .61744 .1755 35.316 467.437)"/></g><path d="M437.43 130.952h3.101v16.095h-3.102z" style="fill:#5e5e5e;fill-opacity:1;stroke:#262626;stroke-width:1.818;stroke-linecap:round;stroke-linejoin:round;stroke-miterlimit:5;stroke-dasharray:none;stroke-opacity:1" transform="matrix(.16544 -.65495 .61744 .1755 24.841 468.974)"/><path d="M436.517 130.046h1.17v17.906h-1.17z" style="fill:#262626;fill-opacity:1;stroke:none;stroke-width:4.93291;stroke-linecap:round;stroke-linejoin:round;stroke-miterlimit:5;stroke-dasharray:none;stroke-opacity:1" transform="matrix(.16544 -.65495 .61744 .1755 24.841 468.974)"/><g style="stroke:#404040;stroke-width:2.6;stroke-dasharray:none;stroke-opacity:1" transform="matrix(-.678 0 0 .65937 -5980.154 -345.93)"><path d="M-9459.66 776.6h124.485v139.65h-124.485z" clip-path="url(#g)" style="fill:url(#h);stroke:#404040;stroke-width:2.6;stroke-dasharray:none;stroke-opacity:1"/><rect width="135.89333" height="152.45041" x="-9464.8877" y="769.38312" clip-path="url(#j)" rx="0" ry="0" style="fill:#000;fill-opacity:.3;stroke:#404040;stroke-width:2.6;stroke-dasharray:none;stroke-opacity:1"/></g><path d="M-8717.329 1197.257a23.46 23.46 0 0 0-23.458 23.458 23.46 23.46 0 0 0 23.458 23.458 23.46 23.46 0 0 0 23.458-23.458 23.46 23.46 0 0 0-23.458-23.458m.094 4.584a18.874 18.874 0 0 1 18.874 18.874 18.874 18.874 0 0 1-18.874 18.874 18.874 18.874 0 0 1-18.874-18.874 18.874 18.874 0 0 1 18.874-18.874" style="fill:#a3a3a3;fill-opacity:1;stroke:#404040;stroke-width:2.57634;stroke-linecap:round;stroke-linejoin:round;stroke-opacity:1;stop-color:#000" transform="matrix(.61807 0 0 .60108 5795.249 -521.522)"/><path d="M424.68 126.047h7.958v3.075h-7.959z" style="fill:#5e5e5e;fill-opacity:1;stroke:#161616;stroke-width:1.85208;stroke-linecap:round;stroke-linejoin:round;stroke-miterlimit:5;stroke-dasharray:none;stroke-opacity:1" transform="matrix(.61744 -.1755 -.16544 -.65495 164.46 378.491)"/><path d="M424.68 148.877h7.958v3.075h-7.959z" style="fill:#5e5e5e;fill-opacity:1;stroke:#161616;stroke-width:1.852;stroke-linecap:round;stroke-linejoin:round;stroke-miterlimit:5;stroke-dasharray:none;stroke-opacity:1" transform="matrix(.61744 -.1755 -.16544 -.65495 164.46 378.491)"/><path d="m419.261 132.377 4.069-1.403h14.109v16.051h-14.11l-4.068-1.403s-.831-2.873-.831-6.623.831-6.622.831-6.622" style="fill:#a3a3a3;fill-opacity:1;stroke:#595959;stroke-width:1.852;stroke-linecap:round;stroke-linejoin:round;stroke-miterlimit:5;stroke-opacity:1" transform="matrix(.61744 -.1755 -.16544 -.65495 164.46 378.491)"/><g style="stroke:#2e2825;stroke-opacity:1"><path d="M417.374 118.818h10.671m-10.671 4.94h10.671m-10.671 4.942h10.671" style="fill:#595959;fill-opacity:1;stroke:#595959;stroke-width:1.32292;stroke-linecap:round;stroke-linejoin:round;stroke-miterlimit:5;stroke-dasharray:none;stroke-opacity:1" transform="matrix(.61744 -.1755 -.16544 -.65495 165.91 367.38)"/></g><path d="M437.43 130.952h3.101v16.095h-3.102z" style="fill:#5e5e5e;fill-opacity:1;stroke:#262626;stroke-width:1.818;stroke-linecap:round;stroke-linejoin:round;stroke-miterlimit:5;stroke-dasharray:none;stroke-opacity:1" transform="matrix(.61744 -.1755 -.16544 -.65495 164.46 378.491)"/><path d="M436.517 130.046h1.17v17.906h-1.17z" style="fill:#262626;fill-opacity:1;stroke:none;stroke-width:4.93291;stroke-linecap:round;stroke-linejoin:round;stroke-miterlimit:5;stroke-dasharray:none;stroke-opacity:1" transform="matrix(.61744 -.1755 -.16544 -.65495 164.46 378.491)"/><g style="stroke:#404040;stroke-width:2.6;stroke-dasharray:none;stroke-opacity:1" transform="matrix(-.678 0 0 .65937 -5719.532 -345.93)"><path d="M-9459.66 776.6h124.485v139.65h-124.485z" clip-path="url(#g)" style="fill:url(#h);stroke:#404040;stroke-width:2.6;stroke-dasharray:none;stroke-opacity:1"/><rect width="135.89333" height="152.45041" x="-9464.8877" y="769.38312" clip-path="url(#j)" rx="0" ry="0" style="fill:#000;fill-opacity:.3;stroke:#404040;stroke-width:2.6;stroke-dasharray:none;stroke-opacity:1"/></g><path d="M-8717.329 1197.257a23.46 23.46 0 0 0-23.458 23.458 23.46 23.46 0 0 0 23.458 23.458 23.46 23.46 0 0 0 23.458-23.458 23.46 23.46 0 0 0-23.458-23.458m.094 4.584a18.874 18.874 0 0 1 18.874 18.874 18.874 18.874 0 0 1-18.874 18.874 18.874 18.874 0 0 1-18.874-18.874 18.874 18.874 0 0 1 18.874-18.874" style="fill:#a3a3a3;fill-opacity:1;stroke:#404040;stroke-width:2.57634;stroke-linecap:round;stroke-linejoin:round;stroke-opacity:1;stop-color:#000" transform="matrix(.61807 0 0 .60108 6055.871 -521.522)"/><path d="M424.68 126.047h7.958v3.075h-7.959z" style="fill:#5e5e5e;fill-opacity:1;stroke:#161616;stroke-width:1.85208;stroke-linecap:round;stroke-linejoin:round;stroke-miterlimit:5;stroke-dasharray:none;stroke-opacity:1" transform="matrix(-.55359 -.33903 .31961 -.58721 861.726 440.049)"/><path d="M424.68 148.877h7.958v3.075h-7.959z" style="fill:#5e5e5e;fill-opacity:1;stroke:#161616;stroke-width:1.852;stroke-linecap:round;stroke-linejoin:round;stroke-miterlimit:5;stroke-dasharray:none;stroke-opacity:1" transform="matrix(-.55359 -.33903 .31961 -.58721 861.726 440.049)"/><path d="m419.261 132.377 4.069-1.403h14.109v16.051h-14.11l-4.068-1.403s-.831-2.873-.831-6.623.831-6.622.831-6.622" style="fill:#a3a3a3;fill-opacity:1;stroke:#595959;stroke-width:1.852;stroke-linecap:round;stroke-linejoin:round;stroke-miterlimit:5;stroke-opacity:1" transform="matrix(-.55359 -.33903 .31961 -.58721 861.726 440.049)"/><g style="stroke:#2e2825;stroke-opacity:1"><path d="M417.374 118.818h10.671m-10.671 4.94h10.671m-10.671 4.942h10.671" style="fill:#595959;fill-opacity:1;stroke:#595959;stroke-width:1.32292;stroke-linecap:round;stroke-linejoin:round;stroke-miterlimit:5;stroke-dasharray:none;stroke-opacity:1" transform="matrix(-.55359 -.33903 .31961 -.58721 863.037 428.92)"/></g><path d="M437.43 130.952h3.101v16.095h-3.102z" style="fill:#5e5e5e;fill-opacity:1;stroke:#262626;stroke-width:1.818;stroke-linecap:round;stroke-linejoin:round;stroke-miterlimit:5;stroke-dasharray:none;stroke-opacity:1" transform="matrix(-.55359 -.33903 .31961 -.58721 861.726 440.049)"/><path d="M436.517 130.046h1.17v17.906h-1.17z" style="fill:#262626;fill-opacity:1;stroke:none;stroke-width:4.93291;stroke-linecap:round;stroke-linejoin:round;stroke-miterlimit:5;stroke-dasharray:none;stroke-opacity:1" transform="matrix(-.55359 -.33903 .31961 -.58721 861.726 440.049)"/><g transform="matrix(.48196 0 0 -.51124 3912.9 572.478)"><rect width="40.014809" height="11.702641" x="-7632.5972" y="696.54645" rx="0" ry="0" style="fill:#333;fill-opacity:1;stroke:#1a1a1a;stroke-width:6;stroke-linecap:round;stroke-linejoin:round;stroke-dasharray:none;stroke-opacity:1;paint-order:stroke fill markers;stop-color:#000"/><ellipse cx="-702.34088" cy="-7602.2686" rx="3.8454595" ry="7.7480636" style="fill:#404040;fill-opacity:1;stroke:#242424;stroke-width:3;stroke-dasharray:none;stroke-opacity:1;paint-order:fill markers stroke;stop-color:#000" transform="rotate(-90)"/><ellipse cx="-702.34088" cy="-7622.8481" rx="3.8454595" ry="7.7480636" style="fill:#404040;fill-opacity:1;stroke:#242424;stroke-width:3;stroke-dasharray:none;stroke-opacity:1;paint-order:fill markers stroke;stop-color:#000" transform="rotate(-90)"/></g><g transform="matrix(.48196 0 0 .51124 4047.566 -399.45)"><rect width="40.014809" height="11.702641" x="-7632.5972" y="696.54645" rx="0" ry="0" style="fill:#333;fill-opacity:1;stroke:#1a1a1a;stroke-width:6;stroke-linecap:round;stroke-linejoin:round;stroke-dasharray:none;stroke-opacity:1;paint-order:stroke fill markers;stop-color:#000"/><ellipse cx="-702.34088" cy="-7602.2686" rx="3.8454595" ry="7.7480636" style="fill:#404040;fill-opacity:1;stroke:#242424;stroke-width:3;stroke-dasharray:none;stroke-opacity:1;paint-order:fill markers stroke;stop-color:#000" transform="rotate(-90)"/><ellipse cx="-702.34088" cy="-7622.8481" rx="3.8454595" ry="7.7480636" style="fill:#404040;fill-opacity:1;stroke:#242424;stroke-width:3;stroke-dasharray:none;stroke-opacity:1;paint-order:fill markers stroke;stop-color:#000" transform="rotate(-90)"/></g><g transform="matrix(.56666 0 0 -.60108 5591.634 225.607)"><rect width="16.679379" height="9.9535666" x="-8918.3262" y="-447.44666" rx="0" ry="0" style="fill:#333;fill-opacity:1;stroke:#1a1a1a;stroke-width:5.10324;stroke-linecap:round;stroke-linejoin:round;stroke-dasharray:none;stroke-opacity:1;paint-order:stroke fill markers;stop-color:#000" transform="scale(1 -1)"/><ellipse cx="442.51825" cy="-8910.0342" rx="3.2707179" ry="6.5900393" style="fill:#404040;fill-opacity:1;stroke:#242424;stroke-width:2.55162;stroke-dasharray:none;stroke-opacity:1;paint-order:fill markers stroke;stop-color:#000" transform="matrix(0 1 1 0 0 0)"/></g><g transform="matrix(.48196 0 0 .51124 4187.202 -399.45)"><rect width="40.014809" height="11.702641" x="-7632.5972" y="696.54645" rx="0" ry="0" style="fill:#333;fill-opacity:1;stroke:#1a1a1a;stroke-width:6;stroke-linecap:round;stroke-linejoin:round;stroke-dasharray:none;stroke-opacity:1;paint-order:stroke fill markers;stop-color:#000"/><ellipse cx="-702.34088" cy="-7602.2686" rx="3.8454595" ry="7.7480636" style="fill:#404040;fill-opacity:1;stroke:#242424;stroke-width:3;stroke-dasharray:none;stroke-opacity:1;paint-order:fill markers stroke;stop-color:#000" transform="rotate(-90)"/><ellipse cx="-702.34088" cy="-7622.8481" rx="3.8454595" ry="7.7480636" style="fill:#404040;fill-opacity:1;stroke:#242424;stroke-width:3;stroke-dasharray:none;stroke-opacity:1;paint-order:fill markers stroke;stop-color:#000" transform="rotate(-90)"/></g><g transform="matrix(.56666 0 0 -.60108 5480.524 225.607)"><rect width="16.679379" height="9.9535666" x="-8918.3262" y="-447.44666" rx="0" ry="0" style="fill:#333;fill-opacity:1;stroke:#1a1a1a;stroke-width:5.10324;stroke-linecap:round;stroke-linejoin:round;stroke-dasharray:none;stroke-opacity:1;paint-order:stroke fill markers;stop-color:#000" transform="scale(1 -1)"/><ellipse cx="442.51825" cy="-8910.0342" rx="3.2707179" ry="6.5900393" style="fill:#404040;fill-opacity:1;stroke:#242424;stroke-width:2.55162;stroke-dasharray:none;stroke-opacity:1;paint-order:fill markers stroke;stop-color:#000" transform="matrix(0 1 1 0 0 0)"/></g><g transform="matrix(.56666 0 0 -.60108 5822.646 225.607)"><rect width="16.679379" height="9.9535666" x="-8918.3262" y="-447.44666" rx="0" ry="0" style="fill:#333;fill-opacity:1;stroke:#1a1a1a;stroke-width:5.10324;stroke-linecap:round;stroke-linejoin:round;stroke-dasharray:none;stroke-opacity:1;paint-order:stroke fill markers;stop-color:#000" transform="scale(1 -1)"/><ellipse cx="442.51825" cy="-8910.0342" rx="3.2707179" ry="6.5900393" style="fill:#404040;fill-opacity:1;stroke:#242424;stroke-width:2.55162;stroke-dasharray:none;stroke-opacity:1;paint-order:fill markers stroke;stop-color:#000" transform="matrix(0 1 1 0 0 0)"/></g><g transform="matrix(.56666 0 0 -.60108 5807.91 225.607)"><rect width="16.679379" height="9.9535666" x="-8918.3262" y="-447.44666" rx="0" ry="0" style="fill:#333;fill-opacity:1;stroke:#1a1a1a;stroke-width:5.10324;stroke-linecap:round;stroke-linejoin:round;stroke-dasharray:none;stroke-opacity:1;paint-order:stroke fill markers;stop-color:#000" transform="scale(1 -1)"/><ellipse cx="442.51825" cy="-8910.0342" rx="3.2707179" ry="6.5900393" style="fill:#404040;fill-opacity:1;stroke:#242424;stroke-width:2.55162;stroke-dasharray:none;stroke-opacity:1;paint-order:fill markers stroke;stop-color:#000" transform="matrix(0 1 1 0 0 0)"/></g><g style="stroke:#404040;stroke-width:2.6;stroke-dasharray:none;stroke-opacity:1" transform="matrix(-.678 0 0 -.65937 -6205.822 518.96)"><path d="M-9459.66 776.6h124.485v139.65h-124.485z" clip-path="url(#g)" style="fill:url(#h);stroke:#404040;stroke-width:2.6;stroke-dasharray:none;stroke-opacity:1"/><rect width="135.89333" height="152.45041" x="-9464.8877" y="769.38312" clip-path="url(#j)" rx="0" ry="0" style="fill:#000;fill-opacity:.3;stroke:#404040;stroke-width:2.6;stroke-dasharray:none;stroke-opacity:1"/></g><path d="M-8717.329 1197.257a23.46 23.46 0 0 0-23.458 23.458 23.46 23.46 0 0 0 23.458 23.458 23.46 23.46 0 0 0 23.458-23.458 23.46 23.46 0 0 0-23.458-23.458m.094 4.584a18.874 18.874 0 0 1 18.874 18.874 18.874 18.874 0 0 1-18.874 18.874 18.874 18.874 0 0 1-18.874-18.874 18.874 18.874 0 0 1 18.874-18.874" style="fill:#a3a3a3;fill-opacity:1;stroke:#404040;stroke-width:2.57634;stroke-linecap:round;stroke-linejoin:round;stroke-opacity:1;stop-color:#000" transform="matrix(.61807 0 0 -.60108 5569.581 694.551)"/><path d="M424.68 126.047h7.958v3.075h-7.959z" style="fill:#5e5e5e;fill-opacity:1;stroke:#161616;stroke-width:1.85208;stroke-linecap:round;stroke-linejoin:round;stroke-miterlimit:5;stroke-dasharray:none;stroke-opacity:1" transform="matrix(.04897 .67606 .63735 -.05195 72.133 -322.172)"/><path d="M424.68 148.877h7.958v3.075h-7.959z" style="fill:#5e5e5e;fill-opacity:1;stroke:#161616;stroke-width:1.852;stroke-linecap:round;stroke-linejoin:round;stroke-miterlimit:5;stroke-dasharray:none;stroke-opacity:1" transform="matrix(.04897 .67606 .63735 -.05195 72.133 -322.172)"/><path d="m419.261 132.377 4.069-1.403h14.109v16.051h-14.11l-4.068-1.403s-.831-2.873-.831-6.623.831-6.622.831-6.622" style="fill:#a3a3a3;fill-opacity:1;stroke:#595959;stroke-width:1.852;stroke-linecap:round;stroke-linejoin:round;stroke-miterlimit:5;stroke-opacity:1" transform="matrix(.04897 .67606 .63735 -.05195 72.133 -322.172)"/><g style="stroke:#2e2825;stroke-opacity:1"><path d="M417.374 118.818h10.671m-10.671 4.94h10.671m-10.671 4.942h10.671" style="fill:#595959;fill-opacity:1;stroke:#595959;stroke-width:1.32292;stroke-linecap:round;stroke-linejoin:round;stroke-miterlimit:5;stroke-dasharray:none;stroke-opacity:1" transform="matrix(.04897 .67606 .63735 -.05195 82.162 -318.616)"/></g><path d="M437.43 130.952h3.101v16.095h-3.102z" style="fill:#5e5e5e;fill-opacity:1;stroke:#262626;stroke-width:1.818;stroke-linecap:round;stroke-linejoin:round;stroke-miterlimit:5;stroke-dasharray:none;stroke-opacity:1" transform="matrix(.04897 .67606 .63735 -.05195 72.133 -322.172)"/><path d="M436.517 130.046h1.17v17.906h-1.17z" style="fill:#262626;fill-opacity:1;stroke:none;stroke-width:4.93291;stroke-linecap:round;stroke-linejoin:round;stroke-miterlimit:5;stroke-dasharray:none;stroke-opacity:1" transform="matrix(.04897 .67606 .63735 -.05195 72.133 -322.172)"/><g style="stroke:#404040;stroke-width:2.6;stroke-dasharray:none;stroke-opacity:1" transform="matrix(-.678 0 0 -.65937 -5980.154 518.96)"><path d="M-9459.66 776.6h124.485v139.65h-124.485z" clip-path="url(#g)" style="fill:url(#h);stroke:#404040;stroke-width:2.6;stroke-dasharray:none;stroke-opacity:1"/><rect width="135.89333" height="152.45041" x="-9464.8877" y="769.38312" clip-path="url(#j)" rx="0" ry="0" style="fill:#000;fill-opacity:.3;stroke:#404040;stroke-width:2.6;stroke-dasharray:none;stroke-opacity:1"/></g><path d="M-8717.329 1197.257a23.46 23.46 0 0 0-23.458 23.458 23.46 23.46 0 0 0 23.458 23.458 23.46 23.46 0 0 0 23.458-23.458 23.46 23.46 0 0 0-23.458-23.458m.094 4.584a18.874 18.874 0 0 1 18.874 18.874 18.874 18.874 0 0 1-18.874 18.874 18.874 18.874 0 0 1-18.874-18.874 18.874 18.874 0 0 1 18.874-18.874" style="fill:#a3a3a3;fill-opacity:1;stroke:#404040;stroke-width:2.57634;stroke-linecap:round;stroke-linejoin:round;stroke-opacity:1;stop-color:#000" transform="matrix(.61807 0 0 -.60108 5795.249 694.551)"/><path d="M424.68 126.047h7.958v3.075h-7.959z" style="fill:#5e5e5e;fill-opacity:1;stroke:#161616;stroke-width:1.85208;stroke-linecap:round;stroke-linejoin:round;stroke-miterlimit:5;stroke-dasharray:none;stroke-opacity:1" transform="matrix(.16544 .65495 .61744 -.1755 250.34 -295.82)"/><path d="M424.68 148.877h7.958v3.075h-7.959z" style="fill:#5e5e5e;fill-opacity:1;stroke:#161616;stroke-width:1.852;stroke-linecap:round;stroke-linejoin:round;stroke-miterlimit:5;stroke-dasharray:none;stroke-opacity:1" transform="matrix(.16544 .65495 .61744 -.1755 250.34 -295.82)"/><path d="m419.261 132.377 4.069-1.403h14.109v16.051h-14.11l-4.068-1.403s-.831-2.873-.831-6.623.831-6.622.831-6.622" style="fill:#a3a3a3;fill-opacity:1;stroke:#595959;stroke-width:1.852;stroke-linecap:round;stroke-linejoin:round;stroke-miterlimit:5;stroke-opacity:1" transform="matrix(.16544 .65495 .61744 -.1755 250.34 -295.82)"/><g style="stroke:#2e2825;stroke-opacity:1"><path d="M417.374 118.818h10.671m-10.671 4.94h10.671m-10.671 4.942h10.671" style="fill:#595959;fill-opacity:1;stroke:#595959;stroke-width:1.32292;stroke-linecap:round;stroke-linejoin:round;stroke-miterlimit:5;stroke-dasharray:none;stroke-opacity:1" transform="matrix(.16544 .65495 .61744 -.1755 260.814 -294.283)"/></g><path d="M437.43 130.952h3.101v16.095h-3.102z" style="fill:#5e5e5e;fill-opacity:1;stroke:#262626;stroke-width:1.818;stroke-linecap:round;stroke-linejoin:round;stroke-miterlimit:5;stroke-dasharray:none;stroke-opacity:1" transform="matrix(.16544 .65495 .61744 -.1755 250.34 -295.82)"/><path d="M436.517 130.046h1.17v17.906h-1.17z" style="fill:#262626;fill-opacity:1;stroke:none;stroke-width:4.93291;stroke-linecap:round;stroke-linejoin:round;stroke-miterlimit:5;stroke-dasharray:none;stroke-opacity:1" transform="matrix(.16544 .65495 .61744 -.1755 250.34 -295.82)"/><g style="stroke:#404040;stroke-width:2.6;stroke-dasharray:none;stroke-opacity:1" transform="matrix(-.678 0 0 -.65937 -5719.532 518.96)"><path d="M-9459.66 776.6h124.485v139.65h-124.485z" clip-path="url(#g)" style="fill:url(#h);stroke:#404040;stroke-width:2.6;stroke-dasharray:none;stroke-opacity:1"/><rect width="135.89333" height="152.45041" x="-9464.8877" y="769.38312" clip-path="url(#j)" rx="0" ry="0" style="fill:#000;fill-opacity:.3;stroke:#404040;stroke-width:2.6;stroke-dasharray:none;stroke-opacity:1"/></g><path d="M-8717.329 1197.257a23.46 23.46 0 0 0-23.458 23.458 23.46 23.46 0 0 0 23.458 23.458 23.46 23.46 0 0 0 23.458-23.458 23.46 23.46 0 0 0-23.458-23.458m.094 4.584a18.874 18.874 0 0 1 18.874 18.874 18.874 18.874 0 0 1-18.874 18.874 18.874 18.874 0 0 1-18.874-18.874 18.874 18.874 0 0 1 18.874-18.874" style="fill:#a3a3a3;fill-opacity:1;stroke:#404040;stroke-width:2.57634;stroke-linecap:round;stroke-linejoin:round;stroke-opacity:1;stop-color:#000" transform="matrix(.61807 0 0 -.60108 6055.871 694.551)"/><g transform="matrix(.48196 0 0 .51124 3881.686 -399.45)"><rect width="40.014809" height="11.702641" x="-7632.5972" y="696.54645" rx="0" ry="0" style="fill:#333;fill-opacity:1;stroke:#1a1a1a;stroke-width:6;stroke-linecap:round;stroke-linejoin:round;stroke-dasharray:none;stroke-opacity:1;paint-order:stroke fill markers;stop-color:#000"/><ellipse cx="-702.34088" cy="-7602.2686" rx="3.8454595" ry="7.7480636" style="fill:#404040;fill-opacity:1;stroke:#242424;stroke-width:3;stroke-dasharray:none;stroke-opacity:1;paint-order:fill markers stroke;stop-color:#000" transform="rotate(-90)"/><ellipse cx="-702.34088" cy="-7622.8481" rx="3.8454595" ry="7.7480636" style="fill:#404040;fill-opacity:1;stroke:#242424;stroke-width:3;stroke-dasharray:none;stroke-opacity:1;paint-order:fill markers stroke;stop-color:#000" transform="rotate(-90)"/></g><g transform="matrix(.48196 0 0 -.51124 4478.286 542.565)"><rect width="40.014809" height="11.702641" x="-7632.5972" y="696.54645" rx="0" ry="0" style="fill:#333;fill-opacity:1;stroke:#1a1a1a;stroke-width:6;stroke-linecap:round;stroke-linejoin:round;stroke-dasharray:none;stroke-opacity:1;paint-order:stroke fill markers;stop-color:#000"/><ellipse cx="-702.34088" cy="-7602.2686" rx="3.8454595" ry="7.7480636" style="fill:#404040;fill-opacity:1;stroke:#242424;stroke-width:3;stroke-dasharray:none;stroke-opacity:1;paint-order:fill markers stroke;stop-color:#000" transform="rotate(-90)"/><ellipse cx="-702.34088" cy="-7622.8481" rx="3.8454595" ry="7.7480636" style="fill:#404040;fill-opacity:1;stroke:#242424;stroke-width:3;stroke-dasharray:none;stroke-opacity:1;paint-order:fill markers stroke;stop-color:#000" transform="rotate(-90)"/></g><g transform="matrix(.48196 0 0 -.51124 4478.286 348.467)"><rect width="40.014809" height="11.702641" x="-7632.5972" y="696.54645" rx="0" ry="0" style="fill:#333;fill-opacity:1;stroke:#1a1a1a;stroke-width:6;stroke-linecap:round;stroke-linejoin:round;stroke-dasharray:none;stroke-opacity:1;paint-order:stroke fill markers;stop-color:#000"/><ellipse cx="-702.34088" cy="-7602.2686" rx="3.8454595" ry="7.7480636" style="fill:#404040;fill-opacity:1;stroke:#242424;stroke-width:3;stroke-dasharray:none;stroke-opacity:1;paint-order:fill markers stroke;stop-color:#000" transform="rotate(-90)"/><ellipse cx="-702.34088" cy="-7622.8481" rx="3.8454595" ry="7.7480636" style="fill:#404040;fill-opacity:1;stroke:#242424;stroke-width:3;stroke-dasharray:none;stroke-opacity:1;paint-order:fill markers stroke;stop-color:#000" transform="rotate(-90)"/></g><g transform="matrix(0 -.60108 .56666 0 624.466 -5198.014)"><rect width="16.679379" height="9.9535666" x="-8898.4941" y="-441.83401" rx="0" ry="0" style="fill:#333;fill-opacity:1;stroke:#1a1a1a;stroke-width:5.10324;stroke-linecap:round;stroke-linejoin:round;stroke-dasharray:none;stroke-opacity:1;paint-order:stroke fill markers;stop-color:#000" transform="scale(1 -1)"/><ellipse cx="436.90561" cy="-8890.2021" rx="3.2707179" ry="6.5900393" style="fill:#404040;fill-opacity:1;stroke:#242424;stroke-width:2.55162;stroke-dasharray:none;stroke-opacity:1;paint-order:fill markers stroke;stop-color:#000" transform="matrix(0 1 1 0 0 0)"/><rect width="16.679379" height="9.9535666" x="-8898.4941" y="-461.29123" rx="0" ry="0" style="fill:#333;fill-opacity:1;stroke:#1a1a1a;stroke-width:5.10324;stroke-linecap:round;stroke-linejoin:round;stroke-dasharray:none;stroke-opacity:1;paint-order:stroke fill markers;stop-color:#000" transform="scale(1 -1)"/><ellipse cx="456.36282" cy="-8890.2021" rx="3.2707179" ry="6.5900393" style="fill:#404040;fill-opacity:1;stroke:#242424;stroke-width:2.55162;stroke-dasharray:none;stroke-opacity:1;paint-order:fill markers stroke;stop-color:#000" transform="matrix(0 1 1 0 0 0)"/></g><g transform="matrix(0 -.60108 .56666 0 624.466 -5317.667)"><rect width="16.679379" height="9.9535666" x="-8898.4941" y="-441.83401" rx="0" ry="0" style="fill:#333;fill-opacity:1;stroke:#1a1a1a;stroke-width:5.10324;stroke-linecap:round;stroke-linejoin:round;stroke-dasharray:none;stroke-opacity:1;paint-order:stroke fill markers;stop-color:#000" transform="scale(1 -1)"/><ellipse cx="436.90561" cy="-8890.2021" rx="3.2707179" ry="6.5900393" style="fill:#404040;fill-opacity:1;stroke:#242424;stroke-width:2.55162;stroke-dasharray:none;stroke-opacity:1;paint-order:fill markers stroke;stop-color:#000" transform="matrix(0 1 1 0 0 0)"/><rect width="16.679379" height="9.9535666" x="-8898.4941" y="-461.29123" rx="0" ry="0" style="fill:#333;fill-opacity:1;stroke:#1a1a1a;stroke-width:5.10324;stroke-linecap:round;stroke-linejoin:round;stroke-dasharray:none;stroke-opacity:1;paint-order:stroke fill markers;stop-color:#000" transform="scale(1 -1)"/><ellipse cx="456.36282" cy="-8890.2021" rx="3.2707179" ry="6.5900393" style="fill:#404040;fill-opacity:1;stroke:#242424;stroke-width:2.55162;stroke-dasharray:none;stroke-opacity:1;paint-order:fill markers stroke;stop-color:#000" transform="matrix(0 1 1 0 0 0)"/></g><path d="M-41.521-141.717h5.166v2.056h-5.166z" style="fill:#5e5e5e;fill-opacity:1;stroke:#161616;stroke-width:1.22012;stroke-linecap:round;stroke-linejoin:round;stroke-miterlimit:5;stroke-dasharray:none;stroke-opacity:1" transform="matrix(-.85278 .52226 .47806 .87833 698.886 97.765)"/><path d="M-41.521-126.453h5.166v2.056h-5.166z" style="fill:#5e5e5e;fill-opacity:1;stroke:#161616;stroke-width:1.22007;stroke-linecap:round;stroke-linejoin:round;stroke-miterlimit:5;stroke-dasharray:none;stroke-opacity:1" transform="matrix(-.85278 .52226 .47806 .87833 698.886 97.765)"/><path d="m-27.318-144.278-2.701.555-7.81 4.783 5.13 9.426 7.81-4.783 1.804-2.204s-.458-1.969-1.656-4.17c-1.199-2.202-2.577-3.607-2.577-3.607" style="fill:#a3a3a3;fill-opacity:1;stroke:#595959;stroke-width:1.21927;stroke-linecap:round;stroke-linejoin:round;stroke-miterlimit:5;stroke-opacity:1" transform="translate(698.886 97.765)"/><g style="stroke:#2e2825;stroke-opacity:1"><path d="M417.374 118.818h10.671m-10.671 4.94h10.671m-10.671 4.942h10.671" style="fill:#595959;fill-opacity:1;stroke:#595959;stroke-width:1.32292;stroke-linecap:round;stroke-linejoin:round;stroke-miterlimit:5;stroke-dasharray:none;stroke-opacity:1" transform="matrix(-.55359 .33903 .31961 .58721 862.667 -255.258)"/></g><path d="M-33.244-138.437h2.013v10.76h-2.013z" style="fill:#5e5e5e;fill-opacity:1;stroke:#262626;stroke-width:1.19767;stroke-linecap:round;stroke-linejoin:round;stroke-miterlimit:5;stroke-dasharray:none;stroke-opacity:1" transform="matrix(-.85278 .52226 .47806 .87833 698.886 97.765)"/><path d="M-33.836-139.043h.759v11.971h-.76z" style="fill:#262626;fill-opacity:1;stroke:none;stroke-width:3.24972;stroke-linecap:round;stroke-linejoin:round;stroke-miterlimit:5;stroke-dasharray:none;stroke-opacity:1" transform="matrix(-.85278 .52226 .47806 .87833 698.886 97.765)"/></svg>