<svg xmlns="http://www.w3.org/2000/svg" xmlns:xlink="http://www.w3.org/1999/xlink" width="302.44824mm" height="244.23065mm" viewBox="0 0 604.8965 488.46129"><defs><pattern xlink:href="#a" id="f" patternTransform="translate(-9927.475 628.492)scale(.2628)"/><pattern id="a" width="725.10954" height="1336.2128" patternTransform="translate(-37456.064 2369.919)" patternUnits="userSpaceOnUse"><path d="M0 0v779.581h725.11V0Z" style="fill:url(#b);stroke:none;stroke-width:1.01989"/><path d="M-3915.527-742.233h28.337v29.51h-28.337zm-.008-31.151h28.337v29.51h-28.337zm.011 62.527h28.336v29.51h-28.336zm-.001 31.331h28.336v29.51h-28.336zm-.005 31.302h28.337v29.51h-28.337zm30.072-94.006h28.337v29.51h-28.337zm-.008-31.151h28.337v29.51h-28.337zm.012 62.527h28.337v29.51h-28.337zm-.002 31.331h28.337v29.51h-28.337zm-.004 31.302h28.337v29.51h-28.337zm30.042-94.011h28.337v29.51h-28.337zm-.007-31.151h28.337v29.51h-28.337zm.011 62.527h28.337v29.51h-28.337zm-.002 31.331h28.337v29.51h-28.337zm-.004 31.301h28.338v29.51h-28.337zm30.071-94.005h28.337v29.51h-28.337zm-.006-31.151h28.336v29.51h-28.337zm.01 62.527h28.337v29.51h-28.337zm-.001 31.331h28.337v29.51h-28.337zm-.004 31.302h28.336v29.509h-28.337z" style="fill:#595959;fill-opacity:1;stroke:#3e3e3e;stroke-width:1.99855;stroke-dasharray:none;stroke-opacity:1;paint-order:fill markers stroke;stop-color:#000" transform="rotate(-90 -6602.74 -10186.592)scale(4.62796)"/></pattern><pattern xlink:href="#c" id="b" patternTransform="translate(.001 -334.94)scale(1.01989)"/><pattern id="c" width="710.96689" height="1092.7848" patternTransform="translate(-37446.871 2057.37)" patternUnits="userSpaceOnUse"><path d="M-1088.215 145.89h128.584v133.906h-128.584zm-.035-141.356h128.584V138.44h-128.584zm.049 283.731h128.583V422.17H-1088.2zm-.005 142.171h128.584v133.906h-128.584zm-.019 142.035h128.584v133.906h-128.584zm136.455-426.566h128.585v133.906H-951.77zm-.034-141.355h128.584v133.905h-128.584zm.051 283.726h128.584v133.906h-128.584zm-.009 142.175h128.584v133.906h-128.584zm-.014 142.031h128.584v133.906h-128.584zm136.32-426.588h128.584V279.8h-128.584zm-.035-141.356h128.584v133.906h-128.584zm.051 283.727h128.584V422.17H-815.44zm-.01 142.171h128.585v133.906H-815.45zm-.016 142.035h128.584v133.906h-128.584zm136.458-426.566h128.584v133.906h-128.584zM-679.04 4.55h128.583v133.905H-679.04zm.046 283.73h128.584v133.905h-128.584zm-.004 142.171h128.583v133.906h-128.583zm-.019 142.035h128.584v133.906h-128.584zm136.679-426.556h128.584v133.907h-128.584zm-.035-141.355h128.584v133.906h-128.584zm.049 283.727h128.584v133.906h-128.584zm-.005 142.171h128.584V564.38h-128.584zm-.021 142.035h128.585v133.906H-542.35zm136.458-426.566h128.584v133.906h-128.584zm-.035-141.356h128.584v133.906h-128.584zm.052 283.73h128.584v133.906h-128.584zm-.01 142.172H-277.3v133.906h-128.584zm-.015 142.035h128.583v133.906H-405.9zm136.321-426.593h128.584v133.907h-128.584zm-.032-141.355h128.584v133.906h-128.584zm.051 283.73h128.584v133.906H-269.56zm-.01 142.172h128.585v133.906H-269.57zm-.015 142.035h128.583v133.906h-128.583zm136.45-426.566H-4.55v133.906h-128.584zm-.03-141.356H-4.58v133.906h-128.584zm.047 283.73H-4.534v133.906h-128.584zm-.005 142.172H-4.539v133.906h-128.584zm-.021 142.035H-4.56v133.906h-128.584z" style="fill:#595959;fill-opacity:1;stroke:#3e3e3e;stroke-width:9.06879;stroke-dasharray:none;stroke-opacity:1;paint-order:fill markers stroke;stop-color:#000" transform="rotate(-90)"/></pattern><pattern xlink:href="#d" id="h" patternTransform="matrix(.26007 0 0 .2477 -9459.66 776.6)"/><pattern xlink:href="#e" id="d" patternTransform="matrix(.3032 0 0 .28878 -9459.66 776.6)"/><pattern id="e" width="44.13185" height="44.130772" patternTransform="translate(-8952.829 11274.059)" patternUnits="userSpaceOnUse"><path d="M-2710.991-5339.069h11.676v11.676h-11.676z" style="fill:#8c8c8c;fill-opacity:1;stroke:none;stroke-width:2.878;stroke-linecap:square;stroke-linejoin:miter;stroke-dasharray:none;stroke-opacity:1;stop-color:#000" transform="rotate(-90 4988.52 -15190.65)scale(3.77953)"/><path fill="#d9d9d9" d="M-5339.07 2705.16c2.567-2.588 2.781-4.665 2.781-4.665s-1.137.119-2.78 1.222zm5.792 3.995a13 13 0 0 1 1.543 1.836h-3.469c-2.564-2.585-2.778-4.66-2.778-4.66s2.098.22 4.704 2.824m-1.932-9.84h3.47c1.164 1.693 1.285 2.876 1.285 2.876s-2.148-.27-4.754-2.876m7.816 2.4v3.436c-2.606 2.607-4.755 2.874-4.755 2.874s.22-2.101 2.826-4.707a13 13 0 0 1 1.929-1.603" style="fill:#a6a6a6;fill-opacity:1;stroke-width:.264583" transform="translate(20179.16 -10202.134)scale(3.77953)"/></pattern><clipPath id="g" clipPathUnits="userSpaceOnUse"><circle cx="-9421.1309" cy="-846.45837" r="17.305702" style="fill:#595959;fill-opacity:1;stroke:#595959;stroke-width:3;stroke-linecap:round;stroke-linejoin:round;stroke-opacity:1;stop-color:#000" transform="scale(1 -1)"/></clipPath><clipPath id="j" clipPathUnits="userSpaceOnUse"><circle cx="-9421.1309" cy="-846.45837" r="17.305702" style="fill:#595959;fill-opacity:1;stroke:#595959;stroke-width:3;stroke-linecap:round;stroke-linejoin:round;stroke-opacity:1;stop-color:#000" transform="scale(1 -1)"/></clipPath></defs><g style="stroke-width:.995151"><path d="M-3340.235 20.026c-130.367 0-236.05 128.098-236.05 286.116 0 191.53 161.484 283.508 236.05 283.508 76.763 0 236.05-84.53 236.05-283.508.001-158.018-105.683-286.116-236.05-286.116zm-158.064 286.667h319.8v82.703h-319.8z" style="fill:#551b1b;fill-opacity:1;stroke:#2e0000;stroke-width:5.3097;stroke-linecap:square;stroke-linejoin:miter;stroke-dasharray:none;stroke-opacity:1;paint-order:fill markers stroke;stop-color:#000" transform="matrix(0 1.00489 1.00486 0 420.853 3601.406)"/><path d="M-3340.198 55.404c-124.568 0-225.55-602.408-225.55 261.19 0 137.36 124.068 261.19 225.55 261.19 101.865 0 225.55-119.037 225.55-261.19 0-773.548-100.982-261.19-225.55-261.19zm-151.033 261.694h305.575v75.498h-305.575z" style="fill:#1c1c1c;fill-opacity:1;stroke:#0d0d0d;stroke-width:5.3097;stroke-linecap:square;stroke-linejoin:miter;stroke-dasharray:none;stroke-opacity:1;paint-order:fill markers stroke;stop-color:#000" transform="matrix(0 1.00489 1.00486 0 420.853 3601.406)"/><g style="stroke-width:.995151"><path d="M-3576.085-1025.897h471.69v1364.08h-471.69z" style="opacity:1;fill:#661f1f;fill-opacity:1;stroke:#2e0000;stroke-width:5.50418;stroke-linecap:round;stroke-linejoin:round;stroke-dasharray:none;stroke-opacity:1;stop-color:#000" transform="matrix(0 1.0051 .9657 0 390.489 3602.104)"/><path d="M-3565.437-1026.79h450.648V338.202h-450.648z" style="opacity:1;fill:#262626;fill-opacity:1;stroke:#0d0d0d;stroke-width:5.50443;stroke-linecap:round;stroke-linejoin:miter;stroke-dasharray:none;stroke-opacity:1;stop-color:#000" transform="matrix(0 1.0051 .9657 0 390.489 3602.104)"/><path d="M-3552.776-1025.981h424.62V338.234h-424.62z" style="fill:#376242;fill-opacity:1;stroke:#0d0d0d;stroke-width:5.60418;stroke-linecap:square;stroke-linejoin:miter;stroke-dasharray:none;stroke-opacity:1;paint-order:fill markers stroke;stop-color:#000" transform="matrix(0 1.0051 .9657 0 390.489 3602.104)"/><path d="M3132.506-1015.574h415.966V337.527h-415.966z" style="fill:#3a553a;fill-opacity:1;stroke:#1a2d1f;stroke-width:5.60418;stroke-linecap:square;stroke-linejoin:miter;stroke-dasharray:none;stroke-opacity:1;paint-order:fill markers stroke;stop-color:#000" transform="matrix(0 -1.0051 .9657 0 390.489 3602.104)"/><g transform="matrix(1.0051 0 0 -.9657 11312.384 1634.416)"><rect width="446.47147" height="191.40971" x="-1661.4604" y="-11626.048" ry="0" style="fill:#000;fill-opacity:.1;stroke:none;stroke-width:10.8877;stroke-linecap:square;stroke-linejoin:miter;stroke-dasharray:none;stroke-opacity:1;paint-order:fill markers stroke;stop-color:#000" transform="rotate(-90)"/><rect width="446.47147" height="189.17603" x="-1661.4604" y="-11279.283" ry="0" style="fill:#000;fill-opacity:.1;stroke:none;stroke-width:10.8239;stroke-linecap:square;stroke-linejoin:miter;stroke-dasharray:none;stroke-opacity:1;paint-order:fill markers stroke;stop-color:#000" transform="rotate(-90)"/><rect width="446.47147" height="180.24132" x="-1661.4604" y="-10925.314" ry="0" style="fill:#000;fill-opacity:.1;stroke:none;stroke-width:10.5653;stroke-linecap:square;stroke-linejoin:miter;stroke-dasharray:none;stroke-opacity:1;paint-order:fill markers stroke;stop-color:#000" transform="rotate(-90)"/><path d="M-10799.78 1403.816c-2.155 6.522-7.17 11.425-11.914 16.17-1.135 1.135-1.994 2.64-3.405 3.404-7.242 3.923-16.835 3.685-22.552-2.553-2.535-2.766-3.31-6.455-4.681-9.787-1.848-4.488-5.344-11.218-8.937-14.468-8.522-7.71-15.278-5.602-17.446-19.148-1.106-6.914 3.677-14.102 7.234-19.574 2.43-3.74 4.972-8.659 8.51-11.49 3.407-2.725 8.65-2.946 12.766-3.404 10.524-1.169 19.13-.285 28.511 4.681 2.274 1.205 6.93 3.726 8.509 5.532 2.415 2.76 1.802 9.78 1.703 12.766-.213 6.38-1.479 12.06-2.553 18.297-.365 2.115-.484 4.268-.852 6.383-.298 1.718-1.592 6.23-.851 8.085.459 1.144 3.811 1.028 4.681 1.276 2.13.609 7.491 3.236 8.936 4.681" style="fill:#292929;fill-opacity:.88;stroke:none;stroke-width:4;stroke-linecap:round;stroke-linejoin:round;stroke-dasharray:none;stroke-opacity:1;paint-order:stroke fill markers;stop-color:#000"/><rect width="446.47147" height="113.9044" x="-1661.4604" y="-10570.465" ry="0" style="fill:#000;fill-opacity:.1;stroke:none;stroke-width:10.5653;stroke-linecap:square;stroke-linejoin:miter;stroke-dasharray:none;stroke-opacity:1;paint-order:fill markers stroke;stop-color:#000" transform="rotate(-90)"/></g><path d="M-3581.073-1028.438h101.694l76.686-77.744h124.328l76.687 77.744h101.95v18.747h-481.345z" style="fill:#591c1c;fill-opacity:1;stroke:#2e0000;stroke-width:4.48017;stroke-linecap:square;stroke-linejoin:miter;stroke-dasharray:none;stroke-opacity:1;paint-order:fill markers stroke;stop-color:#000" transform="matrix(0 1.0051 .9657 0 390.489 3602.104)"/></g><path d="M-3127.9 295.144v-.06zm-.046.344h-425.05c-.023-3.69-.117 2.83-.117-2.554 0 153.766 118.259 267.828 212.342 267.828 94.72 0 212.825-112.28 212.825-265.274z" style="fill:#3b6947;fill-opacity:1;stroke:#0d0d0d;stroke-width:5.67734;stroke-linecap:square;stroke-linejoin:miter;stroke-dasharray:none;stroke-opacity:1;paint-order:fill markers stroke;stop-color:#000" transform="matrix(0 1.00489 1.00486 0 420.853 3601.406)"/><path d="M-3132.514 293.93c-43.612 1.486-414.13.127-415.977.077 0 151.504 115.702 261.291 207.751 261.291 92.674 0 208.226-110.626 208.226-261.369z" style="fill:#3b6947;fill-opacity:1;stroke:#101e15;stroke-width:5.67734;stroke-linecap:square;stroke-linejoin:miter;stroke-dasharray:none;stroke-opacity:1;paint-order:fill markers stroke;stop-color:#000" transform="matrix(0 1.00489 1.00486 0 420.853 3601.406)"/><path d="M-3505.753 293.73h10.276v48.644l21.922 23.948v102.313l-11.303-15.875v-79.702l-21.652-23.652v-55.675z" style="fill:#31573b;fill-opacity:1;stroke:none;stroke-width:3;stroke-linecap:round;stroke-linejoin:round;stroke-dasharray:none;stroke-opacity:1;paint-order:stroke fill markers;stop-color:#000" transform="matrix(0 1.00489 1.00486 0 420.853 3601.406)"/><path d="M-3505.753 293.73h10.276v48.644l21.922 23.948v102.313l-11.303-15.875v-79.702l-21.652-23.652v-55.675z" style="fill:#e3c852;fill-opacity:1;stroke:none;stroke-width:3;stroke-linecap:round;stroke-linejoin:round;stroke-dasharray:none;stroke-opacity:1;paint-order:stroke fill markers;stop-color:#000" transform="matrix(0 1.00489 1.00486 0 420.853 3601.406)"/><path d="M-3506.51 293.73h11.033v16.465c-.236.073-.615.155-1.226.257-1.841.307-8.515.323-9.682 1.49-.484.484 4.937 5.351 4.469 5.585-.458.229-1.005.21-1.49.372-1.006.336-1.986.745-2.979 1.117l-.125.048zm0 45.404c.01-.276.024-.523.044-.718s.047-.339.082-.409c.028-.055.09-.055.16-.041s.15.041.212.041c1.486 0 2.99-.018 4.489-.12 1.497-.102 2.989-.288 4.448-.624q.378-.089.779-.224.4-.136.82-.314v5.65l21.922 23.947v53.563l-11.304-11.826v-35.001l-21.652-23.652v-11.73c.084-.675.126-1.34.126-1.903 0-.618-.086 7.83-.126 5.964v-1.301zm21.651 101.163c2.066-1.936 3.265-7.224 6.029-6.219 1.043.38 2.167.733 2.979 1.49.794.741 1.557 2.106 2.296 3.255v29.812l-11.304-15.875z" style="fill:#e3c852;fill-opacity:1;stroke:none;stroke-width:3;stroke-linecap:round;stroke-linejoin:round;stroke-dasharray:none;stroke-opacity:1;paint-order:stroke fill markers;stop-color:#000" transform="matrix(0 1.00489 1.00486 0 420.853 3601.406)"/></g><path d="M-1207.245 120.897H89.744v9.643h-1296.989z" style="fill:#e3c852;fill-opacity:1;stroke:none;stroke-width:3.00001;stroke-linecap:round;stroke-linejoin:round;stroke-dasharray:none;stroke-opacity:1;paint-order:stroke fill markers;stop-color:#000" transform="matrix(1 0 0 -1 623.99 187.05)"/><g style="stroke-width:1.23352" transform="translate(7147.809 -459.523)scale(.81069)"><rect width="25.69507" height="25.69507" x="-7820.6621" y="683.41388" rx="0" ry="0" style="fill:#666;fill-opacity:1;stroke:#333;stroke-width:7.40109;stroke-linecap:round;stroke-linejoin:round;stroke-dasharray:none;stroke-opacity:1;paint-order:stroke fill markers;stop-color:#000"/><circle cx="-695.94653" cy="-7807.894" r="9.5573559" style="fill:gray;fill-opacity:1;stroke:#262626;stroke-width:3.70055;stroke-dasharray:none;stroke-opacity:1;paint-order:fill markers stroke;stop-color:#000" transform="rotate(-90)"/></g><g transform="matrix(1 0 0 -1 8361.167 1128.568)"><rect width="42.065331" height="20.830765" x="-7633.854" y="688.2782" rx="0" ry="0" style="fill:#666;fill-opacity:1;stroke:#333;stroke-width:6;stroke-linecap:round;stroke-linejoin:round;stroke-dasharray:none;stroke-opacity:1;paint-order:stroke fill markers;stop-color:#000"/><circle cx="-698.43829" cy="-7602.2686" r="7.7480636" style="fill:gray;fill-opacity:1;stroke:#262626;stroke-width:3;stroke-dasharray:none;stroke-opacity:1;paint-order:fill markers stroke;stop-color:#000" transform="rotate(-90)"/><circle cx="-698.43829" cy="-7622.8481" r="7.7480636" style="fill:gray;fill-opacity:1;stroke:#262626;stroke-width:3;stroke-dasharray:none;stroke-opacity:1;paint-order:fill markers stroke;stop-color:#000" transform="rotate(-90)"/></g><g transform="translate(8361.167 -639.413)"><rect width="42.065331" height="20.830765" x="-7633.854" y="688.2782" rx="0" ry="0" style="fill:#666;fill-opacity:1;stroke:#333;stroke-width:6;stroke-linecap:round;stroke-linejoin:round;stroke-dasharray:none;stroke-opacity:1;paint-order:stroke fill markers;stop-color:#000"/><circle cx="-698.43829" cy="-7602.2686" r="7.7480636" style="fill:gray;fill-opacity:1;stroke:#262626;stroke-width:3;stroke-dasharray:none;stroke-opacity:1;paint-order:fill markers stroke;stop-color:#000" transform="rotate(-90)"/><circle cx="-698.43829" cy="-7622.8481" r="7.7480636" style="fill:gray;fill-opacity:1;stroke:#262626;stroke-width:3;stroke-dasharray:none;stroke-opacity:1;paint-order:fill markers stroke;stop-color:#000" transform="rotate(-90)"/></g><path d="M92.019 223.445v-10.292h48.644l23.947-21.956h102.31l-15.875 11.321h-79.7l-23.651 21.685H92.02Z" style="fill:#31573b;fill-opacity:1;stroke:none;stroke-width:3;stroke-linecap:round;stroke-linejoin:round;stroke-dasharray:none;stroke-opacity:1;paint-order:stroke fill markers;stop-color:#000" transform="translate(623.99 187.05)"/><path d="M92.019 223.445v-10.292h48.644l23.947-21.956h102.31l-15.875 11.321h-79.7l-23.651 21.685H92.02Z" style="fill:#e3c852;fill-opacity:1;stroke:none;stroke-width:3;stroke-linecap:round;stroke-linejoin:round;stroke-dasharray:none;stroke-opacity:1;paint-order:stroke fill markers;stop-color:#000" transform="translate(623.99 187.05)"/><path d="m164.61 191.197-9.05 8.297c.92.927 2.053 2.072 2.28 2.282 1.6 1.477 3.199 3.189 5.239 4.116.718.326 1.539.395 2.245.748q.475.24.955.523l5.066-4.645h32.69l.55-1.992c0-.353-.315-.9 0-1.058.294.44.529 1.27 1.323.793.273-.163.346-.534.529-.793 1.873-2.654 2.84-4.908 6.086-5.557.697-.14 1.453-.52 2.116-.264.958.368 2.318 4.259 3.705 3.704.997-.399 1.068-1.069 1.852-1.852 1.5-1.502 3.8-3.52 6.14-3.554.335-.01.67.031 1.003.114 1.224.306 1.537 3.971 2.382 5.027 1.312 1.641.259-.064 2.116 1.588.426.378 2.217 2.928 2.382 3.175.128.192.269.42.42.67h16.406l15.875-11.322zm-12.487 11.449-11.46 10.507h-7.368c-.626 1.026 2.982 7.373 2.433 8.473-.213.425-.38.873-.53 1.323-.03.084.08.304 0 .265-1.588-.794-6.858-8.608-8.002-10.061h-1.944c-.663.474.933 2.207.42 2.719-.486.487-.835 1.1-1.322 1.587-.06.062-.248.087-.264 0 0-2.15-4.084-2.353-6.038-4.306H92.02v11.05h55.673l14.04-12.874c-.762-1.438-1.841-2.784-3.145-3.566-1.822-1.093-3.823-.637-5.24-2.62-.565-.792-.938-1.633-1.226-2.497z" style="fill:#e3c852;fill-opacity:1;stroke:none;stroke-width:3;stroke-linecap:round;stroke-linejoin:round;stroke-dasharray:none;stroke-opacity:1;paint-order:stroke fill markers;stop-color:#000" transform="translate(623.99 187.05)"/><g style="stroke-width:1.23352" transform="matrix(.8107 0 0 -.8107 7147.809 948.677)"><rect width="25.69507" height="25.69507" x="-7820.6621" y="683.41388" rx="0" ry="0" style="fill:#666;fill-opacity:1;stroke:#333;stroke-width:7.40109;stroke-linecap:round;stroke-linejoin:round;stroke-dasharray:none;stroke-opacity:1;paint-order:stroke fill markers;stop-color:#000"/><circle cx="-695.94653" cy="-7807.894" r="9.5573559" style="fill:gray;fill-opacity:1;stroke:#262626;stroke-width:3.70055;stroke-dasharray:none;stroke-opacity:1;paint-order:fill markers stroke;stop-color:#000" transform="rotate(-90)"/></g><g style="stroke-width:1.08232" transform="matrix(0 -.92415 .92374 0 128.22 -995.498)"><path d="M-1407.016 788.93h24.341v39.387h-24.341zm106.266 0h24.342v39.387h-24.342zm-121.608-82.576h161.665v69.694h-161.665z" style="fill:#666;fill-opacity:1;stroke:#333;stroke-width:3.78812;stroke-linecap:round;stroke-linejoin:round;stroke-dasharray:none;stroke-opacity:1;stop-color:#000"/><path d="M748.608-1431.95h10.123v180.6h-10.123z" style="fill:gray;fill-opacity:1;stroke:#262626;stroke-width:3.78812;stroke-linecap:round;stroke-linejoin:round;stroke-dasharray:none;stroke-opacity:1;stop-color:#000" transform="matrix(0 1 1 0 0 0)"/><path d="M-1354.1 714.037h24.342v54.394h-24.342z" style="fill:#b3b3b3;fill-opacity:1;stroke:#474747;stroke-width:3.78812;stroke-linecap:round;stroke-linejoin:round;stroke-dasharray:none;stroke-opacity:1;stop-color:#000"/><path d="M-1449.86 743.085h30.87v20.954h-30.87z" style="fill:#b3b3b3;fill-opacity:1;stroke:#474747;stroke-width:3.7881;stroke-linecap:round;stroke-linejoin:round;stroke-dasharray:none;stroke-opacity:1;stop-color:#000"/><path d="M1232.948 743.085h30.87v20.954h-30.87z" style="fill:#b3b3b3;fill-opacity:1;stroke:#474747;stroke-width:3.7881;stroke-linecap:round;stroke-linejoin:round;stroke-dasharray:none;stroke-opacity:1;stop-color:#000" transform="scale(-1 1)"/><path d="M-1400.64 735.633h13.097v35.546h-13.096z" style="fill:#383838;fill-opacity:1;stroke:#262626;stroke-width:3.7881;stroke-linecap:round;stroke-linejoin:round;stroke-dasharray:none;stroke-opacity:1;stop-color:#000"/><path d="M-1396.35 735.932h4.49v124.975h-4.49z" style="fill:#262626;fill-opacity:1;stroke:none;stroke-width:3.7881;stroke-linecap:round;stroke-linejoin:round;stroke-dasharray:none;stroke-opacity:1;stop-color:#000"/><path d="M1282.553 735.633h13.096v35.546h-13.096z" style="fill:#383838;fill-opacity:1;stroke:#262626;stroke-width:3.7881;stroke-linecap:round;stroke-linejoin:round;stroke-dasharray:none;stroke-opacity:1;stop-color:#000" transform="scale(-1 1)"/><path d="M1286.843 735.932h4.49v124.975h-4.49z" style="fill:#262626;fill-opacity:1;stroke:none;stroke-width:3.7881;stroke-linecap:round;stroke-linejoin:round;stroke-dasharray:none;stroke-opacity:1;stop-color:#000" transform="scale(-1 1)"/><path d="M-1413.875 714.037h8.271v54.394h-8.27z" style="fill:#b3b3b3;fill-opacity:1;stroke:#4d4d4d;stroke-width:3.78812;stroke-linecap:round;stroke-linejoin:round;stroke-dasharray:none;stroke-opacity:1;stop-color:#000"/><ellipse cx="-1394.7615" cy="851.29266" rx="10.693154" ry="10.672626" style="fill:gray;fill-opacity:1;stroke:#262626;stroke-width:3.78812;stroke-linecap:round;stroke-dasharray:none;stroke-opacity:1;stop-color:#000"/><ellipse cx="-1288.4951" cy="851.29266" rx="10.693154" ry="10.672626" style="fill:gray;fill-opacity:1;stroke:#262626;stroke-width:3.78812;stroke-linecap:round;stroke-dasharray:none;stroke-opacity:1;stop-color:#000"/><path d="M-1277.272 714.037h8.27v54.394h-8.27z" style="fill:#b3b3b3;fill-opacity:1;stroke:#4d4d4d;stroke-width:3.78812;stroke-linecap:round;stroke-linejoin:round;stroke-dasharray:none;stroke-opacity:1;stop-color:#000"/></g><g style="stroke-width:1.23352" transform="matrix(.8107 0 0 -.8107 7198.762 809.333)"><rect width="25.69507" height="25.69507" x="-7820.6621" y="683.41388" rx="0" ry="0" style="fill:#666;fill-opacity:1;stroke:#333;stroke-width:7.40109;stroke-linecap:round;stroke-linejoin:round;stroke-dasharray:none;stroke-opacity:1;paint-order:stroke fill markers;stop-color:#000"/><circle cx="-695.94653" cy="-7807.894" r="9.5573559" style="fill:gray;fill-opacity:1;stroke:#262626;stroke-width:3.70055;stroke-dasharray:none;stroke-opacity:1;paint-order:fill markers stroke;stop-color:#000" transform="rotate(-90)"/></g><path d="M-1207.528 235.98H89.744v9.642h-1297.272z" style="fill:#e3c852;fill-opacity:1;stroke:none;stroke-width:3.00001;stroke-linecap:round;stroke-linejoin:round;stroke-dasharray:none;stroke-opacity:1;paint-order:stroke fill markers;stop-color:#000" transform="translate(623.99 187.05)"/><path d="M-1207.528 235.98H89.744v9.642h-1297.272z" style="fill:#000;fill-opacity:.11;stroke:none;stroke-width:3.00001;stroke-linecap:round;stroke-linejoin:round;stroke-dasharray:none;stroke-opacity:1;paint-order:stroke fill markers;stop-color:#000" transform="translate(623.99 187.05)"/><path d="M-1207.526 235.98v9.642c57.288-11.386 171.043-1.003 215.894-1.003.368-.184.663-.679.935-.935.319-.3 1.564-1.488 2.15-1.684.249-.082.917 2.131 1.124 2.339.148.148.387-.165.56-.28.943-.629 1.912-1.217 3.088-1.217.523 0 .469.058.655.468.1.216.187.436.28.655.09.28.16.571.28.841.06.135.266.455.477.816h232.173c.04-.09.1-.156.143-.25.295-.631.478-1.31.662-1.984.08-.3-.147-1.065.132-.926.318.16-.02.737.132 1.059.214.455.536.873.926 1.19 1.923 1.562 5.363.03 6.747-1.323 1.017-.993 1.466-2.44 2.117-3.704.348-.676 1.036-2.175 1.756-3.705h-131.26c-.201.385-.415.762-.6 1.158-.365.787-.61 1.627-.935 2.432-.83 2.052-.354.881-1.216 2.432-.04.07-.388.88-.467.842-.315-.158-.543-2.666-1.03-3.274-.137-.172-.326-.298-.467-.468-.272-.327-.192-.414-.655-.094-.384.266-.742.57-1.122.842-.08.06-.355.384-.562.28-.03-.013.01-.065 0-.093-.624-1.25-.976-2.41-1.403-3.742 0-.01-.08-.238-.11-.314zm487.282 0c-.08 1.52-.375 3.065-.683 4.233-.813 3.076-.997 3.699-2.107 5.409h148.55c-.05-.036-.08-.082-.13-.117-2.024-1.503-3.498-2.146-5.687-3.44-.01 0 .597.01.66 0 .268-.027.533-.076.795-.132 1.633-.35 1.26-.42 3.44-1.058s3.887-.963 5.662-.992c1.38-.022 2.804.135 4.524.463 2.979.567 5.669 1.212 8.73 1.587 2.506.307 5.025.487 7.542.662 1.194.083 3.468-.283 4.63.132.419.15 5.009 2.556 5.16 2.646.155.092.232.16.373.249h121.763c.02-.394.05-.781.1-1.175.1-.686.68.575.979 1.175h.648c.345-.51.748-1.296.755-1.308.867-1.348 1.844-2.84 3.308-3.572.23-.115.467.105.66.133a3.8 3.8 0 0 0 1.589-.133c.273-.09 1.476-.71 2.022-.723.1 0 .18.016.226.062.113.112-.152.285-.264.397-.491.49-1.186.733-1.72 1.19-.304.261-2.431 2.78-2.96 3.954h63.336c1.143-.29 2.343-.39 3.476-.629 3.434-.723 6.473-2.677 10.103-1.87.577.128 1.109.417 1.683.561 1.102.275 2.815.418 3.929 0 1.24-.465 1.28-1.025 2.994-1.31.334-.056.674-.043 1.015-.025-.137-.04-.34-.13-1.39-.349-2.49-.519-4.987-1.007-7.483-1.496-6.711-1.316-3.31-.453-9.73-2.058-1.447-.362-6.392-1.42-8.91-2.466h-95.485c-.54.835-.906 1.822-1.455 2.646-.07.11-.28.06-.397 0-.04-.02-.03-.101 0-.132s.132.044.132 0c0-.062-.1-.08-.132-.132-.168-.253-.907-1.63-1.058-1.72-.147-.088-.61.046-.794 0-.191-.048-.335-.233-.53-.265-.381-.064-.967-.045-1.322.132-.103.052-.381.414-.53.265-.03-.03.02-.093 0-.132-.114-.23-.292-.427-.396-.662zm410.896 0c-.493.09-.532.062-1.282.22-2.072.436-4.126.958-6.174 1.497-.351.092-1.297.525-.935.56.62.063 1.249-.047 1.87 0 3.087.238 3.016.353 5.987 1.31q1.409.454 2.807.936c.69.24 1.37.503 2.058.749 1.235.44 3.298.398 3.555 1.684.1.493-.833.589-1.31.748-2.044.681-4.114 1.284-6.166 1.938h84.4c.156-.1.367-.118.498-.25.03-.03-.03-.1 0-.132.06-.062.202.062.265 0 .07-.066.07-.198.132-.264.03-.027 1.447-.362 1.588-.397.286-.072.31-.265.529-.397.75-.45 1.425-.888 1.984-1.587.06-.077.06-.195.132-.265.07-.07.206-.053.265-.132.08-.112.07-.272.132-.397.239-.478.646-.874.926-1.323.41-.656.693-1.376 1.19-1.984 1.6-1.956-.411.976 1.456-1.72.298-.43.394-.585.53-.795zm96.67 0c-.306.813-.693 1.634-1.043 1.984a7 7 0 0 1-.794.662c-.2.15-.86.365-1.058.529-.495.412-.382.835-.662 1.323-.11.191-.29.336-.396.53-.761 1.368-.534 3.086-.646 4.614h98.956c.32-.296.63-.621.954-.816.527-.316.918-.07 1.496-.187.659-.131.978-.825 1.497-1.122.392-.224.764-.316 1.11-.307 1.04.03 1.849.97 2.258 1.99.06.164.1.293.147.442h63.36c.01-.47.03-.858.103-1.003 0 0 .854-.325.936-.374.597-.359 1.243-.603 1.94-.602q.24 0 .492.04c.68.114.904.64 1.496.936.309.154.36-.104.749.187.184.138.522.47.833.815H89.744v-9.642H17.473c1.023.55 2.22.93 2.962 1.324 1.033.546.776 1.603.662 2.513-.212 1.699-.116 1.01-.53 2.25-.07.212-.06.447-.132.66-.152.459-1.293-.228-1.455-.264-.172-.038-.353 0-.53 0-.967 0-1.206.306-1.851 1.058-.144.168-.2.43-.397.53-.125.061-.265-.086-.397-.133-.486-.173-.953-.41-1.455-.529-.258-.061-.53 0-.794 0-.803 0-1.681-.375-2.381-.662-.456-.186-.867-.473-1.323-.66-.13-.054-1.336-.217-.794-.398 1.017-.339 2.304-1.097 3.175-1.72.08-.056.728-.364.529-.661-.174-.261-1.073.25-1.19.132-.21-.209-.25-.537-.397-.794-.241-.422-.586-.983-.926-1.322-.01-.014-.532.16-.662.264-.124.1-.17.27-.264.397-.121.161-.348.174-.53.265-.752.376.33-.116-.661.132-.06.015-.08.104-.132.132-.243.122-.892-.446-1.058-.529-.381-.19-.212.72-.53.53-.571-.344-1.853-2.06-2.381-1.985-.278.04-.902.673-1.191.529-.298-.15-.59-.594-.89-1.059H-.07c-.166.186-.296.437-.528.53-.603.24-1.28-.096-1.896-.53h-113.504q-.292.68-.62 1.343c-.203.406-.515 1.73-1.31.935-.277-.277-.714-1.43-1.071-2.278h-1.934c-.206.15-.495.336-.55.408-.727.97-.64.499-1.38-.408z" style="fill:#d1b747;fill-opacity:1;stroke:none;stroke-width:3.00001;stroke-linecap:round;stroke-linejoin:round;stroke-dasharray:none;stroke-opacity:1;paint-order:stroke fill markers;stop-color:#000" transform="translate(623.99 187.05)"/><path d="M-1207.245 120.897H89.744v9.643h-1296.989z" style="fill:#000;fill-opacity:.11;stroke:none;stroke-width:3.00001;stroke-linecap:round;stroke-linejoin:round;stroke-dasharray:none;stroke-opacity:1;paint-order:stroke fill markers;stop-color:#000" transform="matrix(1 0 0 -1 623.99 187.05)"/><path d="M-1207.243-130.54v9.643h542.537c-1.585-.604-3.15-1.392-4.513-1.854-.731-.247-1.476-.447-2.22-.655-.305-.086-.648-.072-.926-.227-.415-.23.866-.415 1.332-.505 3.828-.742 2.675-.22 7.346-1 2.089-.348 4.163-.782 6.23-1.234.357-.077 1.319-.47.959-.52-.617-.089-1.25-.01-1.87-.08-3.072-.368-2.997-.479-5.924-1.562q-1.388-.512-2.765-1.053c-.68-.268-1.348-.56-2.024-.835-.117-.047-.277-.077-.406-.118h-88.643c-.01 0 .08-.149-.637.802-.473.625-.324.62-.843 1.156-.446.46-.918.716-1.372 1.134-.148.135-.995.876-1.09.88h.01-.01c-.14-.155.03-.786.05-1.058.03-.655.722-2.116 1.31-2.914h-88.25c.225.19.444.387.666.58l-13.641 3.73c.517-.933.732-2.012 1.248-2.944.268-.483.609-.92.937-1.366h-125.7l-17.007 4.23-.08.02c.302-.278.01-.014.08-.02.04 0 .22-.104.735-.476.431-.31.816-.68 1.235-1.007.42-.328 3.595-2.68 3.68-2.747zm550.138 0c.172.062.23.1.945.28 2.466.625 4.94 1.218 7.414 1.813 6.649 1.598 3.287.592 9.633 2.467 1.674.495 8.31 2.152 9.967 3.419.82.628-.586 1.37-.437 1.479.1.072.232.12.339.185h104.036c.154-.265.298-.541.476-.784.08-.107.28-.047.396.016.03.02.02.102-.01.132-.03.029-.132-.05-.132-.01 0 .062.09.085.126.138.05.074.176.3.28.504h102.949c-1.397-.181-2.79-.39-4.19-.547-1.19-.133-3.476.136-4.62-.328-.412-.167-4.895-2.766-5.042-2.862-1.737-1.136-2.452-2.004-4.06-2.733l-4.102.327c1.183-.233 1.905-1.187 3.52-.571.209.079.4.161.583.244l21.327-1.7c5.358 2.369 10.889 2.475 16.559 2.952l-.925-.039c-.09.033.06.191.12.27.319.425.648.844 1.008 1.235.443.482.888.97 1.397 1.383 1.233.998 2.31 1.68 3.435 2.37h145.575c-.49-.063-.983-.112-1.463-.227-2.154-.513-4.26-1.222-6.415-1.728-1.518-.356-3.06-.611-4.598-.857-1.262-.2-1.29.182-.518-.286l55.346 2.08c-1.956-.041-3.884.367-5.81.68-.645.105-1.28.235-1.924.337h107.368c1.075-1.454 2.09-2.951 2.924-4.566.399-.771.678-1.6 1.038-2.39.917-2.015.392-.866 1.318-2.378.02-.026.11-.16.189-.309H-556.93c-.06.55-.11 1.105-.214 1.66-.154.83-1.01-1.514-1.122-1.637-.21-.228-1.25 1.651-1.262 1.669-.924 1.31-1.962 2.759-3.456 3.428-.235.106-.462-.124-.655-.16a3.8 3.8 0 0 0-1.592.065c-.277.08-1.504.647-2.051.637-.101 0-.18-.024-.224-.072-.107-.117.164-.277.28-.385.513-.47 1.217-.681 1.77-1.116.34-.268 2.96-3.115 3.242-4.089zm554.542 0c.185.811.339 2.332.683 2.802.13.177.314.312.448.487.258.338.174.422.65.121.395-.25.765-.537 1.157-.793.09-.056.37-.369.573-.257.03.015-.01.066 0 .094.57 1.275.874 2.45 1.243 3.798.02.058.678 2.407.844 2.19.287-.38.398-.928.799-1.184.163-.107.12.376.163.569.134.604.257 1.21.384 1.816H39.74c-.215-.395-.475-.9-.491-.93-.233-.414-.457-.834-.695-1.246-.07-.305-.384-.432-.534-.678a.57.57 0 0 1-.08-.284c0-.031.06-.01.09 0 .44.146.84.405 1.289.523 4.735 1.248.142-.056 3.718.625.565.108 1.1.343 1.667.445.8.144 1.613.206 2.422.29 1.739.181 3.478.375 5.222.502.87.063 1.748.034 2.617.111.312.027.619.104.93.133.528.048 1.063 0 1.589.068.777.093 1.386.689 2.142.278.08-.042.114-.143.195-.18.06-.025.125.02.187.01.375-.076.474-.31.682-.626-.3.626-.514.969-.513.957h29.564v-9.642zm-554.564 9.228c-.387.02-.721.067-.924.158-.184.082-.334.17-.5.257h6.59c-.01 0-.09-.013-.101-.014-3.61-.233 1.374-.168-2.242-.271-.02 0-1.661-.19-2.823-.13" style="fill:#d1b747;fill-opacity:1;stroke:none;stroke-width:3.00001;stroke-linecap:round;stroke-linejoin:round;stroke-dasharray:none;stroke-opacity:1;paint-order:stroke fill markers;stop-color:#000" transform="translate(623.99 187.05)"/><path d="M92.12 266.532c1.495-43.825.129-416.154.08-418.01 152.24 0 262.562 116.268 262.562 208.767 0 93.127-111.165 209.243-262.64 209.243z" style="fill:none;fill-opacity:1;stroke:#101e15;stroke-width:5.705;stroke-linecap:square;stroke-linejoin:miter;stroke-dasharray:none;stroke-opacity:1;paint-order:fill markers stroke;stop-color:#000" transform="translate(623.99 187.05)"/><path d="m237.444 230.657-3.848 2.221-13.267-29.86 19.224 26.421-2.11 1.218zm59.598-45.235-3.141 3.141-20.544-25.408 25.407 20.545zm40.694-55.922-2.221 3.848-26.42-19.225 29.859 13.268zm19.931-73.079v4.443l-32.493-3.44 32.493-3.438zm-19.931-71.178-2.221-3.848L309.095.621l29.859-13.27zm-40.694-55.405-3.141-3.141-20.544 25.408 25.407-20.545zm-59.598-45.441-3.848-2.221-13.267 29.86 19.224-26.421-2.11-1.218zM167.885 259.54l-4.292 1.15-5.086-32.277 11.73 30.496zm0-404.025-4.292-1.15-5.086 32.276 11.73-30.496z" style="fill:#1c1c1c;fill-opacity:1;stroke:#0d0d0d;stroke-width:9.00004;stroke-linecap:round;stroke-linejoin:round;stroke-dasharray:none;stroke-opacity:1;paint-order:stroke fill markers;stop-color:#000" transform="translate(623.99 187.05)"/><path d="m-7965.6 668.245-.307 1.083 1.65 1.598 14.209-3.8.821-1.365-5.287.047.163-.571z" style="fill:#4d4d4d;fill-opacity:1;stroke:#333;stroke-width:1.5;stroke-linecap:square;stroke-linejoin:round;stroke-dasharray:none;stroke-opacity:1;stop-color:#000" transform="rotate(-8.633 -7650.552 -56587.974)"/><path d="m-7965.6 668.245-.307 1.083 1.65 1.598 14.209-3.8.821-1.365-5.287.047.163-.571z" style="opacity:.15;fill:#000;fill-opacity:1;stroke:#000;stroke-width:1.5;stroke-linecap:square;stroke-linejoin:round;stroke-dasharray:none;stroke-opacity:1;stop-color:#000" transform="rotate(-8.633 -7650.552 -56587.974)"/><path d="M-1226.773-184.346v102.581l-74.978 76.974v124.83l74.977 76.974V299.63h18.196v-483.976z" style="fill:none;fill-opacity:1;stroke:#2e0000;stroke-width:4.34859;stroke-linecap:square;stroke-linejoin:miter;stroke-dasharray:none;stroke-opacity:1;paint-order:fill markers stroke;stop-color:#000" transform="translate(623.99 187.05)"/><path d="M-281.897-82.348h3.606v276.066h-3.606z" style="fill:#737373;fill-opacity:1;stroke:#404040;stroke-width:1.52497;stroke-dasharray:none;stroke-opacity:1;paint-order:fill markers stroke;stop-color:#000" transform="matrix(0 -1 -1 0 623.99 187.05)"/><path d="M63.977 274.815h5.609v8.996h-5.609zm-81.283 0h5.608v8.996h-5.608zm-67.904 0h5.608v8.996h-5.608zm219.604 0h5.609v8.996h-5.609zm54.902 0h5.608v8.996h-5.608z" style="fill:#661f1f;fill-opacity:1;stroke:#2e0000;stroke-width:2.5;stroke-linecap:round;stroke-linejoin:round;stroke-dasharray:none;stroke-opacity:1;stop-color:#000" transform="matrix(-1 0 0 1 623.99 187.05)"/><path d="M-281.804 259.65h3.606v512.074h-3.606z" style="fill:#737373;fill-opacity:1;stroke:#404040;stroke-width:1.52497;stroke-dasharray:none;stroke-opacity:1;paint-order:fill markers stroke;stop-color:#000" transform="matrix(0 -1 -1 0 623.99 187.05)"/><path d="M402.982 274.815h5.608v8.996h-5.608zm-75.671 0h5.608v8.996h-5.608zm-70.523 0h5.608v8.996h-5.608zm219.748 0h5.608v8.996h-5.608zm217.753 0h5.608v8.996h-5.608zm-75.671 0h5.608v8.996h-5.608zm-70.524 0h5.609v8.996h-5.609zm219.748 0h5.609v8.996h-5.609z" style="fill:#661f1f;fill-opacity:1;stroke:#2e0000;stroke-width:2.5;stroke-linecap:round;stroke-linejoin:round;stroke-dasharray:none;stroke-opacity:1;stop-color:#000" transform="matrix(-1 0 0 1 623.99 187.05)"/><path d="M-281.723 839.064h3.607v360.817h-3.607z" style="fill:#737373;fill-opacity:1;stroke:#404040;stroke-width:1.52497;stroke-dasharray:none;stroke-opacity:1;paint-order:fill markers stroke;stop-color:#000" transform="matrix(0 -1 -1 0 623.99 187.05)"/><path d="M985.39 274.815h5.607v8.996h-5.608zm-81.285 0h5.608v8.996h-5.608zm-67.903 0h5.608v8.996h-5.608zm219.603 0h5.608v8.996h-5.608zm71.305 0h5.61v8.996h-5.61zm70.115 0h5.608v8.996h-5.608z" style="fill:#661f1f;fill-opacity:1;stroke:#2e0000;stroke-width:2.5;stroke-linecap:round;stroke-linejoin:round;stroke-dasharray:none;stroke-opacity:1;stop-color:#000" transform="matrix(-1 0 0 1 623.99 187.05)"/><path d="M-166.732-83.022h3.606v1284.129h-3.606z" style="fill:#737373;fill-opacity:1;stroke:#404040;stroke-width:1.52497;stroke-dasharray:none;stroke-opacity:1;paint-order:fill markers stroke;stop-color:#000" transform="rotate(90 218.47 405.52)"/><path d="M814.902 159.713h5.608v8.996h-5.608zm-74.083 0h5.608v8.996h-5.608zm-69.994 0h5.608v8.996h-5.608zm214.455 0h5.609v8.996h-5.608zm236.275 0h5.608v8.996h-5.608zm-81.492 0h5.608v8.996h-5.608zm-76.873 0h5.608v8.996h-5.608zm234.035 0h5.608v8.996h-5.608z" style="fill:#661f1f;fill-opacity:1;stroke:#2e0000;stroke-width:2.5;stroke-linecap:round;stroke-linejoin:round;stroke-dasharray:none;stroke-opacity:1;stop-color:#000" transform="rotate(180 311.995 93.525)"/><path d="M-85.21-168.637h5.608v8.995h-5.608z" style="fill:#661f1f;fill-opacity:1;stroke:#2e0000;stroke-width:2.5;stroke-linecap:round;stroke-linejoin:round;stroke-dasharray:none;stroke-opacity:1;stop-color:#000" transform="matrix(-1 0 0 1 623.99 187.05)"/><path d="M208.167 159.713h5.608v8.996h-5.608zm-77.787 0h5.608v8.996h-5.608zm-72.64 0h5.608v8.996H57.74zm228.213 0h5.609v8.996h-5.609zm231.512 0h5.608v8.996h-5.608zm-78.846 0h5.608v8.996h-5.608zm-77.932 0h5.608v8.996h-5.608zm233.507 0h5.608v8.996h-5.608zm-607.484 0h5.609v8.996h-5.608z" style="fill:#661f1f;fill-opacity:1;stroke:#2e0000;stroke-width:2.5;stroke-linecap:round;stroke-linejoin:round;stroke-dasharray:none;stroke-opacity:1;stop-color:#000" transform="rotate(180 311.995 93.525)"/><g transform="matrix(.85054 0 0 -.85054 6374.756 1053.064)"><rect width="40.014809" height="11.702641" x="-7632.5972" y="696.54645" rx="0" ry="0" style="fill:#333;fill-opacity:1;stroke:#1a1a1a;stroke-width:6;stroke-linecap:round;stroke-linejoin:round;stroke-dasharray:none;stroke-opacity:1;paint-order:stroke fill markers;stop-color:#000"/><ellipse cx="-702.34088" cy="-7602.2686" rx="3.8454595" ry="7.7480636" style="fill:#404040;fill-opacity:1;stroke:#242424;stroke-width:3;stroke-dasharray:none;stroke-opacity:1;paint-order:fill markers stroke;stop-color:#000" transform="rotate(-90)"/><ellipse cx="-702.34088" cy="-7622.8481" rx="3.8454595" ry="7.7480636" style="fill:#404040;fill-opacity:1;stroke:#242424;stroke-width:3;stroke-dasharray:none;stroke-opacity:1;paint-order:fill markers stroke;stop-color:#000" transform="rotate(-90)"/></g><g transform="translate(9165.804 13.177)"><rect width="16.679379" height="9.9535666" x="-8918.3262" y="-447.44666" rx="0" ry="0" style="fill:#333;fill-opacity:1;stroke:#1a1a1a;stroke-width:5.10324;stroke-linecap:round;stroke-linejoin:round;stroke-dasharray:none;stroke-opacity:1;paint-order:stroke fill markers;stop-color:#000" transform="scale(1 -1)"/><ellipse cx="442.51825" cy="-8910.0342" rx="3.2707179" ry="6.5900393" style="fill:#404040;fill-opacity:1;stroke:#242424;stroke-width:2.55162;stroke-dasharray:none;stroke-opacity:1;paint-order:fill markers stroke;stop-color:#000" transform="matrix(0 1 1 0 0 0)"/></g><g transform="matrix(.85054 0 0 -.85054 6656.097 1053.064)"><rect width="40.014809" height="11.702641" x="-7632.5972" y="696.54645" rx="0" ry="0" style="fill:#333;fill-opacity:1;stroke:#1a1a1a;stroke-width:6;stroke-linecap:round;stroke-linejoin:round;stroke-dasharray:none;stroke-opacity:1;paint-order:stroke fill markers;stop-color:#000"/><ellipse cx="-702.34088" cy="-7602.2686" rx="3.8454595" ry="7.7480636" style="fill:#404040;fill-opacity:1;stroke:#242424;stroke-width:3;stroke-dasharray:none;stroke-opacity:1;paint-order:fill markers stroke;stop-color:#000" transform="rotate(-90)"/><ellipse cx="-702.34088" cy="-7622.8481" rx="3.8454595" ry="7.7480636" style="fill:#404040;fill-opacity:1;stroke:#242424;stroke-width:3;stroke-dasharray:none;stroke-opacity:1;paint-order:fill markers stroke;stop-color:#000" transform="rotate(-90)"/></g><g transform="translate(8895.874 13.177)"><rect width="16.679379" height="9.9535666" x="-8918.3262" y="-447.44666" rx="0" ry="0" style="fill:#333;fill-opacity:1;stroke:#1a1a1a;stroke-width:5.10324;stroke-linecap:round;stroke-linejoin:round;stroke-dasharray:none;stroke-opacity:1;paint-order:stroke fill markers;stop-color:#000" transform="scale(1 -1)"/><ellipse cx="442.51825" cy="-8910.0342" rx="3.2707179" ry="6.5900393" style="fill:#404040;fill-opacity:1;stroke:#242424;stroke-width:2.55162;stroke-dasharray:none;stroke-opacity:1;paint-order:fill markers stroke;stop-color:#000" transform="matrix(0 1 1 0 0 0)"/></g><g transform="translate(9518.333 13.177)"><rect width="16.679379" height="9.9535666" x="-8918.3262" y="-447.44666" rx="0" ry="0" style="fill:#333;fill-opacity:1;stroke:#1a1a1a;stroke-width:5.10324;stroke-linecap:round;stroke-linejoin:round;stroke-dasharray:none;stroke-opacity:1;paint-order:stroke fill markers;stop-color:#000" transform="scale(1 -1)"/><ellipse cx="442.51825" cy="-8910.0342" rx="3.2707179" ry="6.5900393" style="fill:#404040;fill-opacity:1;stroke:#242424;stroke-width:2.55162;stroke-dasharray:none;stroke-opacity:1;paint-order:fill markers stroke;stop-color:#000" transform="matrix(0 1 1 0 0 0)"/></g><g transform="translate(9492.328 13.177)"><rect width="16.679379" height="9.9535666" x="-8918.3262" y="-447.44666" rx="0" ry="0" style="fill:#333;fill-opacity:1;stroke:#1a1a1a;stroke-width:5.10324;stroke-linecap:round;stroke-linejoin:round;stroke-dasharray:none;stroke-opacity:1;paint-order:stroke fill markers;stop-color:#000" transform="scale(1 -1)"/><ellipse cx="442.51825" cy="-8910.0342" rx="3.2707179" ry="6.5900393" style="fill:#404040;fill-opacity:1;stroke:#242424;stroke-width:2.55162;stroke-dasharray:none;stroke-opacity:1;paint-order:fill markers stroke;stop-color:#000" transform="matrix(0 1 1 0 0 0)"/></g><g transform="matrix(1 0 0 -1 9332.549 1083.56)"><path d="M-1038.25-9924.617h57.99v96.518h-57.99z" style="fill:#595959;fill-opacity:1;stroke:#3e3e3e;stroke-width:2.84938;stroke-dasharray:none;stroke-opacity:1;paint-order:fill markers stroke;stop-color:#000" transform="rotate(-90)"/><path d="M-9927.475 628.492h190.564V979.66h-190.564z" style="fill:url(#f);stroke:none;stroke-width:.262807"/><path d="M-9826.54 710.924c3.226 3.332 6.583 24.76 9.016 25.385 3.978 1.024 9.696 0 13.789 0 3.112 0 6.463.28 9.546 0 3.187-.29 5.906-1.922 9.016-2.456 1.23-.21 2.522.525 3.712 0 .76-.336 1.354-1.343 2.12-1.64.687-.263 1.427.197 2.122 0 2.7-.755 5.386-1.786 7.955-3.273 4.129-2.391 10.593-8.988 13.788-13.922 2.787-4.3.972-11.268 1.592-16.376 3.828-31.524-.136 13.954 2.121-13.92.405-5.005 1.596-15.551-1.06-19.653-1.999-3.086-5.096-1.737-7.425-2.457-4.34.4-7.678-4.412-11.667-5.731-2.329-.772-12.233-.315-13.79 1.636-1.866 2.341-2.834 5.998-4.242 9.008-.723 1.548-8.274 17.635-9.016 18.016-.335.172-.706 0-1.06 0-.53.546-1.02 1.197-1.591 1.637-2.598 2.006-5.097-5.414-6.364-7.37-.87-1.345-10.7-13.322-11.667-13.92-1.798-1.111-10.717-3.513-12.198-2.458-3.993 2.847-1.876 3.264-2.121 5.734-.977 9.804-1.717 17.265 1.59 26.203.555 1.498 1.981 2.712 2.653 4.094.805 1.66-.052 2.752.53 4.095.219.507.731.48 1.06.819 1.271 1.306 1.334 5.16 1.591 6.549" style="opacity:.8;fill:#333;fill-opacity:1;stroke:none;stroke-width:2.18285;stroke-linecap:square;stroke-linejoin:round;stroke-dasharray:none;stroke-opacity:1;paint-order:fill markers stroke;stop-color:#000"/><path d="M-9809.714 664.384c.963 2.792 1.582 6.97 3.707 9.069 1.282 1.267 5.467 1.638 6.353-.697.158-.417-.195-1.008 0-1.396.814-1.61 2.362-2.575 3.177-4.186.804-1.59-.677-7.557-1.06-9.068-.347-1.376.491-3.593 0-4.883-.518-1.37-2.084-2.093-3.176-2.093-.352 0-.81-.329-1.059 0-.21.278-1.493 4.26-1.588 4.884-.104.684.129 1.415 0 2.092-.542 2.854-2.772 1.692-3.177 2.093-1.198 1.184-2.118 2.79-3.177 4.185" style="opacity:.8;fill:#333;fill-opacity:1;stroke:none;stroke-width:2.18285;stroke-linecap:square;stroke-linejoin:round;stroke-dasharray:none;stroke-opacity:1;paint-order:fill markers stroke;stop-color:#000"/><g transform="translate(-11.256 127.22)"><g style="opacity:.82" transform="rotate(-90 -6135.001 2618.407)scale(1.19032)"><path d="M-3571.555-931.788h5.064v49.118h-5.064z" style="opacity:1;fill:#383838;fill-opacity:1;stroke:none;stroke-width:2.11016;stroke-linecap:round;stroke-linejoin:round;stroke-dasharray:none;stroke-opacity:1"/><path d="M-922.142 3555.88h4.66v26.03h-4.66z" style="opacity:1;fill:#383838;fill-opacity:1;stroke:none;stroke-width:2.24738;stroke-linecap:round;stroke-linejoin:round;stroke-dasharray:none;stroke-opacity:1" transform="rotate(90)"/><ellipse cx="-3583.084" cy="-919.82819" rx="4.5358114" ry="4.5347505" style="opacity:1;fill:#383838;fill-opacity:1;stroke:none;stroke-width:3.87343;stroke-linecap:round;stroke-linejoin:round;stroke-dasharray:none;stroke-opacity:1"/><ellipse cx="-3569.0061" cy="-934.84314" rx="4.5358114" ry="4.5347505" style="opacity:1;fill:none;fill-opacity:1;stroke:#383838;stroke-width:3.87343;stroke-linecap:round;stroke-linejoin:round;stroke-dasharray:none;stroke-opacity:1"/><ellipse cx="-3554.6025" cy="-919.8891" rx="4.5358114" ry="4.5347505" style="opacity:1;fill:#383838;fill-opacity:1;stroke:none;stroke-width:3.87343;stroke-linecap:round;stroke-linejoin:round;stroke-dasharray:none;stroke-opacity:1"/><path d="M-3596.745-897.821a29.17 25.501 0 0 0 27.663 17.64 29.17 25.501 0 0 0 27.35-16.855 37.991 31.085 0 0 1-27.086 9.311 37.991 31.085 0 0 1-27.927-10.096" style="opacity:1;fill:#383838;fill-opacity:1;stroke:none;stroke-width:3.26746;stroke-linecap:round;stroke-linejoin:round;stroke-dasharray:none;stroke-opacity:1"/><path d="m-3598.757-903.852.027.053 4.465 15.657 3.052-4.01 4.909-1.028zm59.707.269-.027.053-4.465 15.658-3.052-4.01-4.908-1.029z" style="opacity:1;fill:#383838;fill-opacity:1;stroke-width:3.0142;stroke-linecap:round;stroke-linejoin:round"/></g><circle cx="-732.31274" cy="-9836.6992" r="44.316319" style="opacity:.82;fill:none;fill-opacity:1;stroke:#383838;stroke-width:4.47084;stroke-linecap:square;stroke-dasharray:none;stroke-opacity:1;stop-color:#000" transform="rotate(-90)"/></g><rect width="50.623661" height="64.873962" x="-1038.7435" y="-9777.7891" rx="7.3365045" ry="7.3365035" style="opacity:1;fill:#000;fill-opacity:.25;stroke:none;stroke-width:3.12206;stroke-dasharray:none;stroke-opacity:1;paint-order:fill markers stroke;stop-color:#000" transform="rotate(-90)"/><g style="stroke-width:.863472"><path d="M-306.69 207.874h37.175v12.643h-37.175z" style="fill:#8c8c8c;fill-opacity:1;stroke:#4d4d4d;stroke-width:2.67515;stroke-linecap:square;stroke-linejoin:miter;stroke-dasharray:none;stroke-opacity:1;paint-order:fill markers stroke;stop-color:#000" transform="matrix(0 1.34393 -.93577 0 -9619.608 1400.226)"/><path d="M-306.69 195.135h37.175v12.644h-37.175z" style="fill:#878787;fill-opacity:1;stroke:#4d4d4d;stroke-width:2.67515;stroke-linecap:square;stroke-linejoin:miter;stroke-dasharray:none;stroke-opacity:1;paint-order:fill markers stroke;stop-color:#000" transform="matrix(0 1.34393 -.93577 0 -9619.608 1400.226)"/><path d="M-306.69 182.397h37.175v12.644h-37.175z" style="fill:#828282;fill-opacity:1;stroke:#4d4d4d;stroke-width:2.67515;stroke-linecap:square;stroke-linejoin:miter;stroke-dasharray:none;stroke-opacity:1;paint-order:fill markers stroke;stop-color:#000" transform="matrix(0 1.34393 -.93577 0 -9619.608 1400.226)"/><path d="M-306.69 169.659h37.175v12.644h-37.175z" style="fill:#7d7d7d;fill-opacity:1;stroke:#4d4d4d;stroke-width:2.67515;stroke-linecap:square;stroke-linejoin:miter;stroke-dasharray:none;stroke-opacity:1;paint-order:fill markers stroke;stop-color:#000" transform="matrix(0 1.34393 -.93577 0 -9619.608 1400.226)"/><path d="M-306.69 156.92h37.175v12.645h-37.175z" style="fill:#787878;fill-opacity:1;stroke:#4d4d4d;stroke-width:2.67515;stroke-linecap:square;stroke-linejoin:miter;stroke-dasharray:none;stroke-opacity:1;paint-order:fill markers stroke;stop-color:#000" transform="matrix(0 1.34393 -.93577 0 -9619.608 1400.226)"/><path d="M-306.69 144.183h37.175v12.643h-37.175z" style="fill:#737373;fill-opacity:1;stroke:#4d4d4d;stroke-width:2.67515;stroke-linecap:square;stroke-linejoin:miter;stroke-dasharray:none;stroke-opacity:1;paint-order:fill markers stroke;stop-color:#000" transform="matrix(0 1.34393 -.93577 0 -9619.608 1400.226)"/><path d="M-306.69 131.444h37.175v12.644h-37.175z" style="fill:#6e6e6e;fill-opacity:1;stroke:#4d4d4d;stroke-width:2.67515;stroke-linecap:square;stroke-linejoin:miter;stroke-dasharray:none;stroke-opacity:1;paint-order:fill markers stroke;stop-color:#000" transform="matrix(0 1.34393 -.93577 0 -9619.608 1400.226)"/><path d="M-306.69 118.706h37.175v12.644h-37.175z" style="fill:#696969;fill-opacity:1;stroke:#4d4d4d;stroke-width:2.67515;stroke-linecap:square;stroke-linejoin:miter;stroke-dasharray:none;stroke-opacity:1;paint-order:fill markers stroke;stop-color:#000" transform="matrix(0 1.34393 -.93577 0 -9619.608 1400.226)"/></g><g style="stroke-width:.954404" transform="matrix(-1.04777 0 0 1.04777 -9560.153 1926.455)"><rect width="343.38852" height="9.7219896" x="895.91614" y="159.84392" rx="2.0540483" ry="2.0540483" style="fill:#262626;fill-opacity:1;stroke:none;stroke-width:3.15037;stroke-linecap:square;stroke-linejoin:round;stroke-dasharray:none;stroke-opacity:1" transform="rotate(-90)"/><rect width="13.807254" height="5.4182892" x="-1019.5201" y="-167.50209" rx="0.60727" ry="0.60727" style="fill:#4f4f4f;fill-opacity:1;stroke:none;stroke-width:.426627;stroke-linecap:square;stroke-linejoin:round;stroke-dasharray:none;stroke-opacity:1" transform="rotate(90)"/><rect width="97.177025" height="2.3289483" x="-1118.4819" y="-167.593" rx="0.59564608" ry="0.59564614" style="fill:#4f4f4f;fill-opacity:1;stroke:none;stroke-width:.715706;stroke-linecap:square;stroke-linejoin:round;stroke-dasharray:none;stroke-opacity:1" transform="rotate(90)"/><rect width="97.177025" height="2.3289483" x="-1003.8476" y="-167.593" rx="0.59564608" ry="0.59564614" style="fill:#4f4f4f;fill-opacity:1;stroke:none;stroke-width:.715706;stroke-linecap:square;stroke-linejoin:round;stroke-dasharray:none;stroke-opacity:1" transform="rotate(90)"/></g><path d="M-9822.703 751.983h-119.804s-.01-.115 0-8.143h119.803z" style="fill:#4f4f4f;fill-opacity:1;stroke:#262626;stroke-width:2.44018;stroke-linecap:square;stroke-linejoin:round;stroke-dasharray:none;stroke-opacity:1" transform="translate(92.765)"/><path d="m-10028.085 629.003 206.585.083-.066 8.06h-198.376l.137 403.031h198.291v8.143h-206.435c0-96.614-.136-260.562-.136-419.317z" style="fill:#4f4f4f;fill-opacity:1;stroke:#262626;stroke-width:2.44018;stroke-linecap:square;stroke-linejoin:round;stroke-dasharray:none;stroke-opacity:1" transform="translate(92.765)"/><path d="M-9821.612 986.865h-98.471s-.01-.115 0-8.143h98.47z" style="fill:#4f4f4f;fill-opacity:1;stroke:#262626;stroke-width:2.44018;stroke-linecap:square;stroke-linejoin:round;stroke-dasharray:none;stroke-opacity:1" transform="translate(92.765)"/><path d="M630.272-9828.54h120.481v6.122H630.272z" style="fill:#4f4f4f;fill-opacity:1;stroke:none;stroke-width:2.14617;stroke-linecap:square;stop-color:#000" transform="matrix(0 1 1 0 92.765 0)"/></g><g style="stroke:#404040;stroke-width:2.6;stroke-dasharray:none;stroke-opacity:1" transform="matrix(-1.1965 0 0 1.09698 -11631.65 -474.865)"><path d="M-9459.66 776.6h124.485v139.65h-124.485z" clip-path="url(#g)" style="fill:url(#h);stroke:#404040;stroke-width:2.6;stroke-dasharray:none;stroke-opacity:1"/><rect width="135.89333" height="152.45041" x="-9464.8877" y="769.38312" clip-path="url(#j)" rx="0" ry="0" style="fill:#000;fill-opacity:.3;stroke:#404040;stroke-width:2.6;stroke-dasharray:none;stroke-opacity:1"/></g><path d="M-8717.329 1197.257a23.46 23.46 0 0 0-23.458 23.458 23.46 23.46 0 0 0 23.458 23.458 23.46 23.46 0 0 0 23.458-23.458 23.46 23.46 0 0 0-23.458-23.458m.094 4.584a18.874 18.874 0 0 1 18.874 18.874 18.874 18.874 0 0 1-18.874 18.874 18.874 18.874 0 0 1-18.874-18.874 18.874 18.874 0 0 1 18.874-18.874" style="fill:#a3a3a3;fill-opacity:1;stroke:#404040;stroke-width:2.57634;stroke-linecap:round;stroke-linejoin:round;stroke-opacity:1;stop-color:#000" transform="matrix(1.09072 0 0 1 9148.822 -766.992)"/><path d="M424.68 126.047h7.958v3.075h-7.959z" style="fill:#5e5e5e;fill-opacity:1;stroke:#161616;stroke-width:1.85208;stroke-linecap:round;stroke-linejoin:round;stroke-miterlimit:5;stroke-dasharray:none;stroke-opacity:1" transform="rotate(-75 255.895 854.972)scale(1.12806)"/><path d="M424.68 148.877h7.958v3.075h-7.959z" style="fill:#5e5e5e;fill-opacity:1;stroke:#161616;stroke-width:1.852;stroke-linecap:round;stroke-linejoin:round;stroke-miterlimit:5;stroke-dasharray:none;stroke-opacity:1" transform="rotate(-75 255.895 854.972)scale(1.12806)"/><path d="m419.261 132.377 4.069-1.403h14.109v16.051h-14.11l-4.068-1.403s-.831-2.873-.831-6.623.831-6.622.831-6.622" style="fill:#a3a3a3;fill-opacity:1;stroke:#595959;stroke-width:1.852;stroke-linecap:round;stroke-linejoin:round;stroke-miterlimit:5;stroke-opacity:1" transform="rotate(-75 255.895 854.972)scale(1.12806)"/><g style="stroke:#2e2825;stroke-opacity:1"><path d="M417.374 118.818h10.671m-10.671 4.94h10.671m-10.671 4.942h10.671" style="fill:#595959;fill-opacity:1;stroke:#595959;stroke-width:1.32292;stroke-linecap:round;stroke-linejoin:round;stroke-miterlimit:5;stroke-dasharray:none;stroke-opacity:1" transform="rotate(-75 263.47 841.649)scale(1.12806)"/></g><path d="M437.43 130.952h3.101v16.095h-3.102z" style="fill:#5e5e5e;fill-opacity:1;stroke:#262626;stroke-width:1.818;stroke-linecap:round;stroke-linejoin:round;stroke-miterlimit:5;stroke-dasharray:none;stroke-opacity:1" transform="rotate(-75 255.895 854.972)scale(1.12806)"/><path d="M436.517 130.046h1.17v17.906h-1.17z" style="fill:#262626;fill-opacity:1;stroke:none;stroke-width:4.93291;stroke-linecap:round;stroke-linejoin:round;stroke-miterlimit:5;stroke-dasharray:none;stroke-opacity:1" transform="rotate(-75 255.895 854.972)scale(1.12806)"/><g style="stroke:#404040;stroke-width:2.6;stroke-dasharray:none;stroke-opacity:1" transform="matrix(-1.1965 0 0 1.09698 -11233.406 -474.865)"><path d="M-9459.66 776.6h124.485v139.65h-124.485z" clip-path="url(#g)" style="fill:url(#h);stroke:#404040;stroke-width:2.6;stroke-dasharray:none;stroke-opacity:1"/><rect width="135.89333" height="152.45041" x="-9464.8877" y="769.38312" clip-path="url(#j)" rx="0" ry="0" style="fill:#000;fill-opacity:.3;stroke:#404040;stroke-width:2.6;stroke-dasharray:none;stroke-opacity:1"/></g><path d="M-8717.329 1197.257a23.46 23.46 0 0 0-23.458 23.458 23.46 23.46 0 0 0 23.458 23.458 23.46 23.46 0 0 0 23.458-23.458 23.46 23.46 0 0 0-23.458-23.458m.094 4.584a18.874 18.874 0 0 1 18.874 18.874 18.874 18.874 0 0 1-18.874 18.874 18.874 18.874 0 0 1-18.874-18.874 18.874 18.874 0 0 1 18.874-18.874" style="fill:#a3a3a3;fill-opacity:1;stroke:#404040;stroke-width:2.57634;stroke-linecap:round;stroke-linejoin:round;stroke-opacity:1;stop-color:#000" transform="matrix(1.09072 0 0 1 9547.066 -766.992)"/><path d="M424.68 126.047h7.958v3.075h-7.959z" style="fill:#5e5e5e;fill-opacity:1;stroke:#161616;stroke-width:1.85208;stroke-linecap:round;stroke-linejoin:round;stroke-miterlimit:5;stroke-dasharray:none;stroke-opacity:1" transform="scale(1.12806 -1.12806)rotate(15 2286.065 -1636.016)"/><path d="M424.68 148.877h7.958v3.075h-7.959z" style="fill:#5e5e5e;fill-opacity:1;stroke:#161616;stroke-width:1.852;stroke-linecap:round;stroke-linejoin:round;stroke-miterlimit:5;stroke-dasharray:none;stroke-opacity:1" transform="scale(1.12806 -1.12806)rotate(15 2286.065 -1636.016)"/><path d="m419.261 132.377 4.069-1.403h14.109v16.051h-14.11l-4.068-1.403s-.831-2.873-.831-6.623.831-6.622.831-6.622" style="fill:#a3a3a3;fill-opacity:1;stroke:#595959;stroke-width:1.852;stroke-linecap:round;stroke-linejoin:round;stroke-miterlimit:5;stroke-opacity:1" transform="scale(1.12806 -1.12806)rotate(15 2286.065 -1636.016)"/><g style="stroke:#2e2825;stroke-opacity:1"><path d="M417.374 118.818h10.671m-10.671 4.94h10.671m-10.671 4.942h10.671" style="fill:#595959;fill-opacity:1;stroke:#595959;stroke-width:1.32292;stroke-linecap:round;stroke-linejoin:round;stroke-miterlimit:5;stroke-dasharray:none;stroke-opacity:1" transform="scale(1.12806 -1.12806)rotate(15 2224.966 -1619.214)"/></g><path d="M437.43 130.952h3.101v16.095h-3.102z" style="fill:#5e5e5e;fill-opacity:1;stroke:#262626;stroke-width:1.818;stroke-linecap:round;stroke-linejoin:round;stroke-miterlimit:5;stroke-dasharray:none;stroke-opacity:1" transform="scale(1.12806 -1.12806)rotate(15 2286.065 -1636.016)"/><path d="M436.517 130.046h1.17v17.906h-1.17z" style="fill:#262626;fill-opacity:1;stroke:none;stroke-width:4.93291;stroke-linecap:round;stroke-linejoin:round;stroke-miterlimit:5;stroke-dasharray:none;stroke-opacity:1" transform="scale(1.12806 -1.12806)rotate(15 2286.065 -1636.016)"/><g style="stroke:#404040;stroke-width:2.6;stroke-dasharray:none;stroke-opacity:1" transform="matrix(-1.1965 0 0 1.09698 -10773.476 -474.865)"><path d="M-9459.66 776.6h124.485v139.65h-124.485z" clip-path="url(#g)" style="fill:url(#h);stroke:#404040;stroke-width:2.6;stroke-dasharray:none;stroke-opacity:1"/><rect width="135.89333" height="152.45041" x="-9464.8877" y="769.38312" clip-path="url(#j)" rx="0" ry="0" style="fill:#000;fill-opacity:.3;stroke:#404040;stroke-width:2.6;stroke-dasharray:none;stroke-opacity:1"/></g><path d="M-8717.329 1197.257a23.46 23.46 0 0 0-23.458 23.458 23.46 23.46 0 0 0 23.458 23.458 23.46 23.46 0 0 0 23.458-23.458 23.46 23.46 0 0 0-23.458-23.458m.094 4.584a18.874 18.874 0 0 1 18.874 18.874 18.874 18.874 0 0 1-18.874 18.874 18.874 18.874 0 0 1-18.874-18.874 18.874 18.874 0 0 1 18.874-18.874" style="fill:#a3a3a3;fill-opacity:1;stroke:#404040;stroke-width:2.57634;stroke-linecap:round;stroke-linejoin:round;stroke-opacity:1;stop-color:#000" transform="matrix(1.09072 0 0 1 10006.996 -766.992)"/><path d="M424.68 126.047h7.958v3.075h-7.959z" style="fill:#5e5e5e;fill-opacity:1;stroke:#161616;stroke-width:1.85208;stroke-linecap:round;stroke-linejoin:round;stroke-miterlimit:5;stroke-dasharray:none;stroke-opacity:1" transform="rotate(-150 531.917 303.74)scale(1.12806)"/><path d="M424.68 148.877h7.958v3.075h-7.959z" style="fill:#5e5e5e;fill-opacity:1;stroke:#161616;stroke-width:1.852;stroke-linecap:round;stroke-linejoin:round;stroke-miterlimit:5;stroke-dasharray:none;stroke-opacity:1" transform="rotate(-150 531.917 303.74)scale(1.12806)"/><path d="m419.261 132.377 4.069-1.403h14.109v16.051h-14.11l-4.068-1.403s-.831-2.873-.831-6.623.831-6.622.831-6.622" style="fill:#a3a3a3;fill-opacity:1;stroke:#595959;stroke-width:1.852;stroke-linecap:round;stroke-linejoin:round;stroke-miterlimit:5;stroke-opacity:1" transform="rotate(-150 531.917 303.74)scale(1.12806)"/><g style="stroke:#2e2825;stroke-opacity:1"><path d="M417.374 118.818h10.671m-10.671 4.94h10.671m-10.671 4.942h10.671" style="fill:#595959;fill-opacity:1;stroke:#595959;stroke-width:1.32292;stroke-linecap:round;stroke-linejoin:round;stroke-miterlimit:5;stroke-dasharray:none;stroke-opacity:1" transform="rotate(-150 530.593 294.171)scale(1.12806)"/></g><path d="M437.43 130.952h3.101v16.095h-3.102z" style="fill:#5e5e5e;fill-opacity:1;stroke:#262626;stroke-width:1.818;stroke-linecap:round;stroke-linejoin:round;stroke-miterlimit:5;stroke-dasharray:none;stroke-opacity:1" transform="rotate(-150 531.917 303.74)scale(1.12806)"/><path d="M436.517 130.046h1.17v17.906h-1.17z" style="fill:#262626;fill-opacity:1;stroke:none;stroke-width:4.93291;stroke-linecap:round;stroke-linejoin:round;stroke-miterlimit:5;stroke-dasharray:none;stroke-opacity:1" transform="rotate(-150 531.917 303.74)scale(1.12806)"/><g transform="matrix(.85054 0 0 -.85054 6225.218 1053.064)"><rect width="40.014809" height="11.702641" x="-7632.5972" y="696.54645" rx="0" ry="0" style="fill:#333;fill-opacity:1;stroke:#1a1a1a;stroke-width:6;stroke-linecap:round;stroke-linejoin:round;stroke-dasharray:none;stroke-opacity:1;paint-order:stroke fill markers;stop-color:#000"/><ellipse cx="-702.34088" cy="-7602.2686" rx="3.8454595" ry="7.7480636" style="fill:#404040;fill-opacity:1;stroke:#242424;stroke-width:3;stroke-dasharray:none;stroke-opacity:1;paint-order:fill markers stroke;stop-color:#000" transform="rotate(-90)"/><ellipse cx="-702.34088" cy="-7622.8481" rx="3.8454595" ry="7.7480636" style="fill:#404040;fill-opacity:1;stroke:#242424;stroke-width:3;stroke-dasharray:none;stroke-opacity:1;paint-order:fill markers stroke;stop-color:#000" transform="rotate(-90)"/></g><g transform="translate(6462.868 -563.903)scale(.85054)"><rect width="40.014809" height="11.702641" x="-7632.5972" y="696.54645" rx="0" ry="0" style="fill:#333;fill-opacity:1;stroke:#1a1a1a;stroke-width:6;stroke-linecap:round;stroke-linejoin:round;stroke-dasharray:none;stroke-opacity:1;paint-order:stroke fill markers;stop-color:#000"/><ellipse cx="-702.34088" cy="-7602.2686" rx="3.8454595" ry="7.7480636" style="fill:#404040;fill-opacity:1;stroke:#242424;stroke-width:3;stroke-dasharray:none;stroke-opacity:1;paint-order:fill markers stroke;stop-color:#000" transform="rotate(-90)"/><ellipse cx="-702.34088" cy="-7622.8481" rx="3.8454595" ry="7.7480636" style="fill:#404040;fill-opacity:1;stroke:#242424;stroke-width:3;stroke-dasharray:none;stroke-opacity:1;paint-order:fill markers stroke;stop-color:#000" transform="rotate(-90)"/></g><g transform="matrix(1 0 0 -1 9187.74 475.984)"><rect width="16.679379" height="9.9535666" x="-8918.3262" y="-447.44666" rx="0" ry="0" style="fill:#333;fill-opacity:1;stroke:#1a1a1a;stroke-width:5.10324;stroke-linecap:round;stroke-linejoin:round;stroke-dasharray:none;stroke-opacity:1;paint-order:stroke fill markers;stop-color:#000" transform="scale(1 -1)"/><ellipse cx="442.51825" cy="-8910.0342" rx="3.2707179" ry="6.5900393" style="fill:#404040;fill-opacity:1;stroke:#242424;stroke-width:2.55162;stroke-dasharray:none;stroke-opacity:1;paint-order:fill markers stroke;stop-color:#000" transform="matrix(0 1 1 0 0 0)"/></g><g transform="translate(6709.288 -563.903)scale(.85054)"><rect width="40.014809" height="11.702641" x="-7632.5972" y="696.54645" rx="0" ry="0" style="fill:#333;fill-opacity:1;stroke:#1a1a1a;stroke-width:6;stroke-linecap:round;stroke-linejoin:round;stroke-dasharray:none;stroke-opacity:1;paint-order:stroke fill markers;stop-color:#000"/><ellipse cx="-702.34088" cy="-7602.2686" rx="3.8454595" ry="7.7480636" style="fill:#404040;fill-opacity:1;stroke:#242424;stroke-width:3;stroke-dasharray:none;stroke-opacity:1;paint-order:fill markers stroke;stop-color:#000" transform="rotate(-90)"/><ellipse cx="-702.34088" cy="-7622.8481" rx="3.8454595" ry="7.7480636" style="fill:#404040;fill-opacity:1;stroke:#242424;stroke-width:3;stroke-dasharray:none;stroke-opacity:1;paint-order:fill markers stroke;stop-color:#000" transform="rotate(-90)"/></g><g transform="matrix(1 0 0 -1 8991.66 475.984)"><rect width="16.679379" height="9.9535666" x="-8918.3262" y="-447.44666" rx="0" ry="0" style="fill:#333;fill-opacity:1;stroke:#1a1a1a;stroke-width:5.10324;stroke-linecap:round;stroke-linejoin:round;stroke-dasharray:none;stroke-opacity:1;paint-order:stroke fill markers;stop-color:#000" transform="scale(1 -1)"/><ellipse cx="442.51825" cy="-8910.0342" rx="3.2707179" ry="6.5900393" style="fill:#404040;fill-opacity:1;stroke:#242424;stroke-width:2.55162;stroke-dasharray:none;stroke-opacity:1;paint-order:fill markers stroke;stop-color:#000" transform="matrix(0 1 1 0 0 0)"/></g><g transform="matrix(1 0 0 -1 9595.414 475.984)"><rect width="16.679379" height="9.9535666" x="-8918.3262" y="-447.44666" rx="0" ry="0" style="fill:#333;fill-opacity:1;stroke:#1a1a1a;stroke-width:5.10324;stroke-linecap:round;stroke-linejoin:round;stroke-dasharray:none;stroke-opacity:1;paint-order:stroke fill markers;stop-color:#000" transform="scale(1 -1)"/><ellipse cx="442.51825" cy="-8910.0342" rx="3.2707179" ry="6.5900393" style="fill:#404040;fill-opacity:1;stroke:#242424;stroke-width:2.55162;stroke-dasharray:none;stroke-opacity:1;paint-order:fill markers stroke;stop-color:#000" transform="matrix(0 1 1 0 0 0)"/></g><g transform="matrix(1 0 0 -1 9569.408 475.984)"><rect width="16.679379" height="9.9535666" x="-8918.3262" y="-447.44666" rx="0" ry="0" style="fill:#333;fill-opacity:1;stroke:#1a1a1a;stroke-width:5.10324;stroke-linecap:round;stroke-linejoin:round;stroke-dasharray:none;stroke-opacity:1;paint-order:stroke fill markers;stop-color:#000" transform="scale(1 -1)"/><ellipse cx="442.51825" cy="-8910.0342" rx="3.2707179" ry="6.5900393" style="fill:#404040;fill-opacity:1;stroke:#242424;stroke-width:2.55162;stroke-dasharray:none;stroke-opacity:1;paint-order:fill markers stroke;stop-color:#000" transform="matrix(0 1 1 0 0 0)"/></g><g style="stroke:#404040;stroke-width:2.6;stroke-dasharray:none;stroke-opacity:1" transform="matrix(-1.1965 0 0 -1.09698 -11631.65 964.027)"><path d="M-9459.66 776.6h124.485v139.65h-124.485z" clip-path="url(#g)" style="fill:url(#h);stroke:#404040;stroke-width:2.6;stroke-dasharray:none;stroke-opacity:1"/><rect width="135.89333" height="152.45041" x="-9464.8877" y="769.38312" clip-path="url(#j)" rx="0" ry="0" style="fill:#000;fill-opacity:.3;stroke:#404040;stroke-width:2.6;stroke-dasharray:none;stroke-opacity:1"/></g><path d="M-8717.329 1197.257a23.46 23.46 0 0 0-23.458 23.458 23.46 23.46 0 0 0 23.458 23.458 23.46 23.46 0 0 0 23.458-23.458 23.46 23.46 0 0 0-23.458-23.458m.094 4.584a18.874 18.874 0 0 1 18.874 18.874 18.874 18.874 0 0 1-18.874 18.874 18.874 18.874 0 0 1-18.874-18.874 18.874 18.874 0 0 1 18.874-18.874" style="fill:#a3a3a3;fill-opacity:1;stroke:#404040;stroke-width:2.57634;stroke-linecap:round;stroke-linejoin:round;stroke-opacity:1;stop-color:#000" transform="matrix(1.09072 0 0 -1 9148.822 1256.153)"/><path d="M424.68 126.047h7.958v3.075h-7.959z" style="fill:#5e5e5e;fill-opacity:1;stroke:#161616;stroke-width:1.85208;stroke-linecap:round;stroke-linejoin:round;stroke-miterlimit:5;stroke-dasharray:none;stroke-opacity:1" transform="scale(1.12806 -1.12806)rotate(-85.606 -36.633 457.49)"/><path d="M424.68 148.877h7.958v3.075h-7.959z" style="fill:#5e5e5e;fill-opacity:1;stroke:#161616;stroke-width:1.852;stroke-linecap:round;stroke-linejoin:round;stroke-miterlimit:5;stroke-dasharray:none;stroke-opacity:1" transform="scale(1.12806 -1.12806)rotate(-85.606 -36.633 457.49)"/><path d="m419.261 132.377 4.069-1.403h14.109v16.051h-14.11l-4.068-1.403s-.831-2.873-.831-6.623.831-6.622.831-6.622" style="fill:#a3a3a3;fill-opacity:1;stroke:#595959;stroke-width:1.852;stroke-linecap:round;stroke-linejoin:round;stroke-miterlimit:5;stroke-opacity:1" transform="scale(1.12806 -1.12806)rotate(-85.606 -36.633 457.49)"/><g style="stroke:#2e2825;stroke-opacity:1"><path d="M417.374 118.818h10.671m-10.671 4.94h10.671m-10.671 4.942h10.671" style="fill:#595959;fill-opacity:1;stroke:#595959;stroke-width:1.32292;stroke-linecap:round;stroke-linejoin:round;stroke-miterlimit:5;stroke-dasharray:none;stroke-opacity:1" transform="scale(1.12806 -1.12806)rotate(-85.606 -31.62 446.398)"/></g><path d="M437.43 130.952h3.101v16.095h-3.102z" style="fill:#5e5e5e;fill-opacity:1;stroke:#262626;stroke-width:1.818;stroke-linecap:round;stroke-linejoin:round;stroke-miterlimit:5;stroke-dasharray:none;stroke-opacity:1" transform="scale(1.12806 -1.12806)rotate(-85.606 -36.633 457.49)"/><path d="M436.517 130.046h1.17v17.906h-1.17z" style="fill:#262626;fill-opacity:1;stroke:none;stroke-width:4.93291;stroke-linecap:round;stroke-linejoin:round;stroke-miterlimit:5;stroke-dasharray:none;stroke-opacity:1" transform="scale(1.12806 -1.12806)rotate(-85.606 -36.633 457.49)"/><g style="stroke:#404040;stroke-width:2.6;stroke-dasharray:none;stroke-opacity:1" transform="matrix(-1.1965 0 0 -1.09698 -11233.406 964.027)"><path d="M-9459.66 776.6h124.485v139.65h-124.485z" clip-path="url(#g)" style="fill:url(#h);stroke:#404040;stroke-width:2.6;stroke-dasharray:none;stroke-opacity:1"/><rect width="135.89333" height="152.45041" x="-9464.8877" y="769.38312" clip-path="url(#j)" rx="0" ry="0" style="fill:#000;fill-opacity:.3;stroke:#404040;stroke-width:2.6;stroke-dasharray:none;stroke-opacity:1"/></g><path d="M-8717.329 1197.257a23.46 23.46 0 0 0-23.458 23.458 23.46 23.46 0 0 0 23.458 23.458 23.46 23.46 0 0 0 23.458-23.458 23.46 23.46 0 0 0-23.458-23.458m.094 4.584a18.874 18.874 0 0 1 18.874 18.874 18.874 18.874 0 0 1-18.874 18.874 18.874 18.874 0 0 1-18.874-18.874 18.874 18.874 0 0 1 18.874-18.874" style="fill:#a3a3a3;fill-opacity:1;stroke:#404040;stroke-width:2.57634;stroke-linecap:round;stroke-linejoin:round;stroke-opacity:1;stop-color:#000" transform="matrix(1.09072 0 0 -1 9547.066 1256.153)"/><path d="M424.68 126.047h7.958v3.075h-7.959z" style="fill:#5e5e5e;fill-opacity:1;stroke:#161616;stroke-width:1.85208;stroke-linecap:round;stroke-linejoin:round;stroke-miterlimit:5;stroke-dasharray:none;stroke-opacity:1" transform="scale(1.12806 -1.12806)rotate(-75 120.551 311.14)"/><path d="M424.68 148.877h7.958v3.075h-7.959z" style="fill:#5e5e5e;fill-opacity:1;stroke:#161616;stroke-width:1.852;stroke-linecap:round;stroke-linejoin:round;stroke-miterlimit:5;stroke-dasharray:none;stroke-opacity:1" transform="scale(1.12806 -1.12806)rotate(-75 120.551 311.14)"/><path d="m419.261 132.377 4.069-1.403h14.109v16.051h-14.11l-4.068-1.403s-.831-2.873-.831-6.623.831-6.622.831-6.622" style="fill:#a3a3a3;fill-opacity:1;stroke:#595959;stroke-width:1.852;stroke-linecap:round;stroke-linejoin:round;stroke-miterlimit:5;stroke-opacity:1" transform="scale(1.12806 -1.12806)rotate(-75 120.551 311.14)"/><g style="stroke:#2e2825;stroke-opacity:1"><path d="M417.374 118.818h10.671m-10.671 4.94h10.671m-10.671 4.942h10.671" style="fill:#595959;fill-opacity:1;stroke:#595959;stroke-width:1.32292;stroke-linecap:round;stroke-linejoin:round;stroke-miterlimit:5;stroke-dasharray:none;stroke-opacity:1" transform="scale(1.12806 -1.12806)rotate(-75 127.267 299.328)"/></g><path d="M437.43 130.952h3.101v16.095h-3.102z" style="fill:#5e5e5e;fill-opacity:1;stroke:#262626;stroke-width:1.818;stroke-linecap:round;stroke-linejoin:round;stroke-miterlimit:5;stroke-dasharray:none;stroke-opacity:1" transform="scale(1.12806 -1.12806)rotate(-75 120.551 311.14)"/><path d="M436.517 130.046h1.17v17.906h-1.17z" style="fill:#262626;fill-opacity:1;stroke:none;stroke-width:4.93291;stroke-linecap:round;stroke-linejoin:round;stroke-miterlimit:5;stroke-dasharray:none;stroke-opacity:1" transform="scale(1.12806 -1.12806)rotate(-75 120.551 311.14)"/><g style="stroke:#404040;stroke-width:2.6;stroke-dasharray:none;stroke-opacity:1" transform="matrix(-1.1965 0 0 -1.09698 -10773.476 964.027)"><path d="M-9459.66 776.6h124.485v139.65h-124.485z" clip-path="url(#g)" style="fill:url(#h);stroke:#404040;stroke-width:2.6;stroke-dasharray:none;stroke-opacity:1"/><rect width="135.89333" height="152.45041" x="-9464.8877" y="769.38312" clip-path="url(#j)" rx="0" ry="0" style="fill:#000;fill-opacity:.3;stroke:#404040;stroke-width:2.6;stroke-dasharray:none;stroke-opacity:1"/></g><path d="M-8717.329 1197.257a23.46 23.46 0 0 0-23.458 23.458 23.46 23.46 0 0 0 23.458 23.458 23.46 23.46 0 0 0 23.458-23.458 23.46 23.46 0 0 0-23.458-23.458m.094 4.584a18.874 18.874 0 0 1 18.874 18.874 18.874 18.874 0 0 1-18.874 18.874 18.874 18.874 0 0 1-18.874-18.874 18.874 18.874 0 0 1 18.874-18.874" style="fill:#a3a3a3;fill-opacity:1;stroke:#404040;stroke-width:2.57634;stroke-linecap:round;stroke-linejoin:round;stroke-opacity:1;stop-color:#000" transform="matrix(1.09072 0 0 -1 10006.996 1256.153)"/><g transform="translate(6170.134 -563.903)scale(.85054)"><rect width="40.014809" height="11.702641" x="-7632.5972" y="696.54645" rx="0" ry="0" style="fill:#333;fill-opacity:1;stroke:#1a1a1a;stroke-width:6;stroke-linecap:round;stroke-linejoin:round;stroke-dasharray:none;stroke-opacity:1;paint-order:stroke fill markers;stop-color:#000"/><ellipse cx="-702.34088" cy="-7602.2686" rx="3.8454595" ry="7.7480636" style="fill:#404040;fill-opacity:1;stroke:#242424;stroke-width:3;stroke-dasharray:none;stroke-opacity:1;paint-order:fill markers stroke;stop-color:#000" transform="rotate(-90)"/><ellipse cx="-702.34088" cy="-7622.8481" rx="3.8454595" ry="7.7480636" style="fill:#404040;fill-opacity:1;stroke:#242424;stroke-width:3;stroke-dasharray:none;stroke-opacity:1;paint-order:fill markers stroke;stop-color:#000" transform="rotate(-90)"/></g><g transform="matrix(.85054 0 0 -.85054 7222.975 1003.299)"><rect width="40.014809" height="11.702641" x="-7632.5972" y="696.54645" rx="0" ry="0" style="fill:#333;fill-opacity:1;stroke:#1a1a1a;stroke-width:6;stroke-linecap:round;stroke-linejoin:round;stroke-dasharray:none;stroke-opacity:1;paint-order:stroke fill markers;stop-color:#000"/><ellipse cx="-702.34088" cy="-7602.2686" rx="3.8454595" ry="7.7480636" style="fill:#404040;fill-opacity:1;stroke:#242424;stroke-width:3;stroke-dasharray:none;stroke-opacity:1;paint-order:fill markers stroke;stop-color:#000" transform="rotate(-90)"/><ellipse cx="-702.34088" cy="-7622.8481" rx="3.8454595" ry="7.7480636" style="fill:#404040;fill-opacity:1;stroke:#242424;stroke-width:3;stroke-dasharray:none;stroke-opacity:1;paint-order:fill markers stroke;stop-color:#000" transform="rotate(-90)"/></g><g transform="matrix(.85054 0 0 -.85054 7222.975 680.384)"><rect width="40.014809" height="11.702641" x="-7632.5972" y="696.54645" rx="0" ry="0" style="fill:#333;fill-opacity:1;stroke:#1a1a1a;stroke-width:6;stroke-linecap:round;stroke-linejoin:round;stroke-dasharray:none;stroke-opacity:1;paint-order:stroke fill markers;stop-color:#000"/><ellipse cx="-702.34088" cy="-7602.2686" rx="3.8454595" ry="7.7480636" style="fill:#404040;fill-opacity:1;stroke:#242424;stroke-width:3;stroke-dasharray:none;stroke-opacity:1;paint-order:fill markers stroke;stop-color:#000" transform="rotate(-90)"/><ellipse cx="-702.34088" cy="-7622.8481" rx="3.8454595" ry="7.7480636" style="fill:#404040;fill-opacity:1;stroke:#242424;stroke-width:3;stroke-dasharray:none;stroke-opacity:1;paint-order:fill markers stroke;stop-color:#000" transform="rotate(-90)"/></g><g transform="rotate(-90 -4062.567 -4484.569)"><rect width="16.679379" height="9.9535666" x="-8898.4941" y="-441.83401" rx="0" ry="0" style="fill:#333;fill-opacity:1;stroke:#1a1a1a;stroke-width:5.10324;stroke-linecap:round;stroke-linejoin:round;stroke-dasharray:none;stroke-opacity:1;paint-order:stroke fill markers;stop-color:#000" transform="scale(1 -1)"/><ellipse cx="436.90561" cy="-8890.2021" rx="3.2707179" ry="6.5900393" style="fill:#404040;fill-opacity:1;stroke:#242424;stroke-width:2.55162;stroke-dasharray:none;stroke-opacity:1;paint-order:fill markers stroke;stop-color:#000" transform="matrix(0 1 1 0 0 0)"/><rect width="16.679379" height="9.9535666" x="-8898.4941" y="-461.29123" rx="0" ry="0" style="fill:#333;fill-opacity:1;stroke:#1a1a1a;stroke-width:5.10324;stroke-linecap:round;stroke-linejoin:round;stroke-dasharray:none;stroke-opacity:1;paint-order:stroke fill markers;stop-color:#000" transform="scale(1 -1)"/><ellipse cx="456.36282" cy="-8890.2021" rx="3.2707179" ry="6.5900393" style="fill:#404040;fill-opacity:1;stroke:#242424;stroke-width:2.55162;stroke-dasharray:none;stroke-opacity:1;paint-order:fill markers stroke;stop-color:#000" transform="matrix(0 1 1 0 0 0)"/></g><g transform="rotate(-90 -4162.099 -4584.1)"><rect width="16.679379" height="9.9535666" x="-8898.4941" y="-441.83401" rx="0" ry="0" style="fill:#333;fill-opacity:1;stroke:#1a1a1a;stroke-width:5.10324;stroke-linecap:round;stroke-linejoin:round;stroke-dasharray:none;stroke-opacity:1;paint-order:stroke fill markers;stop-color:#000" transform="scale(1 -1)"/><ellipse cx="436.90561" cy="-8890.2021" rx="3.2707179" ry="6.5900393" style="fill:#404040;fill-opacity:1;stroke:#242424;stroke-width:2.55162;stroke-dasharray:none;stroke-opacity:1;paint-order:fill markers stroke;stop-color:#000" transform="matrix(0 1 1 0 0 0)"/><rect width="16.679379" height="9.9535666" x="-8898.4941" y="-461.29123" rx="0" ry="0" style="fill:#333;fill-opacity:1;stroke:#1a1a1a;stroke-width:5.10324;stroke-linecap:round;stroke-linejoin:round;stroke-dasharray:none;stroke-opacity:1;paint-order:stroke fill markers;stop-color:#000" transform="scale(1 -1)"/><ellipse cx="456.36282" cy="-8890.2021" rx="3.2707179" ry="6.5900393" style="fill:#404040;fill-opacity:1;stroke:#242424;stroke-width:2.55162;stroke-dasharray:none;stroke-opacity:1;paint-order:fill markers stroke;stop-color:#000" transform="matrix(0 1 1 0 0 0)"/></g><path d="M27.162-208.414h8.978v3.469h-8.978z" style="fill:#5e5e5e;fill-opacity:1;stroke:#161616;stroke-width:2.08926;stroke-linecap:round;stroke-linejoin:round;stroke-miterlimit:5;stroke-dasharray:none;stroke-opacity:1" transform="scale(-1 1)rotate(30 -661.035 -1070.857)"/><path d="M27.162-182.66h8.978v3.468h-8.978z" style="fill:#5e5e5e;fill-opacity:1;stroke:#161616;stroke-width:2.08917;stroke-linecap:round;stroke-linejoin:round;stroke-miterlimit:5;stroke-dasharray:none;stroke-opacity:1" transform="scale(-1 1)rotate(30 -661.035 -1070.857)"/><path d="m-118.866-163.783-4.767.924-13.783 7.958 9.053 15.68 13.784-7.957 3.183-3.666s-.808-3.275-2.923-6.938-4.547-6.001-4.547-6.001" style="fill:#a3a3a3;fill-opacity:1;stroke:#595959;stroke-width:2.08917;stroke-linecap:round;stroke-linejoin:round;stroke-miterlimit:5;stroke-opacity:1" transform="translate(623.99 187.05)"/><g style="stroke:#2e2825;stroke-opacity:1"><path d="M417.374 118.818h10.671m-10.671 4.94h10.671m-10.671 4.942h10.671" style="fill:#595959;fill-opacity:1;stroke:#595959;stroke-width:1.32292;stroke-linecap:round;stroke-linejoin:round;stroke-miterlimit:5;stroke-dasharray:none;stroke-opacity:1" transform="scale(-1.12806 1.12806)rotate(30 162.616 -1537.04)"/></g><path d="M41.546-202.881h3.499v18.156h-3.5z" style="fill:#5e5e5e;fill-opacity:1;stroke:#262626;stroke-width:2.05082;stroke-linecap:round;stroke-linejoin:round;stroke-miterlimit:5;stroke-dasharray:none;stroke-opacity:1" transform="scale(-1 1)rotate(30 -661.035 -1070.857)"/><path d="M40.516-203.903h1.32v20.2h-1.32z" style="fill:#262626;fill-opacity:1;stroke:none;stroke-width:5.56463;stroke-linecap:round;stroke-linejoin:round;stroke-miterlimit:5;stroke-dasharray:none;stroke-opacity:1" transform="scale(-1 1)rotate(30 -661.035 -1070.857)"/></svg>