<svg xmlns="http://www.w3.org/2000/svg" width="458.29663" height="571.33356" viewBox="0 0 121.25765 151.16533"><g style="stroke-width:1.07613"><path fill="#313335" d="M.6.488h1322v591H.6z" style="fill:#262626;fill-opacity:1;stroke-width:1.07613" transform="matrix(0 .11435 -.20517 0 121.358 -.069)"/><path fill="#4b4f53" d="M15.616 12.134h1291.967v567.713H15.616z" style="fill:#4b4b4b;fill-opacity:1;stroke-width:1.0662" transform="matrix(0 .11435 -.20517 0 121.358 -.069)"/><path fill="#6d7379" stroke="#313335" stroke-width="9.59575" d="m146.107 584.303-134.95-134.95v-43.436l178.387 178.386ZM11.157 275.234V231.8l352.505 352.504h-43.435zm0-217.552 526.621 526.62h-43.435L11.158 101.119ZM135.269 7.674l576.63 576.629H668.46L91.831 7.673Zm707.31 576.629L265.947 7.673h43.437l576.629 576.63ZM483.502 7.673l576.625 576.63h-43.435L440.067 7.673Zm707.308 576.63L614.184 7.673h43.435l576.627 576.63ZM831.738 7.673l480.304 480.304v43.436L788.302 7.673Zm174.116 0 306.188 306.188v43.435L962.418 7.674Zm174.118 0 132.07 132.07v43.435L1136.537 7.674Z" style="fill:#606060;fill-opacity:1;stroke:#262626;stroke-opacity:1" transform="matrix(0 .11435 -.20517 0 121.358 -.069)"/></g></svg>