<svg xmlns="http://www.w3.org/2000/svg" width="170.3875mm" height="237.04108mm" viewBox="0 0 170.38751 237.04108"><g transform="matrix(.59387 0 0 .55934 7634.19 -350.434)"><path d="M-9224.414 630.961a1.84 1.84 0 0 0-1.852 1.833v64.229l-74.658 76.233v123.622l74.658 75.585v70.805c0 1.015.826 1.832 1.852 1.832h203.927a1.84 1.84 0 0 0 1.852-1.832V632.794a1.84 1.84 0 0 0-1.852-1.833zm49.99 88.837h23.296a3.125 3.125 0 0 1 3.132 3.132v61.463a3.125 3.125 0 0 1-3.132 3.132h-23.296a3.125 3.125 0 0 1-3.132-3.132V722.93a3.125 3.125 0 0 1 3.132-3.132m0 169.762h23.296a3.125 3.125 0 0 1 3.132 3.132v61.462a3.126 3.126 0 0 1-3.132 3.132h-23.296a3.126 3.126 0 0 1-3.132-3.132v-61.462a3.125 3.125 0 0 1 3.132-3.132" style="fill:#396a46;fill-opacity:1;stroke:none;stroke-width:4.9;stroke-linecap:round;stroke-linejoin:round;stroke-dasharray:none;stroke-opacity:1;stop-color:#000" transform="translate(-3551.864)"/><path d="M698.16-9215.47h279.246v189.392H698.16Zm21.638 41.046v23.295a3.125 3.125 0 0 0 3.132 3.133h61.463a3.125 3.125 0 0 0 3.132-3.133v-23.295a3.125 3.125 0 0 0-3.132-3.132H722.93a3.125 3.125 0 0 0-3.132 3.132m169.762 0v23.295a3.125 3.125 0 0 0 3.132 3.133h61.462a3.126 3.126 0 0 0 3.132-3.133v-23.295a3.126 3.126 0 0 0-3.132-3.132h-61.462a3.125 3.125 0 0 0-3.132 3.132" style="fill:#000;fill-opacity:.1;stroke:none;stroke-width:10.7266;stroke-linecap:square;stroke-linejoin:miter;stroke-dasharray:none;stroke-opacity:1;paint-order:fill markers stroke;stop-color:#000" transform="matrix(0 1 1 0 -3551.864 0)"/><path d="M976.92-9224.044h3.54v201.425h-3.54zm-281.306 0h3.54v201.425h-3.54z" style="fill:#1f472d;fill-opacity:1;stroke:none;stroke-width:3.42235;stroke-dasharray:none;stroke-opacity:1;paint-order:fill markers stroke;stop-color:#000" transform="matrix(0 1 1 0 -3551.864 0)"/><path d="M-9216.868-978.332h3.539v281.874h-3.54z" style="fill:#1f472d;fill-opacity:1;stroke:none;stroke-width:3.42235;stroke-dasharray:none;stroke-opacity:1;paint-order:fill markers stroke;stop-color:#000" transform="matrix(1 0 0 -1 -3551.864 0)"/><path d="M-9224.649 628.262c-1.03 0-1.859.83-1.859 1.86v68.363l-74.956 77.365v125.456l74.956 76.708v68.675c0 1.03.83 1.86 1.86 1.86h204.737c1.03 0 1.86-.83 1.86-1.86V630.12c0-1.03-.83-1.86-1.86-1.86zm11.458 10.8h182.455c1.032 0 1.86.83 1.86 1.86v395.009c0 1.03-.83 1.859-1.86 1.859h-182.623c-1.03 0-1.86-.83-1.86-1.86v-62.697l-74.13-77.092V779.816l74.299-77.105v-61.79c0-1.03.829-1.86 1.859-1.86" style="fill:#a3a3a3;fill-opacity:1;stroke:#404040;stroke-width:3.5;stroke-linecap:round;stroke-linejoin:round;stroke-dasharray:none;stroke-opacity:1;stop-color:#000" transform="translate(-3551.864)"/><g transform="rotate(90 -11007.734 -943.289)"><ellipse cx="-9229.2285" cy="835.21686" rx="54.63855" ry="46.434376" style="fill:#1f1f1f;fill-opacity:1;stroke:#0d0d0d;stroke-width:4;stroke-linecap:round;stroke-linejoin:round;stroke-dasharray:none;stroke-opacity:1;stop-color:#000"/><ellipse cx="-9229.5" cy="835.4082" rx="43.842731" ry="33.866665" style="fill:#0f0f0f;fill-opacity:1;stroke:#080808;stroke-width:4;stroke-linecap:round;stroke-linejoin:round;stroke-dasharray:none;stroke-opacity:1;stop-color:#000"/></g><ellipse cx="-1020.9428" cy="-12599.486" rx="10.367999" ry="10.368" style="fill:#b3b3b3;fill-opacity:1;stroke:#474747;stroke-width:3;stroke-dasharray:none;stroke-opacity:1;paint-order:fill markers stroke;stop-color:#000" transform="rotate(-90)"/><g transform="rotate(36.508 -3776.983 -13854.403)"><circle cx="-2078.98" cy="3380.0859" r="21.594" style="fill:#b3b3b3;fill-opacity:1;stroke:#474747;stroke-width:4;stroke-dasharray:none;stroke-opacity:1;paint-order:fill markers stroke;stop-color:#000"/><path d="m-2093.798 3393.07 29.636-25.968" style="fill:#474747;fill-opacity:1;stroke:#474747;stroke-width:4;stroke-linecap:square;stroke-linejoin:round;stroke-dasharray:none;stroke-opacity:1"/></g><g transform="rotate(90 -6034.702 -3198.741)"><ellipse cx="-2167.0291" cy="3503.7698" rx="21.32041" ry="26.053535" style="fill:none;fill-opacity:1;stroke:#262626;stroke-width:3.0894;stroke-dasharray:none;stroke-opacity:1;paint-order:fill markers stroke;stop-color:#000"/><rect width="41.056313" height="6.5546136" x="2146.501" y="-3507.9934" ry="0" style="fill:none;fill-opacity:1;stroke:#262626;stroke-width:3.4165;stroke-dasharray:none;stroke-opacity:1;paint-order:fill markers stroke;stop-color:#000" transform="scale(-1)"/><rect width="60.800667" height="7.823122" x="3510.1292" y="2163.1174" rx="3.6327446" ry="2.9727864" style="fill:#999;fill-opacity:1;stroke:#4d4d4d;stroke-width:2.77344;stroke-dasharray:none;stroke-opacity:1;paint-order:fill markers stroke;stop-color:#000" transform="rotate(90)"/><ellipse cx="3504.2019" cy="2167.0291" rx="18.437057" ry="15.087611" style="fill:#b3b3b3;fill-opacity:1;stroke:#474747;stroke-width:4.40903;stroke-dasharray:none;stroke-opacity:1;paint-order:fill markers stroke;stop-color:#000" transform="rotate(90)"/><rect width="15.599627" height="4.5966897" x="-2174.8477" y="3567.3123" rx="1.8808062" ry="2.2983449" style="fill:#5c5c5c;fill-opacity:.948097;stroke:#454545;stroke-width:2.77344;stroke-dasharray:none;stroke-opacity:1;paint-order:fill markers stroke;stop-color:#000"/></g><g style="stroke-width:.76905" transform="matrix(0 1.62937 1.64716 0 -18406.084 4580.417)"><rect width="23.336376" height="39.728882" x="-2308.1045" y="3486.5967" rx="1.639511" ry="1.65741" style="fill:gray;fill-opacity:1;stroke:#4d4d4d;stroke-width:1.99454;stroke-dasharray:none;stroke-opacity:1;paint-order:fill markers stroke;stop-color:#000"/><ellipse cx="-2296.436" cy="3508.0962" rx="71.913177" ry="12.708494" style="fill:#999;fill-opacity:1;stroke:#4d4d4d;stroke-width:2.13292;stroke-dasharray:none;stroke-opacity:1;paint-order:fill markers stroke;stop-color:#000"/><ellipse cx="-2296.436" cy="3507.7727" rx="7.4125891" ry="9.0581827" style="fill:#383838;fill-opacity:1;stroke:#262626;stroke-width:2.13292;stroke-dasharray:none;stroke-opacity:1;paint-order:fill markers stroke;stop-color:#000"/><rect width="29.82674" height="5.9455729" x="-3522.6221" y="-2363.2539" rx="2.2295356" ry="1.8047942" style="fill:none;fill-opacity:1;stroke:#262626;stroke-width:2.13292;stroke-dasharray:none;stroke-opacity:1;paint-order:fill markers stroke;stop-color:#000" transform="rotate(-90)"/><rect width="29.82674" height="5.9455729" x="-3522.6387" y="-2235.7454" rx="2.2295356" ry="1.8047942" style="fill:none;fill-opacity:1;stroke:#262626;stroke-width:2.13292;stroke-dasharray:none;stroke-opacity:1;paint-order:fill markers stroke;stop-color:#000" transform="rotate(-90)"/><rect width="87.24556" height="8.6713762" x="-3053.3191" y="2627.5952" rx="1.6843488" ry="2.0213015" style="fill:#b3b3b3;fill-opacity:1;stroke:#474747;stroke-width:2.68996;stroke-dasharray:none;stroke-opacity:1;paint-order:fill markers stroke;stop-color:#000" transform="matrix(.95035 -.31118 .21418 .9768 0 0)"/></g><g transform="translate(-10765.514 -2147.826)"><ellipse cx="-3156.7415" cy="-1976.7865" rx="21.491386" ry="19.908224" style="fill:none;fill-opacity:1;stroke:#262626;stroke-width:2.71138;stroke-dasharray:none;stroke-opacity:1;paint-order:fill markers stroke;stop-color:#000" transform="rotate(-90)"/><rect width="38.037327" height="6.5157251" x="3137.6343" y="1977.4213" ry="0" style="fill:none;fill-opacity:1;stroke:#262626;stroke-width:3.27872;stroke-dasharray:none;stroke-opacity:1;paint-order:fill markers stroke;stop-color:#000" transform="rotate(90)"/><ellipse cx="-3157.0894" cy="-1982.7777" rx="7.4125891" ry="9.0581827" style="fill:#383838;fill-opacity:1;stroke:#262626;stroke-width:2.77344;stroke-dasharray:none;stroke-opacity:1;paint-order:fill markers stroke;stop-color:#000" transform="rotate(-90)"/><rect width="38.593414" height="14.466447" x="-3176.0933" y="-1969.8363" rx="4.4985685" ry="5.4972496" style="fill:gray;fill-opacity:1;stroke:#4d4d4d;stroke-width:3.00478;stroke-dasharray:none;stroke-opacity:1;paint-order:fill markers stroke;stop-color:#000" transform="rotate(-90)"/><rect width="95.943581" height="7.8457222" x="-3368.4565" y="1720.6031" rx="3.0446048" ry="2.9353123" style="fill:#b3b3b3;fill-opacity:1;stroke:#474747;stroke-width:3.48899;stroke-dasharray:none;stroke-opacity:1;paint-order:fill markers stroke;stop-color:#000" transform="matrix(.86326 -.50475 .51255 .85866 0 0)"/></g><g transform="rotate(80.294 -5764.994 -4251.664)"><circle cx="-2079.1221" cy="3379.6326" r="21.594" style="fill:#b3b3b3;fill-opacity:1;stroke:#474747;stroke-width:4;stroke-dasharray:none;stroke-opacity:1;paint-order:fill markers stroke;stop-color:#000"/><path d="m-2094.917 3391.409 31.59-23.553" style="fill:#474747;fill-opacity:1;stroke:#474747;stroke-width:4;stroke-linecap:square;stroke-linejoin:round;stroke-dasharray:none;stroke-opacity:1"/></g><ellipse cx="-995.68579" cy="-12599.486" rx="10.367999" ry="10.368" style="fill:#b3b3b3;fill-opacity:1;stroke:#474747;stroke-width:3;stroke-dasharray:none;stroke-opacity:1;paint-order:fill markers stroke;stop-color:#000" transform="rotate(-90)"/><ellipse cx="-681.08551" cy="-12599.486" rx="10.367999" ry="10.368" style="fill:#b3b3b3;fill-opacity:1;stroke:#474747;stroke-width:3;stroke-dasharray:none;stroke-opacity:1;paint-order:fill markers stroke;stop-color:#000" transform="rotate(-90)"/><ellipse cx="-655.82849" cy="-12599.486" rx="10.367999" ry="10.368" style="fill:#b3b3b3;fill-opacity:1;stroke:#474747;stroke-width:3;stroke-dasharray:none;stroke-opacity:1;paint-order:fill markers stroke;stop-color:#000" transform="rotate(-90)"/><path fill="#333" d="M-12729.686 888.114v69.463h30.567v-69.463zm26.62 2.657v28.02h-22.831v-28.02zm0 34.886v27.912h-22.831v-27.912z"/><g style="stroke-width:1.10003"><path d="M199.288-322.403h30.556v4.122h-30.556zm0 13.251h30.556v4.122h-30.556zm0-6.625h30.556v4.121h-30.556z" style="fill:#999;stroke-width:.545207" transform="matrix(0 .85037 -.9718 0 -13019.124 723.09)"/><path fill="#666" d="M-12701.273 892.107c0-1.028-.936-1.855-2.097-1.855h-22.065c-1.162 0-2.097.827-2.097 1.855v27.23c0 1.027.935 1.854 2.097 1.854h22.065c1.161 0 2.097-.827 2.097-1.855zm-2.694.825v25.582h-20.602v-25.582z"/></g><g style="stroke-width:1.10003"><path d="M199.288-322.403h30.556v4.122h-30.556zm0 13.251h30.556v4.122h-30.556zm0-6.625h30.556v4.121h-30.556z" style="fill:#999;stroke-width:.545207" transform="matrix(0 .85037 -.9718 0 -13019.124 757.338)"/><path fill="#666" d="M-12701.273 926.355c0-1.028-.936-1.855-2.097-1.855h-22.065c-1.162 0-2.097.827-2.097 1.855v27.23c0 1.027.935 1.854 2.097 1.854h22.065c1.161 0 2.097-.827 2.097-1.855zm-2.694.825v25.582h-20.602V927.18z"/></g><path fill="#333" d="M-12729.686 789.095V719.63h30.567v69.464zm26.62-2.658v-28.02h-22.831v28.02zm0-34.886V723.64h-22.831v27.911z"/><g style="stroke-width:1.10003"><path d="M199.288-322.403h30.556v4.122h-30.556zm0 13.251h30.556v4.122h-30.556zm0-6.625h30.556v4.121h-30.556z" style="fill:#999;stroke-width:.545207" transform="matrix(0 -.85037 -.9718 0 -13019.124 954.119)"/><path fill="#666" d="M-12701.273 785.102c0 1.027-.936 1.855-2.097 1.855h-22.065c-1.162 0-2.097-.828-2.097-1.855v-27.23c0-1.027.935-1.855 2.097-1.855h22.065c1.161 0 2.097.828 2.097 1.855zm-2.694-.825v-25.582h-20.602v25.582z"/></g><g style="stroke-width:1.10003"><path d="M199.288-322.403h30.556v4.122h-30.556zm0 13.251h30.556v4.122h-30.556zm0-6.625h30.556v4.121h-30.556z" style="fill:#999;stroke-width:.545207" transform="matrix(0 -.85037 -.9718 0 -13019.124 919.87)"/><path fill="#666" d="M-12701.273 750.854c0 1.028-.936 1.855-2.097 1.855h-22.065c-1.162 0-2.097-.827-2.097-1.855v-27.23c0-1.027.935-1.854 2.097-1.854h22.065c1.161 0 2.097.827 2.097 1.855zm-2.694-.825v-25.582h-20.602v25.582z"/></g></g></svg>