<svg xmlns="http://www.w3.org/2000/svg" xmlns:xlink="http://www.w3.org/1999/xlink" width="207.90909mm" height="243.11917mm" viewBox="0 0 415.81819 486.23834"><defs><pattern xlink:href="#a" id="f" patternTransform="translate(-9927.475 628.492)scale(.2628)"/><pattern id="a" width="725.10954" height="1336.2128" patternTransform="translate(-37456.064 2369.919)" patternUnits="userSpaceOnUse"><path d="M0 0v779.581h725.11V0Z" style="fill:url(#b);stroke:none;stroke-width:1.01989"/><path d="M-3915.527-742.233h28.337v29.51h-28.337zm-.008-31.151h28.337v29.51h-28.337zm.011 62.527h28.336v29.51h-28.336zm-.001 31.331h28.336v29.51h-28.336zm-.005 31.302h28.337v29.51h-28.337zm30.072-94.006h28.337v29.51h-28.337zm-.008-31.151h28.337v29.51h-28.337zm.012 62.527h28.337v29.51h-28.337zm-.002 31.331h28.337v29.51h-28.337zm-.004 31.302h28.337v29.51h-28.337zm30.042-94.011h28.337v29.51h-28.337zm-.007-31.151h28.337v29.51h-28.337zm.011 62.527h28.337v29.51h-28.337zm-.002 31.331h28.337v29.51h-28.337zm-.004 31.301h28.338v29.51h-28.337zm30.071-94.005h28.337v29.51h-28.337zm-.006-31.151h28.336v29.51h-28.337zm.01 62.527h28.337v29.51h-28.337zm-.001 31.331h28.337v29.51h-28.337zm-.004 31.302h28.336v29.509h-28.337z" style="fill:#595959;fill-opacity:1;stroke:#3e3e3e;stroke-width:1.99855;stroke-dasharray:none;stroke-opacity:1;paint-order:fill markers stroke;stop-color:#000" transform="rotate(-90 -6602.74 -10186.592)scale(4.62796)"/></pattern><pattern xlink:href="#c" id="b" patternTransform="translate(.001 -334.94)scale(1.01989)"/><pattern id="c" width="710.96689" height="1092.7848" patternTransform="translate(-37446.871 2057.37)" patternUnits="userSpaceOnUse"><path d="M-1088.215 145.89h128.584v133.906h-128.584zm-.035-141.356h128.584V138.44h-128.584zm.049 283.731h128.583V422.17H-1088.2zm-.005 142.171h128.584v133.906h-128.584zm-.019 142.035h128.584v133.906h-128.584zm136.455-426.566h128.585v133.906H-951.77zm-.034-141.355h128.584v133.905h-128.584zm.051 283.726h128.584v133.906h-128.584zm-.009 142.175h128.584v133.906h-128.584zm-.014 142.031h128.584v133.906h-128.584zm136.32-426.588h128.584V279.8h-128.584zm-.035-141.356h128.584v133.906h-128.584zm.051 283.727h128.584V422.17H-815.44zm-.01 142.171h128.585v133.906H-815.45zm-.016 142.035h128.584v133.906h-128.584zm136.458-426.566h128.584v133.906h-128.584zM-679.04 4.55h128.583v133.905H-679.04zm.046 283.73h128.584v133.905h-128.584zm-.004 142.171h128.583v133.906h-128.583zm-.019 142.035h128.584v133.906h-128.584zm136.679-426.556h128.584v133.907h-128.584zm-.035-141.355h128.584v133.906h-128.584zm.049 283.727h128.584v133.906h-128.584zm-.005 142.171h128.584V564.38h-128.584zm-.021 142.035h128.585v133.906H-542.35zm136.458-426.566h128.584v133.906h-128.584zm-.035-141.356h128.584v133.906h-128.584zm.052 283.73h128.584v133.906h-128.584zm-.01 142.172H-277.3v133.906h-128.584zm-.015 142.035h128.583v133.906H-405.9zm136.321-426.593h128.584v133.907h-128.584zm-.032-141.355h128.584v133.906h-128.584zm.051 283.73h128.584v133.906H-269.56zm-.01 142.172h128.585v133.906H-269.57zm-.015 142.035h128.583v133.906h-128.583zm136.45-426.566H-4.55v133.906h-128.584zm-.03-141.356H-4.58v133.906h-128.584zm.047 283.73H-4.534v133.906h-128.584zm-.005 142.172H-4.539v133.906h-128.584zm-.021 142.035H-4.56v133.906h-128.584z" style="fill:#595959;fill-opacity:1;stroke:#3e3e3e;stroke-width:9.06879;stroke-dasharray:none;stroke-opacity:1;paint-order:fill markers stroke;stop-color:#000" transform="rotate(-90)"/></pattern><pattern xlink:href="#d" id="h" patternTransform="matrix(.26007 0 0 .2477 -9459.66 776.6)"/><pattern xlink:href="#e" id="d" patternTransform="matrix(.3032 0 0 .28878 -9459.66 776.6)"/><pattern id="e" width="44.13185" height="44.130772" patternTransform="translate(-8952.829 11274.059)" patternUnits="userSpaceOnUse"><path d="M-2710.991-5339.069h11.676v11.676h-11.676z" style="fill:#8c8c8c;fill-opacity:1;stroke:none;stroke-width:2.878;stroke-linecap:square;stroke-linejoin:miter;stroke-dasharray:none;stroke-opacity:1;stop-color:#000" transform="rotate(-90 4988.52 -15190.65)scale(3.77953)"/><path fill="#d9d9d9" d="M-5339.07 2705.16c2.567-2.588 2.781-4.665 2.781-4.665s-1.137.119-2.78 1.222zm5.792 3.995a13 13 0 0 1 1.543 1.836h-3.469c-2.564-2.585-2.778-4.66-2.778-4.66s2.098.22 4.704 2.824m-1.932-9.84h3.47c1.164 1.693 1.285 2.876 1.285 2.876s-2.148-.27-4.754-2.876m7.816 2.4v3.436c-2.606 2.607-4.755 2.874-4.755 2.874s.22-2.101 2.826-4.707a13 13 0 0 1 1.929-1.603" style="fill:#a6a6a6;fill-opacity:1;stroke-width:.264583" transform="translate(20179.16 -10202.134)scale(3.77953)"/></pattern><clipPath id="g" clipPathUnits="userSpaceOnUse"><circle cx="-9421.1309" cy="-846.45837" r="17.305702" style="fill:#595959;fill-opacity:1;stroke:#595959;stroke-width:3;stroke-linecap:round;stroke-linejoin:round;stroke-opacity:1;stop-color:#000" transform="scale(1 -1)"/></clipPath><clipPath id="j" clipPathUnits="userSpaceOnUse"><circle cx="-9421.1309" cy="-846.45837" r="17.305702" style="fill:#595959;fill-opacity:1;stroke:#595959;stroke-width:3;stroke-linecap:round;stroke-linejoin:round;stroke-opacity:1;stop-color:#000" transform="scale(1 -1)"/></clipPath></defs><g style="stroke-width:.995151"><path d="M-3340.235 20.026c-130.367 0-236.05 128.098-236.05 286.116 0 191.53 161.484 283.508 236.05 283.508 76.763 0 236.05-84.53 236.05-283.508.001-158.018-105.683-286.116-236.05-286.116zm-158.064 286.667h319.8v82.703h-319.8z" style="fill:#551b1b;fill-opacity:1;stroke:#2e0000;stroke-width:5.3097;stroke-linecap:square;stroke-linejoin:miter;stroke-dasharray:none;stroke-opacity:1;paint-order:fill markers stroke;stop-color:#000" transform="matrix(0 1.00489 1.00486 0 -179.364 3600.877)"/><path d="M-3340.198 55.404c-124.568 0-225.55-602.408-225.55 261.19 0 137.36 124.068 261.19 225.55 261.19 101.865 0 225.55-119.037 225.55-261.19 0-773.548-100.982-261.19-225.55-261.19zm-151.033 261.694h305.575v75.498h-305.575z" style="fill:#1c1c1c;fill-opacity:1;stroke:#0d0d0d;stroke-width:5.3097;stroke-linecap:square;stroke-linejoin:miter;stroke-dasharray:none;stroke-opacity:1;paint-order:fill markers stroke;stop-color:#000" transform="matrix(0 1.00489 1.00486 0 -179.364 3600.877)"/><g style="stroke-width:.995151"><path d="M-3576.085-1025.897h471.69v1364.08h-471.69z" style="opacity:1;fill:#661f1f;fill-opacity:1;stroke:#2e0000;stroke-width:5.50418;stroke-linecap:round;stroke-linejoin:round;stroke-dasharray:none;stroke-opacity:1;stop-color:#000" transform="matrix(0 1.0051 .9657 0 -209.729 3601.575)"/><path d="M-3565.437-1026.79h450.648V338.202h-450.648z" style="opacity:1;fill:#262626;fill-opacity:1;stroke:#0d0d0d;stroke-width:5.50443;stroke-linecap:round;stroke-linejoin:miter;stroke-dasharray:none;stroke-opacity:1;stop-color:#000" transform="matrix(0 1.0051 .9657 0 -209.729 3601.575)"/><path d="M-3552.776-1025.981h424.62V338.234h-424.62z" style="fill:#376242;fill-opacity:1;stroke:#0d0d0d;stroke-width:5.60418;stroke-linecap:square;stroke-linejoin:miter;stroke-dasharray:none;stroke-opacity:1;paint-order:fill markers stroke;stop-color:#000" transform="matrix(0 1.0051 .9657 0 -209.729 3601.575)"/><path d="M3132.506-1015.574h415.966V337.527h-415.966z" style="fill:#3a553a;fill-opacity:1;stroke:#1a2d1f;stroke-width:5.60418;stroke-linecap:square;stroke-linejoin:miter;stroke-dasharray:none;stroke-opacity:1;paint-order:fill markers stroke;stop-color:#000" transform="matrix(0 -1.0051 .9657 0 -209.729 3601.575)"/><g transform="matrix(1.0051 0 0 -.9657 10712.167 1633.887)"><rect width="446.47147" height="191.40971" x="-1661.4604" y="-11626.048" ry="0" style="fill:#000;fill-opacity:.1;stroke:none;stroke-width:10.8877;stroke-linecap:square;stroke-linejoin:miter;stroke-dasharray:none;stroke-opacity:1;paint-order:fill markers stroke;stop-color:#000" transform="rotate(-90)"/><rect width="446.47147" height="189.17603" x="-1661.4604" y="-11279.283" ry="0" style="fill:#000;fill-opacity:.1;stroke:none;stroke-width:10.8239;stroke-linecap:square;stroke-linejoin:miter;stroke-dasharray:none;stroke-opacity:1;paint-order:fill markers stroke;stop-color:#000" transform="rotate(-90)"/><rect width="446.47147" height="180.24132" x="-1661.4604" y="-10925.314" ry="0" style="fill:#000;fill-opacity:.1;stroke:none;stroke-width:10.5653;stroke-linecap:square;stroke-linejoin:miter;stroke-dasharray:none;stroke-opacity:1;paint-order:fill markers stroke;stop-color:#000" transform="rotate(-90)"/><path d="M-10799.78 1403.816c-2.155 6.522-7.17 11.425-11.914 16.17-1.135 1.135-1.994 2.64-3.405 3.404-7.242 3.923-16.835 3.685-22.552-2.553-2.535-2.766-3.31-6.455-4.681-9.787-1.848-4.488-5.344-11.218-8.937-14.468-8.522-7.71-15.278-5.602-17.446-19.148-1.106-6.914 3.677-14.102 7.234-19.574 2.43-3.74 4.972-8.659 8.51-11.49 3.407-2.725 8.65-2.946 12.766-3.404 10.524-1.169 19.13-.285 28.511 4.681 2.274 1.205 6.93 3.726 8.509 5.532 2.415 2.76 1.802 9.78 1.703 12.766-.213 6.38-1.479 12.06-2.553 18.297-.365 2.115-.484 4.268-.852 6.383-.298 1.718-1.592 6.23-.851 8.085.459 1.144 3.811 1.028 4.681 1.276 2.13.609 7.491 3.236 8.936 4.681" style="fill:#292929;fill-opacity:.88;stroke:none;stroke-width:4;stroke-linecap:round;stroke-linejoin:round;stroke-dasharray:none;stroke-opacity:1;paint-order:stroke fill markers;stop-color:#000"/><rect width="446.47147" height="113.9044" x="-1661.4604" y="-10570.465" ry="0" style="fill:#000;fill-opacity:.1;stroke:none;stroke-width:10.5653;stroke-linecap:square;stroke-linejoin:miter;stroke-dasharray:none;stroke-opacity:1;paint-order:fill markers stroke;stop-color:#000" transform="rotate(-90)"/></g><path d="M-3581.073-1028.438h101.694l76.686-77.744h124.328l76.687 77.744h101.95v18.747h-481.345z" style="fill:#591c1c;fill-opacity:1;stroke:#2e0000;stroke-width:4.48017;stroke-linecap:square;stroke-linejoin:miter;stroke-dasharray:none;stroke-opacity:1;paint-order:fill markers stroke;stop-color:#000" transform="matrix(0 1.0051 .9657 0 -209.729 3601.575)"/></g><path d="M-3127.9 295.144v-.06zm-.046.344h-425.05c-.023-3.69-.117 2.83-.117-2.554 0 153.766 118.259 267.828 212.342 267.828 94.72 0 212.825-112.28 212.825-265.274z" style="fill:#3b6947;fill-opacity:1;stroke:#0d0d0d;stroke-width:5.67734;stroke-linecap:square;stroke-linejoin:miter;stroke-dasharray:none;stroke-opacity:1;paint-order:fill markers stroke;stop-color:#000" transform="matrix(0 1.00489 1.00486 0 -179.364 3600.877)"/><path d="M-3132.514 293.93c-43.612 1.486-414.13.127-415.977.077 0 151.504 115.702 261.291 207.751 261.291 92.674 0 208.226-110.626 208.226-261.369z" style="fill:#3b6947;fill-opacity:1;stroke:#101e15;stroke-width:5.67734;stroke-linecap:square;stroke-linejoin:miter;stroke-dasharray:none;stroke-opacity:1;paint-order:fill markers stroke;stop-color:#000" transform="matrix(0 1.00489 1.00486 0 -179.364 3600.877)"/><path d="M-3505.753 293.73h10.276v48.644l21.922 23.948v102.313l-11.303-15.875v-79.702l-21.652-23.652v-55.675z" style="fill:#31573b;fill-opacity:1;stroke:none;stroke-width:3;stroke-linecap:round;stroke-linejoin:round;stroke-dasharray:none;stroke-opacity:1;paint-order:stroke fill markers;stop-color:#000" transform="matrix(0 1.00489 1.00486 0 -179.364 3600.877)"/><path d="M-3505.753 293.73h10.276v48.644l21.922 23.948v102.313l-11.303-15.875v-79.702l-21.652-23.652v-55.675z" style="fill:#e3c852;fill-opacity:1;stroke:none;stroke-width:3;stroke-linecap:round;stroke-linejoin:round;stroke-dasharray:none;stroke-opacity:1;paint-order:stroke fill markers;stop-color:#000" transform="matrix(0 1.00489 1.00486 0 -179.364 3600.877)"/><path d="M-3506.51 293.73h11.033v16.465c-.236.073-.615.155-1.226.257-1.841.307-8.515.323-9.682 1.49-.484.484 4.937 5.351 4.469 5.585-.458.229-1.005.21-1.49.372-1.006.336-1.986.745-2.979 1.117l-.125.048zm0 45.404c.01-.276.024-.523.044-.718s.047-.339.082-.409c.028-.055.09-.055.16-.041s.15.041.212.041c1.486 0 2.99-.018 4.489-.12 1.497-.102 2.989-.288 4.448-.624q.378-.089.779-.224.4-.136.82-.314v5.65l21.922 23.947v53.563l-11.304-11.826v-35.001l-21.652-23.652v-11.73c.084-.675.126-1.34.126-1.903 0-.618-.086 7.83-.126 5.964v-1.301zm21.651 101.163c2.066-1.936 3.265-7.224 6.029-6.219 1.043.38 2.167.733 2.979 1.49.794.741 1.557 2.106 2.296 3.255v29.812l-11.304-15.875z" style="fill:#e3c852;fill-opacity:1;stroke:none;stroke-width:3;stroke-linecap:round;stroke-linejoin:round;stroke-dasharray:none;stroke-opacity:1;paint-order:stroke fill markers;stop-color:#000" transform="matrix(0 1.00489 1.00486 0 -179.364 3600.877)"/></g><path d="M-602.16 121.427H694.83v9.642H-602.16z" style="fill:#e3c852;fill-opacity:1;stroke:none;stroke-width:3.00001;stroke-linecap:round;stroke-linejoin:round;stroke-dasharray:none;stroke-opacity:1;paint-order:stroke fill markers;stop-color:#000" transform="matrix(1 0 0 -1 -581.312 187.05)"/><g style="stroke-width:1.23352" transform="translate(6547.59 -460.052)scale(.81069)"><rect width="25.69507" height="25.69507" x="-7820.6621" y="683.41388" rx="0" ry="0" style="fill:#666;fill-opacity:1;stroke:#333;stroke-width:7.40109;stroke-linecap:round;stroke-linejoin:round;stroke-dasharray:none;stroke-opacity:1;paint-order:stroke fill markers;stop-color:#000"/><circle cx="-695.94653" cy="-7807.894" r="9.5573559" style="fill:gray;fill-opacity:1;stroke:#262626;stroke-width:3.70055;stroke-dasharray:none;stroke-opacity:1;paint-order:fill markers stroke;stop-color:#000" transform="rotate(-90)"/></g><g transform="matrix(1 0 0 -1 7760.949 1128.039)"><rect width="42.065331" height="20.830765" x="-7633.854" y="688.2782" rx="0" ry="0" style="fill:#666;fill-opacity:1;stroke:#333;stroke-width:6;stroke-linecap:round;stroke-linejoin:round;stroke-dasharray:none;stroke-opacity:1;paint-order:stroke fill markers;stop-color:#000"/><circle cx="-698.43829" cy="-7602.2686" r="7.7480636" style="fill:gray;fill-opacity:1;stroke:#262626;stroke-width:3;stroke-dasharray:none;stroke-opacity:1;paint-order:fill markers stroke;stop-color:#000" transform="rotate(-90)"/><circle cx="-698.43829" cy="-7622.8481" r="7.7480636" style="fill:gray;fill-opacity:1;stroke:#262626;stroke-width:3;stroke-dasharray:none;stroke-opacity:1;paint-order:fill markers stroke;stop-color:#000" transform="rotate(-90)"/></g><g transform="translate(7760.949 -639.943)"><rect width="42.065331" height="20.830765" x="-7633.854" y="688.2782" rx="0" ry="0" style="fill:#666;fill-opacity:1;stroke:#333;stroke-width:6;stroke-linecap:round;stroke-linejoin:round;stroke-dasharray:none;stroke-opacity:1;paint-order:stroke fill markers;stop-color:#000"/><circle cx="-698.43829" cy="-7602.2686" r="7.7480636" style="fill:gray;fill-opacity:1;stroke:#262626;stroke-width:3;stroke-dasharray:none;stroke-opacity:1;paint-order:fill markers stroke;stop-color:#000" transform="rotate(-90)"/><circle cx="-698.43829" cy="-7622.8481" r="7.7480636" style="fill:gray;fill-opacity:1;stroke:#262626;stroke-width:3;stroke-dasharray:none;stroke-opacity:1;paint-order:fill markers stroke;stop-color:#000" transform="rotate(-90)"/></g><path d="M697.104 222.916v-10.292h48.644l23.947-21.956h102.31l-15.875 11.321h-79.7l-23.65 21.685h-55.675z" style="fill:#31573b;fill-opacity:1;stroke:none;stroke-width:3;stroke-linecap:round;stroke-linejoin:round;stroke-dasharray:none;stroke-opacity:1;paint-order:stroke fill markers;stop-color:#000" transform="translate(-581.312 187.05)"/><path d="M697.104 222.916v-10.292h48.644l23.947-21.956h102.31l-15.875 11.321h-79.7l-23.65 21.685h-55.675z" style="fill:#e3c852;fill-opacity:1;stroke:none;stroke-width:3;stroke-linecap:round;stroke-linejoin:round;stroke-dasharray:none;stroke-opacity:1;paint-order:stroke fill markers;stop-color:#000" transform="translate(-581.312 187.05)"/><path d="m769.695 190.668-9.05 8.297c.921.927 2.053 2.072 2.28 2.282 1.601 1.477 3.2 3.188 5.24 4.116.717.326 1.538.395 2.244.748q.475.24.955.523l5.066-4.645h32.69l.55-1.992c0-.353-.315-.9 0-1.059.294.442.53 1.27 1.323.794.273-.164.346-.534.53-.794 1.872-2.653 2.84-4.907 6.085-5.556.697-.14 1.453-.52 2.116-.265.958.369 2.318 4.26 3.705 3.705.997-.4 1.068-1.069 1.852-1.852 1.501-1.502 3.801-3.52 6.14-3.554q.503-.013 1.003.114c1.224.306 1.537 3.971 2.382 5.027 1.312 1.641.26-.064 2.116 1.588.426.378 2.217 2.928 2.382 3.175.128.191.27.42.42.67h16.406l15.875-11.322zm-12.487 11.448-11.46 10.508h-7.368c-.626 1.026 2.982 7.373 2.433 8.473-.213.425-.379.872-.53 1.323-.03.084.08.304 0 .265-1.588-.794-6.858-8.608-8.002-10.061h-1.944c-.663.474.933 2.207.421 2.718-.487.488-.836 1.1-1.323 1.588-.06.062-.248.087-.264 0 0-2.15-4.084-2.353-6.038-4.306h-26.028v11.05h55.673L766.82 210.8c-.763-1.438-1.842-2.784-3.146-3.567-1.822-1.092-3.823-.636-5.239-2.619-.566-.792-.939-1.633-1.227-2.498" style="fill:#e3c852;fill-opacity:1;stroke:none;stroke-width:3;stroke-linecap:round;stroke-linejoin:round;stroke-dasharray:none;stroke-opacity:1;paint-order:stroke fill markers;stop-color:#000" transform="translate(-581.312 187.05)"/><g style="stroke-width:1.23352" transform="matrix(.8107 0 0 -.8107 6547.59 948.148)"><rect width="25.69507" height="25.69507" x="-7820.6621" y="683.41388" rx="0" ry="0" style="fill:#666;fill-opacity:1;stroke:#333;stroke-width:7.40109;stroke-linecap:round;stroke-linejoin:round;stroke-dasharray:none;stroke-opacity:1;paint-order:stroke fill markers;stop-color:#000"/><circle cx="-695.94653" cy="-7807.894" r="9.5573559" style="fill:gray;fill-opacity:1;stroke:#262626;stroke-width:3.70055;stroke-dasharray:none;stroke-opacity:1;paint-order:fill markers stroke;stop-color:#000" transform="rotate(-90)"/></g><g style="stroke-width:1.08232" transform="matrix(0 -.92415 .92374 0 -471.997 -996.028)"><path d="M-1407.016 788.93h24.341v39.387h-24.341zm106.266 0h24.342v39.387h-24.342zm-121.608-82.576h161.665v69.694h-161.665z" style="fill:#666;fill-opacity:1;stroke:#333;stroke-width:3.78812;stroke-linecap:round;stroke-linejoin:round;stroke-dasharray:none;stroke-opacity:1;stop-color:#000"/><path d="M748.608-1431.95h10.123v180.6h-10.123z" style="fill:gray;fill-opacity:1;stroke:#262626;stroke-width:3.78812;stroke-linecap:round;stroke-linejoin:round;stroke-dasharray:none;stroke-opacity:1;stop-color:#000" transform="matrix(0 1 1 0 0 0)"/><path d="M-1354.1 714.037h24.342v54.394h-24.342z" style="fill:#b3b3b3;fill-opacity:1;stroke:#474747;stroke-width:3.78812;stroke-linecap:round;stroke-linejoin:round;stroke-dasharray:none;stroke-opacity:1;stop-color:#000"/><path d="M-1449.86 743.085h30.87v20.954h-30.87z" style="fill:#b3b3b3;fill-opacity:1;stroke:#474747;stroke-width:3.7881;stroke-linecap:round;stroke-linejoin:round;stroke-dasharray:none;stroke-opacity:1;stop-color:#000"/><path d="M1232.948 743.085h30.87v20.954h-30.87z" style="fill:#b3b3b3;fill-opacity:1;stroke:#474747;stroke-width:3.7881;stroke-linecap:round;stroke-linejoin:round;stroke-dasharray:none;stroke-opacity:1;stop-color:#000" transform="scale(-1 1)"/><path d="M-1400.64 735.633h13.097v35.546h-13.096z" style="fill:#383838;fill-opacity:1;stroke:#262626;stroke-width:3.7881;stroke-linecap:round;stroke-linejoin:round;stroke-dasharray:none;stroke-opacity:1;stop-color:#000"/><path d="M-1396.35 735.932h4.49v124.975h-4.49z" style="fill:#262626;fill-opacity:1;stroke:none;stroke-width:3.7881;stroke-linecap:round;stroke-linejoin:round;stroke-dasharray:none;stroke-opacity:1;stop-color:#000"/><path d="M1282.553 735.633h13.096v35.546h-13.096z" style="fill:#383838;fill-opacity:1;stroke:#262626;stroke-width:3.7881;stroke-linecap:round;stroke-linejoin:round;stroke-dasharray:none;stroke-opacity:1;stop-color:#000" transform="scale(-1 1)"/><path d="M1286.843 735.932h4.49v124.975h-4.49z" style="fill:#262626;fill-opacity:1;stroke:none;stroke-width:3.7881;stroke-linecap:round;stroke-linejoin:round;stroke-dasharray:none;stroke-opacity:1;stop-color:#000" transform="scale(-1 1)"/><path d="M-1413.875 714.037h8.271v54.394h-8.27z" style="fill:#b3b3b3;fill-opacity:1;stroke:#4d4d4d;stroke-width:3.78812;stroke-linecap:round;stroke-linejoin:round;stroke-dasharray:none;stroke-opacity:1;stop-color:#000"/><ellipse cx="-1394.7615" cy="851.29266" rx="10.693154" ry="10.672626" style="fill:gray;fill-opacity:1;stroke:#262626;stroke-width:3.78812;stroke-linecap:round;stroke-dasharray:none;stroke-opacity:1;stop-color:#000"/><ellipse cx="-1288.4951" cy="851.29266" rx="10.693154" ry="10.672626" style="fill:gray;fill-opacity:1;stroke:#262626;stroke-width:3.78812;stroke-linecap:round;stroke-dasharray:none;stroke-opacity:1;stop-color:#000"/><path d="M-1277.272 714.037h8.27v54.394h-8.27z" style="fill:#b3b3b3;fill-opacity:1;stroke:#4d4d4d;stroke-width:3.78812;stroke-linecap:round;stroke-linejoin:round;stroke-dasharray:none;stroke-opacity:1;stop-color:#000"/></g><g style="stroke-width:1.23352" transform="matrix(.8107 0 0 -.8107 6598.544 808.804)"><rect width="25.69507" height="25.69507" x="-7820.6621" y="683.41388" rx="0" ry="0" style="fill:#666;fill-opacity:1;stroke:#333;stroke-width:7.40109;stroke-linecap:round;stroke-linejoin:round;stroke-dasharray:none;stroke-opacity:1;paint-order:stroke fill markers;stop-color:#000"/><circle cx="-695.94653" cy="-7807.894" r="9.5573559" style="fill:gray;fill-opacity:1;stroke:#262626;stroke-width:3.70055;stroke-dasharray:none;stroke-opacity:1;paint-order:fill markers stroke;stop-color:#000" transform="rotate(-90)"/></g><path d="M-602.443 235.45H694.83v9.643H-602.443z" style="fill:#e3c852;fill-opacity:1;stroke:none;stroke-width:3.00001;stroke-linecap:round;stroke-linejoin:round;stroke-dasharray:none;stroke-opacity:1;paint-order:stroke fill markers;stop-color:#000" transform="translate(-581.312 187.05)"/><path d="M-602.443 235.45H694.83v9.643H-602.443z" style="fill:#000;fill-opacity:.11;stroke:none;stroke-width:3.00001;stroke-linecap:round;stroke-linejoin:round;stroke-dasharray:none;stroke-opacity:1;paint-order:stroke fill markers;stop-color:#000" transform="translate(-581.312 187.05)"/><path d="M-602.442 235.45v9.643c57.288-11.386 171.043-1.003 215.895-1.003.368-.184.663-.679.935-.935.32-.3 1.564-1.488 2.151-1.684.248-.082.916 2.131 1.123 2.338.148.148.387-.164.561-.28.942-.628 1.911-1.217 3.087-1.217.523 0 .47.058.655.469.1.216.187.436.281.654.09.281.16.572.28.842.06.135.265.455.476.816h232.173c.04-.09.1-.156.143-.25.295-.631.478-1.311.662-1.984.08-.3-.147-1.065.132-.926.318.16-.02.737.132 1.059.214.455.536.873.926 1.19 1.923 1.562 5.363.03 6.747-1.323 1.017-.993 1.466-2.44 2.117-3.704.348-.676 1.036-2.175 1.756-3.705h-131.26c-.2.385-.415.762-.599 1.157-.366.788-.61 1.628-.936 2.433-.83 2.051-.354.881-1.216 2.432-.04.07-.388.88-.467.842-.315-.158-.543-2.666-1.029-3.274-.138-.172-.327-.298-.468-.468-.272-.327-.192-.414-.655-.094-.384.266-.742.57-1.122.842-.08.06-.355.384-.562.28-.03-.013.01-.065 0-.093-.624-1.25-.976-2.41-1.403-3.742 0-.01-.08-.238-.11-.315zm487.283 0c-.08 1.52-.375 3.066-.683 4.234-.813 3.076-.997 3.699-2.107 5.409h148.55c-.05-.036-.08-.082-.129-.117-2.025-1.503-3.499-2.146-5.688-3.44-.01 0 .597.01.661 0 .267-.027.532-.076.794-.132 1.633-.35 1.26-.42 3.44-1.058s3.887-.963 5.662-.992c1.381-.022 2.804.135 4.524.462 2.98.568 5.67 1.213 8.731 1.588 2.505.307 5.024.487 7.541.661 1.194.083 3.468-.283 4.63.133.42.15 5.01 2.556 5.16 2.646.155.092.232.16.373.249h121.763c.02-.394.05-.782.101-1.176.1-.686.68.576.978 1.176h.648c.345-.51.748-1.296.755-1.308.867-1.349 1.844-2.84 3.308-3.572.231-.115.467.105.661.133.486.069 1.12.024 1.588-.133.273-.09 1.476-.71 2.022-.723.101 0 .18.016.226.062.113.112-.152.284-.264.397-.49.49-1.186.732-1.72 1.19-.304.26-2.43 2.78-2.96 3.954h63.336c1.143-.29 2.343-.39 3.476-.629 3.434-.723 6.473-2.677 10.103-1.871.577.128 1.11.418 1.683.562 1.102.275 2.815.418 3.93 0 1.24-.465 1.28-1.025 2.993-1.31.334-.056.674-.043 1.015-.025-.137-.04-.34-.13-1.389-.35-2.49-.518-4.988-1.006-7.484-1.496-6.71-1.315-3.309-.452-9.729-2.057-1.448-.363-6.393-1.42-8.91-2.466h-95.486c-.539.834-.906 1.822-1.455 2.646-.07.11-.279.059-.397 0-.04-.02-.03-.101 0-.132s.132.044.132 0c0-.062-.1-.08-.132-.133-.168-.252-.907-1.628-1.058-1.72-.147-.087-.609.047-.794 0-.19-.047-.335-.232-.529-.264-.382-.064-.968-.045-1.323.132-.103.052-.38.413-.529.265-.03-.031.02-.093 0-.132-.115-.23-.293-.427-.397-.662zm410.896 0c-.493.09-.532.063-1.282.221-2.072.436-4.126.958-6.174 1.497-.35.092-1.297.524-.935.56.621.063 1.25-.047 1.871 0 3.086.238 3.015.352 5.986 1.31q1.41.453 2.807.936c.69.239 1.37.503 2.058.748 1.235.441 3.298.399 3.555 1.684.1.493-.833.59-1.31.749-2.044.681-4.114 1.284-6.166 1.938h84.4c.156-.1.367-.118.498-.25.03-.03-.03-.1 0-.132.06-.062.202.062.265 0 .07-.066.07-.198.132-.264.03-.027 1.447-.362 1.588-.397.286-.072.31-.266.53-.397.75-.45 1.424-.888 1.983-1.588.06-.077.06-.194.132-.264.07-.07.206-.053.265-.132.08-.112.07-.273.132-.397.24-.478.646-.874.926-1.323.411-.656.693-1.376 1.191-1.985 1.6-1.955-.412.977 1.455-1.72.298-.43.394-.584.53-.794zm96.67 0c-.306.814-.693 1.635-1.043 1.985a7 7 0 0 1-.794.662c-.2.15-.86.364-1.058.529-.495.412-.382.835-.662 1.323-.109.191-.289.336-.396.529-.76 1.369-.534 3.086-.646 4.615h98.956c.32-.296.63-.621.954-.816.527-.316.918-.07 1.496-.187.66-.132.978-.825 1.497-1.122.392-.224.764-.316 1.111-.307 1.04.03 1.848.97 2.257 1.99.06.164.1.293.147.442h63.36c.01-.47.03-.858.103-1.003 0 0 .854-.325.936-.374.597-.359 1.243-.603 1.941-.603q.24 0 .491.041c.681.114.904.64 1.496.936.31.154.361-.104.75.187.183.138.521.47.832.815H694.83v-9.642h-72.27c1.022.55 2.22.93 2.961 1.323 1.033.547.776 1.604.662 2.514-.212 1.699-.116 1.01-.529 2.249-.07.213-.06.448-.133.661-.152.459-1.293-.228-1.455-.264-.172-.038-.353 0-.529 0-.968 0-1.207.306-1.852 1.058-.144.168-.2.43-.397.53-.125.061-.265-.086-.397-.133-.486-.173-.953-.41-1.455-.53-.258-.06-.529 0-.794 0-.803 0-1.68-.374-2.38-.66-.457-.187-.868-.474-1.324-.662-.13-.053-1.336-.216-.794-.397 1.017-.339 2.304-1.098 3.175-1.72.08-.056.728-.364.53-.661-.175-.262-1.074.25-1.19.132-.21-.21-.25-.537-.398-.794-.24-.422-.586-.983-.926-1.323-.01-.014-.532.162-.662.265-.124.099-.169.27-.264.397-.12.161-.348.173-.529.264-.753.377.33-.115-.662.133-.06.015-.08.104-.132.132-.243.122-.892-.446-1.058-.53-.38-.19-.212.72-.53.53-.57-.343-1.853-2.06-2.38-1.984-.279.04-.903.673-1.192.529-.298-.15-.589-.594-.889-1.06h-2.02v.001c-.167.186-.297.437-.529.53-.603.24-1.28-.096-1.896-.53H489.087a26 26 0 0 1-.62 1.343c-.203.406-.515 1.73-1.309.935-.278-.277-.715-1.43-1.072-2.278h-1.934c-.206.15-.495.336-.549.408-.728.97-.64.499-1.38-.408z" style="fill:#d1b747;fill-opacity:1;stroke:none;stroke-width:3.00001;stroke-linecap:round;stroke-linejoin:round;stroke-dasharray:none;stroke-opacity:1;paint-order:stroke fill markers;stop-color:#000" transform="translate(-581.312 187.05)"/><path d="M-602.16 121.427H694.83v9.642H-602.16z" style="fill:#000;fill-opacity:.11;stroke:none;stroke-width:3.00001;stroke-linecap:round;stroke-linejoin:round;stroke-dasharray:none;stroke-opacity:1;paint-order:stroke fill markers;stop-color:#000" transform="matrix(1 0 0 -1 -581.312 187.05)"/><path d="M-602.159-131.069v9.643H-59.62c-1.585-.604-3.149-1.392-4.513-1.854-.73-.247-1.476-.447-2.219-.656-.306-.086-.649-.072-.927-.226-.415-.23.866-.415 1.332-.505 3.828-.742 2.675-.221 7.346-1 2.09-.348 4.163-.782 6.231-1.234.356-.077 1.318-.47.958-.521-.617-.088-1.249-.01-1.869-.08-3.073-.367-2.998-.478-5.925-1.561q-1.388-.513-2.765-1.053c-.679-.268-1.348-.56-2.024-.835-.117-.047-.277-.077-.406-.118h-88.643c-.01 0 .08-.15-.637.802-.473.625-.324.62-.843 1.156-.446.46-.918.716-1.372 1.133-.148.136-.995.877-1.089.881h.01-.01c-.14-.155.03-.786.05-1.058.03-.656.721-2.116 1.31-2.914h-88.25c.224.19.443.387.665.58l-13.64 3.729c.516-.932.731-2.01 1.247-2.943.268-.483.61-.92.937-1.366h-125.699l-17.008 4.23-.08.02c.302-.278.01-.015.08-.02.04 0 .22-.104.735-.476.431-.31.816-.68 1.235-1.007.42-.328 3.595-2.68 3.68-2.747zm550.14 0c.171.062.23.1.944.28 2.466.624 4.941 1.218 7.414 1.812 6.65 1.599 3.287.593 9.633 2.468 1.674.495 8.311 2.151 9.967 3.418.821.629-.586 1.371-.437 1.48.1.071.232.12.34.185H79.876c.154-.266.298-.541.476-.785.08-.106.28-.047.396.016.03.021.02.103-.01.133-.03.029-.132-.05-.132-.01 0 .062.09.085.126.138.05.074.176.3.281.504h102.948c-1.397-.181-2.79-.39-4.189-.547-1.19-.134-3.477.136-4.62-.328-.413-.167-4.896-2.766-5.043-2.862-1.737-1.136-2.452-2.004-4.059-2.733l-4.103.327c1.183-.233 1.905-1.187 3.521-.571q.31.118.582.244l21.327-1.7c5.358 2.369 10.89 2.475 16.56 2.952l-.926-.039c-.09.033.06.191.12.27.32.425.648.844 1.008 1.235.443.482.888.97 1.397 1.383 1.233.998 2.311 1.68 3.435 2.369h145.575c-.49-.062-.983-.112-1.463-.226-2.154-.513-4.259-1.222-6.415-1.728-1.518-.356-3.059-.611-4.598-.857-1.262-.201-1.289.182-.518-.287l55.346 2.081c-1.956-.042-3.884.367-5.809.68-.646.104-1.28.234-1.925.337h107.368c1.075-1.455 2.09-2.951 2.924-4.566.4-.771.678-1.6 1.038-2.39.917-2.015.392-.866 1.318-2.378.02-.026.111-.161.19-.309H48.155c-.06.55-.11 1.105-.214 1.66-.154.83-1.009-1.514-1.122-1.637-.21-.228-1.25 1.65-1.262 1.668-.924 1.311-1.962 2.76-3.456 3.43-.235.105-.462-.125-.655-.161a3.8 3.8 0 0 0-1.592.065c-.277.08-1.504.647-2.05.637-.102 0-.18-.024-.225-.072-.107-.117.164-.277.281-.385.512-.47 1.216-.682 1.77-1.117.34-.267 2.96-3.114 3.241-4.088zm554.541 0c.185.811.34 2.332.683 2.801.131.178.314.313.448.488.258.338.174.421.65.121.395-.25.765-.537 1.157-.793.09-.056.371-.369.573-.257.03.015-.01.066 0 .094.571 1.275.874 2.45 1.243 3.798.02.058.678 2.407.844 2.189.287-.38.398-.927.8-1.184.162-.106.12.377.162.57.134.604.257 1.21.384 1.816h135.36a49 49 0 0 1-.49-.93c-.234-.414-.458-.834-.696-1.246-.07-.305-.384-.433-.534-.678a.57.57 0 0 1-.08-.284c0-.031.06-.01.09 0 .44.146.84.404 1.29.522 4.734 1.249.141-.055 3.717.626.565.108 1.101.343 1.667.445.8.144 1.613.206 2.422.29 1.74.181 3.478.375 5.222.502.871.063 1.748.034 2.617.111.312.027.62.104.93.133.528.048 1.063 0 1.59.068.776.093 1.385.689 2.141.277.08-.042.114-.142.195-.178.06-.026.125.02.187.01.375-.077.474-.312.682-.627-.3.626-.514.969-.513.957h29.564v-9.643zm-554.564 9.228c-.387.02-.72.067-.924.158-.184.082-.334.17-.499.257h6.59l-.102-.014c-3.61-.233 1.374-.168-2.242-.271-.02-.001-1.66-.19-2.823-.13" style="fill:#d1b747;fill-opacity:1;stroke:none;stroke-width:3.00001;stroke-linecap:round;stroke-linejoin:round;stroke-dasharray:none;stroke-opacity:1;paint-order:stroke fill markers;stop-color:#000" transform="translate(-581.312 187.05)"/><path d="M697.206 266.003c1.494-43.825.128-416.154.08-418.01 152.24 0 262.561 116.268 262.561 208.767 0 93.127-111.165 209.243-262.639 209.243z" style="fill:none;fill-opacity:1;stroke:#101e15;stroke-width:5.705;stroke-linecap:square;stroke-linejoin:miter;stroke-dasharray:none;stroke-opacity:1;paint-order:fill markers stroke;stop-color:#000" transform="translate(-581.312 187.05)"/><path d="m842.53 230.128-3.849 2.221-13.267-29.86 19.224 26.421-2.11 1.218zm59.597-45.235-3.14 3.141-20.545-25.408 25.407 20.545zm40.694-55.922-2.22 3.848-26.42-19.226 29.858 13.27zm19.931-73.079v4.443l-32.493-3.44 32.493-3.439zm-19.931-71.178-2.22-3.848L914.18.092l29.858-13.27zM902.127-70.69l-3.14-3.142-20.545 25.408 25.407-20.545zm-59.597-45.442-3.849-2.221-13.267 29.86 19.224-26.421-2.11-1.218zM772.97 259.01l-4.292 1.15-5.086-32.276 11.73 30.496zm0-404.024-4.292-1.15-5.086 32.276 11.73-30.496z" style="fill:#1c1c1c;fill-opacity:1;stroke:#0d0d0d;stroke-width:9.00004;stroke-linecap:round;stroke-linejoin:round;stroke-dasharray:none;stroke-opacity:1;paint-order:stroke fill markers;stop-color:#000" transform="translate(-581.312 187.05)"/><path d="m-7965.6 668.245-.307 1.083 1.65 1.598 14.209-3.8.821-1.365-5.287.047.163-.571z" style="fill:#4d4d4d;fill-opacity:1;stroke:#333;stroke-width:1.5;stroke-linecap:square;stroke-linejoin:round;stroke-dasharray:none;stroke-opacity:1;stop-color:#000" transform="rotate(-8.633 -7954.166 -52612.372)"/><path d="m-7965.6 668.245-.307 1.083 1.65 1.598 14.209-3.8.821-1.365-5.287.047.163-.571z" style="opacity:.15;fill:#000;fill-opacity:1;stroke:#000;stroke-width:1.5;stroke-linecap:square;stroke-linejoin:round;stroke-dasharray:none;stroke-opacity:1;stop-color:#000" transform="rotate(-8.633 -7954.166 -52612.372)"/><path d="M-621.689-184.875v102.58L-696.666-5.32v124.83l74.977 76.974v102.617h18.196v-483.976z" style="fill:none;fill-opacity:1;stroke:#2e0000;stroke-width:4.34859;stroke-linecap:square;stroke-linejoin:miter;stroke-dasharray:none;stroke-opacity:1;paint-order:fill markers stroke;stop-color:#000" transform="translate(-581.312 187.05)"/><path d="M-281.368-687.433h3.606v276.066h-3.606z" style="fill:#737373;fill-opacity:1;stroke:#404040;stroke-width:1.52497;stroke-dasharray:none;stroke-opacity:1;paint-order:fill markers stroke;stop-color:#000" transform="matrix(0 -1 -1 0 -581.312 187.05)"/><path d="M-541.108 274.286h5.608v8.996h-5.608zm-81.283 0h5.608v8.996h-5.608zm-67.905 0h5.609v8.996h-5.609zm219.605 0h5.608v8.996h-5.608zm54.901 0h5.608v8.996h-5.608z" style="fill:#661f1f;fill-opacity:1;stroke:#2e0000;stroke-width:2.5;stroke-linecap:round;stroke-linejoin:round;stroke-dasharray:none;stroke-opacity:1;stop-color:#000" transform="matrix(-1 0 0 1 -581.312 187.05)"/><path d="M-281.275-345.435h3.606v512.074h-3.606z" style="fill:#737373;fill-opacity:1;stroke:#404040;stroke-width:1.52497;stroke-dasharray:none;stroke-opacity:1;paint-order:fill markers stroke;stop-color:#000" transform="matrix(0 -1 -1 0 -581.312 187.05)"/><path d="M-202.103 274.286h5.608v8.996h-5.608zm-75.671 0h5.608v8.996h-5.608zm-70.524 0h5.609v8.996h-5.609zm219.748 0h5.609v8.996h-5.609zm217.753 0h5.609v8.996h-5.609zm-75.671 0h5.609v8.996h-5.609zm-70.523 0h5.608v8.996h-5.608zm219.748 0h5.608v8.996h-5.608z" style="fill:#661f1f;fill-opacity:1;stroke:#2e0000;stroke-width:2.5;stroke-linecap:round;stroke-linejoin:round;stroke-dasharray:none;stroke-opacity:1;stop-color:#000" transform="matrix(-1 0 0 1 -581.312 187.05)"/><path d="M-281.193 233.979h3.606v360.817h-3.606z" style="fill:#737373;fill-opacity:1;stroke:#404040;stroke-width:1.52497;stroke-dasharray:none;stroke-opacity:1;paint-order:fill markers stroke;stop-color:#000" transform="matrix(0 -1 -1 0 -581.312 187.05)"/><path d="M380.304 274.286h5.608v8.996h-5.608zm-81.284 0h5.608v8.996h-5.608zm-67.904 0h5.609v8.996h-5.609zm219.604 0h5.608v8.996h-5.608zm71.306 0h5.608v8.996h-5.608zm70.114 0h5.608v8.996h-5.608z" style="fill:#661f1f;fill-opacity:1;stroke:#2e0000;stroke-width:2.5;stroke-linecap:round;stroke-linejoin:round;stroke-dasharray:none;stroke-opacity:1;stop-color:#000" transform="matrix(-1 0 0 1 -581.312 187.05)"/><path d="M-167.261-688.108h3.606v1284.13h-3.606z" style="fill:#737373;fill-opacity:1;stroke:#404040;stroke-width:1.52497;stroke-dasharray:none;stroke-opacity:1;paint-order:fill markers stroke;stop-color:#000" transform="rotate(90 -384.181 -197.131)"/><path d="M209.816 160.243h5.609v8.995h-5.609zm-74.083 0h5.609v8.995h-5.609zm-69.993 0h5.608v8.995h-5.609zm214.455 0h5.609v8.995h-5.609zm236.275 0h5.608v8.995h-5.608zm-81.492 0h5.608v8.995h-5.608zm-76.873 0h5.608v8.995h-5.608zm234.035 0h5.608v8.995h-5.608z" style="fill:#661f1f;fill-opacity:1;stroke:#2e0000;stroke-width:2.5;stroke-linecap:round;stroke-linejoin:round;stroke-dasharray:none;stroke-opacity:1;stop-color:#000" transform="rotate(180 -290.656 93.525)"/><path d="M-690.296-169.167h5.609v8.996h-5.609z" style="fill:#661f1f;fill-opacity:1;stroke:#2e0000;stroke-width:2.5;stroke-linecap:round;stroke-linejoin:round;stroke-dasharray:none;stroke-opacity:1;stop-color:#000" transform="matrix(-1 0 0 1 -581.312 187.05)"/><path d="M-396.919 160.243h5.608v8.995h-5.608zm-77.787 0h5.608v8.995h-5.608zm-72.64 0h5.609v8.995h-5.609zm228.214 0h5.609v8.995h-5.609zm231.512 0h5.608v8.995h-5.608zm-78.847 0h5.609v8.995h-5.609zm-77.931 0h5.608v8.995h-5.608zm233.506 0h5.609v8.995h-5.609zm-607.483 0h5.608v8.995h-5.608z" style="fill:#661f1f;fill-opacity:1;stroke:#2e0000;stroke-width:2.5;stroke-linecap:round;stroke-linejoin:round;stroke-dasharray:none;stroke-opacity:1;stop-color:#000" transform="rotate(180 -290.656 93.525)"/><g transform="matrix(.85054 0 0 -.85054 5774.538 1052.535)"><rect width="40.014809" height="11.702641" x="-7632.5972" y="696.54645" rx="0" ry="0" style="fill:#333;fill-opacity:1;stroke:#1a1a1a;stroke-width:6;stroke-linecap:round;stroke-linejoin:round;stroke-dasharray:none;stroke-opacity:1;paint-order:stroke fill markers;stop-color:#000"/><ellipse cx="-702.34088" cy="-7602.2686" rx="3.8454595" ry="7.7480636" style="fill:#404040;fill-opacity:1;stroke:#242424;stroke-width:3;stroke-dasharray:none;stroke-opacity:1;paint-order:fill markers stroke;stop-color:#000" transform="rotate(-90)"/><ellipse cx="-702.34088" cy="-7622.8481" rx="3.8454595" ry="7.7480636" style="fill:#404040;fill-opacity:1;stroke:#242424;stroke-width:3;stroke-dasharray:none;stroke-opacity:1;paint-order:fill markers stroke;stop-color:#000" transform="rotate(-90)"/></g><g transform="translate(8565.586 12.648)"><rect width="16.679379" height="9.9535666" x="-8918.3262" y="-447.44666" rx="0" ry="0" style="fill:#333;fill-opacity:1;stroke:#1a1a1a;stroke-width:5.10324;stroke-linecap:round;stroke-linejoin:round;stroke-dasharray:none;stroke-opacity:1;paint-order:stroke fill markers;stop-color:#000" transform="scale(1 -1)"/><ellipse cx="442.51825" cy="-8910.0342" rx="3.2707179" ry="6.5900393" style="fill:#404040;fill-opacity:1;stroke:#242424;stroke-width:2.55162;stroke-dasharray:none;stroke-opacity:1;paint-order:fill markers stroke;stop-color:#000" transform="matrix(0 1 1 0 0 0)"/></g><g transform="matrix(.85054 0 0 -.85054 6055.879 1052.535)"><rect width="40.014809" height="11.702641" x="-7632.5972" y="696.54645" rx="0" ry="0" style="fill:#333;fill-opacity:1;stroke:#1a1a1a;stroke-width:6;stroke-linecap:round;stroke-linejoin:round;stroke-dasharray:none;stroke-opacity:1;paint-order:stroke fill markers;stop-color:#000"/><ellipse cx="-702.34088" cy="-7602.2686" rx="3.8454595" ry="7.7480636" style="fill:#404040;fill-opacity:1;stroke:#242424;stroke-width:3;stroke-dasharray:none;stroke-opacity:1;paint-order:fill markers stroke;stop-color:#000" transform="rotate(-90)"/><ellipse cx="-702.34088" cy="-7622.8481" rx="3.8454595" ry="7.7480636" style="fill:#404040;fill-opacity:1;stroke:#242424;stroke-width:3;stroke-dasharray:none;stroke-opacity:1;paint-order:fill markers stroke;stop-color:#000" transform="rotate(-90)"/></g><g transform="translate(8295.656 12.648)"><rect width="16.679379" height="9.9535666" x="-8918.3262" y="-447.44666" rx="0" ry="0" style="fill:#333;fill-opacity:1;stroke:#1a1a1a;stroke-width:5.10324;stroke-linecap:round;stroke-linejoin:round;stroke-dasharray:none;stroke-opacity:1;paint-order:stroke fill markers;stop-color:#000" transform="scale(1 -1)"/><ellipse cx="442.51825" cy="-8910.0342" rx="3.2707179" ry="6.5900393" style="fill:#404040;fill-opacity:1;stroke:#242424;stroke-width:2.55162;stroke-dasharray:none;stroke-opacity:1;paint-order:fill markers stroke;stop-color:#000" transform="matrix(0 1 1 0 0 0)"/></g><g transform="translate(8918.115 12.648)"><rect width="16.679379" height="9.9535666" x="-8918.3262" y="-447.44666" rx="0" ry="0" style="fill:#333;fill-opacity:1;stroke:#1a1a1a;stroke-width:5.10324;stroke-linecap:round;stroke-linejoin:round;stroke-dasharray:none;stroke-opacity:1;paint-order:stroke fill markers;stop-color:#000" transform="scale(1 -1)"/><ellipse cx="442.51825" cy="-8910.0342" rx="3.2707179" ry="6.5900393" style="fill:#404040;fill-opacity:1;stroke:#242424;stroke-width:2.55162;stroke-dasharray:none;stroke-opacity:1;paint-order:fill markers stroke;stop-color:#000" transform="matrix(0 1 1 0 0 0)"/></g><g transform="translate(8892.11 12.648)"><rect width="16.679379" height="9.9535666" x="-8918.3262" y="-447.44666" rx="0" ry="0" style="fill:#333;fill-opacity:1;stroke:#1a1a1a;stroke-width:5.10324;stroke-linecap:round;stroke-linejoin:round;stroke-dasharray:none;stroke-opacity:1;paint-order:stroke fill markers;stop-color:#000" transform="scale(1 -1)"/><ellipse cx="442.51825" cy="-8910.0342" rx="3.2707179" ry="6.5900393" style="fill:#404040;fill-opacity:1;stroke:#242424;stroke-width:2.55162;stroke-dasharray:none;stroke-opacity:1;paint-order:fill markers stroke;stop-color:#000" transform="matrix(0 1 1 0 0 0)"/></g><g transform="matrix(1 0 0 -1 8732.33 1083.03)"><path d="M-1038.25-9924.617h57.99v96.518h-57.99z" style="fill:#595959;fill-opacity:1;stroke:#3e3e3e;stroke-width:2.84938;stroke-dasharray:none;stroke-opacity:1;paint-order:fill markers stroke;stop-color:#000" transform="rotate(-90)"/><path d="M-9927.475 628.492h190.564V979.66h-190.564z" style="fill:url(#f);stroke:none;stroke-width:.262807"/><path d="M-9826.54 710.924c3.226 3.332 6.583 24.76 9.016 25.385 3.978 1.024 9.696 0 13.789 0 3.112 0 6.463.28 9.546 0 3.187-.29 5.906-1.922 9.016-2.456 1.23-.21 2.522.525 3.712 0 .76-.336 1.354-1.343 2.12-1.64.687-.263 1.427.197 2.122 0 2.7-.755 5.386-1.786 7.955-3.273 4.129-2.391 10.593-8.988 13.788-13.922 2.787-4.3.972-11.268 1.592-16.376 3.828-31.524-.136 13.954 2.121-13.92.405-5.005 1.596-15.551-1.06-19.653-1.999-3.086-5.096-1.737-7.425-2.457-4.34.4-7.678-4.412-11.667-5.731-2.329-.772-12.233-.315-13.79 1.636-1.866 2.341-2.834 5.998-4.242 9.008-.723 1.548-8.274 17.635-9.016 18.016-.335.172-.706 0-1.06 0-.53.546-1.02 1.197-1.591 1.637-2.598 2.006-5.097-5.414-6.364-7.37-.87-1.345-10.7-13.322-11.667-13.92-1.798-1.111-10.717-3.513-12.198-2.458-3.993 2.847-1.876 3.264-2.121 5.734-.977 9.804-1.717 17.265 1.59 26.203.555 1.498 1.981 2.712 2.653 4.094.805 1.66-.052 2.752.53 4.095.219.507.731.48 1.06.819 1.271 1.306 1.334 5.16 1.591 6.549" style="opacity:.8;fill:#333;fill-opacity:1;stroke:none;stroke-width:2.18285;stroke-linecap:square;stroke-linejoin:round;stroke-dasharray:none;stroke-opacity:1;paint-order:fill markers stroke;stop-color:#000"/><path d="M-9809.714 664.384c.963 2.792 1.582 6.97 3.707 9.069 1.282 1.267 5.467 1.638 6.353-.697.158-.417-.195-1.008 0-1.396.814-1.61 2.362-2.575 3.177-4.186.804-1.59-.677-7.557-1.06-9.068-.347-1.376.491-3.593 0-4.883-.518-1.37-2.084-2.093-3.176-2.093-.352 0-.81-.329-1.059 0-.21.278-1.493 4.26-1.588 4.884-.104.684.129 1.415 0 2.092-.542 2.854-2.772 1.692-3.177 2.093-1.198 1.184-2.118 2.79-3.177 4.185" style="opacity:.8;fill:#333;fill-opacity:1;stroke:none;stroke-width:2.18285;stroke-linecap:square;stroke-linejoin:round;stroke-dasharray:none;stroke-opacity:1;paint-order:fill markers stroke;stop-color:#000"/><g transform="translate(-11.256 127.22)"><g style="opacity:.82" transform="rotate(-90 -6135.001 2618.407)scale(1.19032)"><path d="M-3571.555-931.788h5.064v49.118h-5.064z" style="opacity:1;fill:#383838;fill-opacity:1;stroke:none;stroke-width:2.11016;stroke-linecap:round;stroke-linejoin:round;stroke-dasharray:none;stroke-opacity:1"/><path d="M-922.142 3555.88h4.66v26.03h-4.66z" style="opacity:1;fill:#383838;fill-opacity:1;stroke:none;stroke-width:2.24738;stroke-linecap:round;stroke-linejoin:round;stroke-dasharray:none;stroke-opacity:1" transform="rotate(90)"/><ellipse cx="-3583.084" cy="-919.82819" rx="4.5358114" ry="4.5347505" style="opacity:1;fill:#383838;fill-opacity:1;stroke:none;stroke-width:3.87343;stroke-linecap:round;stroke-linejoin:round;stroke-dasharray:none;stroke-opacity:1"/><ellipse cx="-3569.0061" cy="-934.84314" rx="4.5358114" ry="4.5347505" style="opacity:1;fill:none;fill-opacity:1;stroke:#383838;stroke-width:3.87343;stroke-linecap:round;stroke-linejoin:round;stroke-dasharray:none;stroke-opacity:1"/><ellipse cx="-3554.6025" cy="-919.8891" rx="4.5358114" ry="4.5347505" style="opacity:1;fill:#383838;fill-opacity:1;stroke:none;stroke-width:3.87343;stroke-linecap:round;stroke-linejoin:round;stroke-dasharray:none;stroke-opacity:1"/><path d="M-3596.745-897.821a29.17 25.501 0 0 0 27.663 17.64 29.17 25.501 0 0 0 27.35-16.855 37.991 31.085 0 0 1-27.086 9.311 37.991 31.085 0 0 1-27.927-10.096" style="opacity:1;fill:#383838;fill-opacity:1;stroke:none;stroke-width:3.26746;stroke-linecap:round;stroke-linejoin:round;stroke-dasharray:none;stroke-opacity:1"/><path d="m-3598.757-903.852.027.053 4.465 15.657 3.052-4.01 4.909-1.028zm59.707.269-.027.053-4.465 15.658-3.052-4.01-4.908-1.029z" style="opacity:1;fill:#383838;fill-opacity:1;stroke-width:3.0142;stroke-linecap:round;stroke-linejoin:round"/></g><circle cx="-732.31274" cy="-9836.6992" r="44.316319" style="opacity:.82;fill:none;fill-opacity:1;stroke:#383838;stroke-width:4.47084;stroke-linecap:square;stroke-dasharray:none;stroke-opacity:1;stop-color:#000" transform="rotate(-90)"/></g><rect width="50.623661" height="64.873962" x="-1038.7435" y="-9777.7891" rx="7.3365045" ry="7.3365035" style="opacity:1;fill:#000;fill-opacity:.25;stroke:none;stroke-width:3.12206;stroke-dasharray:none;stroke-opacity:1;paint-order:fill markers stroke;stop-color:#000" transform="rotate(-90)"/><g style="stroke-width:.863472"><path d="M-306.69 207.874h37.175v12.643h-37.175z" style="fill:#8c8c8c;fill-opacity:1;stroke:#4d4d4d;stroke-width:2.67515;stroke-linecap:square;stroke-linejoin:miter;stroke-dasharray:none;stroke-opacity:1;paint-order:fill markers stroke;stop-color:#000" transform="matrix(0 1.34393 -.93577 0 -9619.608 1400.226)"/><path d="M-306.69 195.135h37.175v12.644h-37.175z" style="fill:#878787;fill-opacity:1;stroke:#4d4d4d;stroke-width:2.67515;stroke-linecap:square;stroke-linejoin:miter;stroke-dasharray:none;stroke-opacity:1;paint-order:fill markers stroke;stop-color:#000" transform="matrix(0 1.34393 -.93577 0 -9619.608 1400.226)"/><path d="M-306.69 182.397h37.175v12.644h-37.175z" style="fill:#828282;fill-opacity:1;stroke:#4d4d4d;stroke-width:2.67515;stroke-linecap:square;stroke-linejoin:miter;stroke-dasharray:none;stroke-opacity:1;paint-order:fill markers stroke;stop-color:#000" transform="matrix(0 1.34393 -.93577 0 -9619.608 1400.226)"/><path d="M-306.69 169.659h37.175v12.644h-37.175z" style="fill:#7d7d7d;fill-opacity:1;stroke:#4d4d4d;stroke-width:2.67515;stroke-linecap:square;stroke-linejoin:miter;stroke-dasharray:none;stroke-opacity:1;paint-order:fill markers stroke;stop-color:#000" transform="matrix(0 1.34393 -.93577 0 -9619.608 1400.226)"/><path d="M-306.69 156.92h37.175v12.645h-37.175z" style="fill:#787878;fill-opacity:1;stroke:#4d4d4d;stroke-width:2.67515;stroke-linecap:square;stroke-linejoin:miter;stroke-dasharray:none;stroke-opacity:1;paint-order:fill markers stroke;stop-color:#000" transform="matrix(0 1.34393 -.93577 0 -9619.608 1400.226)"/><path d="M-306.69 144.183h37.175v12.643h-37.175z" style="fill:#737373;fill-opacity:1;stroke:#4d4d4d;stroke-width:2.67515;stroke-linecap:square;stroke-linejoin:miter;stroke-dasharray:none;stroke-opacity:1;paint-order:fill markers stroke;stop-color:#000" transform="matrix(0 1.34393 -.93577 0 -9619.608 1400.226)"/><path d="M-306.69 131.444h37.175v12.644h-37.175z" style="fill:#6e6e6e;fill-opacity:1;stroke:#4d4d4d;stroke-width:2.67515;stroke-linecap:square;stroke-linejoin:miter;stroke-dasharray:none;stroke-opacity:1;paint-order:fill markers stroke;stop-color:#000" transform="matrix(0 1.34393 -.93577 0 -9619.608 1400.226)"/><path d="M-306.69 118.706h37.175v12.644h-37.175z" style="fill:#696969;fill-opacity:1;stroke:#4d4d4d;stroke-width:2.67515;stroke-linecap:square;stroke-linejoin:miter;stroke-dasharray:none;stroke-opacity:1;paint-order:fill markers stroke;stop-color:#000" transform="matrix(0 1.34393 -.93577 0 -9619.608 1400.226)"/></g><g style="stroke-width:.954404" transform="matrix(-1.04777 0 0 1.04777 -9560.153 1926.455)"><rect width="343.38852" height="9.7219896" x="895.91614" y="159.84392" rx="2.0540483" ry="2.0540483" style="fill:#262626;fill-opacity:1;stroke:none;stroke-width:3.15037;stroke-linecap:square;stroke-linejoin:round;stroke-dasharray:none;stroke-opacity:1" transform="rotate(-90)"/><rect width="13.807254" height="5.4182892" x="-1019.5201" y="-167.50209" rx="0.60727" ry="0.60727" style="fill:#4f4f4f;fill-opacity:1;stroke:none;stroke-width:.426627;stroke-linecap:square;stroke-linejoin:round;stroke-dasharray:none;stroke-opacity:1" transform="rotate(90)"/><rect width="97.177025" height="2.3289483" x="-1118.4819" y="-167.593" rx="0.59564608" ry="0.59564614" style="fill:#4f4f4f;fill-opacity:1;stroke:none;stroke-width:.715706;stroke-linecap:square;stroke-linejoin:round;stroke-dasharray:none;stroke-opacity:1" transform="rotate(90)"/><rect width="97.177025" height="2.3289483" x="-1003.8476" y="-167.593" rx="0.59564608" ry="0.59564614" style="fill:#4f4f4f;fill-opacity:1;stroke:none;stroke-width:.715706;stroke-linecap:square;stroke-linejoin:round;stroke-dasharray:none;stroke-opacity:1" transform="rotate(90)"/></g><path d="M-9822.703 751.983h-119.804s-.01-.115 0-8.143h119.803z" style="fill:#4f4f4f;fill-opacity:1;stroke:#262626;stroke-width:2.44018;stroke-linecap:square;stroke-linejoin:round;stroke-dasharray:none;stroke-opacity:1" transform="translate(92.765)"/><path d="m-10028.085 629.003 206.585.083-.066 8.06h-198.376l.137 403.031h198.291v8.143h-206.435c0-96.614-.136-260.562-.136-419.317z" style="fill:#4f4f4f;fill-opacity:1;stroke:#262626;stroke-width:2.44018;stroke-linecap:square;stroke-linejoin:round;stroke-dasharray:none;stroke-opacity:1" transform="translate(92.765)"/><path d="M-9821.612 986.865h-98.471s-.01-.115 0-8.143h98.47z" style="fill:#4f4f4f;fill-opacity:1;stroke:#262626;stroke-width:2.44018;stroke-linecap:square;stroke-linejoin:round;stroke-dasharray:none;stroke-opacity:1" transform="translate(92.765)"/><path d="M630.272-9828.54h120.481v6.122H630.272z" style="fill:#4f4f4f;fill-opacity:1;stroke:none;stroke-width:2.14617;stroke-linecap:square;stop-color:#000" transform="matrix(0 1 1 0 92.765 0)"/></g><g style="stroke:#404040;stroke-width:2.6;stroke-dasharray:none;stroke-opacity:1" transform="matrix(-1.1965 0 0 1.09698 -12231.868 -475.395)"><path d="M-9459.66 776.6h124.485v139.65h-124.485z" clip-path="url(#g)" style="fill:url(#h);stroke:#404040;stroke-width:2.6;stroke-dasharray:none;stroke-opacity:1"/><rect width="135.89333" height="152.45041" x="-9464.8877" y="769.38312" clip-path="url(#j)" rx="0" ry="0" style="fill:#000;fill-opacity:.3;stroke:#404040;stroke-width:2.6;stroke-dasharray:none;stroke-opacity:1"/></g><path d="M-8717.329 1197.257a23.46 23.46 0 0 0-23.458 23.458 23.46 23.46 0 0 0 23.458 23.458 23.46 23.46 0 0 0 23.458-23.458 23.46 23.46 0 0 0-23.458-23.458m.094 4.584a18.874 18.874 0 0 1 18.874 18.874 18.874 18.874 0 0 1-18.874 18.874 18.874 18.874 0 0 1-18.874-18.874 18.874 18.874 0 0 1 18.874-18.874" style="fill:#a3a3a3;fill-opacity:1;stroke:#404040;stroke-width:2.57634;stroke-linecap:round;stroke-linejoin:round;stroke-opacity:1;stop-color:#000" transform="matrix(1.09072 0 0 1 8548.604 -767.521)"/><path d="M424.68 126.047h7.958v3.075h-7.959z" style="fill:#5e5e5e;fill-opacity:1;stroke:#161616;stroke-width:1.85208;stroke-linecap:round;stroke-linejoin:round;stroke-miterlimit:5;stroke-dasharray:none;stroke-opacity:1" transform="rotate(-75 -44.558 1245.816)scale(1.12806)"/><path d="M424.68 148.877h7.958v3.075h-7.959z" style="fill:#5e5e5e;fill-opacity:1;stroke:#161616;stroke-width:1.852;stroke-linecap:round;stroke-linejoin:round;stroke-miterlimit:5;stroke-dasharray:none;stroke-opacity:1" transform="rotate(-75 -44.558 1245.816)scale(1.12806)"/><path d="m419.261 132.377 4.069-1.403h14.109v16.051h-14.11l-4.068-1.403s-.831-2.873-.831-6.623.831-6.622.831-6.622" style="fill:#a3a3a3;fill-opacity:1;stroke:#595959;stroke-width:1.852;stroke-linecap:round;stroke-linejoin:round;stroke-miterlimit:5;stroke-opacity:1" transform="rotate(-75 -44.558 1245.816)scale(1.12806)"/><g style="stroke:#2e2825;stroke-opacity:1"><path d="M417.374 118.818h10.671m-10.671 4.94h10.671m-10.671 4.942h10.671" style="fill:#595959;fill-opacity:1;stroke:#595959;stroke-width:1.32292;stroke-linecap:round;stroke-linejoin:round;stroke-miterlimit:5;stroke-dasharray:none;stroke-opacity:1" transform="rotate(-75 -36.982 1232.492)scale(1.12806)"/></g><path d="M437.43 130.952h3.101v16.095h-3.102z" style="fill:#5e5e5e;fill-opacity:1;stroke:#262626;stroke-width:1.818;stroke-linecap:round;stroke-linejoin:round;stroke-miterlimit:5;stroke-dasharray:none;stroke-opacity:1" transform="rotate(-75 -44.558 1245.816)scale(1.12806)"/><path d="M436.517 130.046h1.17v17.906h-1.17z" style="fill:#262626;fill-opacity:1;stroke:none;stroke-width:4.93291;stroke-linecap:round;stroke-linejoin:round;stroke-miterlimit:5;stroke-dasharray:none;stroke-opacity:1" transform="rotate(-75 -44.558 1245.816)scale(1.12806)"/><g style="stroke:#404040;stroke-width:2.6;stroke-dasharray:none;stroke-opacity:1" transform="matrix(-1.1965 0 0 1.09698 -11833.624 -475.395)"><path d="M-9459.66 776.6h124.485v139.65h-124.485z" clip-path="url(#g)" style="fill:url(#h);stroke:#404040;stroke-width:2.6;stroke-dasharray:none;stroke-opacity:1"/><rect width="135.89333" height="152.45041" x="-9464.8877" y="769.38312" clip-path="url(#j)" rx="0" ry="0" style="fill:#000;fill-opacity:.3;stroke:#404040;stroke-width:2.6;stroke-dasharray:none;stroke-opacity:1"/></g><path d="M-8717.329 1197.257a23.46 23.46 0 0 0-23.458 23.458 23.46 23.46 0 0 0 23.458 23.458 23.46 23.46 0 0 0 23.458-23.458 23.46 23.46 0 0 0-23.458-23.458m.094 4.584a18.874 18.874 0 0 1 18.874 18.874 18.874 18.874 0 0 1-18.874 18.874 18.874 18.874 0 0 1-18.874-18.874 18.874 18.874 0 0 1 18.874-18.874" style="fill:#a3a3a3;fill-opacity:1;stroke:#404040;stroke-width:2.57634;stroke-linecap:round;stroke-linejoin:round;stroke-opacity:1;stop-color:#000" transform="matrix(1.09072 0 0 1 8946.848 -767.521)"/><path d="M424.68 126.047h7.958v3.075h-7.959z" style="fill:#5e5e5e;fill-opacity:1;stroke:#161616;stroke-width:1.85208;stroke-linecap:round;stroke-linejoin:round;stroke-miterlimit:5;stroke-dasharray:none;stroke-opacity:1" transform="scale(1.12806 -1.12806)rotate(15 2018.244 -3656.55)"/><path d="M424.68 148.877h7.958v3.075h-7.959z" style="fill:#5e5e5e;fill-opacity:1;stroke:#161616;stroke-width:1.852;stroke-linecap:round;stroke-linejoin:round;stroke-miterlimit:5;stroke-dasharray:none;stroke-opacity:1" transform="scale(1.12806 -1.12806)rotate(15 2018.244 -3656.55)"/><path d="m419.261 132.377 4.069-1.403h14.109v16.051h-14.11l-4.068-1.403s-.831-2.873-.831-6.623.831-6.622.831-6.622" style="fill:#a3a3a3;fill-opacity:1;stroke:#595959;stroke-width:1.852;stroke-linecap:round;stroke-linejoin:round;stroke-miterlimit:5;stroke-opacity:1" transform="scale(1.12806 -1.12806)rotate(15 2018.244 -3656.55)"/><g style="stroke:#2e2825;stroke-opacity:1"><path d="M417.374 118.818h10.671m-10.671 4.94h10.671m-10.671 4.942h10.671" style="fill:#595959;fill-opacity:1;stroke:#595959;stroke-width:1.32292;stroke-linecap:round;stroke-linejoin:round;stroke-miterlimit:5;stroke-dasharray:none;stroke-opacity:1" transform="scale(1.12806 -1.12806)rotate(15 1957.145 -3639.748)"/></g><path d="M437.43 130.952h3.101v16.095h-3.102z" style="fill:#5e5e5e;fill-opacity:1;stroke:#262626;stroke-width:1.818;stroke-linecap:round;stroke-linejoin:round;stroke-miterlimit:5;stroke-dasharray:none;stroke-opacity:1" transform="scale(1.12806 -1.12806)rotate(15 2018.244 -3656.55)"/><path d="M436.517 130.046h1.17v17.906h-1.17z" style="fill:#262626;fill-opacity:1;stroke:none;stroke-width:4.93291;stroke-linecap:round;stroke-linejoin:round;stroke-miterlimit:5;stroke-dasharray:none;stroke-opacity:1" transform="scale(1.12806 -1.12806)rotate(15 2018.244 -3656.55)"/><g style="stroke:#404040;stroke-width:2.6;stroke-dasharray:none;stroke-opacity:1" transform="matrix(-1.1965 0 0 1.09698 -11373.694 -475.395)"><path d="M-9459.66 776.6h124.485v139.65h-124.485z" clip-path="url(#g)" style="fill:url(#h);stroke:#404040;stroke-width:2.6;stroke-dasharray:none;stroke-opacity:1"/><rect width="135.89333" height="152.45041" x="-9464.8877" y="769.38312" clip-path="url(#j)" rx="0" ry="0" style="fill:#000;fill-opacity:.3;stroke:#404040;stroke-width:2.6;stroke-dasharray:none;stroke-opacity:1"/></g><path d="M-8717.329 1197.257a23.46 23.46 0 0 0-23.458 23.458 23.46 23.46 0 0 0 23.458 23.458 23.46 23.46 0 0 0 23.458-23.458 23.46 23.46 0 0 0-23.458-23.458m.094 4.584a18.874 18.874 0 0 1 18.874 18.874 18.874 18.874 0 0 1-18.874 18.874 18.874 18.874 0 0 1-18.874-18.874 18.874 18.874 0 0 1 18.874-18.874" style="fill:#a3a3a3;fill-opacity:1;stroke:#404040;stroke-width:2.57634;stroke-linecap:round;stroke-linejoin:round;stroke-opacity:1;stop-color:#000" transform="matrix(1.09072 0 0 1 9406.778 -767.521)"/><path d="M424.68 126.047h7.958v3.075h-7.959z" style="fill:#5e5e5e;fill-opacity:1;stroke:#161616;stroke-width:1.85208;stroke-linecap:round;stroke-linejoin:round;stroke-miterlimit:5;stroke-dasharray:none;stroke-opacity:1" transform="rotate(-150 231.738 383.888)scale(1.12806)"/><path d="M424.68 148.877h7.958v3.075h-7.959z" style="fill:#5e5e5e;fill-opacity:1;stroke:#161616;stroke-width:1.852;stroke-linecap:round;stroke-linejoin:round;stroke-miterlimit:5;stroke-dasharray:none;stroke-opacity:1" transform="rotate(-150 231.738 383.888)scale(1.12806)"/><path d="m419.261 132.377 4.069-1.403h14.109v16.051h-14.11l-4.068-1.403s-.831-2.873-.831-6.623.831-6.622.831-6.622" style="fill:#a3a3a3;fill-opacity:1;stroke:#595959;stroke-width:1.852;stroke-linecap:round;stroke-linejoin:round;stroke-miterlimit:5;stroke-opacity:1" transform="rotate(-150 231.738 383.888)scale(1.12806)"/><g style="stroke:#2e2825;stroke-opacity:1"><path d="M417.374 118.818h10.671m-10.671 4.94h10.671m-10.671 4.942h10.671" style="fill:#595959;fill-opacity:1;stroke:#595959;stroke-width:1.32292;stroke-linecap:round;stroke-linejoin:round;stroke-miterlimit:5;stroke-dasharray:none;stroke-opacity:1" transform="rotate(-150 230.414 374.32)scale(1.12806)"/></g><path d="M437.43 130.952h3.101v16.095h-3.102z" style="fill:#5e5e5e;fill-opacity:1;stroke:#262626;stroke-width:1.818;stroke-linecap:round;stroke-linejoin:round;stroke-miterlimit:5;stroke-dasharray:none;stroke-opacity:1" transform="rotate(-150 231.738 383.888)scale(1.12806)"/><path d="M436.517 130.046h1.17v17.906h-1.17z" style="fill:#262626;fill-opacity:1;stroke:none;stroke-width:4.93291;stroke-linecap:round;stroke-linejoin:round;stroke-miterlimit:5;stroke-dasharray:none;stroke-opacity:1" transform="rotate(-150 231.738 383.888)scale(1.12806)"/><g transform="matrix(.85054 0 0 -.85054 5625 1052.535)"><rect width="40.014809" height="11.702641" x="-7632.5972" y="696.54645" rx="0" ry="0" style="fill:#333;fill-opacity:1;stroke:#1a1a1a;stroke-width:6;stroke-linecap:round;stroke-linejoin:round;stroke-dasharray:none;stroke-opacity:1;paint-order:stroke fill markers;stop-color:#000"/><ellipse cx="-702.34088" cy="-7602.2686" rx="3.8454595" ry="7.7480636" style="fill:#404040;fill-opacity:1;stroke:#242424;stroke-width:3;stroke-dasharray:none;stroke-opacity:1;paint-order:fill markers stroke;stop-color:#000" transform="rotate(-90)"/><ellipse cx="-702.34088" cy="-7622.8481" rx="3.8454595" ry="7.7480636" style="fill:#404040;fill-opacity:1;stroke:#242424;stroke-width:3;stroke-dasharray:none;stroke-opacity:1;paint-order:fill markers stroke;stop-color:#000" transform="rotate(-90)"/></g><g transform="translate(5862.65 -564.432)scale(.85054)"><rect width="40.014809" height="11.702641" x="-7632.5972" y="696.54645" rx="0" ry="0" style="fill:#333;fill-opacity:1;stroke:#1a1a1a;stroke-width:6;stroke-linecap:round;stroke-linejoin:round;stroke-dasharray:none;stroke-opacity:1;paint-order:stroke fill markers;stop-color:#000"/><ellipse cx="-702.34088" cy="-7602.2686" rx="3.8454595" ry="7.7480636" style="fill:#404040;fill-opacity:1;stroke:#242424;stroke-width:3;stroke-dasharray:none;stroke-opacity:1;paint-order:fill markers stroke;stop-color:#000" transform="rotate(-90)"/><ellipse cx="-702.34088" cy="-7622.8481" rx="3.8454595" ry="7.7480636" style="fill:#404040;fill-opacity:1;stroke:#242424;stroke-width:3;stroke-dasharray:none;stroke-opacity:1;paint-order:fill markers stroke;stop-color:#000" transform="rotate(-90)"/></g><g transform="matrix(1 0 0 -1 8587.521 475.455)"><rect width="16.679379" height="9.9535666" x="-8918.3262" y="-447.44666" rx="0" ry="0" style="fill:#333;fill-opacity:1;stroke:#1a1a1a;stroke-width:5.10324;stroke-linecap:round;stroke-linejoin:round;stroke-dasharray:none;stroke-opacity:1;paint-order:stroke fill markers;stop-color:#000" transform="scale(1 -1)"/><ellipse cx="442.51825" cy="-8910.0342" rx="3.2707179" ry="6.5900393" style="fill:#404040;fill-opacity:1;stroke:#242424;stroke-width:2.55162;stroke-dasharray:none;stroke-opacity:1;paint-order:fill markers stroke;stop-color:#000" transform="matrix(0 1 1 0 0 0)"/></g><g transform="translate(6109.07 -564.432)scale(.85054)"><rect width="40.014809" height="11.702641" x="-7632.5972" y="696.54645" rx="0" ry="0" style="fill:#333;fill-opacity:1;stroke:#1a1a1a;stroke-width:6;stroke-linecap:round;stroke-linejoin:round;stroke-dasharray:none;stroke-opacity:1;paint-order:stroke fill markers;stop-color:#000"/><ellipse cx="-702.34088" cy="-7602.2686" rx="3.8454595" ry="7.7480636" style="fill:#404040;fill-opacity:1;stroke:#242424;stroke-width:3;stroke-dasharray:none;stroke-opacity:1;paint-order:fill markers stroke;stop-color:#000" transform="rotate(-90)"/><ellipse cx="-702.34088" cy="-7622.8481" rx="3.8454595" ry="7.7480636" style="fill:#404040;fill-opacity:1;stroke:#242424;stroke-width:3;stroke-dasharray:none;stroke-opacity:1;paint-order:fill markers stroke;stop-color:#000" transform="rotate(-90)"/></g><g transform="matrix(1 0 0 -1 8391.442 475.455)"><rect width="16.679379" height="9.9535666" x="-8918.3262" y="-447.44666" rx="0" ry="0" style="fill:#333;fill-opacity:1;stroke:#1a1a1a;stroke-width:5.10324;stroke-linecap:round;stroke-linejoin:round;stroke-dasharray:none;stroke-opacity:1;paint-order:stroke fill markers;stop-color:#000" transform="scale(1 -1)"/><ellipse cx="442.51825" cy="-8910.0342" rx="3.2707179" ry="6.5900393" style="fill:#404040;fill-opacity:1;stroke:#242424;stroke-width:2.55162;stroke-dasharray:none;stroke-opacity:1;paint-order:fill markers stroke;stop-color:#000" transform="matrix(0 1 1 0 0 0)"/></g><g transform="matrix(1 0 0 -1 8995.196 475.455)"><rect width="16.679379" height="9.9535666" x="-8918.3262" y="-447.44666" rx="0" ry="0" style="fill:#333;fill-opacity:1;stroke:#1a1a1a;stroke-width:5.10324;stroke-linecap:round;stroke-linejoin:round;stroke-dasharray:none;stroke-opacity:1;paint-order:stroke fill markers;stop-color:#000" transform="scale(1 -1)"/><ellipse cx="442.51825" cy="-8910.0342" rx="3.2707179" ry="6.5900393" style="fill:#404040;fill-opacity:1;stroke:#242424;stroke-width:2.55162;stroke-dasharray:none;stroke-opacity:1;paint-order:fill markers stroke;stop-color:#000" transform="matrix(0 1 1 0 0 0)"/></g><g transform="matrix(1 0 0 -1 8969.19 475.455)"><rect width="16.679379" height="9.9535666" x="-8918.3262" y="-447.44666" rx="0" ry="0" style="fill:#333;fill-opacity:1;stroke:#1a1a1a;stroke-width:5.10324;stroke-linecap:round;stroke-linejoin:round;stroke-dasharray:none;stroke-opacity:1;paint-order:stroke fill markers;stop-color:#000" transform="scale(1 -1)"/><ellipse cx="442.51825" cy="-8910.0342" rx="3.2707179" ry="6.5900393" style="fill:#404040;fill-opacity:1;stroke:#242424;stroke-width:2.55162;stroke-dasharray:none;stroke-opacity:1;paint-order:fill markers stroke;stop-color:#000" transform="matrix(0 1 1 0 0 0)"/></g><g style="stroke:#404040;stroke-width:2.6;stroke-dasharray:none;stroke-opacity:1" transform="matrix(-1.1965 0 0 -1.09698 -12231.868 963.497)"><path d="M-9459.66 776.6h124.485v139.65h-124.485z" clip-path="url(#g)" style="fill:url(#h);stroke:#404040;stroke-width:2.6;stroke-dasharray:none;stroke-opacity:1"/><rect width="135.89333" height="152.45041" x="-9464.8877" y="769.38312" clip-path="url(#j)" rx="0" ry="0" style="fill:#000;fill-opacity:.3;stroke:#404040;stroke-width:2.6;stroke-dasharray:none;stroke-opacity:1"/></g><path d="M-8717.329 1197.257a23.46 23.46 0 0 0-23.458 23.458 23.46 23.46 0 0 0 23.458 23.458 23.46 23.46 0 0 0 23.458-23.458 23.46 23.46 0 0 0-23.458-23.458m.094 4.584a18.874 18.874 0 0 1 18.874 18.874 18.874 18.874 0 0 1-18.874 18.874 18.874 18.874 0 0 1-18.874-18.874 18.874 18.874 0 0 1 18.874-18.874" style="fill:#a3a3a3;fill-opacity:1;stroke:#404040;stroke-width:2.57634;stroke-linecap:round;stroke-linejoin:round;stroke-opacity:1;stop-color:#000" transform="matrix(1.09072 0 0 -1 8548.604 1255.624)"/><path d="M424.68 126.047h7.958v3.075h-7.959z" style="fill:#5e5e5e;fill-opacity:1;stroke:#161616;stroke-width:1.85208;stroke-linecap:round;stroke-linejoin:round;stroke-miterlimit:5;stroke-dasharray:none;stroke-opacity:1" transform="scale(1.12806 -1.12806)rotate(-85.606 -302.42 744.989)"/><path d="M424.68 148.877h7.958v3.075h-7.959z" style="fill:#5e5e5e;fill-opacity:1;stroke:#161616;stroke-width:1.852;stroke-linecap:round;stroke-linejoin:round;stroke-miterlimit:5;stroke-dasharray:none;stroke-opacity:1" transform="scale(1.12806 -1.12806)rotate(-85.606 -302.42 744.989)"/><path d="m419.261 132.377 4.069-1.403h14.109v16.051h-14.11l-4.068-1.403s-.831-2.873-.831-6.623.831-6.622.831-6.622" style="fill:#a3a3a3;fill-opacity:1;stroke:#595959;stroke-width:1.852;stroke-linecap:round;stroke-linejoin:round;stroke-miterlimit:5;stroke-opacity:1" transform="scale(1.12806 -1.12806)rotate(-85.606 -302.42 744.989)"/><g style="stroke:#2e2825;stroke-opacity:1"><path d="M417.374 118.818h10.671m-10.671 4.94h10.671m-10.671 4.942h10.671" style="fill:#595959;fill-opacity:1;stroke:#595959;stroke-width:1.32292;stroke-linecap:round;stroke-linejoin:round;stroke-miterlimit:5;stroke-dasharray:none;stroke-opacity:1" transform="scale(1.12806 -1.12806)rotate(-85.606 -297.406 733.896)"/></g><path d="M437.43 130.952h3.101v16.095h-3.102z" style="fill:#5e5e5e;fill-opacity:1;stroke:#262626;stroke-width:1.818;stroke-linecap:round;stroke-linejoin:round;stroke-miterlimit:5;stroke-dasharray:none;stroke-opacity:1" transform="scale(1.12806 -1.12806)rotate(-85.606 -302.42 744.989)"/><path d="M436.517 130.046h1.17v17.906h-1.17z" style="fill:#262626;fill-opacity:1;stroke:none;stroke-width:4.93291;stroke-linecap:round;stroke-linejoin:round;stroke-miterlimit:5;stroke-dasharray:none;stroke-opacity:1" transform="scale(1.12806 -1.12806)rotate(-85.606 -302.42 744.989)"/><g style="stroke:#404040;stroke-width:2.6;stroke-dasharray:none;stroke-opacity:1" transform="matrix(-1.1965 0 0 -1.09698 -11833.624 963.497)"><path d="M-9459.66 776.6h124.485v139.65h-124.485z" clip-path="url(#g)" style="fill:url(#h);stroke:#404040;stroke-width:2.6;stroke-dasharray:none;stroke-opacity:1"/><rect width="135.89333" height="152.45041" x="-9464.8877" y="769.38312" clip-path="url(#j)" rx="0" ry="0" style="fill:#000;fill-opacity:.3;stroke:#404040;stroke-width:2.6;stroke-dasharray:none;stroke-opacity:1"/></g><path d="M-8717.329 1197.257a23.46 23.46 0 0 0-23.458 23.458 23.46 23.46 0 0 0 23.458 23.458 23.46 23.46 0 0 0 23.458-23.458 23.46 23.46 0 0 0-23.458-23.458m.094 4.584a18.874 18.874 0 0 1 18.874 18.874 18.874 18.874 0 0 1-18.874 18.874 18.874 18.874 0 0 1-18.874-18.874 18.874 18.874 0 0 1 18.874-18.874" style="fill:#a3a3a3;fill-opacity:1;stroke:#404040;stroke-width:2.57634;stroke-linecap:round;stroke-linejoin:round;stroke-opacity:1;stop-color:#000" transform="matrix(1.09072 0 0 -1 8946.848 1255.624)"/><path d="M424.68 126.047h7.958v3.075h-7.959z" style="fill:#5e5e5e;fill-opacity:1;stroke:#161616;stroke-width:1.85208;stroke-linecap:round;stroke-linejoin:round;stroke-miterlimit:5;stroke-dasharray:none;stroke-opacity:1" transform="scale(1.12806 -1.12806)rotate(-75 -145.182 658.082)"/><path d="M424.68 148.877h7.958v3.075h-7.959z" style="fill:#5e5e5e;fill-opacity:1;stroke:#161616;stroke-width:1.852;stroke-linecap:round;stroke-linejoin:round;stroke-miterlimit:5;stroke-dasharray:none;stroke-opacity:1" transform="scale(1.12806 -1.12806)rotate(-75 -145.182 658.082)"/><path d="m419.261 132.377 4.069-1.403h14.109v16.051h-14.11l-4.068-1.403s-.831-2.873-.831-6.623.831-6.622.831-6.622" style="fill:#a3a3a3;fill-opacity:1;stroke:#595959;stroke-width:1.852;stroke-linecap:round;stroke-linejoin:round;stroke-miterlimit:5;stroke-opacity:1" transform="scale(1.12806 -1.12806)rotate(-75 -145.182 658.082)"/><g style="stroke:#2e2825;stroke-opacity:1"><path d="M417.374 118.818h10.671m-10.671 4.94h10.671m-10.671 4.942h10.671" style="fill:#595959;fill-opacity:1;stroke:#595959;stroke-width:1.32292;stroke-linecap:round;stroke-linejoin:round;stroke-miterlimit:5;stroke-dasharray:none;stroke-opacity:1" transform="scale(1.12806 -1.12806)rotate(-75 -138.466 646.272)"/></g><path d="M437.43 130.952h3.101v16.095h-3.102z" style="fill:#5e5e5e;fill-opacity:1;stroke:#262626;stroke-width:1.818;stroke-linecap:round;stroke-linejoin:round;stroke-miterlimit:5;stroke-dasharray:none;stroke-opacity:1" transform="scale(1.12806 -1.12806)rotate(-75 -145.182 658.082)"/><path d="M436.517 130.046h1.17v17.906h-1.17z" style="fill:#262626;fill-opacity:1;stroke:none;stroke-width:4.93291;stroke-linecap:round;stroke-linejoin:round;stroke-miterlimit:5;stroke-dasharray:none;stroke-opacity:1" transform="scale(1.12806 -1.12806)rotate(-75 -145.182 658.082)"/><g style="stroke:#404040;stroke-width:2.6;stroke-dasharray:none;stroke-opacity:1" transform="matrix(-1.1965 0 0 -1.09698 -11373.694 963.497)"><path d="M-9459.66 776.6h124.485v139.65h-124.485z" clip-path="url(#g)" style="fill:url(#h);stroke:#404040;stroke-width:2.6;stroke-dasharray:none;stroke-opacity:1"/><rect width="135.89333" height="152.45041" x="-9464.8877" y="769.38312" clip-path="url(#j)" rx="0" ry="0" style="fill:#000;fill-opacity:.3;stroke:#404040;stroke-width:2.6;stroke-dasharray:none;stroke-opacity:1"/></g><path d="M-8717.329 1197.257a23.46 23.46 0 0 0-23.458 23.458 23.46 23.46 0 0 0 23.458 23.458 23.46 23.46 0 0 0 23.458-23.458 23.46 23.46 0 0 0-23.458-23.458m.094 4.584a18.874 18.874 0 0 1 18.874 18.874 18.874 18.874 0 0 1-18.874 18.874 18.874 18.874 0 0 1-18.874-18.874 18.874 18.874 0 0 1 18.874-18.874" style="fill:#a3a3a3;fill-opacity:1;stroke:#404040;stroke-width:2.57634;stroke-linecap:round;stroke-linejoin:round;stroke-opacity:1;stop-color:#000" transform="matrix(1.09072 0 0 -1 9406.778 1255.624)"/><g transform="translate(5569.916 -564.432)scale(.85054)"><rect width="40.014809" height="11.702641" x="-7632.5972" y="696.54645" rx="0" ry="0" style="fill:#333;fill-opacity:1;stroke:#1a1a1a;stroke-width:6;stroke-linecap:round;stroke-linejoin:round;stroke-dasharray:none;stroke-opacity:1;paint-order:stroke fill markers;stop-color:#000"/><ellipse cx="-702.34088" cy="-7602.2686" rx="3.8454595" ry="7.7480636" style="fill:#404040;fill-opacity:1;stroke:#242424;stroke-width:3;stroke-dasharray:none;stroke-opacity:1;paint-order:fill markers stroke;stop-color:#000" transform="rotate(-90)"/><ellipse cx="-702.34088" cy="-7622.8481" rx="3.8454595" ry="7.7480636" style="fill:#404040;fill-opacity:1;stroke:#242424;stroke-width:3;stroke-dasharray:none;stroke-opacity:1;paint-order:fill markers stroke;stop-color:#000" transform="rotate(-90)"/></g><g transform="matrix(.85054 0 0 -.85054 6622.757 1002.77)"><rect width="40.014809" height="11.702641" x="-7632.5972" y="696.54645" rx="0" ry="0" style="fill:#333;fill-opacity:1;stroke:#1a1a1a;stroke-width:6;stroke-linecap:round;stroke-linejoin:round;stroke-dasharray:none;stroke-opacity:1;paint-order:stroke fill markers;stop-color:#000"/><ellipse cx="-702.34088" cy="-7602.2686" rx="3.8454595" ry="7.7480636" style="fill:#404040;fill-opacity:1;stroke:#242424;stroke-width:3;stroke-dasharray:none;stroke-opacity:1;paint-order:fill markers stroke;stop-color:#000" transform="rotate(-90)"/><ellipse cx="-702.34088" cy="-7622.8481" rx="3.8454595" ry="7.7480636" style="fill:#404040;fill-opacity:1;stroke:#242424;stroke-width:3;stroke-dasharray:none;stroke-opacity:1;paint-order:fill markers stroke;stop-color:#000" transform="rotate(-90)"/></g><g transform="matrix(.85054 0 0 -.85054 6622.757 679.855)"><rect width="40.014809" height="11.702641" x="-7632.5972" y="696.54645" rx="0" ry="0" style="fill:#333;fill-opacity:1;stroke:#1a1a1a;stroke-width:6;stroke-linecap:round;stroke-linejoin:round;stroke-dasharray:none;stroke-opacity:1;paint-order:stroke fill markers;stop-color:#000"/><ellipse cx="-702.34088" cy="-7602.2686" rx="3.8454595" ry="7.7480636" style="fill:#404040;fill-opacity:1;stroke:#242424;stroke-width:3;stroke-dasharray:none;stroke-opacity:1;paint-order:fill markers stroke;stop-color:#000" transform="rotate(-90)"/><ellipse cx="-702.34088" cy="-7622.8481" rx="3.8454595" ry="7.7480636" style="fill:#404040;fill-opacity:1;stroke:#242424;stroke-width:3;stroke-dasharray:none;stroke-opacity:1;paint-order:fill markers stroke;stop-color:#000" transform="rotate(-90)"/></g><g transform="rotate(-90 -4362.94 -4184.724)"><rect width="16.679379" height="9.9535666" x="-8898.4941" y="-441.83401" rx="0" ry="0" style="fill:#333;fill-opacity:1;stroke:#1a1a1a;stroke-width:5.10324;stroke-linecap:round;stroke-linejoin:round;stroke-dasharray:none;stroke-opacity:1;paint-order:stroke fill markers;stop-color:#000" transform="scale(1 -1)"/><ellipse cx="436.90561" cy="-8890.2021" rx="3.2707179" ry="6.5900393" style="fill:#404040;fill-opacity:1;stroke:#242424;stroke-width:2.55162;stroke-dasharray:none;stroke-opacity:1;paint-order:fill markers stroke;stop-color:#000" transform="matrix(0 1 1 0 0 0)"/><rect width="16.679379" height="9.9535666" x="-8898.4941" y="-461.29123" rx="0" ry="0" style="fill:#333;fill-opacity:1;stroke:#1a1a1a;stroke-width:5.10324;stroke-linecap:round;stroke-linejoin:round;stroke-dasharray:none;stroke-opacity:1;paint-order:stroke fill markers;stop-color:#000" transform="scale(1 -1)"/><ellipse cx="456.36282" cy="-8890.2021" rx="3.2707179" ry="6.5900393" style="fill:#404040;fill-opacity:1;stroke:#242424;stroke-width:2.55162;stroke-dasharray:none;stroke-opacity:1;paint-order:fill markers stroke;stop-color:#000" transform="matrix(0 1 1 0 0 0)"/></g><g transform="rotate(-90 -4462.472 -4284.255)"><rect width="16.679379" height="9.9535666" x="-8898.4941" y="-441.83401" rx="0" ry="0" style="fill:#333;fill-opacity:1;stroke:#1a1a1a;stroke-width:5.10324;stroke-linecap:round;stroke-linejoin:round;stroke-dasharray:none;stroke-opacity:1;paint-order:stroke fill markers;stop-color:#000" transform="scale(1 -1)"/><ellipse cx="436.90561" cy="-8890.2021" rx="3.2707179" ry="6.5900393" style="fill:#404040;fill-opacity:1;stroke:#242424;stroke-width:2.55162;stroke-dasharray:none;stroke-opacity:1;paint-order:fill markers stroke;stop-color:#000" transform="matrix(0 1 1 0 0 0)"/><rect width="16.679379" height="9.9535666" x="-8898.4941" y="-461.29123" rx="0" ry="0" style="fill:#333;fill-opacity:1;stroke:#1a1a1a;stroke-width:5.10324;stroke-linecap:round;stroke-linejoin:round;stroke-dasharray:none;stroke-opacity:1;paint-order:stroke fill markers;stop-color:#000" transform="scale(1 -1)"/><ellipse cx="456.36282" cy="-8890.2021" rx="3.2707179" ry="6.5900393" style="fill:#404040;fill-opacity:1;stroke:#242424;stroke-width:2.55162;stroke-dasharray:none;stroke-opacity:1;paint-order:fill markers stroke;stop-color:#000" transform="matrix(0 1 1 0 0 0)"/></g><path d="M-497.122 93.67h8.978v3.469h-8.978z" style="fill:#5e5e5e;fill-opacity:1;stroke:#161616;stroke-width:2.08926;stroke-linecap:round;stroke-linejoin:round;stroke-miterlimit:5;stroke-dasharray:none;stroke-opacity:1" transform="scale(-1 1)rotate(30 -58.384 1178.268)"/><path d="M-497.122 119.424h8.978v3.469h-8.978z" style="fill:#5e5e5e;fill-opacity:1;stroke:#161616;stroke-width:2.08917;stroke-linecap:round;stroke-linejoin:round;stroke-miterlimit:5;stroke-dasharray:none;stroke-opacity:1" transform="scale(-1 1)rotate(30 -58.384 1178.268)"/><path d="m486.22-164.312-4.768.924-13.783 7.958 9.053 15.68 13.784-7.957 3.183-3.666s-.808-3.275-2.923-6.938c-2.115-3.664-4.547-6.001-4.547-6.001" style="fill:#a3a3a3;fill-opacity:1;stroke:#595959;stroke-width:2.08917;stroke-linecap:round;stroke-linejoin:round;stroke-miterlimit:5;stroke-opacity:1" transform="translate(-581.312 187.05)"/><g style="stroke:#2e2825;stroke-opacity:1"><path d="M417.374 118.818h10.671m-10.671 4.94h10.671m-10.671 4.942h10.671" style="fill:#595959;fill-opacity:1;stroke:#595959;stroke-width:1.32292;stroke-linecap:round;stroke-linejoin:round;stroke-miterlimit:5;stroke-dasharray:none;stroke-opacity:1" transform="scale(-1.12806 1.12806)rotate(30 429.53 -544.403)"/></g><path d="M-482.738 99.203h3.499v18.156h-3.5z" style="fill:#5e5e5e;fill-opacity:1;stroke:#262626;stroke-width:2.05082;stroke-linecap:round;stroke-linejoin:round;stroke-miterlimit:5;stroke-dasharray:none;stroke-opacity:1" transform="scale(-1 1)rotate(30 -58.384 1178.268)"/><path d="M-483.768 98.181h1.32v20.2h-1.32z" style="fill:#262626;fill-opacity:1;stroke:none;stroke-width:5.56463;stroke-linecap:round;stroke-linejoin:round;stroke-miterlimit:5;stroke-dasharray:none;stroke-opacity:1" transform="scale(-1 1)rotate(30 -58.384 1178.268)"/></svg>