<svg xmlns="http://www.w3.org/2000/svg" xml:space="preserve" width="1320.818" height="1216.4087" viewBox="0 0 349.46641 321.84147"><g style="stroke-width:1"><path d="M-287.697-71.536h23.814V58.07h-23.814z" style="fill:#e0e005;fill-opacity:1;stroke-width:2.62771;stroke-linecap:round" transform="rotate(180 30.818 77.861)"/><path d="m287.83-50.749-7.552-7.454h-5.776l13.328 13.156zm0 12.094-19.805-19.548h-4.276v1.48l24.081 23.77zm0 12.094L263.75-50.33v5.7l24.08 23.769zm0 12.093-24.08-23.768v5.701l24.08 23.769zm0 12.094-24.08-23.768v5.701l24.08 23.769zm0 12.094-24.08-23.768v5.7l24.08 23.769zm0 12.093L263.75-1.955v5.702l24.08 23.768zm0 12.094L263.75 10.14v5.701l24.08 23.768zm0 12.094-24.08-23.768v5.7l24.08 23.769zm0 12.094-24.08-23.769v5.702l24.08 23.768zm0 12.093L263.75 46.42v5.701l19.805 19.548h4.275zm-10.752 1.481L263.75 58.513v5.702l7.552 7.454z" style="fill:#595959;fill-opacity:1;stroke-width:.995145;stroke-linecap:round" transform="translate(61.636 155.723)"/><path d="M-59.235-155.72h323.117v321.838H-59.235z" style="fill:#4d4d4d;fill-opacity:1;stroke:none;stroke-width:5.08116;stroke-opacity:1;paint-order:markers stroke fill;stop-color:#000" transform="translate(61.636 155.723)"/><g style="stroke-width:1.01603"><g style="stroke-width:1.01603"><path d="M-56.711-153.34h39.969v40h-39.97zm45.833.028h39.97v40h-39.97zm45.833 0h39.97v40h-39.97zm45.834 0h39.969v40h-39.97zm45.833 0h39.97v40h-39.97zm45.833 0h39.97v40h-39.97zm45.834 0h39.969v40h-39.97z" style="fill:#666;stroke:none;stroke-width:5.12297;stroke-opacity:1;paint-order:markers stroke fill;stop-color:#000" transform="matrix(.99381 0 0 .98988 63.81 159.081)"/></g><g style="stroke-width:1.01603"><path d="M-56.711-153.34h39.969v40h-39.97zm45.833.028h39.97v40h-39.97zm45.833 0h39.97v40h-39.97zm45.834 0h39.969v40h-39.97zm45.833 0h39.97v40h-39.97zm45.833 0h39.97v40h-39.97zm45.834 0h39.969v40h-39.97z" style="fill:#666;stroke:none;stroke-width:5.12297;stroke-opacity:1;paint-order:markers stroke fill;stop-color:#000" transform="matrix(.99381 0 0 .98988 63.81 204.45)"/></g><g style="stroke-width:1.01603"><path d="M-56.711-153.34h39.969v40h-39.97zm45.833.028h39.97v40h-39.97zm45.833 0h39.97v40h-39.97zm45.834 0h39.969v40h-39.97zm45.833 0h39.97v40h-39.97zm45.833 0h39.97v40h-39.97zm45.834 0h39.969v40h-39.97z" style="fill:#666;stroke:none;stroke-width:5.12297;stroke-opacity:1;paint-order:markers stroke fill;stop-color:#000" transform="matrix(.99381 0 0 .98988 63.81 385.928)"/></g><g style="stroke-width:1.01603"><path d="M-56.711-153.34h39.969v40h-39.97zm45.833.028h39.97v40h-39.97zm45.833 0h39.97v40h-39.97zm45.834 0h39.969v40h-39.97zm45.833 0h39.97v40h-39.97zm45.833 0h39.97v40h-39.97zm45.834 0h39.969v40h-39.97z" style="fill:#666;stroke:none;stroke-width:5.12297;stroke-opacity:1;paint-order:markers stroke fill;stop-color:#000" transform="matrix(.99381 0 0 .98988 63.81 431.297)"/></g><g style="stroke-width:1.01603"><path d="M-56.711-153.34h39.969v40h-39.97zm45.833.028h39.97v40h-39.97zm45.833 0h39.97v40h-39.97zm45.834 0h39.969v40h-39.97zm45.833 0h39.97v40h-39.97zm45.833 0h39.97v40h-39.97zm45.834 0h39.969v40h-39.97z" style="fill:#666;stroke:none;stroke-width:5.12297;stroke-opacity:1;paint-order:markers stroke fill;stop-color:#000" transform="matrix(.99381 0 0 .98988 63.81 249.82)"/></g><g style="stroke-width:1.01603"><path d="M-56.711-153.34h39.969v40h-39.97zm45.833.028h39.97v40h-39.97zm45.833 0h39.97v40h-39.97zm45.834 0h39.969v40h-39.97zm45.833 0h39.97v40h-39.97zm45.833 0h39.97v40h-39.97zm45.834 0h39.969v40h-39.97z" style="fill:#666;stroke:none;stroke-width:5.12297;stroke-opacity:1;paint-order:markers stroke fill;stop-color:#000" transform="matrix(.99381 0 0 .98988 63.81 340.559)"/></g><g style="stroke-width:1.01603"><path d="M-56.711-153.34h39.969v40h-39.97zm45.833.028h39.97v40h-39.97zm45.833 0h39.97v40h-39.97zm45.834 0h39.969v40h-39.97zm45.833 0h39.97v40h-39.97zm45.833 0h39.97v40h-39.97zm45.834 0h39.969v40h-39.97z" style="fill:#666;stroke:none;stroke-width:5.12297;stroke-opacity:1;paint-order:markers stroke fill;stop-color:#000" transform="matrix(.99381 0 0 .98988 63.81 295.19)"/></g></g><path d="M262.698 166.118c.014-31.202 0-62.404 0-93.607h-75.411v8.318h67.094v85.29" style="fill:#4f4f4f;fill-opacity:1;stroke:#323232;stroke-width:2.36529;stroke-linejoin:round;stroke-dasharray:none;stroke-opacity:1" transform="translate(61.636 155.723)"/><path d="M-58.092-154.54v95.29h8.318v-86.973H254.38v86.973h8.317v-95.29z" style="fill:#4f4f4f;stroke:#323232;stroke-width:2.36516;stroke-linecap:butt;stroke-linejoin:round;stroke-dasharray:none" transform="translate(61.636 155.723)"/><path d="M-58.092 166.119V73.61h8.318v92.508" style="fill:#4f4f4f;stroke:#323232;stroke-width:2.36529;stroke-linecap:butt;stroke-linejoin:round;stroke-dasharray:none" transform="translate(61.636 155.723)"/><path d="M-59.707-1.158h10.2v16.02h-10.2zm0 36.861h10.2v16.019h-10.2zm0-73.178h10.2v16.02h-10.2z" style="fill:#0094b2;fill-opacity:.3;stroke:#005465;stroke-width:3.85903;stroke-linecap:square;stroke-linejoin:round;stroke-dasharray:none;stroke-opacity:.8;paint-order:stroke fill markers;stop-color:#000" transform="translate(61.636 155.723)"/><path d="M-57.114-55.94h5.015V70.304h-5.015z" style="fill:#a6a6a6;fill-opacity:1;stroke:#414141;stroke-width:4.23691;stroke-linecap:square;stroke-linejoin:round;stroke-dasharray:none;stroke-opacity:1;paint-order:stroke fill markers;stop-color:#000" transform="translate(61.636 155.723)"/></g></svg>