<svg xmlns="http://www.w3.org/2000/svg" xml:space="preserve" width="306.95081" height="218.24277" viewBox="0 0 81.214068 57.74338"><path d="M26.203 106.328h52.268c.554 0 1 .446 1 1v14.6c0 .553-.446 1-1 1H26.203c-.554 0-1-.447-1-1v-14.6c0-.554.446-1 1-1z" style="fill:#999;stroke:#4f4f4f;stroke-width:1.322;stroke-linecap:butt;stroke-linejoin:miter;paint-order:normal" transform="translate(-.425 -58.208)scale(.93647)"/><path fill="#999" d="M.565 107.47V.566h86.612v106.906Z" style="stroke:none" transform="translate(-.425 -58.208)scale(.93647)"/><path d="M87.177.565v106.906H78.81V8.932H8.94v90.172h16.924v8.366H.565V.566Z" style="fill:#666;stroke:none;stroke-width:2.11666;stroke-dasharray:none" transform="translate(-.425 -58.208)scale(.93647)"/><path d="M25.864 99.103H78.81v8.367H25.864Z" style="fill:gray;stroke-width:1.25034;stroke-linecap:square;stroke-linejoin:bevel" transform="translate(-.425 -58.208)scale(.93647)"/><path d="M23.796 42.434h6.198V45.9h-6.198zm12.396 0h6.198V45.9h-6.198zm-6.198 3.465h6.198v3.464h-6.198zm18.593-3.465h6.198V45.9h-6.198zm-6.197 3.465h6.197v3.464H42.39zm18.593-3.465h6.198V45.9h-6.198z" style="fill:#606060;fill-opacity:1;stroke-width:.193225;stroke-linecap:square;stroke-linejoin:bevel"/><path d="M54.785 45.899h6.198v3.464h-6.198zm12.396 0h6.198v3.464H67.18zm-43.385 3.464h6.198v3.464h-6.198zm12.396 0h6.198v3.464h-6.198zm-6.198 3.464h6.198v3.464h-6.198zm18.593-3.464h6.198v3.464h-6.198zm-6.197 3.464h6.197v3.464H42.39zm18.593-3.464h6.198v3.464h-6.198zm-6.198 3.464h6.198v3.464h-6.198zm12.396 0h6.198v3.464H67.18z" style="fill:#606060;fill-opacity:1;stroke-width:.193225;stroke-linecap:square;stroke-linejoin:bevel"/></svg>