<svg xmlns="http://www.w3.org/2000/svg" width="171.45306mm" height="334.71158mm" viewBox="0 0 171.45306 334.71158"><path d="M-45.111-189.045V448.61h317.735v-637.654zm133.008 16.727c7.389.129 153.698 138.474 155.207 146.691 1.106 6.016 11.24 300.165 11.916 306.245 2.11 18.98-17.145 152.24-140.8 151.65-169.352-.81-145.939-304.862-146.983-310.732-1.264-7.101-10.815-156.377 25.413-241.063 17.726-41.437 92.127-52.845 95.247-52.79z" style="fill:#d5d5d5;fill-opacity:1;fill-rule:evenodd;stroke:#4d4d4d;stroke-width:2.38125;stroke-linecap:square;stroke-linejoin:miter;stroke-dasharray:none;stroke-opacity:1" transform="matrix(.5356 0 0 .52296 24.8 99.485)"/><path d="M-36.276-179.243v618.05H263.79v-618.05zm41.72 51.419h74.042c15.876 0 16.524-.88 11.03 8.22-3.936 6.518-2.804 8.743.25 12.156 7.676 8.584 5.993 11.062 3.57 14.882-2.853 4.497-1.678 8.095-1.795 12.314-.206 7.382-12.597 4.147-16.482 4.147H10.468c-2.824 0-.238-4.181 3.214-8.294 5.556-6.62-.663-8.797-2.792-10.602-6.454-5.474-7.614-6.95-3.886-12.028 4.025-5.484 2.224-10.892-.472-14.458-2.813-3.719-4.533-6.337-1.088-6.337m178.302 360.348c5.478.407 30.778.562 40.511.562 8.253 0 13.096-1.653 4.985 5.526-5.545 4.907-11.913 5.32-.875 19.959 10.836 14.371 6.873 5.264-21.91 13.826-4.601 1.369.37 12.115-2.083 12.115-14.456 0-33.41-1.072-51.03-1.072l-6.624.04 3.022-17.836-10.665-24.054 14.267-8.356c9.677-3.574 20.236.125 30.402-.71" style="fill:#fff;fill-rule:evenodd;stroke:none;stroke-width:2.38125;stroke-linecap:square" transform="matrix(.5356 0 0 .52296 24.8 99.485)"/><path d="M60.31-76.068c3.635.865 18.469-2.121 21.28.506 1.803 1.636 3.423 22.897-4.752 18.177-14.181-4.777-15.234 8.53-30.732.72-5.01-2.312-7.038 7.605-10.885 3.82-2.248-2.476-4.911-4.525-7.174-6.98-1.733-1.298-1.594-5.639.963-5.903 2.812-.914 3.384-1.1 4.495-4.048.38-.791-3.195-5.225-2.475-5.366z" style="fill:#c7c7c7;fill-opacity:1;fill-rule:evenodd;stroke:none;stroke-width:2.38125;stroke-linecap:round;stroke-linejoin:round;stroke-dasharray:none;stroke-opacity:1" transform="matrix(.5356 0 0 .52296 24.8 99.485)"/><path d="M-36.276-179.243v618.05H263.79v-618.05Z" style="fill:none;fill-rule:evenodd;stroke:#4d4d4d;stroke-width:2.38125;stroke-linecap:square" transform="matrix(.5356 0 0 .52296 24.8 99.485)"/><path d="M113.756-177.834v615.233M-35.922 129.782h299.357M-35.922 78.278h299.357M-35.922 26.774h299.357M-35.922-76.235h299.357m-299.357-51.504h299.357M-35.922-24.73h299.357M-35.922 181.287h299.357" style="fill:#fff;fill-opacity:1;fill-rule:evenodd;stroke:#4d4d4d;stroke-width:2.38125;stroke-linecap:square;stroke-linejoin:miter;stroke-dasharray:none;stroke-opacity:1" transform="matrix(.5356 0 0 .52296 24.8 99.485)"/><path d="M185.564 233.24c-3.634-.865-18.468 2.122-21.28-.506-1.802-1.636 9.327-8.275 10.616-10.154 6.158-3.555 11.53-14.393 27.029-6.582 5.009 2.311 7.346-1.434 11.193 2.351 2.248 2.476 4.912 4.525 7.174 6.98 1.733 1.298.669 6.256-1.888 6.52-2.813.914-4.31-.133-7.273.962-.379.792-1.433.288-2.154.43z" style="fill:#c7c7c7;fill-opacity:1;fill-rule:evenodd;stroke:none;stroke-width:2.38125;stroke-linecap:round;stroke-linejoin:round;stroke-dasharray:none;stroke-opacity:1" transform="matrix(.5356 0 0 .52296 24.8 99.485)"/><path d="M-35.922 232.79h299.357m-299.357 51.505h299.357M-35.922 335.8h299.357m-299.357 51.504h299.357" style="fill:#fff;fill-opacity:1;fill-rule:evenodd;stroke:#4d4d4d;stroke-width:2.38125;stroke-linecap:square;stroke-linejoin:miter;stroke-dasharray:none;stroke-opacity:1" transform="matrix(.5356 0 0 .52296 24.8 99.485)"/><path d="m153.921 233.03-14.809 8.55 10.11 22.67-2.015 19.637m87.201-50.792-13.07 13.071 11.645 20.17-29.59 6.932 2.849 10.633M94.971-127.264l-8.32 14.41 10.514 13.833-5.21 12.888v9.597M2.759-127.41l8.135 14.235-7.288 12.033 13.728 10.847-8.982 13.727" style="fill:none;fill-opacity:1;fill-rule:evenodd;stroke:#4d4d4d;stroke-width:2.38125;stroke-linecap:round;stroke-linejoin:round;stroke-dasharray:none;stroke-opacity:1" transform="matrix(.5356 0 0 .52296 24.8 99.485)"/></svg>