<svg xmlns="http://www.w3.org/2000/svg" xmlns:xlink="http://www.w3.org/1999/xlink" xml:space="preserve" width="712.70978" height="721.20886" viewBox="0 0 712.70976 721.20882"><defs><pattern xlink:href="#a" id="b" x="0" y="0" patternTransform="translate(28.986 560.081)" preserveAspectRatio="xMidYMid"/><pattern id="a" width="137.50397" height="137.3657" patternTransform="translate(18.986 1325.059)" patternUnits="userSpaceOnUse" preserveAspectRatio="xMidYMid"><g transform="translate(600.954 -1512.64)"><rect width="137.50397" height="137.36168" x="-600.9538" y="1512.641" ry="0" style="fill:#3f2e16;fill-opacity:1;stroke-width:4.01757;paint-order:markers stroke fill"/><path d="M-530.42 1611.65c-.987 0-1.782.793-1.782 1.78v36.574h29.68v-36.574c0-.987-.795-1.78-1.781-1.78zm34.87-24.203a2.273 2.273 0 0 0-2.278 2.28v60.277h29.678v-60.277a2.274 2.274 0 0 0-2.28-2.28zm-68.766-36.955a2.255 2.255 0 0 0-2.26 2.26v97.254h29.68v-97.25a2.255 2.255 0 0 0-2.26-2.26zm32.114-37.852v92.05a2.255 2.255 0 0 0 2.26 2.26h25.16a2.255 2.255 0 0 0 2.26-2.26v-92.049z" style="fill:#9e7437;fill-opacity:1;stroke-width:1.20455;paint-order:markers stroke fill"/><path d="M-597.744 1512.641a3.2 3.2 0 0 0-3.205 3.206v126.319a3.2 3.2 0 0 0 3.205 3.205h23.27a3.2 3.2 0 0 0 3.204-3.205v-126.32a3.2 3.2 0 0 0-3.205-3.205z" style="fill:#9e7437;fill-opacity:1;stroke-width:1.20465;paint-order:markers stroke fill"/><path d="M-566.576 1512.641v31.378c0 .986.796 1.781 1.782 1.781h26.119c.986 0 1.78-.795 1.78-1.781v-31.378zm68.748 0v67.673a2.43 2.43 0 0 0 2.435 2.436h24.807a2.43 2.43 0 0 0 2.436-2.436v-67.673z" style="fill:#9e7437;fill-opacity:1;stroke-width:1.20455;paint-order:markers stroke fill"/></g></pattern><radialGradient id="c" cx="141.73535" cy="145.99023" r="104.41504" gradientTransform="matrix(1.08433 -.29055 .28193 1.0522 1078.747 -734.159)" gradientUnits="userSpaceOnUse"><stop offset="0" stop-opacity=".9"/><stop offset="1" stop-opacity=".3"/></radialGradient></defs><path d="M32.83 151.913h647.092V688.39H32.83z" style="opacity:1;fill:url(#b);stroke:none;stroke-width:1.01234"/><path d="M1671.666-732.14h331.262v601.077h-331.262z" style="display:inline;opacity:1;fill:#4c4c4c;fill-opacity:1;stroke-width:1.03747;-inkscape-stroke:none;paint-order:markers stroke fill;stop-color:#000"/><path d="M8.807-739.357h687.266V158.15H8.807z" style="display:inline;opacity:1;fill:#5f5f63;fill-opacity:1;stroke-width:1.79735;-inkscape-stroke:none;paint-order:markers stroke fill;stop-color:#000"/><path d="M8.807-739.357h270.976v919.516H8.807z" style="display:inline;opacity:1;fill:#4c4c4c;fill-opacity:1;stroke-width:1.12073;-inkscape-stroke:none;paint-order:markers stroke fill;stop-color:#000"/><path d="M677.87-762.977h1029.588v631.752H677.87z" style="display:inline;opacity:1;fill:#5f5f63;fill-opacity:1;stroke-width:1.80219;-inkscape-stroke:none;paint-order:markers stroke fill;stop-color:#000"/><path fill="url(#c)" d="m1245.268-731.89 6.094 57.095a61.405 59.81 75 0 0-.697.363l-34.423-29.075 17.81 40.187-29.053-16.002 20.404 26.897a61.405 59.81 75 0 0-.339.606l-54.493-1.367 47.013 19.49a61.405 59.81 75 0 0-.457 1.981l-25.583 2.545 24.633 3.923a61.405 59.81 75 0 0-.01.054l-47.854 18.298 51.211 8.684a61.405 59.81 75 0 0 .446 1.299l-30.366 17.386 29.639-6.614-43.361 52.642 58.497-39.077-19.413 52.568 35.382-42.95 5.426 50.773 16.5-45.258a61.405 59.81 75 0 0 2.485.238l21.615 47.123-.65-48.653 21.793 24.938-9.45-24.781 44.158 24.408-29.317-46.233a61.405 59.81 75 0 0 1.95-2.548l33.183 7.035-22.406-22.98 65.715 1.1-63.697-21.305 38.354-14.985-42.937-1.077a61.405 59.81 75 0 0-.284-.97l38.668-43.92-52.312 20.006a61.405 59.81 75 0 0-1.178-1.228l11.745-22.593-17.943 14.972 23.25-63.741-39.457 56.64a61.405 59.81 75 0 0-2.069-.731l6.333-33.15-17.88 30.556a61.405 59.81 75 0 0-.48-.056l-2.085-38.92-9.026 38.72a61.405 59.81 75 0 0-1.828.156z" style="opacity:1;fill:url(#c);stroke-width:2.34149"/><path d="m1136.174-499.278-34-47 27.755-8.847 31 34.382zm297.07-79.552-30.486 32.42-19.893-7.524 21.766-24.595zm-334.296-66.865-16.267-26.816 15.35-22.485 24.138 21.238z" style="opacity:1;fill:#575759;fill-opacity:1;stroke:#48484a;stroke-width:18.1492;stroke-opacity:1;paint-order:stroke fill markers"/><g style="opacity:1"><path d="M-.47-1482.185V-.043L708.237 0v-6.418h.043v-844.016h732.682v-38.046c-256.91-.144-770.732-.041-770.732-.041V-578l-188.46.325v38.05h188.46V-38.05H37.58v-501.574h238.952v-38.05H37.58v-866.452h1117.707l-12.834-27.557-28.633-10.494zm1985.353 0v.01h-543.201l-23.71 9.716-15.945 28.334h582.854v555.643h-279.424v38.049h317.329v-631.752z" style="fill:#262626;fill-opacity:1;stroke:#262626;stroke-width:4;stroke-dasharray:none;stroke-opacity:1" transform="translate(2.47 719.208)"/><path d="M-3.762-1.913A1.85 1.85 0 0 0-1.91-3.765v-384.634c0-1.023-.83-1.852-1.852-1.852h-180c-1.022 0-1.851.83-1.851 1.852v63.522a2 2 45 0 0 2 2h2.246a2 2 135 0 0 2-2v-59.13h171.21v136.524h-61.222a2 2 135 0 0-2 2v2.263a2 2 45 0 0 2 2h61.222V-8.16h-294.266l2.045 3.928 6.84 2.32zm-379.804 0 6.011-2.209 2.516-4.037H-527.2v-150.827h71.867a2 2 135 0 0 2-2v-2.262a2 2 45 0 0-2-2h-76.262a1.85 1.85 0 0 0-1.852 1.852V-3.765c0 1.023.83 1.852 1.852 1.852zm204.2-157.073v-82.234h47.704a2 2 135 0 0 2-2v-2.263a2 2 45 0 0-2-2h-47.705v-15.931a2 2 45 0 0-2-2h-2.246a2 2 135 0 0-2 2v98.166h-191.708a2 2 135 0 0-2 2v2.262a2 2 45 0 0 2 2z" style="fill:#606060;fill-opacity:1" transform="rotate(179.935 1 -381.489)scale(3.77953)"/></g><rect width="264.49548" height="198.97449" x="1442.9624" y="-198.97447" rx="26.413177" ry="26.413177" style="opacity:1;fill:#5f5f63;fill-opacity:1;stroke-width:1.69323;paint-order:stroke fill markers"/><g transform="translate(2 -762.977)"><rect width="137.50397" height="137.36168" x="-600.9538" y="1512.641" ry="0" style="fill:#3f2e16;fill-opacity:1;stroke-width:4.01757;paint-order:markers stroke fill"/><path d="M-530.42 1611.65c-.987 0-1.782.793-1.782 1.78v36.574h29.68v-36.574c0-.987-.795-1.78-1.781-1.78zm34.87-24.203a2.273 2.273 0 0 0-2.278 2.28v60.277h29.678v-60.277a2.274 2.274 0 0 0-2.28-2.28zm-68.766-36.955a2.255 2.255 0 0 0-2.26 2.26v97.254h29.68v-97.25a2.255 2.255 0 0 0-2.26-2.26zm32.114-37.852v92.05a2.255 2.255 0 0 0 2.26 2.26h25.16a2.255 2.255 0 0 0 2.26-2.26v-92.049z" style="fill:#9e7437;fill-opacity:1;stroke-width:1.20455;paint-order:markers stroke fill"/><path d="M-597.744 1512.641a3.2 3.2 0 0 0-3.205 3.206v126.319a3.2 3.2 0 0 0 3.205 3.205h23.27a3.2 3.2 0 0 0 3.204-3.205v-126.32a3.2 3.2 0 0 0-3.205-3.205z" style="fill:#9e7437;fill-opacity:1;stroke-width:1.20465;paint-order:markers stroke fill"/><path d="M-566.576 1512.641v31.378c0 .986.796 1.781 1.782 1.781h26.119c.986 0 1.78-.795 1.78-1.781v-31.378zm68.748 0v67.673a2.43 2.43 0 0 0 2.435 2.436h24.807a2.43 2.43 0 0 0 2.436-2.436v-67.673z" style="fill:#9e7437;fill-opacity:1;stroke-width:1.20455;paint-order:markers stroke fill"/></g></svg>