<svg xmlns="http://www.w3.org/2000/svg" width="712.75586" height="850.43555" viewBox="0 0 188.58332 225.01107"><defs><clipPath id="a" clipPathUnits="userSpaceOnUse"><path d="M.012.219V167.15h535.292V.219h-153.96l-17.762 18.528-10.178-1.246-13.566 3.527-13.17-4.388-11.713 3.568-19.88-19.99Zm410.077 42.045h29.661v79.381h-29.66zm-220.9 74.411h78.381v29.169h-78.38z" style="fill:#4d4d4d;fill-opacity:1;stroke-width:1"/></clipPath><clipPath id="b" clipPathUnits="userSpaceOnUse"><path fill="#4d4d4d" d="M.473 167.151.012 392.393H187.51V167.15Zm87.196 88.686h77.892v28.517H87.669Zm-.163 42.857h78.381v28.68h-78.38Z" style="stroke-width:1"/></clipPath></defs><path d="M.541-167.461V-.53h535.292v-166.93h-153.96l-17.761 18.528-10.18-1.245-13.565 3.526-13.17-4.387-11.713 3.568-19.88-19.99zm410.077 42.045h29.662v79.382h-29.662zm-220.9 74.411H268.1v29.17h-78.38z" style="fill:#4d4d4d;fill-opacity:1"/><g fill="#606060" clip-path="url(#a)" transform="translate(.53 -167.68)"><path d="M5.39 42.264V67.61h528.058V42.264Zm0-39.691V27.92h528.058V2.573ZM3.337 121.645H531.31v25.347H3.337zM5.39 81.954v25.348h528.058V81.954Z"/></g><path fill="#4d4d4d" d="m1.002-.529-.46 225.242H188.04V-.53Zm87.196 88.686h77.892v28.518H88.198Zm-.163 42.857h78.381v28.68h-78.38Z"/><g fill="#606060" stroke-width="0.320333" clip-path="url(#b)" transform="translate(.53 -167.68)"><path d="M8.532 201.027h170.182v25.347H8.532zm.261 158.762h170.183v25.347H8.793zm.18-39.691h170.183v25.347H8.973zm-1.103-39.69h170.182v25.347H7.869zm.662-39.691h170.182v25.347H8.532zm-.456-79.381v25.347H178.26v-25.347Z"/></g><path d="m301.789-161.616 13.695 14.145 11.713-3.568 13.17 4.387 13.566-3.526 10.179 1.245 11.315-10.72" style="opacity:1;fill:none;fill-opacity:1;stroke:#4a4a4a;stroke-width:2.64583;stroke-dasharray:none;stroke-opacity:1;paint-order:stroke fill markers"/><path d="M.53-167.68v392.15l187.512.012v-1.698h.011V-.53h347.795v-167.15H525.82v.001H382.1l-6.274 2.571-4.219 7.497h78.048v147.014h-160.51V-157.61h17.18l-3.396-7.291-7.576-2.777zm10.067 10.07h268.479v147.014h-91.023v-.01h-10.067v.01H10.596Zm449.125 0h66.098v147.014h-66.098ZM10.597-.53h167.389v214.943H10.596Z" style="fill:#262626;fill-opacity:1;stroke:#262626;stroke-width:1.05833;stroke-dasharray:none;stroke-opacity:1"/><path d="M2.42-163.916v384.634a1.85 1.85 0 0 0 1.852 1.852h179.999a1.85 1.85 0 0 0 1.852-1.852V-2.432h345.983a1.85 1.85 0 0 0 1.852-1.852v-159.632a1.85 1.85 0 0 0-1.852-1.852h-148.03l-6.012 2.209-2.515 4.037h76.09V-8.695H287.214v-150.827h15.718l-2.044-3.926-6.84-2.32H4.272a1.85 1.85 0 0 0-1.852 1.852m6.247 4.394h272.3V-8.695H8.667Zm449.218 0h69.826V-8.695h-69.826ZM8.667-2.432h171.21v218.759H8.666Z" style="fill:#606060;fill-opacity:1"/><g transform="scale(1 -1)rotate(15 -639.038 82.573)"><circle cx="64.896988" cy="-401.26917" r="10.00125" fill="#a7a7aa"/><circle cx="64.896988" cy="-401.26917" r="7.0114584" fill="#cbcbcd"/></g><g transform="translate(0 -168.209)"><rect width="13.786936" height="94.773743" x="304.12366" y="37.176697" fill="gray" stroke-width="0.600267" ry="8.2951555" style="stroke:#b3b3b3;stroke-width:5.29167;stroke-dasharray:none;stroke-opacity:1;paint-order:stroke fill markers"/><rect width="1.309621" height="98.22155" x="310.3623" y="35.842201" fill="#b3b3b3" ry="0.65481001"/></g><g transform="translate(.33 -168.209)"><rect width="13.786936" height="94.773743" x="340.26453" y="37.171837" fill="gray" stroke-width="0.600267" ry="8.2951555" style="stroke:#b3b3b3;stroke-width:3.96875;stroke-dasharray:none;stroke-opacity:1;paint-order:stroke fill markers"/><rect width="1.309621" height="98.22155" x="346.50317" y="35.837341" fill="#b3b3b3" ry="0.65481001"/></g><g transform="translate(0 -168.209)"><rect width="13.786936" height="94.773743" x="376.40543" y="37.192711" fill="gray" stroke-width="0.600267" ry="8.2951555" style="stroke:#b3b3b3;stroke-width:3.96875;stroke-dasharray:none;stroke-opacity:1;paint-order:stroke fill markers"/><rect width="1.309621" height="98.22155" x="382.64407" y="35.858215" fill="#b3b3b3" ry="0.65481001"/></g><path fill="#333" d="M409.64-126.568v81.686h31.455v-81.686zm27.393 3.125v32.95H413.54v-32.95zm0 41.024v32.823H413.54V-82.42z"/><path d="M294.02 261.268h30.556v4.121H294.02zm0 13.251h30.556v4.121H294.02zm0-6.626h30.556v4.122H294.02zm-40.475-6.625h30.557v4.121h-30.557z" style="fill:#999;stroke-width:.495627" transform="translate(-162.099 -167.68)"/><path fill="#333" d="M167.392 86.7h-80.66v31.455h80.66zm-4.315 27.394h-32.02V90.599h32.02zm-39.867 0H91.314V90.599h31.896z"/><path fill="#666" d="M131.19 88.917a2.165 2.165 0 0 0-2.182 2.159v22.704c0 1.196.973 2.158 2.181 2.158h32.02a2.165 2.165 0 0 0 2.182-2.158V91.076a2.165 2.165 0 0 0-2.181-2.159zm.97 2.773h30.083v21.2h-30.084z"/><path d="M253.545 274.519h30.557v4.121h-30.557zm0-6.626h30.557v4.122h-30.557z" style="fill:#999;stroke-width:.495627" transform="translate(-162.099 -167.68)"/><path fill="#666" d="M90.915 88.917a2.165 2.165 0 0 0-2.181 2.159v22.704c0 1.196.973 2.158 2.181 2.158h32.02a2.165 2.165 0 0 0 2.182-2.158V91.076a2.165 2.165 0 0 0-2.182-2.159zm.97 2.773h30.084v21.2H91.885z"/><path d="M294.02 261.268h30.556v4.121H294.02zm0 13.251h30.556v4.121H294.02zm0-6.626h30.556v4.122H294.02zm-40.475-6.625h30.557v4.121h-30.557z" style="fill:#999;stroke-width:.495627" transform="translate(-162.099 -124.888)"/><path fill="#333" d="M167.392 129.492h-80.66v31.454h80.66zm-4.315 27.393h-32.02V133.39h32.02zm-39.867 0H91.314V133.39h31.896z"/><path fill="#666" d="M131.19 131.709a2.165 2.165 0 0 0-2.182 2.158v22.705c0 1.195.973 2.157 2.181 2.157h32.02a2.165 2.165 0 0 0 2.182-2.157v-22.705a2.165 2.165 0 0 0-2.181-2.158zm.97 2.772h30.083v21.2h-30.084z"/><path d="M253.545 274.519h30.557v4.121h-30.557zm0-6.626h30.557v4.122h-30.557z" style="fill:#999;stroke-width:.495627" transform="translate(-162.099 -124.888)"/><path fill="#666" d="M90.915 131.709a2.165 2.165 0 0 0-2.181 2.158v22.705c0 1.195.973 2.157 2.181 2.157h32.02a2.165 2.165 0 0 0 2.182-2.157v-22.705a2.165 2.165 0 0 0-2.182-2.158zm.97 2.772h30.084v21.2H91.885z"/><path d="M294.02 261.268h30.556v4.121H294.02zm0 13.251h30.556v4.121H294.02zm0-6.626h30.556v4.122H294.02zm-40.475-6.625h30.557v4.121h-30.557z" style="fill:#999;stroke-width:.495627" transform="translate(-60.457 -306.522)"/><path fill="#333" d="M269.034-52.141h-80.66v31.454h80.66zm-4.315 27.393H232.7v-23.495h32.02zm-39.867 0h-31.896v-23.495h31.896z"/><path fill="#666" d="M232.831-49.925a2.165 2.165 0 0 0-2.181 2.159v22.704c0 1.196.973 2.158 2.181 2.158h32.02a2.165 2.165 0 0 0 2.182-2.158v-22.704a2.165 2.165 0 0 0-2.181-2.159zm.97 2.773h30.084v21.2H233.8z"/><path d="M253.545 274.519h30.557v4.121h-30.557zm0-6.626h30.557v4.122h-30.557z" style="fill:#999;stroke-width:.495627" transform="translate(-60.457 -306.522)"/><path fill="#666" d="M192.557-49.925a2.165 2.165 0 0 0-2.181 2.159v22.704c0 1.196.973 2.158 2.181 2.158h32.02a2.165 2.165 0 0 0 2.182-2.158v-22.704a2.165 2.165 0 0 0-2.182-2.159zm.97 2.773h30.084v21.2h-30.084z"/><path d="M199.288-322.403h30.556v4.122h-30.556zm0 13.251h30.556v4.122h-30.556zm0-6.625h30.556v4.121h-30.556z" style="fill:#999;stroke-width:.495627" transform="rotate(90 216.217 -104.412)"/><path fill="#666" d="M438.878-121.872a2.165 2.165 0 0 0-2.158-2.182h-22.705a2.165 2.165 0 0 0-2.158 2.182v32.02c0 1.208.962 2.181 2.158 2.181h22.705a2.165 2.165 0 0 0 2.158-2.181zm-2.772.97v30.083h-21.2v-30.084z"/><path d="M199.288-322.403h30.556v4.122h-30.556zm0 13.251h30.556v4.122h-30.556zm0-6.625h30.556v4.121h-30.556z" style="fill:#999;stroke-width:.495627" transform="rotate(90 196.08 -84.275)"/><path fill="#666" d="M438.878-81.598a2.165 2.165 0 0 0-2.158-2.182h-22.705a2.165 2.165 0 0 0-2.158 2.182v32.02c0 1.209.962 2.181 2.158 2.181h22.705a2.165 2.165 0 0 0 2.158-2.181zm-2.772.97v30.083h-21.2v-30.084z"/><g transform="translate(-160.938 -230.905)"><circle cx="307.93695" cy="263.57672" r="14.2875" fill="gray" stroke-width="0.40055" style="stroke:#333;stroke-width:5.29167;stroke-dasharray:none;stroke-opacity:1;paint-order:stroke markers fill"/><circle cx="307.93695" cy="263.57672" r="5.953125" fill="#333"/><rect width="23.94735" height="2.619242" x="295.96329" y="262.26709" ry="1.309621" style="fill:#666;stroke-width:.393965"/><rect width="23.94735" height="2.619242" x="-275.55038" y="306.62732" ry="1.309621" style="fill:#666;stroke-width:.393965" transform="rotate(-90)"/></g><g transform="translate(-200.811 -230.905)"><circle cx="307.93695" cy="263.57672" r="14.2875" fill="gray" stroke-width="0.40055" style="stroke:#333;stroke-width:5.29167;stroke-dasharray:none;stroke-opacity:1;paint-order:stroke markers fill"/><circle cx="307.93695" cy="263.57672" r="5.953125" fill="#333"/><rect width="23.94735" height="2.619242" x="295.96329" y="262.26709" ry="1.309621" style="fill:#666;stroke-width:.393965"/><rect width="23.94735" height="2.619242" x="-275.55038" y="306.62732" ry="1.309621" style="fill:#666;stroke-width:.393965" transform="rotate(-90)"/></g><g transform="rotate(-90 85.097 98.753)"><circle cx="307.93695" cy="263.57672" r="14.2875" fill="gray" stroke-width="0.40055" style="stroke:#333;stroke-width:5.29167;stroke-dasharray:none;stroke-opacity:1;paint-order:stroke markers fill"/><circle cx="307.93695" cy="263.57672" r="5.953125" fill="#333"/><rect width="23.94735" height="2.619242" x="295.96329" y="262.26709" ry="1.309621" style="fill:#666;stroke-width:.393965"/><rect width="23.94735" height="2.619242" x="-275.55038" y="306.62732" ry="1.309621" style="fill:#666;stroke-width:.393965" transform="rotate(-90)"/></g><g transform="rotate(-90 107.287 120.943)"><circle cx="307.93695" cy="263.57672" r="14.2875" fill="gray" stroke-width="0.40055" style="stroke:#333;stroke-width:5.29167;stroke-dasharray:none;stroke-opacity:1;paint-order:stroke markers fill"/><circle cx="307.93695" cy="263.57672" r="5.953125" fill="#333"/><rect width="23.94735" height="2.619242" x="295.96329" y="262.26709" ry="1.309621" style="fill:#666;stroke-width:.393965"/><rect width="23.94735" height="2.619242" x="-275.55038" y="306.62732" ry="1.309621" style="fill:#666;stroke-width:.393965" transform="rotate(-90)"/></g><g transform="rotate(-90 246.096 13.938)"><circle cx="307.93695" cy="263.57672" r="14.2875" fill="gray" stroke-width="0.40055" style="stroke:#333;stroke-width:5.29167;stroke-dasharray:none;stroke-opacity:1;paint-order:stroke markers fill"/><circle cx="307.93695" cy="263.57672" r="5.953125" fill="#333"/><rect width="23.94735" height="2.619242" x="295.96329" y="262.26709" ry="1.309621" style="fill:#666;stroke-width:.393965"/><rect width="23.94735" height="2.619242" x="-275.55038" y="306.62732" ry="1.309621" style="fill:#666;stroke-width:.393965" transform="rotate(-90)"/></g><g transform="rotate(-15 -549.402 -560.896)"><circle cx="-13.135726" cy="115.82007" r="24.870832" style="fill:#cbcbcd;fill-opacity:1;stroke:#a7a7aa;stroke-width:4.23333;stroke-dasharray:none;stroke-opacity:1;paint-order:stroke fill markers"/><path d="M-38.007 115.82h49.742m-24.871 24.87V90.95" style="fill:#cbcbcd;fill-opacity:1;stroke:#a7a7aa;stroke-width:2.64583;stroke-linecap:square;stroke-dasharray:none;stroke-opacity:1;paint-order:stroke fill markers"/></g><g transform="rotate(-45 -221.982 -192.54)"><circle cx="-13.135726" cy="115.82007" r="24.870832" style="fill:#cbcbcd;fill-opacity:1;stroke:#a7a7aa;stroke-width:4.23333;stroke-dasharray:none;stroke-opacity:1;paint-order:stroke fill markers"/><path d="M-38.007 115.82h49.742m-24.871 24.87V90.95" style="fill:#cbcbcd;fill-opacity:1;stroke:#a7a7aa;stroke-width:2.64583;stroke-linecap:square;stroke-dasharray:none;stroke-opacity:1;paint-order:stroke fill markers"/></g></svg>