<svg xmlns="http://www.w3.org/2000/svg" width="469.10468" height="299.8205" viewBox="0 0 124.11728 79.327505"><g transform="matrix(0 -1 -1 0 241.933 2418.638)"><path d="M2466.68 119.339c-.809 0-1.46.652-1.46 1.46v43.869l17.437-5.813-17.437 17.438v62.56c0 .808.651 1.46 1.46 1.46h26.766c.81 0 1.461-.652 1.461-1.46V120.8c0-.81-.652-1.461-1.46-1.461zm-62.223.009c-.809 0-1.46.651-1.46 1.46v55.101l12.997 5.031 16.69-5.563v-54.568c0-.81-.652-1.461-1.46-1.461zm28.227 79.647c-9.728 1.38-23.168 3.34-29.688 4.536v35.33c0 .809.652 1.46 1.461 1.46h26.766c.81 0 1.46-.651 1.46-1.46zm2.961-79.626c-.809 0-1.46.651-1.46 1.46v54.072l29.687-9.896V120.83c0-.809-.652-1.46-1.461-1.46zm28.227 58.057-20.03 20.03s-4.118.566-9.657 1.349v40.077c0 .81.651 1.46 1.46 1.46h26.766c.81 0 1.46-.65 1.46-1.46z" style="fill:#257636;fill-opacity:1;stroke:#234f27;stroke-width:3.0456;stroke-linecap:square;stroke-linejoin:round;stroke-dasharray:none;stroke-opacity:1;paint-order:fill markers stroke;stop-color:#000"/><rect width="29.687098" height="120.9737" x="2340.9863" y="119.41613" ry="1.4605961" style="fill:#257636;fill-opacity:1;stroke:#234f27;stroke-width:3.0456;stroke-linecap:square;stroke-linejoin:round;stroke-dasharray:none;stroke-opacity:1;paint-order:fill markers stroke;stop-color:#000"/><path d="M2373.635 119.437c-.81 0-1.46.651-1.46 1.46V238.95c0 .81.65 1.46 1.46 1.46h26.766c.81 0 1.46-.65 1.46-1.46v-38.492c-2.12.366-3.822.687-4.753.92l-15.98-35.567 20.734 8.025v-52.938c0-.81-.651-1.46-1.46-1.46z" style="fill:#257636;fill-opacity:1;stroke:#234f27;stroke-width:3.0456;stroke-linecap:square;stroke-linejoin:round;stroke-dasharray:none;stroke-opacity:1;paint-order:fill markers stroke;stop-color:#000"/></g></svg>