<svg xmlns="http://www.w3.org/2000/svg" width="238.01326" height="164.80313" viewBox="0 0 125.9487 87.20832"><g transform="translate(-82.264 -46.352)"><rect width="9.9885378" height="58.911995" x="-208.21231" y="91.294846" ry="2.6860566" style="fill:#333;fill-opacity:1;stroke-width:.970411;stroke-linecap:square;stop-color:#000" transform="scale(-1 1)"/><rect width="53.046921" height="3.7421968" x="-147.27431" y="-206.06198" ry="1.1133809" style="display:inline;fill:#656565;fill-opacity:1;stroke-width:.223198" transform="scale(1 -1)rotate(90)"/><path d="M50.71-195.496h148.138v109.752H50.709z" style="fill:#999;fill-opacity:1;stroke:none;stroke-width:1.95875;stroke-linecap:square;stroke-linejoin:round;stroke-dasharray:none;stroke-opacity:1;paint-order:fill markers stroke;stop-color:#000" transform="rotate(90)"/><path d="M46.352-199.92h9.26v117.508h-9.26z" style="fill:#4a4a4a;fill-opacity:1;stroke:none;stroke-width:2.08922;stroke-linecap:square;stroke-linejoin:round;stroke-dasharray:none;stroke-opacity:1;paint-order:fill markers stroke;stop-color:#000" transform="rotate(90)"/><path d="M193.185-137.31h9.26v54.914h-9.26z" style="fill:#4a4a4a;fill-opacity:1;stroke:none;stroke-width:1.42823;stroke-linecap:square;stroke-linejoin:round;stroke-dasharray:none;stroke-opacity:1;paint-order:fill markers stroke;stop-color:#000" transform="rotate(90)"/><rect width="50.737209" height="4.8086429" x="84.669296" y="195.49237" rx="1.239" ry="1.2394624" style="fill:#737373;fill-opacity:1;stroke:none;stroke-width:6.71799;stroke-linecap:square;stroke-opacity:1;paint-order:normal;stop-color:#000"/><path d="M190.66 54.273h9.26v147.935h-9.26z" style="fill:#4a4a4a;fill-opacity:1;stroke:none;stroke-width:2.34415;stroke-linecap:square;stroke-linejoin:round;stroke-dasharray:none;stroke-opacity:1;paint-order:fill markers stroke;stop-color:#000"/><path d="M82.396 53.605h9.26v141.85h-9.26z" style="fill:#4a4a4a;fill-opacity:1;stroke:none;stroke-width:2.29543;stroke-linecap:square;stroke-linejoin:round;stroke-dasharray:none;stroke-opacity:1;paint-order:fill markers stroke;stop-color:#000"/><rect width="151.69962" height="4.8086429" x="-200.2907" y="84.637451" rx="1.239" ry="1.2394624" style="fill:#737373;fill-opacity:1;stroke:none;stroke-width:11.6163;stroke-linecap:square;stroke-opacity:1;paint-order:normal;stop-color:#000" transform="rotate(-90)"/><rect width="110.88121" height="4.8086429" x="-196.91057" y="-53.401554" rx="1.239" ry="1.2394624" style="fill:#737373;fill-opacity:1;stroke:none;stroke-width:9.9313;stroke-linecap:square;stroke-opacity:1;paint-order:normal;stop-color:#000" transform="scale(-1)"/><rect width="42.691284" height="4.8086429" x="-91.294846" y="192.88597" rx="1.239" ry="1.239" style="fill:#737373;fill-opacity:1;stroke:none;stroke-width:6.16233;stroke-linecap:square;stroke-opacity:1;paint-order:normal;stop-color:#000" transform="rotate(-90)"/><rect width="53.016239" height="4.8086429" x="-200.29192" y="192.93979" rx="1.239" ry="1.2394624" style="fill:#737373;fill-opacity:1;stroke:none;stroke-width:6.8672;stroke-linecap:square;stroke-opacity:1;paint-order:normal;stop-color:#000" transform="rotate(-90)"/><rect width="53.348" height="32.081326" x="137.31093" y="188.26207" rx="2" ry="1.1251793" style="fill:#999;fill-opacity:1;stroke:none;stroke-width:.959754;stroke-linecap:square;stroke-linejoin:bevel;stroke-opacity:.847059"/></g></svg>