<svg xmlns="http://www.w3.org/2000/svg" width="74.564629" height="52.089489" viewBox="0 0 19.728558 13.782011"><g style="stroke:none"><path d="M-2764.927-413.346h14.58v14.581h-14.58z" style="fill:#b48250;fill-opacity:1;stroke:none;stroke-width:.79375;stroke-linecap:round;stroke-linejoin:round;stroke-dasharray:none;stroke-opacity:1" transform="translate(2511.086 375.051)scale(.90702)"/><path d="M-2750.346-412.054h-14.581m7.29-1.271v.84" style="fill:none;stroke:none;stroke-width:.79375;stroke-linecap:round;stroke-linejoin:round;stroke-miterlimit:4;stroke-dasharray:none;stroke-opacity:1;paint-order:normal" transform="translate(2511.086 375.051)scale(.90702)"/></g><path d="M-2760.414-410.535h12.118v1.143h-12.118z" style="fill:#a17445;fill-opacity:1;stroke:none;stroke-width:.663566;stroke-linecap:butt;stroke-linejoin:miter;stroke-dasharray:none;stroke-opacity:1;paint-order:normal" transform="translate(2999.173 445.807)scale(1.0853)"/><path d="M-2759.304-410.428v12.118h-1.175v-12.142z" style="fill:#8f663d;fill-opacity:1;stroke:none;stroke-width:.540358;stroke-linecap:butt;stroke-linejoin:round;stroke-dasharray:none;stroke-opacity:1;paint-order:normal" transform="translate(2999.173 445.807)scale(1.0853)"/><g style="fill:none;stroke-width:.613873;stroke-dasharray:none"><path d="M-2764.927-413.346h14.58v14.581h-14.58z" style="fill:none;fill-opacity:1;stroke:#20170e;stroke-width:.613873;stroke-linecap:round;stroke-linejoin:round;stroke-dasharray:none;stroke-opacity:1" transform="translate(2511.124 375.19)scale(.90702)"/><path d="M-2750.346-411.83h-14.581m7.29-1.495v.84" style="fill:none;stroke:#20170e;stroke-width:.613873;stroke-linecap:round;stroke-linejoin:round;stroke-miterlimit:4;stroke-dasharray:none;stroke-opacity:1;paint-order:normal" transform="translate(2511.124 375.19)scale(.90702)"/></g><path d="m-2754.679-404.242 2.693-2.33 2.827 2.367-1.964.027v3.227h-1.745v-3.25z" style="fill:#8f673d;fill-opacity:1;stroke:#8e663e;stroke-width:.51303;stroke-linecap:round;stroke-linejoin:round;stroke-dasharray:none;stroke-opacity:1" transform="translate(2999.173 445.807)scale(1.0853)"/><path d="m-2753.786-404.5 1.806-1.537 1.747 1.548-1.23.032v3.203h-1.093v-3.217z" style="fill:#6b4d2e;fill-opacity:1;stroke:#20170e;stroke-width:.513191;stroke-linecap:round;stroke-linejoin:round;stroke-dasharray:none;stroke-opacity:1" transform="translate(2999.173 445.807)scale(1.0853)"/><path d="m-2755.117-410.499 1.646-.005v3.25l-.454-.434-.235.518-.426-.369-.538.286v-1.006z" style="fill:#b2b2b2;fill-opacity:1;stroke:#171717;stroke-width:.51303;stroke-linecap:round;stroke-linejoin:miter;stroke-dasharray:none;stroke-opacity:1" transform="translate(2999.173 445.807)scale(1.0853)"/><path d="m-2747.24-407.397.676.835-.676.889.666 1.081-.66.533.182.942 1.532-1.3-.836-1.22.831-.938-.748-.84.752-1.174-1.326-1.522-.393.87.693.797zm-14.225 4.297-.675.835.675.889-.665 1.081.66.533-.183.942-1.532-1.3.837-1.22-.832-.938.749-.84-.752-1.174 1.326-1.522.392.87-.693.797z" style="fill:#b2b2b2;fill-opacity:1;stroke:#171717;stroke-width:.51303;stroke-linecap:butt;stroke-linejoin:round;stroke-dasharray:none;stroke-opacity:1;paint-order:normal" transform="translate(2999.173 445.807)scale(1.0853)"/></svg>