<svg xmlns="http://www.w3.org/2000/svg" width="50.137135" height="83.748024" viewBox="0 0 13.26545 22.158331"><g transform="translate(2565.974 417.5)scale(.9306)"><path d="m-2756-428.927 1.223 1.788 2.145-3.518 1.822 5.265 2.364-6.037 2.964 5.083 1.643-3.306-.865-3.858-11.95 1.146" style="fill:gray;fill-opacity:1;stroke:#171717;stroke-width:.79375;stroke-linecap:round;stroke-linejoin:round;stroke-dasharray:none;stroke-opacity:1"/><path d="M-2756.93-427.29v-12.237c.299-10.876 13.296-11.078 13.46 0v12.304l-3.109-3.639-2.017 5.59-1.885-4.663-1.62 2.976-2.468-4.102z" style="fill:#b2b2b2;fill-opacity:1;stroke:none;stroke-width:.79375;stroke-linecap:round;stroke-linejoin:miter;stroke-dasharray:none;stroke-opacity:1"/><path d="m-2756.798-427.32 2.282-3.672-.066-11.211c.72-2.279 2.086-4.337 4.365-6.086-6.303 1.332-5.993 4.89-6.515 8.17z" style="fill:#999;fill-opacity:1;stroke:none;stroke-width:.79375;stroke-linecap:round;stroke-linejoin:miter;stroke-dasharray:none;stroke-opacity:1"/><path d="M-2756.911-427.234V-440c.299-10.877 13.297-11.078 13.46 0v12.832l-3.109-3.638-2.017 5.59-1.885-4.664-1.901 2.673-2.186-3.798z" style="fill:none;fill-opacity:1;stroke:#171717;stroke-width:.794;stroke-linecap:round;stroke-linejoin:round;stroke-dasharray:none;stroke-opacity:1"/><ellipse cx="-2747.4988" cy="-440.81802" rx="1.6370258" ry="2.9599426" style="fill:#94876c;fill-opacity:1;stroke:#171717;stroke-width:.79375;stroke-linecap:round;stroke-linejoin:round;stroke-dasharray:none;stroke-opacity:1"/><ellipse cx="-2747.5349" cy="-440.88571" rx="0.60803819" ry="1.0773628" style="fill:#171717;fill-opacity:1;stroke:none;stroke-width:.79375;stroke-linecap:round;stroke-linejoin:round;stroke-dasharray:none;stroke-opacity:1"/><ellipse cx="-2752.8845" cy="-440.66568" rx="1.6370258" ry="2.9599426" style="fill:#94876c;fill-opacity:1;stroke:#171717;stroke-width:.79375;stroke-linecap:round;stroke-linejoin:round;stroke-dasharray:none;stroke-opacity:1"/><ellipse cx="-2752.916" cy="-440.86145" rx="0.60803819" ry="1.0773628" style="fill:#171717;fill-opacity:1;stroke:none;stroke-width:.79375;stroke-linecap:round;stroke-linejoin:round;stroke-dasharray:none;stroke-opacity:1"/></g></svg>