<svg xmlns="http://www.w3.org/2000/svg" width="50.560703" height="74.089989" viewBox="0 0 13.377519 19.602976"><path d="M-2718.748-407.113h9.622c1.295-.069 1.603-.446 1.659-1.627v-12.53c-.046-1.967.102-2.667-2.208-2.698l-1.562-.008v-2.12h-6.42v2.123h-1.685c-1.606-.05-2.07.837-2.053 2.053v13.164c.036 1.493.67 1.634 2.647 1.643" style="fill:#537953;fill-opacity:1;stroke:none;stroke-width:.79375;stroke-linecap:round;stroke-linejoin:miter;stroke-dasharray:none;stroke-opacity:1;paint-order:normal" transform="translate(2473.188 389.08)scale(.90867)"/><path d="M-2721.051-422.376c4.712-.685 9.109-.478 13.41 0l-.356-1.327h-12.886z" style="fill:#486a48;fill-opacity:1;stroke:none;stroke-width:.79375;stroke-linecap:butt;stroke-linejoin:round;stroke-dasharray:none;stroke-opacity:1;paint-order:normal" transform="translate(2473.188 389.08)scale(.90867)"/><path d="M-2718.028-423.474h7.08v-1.395h-6.847z" style="fill:#344c34;fill-opacity:1;stroke:none;stroke-width:.79375;stroke-linecap:butt;stroke-linejoin:round;stroke-dasharray:none;stroke-opacity:1;paint-order:normal" transform="translate(2473.188 389.08)scale(.90867)"/><path d="M-2718.444-407.286c-.936-.401-1.758-.852-1.686-1.685v-13.094c-.01-.874.552-1.265 1.008-1.745h-1.777l-.43 1.604v14.39l1.446.836z" style="fill:#3e5b3e;fill-opacity:1;stroke:none;stroke-width:.79375;stroke-linecap:butt;stroke-linejoin:round;stroke-dasharray:none;stroke-opacity:1;paint-order:normal" transform="translate(2473.188 389.08)scale(.90867)"/><path d="M-2710.27-407.096c.935-.402 1.758-.852 1.685-1.686v-13.093c.01-.874-.551-1.266-1.007-1.746h1.776l.43 1.604v14.391l-1.446.835z" style="fill:#679867;fill-opacity:1;stroke:none;stroke-width:.79375;stroke-linecap:butt;stroke-linejoin:round;stroke-dasharray:none;stroke-opacity:1;paint-order:normal" transform="translate(2473.188 389.08)scale(.90867)"/><path d="M-2718.731-407.01h9.622c1.295-.07 1.603-.446 1.659-1.628v-12.53c-.046-1.966.101-2.666-2.208-2.697l-1.563-.008v-2.12h-6.42v2.122h-1.684c-1.606-.05-2.07.838-2.053 2.053v13.165c.036 1.492.669 1.633 2.647 1.642z" style="fill:none;fill-opacity:1;stroke:#121c12;stroke-width:.79375;stroke-linecap:round;stroke-linejoin:miter;stroke-dasharray:none;stroke-opacity:1;paint-order:normal" transform="translate(2473.188 389.08)scale(.90867)"/><path d="M-2719.76-424.787h10.62v-2.416c-.01-.301-.276-.552-.71-.53h-9.186c-.38-.003-.721.2-.724.53z" style="fill:#ccc;fill-opacity:1;stroke:none;stroke-width:.79375;stroke-linecap:round;stroke-linejoin:miter;stroke-dasharray:none;stroke-opacity:1;paint-order:normal" transform="translate(2473.188 389.08)scale(.90867)"/><path d="M-2718.576-427.647v2.771h.71v-2.719zm1.456-.083v2.77h.712v-2.719zm1.504.128v2.77h.711v-2.719zm1.486-.238v2.77h.711v-2.72zm1.504.128v2.77h.711v-2.719zm1.492.194v2.77h.71v-2.719z" style="fill:#999;fill-opacity:1;stroke:none;stroke-width:.79375;stroke-linecap:round;stroke-linejoin:miter;stroke-dasharray:none;stroke-opacity:1;paint-order:normal" transform="translate(2473.188 389.08)scale(.90867)"/><path d="M-2719.465-426.984h10.076v-.585h-10.222z" style="fill:#999;fill-opacity:1;stroke:none;stroke-width:.79375;stroke-linecap:round;stroke-linejoin:miter;stroke-dasharray:none;stroke-opacity:1;paint-order:normal" transform="translate(2473.188 389.08)scale(.90867)"/><path d="M-2719.798-424.843h10.62v-2.365c-.01-.301-.276-.604-.71-.58h-9.186c-.38-.005-.721.25-.724.58z" style="fill:none;fill-opacity:1;stroke:#171717;stroke-width:.79375;stroke-linecap:round;stroke-linejoin:miter;stroke-dasharray:none;stroke-opacity:1;paint-order:normal" transform="translate(2473.188 389.08)scale(.90867)"/><g transform="translate(2473.935 389.228)scale(.90867)"><path d="M-2716.823-415.422h3.323v-1.1c2.486-.361 2.077-5.04-1.575-5.024s-4.434 4.408-1.746 4.95z" style="fill:#b2b2b2;fill-opacity:1;stroke:none;stroke-width:.79375;stroke-linecap:round;stroke-linejoin:miter;stroke-dasharray:none;stroke-opacity:1;paint-order:normal"/><path d="M-2716.696-416.838h2.969v1.516h-3.06z" style="fill:#999;fill-opacity:1;stroke:none;stroke-width:.79375;stroke-linecap:butt;stroke-linejoin:round;stroke-dasharray:none;stroke-opacity:1;paint-order:normal"/><path d="M-2716.895-415.392h3.322v-1.1c2.486-.361 2.005-5.36-1.647-5.343-3.653.016-4.361 4.777-1.674 5.318z" style="fill:none;fill-opacity:1;stroke:#171717;stroke-width:.79375;stroke-linecap:round;stroke-linejoin:miter;stroke-dasharray:none;stroke-opacity:1;paint-order:normal"/><path d="M-2714.626-416.835v1.323m-1.154-1.326v1.323" style="fill:gray;fill-opacity:1;stroke:#171717;stroke-width:.79375;stroke-linecap:butt;stroke-linejoin:miter;stroke-dasharray:none;stroke-opacity:1;paint-order:normal"/><circle cx="-2716.3423" cy="-419.41333" r="0.60498881" style="fill:#b2b2b2;fill-opacity:1;stroke:#171717;stroke-width:.79375;stroke-linecap:butt;stroke-linejoin:miter;stroke-dasharray:none;stroke-opacity:1;paint-order:normal"/><circle cx="-2714.1082" cy="-419.44498" r="0.60498881" style="fill:#b2b2b2;fill-opacity:1;stroke:#171717;stroke-width:.79375;stroke-linecap:butt;stroke-linejoin:miter;stroke-dasharray:none;stroke-opacity:1;paint-order:normal"/><path d="M-2715.468-417.515h.431l-.22-.38z" style="fill:#171717;fill-opacity:1;stroke:#171717;stroke-width:.79375;stroke-linecap:butt;stroke-linejoin:round;stroke-dasharray:none;stroke-opacity:1;paint-order:normal"/></g><path d="m-2716.728-413.632 5.197 3.001s2.121-.392 1.087 1.291c-1.034 1.684-1.623-.296-1.623-.296l-5.253-3.032s-2.046.454-1.065-1.254c.985-1.706 1.657.29 1.657.29z" style="fill:#999;fill-opacity:1;stroke:#171717;stroke-width:.79375;stroke-linecap:butt;stroke-linejoin:round;stroke-dasharray:none;stroke-opacity:1;paint-order:normal" transform="translate(2473.18 388.897)scale(.90867)"/><path d="m-2717.284-410.596 5.197-3.001s.72-2.033 1.661-.296c.941 1.738-1.067 1.258-1.067 1.258l-5.253 3.033s-.63 1.999-1.619.295c-.984-1.705 1.08-1.29 1.08-1.29z" style="fill:#999;fill-opacity:1;stroke:#171717;stroke-width:.79375;stroke-linecap:butt;stroke-linejoin:round;stroke-dasharray:none;stroke-opacity:1;paint-order:normal" transform="translate(2473.18 388.897)scale(.90867)"/></svg>