<svg xmlns="http://www.w3.org/2000/svg" width="57.395256" height="76.721825" viewBox="0 0 15.185829 20.299318"><path d="M-2776.294-427.74h15.2v11.806c-.022 8.353-15.38 7.921-15.273 0z" style="fill:#52527a;fill-opacity:1;stroke:none;stroke-width:.79375;stroke-linecap:butt;stroke-linejoin:round;stroke-dasharray:none;stroke-opacity:1;paint-order:normal" transform="translate(2431.507 377.644)scale(.87568)"/><path d="M-2775.96-426.13c4.597.732 9.595.785 15.089 0v-1.704c-5.184-.746-10.335-1.132-15.348 0z" style="fill:#3d3d5c;fill-opacity:1;stroke:none;stroke-width:.79375;stroke-linecap:butt;stroke-linejoin:round;stroke-dasharray:none;stroke-opacity:1;paint-order:normal" transform="translate(2431.507 377.644)scale(.87568)"/><path d="m-2774.34-425.814-.037 9.464c-.06 4.018 3.684 6.053 6.305 6.034l-2.03.214-3.435-1.132-2.229-1.974-.658-2.758v-10.195z" style="fill:#3d3d5c;fill-opacity:1;stroke:none;stroke-width:.793999;stroke-linecap:round;stroke-linejoin:round;stroke-dasharray:none;stroke-opacity:1;paint-order:normal" transform="translate(2431.507 377.644)scale(.87568)"/><path d="M-2776-427.02q7.3 1.136 15.013 0v.865l-7.48.569-7.662-.595z" style="fill:#33334d;fill-opacity:1;stroke:none;stroke-width:.793999;stroke-linecap:round;stroke-linejoin:round;stroke-dasharray:none;stroke-opacity:1;paint-order:normal" transform="translate(2431.507 377.644)scale(.87568)"/><path d="M-2776.234-427.85c5.128-1.32 10.176-.9 15.201 0v11.807c-.023 8.353-15.38 7.921-15.274 0z" style="fill:none;fill-opacity:1;stroke:#12121c;stroke-width:.79375;stroke-linecap:butt;stroke-linejoin:round;stroke-dasharray:none;stroke-opacity:1;paint-order:normal" transform="translate(2431.507 377.644)scale(.87568)"/><g transform="rotate(132.672 -1287.142 355.526)scale(.87568)"><path d="M-2772.142-413.61h7.816v5.372h-7.82z" style="fill:#2a52a2;fill-opacity:1;stroke:#0e1420;stroke-width:.793999;stroke-linecap:round;stroke-linejoin:round;stroke-dasharray:none;stroke-opacity:1;paint-order:normal"/><circle cx="-2771.063" cy="-412.56125" r="0.44762427" style="fill:#0e1420;fill-opacity:1;stroke:none;stroke-width:.793999;stroke-linecap:round;stroke-linejoin:round;stroke-dasharray:none;stroke-opacity:1;paint-order:normal"/><circle cx="-2765.3833" cy="-412.5643" r="0.44762427" style="fill:#0e1420;fill-opacity:1;stroke:none;stroke-width:.793999;stroke-linecap:round;stroke-linejoin:round;stroke-dasharray:none;stroke-opacity:1;paint-order:normal"/><circle cx="-2771.0889" cy="-409.26691" r="0.44762427" style="fill:#0e1420;fill-opacity:1;stroke:none;stroke-width:.793999;stroke-linecap:round;stroke-linejoin:round;stroke-dasharray:none;stroke-opacity:1;paint-order:normal"/><circle cx="-2765.4478" cy="-409.25711" r="0.44762427" style="fill:#0e1420;fill-opacity:1;stroke:none;stroke-width:.793999;stroke-linecap:round;stroke-linejoin:round;stroke-dasharray:none;stroke-opacity:1;paint-order:normal"/><rect width="4.5733643" height="2.157491" x="-2770.5225" y="-412.00253" ry="0.71306908" style="fill:#1e3d7b;fill-opacity:1;stroke:none;stroke-width:.944576;stroke-linecap:round;stroke-linejoin:round;stroke-dasharray:none;stroke-opacity:1;paint-order:normal"/></g><g transform="rotate(55.239 -1559.173 2144.204)scale(.87568)"><path d="M-2772.142-413.61h7.816v5.372h-7.82z" style="fill:#337833;fill-opacity:1;stroke:#0e200e;stroke-width:.793999;stroke-linecap:round;stroke-linejoin:round;stroke-dasharray:none;stroke-opacity:1;paint-order:normal"/><circle cx="-2771.063" cy="-412.56125" r="0.44762427" style="fill:#0e200e;fill-opacity:1;stroke:none;stroke-width:.793999;stroke-linecap:round;stroke-linejoin:round;stroke-dasharray:none;stroke-opacity:1;paint-order:normal"/><circle cx="-2765.3833" cy="-412.5643" r="0.44762427" style="fill:#0e200e;fill-opacity:1;stroke:none;stroke-width:.793999;stroke-linecap:round;stroke-linejoin:round;stroke-dasharray:none;stroke-opacity:1;paint-order:normal"/><circle cx="-2771.0889" cy="-409.26691" r="0.44762427" style="fill:#0e200e;fill-opacity:1;stroke:none;stroke-width:.793999;stroke-linecap:round;stroke-linejoin:round;stroke-dasharray:none;stroke-opacity:1;paint-order:normal"/><circle cx="-2765.4478" cy="-409.25711" r="0.44762427" style="fill:#0e200e;fill-opacity:1;stroke:none;stroke-width:.793999;stroke-linecap:round;stroke-linejoin:round;stroke-dasharray:none;stroke-opacity:1;paint-order:normal"/><rect width="4.5733643" height="2.157491" x="-2770.5225" y="-412.00253" ry="0.71306908" style="fill:#265a26;fill-opacity:1;stroke:none;stroke-width:.944576;stroke-linecap:round;stroke-linejoin:round;stroke-dasharray:none;stroke-opacity:1;paint-order:normal"/></g><path d="M-2774.614-425.869c4.381.874 8.763.417 13.145-.119l-.475 4.175-11.879 2.28z" style="fill:#52527a;fill-opacity:1;stroke:none;stroke-width:.79375;stroke-linecap:round;stroke-linejoin:round;stroke-dasharray:none;stroke-opacity:1;paint-order:normal" transform="translate(2431.507 377.644)scale(.87568)"/><path d="m-2772.64-424.164 1.782.165m5.972-.122-1.782.164m-3.023.048 1.909.01" style="fill:#3d3d5c;fill-opacity:1;stroke:#12121c;stroke-width:.794;stroke-linecap:round;stroke-linejoin:round;stroke-dasharray:none;stroke-opacity:1;paint-order:normal" transform="translate(2431.507 377.644)scale(.87568)"/><g transform="rotate(49.55 -1613.603 2465.847)scale(.87568)"><path d="M-2772.142-413.61h7.816v5.372h-7.82z" style="fill:#7a1f1f;fill-opacity:1;stroke:#200e0e;stroke-width:.793999;stroke-linecap:round;stroke-linejoin:round;stroke-dasharray:none;stroke-opacity:1;paint-order:normal"/><circle cx="-2771.063" cy="-412.56125" r="0.44762427" style="fill:#200e0e;fill-opacity:1;stroke:none;stroke-width:.793999;stroke-linecap:round;stroke-linejoin:round;stroke-dasharray:none;stroke-opacity:1;paint-order:normal"/><circle cx="-2765.3833" cy="-412.5643" r="0.44762427" style="fill:#200e0e;fill-opacity:1;stroke:none;stroke-width:.793999;stroke-linecap:round;stroke-linejoin:round;stroke-dasharray:none;stroke-opacity:1;paint-order:normal"/><circle cx="-2771.0889" cy="-409.26691" r="0.44762427" style="fill:#200e0e;fill-opacity:1;stroke:none;stroke-width:.793999;stroke-linecap:round;stroke-linejoin:round;stroke-dasharray:none;stroke-opacity:1;paint-order:normal"/><circle cx="-2765.4478" cy="-409.25711" r="0.44762427" style="fill:#200e0e;fill-opacity:1;stroke:none;stroke-width:.793999;stroke-linecap:round;stroke-linejoin:round;stroke-dasharray:none;stroke-opacity:1;paint-order:normal"/><rect width="4.5733643" height="2.157491" x="-2770.5225" y="-412.00253" ry="0.71306908" style="fill:#511515;fill-opacity:1;stroke:none;stroke-width:.944576;stroke-linecap:round;stroke-linejoin:round;stroke-dasharray:none;stroke-opacity:1;paint-order:normal"/></g><path d="m-2766.907-411.471-.19-2.467 1.666-.44-.323-1.243.759-.775 1.251-.027 1.692 1.019.4-4.692-9.345-.146 1.535 8.003z" style="fill:#52527a;fill-opacity:1;stroke:none;stroke-width:.793999;stroke-linecap:round;stroke-linejoin:round;stroke-dasharray:none;stroke-opacity:1;paint-order:normal" transform="translate(2431.507 377.644)scale(.87568)"/><path d="M-2766.19-410.23c.298-.302-.796-1.504-1.077-2.16.014-.917-.11-.933.253-1.744l1.632-.15-.392-1.079.3-.971c1.09-.01 1.817.013 2.181.295.835-.242.961.827 2.058 1.538" style="fill:none;fill-opacity:1;stroke:#12121c;stroke-width:.793999;stroke-linecap:round;stroke-linejoin:round;stroke-dasharray:none;stroke-opacity:1;paint-order:normal" transform="translate(2431.507 377.644)scale(.87568)"/><path d="m-2775.71-425.951 1.36-.018-.01 3.197-1.388-.75z" style="fill:#3d3d5c;fill-opacity:1;stroke:none;stroke-width:.79375;stroke-linecap:round;stroke-linejoin:round;stroke-dasharray:none;stroke-opacity:1;paint-order:normal" transform="translate(2431.507 377.644)scale(.87568)"/><path d="M-2776.27-426.18c5.118 1.138 10.557.947 15.54-.04" style="fill:none;fill-opacity:1;stroke:#12121c;stroke-width:.79375;stroke-linecap:butt;stroke-linejoin:round;stroke-dasharray:none;stroke-opacity:1;paint-order:normal" transform="translate(2431.507 377.644)scale(.87568)"/><path d="m-2775.238-424.572 1.534.229m11.59-.196-1.534.229" style="fill:#3d3d5c;fill-opacity:1;stroke:#12121c;stroke-width:.794;stroke-linecap:round;stroke-linejoin:round;stroke-dasharray:none;stroke-opacity:1;paint-order:normal" transform="translate(2431.507 377.644)scale(.87568)"/><g transform="rotate(-11.553 642.193 -12280.943)scale(.87568)"><rect width="4.1389909" height="4.1389909" x="-2792.9048" y="-419.58652" ry="0.69577867" style="fill:#3d3d5c;fill-opacity:1;stroke:none;stroke-width:1.09612;stroke-linecap:round;stroke-linejoin:round;stroke-dasharray:none;stroke-opacity:1;paint-order:normal"/><path d="M-2793.016-418.372h.658m-.645 1.625h.659m3.072-1.615h.658m-.645 1.625h.659m-1.383-3.003v.66m-1.625-.646v.658m1.628 2.954v.659m-1.625-.645v.658" style="fill:#669;fill-opacity:1;stroke:#28283e;stroke-width:.79375;stroke-linecap:round;stroke-linejoin:round;stroke-dasharray:none;stroke-opacity:1;paint-order:normal"/></g></svg>