<svg xmlns="http://www.w3.org/2000/svg" width="20" height="82" fill="none" viewBox="0 0 20 82"><path fill="#E1954F" d="M1.018 78.86v1.255l.778.501h15.462l.778-.5v-1.257zm0-2.5.717-56.382L3.6 15.35V1.764h11.854V15.35l1.865 4.628.717 56.383-.782 1.666H1.734z"/><path fill="#DA7C25" stroke="#57320F" stroke-miterlimit="3.99393" stroke-width="0.999999" d="M2.328 78.86v-.833h14.394v.833z"/><path stroke="#57320F" stroke-miterlimit="3.99393" stroke-width="2" d="m17.319 19.978.717 56.382-.782 1.667h-.53v.832h1.312v1.257l-.778.5H1.796l-.778-.5v-1.257H2.33v-.832h-.595l-.717-1.667.717-56.382m15.584 0-1.865-4.628m1.865 4.627H1.735m13.719-4.627V1.764H3.6V15.35m11.854 0H3.6m0 0-1.865 4.627"/></svg>