<svg xmlns="http://www.w3.org/2000/svg" width="16" height="61" fill="none" viewBox="0 0 16 61"><path fill="#D7981E" fill-rule="evenodd" d="M1.758 59.2v-.85H14.2v.85l-.417.416H2.174zm11.854-1.6.58-.584-.455-43.15-1.817-4.992V1.949H4.037v6.925L2.22 13.866l-.454 43.15.58.584z" clip-rule="evenodd"/><path fill="#AA7818" d="M13.612 58.35v-.75H2.345v.75z"/><path stroke="#5A3F0C" stroke-miterlimit="3.99393" stroke-width="2" d="M13.612 58.35h.588v.85l-.417.416H2.174l-.416-.416v-.85h.587m11.267 0v-.75m0 .75H2.345m11.267-.75.58-.584-.455-43.15-1.817-4.992V1.949H4.037v6.925L2.22 13.866l-.454 43.15.58.584m11.266 0H2.345m0 0v.75"/></svg>