<svg xmlns="http://www.w3.org/2000/svg" width="22" height="61" fill="none" viewBox="0 0 22 61"><path fill="navy" d="M2.822 53.5V7.675H19.69V53.5z"/><path fill="#000075" d="M2.822 7.674V1.199H19.69v6.475z"/><path stroke="#006" stroke-miterlimit="3.99393" stroke-width="2" d="M2.822 53.5H19.69V1.2H2.822z"/><path fill="#990" d="M1.88 59.24c0 .21.17.38.38.38h17.993c.21 0 .379-.17.379-.379v-.767a.38.38 0 0 0-.38-.38h-.433V46.74H2.694v11.356H2.26a.38.38 0 0 0-.38.38z"/><path fill="#660" d="M19.819 58.095h-1v1h1zm0-11.356h1v-1h-1zm-17.125 0v-1h-1v1zm0 11.356v1h1v-1zm-.434.525a.62.62 0 0 1 .62.62h-2c0 .763.618 1.38 1.38 1.38zm17.993 0H2.26v2h17.993zm-.621.621a.62.62 0 0 1 .62-.62v2a1.38 1.38 0 0 0 1.38-1.38zm0-.767v.767h2v-.767zm.62.62a.62.62 0 0 1-.62-.62h2a1.38 1.38 0 0 0-1.38-1.38zm-.433 0h.434v-2h-.434zm-1-12.355v11.356h2V46.739zm-16.125 1h17.125v-2H2.694zm1 10.356V46.739h-2v11.356zm-1.434 1h.434v-2H2.26zm.62-.62a.62.62 0 0 1-.62.62v-2a1.38 1.38 0 0 0-1.38 1.38zm0 .766v-.767h-2v.767z"/></svg>