<svg xmlns="http://www.w3.org/2000/svg" width="13" height="56" fill="none" viewBox="0 0 13 56"><path fill="#B57921" d="m1.545 51.983.317-38.61 1.07-3.393V1.822h7.193V9.98l1.07 3.392.317 38.61-.431.9H1.976zm-.021 1.599v.717l.452.317h9.105l.452-.317v-.717z"/><path fill="#97651C" stroke="#563A10" stroke-miterlimit="3.99393" stroke-width="0.999999" d="M2.2 53.583v-.7h8.659v.7z"/><path stroke="#563A10" stroke-miterlimit="3.99393" stroke-width="2" d="m1.862 13.372-.317 38.61.431.9H2.2v.7h-.675v.717l.452.317h9.105l.452-.317v-.717h-.675v-.7h.223l.431-.9-.316-38.61m-9.334 0 1.07-3.392m-1.07 3.392h9.334M2.933 9.98V1.82h7.192v8.16m-7.192 0h7.192m0 0 1.07 3.392"/></svg>