<svg xmlns="http://www.w3.org/2000/svg" width="13" height="46" fill="none" viewBox="0 0 13 46"><path fill="#B57921" d="m1.033 41.408.18-29.81L2.38 8.381V1.964h7.271V8.38l1.17 3.217.178 29.81-.21.901H1.244zm-.021 2.065v.761l.381.382h9.25l.381-.382v-.761z"/><path fill="#97651C" stroke="#563A10" stroke-miterlimit="3.99393" stroke-width="0.999999" d="M1.688 43.474v-1.165h8.658v1.165z"/><path stroke="#563A10" stroke-miterlimit="3.99393" stroke-width="2" d="m1.213 11.598-.179 29.81.21.9h.445v1.165h-.677v.761l.381.382h9.25l.381-.382v-.761h-.677v-1.164h.445l.21-.901-.18-29.81m-9.609 0 1.17-3.217m-1.17 3.217h9.61M2.382 8.38V1.963h7.27v6.418m-7.27 0h7.27m0 0 1.17 3.217"/></svg>