<svg xmlns="http://www.w3.org/2000/svg" width="11" height="40" fill="none" viewBox="0 0 11 40"><path fill="#C9A229" d="M1.515 37.667v.575l.537.375h6.926l.537-.375v-.575zm.008-1.657.242-27.826 1.071-2.526V1.366h5.359v4.292l1.07 2.526.242 27.826-.253 1.025H1.777z"/><path fill="#9D7E20" stroke="#541" stroke-miterlimit="3.99393" stroke-width="0.999999" d="M2.003 37.667v-.633h7.025v.633z"/><path stroke="#541" stroke-miterlimit="3.99393" stroke-width="2" d="m9.265 8.182.242 27.826-.254 1.025h-.225v.634h.487v.575l-.537.375H2.052l-.537-.375v-.575h.487v-.634h-.225l-.254-1.025.242-27.826m7.5 0-1.07-2.526m1.07 2.526h-7.5m6.43-2.526V1.365h-5.36v4.291m5.36 0h-5.36m0 0-1.07 2.526"/></svg>