<svg xmlns="http://www.w3.org/2000/svg" width="12" height="35" fill="none" viewBox="0 0 12 35"><path fill="#B57921" d="m1.29 30.95.532-22.751.613-2.084v-4.75h7.167v4.75l.612 2.084.534 22.75-.208.584H1.497zm0 2.458v-1.041h9.458v1.041l-.208.209H1.497z"/><path fill="#97651C" stroke="#563A10" stroke-miterlimit="3.99393" stroke-width="0.999999" d="M2.035 32.367v-.834h7.967v.834z"/><path stroke="#563A10" stroke-miterlimit="3.99393" stroke-width="2" d="m1.822 8.199-.533 22.75.208.584h.538v.834h-.746v1.041l.208.209h9.043l.208-.209v-1.041h-.746v-.834h.538l.208-.583-.534-22.751m-8.392 0 .613-2.084M1.822 8.2h8.393m-7.78-2.084v-4.75h7.167v4.75m-7.167 0h7.167m0 0 .612 2.084"/></svg>