<svg xmlns="http://www.w3.org/2000/svg" width="12" height="35" fill="none" viewBox="0 0 12 35"><path fill="#E1B54F" d="m1.296 30.617.367-22.418.362-2.083v-4.75h8v4.75l.363 2.083.367 22.418-.542.917H1.837zm0 2.791v-1.041h9.459v1.041l-.209.209H1.504z"/><path fill="#DAA325" d="M2.042 32.367v-.834h7.967v.834z"/><path fill="#DAA325" stroke="#57410F" stroke-miterlimit="3.99393" stroke-width="0.999999" d="M2.042 32.367v-.834h7.967v.834z"/><path stroke="#57410F" stroke-miterlimit="3.99393" stroke-width="2" d="m10.388 8.199.367 22.417-.542.917h-.204v.834h.746v1.041l-.209.209H1.504l-.208-.209v-1.041h.746v-.834h-.205l-.541-.917L1.663 8.2m8.725 0-.363-2.084m.363 2.084H1.663m8.362-2.084v-4.75h-8v4.75m8 0h-8m0 0L1.663 8.2"/></svg>