<svg xmlns="http://www.w3.org/2000/svg" width="21" height="30" fill="none" viewBox="0 0 21 30"><path fill="#8B8C8E" stroke="#383838" stroke-linecap="round" stroke-miterlimit="3.99393" d="M9.78.779H4.844v7.299H9.78zm6.518 0h-2.16v7.87h2.16z"/><path fill="#BC8052" stroke="#5C3B24" stroke-linecap="round" stroke-miterlimit="3.99393" stroke-width="2" d="M2.007 4.856v7.8c0 .837.678 1.515 1.515 1.515h14.097c.837 0 1.515-.678 1.515-1.514v-7.8c0-.837-.678-1.515-1.515-1.515H3.522c-.837 0-1.515.678-1.515 1.514Z"/><path fill="#4D4D4D" stroke="#2E2E2E" stroke-linecap="round" stroke-miterlimit="3.99393" stroke-width="2" d="M1.973 12.685v14.416c0 .837.678 1.515 1.514 1.515h14.167c.836 0 1.514-.678 1.514-1.515V12.685c0-.837-.678-1.515-1.514-1.515H3.487c-.836 0-1.514.678-1.514 1.515Z"/><path fill="#B89C47" stroke="#433A1A" stroke-linecap="round" stroke-miterlimit="3.99393" d="m8.708 27.073 5.26-11.43-3.475.918s1.329-3.849 1.375-3.849H8.794L7.171 19.58l2.812-.774z"/></svg>