<svg xmlns="http://www.w3.org/2000/svg" width="13" height="22" fill="none" viewBox="0 0 13 22"><path fill="#576775" stroke="#3C4852" stroke-miterlimit="3.99393" d="M3.927 3.115V1.364a.75.75 0 0 1 .75-.75h2.866a.75.75 0 0 1 .75.75v1.751z"/><rect width="17.501" height="10.0006" x="1.10938" y="20.6162" fill="#6C8193" rx="1.25" transform="rotate(-90 1.11 20.616)"/><path fill="#414E58" d="M4.61 19.616V4.115h3v15.5z"/><path stroke="#B9B946" stroke-miterlimit="3.99393" stroke-width="0.1" d="m3.314 18.942.878.91-.468-.91.245-.265-.85-.915.44.915z"/><path fill="#B9B946" d="m3.314 5.06.878.91-.468-.91.245-.265-.85-.914.44.914z"/><rect width="17.501" height="10.0006" x="1.10938" y="20.6162" stroke="#3C4852" stroke-miterlimit="3.99393" stroke-width="2" rx="1.25" transform="rotate(-90 1.11 20.616)"/></svg>