<svg xmlns="http://www.w3.org/2000/svg" width="286" height="286" viewBox="0 0 75.670833 75.670833"><defs><clipPath id="a" clipPathUnits="userSpaceOnUse"><path d="M28.27 28.27H47.4V47.4H28.27zm12.134 7.768a.547.547 0 0 0-.773-.773l-1.796 1.798-1.797-1.796a.547.547 0 0 0-.773.772l1.798 1.796-1.796 1.798a.547.547 0 0 0 .772.773l1.796-1.798 1.798 1.796a.547.547 0 0 0 .773-.773l-1.798-1.796z" class="powerclip" style="stroke-width:.0170554"/></clipPath></defs><path d="M42.4 37.835a4.565 4.564 0 0 1-4.565 4.565 4.565 4.564 0 0 1-4.565-4.565 4.565 4.564 0 0 1 4.565-4.564 4.565 4.564 0 0 1 4.566 4.564z" clip-path="url(#a)" style="opacity:1;fill:none;fill-opacity:.458824;stroke:#ff7500;stroke-width:1.32291666;stroke-dasharray:none;stroke-opacity:1;paint-order:stroke fill markers"/></svg>