<svg xmlns="http://www.w3.org/2000/svg" width="72" height="49.846001" viewBox="0 0 19.05 13.188422"><rect width="18.338188" height="12.47665" x="0.35590601" y="0.35590601" rx="1.0990384" ry="1.0990384" style="fill:#cc2424;fill-opacity:1;stroke:#7a1616;stroke-width:.711811;stroke-linecap:round;stroke-linejoin:round;stroke-miterlimit:10;stroke-opacity:1"/><g style="font-size:7.96888px;line-height:1.25;font-family:Jura;-inkscape-font-specification:Jura;letter-spacing:0;word-spacing:0;fill:#661212;stroke-width:.199221"><path d="M4.246 9.343V5l-.917.32-.398-.917 1.474-.638H5.68v5.578zm6.374-3.825q0 .678-.573 1.172-.175.151-.383.303L7.951 8.228h2.67v1.115H6.318V7.83l2.868-2.072V5.36q0-.478-.478-.478H6.477V3.765h2.55q.837 0 1.211.383.383.374.383 1.211zm5.5 3.706q-1.865.2-3.427.2-.781 0-1.148-.367t-.366-1.148V5.36q0-.837.374-1.211.383-.383 1.22-.383h2.868v1.116h-2.55q-.478 0-.478.478v2.55q0 .183.104.295.111.104.294.104.917 0 1.674-.04V7.112h-1.036v-.956h2.47z" aria-label="12G" style="font-family:&quot;Russo One&quot;;-inkscape-font-specification:&quot;Russo One&quot;"/></g><circle cx="16.851923" cy="2.1980765" r="0.7326923" style="fill:none;fill-opacity:1;stroke:#7a1616;stroke-width:.366346;stroke-linecap:round;stroke-linejoin:round;stroke-miterlimit:4;stroke-dasharray:none;stroke-opacity:1"/><circle cx="16.851923" cy="10.990384" r="0.7326923" style="fill:none;fill-opacity:1;stroke:#7a1616;stroke-width:.366346;stroke-linecap:round;stroke-linejoin:round;stroke-miterlimit:4;stroke-dasharray:none;stroke-opacity:1"/><circle cx="2.1980765" cy="10.990384" r="0.7326923" style="fill:none;fill-opacity:1;stroke:#7a1616;stroke-width:.366346;stroke-linecap:round;stroke-linejoin:round;stroke-miterlimit:4;stroke-dasharray:none;stroke-opacity:1"/><circle cx="2.1980765" cy="2.1980765" r="0.7326923" style="fill:none;fill-opacity:1;stroke:#7a1616;stroke-width:.366346;stroke-linecap:round;stroke-linejoin:round;stroke-miterlimit:4;stroke-dasharray:none;stroke-opacity:1"/></svg>