<svg xmlns="http://www.w3.org/2000/svg" width="64" height="64" viewBox="0 0 63.999998 64.000003"><defs><linearGradient id="a" x1="157.53773" x2="212.43053" y1="179.01532" y2="179.01532" gradientTransform="rotate(-30 -13.5 174.905)scale(.41283)" gradientUnits="userSpaceOnUse"><stop offset="0" stop-color="#8304cd"/><stop offset="1" stop-color="#6d25dd"/></linearGradient><linearGradient id="b" x1="211.83267" x2="273.62576" y1="179.65942" y2="179.65942" gradientTransform="rotate(-30 -13.5 174.905)scale(.41283)" gradientUnits="userSpaceOnUse"><stop offset="0" stop-color="#6e24dc"/><stop offset="1" stop-color="#427df5"/></linearGradient><linearGradient id="c" x1="273.26224" x2="321.48367" y1="179.33743" y2="179.33743" gradientTransform="rotate(-30 -13.5 174.905)scale(.41283)" gradientUnits="userSpaceOnUse"><stop offset="0" stop-color="#427df5"/><stop offset="1" stop-color="#2bb0fe"/></linearGradient></defs><path fill="#313131" stroke-width="0.61924" d="m38.62 27.226-1.203-2.083 2.571-1.484 1.203 2.083z" style="mix-blend-mode:normal;fill-rule:nonzero;stroke:#141414;stroke-linecap:butt;stroke-linejoin:miter;stroke-miterlimit:10;stroke-dasharray:none;stroke-dashoffset:0;stroke-opacity:1"/><path fill="#151515" stroke-width="0.61924" d="m36.315 24.976-.515-.892c-.17-.294-.127-.891.375-1.18l2.315-1.337c.668-.386 1.155-.094 1.324.2l.496.859c.287.496.172 1.115-.344 1.413l-2.268 1.309c-.648.374-1.122.08-1.383-.372z" style="mix-blend-mode:normal;fill-rule:nonzero;stroke:#141414;stroke-linecap:butt;stroke-linejoin:miter;stroke-miterlimit:10;stroke-dasharray:none;stroke-dashoffset:0;stroke-opacity:1;fill:#2c2c2c;fill-opacity:1"/><path fill="#313131" stroke-width="0.61924" d="m25.149 34.953-1.203-2.083 2.57-1.484 1.203 2.083z" style="mix-blend-mode:normal;fill-rule:nonzero;stroke:#141414;stroke-linecap:butt;stroke-linejoin:miter;stroke-miterlimit:10;stroke-dasharray:none;stroke-dashoffset:0;stroke-opacity:1"/><path fill="#151515" stroke-width="0.61924" d="m22.843 32.703-.514-.892c-.17-.294-.127-.891.374-1.18l2.315-1.337c.669-.386 1.155-.094 1.325.2l.496.859c.286.496.17 1.115-.345 1.413-.338.194-1.724.995-2.267 1.309-.648.374-1.123.08-1.384-.372z" style="mix-blend-mode:normal;fill-rule:nonzero;stroke:#141414;stroke-linecap:butt;stroke-linejoin:miter;stroke-miterlimit:10;stroke-dasharray:none;stroke-dashoffset:0;stroke-opacity:1;fill:#2c2c2c;fill-opacity:1"/><path fill="#151515" stroke-width="0.825653" d="m28.003 40.03-2.875-4.98 2.926-1.69 2.875 4.98zm13.404-7.617-2.874-4.98 2.926-1.69 2.875 4.98z" style="mix-blend-mode:normal;fill-rule:nonzero;stroke:#141414;stroke-linecap:butt;stroke-linejoin:miter;stroke-miterlimit:10;stroke-dasharray:none;stroke-dashoffset:0;stroke-opacity:1"/><path fill="#2c2c2c" stroke-width="1.03207" d="M25.273 41.913c-.141-.244-.086-.428.136-.475.273-.057.649-.163.973-.35.404-.234.547-.682 1.03-.961.356-.206 1.013-.22 1.622-.57.385-.223.656-.745 1.122-1.014.51-.294 1.128-.286 1.713-.623.412-.238.773-.813 1.213-1.067.475-.274 1.123-.282 1.622-.57.48-.277.811-.834 1.305-1.12.575-.332 1.315-.393 1.896-.728.551-.318.943-.91 1.487-1.225.527-.304 1.205-.33 1.713-.623.566-.326.958-.919 1.488-1.225.446-.257 1.076-.255 1.53-.517.498-.288.816-.837 1.214-1.067.607-.35 1.286-.377 1.713-.623.468-.27.78-.551.97-.757.17-.185.354-.118.507.148l.739 1.28c.308.532.19 1.963-.97 2.634L28.463 43.91c-.805.465-2.021.028-2.304-.462z" style="mix-blend-mode:normal;fill-rule:nonzero;stroke:#141414;stroke-linecap:butt;stroke-linejoin:miter;stroke-miterlimit:10;stroke-dasharray:none;stroke-dashoffset:0;stroke-opacity:1"/><path fill="#151515" stroke-width="0.103207" d="m31.339 31.852-1.463-2.533c-.243-.422.05-1.41.553-1.701l1.612-.93c.671-.388 1.622-.117 1.865.304l1.462 2.533z" style="mix-blend-mode:normal;fill-rule:nonzero;stroke:#141414;stroke-linecap:butt;stroke-linejoin:miter;stroke-miterlimit:10;stroke-dasharray:none;stroke-dashoffset:0;stroke-opacity:1"/><path fill="url(#a)" stroke-width="1.03207" d="M3.382 51.794a8.4 8.4 0 0 1-1.789-2.163c-.657-1.14-.94-2.148-1.06-2.836-.104-.59.308-1.173.703-1.401l8.32-4.804 5.188-1.649 2.402-.621 1.692-1.86L21 35.21l1.66.424 1.678 3.176-.575 1.128-2.246 1.414-2.443.577-1.656 1.644-4.072 3.58-8.315 4.8c-.398.23-1.154.265-1.649-.16Z" style="mix-blend-mode:normal;fill:url(#a);fill-rule:nonzero;stroke:#120524;stroke-linecap:butt;stroke-linejoin:miter;stroke-miterlimit:10;stroke-dasharray:none;stroke-dashoffset:0;stroke-opacity:1"/><path fill="url(#b)" stroke-width="1.03207" d="m24.338 38.81-1.678-3.176 1.164-.672 20.811-12.015 1.795 3.109z" style="mix-blend-mode:normal;fill:url(#b);fill-rule:nonzero;stroke:#120524;stroke-linecap:butt;stroke-linejoin:miter;stroke-miterlimit:10;stroke-dasharray:none;stroke-dashoffset:0;stroke-opacity:1"/><path fill="url(#c)" stroke-width="1.03207" d="m55.19 23.147-6.418 2.478-2.342.43-1.795-3.108 1.411-2.043 5.355-4.32s10.45-5.878 11.516-6.493c.38-.22.87 5.13.315 7.597-.13.58-.487 1.098-.589 1.156z" data-paper-data="{&quot;index&quot;:null}" style="mix-blend-mode:normal;fill:url(#c);fill-rule:nonzero;stroke:#120524;stroke-linecap:butt;stroke-linejoin:miter;stroke-miterlimit:10;stroke-dasharray:none;stroke-dashoffset:0;stroke-opacity:1"/><path stroke-width="0.103207" d="m59 20.668-3.397-5.884 1.497-.865 3.397 5.885z" style="mix-blend-mode:normal;fill-rule:nonzero;stroke:#120524;stroke-linecap:butt;stroke-linejoin:miter;stroke-miterlimit:10;stroke-dasharray:none;stroke-dashoffset:0;stroke-opacity:1;fill:#120524;fill-opacity:1"/><path stroke-width="0.103207" d="m7.451 49.981-1.713-2.967 1.612-.93 1.713 2.967z" style="mix-blend-mode:normal;fill:#120524;fill-opacity:1;fill-rule:nonzero;stroke:#120524;stroke-linecap:butt;stroke-linejoin:miter;stroke-miterlimit:10;stroke-dasharray:none;stroke-dashoffset:0;stroke-opacity:1"/><path stroke-width="0.103207" d="m4.836 51.596-3.315-5.742 1.612-.93 3.315 5.741Z" style="mix-blend-mode:normal;fill-rule:nonzero;stroke:#120524;stroke-linecap:butt;stroke-linejoin:miter;stroke-miterlimit:10;stroke-dasharray:none;stroke-dashoffset:0;stroke-opacity:1;fill:#120524;fill-opacity:1"/><path fill="#3c72de" stroke-width="0.61924" d="M31.853 32.476a2.127 2.127 0 1 1 3.684-2.127 2.127 2.127 0 0 1-3.684 2.127z" style="mix-blend-mode:normal;fill-rule:nonzero;stroke:#141414;stroke-linecap:butt;stroke-linejoin:miter;stroke-miterlimit:10;stroke-dasharray:none;stroke-dashoffset:0;stroke-opacity:1"/></svg>