<svg xmlns="http://www.w3.org/2000/svg" width="64" height="64" viewBox="0 0 64.000001 64.000001"><defs><linearGradient id="a" x1="168.23801" x2="212.96559" y1="181.40793" y2="181.40793" gradientTransform="rotate(-30 -47.845 256.949)scale(.569)" gradientUnits="userSpaceOnUse"><stop offset="0" stop-color="#9f9f9f"/><stop offset="1" stop-color="#dbdbdb"/></linearGradient><linearGradient id="c" x1="263.87292" x2="296.09949" y1="181.6638" y2="181.6638" gradientTransform="rotate(-30 -47.845 256.949)scale(.569)" gradientUnits="userSpaceOnUse"><stop offset="0" stop-color="#dbdbdb"/><stop offset="1" stop-color="#9f9f9f"/></linearGradient><radialGradient id="b" cx="234.97382" cy="181.82343" r="25.835449" gradientTransform="rotate(-30 -47.845 256.949)scale(.569)" gradientUnits="userSpaceOnUse"><stop offset="0" stop-color="#dbdbdb"/><stop offset="1" stop-color="#9f9f9f"/></radialGradient></defs><path fill="#313131" stroke-width="0.853499" d="m40.985 25.474-1.658-2.871 3.543-2.046 1.658 2.871z" style="mix-blend-mode:normal;fill-rule:nonzero;stroke:#141414;stroke-linecap:butt;stroke-linejoin:miter;stroke-miterlimit:10;stroke-dasharray:none;stroke-dashoffset:0;stroke-opacity:1"/><path fill="#151515" stroke-width="0.853499" d="m37.53 21.89-.71-1.229c-.234-.405-.175-1.229.516-1.628l3.19-1.842c.922-.532 1.592-.13 1.826.276l.684 1.184c.394.684.236 1.537-.475 1.947l-3.125 1.805c-.893.515-1.548.11-1.907-.513z" style="mix-blend-mode:normal;fill-rule:nonzero;stroke:#141414;stroke-linecap:butt;stroke-linejoin:miter;stroke-miterlimit:10;stroke-dasharray:none;stroke-dashoffset:0;stroke-opacity:1;fill:#2c2c2c;fill-opacity:1;stroke-width:.853"/><path fill="#313131" stroke-width="0.853499" d="m22.67 36.192-1.658-2.871 3.544-2.046 1.658 2.871z" style="mix-blend-mode:normal;fill-rule:nonzero;stroke:#141414;stroke-linecap:butt;stroke-linejoin:miter;stroke-miterlimit:10;stroke-dasharray:none;stroke-dashoffset:0;stroke-opacity:1"/><path fill="#151515" stroke-width="0.853499" d="m19.214 32.608-.709-1.229c-.234-.405-.175-1.229.516-1.628l3.19-1.842c.922-.532 1.593-.13 1.827.276l.683 1.184c.395.683.236 1.537-.475 1.947l-3.125 1.805c-.893.515-1.547.11-1.907-.513z" style="mix-blend-mode:normal;fill-rule:nonzero;stroke:#141414;stroke-linecap:butt;stroke-linejoin:miter;stroke-miterlimit:10;stroke-dasharray:none;stroke-dashoffset:0;stroke-opacity:1;fill:#2c2c2c;fill-opacity:1"/><path fill="#151515" stroke-width="1.4225" d="m44.875 32.882-2.107-3.648 4.034-2.33 2.106 3.65zM26.399 43.381l-2.107-3.648 4.034-2.33 2.106 3.65z" style="mix-blend-mode:normal;fill-rule:nonzero;stroke:#141414;stroke-linecap:butt;stroke-linejoin:miter;stroke-miterlimit:10;stroke-dasharray:none;stroke-dashoffset:0;stroke-opacity:1"/><path fill="#151515" stroke-width="0.14225" d="m31.023 30.593-1.6-2.773c-.267-.462.054-1.544.605-1.863l1.765-1.018c.735-.425 1.775-.128 2.041.333l1.601 2.774z" style="mix-blend-mode:normal;fill-rule:nonzero;stroke:#141414;stroke-linecap:butt;stroke-linejoin:miter;stroke-miterlimit:10;stroke-dasharray:none;stroke-dashoffset:0;stroke-opacity:1;fill:#2c2c2c;fill-opacity:1;stroke-width:.853"/><path fill="url(#a)" stroke-width="1.4225" d="M5.037 52.47c-.818-.688-2.013-1.835-2.82-3.233C1.383 47.793.924 45.71.73 44.64c-.078-.428.188-.868.502-1.05l6.623-3.823 3.625-.618 1.902-.261 1.852-2.037 2.367-1.367 1.817.464 3.145 5.446-.757 1.308-2.46 1.549-2.801.705-.958 1.307-2.404 2.732-6.234 3.599c-.478.276-1.378.326-1.912-.123z" style="mix-blend-mode:normal;fill:url(#a);fill-rule:nonzero;stroke:#141414;stroke-linecap:butt;stroke-linejoin:miter;stroke-miterlimit:10;stroke-dasharray:none;stroke-dashoffset:0;stroke-opacity:1"/><path fill="url(#b)" stroke-width="1.4225" d="m22.563 41.394-3.145-5.446 25.462-14.7 3.144 5.446z" style="mix-blend-mode:normal;fill:url(#b);fill-rule:nonzero;stroke:#141414;stroke-linecap:butt;stroke-linejoin:miter;stroke-miterlimit:10;stroke-dasharray:none;stroke-dashoffset:0;stroke-opacity:1"/><path fill="url(#c)" stroke-width="1.4225" d="m56.21 24.321-5.75 1.975-2.436.398-3.144-5.446 1.417-2.162 4.585-3.993 6.552-3.782c.345-.2 1.042-.151 1.557.285.785.664 1.943 1.771 2.782 3.126.798 1.289 1.261 3.149 1.49 4.32.13.659-.268 1.362-.696 1.61z" data-paper-data="{&quot;index&quot;:null}" style="mix-blend-mode:normal;fill:url(#c);fill-rule:nonzero;stroke:#141414;stroke-linecap:butt;stroke-linejoin:miter;stroke-miterlimit:10;stroke-dasharray:none;stroke-dashoffset:0;stroke-opacity:1"/><path stroke-width="0.14225" d="m58.827 21.994-4.604-7.974 1.639-.946 4.603 7.974zM9.389 50.407l-3.055-5.291 1.765-1.02 3.055 5.292zm-2.932 1.616-4.588-7.945 1.765-1.019 4.587 7.945Z" style="mix-blend-mode:normal;fill-rule:nonzero;stroke:#141414;stroke-linecap:butt;stroke-linejoin:miter;stroke-miterlimit:10;stroke-dasharray:none;stroke-dashoffset:0;stroke-opacity:1;fill:#141414;fill-opacity:1"/><path fill="#a7a7a7" stroke-width="0.853499" d="M31.433 32.617a3.201 3.201 0 1 1 5.545-3.2 3.201 3.201 0 0 1-5.545 3.2z" style="mix-blend-mode:normal;fill-rule:nonzero;stroke:#141414;stroke-linecap:butt;stroke-linejoin:miter;stroke-miterlimit:10;stroke-dasharray:none;stroke-dashoffset:0;stroke-opacity:1"/><path fill="#2c2c2c" stroke-width="1.4225" d="M22.638 45.976c-.195-.337-.118-.59.188-.654.375-.08.894-.226 1.34-.484.557-.321.754-.94 1.42-1.324.491-.283 1.397-.302 2.235-.786.532-.307.905-1.027 1.547-1.397.702-.405 1.555-.394 2.36-.859.569-.328 1.066-1.12 1.673-1.47.655-.378 1.548-.39 2.235-.786.663-.382 1.119-1.15 1.799-1.542.793-.458 1.813-.543 2.613-1.005.76-.439 1.3-1.255 2.05-1.688.726-.419 1.66-.454 2.362-.86.779-.449 1.32-1.266 2.05-1.687.614-.355 1.483-.352 2.11-.714.685-.396 1.124-1.153 1.672-1.47.837-.483 1.773-.519 2.36-.858a5.7 5.7 0 0 0 1.337-1.043c.236-.256.489-.163.7.204l1.018 1.763c.424.734.263 2.706-1.337 3.63L27.035 48.728c-1.11.64-2.786.039-3.175-.636z" style="mix-blend-mode:normal;fill-rule:nonzero;stroke:#141414;stroke-linecap:butt;stroke-linejoin:miter;stroke-miterlimit:10;stroke-dasharray:none;stroke-dashoffset:0;stroke-opacity:1"/></svg>