<svg xmlns="http://www.w3.org/2000/svg" width="19.050001mm" height="13.188459mm" viewBox="0 0 19.050001 13.188459"><g transform="translate(16.14 -133.35)"><rect width="18.338186" height="12.476645" x="-15.783676" y="133.70592" rx="1.0990382" ry="1.0990382" style="fill:#202020;fill-opacity:1;stroke:#000;stroke-width:.711814;stroke-linecap:round;stroke-linejoin:round;stroke-miterlimit:10;stroke-opacity:1"/><g style="font-size:8.41608px;line-height:1.25;font-family:Jura;-inkscape-font-specification:Jura;letter-spacing:0;word-spacing:0;fill:#484848;stroke-width:.210403"><path d="M3.297 8.277h1.515V9.54H3.297Zm5.05 1.347q-1.406 0-3.114-.168V8.32q1.86.126 2.777.126.194 0 .303-.11.118-.117.118-.311v-.42q0-.506-.505-.506h-2.44V3.65h4.039v1.178H7V5.92h1.347q.825 0 1.212.379.387.37.387 1.136v.589q0 .825-.387 1.212t-1.212.387m5.554-4.375q0-.505-.505-.505h-.925q-.505 0-.505.505V7.94q0 .505.505.505h.925q.505 0 .505-.505zm1.515 2.693q0 .883-.404 1.287-.395.396-1.279.396h-1.599q-.884 0-1.288-.396-.395-.404-.395-1.287V5.248q0-.884.395-1.28.404-.404 1.288-.404h1.599q.884 0 1.28.404.403.396.403 1.28z" aria-label=".50" style="font-family:&quot;Russo One&quot;;-inkscape-font-specification:&quot;Russo One&quot;" transform="translate(-16.14 133.35)"/></g><circle cx="0.71233618" cy="135.54808" r="0.73269218" style="fill:none;fill-opacity:.133333;stroke:#484848;stroke-width:.366346;stroke-linecap:round;stroke-linejoin:round;stroke-miterlimit:4;stroke-dasharray:none;stroke-opacity:1"/><circle cx="0.71233618" cy="144.34039" r="0.73269218" style="fill:none;fill-opacity:1;stroke:#484848;stroke-width:.366346;stroke-linecap:round;stroke-linejoin:round;stroke-miterlimit:4;stroke-dasharray:none;stroke-opacity:1"/><circle cx="-13.941506" cy="144.34039" r="0.73269218" style="fill:none;fill-opacity:1;stroke:#484848;stroke-width:.366346;stroke-linecap:round;stroke-linejoin:round;stroke-miterlimit:4;stroke-dasharray:none;stroke-opacity:1"/><circle cx="-13.941506" cy="135.54808" r="0.73269218" style="fill:none;fill-opacity:1;stroke:#484848;stroke-width:.366346;stroke-linecap:round;stroke-linejoin:round;stroke-miterlimit:4;stroke-dasharray:none;stroke-opacity:1"/></g></svg>