<svg xmlns="http://www.w3.org/2000/svg" xmlns:xlink="http://www.w3.org/1999/xlink" width="64" height="64" viewBox="0 0 63.999997 64"><defs><linearGradient id="c" x1="239.92857" x2="239.92857" y1="110.85715" y2="200.57143" gradientTransform="translate(-50.572 -30.162)scale(.34415)" gradientUnits="userSpaceOnUse"><stop offset="0" stop-color="#595959" style="stop-color:#c8c8c8;stop-opacity:1"/><stop offset="1" stop-color="#424242" style="stop-color:gray;stop-opacity:1"/></linearGradient><linearGradient id="a" x1="205.5195" x2="218.05283" y1="200.50458" y2="200.50458" gradientTransform="translate(-50.597 -30.162)scale(.34415)" gradientUnits="userSpaceOnUse"><stop offset="0" stop-color="#b3b3b3"/><stop offset="1" stop-color="#878787"/></linearGradient><linearGradient id="b" x1="210.03616" x2="213.53616" y1="197.34329" y2="197.34329" gradientTransform="translate(-50.597 -30.162)scale(.34415)" gradientUnits="userSpaceOnUse"><stop offset="0" stop-color="#b3b3b3"/><stop offset="1" stop-color="#878787"/></linearGradient><linearGradient xlink:href="#a" id="d" x1="205.5195" x2="218.05283" y1="200.50458" y2="200.50458" gradientTransform="translate(-50.597 -30.162)scale(.34415)" gradientUnits="userSpaceOnUse"/><linearGradient xlink:href="#b" id="e" x1="210.03616" x2="213.53616" y1="197.34329" y2="197.34329" gradientTransform="translate(-50.597 -30.162)scale(.34415)" gradientUnits="userSpaceOnUse"/><linearGradient xlink:href="#a" id="f" x1="205.5195" x2="218.05283" y1="200.50458" y2="200.50458" gradientTransform="translate(-50.597 -30.162)scale(.34415)" gradientUnits="userSpaceOnUse"/><linearGradient xlink:href="#b" id="g" x1="210.03616" x2="213.53616" y1="197.34329" y2="197.34329" gradientTransform="translate(-50.597 -30.162)scale(.34415)" gradientUnits="userSpaceOnUse"/></defs><path fill="#4f4f4f" stroke="#232323" stroke-width="2.58114" d="M8.303 55.236V11.382c0-2.097 1.18-3.344 2.556-3.344h41.692c1.972 0 3.146 1.015 3.146 2.754v45.034c0 3.327-2.852 6.883-7.08 6.883H14.793c-3.094 0-6.49-3.909-6.49-7.473z" style="mix-blend-mode:normal;fill-rule:nonzero;stroke-linejoin:miter;stroke-miterlimit:10;stroke-dasharray:none;stroke-dashoffset:0;fill:#909090;fill-opacity:1;stroke:#303030;stroke-opacity:1"/><path fill="#454545" stroke="#232323" stroke-width="1.72076" d="M12.906 52.509V17.173c0-1.69.951-2.694 2.06-2.694h33.593c1.589 0 2.535.817 2.535 2.218v36.287c0 2.68-2.298 5.546-5.704 5.546H18.135c-2.493 0-5.23-3.15-5.23-6.021z" style="mix-blend-mode:normal;fill-rule:nonzero;stroke-linejoin:miter;stroke-miterlimit:10;stroke-dasharray:none;stroke-dashoffset:0;fill:#848484;fill-opacity:1;stroke:#303030;stroke-opacity:1"/><path fill="#4f4f4f" stroke="#232323" stroke-width="1.72076" d="M14.3 11.48V8.552s3.926-4.854 8.366-6.195C25.871 1.39 29.344.86 31.803.86c2.576 0 6.288.59 9.665 1.601 4.4 1.319 8.231 6.09 8.231 6.09v2.929s-4.027-4.85-8.566-6.19c-3.286-.97-6.84-1.501-9.33-1.501-2.292 0-5.466.42-8.483 1.302-4.701 1.376-9.02 6.389-9.02 6.389z" style="mix-blend-mode:normal;fill-rule:nonzero;stroke-linejoin:miter;stroke-miterlimit:10;stroke-dasharray:none;stroke-dashoffset:0;stroke:#303030;stroke-opacity:1;fill:#848484;fill-opacity:1"/><path fill="url(#c)" stroke="#343434" stroke-width="2.58114" d="M8.303 31.392v-20.06c0-2.096 1.18-3.343 2.556-3.343h41.692c1.972 0 3.146 1.015 3.146 2.753v21.24c0 3.326-2.852 6.883-7.08 6.883H14.793c-3.094 0-6.49-3.91-6.49-7.473z" style="mix-blend-mode:normal;fill:url(#c);fill-rule:nonzero;stroke-linejoin:miter;stroke-miterlimit:10;stroke-dasharray:none;stroke-dashoffset:0;stroke:#343434;stroke-opacity:1"/><path fill="#3f3f3f" stroke="#232323" stroke-width="1.72076" d="M19.512 48.676c-.958-2.03-.719-6.15 0-7.248.33-.507.536-1.01 1.128-1.01h3.053c.581 0 .824.513 1.068.972.54 1.011.958 5.06 0 7.174-.388.857-.895 1.307-1.487 1.307h-2.33c-.757 0-1.105-.501-1.432-1.195z" style="mix-blend-mode:normal;fill:#979797;fill-opacity:1;fill-rule:nonzero;stroke:#343434;stroke-linejoin:miter;stroke-miterlimit:10;stroke-dasharray:none;stroke-dashoffset:0;stroke-opacity:1" transform="translate(-.145)"/><path fill="#3f3f3f" stroke="#232323" stroke-width="1.72076" d="M19.626 33.02c-.957-3.252-.718-9.85 0-11.611.331-.811.536-1.616 1.129-1.616h3.052c.582 0 .825.82 1.07 1.556.538 1.62.957 8.104 0 11.491-.389 1.373-.896 2.095-1.489 2.095-.109 0-.052 7.46-.018 11.014.01 1.111-.817 2.48-1.217 2.48-.378-.001-1.091-1.331-1.08-2.386.04-3.51.276-11.108-.015-11.108-.756 0-1.104-.803-1.432-1.915z" style="mix-blend-mode:normal;fill:#979797;fill-opacity:1;fill-rule:nonzero;stroke:#343434;stroke-linejoin:miter;stroke-miterlimit:10;stroke-dasharray:none;stroke-dashoffset:0;stroke-opacity:1" transform="translate(-.145)"/><path fill="none" stroke="url(#a)" stroke-width="1.20453" d="M20.133 40.285v-2.798c0-.538.645-1.261 1.38-1.261h1.732c.453 0 1.202.723 1.202 1.261v2.753c0 .687-.564 1.217-1.202 1.217h-2.043c-.452 0-1.069-.508-1.069-1.172z" style="mix-blend-mode:normal;fill-rule:nonzero;stroke:url(#d);stroke-linejoin:miter;stroke-miterlimit:10;stroke-dasharray:none;stroke-dashoffset:0" transform="translate(-.145)"/><path fill="none" stroke="url(#b)" stroke-linecap="round" stroke-width="0.688304" d="M22.29 36.865v1.777" style="mix-blend-mode:normal;fill-rule:nonzero;stroke:url(#e);stroke-linejoin:miter;stroke-miterlimit:10;stroke-dasharray:none;stroke-dashoffset:0" transform="translate(-.145)"/><path fill="#9d9d9d" d="M21.371 32.46a.86.86 0 1 1 1.72 0 .86.86 0 0 1-1.72 0" style="mix-blend-mode:normal;fill-rule:nonzero;stroke-linejoin:miter;stroke-miterlimit:10;stroke-dasharray:none;stroke-dashoffset:0;fill:silver;fill-opacity:1" transform="translate(-.145)"/><path fill="#232323" d="M21.755 44.447a.516.516 0 1 1 1.032 0 .516.516 0 0 1-1.032 0m-.06-1.616a.516.516 0 1 1 1.033 0 .516.516 0 0 1-1.033 0" style="mix-blend-mode:normal;fill:#343434;fill-opacity:1;fill-rule:nonzero;stroke-linejoin:miter;stroke-miterlimit:10;stroke-dasharray:none;stroke-dashoffset:0" transform="translate(-.145)"/><path fill="#3f3f3f" stroke="#232323" stroke-width="1.72076" d="M19.512 48.676c-.958-2.03-.719-6.15 0-7.248.33-.507.536-1.01 1.128-1.01h3.053c.581 0 .824.513 1.068.972.54 1.011.958 5.06 0 7.174-.388.857-.895 1.307-1.487 1.307h-2.33c-.757 0-1.105-.501-1.432-1.195z" style="mix-blend-mode:normal;fill:#979797;fill-opacity:1;fill-rule:nonzero;stroke:#343434;stroke-linejoin:miter;stroke-miterlimit:10;stroke-dasharray:none;stroke-dashoffset:0;stroke-opacity:1" transform="translate(19.817)"/><path fill="#3f3f3f" stroke="#232323" stroke-width="1.72076" d="M19.626 33.02c-.957-3.252-.718-9.85 0-11.611.331-.811.536-1.616 1.129-1.616h3.052c.582 0 .825.82 1.07 1.556.538 1.62.957 8.104 0 11.491-.389 1.373-.896 2.095-1.489 2.095-.109 0-.052 7.46-.018 11.014.01 1.111-.817 2.48-1.217 2.48-.378-.001-1.091-1.331-1.08-2.386.04-3.51.276-11.108-.015-11.108-.756 0-1.104-.803-1.432-1.915z" style="mix-blend-mode:normal;fill:#979797;fill-opacity:1;fill-rule:nonzero;stroke:#343434;stroke-linejoin:miter;stroke-miterlimit:10;stroke-dasharray:none;stroke-dashoffset:0;stroke-opacity:1" transform="translate(19.817)"/><path fill="none" stroke="url(#a)" stroke-width="1.20453" d="M20.133 40.285v-2.798c0-.538.645-1.261 1.38-1.261h1.732c.453 0 1.202.723 1.202 1.261v2.753c0 .687-.564 1.217-1.202 1.217h-2.043c-.452 0-1.069-.508-1.069-1.172z" style="mix-blend-mode:normal;fill-rule:nonzero;stroke:url(#f);stroke-linejoin:miter;stroke-miterlimit:10;stroke-dasharray:none;stroke-dashoffset:0" transform="translate(19.817)"/><path fill="none" stroke="url(#b)" stroke-linecap="round" stroke-width="0.688304" d="M22.29 36.865v1.777" style="mix-blend-mode:normal;fill-rule:nonzero;stroke:url(#g);stroke-linejoin:miter;stroke-miterlimit:10;stroke-dasharray:none;stroke-dashoffset:0" transform="translate(19.817)"/><path fill="#9d9d9d" d="M21.371 32.46a.86.86 0 1 1 1.72 0 .86.86 0 0 1-1.72 0" style="mix-blend-mode:normal;fill:silver;fill-opacity:1;fill-rule:nonzero;stroke-linejoin:miter;stroke-miterlimit:10;stroke-dasharray:none;stroke-dashoffset:0" transform="translate(19.817)"/><path fill="#232323" d="M21.755 44.447a.516.516 0 1 1 1.032 0 .516.516 0 0 1-1.032 0m-.06-1.616a.516.516 0 1 1 1.033 0 .516.516 0 0 1-1.033 0" style="mix-blend-mode:normal;fill:#343434;fill-opacity:1;fill-rule:nonzero;stroke-linejoin:miter;stroke-miterlimit:10;stroke-dasharray:none;stroke-dashoffset:0" transform="translate(19.817)"/></svg>