<svg xmlns="http://www.w3.org/2000/svg" xmlns:xlink="http://www.w3.org/1999/xlink" xml:space="preserve" width="64" height="64" viewBox="0 0 63.999998 63.999997"><defs><linearGradient id="a" x1="238.33603" x2="238.33603" y1="51.743382" y2="306.84738" gradientTransform="translate(-24.616 -9.426)scale(.23755)" gradientUnits="userSpaceOnUse"><stop offset="0" stop-color="#c8c8c6"/><stop offset="1" stop-color="#afafa8"/></linearGradient><linearGradient xlink:href="#a" id="b" x1="-43.291019" x2="-43.291992" y1="6.7636719" y2="63.460983" gradientTransform="matrix(.99203 0 0 .99215 74.947 .287)" gradientUnits="userSpaceOnUse"/></defs><g style="stroke-width:1.00797"><path fill="#888887" stroke="#4f4f4f" stroke-width="1.06897" d="M23.121 4.555s2.149.94 2.023.552c-.196-.603-.322-2.768-.966-4.25-.338-.78-1.107-2.024-1.529-1.448l-1.808 2.467Zm17.669 0s-2.15.94-2.023.552c.196-.603.321-2.768.966-4.25.338-.78 1.107-2.024 1.529-1.448l1.808 2.467z" data-paper-data="{&quot;index&quot;:null}" style="mix-blend-mode:normal;fill-rule:nonzero;stroke:#333;stroke-width:1.00797;stroke-linecap:butt;stroke-linejoin:miter;stroke-miterlimit:10;stroke-dasharray:none;stroke-dashoffset:0;stroke-opacity:1" transform="matrix(.99203 0 0 .99215 .3 1.441)"/></g><path d="M20.645 3.132c-.715.04.047 2.818-.672 2.868-2.03.14-4.076.299-6.117.401-2.471.123-3.174 9.598-3.174 9.598s1.76 32.107 1.984 36.773c.053 1.097.135 2.856 1.029 3.83C18.084 61.384 25.508 63.25 32 63.25s13.916-1.865 18.305-6.649c.894-.973.976-2.732 1.029-3.829C51.557 48.106 53.318 16 53.318 16s-.703-9.475-3.174-9.598c-2.041-.102-4.087-.262-6.117-.401-.719-.05.045-2.827-.67-2.868-.327-.019-1.192.131-1.887.796-.698.669-1.226 1.854-1.552 1.841-1.742-.066-3.133.86-5.412 1.09-.503.05-1.414.115-2.505.139a34 34 0 0 1-2.507-.14c-2.279-.23-3.67-1.155-5.412-1.089-.326.013-.854-1.172-1.552-1.84-.695-.666-1.558-.816-1.885-.797Z" style="mix-blend-mode:normal;fill:url(#b);fill-opacity:1;fill-rule:nonzero;stroke:#333;stroke-width:1.5;stroke-linecap:butt;stroke-linejoin:miter;stroke-miterlimit:10;stroke-dasharray:none;stroke-dashoffset:0;stroke-opacity:1"/><path d="M13.233 54.553v2.556c5.786 2.626 12.386 3.78 18.767 3.78s13.061-1.039 18.767-3.78v-2.556S38.375 58.232 32 58.232s-18.767-3.679-18.767-3.679" style="mix-blend-mode:normal;fill:#b0b0a9;fill-opacity:1;fill-rule:nonzero;stroke:#333;stroke-width:1.5;stroke-linecap:round;stroke-linejoin:round;stroke-miterlimit:10;stroke-dasharray:none;stroke-dashoffset:0;stroke-opacity:1"/><g fill="#989893" style="stroke-width:1.00797"><path d="m12.045 28.106 9.206 1.354-9.118-.252z" style="mix-blend-mode:normal;fill-rule:nonzero;stroke:none;stroke-width:1.51196;stroke-linecap:square;stroke-linejoin:bevel;stroke-miterlimit:10;stroke-dasharray:none;stroke-dashoffset:0;stroke-opacity:1" transform="matrix(.97417 0 0 2.90091 .632 -51.182)"/><path d="m52.313 29.194-9.117.251 9.159-1.353z" data-paper-data="{&quot;index&quot;:null}" style="mix-blend-mode:normal;fill-rule:nonzero;stroke:none;stroke-width:1.51196;stroke-linecap:square;stroke-linejoin:bevel;stroke-miterlimit:10;stroke-dasharray:none;stroke-dashoffset:0;stroke-opacity:1" transform="matrix(.97417 0 0 2.90091 .632 -51.182)"/></g><g stroke="#4f4f4f" stroke-width="1.06897" style="stroke-width:1.00797"><g style="stroke-width:1.00797"><path fill="#dddddb" d="M43.6 3.29 40.82-.612c-.341-.478 5.996-.512 6.87.343.333.326 2.99 3.528 2.225 3.531z" data-paper-data="{&quot;index&quot;:null}" style="mix-blend-mode:normal;fill-rule:nonzero;stroke:#333;stroke-width:1.00797;stroke-linecap:butt;stroke-linejoin:miter;stroke-miterlimit:10;stroke-dasharray:none;stroke-dashoffset:0;stroke-opacity:1" transform="matrix(.99203 0 0 .99215 .304 1.441)"/><path fill="#bbbbb9" d="m49.44 5.961-5.311.06c-.284.003-.56-.272-.565-.631l-.016-1.449c-.003-.221.304-.498.616-.501l5.239-.06c.348-.004.565.268.57.617.004.447.01 1.015.014 1.282.003.282-.204.678-.547.682z" data-paper-data="{&quot;index&quot;:null}" style="mix-blend-mode:normal;fill:#888887;fill-opacity:1;fill-rule:nonzero;stroke:#333;stroke-width:1.00797;stroke-linecap:butt;stroke-linejoin:miter;stroke-miterlimit:10;stroke-dasharray:none;stroke-dashoffset:0;stroke-opacity:1" transform="matrix(.99203 0 0 .99215 .304 1.441)"/></g><g style="stroke-width:1.00797"><path fill="#dddddb" d="M43.6 3.29 40.82-.612c-.341-.478 5.996-.512 6.87.343.333.326 2.99 3.528 2.225 3.531z" data-paper-data="{&quot;index&quot;:null}" style="mix-blend-mode:normal;fill-rule:nonzero;stroke:#333;stroke-width:1.00797;stroke-linecap:butt;stroke-linejoin:miter;stroke-miterlimit:10;stroke-dasharray:none;stroke-dashoffset:0;stroke-opacity:1" transform="matrix(-.99203 0 0 .99215 63.696 1.441)"/><path fill="#bbbbb9" d="m49.44 5.961-5.311.06c-.284.003-.56-.272-.565-.631l-.016-1.449c-.003-.221.304-.498.616-.501l5.239-.06c.348-.004.565.268.57.617.004.447.01 1.015.014 1.282.003.282-.204.678-.547.682z" data-paper-data="{&quot;index&quot;:null}" style="mix-blend-mode:normal;fill:#888887;fill-opacity:1;fill-rule:nonzero;stroke:#333;stroke-width:1.00797;stroke-linecap:butt;stroke-linejoin:miter;stroke-miterlimit:10;stroke-dasharray:none;stroke-dashoffset:0;stroke-opacity:1" transform="matrix(-.99203 0 0 .99215 63.696 1.441)"/></g></g><g fill="#c9c8c3" stroke="#4f4f4f" stroke-width="1.06897"><path d="M19.386 43.185c-.317-1.036-1.412-4.829-1.97-6.656-.202-.659.266-1.09.885-1.09 1.667 0 9.362.211 11.762.211.453 0 .718.467.718.932v6.958c0 .776-.447 1.27-1.152 1.239l-8.452-.384c-.693-.032-1.623-.661-1.791-1.21zm-7.217-8.347c-.04-.388.17-.705.523-.588l2.108.703c.24.08.595.447.722.893l1.96 6.89c.103.362-.173.626-.678.499-.743-.188-1.768-.47-2.288-.714-.465-.22-1.322-.72-1.672-1.05-.197-.187-.356-.63-.405-1.116 0 0-.186-4.686-.27-5.517z" style="mix-blend-mode:normal;fill-rule:nonzero;stroke:#333;stroke-width:.999997;stroke-linecap:butt;stroke-linejoin:miter;stroke-miterlimit:10;stroke-dasharray:none;stroke-dashoffset:0;stroke-opacity:1" transform="translate(.142 1.503)"/><path d="M19.386 43.185c-.317-1.036-1.412-4.829-1.97-6.656-.202-.659.266-1.09.885-1.09 1.667 0 9.362.211 11.762.211.453 0 .718.467.718.932v6.958c0 .776-.447 1.27-1.152 1.239l-8.452-.384c-.693-.032-1.623-.661-1.791-1.21zm-7.217-8.347c-.04-.388.17-.705.523-.588l2.108.703c.24.08.595.447.722.893l1.96 6.89c.103.362-.173.626-.678.499-.743-.188-1.768-.47-2.288-.714-.465-.22-1.322-.72-1.672-1.05-.197-.187-.356-.63-.405-1.116 0 0-.186-4.686-.27-5.517z" style="mix-blend-mode:normal;fill-rule:nonzero;stroke:#333;stroke-width:.999997;stroke-linecap:butt;stroke-linejoin:miter;stroke-miterlimit:10;stroke-dasharray:none;stroke-dashoffset:0;stroke-opacity:1" transform="matrix(-1 0 0 1 63.858 1.503)"/></g><g fill="#c9c8c3" stroke="#4f4f4f" stroke-width="1.06897"><path d="M22.33 54.486c-.238-1.035-1.71-4.833-2.13-6.66-.152-.66.2-1.09.668-1.09 1.256 0 7.704.646 9.514.646.342 0 .54.467.54.932v6.528c0 .776-.336 1.27-.867 1.238l-6.374-.384c-.522-.031-1.224-.66-1.35-1.21Z" data-paper-data="{&quot;index&quot;:null}" style="mix-blend-mode:normal;fill-rule:nonzero;stroke:#333;stroke-width:.999997;stroke-linecap:butt;stroke-linejoin:miter;stroke-miterlimit:10;stroke-dasharray:none;stroke-dashoffset:0;stroke-opacity:1" transform="translate(-.002 1.326)"/><path d="M12.776 51.026c-.152-1.503-.043-4.686-.127-5.517-.039-.388.171-.705.523-.588.683.228 3.468 1.3 3.83 1.42.24.08.595.447.721.893l1.96 6.89c.103.363-.173.626-.677.499-.743-.188-3.49-1.187-4.01-1.431-.465-.22-1.465-.72-1.815-1.05-.197-.187-.356-.63-.405-1.116z" style="mix-blend-mode:normal;fill-rule:nonzero;stroke:#333;stroke-width:.999997;stroke-linecap:butt;stroke-linejoin:miter;stroke-miterlimit:10;stroke-dasharray:none;stroke-dashoffset:0;stroke-opacity:1" transform="translate(-.002 1.326)"/><path d="M22.33 54.486c-.238-1.035-1.71-4.833-2.13-6.66-.152-.66.2-1.09.668-1.09 1.256 0 7.704.646 9.514.646.342 0 .54.467.54.932v6.528c0 .776-.336 1.27-.867 1.238l-6.374-.384c-.522-.031-1.224-.66-1.35-1.21Z" data-paper-data="{&quot;index&quot;:null}" style="mix-blend-mode:normal;fill-rule:nonzero;stroke:#333;stroke-width:.999997;stroke-linecap:butt;stroke-linejoin:miter;stroke-miterlimit:10;stroke-dasharray:none;stroke-dashoffset:0;stroke-opacity:1" transform="matrix(-1 0 0 1 64.002 1.326)"/><path d="M12.776 51.026c-.152-1.503-.043-4.686-.127-5.517-.039-.388.171-.705.523-.588.683.228 3.468 1.3 3.83 1.42.24.08.595.447.721.893l1.96 6.89c.103.363-.173.626-.677.499-.743-.188-3.49-1.187-4.01-1.431-.465-.22-1.465-.72-1.815-1.05-.197-.187-.356-.63-.405-1.116z" style="mix-blend-mode:normal;fill-rule:nonzero;stroke:#333;stroke-width:.999997;stroke-linecap:butt;stroke-linejoin:miter;stroke-miterlimit:10;stroke-dasharray:none;stroke-dashoffset:0;stroke-opacity:1" transform="matrix(-1 0 0 1 64.002 1.326)"/></g></svg>