<svg xmlns="http://www.w3.org/2000/svg" width="64" height="64" viewBox="0 0 64 63.999998"><defs><linearGradient id="a" x1="241.83856" x2="368.2673" y1="237.03381" y2="237.03381" gradientUnits="userSpaceOnUse"><stop offset="0" stop-color="#bdbdbd"/><stop offset="1" stop-color="#909090"/></linearGradient><linearGradient id="b" x1="241.83856" x2="368.2673" y1="237.03381" y2="237.03381" gradientUnits="userSpaceOnUse"><stop offset="0" stop-color="#919191"/><stop offset="1" stop-color="#868686"/></linearGradient><linearGradient id="c" x1="240.89001" x2="240.89001" y1="80.251877" y2="271.74811" gradientUnits="userSpaceOnUse"><stop offset="0" stop-color="#c2c2c2"/><stop offset="1" stop-color="#909090"/></linearGradient><linearGradient id="d" x1="254.27795" x2="254.27795" y1="87.963226" y2="215.3065" gradientUnits="userSpaceOnUse"><stop offset="0" stop-color="gray"/><stop offset="1" stop-color="#ababab"/></linearGradient><linearGradient id="e" x1="254.27795" x2="254.27795" y1="87.963226" y2="215.3065" gradientUnits="userSpaceOnUse"><stop offset="0" stop-color="gray"/><stop offset="1" stop-color="#ababab"/></linearGradient><linearGradient id="f" x1="257.12073" x2="257.12073" y1="188.68857" y2="198.72736" gradientUnits="userSpaceOnUse"><stop offset="0" stop-color="#bbb"/><stop offset="1" stop-color="#696969"/></linearGradient></defs><g stroke-miterlimit="10" data-paper-data="{&quot;isPaintingLayer&quot;:true}" style="mix-blend-mode:normal"><path fill="#a6a6a6" stroke="#818181" stroke-width=".577775" d="M31.156 44.033V38.89h18.662l.405 4.564s2.373.064 4.804-.287c2.7-.39 6.41.799 6.41.799s-.707 3.035-1.432 3.576c-2.535 1.892-9.247 1.687-12.956 2.072-1.303.135-1.284-1.843-2.071-3.246-.816-1.454-2.42-2.336-2.786-2.336z"/><path fill="#606060" stroke="#000" stroke-width=".577775" d="M26.324 45.877v-3.515h6.29v3.515z"/><path fill="url(#a)" stroke="url(#b)" stroke-width="2.5" d="M241.839 236.067v-22.25h80.75l1.75 19.75s10.269.278 20.787-1.242c11.688-1.69 22.234-5.043 22.234-5.043s2.444 21.633-.691 23.973c-10.972 8.187-40.015 7.3-56.064 8.967-5.637.586-5.555-7.977-8.96-14.046-3.53-6.292-10.473-10.109-12.056-10.109z" style="fill:url(#a);stroke:url(#b)" transform="translate(-23.463 -8.675)scale(.2311)"/><path fill="url(#c)" stroke="#595959" stroke-width="5" d="M137.272 197.649c0-14.256 3.312-36.235 8.707-53.094 4.668-14.586 11.524-25.213 11.524-25.213s18.9-15.937 43.306-27.166c16.473-7.58 36.273-11.924 51.356-11.924 22.36 0 41.174 5.342 57.764 15.615 15.65 9.691 25.428 23.827 34.762 40.22 6.818 11.973 14.328 25.715 17.418 40.305.3 1.42 4.36 2.647 4.571 4.082.438 2.96 1.278 6.75 1.278 9.765 0 .39 10.763 5.349 7.347 12.515-.718 1.506-1.675 7.26-9.578 11.811-11.49 6.618-26.086 12.37-35.65 12.74-12.341.479-24.632-6.028-37.783-7.565-11.935-1.394-24.666 1.188-37.125 2.189-7.462.6-16.868 3.764-27.29 8.236-2.828 1.213-5.064 8.604-8.342 12.646-1.98 2.441-4.873 3.332-6.856 2.924-3.026-.622-3.899-6.298-6.43-5.04-9.311 4.63-18.896 10.434-28.243 14.946-8.486 4.098-16.776 7.906-24.487 10.626-4.944 1.744-9.65 2.827-14.016 3.956-11.28 2.918-25.616 1.69-32.151-4.031-4.422-3.87-3.644-10.34-2.174-16.892 2.657-3.32 9.32-9.338 19.745-16.029 7.802-5.007 11.147-6.95 12.074-9.876 1.814-5.724.273-15.546.273-25.746zm77.145 42.86a.75.75 0 1 0 0-1.5.75.75 0 0 0 0 1.5z" style="fill:url(#c)" transform="translate(-23.463 -8.675)scale(.2311)"/><path fill="url(#d)" stroke="url(#e)" stroke-width="2.5" d="M330.073 198.58c-15.441 1.997-35.947-2.101-58.689-2.101-28.864 0-56.367 11.814-76.504 16.958-12.751 3.258-23.109 1.683-28.952-.382-.78-.276-6.859-3.767-11.776-10.106-6.994-9.016-13.66-23.793-5.227-43.275 1.023-2.362 2.591-5.977 4.698-10.273 3.073-6.267 8.491-13.986 13.828-21.382 7.676-10.64 18.685-20.504 28.754-25.617 22.43-11.39 62.564-17.872 85.933-12.553 41.503 9.448 58.503 45.434 58.503 45.434s-34.184-36.427-82.072-39.518c-24.602-1.589-56.589 8.533-77.269 26.548-7.626 6.645-18.868 22.044-25.349 35.684-3.406 7.168-5.208 13.85-5.105 18.52.115 5.249-.925 7.92 4.971 17.975 1.485 2.531 3.23 6.348 6.525 9.159 7.183 6.13 16.713 6.486 18.528 6.264 23.497-2.88 54.06-21.44 94.116-21.44 21.812 0 42.314 5.64 56.521 2.865 20.203-3.946 28.682-11.074 28.682-11.074s2.69.875 2.876 1.999c.208 1.252.513 2.97.513 2.97z" style="fill:url(#d);stroke:url(#e)" transform="translate(-23.463 -8.675)scale(.2311)"/><path fill="url(#f)" d="m242.208 198.727-.29-5.965 30.26-4.073.146 5.674z" style="fill:url(#f)" transform="translate(-23.463 -8.675)scale(.2311)"/><path fill="#5a5a5a" d="M25.94 14.804V13.76l2.487-.975.135 1.009zm4.37-1.362V12.4l3.228-.37.067 1.11zm5.133-.668-.034-.941 2.589.1-.067.908z"/><path fill="gray" d="m8.436 43.699.403-.774s.225.661.566 1.24c.272.46.624.828.955 1.046.332.22.835.467 1.355.731.876.446 1.97.373 1.97.373s-1.106.215-2.03-.091c-.624-.207-1.247-.4-1.637-.583a2.5 2.5 0 0 1-.951-.786 6 6 0 0 1-.63-1.156m15.736 2.013s1.6-.342 2.351-.459c.69-.107 1.988-.889 1.988-.889l-.427.605s-.936.596-1.494.607c-.71.013-2.418.136-2.418.136"/><g stroke-width="0"><path fill="#9b9b9b" d="M15.705 46.956v-4.308l3.961.038.112 4.196z"/><path fill="#7f7f7f" d="m19.75 46.882-.111-4.196.854-.595.111 4.197z"/><path fill="#a7a7a7" d="m16.704 42.069 3.788.037-.854.58-3.9-.038z" data-paper-data="{&quot;index&quot;:null}"/></g><g stroke-width="0" data-paper-data="{&quot;index&quot;:null}"><path fill="#9b9b9b" d="m51.66 42.306-.12-3.595 4.192-.685.046 3.476z"/><path fill="#7f7f7f" d="m50.833 41.712-.12-3.596.854.595.12 3.595z"/><path fill="#a7a7a7" d="m55.699 38.026-4.131.684-.854-.579 4.02-.684z" data-paper-data="{&quot;index&quot;:null}"/></g><path fill="none" stroke="gray" stroke-linecap="round" stroke-width=".346665" d="M61.946 36.224s1.493 1.06.2 2.148c-.374.315-1.184.92-2.13 1.367a71 71 0 0 1-4.01 1.714c-1.117.44-2.918.59-4.413.546-1.76-.052-7.293-1.088-9.009-1.215-3.808-.28-7.792.635-9.677 1.065-2.584.59-3.966 2.298-3.966 2.298"/><path fill="none" stroke="#595959" stroke-linecap="round" stroke-width="1.0359390195" d="m61.703 36.27-.155-1.301"/></g></svg>