<svg xmlns="http://www.w3.org/2000/svg" xmlns:xlink="http://www.w3.org/1999/xlink" xml:space="preserve" width="27.986923" height="48.000004" viewBox="0 0 7.4048732 12.7"><defs><linearGradient id="a"><stop offset="0" style="stop-color:#ff8f1b;stop-opacity:1"/><stop offset="1" style="stop-color:#ff5600;stop-opacity:1"/></linearGradient><linearGradient xlink:href="#a" id="b" x1="68.386719" x2="71.962891" y1="32.751953" y2="38.242188" gradientTransform="translate(6.094 -79.188)scale(1.56024)" gradientUnits="userSpaceOnUse"/></defs><g style="stroke-width:.727284"><g style="stroke-width:.72685"><path d="M112.794-28.087h5.58v8.566l-.273.271h-5.036l-.27-.271z" style="fill:url(#b);fill-opacity:1;stroke:none;stroke-width:.744331;stroke-linejoin:round;stroke-dasharray:none;stroke-opacity:1" transform="matrix(1.04128 0 0 1.0225 -116.602 31.031)"/><path d="m112.794-28.087.72-1.606h4.14l.72 1.606z" style="fill:#9d9fa1;fill-opacity:1;stroke:none;stroke-width:.744331;stroke-linejoin:round;stroke-miterlimit:4;stroke-dasharray:none;stroke-opacity:1" transform="matrix(1.04128 0 0 1.0225 -116.602 31.031)"/><path d="m113.065-19.25.43.829h4.175l.431-.829z" style="fill:#9d9fa1;fill-opacity:1;fill-rule:nonzero;stroke:none;stroke-width:.744331;stroke-linejoin:round;stroke-miterlimit:4;stroke-dasharray:none;stroke-opacity:1" transform="matrix(1.04128 0 0 1.0225 -116.602 31.031)"/><g style="font-size:3.16802px;fill:#f3f3f3;stroke-width:.577572;stroke-linejoin:round"><path d="M113.823-25.713q.24 0 .458-.092.207-.086.385-.263.173-.171.261-.385.09-.213.09-.462 0 .242.085.453.085.21.266.394.167.17.385.263.217.092.458.092-.241 0-.458.09-.218.094-.385.264-.18.184-.266.394-.085.21-.085.454 0-.25-.09-.463-.088-.213-.261-.385-.178-.177-.385-.263-.218-.091-.458-.091" aria-label="Рюд" style="stroke-width:.577572" transform="matrix(1.61601 0 0 1.60388 -182.116 48.071)"/></g><path d="m112.428-19.698.656.653v.669h4.902v-.669l.656-.653v-8.358l-.733-1.04.216-.803h-5.179l.216.804-.734 1.039z" style="fill:none;fill-opacity:1;stroke:#232323;stroke-width:.8974;stroke-linejoin:round;stroke-miterlimit:4;stroke-dasharray:none;stroke-opacity:1" transform="matrix(1.04128 0 0 1.0225 -116.602 31.031)"/></g></g></svg>