<svg xmlns="http://www.w3.org/2000/svg" width="80" height="51" fill="none" viewBox="0 0 80 51"><path fill="#8B8C8E" stroke="#383838" stroke-linecap="round" stroke-linejoin="round" stroke-miterlimit="0" stroke-width="2" d="M78.433 22.912V9.372H58.416v13.54zm0 17.873v-5.922H56.85v5.922z"/><path fill="#BC8052" stroke="#5C3B24" stroke-linecap="round" stroke-linejoin="round" stroke-miterlimit="0" stroke-width="3" d="M67.25 1.594H45.86a4.154 4.154 0 0 0-4.154 4.154v38.66a4.154 4.154 0 0 0 4.154 4.154h21.39a4.154 4.154 0 0 0 4.155-4.154V5.748a4.154 4.154 0 0 0-4.154-4.154"/><path fill="#4D4D4D" stroke="#2E2E2E" stroke-linecap="round" stroke-linejoin="round" stroke-miterlimit="0" stroke-width="3" d="M45.782 1.5H6.249a4.154 4.154 0 0 0-4.154 4.154v38.848a4.154 4.154 0 0 0 4.154 4.154h39.533a4.154 4.154 0 0 0 4.154-4.154V5.654A4.154 4.154 0 0 0 45.782 1.5"/><path fill="#B89C47" stroke="#433A1A" stroke-linecap="round" stroke-linejoin="round" stroke-width="2" d="m6.323 19.973 29.66 13.666 1.687.759c-.845-2.94-2.453-9.508-2.519-9.529 1.923.687 10.555 3.643 10.555 3.77V20.21l-4.072-.855-14.76-3.597 2.124 7.712z"/></svg>