<svg xmlns="http://www.w3.org/2000/svg" xmlns:xlink="http://www.w3.org/1999/xlink" xml:space="preserve" width="64" height="64" viewBox="0 0 63.999998 64.000001"><defs><radialGradient id="a" cx="182.78966" cy="98.169563" r="3.52459" gradientTransform="translate(-88.511 -11.7)scale(.22894)" gradientUnits="userSpaceOnUse"><stop offset="0" stop-color="#929292"/><stop offset="1" stop-color="#5e5e5e"/></radialGradient><radialGradient id="b" cx="185.24609" cy="108.36381" r="3.52459" gradientTransform="translate(-88.511 -11.7)scale(.22894)" gradientUnits="userSpaceOnUse"><stop offset="0" stop-color="#929292"/><stop offset="1" stop-color="#5e5e5e"/></radialGradient><radialGradient xlink:href="#a" id="p" cx="182.78966" cy="98.169563" r="3.52459" gradientTransform="translate(-88.511 -11.7)scale(.22894)" gradientUnits="userSpaceOnUse"/><radialGradient xlink:href="#b" id="q" cx="185.24609" cy="108.36381" r="3.52459" gradientTransform="translate(-86.383 -11.832)scale(.22894)" gradientUnits="userSpaceOnUse"/><radialGradient xlink:href="#a" id="m" cx="182.78966" cy="98.169563" r="3.52459" gradientTransform="translate(-88.511 -11.7)scale(.22894)" gradientUnits="userSpaceOnUse"/><radialGradient xlink:href="#b" id="n" cx="185.24609" cy="108.36381" r="3.52459" gradientTransform="translate(-90.152 -10.857)scale(.22894)" gradientUnits="userSpaceOnUse"/><radialGradient xlink:href="#c" id="o" cx="185.24609" cy="108.36381" r="3.52459" gradientTransform="translate(-86.184 -11.62)scale(.22814)" gradientUnits="userSpaceOnUse"/><radialGradient id="c" cx="185.24609" cy="108.36381" r="3.52459" gradientTransform="translate(-88.511 -11.7)scale(.22894)" gradientUnits="userSpaceOnUse"><stop offset="0" stop-color="#929292"/><stop offset="1" stop-color="#5e5e5e"/></radialGradient><radialGradient xlink:href="#d" id="r" cx="185.24609" cy="108.36381" r="3.52459" gradientTransform="translate(-90.156 -10.781)scale(.22894)" gradientUnits="userSpaceOnUse"/><radialGradient id="d" cx="185.24609" cy="108.36381" r="3.52459" gradientTransform="translate(-88.511 -11.7)scale(.22894)" gradientUnits="userSpaceOnUse"><stop offset="0" stop-color="#929292"/><stop offset="1" stop-color="#5e5e5e"/></radialGradient><radialGradient xlink:href="#f" id="s" cx="185.24609" cy="108.36381" r="3.52459" gradientTransform="translate(-57.036 -18.46)scale(.22894)" gradientUnits="userSpaceOnUse"/><radialGradient id="f" cx="185.24609" cy="108.36381" r="3.52459" gradientTransform="translate(-88.511 -11.7)scale(.22894)" gradientUnits="userSpaceOnUse"><stop offset="0" stop-color="#929292"/><stop offset="1" stop-color="#5e5e5e"/></radialGradient><radialGradient xlink:href="#g" id="t" cx="185.24609" cy="108.36381" r="3.52459" gradientTransform="translate(-90.252 -18.382)scale(.22894)" gradientUnits="userSpaceOnUse"/><radialGradient id="g" cx="185.24609" cy="108.36381" r="3.52459" gradientTransform="translate(-88.511 -11.7)scale(.22894)" gradientUnits="userSpaceOnUse"><stop offset="0" stop-color="#929292"/><stop offset="1" stop-color="#5e5e5e"/></radialGradient><linearGradient id="h" x1="6717.355" x2="6769.5151" y1="4969.8755" y2="4973.1855" gradientTransform="matrix(.22 0 0 .22 -1481.6 -1047.17)" gradientUnits="userSpaceOnUse"><stop offset="0" style="stop-color:#000;stop-opacity:1"/><stop offset="1" style="stop-color:#4e4f55"/></linearGradient><linearGradient xlink:href="#h" id="w" x1="6717.355" x2="6769.5151" y1="4969.8755" y2="4973.1855" gradientTransform="matrix(.22 0 0 .22 -1481.6 -1047.17)" gradientUnits="userSpaceOnUse"/><linearGradient xlink:href="#h" id="x" x1="6717.355" x2="6769.5151" y1="4969.8755" y2="4973.1855" gradientTransform="matrix(.22 0 0 .22 -1481.6 -1047.17)" gradientUnits="userSpaceOnUse"/><linearGradient xlink:href="#h" id="i" x1="6717.355" x2="6769.5151" y1="4969.8755" y2="4973.1855" gradientTransform="matrix(.22 0 0 .22 -1481.6 -1047.17)" gradientUnits="userSpaceOnUse"/><linearGradient xlink:href="#h" id="l" x1="6717.355" x2="6769.5151" y1="4969.8755" y2="4973.1855" gradientTransform="matrix(.22 0 0 .22 -1481.6 -1047.17)" gradientUnits="userSpaceOnUse"/><linearGradient xlink:href="#h" id="j" x1="6717.355" x2="6769.5151" y1="4969.8755" y2="4973.1855" gradientTransform="matrix(.22 0 0 .22 -1481.6 -1047.17)" gradientUnits="userSpaceOnUse"/><linearGradient xlink:href="#h" id="k" x1="6717.355" x2="6769.5151" y1="4969.8755" y2="4973.1855" gradientTransform="matrix(.22 0 0 .22 -1481.6 -1047.17)" gradientUnits="userSpaceOnUse"/><clipPath id="v"><circle cy="-15" r="9.5"/><circle cy="-15" r="9.5" transform="rotate(120)"/><circle cy="-15" r="9.5" transform="rotate(-120)"/></clipPath><mask id="u" width="60" height="60" x="-30" y="-30" maskUnits="userSpaceOnUse"><path fill="#fff" d="M-27-27h54v54h-54Z"/><path d="M2-23v-4h-4v4M-.5-6v4h1v-4"/><circle cy="-15" r="10.5"/><g transform="rotate(120)"><path d="M2-23v-4h-4v4M-.5-6v4h1v-4"/><circle cy="-15" r="10.5"/></g><g transform="rotate(-120)"><path d="M2-23v-4h-4v4M-.5-6v4h1v-4"/><circle cy="-15" r="10.5"/></g><circle r="3"/></mask></defs><g style="stroke-width:1.00596"><path d="M11 53.3 8.7 42.1c-.1-.5.3-1 .8-1l5.5-.5c.2 0 .5.1.6.2l1.7 1.6c.1.1.2.3.2.4l2.1 9.5c.1.5-.2 1-.8 1l-7.1.5c-.3.2-.7-.1-.7-.5Z" style="fill:url(#i);stroke:#000;stroke-width:.56334;stroke-miterlimit:2.23;stroke-opacity:1" transform="matrix(-.97104 -.26176 -.26177 .9711 73.677 -8.949)"/><g style="stroke-width:1.00596"><g style="stroke-width:1.00596"><path d="m9.8 46.7-.5-2.8 7.9-1 .7 2.8z" class="st7" style="fill:#333438;stroke:#242424;stroke-width:.34;stroke-miterlimit:2.23" transform="matrix(-.97104 -.26176 -.26177 .9711 73.677 -8.949)"/><path d="m13 43.4.4 2.6" class="st8" style="fill:none;stroke:#242424;stroke-width:.34;stroke-linecap:round;stroke-miterlimit:2.23" transform="matrix(-.97104 -.26176 -.26177 .9711 73.677 -8.949)"/><path d="m10.9 51.7-.5-2.8 7.9-1 .6 2.7z" class="st7" style="fill:#333438;stroke:#242424;stroke-width:.34;stroke-miterlimit:2.23" transform="matrix(-.97104 -.26176 -.26177 .9711 73.677 -8.949)"/><path d="m14.2 48.5.5 2.7" class="st8" style="fill:none;stroke:#242424;stroke-width:.34;stroke-linecap:round;stroke-miterlimit:2.23" transform="matrix(-.97104 -.26176 -.26177 .9711 73.677 -8.949)"/></g><path d="M15.7 42.1c0 .4-.2.7-.6.8-.3 0-.6-.3-.6-.7s.2-.7.6-.8c.3 0 .5.3.6.7zm3 9.9c0 .4-.2.7-.6.8s-.6-.3-.6-.7.2-.7.6-.8.5.3.6.7zm-6 .7c0 .4-.2.7-.6.8-.3 0-.6-.3-.6-.7s.2-.7.6-.8c.3 0 .6.3.6.7zm-2.1-10.2c0 .4-.2.7-.6.8-.3 0-.6-.3-.6-.7s.2-.7.6-.8c.3 0 .6.3.6.7z" class="st9" style="fill:#1b1b1b;stroke:#141414;stroke-width:.22;stroke-miterlimit:2.23;stroke-opacity:1" transform="matrix(-.97104 -.26176 -.26177 .9711 73.677 -8.949)"/></g></g><g style="stroke-width:1.00596"><path d="M11 53.3 8.7 42.1c-.1-.5.3-1 .8-1l5.5-.5c.2 0 .5.1.6.2l1.7 1.6c.1.1.2.3.2.4l2.1 9.5c.1.5-.2 1-.8 1l-7.1.5c-.3.2-.7-.1-.7-.5Z" style="fill:url(#j);stroke:#000;stroke-width:.56334;stroke-miterlimit:2.23;stroke-opacity:1" transform="matrix(.97104 -.26176 .26177 .9711 -9.338 -9.302)"/><g style="stroke-width:1.00596"><g style="stroke-width:1.00596"><path d="m9.8 46.7-.5-2.8 7.9-1 .7 2.8z" class="st7" style="fill:#333438;stroke:#242424;stroke-width:.34;stroke-miterlimit:2.23" transform="matrix(.97104 -.26176 .26177 .9711 -9.338 -9.302)"/><path d="m13 43.4.4 2.6" class="st8" style="fill:none;stroke:#242424;stroke-width:.34;stroke-linecap:round;stroke-miterlimit:2.23" transform="matrix(.97104 -.26176 .26177 .9711 -9.338 -9.302)"/><path d="m10.9 51.7-.5-2.8 7.9-1 .6 2.7z" class="st7" style="fill:#333438;stroke:#242424;stroke-width:.34;stroke-miterlimit:2.23" transform="matrix(.97104 -.26176 .26177 .9711 -9.338 -9.302)"/><path d="m14.2 48.5.5 2.7" class="st8" style="fill:none;stroke:#242424;stroke-width:.34;stroke-linecap:round;stroke-miterlimit:2.23" transform="matrix(.97104 -.26176 .26177 .9711 -9.338 -9.302)"/></g><path d="M15.7 42.1c0 .4-.2.7-.6.8-.3 0-.6-.3-.6-.7s.2-.7.6-.8c.3 0 .5.3.6.7zm3 9.9c0 .4-.2.7-.6.8s-.6-.3-.6-.7.2-.7.6-.8.5.3.6.7zm-6 .7c0 .4-.2.7-.6.8-.3 0-.6-.3-.6-.7s.2-.7.6-.8c.3 0 .6.3.6.7zm-2.1-10.2c0 .4-.2.7-.6.8-.3 0-.6-.3-.6-.7s.2-.7.6-.8c.3 0 .6.3.6.7z" class="st9" style="fill:#1b1b1b;stroke:#141414;stroke-width:.22;stroke-miterlimit:2.23;stroke-opacity:1" transform="matrix(.97104 -.26176 .26177 .9711 -9.338 -9.302)"/></g></g><g style="stroke-width:1.00596"><path d="M11 53.3 8.7 42.1c-.1-.5.3-1 .8-1l5.5-.5c.2 0 .5.1.6.2l1.7 1.6c.1.1.2.3.2.4l2.1 9.5c.1.5-.2 1-.8 1l-7.1.5c-.3.2-.7-.1-.7-.5Z" style="fill:url(#k);stroke:#000;stroke-width:.56334;stroke-miterlimit:2.23;stroke-opacity:1" transform="matrix(.97104 -.26176 .26177 .9711 -8.857 .835)"/><g style="stroke-width:1.00596"><g style="stroke-width:1.00596"><path d="m9.8 46.7-.5-2.8 7.9-1 .7 2.8z" class="st7" style="fill:#333438;stroke:#242424;stroke-width:.34;stroke-miterlimit:2.23" transform="matrix(.97104 -.26176 .26177 .9711 -8.857 .835)"/><path d="m13 43.4.4 2.6" class="st8" style="fill:none;stroke:#242424;stroke-width:.34;stroke-linecap:round;stroke-miterlimit:2.23" transform="matrix(.97104 -.26176 .26177 .9711 -8.857 .835)"/><path d="m10.9 51.7-.5-2.8 7.9-1 .6 2.7z" class="st7" style="fill:#333438;stroke:#242424;stroke-width:.34;stroke-miterlimit:2.23" transform="matrix(.97104 -.26176 .26177 .9711 -8.857 .835)"/><path d="m14.2 48.5.5 2.7" class="st8" style="fill:none;stroke:#242424;stroke-width:.34;stroke-linecap:round;stroke-miterlimit:2.23" transform="matrix(.97104 -.26176 .26177 .9711 -8.857 .835)"/></g><path d="M15.7 42.1c0 .4-.2.7-.6.8-.3 0-.6-.3-.6-.7s.2-.7.6-.8c.3 0 .5.3.6.7zm3 9.9c0 .4-.2.7-.6.8s-.6-.3-.6-.7.2-.7.6-.8.5.3.6.7zm-6 .7c0 .4-.2.7-.6.8-.3 0-.6-.3-.6-.7s.2-.7.6-.8c.3 0 .6.3.6.7zm-2.1-10.2c0 .4-.2.7-.6.8-.3 0-.6-.3-.6-.7s.2-.7.6-.8c.3 0 .6.3.6.7z" class="st9" style="fill:#1b1b1b;stroke:#141414;stroke-width:.22;stroke-miterlimit:2.23;stroke-opacity:1" transform="matrix(.97104 -.26176 .26177 .9711 -8.857 .835)"/></g></g><g style="stroke-width:1.00596"><path d="M11 53.3 8.7 42.1c-.1-.5.3-1 .8-1l5.5-.5c.2 0 .5.1.6.2l1.7 1.6c.1.1.2.3.2.4l2.1 9.5c.1.5-.2 1-.8 1l-7.1.5c-.3.2-.7-.1-.7-.5Z" style="fill:url(#l);stroke:#000;stroke-width:.56334;stroke-miterlimit:2.23;stroke-opacity:1" transform="matrix(-.97104 -.26176 -.26177 .9711 72.88 .84)"/><g style="stroke-width:1.00596"><g style="stroke-width:1.00596"><path d="m9.8 46.7-.5-2.8 7.9-1 .7 2.8z" class="st7" style="fill:#333438;stroke:#242424;stroke-width:.34;stroke-miterlimit:2.23" transform="matrix(-.97104 -.26176 -.26177 .9711 72.88 .84)"/><path d="m13 43.4.4 2.6" class="st8" style="fill:none;stroke:#242424;stroke-width:.34;stroke-linecap:round;stroke-miterlimit:2.23" transform="matrix(-.97104 -.26176 -.26177 .9711 72.88 .84)"/><path d="m10.9 51.7-.5-2.8 7.9-1 .6 2.7z" class="st7" style="fill:#333438;stroke:#242424;stroke-width:.34;stroke-miterlimit:2.23" transform="matrix(-.97104 -.26176 -.26177 .9711 72.88 .84)"/><path d="m14.2 48.5.5 2.7" class="st8" style="fill:none;stroke:#242424;stroke-width:.34;stroke-linecap:round;stroke-miterlimit:2.23" transform="matrix(-.97104 -.26176 -.26177 .9711 72.88 .84)"/></g><path d="M15.7 42.1c0 .4-.2.7-.6.8-.3 0-.6-.3-.6-.7s.2-.7.6-.8c.3 0 .5.3.6.7zm3 9.9c0 .4-.2.7-.6.8s-.6-.3-.6-.7.2-.7.6-.8.5.3.6.7zm-6 .7c0 .4-.2.7-.6.8-.3 0-.6-.3-.6-.7s.2-.7.6-.8c.3 0 .6.3.6.7zm-2.1-10.2c0 .4-.2.7-.6.8-.3 0-.6-.3-.6-.7s.2-.7.6-.8c.3 0 .6.3.6.7z" class="st9" style="fill:#1b1b1b;stroke:#141414;stroke-width:.22;stroke-miterlimit:2.23;stroke-opacity:1" transform="matrix(-.97104 -.26176 -.26177 .9711 72.88 .84)"/></g></g><path d="M18.944 17.27c1.71-.604 3.319-.504 3.62.3.302.806-.804 2.012-2.514 2.616-1.71.603-3.319.503-3.62-.302-.302-.905.804-2.011 2.514-2.615z" class="st15" style="fill:none;stroke:#ababab;stroke-width:1.01172;stroke-miterlimit:2.23"/><path fill="#4d4b48" stroke="#000" stroke-width="0.641929" d="m-51.537 57.123.188-4.828.644.025-.188 4.828z" style="mix-blend-mode:normal;fill-rule:nonzero;stroke:#151514;stroke-width:1;stroke-linejoin:miter;stroke-miterlimit:10;stroke-dasharray:none;stroke-dashoffset:0;stroke-opacity:1" transform="matrix(-.91854 0 0 1.0026 3.117 -.092)"/><path fill="#686561" stroke="#000" stroke-width="0.770315" d="m-50.8 56.96.183-4.736c.014-.359.393-.721.627-.712l1.195.046-.241 6.208-1.058-.042c-.267-.01-.724-.317-.707-.764z" style="mix-blend-mode:normal;fill-rule:nonzero;stroke:#151514;stroke-width:1;stroke-linecap:butt;stroke-linejoin:miter;stroke-miterlimit:10;stroke-dasharray:none;stroke-dashoffset:0;stroke-opacity:1" transform="matrix(-.91854 0 0 1.0026 3.117 -.092)"/><path fill="#3d3c39" d="m-49.767 53.394.062-1.585 1.033.04-.061 1.585zm-.18 4.065.057-1.447 1.102.043-.056 1.447z" style="mix-blend-mode:normal;fill-rule:nonzero;stroke:#151514;stroke-linecap:butt;stroke-linejoin:miter;stroke-miterlimit:10;stroke-dasharray:none;stroke-dashoffset:0;stroke-opacity:1" transform="matrix(-.91854 0 0 1.0026 3.117 -.092)"/><path fill="#4d4b48" stroke="#000" stroke-width="0.641929" d="m-51.537 57.123.188-4.828.644.025-.188 4.828z" style="mix-blend-mode:normal;fill-rule:nonzero;stroke:#151514;stroke-width:1;stroke-linejoin:miter;stroke-miterlimit:10;stroke-dasharray:none;stroke-dashoffset:0;stroke-opacity:1" transform="matrix(.91854 0 0 1.0026 60.695 -.092)"/><path fill="#686561" stroke="#000" stroke-width="0.770315" d="m-50.8 56.96.183-4.736c.014-.359.393-.721.627-.712l1.195.046-.241 6.208-1.058-.042c-.267-.01-.724-.317-.707-.764z" style="mix-blend-mode:normal;fill-rule:nonzero;stroke:#151514;stroke-width:1;stroke-linecap:butt;stroke-linejoin:miter;stroke-miterlimit:10;stroke-dasharray:none;stroke-dashoffset:0;stroke-opacity:1" transform="matrix(.91854 0 0 1.0026 60.695 -.092)"/><path fill="#3d3c39" d="m-49.767 53.394.062-1.585 1.033.04-.061 1.585zm-.18 4.065.057-1.447 1.102.043-.056 1.447z" style="mix-blend-mode:normal;fill-rule:nonzero;stroke:#151514;stroke-linecap:butt;stroke-linejoin:miter;stroke-miterlimit:10;stroke-dasharray:none;stroke-dashoffset:0;stroke-opacity:1" transform="matrix(.91854 0 0 1.0026 60.695 -.092)"/><path d="m-51.887 1.832.05 1.842-1.901 1.297c.068.83 2.554 10.773 2.554 10.773l1.745 9.104c.116 2.852.13 5.67.166 8.076.038 2.5.184 5.666.128 9.4-.024 1.61.934 6.926.924 7.336-.14 5.845-.248 9.016-.248 9.016l2.862 1.154c.259.232.381.603.642.826a6.54 6.54 0 0 0 3.373 1.53c2.765.365 6.5 1.064 10.377 1.171h.02c3.878-.107 7.612-.806 10.377-1.171a6.55 6.55 0 0 0 3.375-1.53c.26-.223.381-.594.64-.826l2.862-1.154s-.108-3.17-.248-9.016c-.01-.41.948-5.727.923-7.336-.056-3.734.72-6.838.758-9.337.036-2.405-.58-5.287-.463-8.14l1.744-9.103S-8.74 5.801-8.672 4.971l-1.9-1.297.049-1.842c-.435-1.028-7.483-1.65-7.668-.793l-.455 2.106-1.971.414c-.286 3.467-.54 6.345-1.967 8.222-2.101 2.765-5.302 3.133-8.607 3.133h-.026c-3.304.08-6.508-.368-8.61-3.133-1.426-1.877-1.68-4.755-1.966-8.222l-1.969-.414-.455-2.106c-.15-.692-7.698-.287-7.67.793" style="mix-blend-mode:normal;fill:#4e0000;fill-opacity:1;fill-rule:nonzero;stroke:none;stroke-width:2.5;stroke-linejoin:miter;stroke-miterlimit:10;stroke-dasharray:none;stroke-dashoffset:0;stroke-opacity:1" transform="translate(63.097 .115)scale(.99653)"/><path d="m-40.047 15.477-8.17 4.09s1.453 6.42 1.564 10.308c.066 2.305.019 13.894-.07 17.888-.012.5 2.477.541 2.739 1.396.89 2.113.295 3.437.295 3.437l-3.862-.236-.121 4.739h-.23s3.21-.101 5.258-.066c.547.01.742 3.753.742 3.753l10.657.032h.08l10.657-.032s.195-3.744.742-3.753c2.048-.035 5.257.066 5.257.066h-.23l-.118-4.739-3.864.236s-.595-1.324.295-3.437c.262-.855 2.75-.896 2.74-1.396-.09-3.994-.137-15.583-.07-17.888.11-3.888 1.564-10.307 1.564-10.307l-8.171-4.091s-2.869 1.597-4.44 2.011c-1.42.375-2.919.398-4.387.399-1.479 0-2.988-.022-4.418-.399-1.57-.413-4.439-2.011-4.439-2.011" style="mix-blend-mode:normal;fill:#2b2222;fill-opacity:1;fill-rule:nonzero;stroke-width:.897937;stroke-linejoin:miter;stroke-miterlimit:10;stroke-dasharray:none;stroke-dashoffset:0" transform="translate(63.097 .115)scale(.99653)"/><path d="m-51.887 1.832.05 1.842-1.901 1.297c.068.83 2.554 10.773 2.554 10.773l1.745 9.104c.116 2.852-.372 6.173-.335 8.578.037 2.5.685 5.164.63 8.898-.025 1.61.933 6.926.923 7.336-.14 5.845-.248 9.016-.248 9.016l2.862 1.154c.259.232.381.603.642.826a6.54 6.54 0 0 0 3.373 1.53c2.765.365 6.5 1.064 10.377 1.171h.02c3.878-.107 7.612-.806 10.377-1.171a6.55 6.55 0 0 0 3.375-1.53c.26-.223.381-.594.64-.826l2.862-1.154s-.108-3.17-.248-9.016c-.01-.41.948-5.727.923-7.336-.056-3.734.97-6.524 1.008-9.024.037-2.405-.83-5.6-.713-8.452l1.744-9.104S-8.74 5.801-8.672 4.971l-1.9-1.297.049-1.842c-.435-1.028-7.483-1.65-7.668-.793l-.455 2.106-1.971.414c-.286 3.467-.54 6.345-1.967 8.222-2.101 2.765-5.302 3.133-8.607 3.133h-.026c-3.304.08-6.508-.368-8.61-3.133-1.426-1.877-1.68-4.755-1.966-8.222l-1.969-.414-.455-2.106c-.15-.692-7.698-.287-7.67.793z" style="mix-blend-mode:normal;fill:none;fill-opacity:1;fill-rule:nonzero;stroke:#2f0000;stroke-width:1.5;stroke-linejoin:miter;stroke-miterlimit:10;stroke-dasharray:none;stroke-dashoffset:0;stroke-opacity:1" transform="translate(63.097 .115)scale(.99653)"/><path fill="#c9c8c3" stroke="#4f4f4f" stroke-width="1.06897" d="M-38.46 39.17c.189.704.841 3.284 1.174 4.527.12.448-.159.741-.528.741-.993 0-5.578-.143-7.008-.143-.27 0-.427-.318-.427-.634v-4.733c0-.528.266-.864.686-.842l5.036.261c.412.021.967.45 1.067.823zm-.25-5.664c.188-.704.84-3.284 1.173-4.527.12-.448-.159-.74-.528-.74-.993 0-5.577.142-7.008.142-.27 0-.427.318-.427.634v4.733c0 .528.266.864.686.842l5.036-.26c.413-.022.967-.45 1.067-.824z" style="mix-blend-mode:normal;fill:#4d4d4d;fill-opacity:1;fill-rule:nonzero;stroke:#000;stroke-width:.636596;stroke-linecap:butt;stroke-linejoin:miter;stroke-miterlimit:10;stroke-dasharray:none;stroke-dashoffset:0;stroke-opacity:1" transform="translate(63.097 .115)scale(.99653)"/><path fill="#404d2e" d="m-48.586 18.065-3.14-11.839 1.138-.935.864-2.49 3.273-.217 1.3 2.04 1.439.579s.457 3.904 1.13 5.731c.46 1.248 1.951 3.48 1.951 3.48z" style="mix-blend-mode:normal;fill-rule:nonzero;stroke-linejoin:miter;stroke-miterlimit:10;stroke-dasharray:none;stroke-dashoffset:0;fill:#2f0000;fill-opacity:1" transform="translate(63.14 .115)scale(.99653)"/><path fill="none" stroke="#716e6a" stroke-width="0.801282" d="m-50.171 9.68-.373-1.963 5.685-1.08.373 1.963z" style="mix-blend-mode:normal;fill-rule:nonzero;stroke-linejoin:miter;stroke-miterlimit:10;stroke-dasharray:none;stroke-dashoffset:0" transform="translate(63.14 .115)scale(.99653)"/><path fill="#29321e" d="m-49.837 8.953-.97-4.581 4.856-.246.9 3.755z" style="mix-blend-mode:normal;fill-rule:nonzero;stroke-linejoin:miter;stroke-miterlimit:10;stroke-dasharray:none;stroke-dashoffset:0;fill:#000;fill-opacity:1" transform="translate(63.14 .115)scale(.99653)"/><path fill="url(#a)" stroke="#3c3c3c" stroke-width="0.572345" d="M-46.664 11.577a.807.807 0 1 1 0-1.614.807.807 0 0 1 0 1.614z" data-paper-data="{&quot;index&quot;:null}" style="mix-blend-mode:normal;fill:url(#m);fill-rule:nonzero;stroke-linejoin:miter;stroke-miterlimit:10;stroke-dasharray:none;stroke-dashoffset:0" transform="translate(63.14 .115)scale(.99653)"/><path fill="url(#b)" stroke="#3c3c3c" stroke-width="0.572345" d="M-47.75 14.727a.807.807 0 1 1 0-1.614.807.807 0 0 1 0 1.614z" data-paper-data="{&quot;index&quot;:null}" style="mix-blend-mode:normal;fill:url(#n);fill-rule:nonzero;stroke-linejoin:miter;stroke-miterlimit:10;stroke-dasharray:none;stroke-dashoffset:0" transform="translate(63.14 .115)scale(.99653)"/><path fill="url(#b)" stroke="#3c3c3c" stroke-width="0.570358" d="M-43.93 13.874a.804.804 0 1 1 0-1.608.804.804 0 0 1 0 1.608z" data-paper-data="{&quot;index&quot;:null}" style="mix-blend-mode:normal;fill:url(#o);fill-rule:nonzero;stroke-linejoin:miter;stroke-miterlimit:10;stroke-dasharray:none;stroke-dashoffset:0" transform="translate(63.14 .115)scale(.99653)"/><path fill="#404d2e" d="m-48.586 18.065-3.14-11.839 1.138-.935.864-2.49 3.273-.217 1.3 2.04 1.439.579s.457 3.904 1.13 5.731c.46 1.248 1.951 3.48 1.951 3.48z" style="mix-blend-mode:normal;fill-rule:nonzero;stroke-linejoin:miter;stroke-miterlimit:10;stroke-dasharray:none;stroke-dashoffset:0;fill:#2f0000;fill-opacity:1" transform="matrix(-.99653 0 0 .99653 .86 .115)"/><path fill="none" stroke="#716e6a" stroke-width="0.801282" d="m-50.171 9.68-.373-1.963 5.685-1.08.373 1.963z" style="mix-blend-mode:normal;fill-rule:nonzero;stroke-linejoin:miter;stroke-miterlimit:10;stroke-dasharray:none;stroke-dashoffset:0" transform="matrix(-.99653 0 0 .99653 .86 .115)"/><path fill="#29321e" d="m-49.837 8.953-.97-4.581 4.856-.246.9 3.755z" style="mix-blend-mode:normal;fill-rule:nonzero;stroke-linejoin:miter;stroke-miterlimit:10;stroke-dasharray:none;stroke-dashoffset:0;fill:#000;fill-opacity:1" transform="matrix(-.99653 0 0 .99653 .86 .115)"/><path fill="url(#a)" stroke="#3c3c3c" stroke-width="0.572345" d="M-46.664 11.577a.807.807 0 1 1 0-1.614.807.807 0 0 1 0 1.614z" data-paper-data="{&quot;index&quot;:null}" style="mix-blend-mode:normal;fill:url(#p);fill-rule:nonzero;stroke-linejoin:miter;stroke-miterlimit:10;stroke-dasharray:none;stroke-dashoffset:0" transform="matrix(-.99653 0 0 .99653 .86 .115)"/><path fill="url(#b)" stroke="#3c3c3c" stroke-width="0.572345" d="M-43.98 13.751a.807.807 0 1 1 0-1.614.807.807 0 0 1 0 1.614z" data-paper-data="{&quot;index&quot;:null}" style="mix-blend-mode:normal;fill:url(#q);fill-rule:nonzero;stroke-linejoin:miter;stroke-miterlimit:10;stroke-dasharray:none;stroke-dashoffset:0" transform="matrix(-.99653 0 0 .99653 .86 .115)"/><path fill="url(#b)" stroke="#3c3c3c" stroke-width="0.572345" d="M-47.754 14.802a.807.807 0 1 1 0-1.613.807.807 0 0 1 0 1.613z" data-paper-data="{&quot;index&quot;:null}" style="mix-blend-mode:normal;fill:url(#r);fill-rule:nonzero;stroke-linejoin:miter;stroke-miterlimit:10;stroke-dasharray:none;stroke-dashoffset:0" transform="matrix(-.99653 0 0 .99653 .86 .115)"/><path fill="url(#b)" stroke="#3c3c3c" stroke-width="0.572345" d="M-14.634 7.124a.807.807 0 1 1 0-1.614.807.807 0 0 1 0 1.614z" data-paper-data="{&quot;index&quot;:null}" style="mix-blend-mode:normal;fill:url(#s);fill-rule:nonzero;stroke-linejoin:miter;stroke-miterlimit:10;stroke-dasharray:none;stroke-dashoffset:0" transform="matrix(-.99653 0 0 .99653 .86 .115)"/><path fill="url(#b)" stroke="#3c3c3c" stroke-width="0.572345" d="M-47.85 7.202a.807.807 0 1 1 0-1.614.807.807 0 0 1 0 1.614z" data-paper-data="{&quot;index&quot;:null}" style="mix-blend-mode:normal;fill:url(#t);fill-rule:nonzero;stroke-linejoin:miter;stroke-miterlimit:10;stroke-dasharray:none;stroke-dashoffset:0" transform="matrix(-.99653 0 0 .99653 .86 .115)"/><g fill="none" stroke="#343f26" stroke-linecap="round" stroke-width="0.513543"><path d="m-43.887 51.713 1.289 6.291" style="mix-blend-mode:normal;fill:#343f26;fill-opacity:1;fill-rule:nonzero;stroke-width:1;stroke-linejoin:miter;stroke-miterlimit:10;stroke-dasharray:none;stroke-dashoffset:0;stroke:#000;stroke-opacity:1" transform="matrix(1.02557 0 0 .9944 64.047 .23)"/><path d="m-18.61 51.713-1.288 6.291" style="mix-blend-mode:normal;fill:#000;fill-opacity:1;fill-rule:nonzero;stroke-width:1;stroke-linejoin:miter;stroke-miterlimit:10;stroke-dasharray:none;stroke-dashoffset:0;stroke:#000;stroke-opacity:1" transform="matrix(1.02557 0 0 .9944 64.047 .23)"/><path d="m-14.963 31.377-.213 6.278m-32.141-6.245-.213 6.277" style="mix-blend-mode:normal;fill:#000;fill-opacity:1;fill-rule:nonzero;stroke:#000;stroke-width:1.01339;stroke-linejoin:miter;stroke-miterlimit:10;stroke-dasharray:none;stroke-dashoffset:0;stroke-opacity:1" transform="matrix(1.02557 0 0 .9944 64.047 .23)"/></g><g transform="matrix(.21495 0 0 .20533 31.355 35.504)"><circle cx="4.7338104" cy="2.7338104" r="29.48381" style="fill:#fff;fill-opacity:1;stroke:#000;stroke-width:3.75;stroke-linejoin:round;stroke-miterlimit:4;stroke-dasharray:none;stroke-opacity:1"/><circle cx="4.7338099" cy="2.7338099" r="28.553837" style="fill:none;fill-opacity:1;stroke:#000;stroke-width:3;stroke-linejoin:round;stroke-miterlimit:4;stroke-dasharray:none;stroke-opacity:1"/><g transform="translate(4.734 2.616)scale(.93777)"><g mask="url(#u)" style="fill:#ff7500;fill-opacity:1;stroke:none;stroke-opacity:1"><circle cy="-11" r="15" style="fill:#2b2222;fill-opacity:1;stroke:none;stroke-opacity:1"/><circle cy="-11" r="15" style="fill:#2b2222;fill-opacity:1;stroke:none;stroke-opacity:1" transform="rotate(120)"/><circle cy="-11" r="15" style="fill:#2b2222;fill-opacity:1;stroke:none;stroke-opacity:1" transform="rotate(-120)"/></g><circle r="11.75" fill="none" stroke="#000" stroke-width="3.5" clip-path="url(#v)" style="stroke:#484848;stroke-opacity:1"/></g></g><path fill="#c9c8c3" stroke="#4f4f4f" stroke-width="1.06897" d="M-23.226 33.255c-.189-.704-.841-3.284-1.174-4.527-.12-.448.159-.74.528-.74.993 0 5.578.142 7.008.142.27 0 .427.318.427.635v4.732c0 .528-.266.864-.686.843l-5.036-.262c-.413-.021-.967-.45-1.067-.823zm-.063 6.291c-.188.704-.841 3.284-1.174 4.527-.12.448.159.741.528.741.993 0 5.578-.143 7.008-.143.27 0 .427-.318.427-.634v-4.732c0-.528-.266-.865-.686-.843-1.336.07-4.225.22-5.036.261-.412.022-.967.45-1.067.823z" style="mix-blend-mode:normal;fill:#4d4d4d;fill-opacity:1;fill-rule:nonzero;stroke:#000;stroke-width:.636596;stroke-linecap:butt;stroke-linejoin:miter;stroke-miterlimit:10;stroke-dasharray:none;stroke-dashoffset:0;stroke-opacity:1" transform="translate(63.097 .115)scale(.99653)"/><path fill="#bbbbb9" stroke="#4f4f4f" stroke-width="1.06897" d="m34.904 46.387-5.27-.074c-.28-.003-.548-.284-.543-.64l.02-1.437c.003-.22.314-.486.624-.482l5.197.073c.345.005.554.28.55.625l-.019 1.272c-.004.28-.219.668-.56.663z" data-paper-data="{&quot;index&quot;:null}" style="mix-blend-mode:normal;fill:#4d4d4d;fill-opacity:1;fill-rule:nonzero;stroke:#000;stroke-width:.999997;stroke-linecap:butt;stroke-linejoin:miter;stroke-miterlimit:10;stroke-dasharray:none;stroke-dashoffset:0;stroke-opacity:1"/><path fill="#bbbbb9" stroke="#4f4f4f" stroke-width="1.06897" d="m25.81 25.978-3.637.922a.4.4 0 0 1-.478-.288l-.218-.874c-.033-.134.137-.353.351-.407l3.588-.91c.238-.06.427.068.48.278l.193.774c.042.17-.043.445-.278.505zm17.678-.396c-.902-.23-3.137-.796-3.637-.923a.4.4 0 0 0-.478.288l-.219.874c-.033.134.138.353.352.407l3.588.91c.238.06.426-.068.479-.278l.193-.774c.043-.17-.043-.445-.278-.504z" data-paper-data="{&quot;index&quot;:null}" style="mix-blend-mode:normal;fill:#4d4d4d;fill-opacity:1;fill-rule:nonzero;stroke:#000;stroke-width:.668319;stroke-linecap:butt;stroke-linejoin:miter;stroke-miterlimit:10;stroke-dasharray:none;stroke-dashoffset:0;stroke-opacity:1"/><path fill="#c9c8c3" stroke="#4f4f4f" stroke-width="1.06897" d="M33.958 26.647c-.115-.407-.512-1.898-.714-2.616-.073-.259.097-.428.321-.428.604 0 3.393.083 4.263.083.164 0 .26.183.26.366v2.735c0 .305-.162.5-.417.487l-3.064-.151c-.25-.013-.588-.26-.649-.476zm-.232-4.436c-.115-.407-.512-1.898-.715-2.616-.073-.259.097-.428.321-.428.605 0 3.394.083 4.264.083.164 0 .26.183.26.366v2.735c0 .305-.162.5-.418.487l-3.063-.151c-.251-.013-.589-.26-.65-.476zm-2.286.066c.116-.407.513-1.898.715-2.616.073-.259-.097-.428-.321-.428-.604 0-3.393.083-4.263.083-.164 0-.26.183-.26.366v2.735c0 .305.162.5.417.487l3.064-.151c.25-.013.588-.26.649-.476zm-.033 4.508c.115-.407.512-1.898.714-2.616.073-.26-.096-.428-.32-.428-.605 0-3.394.082-4.264.082-.164 0-.26.184-.26.367v2.735c0 .305.162.499.418.486l3.063-.15c.25-.013.588-.26.65-.476z" style="mix-blend-mode:normal;fill:#4d4d4d;fill-opacity:1;fill-rule:nonzero;stroke:#000;stroke-width:.377432;stroke-linecap:butt;stroke-linejoin:miter;stroke-miterlimit:10;stroke-dasharray:none;stroke-dashoffset:0;stroke-opacity:1"/><g style="stroke-width:1.00596"><path d="M11 53.3 8.7 42.1c-.1-.5.3-1 .8-1l5.5-.5c.2 0 .5.1.6.2l1.7 1.6c.1.1.2.3.2.4l2.1 9.5c.1.5-.2 1-.8 1l-7.1.5c-.3.2-.7-.1-.7-.5Z" style="fill:url(#w);stroke:#000;stroke-width:.56334;stroke-miterlimit:2.23;stroke-opacity:1" transform="matrix(-1.0057 0 0 1.00575 52.64 5.825)"/><g style="stroke-width:1.00596"><g style="stroke-width:1.00596"><path d="m9.8 46.7-.5-2.8 7.9-1 .7 2.8z" class="st7" style="fill:#333438;stroke:#242424;stroke-width:.34;stroke-miterlimit:2.23" transform="matrix(-1.0057 0 0 1.00575 52.64 5.825)"/><path d="m13 43.4.4 2.6" class="st8" style="fill:none;stroke:#242424;stroke-width:.34;stroke-linecap:round;stroke-miterlimit:2.23" transform="matrix(-1.0057 0 0 1.00575 52.64 5.825)"/><path d="m10.9 51.7-.5-2.8 7.9-1 .6 2.7z" class="st7" style="fill:#333438;stroke:#242424;stroke-width:.34;stroke-miterlimit:2.23" transform="matrix(-1.0057 0 0 1.00575 52.64 5.825)"/><path d="m14.2 48.5.5 2.7" class="st8" style="fill:none;stroke:#242424;stroke-width:.34;stroke-linecap:round;stroke-miterlimit:2.23" transform="matrix(-1.0057 0 0 1.00575 52.64 5.825)"/></g><path d="M15.7 42.1c0 .4-.2.7-.6.8-.3 0-.6-.3-.6-.7s.2-.7.6-.8c.3 0 .5.3.6.7zm3 9.9c0 .4-.2.7-.6.8s-.6-.3-.6-.7.2-.7.6-.8.5.3.6.7zm-6 .7c0 .4-.2.7-.6.8-.3 0-.6-.3-.6-.7s.2-.7.6-.8c.3 0 .6.3.6.7zm-2.1-10.2c0 .4-.2.7-.6.8-.3 0-.6-.3-.6-.7s.2-.7.6-.8c.3 0 .6.3.6.7z" class="st9" style="fill:#1b1b1b;stroke:#141414;stroke-width:.22;stroke-miterlimit:2.23;stroke-opacity:1" transform="matrix(-1.0057 0 0 1.00575 52.64 5.825)"/></g></g><g style="stroke-width:1.00596"><path d="M11 53.3 8.7 42.1c-.1-.5.3-1 .8-1l5.5-.5c.2 0 .5.1.6.2l1.7 1.6c.1.1.2.3.2.4l2.1 9.5c.1.5-.2 1-.8 1l-7.1.5c-.3.2-.7-.1-.7-.5Z" style="fill:url(#x);stroke:#000;stroke-width:.56334;stroke-miterlimit:2.23;stroke-opacity:1" transform="matrix(1.0057 0 0 1.00575 11.081 6.043)"/><g style="stroke-width:1.00596"><g style="stroke-width:1.00596"><path d="m9.8 46.7-.5-2.8 7.9-1 .7 2.8z" class="st7" style="fill:#333438;stroke:#242424;stroke-width:.34;stroke-miterlimit:2.23" transform="matrix(1.0057 0 0 1.00575 11.081 6.043)"/><path d="m13 43.4.4 2.6" class="st8" style="fill:none;stroke:#242424;stroke-width:.34;stroke-linecap:round;stroke-miterlimit:2.23" transform="matrix(1.0057 0 0 1.00575 11.081 6.043)"/><path d="m10.9 51.7-.5-2.8 7.9-1 .6 2.7z" class="st7" style="fill:#333438;stroke:#242424;stroke-width:.34;stroke-miterlimit:2.23" transform="matrix(1.0057 0 0 1.00575 11.081 6.043)"/><path d="m14.2 48.5.5 2.7" class="st8" style="fill:none;stroke:#242424;stroke-width:.34;stroke-linecap:round;stroke-miterlimit:2.23" transform="matrix(1.0057 0 0 1.00575 11.081 6.043)"/></g><path d="M15.7 42.1c0 .4-.2.7-.6.8-.3 0-.6-.3-.6-.7s.2-.7.6-.8c.3 0 .5.3.6.7zm3 9.9c0 .4-.2.7-.6.8s-.6-.3-.6-.7.2-.7.6-.8.5.3.6.7zm-6 .7c0 .4-.2.7-.6.8-.3 0-.6-.3-.6-.7s.2-.7.6-.8c.3 0 .6.3.6.7zm-2.1-10.2c0 .4-.2.7-.6.8-.3 0-.6-.3-.6-.7s.2-.7.6-.8c.3 0 .6.3.6.7z" class="st9" style="fill:#1b1b1b;stroke:#141414;stroke-width:.22;stroke-miterlimit:2.23;stroke-opacity:1" transform="matrix(1.0057 0 0 1.00575 11.081 6.043)"/></g></g><g style="stroke-width:1.00596"><path d="m1.1 20.4.9-6.1c0-.2.1-.3.2-.5l2-1.4L13.3 8c.4-.2.9-.1 1.2.2l4.4 3.8c.2.2.4.5.4.8l.1 4.6c0 .6-.4 1.1-1 1.1l-1.8.2c-.4 0-.7.3-.9.6l-.7 1.3c-.1.2-.3.4-.6.5L7 24.3c-.4.2-.8.1-1.1-.1l-4.5-3c-.1 0-.3-.4-.3-.8z" class="st13" style="fill:#4d4d4d;stroke:#000;stroke-width:.45;stroke-miterlimit:2.23;stroke-opacity:1;fill-opacity:1" transform="matrix(.47872 0 0 .49793 15.959 12.926)"/><path d="M3.1 14.3c0-.4.3-.7.7-.7s.7.3.7.7-.3.7-.7.7-.7-.3-.7-.7Zm-1 6c0-.4.3-.7.7-.7s.7.3.7.7-.3.7-.7.7-.7-.3-.7-.7Zm3.7 2.9c0-.4.3-.7.7-.7s.7.3.7.7-.2.7-.6.7-.8-.3-.8-.7zm6.8-3.5c0-.4.3-.7.7-.7s.7.3.7.7-.3.7-.7.7-.7-.3-.7-.7zm4-2.6c0-.4.3-.7.7-.7s.7.3.7.7-.3.7-.7.7-.7-.3-.7-.7zm-3.1-6.8c0-.4.3-.7.7-.7s.7.3.7.7-.3.7-.7.7-.7-.3-.7-.7zm2.7 3.3c0-.4.3-.7.7-.7s.7.3.7.7-.3.7-.7.7-.7-.3-.7-.7z" class="st14" style="fill:gray;stroke:#141414;stroke-width:.22;stroke-miterlimit:2.23;stroke-opacity:1" transform="matrix(.47872 0 0 .49793 15.959 12.926)"/></g><path d="M39.646 16.84c0-.198.144-.348.336-.348.191 0 .335.15.335.349s-.144.348-.335.348-.336-.149-.336-.348zm10.47 12c0-.2.144-.349.335-.349s.335.15.335.349-.143.348-.335.348a.334.334 0 0 1-.335-.348z" class="st14" style="fill:gray;stroke:#141414;stroke-width:.107411;stroke-miterlimit:2.23;stroke-opacity:1"/><g style="stroke-width:1.00596"><path d="m1.1 20.4.9-6.1c0-.2.1-.3.2-.5l2-1.4L13.3 8c.4-.2.9-.1 1.2.2l4.4 3.8c.2.2.4.5.4.8l.1 4.6c0 .6-.4 1.1-1 1.1l-1.8.2c-.4 0-.7.3-.9.6l-.7 1.3c-.1.2-.3.4-.6.5L7 24.3c-.4.2-.8.1-1.1-.1l-4.5-3c-.1 0-.3-.4-.3-.8z" class="st13" style="fill:#4d4d4d;stroke:#000;stroke-width:.45;stroke-miterlimit:2.23;stroke-opacity:1;fill-opacity:1" transform="matrix(-.47872 0 0 .49793 47.895 13.056)"/><path d="M3.1 14.3c0-.4.3-.7.7-.7s.7.3.7.7-.3.7-.7.7-.7-.3-.7-.7Zm-1 6c0-.4.3-.7.7-.7s.7.3.7.7-.3.7-.7.7-.7-.3-.7-.7Zm3.7 2.9c0-.4.3-.7.7-.7s.7.3.7.7-.2.7-.6.7-.8-.3-.8-.7zm6.8-3.5c0-.4.3-.7.7-.7s.7.3.7.7-.3.7-.7.7-.7-.3-.7-.7zm4-2.6c0-.4.3-.7.7-.7s.7.3.7.7-.3.7-.7.7-.7-.3-.7-.7zm-3.1-6.8c0-.4.3-.7.7-.7s.7.3.7.7-.3.7-.7.7-.7-.3-.7-.7zm2.7 3.3c0-.4.3-.7.7-.7s.7.3.7.7-.3.7-.7.7-.7-.3-.7-.7z" class="st14" style="fill:gray;stroke:#141414;stroke-width:.22;stroke-miterlimit:2.23;stroke-opacity:1" transform="matrix(-.47872 0 0 .49793 47.895 13.056)"/></g><path d="M23.355 16.763c0-.2.144-.349.335-.349s.335.15.335.349c0 .2-.143.348-.335.348-.191 0-.335-.149-.335-.348zm8.885 4.859c0-.2.144-.348.335-.348s.335.149.335.348c0 .2-.143.349-.335.349-.191 0-.335-.15-.335-.349zm.063 1.063c0-.2.143-.349.335-.349.191 0 .335.15.335.349s-.144.348-.335.348-.335-.15-.335-.348zm-.218 7.338c0-.2.144-.349.336-.349.191 0 .335.15.335.349a.335.335 0 1 1-.671 0zm.1 12.07c0-.2.144-.349.335-.349s.335.15.335.349-.143.348-.335.348a.334.334 0 0 1-.335-.348zm-6.475-6.126c0-.199.144-.348.336-.348.191 0 .335.15.335.348 0 .2-.144.349-.335.349s-.335-.15-.335-.349zm12.629.188c0-.2.143-.349.335-.349.191 0 .335.15.335.349s-.144.348-.335.348-.335-.15-.335-.348zm-19.943-6.752c0-.199.144-.348.336-.348.191 0 .335.15.335.348a.335.335 0 1 1-.671 0zm4.719 3.813c0-.2.144-.349.335-.349s.335.15.335.349-.143.348-.335.348c-.191 0-.335-.149-.335-.348zm-4.444 5.889c0-.2.144-.349.335-.349s.335.15.335.349-.143.348-.335.348c-.191 0-.335-.149-.335-.348zm5.685 4.32c0-.2.144-.349.335-.349s.335.15.335.349c0 .2-.143.349-.335.349-.191 0-.335-.15-.335-.349zm16.29-3.585c0-.198.144-.348.336-.348.191 0 .335.15.335.349s-.144.348-.335.348-.336-.149-.336-.348zm4.688 3.782c0-.2.144-.348.335-.348s.335.149.335.348c0 .2-.143.349-.335.349-.191 0-.335-.15-.335-.349zm-5.688-14.437c0-.2.144-.349.336-.349.191 0 .335.15.335.349s-.144.348-.335.348-.336-.15-.336-.348zm5.657 4.031c0-.2.143-.349.335-.349.191 0 .335.15.335.349s-.144.348-.335.348-.335-.149-.335-.348zm-4.438-.094c0-.2.144-.348.335-.348s.335.149.335.348c0 .2-.143.349-.335.349-.191 0-.335-.15-.335-.349zm4.281-3.782c0-.198.144-.348.336-.348.191 0 .335.15.335.349s-.144.348-.335.348-.336-.149-.336-.348zm.094 10.282c0-.2.144-.348.335-.348s.335.149.335.348c0 .2-.143.349-.335.349-.191 0-.335-.15-.335-.349zm-5.562 4.218c0-.198.143-.348.335-.348.191 0 .335.15.335.349s-.144.348-.335.348-.335-.149-.335-.348zm-20.938-.5c0-.198.144-.348.335-.348s.335.15.335.349-.143.348-.335.348c-.191 0-.335-.149-.335-.348zm4.469-3.718c0-.2.144-.348.335-.348s.335.149.335.348c0 .2-.143.349-.335.349-.191 0-.335-.15-.335-.349zm-4.719-5.969c0-.199.144-.348.335-.348s.335.15.335.348c0 .2-.143.349-.335.349-.191 0-.335-.15-.335-.349zm5.375-4.218c0-.2.144-.349.335-.349s.335.15.335.349-.143.348-.335.348a.334.334 0 0 1-.335-.348zm6.125 15.593c0-.199.144-.348.335-.348s.335.15.335.348c0 .2-.143.349-.335.349-.191 0-.335-.15-.335-.349zm3.75.032c0-.2.144-.349.335-.349s.335.15.335.349-.143.348-.335.348a.334.334 0 0 1-.335-.348zm-6-24.907c0-.199.144-.348.335-.348s.335.15.335.348c0 .2-.143.349-.335.349-.191 0-.335-.15-.335-.349zm3 0c0-.199.144-.348.335-.348s.335.15.335.348c0 .2-.143.349-.335.349-.191 0-.335-.15-.335-.349zm-2.937 1.969c0-.2.143-.348.335-.348.191 0 .335.149.335.348 0 .2-.144.349-.335.349s-.335-.15-.335-.349zm-.125 2.5c0-.2.143-.348.335-.348.191 0 .335.149.335.348 0 .2-.144.349-.335.349s-.335-.15-.335-.349zm2.625-2.656c0-.2.143-.349.335-.349.191 0 .335.15.335.349s-.144.348-.335.348-.335-.149-.335-.348zm3.812-.094c0-.2.144-.348.335-.348s.335.149.335.348c0 .2-.143.349-.335.349-.191 0-.335-.15-.335-.349zm-1.75 2.688c0-.2.144-.349.335-.349s.335.15.335.349-.143.348-.335.348a.334.334 0 0 1-.335-.348zm.031 1.437c0-.2.144-.348.336-.348.191 0 .335.149.335.348a.335.335 0 1 1-.671 0zm1.407-1.562c0-.2.143-.349.335-.349.191 0 .335.15.335.349s-.144.348-.335.348-.335-.15-.335-.348zm.687 1.75c0-.2.144-.349.335-.349s.335.15.335.349-.143.348-.335.348a.334.334 0 0 1-.335-.348zm2.25-1.625c0-.2.144-.349.335-.349s.335.15.335.349-.143.348-.335.348a.334.334 0 0 1-.335-.348zm.125 1.718c0-.199.144-.348.335-.348s.335.15.335.348c0 .2-.143.349-.335.349-.191 0-.335-.15-.335-.349zm-9.062.344c0-.2.143-.348.335-.348.191 0 .335.149.335.348 0 .2-.144.349-.335.349s-.335-.15-.335-.349zm2.437-.125c0-.2.144-.348.335-.348s.335.149.335.348c0 .2-.143.349-.335.349-.191 0-.335-.15-.335-.349zm.406-1.907c0-.198.144-.348.336-.348.191 0 .335.15.335.349s-.144.348-.335.348-.336-.149-.336-.348zm2.938-4.655c0-.2.144-.349.335-.349s.335.15.335.349-.143.348-.335.348a.334.334 0 0 1-.335-.348zm3.031.187c0-.2.144-.348.335-.348s.335.149.335.348c0 .2-.143.349-.335.349-.191 0-.335-.15-.335-.349zm.063 1.844c0-.2.143-.349.335-.349.191 0 .335.15.335.349s-.144.348-.335.348-.335-.149-.335-.348zM50.21 35.309c0-.2.144-.349.335-.349s.335.15.335.349-.143.348-.335.348a.334.334 0 0 1-.335-.348zm-.563 2.656c0-.2.144-.349.336-.349.191 0 .335.15.335.349s-.144.348-.335.348-.336-.15-.336-.348zm-.625 7.781c0-.2.144-.349.336-.349.191 0 .335.15.335.349a.335.335 0 1 1-.671 0zm-35.156-7.875c0-.2.144-.349.335-.349s.335.15.335.349c0 .2-.143.349-.335.349-.191 0-.335-.15-.335-.349zm-.531-3.219c0 .2.144.349.335.349s.335-.15.335-.349-.143-.348-.335-.348a.334.334 0 0 0-.335.348zm.125-6.937c0-.2.144-.349.335-.349s.335.15.335.349-.143.348-.335.348a.334.334 0 0 1-.335-.348zm.75 18.062c0-.199.144-.348.335-.348s.335.15.335.348c0 .2-.143.349-.335.349-.191 0-.335-.15-.335-.349z" class="st14" style="fill:gray;stroke:#141414;stroke-width:.107411;stroke-miterlimit:2.23;stroke-opacity:1"/></svg>