<svg xmlns="http://www.w3.org/2000/svg" width="73" height="50" fill="none" viewBox="0 0 73 50"><path fill="#D16161" stroke="#4F1717" stroke-linecap="round" stroke-linejoin="round" stroke-miterlimit="10" stroke-width="2.69032" d="M66.965 1.345H5.963A4.154 4.154 0 0 0 1.81 5.5v38.848a4.154 4.154 0 0 0 4.153 4.154h61.002a4.154 4.154 0 0 0 4.154-4.154V5.5a4.154 4.154 0 0 0-4.154-4.154"/><path fill="#D16161" stroke="#4F1717" stroke-linecap="round" stroke-linejoin="round" stroke-width="1.38461" d="M64.157 11.077a2.77 2.77 0 1 0 0-5.538 2.77 2.77 0 0 0 0 5.538m0 33.231a2.77 2.77 0 1 0 0-5.539 2.77 2.77 0 0 0 0 5.539m-55.385 0a2.77 2.77 0 1 0 0-5.539 2.77 2.77 0 0 0 0 5.539m0-33.231a2.77 2.77 0 1 0 0-5.539 2.77 2.77 0 0 0 0 5.539"/><path stroke="#4F1717" stroke-linecap="round" stroke-linejoin="round" stroke-width="2.69102" d="m28.245 33.143-8.629 8.63m27.949-21.467-6.483-6.483-15.84 15.84 6.483 6.482zM27.676 27.96l9.073 2.43m-4.881-6.621 9.073 2.43m-4.883-6.621 9.073 2.431"/><path stroke="#4F1717" stroke-linecap="round" stroke-linejoin="round" stroke-width="2.69102" d="m53.314 8.074-4.373 13.485-9.112-9.112z" clip-rule="evenodd"/></svg>