<svg xmlns="http://www.w3.org/2000/svg" xml:space="preserve" width="63.999794" height="37.969971" viewBox="0 0 16.933278 10.046222"><g transform="matrix(2.5293 0 0 2.51461 -275.648 69.254)"><path d="M111.48-27.38a.792 1.158 0 0 0-.793 1.158.792 1.158 0 0 0 .792 1.159h3.31v-.005a.792 1.158 0 0 0 .727-1.154.792 1.158 0 0 0-.727-1.154v-.004h-.065z" style="fill:#edf5f9;fill-opacity:1;stroke:#232323;stroke-width:.321525;stroke-linejoin:round;stroke-dasharray:none;stroke-opacity:1"/><ellipse cx="114.72375" cy="-26.221476" rx="0.79227871" ry="1.1584646" style="fill:#94a2aa;fill-opacity:1;stroke:#232323;stroke-width:.321525;stroke-dasharray:none;stroke-opacity:1"/><path d="M111.48-25.063h3.31l-2.506 1.357h-3.141z" style="fill:#d0dee5;fill-opacity:1;stroke:#232323;stroke-width:.321525;stroke-linejoin:round;stroke-dasharray:none;stroke-opacity:1"/><path d="M.554 8.95c.303-.548 1.078-.465 1.488-.103.702.62.544 1.727-.09 2.33-.914.868-2.385.629-3.172-.283-1.04-1.202-.715-3.045.475-4.014 1.487-1.211 3.707-.802 4.856.668 1.386 1.772.89 4.37-.86 5.699-2.056 1.56-5.034.978-6.541-1.053-1.736-2.34-1.066-5.698 1.246-7.384C.577 2.9 4.318 3.656 6.18 6.25c2.087 2.904 1.243 7.026-1.631 9.068a6.95 6.95 0 0 1-3.745 1.266" style="fill:none;fill-rule:evenodd;stroke:#464b50;stroke-width:1.23239;stroke-linecap:round;stroke-linejoin:round;stroke-miterlimit:4;stroke-dasharray:none;stroke-opacity:1" transform="matrix(.08155 0 0 .12278 114.606 -27.451)"/></g></svg>