<svg xmlns="http://www.w3.org/2000/svg" xmlns:xlink="http://www.w3.org/1999/xlink" xml:space="preserve" width="70" height="45.549" viewBox="0 0 18.520834 12.051506"><defs><linearGradient id="a"><stop offset="0" style="stop-color:#b80000;stop-opacity:1"/><stop offset="1" style="stop-color:#4c0001;stop-opacity:1"/></linearGradient><linearGradient xlink:href="#a" id="b" x1="68.064301" x2="70.14566" y1="-23.632238" y2="-21.550879" gradientTransform="translate(15.528 -.149)" gradientUnits="userSpaceOnUse"/></defs><path d="M-19.681-85.84h.826v2.414h-.826z" style="fill:#f3f3f3;fill-opacity:1;stroke:#242424;stroke-width:.231512;stroke-linecap:round;stroke-linejoin:round;stroke-miterlimit:10;stroke-dasharray:none" transform="rotate(90 -82.932 -41.319)scale(1.57753)"/><path d="M78.878-24.062a.116.116 0 0 0-.115.115v2.414a.116.116 0 0 0 .115.115h.695a.116.116 0 0 0 .116-.115v-2.414a.116.116 0 0 0-.116-.115zm.115.23h.463v2.184h-.463zm10.7-.23a.116.116 0 0 0-.116.115v2.414a.116.116 0 0 0 .116.115h.695a.116.116 0 0 0 .115-.115v-2.414a.116.116 0 0 0-.115-.115zm.117.23h.463v2.184h-.463z" style="color:#000;fill:#232323;fill-opacity:1;stroke-linecap:round;stroke-linejoin:round;stroke-miterlimit:10" transform="translate(-124.251 41.613)scale(1.57753)"/><path d="M79.689-26.031h9.888v6.582H79.69z" style="fill:#f3f3f3;fill-opacity:1;stroke:#232323;stroke-width:.694531;stroke-linejoin:round;stroke-dasharray:none;stroke-opacity:1" transform="translate(-124.251 41.613)scale(1.57753)"/><path d="M80.797 20.557h7.672v4.366h-7.672z" style="fill:#f3f3f3;fill-opacity:1;stroke:#232323;stroke-width:.463021;stroke-linecap:round;stroke-linejoin:miter;stroke-dasharray:none;stroke-opacity:1" transform="matrix(1.57753 0 0 -1.57753 -124.251 41.613)"/><path d="M86.105-22.74a1.47 1.47 0 0 1-1.472 1.472 1.47 1.47 0 0 1-1.472-1.472 1.47 1.47 0 0 1 1.472-1.472 1.47 1.47 0 0 1 1.472 1.472z" style="fill:url(#b);stroke:#232323;stroke-width:.231511;stroke-linecap:round;stroke-miterlimit:10" transform="translate(-124.251 41.613)scale(1.57753)"/><path fill="#f3f3f3" fill-rule="evenodd" d="M83.677-23.046h.65v-.65h.612v.65h.65v.612h-.65v.65h-.612v-.65h-.65z" style="stroke:none;stroke-width:0;stroke-linecap:square;stroke-miterlimit:10;stroke-dasharray:none" transform="translate(-124.251 41.613)scale(1.57753)"/></svg>