<svg xmlns="http://www.w3.org/2000/svg" width="64" height="64" viewBox="0 0 63.999999 63.999998"><defs><radialGradient id="f" cx="193.36298" cy="103.25812" r="4.7768998" gradientUnits="userSpaceOnUse"><stop offset="0" stop-color="#4f5c3d"/><stop offset="1" stop-color="#4f5c3d" stop-opacity="0"/></radialGradient><radialGradient id="g" cx="285.93942" cy="102.57134" r="4.7768998" gradientUnits="userSpaceOnUse"><stop offset="0" stop-color="#4f5c3d"/><stop offset="1" stop-color="#4f5c3d" stop-opacity="0"/></radialGradient><radialGradient id="h" cx="284.11526" cy="99.38237" r="4.7768998" gradientUnits="userSpaceOnUse"><stop offset="0" stop-color="#4f5c3d"/><stop offset="1" stop-color="#4f5c3d" stop-opacity="0"/></radialGradient><radialGradient id="i" cx="195.62459" cy="99.832947" r="4.7768998" gradientUnits="userSpaceOnUse"><stop offset="0" stop-color="#4f5c3d"/><stop offset="1" stop-color="#4f5c3d" stop-opacity="0"/></radialGradient><radialGradient id="j" cx="298.125" cy="147.075" r="2.5" gradientUnits="userSpaceOnUse"><stop offset="0" stop-color="#ccc"/><stop offset="1" stop-color="#a4a4a4"/></radialGradient><radialGradient id="k" cx="298.125" cy="147.075" r="2.5" gradientUnits="userSpaceOnUse"><stop offset="0" stop-color="#6d6d6d"/><stop offset="1" stop-color="#999"/></radialGradient><radialGradient id="l" cx="300.32501" cy="158.47501" r="2.5" gradientUnits="userSpaceOnUse"><stop offset="0" stop-color="#ccc"/><stop offset="1" stop-color="#a4a4a4"/></radialGradient><radialGradient id="m" cx="300.32501" cy="158.47501" r="2.5" gradientUnits="userSpaceOnUse"><stop offset="0" stop-color="#6d6d6d"/><stop offset="1" stop-color="#999"/></radialGradient><radialGradient id="n" cx="300.52499" cy="169.875" r="2.5" gradientUnits="userSpaceOnUse"><stop offset="0" stop-color="#ccc"/><stop offset="1" stop-color="#a4a4a4"/></radialGradient><radialGradient id="o" cx="300.52499" cy="169.875" r="2.5" gradientUnits="userSpaceOnUse"><stop offset="0" stop-color="#6d6d6d"/><stop offset="1" stop-color="#999"/></radialGradient><radialGradient id="p" cx="280.125" cy="216.075" r="2.5" gradientUnits="userSpaceOnUse"><stop offset="0" stop-color="#ccc"/><stop offset="1" stop-color="#a4a4a4"/></radialGradient><radialGradient id="q" cx="280.125" cy="216.075" r="2.5" gradientUnits="userSpaceOnUse"><stop offset="0" stop-color="#6d6d6d"/><stop offset="1" stop-color="#999"/></radialGradient><radialGradient id="r" cx="287.36047" cy="106.09766" r="4.7768998" gradientUnits="userSpaceOnUse"><stop offset="0" stop-color="#4f5c3d"/><stop offset="1" stop-color="#4f5c3d" stop-opacity="0"/></radialGradient><radialGradient id="s" cx="192.14993" cy="104.78187" r="4.7768998" gradientUnits="userSpaceOnUse"><stop offset="0" stop-color="#4f5c3d"/><stop offset="1" stop-color="#4f5c3d" stop-opacity="0"/></radialGradient><linearGradient id="a" x1="240" x2="240" y1="83.729881" y2="287.0368" gradientUnits="userSpaceOnUse"><stop offset="0" stop-color="#505d3e"/><stop offset="1" stop-color="#404d2e"/></linearGradient><linearGradient id="b" x1="240.04211" x2="240.04211" y1="113.65085" y2="286.84912" gradientUnits="userSpaceOnUse"><stop offset="0" stop-color="#5f6e49"/><stop offset="1" stop-color="#505d3e"/></linearGradient><linearGradient id="c" x1="197.29794" x2="197.29794" y1="104.65742" y2="105.82581" gradientUnits="userSpaceOnUse"><stop offset="0" stop-color="#c28b13"/><stop offset="1" stop-color="#cda537"/></linearGradient><linearGradient id="d" x1="239.88084" x2="239.88084" y1="94.386742" y2="100.30099" gradientUnits="userSpaceOnUse"><stop offset="0" stop-color="#4f5c3d"/><stop offset="1" stop-color="#4f5c3d" stop-opacity="0"/></linearGradient><linearGradient id="e" x1="244.08907" x2="244.08907" y1="94.159271" y2="103.03065" gradientUnits="userSpaceOnUse"><stop offset="0" stop-color="#4f5c3d"/><stop offset="1" stop-color="#4f5c3d" stop-opacity="0"/></linearGradient></defs><g stroke-miterlimit="10" data-paper-data="{&quot;isPaintingLayer&quot;:true}" style="mix-blend-mode:normal"><path fill="#4d593c" stroke="#313826" stroke-width="1.5752" d="M53.752 61.483H49.93l-.058-26.692s3.132.04 4.422.358c.563.139 1.53.83 2.105 1.78.528.868.69 1.971.69 2.676v18.788c0 1.872-2.186 3.09-3.336 3.09z" data-paper-data="{&quot;index&quot;:null}"/><path fill="none" stroke="#1f1f1f" stroke-linecap="round" stroke-width=".8592" d="m55.757 51.992.057-14.72" data-paper-data="{&quot;index&quot;:null}"/><path fill="#4d593c" stroke="#313826" stroke-width="1.5752" d="M6.911 58.25V39.462c0-.705.163-1.808.69-2.676.577-.95 1.543-1.642 2.106-1.78 1.29-.317 4.422-.358 4.422-.358L14.07 61.34h-3.823c-1.15 0-3.337-1.218-3.337-3.09z"/><path fill="url(#a)" stroke="#333b27" stroke-width="7" d="M164.145 254.61V147.767c0-18.455 10.64-62.799 31.737-63.4 30.353-1.434 70.148 0 88.236 0 26.72 0 31.737 45.73 31.737 64.6V255.21c0 18.816-8.76 31.827-12.53 31.827h-127.25c-2.652 0-11.93-13.279-11.93-32.427z" style="fill:url(#a)" transform="translate(-36.926 -19.21)scale(.2864)"/><path fill="url(#b)" d="M168.034 259.224v-91.02c0-15.721 10.1-53.498 30.127-54.01 28.814-1.222 66.591 0 83.762 0 25.365 0 30.128 38.958 30.128 55.033v90.509c0 16.029-8.317 27.113-11.894 27.113h-120.8c-2.516 0-11.323-11.312-11.323-27.625" style="fill:url(#b)" transform="translate(-36.926 -19.21)scale(.2864)"/><path fill="none" stroke="#1f1f1f" stroke-linecap="round" stroke-width=".8592" d="m11.573 48.01.058-18.43c.002-.801-.009-1.624-.007-2.279.18-1.13.357-2.396.7-3.68.539-2.007 1.366-4.057 2.341-5.706.198-.335 1.21-2.103 2.787-3.264.677-.498 1.734-.83 2.472-.885 2.972-.218 7.438-.494 12.02-.526 4.547-.031 9.207.27 12.634.733.941.127 2.003.555 2.857 1.22 1.114.869 1.954 2.159 2.517 3.332.369.768 1.962 5.109 2.264 10.033.523 8.53.1 19.236.1 19.236"/><g stroke-width="0"><path fill="#be9933" d="M19.11 10.836v-.351c0-.056.106-.152.21-.152h1.498c.135 0 .222.105.222.164v.339z"/><path d="M19.1 11.596v-.819c0-.086.12-.183.232-.183h1.439c.163 0 .272.118.272.218v.737c0 .176-.129.31-.249.31h-1.462c-.14 0-.231-.11-.231-.263"/><path d="M19.861 11.51v-.19c0-.068.138-.257.206-.257s.198.183.198.25v.205c0 .102-.138.198-.206.198s-.198-.101-.198-.206"/><path fill="#333" d="m19.317 14.436.114-3.107c.008-.225.43-.365.64-.365.213 0 .646.14.654.365l.114 3.107c.016.45-.197 1.047-.793 1.047-.636 0-.746-.596-.73-1.047m.736.704c.234 0 .424-.19.424-.424s-.179-.64-.413-.64-.435.406-.435.64.19.424.424.424m-.08-1.461c.064 0 .056-.002.17-.003.083 0 .146-.072.146-.174l-.002-1.654c0-.167-.056-.302-.223-.302s-.224.135-.224.302l-.002 1.665c0 .1.076.166.135.166"/><path d="M19.879 11.226v-.189c0-.069.138-.258.206-.258.066 0 .197.183.197.25v.206c0 .102-.138.198-.206.198-.066 0-.197-.102-.197-.207"/></g><path fill="#be9933" d="M19.167 10.8v-.153c0-.024.046-.066.091-.066h.65c.058 0 .096.046.096.071v.147z"/><path fill="url(#c)" d="M196.882 105.4v-.389c0-.142.285-.53.425-.53.137 0 .407.376.407.513v.425c0 .21-.285.407-.425.407-.137 0-.407-.21-.407-.425" style="fill:url(#c)" transform="translate(-36.926 -19.21)scale(.2864)"/><g fill="#3f4930" stroke-width="0"><path d="M21.566 11.027v-2.87h20.382v2.87s-1.115.091-2.779.063c-1.43-.024-3.265-.17-5.144-.145-3.29.043-6.716.278-8.34.278-1.827 0-4.119-.196-4.119-.196"/><path d="M18.397 11.027s.393-1.622.934-2.085c.556-.476 2.36-.779 2.36-.779v2.864s-.96.13-1.479.13c-.574 0-1.815-.13-1.815-.13"/><path d="M41.805 11.027V8.163s1.804.303 2.36.779c.542.463.934 2.085.934 2.085s-1.25.13-1.824.13c-.517 0-1.47-.13-1.47-.13" data-paper-data="{&quot;index&quot;:null}"/></g><path fill="url(#d)" d="M190.406 100.301v-5.914h98.95v5.914z" style="fill:url(#d)" transform="translate(-36.926 -19.21)scale(.2864)"/><path fill="url(#e)" d="M194.045 103.03v-8.87h100.088v8.87z" style="fill:url(#e)" transform="translate(-36.926 -19.21)scale(.2864)"/><path fill="url(#f)" d="M188.586 103.258a4.777 4.777 0 1 1 9.554 0 4.777 4.777 0 0 1-9.554 0" style="fill:url(#f)" transform="translate(-36.926 -19.21)scale(.2864)"/><path fill="url(#g)" d="M281.163 102.571a4.777 4.777 0 0 1 9.553 0c0 2.639-2.138 4.988-4.777 4.988-2.638 0-4.776-2.35-4.776-4.988" style="fill:url(#g)" transform="translate(-36.926 -19.21)scale(.2864)"/><path fill="url(#h)" d="M279.338 99.382a4.777 4.777 0 1 1 9.554 0 4.777 4.777 0 0 1-9.554 0" style="fill:url(#h)" transform="translate(-36.926 -19.21)scale(.2864)"/><path fill="url(#i)" d="M190.848 99.833a4.777 4.777 0 1 1 9.553 0 4.777 4.777 0 0 1-9.553 0" style="fill:url(#i)" transform="translate(-36.926 -19.21)scale(.2864)"/><path fill="#3c452e" d="M16.863 34.194c0-3.338.286-7.953.286-9.881 0-1.705 2.14-3.927 4.274-3.927h21.281c2.436 0 3.768 2.222 3.768 3.927 0 1.809.286 5.982.286 9.247 0 2.479-2.194 4.434-4.18 4.434H20.663c-2.579 0-3.8-1.63-3.8-3.8"/><path fill="url(#j)" stroke="url(#k)" stroke-width="2.5" d="M295.625 147.075a2.5 2.5 0 1 1 5 0 2.5 2.5 0 0 1-5 0z" style="fill:url(#j);stroke:url(#k)" transform="translate(-36.926 -19.21)scale(.2864)"/><path fill="#3c452e" d="M16.996 54.92c0-3.582.286-8.537.286-10.606 0-1.83 2.14-4.216 4.274-4.216h21.282c2.435 0 3.767 2.386 3.767 4.216 0 1.941.286 6.421.286 9.927 0 2.66-2.194 4.76-4.18 4.76H20.796c-2.578 0-3.8-1.75-3.8-4.08"/><path fill="#2a2a2a" stroke="#1b1b1b" stroke-width="1.0024" d="M19.689 25.82v-2.792c0-.274.36-.573.716-.573h5.155c.56 0 .93.23.93.573v2.792c0 .407-.247.931-.643.931h-5.37c-.386 0-.788-.323-.788-.93z"/><path fill="none" stroke="#1f1f1f" stroke-linecap="round" stroke-width=".8592" d="M23.648 8.929s5.859-.909 8.733-.933c2.804-.023 8.308.885 8.308.885"/><path fill="#5f6e49" stroke="#333b27" stroke-width="1.1456" d="M22.932 7.528c-.51 0-1.315-.937-.969-1.361.55-.675 1.432-1.706 2.302-2.529 1.192-1.127 2.69-1.693 3.46-2.068 1.55-.753 3.353-.997 4.56-.997 1.066 0 2.58.108 3.957.775.715.346 1.955.909 3.196 1.927 1.328 1.09 2.657 2.449 3.345 3.176.302.32-.74 1.14-1.348 1.125-.602-.016-1.98-.87-2.29-1.126-.643-.533-1.842-1.452-3.13-2.06-1.315-.62-2.722-.667-3.73-.667-1.198 0-2.982.234-4.524.98-1.026.497-1.946 1.183-2.515 1.65-.376.308-1.82 1.175-2.385 1.175z"/><path fill="url(#l)" stroke="url(#m)" stroke-width="2.5" d="M297.825 158.475a2.5 2.5 0 1 1 5 0 2.5 2.5 0 0 1-5 0z" style="fill:url(#l);stroke:url(#m)" transform="translate(-36.926 -19.21)scale(.2864)"/><path fill="url(#n)" stroke="url(#o)" stroke-width="2.5" d="M298.025 169.875a2.5 2.5 0 1 1 5 0 2.5 2.5 0 0 1-5 0z" style="fill:url(#n);stroke:url(#o)" transform="translate(-36.926 -19.21)scale(.2864)"/><path fill="none" stroke="#64724c" stroke-linecap="round" stroke-width=".8592" d="M17.258 49.315s.758-.286 1.861-.286c1.419 0 3.407.5 5.084.5 1.289 0 3.26-.429 5.513-.429 1.425 0 2.962.43 4.51.43.598 0 1.196-.215 1.79-.215 3.228 0 6.33-.215 8.378-.215 1.5 0 2.434.215 2.434.215m-.286-20.997s-2.75.256-6.303.301c-3.235.042-7.136-.341-10.237-.317-1.332.01-2.516.231-3.436.231-1.388 0-3.05.185-4.586.147-2.572-.063-4.794-.362-4.794-.362"/><path fill="none" stroke="#1f1f1f" stroke-linecap="round" stroke-width=".8592" d="M17.06 30.692s-.613-7.947 1.791-9.662c1.694-1.209 7.538-1 13.207-.907 5.662.093 11.15.068 12.157.686 3.718 2.278 2.552 10.17 2.552 10.17M17.194 52.418s-.614-9.5 1.79-11.55c1.695-1.445 7.538-1.195 13.207-1.084 5.662.11 11.15.08 12.157.819 3.718 2.723 2.552 12.158 2.552 12.158"/><path fill="none" stroke="#64724c" stroke-linecap="round" stroke-width=".8592" d="M46.614 55.115s-1.826.214-4.511.214c-2.258 0-5.122-.214-8.02-.214-.5 0-1.003-.215-1.503-.215-4.525 0-8.886.43-10.883.43-2.167 0-4.654-.215-4.654-.215"/><path fill="none" stroke="#1f1f1f" stroke-linecap="round" stroke-width=".8592" d="M8.243 37.185 8.3 51.85"/><path fill="url(#p)" stroke="url(#q)" stroke-width="2.5" d="M277.625 216.075a2.5 2.5 0 1 1 5 0 2.5 2.5 0 0 1-5 0z" style="fill:url(#p);stroke:url(#q)" transform="translate(-36.926 -19.21)scale(.2864)"/><path fill="url(#r)" d="M282.584 106.098a4.777 4.777 0 0 1 9.553 0c0 2.638-2.138 4.987-4.777 4.987-2.638 0-4.776-2.35-4.776-4.987" style="fill:url(#r)" transform="translate(-36.926 -19.21)scale(.2864)"/><path fill="url(#s)" d="M187.373 104.782a4.777 4.777 0 0 1 9.554 0c0 2.638-2.139 4.987-4.777 4.987s-4.777-2.349-4.777-4.987" style="fill:url(#s)" transform="translate(-36.926 -19.21)scale(.2864)"/><path d="m23.465 9.375-.107-.973c-.01-.086.098-.195.21-.208l1.43-.157c.162-.018.283.088.294.188l.098.891c.02.175-.094.323-.213.336l-1.454.16c-.139.015-.241-.085-.258-.237"/><path d="M24.17 9.185v-.189c0-.069.139-.258.207-.258.066 0 .197.183.197.25v.206c0 .102-.138.198-.206.198-.066 0-.198-.102-.198-.207"/><path fill="#333" d="m23.626 12.112.114-3.107c.008-.226.43-.366.641-.366s.645.14.653.365l.114 3.107c.016.45-.196 1.047-.793 1.047-.635 0-.745-.596-.729-1.046m.736.704c.234 0 .424-.19.424-.424 0-.235-.179-.64-.413-.64s-.435.405-.435.64.19.424.424.424m-.08-1.462.17-.002c.083 0 .147-.072.146-.175l-.001-1.653c0-.167-.057-.303-.224-.303s-.223.136-.223.303l-.003 1.665c0 .099.077.166.136.165"/><path d="M24.188 8.902v-.19c0-.068.138-.257.206-.257s.198.183.198.25v.205c0 .103-.138.198-.206.198s-.198-.101-.198-.206"/><g stroke-width="0"><path d="M29.698 13.8v-1.058c0-.087.118-.183.23-.183h1.44c.163 0 .272.118.272.218v.977c0 .175-.13.31-.249.31h-1.462c-.14 0-.231-.11-.231-.263"/><path d="M30.458 13.714v-.189c0-.069.138-.257.206-.257s.198.182.198.249v.206c0 .102-.138.198-.206.198s-.198-.102-.198-.207"/><path fill="#333" d="m29.914 16.64.113-3.106c.009-.226.431-.366.642-.366s.645.14.653.365l.113 3.107c.017.45-.196 1.047-.792 1.047-.636 0-.746-.596-.73-1.046m.735.705c.235 0 .424-.19.424-.424s-.178-.64-.412-.64-.436.406-.436.64.19.424.424.424m-.079-1.462.17-.002c.082 0 .146-.072.146-.175l-.002-1.653c0-.167-.056-.303-.223-.303-.168 0-.224.136-.224.303l-.002 1.665c0 .099.076.166.135.166"/><path d="M30.475 13.431v-.19c0-.068.139-.257.207-.257.066 0 .197.183.197.25v.206c0 .102-.138.197-.206.197s-.198-.101-.198-.206"/></g><g stroke-width="0"><path d="M31.796 13.82v-1.058c0-.087.118-.184.23-.184h1.44c.163 0 .272.12.272.22v.976c0 .175-.13.31-.249.31h-1.462c-.14 0-.231-.11-.231-.263"/><path d="M32.556 13.734v-.189c0-.069.138-.257.206-.257s.198.182.198.249v.206c0 .102-.138.198-.206.198s-.198-.102-.198-.207"/><path fill="#333" d="m32.012 16.66.114-3.106c.008-.226.43-.366.64-.366.213 0 .646.14.654.365l.113 3.107c.017.45-.196 1.047-.792 1.047-.636 0-.746-.596-.73-1.046m.735.705c.235 0 .424-.19.424-.424s-.178-.64-.412-.64-.436.406-.436.64.19.424.424.424m-.079-1.462.17-.002c.082 0 .146-.072.146-.175l-.002-1.653c0-.167-.056-.303-.223-.303-.168 0-.224.136-.224.303l-.002 1.665c0 .099.076.166.135.165"/><path d="M32.573 13.451v-.19c0-.068.139-.257.207-.257.066 0 .197.183.197.25v.206c0 .102-.138.197-.206.197s-.198-.101-.198-.206"/></g><g stroke-width="0"><path d="m17.507 30.802-1.06.01c-.086 0-.184-.117-.185-.23l-.012-1.44c-.002-.162.116-.272.216-.273l.977-.008c.175-.002.311.126.312.245l.013 1.463c0 .14-.11.232-.261.233"/><path d="M16.798 30.239v-.19c0-.069.138-.257.206-.257s.198.182.198.249v.206c0 .102-.138.198-.206.198s-.198-.102-.198-.206"/><path fill="#333" d="m16.254 33.165.113-3.107c.009-.226.431-.366.641-.366.213 0 .645.14.654.365l.113 3.107c.017.45-.196 1.047-.792 1.047-.636 0-.746-.596-.73-1.046m.735.704c.234 0 .424-.19.424-.424s-.178-.64-.412-.64c-.235 0-.436.406-.436.64s.19.424.424.424m-.079-1.461c.064-.001.055-.002.17-.003.082 0 .146-.072.146-.175l-.002-1.653c0-.167-.056-.303-.223-.303-.168 0-.224.136-.224.303l-.002 1.665c0 .1.076.166.135.166"/><path d="M16.815 29.955v-.189c0-.07.139-.258.207-.258.066 0 .197.183.197.25v.206c0 .102-.138.197-.206.197s-.198-.101-.198-.206"/></g><g stroke-width="0"><path d="m17.693 52.556-1.058.01c-.087 0-.185-.117-.186-.23l-.013-1.439c-.001-.163.117-.273.217-.274l.977-.008c.175-.002.31.126.312.245l.013 1.463c0 .14-.11.232-.262.233"/><path d="M16.985 51.993v-.19c0-.069.138-.257.206-.257s.198.182.198.249V52c0 .102-.139.198-.207.198-.066 0-.197-.102-.197-.206"/><path fill="#333" d="m16.44 54.919.114-3.107c.008-.226.431-.366.641-.366.213 0 .645.14.653.365l.114 3.107c.017.45-.196 1.047-.793 1.047-.635 0-.745-.596-.729-1.046m.736.704c.234 0 .424-.19.424-.424s-.178-.64-.413-.64-.435.406-.435.64.19.424.424.424m-.08-1.461c.065-.001.056-.002.17-.003.083 0 .147-.072.147-.175l-.002-1.653c0-.167-.056-.303-.224-.303-.167 0-.223.136-.223.303l-.003 1.665c0 .1.077.166.136.166"/><path d="M17.002 51.71v-.19c0-.069.138-.258.206-.258s.198.183.198.25v.206c0 .102-.138.197-.206.197s-.198-.101-.198-.206"/></g><g stroke-width="0"><path d="m8.815 52.394-1.059.01c-.086 0-.184-.117-.185-.23l-.013-1.439c-.001-.163.116-.273.216-.274l.977-.008c.175-.002.311.126.312.246l.013 1.462c.001.14-.109.232-.261.233"/><path d="M8.106 51.83v-.188c0-.07.139-.258.207-.258.066 0 .197.182.197.249v.206c0 .102-.138.198-.206.198s-.198-.102-.198-.206"/><path fill="#333" d="m7.562 54.757.114-3.107c.008-.226.43-.366.64-.366.213 0 .646.14.654.366l.114 3.106c.016.451-.197 1.048-.793 1.048-.636 0-.745-.596-.729-1.047m.736.704c.234 0 .424-.19.424-.424s-.179-.64-.413-.64-.435.406-.435.64.19.424.424.424M8.218 54c.064 0 .056-.002.17-.003.083 0 .147-.072.146-.174l-.001-1.654c0-.167-.057-.303-.224-.303s-.224.136-.224.303l-.002 1.665c0 .1.076.166.135.166"/><path d="M8.124 51.547v-.189c0-.069.138-.258.206-.258.066 0 .198.183.198.25v.206c0 .102-.139.198-.207.198-.066 0-.197-.102-.197-.207"/></g><g stroke-width="0"><path d="m56.27 52.232-1.058.01c-.087 0-.185-.117-.186-.23l-.013-1.439c-.001-.163.117-.273.217-.274.13 0 .718-.006.977-.008.175-.002.31.126.312.246l.013 1.462c0 .14-.11.232-.262.233"/><path d="M55.562 51.669v-.19c0-.068.138-.257.206-.257s.198.183.198.25v.205c0 .102-.139.198-.207.198-.066 0-.197-.101-.197-.206"/><path fill="#333" d="m55.017 54.595.114-3.107c.008-.225.431-.365.641-.365.212 0 .645.14.653.365l.114 3.107c.017.45-.196 1.047-.793 1.047-.635 0-.745-.596-.729-1.047m.736.704c.234 0 .424-.19.424-.424s-.178-.64-.413-.64-.435.406-.435.64.19.424.424.424m-.08-1.461c.065 0 .056-.002.17-.003.083 0 .147-.072.147-.174l-.002-1.654c0-.167-.056-.302-.224-.302-.167 0-.223.135-.223.302l-.003 1.665c0 .1.077.166.136.166"/><path d="M55.579 51.385v-.189c0-.069.138-.258.206-.258s.198.183.198.25v.206c0 .102-.138.198-.206.198s-.198-.102-.198-.207"/></g><g fill="#80808c" stroke="#404046" stroke-width=".1432"><path d="m23.41 23.211.088.265q.207.05.38.157l.25-.124q.17.129.298.298l-.124.25q.108.175.158.38l.264.089a1.6 1.6 0 0 1 0 .421l-.264.089a1.3 1.3 0 0 1-.158.38l.124.25a1.6 1.6 0 0 1-.298.298l-.036-.018-.006-.02a7 7 0 0 0-.136-.453 1.052 1.052 0 1 0-1.549-.05l-.009.026-.02.074q-.013.056-.032.11a3 3 0 0 1-.12.292 1.6 1.6 0 0 1-.249-.26l.125-.248a1.3 1.3 0 0 1-.158-.381l-.264-.089a1.6 1.6 0 0 1 0-.421l.264-.089q.049-.205.158-.38l-.125-.25q.129-.17.298-.298l.25.124q.175-.108.38-.157l.089-.265a1.6 1.6 0 0 1 .422 0z"/><path stroke-linecap="round" stroke-linejoin="round" d="M23.228 23.947q.008 0 .013.006a.14.14 0 0 1 .023.049l.033.11.053.184c.022.076.05.168.079.253s.056.163.07.21c.012.045.01.06.001.071-.008.011-.024.02-.034.03a.1.1 0 0 0-.015.044c-.001.016 0 .033.014.045.014.013.041.022.06.029a.1.1 0 0 1 .035.02c.009.008.017.02.022.025s.004.006.006.02a.2.2 0 0 1 .005.064.1.1 0 0 1-.025.054c-.013.017-.03.034-.04.049q-.016.022-.009.037.01.014.039.027.028.011.06.028c.02.012.038.029.051.042a.1.1 0 0 1 .03.04q.01.023.02.074l.038.142c.019.06.045.134.066.196.02.06.036.11.048.138.01.029.018.038.011.044-.006.007-.026.012-.046.013l-.077-.006-.207-.033a1 1 0 0 1-.1-.025.15.15 0 0 1-.067-.04.3.3 0 0 1-.046-.072l-.043-.088c-.015-.028-.032-.052-.042-.071-.01-.02-.014-.035-.021-.047a.1.1 0 0 0-.033-.03.08.08 0 0 0-.094.02c-.01.012-.013.027-.02.048l-.027.069q-.015.034-.027.07c-.01.024-.018.052-.029.075a.1.1 0 0 1-.049.054.4.4 0 0 1-.093.03l-.078.014-.109.009-.127.013c-.038.003-.067.004-.083-.005s-.019-.029-.017-.045a.1.1 0 0 1 .016-.044l.02-.041.023-.047q.017-.026.033-.058.015-.03.025-.059l.023-.051.025-.056.021-.048a.4.4 0 0 1 .027-.05.3.3 0 0 1 .038-.046q.022-.02.046-.039l.05-.042q.026-.023.028-.048c0-.017-.012-.036-.027-.049s-.032-.02-.044-.03a.06.06 0 0 1-.022-.04.1.1 0 0 1 .01-.05.2.2 0 0 1 .059-.078q.02-.014.043-.023a.1.1 0 0 0 .036-.024.06.06 0 0 0 .014-.045.2.2 0 0 0-.018-.068q-.015-.031-.02-.057a.1.1 0 0 1 .009-.053l.024-.076.03-.09q.015-.047.035-.097l.049-.11.075-.172c.028-.065.058-.134.082-.184a.5.5 0 0 1 .054-.098q.01-.012.017-.011"/></g></g></svg>