<svg xmlns="http://www.w3.org/2000/svg" width="64" height="64" viewBox="0 0 64.000001 64.000002"><g fill="none" stroke-linecap="none" stroke-miterlimit="10" stroke-width="none" data-paper-data="{&quot;isPaintingLayer&quot;:true}" font-family="none" font-size="none" font-weight="none" style="mix-blend-mode:normal" text-anchor="none"><path fill="#7a7652" stroke="#59563c" stroke-linecap="butt" stroke-width=".94592" d="M22.476 55.957c.346-.507.224-1.343.621-2.02.556-.947.647-1.488 1.176-2.45.464-.842 1.383-2.166 1.383-2.166l3.402 1.913s-2.913 5.116-3.425 5.99c-.108.183-.18.279-.304.45-.085.117-.453.166-.6.084 0 0-1.974-1.045-2.285-1.22-.104-.058-.083-.412.032-.581zm5.522-8.945s-1.551-2.544-2.581-4.172c-.57-.902-.951-1.409-1.52-2.313-.282-.449-.352-.701-.637-1.15-.629-.987-1.232-1.535-1.882-2.509-.487-.73-1.02-1.866-1.02-1.866l2.958-1.957s1.902 3.01 3.177 4.936c.24.363.494.566.737.927.728 1.084 2.544 3.9 2.544 3.9zm2.568-4.139s2.633-2.279 4.213-3.707c.615-.555.756-.866 1.381-1.41 1.115-.969 3.153-2.483 3.153-2.483l2.482 2.856s-2.453 1.847-3.872 3.029c-.394.328-.378.513-.77.844-.222.188-.614.293-.837.48-.524.438-.574.696-1.09 1.145-.863.75-1.627 1.157-2.51 1.883-.893.737-2.033 1.875-2.033 1.875z" data-paper-data="{&quot;origRot&quot;:0,&quot;origPos&quot;:null}"/><path fill="#736f4d" stroke="#59563c" stroke-linecap="butt" stroke-width=".94592" d="M34.895 51.722c.161-.658 1.857-1.77 2.207-3.126.032-.122-.043-.232-.01-.354.163-.601.31-.928.484-1.527.403-1.388.192-2.234.606-3.62.22-.735.767-1.867.767-1.867l4.024.779s-.386 1.04-.57 1.718c-.154.566-.094.936-.244 1.502-.096.366-.33.553-.43.918-.315 1.149-.339 1.824-.645 2.975-.058.217-.196.343-.257.56-.183.652-1.697 3.472-1.697 3.472s-4.262 5.114-4.74 5.012c0 0-2.217-1.291-2.435-2.484-.18-.98 2.886-3.74 2.94-3.958z" data-paper-data="{&quot;origPos&quot;:null,&quot;origRot&quot;:0,&quot;index&quot;:null}"/><path stroke="#bcbcbc" stroke-linecap="butt" stroke-width=".94592" d="m37.452 36.926.202-1.835 7.495.822-.256 2.335c-.066.601-1.063 1.442-1.635 1.38l-4.897-.538c-.442-.048-.996-1.368-.909-2.164z" data-paper-data="{&quot;origPos&quot;:null,&quot;origRot&quot;:0}"/><path fill="#7a7652" stroke="#676345" stroke-linecap="butt" stroke-width=".94592" d="M38.83 41.663s.125-1.416.148-1.721c.008-.102-.086-.18-.076-.282.057-.534.239-.817.287-1.353.015-.17-.077-.278-.058-.448.03-.263.198-.403.223-.667.03-.315-.023-.82-.023-.82l4.06.482s.178.576.165.922c-.026.653-.237.986-.273 1.638-.015.281.025.445-.002.725-.005.056-.11.087-.116.144-.077.628.007 1.335-.038 1.638-.015.1-.238.224-.238.224z" data-paper-data="{&quot;origPos&quot;:null,&quot;origRot&quot;:0}"/><path fill="#7a7652" stroke="#59563c" stroke-linecap="butt" stroke-width=".94592" d="M28.155 58.154s1.104-.895 1.34-1.091c.077-.065.069-.188.149-.25.423-.332.752-.399 1.17-.737.133-.108.147-.248.282-.353.21-.162.427-.14.633-.305.248-.198.573-.588.573-.588l2.48 3.25s-.288.53-.546.76c-.486.437-.873.517-1.365.946-.213.184-.303.327-.522.503-.044.035-.139-.018-.184.016-.504.383-.954.936-1.203 1.114-.083.06-.326-.014-.326-.014zm-1.431-15.326.275-2.87c.017-.181.363-.434.567-.415l6.558.63c.223.02.533.443.509.691l-.247 2.577c-.025.261-.454.633-.703.609l-6.5-.624c-.2-.019-.48-.384-.46-.598z" data-paper-data="{&quot;origPos&quot;:null,&quot;origRot&quot;:0}"/><path fill="#7a7652" stroke="#59563c" stroke-linecap="butt" stroke-width=".94592" d="M25.827 49.34s.804-1.634 1.246-2.678c.495-1.17.654-1.828 1.162-2.99.276-.63.548-.985.818-1.618.46-1.078.99-2.524 1.09-2.8.035-.092.312-.144.456-.085l2.902 1.184c.134.054.267.293.219.392-.145.296-.85 1.73-1.315 2.871-.624 1.533-.798 2.395-1.447 3.917-.546 1.28-1.518 3.28-1.518 3.28l.61 6.537s-2.027.906-3.351.365c-.548-.223-.872-8.376-.872-8.376z" data-paper-data="{&quot;origRot&quot;:0,&quot;origPos&quot;:null}"/><path stroke="#6d6d6d" stroke-linecap="butt" stroke-width=".94592" d="m27.486 44.594.717-1.955c.05-.133.3-.277.413-.236l3.747 1.376c.14.051.307.386.25.54l-.67 1.829c-.075.2-.464.413-.64.348l-3.583-1.315c-.155-.057-.298-.415-.234-.587z" data-paper-data="{&quot;origPos&quot;:null,&quot;origRot&quot;:0}"/><path fill="#5a5a5a" stroke="#484848" stroke-linecap="butt" stroke-width=".35472" d="M30.65 41.409a.67.67 0 1 1 1.34 0 .67.67 0 0 1-1.34 0zm-1.34 2.995a.67.67 0 1 1 1.34 0 .67.67 0 0 1-1.34 0zm-1.26 3.074a.67.67 0 1 1 1.34 0 .67.67 0 0 1-1.34 0z" data-paper-data="{&quot;origPos&quot;:null}"/><path stroke="#6d6d6d" stroke-linecap="round" stroke-width=".94592" d="m29.468 45.626.434-1.064" data-paper-data="{&quot;origPos&quot;:null}"/><path stroke="#6d6d6d" stroke-linecap="butt" stroke-width=".94592" d="m28.531 58.244 1.028-.859c.28-.234 1.086-.162 1.32.119l2.533 3.032c.334.4.45 1.368.19 1.585l-1.233 1.03c-.382.319-1.553.127-1.921-.315l-2.318-2.775c-.284-.34-.02-1.466.401-1.817z" data-paper-data="{&quot;origPos&quot;:null,&quot;origRot&quot;:0}"/><path fill="#7a7652" stroke="#59563c" stroke-linecap="butt" stroke-width=".94592" d="M23.186 56.335c.346-.507.696-1.012 1.094-1.69.555-.946.646-1.487 1.175-2.448.464-.843 1.384-2.166 1.384-2.166l3.4 1.912s-2.911 5.117-3.424 5.99c-.107.183-.179.28-.304.45-.085.117-.452.167-.6.084l-2.758-1.55c-.103-.06-.083-.413.033-.582zm5.994-8.614s-1.55-2.543-2.58-4.172c-.571-.902-.952-1.409-1.52-2.312-.282-.45-.353-.702-.638-1.15-.628-.988-1.231-1.535-1.881-2.51-.488-.73-1.02-1.866-1.02-1.866l2.958-1.956s1.902 3.01 3.176 4.935c.24.363.494.567.737.928a370 370 0 0 1 2.545 3.9zm2.569-4.138s2.632-2.28 4.213-3.707c.615-.556.755-.867 1.38-1.41 1.116-.97 3.153-2.483 3.153-2.483l2.482 2.856s-2.453 1.846-3.872 3.028c-.394.328-.378.514-.77.845-.222.187-.613.292-.836.479-.525.439-.574.696-1.09 1.145-.864.75-1.627 1.157-2.51 1.884-.893.736-2.033 1.874-2.033 1.874z" data-paper-data="{&quot;origRot&quot;:0,&quot;origPos&quot;:null}"/><path fill="#736f4d" stroke="#59563c" stroke-linecap="butt" stroke-width=".94592" d="M36.077 52.431c.162-.657 1.857-1.77 2.208-3.126.031-.122-.043-.232-.01-.354.163-.6.309-.928.483-1.526.404-1.389.193-2.234.606-3.62.22-.736.768-1.868.768-1.868l4.024.78s-.387 1.04-.57 1.717c-.154.566-.095.936-.244 1.503-.097.366-.33.552-.431.918-.315 1.148-.339 1.824-.644 2.974-.058.218-.197.343-.258.56-.183.652-1.696 3.472-1.696 3.472s-4.263 5.115-4.74 5.013c0 0-2.217-1.292-2.436-2.484-.18-.98 2.887-3.74 2.94-3.959z" data-paper-data="{&quot;origPos&quot;:null,&quot;origRot&quot;:0,&quot;index&quot;:null}"/><path stroke="#bcbcbc" stroke-linecap="butt" stroke-width=".94592" d="m38.635 37.636.201-1.836 7.496.823-.256 2.335c-.066.6-1.063 1.442-1.635 1.38-1.716-.19-2.986-.329-4.897-.538-.442-.049-.997-1.368-.91-2.164z" data-paper-data="{&quot;origPos&quot;:null,&quot;origRot&quot;:0}"/><path fill="#7a7652" stroke="#59563c" stroke-linecap="butt" stroke-width=".94592" d="M40.012 42.372s.125-1.416.148-1.72c.008-.102-.086-.181-.075-.283.057-.534.238-.817.286-1.352.015-.17-.076-.278-.057-.448.03-.263.197-.404.222-.667.03-.316-.023-.82-.023-.82l4.06.482s.179.575.165.921c-.025.653-.237.987-.272 1.639-.016.28.024.444-.002.724-.006.057-.11.087-.117.144-.076.628.008 1.336-.038 1.638-.015.101-.237.225-.237.225z" data-paper-data="{&quot;origPos&quot;:null,&quot;origRot&quot;:0}"/><g stroke-linecap="butt" data-paper-data="{&quot;origRot&quot;:0,&quot;origPos&quot;:null}"><path fill="#505d3e" stroke="#323a27" stroke-width="1.7736" d="M8.695 23.637C9.54 9.698 21.874-.27 35.841.994 49.808 2.26 60.09 14.592 58.698 28.491c-.091.915.171 1.425.587 2.25.178.51 2.3.953 2.18 1.48-.013.556-1.195 1.138-2.4 1.514-1.785.556-2.889.898-4.655 1.51-8.897 3.088-16.602 2.402-25.69 1.103 0 0-5.153-.763-9.643-1.367-3.512-.406-9.004-.385-9.004-.385s-2.925-.049-5.18-.06c-1.1-.007-2.252-.01-2.356-.42-.092-.366.768-.737 1.785-1.414 1.007-.67 2.34-1.215 3.219-2.043.552-.52.802-.823.811-1.575.026-2.13-.005.292.343-5.447z" data-paper-data="{&quot;origPos&quot;:null,&quot;origRot&quot;:0}"/><path fill="#495539" d="m19.86 30.886-11.065-.39s.235-.36.326-.593c.13-.333.109-.882.109-.882z" data-paper-data="{&quot;origPos&quot;:null,&quot;origRot&quot;:0}"/><path fill="#495539" d="m51.204 31.423 6.77-1.621s.105.264.183.43c.096.206.196.527.196.527z" data-paper-data="{&quot;origPos&quot;:null}"/><path fill="#495539" d="M17.076 9.492a.05.05 0 0 1-.025-.025c-.203.133-.412.43-.522.607-.186.302-.261.666-.345 1.018-.14.59.152.067.343-.19.175-.237.476-.683.73-.828.099-.05.513-.411.5-.501 0-.002-.233-.024-.28-.03-.116-.014-.226-.026-.344-.042l.01-.033s-.021.045-.067.024m.093-.087.32.038c.582.071.166.543-.186.721-.218.087-.55.601-.695.797-.22.297-.69.822-.521.108.085-.36.164-.737.357-1.048.14-.226.422-.612.675-.701 0 0 .047-.017.064.03.01.028-.002.045-.014.055"/><path fill="#495539" d="m17.146 9.458-.01.034q.174.023.347.043l.281.031c.013.09-.4.453-.498.503-.255.144-.57.605-.744.841-.191.258-.484.78-.344.19.083-.353.156-.73.343-1.031.11-.178.33-.479.532-.612a.05.05 0 0 0 .025.025c.046.021.068-.024.068-.024" data-paper-data="{&quot;noHover&quot;:false,&quot;origItem&quot;:[&quot;Path&quot;,{&quot;applyMatrix&quot;:true,&quot;segments&quot;:[[[369.34629,173.3459],[0.45152,0.21476],[-0.13963,-0.06641]],[[369.09249,173.09912],[0.03825,0.09133],[-2.0135,1.32632]],[[363.90669,179.1391],[1.09176,-1.76207],[-1.85833,2.99929]],[[360.4753,189.26319],[0.82733,-3.50084],[-1.38824,5.87433]],[[363.88342,187.37033],[-1.89755,2.56119],[1.73991,-2.34841]],[[371.15204,179.14363],[-2.53436,1.43362],[0.97582,-0.49559]],[[376.11493,174.15643],[0.12831,0.89477],[-0.00296,-0.02063]],[[373.3341,173.86023],[0.46956,0.0571],[-1.15372,-0.14031]],[[369.90779,173.44327],[1.17207,0.15126],[0,0]],[370.01257,173.10914]],&quot;closed&quot;:true}]}"/><path fill="#495539" d="M19.184 14.068q.006.006.01.018c.017.047-.03.064-.03.064-.281.1-.387.426-.423.72-.037.296-.011.597-.027.89.095-.226.256-.491.293-.62.11-.385.226-.64.398-.987.143-.288.476-.655.727-.858a.6.6 0 0 0 .095-.095c-.217.122-.62.218-.631.45-.04.15-.227.283-.412.418m1.01-.694c-.24.185-.566.555-.7.823-.163.33-.282.592-.39.97-.056.196-.217.689-.41.871l.017.008-.045.09a.05.05 0 0 1-.092-.005l-.002-.025.014-.099.007-.05c.053-.358.002-.733.048-1.1a1.6 1.6 0 0 1 .088-.364.05.05 0 0 1-.025-.017c-.032-.039.006-.071.006-.071h-.004l.025-.044c.143-.25.71-.515.768-.736.076-.216.508-.554.791-.55l-.004-.015.096-.028a.05.05 0 0 1 .05.085l-.072.07v-.001c-.055.06-.096.133-.166.188"/><path fill="#495539" d="M19.597 13.641c.012-.233.418-.328.635-.45-.026.032-.065.081-.105.113-.251.203-.577.57-.72.859a5 5 0 0 0-.394.969c-.037.129-.209.41-.305.637.017-.294-.013-.599.024-.894s.144-.633.424-.732c0 0 .049-.018.032-.066l-.01-.018c.185-.134.38-.269.42-.418" data-paper-data="{&quot;noHover&quot;:false,&quot;origItem&quot;:[&quot;Path&quot;,{&quot;applyMatrix&quot;:true,&quot;segments&quot;:[[[390.30818,218.8599],[1.83812,-1.33517],[0.03881,0.04584]],[[390.40784,219.03929],[-0.02659,-0.07484],[0.16742,0.47114]],[[390.10412,219.67785],[0,0],[-2.79208,0.99217]],[[385.90066,226.83941],[0.36471,-2.92717],[-0.36652,2.94125]],[[385.62998,235.69854],[0.16257,-2.9252],[0.9545,-2.25592]],[[388.54693,229.52319],[-0.36768,1.28498],[1.09392,-3.82301]],[[392.506,219.7061],[-1.70586,3.44521],[1.42295,-2.86386]],[[399.73462,211.17872],[-2.49522,2.01672],[0.40182,-0.31853]],[[400.6813,210.2296],[-0.26045,0.31923],[-2.15367,1.21291]],[[394.40722,214.71518],[0.11793,-2.31826],[-0.39263,1.48318]]],&quot;closed&quot;:true}],&quot;origPos&quot;:null}"/><path fill="#495539" d="m11.934 22.436.001.047-.01.05c-.234.243-.155.365-.238.666-.04.16-.085.763-.01.96l-.007.02-.01-.01a6 6 0 0 1-.244-.25c-.129-.138-.529-.828-.507-.861.132-.217.105-.85.105-1.108 0-.288.057-.807.272-1.023.27-.272.474-.504.796-.74.108-.08.405-.24.607-.393-.165.286-.4.622-.441.949-.03.336-.158.727-.214 1.072-.033.203-.059.39-.088.594a.1.1 0 0 0-.012.027" data-paper-data="{&quot;noHover&quot;:false,&quot;origItem&quot;:[&quot;Path&quot;,{&quot;applyMatrix&quot;:true,&quot;segments&quot;:[[[610.69249,279.24401],[-0.01436,-0.16012],[1.22359,1.63903]],[[614.37904,284.15284],[-1.19183,-1.66345],[2.02461,2.82578]],[[620.36158,293.27452],[-2.15416,-2.57907],[1.99917,2.59081]],[[623.78929,302.89518],[-0.8453,-3.17265],[0.35661,-2.49742]],[[625.29568,295.8865],[-0.20461,1.31443],[0.61094,-3.92472]],[[625.68641,285.14658],[0.00015,3.8119],[-0.00012,-3.0339]],[[620.45968,276.10011],[2.01893,2.03627],[-1.80111,-1.81658]],[[613.49787,267.57851],[0.58969,2.4519],[-0.08076,-0.38835]],[[603.93291,265.05123],[1.87611,0.07307],[-1.15688,-0.05958]],[[600.45956,264.99227],[1.15817,-0.00074],[0,0]],[600.45956,264.99257],[600.33011,264.99254],[[600.30796,265.02423],[0,0],[1.90966,0.86085]],[[606.97707,271.85673],[-0.83983,-1.40767],[1.52841,2.70577]],[[610.0684,278.39824],[-0.05482,-3.35696],[0.06052,0.08311]],[[610.25048,278.64723],[-0.06086,-0.08288],[0,0]],[610.58637,278.96154]],&quot;closed&quot;:true}],&quot;origPos&quot;:null,&quot;origRot&quot;:0}"/><path fill="#495539" d="m44.693 14.155-.042-.018-.04-.031c-.118-.316-.263-.297-.499-.502-.127-.105-.65-.407-.86-.424l-.016-.016.012-.004q.165-.062.332-.113c.18-.056.975-.119.996-.085.138.213.722.462.953.574.26.125.704.4.806.688.128.36.25.644.324 1.037.025.131.041.468.091.717-.187-.272-.388-.63-.664-.808-.291-.172-.589-.456-.876-.656-.169-.117-.326-.221-.497-.335a.1.1 0 0 0-.02-.024" data-paper-data="{&quot;noHover&quot;:false,&quot;origItem&quot;:[&quot;Path&quot;,{&quot;applyMatrix&quot;:true,&quot;segments&quot;:[[[610.69249,279.24401],[-0.01436,-0.16012],[1.22359,1.63903]],[[614.37904,284.15284],[-1.19183,-1.66345],[2.02461,2.82578]],[[620.36158,293.27452],[-2.15416,-2.57907],[1.99917,2.59081]],[[623.78929,302.89518],[-0.8453,-3.17265],[0.35661,-2.49742]],[[625.29568,295.8865],[-0.20461,1.31443],[0.61094,-3.92472]],[[625.68641,285.14658],[0.00015,3.8119],[-0.00012,-3.0339]],[[620.45968,276.10011],[2.01893,2.03627],[-1.80111,-1.81658]],[[613.49787,267.57851],[0.58969,2.4519],[-0.08076,-0.38835]],[[603.93291,265.05123],[1.87611,0.07307],[-1.15688,-0.05958]],[[600.45956,264.99227],[1.15817,-0.00074],[0,0]],[600.45956,264.99257],[600.33011,264.99254],[[600.30796,265.02423],[0,0],[1.90966,0.86085]],[[606.97707,271.85673],[-0.83983,-1.40767],[1.52841,2.70577]],[[610.0684,278.39824],[-0.05482,-3.35696],[0.06052,0.08311]],[[610.25048,278.64723],[-0.06086,-0.08288],[0,0]],[610.58637,278.96154]],&quot;closed&quot;:true}],&quot;origPos&quot;:null}"/><path fill="#495539" d="m37.649 5.209.006-.002a.045.045 0 0 1 .052.02l.002.003q.012.02.007.034c.216-.054.427-.081.666-.09.38-.014.71.266 1.034.422.082.039.278.209.374.25l.083.02a.05.05 0 0 1-.018.099l-.1-.012.002-.012-.005-.002.002-.007-.003-.001c-.246.03-.707-.234-.896-.28-.321-.096-.721-.2-1.056-.105-.307.078-.768.366-1.075.322-.147-.039.05-.229.112-.277.215-.169.464-.258.727-.352l.047-.017.028-.008zm-.242.207a8 8 0 0 0-.658.354c.108.077.866-.281 1.025-.321.363-.087.763.002 1.11.106.104.045.33.094.539.158l-.05-.027c-.307-.146-.63-.425-.987-.411a2.9 2.9 0 0 0-.916.17s-.046.016-.063-.03"/><path fill="#495539" d="M37.46 5.44a3 3 0 0 1 .932-.173c.358-.014.684.273.99.42.017.007.014.016.03.026-.208-.065-.434-.112-.538-.156-.347-.105-.73-.188-1.092-.102-.159.04-.936.393-1.043.316a7 7 0 0 1 .658-.36c.018.046.064.03.064.03" data-paper-data="{&quot;noHover&quot;:false,&quot;origItem&quot;:[&quot;Path&quot;,{&quot;applyMatrix&quot;:true,&quot;segments&quot;:[[[571.5502,132.80872],[0.17281,0.44918],[-2.79691,1.33011]],[[565.01364,136.33391],[-0.07774,-0.02011],[1.06556,0.76878]],[[575.20317,133.13458],[-1.5755,0.40101],[3.6103,-0.85583]],[[586.24622,134.19368],[-3.45738,-1.03819],[1.03267,0.4454]],[[591.60044,135.76666],[-2.06909,-0.64252],[-0.16455,-0.09628]],[[591.10027,135.49968],[0.16907,0.08094],[-3.04395,-1.45887]],[[581.28836,131.40524],[3.56076,-0.13225],[-3.30485,0.12274]],[[572.18221,133.09473],[3.10675,-1.10399],[0,0]]],&quot;closed&quot;:true}]}"/><path fill="#495539" d="M31.393 15.5c.178-.108.922-.318.735-.056-.198.277-.512.625-.656.898-.106.273-.43.615-.579.894-.062.118-.233.428-.31.672-.003-.045-.016-.073-.018-.117a3.8 3.8 0 0 1 .091-1.088c.062-.27.14-.661.329-.872l.01-.015c.006-.014.017-.017-.005-.037-.01-.01-.029-.032-.037-.033.13-.099.296-.163.44-.247" data-paper-data="{&quot;noHover&quot;:false,&quot;origItem&quot;:[&quot;Path&quot;,{&quot;applyMatrix&quot;:true,&quot;segments&quot;:[[[519.40946,248.02747],[1.35709,-0.91673],[0.08794,0.0136]],[[519.68689,248.17978],[-0.09474,-0.09474],[0.21063,0.21063]],[[519.79015,248.73692],[0.06703,-0.13587],[-0.0251,0.05624]],[[519.68689,248.88689],[0.04297,-0.04297],[0,0]],[[519.68689,248.88689],[0,0],[-1.98883,1.98883]],[[516.02308,257.27537],[0.76291,-2.66009],[-1.04673,3.64969]],[[514.50365,267.95299],[0.02388,-3.80583],[-0.00279,0.44437]],[[514.49899,269.28615],[0.00054,-0.4444],[0.89764,-2.37986]],[[517.93624,262.77651],[-0.68513,1.13648],[1.62647,-2.69794]],[[524.2546,254.02729],[-1.18945,2.65805],[1.57954,-2.63554]],[[531.14906,245.63426],[-2.11095,2.64674],[1.99635,-2.50306]],[[523.86533,245.81118],[1.82795,-0.97525],[-1.47142,0.75867]]],&quot;closed&quot;:true}],&quot;origPos&quot;:null,&quot;origRot&quot;:0}"/></g><path fill="#7a7652" stroke="#59563c" stroke-linecap="butt" stroke-width=".94592" d="M29.338 58.863s1.104-.895 1.338-1.09c.079-.066.07-.189.15-.251.424-.332.753-.398 1.17-.737.133-.107.147-.248.282-.353.21-.162.427-.139.634-.304.247-.199.573-.589.573-.589l2.48 3.251s-.288.529-.546.76c-.487.436-.873.517-1.366.945-.212.185-.302.327-.521.503-.045.036-.14-.018-.185.017-.504.382-.953.935-1.202 1.113-.083.06-.327-.014-.327-.014zm-1.432-15.326.275-2.869c.018-.182.363-.435.567-.415l6.559.629c.222.02.532.443.508.692l-.247 2.576c-.025.262-.453.633-.702.61-.748-.073-3.964-.381-6.5-.624-.2-.02-.48-.384-.46-.599z" data-paper-data="{&quot;origPos&quot;:null,&quot;origRot&quot;:0}"/><path fill="#7a7652" stroke="#59563c" stroke-linecap="butt" stroke-width=".94592" d="M27.01 50.049s.803-1.634 1.245-2.678c.495-1.169.654-1.827 1.163-2.99.275-.63.548-.985.818-1.617.46-1.079.989-2.524 1.09-2.8.034-.092.312-.144.456-.085l2.902 1.183c.133.054.266.294.218.392-.144.297-.85 1.73-1.315 2.872-.624 1.532-.798 2.394-1.447 3.916-.546 1.28-1.518 3.28-1.518 3.28l.61 6.537s-2.027.906-3.351.366c-.548-.223-.872-8.376-.872-8.376z" data-paper-data="{&quot;origRot&quot;:0,&quot;origPos&quot;:null}"/><path stroke="#6d6d6d" stroke-linecap="round" stroke-width=".94592" d="m29.382 61.635-.06 1.892"/><path stroke="#6d6d6d" stroke-linecap="butt" stroke-width=".94592" d="M28.668 45.304c.28-.763.57-1.555.718-1.955.049-.133.3-.277.412-.236l3.747 1.375c.141.052.307.387.25.541l-.67 1.828c-.074.2-.464.413-.64.349l-3.583-1.316c-.155-.057-.297-.414-.234-.586z" data-paper-data="{&quot;origPos&quot;:null,&quot;origRot&quot;:0}"/><path fill="#5a5a5a" stroke="#484848" stroke-linecap="butt" stroke-width=".35472" d="M31.833 42.118a.67.67 0 1 1 1.34 0 .67.67 0 0 1-1.34 0zm-1.34 2.995a.67.67 0 1 1 1.34 0 .67.67 0 0 1-1.34 0zm-1.261 3.075a.67.67 0 1 1 1.34 0 .67.67 0 0 1-1.34 0z" data-paper-data="{&quot;origPos&quot;:null}"/><path stroke="#6d6d6d" stroke-linecap="round" stroke-width=".94592" d="m30.65 46.335.434-1.064" data-paper-data="{&quot;origPos&quot;:null}"/></g></svg>