<svg xmlns="http://www.w3.org/2000/svg" xmlns:xlink="http://www.w3.org/1999/xlink" xml:space="preserve" width="64" height="64" viewBox="0 0 63.999998 64.000001"><defs><radialGradient id="a" cx="182.78966" cy="98.169563" r="3.52459" gradientTransform="translate(-88.511 -11.7)scale(.22894)" gradientUnits="userSpaceOnUse"><stop offset="0" stop-color="#929292"/><stop offset="1" stop-color="#5e5e5e"/></radialGradient><radialGradient id="b" cx="185.24609" cy="108.36381" r="3.52459" gradientTransform="translate(-88.511 -11.7)scale(.22894)" gradientUnits="userSpaceOnUse"><stop offset="0" stop-color="#929292"/><stop offset="1" stop-color="#5e5e5e"/></radialGradient><radialGradient xlink:href="#a" id="e" cx="182.78966" cy="98.169563" r="3.52459" gradientTransform="translate(-88.511 -11.7)scale(.22894)" gradientUnits="userSpaceOnUse"/><radialGradient xlink:href="#b" id="f" cx="185.24609" cy="108.36381" r="3.52459" gradientTransform="translate(-88.511 -11.7)scale(.22894)" gradientUnits="userSpaceOnUse"/><radialGradient xlink:href="#a" id="c" cx="182.78966" cy="98.169563" r="3.52459" gradientTransform="translate(-88.511 -11.7)scale(.22894)" gradientUnits="userSpaceOnUse"/><radialGradient xlink:href="#b" id="d" cx="185.24609" cy="108.36381" r="3.52459" gradientTransform="translate(-88.511 -11.7)scale(.22894)" gradientUnits="userSpaceOnUse"/></defs><path fill="#4d4b48" stroke="#000" stroke-width="0.641929" d="m-51.537 57.123.188-4.828.644.025-.188 4.828z" style="mix-blend-mode:normal;fill-rule:nonzero;stroke:#151514;stroke-width:1;stroke-linejoin:miter;stroke-miterlimit:10;stroke-dasharray:none;stroke-dashoffset:0;stroke-opacity:1" transform="matrix(-.99653 0 0 .99653 .767 .24)"/><path fill="#686561" stroke="#000" stroke-width="0.770315" d="m-50.8 56.96.183-4.736c.014-.359.393-.721.627-.712l1.195.046-.241 6.208-1.058-.042c-.267-.01-.724-.317-.707-.764z" style="mix-blend-mode:normal;fill-rule:nonzero;stroke:#151514;stroke-width:1;stroke-linecap:butt;stroke-linejoin:miter;stroke-miterlimit:10;stroke-dasharray:none;stroke-dashoffset:0;stroke-opacity:1" transform="matrix(-.99653 0 0 .99653 .767 .24)"/><path fill="#3d3c39" d="m-49.767 53.394.062-1.585 1.033.04-.061 1.585zm-.18 4.065.057-1.447 1.102.043-.056 1.447z" style="mix-blend-mode:normal;fill-rule:nonzero;stroke:#151514;stroke-linecap:butt;stroke-linejoin:miter;stroke-miterlimit:10;stroke-dasharray:none;stroke-dashoffset:0;stroke-opacity:1" transform="matrix(-.99653 0 0 .99653 .767 .24)"/><path fill="#4d4b48" stroke="#000" stroke-width="0.641929" d="m-51.537 57.123.188-4.828.644.025-.188 4.828z" style="mix-blend-mode:normal;fill-rule:nonzero;stroke:#151514;stroke-width:1;stroke-linejoin:miter;stroke-miterlimit:10;stroke-dasharray:none;stroke-dashoffset:0;stroke-opacity:1" transform="translate(63.233 .24)scale(.99653)"/><path fill="#686561" stroke="#000" stroke-width="0.770315" d="m-50.8 56.96.183-4.736c.014-.359.393-.721.627-.712l1.195.046-.241 6.208-1.058-.042c-.267-.01-.724-.317-.707-.764z" style="mix-blend-mode:normal;fill-rule:nonzero;stroke:#151514;stroke-width:1;stroke-linecap:butt;stroke-linejoin:miter;stroke-miterlimit:10;stroke-dasharray:none;stroke-dashoffset:0;stroke-opacity:1" transform="translate(63.233 .24)scale(.99653)"/><path fill="#3d3c39" d="m-49.767 53.394.062-1.585 1.033.04-.061 1.585zm-.18 4.065.057-1.447 1.102.043-.056 1.447z" style="mix-blend-mode:normal;fill-rule:nonzero;stroke:#151514;stroke-linecap:butt;stroke-linejoin:miter;stroke-miterlimit:10;stroke-dasharray:none;stroke-dashoffset:0;stroke-opacity:1" transform="translate(63.233 .24)scale(.99653)"/><path d="m-51.887 1.832.05 1.842-1.901 1.297c.068.83 2.554 10.773 2.554 10.773l1.745 9.104c.116 2.852.444 5.67.48 8.076.038 2.5-.13 5.666-.186 9.4-.024 1.61.934 6.926.924 7.336-.14 5.845-.248 9.016-.248 9.016l2.862 1.154c.259.232.381.603.642.826a6.54 6.54 0 0 0 3.373 1.53c2.765.365 6.5 1.064 10.377 1.171h.02c3.878-.107 7.612-.806 10.377-1.171a6.55 6.55 0 0 0 3.375-1.53c.26-.223.381-.594.64-.826l2.862-1.154s-.108-3.17-.248-9.016c-.01-.41.948-5.727.923-7.336-.056-3.734-.22-6.9-.183-9.4.036-2.405.362-5.224.478-8.076l1.744-9.104S-8.74 5.801-8.672 4.971l-1.9-1.297.049-1.842c-.435-1.028-7.483-1.65-7.668-.793l-.455 2.106-1.971.414c-.286 3.467-.54 6.345-1.967 8.222-2.101 2.765-5.302 3.133-8.607 3.133h-.026c-3.304.08-6.508-.368-8.61-3.133-1.426-1.877-1.68-4.755-1.966-8.222l-1.969-.414-.455-2.106c-.15-.692-7.698-.287-7.67.793" style="mix-blend-mode:normal;fill:#343f26;fill-opacity:1;fill-rule:nonzero;stroke:none;stroke-width:2.5;stroke-linejoin:miter;stroke-miterlimit:10;stroke-dasharray:none;stroke-dashoffset:0;stroke-opacity:1" transform="translate(63.097 .115)scale(.99653)"/><path d="m-40.047 15.477-8.17 4.09s1.453 6.42 1.564 10.308c.066 2.305.019 13.894-.07 17.888-.012.5 2.477.541 2.739 1.396.89 2.113.295 3.437.295 3.437l-3.862-.236-.121 4.739h-.23s3.21-.101 5.258-.066c.547.01.742 3.753.742 3.753l10.657.032h.08l10.657-.032s.195-3.744.742-3.753c2.048-.035 5.257.066 5.257.066h-.23l-.118-4.739-3.864.236s-.595-1.324.295-3.437c.262-.855 2.75-.896 2.74-1.396-.09-3.994-.137-15.583-.07-17.888.11-3.888 1.564-10.307 1.564-10.307l-8.171-4.091s-2.869 1.597-4.44 2.011c-1.42.375-2.919.398-4.387.399-1.479 0-2.988-.022-4.418-.399-1.57-.413-4.439-2.011-4.439-2.011" style="mix-blend-mode:normal;fill:#404d2e;fill-opacity:1;fill-rule:nonzero;stroke-width:.897937;stroke-linejoin:miter;stroke-miterlimit:10;stroke-dasharray:none;stroke-dashoffset:0" transform="translate(63.097 .115)scale(.99653)"/><path d="m-51.887 1.832.05 1.842-1.901 1.297c.068.83 2.554 10.773 2.554 10.773l1.745 9.104c.116 2.852.444 5.67.48 8.076.038 2.5-.13 5.666-.186 9.4-.024 1.61.934 6.926.924 7.336-.14 5.845-.248 9.016-.248 9.016l2.862 1.154c.259.232.381.603.642.826a6.54 6.54 0 0 0 3.373 1.53c2.765.365 6.5 1.064 10.377 1.171h.02c3.878-.107 7.612-.806 10.377-1.171a6.55 6.55 0 0 0 3.375-1.53c.26-.223.381-.594.64-.826l2.862-1.154s-.108-3.17-.248-9.016c-.01-.41.948-5.727.923-7.336-.056-3.734-.22-6.9-.183-9.4.036-2.405.362-5.224.478-8.076l1.744-9.104S-8.74 5.801-8.672 4.971l-1.9-1.297.049-1.842c-.435-1.028-7.483-1.65-7.668-.793l-.455 2.106-1.971.414c-.286 3.467-.54 6.345-1.967 8.222-2.101 2.765-5.302 3.133-8.607 3.133h-.026c-3.304.08-6.508-.368-8.61-3.133-1.426-1.877-1.68-4.755-1.966-8.222l-1.969-.414-.455-2.106c-.15-.692-7.698-.287-7.67.793z" style="mix-blend-mode:normal;fill:none;fill-opacity:1;fill-rule:nonzero;stroke:#15190f;stroke-width:1.5;stroke-linejoin:miter;stroke-miterlimit:10;stroke-dasharray:none;stroke-dashoffset:0;stroke-opacity:1" transform="translate(63.097 .115)scale(.99653)"/><path d="m-38.04 20.995-5.276 3.008 3.01 24.272.23 5.888 8.87.026 8.871-.026.233-5.888 3.008-24.272-5.276-3.008-6.835.204z" style="fill:#485734;fill-opacity:1;stroke:#151a0f;stroke-width:1.13693;stroke-linecap:round;stroke-dasharray:none;stroke-opacity:1;paint-order:markers fill stroke" transform="translate(63.097 .115)scale(.99653)"/><path d="M-31.208 25.727a28.872 8.662 0 0 0-11.829.778l.651 3.442a28.872 8.662 0 0 1 11.178-.694 28.872 8.662 0 0 1 11.181.689l.653-3.454a28.872 8.662 0 0 0-11.834-.76Z" style="fill:#3c482b;fill-opacity:1;stroke:#151a0f;stroke-width:.965307;stroke-linecap:round;stroke-dasharray:none;stroke-opacity:1;paint-order:markers fill stroke" transform="translate(63.097 .67)scale(.99653)"/><path d="M-31.208 32.87a26.87 8.654 0 0 0-11.008.777l.606 3.44a26.87 8.654 0 0 1 10.402-.695 26.87 8.654 0 0 1 10.406.689l.608-3.451a26.87 8.654 0 0 0-11.014-.76z" style="fill:#3c482b;fill-opacity:1;stroke:#151a0f;stroke-width:.930841;stroke-linecap:round;stroke-dasharray:none;stroke-opacity:1;paint-order:markers fill stroke" transform="translate(63.097 .67)scale(.99653)"/><path d="M-31.208 39.975a24.659 8.654 0 0 0-10.102.777l.556 3.44a24.659 8.654 0 0 1 9.546-.695 24.659 8.654 0 0 1 9.55.689l.558-3.451a24.659 8.654 0 0 0-10.108-.76z" style="fill:#3c482b;fill-opacity:1;stroke:#151a0f;stroke-width:.891722;stroke-linecap:round;stroke-dasharray:none;stroke-opacity:1;paint-order:markers fill stroke" transform="translate(63.097 .67)scale(.99653)"/><path d="M-31.208 47.046a22.72 8.654 0 0 0-9.307.778l.512 3.439a22.72 8.654 0 0 1 8.795-.694 22.72 8.654 0 0 1 8.8.688l.513-3.45a22.72 8.654 0 0 0-9.313-.76z" style="fill:#3c482b;fill-opacity:1;stroke:#151a0f;stroke-width:.855934;stroke-linecap:round;stroke-dasharray:none;stroke-opacity:1;paint-order:markers fill stroke" transform="translate(63.097 .67)scale(.99653)"/><path d="m-38.04 20.995-5.276 3.008 3.01 24.272.23 5.888 8.87.026 8.871-.026.233-5.888 3.008-24.272-5.276-3.008-6.835.204z" style="fill:none;fill-opacity:1;stroke:#151a0f;stroke-width:1.13693;stroke-linecap:round;stroke-dasharray:none;stroke-opacity:1;paint-order:markers fill stroke" transform="translate(63.097 .67)scale(.99653)"/><path fill="#404d2e" d="m-48.586 18.065-3.14-11.839 1.138-.935.864-2.49 3.273-.217 1.3 2.04 1.439.579s.457 3.904 1.13 5.731c.46 1.248 1.951 3.48 1.951 3.48z" style="mix-blend-mode:normal;fill-rule:nonzero;stroke-linejoin:miter;stroke-miterlimit:10;stroke-dasharray:none;stroke-dashoffset:0" transform="translate(63.14 .115)scale(.99653)"/><path fill="none" stroke="#716e6a" stroke-width="0.801282" d="m-50.171 9.68-.373-1.963 5.685-1.08.373 1.963z" style="mix-blend-mode:normal;fill-rule:nonzero;stroke-linejoin:miter;stroke-miterlimit:10;stroke-dasharray:none;stroke-dashoffset:0" transform="translate(63.14 .115)scale(.99653)"/><path fill="#29321e" d="m-49.837 8.953-.97-4.581 4.856-.246.9 3.755z" style="mix-blend-mode:normal;fill-rule:nonzero;stroke-linejoin:miter;stroke-miterlimit:10;stroke-dasharray:none;stroke-dashoffset:0" transform="translate(63.14 .115)scale(.99653)"/><path fill="url(#a)" stroke="#3c3c3c" stroke-width="0.572345" d="M-46.664 11.577a.807.807 0 1 1 0-1.614.807.807 0 0 1 0 1.614z" data-paper-data="{&quot;index&quot;:null}" style="mix-blend-mode:normal;fill:url(#c);fill-rule:nonzero;stroke-linejoin:miter;stroke-miterlimit:10;stroke-dasharray:none;stroke-dashoffset:0" transform="translate(63.14 .115)scale(.99653)"/><path fill="url(#b)" stroke="#3c3c3c" stroke-width="0.572345" d="M-46.11 13.884a.807.807 0 1 1 0-1.614.807.807 0 0 1 0 1.614z" data-paper-data="{&quot;index&quot;:null}" style="mix-blend-mode:normal;fill:url(#d);fill-rule:nonzero;stroke-linejoin:miter;stroke-miterlimit:10;stroke-dasharray:none;stroke-dashoffset:0" transform="translate(63.14 .115)scale(.99653)"/><path fill="#404d2e" d="m-48.586 18.065-3.14-11.839 1.138-.935.864-2.49 3.273-.217 1.3 2.04 1.439.579s.457 3.904 1.13 5.731c.46 1.248 1.951 3.48 1.951 3.48z" style="mix-blend-mode:normal;fill-rule:nonzero;stroke-linejoin:miter;stroke-miterlimit:10;stroke-dasharray:none;stroke-dashoffset:0" transform="matrix(-.99653 0 0 .99653 .86 .115)"/><path fill="none" stroke="#716e6a" stroke-width="0.801282" d="m-50.171 9.68-.373-1.963 5.685-1.08.373 1.963z" style="mix-blend-mode:normal;fill-rule:nonzero;stroke-linejoin:miter;stroke-miterlimit:10;stroke-dasharray:none;stroke-dashoffset:0" transform="matrix(-.99653 0 0 .99653 .86 .115)"/><path fill="#29321e" d="m-49.837 8.953-.97-4.581 4.856-.246.9 3.755z" style="mix-blend-mode:normal;fill-rule:nonzero;stroke-linejoin:miter;stroke-miterlimit:10;stroke-dasharray:none;stroke-dashoffset:0" transform="matrix(-.99653 0 0 .99653 .86 .115)"/><path fill="url(#a)" stroke="#3c3c3c" stroke-width="0.572345" d="M-46.664 11.577a.807.807 0 1 1 0-1.614.807.807 0 0 1 0 1.614z" data-paper-data="{&quot;index&quot;:null}" style="mix-blend-mode:normal;fill:url(#e);fill-rule:nonzero;stroke-linejoin:miter;stroke-miterlimit:10;stroke-dasharray:none;stroke-dashoffset:0" transform="matrix(-.99653 0 0 .99653 .86 .115)"/><path fill="url(#b)" stroke="#3c3c3c" stroke-width="0.572345" d="M-46.11 13.884a.807.807 0 1 1 0-1.614.807.807 0 0 1 0 1.614z" data-paper-data="{&quot;index&quot;:null}" style="mix-blend-mode:normal;fill:url(#f);fill-rule:nonzero;stroke-linejoin:miter;stroke-miterlimit:10;stroke-dasharray:none;stroke-dashoffset:0" transform="matrix(-.99653 0 0 .99653 .86 .115)"/><path fill="none" stroke="#343f26" stroke-linecap="round" stroke-width="0.513543" d="m-43.887 51.713 1.289 6.291m23.988-6.291-1.288 6.291" style="mix-blend-mode:normal;fill:#343f26;fill-opacity:1;fill-rule:nonzero;stroke-width:1;stroke-linejoin:miter;stroke-miterlimit:10;stroke-dasharray:none;stroke-dashoffset:0" transform="matrix(1.02557 0 0 .9944 64.047 .23)"/></svg>