<svg xmlns="http://www.w3.org/2000/svg" xmlns:xlink="http://www.w3.org/1999/xlink" xml:space="preserve" id="Layer_1" width="45.535633" height="64" x="0px" y="0px" version="1.1" viewBox="0 0 45.535633 64.000002"><defs id="defs36"><linearGradient id="linearGradient3"><stop id="stop3" offset="0" style="stop-color:#0073ce;stop-opacity:1"/><stop id="stop4" offset="1" style="stop-color:#35a3ff;stop-opacity:1"/></linearGradient><linearGradient id="linearGradient1"><stop id="stop1" offset="0" style="stop-color:#ff8e32;stop-opacity:1"/><stop id="stop2" offset="1" style="stop-color:#cb5f00;stop-opacity:1"/></linearGradient><linearGradient xlink:href="#linearGradient3" id="linearGradient20" x1="-6.7626944" x2="-14.713812" y1="10.917506" y2="18.868624" gradientUnits="userSpaceOnUse"/><linearGradient xlink:href="#linearGradient1" id="linearGradient23" x1="-14.19135" x2="-6.3276072" y1="27.158058" y2="19.294315" gradientUnits="userSpaceOnUse"/><linearGradient xlink:href="#linearGradient3" id="linearGradient24" x1="-6.7626944" x2="-14.713812" y1="10.917506" y2="18.868624" gradientUnits="userSpaceOnUse"/><linearGradient xlink:href="#linearGradient1" id="linearGradient25" x1="-14.19135" x2="-6.3276072" y1="27.158058" y2="19.294315" gradientUnits="userSpaceOnUse"/><linearGradient xlink:href="#linearGradient3" id="linearGradient26" x1="-6.7626944" x2="-14.713812" y1="10.917506" y2="18.868624" gradientUnits="userSpaceOnUse"/><linearGradient xlink:href="#linearGradient1" id="linearGradient27" x1="-14.19135" x2="-6.3276072" y1="27.158058" y2="19.294315" gradientUnits="userSpaceOnUse"/><linearGradient xlink:href="#linearGradient3" id="linearGradient28" x1="-6.7626944" x2="-14.713812" y1="10.917506" y2="18.868624" gradientUnits="userSpaceOnUse"/><linearGradient xlink:href="#linearGradient1" id="linearGradient29" x1="-14.19135" x2="-6.3276072" y1="27.158058" y2="19.294315" gradientUnits="userSpaceOnUse"/></defs><style id="style2" type="text/css">.st1{fill:#c4c4c4}</style><g id="Layer_2_00000012438235742420490570000004933091950338048652_" transform="translate(-36.914 -11.903)scale(.14713)"><path id="path4" d="M313.6 93.4h184.1c27.7 0 50.2 24.6 50.2 54.9v300.2c0 30.3-22.5 54.9-50.2 54.9H313.6c-27.7 0-50.2-24.6-50.2-54.9V148.3c0-30.3 22.5-54.9 50.2-54.9z" style="fill:#a0abb8;stroke-width:25;stroke-miterlimit:10;stroke:#232323;stroke-opacity:1"/></g><path id="path7" d="M6.613 25.195v-13.02c0-2.84 2.53-5.15 5.65-5.15h2.722c3.119 0 5.65 2.31 5.65 5.15v13.02c0 2.84-2.531 5.15-5.65 5.15h-2.722c-3.12-.015-5.65-2.31-5.65-5.15" class="st1" style="stroke-width:.147126"/><path id="path9" d="M24.901 51.825v-13.02c0-2.84 2.53-5.15 5.65-5.15h2.722c3.119 0 5.65 2.31 5.65 5.15v13.02c0 2.84-2.531 5.15-5.65 5.15H30.55c-3.12 0-5.65-2.31-5.65-5.15" class="st1" style="stroke-width:.147126"/><path id="path11" d="M24.901 25.21V12.175c0-2.84 2.53-5.15 5.65-5.15h2.722c3.119 0 5.65 2.31 5.65 5.15v13.02c0 2.84-2.531 5.15-5.65 5.15H30.55c-3.12-.015-5.65-2.295-5.65-5.135" class="st1" style="stroke-width:.147126"/><path id="path13" d="M6.613 51.825v-13.02c0-2.84 2.53-5.15 5.65-5.15h2.722c3.119 0 5.65 2.31 5.65 5.15v13.02c0 2.84-2.531 5.15-5.65 5.15h-2.722c-3.12-.015-5.65-2.31-5.65-5.15" class="st1" style="stroke-width:.147126"/><g id="g14" transform="matrix(.99998 0 0 -.99998 24.144 37.64)"><path id="path2" d="M-14.714 18.955v-6.17a4.184 4.184 0 0 1 4.193-4.193 4.184 4.184 0 0 1 4.193 4.193v6.17" style="opacity:1;fill:url(#linearGradient26);fill-opacity:1;stroke:none;stroke-width:5.12376;stroke-linecap:round;stroke-dasharray:none;stroke-opacity:1;paint-order:markers fill stroke"/><path id="path14" d="M-6.328 18.955v6.169a4.184 4.184 0 0 1-4.193 4.193 4.184 4.184 0 0 1-4.193-4.193v-6.169" style="opacity:1;fill:url(#linearGradient27);fill-opacity:1;stroke:none;stroke-width:5.12376;stroke-linecap:round;stroke-dasharray:none;stroke-opacity:1;paint-order:markers fill stroke"/></g><g id="g28" transform="matrix(.99998 0 0 -.99998 24.144 64.269)"><path id="path27" d="M-14.714 18.955v-6.17a4.184 4.184 0 0 1 4.193-4.193 4.184 4.184 0 0 1 4.193 4.193v6.17" style="opacity:1;fill:url(#linearGradient28);fill-opacity:1;stroke:none;stroke-width:5.12376;stroke-linecap:round;stroke-dasharray:none;stroke-opacity:1;paint-order:markers fill stroke"/><path id="path28" d="M-6.328 18.955v6.169a4.184 4.184 0 0 1-4.193 4.193 4.184 4.184 0 0 1-4.193-4.193v-6.169" style="opacity:1;fill:url(#linearGradient29);fill-opacity:1;stroke:none;stroke-width:5.12376;stroke-linecap:round;stroke-dasharray:none;stroke-opacity:1;paint-order:markers fill stroke"/></g><g id="g18" transform="translate(42.432 26.36)scale(.99998)"><path id="path15" d="M-14.714 18.955v-6.17a4.184 4.184 0 0 1 4.193-4.193 4.184 4.184 0 0 1 4.193 4.193v6.17" style="opacity:1;fill:url(#linearGradient24);fill-opacity:1;stroke:none;stroke-width:5.12376;stroke-linecap:round;stroke-dasharray:none;stroke-opacity:1;paint-order:markers fill stroke"/><path id="path18" d="M-6.328 18.955v6.169a4.184 4.184 0 0 1-4.193 4.193 4.184 4.184 0 0 1-4.193-4.193v-6.169" style="opacity:1;fill:url(#linearGradient25);fill-opacity:1;stroke:none;stroke-width:5.12376;stroke-linecap:round;stroke-dasharray:none;stroke-opacity:1;paint-order:markers fill stroke"/></g><g id="g20" transform="translate(21.816 7.35)scale(.99998)"><g id="g1" transform="translate(20.617 -7.619)"><path id="path19" d="M-14.714 18.955v-6.17a4.184 4.184 0 0 1 4.193-4.193 4.184 4.184 0 0 1 4.193 4.193v6.17" style="opacity:1;fill:url(#linearGradient20);fill-opacity:1;stroke:none;stroke-width:5.12376;stroke-linecap:round;stroke-dasharray:none;stroke-opacity:1;paint-order:markers fill stroke"/><path id="path20" d="M-6.328 18.955v6.169a4.184 4.184 0 0 1-4.193 4.193 4.184 4.184 0 0 1-4.193-4.193v-6.169" style="opacity:1;fill:url(#linearGradient23);fill-opacity:1;stroke:none;stroke-width:5.12376;stroke-linecap:round;stroke-dasharray:none;stroke-opacity:1;paint-order:markers fill stroke"/></g></g></svg>