<svg xmlns="http://www.w3.org/2000/svg" width="64" height="64" viewBox="0 0 64.000001 63.999999"><defs><radialGradient id="a" cx="348.79999" cy="175.49857" r="109.06558" gradientTransform="matrix(1.01605 0 0 1.0162 -5.707 -2.781)" gradientUnits="userSpaceOnUse"><stop offset="0" stop-color="#333"/><stop offset="1" stop-color="#575755"/></radialGradient></defs><path fill="#222526" d="M270.29 174.056s7.137-.086 13.56 2.152c5.497 1.916 10.7-.466 12.9 2.354 4.563 5.844 13.874 57.48 13.874 57.48s-22.462-19.842-29.02-29.517c-6.56-9.675-11.314-32.469-11.314-32.469" style="mix-blend-mode:normal;fill-rule:nonzero;stroke-linejoin:miter;stroke-miterlimit:10;stroke-dasharray:none;stroke-dashoffset:0" transform="translate(-33.733 -17.017)scale(.27381)"/><path fill="#3a3a3a" stroke="#1e1e1e" stroke-width="5" d="M167.782 270.261s4.413-3.622 7.263-5.335c3.203-1.925 11.684-4.66 11.684-4.66l4.074 11.415s-13.743 6.774-17.896 6.518c-3.345-.206-5.125-7.938-5.125-7.938zm32.661-9.129s-.284-29.387-.334-53.13c-.032-15.695.334-36.405.334-36.405s7.013-.268 7.054.997c.595 18.192-2.647 63.412.426 65.131 13.944 7.8 81.058-17.425 81.058-17.425l7.379 10.331s-56.824 10.949-74.324 16.572c-10.893 3.5-21.593 13.93-21.593 13.93z" style="mix-blend-mode:normal;fill-rule:nonzero;stroke-linejoin:miter;stroke-miterlimit:10;stroke-dasharray:none;stroke-dashoffset:0" transform="translate(-33.733 -17.017)scale(.27381)"/><path fill="#2a2a2a" stroke="#1e1e1e" stroke-width="5" d="M202.903 257.196V234.7l23.118 9.517z" style="mix-blend-mode:normal;fill-rule:nonzero;stroke-linejoin:miter;stroke-miterlimit:10;stroke-dasharray:none;stroke-dashoffset:0" transform="translate(-33.733 -17.017)scale(.27381)"/><path fill="#242424" stroke-width="5" d="M181.697 285.285c1.287-8.726 4.974-35.045 4.974-50.226v-61.987h13.28v61.003c0 13.633-3.443 39.841-5.276 52.828-.665 4.71-2.78 6.817-4.799 5.768l-6.595-3.43c-.933-.486-1.856-2.11-1.584-3.956z" style="mix-blend-mode:normal;fill-rule:nonzero;stroke:#141414;stroke-linejoin:miter;stroke-miterlimit:10;stroke-dasharray:none;stroke-dashoffset:0;stroke-opacity:1" transform="translate(-33.733 -17.017)scale(.27381)"/><path fill="#242424" stroke-width="5" d="m173.882 282.286-5.41-10.33s39.226-9.757 71.563-16.566c13.714-2.888 25.382-3.632 33.604-5.498 18.355-4.167 36.985-11.882 36.985-11.882l8.639 2.696s-.727 4.95-1.033 6.088c-.465 1.727-3.67 4.007-3.67 4.007z" style="mix-blend-mode:normal;fill-rule:nonzero;stroke:#141414;stroke-linejoin:miter;stroke-miterlimit:10;stroke-dasharray:none;stroke-dashoffset:0;stroke-opacity:1" transform="translate(-33.733 -17.017)scale(.27381)"/><path fill="#1c1c1c" d="M312.753 238.664s-8.843-.884-15.658-4.628c-4.882-2.682-8.245-8.03-8.78-10.041-.536-2.009-2.883-6.96-.198-10.995 4.017-6.034 15.863-12.087 15.863-12.087z" style="mix-blend-mode:normal;fill-rule:nonzero;stroke-linejoin:miter;stroke-miterlimit:10;stroke-dasharray:none;stroke-dashoffset:0" transform="translate(-33.733 -17.017)scale(.27381)"/><path fill="url(#a)" stroke-width="5" d="M130.715 162.25s-.15-33.222 21.583-57.574c15.825-17.731 44.498-30.047 70.423-34.475.817-.14-1.342-4.8.515-4.837 7.64-.15 24.622.914 40.321 3.783 13.11 2.395 25.173 6.357 31.604 9.01 11.646 4.804 22.094 11.427 30.418 19.974 19.109 19.62 26.768 47.601 26.768 77.893 0 14.928-1.074 31.031-6.159 42.583-6.99 15.881-19.81 24.035-31.933 16.66-7.474-4.547-10.281-53.148-20.155-57.572-10.546-4.725-20.609-5.709-34.123-5.709-16.131 0-49.69 7.049-49.69 7.049l-.705-10.636s-29.39 2.153-34.285 1.802c-24.269-1.739-44.582-7.951-44.582-7.951z" style="mix-blend-mode:normal;fill:url(#a);fill-rule:nonzero;stroke:#141414;stroke-width:5.47825;stroke-linejoin:miter;stroke-miterlimit:10;stroke-dasharray:none;stroke-dashoffset:0;stroke-opacity:1" transform="translate(-33.733 -17.017)scale(.27381)"/><path fill="#404040" d="M185.542 217.092v-5.304h13.92v5.304z" style="mix-blend-mode:normal;fill-rule:nonzero;stroke-linejoin:miter;stroke-miterlimit:10;stroke-dasharray:none;stroke-dashoffset:0" transform="translate(-33.733 -17.017)scale(.27381)"/><path fill="none" stroke="#313131" stroke-width="4" d="m184.405 221.307-1.187-11.208 17.713.458 1.186 11.207z" style="mix-blend-mode:normal;fill-rule:nonzero;stroke-linejoin:miter;stroke-miterlimit:10;stroke-dasharray:none;stroke-dashoffset:0" transform="translate(-33.733 -17.017)scale(.27381)"/><path fill="#404040" d="m272.828 249.016 5.2-1.041 2.732 13.65-5.2 1.042z" style="mix-blend-mode:normal;fill-rule:nonzero;stroke-linejoin:miter;stroke-miterlimit:10;stroke-dasharray:none;stroke-dashoffset:0" transform="translate(-33.733 -17.017)scale(.27381)"/><path fill="none" stroke="#313131" stroke-width="4" d="m269.286 248.939 12.965-1.559 1.72 14.986-12.965 1.558z" style="mix-blend-mode:normal;fill-rule:nonzero;stroke-linejoin:miter;stroke-miterlimit:10;stroke-dasharray:none;stroke-dashoffset:0" transform="translate(-33.733 -17.017)scale(.27381)"/><path fill="none" stroke="#313131" stroke-linecap="round" stroke-width="3" d="m269.394 239.632-11.6 1.658-3.315-12.928 11.932-3.978" style="mix-blend-mode:normal;fill-rule:nonzero;stroke-linejoin:miter;stroke-miterlimit:10;stroke-dasharray:none;stroke-dashoffset:0" transform="translate(-33.733 -17.017)scale(.27381)"/><path d="M301.254 228.08c.29.101.642.347.642.945 0 1.016-1.016 1.016-1.016 1.016l-1.296-.695c-.666-2.244-3.092-4.225-3.952-6.562-1.198-3.255-.409-7.909-.409-11.327 0 0 0-1.017 1.017-1.017s1.016 1.017 1.016 1.017c0 3.05-.858 7.657.254 10.55.853 2.22 2.77 3.985 3.744 6.073" style="mix-blend-mode:normal;fill:#1c1c1c;fill-opacity:1;fill-rule:nonzero;stroke-linejoin:miter;stroke-miterlimit:10;stroke-dasharray:none;stroke-dashoffset:0" transform="translate(-33.733 -17.017)scale(.27381)"/><path fill="#141414" stroke-width="2.5" d="M196.81 123.614c0-5.14-.508-23.62-.508-31.8 0-2.252 15.663-5.592 23.744-5.845 4.316-.135-.848-20.829 3.323-20.83 8.727-1.466 31.041 3.163 39.076 4.173 4.842 1.498.448 14.825 5.35 15.915 10.902.501 24.47 4.41 24.47 6.41 0 4.721-.508 21.515-.508 30.32 0 2.641-1.768 4.309-3.977 4.309-4.968 0-17.443-.352-38.587.257-19.041.548-38.52 2.063-47.411 2.063-3.15 0-4.971-2.551-4.971-4.972z" style="mix-blend-mode:normal;fill:#141414;fill-opacity:1;fill-rule:nonzero;stroke:#141414;stroke-linejoin:miter;stroke-miterlimit:10;stroke-dasharray:none;stroke-dashoffset:0;stroke-opacity:1" transform="translate(-33.733 -17.017)scale(.27381)"/><path fill="none" stroke-linecap="round" d="m140.523 122.852-1.017 2.439-3.657 1.829" style="mix-blend-mode:normal;fill-rule:nonzero;stroke:#141414;stroke-linejoin:miter;stroke-miterlimit:10;stroke-dasharray:none;stroke-dashoffset:0;stroke-opacity:1" transform="translate(-33.733 -17.017)scale(.27381)"/><path fill="none" stroke-linecap="round" stroke-width="3.5" d="m165.314 87.285 5.69-2.846" style="mix-blend-mode:normal;fill-rule:nonzero;stroke:#141414;stroke-linejoin:miter;stroke-miterlimit:10;stroke-dasharray:none;stroke-dashoffset:0;stroke-opacity:1" transform="translate(-33.733 -17.017)scale(.27381)"/><path fill="#141414" stroke-width="2.5" d="M335.99 222.714s6.91-15.097 6.91-22.61c0-7.209-6.91-21.594-6.91-21.594l19.61-.407s-1.052 15.64-1.829 23.017c-.813 7.723-3.048 21.188-3.048 21.188z" style="mix-blend-mode:normal;fill-rule:nonzero;stroke:#141414;stroke-linejoin:miter;stroke-miterlimit:10;stroke-dasharray:none;stroke-dashoffset:0;stroke-opacity:1" transform="translate(-33.733 -17.017)scale(.27381)"/><path fill="#232323" stroke-width="3.5" d="M304.34 133.16c1.42.658 5.604 3.941 10.07 8.903 3.91 4.344 7.847 9.975 12.86 16.258 14.967 18.757 18.292 36.518 17.269 45.49-.287 2.512-.887 10.724-3.74 18.517-2.627 7.181-6.834 14.007-10.98 15.694-3.495 1.423-8.494-1.683-11.653-2.33-2.132-.436-5.308-6.224-7.81-18.377-2.333-11.334-4.814-24.412-11.263-34.269-7.613-11.637-24.172-11.014-28.653-11.987-8.483.582-32.89 2.423-34.196 2.515-7.754.542-17.573 3.16-24.557 5.143-3.213-.162-.416-7.977-2.959-8.216-14.336-1.344-24.946 3.41-35.068-4.638 0 0-2.085-2.28-1.912-4.783.519-7.509 4.641-25.37 19.915-29.002 0 0 91.51-8.748 112.677 1.081z" style="mix-blend-mode:normal;fill-rule:nonzero;stroke:#141414;stroke-linejoin:miter;stroke-miterlimit:10;stroke-dasharray:none;stroke-dashoffset:0;stroke-opacity:1" transform="translate(-33.733 -17.017)scale(.27381)"/><path fill="#313131" d="M292.164 169.002s-83.99.94-83.95-2.032c.011-.77-.414-5.782-.414-5.782l-19.722-.161 4.217-7.637-3.496-8.138s.367-2.23.996-3.153c.557-.817 2.59-2.106 2.59-2.106l100.185-.837h11.165l21.72 23.552s9.37 34.627 11.819 50.548c.669 4.349-.87 7.114-1.219 7.624-2.642 3.86-7.496 9.239-9.442 10.866-1.15.961-3.185.68-4.66-.553-.923-.77-1.627-2.282-1.76-2.95-1.24-6.232-4.523-21.493-8.52-30.235-.88-1.924-4.755-13.598-4.948-16.024-.156-1.959 2.292-2.332 2.767-3.822.353-1.109-1.11-3.379-1.691-4.483-3-5.713-8.526-8.492-12.243-9.773-2.224-.766-3.394 5.096-3.394 5.096" style="mix-blend-mode:normal;fill-rule:nonzero;stroke-linejoin:miter;stroke-miterlimit:10;stroke-dasharray:none;stroke-dashoffset:0" transform="translate(-33.733 -17.017)scale(.27381)"/><path fill="#545454" stroke-width="3" d="m276.9 196.813 13.58-17.248s-.91 9.279 1.502 13.358c2.037 3.447 6.558 8.031 6.558 8.031L286.007 214.3s-5.599-6.48-7.214-9.58c-1.385-2.66-1.894-7.907-1.894-7.907z" style="mix-blend-mode:normal;fill-rule:nonzero;stroke:#141414;stroke-linejoin:miter;stroke-miterlimit:10;stroke-dasharray:none;stroke-dashoffset:0;stroke-opacity:1" transform="translate(-33.733 -17.017)scale(.27381)"/><g stroke-width="1.96826" style="mix-blend-mode:normal;fill-rule:nonzero;stroke-linejoin:miter;stroke-miterlimit:10;stroke-dasharray:none;stroke-dashoffset:0"><path fill="#545454" d="M175.2 157.633s1.805-7.068 3.257-10.03c1.311-2.676 5.276-6.77 5.276-6.77s11.134 4.979 11.134 10.134a9.333 9.333 0 0 1-9.334 9.333c-5.154 0-10.333-2.667-10.333-2.667z" style="stroke:#141414;stroke-width:1.96826;stroke-opacity:1" transform="matrix(.2782 0 0 .27825 -35.296 -17.779)"/><path fill="#484848" d="M180.2 151.967a5.333 5.333 0 1 1 10.667 0 5.333 5.333 0 0 1-10.667 0z" style="stroke:#141414;stroke-width:1.96826;stroke-opacity:1" transform="matrix(.2782 0 0 .27825 -35.296 -17.779)"/></g><path fill="#414141" d="m195.741 137.777-.203-2.913 11.719-1.83v4.743zm44.622 0v-5.59h4.91v5.59zm9.342 0v-5.59h4.91v5.59zm9.342 0v-5.59h4.91v5.59zm9.343 0v-5.59h4.91v5.59zm-37.369 0v-5.59h4.91v5.59zm-18.684 0v-5.59h4.91v5.59zm9.342 0v-5.59h4.91v5.59zm-25.091 28.013v-3.116h11.515v4.742zm44.537 1.626v-5.59h4.911v5.59zm9.37 0v-5.59h4.911v5.59zm9.371 0v-5.59h4.91v5.59zm9.37 0v-5.59h4.91v5.59zm-37.481 0v-5.59h4.91v5.59zm-18.741 0v-5.59h4.911v5.59zm9.371 0v-5.59h4.91v5.59z" style="mix-blend-mode:normal;fill-rule:nonzero;stroke-linejoin:miter;stroke-miterlimit:10;stroke-dasharray:none;stroke-dashoffset:0" transform="translate(-33.733 -17.017)scale(.27381)"/><path fill="#0a0a0a" d="M203.7 155.984v-10.84h4.234v10.84zm18.755 0v-10.84h4.234v10.84zm18.755 0v-10.84h4.233v10.84zm18.754 0v-10.84h4.234v10.84zm18.755 0v-10.84h4.233v10.84z" style="mix-blend-mode:normal;fill-rule:nonzero;stroke-linejoin:miter;stroke-miterlimit:10;stroke-dasharray:none;stroke-dashoffset:0" transform="translate(-33.733 -17.017)scale(.27381)"/><path fill="#545454" stroke-width="2" d="M342.9 191.699s1.087 7.231 1.167 10.583c.072 3.026-.875 8.562-.875 8.562s-7.467.63-8.97-4.036c-1.504-4.667-.466-10.377 2.318-12.756s6.36-2.353 6.36-2.353z" style="mix-blend-mode:normal;fill-rule:nonzero;stroke:#141414;stroke-linejoin:miter;stroke-miterlimit:10;stroke-dasharray:none;stroke-dashoffset:0;stroke-opacity:1" transform="translate(-33.733 -17.017)scale(.27381)"/><path fill="#484848" stroke-width="2" d="M341.853 199.135c.859 2.667.266 5.93-1.326 7.289-1.59 1.359-3.577.3-4.436-2.367-.86-2.667-.267-5.93 1.325-7.289 1.59-1.359 3.577-.3 4.437 2.367z" style="mix-blend-mode:normal;fill-rule:nonzero;stroke:#141414;stroke-linejoin:miter;stroke-miterlimit:10;stroke-dasharray:none;stroke-dashoffset:0;stroke-opacity:1" transform="translate(-33.733 -17.017)scale(.27381)"/><path fill="#0a0a0a" d="m311.373 176.269 10.328-3.288 1.283 4.035-10.327 3.287zm5.437 17.643 10.327-3.288 1.284 4.035-10.328 3.287zm5.803 18.237 10.327-3.287 1.284 4.034-10.328 3.288z" style="mix-blend-mode:normal;fill-rule:nonzero;stroke-linejoin:miter;stroke-miterlimit:10;stroke-dasharray:none;stroke-dashoffset:0" transform="translate(-33.733 -17.017)scale(.27381)"/><path fill="#414141" d="m308.863 191.073 5.347-1.624 1.427 4.7-5.347 1.624zm2.447 8.639 5.346-1.625 1.428 4.7-5.347 1.624zm2.903 9.561 5.347-1.625 1.428 4.7-5.347 1.624zm2.87 8.864 5.347-1.625 1.427 4.7-5.347 1.624z" style="mix-blend-mode:normal;fill-rule:nonzero;stroke-linejoin:miter;stroke-miterlimit:10;stroke-dasharray:none;stroke-dashoffset:0" transform="translate(-33.733 -17.017)scale(.27381)"/><path fill="#232323" d="M296.181 163.907c-.762 0-.762-.763-.762-.763l.08-.95c1.74-3.431 2.99-6.307 5.797-9.101.368-.493 3.134-3.186 3.066-3.514-.296-1.43-2.217-2.007-3.066-3.007-2.11-2.487.095-6.229 2.419-7.657 0 0 .653-.392 1.045.261.392.654-.261 1.046-.261 1.046-.76.442-.96.398-1.354 1.143-.52.982-1.633 2.394-1.16 3.653.736 1.96 3.707 1.936 3.898 4.458.106 1.401-2.59 3.492-3.436 4.616-2.703 2.715-3.93 5.436-5.584 8.784l.08.268s0 .763-.762.763" style="mix-blend-mode:normal;fill-rule:nonzero;stroke-linejoin:miter;stroke-miterlimit:10;stroke-dasharray:none;stroke-dashoffset:0" transform="translate(-33.733 -17.017)scale(.27381)"/><path fill="#232323" d="M312.925 169.936c.835-1.132 4.461-5.33 5.834-5.63 2.47-.538 2.428 2.1 4.515 2.244.077.005.772-.101 1.406-.518.716-.47-.13-.042.238-.405.6-.59.502-.77.708-1.624 0 0 .189-.738.927-.55.738.19.55.928.55.928-.704 2.635-2.135 4.585-5.12 3.274-1.202-.528-1.432-1.987-2.888-1.861-.333.028-4.518 4.466-4.884 4.96-.917 1.706-5.746 6.418-6.075 6.24-.14-.076-1.267.112-.426-1.045 1.221-1.682 4.661-4.994 5.215-6.013" data-paper-data="{&quot;index&quot;:null}" style="mix-blend-mode:normal;fill-rule:nonzero;stroke-linejoin:miter;stroke-miterlimit:10;stroke-dasharray:none;stroke-dashoffset:0" transform="translate(-33.733 -17.017)scale(.27381)"/><path fill="#414141" stroke-width="1.5" d="m292.51 168.186 2.94-4.6s5.96 2.57 8.219 4.544c2.386 2.086 5.735 7.655 5.735 7.655l-3.949 4.29s2.366 6.08.977 6.667c-1.093.463-2.324.371-3.66-.11-2.738-.986-5.915-3.61-9.236-6.443-2.401-2.05-8.811-8.429-7.634-11.777.795-2.26 6.608-.226 6.608-.226zm11.659 16.165c.253-.226-1.705-4.61-5.252-7.858-3.763-3.445-9.137-5.738-9.137-5.016 0 .709 2.946 4.087 6.524 7.207 3.506 3.057 7.642 5.865 7.865 5.667z" style="mix-blend-mode:normal;fill-rule:nonzero;stroke:#141414;stroke-linejoin:miter;stroke-miterlimit:10;stroke-dasharray:none;stroke-dashoffset:0;stroke-opacity:1" transform="translate(-33.733 -17.017)scale(.27381)"/><g stroke-width="0.984129" style="mix-blend-mode:normal;fill-rule:nonzero;stroke-linejoin:miter;stroke-miterlimit:10;stroke-dasharray:none;stroke-dashoffset:0"><path fill="#414141" d="m308.495 152.052 10.503 8.803-8.803 10.503-1.84-1.542 6.66-8.095-2.123-1.742s-.829 2.936-1.77 4.042l-3.084 3.623-4.508-3.73s2.02-2.38 3.01-3.544c.962-1.133 3.821-2.534 3.821-2.534l-2.113-1.751c-.535-.449-6.728 8.003-7.04 7.74l-1.516-1.27z" style="stroke:#141414;stroke-width:.984129;stroke-opacity:1" transform="matrix(.2782 0 0 .27825 -35.296 -17.779)"/><path fill="none" stroke-linecap="round" d="m307.787 165.653-2.166-1.815m.999-1.191 2.165 1.815m1.09-1.299-2.058-1.725m1.215-1.009 1.516 1.27" style="stroke:#141414;stroke-width:.984129;stroke-opacity:1" transform="matrix(.2782 0 0 .27825 -35.296 -17.779)"/></g><path fill="#575757" stroke-width="2.5" d="M169.025 172.878c-5.622-1.362-10.654-3.096-15.85-4.12-2.52-.943-5.803-2.537-8.19-3.747-4.964-2.518-8.574-7.284-13.365-9.914a5.08 5.08 0 1 1 2.955-4.023c4.413 2.824 7.867 7.024 12.643 9.373 2.359 1.16 5.238 2.612 7.72 3.545 5.03.804 10.435 2.776 14.641 3.836 7.74.303 15.125 2.368 22.54 3.315a114 114 0 0 0 14.966.979c.32 0 .628.06.91.168.73.247 1.63.86 1.63 2.372s-.9 2.125-1.63 2.372c-.282.109-.59.169-.91.169h-1.326c-12.238.618-25.149-3.344-36.734-4.325z" style="mix-blend-mode:normal;fill-rule:nonzero;stroke:#141414;stroke-linejoin:miter;stroke-miterlimit:10;stroke-dasharray:none;stroke-dashoffset:0;stroke-opacity:1" transform="translate(-33.733 -17.017)scale(.27381)"/><path fill="#454544" stroke-width="2.5" d="M126.585 139.152c-.204-2.825 2.482-.948 3.907-4.73.926-2.458.62-6.274 1.352-10.02.753-3.858 2.546-7.639 3.61-9.613 7.503-13.92 27.36-24.998 34.436-28.31 5.858-2.74 5.893-1.135 5.893-1.135s-6.647 3.681-12.003 7.948c-3.22 2.565-6.85 5.315-8.587 7.68-1.968 2.678-4.79 7.294-6.178 11.499-1.676 5.078-1.727 9.575-1.727 9.575s-5.01 4.776-7.047 7.527c-2.518 3.402-6.453 15.637-6.453 15.637s-6.9-1.857-7.203-6.058z" style="mix-blend-mode:normal;fill-rule:nonzero;stroke:#141414;stroke-linejoin:miter;stroke-miterlimit:10;stroke-dasharray:none;stroke-dashoffset:0;stroke-opacity:1" transform="translate(-33.733 -17.017)scale(.27381)"/><path d="M135.442 127.984c-1.27 0-1.27-1.27-1.27-1.27l.008-.547c.418-3.687 1.274-10.303 4.325-12.839 1.85-1.537 4.484-2.323 6.696-3.063 0 0 1.205-.401 1.607.804s-.803 1.607-.803 1.607c-2.024.673-4.156 1.323-5.903 2.628-.636.475-.795 1.563-1.057 2.162-1.251 2.859-2 5.838-2.34 8.981l.008.267s0 1.27-1.27 1.27z" style="mix-blend-mode:normal;fill:#141414;fill-opacity:1;fill-rule:nonzero;stroke-linejoin:miter;stroke-miterlimit:10;stroke-dasharray:none;stroke-dashoffset:0" transform="translate(-33.733 -17.017)scale(.27381)"/><path fill="#636363" d="M143.085 119.911c-.725 1.826-1.778 3.12-2.351 2.893-.574-.228-.451-1.893.274-3.718.725-1.826 1.778-3.12 2.352-2.893s.45 1.893-.275 3.718z" style="mix-blend-mode:normal;fill-rule:nonzero;stroke:#141414;stroke-linejoin:miter;stroke-miterlimit:10;stroke-dasharray:none;stroke-dashoffset:0;stroke-opacity:1" transform="translate(-33.733 -17.017)scale(.27381)"/><path fill="none" stroke-linecap="round" d="m143.368 116.551 2.438-5.08" style="mix-blend-mode:normal;fill-rule:nonzero;stroke:#141414;stroke-linejoin:miter;stroke-miterlimit:10;stroke-dasharray:none;stroke-dashoffset:0;stroke-opacity:1" transform="translate(-33.733 -17.017)scale(.27381)"/></svg>