<svg xmlns="http://www.w3.org/2000/svg" width="64" height="64" viewBox="0 0 64.000001 64.000001"><defs><linearGradient id="a" x1="148.04913" x2="152.46889" y1="163.03763" y2="163.02917" gradientUnits="userSpaceOnUse"><stop offset="0" stop-color="#cda537"/><stop offset="1" stop-color="#c28b13"/></linearGradient><linearGradient id="b" x1="149.9877" x2="151.96834" y1="163.0641" y2="163.06032" gradientUnits="userSpaceOnUse"><stop offset="0" stop-color="#c28b13"/><stop offset="1" stop-color="#cda537"/></linearGradient><linearGradient id="c" x1="150.7403" x2="150.77048" y1="162.74295" y2="178.52196" gradientUnits="userSpaceOnUse"><stop offset="0" stop-color="#eabd3f"/><stop offset="1" stop-color="#f7b019"/></linearGradient><linearGradient id="d" x1="148.99785" x2="150.97849" y1="163.0054" y2="163.0016" gradientUnits="userSpaceOnUse"><stop offset="0" stop-color="#c28b13"/><stop offset="1" stop-color="#cda537"/></linearGradient><linearGradient id="e" x1="332.04178" x2="327.62204" y1="162.76491" y2="162.75645" gradientUnits="userSpaceOnUse"><stop offset="0" stop-color="#cda537"/><stop offset="1" stop-color="#c28b13"/></linearGradient><linearGradient id="f" x1="330.10321" x2="328.12259" y1="162.7914" y2="162.7876" gradientUnits="userSpaceOnUse"><stop offset="0" stop-color="#c28b13"/><stop offset="1" stop-color="#cda537"/></linearGradient><linearGradient id="g" x1="329.35059" x2="329.32043" y1="162.47023" y2="178.24924" gradientUnits="userSpaceOnUse"><stop offset="0" stop-color="#eabd3f"/><stop offset="1" stop-color="#f7b019"/></linearGradient><linearGradient id="h" x1="331.09308" x2="329.11243" y1="162.73268" y2="162.7289" gradientUnits="userSpaceOnUse"><stop offset="0" stop-color="#c28b13"/><stop offset="1" stop-color="#cda537"/></linearGradient><linearGradient id="am" x1="334.01755" x2="329.59778" y1="249.49217" y2="249.48373" gradientUnits="userSpaceOnUse"><stop offset="0" stop-color="#cda537"/><stop offset="1" stop-color="#c28b13"/></linearGradient><linearGradient id="an" x1="332.07898" x2="330.09833" y1="249.51866" y2="249.51488" gradientUnits="userSpaceOnUse"><stop offset="0" stop-color="#c28b13"/><stop offset="1" stop-color="#cda537"/></linearGradient><linearGradient id="ao" x1="331.32639" x2="331.2962" y1="249.19749" y2="264.9765" gradientUnits="userSpaceOnUse"><stop offset="0" stop-color="#eabd3f"/><stop offset="1" stop-color="#f7b019"/></linearGradient><linearGradient id="ap" x1="333.06882" x2="331.0882" y1="249.45995" y2="249.45616" gradientUnits="userSpaceOnUse"><stop offset="0" stop-color="#c28b13"/><stop offset="1" stop-color="#cda537"/></linearGradient><linearGradient id="i" x1="239.37962" x2="239.37962" y1="115.59551" y2="288.79379" gradientTransform="translate(.754)" gradientUnits="userSpaceOnUse"><stop offset="0" stop-color="#3d3d3d"/><stop offset="1" stop-color="#282828"/></linearGradient><linearGradient id="j" x1="198.3513" x2="198.3513" y1="106.00748" y2="110.42723" gradientUnits="userSpaceOnUse"><stop offset="0" stop-color="#cda537"/><stop offset="1" stop-color="#c28b13"/></linearGradient><linearGradient id="k" x1="198.32114" x2="198.32114" y1="107.94598" y2="109.92662" gradientUnits="userSpaceOnUse"><stop offset="0" stop-color="#c28b13"/><stop offset="1" stop-color="#cda537"/></linearGradient><linearGradient id="l" x1="198.3723" x2="198.3723" y1="107.29918" y2="123.07823" gradientUnits="userSpaceOnUse"><stop offset="0" stop-color="#eabd3f"/><stop offset="1" stop-color="#f7b019"/></linearGradient><linearGradient id="m" x1="198.38173" x2="198.38173" y1="106.95624" y2="108.93687" gradientUnits="userSpaceOnUse"><stop offset="0" stop-color="#c28b13"/><stop offset="1" stop-color="#cda537"/></linearGradient><linearGradient id="n" x1="196.63545" x2="196.63545" y1="106.60207" y2="107.77047" gradientUnits="userSpaceOnUse"><stop offset="0" stop-color="#c28b13"/><stop offset="1" stop-color="#cda537"/></linearGradient><linearGradient id="o" x1="239.21835" x2="239.21835" y1="96.33139" y2="102.24565" gradientUnits="userSpaceOnUse"><stop offset="0" stop-color="#2b2b2b"/><stop offset="1" stop-color="#2b2b2b" stop-opacity="0"/></linearGradient><linearGradient id="p" x1="243.42657" x2="243.42657" y1="96.103928" y2="104.97531" gradientUnits="userSpaceOnUse"><stop offset="0" stop-color="#2b2b2b"/><stop offset="1" stop-color="#2b2b2b" stop-opacity="0"/></linearGradient><linearGradient id="ai" x1="146.44914" x2="150.8689" y1="248.99217" y2="248.98373" gradientUnits="userSpaceOnUse"><stop offset="0" stop-color="#cda537"/><stop offset="1" stop-color="#c28b13"/></linearGradient><linearGradient id="aj" x1="148.3877" x2="150.36835" y1="249.01866" y2="249.01488" gradientUnits="userSpaceOnUse"><stop offset="0" stop-color="#c28b13"/><stop offset="1" stop-color="#cda537"/></linearGradient><linearGradient id="ak" x1="149.1403" x2="149.17047" y1="248.69749" y2="264.4765" gradientUnits="userSpaceOnUse"><stop offset="0" stop-color="#eabd3f"/><stop offset="1" stop-color="#f7b019"/></linearGradient><linearGradient id="al" x1="147.83044" x2="149.81107" y1="248.95995" y2="248.95616" gradientUnits="userSpaceOnUse"><stop offset="0" stop-color="#c28b13"/><stop offset="1" stop-color="#cda537"/></linearGradient><linearGradient id="w" x1="302.31451" x2="297.89474" y1="245.76491" y2="245.75645" gradientUnits="userSpaceOnUse"><stop offset="0" stop-color="#cda537"/><stop offset="1" stop-color="#c28b13"/></linearGradient><linearGradient id="x" x1="300.37595" x2="298.39532" y1="245.7914" y2="245.7876" gradientUnits="userSpaceOnUse"><stop offset="0" stop-color="#c28b13"/><stop offset="1" stop-color="#cda537"/></linearGradient><linearGradient id="y" x1="299.62335" x2="299.59317" y1="245.47023" y2="261.24924" gradientUnits="userSpaceOnUse"><stop offset="0" stop-color="#eabd3f"/><stop offset="1" stop-color="#f7b019"/></linearGradient><linearGradient id="z" x1="301.36581" x2="299.38516" y1="245.73268" y2="245.7289" gradientUnits="userSpaceOnUse"><stop offset="0" stop-color="#c28b13"/><stop offset="1" stop-color="#cda537"/></linearGradient><linearGradient id="A" x1="176.50369" x2="180.92345" y1="244.58308" y2="244.57465" gradientUnits="userSpaceOnUse"><stop offset="0" stop-color="#cda537"/><stop offset="1" stop-color="#c28b13"/></linearGradient><linearGradient id="B" x1="178.44225" x2="180.4229" y1="244.60956" y2="244.60577" gradientUnits="userSpaceOnUse"><stop offset="0" stop-color="#c28b13"/><stop offset="1" stop-color="#cda537"/></linearGradient><linearGradient id="C" x1="179.19485" x2="179.22502" y1="244.28841" y2="260.06741" gradientUnits="userSpaceOnUse"><stop offset="0" stop-color="#eabd3f"/><stop offset="1" stop-color="#f7b019"/></linearGradient><linearGradient id="D" x1="177.45239" x2="179.43303" y1="244.55086" y2="244.54706" gradientUnits="userSpaceOnUse"><stop offset="0" stop-color="#c28b13"/><stop offset="1" stop-color="#cda537"/></linearGradient><linearGradient id="K" x1="193.29048" x2="194.91736" y1="203.01707" y2="198.90762" gradientUnits="userSpaceOnUse"><stop offset="0" stop-color="#cda537"/><stop offset="1" stop-color="#c28b13"/></linearGradient><linearGradient id="L" x1="193.30264" x2="195.27112" y1="200.9026" y2="201.12173" gradientUnits="userSpaceOnUse"><stop offset="0" stop-color="#c28b13"/><stop offset="1" stop-color="#cda537"/></linearGradient><linearGradient id="M" x1="194.08659" x2="192.34068" y1="200.66818" y2="216.35033" gradientUnits="userSpaceOnUse"><stop offset="0" stop-color="#eabd3f"/><stop offset="1" stop-color="#f7b019"/></linearGradient><linearGradient id="N" x1="192.75554" x2="194.72401" y1="200.78154" y2="201.00069" gradientUnits="userSpaceOnUse"><stop offset="0" stop-color="#c28b13"/><stop offset="1" stop-color="#cda537"/></linearGradient><linearGradient id="O" x1="186.70772" x2="188.2215" y1="200.28786" y2="196.13542" gradientUnits="userSpaceOnUse"><stop offset="0" stop-color="#cda537"/><stop offset="1" stop-color="#c28b13"/></linearGradient><linearGradient id="P" x1="186.66199" x2="188.63574" y1="198.17384" y2="198.33902" gradientUnits="userSpaceOnUse"><stop offset="0" stop-color="#c28b13"/><stop offset="1" stop-color="#cda537"/></linearGradient><linearGradient id="Q" x1="187.43925" x2="186.12325" y1="197.91805" y2="213.64211" gradientUnits="userSpaceOnUse"><stop offset="0" stop-color="#eabd3f"/><stop offset="1" stop-color="#f7b019"/></linearGradient><linearGradient id="R" x1="186.11179" x2="188.08553" y1="198.06779" y2="198.23299" gradientUnits="userSpaceOnUse"><stop offset="0" stop-color="#c28b13"/><stop offset="1" stop-color="#cda537"/></linearGradient><linearGradient id="S" x1="241.98543" x2="238.78609" y1="148.65826" y2="142.26962" gradientUnits="userSpaceOnUse"><stop offset="0.53793" stop-color="#008cff"/><stop offset="1" stop-color="#a5d9ff"/></linearGradient><linearGradient id="T" x1="207.04707" x2="209.50526" y1="250.54662" y2="250.54192" gradientTransform="translate(2.411)" gradientUnits="userSpaceOnUse"><stop offset="0" stop-color="#cda537"/><stop offset="1" stop-color="#c28b13"/></linearGradient><linearGradient id="U" x1="208.12527" x2="209.22687" y1="250.56133" y2="250.55923" gradientTransform="translate(2.411)" gradientUnits="userSpaceOnUse"><stop offset="0" stop-color="#c28b13"/><stop offset="1" stop-color="#cda537"/></linearGradient><linearGradient id="V" x1="207.57474" x2="208.67633" y1="250.52869" y2="250.52657" gradientTransform="translate(2.411)" gradientUnits="userSpaceOnUse"><stop offset="0" stop-color="#c28b13"/><stop offset="1" stop-color="#cda537"/></linearGradient><linearGradient id="W" x1="186.04913" x2="190.46889" y1="250.79218" y2="250.78374" gradientUnits="userSpaceOnUse"><stop offset="0" stop-color="#cda537"/><stop offset="1" stop-color="#c28b13"/></linearGradient><linearGradient id="X" x1="187.9877" x2="189.96834" y1="250.81865" y2="250.81487" gradientUnits="userSpaceOnUse"><stop offset="0" stop-color="#c28b13"/><stop offset="1" stop-color="#cda537"/></linearGradient><linearGradient id="Y" x1="188.7403" x2="188.77048" y1="250.4975" y2="266.27652" gradientUnits="userSpaceOnUse"><stop offset="0" stop-color="#eabd3f"/><stop offset="1" stop-color="#f7b019"/></linearGradient><linearGradient id="Z" x1="186.99785" x2="188.97849" y1="250.75995" y2="250.75615" gradientUnits="userSpaceOnUse"><stop offset="0" stop-color="#c28b13"/><stop offset="1" stop-color="#cda537"/></linearGradient><linearGradient id="aa" x1="206.00566" x2="210.42542" y1="248.83565" y2="248.82719" gradientUnits="userSpaceOnUse"><stop offset="0" stop-color="#cda537"/><stop offset="1" stop-color="#c28b13"/></linearGradient><linearGradient id="ab" x1="207.94421" x2="209.92487" y1="248.86212" y2="248.85834" gradientUnits="userSpaceOnUse"><stop offset="0" stop-color="#c28b13"/><stop offset="1" stop-color="#cda537"/></linearGradient><linearGradient id="ac" x1="208.69682" x2="208.72699" y1="248.54097" y2="264.31998" gradientUnits="userSpaceOnUse"><stop offset="0" stop-color="#eabd3f"/><stop offset="1" stop-color="#f7b019"/></linearGradient><linearGradient id="ad" x1="206.95438" x2="208.935" y1="248.80342" y2="248.79962" gradientUnits="userSpaceOnUse"><stop offset="0" stop-color="#c28b13"/><stop offset="1" stop-color="#cda537"/></linearGradient><radialGradient id="q" cx="192.70049" cy="105.20278" r="4.7768998" gradientUnits="userSpaceOnUse"><stop offset="0" stop-color="#2b2b2b"/><stop offset="1" stop-color="#2b2b2b" stop-opacity="0"/></radialGradient><radialGradient id="r" cx="285.27692" cy="104.516" r="4.7768998" gradientUnits="userSpaceOnUse"><stop offset="0" stop-color="#2b2b2b"/><stop offset="1" stop-color="#2b2b2b" stop-opacity="0"/></radialGradient><radialGradient id="s" cx="283.45276" cy="101.32703" r="4.7768998" gradientUnits="userSpaceOnUse"><stop offset="0" stop-color="#2b2b2b"/><stop offset="1" stop-color="#2b2b2b" stop-opacity="0"/></radialGradient><radialGradient id="t" cx="194.9621" cy="101.77761" r="4.7768998" gradientUnits="userSpaceOnUse"><stop offset="0" stop-color="#2b2b2b"/><stop offset="1" stop-color="#2b2b2b" stop-opacity="0"/></radialGradient><radialGradient id="u" cx="286.69794" cy="108.04232" r="4.7768998" gradientUnits="userSpaceOnUse"><stop offset="0" stop-color="#2b2b2b"/><stop offset="1" stop-color="#2b2b2b" stop-opacity="0"/></radialGradient><radialGradient id="v" cx="191.48746" cy="106.72652" r="4.7768998" gradientUnits="userSpaceOnUse"><stop offset="0" stop-color="#2b2b2b"/><stop offset="1" stop-color="#2b2b2b" stop-opacity="0"/></radialGradient><radialGradient id="E" cx="279.46249" cy="218.01965" r="2.5" gradientUnits="userSpaceOnUse"><stop offset="0" stop-color="#ccc"/><stop offset="1" stop-color="#a4a4a4"/></radialGradient><radialGradient id="F" cx="279.46249" cy="218.01965" r="2.5" gradientUnits="userSpaceOnUse"><stop offset="0" stop-color="#6d6d6d"/><stop offset="1" stop-color="#999"/></radialGradient><radialGradient id="G" cx="270.04434" cy="218.00148" r="2.5" gradientUnits="userSpaceOnUse"><stop offset="0" stop-color="#ccc"/><stop offset="1" stop-color="#a4a4a4"/></radialGradient><radialGradient id="H" cx="270.04434" cy="218.00148" r="2.5" gradientUnits="userSpaceOnUse"><stop offset="0" stop-color="#6d6d6d"/><stop offset="1" stop-color="#999"/></radialGradient><radialGradient id="I" cx="260.75342" cy="218.23784" r="2.5" gradientUnits="userSpaceOnUse"><stop offset="0" stop-color="#ccc"/><stop offset="1" stop-color="#a4a4a4"/></radialGradient><radialGradient id="J" cx="260.75342" cy="218.23784" r="2.5" gradientUnits="userSpaceOnUse"><stop offset="0" stop-color="#6d6d6d"/><stop offset="1" stop-color="#999"/></radialGradient><radialGradient id="ae" cx="218.09627" cy="236.38069" r="2.5" gradientTransform="translate(2.923)" gradientUnits="userSpaceOnUse"><stop offset="0" stop-color="#ccc"/><stop offset="1" stop-color="#a4a4a4"/></radialGradient><radialGradient id="af" cx="218.09627" cy="236.38069" r="2.5" gradientTransform="translate(2.923)" gradientUnits="userSpaceOnUse"><stop offset="0" stop-color="#6d6d6d"/><stop offset="1" stop-color="#999"/></radialGradient><radialGradient id="ag" cx="227.69627" cy="236.49498" r="2.5" gradientTransform="translate(2.923)" gradientUnits="userSpaceOnUse"><stop offset="0" stop-color="#ccc"/><stop offset="1" stop-color="#a4a4a4"/></radialGradient><radialGradient id="ah" cx="227.69627" cy="236.49498" r="2.5" gradientTransform="translate(2.923)" gradientUnits="userSpaceOnUse"><stop offset="0" stop-color="#6d6d6d"/><stop offset="1" stop-color="#999"/></radialGradient></defs><g stroke-miterlimit="10" data-paper-data="{&quot;isPaintingLayer&quot;:true}" style="mix-blend-mode:normal"><g data-paper-data="{&quot;index&quot;:null}"><path fill="#2b2b2b" stroke-width="5.5" d="M157.05 187.058c-4.016 0-11.65-4.254-11.65-10.79v-26.327c0-2.462.57-6.312 2.41-9.345 2.012-3.315 5.387-5.73 7.352-6.214 4.503-1.108 19.074-1.251 19.074-1.251l-.2 53.927z" data-paper-data="{&quot;index&quot;:null}" style="stroke:#141414;stroke-opacity:1" transform="translate(-33.925 -16.326)scale(.27464)"/><path fill="none" stroke-linecap="round" stroke-width="3" d="m150.993 140.077.2 22.309" data-paper-data="{&quot;index&quot;:null}" style="stroke:#141414;stroke-opacity:1" transform="translate(-33.925 -16.326)scale(.27464)"/><g stroke-width="0" data-paper-data="{&quot;index&quot;:null}"><path fill="url(#a)" d="m151.556 166.421-2.86.005c-.302.001-.641-.412-.642-.805 0-.773-.007-3.543-.01-5.025 0-.57.413-.95.762-.95l2.574-.006c.611 0 1.083.448 1.084.866l.01 5.106c0 .49-.386.808-.918.809" style="fill:url(#a)" transform="translate(-33.925 -16.326)scale(.27464)"/><path fill="url(#b)" d="M151.25 163.767h-.66c-.242.001-.902-.48-.902-.718 0-.232.636-.691.869-.691l.72-.001c.356-.001.69.48.691.718 0 .233-.353.691-.719.692z" style="fill:url(#b)" transform="translate(-33.925 -16.326)scale(.27464)"/><path fill="url(#c)" d="m148.107 174.873.376-10.85c.027-.787 1.502-1.279 2.236-1.28.741-.001 2.253.484 2.283 1.27l.418 10.847c.06 1.574-.678 3.658-2.76 3.662-2.22.004-2.608-2.076-2.553-3.649m2.573 2.453a1.48 1.48 0 0 0 1.478-1.484c-.002-.817-.628-2.23-1.446-2.228-.817.002-1.517 1.416-1.515 2.234a1.48 1.48 0 0 0 1.483 1.478m-.287-5.102c.224-.002.194-.006.593-.01.288-.003.51-.253.51-.61-.005-.87-.017-5.552-.018-5.773 0-.584-.198-1.057-.782-1.056s-.78.475-.78 1.059c.002.41.006 4.998.004 5.812 0 .347.267.58.473.578" style="fill:url(#c)" transform="translate(-33.925 -16.326)scale(.27464)"/><path fill="url(#d)" d="m150.26 163.708-.66.001c-.242 0-.902-.48-.902-.718 0-.233.636-.692.869-.692l.72-.001c.356 0 .691.481.692.719 0 .232-.354.69-.72.691z" style="fill:url(#d)" transform="translate(-33.925 -16.326)scale(.27464)"/></g></g><path fill="#2b2b2b" stroke-width="5.5" d="M323.04 186.786h-16.985l-.2-53.928s14.571.143 19.074 1.251c1.965.483 5.34 2.9 7.351 6.214 1.841 3.033 2.41 6.883 2.41 9.345v26.328c0 6.535-7.634 10.79-11.65 10.79z" data-paper-data="{&quot;index&quot;:null}" style="stroke:#141414;stroke-opacity:1" transform="translate(-33.925 -16.326)scale(.27464)"/><path fill="none" stroke-linecap="round" stroke-width="3" d="m329.098 139.804-.2 22.31" data-paper-data="{&quot;index&quot;:null}" style="stroke:#141414;stroke-opacity:1" transform="translate(-33.925 -16.326)scale(.27464)"/><g stroke-width="0" data-paper-data="{&quot;index&quot;:null}"><path fill="url(#e)" d="M328.535 166.149c-.532-.001-.919-.319-.918-.809l.01-5.106c0-.418.472-.867 1.084-.866l2.574.005c.35 0 .763.38.762.951l-.01 5.025c-.001.393-.34.806-.643.805z" style="fill:url(#e)" transform="translate(-33.925 -16.326)scale(.27464)"/><path fill="url(#f)" d="M328.841 163.494c-.365 0-.719-.459-.718-.691 0-.238.335-.72.691-.72l.72.002c.233 0 .87.46.87.692-.001.237-.661.719-.902.718z" style="fill:url(#f)" transform="translate(-33.925 -16.326)scale(.27464)"/><path fill="url(#g)" d="M331.984 174.6c.054 1.573-.333 3.654-2.552 3.65-2.083-.005-2.822-2.089-2.761-3.662l.418-10.847c.03-.787 1.542-1.272 2.283-1.27.734 0 2.208.492 2.236 1.28zm-2.573 2.453a1.48 1.48 0 0 0 1.483-1.478c.002-.817-.698-2.233-1.516-2.234-.817-.002-1.443 1.411-1.445 2.229a1.48 1.48 0 0 0 1.478 1.483m.287-5.102c.206.002.473-.231.473-.578-.001-.814.002-5.402.003-5.812 0-.584-.195-1.058-.779-1.059s-.781.472-.782 1.056l-.017 5.772c-.002.359.22.608.509.611.399.004.369.008.592.01z" style="fill:url(#g)" transform="translate(-33.925 -16.326)scale(.27464)"/><path fill="url(#h)" d="M329.831 163.436c-.365-.001-.719-.46-.719-.692 0-.238.336-.72.692-.719l.72.001c.233 0 .87.46.87.692-.001.237-.661.719-.902.718z" style="fill:url(#h)" transform="translate(-33.925 -16.326)scale(.27464)"/></g><g fill="#2b2b2b" stroke-width="5.5"><path d="M325.017 283.695h-13.35l-.2-93.2s10.935.142 15.438 1.25c1.965.484 5.34 2.9 7.351 6.214 1.841 3.033 2.41 6.883 2.41 9.346v65.6c0 6.535-7.634 10.79-11.65 10.79z" data-paper-data="{&quot;index&quot;:null}" style="stroke:#141414;stroke-opacity:1" transform="translate(-33.95 -16.326)scale(.27464)"/><path d="M143.6 272.405v-65.6c0-2.463.57-6.313 2.41-9.346 2.012-3.314 5.387-5.73 7.352-6.214 4.503-1.108 15.438-1.25 15.438-1.25l-.2 93.2h-13.35c-4.016 0-11.65-4.255-11.65-10.79z" style="stroke:#141414;stroke-opacity:1" transform="translate(-33.95 -16.326)scale(.27464)"/></g><path fill="#2b2b2b" stroke-width="7" d="M164.279 256.555V149.712c0-18.455 10.64-69.466 31.737-70.066 30.352-1.435 70.147 0 88.235 0 26.72 0 31.737 52.397 31.737 71.266v106.243c0 18.815-8.76 31.826-12.53 31.826h-127.25c-2.652 0-11.93-13.278-11.93-32.426z" style="stroke:#141414;stroke-opacity:1" transform="translate(-33.95 -16.326)scale(.27464)"/><path fill="#2b2b2b" stroke-width="3" d="M164.279 255.512v-78.271c0-18.455 10.64-61.733 31.737-63.4 14.19-2.245 29.224-2.577 43.867-2.452 2.156.018 3.758-.2 5.865-.126 15.386.532 29.752 1.512 38.503 2.579 26.524 3.233 31.737 45.73 31.737 64.6v77.67c0 18.816-8.76 31.827-12.53 31.827h-127.25c-2.652 0-11.93-13.278-11.93-32.427z" style="stroke:#141414;stroke-opacity:1" transform="translate(-33.95 -16.326)scale(.27464)"/><path fill="url(#i)" d="M168.125 170.15c0-15.722 10.1-53.5 30.128-54.011 28.813-1.223 57.136 0 74.306 0 25.366 0 39.583 22.77 39.583 56.087 0 4.684-6.19 24.87-25.188 28.645-28.02 5.568-69.52 2.852-94.26-.401-17.576-2.312-24.569-24.212-24.569-30.32" style="fill:url(#i)" transform="translate(-33.95 -16.326)scale(.27464)"/><path fill="none" stroke-linecap="round" stroke-width="3" d="M197.636 201.545s-27.825-5.01-27.749-29.246c.01-2.797-.03-5.667-.023-7.955.626-3.946 1.245-8.367 2.447-12.852 1.878-7.004 4.768-14.165 8.17-19.92.692-1.17 4.227-7.346 9.733-11.397 2.363-1.74 6.054-2.902 8.629-3.091 10.377-.762 25.973-1.725 41.971-1.836 15.875-.11 32.147.94 44.113 2.557 3.285.444 6.992 1.94 9.975 4.265 3.888 3.03 6.821 7.535 8.789 11.63 1.287 2.68 6.85 17.84 7.905 35.032 1.826 29.781-30.562 34.439-30.562 34.439" style="stroke:#141414;stroke-opacity:1" transform="translate(-33.95 -16.326)scale(.27464)"/><g stroke-width="0"><path fill="#be9933" d="M19.602 13.02v-.337c0-.054.103-.146.202-.146h1.436c.13 0 .214.101.214.157v.326z"/><path fill="url(#j)" d="M194.96 109.508v-2.86c0-.302.414-.64.808-.64h5.024c.57 0 .95.414.95.763v2.574c0 .612-.45 1.082-.868 1.082h-5.106c-.49 0-.807-.387-.807-.919" style="fill:url(#j)" transform="translate(-33.95 -16.326)scale(.27464)"/><path fill="url(#k)" d="M197.616 109.206v-.66c0-.241.483-.9.72-.9.233 0 .69.638.69.87v.72c0 .357-.482.69-.72.69-.232 0-.69-.354-.69-.72" style="fill:url(#k)" transform="translate(-33.95 -16.326)scale(.27464)"/><path fill="url(#l)" d="m195.716 119.424.397-10.849c.028-.787 1.504-1.276 2.238-1.276.741 0 2.252.488 2.28 1.275l.398 10.848c.057 1.573-.685 3.656-2.768 3.656-2.219 0-2.603-2.08-2.545-3.654m2.568 2.458a1.48 1.48 0 0 0 1.48-1.48c0-.818-.623-2.232-1.44-2.232-.818 0-1.52 1.414-1.52 2.231 0 .818.663 1.48 1.48 1.48m-.277-5.102c.224-.002.194-.006.593-.01.288-.001.511-.25.51-.609-.002-.868-.006-5.55-.006-5.772 0-.584-.196-1.058-.78-1.058s-.781.474-.781 1.058c0 .41-.005 4.998-.008 5.812-.001.347.266.58.472.579" style="fill:url(#l)" transform="translate(-33.95 -16.326)scale(.27464)"/><path fill="url(#m)" d="M197.677 108.217v-.66c0-.242.482-.9.72-.9.232 0 .69.637.69.87v.72c0 .356-.483.69-.72.69-.233 0-.69-.355-.69-.72" style="fill:url(#m)" transform="translate(-33.95 -16.326)scale(.27464)"/></g><path fill="#be9933" d="M19.67 12.985v-.146c0-.023.044-.063.087-.063h.622c.057 0 .093.044.093.068v.141z"/><path fill="url(#n)" d="M196.22 107.346v-.39c0-.142.284-.531.424-.531.137 0 .407.376.407.513v.425c0 .21-.284.407-.424.407-.138 0-.408-.209-.408-.424" style="fill:url(#n)" transform="translate(-33.937 -16.326)scale(.27464)"/><g fill="#1f1f1f" stroke-width="0"><path d="M21.97 13.204V10.45h19.545v2.753s-1.07.087-2.665.06c-1.372-.023-3.131-.163-4.933-.14-3.156.042-6.44.267-7.998.267-1.751 0-3.95-.187-3.95-.187"/><path d="M18.931 13.204s.376-1.557.895-2c.534-.456 2.264-.747 2.264-.747v2.747s-.921.124-1.418.124c-.55 0-1.74-.124-1.74-.124"/><path d="M41.377 13.204v-2.747s1.73.29 2.264.747c.519.443.895 2 .895 2s-1.198.124-1.75.124c-.494 0-1.409-.124-1.409-.124" data-paper-data="{&quot;index&quot;:null}"/></g><path fill="url(#o)" d="M189.743 102.246V96.33h98.95v5.915z" style="fill:url(#o)" transform="translate(-33.937 -16.326)scale(.27464)"/><path fill="url(#p)" d="M193.383 104.975v-8.871H293.47v8.871z" style="fill:url(#p)" transform="translate(-33.937 -16.326)scale(.27464)"/><path fill="url(#q)" d="M187.924 105.203a4.777 4.777 0 1 1 9.553 0 4.777 4.777 0 0 1-9.553 0" style="fill:url(#q)" transform="translate(-33.937 -16.326)scale(.27464)"/><path fill="url(#r)" d="M280.5 104.516a4.777 4.777 0 0 1 9.554 0c0 2.638-2.139 4.987-4.777 4.987s-4.777-2.349-4.777-4.987" style="fill:url(#r)" transform="translate(-33.937 -16.326)scale(.27464)"/><path fill="url(#s)" d="M278.676 101.327a4.777 4.777 0 1 1 9.554 0 4.777 4.777 0 0 1-9.554 0" style="fill:url(#s)" transform="translate(-33.937 -16.326)scale(.27464)"/><path fill="url(#t)" d="M190.185 101.778c0-1.13.392-2.167 1.046-2.984a4.777 4.777 0 1 1-1.046 2.984" style="fill:url(#t)" transform="translate(-33.937 -16.326)scale(.27464)"/><path fill="url(#u)" d="M281.921 108.042a4.777 4.777 0 0 1 9.554 0c0 2.639-2.139 4.988-4.777 4.988s-4.777-2.35-4.777-4.988" style="fill:url(#u)" transform="translate(-33.937 -16.326)scale(.27464)"/><path fill="url(#v)" d="M186.71 106.727a4.777 4.777 0 0 1 9.554 0c0 2.638-2.138 4.987-4.777 4.987-2.638 0-4.776-2.35-4.776-4.987" style="fill:url(#v)" transform="translate(-33.937 -16.326)scale(.27464)"/><path fill="#2b2b2b" stroke-width="5.5" d="M293.314 269.786h-16.987l-.2-53.928s14.572.143 19.075 1.251c1.965.483 5.34 2.9 7.351 6.214 1.841 3.033 2.41 6.883 2.41 9.345v26.328c0 6.535-7.634 10.79-11.65 10.79z" data-paper-data="{&quot;index&quot;:null}" style="stroke:#141414;stroke-opacity:1" transform="translate(-33.95 -16.326)scale(.27464)"/><path fill="none" stroke-linecap="round" stroke-width="3" d="m299.17 245.113.2-22.309" data-paper-data="{&quot;index&quot;:null}" style="stroke:#141414;stroke-opacity:1" transform="translate(-33.95 -16.326)scale(.27464)"/><g stroke-width="0" data-paper-data="{&quot;index&quot;:null}"><path fill="url(#w)" d="M298.807 249.149c-.531-.001-.918-.319-.917-.809l.01-5.106c0-.418.472-.867 1.084-.866l2.573.005c.35 0 .763.38.762.951l-.01 5.025c0 .393-.34.806-.642.805z" style="fill:url(#w)" transform="translate(-33.95 -16.326)scale(.27464)"/><path fill="url(#x)" d="M299.114 246.494c-.365 0-.72-.459-.719-.691 0-.238.336-.72.692-.72l.72.002c.232 0 .87.46.87.692-.001.237-.661.719-.903.718z" style="fill:url(#x)" transform="translate(-33.95 -16.326)scale(.27464)"/><path fill="url(#y)" d="M302.257 257.6c.054 1.573-.334 3.654-2.552 3.65-2.083-.005-2.822-2.089-2.761-3.662l.417-10.847c.03-.787 1.542-1.272 2.283-1.27.735 0 2.21.492 2.237 1.28zm-2.573 2.453a1.48 1.48 0 0 0 1.483-1.478c.002-.817-.698-2.233-1.516-2.234-.817-.002-1.443 1.411-1.445 2.229a1.48 1.48 0 0 0 1.478 1.483m.286-5.102c.206.002.474-.231.474-.578-.001-.814.002-5.402.003-5.812 0-.584-.195-1.058-.78-1.059-.583 0-.78.472-.782 1.056 0 .221-.013 4.904-.017 5.772-.002.359.221.608.51.611.399.004.368.008.592.01" style="fill:url(#y)" transform="translate(-33.95 -16.326)scale(.27464)"/><path fill="url(#z)" d="M300.104 246.436c-.366-.001-.72-.46-.719-.692 0-.238.335-.72.692-.719l.72.001c.232 0 .87.46.869.692 0 .237-.66.719-.902.718z" style="fill:url(#z)" transform="translate(-33.95 -16.326)scale(.27464)"/></g><g data-paper-data="{&quot;index&quot;:null}"><path fill="#2b2b2b" stroke-width="5.5" d="M185.505 268.604c-4.016 0-11.65-4.255-11.65-10.79v-26.328c0-2.462.57-6.312 2.41-9.345 2.012-3.314 5.386-5.73 7.351-6.214 4.503-1.108 19.075-1.25 19.075-1.25l-.2 53.927z" data-paper-data="{&quot;index&quot;:null}" style="stroke:#141414;stroke-opacity:1" transform="translate(-33.95 -16.326)scale(.27464)"/><path fill="none" stroke-linecap="round" stroke-width="3" d="m179.447 221.622.2 22.31" data-paper-data="{&quot;index&quot;:null}" style="stroke:#141414;stroke-opacity:1" transform="translate(-33.95 -16.326)scale(.27464)"/><g stroke-width="0" data-paper-data="{&quot;index&quot;:null}"><path fill="url(#A)" d="m180.01 247.967-2.859.005c-.302 0-.642-.412-.642-.806l-.01-5.024c-.001-.57.412-.95.762-.951l2.573-.005c.612-.001 1.083.447 1.084.866l.01 5.106c.001.49-.386.807-.917.808z" style="fill:url(#A)" transform="translate(-33.95 -16.326)scale(.27464)"/><path fill="url(#B)" d="m179.704 245.312-.66.001c-.241 0-.901-.48-.902-.718 0-.233.637-.692.87-.692l.72-.001c.356 0 .69.481.69.719.001.232-.352.69-.718.692z" style="fill:url(#B)" transform="translate(-33.95 -16.326)scale(.27464)"/><path fill="url(#C)" d="m176.562 256.419.376-10.85c.027-.788 1.502-1.28 2.236-1.28.74-.002 2.253.483 2.283 1.27l.417 10.847c.061 1.573-.678 3.658-2.76 3.662-2.22.004-2.607-2.077-2.553-3.65m2.573 2.452a1.48 1.48 0 0 0 1.477-1.483c-.002-.818-.627-2.23-1.445-2.229-.818.002-1.517 1.417-1.516 2.234a1.48 1.48 0 0 0 1.484 1.478m-.287-5.101c.224-.002.193-.006.593-.01.288-.004.51-.253.509-.611-.004-.869-.017-5.551-.017-5.773-.001-.584-.199-1.057-.783-1.056s-.78.475-.779 1.06c.001.409.005 4.997.003 5.812 0 .346.268.58.474.577z" style="fill:url(#C)" transform="translate(-33.95 -16.326)scale(.27464)"/><path fill="url(#D)" d="M178.714 245.254h-.66c-.241.001-.901-.48-.902-.718 0-.232.637-.691.87-.692h.72c.356-.001.69.48.691.718 0 .233-.353.691-.719.692" style="fill:url(#D)" transform="translate(-33.95 -16.326)scale(.27464)"/></g></g><path fill="#282828" stroke-width="1.5" d="M170.502 164.958s.312-5.06.75-7.71c.464-2.816 1.959-8.718 1.959-8.718l133.837.338s1.163 4.885 1.593 7.46c.461 2.767 1.087 8.605 1.087 8.605z" style="stroke:#141414;stroke-opacity:1" transform="translate(-33.95 -16.326)scale(.27464)"/><path fill="#282828" stroke-width="1.5" d="M309.728 170.063s-.626 5.838-1.087 8.604c-.43 2.576-3.193 7.728-3.193 7.728l-131.704.071s-2.028-5.902-2.493-8.719c-.437-2.649-.75-7.71-.75-7.71z" data-paper-data="{&quot;index&quot;:null}" style="stroke:#141414;stroke-opacity:1" transform="translate(-33.95 -16.326)scale(.27464)"/><path fill="none" stroke-linecap="round" stroke-width="1.5" d="M240.978 149.505v14.133" style="stroke:#141414;stroke-opacity:1" transform="translate(-33.95 -16.326)scale(.27464)"/><path fill="none" stroke-linecap="round" stroke-width="1.5" d="M202.578 164.172v-14.934m77.6-.266v15.733" style="stroke:#141414;stroke-opacity:1" transform="translate(-34.117 -16.326)scale(.27464)"/><path fill="none" stroke-linecap="round" stroke-width="1.5" d="M201.978 185.705v-14.933m78.133 15.466v-15.733" style="stroke:#141414;stroke-opacity:1" transform="translate(-34.026 -16.326)scale(.27464)"/><path fill="none" stroke-linecap="round" stroke-width="1.5" d="M240.911 171.305v14.133" style="stroke:#141414;stroke-opacity:1" transform="translate(-33.95 -16.326)scale(.27464)"/><path fill="#282828" stroke-width="2.5" d="M201.324 213.44s12.22-24.222 13.437-66.13c1.172-40.293-9.077-65.337-9.077-65.337l71.492.267s-10.198 20.344-11.172 62.931c-.946 41.346 12.92 68.269 12.92 68.269z" style="stroke:#141414;stroke-opacity:1" transform="translate(-33.95 -16.326)scale(.27464)"/><path fill="#2b2b2b" stroke-width="4" d="M203.86 83.884c1.922-2.355 4.998-5.958 8.035-8.83 4.163-3.935 9.392-5.912 12.085-7.22 5.413-2.628 11.703-3.482 15.918-3.482 3.725 0 9.011.38 13.82 2.707 2.495 1.208 6.824 3.172 11.156 6.728 4.638 3.805 9.28 8.55 11.68 11.09 1.055 1.117-2.586 6.382-4.706 6.326-2.102-.055-6.914-5.435-7.995-6.33-2.245-1.862-6.432-5.07-10.933-7.195-4.587-2.165-9.502-2.326-13.022-2.326-4.183 0-10.41.816-15.795 3.423-3.583 1.734-6.793 4.127-8.78 5.757-1.313 1.076-6.356 5.439-8.33 5.439s-4.342-4.606-3.133-6.087z" style="stroke:#141414;stroke-opacity:1" transform="translate(-33.95 -16.326)scale(.27464)"/><path fill="#191919" d="M17.666 55.294c0-3.436.275-8.187.275-10.172 0-1.755 2.051-4.042 4.098-4.042h20.408c2.335 0 3.612 2.287 3.612 4.042 0 1.862.275 6.158.275 9.52 0 2.551-2.104 4.564-4.009 4.564H21.311c-2.473 0-3.645-1.678-3.645-3.912"/><path fill="url(#E)" stroke="url(#F)" stroke-width="2.5" d="M276.963 218.02a2.5 2.5 0 1 1 5 0 2.5 2.5 0 0 1-5 0z" style="fill:url(#E);stroke:url(#F)" transform="translate(-33.95 -16.326)scale(.27464)"/><path fill="url(#G)" stroke="url(#H)" stroke-width="2.5" d="M267.544 218.001a2.5 2.5 0 1 1 5 0 2.5 2.5 0 0 1-5 0z" style="fill:url(#G);stroke:url(#H)" transform="translate(-33.95 -16.326)scale(.27464)"/><path fill="url(#I)" stroke="url(#J)" stroke-width="2.5" d="M258.253 218.238a2.5 2.5 0 1 1 5 0 2.5 2.5 0 0 1-5 0z" style="fill:url(#I);stroke:url(#J)" transform="translate(-33.95 -16.326)scale(.27464)"/><path fill="none" stroke-linecap="round" stroke-width="3" d="M188.092 252.043s-2.143-33.17 6.252-40.33c5.916-5.046 26.319-4.173 46.113-3.786 19.768.387 38.93.284 42.448 2.861 12.98 9.51 8.91 42.451 8.91 42.451" style="stroke:#141414;stroke-opacity:1" transform="translate(-33.95 -16.326)scale(.27464)"/><g stroke-width="0"><path fill="url(#K)" d="m197.731 201.01-1.052 2.659c-.111.281-.62.444-.986.3l-4.672-1.85c-.53-.21-.73-.735-.602-1.06l.947-2.393c.226-.569.817-.84 1.206-.687l4.748 1.88c.455.18.607.657.411 1.151" style="fill:url(#K)" transform="translate(-33.95 -16.326)scale(.27464)"/><path fill="url(#L)" d="m194.477 201.743-.656-.073c-.24-.027-.841-.58-.815-.816.026-.23.71-.615.941-.59l.716.08c.354.04.633.557.606.793-.025.23-.428.646-.792.606" style="fill:url(#L)" transform="translate(-33.95 -16.326)scale(.27464)"/><path fill="url(#M)" d="m190.105 212.425 1.595-10.738c.115-.78 1.636-1.102 2.366-1.021.736.082 2.184.734 2.125 1.519l-.806 10.825c-.117 1.57-1.085 3.558-3.155 3.328-2.205-.246-2.356-2.356-2.125-3.913m2.28 2.726a1.48 1.48 0 0 0 1.636-1.307c.09-.813-.373-2.287-1.186-2.377-.812-.091-1.667 1.237-1.757 2.05a1.48 1.48 0 0 0 1.307 1.634m.29-5.101c.222.023.193.015.59.056.287.03.536-.193.575-.549.093-.863.608-5.518.632-5.737.065-.58-.078-1.073-.659-1.138-.58-.064-.828.384-.892.965-.046.407-.558 4.966-.651 5.775-.04.345.2.607.405.628" style="fill:url(#M)" transform="translate(-33.95 -16.326)scale(.27464)"/><path fill="url(#N)" d="m193.93 201.622-.656-.073c-.24-.027-.841-.58-.815-.816.026-.23.71-.615.941-.59l.716.08c.354.04.633.557.606.793-.025.23-.429.646-.792.606" style="fill:url(#N)" transform="translate(-33.95 -16.326)scale(.27464)"/></g><g stroke-width="0"><path fill="url(#O)" d="M191.092 198.16c-.328.9-.817 2.243-.98 2.687-.103.284-.607.46-.977.326l-4.72-1.721c-.536-.196-.75-.715-.631-1.043l.881-2.418c.21-.575.794-.863 1.187-.72l4.797 1.75c.46.167.625.64.443 1.14" style="fill:url(#O)" transform="translate(-33.95 -16.326)scale(.27464)"/><path fill="url(#P)" d="m187.86 198.982-.659-.055c-.24-.02-.857-.556-.837-.793.02-.232.693-.635.925-.615l.718.06c.355.03.647.538.627.775-.019.232-.41.658-.775.628" style="fill:url(#P)" transform="translate(-33.95 -16.326)scale(.27464)"/><path fill="url(#Q)" d="m183.78 209.78 1.302-10.78c.094-.782 1.606-1.146 2.337-1.085.739.062 2.204.674 2.167 1.46l-.51 10.844c-.074 1.573-.987 3.587-3.063 3.413-2.21-.185-2.42-2.291-2.231-3.853m2.355 2.662a1.48 1.48 0 0 0 1.599-1.351c.068-.815-.435-2.276-1.25-2.344s-1.632 1.282-1.7 2.097a1.48 1.48 0 0 0 1.351 1.598m.15-5.107c.223.017.193.01.591.04.288.022.53-.208.56-.565.07-.865.457-5.532.475-5.752.049-.582-.108-1.07-.69-1.12-.582-.048-.817.407-.866.99-.034.408-.422 4.98-.492 5.79-.03.346.216.601.422.617" style="fill:url(#Q)" transform="translate(-33.95 -16.326)scale(.27464)"/><path fill="url(#R)" d="m187.309 198.876-.658-.055c-.24-.02-.857-.557-.837-.793.02-.232.693-.635.925-.615l.718.06c.355.03.647.538.627.775-.02.232-.41.658-.775.628" style="fill:url(#R)" transform="translate(-33.95 -16.326)scale(.27464)"/></g><path fill="#101010" stroke-width="1.5" d="m214.421 126.279-1.474-10.182h54.354l-1.684 10.182zm-2.144-16.455-1.895-10.182h59.503l-1.895 10.182z" style="fill:#303030;fill-opacity:1;stroke:#141414;stroke-opacity:1" transform="translate(-33.95 -16.326)scale(.27464)"/><path fill="#101010" stroke-width="1.5" d="m265.617 164.853 1.684 10.182h-54.354l1.474-10.182zm2.373 16.454 1.895 10.182h-59.503l1.895-10.182z" data-paper-data="{&quot;index&quot;:null}" style="fill:#303030;fill-opacity:1;stroke:#141414;stroke-opacity:1" transform="translate(-33.95 -16.326)scale(.27464)"/><path fill="#303030" stroke-width="4" d="M234.045 131.435h12.53c1.677 0 3.705 2.042 3.705 3.882v19.41c0 2.425-2.255 4.06-4.059 4.06h-11.823c-2.524 0-4.411-1.936-4.411-3.706v-19.41c0-2.523 1.71-4.236 4.058-4.236z" style="stroke:#141414;stroke-opacity:1" transform="translate(-33.95 -16.326)scale(.27464)"/><path fill="#0f0f0f" d="M30.92 24.671c.034-.005.11-.004.195-.006s.18-.008.278-.027c.098-.02.2-.051.292-.085a1.85 1.85 0 0 0 .974-.788 2.5 2.5 0 0 0 .158-.311c.036-.086.05-.138.058-.172.01-.034.014-.051.023-.06.01-.01.023-.014.034-.003.012.012.02.038.034.076a2.4 2.4 0 0 1 .124.47 1.24 1.24 0 0 1-.056.603 1 1 0 0 1-.12.233 1.13 1.13 0 0 1-.573.449 1.3 1.3 0 0 1-.518.083 1.2 1.2 0 0 1-.722-.26c-.06-.046-.107-.093-.135-.12a.4.4 0 0 0-.045-.041q-.012-.006-.02-.016c-.008-.008-.015-.02.02-.025z"/><g stroke-linecap="round" stroke-linejoin="round"><path fill="#212226" stroke="#121212" stroke-width=".63634088" d="M32.039 21.769c.058.046.159.16.252.271q.139.166.264.334.129.168.241.347c.075.12.142.243.193.347.052.105.088.192.123.295.035.104.069.224.09.323a1.25 1.25 0 0 1-.005.542 1.3 1.3 0 0 1-.117.292 1.25 1.25 0 0 1-.407.419 1.2 1.2 0 0 1-.282.125c-.1.03-.201.05-.29.06a1.2 1.2 0 0 1-.416-.025 1.1 1.1 0 0 1-.325-.141 2 2 0 0 1-.216-.162 1.3 1.3 0 0 1-.16-.172.7.7 0 0 1-.095-.159 2 2 0 0 1-.087-.237 1 1 0 0 1-.03-.208 1.3 1.3 0 0 1 .014-.239c.013-.096.038-.213.077-.336a3 3 0 0 1 .327-.685q.103-.164.243-.353a11 11 0 0 1 .283-.36c.088-.108.16-.193.203-.247s.061-.077.12-.031"/><path fill="url(#S)" d="M237.68 146.361a5 5 0 0 1-.02-.54c.006-.232.033-.492.1-.752q.101-.391.304-.775c.133-.254.293-.503.478-.758a9 9 0 0 1 1.107-1.27 7 7 0 0 1 .43-.393c.088-.069.093-.047.088.011-.006.059-.022.153-.02.31.003.158.025.38.092.634.066.255.177.542.287.816.111.274.222.534.3.725s.12.313.162.429.08.227.111.274c.03.047.053.03.1-.072s.119-.29.157-.482c.04-.19.045-.384.03-.592-.013-.207-.046-.428-.052-.53s.017-.087.086-.04c.07.047.186.125.349.247a3.8 3.8 0 0 1 1.046 1.099c.119.19.185.345.21.428s.008.094-.03.166c-.04.072-.1.205-.194.387a4.5 4.5 0 0 1-.43.69c-.207.273-.494.589-.826.907s-.709.64-1.154.919a7 7 0 0 1-1.478.691 10 10 0 0 1-1.306.332c-.268.047-.285.03-.362-.05a7 7 0 0 1-.343-.379 3.2 3.2 0 0 1-.614-1.154 5 5 0 0 1-.172-.821 2.7 2.7 0 0 1 .01-.675c.029-.222.073-.465.167-.734s.238-.561.376-.79a3 3 0 0 1 .34-.471c.07-.075.075-.058.064.02-.011.077-.039.215-.052.381q-.023.247.008.59c.022.229.066.495.121.683.056.188.122.299.188.384a.8.8 0 0 0 .191.186c.059.038.108.055.133.063s.025.008.017-.094z" style="fill:url(#S)" transform="translate(-33.853 -16.326)scale(.27464)"/><path fill="#0076d5" d="M32.897 23.55a.6.6 0 0 1 .05.16c.014.076.018.171.014.253a.95.95 0 0 1-.328.668c-.091.08-.208.148-.304.19a.8.8 0 0 1-.254.065 1 1 0 0 1-.489-.073.9.9 0 0 1-.243-.138c-.02-.015-.022-.02.017-.027s.12-.016.201-.033c.081-.016.162-.04.265-.085.104-.043.23-.106.317-.156.088-.05.139-.09.197-.14.06-.05.127-.113.19-.182a2 2 0 0 0 .176-.217c.05-.073.088-.145.115-.195l.051-.094c.01-.017.012-.023.025.003"/></g><path fill="#0d0d0d" d="M211.105 256.101c0-6.957.556-16.579.556-20.598 0-3.554 4.155-8.187 8.3-8.187h41.328c4.73 0 7.316 4.633 7.316 8.187 0 3.77.557 12.471.557 19.278 0 5.167-4.262 9.243-8.119 9.243h-42.558c-5.007 0-7.38-3.398-7.38-7.923" style="fill:#2b2b2b;fill-opacity:1" transform="translate(-33.95 -16.326)scale(.27464)"/><path fill="url(#T)" d="M211.409 252.429c-.534 0-1.328.003-1.59.003-.17 0-.358-.23-.358-.448l-.005-2.795c0-.317.23-.529.424-.529l1.431-.003c.34 0 .603.249.603.482l.005 2.84c0 .272-.215.449-.51.45" style="fill:url(#T)" transform="translate(-33.95 -16.326)scale(.27464)"/><path fill="url(#U)" d="M211.238 250.952h-.367c-.134.001-.501-.267-.502-.399 0-.129.354-.384.484-.385h.4c.198 0 .385.267.385.4 0 .129-.197.384-.4.384" style="fill:url(#U)" transform="translate(-33.95 -16.326)scale(.27464)"/><path fill="url(#V)" d="M210.688 250.92h-.368c-.134 0-.5-.267-.501-.4 0-.129.354-.384.483-.384h.4c.199-.001.385.267.385.399 0 .13-.196.384-.4.385" style="fill:url(#V)" transform="translate(-33.95 -16.326)scale(.27464)"/><path fill="none" stroke-linecap="round" stroke-width="3" d="M211.189 251.242s-1.192-18.449 3.477-22.43c3.29-2.807 14.638-2.322 25.648-2.106 10.994.215 21.651.158 23.608 1.591 7.22 5.289 4.956 23.61 4.956 23.61" style="stroke:#141414;stroke-opacity:1" transform="translate(-33.95 -16.326)scale(.27464)"/><g stroke-width="0"><path fill="url(#W)" d="m189.556 254.176-2.86.005c-.302 0-.641-.412-.642-.806 0-.772-.007-3.543-.01-5.024 0-.57.413-.95.762-.951l2.574-.005c.611-.001 1.083.447 1.084.866l.01 5.106c0 .49-.386.807-.918.808z" style="fill:url(#W)" transform="translate(-33.95 -16.326)scale(.27464)"/><path fill="url(#X)" d="m189.25 251.521-.66.001c-.242 0-.902-.48-.902-.718 0-.233.636-.691.869-.692h.72c.356-.002.69.48.691.718 0 .233-.353.69-.719.692z" style="fill:url(#X)" transform="translate(-33.95 -16.326)scale(.27464)"/><path fill="url(#Y)" d="m186.107 262.628.376-10.85c.027-.788 1.502-1.28 2.236-1.28.741-.001 2.253.483 2.283 1.27l.418 10.847c.06 1.573-.678 3.658-2.76 3.662-2.22.004-2.608-2.076-2.553-3.65m2.573 2.452a1.48 1.48 0 0 0 1.478-1.483c-.002-.818-.628-2.23-1.446-2.229-.817.002-1.517 1.417-1.515 2.235a1.48 1.48 0 0 0 1.483 1.477m-.287-5.101c.224-.002.194-.006.593-.01.288-.004.51-.253.51-.611-.005-.869-.017-5.551-.018-5.773 0-.584-.198-1.057-.782-1.056s-.78.475-.78 1.06c.002.409.006 4.997.004 5.812 0 .346.267.58.473.578" style="fill:url(#Y)" transform="translate(-33.95 -16.326)scale(.27464)"/><path fill="url(#Z)" d="M188.26 251.463h-.66c-.242.001-.902-.48-.902-.718 0-.232.636-.691.869-.692h.72c.356-.001.691.48.692.718 0 .233-.354.691-.72.692z" style="fill:url(#Z)" transform="translate(-33.95 -16.326)scale(.27464)"/></g><g stroke-width="0"><path fill="url(#aa)" d="m209.513 252.22-2.86.004c-.302.001-.642-.412-.642-.805l-.01-5.025c-.001-.57.412-.95.762-.95l2.573-.006c.612 0 1.083.448 1.084.866l.01 5.106c.001.49-.386.808-.917.809z" style="fill:url(#aa);stroke:#141414;stroke-opacity:1" transform="translate(-33.287 -16.326)scale(.27464)"/><path fill="url(#ab)" d="m209.206 249.565-.66.001c-.241 0-.901-.481-.902-.719 0-.232.637-.691.87-.691l.72-.001c.356-.001.69.481.69.718.001.233-.352.691-.718.692z" style="fill:url(#ab);stroke:#141414;stroke-opacity:1" transform="translate(-33.287 -16.326)scale(.27464)"/><path fill="url(#ac)" d="m206.063 260.671.377-10.85c.027-.787 1.502-1.279 2.236-1.28.74-.001 2.253.484 2.283 1.27l.417 10.847c.061 1.574-.678 3.658-2.76 3.662-2.22.004-2.607-2.076-2.553-3.649zm2.574 2.453a1.48 1.48 0 0 0 1.477-1.484c-.002-.817-.627-2.23-1.445-2.228s-1.517 1.416-1.516 2.234a1.48 1.48 0 0 0 1.484 1.478zm-.287-5.102c.224-.002.193-.006.593-.01.288-.003.51-.253.509-.61-.004-.87-.017-5.552-.017-5.773-.001-.584-.199-1.057-.783-1.056s-.78.475-.779 1.059c.001.41.005 4.998.003 5.812 0 .347.268.58.474.578z" style="fill:url(#ac);stroke:#141414;stroke-opacity:1" transform="translate(-33.287 -16.326)scale(.27464)"/><path fill="url(#ad)" d="m208.216 249.506-.66.001c-.241 0-.901-.48-.902-.718 0-.233.637-.692.87-.692l.72-.001c.356 0 .69.481.691.719 0 .232-.353.69-.719.691z" style="fill:url(#ad);stroke:#141414;stroke-opacity:1" transform="translate(-33.287 -16.326)scale(.27464)"/></g><path fill="#6d6d6d" stroke-width="3" d="m220.765 82.718-5.829-13.029s13.203-8.69 24.916-8.744c13.656-.062 25.484 9.887 25.484 9.887l-6.514 12.571s-7.765-6.383-18.747-6.483c-10.334-.095-19.31 5.798-19.31 5.798z" style="stroke:#141414;stroke-opacity:1" transform="translate(-33.95 -16.326)scale(.27464)"/><path stroke-width="3" d="M239.003 75.403v-3.66c0-.883.127-2.375 1.514-2.397 1.453-.023 1.515 1.563 1.515 2.46v3.597zm-10.398 2.463-1.128-3.482c-.273-.84-.612-2.299.701-2.748 1.375-.47 1.922 1.02 2.2 1.875l1.108 3.421zm20.957-.738 1.175-3.466c.284-.836.883-2.209 2.205-1.784 1.382.445.932 1.967.643 2.817L252.43 78.1z" style="stroke:#141414;stroke-opacity:1" transform="translate(-34.066 -16.326)scale(.27464)"/><path fill="url(#ae)" stroke="url(#af)" stroke-width="2.5" d="M218.519 236.38a2.5 2.5 0 1 1 5 0 2.5 2.5 0 0 1-5 0z" style="fill:url(#ae);stroke:url(#af)" transform="translate(-33.95 -16.326)scale(.27464)"/><path fill="url(#ag)" stroke="url(#ah)" stroke-width="2.5" d="M228.119 236.495a2.5 2.5 0 1 1 5 0 2.5 2.5 0 0 1-5 0z" style="fill:url(#ag);stroke:url(#ah)" transform="translate(-33.95 -16.326)scale(.27464)"/><path fill="none" stroke-linecap="round" stroke-width="3" d="m148.821 197.712.2 51.2" style="stroke:#141414;stroke-opacity:1" transform="translate(-33.977 -16.326)scale(.27464)"/><g stroke-width="0"><path fill="url(#ai)" d="m149.956 252.376-2.86.005c-.302 0-.641-.412-.642-.806 0-.772-.007-3.543-.01-5.024 0-.57.413-.95.762-.951l2.574-.005c.611-.001 1.083.447 1.084.866l.01 5.106c0 .49-.386.807-.918.808z" style="fill:url(#ai)" transform="translate(-33.977 -16.326)scale(.27464)"/><path fill="url(#aj)" d="m149.65 249.721-.66.001c-.242 0-.902-.48-.902-.718 0-.233.636-.691.869-.692h.72c.356-.002.69.48.691.718 0 .233-.353.69-.719.692z" style="fill:url(#aj)" transform="translate(-33.977 -16.326)scale(.27464)"/><path fill="url(#ak)" d="m146.507 260.828.376-10.85c.027-.788 1.502-1.28 2.236-1.28.741-.001 2.253.483 2.283 1.27l.418 10.847c.06 1.573-.678 3.658-2.76 3.662-2.22.004-2.608-2.076-2.553-3.65m2.573 2.452a1.48 1.48 0 0 0 1.478-1.483c-.002-.818-.628-2.23-1.446-2.229-.817.002-1.517 1.417-1.515 2.235a1.48 1.48 0 0 0 1.483 1.477m-.287-5.101c.224-.002.194-.006.593-.01.288-.004.51-.253.51-.611-.005-.869-.017-5.551-.018-5.773 0-.584-.198-1.057-.782-1.056s-.78.475-.78 1.06c.002.409.006 4.997.004 5.812 0 .346.267.58.473.578" style="fill:url(#ak)" transform="translate(-33.977 -16.326)scale(.27464)"/><path fill="url(#al)" d="M149.092 249.663h-.66c-.241.001-.901-.48-.902-.718 0-.232.637-.691.87-.692h.72c.356-.001.69.48.691.718 0 .233-.353.691-.719.692" style="fill:url(#al)" transform="translate(-33.977 -16.326)scale(.27464)"/></g><path fill="none" stroke-linecap="round" stroke-width="3" d="m331.874 197.44-.2 51.4" data-paper-data="{&quot;index&quot;:null}" style="stroke:#141414;stroke-opacity:1" transform="translate(-33.977 -16.326)scale(.27464)"/><g stroke-width="0" data-paper-data="{&quot;index&quot;:null}"><path fill="url(#am)" d="M330.51 252.876c-.531-.001-.918-.319-.917-.809l.01-5.106c0-.418.472-.867 1.084-.866l2.574.005c.349.001.763.381.761.952l-.01 5.024c0 .393-.34.806-.642.806z" style="fill:url(#am)" transform="translate(-33.977 -16.326)scale(.27464)"/><path fill="url(#an)" d="M330.817 250.221c-.365 0-.72-.459-.719-.691 0-.238.336-.72.692-.719l.72.001c.233 0 .87.46.87.692-.001.237-.661.719-.903.718z" style="fill:url(#an)" transform="translate(-33.977 -16.326)scale(.27464)"/><path fill="url(#ao)" d="M333.96 261.328c.054 1.573-.333 3.653-2.552 3.649-2.083-.004-2.822-2.089-2.761-3.662l.417-10.847c.03-.787 1.542-1.272 2.284-1.27.734 0 2.208.492 2.236 1.28zm-2.573 2.452a1.48 1.48 0 0 0 1.483-1.477c.002-.818-.698-2.233-1.516-2.235-.817-.002-1.443 1.411-1.445 2.229a1.48 1.48 0 0 0 1.478 1.483m.286-5.101c.206.002.474-.232.474-.578-.001-.815.002-5.403.003-5.813 0-.584-.195-1.057-.779-1.059-.584 0-.782.472-.783 1.056 0 .222-.013 4.904-.017 5.773-.002.358.221.607.51.61.399.004.368.008.592.01z" style="fill:url(#ao)" transform="translate(-33.977 -16.326)scale(.27464)"/><path fill="url(#ap)" d="M331.807 250.163c-.365-.001-.72-.46-.719-.692 0-.237.335-.72.692-.719l.72.001c.232 0 .87.46.869.692 0 .238-.66.72-.902.719z" style="fill:url(#ap)" transform="translate(-33.977 -16.326)scale(.27464)"/></g></g></svg>