<svg xmlns="http://www.w3.org/2000/svg" width="64" height="60.040001" viewBox="0 0 64 60.040003"><defs><radialGradient id="a" cx="239.99998" cy="180.62279" r="23.545139" gradientTransform="translate(-4.328 -3.187)scale(1.01976)" gradientUnits="userSpaceOnUse"><stop offset="0" stop-color="#c7c7c7"/><stop offset="1" stop-color="#858585"/></radialGradient><linearGradient id="b" x1="218.8" x2="247.14169" y1="181.48573" y2="181.48573" gradientTransform="translate(0 -.48)" gradientUnits="userSpaceOnUse"><stop offset="0" stop-color="#979797"/><stop offset="1" stop-color="#c7c7c7"/></linearGradient></defs><g stroke="#616161" stroke-miterlimit="10" data-paper-data="{&quot;isPaintingLayer&quot;:true}" style="mix-blend-mode:normal"><path fill="url(#a)" stroke-width="5.5" d="M216.403 181.005c0-12.37 10.028-22.399 22.399-22.399 12.37 0 25.622 10.028 25.622 22.399 0 12.37-13.252 22.399-25.622 22.399s-22.399-10.029-22.399-22.4z" style="fill:url(#a);stroke-width:4.06964;stroke-miterlimit:10;stroke-dasharray:none" transform="translate(-263.38 -192.37)scale(1.22864)"/><path fill="url(#b)" d="M219.086 184.362s-.286-2.232-.286-3.286c0-1.172.286-3.428.286-3.428h26.571c.773 0 1.429.896 1.429 1.571 0 .767.086 2.602.044 3.859-.025.743-.773 1.284-1.616 1.284z" style="fill:url(#b)" transform="translate(-263.38 -192.37)scale(1.22864)"/></g></svg>