<svg xmlns="http://www.w3.org/2000/svg" xmlns:xlink="http://www.w3.org/1999/xlink" xml:space="preserve" width="79.546944" height="96.317795" viewBox="0 0 21.046795 25.484083"><defs><linearGradient id="e"><stop offset="0" style="stop-color:#fff;stop-opacity:1"/><stop offset="0.99780703" style="stop-color:#787878;stop-opacity:1"/></linearGradient><linearGradient id="a"><stop offset="0" style="stop-color:#fff;stop-opacity:1"/><stop offset="1" style="stop-color:#787878;stop-opacity:1"/></linearGradient><linearGradient id="c"><stop offset="0" style="stop-color:#fff;stop-opacity:1"/><stop offset="1" style="stop-color:#787878;stop-opacity:1"/></linearGradient><linearGradient id="d"><stop offset="0" style="stop-color:#fff;stop-opacity:1"/><stop offset="1" style="stop-color:#787878;stop-opacity:1"/></linearGradient><linearGradient xlink:href="#a" id="f" x1="1902.3097" x2="1912.8591" y1="-318.73251" y2="-302.19604" gradientTransform="translate(113.829 -15.495)" gradientUnits="userSpaceOnUse"/><linearGradient xlink:href="#c" id="g" x1="1900.1268" x2="1913.9349" y1="-310.25919" y2="-310.25919" gradientTransform="translate(113.829 -15.495)" gradientUnits="userSpaceOnUse"/><linearGradient xlink:href="#d" id="h" x1="1899.4653" x2="1915.3065" y1="-310.25919" y2="-310.25919" gradientTransform="translate(113.829 -15.495)" gradientUnits="userSpaceOnUse"/><radialGradient xlink:href="#e" id="i" cx="1904.9629" cy="-310.30499" r="2.072701" fx="1904.9629" fy="-310.30499" gradientTransform="matrix(2.9758 0 0 8.13966 -3650.465 2199.844)" gradientUnits="userSpaceOnUse"/></defs><g transform="translate(-2013.294 338.503)"><rect width="3.4106445" height="11.803602" x="2013.9559" y="-331.65619" rx="1.5664673" ry="1.5664673" style="fill:url(#f);fill-opacity:1;stroke:#383838;stroke-width:1.32292;stroke-linecap:round;stroke-linejoin:round;stroke-miterlimit:5;stroke-dasharray:none;stroke-opacity:1"/><rect width="7.3613281" height="24.161163" x="2017.6569" y="-337.84164" rx="1.6359196" ry="1.6359196" style="fill:url(#g);fill-opacity:1;stroke:#383838;stroke-width:1.32292;stroke-linecap:round;stroke-linejoin:round;stroke-miterlimit:5;stroke-dasharray:none;stroke-opacity:1"/><path d="M2019.632-335.587h7.214a4 4 0 0 1 4.01 4.01v11.645a4 4 0 0 1-4.01 4.01h-7.214a4 4 0 0 1-4.01-4.01v-11.645a4 4 0 0 1 4.01-4.01" style="fill:url(#h);stroke:#383838;stroke-width:1.32292;stroke-linecap:round;stroke-linejoin:round;stroke-miterlimit:5;stroke-opacity:1"/><g style="fill:#000;fill-opacity:.363158" transform="matrix(.89689 0 0 1 311.103 47.676)"><rect width="15.512224" height="2.6644928" x="1901.2153" y="-379.09814" rx="0" ry="0" style="fill:#000;fill-opacity:.363158;stroke:none;stroke-width:2.42431;stroke-linecap:round;stroke-linejoin:round;stroke-miterlimit:5;stroke-dasharray:none;stroke-opacity:1"/><rect width="15.512224" height="2.6644928" x="1901.215" y="-370.42749" rx="0" ry="0" style="fill:#000;fill-opacity:.363158;stroke:none;stroke-width:2.42431;stroke-linecap:round;stroke-linejoin:round;stroke-miterlimit:5;stroke-dasharray:none;stroke-opacity:1"/></g><path d="M2018.092-330.96h2.02s-1.2 1.8-1.2 5.207 1.2 5.206 1.2 5.206h-2.02s-1.2-1.817-1.2-5.206 1.2-5.206 1.2-5.206" style="fill:url(#i);stroke:#383838;stroke-width:.926042;stroke-linecap:round;stroke-linejoin:round;stroke-miterlimit:5;stroke-opacity:1"/><path fill="none" d="M2032.688-327.9h1.653v3.72h-1.653z" style="fill:#fff;fill-opacity:0;stroke-width:1.32292;stroke-linecap:square;stroke-miterlimit:5"/></g></svg>