<svg xmlns="http://www.w3.org/2000/svg" width="64" height="60.040001" viewBox="0 0 64 60.040003"><defs><radialGradient id="a" cx="239.99998" cy="180.62279" r="23.545139" gradientTransform="translate(-.658 -.5)scale(1.00274)" gradientUnits="userSpaceOnUse"><stop offset="0" stop-color="#608733"/><stop offset="1" stop-color="#51752c"/></radialGradient></defs><g style="stroke-width:4.13078;stroke-miterlimit:4;stroke-dasharray:none"><g stroke-miterlimit="10" data-paper-data="{&quot;isPaintingLayer&quot;:true}" style="mix-blend-mode:normal;stroke-width:4.13078;stroke-miterlimit:4;stroke-dasharray:none"><path fill="url(#a)" stroke="#2c4018" stroke-width="5.5" d="M216.39 180.618c0-12.164 9.861-22.025 22.025-22.025s25.195 9.861 25.195 22.025c0 12.165-13.03 22.025-25.195 22.025-12.164 0-22.025-9.86-22.025-22.025z" style="fill:url(#a);stroke-width:4.00171;stroke-miterlimit:4;stroke-dasharray:none" transform="translate(-267.877 -195.66)scale(1.24949)"/><path fill="#537a2d" d="M236.904 177.194c-.012.12-.028.245-.06.375v.262a.25.25 0 0 1-.494.056l-.07-.28.064-.017v-.044h.057l-.003-.015-.052-.016.033-.147c-.01-.182.02-.358.078-.53.05-.369.12-.686.47-.991-.073-.178.1-.293.1-.293l.213-.143a.7.7 0 0 1 .157-.083l.02-.029.06.003-.022-.034.21-.141a.25.25 0 1 1 .277.416l-.179.12c-.158.246-.55 1.045-.86 1.531z" style="stroke-width:4.13078;stroke-miterlimit:4;stroke-dasharray:none" transform="translate(-267.877 -195.66)scale(1.24949)"/><path fill="#547b2d" d="M243.696 185.61c0-.25.25-.25.25-.25l-.066.112c.539-.729 1.133-.713 1.393-1.778 0 0 .06-.242.303-.181.243.06.182.303.182.303-.27 1.062-1.077 1.208-1.462 1.933l-.35.112s-.25 0-.25-.25m-11.813-3.737a.23.23 0 0 1 .18.24c0 .25-.25.25-.25.25l-.28-.112c-.6-.9-.833-1.632-1.105-2.719 0 0-.06-.242.182-.303.242-.06.303.182.303.182.252 1.008.448 1.652.97 2.462" style="stroke-width:4.13078;stroke-miterlimit:4;stroke-dasharray:none" transform="translate(-267.877 -195.66)scale(1.24949)"/><path fill="#51762c" d="M247.58 170.262c-.14.208-.347.07-.347.07l-.214-.143c-.68-.454-1.45-.747-2.288-.744 0 0-.25 0-.25-.25s.25-.25.25-.25c.937.004 1.8.318 2.565.827l.214.143s.208.139.07.347" style="stroke-width:4.13078;stroke-miterlimit:4;stroke-dasharray:none" transform="translate(-267.877 -195.66)scale(1.24949)"/><path fill="#547b2d" d="M235.131 188.466c0 .25-.25.25-.25.25l-.132-.007c-.791-.198-1.529-.542-2.003-1.246 0 0-.138-.208.07-.347s.346.07.346.07c.397.602 1.044.871 1.709 1.037l.01-.007s.25 0 .25.25" style="stroke-width:4.13078;stroke-miterlimit:4;stroke-dasharray:none" transform="translate(-267.877 -195.66)scale(1.24949)"/><path fill="#4e722a" d="M227.602 170.445c-.25 0-.25-.25-.25-.25l.002-.316c.29-1.138 1.44-1.724 2.212-2.502 0 0 .177-.177.354 0 .176.177 0 .354 0 .354-.65.644-1.84 1.258-2.07 2.209l.002.255s0 .25-.25.25m-4.647 6.482c-.237-.08-.158-.317-.158-.317l.058-.135v-1.355c0-2.53 1.094-4.801 2.699-6.727 0 0 .16-.192.352-.032s.032.352.032.352c-1.531 1.838-2.583 3.994-2.583 6.407v1.355l-.084.293s-.08.238-.316.159m2.577 14.429c-.232 0-.249-.215-.25-.246l-.086-.13c-1.39-1.378-2.052-4.096-2.055-6.012 0 0 0-.25.25-.25s.25.25.25.25c-.004 1.824.634 4.377 1.941 5.694l.158.234.042.21s0 .25-.25.25m20.303 4.07c.177.177 0 .353 0 .353l-.11.103c-.907.603-2.081.783-2.963 1.377-2.68.7-4.106.227-6.739.235 0 0-.25 0-.25-.25s.25-.25.25-.25c2.602.007 3.903.425 6.537-.193.863-.57 2.008-.746 2.888-1.335l.034-.04s.176-.177.353 0m11.232-15.853c-.243.06-.303-.182-.303-.182l-.077-.316c-.012-2.351-.617-4.104-1.822-6.111 0 0-.129-.214.086-.343.214-.129.343.086.343.086 1.229 2.05 1.903 3.897 1.889 6.307l.066.255s.06.243-.182.304m-13.027-14.938c-.08.238-.316.159-.316.159l-.274-.101c-1.25-.865-3.644-1.103-5.143-1.1 0 0-.25 0-.25-.25s.25-.25.25-.25c1.644.003 4.03.281 5.42 1.184l.155.042s.237.08.158.316" style="stroke-width:4.13078;stroke-miterlimit:4;stroke-dasharray:none" transform="translate(-267.877 -195.66)scale(1.24949)"/></g></g></svg>