<svg xmlns="http://www.w3.org/2000/svg" xmlns:xlink="http://www.w3.org/1999/xlink" xml:space="preserve" width="112.19856" height="107.67377" viewBox="0 0 29.685869 28.488684"><defs><linearGradient id="f"><stop offset="0" style="stop-color:#fff;stop-opacity:1"/><stop offset="1" style="stop-color:#787878;stop-opacity:1"/></linearGradient><linearGradient id="e"><stop offset="0" style="stop-color:#fff;stop-opacity:1"/><stop offset="1" style="stop-color:#787878;stop-opacity:1"/></linearGradient><linearGradient id="d"><stop offset="0" style="stop-color:#fff;stop-opacity:1"/><stop offset="1" style="stop-color:#787878;stop-opacity:1"/></linearGradient><linearGradient id="b"><stop offset="0" style="stop-color:#fff;stop-opacity:1"/><stop offset="1" style="stop-color:#787878;stop-opacity:1"/></linearGradient><linearGradient id="c"><stop offset="0" style="stop-color:#fff;stop-opacity:1"/><stop offset="1" style="stop-color:#787878;stop-opacity:1"/></linearGradient><linearGradient id="a"><stop offset="0" style="stop-color:#b2b2b2;stop-opacity:1"/><stop offset="1" style="stop-color:#5e5e5e;stop-opacity:1"/></linearGradient><linearGradient xlink:href="#a" id="g" x1="1957.329" x2="1968.7914" y1="-320.97263" y2="-304.7579" gradientTransform="translate(54.314 15.832)" gradientUnits="userSpaceOnUse"/><linearGradient xlink:href="#b" id="i" x1="2015.6519" x2="2026.8627" y1="-294.95334" y2="-294.95334" gradientUnits="userSpaceOnUse"/><linearGradient xlink:href="#a" id="j" x1="1957.329" x2="1968.7914" y1="-320.97263" y2="-304.7579" gradientTransform="translate(55.214 15.832)" gradientUnits="userSpaceOnUse"/><linearGradient xlink:href="#c" id="k" x1="1955.4438" x2="1970.0492" y1="-310.85233" y2="-310.78571" gradientTransform="translate(56.914 15.832)" gradientUnits="userSpaceOnUse"/><linearGradient xlink:href="#d" id="l" x1="1899.2183" x2="1911.8458" y1="-373.33676" y2="-367.13889" gradientTransform="matrix(.9617 0 0 .9972 186.849 77.434)" gradientUnits="userSpaceOnUse"/><linearGradient xlink:href="#e" id="m" x1="1899.2183" x2="1911.8458" y1="-373.33676" y2="-367.13889" gradientTransform="matrix(.9617 0 0 .9972 186.849 77.434)" gradientUnits="userSpaceOnUse"/><linearGradient xlink:href="#f" id="h" x1="2009.8947" x2="2018.6367" y1="-294.95334" y2="-294.95334" gradientUnits="userSpaceOnUse"/></defs><g transform="translate(-2008.68 309.198)"><rect width="1.4250488" height="4.2800193" x="2009.3423" y="-297.09338" ry="0.71252441" style="fill:url(#g);fill-opacity:1;stroke:#383838;stroke-width:1.32292;stroke-linecap:round;stroke-linejoin:round;stroke-miterlimit:5;stroke-dasharray:none;stroke-opacity:1"/><path d="M2013.218-302.194h2.2a2.655 2.655 0 0 1 2.66 2.66v9.16a2.655 2.655 0 0 1-2.66 2.662h-2.2a2.656 2.656 0 0 1-2.662-2.662v-9.16a2.656 2.656 0 0 1 2.661-2.66" style="fill:url(#h);fill-opacity:1;stroke:#383838;stroke-width:1.32292;stroke-linecap:round;stroke-linejoin:round;stroke-miterlimit:5;stroke-opacity:1"/><path d="M2018.26-308.536h5.995c1.078 0 1.946.947 1.946 2.124v22.917c0 1.177-.868 2.125-1.947 2.125h-5.994c-1.078 0-1.947-.948-1.947-2.125v-22.917c0-1.177.868-2.124 1.947-2.124" style="fill:url(#i);fill-opacity:1;stroke:#383838;stroke-width:1.32292;stroke-linecap:round;stroke-linejoin:round;stroke-miterlimit:5;stroke-opacity:1"/><path d="M2013.192-297.584h1.425v5.262h-1.425z" style="fill:url(#j);fill-opacity:1;stroke:#383838;stroke-width:1.32292;stroke-linecap:round;stroke-linejoin:round;stroke-miterlimit:5;stroke-dasharray:none;stroke-opacity:1"/><path d="M2018.439-305.771h8.813c2.221 0 4.01 1.967 4.01 4.412v12.812c0 2.444-1.789 4.412-4.01 4.412h-8.813c-2.222 0-4.01-1.968-4.01-4.412v-12.812c0-2.445 1.788-4.412 4.01-4.412" style="fill:url(#k);stroke:#383838;stroke-width:1.32292;stroke-linecap:round;stroke-linejoin:round;stroke-miterlimit:5;stroke-opacity:1"/><path d="M2018.478-300.462h12.127v11.017h-12.127z" style="display:inline;fill:#000;fill-opacity:.364706;stroke:none;stroke-width:2096.88;stroke-linecap:round;stroke-linejoin:round;stroke-miterlimit:5;stroke-dasharray:none;stroke-opacity:1"/><path d="M2015.023-300.605h15.602c.254 0 .458.212.458.475v1.707a.466.466 0 0 1-.458.475h-15.602a.466.466 0 0 1-.458-.475v-1.707c0-.263.204-.475.458-.475" style="fill:url(#l);stroke:#383838;stroke-width:.957865;stroke-linecap:round;stroke-linejoin:round;stroke-miterlimit:5;stroke-opacity:1"/><path d="M2014.917-291.959h15.813a.36.36 0 0 1 .353.366v1.926a.36.36 0 0 1-.353.365h-15.813a.36.36 0 0 1-.352-.365v-1.926c0-.203.157-.366.352-.366" style="fill:url(#m);stroke:#383838;stroke-width:.957865;stroke-linecap:round;stroke-linejoin:round;stroke-miterlimit:5;stroke-opacity:1"/><path fill="none" d="M2032.813-297.137h5.554v3.508h-5.554z" style="fill:#fff;fill-opacity:0;stroke-width:1.32292;stroke-linecap:square;stroke-miterlimit:5"/></g></svg>