<svg xmlns="http://www.w3.org/2000/svg" xmlns:xlink="http://www.w3.org/1999/xlink" xml:space="preserve" width="63.999516" height="69.451416" viewBox="0 0 16.933205 18.375687"><defs><radialGradient xlink:href="#a" id="b" cx="240" cy="180.61845" r="25.610535" fx="240" fy="180.61845" gradientTransform="matrix(1 0 0 .93812 0 11.176)" gradientUnits="userSpaceOnUse"/><radialGradient xlink:href="#a" id="c" cx="240" cy="180.61845" r="25.610535" fx="240" fy="180.61845" gradientTransform="matrix(1 0 0 .93812 0 11.176)" gradientUnits="userSpaceOnUse"/><linearGradient id="a"><stop offset="0" style="stop-color:#5d5d5d;stop-opacity:1"/><stop offset="1" style="stop-color:#2f2f2f;stop-opacity:1"/></linearGradient></defs><g style="mix-blend-mode:normal;fill:url(#b);stroke:#141414;stroke-width:4.13078;stroke-miterlimit:4;stroke-dasharray:none;stroke-opacity:1" transform="translate(-70.876 -50.605)scale(.3306)"><path fill="url(#color-1)" stroke="#2c4018" stroke-miterlimit="10" stroke-width="5.5" d="M216.39 180.618c0-12.164 9.861-22.025 22.025-22.025s25.195 9.861 25.195 22.025c0 12.165-13.03 22.025-25.195 22.025-12.164 0-22.025-9.86-22.025-22.025z" data-paper-data="{&quot;isPaintingLayer&quot;:true}" style="fill:url(#c);fill-opacity:1;stroke:#141414;stroke-width:4.00171;stroke-miterlimit:4;stroke-dasharray:none;stroke-opacity:1"/></g><path fill="#1d1d1d" stroke-width="0.497247" d="M2197.794-394.314s.899-.293 1.3-.525c.384-.222 1.057-.838 1.057-.838s.209.593.39.831c.16.213.642.532.642.532s-.418.308-.553.53c-.165.271-.368.98-.368.98s-.7-.658-1.102-.903c-.42-.258-1.366-.607-1.366-.607z" style="mix-blend-mode:normal;fill-rule:nonzero;stroke:#141414;stroke-linecap:butt;stroke-linejoin:miter;stroke-miterlimit:10;stroke-dasharray:none;stroke-dashoffset:0;stroke-opacity:1" transform="translate(-2184.995 403.336)"/><path d="M2190.87-398.184c-.731 0-1.318.588-1.318 1.318s.587 1.319 1.317 1.319h1.12v2.636h-1.12c-.73 0-1.317.588-1.317 1.318s.587 1.319 1.317 1.319h5.185c.73 0 1.318-.588 1.318-1.319 0-.73-.588-1.318-1.318-1.318h-1.074v-2.636h1.074c.73 0 1.318-.588 1.318-1.319 0-.73-.588-1.318-1.318-1.318z" style="fill:#1d1d1d;fill-opacity:1;stroke:none;stroke-width:.264583;stroke-linecap:round;stroke-linejoin:round" transform="translate(-2184.995 403.336)"/><path d="M2189.262-402.308s1.52-.366 4.01-.366 4.01.366 4.01.366v2.048s-1.646-.4-4.01-.4-4.01.4-4.01.4zm8.021 16.32s-1.521.367-4.01.367c-2.49 0-4.012-.367-4.012-.367v-2.048s1.647.4 4.011.4 4.01-.4 4.01-.4z" style="fill:#3e3e3e;fill-opacity:1;stroke:#141414;stroke-width:1.32292;stroke-linecap:square;stroke-miterlimit:5" transform="translate(-2184.995 403.336)"/></svg>