<svg xmlns="http://www.w3.org/2000/svg" id="Layer_2" width="700" height="696.4184" data-name="Layer 2" version="1.1" viewBox="0 0 699.99999 696.41839"><defs id="defs4"><style id="style2">.cls-2,.cls-3{isolation:isolate;opacity:.997;stroke:#303030;stroke-linecap:round;stroke-miterlimit:15.1181;stroke-width:5px}.cls-2{fill:#5a70e0}.cls-3{fill:#3f3fe0}</style></defs><g id="Layer_2-2" data-name="Layer 2-2" style="opacity:1" transform="scale(1.58762)"><g id="Layer_2-3" data-name="Layer 2-3"><path id="path1526" d="M108.947 190.635c-15.295-3.06-29.214-5.812-31.05-6.271l-3.212-.612.306-6.271c.46-9.79 4.13-20.496 9.79-28.45 2.905-4.13 4.74-5.66 6.73-5.66.917 0 11.624 5.813 27.837 14.99 14.53 8.26 26.614 14.99 26.614 15.143.153.153-.764 1.377-1.835 2.906-2.448 3.212-4.436 8.413-4.895 12.543-.765 7.341-.917 7.494-1.835 7.494-.153-.153-13.154-2.753-28.45-5.812z" class="cls-3"/><path id="path1528" d="M119.501 155.914c-14.53-8.26-26.614-14.99-26.767-15.142-.459-.46 1.224-6.425 2.6-9.637 1.989-4.741 5.812-10.4 9.636-14.072 5.2-5.2 13.155-10.248 15.602-9.789.765.153 8.412 7.954 21.872 22.638 11.32 12.389 20.65 22.637 20.65 22.943s-1.071 1.07-2.448 1.835c-3.977 1.989-7.648 5.66-9.942 10.554-1.224 2.295-2.142 4.589-2.142 5.048s-.611.765-1.223.765c-.765-.153-13.307-6.883-27.838-15.143z" class="cls-3"/><path id="path1530" d="M143.515 128.23c-11.165-12.084-20.343-22.485-20.496-22.944-.459-2.294 7.19-11.472 13.154-15.755 6.272-4.435 14.99-7.8 20.802-7.8h2.448l11.012 24.779c6.119 13.613 11.778 26.46 12.849 28.602l1.835 3.824-3.059.612c-6.118 1.224-10.86 3.977-13.919 8.107-1.224 1.835-2.294 2.6-3.059 2.6-.918 0-7.036-6.271-21.567-22.026z" class="cls-3"/><path id="path1532" d="M173.953 109.263c-6.577-14.837-12.083-27.38-12.083-27.991 0-2.6 8.412-8.413 16.213-11.013 4.283-1.376 6.118-1.835 11.625-1.988 5.965-.306 13.154.459 14.683 1.376.306.306 1.683 11.625 3.365 29.368 1.53 15.907 2.906 29.826 3.06 30.897l.305 1.835-5.2-.153c-5.965-.152-10.554.765-14.837 3.212-4.894 2.753-3.518 4.742-17.13-25.543z" class="cls-3"/><path id="path1534" d="M230.853 130.83c-3.824-1.224-9.178-1.377-14.072-.46-1.989.46-3.671.612-3.824.46-.153-.154-1.53-13.308-3.06-29.368-1.529-16.06-2.905-29.826-3.058-30.591-.153-1.224 0-1.53 2.906-2.753 6.577-2.906 14.683-3.977 22.484-3.06 8.107.918 17.59 4.742 17.59 6.884 0 .458-2.906 14.224-6.577 30.59l-6.577 29.674h-1.377c-.459-.306-2.6-.918-4.436-1.377z" class="cls-3"/><path id="path1536" d="M257.467 137.865c-3.824-3.059-7.648-4.435-13.613-4.741-2.753-.153-5.048-.306-5.048-.459 0-1.224 13.613-60.723 14.072-61.03.765-.764 10.86-1.07 14.99-.458 4.894.918 10.707 3.212 15.448 6.271 3.977 2.6 10.707 8.566 10.707 9.636 0 .306-6.883 12.237-15.295 26.615-17.59 29.673-16.214 28.143-21.261 24.167z" class="cls-3"/><path id="path1538" d="M279.492 154.538c-2.906-5.048-7.953-8.872-13.766-10.86-.459-.153-.917-.765-.917-1.377 0-.765 25.237-44.357 30.59-52.77.765-1.07.918-1.07 3.671-.458 4.13.918 9.025 3.212 12.696 5.506 6.577 4.436 13.919 12.542 17.437 19.578l1.223 2.447-1.223 1.224c-.765.612-11.166 9.942-23.097 20.496-16.825 14.837-22.178 19.272-23.249 19.272-1.376-.305-1.988-.764-3.365-3.059z" class="cls-3"/><path id="path1540" d="M295.094 176.563c-1.071-4.436-3.671-9.177-6.883-12.39-1.989-1.988-2.906-3.211-2.906-4.13 0-1.07 4.894-5.505 22.484-21.107 14.072-12.39 22.943-19.731 23.708-19.884 3.212-.459 11.93 7.648 16.672 15.448 2.906 4.895 5.965 13.307 6.577 17.896l.306 2.906-28.45 12.084c-15.601 6.577-29.061 12.083-29.673 12.083-1.07 0-1.376-.306-1.835-2.906z" class="cls-3"/><path id="path1542" d="M303.353 199.66c0-6.884-.612-9.025-3.824-13.767-2.6-3.824-3.823-3.059 26.768-16.213 15.295-6.577 28.45-11.778 29.061-11.778 1.683 0 5.965 4.895 8.413 9.484 3.518 6.73 4.435 11.012 4.435 21.26 0 5.2-.306 9.484-.611 10.248l-.612 1.377-31.356 2.753c-17.131 1.53-31.509 2.753-31.815 2.753-.153.306-.459-2.294-.459-6.118z" class="cls-3"/><path id="path1544" d="M345.875 241.722c-9.636-2.294-23.25-5.66-30.132-7.342-10.095-2.447-12.543-3.212-12.543-3.977 0-.458.46-2.141 1.071-3.824 1.682-4.435 1.988-8.871.765-13.766-.459-2.294-.765-4.282-.612-4.435.306-.306 63.17-6.118 63.476-5.966 0 0 .765 2.295 1.53 4.895 1.377 4.436 1.53 5.506 1.53 14.378 0 10.4-.46 13.001-3.824 20.343-1.224 2.906-1.989 3.977-2.754 3.824-.458.153-8.87-1.836-18.507-4.13z" class="cls-3"/><path id="path1546" d="M321.249 273.23c-22.025-13.306-26.002-15.754-26.155-16.824-.153-.918.612-2.295 1.988-4.283 2.753-3.518 4.283-8.566 4.436-14.225.153-3.824.306-4.13 1.223-4.13 1.53 0 61.335 14.378 61.794 14.837.153.153.306 2.906.306 5.965-.153 11.472-4.894 23.555-12.542 31.815-1.683 1.836-2.753 2.6-3.824 2.6-.765-.153-10.86-5.965-27.226-15.754z" class="cls-3"/><path id="path1548" d="M297.847 301.374c-22.026-25.237-21.873-24.931-18.202-27.073 3.518-1.835 8.413-7.189 10.401-11.165 1.53-3.06 1.988-3.671 3.06-3.671.764 0 12.236 6.577 28.143 15.907 26.155 15.601 26.767 16.06 26.461 17.437-1.223 5.353-4.283 11.471-8.412 16.672-5.66 7.189-14.837 14.072-19.273 14.53l-1.988.307z" class="cls-3"/><path id="path1550" d="M268.327 321.717c-7.036-16.366-12.849-29.979-12.696-30.285s1.53-.917 3.06-1.376c4.588-1.224 8.718-3.518 11.93-6.73 2.294-2.295 3.518-3.06 4.589-3.06 1.223 0 4.435 3.365 21.566 22.944 11.166 12.695 20.19 23.249 20.343 23.555.306 1.07-5.047 8.565-9.33 12.848-3.67 3.671-5.353 4.895-9.483 6.883-4.436 2.142-13.92 5.2-16.214 5.2-.611-.152-4.894-9.636-13.765-29.979z" class="cls-3"/><path id="path1552" d="M238.653 364.545c-1.07-.153-2.141-.612-2.447-.765-.306-.306-6.577-60.417-6.577-63.935v-1.683l2.906.306c4.589.306 10.095-.765 14.684-3.212 2.294-1.223 4.741-2.141 5.353-2.141.918 0 2.906 3.977 13.919 29.673l12.848 29.674-2.141 1.835c-5.048 4.436-13.766 8.413-21.414 10.095-4.13.612-13.46.765-17.131.153z" class="cls-3"/><path id="path1554" d="M208.368 367.757c-6.424-.765-18.202-5.047-18.202-6.577 0-.306 2.907-14.684 6.578-31.815 5.965-28.296 6.73-31.203 7.647-31.203.612 0 2.754.46 4.895 1.224 4.436 1.376 10.707 1.53 14.837.459 1.53-.46 3.059-.612 3.059-.46.153.154 1.682 14.685 3.518 32.427 2.906 28.909 3.212 32.121 2.447 32.733-1.377.917-9.024 2.906-13.919 3.518-5.047.306-5.66.306-10.86-.306z" class="cls-3"/><path id="path1556" d="M180.071 360.568c-11.624-1.07-23.555-5.812-29.979-11.624-2.294-2.142-3.212-3.365-3.212-4.283 0-.765 6.883-13.46 15.449-28.297 17.437-30.438 15.907-28.602 20.955-24.932 3.67 2.754 7.647 4.283 13.613 5.048 4.435.612 4.741.765 4.435 1.682-.459 1.989-13.307 62.406-13.307 62.712-.153.459-1.376.306-7.953-.306z" class="cls-3"/><path id="path1558" d="M140.15 342.52c-3.059-1.071-9.483-4.436-12.236-6.425-7.648-5.2-16.825-17.13-16.06-20.955.152-.458 9.942-10.095 22.025-21.26 17.13-15.755 22.178-20.343 23.25-20.343 1.07 0 1.988.764 3.823 3.059 2.906 3.67 7.036 6.577 11.93 8.26 1.989.764 3.671 1.529 3.671 1.682s-7.188 13.154-16.06 28.602c-17.437 30.744-16.06 28.909-20.343 27.38z" class="cls-3"/><path id="path1560" d="M107.112 311.317c-10.707-7.648-17.284-16.214-20.955-26.768-2.6-7.8-5.66-5.506 27.073-20.649 15.754-7.341 29.214-13.307 29.826-13.307 1.071 0 1.377.46 2.142 3.518 1.223 4.742 3.365 8.26 7.494 12.237 1.989 1.835 3.365 3.518 3.213 3.976-.153.306-10.248 9.943-22.638 21.414-14.225 13.154-22.79 20.802-23.555 20.802-.459 0-1.682-.459-2.6-1.223z" class="cls-3"/><path id="path1562" d="M80.957 272.313c-5.813-6.271-9.484-15.601-10.248-26.002-.306-5.201.764-12.543 2.14-13.613.613-.46 61.183-7.801 63.63-7.801.612 0 .765.765.612 4.589-.153 5.659.612 8.87 3.671 13.918 1.224 1.989 2.141 3.824 2.141 4.13 0 .612-57.358 27.226-58.734 27.226-.46 0-1.989-1.07-3.212-2.447z" class="cls-3"/><path id="path1564" d="M71.473 228.415c-3.059-7.8-3.824-22.332-1.53-30.591 1.377-5.048 4.283-11.625 5.201-11.625 1.07 0 62.559 12.237 62.712 12.543.153.152-.306 1.682-1.07 3.518-2.601 6.424-3.06 13.918-1.072 18.507.46 1.07.612 1.988.612 2.141-.153.153-62.252 7.648-63.63 7.648-.152-.153-.764-1.07-1.223-2.141z" class="cls-3"/><path id="path1566" d="M6.009 236.98c-.154-.458-.918-4.588-1.683-9.024-2.6-14.837-2.447-27.99.612-39.616 1.376-5.047 4.894-14.53 5.66-14.99.458-.305 20.19 3.519 20.648 3.978.306.153-.306 2.294-1.224 4.588-5.965 14.99-6.73 31.662-2.141 49.405.612 2.294.918 4.13.918 4.13-.306.153-20.19 2.447-21.261 2.447-.765 0-1.377-.459-1.53-.918z" class="cls-3"/><path id="path1568" d="M20.845 173.198c-5.2-1.07-9.483-1.988-9.636-1.988-.306-.153 1.988-14.531 3.518-21.414 2.294-10.86 6.271-20.955 11.166-28.144 2.906-4.436 8.412-10.095 9.636-10.095.917 0 15.754 8.107 16.978 9.177.306.306-.918 1.989-2.753 4.13-11.472 13.001-17.437 28.45-17.437 45.122 0 4.742-.153 5.2-.918 5.2-.612 0-5.353-.917-10.554-1.988z" class="cls-3"/><path id="path1570" d="M44.553 113.698c-4.894-2.753-7.495-4.435-7.495-5.047 0-1.683 5.048-13.001 8.26-18.355 4.436-7.495 8.718-13 14.837-18.813 5.812-5.66 14.836-11.93 16.672-11.778 1.53.153 13.154 12.849 13.154 14.378 0 .918-.765 1.53-4.436 3.212-15.448 7.189-25.237 18.814-29.979 35.639-1.224 4.282-1.53 5.047-2.6 5.047-.612-.153-4.436-1.988-8.413-4.283z" class="cls-3"/><path id="path1572" d="M85.851 65.365c-4.436-4.895-5.965-7.036-5.965-7.954 0-1.07 1.53-2.906 6.577-7.954 9.789-9.789 16.06-14.378 25.85-19.272 4.74-2.447 15.6-6.271 19.272-6.883l1.682-.306 4.283 9.483c2.294 5.2 4.13 9.483 3.977 9.636s-2.295.612-4.895 1.071c-17.284 3.365-30.897 11.93-39.615 25.085-1.989 2.906-2.906 3.977-3.824 3.977-1.07-.306-3.212-2.295-7.342-6.883z" class="cls-3"/><path id="path1574" d="M139.08 31.409c-1.989-4.436-3.672-8.413-3.672-8.872 0-1.835 12.696-8.565 22.179-11.624 10.707-3.518 21.873-4.895 33.191-3.824 3.824.306 7.19.764 7.648.917.459.153.918 3.06 1.53 9.025.458 4.894.764 8.871.764 8.871-.153.153-1.835-.153-3.823-.459-5.66-.764-16.826-.612-22.179.306-9.636 1.683-18.507 5.507-26.002 11.166q-5.354 3.977-9.637-5.506z" class="cls-3"/><path id="path1576" d="M254.714 25.902c-14.378-6.883-30.286-7.8-45.581-2.753-2.6.918-5.2 1.683-5.66 1.683-.611 0-.917-1.53-1.376-7.495-.306-4.13-.765-7.954-.918-8.566-.153-.918.306-1.376 3.06-2.294 1.835-.612 5.659-1.836 8.565-2.6C217.698 2.5 218.922 2.5 229.17 2.5c10.095 0 11.625.153 17.131 1.377 4.742 1.07 17.131 5.353 17.896 5.965.153.153-.765 4.13-1.836 8.871-2.447 10.095-2.141 9.79-7.648 7.19z" class="cls-3"/><path id="path1578" d="M311.154 45.786c-12.695-11.93-26.155-17.283-42.521-17.13-5.966 0-6.425 0-6.425-.918 0-.612.918-4.742 1.836-9.178l1.835-8.26 3.213.307c25.39 2.141 39.462 7.189 52.157 18.966 1.836 1.683 3.365 3.518 3.518 3.977.153.765-.917 3.212-3.824 8.107-4.741 8.412-5.047 8.565-9.789 4.13z" class="cls-3"/><path id="path1580" d="M357.652 80.507c-10.095-14.99-20.19-23.249-33.344-27.532-6.118-1.988-6.118-2.141-1.07-10.707 2.14-3.67 4.13-6.73 4.282-6.883.765-.458 13.307 3.977 18.355 6.424 7.036 3.519 12.083 7.036 17.284 12.237 5.2 5.2 8.565 9.636 12.083 16.213l2.447 4.436-6.577 5.812c-4.588 4.13-7.036 5.812-7.953 5.812-1.224.153-2.142-.764-5.507-5.812z" class="cls-3"/><path id="path1582" d="M395.28 134.806c-1.989-13.766-6.578-23.708-15.296-32.732-2.447-2.6-6.73-6.271-9.33-8.107-6.578-4.588-6.578-4.741 1.223-11.471 3.977-3.518 6.424-5.2 7.342-5.2 3.212 0 19.12 14.377 24.473 22.33 5.66 8.26 10.095 20.19 10.554 27.838v0c.153 1.683-.918 3.366-2.6 3.977l-5.507 2.295c-4.589 1.988-8.719 3.518-9.33 3.518-.918.153-1.224-.46-1.53-2.448z" class="cls-3"/><path id="path1584" d="M413.328 191.553c1.07-6.424.612-16.367-.918-22.332-2.141-8.565-5.965-16.366-11.624-23.86-1.683-2.295-2.906-4.283-2.753-4.895.153-.765 2.141-1.836 8.412-4.59 4.589-1.987 8.566-3.364 9.024-3.211 1.224.459 7.036 9.33 10.095 14.99 5.048 9.789 7.19 17.13 8.107 27.379.459 5.659-.153 18.354-.918 19.119-.153.153-3.518.612-7.341.918s-8.26.764-9.79.917l-2.753.306z" class="cls-3"/><path id="path1586" d="M419.446 259.312c-3.977-1.07-7.8-1.989-8.565-2.142-1.683-.458-1.53-2.141.612-7.494 5.965-14.378 7.036-28.909 3.212-43.44-2.142-8.106-2.142-7.647-.612-7.953.765-.153 4.742-.612 8.871-.918s8.107-.765 8.719-.765c1.07-.153 1.376.306 2.753 4.283 2.906 8.106 3.977 14.684 3.977 23.86 0 5.507-.306 9.484-.918 12.39-2.141 10.095-7.954 24.167-9.942 24.014-.459 0-4.13-.917-8.107-1.835z" class="cls-3"/><path id="path1588" d="M396.809 318.505c-6.271-3.67-8.26-5.2-8.26-5.965 0-.612 1.989-3.059 4.589-5.812 7.342-7.8 11.778-15.296 14.225-24.779 1.223-4.436 1.376-6.271 1.376-13.919 0-7.495.153-8.718.918-8.718 1.377 0 17.896 4.13 18.202 4.588.153.153.459 3.824.612 8.107.458 19.731-4.895 35.18-16.825 47.722-2.907 3.059-4.13 3.977-5.201 3.977-.765-.306-4.895-2.447-9.636-5.2z" class="cls-3"/><path id="path1590" d="M357.652 369.593c-4.588-5.201-6.883-8.413-6.883-9.178 0-.918.612-1.53 3.06-2.906 14.836-7.495 25.237-19.884 30.438-36.097 1.53-4.895 1.835-5.507 3.059-5.507.612 0 5.047 2.295 9.789 5.2 9.483 5.66 8.871 4.895 7.342 10.555-2.906 10.554-9.025 20.802-17.743 29.367-6.271 6.271-19.578 16.52-21.414 16.52-.459-.154-3.977-3.672-7.648-7.955z" class="cls-3"/><path id="path1592" d="M307.177 411.196c-4.282-9.636-7.342-16.978-7.342-17.896 0-.764 1.224-1.223 7.036-2.753 17.743-4.436 30.744-12.542 37.474-23.555 3.212-5.2 3.671-5.2 10.86 3.06 3.212 3.67 6.424 7.188 7.189 7.953l1.224 1.377-2.6 3.518c-3.825 5.047-11.625 12.695-17.285 16.672-8.26 5.965-24.931 13.154-33.344 14.53l-1.988.306z" class="cls-3"/><path id="path1594" d="M247.83 430.928c-2.6-.153-4.894-.46-5.047-.612-.153-.153-2.447-19.885-2.447-21.567 0-.153 1.988-.153 4.435.153 5.813.612 17.284.153 22.944-.918 4.894-.917 12.39-3.518 16.366-5.506a101 101 0 0 0 6.883-4.283c2.447-1.682 4.894-2.906 5.66-2.906 1.07 0 1.682 1.07 5.506 9.79 2.294 5.353 4.282 9.941 4.282 10.094s-1.53 1.377-3.365 2.753c-13.307 10.248-33.038 14.837-55.216 13.002z" class="cls-3"/><path id="path1596" d="M203.32 435.822c-6.576-.765-14.53-2.6-20.954-4.895-3.212-1.07-6.119-2.294-6.272-2.447-.152-.306.612-5.2 1.836-11.013 2.141-9.789 2.294-10.554 3.518-10.707.612-.152 3.518.612 6.424 1.683 10.86 3.824 14.378 4.436 26.308 4.436 10.248 0 11.166-.153 16.214-1.53 2.906-.918 5.965-1.53 6.73-1.53h1.376l.918 8.872c1.377 13.766 1.836 12.083-4.283 14.072-2.906.917-7.341 1.988-9.789 2.447-5.66.918-16.366 1.224-22.025.612z" class="cls-3"/><path id="path1598" d="M159.576 427.41c-13.766-1.836-26.615-6.425-35.64-13.002-5.2-3.824-10.553-8.718-11.012-10.095-.153-.917 1.224-3.67 4.742-10.095 4.13-7.189 5.353-8.871 6.424-9.024.918-.153 2.447.918 5.353 3.212 9.636 7.8 18.508 12.695 27.38 15.448 3.976 1.224 6.117 1.53 13.153 1.683 8.107.306 8.26.306 8.107 1.376-.153.612-1.224 5.66-2.294 11.013l-2.142 9.942-6.27-.153c-3.366-.153-6.884-.153-7.802-.306z" class="cls-3"/><path id="path1600" d="M104.359 400.948c-17.284-6.118-31.05-17.437-40.38-33.191-1.53-2.447-2.6-5.047-2.6-5.66 0-1.529 13.918-14.377 15.6-14.377.765 0 1.53.765 2.448 3.059 2.294 4.895 7.189 11.93 11.319 15.907 6.73 6.73 16.672 12.237 26.767 14.837 2.906.765 3.977 1.224 3.824 1.836-.153.458-2.448 4.894-5.354 9.942-5.812 10.248-5.2 9.942-11.624 7.647z" class="cls-3"/><path id="path1602" d="M50.977 352.156c-14.99-14.684-22.331-25.544-26.002-38.086-.765-2.447-1.377-5.354-1.53-6.424l-.153-1.836 9.484-4.436c5.2-2.447 9.942-4.435 10.553-4.435 1.071 0 1.224.306 1.53 2.753 1.07 7.342 4.589 16.519 9.177 23.708 3.06 4.589 13.155 14.99 17.743 18.049 2.142 1.53 3.06 2.447 3.06 3.365 0 1.682-13.767 14.377-15.602 14.377-.918-.152-3.06-1.988-8.26-7.035z" class="cls-3"/><path id="path1604" d="M18.704 297.55C8.15 279.044 3.714 261.147 5.55 245.547c.305-2.753.611-5.2.764-5.2 0 0 4.436-.613 9.79-1.224 5.353-.612 10.4-1.224 11.318-1.377q1.53-.306 1.224 1.683c-.918 4.741-1.224 14.224-.765 19.578 1.224 12.848 5.353 23.096 13.307 32.273l2.447 2.906-2.906 1.224c-1.53.765-5.965 2.753-9.942 4.589-3.977 1.835-7.342 3.365-7.954 3.365-.459 0-1.835-1.989-4.13-5.812z" class="cls-3"/><path id="path1606" d="M41.341 288.373c-4.283-5.353-8.412-13.46-10.095-20.343-1.224-4.435-1.377-6.73-1.53-13.307-.153-8.107.46-15.448 1.224-16.672.306-.459 6.118-1.377 19.884-3.06 10.707-1.223 19.426-2.293 19.426-2.14 0 0-.306 1.376-.765 2.753-.612 1.682-.765 4.741-.765 8.565 0 10.707 3.977 22.026 10.095 28.756l3.06 3.365-2.907 1.223c-1.53.765-9.483 4.283-17.437 8.107s-15.142 6.883-15.754 6.883-1.989-1.223-4.436-4.13z" class="cls-2"/><path id="path1608" d="M30.634 233.921c-.306-.765-1.223-4.588-1.988-8.26-2.447-12.389-2.294-24.32.612-35.18 1.53-5.658 4.435-12.541 5.353-12.541.612 0 34.109 6.577 36.862 7.341q1.224.306-.612 4.283c-3.059 6.73-4.282 12.39-4.13 21.108 0 7.495.46 9.79 3.213 18.966.306 1.071-.306 1.224-17.131 3.212-9.637 1.071-18.355 2.142-19.426 2.295-2.141.153-2.294.153-2.753-1.224z" class="cls-2"/><path id="path1610" d="M53.272 179.47c-9.942-1.99-18.355-3.672-18.508-3.672-.765 0-.459-12.695.459-17.437 1.376-8.26 4.589-16.06 9.789-23.86 4.283-6.73 8.718-11.625 10.401-11.625.918 0 31.815 16.672 33.65 18.201.153.153-.918 1.377-2.294 2.754-7.648 7.953-13.46 22.33-13.613 34.109 0 4.588-.306 5.506-.918 5.506-.459-.153-9.024-1.836-18.966-3.977z" class="cls-2"/><path id="path1612" d="M72.544 129.453c-8.565-4.895-15.907-9.177-16.213-9.33-.612-.612 1.376-8.26 3.518-13.766 3.518-8.872 10.4-17.437 18.66-22.944 4.742-3.212 12.084-6.577 13.92-6.577 1.376 0 25.696 26.156 25.696 27.685 0 .612-1.377 1.683-3.671 2.906-10.554 5.813-18.814 15.449-22.179 26.309-1.376 4.435-1.682 4.741-2.906 4.741-.612-.153-8.26-4.13-16.825-9.024z" class="cls-2"/><path id="path1614" d="M107.57 88.92C100.84 81.73 95.794 75.613 95.64 75c-.306-1.835 4.895-9.176 10.095-14.377 5.048-5.047 10.707-8.871 17.284-11.624 4.436-1.836 13.919-4.436 17.59-4.742l2.141-.153 7.495 16.672c4.13 9.177 7.648 17.131 7.8 17.59.307.765-.305.918-2.752 1.223-11.93 1.53-26.156 10.554-31.968 20.344-.612 1.07-1.377 1.53-2.447 1.53-1.377.152-3.518-1.836-13.307-12.543z" class="cls-2"/><path id="path1616" d="M159.27 76.377c-2.448-4.588-14.072-31.661-14.072-32.732 0-3.06 11.624-10.86 20.954-13.919 6.884-2.294 11.472-2.906 19.885-2.906 7.189 0 13.919.612 14.836 1.53.306.305 4.13 38.697 3.824 38.85-.153.153-2.141-.153-4.588-.612-2.906-.459-6.272-.765-9.942-.459-9.79.46-17.743 3.212-24.473 8.413-3.977 2.906-5.507 3.365-6.424 1.835z" class="cls-2"/><path id="path1618" d="M244.771 65.977c-7.953-3.519-22.178-4.283-30.59-1.53-6.119 1.835-7.19 1.988-7.495.459-.765-3.365-3.518-36.863-3.213-37.321.918-.918 10.095-3.824 14.684-4.59 8.719-1.682 19.731-1.07 27.991 1.683 4.13 1.377 13.154 5.813 13.154 6.424s-7.342 33.957-7.954 35.639c-.305 1.224-2.447 1.07-6.577-.765z" class="cls-2"/><path id="path1620" d="M291.27 81.272c-5.2-5.353-14.378-10.095-22.943-11.93-2.6-.612-5.507-.765-9.33-.46-5.048.307-5.507.154-5.507-.611 0-1.224 7.954-36.862 8.26-37.168.611-.612 15.6-.153 19.578.612 10.554 2.141 19.73 7.341 29.673 16.672l4.13 3.977-9.33 15.754c-10.86 17.896-10.401 17.59-14.531 13.154z" class="cls-2"/><path id="path1622" d="M330.273 112.169c-1.07-2.447-4.13-6.883-7.036-10.095-5.812-6.577-12.542-11.166-20.19-13.919-3.365-1.07-4.435-1.835-4.588-2.6s16.672-30.285 18.354-32.12c.612-.613 8.107 1.529 12.696 3.67C340.062 62 349.087 70.718 358.11 84.637c2.6 3.977 3.06 4.895 2.294 5.506-.458.46-6.577 5.813-13.766 12.084-13.766 12.083-15.142 12.848-16.366 9.942z" class="cls-2"/><path id="path1624" d="M357.04 153.467c-.152-.459-.458-2.295-.917-4.283-1.989-10.554-9.024-22.178-17.743-28.908-2.753-2.142-3.365-2.907-3.212-3.977.153-1.989 25.39-24.32 27.532-24.32 3.212 0 15.142 9.636 20.343 16.366 5.353 7.036 9.636 18.202 10.248 26.92l.306 3.977-17.131 7.189c-9.33 3.977-17.59 7.342-18.202 7.495s-1.224 0-1.224-.46z" class="cls-2"/><path id="path1626" d="M369.889 198.13c2.447-13.307-.612-27.838-7.954-37.321-3.67-4.742-4.13-4.283 14.99-12.39 9.177-3.976 16.978-7.189 17.284-7.189.764 0 7.188 8.566 9.942 13.155 6.424 11.012 9.024 24.625 7.036 37.78-.46 3.517-.765 4.13-1.683 4.282-1.224.306-37.78 3.518-39.156 3.518-.612.153-.765-.306-.46-1.835z" class="cls-2"/><path id="path1628" d="m386.255 251.358-18.355-4.436.306-1.376c.153-.765.918-2.906 1.683-4.895s1.988-5.812 2.6-8.718c1.377-6.577 1.07-16.978-.612-23.555-1.376-5.507-1.376-6.119.153-6.577 3.212-.612 38.086-3.365 38.392-3.06.918.918 3.518 11.166 4.13 16.52 1.53 11.93-.918 25.696-6.271 36.709q-1.836 3.67-2.754 3.67c-.611.154-9.33-1.988-19.272-4.282z" class="cls-2"/><path id="path1630" d="M367.9 301.222c-18.048-10.707-17.284-9.943-12.542-15.296 6.73-7.342 11.625-20.802 11.625-31.509v-5.66l1.53.307c.764.153 9.635 2.294 19.577 4.741 9.943 2.448 18.202 4.436 18.355 4.59.153.152.306 4.588.153 9.788 0 8.719-.153 9.942-1.53 14.378-2.753 9.024-7.035 16.213-14.071 23.402-3.519 3.671-4.742 4.589-5.966 4.589-1.223-.153-6.27-2.906-17.13-9.33z" class="cls-2"/><path id="path1632" d="M334.71 343.284c-13.92-15.907-14.226-16.366-10.402-18.354 8.26-4.283 17.59-13.766 22.026-22.638.917-1.988 1.988-4.435 2.447-5.66 1.07-3.823 1.683-3.67 19.425 7.037l15.908 9.636-.306 1.988c-.612 3.365-3.365 11.166-5.048 14.684-5.353 10.401-14.072 19.425-24.779 25.238-2.294 1.223-4.741 2.141-5.506 2.141-1.224.153-3.518-2.141-13.766-14.072z" class="cls-2"/><path id="path1634" d="M298 389.936c-1.224-2.142-14.99-34.415-14.99-35.486s.306-1.377 1.989-1.683c4.13-.764 10.86-3.212 14.99-5.353 5.2-2.6 11.47-8.412 15.142-13.919 1.835-2.6 2.906-3.67 3.67-3.67.766 0 4.59 3.976 13.767 14.377 6.883 7.954 12.695 14.837 12.848 15.448.459 1.53-3.824 8.107-7.8 12.543-7.648 8.106-17.896 13.46-32.886 16.978-5.965 1.376-6.271 1.376-6.73.764z" class="cls-2"/><path id="path1636" d="m242.477 406.76-2.447-.305-1.989-20.037c-1.07-11.013-1.988-20.038-1.835-20.19s1.53.152 3.365.458c11.013 1.989 25.696-1.53 35.944-8.718 1.836-1.377 3.518-2.142 4.283-1.989 1.07.153 2.294 2.907 8.871 17.743 5.966 13.613 7.495 17.743 7.036 18.355-1.07 1.682-7.953 6.577-12.848 8.871-4.589 2.294-9.024 3.824-15.142 5.2-3.06.613-21.567 1.071-25.238.613z" class="cls-2"/><path id="path1638" d="M206.074 410.89c-5.66-.764-14.53-3.059-20.037-5.2-2.754-1.07-4.895-1.988-5.048-1.988-.153-.153 1.683-8.872 3.977-19.426s4.13-19.425 4.13-19.578c0-.612 1.988-.153 6.424 1.53 7.189 2.906 12.542 3.67 20.802 3.365 5.506-.153 8.106-.612 11.777-1.683 2.6-.765 5.048-1.376 5.354-1.376.459 0 1.223 4.894 2.447 18.507 1.07 10.248 1.836 19.272 1.836 20.037 0 1.377-.153 1.683-2.907 2.6-8.106 3.06-20.649 4.436-28.755 3.213v0z" class="cls-2"/><path id="path1640" d="M166.611 403.702c-7.647-1.071-12.389-2.448-19.272-5.966-8.565-4.282-21.567-14.072-21.567-16.213 0-.612 3.977-8.26 9.025-16.978 10.248-18.049 9.636-17.437 14.683-13.307 1.683 1.377 4.436 3.212 6.272 4.283 6.882 3.823 20.19 7.341 28.296 7.341h3.365l-.306 1.53c-.153.765-2.141 9.79-4.282 20.037s-4.13 18.66-4.13 18.814c-.306.153-10.248.611-12.084.458z" class="cls-2"/><path id="path1644" d="M117.819 379.535c-11.013-2.907-19.426-7.801-26.614-15.296-5.507-5.812-11.472-15.601-11.472-18.813 0-1.071 3.212-4.283 14.072-14.378 15.142-14.072 15.907-14.53 17.13-11.319 1.072 2.906 4.895 8.413 8.566 12.084 4.436 4.435 11.93 9.33 18.508 11.93 2.753 1.07 5.047 2.142 4.895 2.294s-4.59 8.107-9.943 17.437c-6.118 10.707-10.095 17.131-10.554 17.131-.305 0-2.447-.459-4.588-1.07z" class="cls-2"/><path id="path1646" d="M72.391 339.307c-14.53-11.165-22.79-23.86-25.238-39.31-.458-2.446-.611-4.588-.305-4.894.611-.765 34.109-16.06 35.026-16.06.46 0 .918.306 1.07.612 3.825 14.072 11.32 25.237 21.874 32.273 1.682 1.071 2.906 2.295 2.906 2.906 0 1.53-27.838 27.226-29.674 27.38-1.376 0-2.906-.765-5.659-2.907z" class="cls-2"/><path id="path1648" d="M174.718 283.632c-5.506-1.836-10.095-4.895-12.695-8.872-3.06-4.588-3.977-3.518 17.895-23.708 15.449-14.224 19.885-18.201 20.955-18.048.765 0 2.142.612 3.212 1.53l1.836 1.529-13.766 24.014c-7.495 13.154-14.072 24.167-14.53 24.167-.46.153-1.836-.153-2.907-.612z" class="cls-2"/><path id="path1650" d="M152.998 263.748c-4.13-4.13-5.965-7.954-6.577-12.849l-.306-2.447 24.32-11.166c13.307-6.118 24.626-11.165 25.085-11.165.918 0 3.365 3.518 3.06 4.588-.154.306-9.025 8.872-19.732 18.814-13.46 12.542-20.037 18.202-20.802 18.202s-2.6-1.377-5.047-3.977z" class="cls-2"/><path id="path1652" d="M143.21 243.405c-3.06-4.436-4.13-7.801-4.13-13.46 0-2.754.152-5.201.305-5.201.153-.153 11.778-1.53 25.85-3.212s26.155-3.06 26.767-3.212c.918-.153 1.224.153 1.988 2.6.46 1.53.765 2.907.765 3.06-.765.764-47.875 22.33-48.793 22.33-.611-.305-1.682-1.223-2.753-2.905z" class="cls-2"/><path id="path1654" d="M137.856 220.308c-1.377-3.212-1.377-11.318.306-15.907 2.141-6.118-.918-6.118 27.379-.459 13.613 2.753 25.39 5.048 26.002 5.2 1.07.306 1.224.612 1.224 3.672v3.518l-2.906.305c-1.53.153-11.93 1.377-23.097 2.754-11.165 1.376-22.025 2.6-24.167 2.753l-3.976.306z" class="cls-2"/><path id="path1656" d="M166 201.954c-13.613-2.754-24.932-5.048-25.085-5.048-.459-.153 0-5.353.612-8.871 1.07-5.966 4.894-12.849 7.036-12.849.764 0 40.38 22.026 45.58 25.238l1.224.765-1.07 3.059c-.918 2.447-1.377 3.059-2.295 2.906-.612-.153-12.237-2.447-26.003-5.2z" class="cls-2"/><path id="path1658" d="M172.424 185.893c-19.579-11.012-22.332-12.695-22.332-13.766 0-2.294 3.671-9.33 6.577-12.083 2.753-2.753 6.424-4.742 8.26-4.742.918 0 16.213 16.366 33.038 35.027l2.753 3.212-1.988 2.447c-1.224 1.53-2.447 2.447-3.06 2.447-.458 0-11.012-5.659-23.248-12.542z" class="cls-2"/><path id="path1660" d="M186.037 174.422c-19.579-21.261-18.814-20.496-18.355-22.179.153-.765 1.836-2.906 3.671-4.741 3.67-3.671 7.036-5.354 12.083-5.966l2.6-.306 10.708 23.861a6619 6619 0 0 1 10.553 24.014c-1.376.918-4.282 2.448-4.894 2.448-.306-.153-7.8-7.801-16.366-17.131z" class="cls-2"/><path id="path1662" d="M198.885 164.48c-5.66-12.696-10.401-23.708-10.401-24.32 0-1.377 3.365-3.824 6.883-5.2 2.906-1.224 8.413-1.836 12.542-1.53l3.365.306.306 2.294c.306 1.682 3.824 38.239 4.742 48.64.153 1.53 0 1.682-2.906 2.294-1.683.306-3.212.765-3.518.765-.46-.153-5.354-10.554-11.013-23.25z" class="cls-2"/><path id="path1664" d="M220.452 186.2q-2.295-.231-2.295-.918c0-.46-1.07-12.084-2.447-25.85s-2.294-25.39-2.141-25.696c.458-1.071 8.26-2.6 11.624-2.142 2.753.306 9.79 2.447 10.707 3.212.306.306-9.789 46.499-11.013 50.781-.153.46-.612.918-1.223.918-.46-.153-1.836-.153-3.212-.306z" class="cls-2"/><path id="path1666" d="M229.476 188.035c-1.377-.612-2.6-1.377-2.6-1.683 0-1.223 11.165-50.628 11.624-51.087.765-.765 8.26-.153 11.625.918 3.67 1.223 8.565 4.588 9.789 6.73.765 1.376.306 2.294-12.39 23.708-9.789 16.672-13.46 22.331-14.224 22.484-.765 0-2.448-.459-3.824-1.07z" class="cls-2"/><path id="path1668" d="M237.583 193.082c-.765-.765-1.53-1.988-1.53-2.447 0-.612 5.812-11.013 13.001-23.096 14.53-24.626 13.154-22.944 18.508-20.955 4.13 1.53 8.26 5.506 10.707 10.248l1.988 3.824-19.272 17.13c-14.684 12.849-19.731 17.132-20.802 17.132-.612-.306-1.836-.918-2.6-1.836z" class="cls-2"/><path id="path1670" d="M243.089 200.118c-.306-.918-.612-1.988-.459-2.6.306-1.683 37.933-34.721 39.616-34.721 1.988 0 7.036 4.895 8.718 8.26 1.377 2.753 3.365 9.942 2.906 10.248-.765.764-48.028 20.343-48.945 20.343-.765 0-1.377-.46-1.836-1.53z" class="cls-2"/><path id="path1672" d="M246.148 210.213c-.153-.612-.459-2.294-.612-3.67l-.306-2.448L269.244 194c13.155-5.506 24.473-10.095 25.238-10.095 1.53 0 4.589 4.13 6.118 8.107 1.224 3.059 1.683 8.871.918 12.542l-.459 1.988-25.85 2.295c-14.224 1.223-26.46 2.447-27.225 2.6-1.224 0-1.53-.153-1.836-1.224z" class="cls-2"/><path id="path1674" d="M271.998 223.98c-14.225-3.366-26.003-6.272-26.156-6.425-.153 0 0-1.07.153-2.294l.306-2.142 26.003-2.294c14.377-1.224 26.614-2.447 27.531-2.6 1.377-.306 1.53 0 2.6 3.059 1.836 5.353 1.377 12.236-1.223 17.13-.612 1.224-1.223 1.683-2.141 1.683-.612.153-12.849-2.6-27.073-6.118z" class="cls-2"/><path id="path1676" d="M266.95 240.804c-25.544-15.295-24.32-14.225-22.484-18.507.611-1.377 1.223-2.142 1.835-2.142s12.695 2.754 27.073 6.271c14.225 3.365 26.155 6.272 26.308 6.272.46 0 .306 6.27-.306 9.483-.305 1.682-1.223 4.435-1.988 5.965-1.53 3.06-4.895 6.73-6.118 6.73-.459-.153-11.319-6.424-24.32-14.072z" class="cls-2"/><path id="path1678" d="M256.396 254.111c-13.46-15.448-17.59-20.496-17.59-21.566 0-1.53 1.989-3.824 3.518-3.824.459 0 11.472 6.424 24.473 14.072 26.614 15.907 24.32 13.919 21.414 19.884-2.448 4.894-9.79 11.319-13.001 11.319-.918.152-6.578-5.966-18.814-19.885z" class="cls-2"/><path id="path1680" d="M251.807 283.785c-14.836-33.804-19.578-45.275-19.578-46.193 0-1.376 2.142-3.059 3.671-2.753.612.153 9.177 9.483 19.272 20.955l18.202 20.802-1.53 2.294c-3.364 4.895-9.789 9.024-15.295 9.79l-2.447.305z" class="cls-2"/><path id="path1682" d="M229.323 295.868c-.306-.459-5.812-53.228-5.812-55.676 0-.764.612-1.223 3.059-1.682 1.682-.306 3.059-.612 3.212-.459 0 .153 5.047 11.625 11.166 25.544 6.118 13.918 11.012 25.543 11.165 25.85.306.611-5.2 4.129-8.565 5.352-3.212 1.224-13.613 2.142-14.225 1.071z" class="cls-2"/><path id="path1684" d="M210.968 297.55c-5.2-1.376-6.73-2.14-6.73-2.906 0-.306 2.6-12.848 5.813-27.838l5.812-27.226h5.506l.306 2.6c.612 5.201 5.2 51.394 5.2 52.923 0 1.377-.305 1.683-1.988 2.294-3.824 1.224-9.789 1.224-13.919.153z" class="cls-2"/><path id="path1686" d="M192.92 293.88c-5.2-1.224-12.543-6.118-12.696-8.107 0-.918 25.697-46.804 27.074-48.028.305-.306 1.682-.153 3.365.306 2.294.612 2.906 1.07 2.753 1.836-.153.917-9.79 47.11-11.013 52.31l-.612 2.6h-3.059c-1.53-.153-4.283-.458-5.812-.917z" class="cls-2"/><ellipse id="path297" cx="220.2986" cy="212.6604" rx="26.1553" ry="26.002399" style="fill:#bababa;isolation:isolate;opacity:.997;stroke:#303030;stroke-linecap:round;stroke-miterlimit:15.1181;stroke-width:5px"/></g></g></svg>