<svg xmlns="http://www.w3.org/2000/svg" xml:space="preserve" width="69" height="113.6181" viewBox="0 0 18.256249 30.061456"><path fill="#6d4a2c" stroke="#1b1917" stroke-linejoin="round" stroke-miterlimit="16" stroke-width="1.54323" d="m14.325 185.71-.872-7.398 5.318-7.722-1.179 10.83 2.952 12.22-2.447 5.469z" style="fill:#a46028;fill-opacity:1;stroke:#251609;stroke-opacity:1" transform="translate(-7.376 -169.819)"/><path fill="#5f926a" d="M25.632 186.204c-1.337-1.95-5.642-4.776-6.593-1.766-.681 3.082 4.46 2.788 6.593 1.767z" style="fill:#588a42;fill-opacity:.898039;stroke-width:.301696" transform="translate(-7.376 -169.819)"/><path fill="#587e60" d="m23.478 176.749-.002.002c-2.906 1.018-7.913 5.471-4.437 7.687 3.657 1.902 5.01-4.66 4.439-7.686l.001-.002h-.001z" style="fill:#609648;fill-opacity:.898039;stroke-width:.301696" transform="translate(-7.376 -169.819)"/><path fill="#5f926a" d="M11.709 181.67c1.919-1.316 4.7-5.553 1.738-6.489-3.033-.67-2.743 4.39-1.74 6.488v.001z" style="fill:#588a42;fill-opacity:.898039;stroke-width:.296918" transform="translate(-7.376 -169.819)"/><path fill="#587e60" d="m7.376 171.505.002.001c1.002 2.86 5.385 7.788 7.566 4.368 1.872-3.6-4.587-4.93-7.565-4.369l-.002-.001z" style="fill:#609648;fill-opacity:.898039;stroke-width:.296918" transform="translate(-7.376 -169.819)"/><path fill="#77a37a" d="M17.621 179.15c-.873 1.725-1.166 5.864 1.418 5.288 2.527-.793.202-4.23-1.416-5.288z" style="fill:#588a42;fill-opacity:.898039;stroke-width:.301696" transform="translate(-7.376 -169.819)"/></svg>