<svg xmlns="http://www.w3.org/2000/svg" width="79.841972" height="73.183136" viewBox="0 0 21.124855 19.363038"><path d="M25004.781 10325.296c-3.175 3.175-31.808 10.847-36.146 9.685-4.337-1.162-25.298-22.123-26.461-26.461-1.162-4.337 6.51-32.97 9.686-36.146 3.175-3.175 31.808-10.847 36.146-9.685 4.337 1.162 25.298 22.123 26.46 26.461s-6.51 32.97-9.685 36.146" style="fill:#8a4c70;fill-opacity:1;fill-rule:evenodd;stroke:none;stroke-width:5;stroke-linecap:square;stroke-linejoin:round;stroke-dasharray:none;stroke-opacity:1" transform="rotate(-44.974 30.834 9337.609)scale(.26458)"/><g style="fill:#693a55;fill-opacity:1" transform="translate(-13943.592 -5782.957)scale(2.11648)"><circle cx="4477.502" cy="5564.1299" r="1.1338707" style="opacity:1;fill:#693a55;fill-opacity:1;fill-rule:evenodd;stroke:none;stroke-width:1.32292;stroke-linecap:square;stroke-linejoin:round;stroke-dasharray:none;stroke-opacity:1" transform="rotate(-28.628)"/><circle cx="1100.2819" cy="7050.5088" r="1.1338707" style="fill:#693a55;fill-opacity:1;fill-rule:evenodd;stroke:none;stroke-width:1.32292;stroke-linecap:square;stroke-linejoin:round;stroke-dasharray:none;stroke-opacity:1" transform="rotate(-58.57)"/><circle cx="4348.9492" cy="5659.7568" r="1.1338707" style="fill:#693a55;fill-opacity:1;fill-rule:evenodd;stroke:none;stroke-width:1.32292;stroke-linecap:square;stroke-linejoin:round;stroke-dasharray:none;stroke-opacity:1" transform="rotate(-29.943)"/><circle cx="4350.2617" cy="5663.3735" r="1.1338707" style="fill:#693a55;fill-opacity:1;fill-rule:evenodd;stroke:none;stroke-width:1.32292;stroke-linecap:square;stroke-linejoin:round;stroke-dasharray:none;stroke-opacity:1" transform="rotate(-29.943)"/><circle cx="4344.855" cy="5664.9766" r="1.1338707" style="fill:#693a55;fill-opacity:1;fill-rule:evenodd;stroke:none;stroke-width:1.32292;stroke-linecap:square;stroke-linejoin:round;stroke-dasharray:none;stroke-opacity:1" transform="rotate(-29.943)"/><circle cx="4347.0347" cy="5661.4487" r="0.73701596" style="fill:#693a55;fill-opacity:1;fill-rule:evenodd;stroke:none;stroke-width:1.32292;stroke-linecap:square;stroke-linejoin:round;stroke-dasharray:none;stroke-opacity:1" transform="rotate(-29.943)"/><circle cx="4349.5347" cy="5662.0547" r="0.73701596" style="fill:#693a55;fill-opacity:1;fill-rule:evenodd;stroke:none;stroke-width:1.32292;stroke-linecap:square;stroke-linejoin:round;stroke-dasharray:none;stroke-opacity:1" transform="rotate(-29.943)"/><circle cx="4347.3965" cy="5660.4351" r="0.73701596" style="fill:#693a55;fill-opacity:1;fill-rule:evenodd;stroke:none;stroke-width:1.32292;stroke-linecap:square;stroke-linejoin:round;stroke-dasharray:none;stroke-opacity:1" transform="rotate(-29.943)"/><circle cx="4475.0503" cy="5563.5005" r="0.53858858" style="fill:#693a55;fill-opacity:1;fill-rule:evenodd;stroke:none;stroke-width:1.32292;stroke-linecap:square;stroke-linejoin:round;stroke-dasharray:none;stroke-opacity:1" transform="rotate(-28.628)"/><circle cx="4472.2295" cy="5561.6821" r="0.53858858" style="fill:#693a55;fill-opacity:1;fill-rule:evenodd;stroke:none;stroke-width:1.32292;stroke-linecap:square;stroke-linejoin:round;stroke-dasharray:none;stroke-opacity:1" transform="rotate(-28.628)"/><circle cx="6590.3032" cy="2734.5779" r="0.53858858" style="fill:#693a55;fill-opacity:1;fill-rule:evenodd;stroke:none;stroke-width:1.32292;stroke-linecap:square;stroke-linejoin:round;stroke-dasharray:none;stroke-opacity:1"/></g><g style="stroke:#311b28;stroke-opacity:1"><path d="M6617.89 2737.183c-.46-3.324.753-5.744 0-9.369m.132 7.916c.46 3.324-.752 5.744 0 9.369" style="fill:#8b558b;fill-opacity:1;fill-rule:evenodd;stroke:#311b28;stroke-width:1.32292;stroke-linecap:square;stroke-linejoin:round;stroke-dasharray:none;stroke-opacity:1" transform="translate(-6607.394 -2726.775)"/></g><g style="stroke:#311b28;stroke-opacity:1"><path d="M6617.89 2737.183c-.46-3.324.753-5.744 0-9.369m.132 7.916c.46 3.324-.752 5.744 0 9.369" style="fill:#8b558b;fill-opacity:1;fill-rule:evenodd;stroke:#311b28;stroke-width:1.32292;stroke-linecap:square;stroke-linejoin:round;stroke-dasharray:none;stroke-opacity:1" transform="rotate(60 5675.716 -4349.102)"/></g><g style="stroke:#311b28;stroke-opacity:1"><path d="M6617.89 2737.183c-.46-3.324.753-5.744 0-9.369m.132 7.916c.46 3.324-.752 5.744 0 9.369" style="fill:#8b558b;fill-opacity:1;fill-rule:evenodd;stroke:#311b28;stroke-width:1.32292;stroke-linecap:square;stroke-linejoin:round;stroke-dasharray:none;stroke-opacity:1" transform="rotate(120 4101.411 -534.321)"/></g><g style="stroke-width:1.36676;stroke-dasharray:none" transform="matrix(.73244 0 0 .73087 -66.019 -99.812)"><circle cx="104.55489" cy="149.81142" r="3.7081883" style="display:inline;fill:#85954c;fill-opacity:1;stroke:#2d331a;stroke-width:1.64011;stroke-linejoin:round;stroke-dasharray:none;stroke-opacity:1"/><path d="M105.01 151.99c-1.27-1.41-3.407-1.28-4.026-1.268-1.724.035-1.68-1.732-.062-1.767.638-.013 2.828.18 4.083-1.252" style="fill:#85954c;fill-opacity:1;stroke:#2d331a;stroke-width:1.64011;stroke-linecap:round;stroke-linejoin:round;stroke-dasharray:none;stroke-opacity:1"/></g><path d="M25004.781 10325.296c-3.175 3.175-31.808 10.847-36.146 9.685-4.337-1.162-25.298-22.123-26.461-26.461-1.162-4.337 6.51-32.97 9.686-36.146 3.175-3.175 31.808-10.847 36.146-9.685 4.337 1.162 25.298 22.123 26.46 26.461s-6.51 32.97-9.685 36.146z" style="fill:none;fill-opacity:1;fill-rule:evenodd;stroke:#311b28;stroke-width:5;stroke-linecap:square;stroke-linejoin:round;stroke-dasharray:none;stroke-opacity:1" transform="rotate(-44.974 30.035 9337.278)scale(.26458)"/></svg>