<svg xmlns="http://www.w3.org/2000/svg" width="511.98666" height="531.60101" viewBox="0 0 511.98666 531.60102"><defs><clipPath id="a" clipPathUnits="userSpaceOnUse"><path d="M1118.505 352.761h206.739v206.74h-206.739Z"/></clipPath><clipPath id="b" clipPathUnits="userSpaceOnUse"><path d="M-155.054 77.527H0V-77.527h-155.054Z"/></clipPath><clipPath id="c" clipPathUnits="userSpaceOnUse"><path d="M977.19 458.523h300.92V759.44H977.19z"/></clipPath><clipPath id="d" clipPathUnits="userSpaceOnUse"><path d="M-225.69 112.845H0v-225.69h-225.69z"/></clipPath><clipPath id="e" clipPathUnits="userSpaceOnUse"><path d="M996.332 190.477h249.705v249.706H996.332Z"/></clipPath><clipPath id="f" clipPathUnits="userSpaceOnUse"><path d="M-187.279 93.64H0V-93.64h-187.279Z"/></clipPath><clipPath id="g" clipPathUnits="userSpaceOnUse"><path d="M977.19 458.523h300.92V759.44H977.19z"/></clipPath><clipPath id="h" clipPathUnits="userSpaceOnUse"><path d="M-225.69 112.845H0v-225.69h-225.69z"/></clipPath><clipPath id="i" clipPathUnits="userSpaceOnUse"><path d="M802.803 445.119h228.762V673.88H802.803Z"/></clipPath><clipPath id="j" clipPathUnits="userSpaceOnUse"><path d="M-171.572 85.786H0V-85.786h-171.572Z"/></clipPath></defs><path d="M0 0h-38.899zh38.899Z" style="fill:#5fbc6d;fill-opacity:1;fill-rule:nonzero;stroke:none" transform="matrix(1.33333 0 0 -1.33333 152.355 606.387)"/><path d="m2208.234 661.365 15.128 5.867 7.262-7.358 17.027 5.789-15.124-11.42-10.028 5.388-13.083-4.142-4.871-17.872 23.858-13.786-29.624 8.286-.99 23.421-7.467 20.616-22.151 5.618 8.092 4.793 16.533-1.874 7.017-14.239z" style="color:#000;fill:#999;stroke-linejoin:round;-inkscape-stroke:none" transform="translate(-8100.246 -2213.926)scale(3.77953)"/><g opacity="0.949493" style="fill:#efb416;fill-opacity:.862745"><g clip-path="url(#a)" opacity="0.8461" style="fill:#efb416;fill-opacity:.862745" transform="translate(-1091.418 -96.873)scale(1.12328)"><path d="M0 0c0-42.817-34.71-77.527-77.527-77.527S-155.054-42.817-155.054 0s34.71 77.527 77.527 77.527S0 42.817 0 0" clip-path="url(#b)" style="fill:#efb416;fill-opacity:.862745;fill-rule:nonzero;stroke:none" transform="matrix(1.33333 0 0 -1.33333 1325.244 456.13)"/></g></g><g opacity="0.949493" style="opacity:.949904;fill:#efb416;fill-opacity:.862745"><g clip-path="url(#c)" opacity="0.8461" style="fill:#efb416;fill-opacity:.862745" transform="translate(-817.735 -456.218)scale(.99497)"><path d="M0 0c0-62.322-50.522-112.845-112.845-112.845S-225.689-62.322-225.689 0s50.522 112.845 112.844 112.845C-50.522 112.845 0 62.322 0 0" clip-path="url(#d)" style="fill:#efb416;fill-opacity:.862745;fill-rule:nonzero;stroke:none" transform="matrix(1.33333 0 0 -1.33333 1278.11 608.982)"/></g></g><path d="m2201.03 640.923.777.144c1.222.227 2.368-1.04 2.408-2.768v-.06c.016-1.124-.713-2.912-1.348-4.25-.512-1.079-1.463-1.566-2.352-1.216-.789.311-1.38 1.227-1.525 2.359l-.148 1.163a4.1 4.1 0 0 0 .157 1.767l.365 1.128c.305.942.934 1.597 1.665 1.733" style="fill:#4d4d4d;fill-opacity:1;fill-rule:nonzero;stroke:none;stroke-width:.334501" transform="translate(-8100.246 -2213.926)scale(3.77953)"/><path d="m2190.836 676.732 1.992 1.854c.684.637 2.292.013 2.897-1.124.57-1.311 2.323-3.638 3.332-4.927.444-.567.545-1.182.257-1.569l-1.272-1.712c-.22-.295-.638-.417-1.136-.33l-.399.068a2.6 2.6 0 0 0-1.095.47c-.225.167-.662.429-1.465.837l-1.36.692c-.641.326-1.155.899-1.318 1.468l-.607 2.127a1.3 1.3 0 0 0-.052.328l-.03 1.162a.83.83 0 0 0 .256.656" style="fill:#4d4d4d;fill-opacity:1;fill-rule:nonzero;stroke:none;stroke-width:.396268" transform="translate(-8100.246 -2213.926)scale(3.77953)"/><path d="m2180.895 685.039 1.25.836c.215.143.439.211.624.189l2.06-.25a.43.43 0 0 0 .268-.128l.984-1.043c.204-.216.153-.642-.123-1.03l-3.64-3.501c-.33-.465-2.12-2.27-2.446-2.114-1.08.515-.894 2.76-1.198 3.103a.4.4 0 0 0-.083.146l-.082.237c-.087.251.012.611.255.927l1.747 2.267c.11.141.242.266.384.36" style="fill:#4d4d4d;fill-opacity:1;fill-rule:nonzero;stroke:none;stroke-width:.341875" transform="translate(-8100.246 -2213.926)scale(3.77953)"/><path d="m2228.082 622.684-29.623 8.287a1.19 1.19 0 0 0-.87 1.096l-.982 23.238-7.19 19.85-21.539 5.462a1.19 1.19 0 0 0-.314 2.18l8.092 4.793a1.2 1.2 0 0 0 .74.158l16.533-1.873a1.19 1.19 0 0 0 .936-.658l6.94-14.082 7.753-8.367 14.373 5.574a1.19 1.19 0 0 0 1.278-.273l6.738-6.827 16.32 5.547a1.19 1.19 0 0 0 1.102-2.076l-15.125-11.42a1.19 1.19 0 0 0-1.28-.1l-9.586 5.151-11.984-3.795-4.459-16.36 23.063-13.327a1.19 1.19 0 0 0-.916-2.178m-8.434 4.832-15.7 9.07a1.19 1.19 0 0 0-.552 1.344l4.871 17.871a1.19 1.19 0 0 0 .79.822l13.083 4.143a1.2 1.2 0 0 0 .922-.086l9.357-5.027 8.608 6.5-10.02-3.407a1.19 1.19 0 0 0-1.23.291l-6.713 6.803-14.398-5.586a1.19 1.19 0 0 0-1.305.301l-8.422 9.088a1.2 1.2 0 0 0-.193.283l-6.73 13.656-15.491 1.756-5.268-3.12 19.358-4.911a1.19 1.19 0 0 0 .826-.748l7.467-20.615a1.2 1.2 0 0 0 .07-.356l.953-22.558z" style="color:#000;fill:#262626;stroke-linejoin:round;-inkscape-stroke:none" transform="translate(-8100.246 -2213.926)scale(3.77953)"/><path d="m2153.012 643.58 11.668-10.312 9.498-.543 14.111 5.427 12.483 11.669 26.912-8.78 16.405 3.782 18.463 9.682-17.817-2.916-16.182-3.239-23.71 8.255 7.869 12.754 18.995 1.628 1.357 14.925-10.855 12.211 4.07-12.482-2.984-8.141-13.297 1.357-13.297-17.096-15.196-16.282-12.211-4.885z" style="color:#000;fill:#a6a6a6;stroke-linecap:square;stroke-linejoin:round;-inkscape-stroke:none" transform="translate(-8100.246 -2213.926)scale(3.77953)"/><path d="m2174.417 636.39 1.475.847q.088.05.185.085l.238.083c.813.284 1.409.985 1.589 1.868l.018.087c.034.165.035.338 0 .509l-.419 2.229c-.113.6-.61 1.065-1.19 1.108l-.27.02a1.1 1.1 0 0 1-.6-.12l-3.702-1.912c-.602-.311-.801-1.104-.437-1.745l1.555-1.053c.353-.623.984-2.334 1.555-2.006m24.876 16.607.127-1.35c0-.021 0-.042.01-.063l.335-1.892a.8.8 0 0 0-.146-.614l-.787-1.108c-.236-.333-.696-.525-1.176-.491l-5.088.358a1.5 1.5 0 0 0-.494.121l-.786.352c-.44.197-.683.589-.611.986l.214 1.19q.033.18.146.34l.846 1.191c.218.308.63.498 1.075.496l.655-.003 1.617.05c.274.008.536.089.745.23l1.305.877c.641.432 1.628.233 1.933-.389a.8.8 0 0 0 .08-.28m16.16-.318.989-.693c.247-.174.54-.28.848-.306l1.613-.138c.307-.026.6-.132.849-.305l.983-.69a1.56 1.56 0 0 0 .676-1.208l.164-3.965c.043-1.047-.985-1.845-2.065-1.602l-.843.19c-.311.07-.596.223-.818.442l-2.166 2.121a1.6 1.6 0 0 0-.225.276l-2.438 3.786a1.5 1.5 0 0 0-.242.902c.067 1.262 1.6 1.944 2.675 1.19" style="fill:#4d4d4d;fill-opacity:1;fill-rule:nonzero;stroke:none;stroke-width:.396268" transform="translate(-8100.246 -2213.926)scale(3.77953)"/><path d="m2234.59 647.094.349.174q.158.078.327.103l.33.048c.63.092 1.236-.404 1.362-1.16.045-.274.123-.462.251-.397.374.187.435-1.124.435-1.124l-1.089-1.776a1.3 1.3 0 0 0-.608-.533l-.288-.117a1 1 0 0 0-.29-.071l-1.785-.18a1.07 1.07 0 0 0-.693.175l-.069.044c-.67.437-.866 1.494-.412 2.235q.048.076.103.147l1.655 2.083q.182.227.422.349" style="fill:#f2c60e;fill-opacity:.964706;fill-rule:nonzero;stroke:none;stroke-width:.396268" transform="translate(-8100.246 -2213.926)scale(3.77953)"/><path d="M2204.94 659.72c7.96 4.316-8.193 14.14-4.848 3.427 1.249-1.868 3.066-2.818 4.848-3.427" style="fill:#4d4d4d;fill-opacity:1;stroke:none;stroke-width:.297201px;stroke-linecap:round;stroke-linejoin:round;stroke-opacity:1" transform="translate(-8100.246 -2213.926)scale(3.77953)"/><path d="M2209.928 679.192a2.5 2.5 0 0 0 1.663-.045l2.482-1.008c.313-.127.552-.319.682-.545l1.993-3.493a.77.77 0 0 0 0-.783l-.396-.713c-.212-.381-.716-.665-1.32-.744l-2.995-.39c-.474-.062-.959.035-1.29.259-.265.178-.407.417-.397.668.021.505.067 1.442.15 2.47.07.868-.683 1.96-1.349 2.745-.479.564-.125 1.287.776 1.58" style="fill:#4d4d4d;fill-opacity:1;fill-rule:nonzero;stroke:none;stroke-width:.396266" transform="translate(-8100.246 -2213.926)scale(3.77953)"/><path d="M1161.766 528.472c.805-2.41 2.753-4.367 5.084-5.378 2.331-1.01 5.008-1.11 7.47-.483s4.715 1.953 6.613 3.643 3.455 3.734 4.776 5.905c2.345 3.853 3.998 8.29 3.717 12.792-.14 2.25-.774 4.484-1.95 6.408s-2.907 3.527-4.97 4.436c-1.64.722-3.474.998-5.254.79a193 193 0 0 1-11.374-14.505c-1.426-2.01-2.827-4.07-3.702-6.373s-1.191-4.898-.41-7.235" style="fill:#4d4d4d;fill-opacity:1;stroke:none;stroke-width:1px;stroke-linecap:butt;stroke-linejoin:miter;stroke-opacity:1" transform="translate(-1005.395 -254.466)scale(1.12328)"/><path d="m2174.11 631.535-9.497.543a1.2 1.2 0 0 0-.72.297l-11.669 10.313a1.19 1.19 0 0 0 1.002 2.062l15.944-2.924 11.646 4.659 14.979 16.048 13.263 17.055a1.19 1.19 0 0 0 1.06.453l12.378-1.263 2.525 6.886-3.943 12.09a1.19 1.19 0 0 0 2.021 1.16l10.856-12.21a1.2 1.2 0 0 0 .295-.9l-1.358-14.925a1.19 1.19 0 0 0-1.084-1.078l-18.398-1.576-6.776-10.985 22.004-7.658 15.864 3.174.04.008 17.817 2.916a1.19 1.19 0 0 0 .746-2.228l-18.463-9.684a1.2 1.2 0 0 0-.285-.105l-16.406-3.782a1.2 1.2 0 0 0-.637.028l-26.242 8.562-11.971-11.19a1.2 1.2 0 0 0-.385-.24l-14.111-5.427a1.2 1.2 0 0 0-.494-.078zm-.12 2.393 13.656 5.252 12.313 11.51a1.19 1.19 0 0 0 1.181.263l26.598-8.677 15.934 3.672 11.814 6.195-10.54-1.725-16.16-3.234a1.2 1.2 0 0 0-.624.043l-23.711 8.254a1.19 1.19 0 0 0-.621 1.75l7.869 12.754a1.19 1.19 0 0 0 .912.56l18 1.543 1.22 13.418-6.72 7.563 2.3-7.059a1.2 1.2 0 0 0-.013-.78l-2.987-8.14a1.19 1.19 0 0 0-1.238-.775l-12.64 1.29-12.893-16.575a1 1 0 0 0-.068-.082l-15.197-16.282a1.2 1.2 0 0 0-.428-.293l-12.211-4.884a1.2 1.2 0 0 0-.656-.065l-12.073 2.213 8.153-7.205z" style="color:#000;fill:#262626;stroke-linecap:square;stroke-linejoin:round;-inkscape-stroke:none" transform="translate(-8100.246 -2213.926)scale(3.77953)"/><path d="m2245.951 651.485 2.726.92c.736.247 1.526-.053 2-.76l.284-.426c.66-.986.495-2.418-.363-3.162l-1.585-1.375c-.5-.434-1.15-.55-1.737-.31l-1.406.577c-.608.249-1.066.846-1.215 1.584l-.059.291c-.237 1.174.365 2.354 1.355 2.66" style="fill:#4d4d4d;fill-opacity:1;fill-rule:nonzero;stroke:none;stroke-width:.396268" transform="translate(-8100.246 -2213.926)scale(3.77953)"/><g opacity="0.949493" style="fill:#efb416;fill-opacity:.862745"><g clip-path="url(#e)" opacity="0.8461" style="fill:#efb416;fill-opacity:.862745" transform="translate(-964.588 -139.452)scale(.98154)"><path d="M0 0c0-51.716-41.924-93.64-93.64-93.64S-187.279-51.716-187.279 0s41.924 93.639 93.639 93.639C-41.924 93.639 0 51.716 0 0" clip-path="url(#f)" style="opacity:.949904;fill:#efb416;fill-opacity:.862745;fill-rule:nonzero;stroke:none" transform="matrix(1.33333 0 0 -1.33333 1246.037 315.33)"/></g></g><g opacity="0.949493" style="opacity:.949904;fill:#efb416;fill-opacity:.862745"><g clip-path="url(#g)" opacity="0.8461" style="fill:#efb416;fill-opacity:.862745" transform="translate(-759.698 -290.99)scale(.99497)"><path d="M0 0c0-62.322-50.522-112.845-112.845-112.845S-225.689-62.322-225.689 0s50.522 112.845 112.844 112.845C-50.522 112.845 0 62.322 0 0" clip-path="url(#h)" style="fill:#efb416;fill-opacity:.862745;fill-rule:nonzero;stroke:none" transform="matrix(1.33333 0 0 -1.33333 1278.11 608.982)"/></g></g><g opacity="0.949493" style="opacity:.949904;fill:#efb416;fill-opacity:.862745"><g clip-path="url(#i)" opacity="0.8461" style="fill:#efb416;fill-opacity:.862745" transform="translate(-901.771 -260.42)scale(1.12328)"><path d="M0 0c0-47.378-38.408-85.786-85.786-85.786S-171.572-47.378-171.572 0s38.408 85.786 85.786 85.786S0 47.378 0 0" clip-path="url(#j)" style="fill:#efb416;fill-opacity:.862745;fill-rule:nonzero;stroke:none" transform="matrix(1.33333 0 0 -1.33333 1031.565 559.5)"/></g></g><path fill="#485e52" d="M2229.187 664.513c15.016 0 27.19-12.113 27.19-27.055s-12.174-27.056-27.19-27.056-27.19 12.114-27.19 27.056 12.173 27.055 27.19 27.055m-59.428-9.183c10.134 0 18.35-8.156 18.35-18.216s-8.216-18.215-18.35-18.215-18.35 8.155-18.35 18.215 8.215 18.216 18.35 18.216m8.044 57.498c15.017 0 27.19-12.113 27.19-27.055s-12.173-27.056-27.19-27.056c-15.016 0-27.189 12.114-27.189 27.056s12.173 27.055 27.19 27.055" opacity="0.85" style="opacity:.8;fill:#f3b612;fill-opacity:.898039;stroke-width:.673619" transform="translate(-8100.246 -2213.926)scale(3.77953)"/><path fill="#485e52" d="M2233.951 706.1c15.016 0 27.19-12.113 27.19-27.055s-12.174-27.056-27.19-27.056-27.19 12.114-27.19 27.056 12.174 27.055 27.19 27.055" opacity="0.85" style="opacity:.8;fill:#f3b612;fill-opacity:.898039;stroke-width:.673619" transform="translate(-8100.246 -2213.926)scale(3.77953)"/><path fill="#5f926a" d="M2161.93 683.883c-1.344-4.589-.26-14.949 5.67-12.587 5.698 2.877-1.342 10.553-5.67 12.587" style="fill:#f2c60e;fill-opacity:.964706;stroke-width:.61021" transform="translate(-8100.246 -2213.926)scale(3.77953)"/><path fill="#587e60" d="M2149.877 668.409c5.314-3.249 18.696-5.393 17.719 2.887-1.7 8.161-13.71 1.882-17.72-2.884z" style="fill:#facb06;fill-opacity:.964706;stroke-width:.61021" transform="translate(-8100.246 -2213.926)scale(3.77953)"/><path fill="#77a37a" d="M2161.132 662.308c3.818.84 10.677 5.676 6.468 8.986-4.475 2.943-6.886-5.097-6.47-8.986z" style="fill:#f2c60e;fill-opacity:.964706;stroke-width:.61021" transform="translate(-8100.246 -2213.926)scale(3.77953)"/><path fill="#5f926a" d="M2251.819 642.637c-3.374-1.736-11.609-2.444-10.657 2.532 1.387 4.872 8.424.535 10.657-2.53z" style="fill:#f2c60e;fill-opacity:.964706;stroke-width:.4842" transform="translate(-8100.246 -2213.926)scale(3.77953)"/><path fill="#587e60" d="M2248.633 633.038c-4.709 1.5-12.945 8.414-7.471 12.129 5.779 3.219 8.25-7.247 7.474-12.127z" style="fill:#facb06;fill-opacity:.964706;stroke-width:.4842" transform="translate(-8100.246 -2213.926)scale(3.77953)"/><path fill="#77a37a" d="M2239.411 636.373c-1.825 2.51-3.35 8.992.892 8.74 4.206-.61 1.404-6.65-.89-8.74z" style="fill:#f2c60e;fill-opacity:.964706;stroke-width:.4842" transform="translate(-8100.246 -2213.926)scale(3.77953)"/><path fill="#5f926a" d="M2219.148 616.43h-.001c-3.793.02-11.423 3.2-8.28 7.172 3.483 3.679 7.718-3.42 8.282-7.17z" style="fill:#f2c60e;fill-opacity:.964706;stroke-width:.4842" transform="translate(-8100.246 -2213.926)scale(3.77953)"/><path fill="#587e60" d="M2211.885 609.391c-3.482 3.508-7.589 13.446-1.018 14.21 6.613.182 3.966-10.241 1.021-14.21v.001z" style="fill:#facb06;fill-opacity:.964706;stroke-width:.4842" transform="translate(-8100.246 -2213.926)scale(3.77953)"/><path fill="#77a37a" d="M2205.25 616.612c-.459 3.068 1.185 9.522 4.83 7.337 3.449-2.484-1.83-6.546-4.829-7.338z" style="fill:#f2c60e;fill-opacity:.964706;stroke-width:.4842" transform="translate(-8100.246 -2213.926)scale(3.77953)"/><path fill="#5f926a" d="M2243.52 679.014c3.084-2.209 7.474-9.213 2.613-10.637-4.968-.99-4.323 7.25-2.615 10.637z" style="fill:#f2c60e;fill-opacity:.964706;stroke-width:.4842" transform="translate(-8100.246 -2213.926)scale(3.77953)"/><path fill="#587e60" d="M2253.514 680.562c.815-4.875-1.576-15.36-7.38-12.185-5.502 3.673 2.681 10.65 7.378 12.186z" style="fill:#facb06;fill-opacity:.964706;stroke-width:.4842" transform="translate(-8100.246 -2213.926)scale(3.77953)"/><path fill="#77a37a" d="M2254.757 670.834c-1.399-2.769-6.47-7.086-8.183-3.196-1.378 4.02 5.277 4.285 8.183 3.198z" style="fill:#f2c60e;fill-opacity:.964706;stroke-width:.4842" transform="translate(-8100.246 -2213.926)scale(3.77953)"/><path fill="#77a37a" d="M2147.668 634.756c3.234 3.521 12.663 7.947 13.705 1.649.482-6.366-9.728-4.304-13.705-1.652z" style="fill:#f2c60e;fill-opacity:.964706;stroke-width:.61021" transform="translate(-8100.246 -2213.926)scale(3.77953)"/><path fill="#5f926a" d="M2145.702 646.41c6.129 1.108 19.381-1.73 15.478-9.096-4.535-6.996-13.464 3.199-15.48 9.092z" style="fill:#facb06;fill-opacity:.964706;stroke-width:.61021" transform="translate(-8100.246 -2213.926)scale(3.77953)"/><path fill="#5f926a" d="M2200.294 687.241c-3.021 2.295-11.008 4.424-10.936-.64.52-5.04 8.203-1.993 10.935.638z" style="fill:#f2c60e;fill-opacity:.964706;stroke-width:.4842" transform="translate(-8100.246 -2213.926)scale(3.77953)"/><path fill="#587e60" d="M2198.825 697.248c-4.898-.659-14.21-6.035-9.466-10.645 5.13-4.175 9.385 5.701 9.469 10.643v-.001z" style="fill:#facb06;fill-opacity:.964706;stroke-width:.4842" transform="translate(-8100.246 -2213.926)scale(3.77953)"/><path fill="#77a37a" d="M2189.164 695.567c-2.234-2.153-4.863-8.272-.642-8.761 4.248-.132 2.539 6.305.644 8.761z" style="fill:#f2c60e;fill-opacity:.964706;stroke-width:.4842" transform="translate(-8100.246 -2213.926)scale(3.77953)"/></svg>