<svg xmlns="http://www.w3.org/2000/svg" width="550.47101" height="560.71826" viewBox="0 0 550.471 560.71827"><defs><clipPath id="a" clipPathUnits="userSpaceOnUse"><path d="M785.175 304.017h220.322V524.34H785.175Z"/></clipPath><clipPath id="b" clipPathUnits="userSpaceOnUse"><path d="M-165.242 82.621H0V-82.621h-165.242Z"/></clipPath><clipPath id="c" clipPathUnits="userSpaceOnUse"><path d="M996.332 190.477h249.705v249.706H996.332Z"/></clipPath><clipPath id="d" clipPathUnits="userSpaceOnUse"><path d="M-187.279 93.64H0V-93.64h-187.279Z"/></clipPath><clipPath id="e" clipPathUnits="userSpaceOnUse"><path d="M996.332 190.477h249.705v249.706H996.332Z"/></clipPath><clipPath id="f" clipPathUnits="userSpaceOnUse"><path d="M-187.279 93.64H0V-93.64h-187.279Z"/></clipPath><clipPath id="g" clipPathUnits="userSpaceOnUse"><path d="M1118.505 352.761h206.739v206.74h-206.739Z"/></clipPath><clipPath id="h" clipPathUnits="userSpaceOnUse"><path d="M-155.054 77.527H0V-77.527h-155.054Z"/></clipPath><clipPath id="i" clipPathUnits="userSpaceOnUse"><path d="M977.19 458.523h300.92V759.44H977.19z"/></clipPath><clipPath id="j" clipPathUnits="userSpaceOnUse"><path d="M-225.69 112.845H0v-225.69h-225.69z"/></clipPath><clipPath id="k" clipPathUnits="userSpaceOnUse"><path d="M802.803 445.119h228.762V673.88H802.803Z"/></clipPath><clipPath id="l" clipPathUnits="userSpaceOnUse"><path d="M-171.572 85.786H0V-85.786h-171.572Z"/></clipPath></defs><path d="M0 0h-38.899zh38.899Z" style="fill:#5fbc6d;fill-opacity:1;fill-rule:nonzero;stroke:none" transform="matrix(1.33333 0 0 -1.33333 162.355 622.387)"/><path d="m1984.389 674.754 8.13 8.525-.999-17.359 4.298-20.89 19.47-.102 6.448-1.117 9.7 3.346-6.44-8.706-8.943-.04-18.51 2.371-2.7-26.555-10.334-7.002 4.839 11 .91 21.521-22.393-4.892-16.18 1.005-6.562 5.064 25.217 2.469 14.072 6.927" style="fill:#999;fill-opacity:1;stroke:#262626;stroke-width:2.381;stroke-linecap:butt;stroke-linejoin:round;stroke-dasharray:none;stroke-opacity:1" transform="translate(-7249.545 -2153.109)scale(3.77953)"/><path d="m2021.805 588.63-22.67 18.386-.963 20.123-10.56 9.961-4.897-19.133-19.556-10.75-17.157 3.72 11.79 5.995 12.72 10.96 7.064 13.559-12.498 8.021-8.257 11.946-11.368 5.242 16.684 3.04 11.255-10.787 15.433-7.446 8.605 5.416-2.188 18.721 4.984 10.055.036 11.692 3.768 5.386 8.24-18.743-3.122-9.712-1.347-16.156 14.204 6.935 13.199 19.135 2.212-11.104-7.473-20.612-19.91-3.123-6.18-7.265 8.906-11.49-1.082-17.246 7.183-9.156z" style="color:#000;fill:#a6a6a6;fill-opacity:1;stroke:#262626;stroke-width:2.38125;stroke-linejoin:round;stroke-dasharray:none;stroke-opacity:1" transform="translate(-7249.545 -2153.109)scale(3.77953)"/><path d="m1999.47 678.391 2.14-.93s1.218-1.886 1.993-.867c.774 1.02 1.308 2.687 1.308 2.687s2.272.097.172 2.639l-2.101 2.54-2.756 1.199-3.294-6.767m5.705-9.024.989-.693c.247-.174.54-.28.848-.306l1.613-.138c.307-.026.6-.132.849-.306l.983-.69a1.56 1.56 0 0 0 .676-1.207l.164-3.966c.043-1.047-.985-1.844-2.065-1.601l-.843.19c-.311.07-.596.223-.818.441l-2.166 2.122a1.6 1.6 0 0 0-.225.276l-2.438 3.786a1.5 1.5 0 0 0-.242.902c.067 1.262 1.6 1.944 2.675 1.19" style="fill:#4d4d4d;fill-opacity:1;fill-rule:nonzero;stroke:none;stroke-width:.396268" transform="translate(-7249.545 -2153.109)scale(3.77953)"/><path d="m1990.186 641.877 1.25.836c.215.144.438.212.624.189l2.06-.25a.43.43 0 0 0 .268-.128l.984-1.043c.203-.216.153-.641-.123-1.03l-3.64-3.5c-.33-.465-2.12-2.271-2.447-2.115-1.078.515-.893 2.76-1.197 3.104a.4.4 0 0 0-.083.145l-.082.237c-.087.252.012.612.255.927l1.747 2.267c.11.142.242.266.384.361" style="fill:#4d4d4d;fill-opacity:1;fill-rule:nonzero;stroke:none;stroke-width:.341875" transform="translate(-7249.545 -2153.109)scale(3.77953)"/><path d="m1980.68 655.056 1.09.145c1.714.226 3.322-1.04 3.38-2.768v-.06c.021-1.125-1.002-2.912-1.893-4.25a2.99 2.99 0 0 0-3.301-1.216 3 3 0 0 0-2.14 2.358l-.208 1.163a3 3 0 0 0 .221 1.767l.512 1.129a3 3 0 0 0 2.337 1.732m-17.359 11.261.348.174q.158.079.327.104l.33.048c.631.092 1.236-.405 1.362-1.16.045-.274.123-.462.252-.398.373.188.434-1.124.434-1.124l-1.089-1.776a1.3 1.3 0 0 0-.607-.533l-.289-.116a1 1 0 0 0-.29-.072l-1.785-.18c-.24-.023-.48.037-.692.175l-.07.045c-.67.436-.866 1.493-.411 2.234q.048.077.103.147l1.654 2.083c.12.15.263.27.423.35m3.944-13.496 2.726.919c.736.248 1.526-.052 2-.76l.284-.425c.66-.986.495-2.418-.363-3.162l-1.585-1.375c-.5-.434-1.15-.55-1.737-.31l-1.406.577c-.608.249-1.066.846-1.215 1.584l-.058.291c-.237 1.173.365 2.354 1.355 2.66m42.764-54.794 1.476.848q.088.05.185.084l.237.083c.814.284 1.41.985 1.59 1.868l.017.087a1.2 1.2 0 0 1 0 .509l-.418 2.229c-.113.601-.61 1.065-1.19 1.108l-.27.02a1.1 1.1 0 0 1-.6-.12l-3.702-1.912c-.603-.311-.801-1.104-.438-1.745l1.555-1.053c.354-.623.984-2.334 1.556-2.006m-18.188 55.612 1.992 1.854c.684.636 2.292.012 2.897-1.125.57-1.31 2.323-3.638 3.332-4.927.444-.567.545-1.181.257-1.569l-1.272-1.711c-.22-.296-.638-.418-1.136-.331l-.399.068a2.6 2.6 0 0 0-1.095.47c-.226.168-.662.43-1.465.838l-1.36.69c-.641.327-1.156.9-1.318 1.47l-.607 2.126a1.3 1.3 0 0 0-.052.328l-.03 1.163a.83.83 0 0 0 .256.655" style="fill:#4d4d4d;fill-opacity:1;fill-rule:nonzero;stroke:none;stroke-width:.396268" transform="translate(-7249.545 -2153.109)scale(3.77953)"/><path d="M2015.002 658.135a2.5 2.5 0 0 0 1.663-.046l2.482-1.007c.313-.128.552-.32.682-.546l1.992-3.493a.77.77 0 0 0 0-.783l-.396-.712c-.212-.382-.715-.666-1.32-.745l-2.994-.39c-.475-.062-.96.035-1.291.259-.264.178-.406.417-.396.669.02.505.067 1.441.15 2.468.07.869-.684 1.962-1.349 2.746-.48.564-.126 1.287.775 1.58" style="fill:#4d4d4d;fill-opacity:1;fill-rule:nonzero;stroke:none;stroke-width:.396266" transform="translate(-7249.545 -2153.109)scale(3.77953)"/><path d="m2012.07 627.14.128-1.35c0-.02 0-.042.01-.063l.335-1.892a.8.8 0 0 0-.147-.613l-.786-1.109c-.236-.333-.696-.525-1.176-.491l-5.088.358a1.5 1.5 0 0 0-.494.122l-.786.351c-.44.197-.683.589-.612.986l.215 1.19q.032.181.146.34l.846 1.192c.218.308.63.497 1.075.495l.655-.003 1.617.05c.274.008.536.089.745.23l1.305.877c.641.432 1.628.234 1.933-.389a.8.8 0 0 0 .08-.28" style="fill:#4d4d4d;fill-opacity:1;fill-rule:nonzero;stroke:none;stroke-width:.396268" transform="translate(-7249.545 -2153.109)scale(3.77953)"/><path d="M1982.965 624.12c7.96 4.316-8.192 14.14-4.847 3.427 1.248-1.868 3.066-2.817 4.847-3.427" style="fill:#4d4d4d;fill-opacity:1;stroke:none;stroke-width:.297201px;stroke-linecap:round;stroke-linejoin:round;stroke-opacity:1" transform="translate(-7249.545 -2153.109)scale(3.77953)"/><path d="M1959.538 619.04c1.394-2.321-.084-1.919 1.212-4.26.366-.627.842-1.255 1.47-1.693 1.79-.858 3.904-.286 4.604 1.178.47.897.204 2.129-.578 3.043-.461.432-.177 1.015-.363 1.53-.217 1.229-.838 2.018-2.098 2.78-1.182.712-1.375-1.808-2.421-2.234-.473-.27-1.091-.234-1.65-.324-1.907-.85-2.51-1.155-.176-.02" style="fill:#4d4d4d;stroke-width:2.67481;stroke-linecap:round;stroke-linejoin:round" transform="translate(-7249.545 -2153.109)scale(3.77953)"/><path d="M1161.766 528.472c.805-2.41 2.753-4.367 5.084-5.378 2.331-1.01 5.008-1.11 7.47-.483s4.715 1.953 6.613 3.643 3.455 3.734 4.776 5.905c2.345 3.853 3.998 8.29 3.717 12.792-.14 2.25-.774 4.484-1.95 6.408s-2.907 3.527-4.97 4.436c-1.64.722-3.474.998-5.254.79a193 193 0 0 1-11.374-14.505c-1.426-2.01-2.827-4.07-3.702-6.373s-1.191-4.898-.41-7.235" style="fill:#4d4d4d;fill-opacity:1;stroke:none;stroke-width:1px;stroke-linecap:butt;stroke-linejoin:miter;stroke-opacity:1" transform="translate(-912.309 -233.115)scale(1.12328)"/><path d="m2021.805 588.63-22.67 18.386-.963 20.123-10.56 9.961-4.897-19.133-19.556-10.75-17.157 3.72 11.79 5.995 12.72 10.96 7.064 13.559-12.498 8.021-8.257 11.946-11.368 5.242 16.684 3.04 11.255-10.787 15.433-7.446 8.605 5.416-2.188 18.721 4.984 10.055.036 11.692 3.768 5.386 8.24-18.743-3.122-9.712-1.347-16.156 14.204 6.935 13.199 19.135 2.212-11.104-7.473-20.612-19.91-3.123-6.18-7.265 8.906-11.49-1.082-17.246 7.183-9.156z" style="color:#000;fill:none;fill-opacity:1;stroke:#262626;stroke-width:2.38125;stroke-linejoin:round;stroke-dasharray:none;stroke-opacity:1" transform="translate(-7249.545 -2153.109)scale(3.77953)"/><g opacity="0.949493" style="opacity:.949904;fill:#efb416;fill-opacity:.863772"><g clip-path="url(#a)" opacity="0.8461" style="fill:#efb416;fill-opacity:.863772" transform="translate(-881.97 -272.679)scale(1.12328)"><path d="M0 0c0-45.63-36.991-82.621-82.621-82.621S-165.242-45.63-165.242 0s36.991 82.621 82.621 82.621S0 45.63 0 0" clip-path="url(#b)" style="fill:#efb416;fill-opacity:.863772;fill-rule:nonzero;stroke:none" transform="matrix(1.33333 0 0 -1.33333 1005.497 414.179)"/></g></g><g opacity="0.949493" style="fill:#efb416;fill-opacity:.863772"><g clip-path="url(#c)" opacity="0.8461" style="fill:#efb416;fill-opacity:.863772" transform="translate(-801.445 -186.962)scale(.98154)"><path d="M0 0c0-51.716-41.924-93.64-93.64-93.64S-187.279-51.716-187.279 0s41.924 93.639 93.639 93.639C-41.924 93.639 0 51.716 0 0" clip-path="url(#d)" style="opacity:.949904;fill:#efb416;fill-opacity:.863772;fill-rule:nonzero;stroke:none" transform="matrix(1.33333 0 0 -1.33333 1246.037 315.33)"/></g></g><g opacity="0.949493" style="fill:#efb416;fill-opacity:.862745"><g clip-path="url(#e)" opacity="0.8461" style="fill:#efb416;fill-opacity:.862745" transform="translate(-882.472 -88.132)scale(.98154)"><path d="M0 0c0-51.716-41.924-93.64-93.64-93.64S-187.279-51.716-187.279 0s41.924 93.639 93.639 93.639C-41.924 93.639 0 51.716 0 0" clip-path="url(#f)" style="opacity:.949904;fill:#efb416;fill-opacity:.862745;fill-rule:nonzero;stroke:none" transform="matrix(1.33333 0 0 -1.33333 1246.037 315.33)"/></g></g><g opacity="0.949493" style="fill:#efb416;fill-opacity:.863772"><g clip-path="url(#g)" opacity="0.8461" style="fill:#efb416;fill-opacity:.863772" transform="translate(-938.147 -219.652)scale(1.12328)"><path d="M0 0c0-42.817-34.71-77.527-77.527-77.527S-155.054-42.817-155.054 0s34.71 77.527 77.527 77.527S0 42.817 0 0" clip-path="url(#h)" style="fill:#efb416;fill-opacity:.863772;fill-rule:nonzero;stroke:none" transform="matrix(1.33333 0 0 -1.33333 1325.244 456.13)"/></g></g><g opacity="0.949493" style="opacity:.949904;fill:#efb416;fill-opacity:.863772"><g clip-path="url(#i)" opacity="0.8461" style="fill:#efb416;fill-opacity:.863772" transform="translate(-789.465 -194.905)scale(.99497)"><path d="M0 0c0-62.322-50.522-112.845-112.845-112.845S-225.689-62.322-225.689 0s50.522 112.845 112.844 112.845C-50.522 112.845 0 62.322 0 0" clip-path="url(#j)" style="fill:#efb416;fill-opacity:.863772;fill-rule:nonzero;stroke:none" transform="matrix(1.33333 0 0 -1.33333 1278.11 608.982)"/></g></g><path fill="#485e52" d="M2004.086 699.547c15.017 0 27.19-12.113 27.19-27.055s-12.173-27.056-27.19-27.056c-15.016 0-27.189 12.114-27.189 27.056s12.173 27.055 27.19 27.055" opacity="0.85" style="opacity:.8;fill:#f3b612;fill-opacity:.898204;stroke-width:.673619" transform="translate(-7249.545 -2153.109)scale(3.77953)"/><path fill="#485e52" d="M2018.629 629.357c15.016 0 27.189-12.113 27.189-27.055s-12.173-27.055-27.19-27.055c-15.016 0-27.189 12.113-27.189 27.055s12.173 27.055 27.19 27.055" opacity="0.85" style="opacity:.8;fill:#efb416;fill-opacity:.863772;stroke-width:.673619" transform="translate(-7249.545 -2153.109)scale(3.77953)"/><g opacity="0.949493" style="opacity:.949904;fill:#efb416;fill-opacity:.863772"><g clip-path="url(#k)" opacity="0.8461" style="fill:#efb416;fill-opacity:.863772" transform="translate(-851.764 -248.461)scale(1.12328)"><path d="M0 0c0-47.378-38.408-85.786-85.786-85.786S-171.572-47.378-171.572 0s38.408 85.786 85.786 85.786S0 47.378 0 0" clip-path="url(#l)" style="fill:#efb416;fill-opacity:.863772;fill-rule:nonzero;stroke:none" transform="matrix(1.33333 0 0 -1.33333 1031.565 559.5)"/></g></g><path fill="#5f926a" d="M1966.416 675.775c-4.242.086-12.865-3.246-9.466-7.78 3.788-4.214 8.729 3.6 9.468 7.778z" style="fill:#f2c60e;fill-opacity:.964706;stroke-width:.541569" transform="translate(-7249.545 -2153.109)scale(3.77953)"/><path fill="#485e52" d="M1951.33 668.824c10.134 0 18.35-8.155 18.35-18.215s-8.216-18.216-18.35-18.216-18.35 8.155-18.35 18.216c0 10.06 8.215 18.215 18.35 18.215" opacity="0.85" style="opacity:.8;fill:#f3b612;fill-opacity:.898204;stroke-width:.673619" transform="translate(-7249.545 -2153.109)scale(3.77953)"/><path fill="#77a37a" d="M1947.75 671.451c1.605-3.076 7.34-7.83 9.198-3.455 1.482 4.517-5.964 4.715-9.198 3.457z" style="fill:#f2c60e;fill-opacity:.964706;stroke-width:.541569" transform="translate(-7249.545 -2153.109)scale(3.77953)"/><path fill="#587e60" d="M1958.501 683.857c-3.994-3.82-8.875-14.813-1.551-15.858 7.389-.396 4.732 11.335 1.554 15.858z" style="fill:#facb06;fill-opacity:.964706;stroke-width:.541569" transform="translate(-7249.545 -2153.109)scale(3.77953)"/><path fill="#5f926a" d="M2041.205 673.475c1.343-4.588.26-14.948-5.67-12.586-5.699 2.876 1.342 10.553 5.67 12.586" style="fill:#f2c60e;fill-opacity:.964706;stroke-width:.61021" transform="translate(-7249.545 -2153.109)scale(3.77953)"/><path fill="#587e60" d="M2053.258 658.001c-5.314-3.248-18.696-5.392-17.72 2.887 1.701 8.162 13.711 1.883 17.72-2.883z" style="fill:#facb06;fill-opacity:.964072;stroke-width:.61021" transform="translate(-7249.545 -2153.109)scale(3.77953)"/><path fill="#77a37a" d="M2042.003 651.901c-3.818.84-10.677 5.676-6.468 8.985 4.475 2.943 6.885-5.097 6.469-8.985z" style="fill:#f2c60e;fill-opacity:.964706;stroke-width:.61021" transform="translate(-7249.545 -2153.109)scale(3.77953)"/><path fill="#5f926a" d="M2012.58 687.67c.356 4.05-2.275 12.51-6.827 9.552-4.274-3.35 2.878-8.578 6.825-9.554z" style="fill:#f2c60e;fill-opacity:.964706;stroke-width:.519006" transform="translate(-7249.545 -2153.109)scale(3.77953)"/><path fill="#587e60" d="M2015.456 709.016c-5.22-.908-14.972-7.05-9.7-11.792 5.667-4.26 9.817 6.494 9.702 11.79z" style="fill:#facb06;fill-opacity:.964706;stroke-width:.519006" transform="translate(-7249.545 -2153.109)scale(3.77953)"/><path fill="#77a37a" d="M2002.445 706.04c-1.208-3.098-1.023-10.234 3.307-8.816 4.194 1.778-.358 7.277-3.305 8.818v.001z" style="fill:#f2c60e;fill-opacity:.964706;stroke-width:.519006" transform="translate(-7249.545 -2153.109)scale(3.77953)"/><path fill="#5f926a" d="M2025.01 587.511c-3.793.021-11.423 3.2-8.279 7.172 3.483 3.679 7.718-3.42 8.28-7.17z" style="fill:#f2c60e;fill-opacity:.964706;stroke-width:.4842" transform="translate(-7249.545 -2153.109)scale(3.77953)"/><path fill="#587e60" d="M2017.748 580.473c-3.482 3.507-7.589 13.445-1.018 14.209 6.613.182 3.966-10.24 1.021-14.21v.001z" style="fill:#facb06;fill-opacity:.964706;stroke-width:.4842" transform="translate(-7249.545 -2153.109)scale(3.77953)"/><path fill="#77a37a" d="M2011.113 587.693c-.459 3.069 1.185 9.522 4.83 7.338 3.449-2.485-1.83-6.547-4.829-7.34z" style="fill:#f2c60e;fill-opacity:.964706;stroke-width:.4842" transform="translate(-7249.545 -2153.109)scale(3.77953)"/><path fill="#485e52" d="M1968.91 618.658c10.135 0 18.35-8.155 18.35-18.216 0-10.06-8.215-18.215-18.35-18.215-10.134 0-18.35 8.155-18.35 18.215s8.216 18.216 18.35 18.216" opacity="0.85" style="opacity:.8;fill:#f3b612;fill-opacity:.898204;stroke-width:.673619" transform="translate(-7249.545 -2153.109)scale(3.77953)"/><path fill="#77a37a" d="M1939.529 611.012c3.234 3.521 12.663 7.947 13.705 1.649.482-6.366-9.728-4.304-13.705-1.652z" style="fill:#f2c60e;fill-opacity:.964706;stroke-width:.61021" transform="translate(-7249.545 -2153.109)scale(3.77953)"/><path fill="#5f926a" d="M1937.563 622.666c6.129 1.108 19.38-1.73 15.478-9.096-4.535-6.995-13.464 3.2-15.48 9.092z" style="fill:#facb06;fill-opacity:.964706;stroke-width:.61021" transform="translate(-7249.545 -2153.109)scale(3.77953)"/><path fill="#485e52" d="M2037.872 650.108c10.134 0 18.35-8.155 18.35-18.216 0-10.06-8.216-18.215-18.35-18.215s-18.35 8.155-18.35 18.215 8.216 18.216 18.35 18.216" opacity="0.85" style="opacity:.8;fill:#f3b612;fill-opacity:.898204;stroke-width:.673619" transform="translate(-7249.545 -2153.109)scale(3.77953)"/></svg>