<svg xmlns="http://www.w3.org/2000/svg" xml:space="preserve" width="129.95526" height="73.93988" fill="none" viewBox="0 0 129.95526 73.93988"><circle cx="39.796429" cy="20.692739" r="17.241907" style="fill:#404040;fill-opacity:1;stroke:#1c1c1c;stroke-width:4.5;stroke-linecap:round;stroke-linejoin:round;stroke-dasharray:none;stroke-opacity:1"/><circle cx="89.709457" cy="20.9512" r="17.241907" style="fill:#404040;fill-opacity:1;stroke:#1c1c1c;stroke-width:4.5;stroke-linecap:round;stroke-linejoin:round;stroke-dasharray:none;stroke-opacity:1"/><rect width="103.22829" height="8.2975626" x="-115.62445" y="51.734268" rx="4.6350946" ry="4.1487813" style="display:inline;fill:#404040;fill-opacity:1;stroke:#262626;stroke-width:4.5;stroke-dasharray:none;stroke-opacity:1" transform="scale(-1 1)"/><rect width="19.26149" height="8.3947525" x="-29.229992" y="51.741165" rx="4.0519991" ry="4.1001925" style="display:inline;fill:#404040;fill-opacity:1;stroke:#1c1c1c;stroke-width:4.5;stroke-dasharray:none;stroke-opacity:1" transform="scale(-1 1)"/><rect width="19.26149" height="8.3947525" x="-69.772568" y="51.546822" rx="4.0519991" ry="4.1001925" style="display:inline;fill:#404040;fill-opacity:1;stroke:#1c1c1c;stroke-width:4.5;stroke-dasharray:none;stroke-opacity:1" transform="scale(-1 1)"/><rect width="19.26149" height="8.3947525" x="-79.495163" y="51.689178" rx="4.0519991" ry="4.1001925" style="display:inline;fill:#404040;fill-opacity:1;stroke:#1c1c1c;stroke-width:4.5;stroke-dasharray:none;stroke-opacity:1" transform="scale(-1 1)"/><rect width="19.26149" height="8.3947525" x="-119.77406" y="51.770851" rx="4.0519991" ry="4.1001925" style="display:inline;fill:#404040;fill-opacity:1;stroke:#1c1c1c;stroke-width:4.5;stroke-dasharray:none;stroke-opacity:1" transform="scale(-1 1)"/><rect width="63.508476" height="10.084267" x="5.4416642" y="109.65883" rx="4.6350946" ry="4.4923863" style="display:inline;fill:#4d4d4d;fill-opacity:1;stroke:#1c1c1c;stroke-width:4.5;stroke-dasharray:none;stroke-opacity:1" transform="matrix(0 1 1 0 0 0)"/><rect width="63.508476" height="10.084267" x="5.453135" y="59.861599" rx="4.6350946" ry="4.4923863" style="display:inline;fill:#4d4d4d;fill-opacity:1;stroke:#1c1c1c;stroke-width:4.5;stroke-dasharray:none;stroke-opacity:1" transform="matrix(0 1 1 0 0 0)"/><rect width="63.508476" height="10.084267" x="5.510241" y="9.8851671" rx="4.6350946" ry="4.4923863" style="display:inline;fill:#4d4d4d;fill-opacity:1;stroke:#1c1c1c;stroke-width:4.5;stroke-dasharray:none;stroke-opacity:1" transform="matrix(0 1 1 0 0 0)"/><g transform="matrix(-1.22563 0 0 1.22563 104.61 -11.549)"><circle cx="11.856435" cy="46.113762" r="8.1148539" style="fill:#54545f;fill-opacity:1;stroke:#151518;stroke-width:3;stroke-linecap:round;stroke-linejoin:round;stroke-dasharray:none;stroke-opacity:1"/><path d="M5.708 32.165H19.41l3.538 13.205-11.264 6.815-11.08-7.483z" style="fill:#6c6c7a;fill-opacity:1;stroke:none;stroke-width:1.5;stroke-linecap:round;stroke-dasharray:none;stroke-opacity:1"/><path fill="#151519" d="M11.036 26.618v3.197c0 .3.242.542.541.542h.79a.54.54 0 0 0 .54-.542v-3.197a.54.54 0 0 0-.54-.542h-.79a.54.54 0 0 0-.541.542"/><g transform="translate(-30.688 -1.363)"><circle cx="50.633476" cy="45.705101" r="2.9398124" style="fill:#333;fill-opacity:1;stroke:none;stroke-width:1.82412;stroke-linecap:round;stroke-dasharray:none;stroke-opacity:1"/><circle cx="42.56966" cy="51.313503" r="2.9398124" style="fill:#333;fill-opacity:1;stroke:none;stroke-width:1.82412;stroke-linecap:round;stroke-dasharray:none;stroke-opacity:1"/><circle cx="37.795479" cy="36.133286" r="2.9398124" style="fill:#333;fill-opacity:1;stroke:none;stroke-width:1.82412;stroke-linecap:round;stroke-dasharray:none;stroke-opacity:1"/><circle cx="47.677563" cy="36.198837" r="2.9398124" style="fill:#333;fill-opacity:1;stroke:none;stroke-width:1.82412;stroke-linecap:round;stroke-dasharray:none;stroke-opacity:1"/><circle cx="34.65509" cy="45.525875" r="2.9398124" style="fill:#333;fill-opacity:1;stroke:none;stroke-width:1.82412;stroke-linecap:round;stroke-dasharray:none;stroke-opacity:1"/></g><path d="m43.568 42.88 6.917 6.927 7 7.18-4.45 8.718-4.665 8.876-9.667-1.538-9.882-1.694-1.525-9.669-1.443-9.922 8.724-4.438z" style="fill:none;stroke:#171717;stroke-width:4.47288;stroke-linecap:round;stroke-linejoin:round;stroke-dasharray:none;stroke-opacity:1" transform="rotate(171.18 19.61 40.174)scale(.67071)"/><path d="m8.225 32.224.055-4.82 7.651.007-.088 4.802z" style="fill:#60606c;fill-opacity:1;stroke:none;stroke-linejoin:round"/><path d="m8.073 41.813.055-9.29 7.651.012-.089 9.258z" style="fill:#54545f;fill-opacity:1;stroke:none;stroke-linejoin:round"/><path d="M10.538 31.946v10.666h2.989V32.023Z" style="fill:#484851;fill-opacity:1;stroke:none;stroke-width:1.33648;stroke-linecap:round;stroke-linejoin:round;stroke-dasharray:none;stroke-opacity:1"/><path stroke="#151518" stroke-miterlimit="29" stroke-width="3" d="m8.17 45.671.054-17.064 7.652.021-.09 17.005z" style="fill:none;fill-opacity:1;stroke-linejoin:round"/><path fill="#3e3e41" d="m13.25 42.729-.28-5.164-1.97.004-.31 5.373"/><path fill="#323234" stroke="#161617" stroke-miterlimit="29" stroke-width="3.23199" d="M15.591 68.006c1.977.003 3.374-7.769 3.508-13.142.08-5.187.291-5.932-3.36-12.3l-7.866.007C4.91 49.025 4.764 49.416 4.787 54.81c.022 5.01 1.133 13.225 3.127 13.247z"/><path stroke="#161617" stroke-linejoin="round" stroke-miterlimit="29" stroke-width="1.5" d="m13.234 43.016-.279-5.164-1.97.004-.31 5.373"/><path d="M15.645 32.686H8.307" style="fill:#3e3e41;fill-opacity:1;stroke:#151518;stroke-width:3;stroke-linecap:round;stroke-linejoin:round;stroke-dasharray:none;stroke-opacity:1"/></g><g transform="matrix(-1.22563 0 0 1.22563 54.401 -11.453)"><circle cx="11.856435" cy="46.113762" r="8.1148539" style="fill:#54545f;fill-opacity:1;stroke:#151518;stroke-width:3;stroke-linecap:round;stroke-linejoin:round;stroke-dasharray:none;stroke-opacity:1"/><path d="M5.708 32.165H19.41l3.538 13.205-11.264 6.815-11.08-7.483z" style="fill:#6c6c7a;fill-opacity:1;stroke:none;stroke-width:1.5;stroke-linecap:round;stroke-dasharray:none;stroke-opacity:1"/><path fill="#151519" d="M11.036 26.618v3.197c0 .3.242.542.541.542h.79a.54.54 0 0 0 .54-.542v-3.197a.54.54 0 0 0-.54-.542h-.79a.54.54 0 0 0-.541.542"/><g transform="translate(-30.688 -1.363)"><circle cx="50.633476" cy="45.705101" r="2.9398124" style="fill:#333;fill-opacity:1;stroke:none;stroke-width:1.82412;stroke-linecap:round;stroke-dasharray:none;stroke-opacity:1"/><circle cx="42.56966" cy="51.313503" r="2.9398124" style="fill:#333;fill-opacity:1;stroke:none;stroke-width:1.82412;stroke-linecap:round;stroke-dasharray:none;stroke-opacity:1"/><circle cx="37.795479" cy="36.133286" r="2.9398124" style="fill:#333;fill-opacity:1;stroke:none;stroke-width:1.82412;stroke-linecap:round;stroke-dasharray:none;stroke-opacity:1"/><circle cx="47.677563" cy="36.198837" r="2.9398124" style="fill:#333;fill-opacity:1;stroke:none;stroke-width:1.82412;stroke-linecap:round;stroke-dasharray:none;stroke-opacity:1"/><circle cx="34.65509" cy="45.525875" r="2.9398124" style="fill:#333;fill-opacity:1;stroke:none;stroke-width:1.82412;stroke-linecap:round;stroke-dasharray:none;stroke-opacity:1"/></g><path d="m43.568 42.88 6.917 6.927 7 7.18-4.45 8.718-4.665 8.876-9.667-1.538-9.882-1.694-1.525-9.669-1.443-9.922 8.724-4.438z" style="fill:none;stroke:#171717;stroke-width:4.47288;stroke-linecap:round;stroke-linejoin:round;stroke-dasharray:none;stroke-opacity:1" transform="rotate(171.18 19.61 40.174)scale(.67071)"/><path d="m8.225 32.224.055-4.82 7.651.007-.088 4.802z" style="fill:#60606c;fill-opacity:1;stroke:none;stroke-linejoin:round"/><path d="m8.073 41.813.055-9.29 7.651.012-.089 9.258z" style="fill:#54545f;fill-opacity:1;stroke:none;stroke-linejoin:round"/><path d="M10.538 31.946v10.666h2.989V32.023Z" style="fill:#484851;fill-opacity:1;stroke:none;stroke-width:1.33648;stroke-linecap:round;stroke-linejoin:round;stroke-dasharray:none;stroke-opacity:1"/><path stroke="#151518" stroke-miterlimit="29" stroke-width="3" d="m8.17 45.671.054-17.064 7.652.021-.09 17.005z" style="fill:none;fill-opacity:1;stroke-linejoin:round"/><path fill="#3e3e41" d="m13.25 42.729-.28-5.164-1.97.004-.31 5.373"/><path fill="#323234" stroke="#161617" stroke-miterlimit="29" stroke-width="3.23199" d="M15.591 68.006c1.977.003 3.374-7.769 3.508-13.142.08-5.187.291-5.932-3.36-12.3l-7.866.007C4.91 49.025 4.764 49.416 4.787 54.81c.022 5.01 1.133 13.225 3.127 13.247z"/><path stroke="#161617" stroke-linejoin="round" stroke-miterlimit="29" stroke-width="1.5" d="m13.234 43.016-.279-5.164-1.97.004-.31 5.373"/><path d="M15.645 32.686H8.307" style="fill:#3e3e41;fill-opacity:1;stroke:#151518;stroke-width:3;stroke-linecap:round;stroke-linejoin:round;stroke-dasharray:none;stroke-opacity:1"/></g><rect width="125.45526" height="15.240255" x="2.2499971" y="-17.490255" rx="4.1005902" ry="3.6663229" style="display:inline;fill:#595959;fill-opacity:1;stroke:#1c1c1c;stroke-width:4.5;stroke-dasharray:none;stroke-opacity:1" transform="scale(1 -1)"/></svg>