<svg xmlns="http://www.w3.org/2000/svg" width="599.16754" height="620.62476" fill="none" viewBox="0 0 599.16753 620.62476"><path fill="#5b3e24" d="M405.805 295.287s-42.907-5.646-58.715-5.646l-40.65-18.066-21.453-126.464-93.719-49.683 59.845 58.716 3.387 46.295 14.68 111.785-39.52 20.324-57.587-14.679-59.845 37.262 50.812-9.033 44.036 19.195 74.524-6.774 54.198 6.774 31.616 30.487 35.004 63.232-19.196 40.649 42.908-38.39-9.033-62.103-59.845-70.007 40.65-11.292 48.552 15.808c-12.043-10.914-40.649-38.39-40.649-38.39z" style="stroke:#372516;stroke-width:9;stroke-dasharray:none;stroke-opacity:1"/><path fill="#6d4a2c" stroke="#1b1917" stroke-linejoin="round" stroke-miterlimit="16" stroke-width="11.0123" d="m281.717 360.695-36.873 24.823-40.912 66.584-81.62 10.778 68.651-43.232 23.186-68.124 54.075-37.934-49.466-83.593-65.221-23.992-29.387-72.078 55.716 48.305 73.887 16.167 52.69 76.448c18.468-36.829 34.005-58.6 34.005-58.6l60.84-28.23 42.908-53.069-29.358 85.815-53.07 37.262-21.32 54.48 43.224 38.642 71.38 20.325 36.131 73.394-62.58-45.166-60.495-9.033-33.315-23.45 2.828 55.066-18.76 69.474 15.932 73.394-50.935-74.523 9.033-54.199z" style="stroke:#372516;stroke-width:9;stroke-miterlimit:16;stroke-dasharray:none;stroke-opacity:1"/><path fill="#3a4f3f" d="M293.706 345.627c0 84.886 68.38 153.698 152.73 153.698 84.351 0 152.731-68.812 152.731-153.698s-68.38-153.697-152.73-153.697-152.731 68.811-152.731 153.697" opacity="0.95" style="fill:#d4701d;fill-opacity:.85000002;stroke-width:1.9333"/><path fill="#3a4f3f" d="M0 372.59c0 72.34 58.137 130.98 129.851 130.98 71.715 0 129.851-58.64 129.851-130.98 0-72.338-58.136-130.98-129.85-130.98C58.136 241.61 0 300.252 0 372.59" opacity="0.95" style="fill:#d4701d;fill-opacity:.85000002;stroke-width:2.25828"/><path fill="#3a4f3f" d="M11.43 179.534c0 99.154 79.875 179.533 178.404 179.533s178.404-80.379 178.404-179.533S288.363 0 189.834 0C91.304 0 11.429 80.38 11.429 179.534" opacity="0.95" style="fill:#d4701d;fill-opacity:.85000002;stroke-width:2.25828"/><path fill="#3a4f3f" d="M121.632 476.094c0 79.822 64.203 144.53 143.401 144.53s143.401-64.708 143.401-144.53c0-79.82-64.202-144.53-143.4-144.53-79.2 0-143.402 64.71-143.402 144.53" opacity="0.95" style="fill:#d4701d;fill-opacity:.85000002;stroke-width:2.25828"/><path fill="#485e52" d="M41.697 363.977c0 49.243 39.528 89.162 88.287 89.162s88.288-39.919 88.288-89.162c0-49.242-39.528-89.162-88.288-89.162s-88.287 39.92-88.287 89.162" opacity="0.85" style="opacity:.8;fill:#dc7119;fill-opacity:.85097998;stroke-width:1.74827"/><path fill="#485e52" d="M184.748 485.588c0 40.534 32.354 73.394 72.265 73.394 39.91 0 72.265-32.86 72.265-73.394s-32.354-73.394-72.265-73.394-72.265 32.86-72.265 73.394" opacity="0.85" style="opacity:.8;fill:#dc7119;fill-opacity:.85097998;stroke-width:2.25828"/><path fill="#3a4f3f" d="M270.308 200.439c0 72.34 58.138 130.98 129.852 130.98s129.85-58.64 129.85-130.98-58.136-130.98-129.85-130.98-129.852 58.641-129.852 130.98" opacity="0.95" style="fill:#d4701d;fill-opacity:.85000002;stroke-width:2.25828"/><path fill="#485e52" d="M379.674 189.032c0 40.534 32.354 73.394 72.265 73.394 39.91 0 72.265-32.86 72.265-73.394s-32.354-73.394-72.265-73.394-72.265 32.86-72.265 73.394M311.68 386.607c0 57.996 46.51 105.01 103.882 105.01 57.371 0 103.88-47.014 103.88-105.01 0-57.995-46.509-105.01-103.88-105.01-57.372 0-103.881 47.015-103.881 105.01" opacity="0.85" style="opacity:.8;fill:#dc7119;fill-opacity:.85097998;stroke-width:2.25828"/><path fill="#485e52" fill-rule="evenodd" d="M273.196 182.502a81.3 81.3 0 0 0 25.952 7.028c45.298 4.517 85.732-29.047 90.31-74.966 4.578-45.92-28.434-86.806-73.732-91.323-35.444-3.533-67.908 16.248-82.55 47.019-16.686-13.635-37.38-22.663-60.357-24.954-62.673-6.248-118.596 39.996-124.906 103.291s39.382 119.67 102.055 125.918c58.887 5.87 111.815-34.6 123.228-92.013" clip-rule="evenodd" opacity="0.85" style="opacity:.8;fill:#dc7119;fill-opacity:.85097998;stroke-width:2.25828"/><path fill="#5f926a" d="M54.632 400.39c11.25 13.653 45.218 31.882 50.321 8.813 3.047-23.43-35.096-17.838-50.319-8.825v-.002q0 .002 0 0z" style="fill:#e8812c;fill-opacity:.92156798;stroke-width:2.25828"/><path fill="#587e60" d="M76.935 469.466c20.995-9.512 55.386-46.017 28.009-60.247-28.52-11.767-34.276 38.057-28.023 60.242v-.004c0 .004.003 0 .003 0z" style="fill:#ea8734;fill-opacity:.92000002;stroke-width:2.25828"/><path fill="#77a37a" d="M119.016 447.7c5.372-13.437 4.832-44.493-14.056-38.488-18.317 7.58 1.283 31.677 14.048 38.49h.003c-.003.003 0-.001 0 0 .002 0 0-.003 0-.001zm226.101 22.707c17.557-2.175 51.16-21.07 34.426-37.75-18.142-15.135-33.877 20.059-34.436 37.74.002 0 .001.004 0 0z" style="fill:#e8812c;fill-opacity:.92156798;stroke-width:2.25828"/><path fill="#5f926a" d="M382.598 499.045c14.21-18.15 27.797-66.428-3.055-66.371-30.73 2.77-12.772 49.6 3.04 66.372v.001c.003-.003 0 0 0 0 .003 0 0 0 0 0z" style="fill:#ea8734;fill-opacity:.92000002;stroke-width:2.25828"/><path fill="#5f926a" d="M289.61 69.764c10.37 14.333 19.435 51.801-4.174 50.916-23.44-2.966-8.403-38.46 4.162-50.918v.003z" style="fill:#e8812c;fill-opacity:.92156798;stroke-width:2.25828"/><path fill="#77a37a" d="M319.136 144.005c-14.359 1.805-44.272-6.555-33.694-23.317 11.958-15.81 30.327 9.238 33.698 23.31q0 .002 0 0z" style="fill:#e8812c;fill-opacity:.92156798;stroke-width:2.25828"/><path fill="#587e60" d="M336.109 77.687c-3.605 22.766-29.682 65.608-50.662 42.985-18.91-24.38 27.604-43.143 50.652-42.996l.002.002z" style="fill:#ea8734;fill-opacity:.92000002;stroke-width:2.25828"/><path fill="#5f926a" d="M55.862 123.133c9.606-14.857 41.252-36.87 48.973-14.541 5.723 22.923-32.811 21.755-48.97 14.552v.002q0-.002 0 0z" style="fill:#e8812c;fill-opacity:.92156798;stroke-width:2.25828"/><path fill="#77a37a" d="M114.378 68.734h-.003c6.882 12.73 9.917 43.641-9.538 39.848-19.065-5.423-2.367-31.614 9.53-39.85.001-.001 0-.004 0 0z" style="fill:#e8812c;fill-opacity:.92156798;stroke-width:2.25828"/><path fill="#587e60" d="M46.413 76.92c22.526-4.883 71.904 3.918 58.41 31.664C88.943 135.036 54.615 98.47 46.41 76.93c-.003-.004-.003 0-.003 0z" style="fill:#ea8734;fill-opacity:.92000002;stroke-width:2.25828"/><path fill="#77a37a" d="M495.165 274.799c-.87-17.67-17.229-52.577-35.098-37.123-16.436 16.972 17.496 35.268 35.09 37.13 0-.003 0 0 .002 0z" style="fill:#e8812c;fill-opacity:.92156798;stroke-width:2.25828"/><path fill="#5f926a" d="M526.498 239.54c-17.05-15.512-64.19-32.635-66.415-1.863.49 30.848 48.52 16.404 66.414 1.876z" style="fill:#ea8734;fill-opacity:.92000002;stroke-width:2.25828"/></svg>