<svg xmlns="http://www.w3.org/2000/svg" xml:space="preserve" width="195.98416" height="195.98415" viewBox="0 0 195.98416 195.98415"><path d="M120.84 45.423c-4.618-4.45-3.29-16.014 2.323-19.15 9.662-5.398 31.193 9.005 30.04 13.948-1.152 4.943-24.506 12.773-32.363 5.202z" style="fill:#e19e1d;fill-opacity:.92549;stroke:#333;stroke-width:0;stroke-linejoin:round;stroke-dasharray:none"/><ellipse cx="92.049362" cy="95.480896" rx="62.165802" ry="62.372635" style="fill:#eeb629;fill-opacity:.92549;stroke:none;stroke-width:3.8181;stroke-linecap:round;stroke-linejoin:round"/><path d="M106.613 112.864c-5.895 2.531-16.008-3.187-16.7-9.583-1.19-11.012 20.461-25.28 24.556-22.298 4.095 2.984 2.174 27.573-7.856 31.88z" style="fill:#eb8d15;fill-opacity:.92549;stroke:#333;stroke-width:0;stroke-linejoin:round;stroke-dasharray:none"/><path d="M133.436 105.26c-3.867 5.132-15.475 5.202-19.238-.008-6.479-8.968 5.264-32.135 10.295-31.583s15.521 22.858 8.943 31.59zM18.888 124.183c-5.895 2.531-16.008-3.186-16.699-9.583C1 103.588 22.65 89.32 26.745 92.303c4.094 2.983 2.174 27.572-7.857 31.88zm24.365 17.246c-5.6 3.135-16.252-1.494-17.604-7.783-2.328-10.828 17.722-27.284 22.104-24.745 4.383 2.538 5.028 27.194-4.5 32.528z" style="fill:#eb8d15;fill-opacity:.92549;stroke:#333;stroke-width:0;stroke-linejoin:round;stroke-dasharray:none"/><path d="M119.418 142.05c-5.895 2.53-16.008-3.187-16.7-9.584-1.19-11.011 20.462-25.28 24.556-22.297s2.174 27.572-7.856 31.88z" style="fill:#eb8d15;fill-opacity:.92549;stroke:#333;stroke-width:0;stroke-linejoin:round;stroke-dasharray:none"/><path d="M121.853 125.072c-5.895 2.532-16.008-3.186-16.7-9.583-1.19-11.011 20.461-25.28 24.556-22.297s2.174 27.572-7.856 31.88zm-22.776-22.281c-5.895 2.532-16.008-3.186-16.699-9.582-1.19-11.012 20.46-25.281 24.556-22.298 4.094 2.984 2.173 27.573-7.857 31.88z" style="fill:#eb8d15;fill-opacity:.92549;stroke:#333;stroke-width:0;stroke-linejoin:round;stroke-dasharray:none"/><path d="M131.004 94.81c-3.866 5.132-15.474 5.201-19.237-.008-6.479-8.969 5.264-32.135 10.294-31.583s15.522 22.857 8.943 31.59zm25.593-12.024c-3.866 5.132-15.474 5.202-19.237-.008-6.479-8.968 5.264-32.135 10.294-31.583s15.522 22.858 8.943 31.59zM82.22 87.099c-5.895 2.531-16.008-3.186-16.7-9.583-1.19-11.012 20.461-25.28 24.556-22.297s2.174 27.572-7.856 31.88zm-59.68-5.502c-5.082-3.924-5.05-15.57.175-19.3 8.995-6.422 31.981 5.562 31.387 10.604s-22.917 15.373-31.563 8.696Zm33.278 30.563c-5.895 2.532-16.007-3.186-16.699-9.583-1.19-11.011 20.461-25.28 24.556-22.297 4.094 2.983 2.174 27.572-7.857 31.88z" style="fill:#eb8d15;fill-opacity:.92549;stroke:#333;stroke-width:0;stroke-linejoin:round;stroke-dasharray:none"/><path d="M52.045 113.15c5.657-3.03 16.221 1.795 17.458 8.108 2.128 10.869-18.222 26.95-22.556 24.331-4.335-2.62-4.526-27.283 5.098-32.44zm79.066 30.792c-5.895 2.532-16.007-3.186-16.699-9.583-1.19-11.011 20.46-25.28 24.556-22.297 4.094 2.983 2.174 27.572-7.857 31.88zm28.493 4.077c-5.6 3.134-16.252-1.494-17.604-7.784-2.328-10.827 17.722-27.283 22.104-24.745 4.383 2.54 5.028 27.195-4.5 32.529z" style="fill:#eb8d15;fill-opacity:.92549;stroke:#333;stroke-width:0;stroke-linejoin:round;stroke-dasharray:none"/><path d="M170.773 137.471c-5.6 3.135-16.251-1.493-17.604-7.783-2.328-10.827 17.722-27.284 22.105-24.745s5.027 27.195-4.5 32.528z" style="fill:#eb8d15;fill-opacity:.92549;stroke:#333;stroke-width:0;stroke-linejoin:round;stroke-dasharray:none"/><path d="M171.43 115.718c-5.6 3.134-16.251-1.494-17.604-7.784-2.328-10.827 17.722-27.283 22.105-24.745s5.027 27.195-4.5 32.529zm-19.053-38.235c-5.6 3.135-16.252-1.493-17.604-7.783-2.329-10.827 17.722-27.283 22.104-24.745s5.028 27.195-4.5 32.528z" style="fill:#eb8d15;fill-opacity:.92549;stroke:#333;stroke-width:0;stroke-linejoin:round;stroke-dasharray:none"/><path d="M152.465 49.07c.842 6.362-7.397 14.548-13.74 13.48-10.921-1.84-18.8-26.553-14.82-29.687 3.979-3.133 27.127 5.383 28.56 16.207z" style="fill:#eb8d15;fill-opacity:.92549;stroke:#333;stroke-width:0;stroke-linejoin:round;stroke-dasharray:none"/><path d="M128.732 52.531c-3.312 5.51-14.85 6.793-19.133 2.005-7.376-8.241 1.895-32.51 6.955-32.488 5.06.023 17.813 21.11 12.178 30.483z" style="fill:#eb8d15;fill-opacity:.92549;stroke:#333;stroke-width:0;stroke-linejoin:round;stroke-dasharray:none"/><path d="M99.158 55.73c-5.6 3.134-16.252-1.494-17.604-7.784-2.328-10.827 17.722-27.283 22.104-24.745 4.383 2.539 5.028 27.195-4.5 32.529z" style="fill:#eb8d15;fill-opacity:.92549;stroke:#333;stroke-width:0;stroke-linejoin:round;stroke-dasharray:none"/><path d="M93.245 56.389c-5.6 3.135-16.252-1.494-17.604-7.783-2.329-10.828 17.722-27.284 22.104-24.745s5.028 27.194-4.5 32.528zm46.992 12.015c-3.866 5.132-15.474 5.202-19.237-.008-6.479-8.968 5.264-32.135 10.294-31.583s15.522 22.858 8.943 31.59z" style="fill:#eb8d15;fill-opacity:.92549;stroke:#333;stroke-width:0;stroke-linejoin:round;stroke-dasharray:none"/><path d="M161.408 80.66c-3.867 5.134-15.474 5.203-19.238-.007-6.478-8.968 5.264-32.135 10.295-31.583s15.522 22.858 8.943 31.59z" style="fill:#eb8d15;fill-opacity:.92549;stroke:#333;stroke-width:0;stroke-linejoin:round;stroke-dasharray:none"/><path d="M142.79 108.052c-5.896 2.532-16.009-3.186-16.7-9.582-1.19-11.012 20.46-25.281 24.556-22.298 4.094 2.984 2.173 27.573-7.857 31.88zm4.33 47.218c-5.6 3.135-16.251-1.494-17.603-7.783-2.329-10.827 17.721-27.284 22.104-24.745s5.028 27.195-4.5 32.528z" style="fill:#eb8d15;fill-opacity:.92549;stroke:#333;stroke-width:0;stroke-linejoin:round;stroke-dasharray:none"/><path d="M135.951 177.683c-5.6 3.135-16.251-1.494-17.604-7.783-2.328-10.827 17.722-27.284 22.104-24.745 4.383 2.539 5.028 27.195-4.5 32.528zm-51.421-3.455c-6.11-1.958-10.024-12.922-6.374-18.212 6.284-9.107 31.961-5.675 33.11-.73 1.15 4.944-16.344 22.272-26.737 18.942z" style="fill:#eb8d15;fill-opacity:.92549;stroke:#333;stroke-width:0;stroke-linejoin:round;stroke-dasharray:none"/><path d="M74.848 176.365c-5.6 3.134-16.251-1.494-17.604-7.784-2.328-10.827 17.722-27.283 22.104-24.745 4.383 2.54 5.028 27.195-4.5 32.529z" style="fill:#eb8d15;fill-opacity:.92549;stroke:#333;stroke-width:0;stroke-linejoin:round;stroke-dasharray:none"/><path d="M52.51 165.817c-5.6 3.135-16.252-1.494-17.605-7.783-2.328-10.827 17.722-27.284 22.105-24.745s5.027 27.195-4.5 32.528zm-22.165-31.15c-5.896 2.532-16.008-3.186-16.7-9.582-1.19-11.012 20.461-25.281 24.556-22.298 4.094 2.984 2.174 27.573-7.856 31.88z" style="fill:#eb8d15;fill-opacity:.92549;stroke:#333;stroke-width:0;stroke-linejoin:round;stroke-dasharray:none"/><path d="M26.414 109.067c-5.896 2.531-16.008-3.186-16.7-9.583-1.19-11.012 20.461-25.28 24.556-22.298 4.095 2.984 2.174 27.573-7.856 31.88zm-9.672-44.343c-5.082-3.924-5.05-15.57.175-19.3 8.995-6.422 31.982 5.562 31.387 10.604s-22.916 15.373-31.562 8.696z" style="fill:#eb8d15;fill-opacity:.92549;stroke:#333;stroke-width:0;stroke-linejoin:round;stroke-dasharray:none"/><path d="M48.567 63.64c-5.6 3.135-16.251-1.494-17.604-7.783-2.328-10.827 17.722-27.284 22.104-24.745 4.383 2.538 5.028 27.195-4.5 32.528z" style="fill:#eb8d15;fill-opacity:.92549;stroke:#333;stroke-width:0;stroke-linejoin:round;stroke-dasharray:none"/><path d="M58.423 47.16c-5.6 3.135-16.252-1.494-17.604-7.783C38.49 28.55 58.54 12.093 62.923 14.632s5.028 27.194-4.5 32.528zm38.764-1.319c-5.6 3.135-16.252-1.493-17.604-7.783-2.328-10.827 17.722-27.283 22.104-24.745 4.383 2.539 5.028 27.195-4.5 32.528z" style="fill:#eb8d15;fill-opacity:.92549;stroke:#333;stroke-width:0;stroke-linejoin:round;stroke-dasharray:none"/><path d="M123.924 56.047c-3.312 5.51-14.85 6.793-19.134 2.005-7.375-8.241 1.896-32.51 6.956-32.488 5.06.023 17.813 21.11 12.178 30.483zm25.168 34.621c-5.6 3.134-16.252-1.494-17.604-7.784-2.329-10.827 17.721-27.283 22.104-24.745s5.028 27.195-4.5 32.529z" style="fill:#eb8d15;fill-opacity:.92549;stroke:#333;stroke-width:0;stroke-linejoin:round;stroke-dasharray:none"/><path d="M131.75 91.6c-3.867 5.132-15.475 5.201-19.238-.008-6.479-8.969 5.264-32.135 10.294-31.583s15.522 22.857 8.944 31.59zm-58.842 15.067c-5.895 2.531-16.008-3.186-16.7-9.583-1.19-11.012 20.462-25.28 24.556-22.298 4.095 2.984 2.174 27.573-7.856 31.88Z" style="fill:#eb8d15;fill-opacity:.92549;stroke:#333;stroke-width:0;stroke-linejoin:round;stroke-dasharray:none"/><path d="M49.595 114.82c-5.895 2.531-16.008-3.187-16.7-9.583-1.19-11.012 20.461-25.281 24.556-22.298s2.174 27.573-7.856 31.88Zm19.265 17.934c-5.894 2.531-16.007-3.186-16.699-9.583-1.19-11.012 20.461-25.28 24.556-22.297s2.174 27.572-7.856 31.88z" style="fill:#eb8d15;fill-opacity:.92549;stroke:#333;stroke-width:0;stroke-linejoin:round;stroke-dasharray:none"/><path d="M88.564 127.535c-5.895 2.532-16.008-3.186-16.7-9.582-1.19-11.012 20.462-25.281 24.556-22.298s2.174 27.573-7.856 31.88Z" style="fill:#eb8d15;fill-opacity:.92549;stroke:#333;stroke-width:0;stroke-linejoin:round;stroke-dasharray:none"/><path d="M112.462 120.107c-5.895 2.532-16.008-3.186-16.7-9.583-1.19-11.011 20.462-25.28 24.556-22.297s2.174 27.572-7.856 31.88zm43.2-8.345c-5.6 3.135-16.252-1.494-17.604-7.783-2.328-10.827 17.722-27.284 22.104-24.745 4.383 2.539 5.028 27.195-4.5 32.528z" style="fill:#eb8d15;fill-opacity:.92549;stroke:#333;stroke-width:0;stroke-linejoin:round;stroke-dasharray:none"/><path d="M158.947 116.377c-5.6 3.134-16.252-1.494-17.604-7.784-2.328-10.827 17.722-27.283 22.104-24.745 4.383 2.54 5.028 27.195-4.5 32.529zm-17.68-31.683c-5.896 2.531-16.008-3.187-16.7-9.583-1.19-11.012 20.461-25.28 24.556-22.298 4.095 2.984 2.174 27.573-7.856 31.88zM92.588 59.685c-5.6 3.135-16.252-1.494-17.604-7.783-2.329-10.828 17.722-27.284 22.104-24.745s5.028 27.194-4.5 32.528Z" style="fill:#eb8d15;fill-opacity:.92549;stroke:#333;stroke-width:0;stroke-linejoin:round;stroke-dasharray:none"/><path d="M74.191 53.093c-5.6 3.134-16.251-1.494-17.604-7.784C54.26 34.482 74.31 18.026 78.691 20.564c4.383 2.54 5.028 27.195-4.5 32.529z" style="fill:#eb8d15;fill-opacity:.92549;stroke:#333;stroke-width:0;stroke-linejoin:round;stroke-dasharray:none"/><path d="M61.708 57.707c-5.6 3.135-16.252-1.494-17.604-7.783-2.329-10.827 17.722-27.284 22.104-24.745s5.028 27.195-4.5 32.528zm20.987 30.15c-3.48-5.404.437-16.368 6.605-18.128 10.618-3.03 28.28 15.981 26.039 20.533-2.242 4.552-26.724 6.79-32.644-2.405zm71.329 41.123c-2.807-5.785 2.393-16.198 8.727-17.202 10.904-1.728 26.162 19.275 23.392 23.524-2.771 4.248-27.343 3.52-32.12-6.323zm-61.935 10.06c-5.874-2.582-8.637-13.893-4.46-18.776 7.189-8.405 32.374-2.326 33.008 2.711.633 5.038-18.554 20.456-28.548 16.065zM31.06 121.908c-3.504 5.387-15.08 6.258-19.192 1.32-7.078-8.5 3.048-32.422 8.104-32.219 5.057.204 17.053 21.732 11.089 30.899zm36.88 27.226c4.776 4.293 3.88 15.905-1.608 19.234-9.446 5.732-31.48-7.936-30.513-12.92.967-4.983 23.994-13.618 32.12-6.314z" style="fill:#eb8d15;fill-opacity:.92549;stroke:#333;stroke-width:0;stroke-linejoin:round;stroke-dasharray:none"/><path d="M105.348 139.95c6.341.96 11.941 11.16 9.174 16.965-4.763 9.992-30.658 10.694-32.575 5.995s12.613-24.594 23.401-22.96zM55.551 93.63c-4.103 4.943-15.701 4.463-19.215-.919-6.05-9.265 6.769-31.85 11.768-31.06 4.998.789 14.43 23.566 7.447 31.978zm48.236-68.43c-1.144 6.331-11.473 11.646-17.173 8.699-9.814-5.073-9.747-31.063-5.01-32.847 4.74-1.784 24.13 13.378 22.184 24.148Zm57.055 74.362c-6.182-1.71-10.53-12.509-7.094-17.94 5.916-9.352 31.71-6.954 33.055-2.06 1.346 4.895-15.444 22.911-25.961 20z" style="fill:#eb8d15;fill-opacity:.92549;stroke:#333;stroke-width:0;stroke-linejoin:round;stroke-dasharray:none"/><path d="M171.41 45.315c5.21 3.75 5.569 15.391.472 19.296-8.774 6.721-32.15-4.48-31.725-9.539s22.388-16.138 31.253-9.757zM117.485 167.37c-1.12-6.335 6.725-14.92 13.09-14.143 10.96 1.335 19.899 25.729 16.074 29.053s-27.258-4.131-29.164-14.91zm-54.917-59.7c-5.896 2.531-16.008-3.186-16.7-9.583-1.19-11.012 20.461-25.28 24.556-22.298 4.095 2.984 2.174 27.573-7.856 31.88Zm17.891-55.72c1.103-6.337 11.398-11.718 17.117-8.807 9.846 5.01 9.944 31 5.218 32.814S78.58 62.734 80.459 51.95Zm71.776 43.772c-1.041 6.348-11.283 11.83-17.03 8.976-9.895-4.913-10.247-30.9-5.539-32.761 4.709-1.86 24.341 12.984 22.569 23.785zm-13.299 52.325c-5.895 2.531-16.008-3.187-16.699-9.583-1.19-11.012 20.46-25.281 24.555-22.298s2.174 27.573-7.856 31.88zM70.539 27.809c.054 6.434-9.104 13.59-15.253 11.763C44.701 36.427 39.93 10.88 44.252 8.242c4.323-2.64 26.194 8.62 26.287 19.567ZM35.99 155.304c-5.6 3.134-16.253-1.494-17.605-7.783-2.328-10.828 17.722-27.284 22.104-24.746 4.383 2.54 5.028 27.195-4.5 32.529zm61.405-23.574c-5.895 2.531-16.008-3.187-16.7-9.583-1.19-11.012 20.462-25.281 24.556-22.298s2.174 27.573-7.856 31.88z" style="fill:#eba815;fill-opacity:.92549;stroke:#333;stroke-width:0;stroke-linejoin:round;stroke-dasharray:none"/><path d="M72.494 108.914c5.657-3.03 16.222 1.795 17.458 8.108 2.128 10.868-18.221 26.95-22.556 24.331-4.335-2.62-4.526-27.283 5.098-32.44z" style="fill:#e1a211;fill-opacity:.92549032;stroke:#333;stroke-width:0;stroke-linejoin:round;stroke-dasharray:none"/><path d="M114.327 140.188c-5.895 2.532-16.007-3.186-16.699-9.583-1.19-11.011 20.461-25.28 24.556-22.297 4.094 2.983 2.174 27.572-7.857 31.88z" style="fill:#eb8d15;fill-opacity:.92549;stroke:#333;stroke-width:0;stroke-linejoin:round;stroke-dasharray:none"/><path d="M180.629 79.461c-5.6 3.135-16.252-1.494-17.604-7.783-2.329-10.827 17.722-27.284 22.104-24.745s5.028 27.195-4.5 32.528zm-15.769 47.463c-5.6 3.135-16.251-1.494-17.604-7.783-2.328-10.827 17.722-27.284 22.104-24.745 4.383 2.538 5.028 27.195-4.5 32.528z" style="fill:#e1a211;fill-opacity:.92549032;stroke:#333;stroke-width:0;stroke-linejoin:round;stroke-dasharray:none"/><path d="M57.385 108.634c5.657-3.03 16.222 1.794 17.458 8.108 2.129 10.868-18.221 26.95-22.556 24.33-4.335-2.619-4.526-27.283 5.098-32.438z" style="fill:#eb8d15;fill-opacity:.92549;stroke:#333;stroke-width:0;stroke-linejoin:round;stroke-dasharray:none"/><path d="M95.922 152.681c-6.108-1.957-10.024-12.921-6.373-18.211 6.284-9.107 31.961-5.676 33.11-.731s-16.344 22.273-26.737 18.942zm-2.082 35.377c-6.108-1.958-10.023-12.922-6.373-18.212 6.284-9.106 31.961-5.675 33.11-.73 1.15 4.944-16.344 22.272-26.737 18.942zm42.111-22.241c-5.6 3.135-16.251-1.494-17.604-7.783-2.328-10.827 17.722-27.284 22.104-24.745 4.383 2.539 5.028 27.195-4.5 32.528zm-39.003-55.296c-5.895 2.532-16.008-3.186-16.699-9.582-1.19-11.012 20.46-25.281 24.556-22.298 4.094 2.983 2.173 27.573-7.857 31.88zM71.563 45.182c-5.6 3.135-16.252-1.494-17.604-7.783-2.328-10.827 17.722-27.284 22.104-24.745 4.383 2.539 5.028 27.195-4.5 32.528zm38.507 5.141c-3.312 5.51-14.85 6.793-19.133 2.006-7.376-8.242 1.895-32.511 6.955-32.488 5.06.022 17.813 21.109 12.178 30.482z" style="fill:#e1a211;fill-opacity:.92549032;stroke:#333;stroke-width:0;stroke-linejoin:round;stroke-dasharray:none"/><path d="M102.484 110.834c-2.748-5.813 2.558-16.172 8.902-17.111 10.922-1.617 25.965 19.542 23.151 23.762s-27.377 3.24-32.053-6.651zM27.813 92.238c-5.082-3.924-5.05-15.57.175-19.3 8.995-6.422 31.982 5.562 31.387 10.604S36.46 98.915 27.813 92.238zm113.423 61.265c-1.306-6.299 6.283-15.112 12.669-14.525 10.993 1.01 20.646 25.128 16.92 28.565-3.725 3.436-27.367-3.323-29.589-14.04zm20.553-44.552c-4.865-4.192-4.21-15.82 1.207-19.263 9.325-5.929 31.638 7.275 30.775 12.278-.863 5.002-23.705 14.117-31.982 6.985zM108.36 32.79c-5.6 3.135-16.251-1.493-17.604-7.783C88.428 14.18 108.478-2.276 112.86.262c4.383 2.539 5.028 27.195-4.5 32.529Z" style="fill:#e1a211;fill-opacity:.92549032;stroke:#333;stroke-width:0;stroke-linejoin:round;stroke-dasharray:none"/><path d="M79.959 108.734c-5.895 2.532-16.008-3.186-16.7-9.583-1.19-11.011 20.461-25.28 24.556-22.297s2.174 27.572-7.856 31.88z" style="fill:#eb8d15;fill-opacity:.92549;stroke:#333;stroke-width:0;stroke-linejoin:round;stroke-dasharray:none"/><path d="M33.31 82.063c4.07 4.971 1.426 16.312-4.502 18.766C18.603 105.054-1.104 88.185.606 83.407s25.778-9.802 32.704-1.344Z" style="fill:#edb21d;fill-opacity:.92549;stroke:#333;stroke-width:0;stroke-linejoin:round;stroke-dasharray:none"/><path d="M106.853 28.043c4.712 4.365 3.64 15.961-1.897 19.207-9.531 5.588-31.356-8.412-30.315-13.38 1.042-4.969 24.197-13.253 32.212-5.827z" style="fill:#eb8d15;fill-opacity:.92549;stroke:#333;stroke-width:0;stroke-linejoin:round;stroke-dasharray:none"/><path d="M171.341 89.083c-6.285-1.277-11.37-11.747-8.316-17.405 5.255-9.74 31.153-9.142 32.833-4.353 1.68 4.79-13.823 23.93-24.517 21.758zM50.996 149.257c6.36-.82 14.532 7.452 13.456 13.795-1.853 10.92-26.566 18.712-29.692 14.72s5.415-27.12 16.236-28.515zM43.213 99.81c-6.118-1.928-10.086-12.873-6.462-18.18 6.24-9.138 31.934-5.833 33.107-.894 1.174 4.939-16.235 22.353-26.645 19.073Z" style="fill:#e19e1d;fill-opacity:.92549002;stroke:#333;stroke-width:0;stroke-linejoin:round;stroke-dasharray:none"/><path d="M88.646 148.019c-5.6 3.134-16.252-1.494-17.604-7.784-2.329-10.827 17.721-27.283 22.104-24.745 4.382 2.54 5.028 27.195-4.5 32.529z" style="fill:#eb9c15;fill-opacity:.92549;stroke:#333;stroke-width:0;stroke-linejoin:round;stroke-dasharray:none"/><path d="M152.377 77.483c-5.6 3.135-16.252-1.493-17.604-7.783-2.329-10.827 17.722-27.283 22.104-24.745s5.028 27.195-4.5 32.528z" style="fill:#eb8d15;fill-opacity:.92549;stroke:#333;stroke-width:0;stroke-linejoin:round;stroke-dasharray:none"/><path d="M132.685 72.46c-3.867 5.132-15.475 5.202-19.238-.008-6.479-8.968 5.264-32.135 10.294-31.583s15.522 22.858 8.944 31.59z" style="fill:#eb9c15;fill-opacity:.92549;stroke:#333;stroke-width:0;stroke-linejoin:round;stroke-dasharray:none"/><path d="M84.865 80.749c-5.895 2.532-16.008-3.186-16.7-9.583-1.19-11.012 20.462-25.28 24.556-22.297s2.174 27.572-7.856 31.88z" style="fill:#eb8d15;fill-opacity:.92549;stroke:#333;stroke-width:0;stroke-linejoin:round;stroke-dasharray:none"/><path d="M54.185 70.893c-5.895 2.532-16.008-3.186-16.7-9.583-1.19-11.011 20.462-25.28 24.556-22.297s2.174 27.573-7.856 31.88zm8.713 13.141c.82-6.381 10.865-12.218 16.709-9.567 10.059 4.564 11.314 30.524 6.673 32.548S61.503 94.89 62.898 84.034Zm64.564 9.53c2.618 5.873-2.917 16.11-9.28 16.907-10.955 1.371-25.524-20.12-22.616-24.275 2.907-4.156 27.442-2.625 31.896 7.368z" style="fill:#eb9c15;fill-opacity:.92549;stroke:#333;stroke-width:0;stroke-linejoin:round;stroke-dasharray:none"/><path d="M122.312 149.845c-5.895 2.532-16.008-3.186-16.699-9.583-1.19-11.012 20.46-25.28 24.555-22.297s2.174 27.572-7.856 31.88z" style="fill:#edb21d;fill-opacity:.92549;stroke:#333;stroke-width:0;stroke-linejoin:round;stroke-dasharray:none"/><path d="M76.637 141.945c-1.868-6.155 4.895-15.62 11.307-15.615 11.04.008 22.827 23.152 19.427 26.912s-27.555-.825-30.734-11.297zm-10.33 7.392c-5.6 3.135-16.252-1.494-17.604-7.783-2.328-10.827 17.722-27.284 22.104-24.745 4.383 2.539 5.028 27.195-4.5 32.528z" style="fill:#eb9c15;fill-opacity:.92549;stroke:#333;stroke-width:0;stroke-linejoin:round;stroke-dasharray:none"/><path d="M59.08 149.337c-5.6 3.135-16.252-1.494-17.604-7.783-2.329-10.827 17.721-27.284 22.104-24.745s5.028 27.195-4.5 32.528zM159.82 77.04c-3.867 5.133-15.475 5.203-19.238-.007-6.479-8.968 5.264-32.135 10.295-31.583s15.521 22.858 8.943 31.59z" style="fill:#eb9c15;fill-opacity:.92549;stroke:#333;stroke-width:0;stroke-linejoin:round;stroke-dasharray:none"/><path d="M137.45 83.32c-3.867 5.132-15.475 5.202-19.238-.008-6.479-8.968 5.264-32.135 10.294-31.583s15.522 22.858 8.943 31.59z" style="fill:#eb9c15;fill-opacity:.92549;stroke:#333;stroke-width:0;stroke-linejoin:round;stroke-dasharray:none"/><path d="M71.775 79.315c-5.896 2.532-16.008-3.186-16.7-9.582-1.19-11.012 20.461-25.281 24.556-22.298s2.174 27.573-7.856 31.88z" style="fill:#eb8d15;fill-opacity:.92549;stroke:#333;stroke-width:0;stroke-linejoin:round;stroke-dasharray:none"/><path d="M116.791 41.36c-6.34.958-14.69-7.133-13.751-13.498 1.615-10.957 26.153-19.288 29.365-15.365 3.213 3.923-4.825 27.231-15.614 28.862z" style="fill:#eb9c15;fill-opacity:.92549;stroke:#333;stroke-width:0;stroke-linejoin:round;stroke-dasharray:none"/><path d="M53.959 37.399c2.261 6.02-3.878 15.905-10.277 16.316-11.017.708-24.271-21.622-21.12-25.595s27.55-.965 31.397 9.279z" style="fill:#eda529;fill-opacity:.92549;stroke:#333;stroke-width:0;stroke-linejoin:round;stroke-dasharray:none"/><path d="M80.362 170.34c-5.6 3.134-16.251-1.495-17.604-7.784-2.328-10.827 17.722-27.284 22.105-24.745s5.027 27.195-4.5 32.528z" style="fill:#eb9c15;fill-opacity:.92549;stroke:#333;stroke-width:0;stroke-linejoin:round;stroke-dasharray:none"/><path d="M86.628 163.63c4.35-4.728 15.908-3.655 19.144 1.9 5.57 9.563-8.38 31.462-13.332 30.418s-13.213-24.275-5.812-32.318zm-7.992-24.339c1.124 6.334-6.715 14.924-13.082 14.152-10.96-1.328-19.913-25.717-16.09-29.044 3.822-3.326 27.26 4.115 29.172 14.892z" style="fill:#edb21d;fill-opacity:.92549;stroke:#333;stroke-width:0;stroke-linejoin:round;stroke-dasharray:none"/><path d="M123.094 150.836c3.76 5.212.428 16.369-5.638 18.454-10.444 3.59-29.085-14.456-27.087-19.12s26.328-8.201 32.725.666z" style="fill:#eb9c15;fill-opacity:.92549;stroke:#333;stroke-width:0;stroke-linejoin:round;stroke-dasharray:none"/><path d="M157.29 52.456c-5.728 2.91-16.185-2.129-17.275-8.463-1.878-10.903 18.853-26.55 23.129-23.843s3.894 27.354-5.853 32.306z" style="fill:#eb8d15;fill-opacity:.92549;stroke:#333;stroke-width:0;stroke-linejoin:round;stroke-dasharray:none"/><path d="M164.188 60.518c2.2 6.044-4.04 15.865-10.444 16.21-11.024.594-24.048-21.873-20.856-25.813s27.559-.68 31.3 9.603z" style="fill:#eea528;fill-opacity:.92549;stroke:#333;stroke-width:0;stroke-linejoin:round;stroke-dasharray:none"/><path d="M121.059 77.59c-3.867 5.132-15.475 5.201-19.238-.008-6.479-8.969 5.264-32.135 10.294-31.583s15.522 22.857 8.944 31.59z" style="fill:#edb21d;fill-opacity:.92549;stroke:#333;stroke-width:0;stroke-linejoin:round;stroke-dasharray:none"/><path d="M124.126 133.518c.46-6.417 10.161-12.813 16.144-10.497 10.3 3.986 13.013 29.834 8.494 32.117-4.52 2.284-25.42-10.701-24.638-21.62z" style="fill:#eb8d15;fill-opacity:.92549;stroke:#333;stroke-width:0;stroke-linejoin:round;stroke-dasharray:none"/></svg>