<svg xmlns="http://www.w3.org/2000/svg" xml:space="preserve" width="638.2027" height="644.18304" x="0px" y="0px" viewBox="0 0 638.20267 644.18304"><path fill="#5b3e24" d="M1506.533 1087.322s-11.352-1.493-15.535-1.493l-10.755-4.78-5.676-33.46-24.797-13.146 15.834 15.535.896 12.25 3.884 29.576-10.456 5.377-15.236-3.884-15.834 9.86 13.444-2.39 11.65 5.078 19.719-1.793 14.34 1.793 8.365 8.066 9.26 16.73-.568 11.643 6.843-11.045-2.39-16.431-15.834-18.523 10.755-2.988 12.846 4.183c-3.186-2.888-10.755-10.158-10.755-10.158z" style="stroke:#372516;stroke-width:2.38125;stroke-dasharray:none;stroke-opacity:1" transform="translate(-5276.339 -3832.37)scale(3.77953)"/><path fill="#6d4a2c" stroke="#1b1917" stroke-linejoin="round" stroke-miterlimit="16" stroke-width="11.0123" d="m1484.613 1086.254 9.756-6.568 17.69-3.885 25.804 4.456-26.137 6.788-12.662 7.746-12.653 1.29-1.086 22.016 2.86 14.1 3.125 18.849-11.42-16.546-3.381-11.808-.302-23.86-10.234 16.782-11.003 3.703-11.353 16.7.016-15.397 12.27-13.845 14.481-14.971-9.423-5.872-13.189 1.031-18.58-22.98 21.46 14.545 11.104-.204 11.402 2.882 11.503-11.247 2.527-14.617 21.476-18.533-11.772 20.604-1.282 12.79z" style="stroke:#372516;stroke-width:2.38125;stroke-miterlimit:16;stroke-dasharray:none;stroke-opacity:1" transform="translate(-5276.339 -3832.37)scale(3.77953)"/><path fill="#3a4f3f" d="M1468.402 1134.878c0 22.46 18.092 40.666 40.41 40.666s40.41-18.207 40.41-40.666c0-22.46-18.092-40.666-40.41-40.666s-40.41 18.207-40.41 40.666" opacity="0.95" style="fill:#bb661f;fill-opacity:.85;stroke-width:.51152" transform="translate(-5276.339 -3832.37)scale(3.77953)"/><path fill="#3a4f3f" d="M1479.511 1048.637c0 19.14 15.382 34.655 34.357 34.655 18.974 0 34.356-15.516 34.356-34.655s-15.382-34.656-34.356-34.656-34.357 15.516-34.357 34.656" opacity="0.95" style="fill:#bb661f;fill-opacity:.85;stroke-width:.597504" transform="translate(-5276.339 -3832.37)scale(3.77953)"/><path fill="#3a4f3f" d="M1412.245 1063.7c0 26.235 21.134 47.502 47.203 47.502s47.202-21.267 47.202-47.501c0-26.235-21.133-47.502-47.202-47.502-26.07 0-47.203 21.267-47.203 47.501" opacity="0.95" style="fill:#bb661f;fill-opacity:.85;stroke-width:.597504" transform="translate(-5276.339 -3832.37)scale(3.77953)"/><path fill="#3a4f3f" d="M1404.941 1111.64c0 21.119 16.987 38.24 37.942 38.24 20.954 0 37.941-17.121 37.941-38.24s-16.987-38.24-37.941-38.24-37.942 17.12-37.942 38.24" opacity="0.95" style="fill:#bb661f;fill-opacity:.85;stroke-width:.597504" transform="translate(-5276.339 -3832.37)scale(3.77953)"/><path fill="#485e52" d="M1483.527 1048.696c0 13.03 10.459 23.59 23.36 23.59s23.36-10.56 23.36-23.59c0-13.028-10.46-23.59-23.36-23.59-12.901 0-23.36 10.562-23.36 23.59" opacity="0.85" style="opacity:.8;fill:#d27223;fill-opacity:.85098;stroke-width:.462563" transform="translate(-5276.339 -3832.37)scale(3.77953)"/><path fill="#3a4f3f" d="M1491.691 1095.031c0 19.14 15.382 34.656 34.357 34.656 18.974 0 34.356-15.516 34.356-34.656s-15.382-34.655-34.356-34.655-34.357 15.516-34.357 34.655" opacity="0.95" style="fill:#bb661f;fill-opacity:.85;stroke-width:.597504" transform="translate(-5276.339 -3832.37)scale(3.77953)"/><path fill="#485e52" d="M1518.17 1114.527c0 13.029 10.459 23.59 23.36 23.59s23.36-10.561 23.36-23.59-10.46-23.591-23.36-23.591c-12.901 0-23.36 10.562-23.36 23.59" opacity="0.85" style="opacity:.8;fill:#d27223;fill-opacity:.85098;stroke-width:.462563" transform="translate(-5276.339 -3832.37)scale(3.77953)"/><path fill="#3a4f3f" d="M1415.844 1146.181c0 21.12 16.986 38.24 37.941 38.24s37.942-17.12 37.942-38.24-16.987-38.24-37.942-38.24-37.942 17.12-37.942 38.24" opacity="0.95" style="fill:#bb661f;fill-opacity:.85;stroke-width:.597504" transform="translate(-5276.339 -3832.37)scale(3.77953)"/><path fill="#485e52" fill-rule="evenodd" d="M1489.837 1144.532a21.5 21.5 0 0 0 6.867 1.86c11.985 1.194 22.683-7.686 23.895-19.836 1.21-12.15-7.524-22.967-19.509-24.162-9.378-.935-17.967 4.299-21.841 12.44a29.8 29.8 0 0 0-15.97-6.602c-16.582-1.653-31.378 10.582-33.048 27.329s10.42 31.663 27.002 33.316c15.58 1.553 29.585-9.155 32.604-24.345" clip-rule="evenodd" opacity="0.85" style="opacity:.8;fill:#d27223;fill-opacity:.85098;stroke-width:.597504" transform="translate(-5276.339 -3832.37)scale(3.77953)"/><path fill="#485e52" d="M1420.814 1057.49c0 16.752 13.371 30.333 29.866 30.333s29.866-13.581 29.866-30.333-13.372-30.332-29.866-30.332-29.866 13.58-29.866 30.332" opacity="0.85" style="opacity:.8;fill:#d27223;fill-opacity:.85098;stroke-width:.933304" transform="translate(-5276.339 -3832.37)scale(3.77953)"/><path fill="#5f926a" d="M1527.859 1108.65c4.038-2.368 10.222-10.479 4.41-12.778-5.994-1.777-6.13 8.422-4.413 12.776z" style="fill:#d97726;fill-opacity:.921568;stroke-width:.597504" transform="translate(-5276.339 -3832.37)scale(3.77953)"/><path fill="#587e60" d="M1546.839 1105.715c-1.606-5.884-9.703-16.397-14.567-9.84-4.268 6.958 8.507 10.548 14.565 9.843h-.001v-.001z" style="fill:#de843a;fill-opacity:.92;stroke-width:.597504" transform="translate(-5276.339 -3832.37)scale(3.77953)"/><path fill="#77a37a" d="M1542.914 1093.81c-3.285-1.966-11.421-3.125-10.643 2.06 1.213 5.103 8.33.992 10.644-2.058zm-13.139 62.486c2.834-3.725 5.468-13.579-.782-13.494-6.219.636-2.465 10.12.779 13.495z" style="fill:#d97726;fill-opacity:.921568;stroke-width:.597504" transform="translate(-5276.339 -3832.37)scale(3.77953)"/><path fill="#5f926a" d="M1542.125 1154.495c-.81-6.045-7.437-17.542-13.13-11.69-5.155 6.329 7.03 11.586 13.127 11.692z" style="fill:#de843a;fill-opacity:.92;stroke-width:.597504" transform="translate(-5276.339 -3832.37)scale(3.77953)"/><path fill="#77a37a" d="M1418.338 1112.456c2.885 3.686 11.749 8.734 13.252 2.666.962-6.177-9.164-4.951-13.251-2.67q0 .001 0 0z" style="fill:#d97726;fill-opacity:.921568;stroke-width:.597504" transform="translate(-5276.339 -3832.37)scale(3.77953)"/><path fill="#5f926a" d="M1416.949 1124.859c6.052.75 18.854-2.745 14.638-9.735-4.815-6.593-12.99 3.86-14.64 9.732z" style="fill:#de843a;fill-opacity:.92;stroke-width:.597504" transform="translate(-5276.339 -3832.37)scale(3.77953)"/><path fill="#5f926a" d="M1426.801 1042.11c2.542-3.931 10.915-9.756 12.958-3.848 1.514 6.065-8.682 5.756-12.957 3.85v.001z" style="fill:#d97726;fill-opacity:.921568;stroke-width:.597504" transform="translate(-5276.339 -3832.37)scale(3.77953)"/><path fill="#77a37a" d="M1442.284 1027.716c1.82 3.368 2.624 11.547-2.524 10.543-5.044-1.434-.626-8.364 2.522-10.543z" style="fill:#d97726;fill-opacity:.921568;stroke-width:.597504" transform="translate(-5276.339 -3832.37)scale(3.77953)"/><path fill="#587e60" d="M1424.301 1029.882c5.96-1.292 19.025 1.037 15.455 8.378-4.202 6.999-13.285-2.676-15.456-8.375z" style="fill:#de843a;fill-opacity:.92;stroke-width:.597504" transform="translate(-5276.339 -3832.37)scale(3.77953)"/><path fill="#5f926a" d="M1448.308 1147.172c-4.142-2.18-10.69-10-4.988-12.562 5.906-2.05 6.507 8.133 4.99 12.562h.001z" style="fill:#d97726;fill-opacity:.921568;stroke-width:.597504" transform="translate(-5276.339 -3832.37)scale(3.77953)"/><path fill="#77a37a" d="M1432.591 1133.035c3.192-2.113 11.267-3.642 10.726 1.574-.979 5.152-8.275 1.37-10.726-1.57z" style="fill:#d97726;fill-opacity:.921568;stroke-width:.597504" transform="translate(-5276.339 -3832.37)scale(3.77953)"/><path fill="#587e60" d="M1436.352 1150.753c-1.818-5.821-.664-19.041 6.966-16.14 7.346 3.56-1.48 13.47-6.963 16.14v.002z" style="fill:#de843a;fill-opacity:.92;stroke-width:.597504" transform="translate(-5276.339 -3832.37)scale(3.77953)"/><path fill="#77a37a" d="M1521.986 1049.172c3.235-3.383 6.961-12.878.741-13.497-6.25-.067-3.588 9.78-.745 13.497z" style="fill:#d97726;fill-opacity:.921568;stroke-width:.597504" transform="translate(-5276.339 -3832.37)scale(3.77953)"/><path fill="#5f926a" d="M1534.46 1048.772c-.124-6.098-5.416-18.267-11.73-13.094-5.836 5.709 5.68 12.304 11.727 13.096z" style="fill:#de843a;fill-opacity:.92;stroke-width:.597504" transform="translate(-5276.339 -3832.37)scale(3.77953)"/><path fill="#77a37a" d="M1492.14 1114.727c-1.84 4.304-1.995 14.502 4.046 12.897 5.877-2.132-.074-10.416-4.042-12.898z" style="fill:#d97726;fill-opacity:.921568;stroke-width:.597504" transform="translate(-5276.339 -3832.37)scale(3.77953)"/><path fill="#5f926a" d="M1480.602 1119.482c2.257 5.666 11.485 15.202 15.581 8.14 3.459-7.394-9.64-9.525-15.58-8.143z" style="fill:#de843a;fill-opacity:.92;stroke-width:.597504" transform="translate(-5276.339 -3832.37)scale(3.77953)"/><path fill="#77a37a" d="M1455.442 1083.098c2.834-3.726 5.468-13.58-.782-13.495-6.22.637-2.466 10.12.778 13.495z" style="fill:#d97726;fill-opacity:.921568;stroke-width:.597504" transform="translate(-5276.339 -3832.37)scale(3.77953)"/><path fill="#5f926a" d="M1467.791 1081.296c-.809-6.045-7.436-17.541-13.129-11.69-5.156 6.329 7.029 11.586 13.127 11.693z" style="fill:#de843a;fill-opacity:.92;stroke-width:.597504" transform="translate(-5276.339 -3832.37)scale(3.77953)"/><path fill="#485e52" d="M1396.031 1081.795c0 10.724 8.56 19.418 19.12 19.418s19.12-8.694 19.12-19.419-8.56-19.418-19.12-19.418-19.12 8.694-19.12 19.419" opacity="0.85" style="opacity:.8;fill:#d27223;fill-opacity:.85098;stroke-width:.597504" transform="translate(-5276.339 -3832.37)scale(3.77953)"/></svg>