<svg xmlns="http://www.w3.org/2000/svg" width="185.06494" height="406.17551" viewBox="0 0 48.965098 107.46727"><g style="opacity:.7" transform="matrix(0 -1 -1 0 922.796 -34.076)"><rect width="13.657395" height="95.714638" x="-890.38971" y="44.829086" rx="0" ry="0" style="fill:#1f331f;fill-opacity:1;stroke:#1f331f;stroke-width:2;stroke-linecap:round;stroke-linejoin:miter;stroke-dasharray:none;stroke-opacity:1;stop-color:#000" transform="scale(1 -1)rotate(90)"/><circle cx="-43.956482" cy="883.57355" r="7.8321514" style="opacity:1;fill:#1f331f;fill-opacity:1;stroke:none;stroke-width:1.99999;stroke-linecap:round;stroke-linejoin:miter;stroke-dasharray:none;stroke-opacity:1;stop-color:#000"/><rect width="13.657395" height="36.995617" x="37.107796" y="884.80054" rx="0" ry="0" style="fill:#1f331f;fill-opacity:1;stroke:#1f331f;stroke-width:2;stroke-linecap:round;stroke-linejoin:miter;stroke-dasharray:none;stroke-opacity:1;stop-color:#000" transform="scale(-1 1)"/><rect width="11.701213" height="38.936081" x="38.063972" y="883.81012" rx="0" ry="0" style="fill:#3a5934;fill-opacity:1;stroke:none;stroke-width:2;stroke-linecap:round;stroke-linejoin:miter;stroke-dasharray:none;stroke-opacity:1;stop-color:#000" transform="scale(-1 1)"/><rect width="4.8861122" height="17.890049" x="894.84058" y="34.926453" rx="2.7758439" ry="2.7758439" style="fill:#3f6239;fill-opacity:1;stroke:#1f331e;stroke-width:1.7;stroke-linecap:round;stroke-dasharray:none;stroke-opacity:1;stop-color:#000" transform="rotate(90)"/><rect width="11.701213" height="97.934128" x="-889.43353" y="43.539131" rx="0" ry="0" style="fill:#3a5934;fill-opacity:1;stroke:none;stroke-width:2;stroke-linecap:round;stroke-linejoin:miter;stroke-dasharray:none;stroke-opacity:1;stop-color:#000" transform="scale(1 -1)rotate(90)"/><circle cx="-43.917389" cy="883.58655" r="5.8643394" style="opacity:1;fill:#3a5934;fill-opacity:1;stroke:none;stroke-width:2;stroke-linecap:round;stroke-linejoin:miter;stroke-dasharray:none;stroke-opacity:1;stop-color:#000"/><rect width="4.8861122" height="17.890049" x="73.767426" y="-892.57111" rx="2.7758439" ry="2.7758439" style="fill:#3f6239;fill-opacity:1;stroke:#1f331e;stroke-width:1.7;stroke-linecap:round;stroke-dasharray:none;stroke-opacity:1;stop-color:#000" transform="scale(-1)"/><rect width="4.8861122" height="17.890049" x="109.59503" y="-892.57111" rx="2.7758439" ry="2.7758439" style="fill:#3f6239;fill-opacity:1;stroke:#1f331e;stroke-width:1.7;stroke-linecap:round;stroke-dasharray:none;stroke-opacity:1;stop-color:#000" transform="scale(-1)"/></g></svg>