<svg xmlns="http://www.w3.org/2000/svg" width="370.80908" height="370.811" viewBox="0 0 98.109903 98.110412"><g transform="translate(-175.775 -563.402)"><path d="M201.374 642.24c0 .569.457 1.026 1.026 1.026.568 0 1.025-.457 1.025-1.025v-4.665h9.127v4.665c0 .568.457 1.025 1.026 1.025.568 0 1.025-.457 1.025-1.025v-5.744c-.026-.543-.433-.973-.935-.973H202.31c-.503 0-.91.43-.935.973l-.001.053z" style="display:inline;fill:gray;fill-opacity:1;stroke:#2e2e2e;stroke-width:.926042;stroke-miterlimit:4;stroke-dasharray:none;stroke-opacity:1" transform="rotate(-90 219.04 616.876)"/><path d="M243.077 580.761h16.514v66.053h-16.514z" style="opacity:1;fill:#453824;fill-opacity:1;stroke:#261c0e;stroke-width:2;stroke-linecap:round;stroke-linejoin:round;stroke-dasharray:none;stroke-opacity:1;paint-order:normal;stop-color:#000"/><rect width="15.027615" height="15.067719" x="587.24353" y="246.15976" rx="1.2567708" ry="1.2567708" style="fill:#9a8a59;fill-opacity:1;stroke:#30291b;stroke-width:1.462;stroke-linecap:round;stroke-linejoin:round;stroke-miterlimit:5;stroke-dasharray:none;stroke-opacity:1;paint-order:fill markers stroke" transform="matrix(0 1 1 0 0 0)"/><g transform="scale(1 -1)rotate(-2.569 -26291.096 26.782)"><ellipse cx="436.25354" cy="-476.09277" rx="2.6367474" ry="3.9789164" style="fill:#3e3e3e;fill-opacity:1;stroke:#1f1f1f;stroke-width:1.462;stroke-linecap:square;stroke-linejoin:miter;stroke-miterlimit:5;stroke-dasharray:none;stroke-opacity:1;paint-order:fill markers stroke" transform="rotate(114.367)skewX(-.062)"/><rect width="0.77059895" height="3.8529952" x="-441.02249" y="472.65375" rx="0.033072915" ry="0.033072915" style="fill:#1f1f1f;fill-opacity:1;stroke:#1f1f1f;stroke-width:.1;stroke-linecap:round;stroke-linejoin:round;stroke-dasharray:none;stroke-opacity:1;stop-color:#000" transform="rotate(-66.096)"/></g><g style="stroke-width:.823847" transform="matrix(-.00322 -1.2122 -1.21542 .00323 172.075 789.223)"><path d="M123.482-71.876h26.746v10.45h-26.746z" style="fill:#3e3e3e;fill-opacity:1;stroke:#1f1f1f;stroke-width:1.20446;stroke-linecap:round;stroke-linejoin:round;stroke-miterlimit:5;stroke-dasharray:none;stroke-opacity:1;paint-order:fill markers stroke"/><rect width="1.4225521" height="1.4225521" x="124.85281" y="-70.560158" rx="0.37796232" ry="0.37696275" style="fill:#606060;fill-opacity:1;stroke:none;stroke-width:2.08737;stroke-linecap:round;stroke-linejoin:round;stroke-miterlimit:5;stroke-dasharray:none;stroke-opacity:1;paint-order:fill markers stroke"/><rect width="1.4225521" height="1.4225521" x="124.85281" y="-63.819275" rx="0.37796232" ry="0.37696275" style="fill:#606060;fill-opacity:1;stroke:none;stroke-width:2.08737;stroke-linecap:round;stroke-linejoin:round;stroke-miterlimit:5;stroke-dasharray:none;stroke-opacity:1;paint-order:fill markers stroke"/><rect width="1.4225521" height="1.4225521" x="126.55887" y="-63.885872" rx="0.37796232" ry="0.37696275" style="fill:#606060;fill-opacity:1;stroke:none;stroke-width:2.08737;stroke-linecap:round;stroke-linejoin:round;stroke-miterlimit:5;stroke-dasharray:none;stroke-opacity:1;paint-order:fill markers stroke"/><rect width="1.4225521" height="1.4225521" x="128.26492" y="-63.885872" rx="0.37796232" ry="0.37696275" style="fill:#606060;fill-opacity:1;stroke:none;stroke-width:2.08737;stroke-linecap:round;stroke-linejoin:round;stroke-miterlimit:5;stroke-dasharray:none;stroke-opacity:1;paint-order:fill markers stroke"/><rect width="1.4225521" height="1.4225521" x="129.97098" y="-63.885872" rx="0.37796232" ry="0.37696275" style="fill:#606060;fill-opacity:1;stroke:none;stroke-width:2.08737;stroke-linecap:round;stroke-linejoin:round;stroke-miterlimit:5;stroke-dasharray:none;stroke-opacity:1;paint-order:fill markers stroke"/><rect width="1.4225521" height="1.4225521" x="141.91336" y="-63.849945" rx="0.37796232" ry="0.37696275" style="fill:#606060;fill-opacity:1;stroke:none;stroke-width:2.08737;stroke-linecap:round;stroke-linejoin:round;stroke-miterlimit:5;stroke-dasharray:none;stroke-opacity:1;paint-order:fill markers stroke"/><rect width="1.4225521" height="1.4225521" x="143.61942" y="-63.85331" rx="0.37796232" ry="0.37696275" style="fill:#606060;fill-opacity:1;stroke:none;stroke-width:2.08737;stroke-linecap:round;stroke-linejoin:round;stroke-miterlimit:5;stroke-dasharray:none;stroke-opacity:1;paint-order:fill markers stroke"/><rect width="1.4225521" height="1.4225521" x="145.32547" y="-63.826004" rx="0.37796232" ry="0.37696275" style="fill:#606060;fill-opacity:1;stroke:none;stroke-width:2.08737;stroke-linecap:round;stroke-linejoin:round;stroke-miterlimit:5;stroke-dasharray:none;stroke-opacity:1;paint-order:fill markers stroke"/><rect width="1.8662434" height="1.4225521" x="147.03152" y="-63.85331" rx="0.37796232" ry="0.37696275" style="fill:#606060;fill-opacity:1;stroke:none;stroke-width:2.08737;stroke-linecap:round;stroke-linejoin:round;stroke-miterlimit:5;stroke-dasharray:none;stroke-opacity:1;paint-order:fill markers stroke"/><rect width="9.9528255" height="1.4225521" x="131.67703" y="-63.885872" rx="0.37796232" ry="0.37696275" style="fill:#606060;fill-opacity:1;stroke:none;stroke-width:2.08737;stroke-linecap:round;stroke-linejoin:round;stroke-miterlimit:5;stroke-dasharray:none;stroke-opacity:1;paint-order:fill markers stroke"/><rect width="2.2790136" height="1.422554" x="124.86451" y="-68.817917" rx="0.37796232" ry="0.37696275" style="fill:#606060;fill-opacity:1;stroke:none;stroke-width:2.08737;stroke-linecap:round;stroke-linejoin:round;stroke-miterlimit:5;stroke-dasharray:none;stroke-opacity:1;paint-order:fill markers stroke"/><rect width="2.7233503" height="1.422554" x="124.85281" y="-67.192596" rx="0.37796232" ry="0.37696275" style="fill:#606060;fill-opacity:1;stroke:none;stroke-width:2.08737;stroke-linecap:round;stroke-linejoin:round;stroke-miterlimit:5;stroke-dasharray:none;stroke-opacity:1;paint-order:fill markers stroke"/><rect width="3.4121094" height="1.422554" x="124.85281" y="-65.505936" rx="0.37796232" ry="0.37696275" style="fill:#606060;fill-opacity:1;stroke:none;stroke-width:2.08737;stroke-linecap:round;stroke-linejoin:round;stroke-miterlimit:5;stroke-dasharray:none;stroke-opacity:1;paint-order:fill markers stroke"/><rect width="3.9559498" height="1.4292831" x="144.94182" y="-65.512665" rx="0.37796232" ry="0.37696275" style="fill:#606060;fill-opacity:1;stroke:none;stroke-width:2.08737;stroke-linecap:round;stroke-linejoin:round;stroke-miterlimit:5;stroke-dasharray:none;stroke-opacity:1;paint-order:fill markers stroke"/><rect width="1.4225521" height="1.4225521" x="126.55887" y="-70.560158" rx="0.37796232" ry="0.37696275" style="fill:#606060;fill-opacity:1;stroke:none;stroke-width:2.08737;stroke-linecap:round;stroke-linejoin:round;stroke-miterlimit:5;stroke-dasharray:none;stroke-opacity:1;paint-order:fill markers stroke"/><rect width="1.4225521" height="1.4225521" x="127.454" y="-68.817917" rx="0.37796232" ry="0.37696275" style="fill:#606060;fill-opacity:1;stroke:none;stroke-width:2.08737;stroke-linecap:round;stroke-linejoin:round;stroke-miterlimit:5;stroke-dasharray:none;stroke-opacity:1;paint-order:fill markers stroke"/><rect width="1.4225521" height="1.4225521" x="127.943" y="-67.161926" rx="0.37796232" ry="0.37696275" style="fill:#606060;fill-opacity:1;stroke:none;stroke-width:2.08737;stroke-linecap:round;stroke-linejoin:round;stroke-miterlimit:5;stroke-dasharray:none;stroke-opacity:1;paint-order:fill markers stroke"/><rect width="1.4225521" height="1.4225521" x="129.67889" y="-67.161926" rx="0.37796232" ry="0.37696275" style="fill:#606060;fill-opacity:1;stroke:none;stroke-width:2.08737;stroke-linecap:round;stroke-linejoin:round;stroke-miterlimit:5;stroke-dasharray:none;stroke-opacity:1;paint-order:fill markers stroke"/><rect width="1.4225521" height="1.4225521" x="131.37389" y="-67.161926" rx="0.37796232" ry="0.37696275" style="fill:#606060;fill-opacity:1;stroke:none;stroke-width:2.08737;stroke-linecap:round;stroke-linejoin:round;stroke-miterlimit:5;stroke-dasharray:none;stroke-opacity:1;paint-order:fill markers stroke"/><rect width="1.4225521" height="1.4225521" x="133.06888" y="-67.161926" rx="0.37796232" ry="0.37696275" style="fill:#606060;fill-opacity:1;stroke:none;stroke-width:2.08737;stroke-linecap:round;stroke-linejoin:round;stroke-miterlimit:5;stroke-dasharray:none;stroke-opacity:1;paint-order:fill markers stroke"/><rect width="1.4225521" height="1.4225521" x="134.76387" y="-67.161926" rx="0.37796232" ry="0.37696275" style="fill:#606060;fill-opacity:1;stroke:none;stroke-width:2.08737;stroke-linecap:round;stroke-linejoin:round;stroke-miterlimit:5;stroke-dasharray:none;stroke-opacity:1;paint-order:fill markers stroke"/><rect width="1.4225521" height="1.4225521" x="136.45886" y="-67.161926" rx="0.37796232" ry="0.37696275" style="fill:#606060;fill-opacity:1;stroke:none;stroke-width:2.08737;stroke-linecap:round;stroke-linejoin:round;stroke-miterlimit:5;stroke-dasharray:none;stroke-opacity:1;paint-order:fill markers stroke"/><rect width="1.4225521" height="1.4225521" x="138.15385" y="-67.161926" rx="0.37796232" ry="0.37696275" style="fill:#606060;fill-opacity:1;stroke:none;stroke-width:2.08737;stroke-linecap:round;stroke-linejoin:round;stroke-miterlimit:5;stroke-dasharray:none;stroke-opacity:1;paint-order:fill markers stroke"/><rect width="1.4225521" height="1.4225521" x="139.84885" y="-67.161926" rx="0.37796232" ry="0.37696275" style="fill:#606060;fill-opacity:1;stroke:none;stroke-width:2.08737;stroke-linecap:round;stroke-linejoin:round;stroke-miterlimit:5;stroke-dasharray:none;stroke-opacity:1;paint-order:fill markers stroke"/><rect width="1.4225521" height="1.4225521" x="141.54384" y="-67.161926" rx="0.37796232" ry="0.37696275" style="fill:#606060;fill-opacity:1;stroke:none;stroke-width:2.08737;stroke-linecap:round;stroke-linejoin:round;stroke-miterlimit:5;stroke-dasharray:none;stroke-opacity:1;paint-order:fill markers stroke"/><rect width="1.4225521" height="1.4225521" x="143.23883" y="-67.165291" rx="0.37796232" ry="0.37696275" style="fill:#606060;fill-opacity:1;stroke:none;stroke-width:2.08737;stroke-linecap:round;stroke-linejoin:round;stroke-miterlimit:5;stroke-dasharray:none;stroke-opacity:1;paint-order:fill markers stroke"/><rect width="1.4225521" height="1.4225521" x="128.65428" y="-65.505936" rx="0.37796232" ry="0.37696275" style="fill:#606060;fill-opacity:1;stroke:none;stroke-width:2.08737;stroke-linecap:round;stroke-linejoin:round;stroke-miterlimit:5;stroke-dasharray:none;stroke-opacity:1;paint-order:fill markers stroke"/><rect width="1.4225521" height="1.4225521" x="130.46619" y="-65.505936" rx="0.37796232" ry="0.37696275" style="fill:#606060;fill-opacity:1;stroke:none;stroke-width:2.08737;stroke-linecap:round;stroke-linejoin:round;stroke-miterlimit:5;stroke-dasharray:none;stroke-opacity:1;paint-order:fill markers stroke"/><rect width="1.4225521" height="1.4225521" x="132.27809" y="-65.505936" rx="0.37796232" ry="0.37696275" style="fill:#606060;fill-opacity:1;stroke:none;stroke-width:2.08737;stroke-linecap:round;stroke-linejoin:round;stroke-miterlimit:5;stroke-dasharray:none;stroke-opacity:1;paint-order:fill markers stroke"/><rect width="1.4225521" height="1.4225521" x="134.09" y="-65.505936" rx="0.37796232" ry="0.37696275" style="fill:#606060;fill-opacity:1;stroke:none;stroke-width:2.08737;stroke-linecap:round;stroke-linejoin:round;stroke-miterlimit:5;stroke-dasharray:none;stroke-opacity:1;paint-order:fill markers stroke"/><rect width="1.4225521" height="1.4225521" x="135.9019" y="-65.505936" rx="0.37796232" ry="0.37696275" style="fill:#606060;fill-opacity:1;stroke:none;stroke-width:2.08737;stroke-linecap:round;stroke-linejoin:round;stroke-miterlimit:5;stroke-dasharray:none;stroke-opacity:1;paint-order:fill markers stroke"/><rect width="1.4225521" height="1.4225521" x="137.71381" y="-65.505936" rx="0.37796232" ry="0.37696275" style="fill:#606060;fill-opacity:1;stroke:none;stroke-width:2.08737;stroke-linecap:round;stroke-linejoin:round;stroke-miterlimit:5;stroke-dasharray:none;stroke-opacity:1;paint-order:fill markers stroke"/><rect width="1.4225521" height="1.4225521" x="139.52571" y="-65.505936" rx="0.37796232" ry="0.37696275" style="fill:#606060;fill-opacity:1;stroke:none;stroke-width:2.08737;stroke-linecap:round;stroke-linejoin:round;stroke-miterlimit:5;stroke-dasharray:none;stroke-opacity:1;paint-order:fill markers stroke"/><rect width="1.4225521" height="1.4225521" x="141.33762" y="-65.505936" rx="0.37796232" ry="0.37696275" style="fill:#606060;fill-opacity:1;stroke:none;stroke-width:2.08737;stroke-linecap:round;stroke-linejoin:round;stroke-miterlimit:5;stroke-dasharray:none;stroke-opacity:1;paint-order:fill markers stroke"/><rect width="1.4225521" height="1.4225521" x="143.14952" y="-65.512665" rx="0.37796232" ry="0.37696275" style="fill:#606060;fill-opacity:1;stroke:none;stroke-width:2.08737;stroke-linecap:round;stroke-linejoin:round;stroke-miterlimit:5;stroke-dasharray:none;stroke-opacity:1;paint-order:fill markers stroke"/><rect width="1.4225521" height="1.4225521" x="129.16005" y="-68.817917" rx="0.37796232" ry="0.37696275" style="fill:#606060;fill-opacity:1;stroke:none;stroke-width:2.08737;stroke-linecap:round;stroke-linejoin:round;stroke-miterlimit:5;stroke-dasharray:none;stroke-opacity:1;paint-order:fill markers stroke"/><rect width="1.4225521" height="1.4225521" x="130.8661" y="-68.817917" rx="0.37796232" ry="0.37696275" style="fill:#606060;fill-opacity:1;stroke:none;stroke-width:2.08737;stroke-linecap:round;stroke-linejoin:round;stroke-miterlimit:5;stroke-dasharray:none;stroke-opacity:1;paint-order:fill markers stroke"/><rect width="1.4225521" height="1.4225521" x="132.57216" y="-68.817917" rx="0.37796232" ry="0.37696275" style="fill:#606060;fill-opacity:1;stroke:none;stroke-width:2.08737;stroke-linecap:round;stroke-linejoin:round;stroke-miterlimit:5;stroke-dasharray:none;stroke-opacity:1;paint-order:fill markers stroke"/><rect width="1.4225521" height="1.4225521" x="134.27821" y="-68.817917" rx="0.37796232" ry="0.37696275" style="fill:#606060;fill-opacity:1;stroke:none;stroke-width:2.08737;stroke-linecap:round;stroke-linejoin:round;stroke-miterlimit:5;stroke-dasharray:none;stroke-opacity:1;paint-order:fill markers stroke"/><rect width="1.4225521" height="1.4225521" x="135.98427" y="-68.817917" rx="0.37796232" ry="0.37696275" style="fill:#606060;fill-opacity:1;stroke:none;stroke-width:2.08737;stroke-linecap:round;stroke-linejoin:round;stroke-miterlimit:5;stroke-dasharray:none;stroke-opacity:1;paint-order:fill markers stroke"/><rect width="1.4225521" height="1.4225521" x="137.69032" y="-68.817917" rx="0.37796232" ry="0.37696275" style="fill:#606060;fill-opacity:1;stroke:none;stroke-width:2.08737;stroke-linecap:round;stroke-linejoin:round;stroke-miterlimit:5;stroke-dasharray:none;stroke-opacity:1;paint-order:fill markers stroke"/><rect width="1.4225521" height="1.4225521" x="139.39638" y="-68.817917" rx="0.37796232" ry="0.37696275" style="fill:#606060;fill-opacity:1;stroke:none;stroke-width:2.08737;stroke-linecap:round;stroke-linejoin:round;stroke-miterlimit:5;stroke-dasharray:none;stroke-opacity:1;paint-order:fill markers stroke"/><rect width="1.4225521" height="1.4225521" x="141.10243" y="-68.817917" rx="0.37796232" ry="0.37696275" style="fill:#606060;fill-opacity:1;stroke:none;stroke-width:2.08737;stroke-linecap:round;stroke-linejoin:round;stroke-miterlimit:5;stroke-dasharray:none;stroke-opacity:1;paint-order:fill markers stroke"/><rect width="1.4225521" height="1.4225521" x="142.80849" y="-68.817917" rx="0.37796232" ry="0.37696275" style="fill:#606060;fill-opacity:1;stroke:none;stroke-width:2.08737;stroke-linecap:round;stroke-linejoin:round;stroke-miterlimit:5;stroke-dasharray:none;stroke-opacity:1;paint-order:fill markers stroke"/><rect width="1.4225521" height="1.4225521" x="144.51454" y="-68.862724" rx="0.37796232" ry="0.37696275" style="fill:#606060;fill-opacity:1;stroke:none;stroke-width:2.08737;stroke-linecap:round;stroke-linejoin:round;stroke-miterlimit:5;stroke-dasharray:none;stroke-opacity:1;paint-order:fill markers stroke"/><rect width="1.4225521" height="1.4225521" x="128.26492" y="-70.560158" rx="0.37796232" ry="0.37696275" style="fill:#606060;fill-opacity:1;stroke:none;stroke-width:2.08737;stroke-linecap:round;stroke-linejoin:round;stroke-miterlimit:5;stroke-dasharray:none;stroke-opacity:1;paint-order:fill markers stroke"/><rect width="1.4225521" height="1.4225521" x="129.97098" y="-70.560158" rx="0.37796232" ry="0.37696275" style="fill:#606060;fill-opacity:1;stroke:none;stroke-width:2.08737;stroke-linecap:round;stroke-linejoin:round;stroke-miterlimit:5;stroke-dasharray:none;stroke-opacity:1;paint-order:fill markers stroke"/><rect width="1.4225521" height="1.4225521" x="131.67703" y="-70.560158" rx="0.37796232" ry="0.37696275" style="fill:#606060;fill-opacity:1;stroke:none;stroke-width:2.08737;stroke-linecap:round;stroke-linejoin:round;stroke-miterlimit:5;stroke-dasharray:none;stroke-opacity:1;paint-order:fill markers stroke"/><rect width="1.4225521" height="1.4225521" x="133.38309" y="-70.560158" rx="0.37796232" ry="0.37696275" style="fill:#606060;fill-opacity:1;stroke:none;stroke-width:2.08737;stroke-linecap:round;stroke-linejoin:round;stroke-miterlimit:5;stroke-dasharray:none;stroke-opacity:1;paint-order:fill markers stroke"/><rect width="1.4225521" height="1.4225521" x="135.08914" y="-70.560158" rx="0.37796232" ry="0.37696275" style="fill:#606060;fill-opacity:1;stroke:none;stroke-width:2.08737;stroke-linecap:round;stroke-linejoin:round;stroke-miterlimit:5;stroke-dasharray:none;stroke-opacity:1;paint-order:fill markers stroke"/><rect width="1.4225521" height="1.4225521" x="136.7952" y="-70.560158" rx="0.37796232" ry="0.37696275" style="fill:#606060;fill-opacity:1;stroke:none;stroke-width:2.08737;stroke-linecap:round;stroke-linejoin:round;stroke-miterlimit:5;stroke-dasharray:none;stroke-opacity:1;paint-order:fill markers stroke"/><rect width="1.4225521" height="1.4225521" x="138.50125" y="-70.560158" rx="0.37796232" ry="0.37696275" style="fill:#606060;fill-opacity:1;stroke:none;stroke-width:2.08737;stroke-linecap:round;stroke-linejoin:round;stroke-miterlimit:5;stroke-dasharray:none;stroke-opacity:1;paint-order:fill markers stroke"/><rect width="1.4225521" height="1.4225521" x="140.20731" y="-70.560158" rx="0.37796232" ry="0.37696275" style="fill:#606060;fill-opacity:1;stroke:none;stroke-width:2.08737;stroke-linecap:round;stroke-linejoin:round;stroke-miterlimit:5;stroke-dasharray:none;stroke-opacity:1;paint-order:fill markers stroke"/><rect width="1.4225521" height="1.4225521" x="141.91336" y="-70.560158" rx="0.37796232" ry="0.37696275" style="fill:#606060;fill-opacity:1;stroke:none;stroke-width:2.08737;stroke-linecap:round;stroke-linejoin:round;stroke-miterlimit:5;stroke-dasharray:none;stroke-opacity:1;paint-order:fill markers stroke"/><rect width="1.4225521" height="1.4225521" x="143.61942" y="-70.560158" rx="0.37796232" ry="0.37696275" style="fill:#606060;fill-opacity:1;stroke:none;stroke-width:2.08737;stroke-linecap:round;stroke-linejoin:round;stroke-miterlimit:5;stroke-dasharray:none;stroke-opacity:1;paint-order:fill markers stroke"/><rect width="3.5722921" height="1.4225521" x="145.32547" y="-70.560158" rx="0.37796232" ry="0.37696275" style="fill:#606060;fill-opacity:1;stroke:none;stroke-width:2.08737;stroke-linecap:round;stroke-linejoin:round;stroke-miterlimit:5;stroke-dasharray:none;stroke-opacity:1;paint-order:fill markers stroke"/><rect width="3.7476919" height="1.3952484" x="145.15007" y="-67.165291" rx="0.37796232" ry="0.37696275" style="fill:#606060;fill-opacity:1;stroke:none;stroke-width:2.08737;stroke-linecap:round;stroke-linejoin:round;stroke-miterlimit:5;stroke-dasharray:none;stroke-opacity:1;paint-order:fill markers stroke"/><rect width="2.7100525" height="1.4673615" x="146.18771" y="-68.862724" rx="0.37796232" ry="0.37696275" style="fill:#606060;fill-opacity:1;stroke:none;stroke-width:2.08737;stroke-linecap:round;stroke-linejoin:round;stroke-miterlimit:5;stroke-dasharray:none;stroke-opacity:1;paint-order:fill markers stroke"/></g><path d="M176.775 564.402v31.793h17.967V582.29h60.332v60.332h-60.332V628.86h-17.967v31.652h96.11v-96.11z" style="opacity:1;fill:#4d3e28;fill-opacity:1;stroke:#261c0e;stroke-width:2;stroke-linecap:round;stroke-linejoin:round;stroke-dasharray:none;stroke-opacity:1;paint-order:normal;stop-color:#000"/><path d="M193.719 564.071h2.005v19.496h-2.005zm0 76.628h2.005v19.495h-2.005z" style="fill:#261c0e;fill-opacity:1;stroke:none;stroke-width:1.5;stroke-linecap:round;stroke-linejoin:round;stroke-dasharray:none;stroke-opacity:1;stop-color:#000"/><g transform="translate(-39.95 -84.546)scale(1.14878)"><ellipse cx="-572.75635" cy="264.28445" rx="2.9541814" ry="2.9513478" style="fill:#9edfdd;fill-opacity:1;fill-rule:nonzero;stroke:#0e2b2a;stroke-width:.925997;stroke-linecap:round;stroke-linejoin:round;stroke-miterlimit:4;stroke-dasharray:none;stroke-dashoffset:0;stroke-opacity:1;paint-order:normal" transform="rotate(-90)"/><path d="M263.136 571.256a1.111 1.112 0 0 0 1.111 1.112 1.111 1.112 0 0 0 .058-.002 1.111 1.112 0 0 0-.02.214 1.111 1.112 0 0 0 1.11 1.112 1.111 1.112 0 0 0 1.06-.783 1.111 1.112 0 0 0 .603.178 1.111 1.112 0 0 0 1.11-1.112 1.111 1.112 0 0 0-.465-.906 1.111 1.112 0 0 0 .36-.82 1.111 1.112 0 0 0-1.11-1.111 1.111 1.112 0 0 0-.692.241 1.111 1.112 0 0 0-1.063-.786 1.111 1.112 0 0 0-1.11 1.112 1.111 1.112 0 0 0 .091.441 1.111 1.112 0 0 0-1.043 1.11m2.13-.44a1.111 1.112 0 0 0 .625-.241 1.111 1.112 0 0 0 .417.58 1.111 1.112 0 0 0-.31.49 1.111 1.112 0 0 0-.602-.177 1.111 1.112 0 0 0-.059.002 1.111 1.112 0 0 0 .021-.214 1.111 1.112 0 0 0-.092-.44" style="fill:#cb4431;fill-opacity:1;fill-rule:nonzero;stroke:#511b14;stroke-width:.69453;stroke-linecap:round;stroke-linejoin:round;stroke-miterlimit:4;stroke-dasharray:none;stroke-dashoffset:0;stroke-opacity:1;paint-order:normal"/><ellipse cx="-571.1427" cy="265.65323" rx="0.78642541" ry="0.78568619" style="fill:#d3db57;fill-opacity:1;fill-rule:nonzero;stroke:#3c3f0d;stroke-width:.463021;stroke-linecap:round;stroke-linejoin:round;stroke-miterlimit:4;stroke-dasharray:none;stroke-dashoffset:0;stroke-opacity:1;paint-order:normal" transform="rotate(-90)"/><path d="M259.073 572.544a1.111 1.112 0 0 0 1.111 1.112 1.111 1.112 0 0 0 .058-.003 1.111 1.112 0 0 0-.02.214 1.111 1.112 0 0 0 1.11 1.112 1.111 1.112 0 0 0 1.062-.783 1.111 1.112 0 0 0 .602.178 1.111 1.112 0 0 0 1.11-1.112 1.111 1.112 0 0 0-.466-.905 1.111 1.112 0 0 0 .36-.82 1.111 1.112 0 0 0-1.11-1.112 1.111 1.112 0 0 0-.692.241 1.111 1.112 0 0 0-1.062-.786 1.111 1.112 0 0 0-1.11 1.112 1.111 1.112 0 0 0 .09.441 1.111 1.112 0 0 0-1.044 1.11zm2.13-.44a1.111 1.112 0 0 0 .624-.24 1.111 1.112 0 0 0 .418.579 1.111 1.112 0 0 0-.31.491 1.111 1.112 0 0 0-.602-.178 1.111 1.112 0 0 0-.059.001 1.111 1.112 0 0 0 .022-.213 1.111 1.112 0 0 0-.092-.441z" style="fill:#cb4431;fill-opacity:1;fill-rule:nonzero;stroke:#511b14;stroke-width:.694531;stroke-linecap:round;stroke-linejoin:round;stroke-miterlimit:4;stroke-dasharray:none;stroke-dashoffset:0;stroke-opacity:1;paint-order:normal"/><ellipse cx="-572.40063" cy="261.63528" rx="0.78642541" ry="0.78568619" style="fill:#d3db57;fill-opacity:1;fill-rule:nonzero;stroke:#3c3f0d;stroke-width:.463021;stroke-linecap:round;stroke-linejoin:round;stroke-miterlimit:4;stroke-dasharray:none;stroke-dashoffset:0;stroke-opacity:1;paint-order:normal" transform="rotate(-90)"/></g><g style="stroke-width:.823847" transform="matrix(.08744 -1.20906 -1.21225 -.08767 161.574 787.702)"><rect width="12.39454" height="5.7997828" x="133.69124" y="-76.791252" ry="0" style="fill:#3e3e3e;fill-opacity:1;stroke:#1f1f1f;stroke-width:1.20446;stroke-linecap:round;stroke-linejoin:round;stroke-miterlimit:5;stroke-dasharray:none;stroke-opacity:1;paint-order:fill markers stroke"/><rect width="25.303589" height="2.3854015" x="127.23672" y="-75.084053" ry="0" style="fill:#454545;fill-opacity:1;stroke:#1f1f1f;stroke-width:1.20446;stroke-linecap:square;stroke-linejoin:miter;stroke-miterlimit:5;stroke-dasharray:none;stroke-opacity:1;paint-order:fill markers stroke"/></g><g transform="scale(-1 1)rotate(82.874 817.306 -1499.502)"><path d="M2821.12-241.035h11.113v15.345h-11.113z" style="fill:#f3f3f3;fill-opacity:1;stroke:#999;stroke-width:1.2;stroke-linecap:round;stroke-linejoin:round;stroke-dasharray:none;stroke-opacity:1;stop-color:#000"/><rect width="6.2844439" height="0.63391733" x="2822.4607" y="-239.16011" rx="0.033072915" ry="0.033072915" style="fill:#999;fill-opacity:1;stroke:none;stroke-width:1.19372;stroke-linecap:round;stroke-linejoin:round;stroke-miterlimit:5;stroke-dasharray:none;stroke-opacity:1;paint-order:fill markers stroke"/><rect width="8.5498743" height="0.61126661" x="2822.4402" y="-237.68842" rx="0.033072915" ry="0.033072915" style="fill:#999;fill-opacity:1;stroke:none;stroke-width:1.19372;stroke-linecap:round;stroke-linejoin:round;stroke-miterlimit:5;stroke-dasharray:none;stroke-opacity:1;paint-order:fill markers stroke"/><rect width="7.0094404" height="0.64195979" x="2822.4402" y="-236.46472" rx="0.033072915" ry="0.033072915" style="fill:#999;fill-opacity:1;stroke:none;stroke-width:1.19372;stroke-linecap:round;stroke-linejoin:round;stroke-miterlimit:5;stroke-dasharray:none;stroke-opacity:1;paint-order:fill markers stroke"/><rect width="6.998126" height="0.62741202" x="2822.4402" y="-235.20795" rx="0.033072915" ry="0.033072915" style="fill:#999;fill-opacity:1;stroke:none;stroke-width:1.19372;stroke-linecap:round;stroke-linejoin:round;stroke-miterlimit:5;stroke-dasharray:none;stroke-opacity:1;paint-order:fill markers stroke"/><rect width="4.3593278" height="0.60803801" x="2822.5291" y="-234.82678" rx="0.033072878" ry="0.033072911" style="fill:#999;fill-opacity:1;stroke:none;stroke-width:1.19372;stroke-linecap:round;stroke-linejoin:round;stroke-miterlimit:5;stroke-dasharray:none;stroke-opacity:1;paint-order:fill markers stroke" transform="rotate(.041)skewX(.063)"/><rect width="5.4382963" height="0.60314727" x="2822.4402" y="-231.55339" rx="0.033072915" ry="0.033072915" style="fill:#999;fill-opacity:1;stroke:none;stroke-width:1.19372;stroke-linecap:round;stroke-linejoin:round;stroke-miterlimit:5;stroke-dasharray:none;stroke-opacity:1;paint-order:fill markers stroke"/></g><path d="M2744.408-635.302h11.113v15.346h-11.113z" style="fill:#f3f3f3;fill-opacity:1;stroke:#999;stroke-width:1.2;stroke-linecap:round;stroke-linejoin:round;stroke-dasharray:none;stroke-opacity:1;stop-color:#000" transform="scale(1 -1)rotate(-81.745 1502.183 876.976)"/><path d="M2744.408-635.302h11.113v15.346h-11.113z" style="fill:#f3f3f3;fill-opacity:1;stroke:#999;stroke-width:1.2;stroke-linecap:round;stroke-linejoin:round;stroke-dasharray:none;stroke-opacity:1;stop-color:#000" transform="scale(1 -1)rotate(-89.985 1500.227 676.217)"/><path d="M2744.408-635.302h11.113v15.346h-11.113z" style="fill:#f3f3f3;fill-opacity:1;stroke:#999;stroke-width:1.2;stroke-linecap:round;stroke-linejoin:round;stroke-dasharray:none;stroke-opacity:1;stop-color:#000" transform="scale(-1 1)rotate(85.197 625.185 -1629.37)"/><path d="M254.07 564.071h2.005v19.496h-2.006zm0 76.628h2.005v19.495h-2.006z" style="fill:#261c0e;fill-opacity:1;stroke:none;stroke-width:1.5;stroke-linecap:round;stroke-linejoin:round;stroke-dasharray:none;stroke-opacity:1;stop-color:#000"/></g></svg>