<svg xmlns="http://www.w3.org/2000/svg" xmlns:xlink="http://www.w3.org/1999/xlink" width="817.20288" height="878.06622" viewBox="0 0 216.21826 232.32169"><defs><pattern xlink:href="#a" id="b" patternTransform="matrix(.2707 0 0 .2849 612.42 593.076)" preserveAspectRatio="xMidYMid"/><pattern id="a" width="160.17165" height="124.22794" patternTransform="translate(28.632 1028.247)" patternUnits="userSpaceOnUse" preserveAspectRatio="xMidYMid"><g style="stroke-width:1.00593" transform="matrix(1.16485 0 0 .90436 700.022 -1367.97)"><rect width="137.50397" height="137.36168" x="-600.9538" y="1512.641" ry="0" style="fill:#3f2e16;fill-opacity:1;stroke-width:4.04142;paint-order:markers stroke fill"/><path d="M-530.42 1611.65c-.987 0-1.782.793-1.782 1.78v36.574h29.68v-36.574c0-.987-.795-1.78-1.781-1.78zm34.87-24.203a2.273 2.273 0 0 0-2.278 2.28v60.277h29.678v-60.277a2.274 2.274 0 0 0-2.28-2.28zm-68.766-36.955a2.255 2.255 0 0 0-2.26 2.26v97.254h29.68v-97.25a2.255 2.255 0 0 0-2.26-2.26zm32.114-37.852v92.05a2.255 2.255 0 0 0 2.26 2.26h25.16a2.255 2.255 0 0 0 2.26-2.26v-92.049z" style="fill:#9e7437;fill-opacity:1;stroke-width:1.2117;paint-order:markers stroke fill"/><path d="M-597.744 1512.641a3.2 3.2 0 0 0-3.205 3.206v126.319a3.2 3.2 0 0 0 3.205 3.205h23.27a3.2 3.2 0 0 0 3.204-3.205v-126.32a3.2 3.2 0 0 0-3.205-3.205z" style="fill:#9e7437;fill-opacity:1;stroke-width:1.2118;paint-order:markers stroke fill"/><path d="M-566.576 1512.641v31.378c0 .986.796 1.781 1.782 1.781h26.119c.986 0 1.78-.795 1.78-1.781v-31.378zm68.748 0v67.673a2.43 2.43 0 0 0 2.435 2.436h24.807a2.43 2.43 0 0 0 2.436-2.436v-67.673z" style="fill:#9e7437;fill-opacity:1;stroke-width:1.2117;paint-order:markers stroke fill"/></g></pattern></defs><g transform="translate(-613.602 -587.203)"><path d="M800.474 770.256h56.341v25.948h-56.341z" style="display:inline;fill:gray;fill-opacity:1;stroke-width:.481827;stroke-opacity:.575758;paint-order:markers stroke fill;stop-color:#000"/><g style="stroke-width:1.00593"><path d="M610.665 583.26h393.225v223.136H610.665z" style="fill:url(#b);stroke:none;stroke-width:.279354" transform="matrix(.97744 0 0 .92867 19.25 47.965)"/></g><rect width="116.6153" height="195.76112" x="619.46289" y="593.72327" rx="0" ry="0" style="fill:#5f5f63;fill-opacity:1;stroke-width:1.11519;paint-order:stroke fill markers"/><path d="M595.816-733.866h58.663v111.874h-58.663z" style="display:inline;fill:#4c4c4c;fill-opacity:1;stroke-width:.188352;-inkscape-stroke:none;paint-order:markers stroke fill;stop-color:#000" transform="rotate(90)"/><path d="M-997.537-669.39h148.693v72.82h-148.693z" style="display:inline;fill:#4c4c4c;fill-opacity:1;stroke-width:.241932;-inkscape-stroke:none;paint-order:markers stroke fill;stop-color:#000" transform="scale(-1)"/><path d="M736.407-733.866h52.156v111.874h-52.156z" style="display:inline;fill:#4c4c4c;fill-opacity:1;stroke-width:.177599;-inkscape-stroke:none;paint-order:markers stroke fill;stop-color:#000" transform="rotate(90)"/><rect width="9.9885378" height="58.911995" x="-804.89691" y="-935.17279" rx="2.6860566" ry="2.6860566" style="fill:#333;fill-opacity:1;stroke-width:.970411;stroke-linecap:square;stop-color:#000" transform="scale(1 -1)rotate(90)"/><rect width="53.046921" height="3.7421968" x="879.19342" y="-802.74658" rx="1.1133809" ry="1.1133809" style="display:inline;fill:#656565;fill-opacity:1;stroke-width:.223198" transform="scale(1 -1)"/><path d="M800.474 794.573h27.541v25.948h-27.541z" style="display:inline;fill:#4d4d4d;stroke-width:.481827;stroke-opacity:.575758;paint-order:markers stroke fill;stop-color:#000"/><path d="M801.796 796.04h24.573v23.151h-24.573z" style="display:inline;fill:#666;stroke-width:.42989;stroke-opacity:.575758;paint-order:markers stroke fill;stop-color:#000"/><path d="M827.814 794.571h27.542v25.948h-27.542z" style="display:inline;fill:#4d4d4d;stroke-width:.481827;stroke-opacity:.575758;paint-order:markers stroke fill;stop-color:#000"/><path d="M829.137 796.039h24.573v23.15h-24.573z" style="display:inline;fill:#666;stroke-width:.42989;stroke-opacity:.575758;paint-order:markers stroke fill;stop-color:#000"/><path d="M-598.333 613.668h11.13v392.41h-11.13z" style="fill:#262626;fill-opacity:1;stroke:none;stroke-width:1.76069;stroke-linejoin:round;stroke-dasharray:none;stroke-opacity:1;stop-color:#000" transform="rotate(-90)"/><rect width="6.2327733" height="385.20218" x="-595.89343" y="616.87067" rx="1.2432752" ry="1.2432753" style="fill:#606060;fill-opacity:1;stroke:none;stroke-width:1.51277;stroke-linejoin:round;stroke-dasharray:none;stroke-opacity:1;stop-color:#000" transform="rotate(-90)"/><path d="M-1006.053-796.553h11.13v198.885h-11.13zm381.321 0h11.13v198.885h-11.13z" style="fill:#262626;fill-opacity:1;stroke:none;stroke-width:1.25347;stroke-linejoin:round;stroke-dasharray:none;stroke-opacity:1;stop-color:#000" transform="scale(-1)"/><path d="M-796.84 613.637h11.13v187.411h-11.13z" style="fill:#262626;fill-opacity:1;stroke:none;stroke-width:1.21677;stroke-linejoin:round;stroke-dasharray:none;stroke-opacity:1;stop-color:#000" transform="rotate(-90)"/><rect width="6.2327733" height="181.623" x="-794.40051" y="616.87067" rx="1.2432752" ry="1.2432752" style="fill:#606060;fill-opacity:1;stroke:none;stroke-width:1.03876;stroke-linejoin:round;stroke-dasharray:none;stroke-opacity:1;stop-color:#000" transform="rotate(-90)"/><path d="M-796.84 854.347h11.13v151.706h-11.13z" style="fill:#262626;fill-opacity:1;stroke:none;stroke-width:1.09474;stroke-linejoin:round;stroke-dasharray:none;stroke-opacity:1;stop-color:#000" transform="rotate(-90)"/><rect width="6.2327733" height="20.054592" x="-794.40051" y="856.78644" rx="1.2432752" ry="1.2432752" style="fill:#606060;fill-opacity:1;stroke:none;stroke-width:.356206;stroke-linejoin:round;stroke-dasharray:none;stroke-opacity:1;stop-color:#000" transform="rotate(-90)"/><rect width="6.2327733" height="69.127945" x="-794.40051" y="934.54669" rx="1.2432752" ry="1.2432752" style="fill:#606060;fill-opacity:1;stroke:none;stroke-width:.648053;stroke-linejoin:round;stroke-dasharray:none;stroke-opacity:1;stop-color:#000" transform="rotate(-90)"/><rect width="6.2327733" height="204.78781" x="-622.36871" y="-794.40839" rx="1.2432752" ry="1.243275" style="fill:#606060;fill-opacity:1;stroke:none;stroke-width:1.10301;stroke-linejoin:round;stroke-dasharray:none;stroke-opacity:1;stop-color:#000" transform="scale(-1)"/><rect width="10.953908" height="55.320217" x="730.50403" y="732.04126" ry="0" style="fill:#262626;fill-opacity:1;stroke:none;stroke-width:.673584;stroke-linejoin:round;stroke-dasharray:none;stroke-opacity:1;stop-color:#000"/><rect width="6.2327733" height="58.795589" x="732.76788" y="732.21558" rx="0" ry="0" style="fill:#606060;fill-opacity:1;stroke:none;stroke-width:.591019;stroke-linejoin:round;stroke-dasharray:none;stroke-opacity:1;stop-color:#000"/><path d="M-741.458-654.546h11.13v57.043h-11.13z" style="fill:#262626;fill-opacity:1;stroke:none;stroke-width:.671289;stroke-linejoin:round;stroke-dasharray:none;stroke-opacity:1;stop-color:#000" transform="scale(-1)"/><rect width="6.2327733" height="59.512039" x="-739.01807" y="-652.1062" rx="0" ry="0" style="fill:#606060;fill-opacity:1;stroke:none;stroke-width:.594609;stroke-linejoin:round;stroke-dasharray:none;stroke-opacity:1;stop-color:#000" transform="scale(-1)"/><circle cx="678.55798" cy="695.80499" r="29.461506" style="fill:none;fill-opacity:1;stroke:#4c4c4c;stroke-width:3.34568;stroke-linejoin:miter;stroke-dasharray:none;stroke-opacity:1;stop-color:#000"/><path fill="none" d="M696.86 679.773c-2.467 32.695-10.757 35.539-18.629 40.824-7.871-5.17-16.161-8.129-18.629-40.824 6.505-.428 13.087-.7 18.63-4.958 5.541 4.165 12.123 4.53 18.628 4.958z" style="fill:#000;fill-opacity:0;fill-rule:nonzero;stroke:#4c4c4c;stroke-width:3.27825;stroke-linejoin:round;stroke-dasharray:none;stroke-opacity:1"/><path d="M670.929 677.401v10.577h-11.027v3.055h11.027v25.034h3.054v-25.034h21.786v-3.055h-21.786v-10.577z" style="fill:#4c4c4c;fill-opacity:1;fill-rule:nonzero;stroke:none;stroke-width:0;stroke-linejoin:round;stroke-dasharray:none;stroke-opacity:1"/><path d="M662.998 848.844h11.13v157.21h-11.13z" style="fill:#262626;fill-opacity:1;stroke:none;stroke-width:1.2419;stroke-linejoin:round;stroke-dasharray:none;stroke-opacity:1;stop-color:#000" transform="matrix(0 1 1 0 0 0)"/><rect width="6.2327733" height="152.43193" x="665.36133" y="851.16266" rx="1.2432752" ry="1.0334479" style="fill:#606060;fill-opacity:1;stroke:none;stroke-width:1.0585;stroke-linejoin:round;stroke-dasharray:none;stroke-opacity:1;stop-color:#000" transform="matrix(0 1 1 0 0 0)"/><rect width="6.2327733" height="204.72086" x="-1003.6897" y="-794.38483" rx="1.2432752" ry="1.243275" style="fill:#606060;fill-opacity:1;stroke:none;stroke-width:1.10283;stroke-linejoin:round;stroke-dasharray:none;stroke-opacity:1;stop-color:#000" transform="scale(-1)"/><path d="m731.157 732.205 1.05-1.425 4.89 1.416 3.552-.199m-9.822-80.15 6.156 1.406 1.518.656 1.304-2.414" style="opacity:.99;fill:#262626;stroke:#262626;stroke-width:.964935;stroke-linecap:round;paint-order:stroke fill markers"/><path d="m731.833 643.558 1.384 5.932.646 1.462-2.377 1.257m8.396 88.144-1.385-5.932-.646-1.462 2.377-1.257" style="opacity:.99;fill:#262626;stroke:#262626;stroke-width:.939914;stroke-linecap:round;paint-order:stroke fill markers"/></g><g transform="translate(129.565 -31.485)"><circle cx="119.77596" cy="61.056477" r="7.7281671" style="opacity:.4;fill:none;fill-opacity:1;stroke:#000;stroke-width:1.477;stroke-linejoin:miter;stroke-dasharray:none;stroke-opacity:1;stop-color:#000"/><path d="M115.65 56.538h1.356l2.713 4.218h.114l2.713-4.218h1.357l-3.535 5.313v3.724h-1.184v-3.724Z" aria-label="Y" style="font-size:12.9279px;font-family:Inter;-inkscape-font-specification:Inter;opacity:.4;stroke-width:1.477"/></g><g transform="translate(125.522 -31.485)"><path d="M175.929 56.476h1.185v6.46q0 .865-.344 1.47-.344.604-.97.918-.626.313-1.476.313-.802 0-1.428-.27-.625-.273-.984-.776-.358-.503-.358-1.196h1.165q0 .384.206.671.21.282.573.441t.826.16q.511 0 .87-.2.358-.198.544-.582.191-.388.191-.949z" aria-label="J" style="font-size:12.9279px;font-family:Inter;-inkscape-font-specification:Inter;opacity:.4;stroke-width:1.477"/><circle cx="174.3338" cy="61.056473" r="7.7281671" style="opacity:.4;fill:none;fill-opacity:1;stroke:#000;stroke-width:1.477;stroke-linejoin:miter;stroke-dasharray:none;stroke-opacity:1;stop-color:#000"/></g><g transform="translate(125.848 -31.485)"><path d="M196.4 65.575v-9.037h1.184v8.066h4.547v.971z" aria-label="L" style="font-size:12.9279px;font-family:Inter;-inkscape-font-specification:Inter;opacity:.4;stroke-width:1.477"/><circle cx="199.26489" cy="61.056473" r="7.7281671" style="opacity:.4;fill:none;fill-opacity:1;stroke:#000;stroke-width:1.477;stroke-linejoin:miter;stroke-dasharray:none;stroke-opacity:1;stop-color:#000"/></g><g transform="translate(126.752 -31.485)"><circle cx="147.84698" cy="61.056473" r="7.7281671" style="opacity:.4;fill:none;fill-opacity:1;stroke:#000;stroke-width:1.477;stroke-linejoin:miter;stroke-dasharray:none;stroke-opacity:1;stop-color:#000"/><path d="M152.165 62.266q0 1.43-.56 2.47-.558 1.042-1.532 1.607-.975.565-2.226.565t-2.226-.565-1.533-1.606-.559-2.471.56-2.472q.558-1.041 1.532-1.606.975-.565 2.226-.565t2.226.565q.974.565 1.533 1.606t.559 2.472m-1.147 0q0-1.174-.425-1.982-.42-.807-1.141-1.222-.717-.415-1.605-.415t-1.61.415q-.716.415-1.141 1.222-.42.808-.42 1.982t.42 1.98q.425.808 1.141 1.223.722.415 1.61.415t1.605-.415q.721-.415 1.141-1.222.425-.808.425-1.981m-4.547-5.649q-.3 0-.534-.212-.23-.216-.23-.494 0-.304.23-.503.234-.203.534-.203.33 0 .545.203.22.199.22.503 0 .278-.22.494-.215.212-.545.212m2.752 0q-.301 0-.535-.212-.23-.216-.23-.494 0-.304.23-.503.234-.203.535-.203.33 0 .544.203.22.199.22.503 0 .278-.22.494-.215.212-.544.212" aria-label="Ö" style="font-size:12.9279px;font-family:Inter;-inkscape-font-specification:Inter;opacity:.4;stroke-width:1.477"/></g></svg>