<svg xmlns="http://www.w3.org/2000/svg" width="519.06757" height="441.91946" viewBox="0 0 137.33664 116.92453"><defs><radialGradient id="a" cx="141.73535" cy="145.99023" r="104.41504" gradientTransform="matrix(.33989 0 0 .32824 -28.308 -31.714)" gradientUnits="userSpaceOnUse"><stop offset="0" stop-opacity=".9"/><stop offset="1" stop-opacity=".3"/></radialGradient></defs><path d="M-1751.783 712.03v446.964h268.931V712.03Zm95.956 19.726 30.344 5.929 10.283 30.055-37.567-23.324zm30.048 173.384 64.355 21.37-45.196 1.473-27.51 12.036-28.001-4.176zm-84.355 140.089 40.295 14.242-10.769 36.126 10.074 12.158-26.053 24.663-13.547-36.82 10.769-28.833z" style="opacity:1;fill:#405f3a;fill-opacity:1;stroke:#1f2d1a;stroke-width:2.00698;stroke-linejoin:round;stroke-dasharray:none;stroke-opacity:1;stop-color:#000" transform="matrix(.5 0 0 .5 877.383 -463.946)"/><path d="M-1752.753 711.362h271.435v10.618h-271.435zm0 25.704v10.619h105.252l-5.266-3.27-1.776-7.349zm124.104 0 3.166.619 3.421 10h140.744v-10.619zm-124.104 26.07v10.618h271.435v-10.618h-135.457l1.575 4.604-7.415-4.604zm0 26.088h271.435v10.618h-271.435zm0 25.704h271.435v10.619h-271.435zm0 26.07h271.435v10.618h-271.435zm0 24.859h271.435v10.619h-271.435zm0 25.705h271.435v10.619h-271.435zm0 26.07v10.618h99.611l12.573-10.618zm164.594 0 26.735 8.877-45.196 1.474-.61.267h125.912v-10.618zm-164.594 26.088h271.435v10.618h-271.435zm0 25.704h271.435v10.619h-271.435zm0 26.07h271.435v10.618h-271.435zm0 23.488h271.435v10.618h-271.435zm0 25.704v10.619h47.657l-5.038-10.076 28.507 10.076h200.31v-10.619zm0 26.07v10.618h47.931l3.966-10.618zm79.55 0-3.165 10.618h195.05v-10.618zm-79.55 26.088v10.618h46.984l-3.907-10.618zm73.178 0 8.798 10.618h189.46v-10.618zm-73.178 25.705v10.618h271.435v-10.618h-204.843l-10.426 9.87-3.63-9.87zm0 26.069h271.435v10.618h-271.435z" style="fill:#486c42;fill-opacity:1;fill-rule:evenodd;stroke:#1f2d1a;stroke-width:2.44811;stroke-linecap:round;stroke-linejoin:round;stroke-dasharray:none;stroke-opacity:1" transform="matrix(.5 0 0 .5 877.383 -463.946)"/><path d="M708.853 1623.803h33.742l25.145-8.603-5.342 8.603h143.397l5.447-16.402H708.853Zm219.472-16.402 7.176 16.402h225.697v-16.402z" style="fill:#486c42;fill-opacity:1;fill-rule:evenodd;stroke:#1f2d1a;stroke-width:2.19307;stroke-linecap:round;stroke-linejoin:round;stroke-dasharray:none;stroke-opacity:1" transform="rotate(90 670.665 206.719)scale(.5)"/><path fill="url(#a)" d="M20.214-18.067 17.522-.973a18.11 18.503 0 0 0-.232.051L9.501-12.069l2.06 13.086-7.243-6.923 3.86 9.42a18.11 18.503 0 0 0-.147.15L-7.799-.985l12.222 9.34a18.11 18.503 0 0 0-.289.541l-7.681-1.255 6.897 3.063a18.11 18.503 0 0 0-.006.016l-15.429 1.594 14.297 6.521a18.11 18.503 0 0 0 .028.413l-10.243 2.693 9.187.386-16.807 11.94 20.17-6.811-9.797 13.786L8.464 31.5 6.072 46.702l8.372-11.886a18.11 18.503 0 0 0 .708.263l2.629 15.401 3.622-14.211 4.42 8.958-.822-7.95 11.001 10.548-4.95-15.743a18.11 18.503 0 0 0 .77-.59l9.153 4.636-4.752-8.436 19.132 5.445-16.959-11.169 12.392-1.37-12.473-3.662a18.11 18.503 0 0 0-.008-.305l14.75-9.767-16.866 1.743a18.11 18.503 0 0 0-.249-.45l5.206-5.66-6.421 2.96 11.794-16.74L30.543 2.125a18.11 18.503 0 0 0-.547-.374l4.45-9.155-7.624 7.5a18.11 18.503 0 0 0-.136-.054l2.44-11.491L23.452-.883a18.11 18.503 0 0 0-.547-.097z" style="fill:url(#a);stroke-width:.707249" transform="translate(70.774 46.567)"/></svg>