<svg xmlns="http://www.w3.org/2000/svg" width="213.07071mm" height="72.59861mm" viewBox="0 0 213.07071 72.598609"><g transform="translate(-74.862 86.457)"><g style="stroke:#4f3721;stroke-opacity:1"><path d="M-22.553 200.908h37.774v12.25h-37.774zm37.846 0h37.773v12.25H15.293zm-45.106 0h7.22v12.25h-7.22zm0-9.507h25.141v9.485h-25.141Z" style="fill:#845c38;stroke-width:1.5;stroke-linecap:round;stop-color:#000" transform="translate(0 -1.526)"/><path d="M-4.598 191.401h37.774v9.485H-4.598zm37.846 0H71.02v9.485H33.248z" style="fill:#845c38;fill-opacity:1;stroke:#4f3721;stroke-width:1.5;stroke-linecap:round;stroke-linejoin:miter;stroke-dasharray:none;stroke-opacity:1;stop-color:#000" transform="translate(0 -1.526)"/><path d="M-29.813 181.9h12.79v9.485h-12.79zm0-9.507H8.374v9.485h-38.187Z" style="fill:#845c38;stroke-width:1.5;stroke-linecap:round;stop-color:#000" transform="translate(0 -1.526)"/><path d="M8.447 172.393h37.774v9.485H8.447z" style="fill:#845c38;fill-opacity:1;stroke:#4f3721;stroke-width:1.5;stroke-linecap:round;stroke-linejoin:miter;stroke-dasharray:none;stroke-opacity:1;stop-color:#000" transform="translate(0 -1.526)"/><path d="M46.293 172.393h33.802v9.485H46.293Zm-76.106-9.512H.325v9.485h-30.138Z" style="fill:#845c38;stroke-width:1.5;stroke-linecap:round;stop-color:#000" transform="translate(0 -1.526)"/><path d="M.4 162.881h37.773v9.485H.399zm14.893-9.506h37.773v9.485H15.293z" style="fill:#845c38;fill-opacity:1;stroke:#4f3721;stroke-width:1.5;stroke-linecap:round;stroke-linejoin:miter;stroke-dasharray:none;stroke-opacity:1;stop-color:#000" transform="translate(0 -1.526)"/><path d="M-29.813 153.375h7.22v9.485h-7.22zm0-9.506h25.141v9.484h-25.141Z" style="fill:#845c38;stroke-width:1.5;stroke-linecap:round;stop-color:#000" transform="translate(0 -1.526)"/><path d="M-4.598 143.869h37.774v9.484H-4.598zm37.846 0H71.02v9.484H33.248z" style="fill:#845c38;fill-opacity:1;stroke:#4f3721;stroke-width:1.5;stroke-linecap:round;stroke-linejoin:miter;stroke-dasharray:none;stroke-opacity:1;stop-color:#000" transform="translate(0 -1.526)"/><path d="M20.897 134.366h37.774v9.485H20.897zm25.396-9.506h33.802v9.485H46.293Zm-25.396-9.487h17.276v9.485H20.897Z" style="fill:#845c38;stroke-width:1.5;stroke-linecap:round;stop-color:#000" transform="translate(0 -1.526)"/><path d="M38.245 115.373h37.774v9.485H38.245z" style="fill:#845c38;fill-opacity:1;stroke:#4f3721;stroke-width:1.5;stroke-linecap:round;stroke-linejoin:miter;stroke-dasharray:none;stroke-opacity:1;stop-color:#000" transform="translate(0 -1.526)"/><path d="M20.897 105.866h32.17v9.485h-32.17Zm0-9.506h12.279v9.485H20.897Z" style="fill:#845c38;stroke-width:1.5;stroke-linecap:round;stop-color:#000" transform="translate(0 -1.526)"/><path d="M33.248 96.36H71.02v9.485H33.248z" style="fill:#845c38;fill-opacity:1;stroke:#4f3721;stroke-width:1.5;stroke-linecap:round;stroke-linejoin:miter;stroke-dasharray:none;stroke-opacity:1;stop-color:#000" transform="translate(0 -1.526)"/><path d="M20.897 77.352h25.324v9.484H20.897Zm25.396 0h33.802v9.484H46.293ZM20.897 67.84h17.276v9.485H20.897Z" style="fill:#845c38;stroke-width:1.5;stroke-linecap:round;stop-color:#000" transform="translate(0 -1.526)"/><path d="M38.245 67.84h37.774v9.485H38.245z" style="fill:#845c38;fill-opacity:1;stroke:#4f3721;stroke-width:1.5;stroke-linecap:round;stroke-linejoin:miter;stroke-dasharray:none;stroke-opacity:1;stop-color:#000" transform="translate(0 -1.526)"/><path d="M20.897 48.827h12.279v9.484H20.897Z" style="fill:#845c38;stroke-width:1.5;stroke-linecap:round;stop-color:#000" transform="translate(0 -1.526)"/><path d="M33.248 48.827H71.02v9.484H33.248z" style="fill:#845c38;fill-opacity:1;stroke:#4f3721;stroke-width:1.5;stroke-linecap:round;stroke-linejoin:miter;stroke-dasharray:none;stroke-opacity:1;stop-color:#000" transform="translate(0 -1.526)"/><path d="M-29.813 39.325h12.79v2.546h-12.79z" style="fill:#845c38;stroke:#4f3721;stroke-width:1.5;stroke-linecap:round;stroke-opacity:1;stop-color:#000" transform="translate(0 -1.526)"/><path d="M20.897 39.325h37.774v9.484H20.897z" style="fill:#845c38;fill-opacity:1;stroke:#4f3721;stroke-width:1.5;stroke-linecap:round;stroke-linejoin:miter;stroke-dasharray:none;stroke-opacity:1;stop-color:#000" transform="translate(0 -1.526)"/><path d="M-29.813 29.819H8.374v9.485h-38.187Z" style="fill:#845c38;stroke:#4f3721;stroke-width:1.5;stroke-linecap:round;stroke-opacity:1;stop-color:#000" transform="translate(0 -1.526)"/><path d="M8.447 29.819h37.774v9.485H8.447zM.4 20.308h37.773v9.484H.399zM-22.553 10.8h37.774v9.485h-37.774zm37.846 0h37.773v9.485H15.293z" style="fill:#845c38;fill-opacity:1;stroke:#4f3721;stroke-width:1.5;stroke-linecap:round;stroke-linejoin:miter;stroke-dasharray:none;stroke-opacity:1;stop-color:#000" transform="translate(0 -1.526)"/><path d="M-29.813 10.8h7.22v9.485h-7.22zm0-9.506h25.141v9.485h-25.141Z" style="fill:#845c38;stroke:#4f3721;stroke-width:1.5;stroke-linecap:round;stroke-opacity:1;stop-color:#000" transform="translate(0 -1.526)"/><path d="M33.248 1.294H71.02v9.485H33.248z" style="fill:#845c38;fill-opacity:1;stroke:#4f3721;stroke-width:1.5;stroke-linecap:round;stroke-linejoin:miter;stroke-dasharray:none;stroke-opacity:1;stop-color:#000" transform="translate(0 -1.526)"/><path d="M-29.813-8.208h12.79v9.485h-12.79z" style="fill:#845c38;stroke:#4f3721;stroke-width:1.5;stroke-linecap:round;stroke-opacity:1;stop-color:#000" transform="translate(0 -1.526)"/><path d="M-16.95-8.208h37.774v9.485h-37.773zm37.847 0h37.774v9.485H20.897zm25.396-9.506h32.214v9.485H46.293z" style="fill:#845c38;fill-opacity:1;stroke:#4f3721;stroke-width:1.5;stroke-linecap:round;stroke-linejoin:miter;stroke-dasharray:none;stroke-opacity:1;stop-color:#000" transform="translate(0 -1.526)"/><path d="M-29.813-27.226H.325v9.485h-30.138Z" style="fill:#845c38;stroke:#4f3721;stroke-width:1.5;stroke-linecap:round;stroke-opacity:1;stop-color:#000" transform="translate(0 -1.526)"/><path d="M.4-27.226h37.773v9.485H.399zm37.845 0h37.774v9.485H38.245zm-60.798-9.507h37.774v9.485h-37.774z" style="fill:#845c38;fill-opacity:1;stroke:#4f3721;stroke-width:1.5;stroke-linecap:round;stroke-linejoin:miter;stroke-dasharray:none;stroke-opacity:1;stop-color:#000" transform="translate(0 -1.526)"/><path d="M-29.813-36.733h7.22v9.485h-7.22zm0-9.506h25.141v9.485h-25.141Z" style="fill:#845c38;stroke:#4f3721;stroke-width:1.5;stroke-linecap:round;stroke-opacity:1;stop-color:#000" transform="translate(0 -1.526)"/><path d="M-4.598-46.239h37.774v9.485H-4.598zm37.846 0H71.02v9.485H33.248z" style="fill:#845c38;fill-opacity:1;stroke:#4f3721;stroke-width:1.5;stroke-linecap:round;stroke-linejoin:miter;stroke-dasharray:none;stroke-opacity:1;stop-color:#000" transform="translate(0 -1.526)"/><path d="M-29.813-55.74h12.79v9.484h-12.79z" style="fill:#845c38;stroke:#4f3721;stroke-width:1.5;stroke-linecap:round;stroke-opacity:1;stop-color:#000" transform="translate(0 -1.526)"/><path d="M20.897-55.74h37.774v9.484H20.897z" style="fill:#845c38;fill-opacity:1;stroke:#4f3721;stroke-width:1.5;stroke-linecap:round;stroke-linejoin:miter;stroke-dasharray:none;stroke-opacity:1;stop-color:#000" transform="translate(0 -1.526)"/><path d="M-29.813-65.247H8.374v9.485h-38.187Z" style="fill:#845c38;stroke:#4f3721;stroke-width:1.5;stroke-linecap:round;stroke-opacity:1;stop-color:#000" transform="translate(0 -1.526)"/><path d="M8.447-65.247h37.774v9.485H8.447z" style="fill:#845c38;fill-opacity:1;stroke:#4f3721;stroke-width:1.5;stroke-linecap:round;stroke-linejoin:miter;stroke-dasharray:none;stroke-opacity:1;stop-color:#000" transform="translate(0 -1.526)"/><path d="M.4-74.675h37.773v9.485H.399zm37.845 0h37.774v9.485H38.245zm-22.952-9.507h37.773v9.485H15.293z" style="fill:#845c38;fill-opacity:1;stroke:#4f3721;stroke-width:1.5;stroke-linecap:round;stroke-linejoin:miter;stroke-dasharray:none;stroke-opacity:1;stop-color:#000" transform="translate(0 -1.526)"/><path d="M-29.813-84.182h7.22v9.485h-7.22z" style="fill:#845c38;stroke:#4f3721;stroke-width:1.5;stroke-linecap:round;stroke-opacity:1;stop-color:#000" transform="translate(0 -1.526)"/><path d="M71.045 191.401h9.05v9.485h-9.05zm4.995-28.52h4.055v9.485h-4.054Zm-4.995-19.012h9.05v9.484h-9.05zm4.995-28.496h4.055v9.485h-4.054ZM71.045 96.36h9.05v9.485h-9.05zm4.995-28.52h4.055v9.485h-4.054Zm-4.995-19.013h9.05v9.484h-9.05zm-12.352-9.502h21.402v9.484H58.693ZM76.04 20.308h4.055v9.484h-4.054ZM71.045 1.294h9.05v9.485h-9.05z" style="fill:#845c38;stroke-width:1.5;stroke-linecap:round;stop-color:#000" transform="translate(0 -1.526)"/><path d="M159.75-17.714h37.773v2.349H159.75Zm-75.66 0h37.773v2.349H84.09Zm29.764-9.512h37.774v9.485h-37.774zm75.694 0h37.773v9.485h-37.773zm-113.508 0h37.774v9.485H76.041Z" style="fill:#845c38;stroke:#4f3721;stroke-width:1.5;stroke-linecap:round;stroke-opacity:1;stop-color:#000" transform="translate(0 -1.526)"/><path d="M128.75-36.733h37.773v9.485H128.75zm37.846 0h37.773v9.485h-37.774zm-75.661 0h37.774v9.485H90.935zm17.922-9.506h37.774v9.485h-37.774zm75.693 0h37.774v9.485h-37.773zm-113.505 0h37.773v9.485H71.045zm63.308-9.501h37.774v9.484h-37.774zm-75.66 0h37.774v9.484H58.693zm101.057-9.507h37.773v9.485H159.75zm37.846 0h37.773v9.485h-37.774zm-113.506 0h37.773v9.485H84.09z" style="fill:#845c38;fill-opacity:1;stroke:#4f3721;stroke-width:1.5;stroke-linecap:round;stroke-linejoin:miter;stroke-dasharray:none;stroke-opacity:1;stop-color:#000" transform="translate(0 -1.526)"/><path d="M113.854-74.675h37.774v9.485h-37.774zm37.847 0h37.774v9.485H151.7zm-22.951-9.507h37.773v9.485H128.75zm-37.815 0h37.774v9.485H90.935z" style="fill:#845c38;fill-opacity:1;stroke:#4f3721;stroke-width:1.5;stroke-linecap:round;stroke-linejoin:miter;stroke-dasharray:none;stroke-opacity:1;stop-color:#000" transform="translate(0 -1.526)"/><path d="M53.077 153.383h27.018v9.485H53.077Zm0-142.563h27.018v9.485H53.077Z" style="fill:#845c38;stroke-width:1.5;stroke-linecap:round;stop-color:#000" transform="translate(0 -1.526)"/><path d="M53.077-84.182H90.85v9.485H53.077z" style="fill:#845c38;fill-opacity:1;stroke:#4f3721;stroke-width:1.5;stroke-linecap:round;stroke-linejoin:miter;stroke-dasharray:none;stroke-opacity:1;stop-color:#000" transform="translate(0 -1.526)"/><path d="M273.16-17.714h4.8v2.349h-4.8zm-45.896-9.512h37.774v9.485h-37.774zm37.848 0h12.848v9.485h-12.848zm14.894-9.507h7.177v7.62h-7.177z" style="fill:#845c38;stroke:#4f3721;stroke-width:1.5;stroke-linecap:round;stroke-opacity:1;stop-color:#000" transform="translate(0 -1.526)"/><path d="M222.267-46.239h37.774v9.485h-37.774z" style="fill:#845c38;fill-opacity:1;stroke:#4f3721;stroke-width:1.5;stroke-linecap:round;stroke-linejoin:miter;stroke-dasharray:none;stroke-opacity:1;stop-color:#000" transform="translate(0 -1.526)"/><path d="M260.115-46.239h27.068v9.485h-27.068z" style="fill:#845c38;stroke:#4f3721;stroke-width:1.5;stroke-linecap:round;stroke-opacity:1;stop-color:#000" transform="translate(0 -1.526)"/><path d="M209.917-55.74h37.773v9.484h-37.773z" style="fill:#845c38;fill-opacity:1;stroke:#4f3721;stroke-width:1.5;stroke-linecap:round;stroke-linejoin:miter;stroke-dasharray:none;stroke-opacity:1;stop-color:#000" transform="translate(0 -1.526)"/><path d="M247.763-55.74h39.42v9.484h-39.42zm25.397-9.507h14.023v9.485H273.16z" style="fill:#845c38;stroke:#4f3721;stroke-width:1.5;stroke-linecap:round;stroke-opacity:1;stop-color:#000" transform="translate(0 -1.526)"/><path d="M227.264-74.675h37.774v9.485h-37.774z" style="fill:#845c38;fill-opacity:1;stroke:#4f3721;stroke-width:1.5;stroke-linecap:round;stroke-linejoin:miter;stroke-dasharray:none;stroke-opacity:1;stop-color:#000" transform="translate(0 -1.526)"/><path d="M265.112-74.675h22.071v9.485h-22.07z" style="fill:#845c38;stroke:#4f3721;stroke-width:1.5;stroke-linecap:round;stroke-opacity:1;stop-color:#000" transform="translate(0 -1.526)"/><path d="M242.16-84.182h37.774v9.485H242.16z" style="fill:#845c38;fill-opacity:1;stroke:#4f3721;stroke-width:1.5;stroke-linecap:round;stroke-linejoin:miter;stroke-dasharray:none;stroke-opacity:1;stop-color:#000" transform="translate(0 -1.526)"/><path d="M280.006-84.182h7.177v9.485h-7.177z" style="fill:#845c38;stroke:#4f3721;stroke-width:1.5;stroke-linecap:round;stroke-opacity:1;stop-color:#000" transform="translate(0 -1.526)"/><path d="M-16.95 181.9h37.774v9.485h-37.773zm37.847 0h37.774v9.485H20.897zm17.348-19.019h37.774v9.485H38.245zm-60.798-9.506h37.774v9.485h-37.774z" style="fill:#7a5534;fill-opacity:1;stroke:#4f3721;stroke-width:1.5;stroke-linecap:round;stroke-linejoin:miter;stroke-dasharray:none;stroke-opacity:1;stop-color:#000" transform="translate(0 -1.526)"/><path d="M20.897 124.86h25.324v9.485H20.897Zm0-38.002h37.774v9.485H20.897zm0-28.525h32.17v9.485h-32.17Zm25.396-28.514h33.802v9.485H46.293Z" style="fill:#7a5534;stroke-width:1.5;stroke-linecap:round;stop-color:#000" transform="translate(0 -1.526)"/><path d="M-29.813 20.308H.325v9.484h-30.138Z" style="fill:#7a5534;stroke:#4f3721;stroke-width:1.5;stroke-linecap:round;stroke-opacity:1;stop-color:#000" transform="translate(0 -1.526)"/><path d="M38.245 20.308h37.774v9.484H38.245zM-4.598 1.294h37.774v9.485H-4.598z" style="fill:#7a5534;fill-opacity:1;stroke:#4f3721;stroke-width:1.5;stroke-linecap:round;stroke-linejoin:miter;stroke-dasharray:none;stroke-opacity:1;stop-color:#000" transform="translate(0 -1.526)"/><path d="M-16.95 39.325h37.774v2.546h-37.773z" style="fill:#7a5534;stroke-width:1.5;stroke-linecap:round;stop-color:#000" transform="translate(0 -1.526)"/><path d="M-29.813-17.714H8.374v9.485h-38.187Z" style="fill:#7a5534;stroke:#4f3721;stroke-width:1.5;stroke-linecap:round;stroke-opacity:1;stop-color:#000" transform="translate(0 -1.526)"/><path d="M8.447-17.714h37.774v9.485H8.447zm6.846-19.019h37.773v9.485H15.293zM-16.95-55.74h37.774v9.484h-37.773zm63.243-9.507h37.773v9.485H46.293z" style="fill:#7a5534;fill-opacity:1;stroke:#4f3721;stroke-width:1.5;stroke-linecap:round;stroke-linejoin:miter;stroke-dasharray:none;stroke-opacity:1;stop-color:#000" transform="translate(0 -1.526)"/><path d="M-29.813-74.675H.325v9.485h-30.138Z" style="fill:#7a5534;stroke:#4f3721;stroke-width:1.5;stroke-linecap:round;stroke-opacity:1;stop-color:#000" transform="translate(0 -1.526)"/><path d="M-22.553-84.182h37.774v9.485h-37.774z" style="fill:#7a5534;fill-opacity:1;stroke:#4f3721;stroke-width:1.5;stroke-linecap:round;stroke-linejoin:miter;stroke-dasharray:none;stroke-opacity:1;stop-color:#000" transform="translate(0 -1.526)"/><path d="M58.693 181.9h21.402v9.485H58.693Zm0-47.534h21.402v9.485H58.693Zm0-47.508h21.402v9.485H58.693Zm0-95.066h21.402v9.485H58.693Z" style="fill:#7a5534;stroke-width:1.5;stroke-linecap:round;stop-color:#000" transform="translate(0 -1.526)"/><path d="M121.903-17.714h37.774v2.349h-37.774zm75.693 0h37.773v2.349h-37.774Zm-45.895-9.512h37.774v9.485H151.7z" style="fill:#7a5534;stroke:#4f3721;stroke-width:1.5;stroke-linecap:round;stroke-opacity:1;stop-color:#000" transform="translate(0 -1.526)"/><path d="M146.705-46.239h37.773v9.485h-37.773zM96.507-55.74h37.773v9.484H96.507zm75.693 0h37.774v9.484H172.2z" style="fill:#7a5534;fill-opacity:1;stroke:#4f3721;stroke-width:1.5;stroke-linecap:round;stroke-linejoin:miter;stroke-dasharray:none;stroke-opacity:1;stop-color:#000" transform="translate(0 -1.526)"/><path d="M121.903-65.247h37.774v9.485h-37.774z" style="fill:#7a5534;fill-opacity:1;stroke:#4f3721;stroke-width:1.49992;stroke-linecap:round;stroke-linejoin:miter;stroke-dasharray:none;stroke-opacity:1;stop-color:#000" transform="translate(0 -1.526)"/><path d="M189.548-74.675h37.773v9.485h-37.773zm-113.508 0h37.774v9.485H76.041zm90.556-9.507h37.773v9.485h-37.774z" style="fill:#7a5534;fill-opacity:1;stroke:#4f3721;stroke-width:1.5;stroke-linecap:round;stroke-linejoin:miter;stroke-dasharray:none;stroke-opacity:1;stop-color:#000" transform="translate(0 -1.526)"/><path d="M53.077 200.921h27.018v12.25H53.077Zm0-95.048h27.018v9.484H53.077Zm0-47.539h27.018v9.485H53.077Z" style="fill:#7a5534;stroke-width:1.5;stroke-linecap:round;stop-color:#000" transform="translate(0 -1.526)"/><path d="M53.077-36.718H90.85v9.485H53.077z" style="fill:#7a5534;fill-opacity:1;stroke:#4f3721;stroke-width:1.5;stroke-linecap:round;stroke-linejoin:miter;stroke-dasharray:none;stroke-opacity:1;stop-color:#000" transform="translate(0 -1.526)"/><path d="M235.313-17.714h37.774v2.349h-37.774z" style="fill:#7a5534;stroke:#4f3721;stroke-width:1.5;stroke-linecap:round;stroke-opacity:1;stop-color:#000" transform="translate(0 -1.526)"/><path d="M242.16-36.733h37.774v9.485H242.16zm-37.814 0h37.773v9.485h-37.774zm30.967-28.514h37.774v9.485h-37.774zm-30.967-18.935h37.773v9.485h-37.774z" style="fill:#7a5534;fill-opacity:1;stroke:#4f3721;stroke-width:1.5;stroke-linecap:round;stroke-linejoin:miter;stroke-dasharray:none;stroke-opacity:1;stop-color:#000" transform="translate(0 -1.526)"/></g><rect width="223.48732" height="4.6493797" x="-208.24747" y="75.632744" rx="0" ry="0" style="fill:#87735f;fill-opacity:1;stroke:#3c342a;stroke-width:1.95204;stroke-linecap:round;stroke-linejoin:miter;stroke-miterlimit:4;stroke-dasharray:none;stroke-opacity:1" transform="rotate(-90)"/><path d="M77.88-19.484h204.655v4.643H77.88Z" style="fill:#87735f;stroke:#3c342a;stroke-width:1.958;stroke-linecap:round"/><path d="M-28.125 35.433v4.643h48.509v104.101h4.644v-104.1 0-4.644zm303.551-70.959v17.986h4.643v-13.343h6.854v-4.643z" style="fill:#87735f;fill-opacity:1;stroke:#3c342a;stroke-width:1.958;stroke-linecap:round;stroke-linejoin:miter;stroke-miterlimit:4;stroke-dasharray:none;stroke-opacity:1"/></g></svg>