<svg xmlns="http://www.w3.org/2000/svg" xmlns:xlink="http://www.w3.org/1999/xlink" width="930.37903" height="562.414" viewBox="0 0 246.16279 148.80538"><defs><pattern xlink:href="#a" id="b" patternTransform="translate(-443.13 -45.707)scale(.26458)"/><pattern id="a" width="1135.089" height="930.33535" patternTransform="translate(391.188 2885.379)" patternUnits="userSpaceOnUse"><path d="M267.13 981.433h27.119v27.141h-27.12z" style="fill:#666;fill-opacity:1;stroke:#4d4d4d;stroke-width:2.00001;stroke-linecap:round;stroke-dasharray:none;stroke-opacity:1;stop-color:#000" transform="translate(-391.188 -2885.379)scale(3.77953)"/><path d="M-375.676 791.53h27.119v27.143h-27.12z" style="fill:#666;fill-opacity:1;stroke:#4d4d4d;stroke-width:2.00001;stroke-linecap:round;stroke-dasharray:none;stroke-opacity:1;stop-color:#000" transform="matrix(-3.77953 0 0 3.77953 -391.188 -2885.379)"/><path d="M-402.827-818.673h27.12v27.142h-27.12z" style="fill:#878787;fill-opacity:1;stroke:#4d4d4d;stroke-width:2.00001;stroke-linecap:round;stroke-dasharray:none;stroke-opacity:1;stop-color:#000" transform="rotate(179.935 -195.594 -1442.69)scale(3.77953)"/><path d="M375.659-791.565h27.12v27.142h-27.12z" style="fill:#666;fill-opacity:1;stroke:#4d4d4d;stroke-width:2.00001;stroke-linecap:round;stroke-dasharray:none;stroke-opacity:1;stop-color:#000" transform="matrix(3.77953 0 0 -3.77953 -391.188 -2885.379)"/><path d="M348.557 764.423h27.12v27.142h-27.12z" style="fill:#878787;fill-opacity:1;stroke:#4d4d4d;stroke-width:2.00001;stroke-linecap:round;stroke-dasharray:none;stroke-opacity:1;stop-color:#000" transform="translate(-391.188 -2885.379)scale(3.77953)"/><path d="M-375.676 845.767h27.119v27.142h-27.12z" style="fill:#666;fill-opacity:1;stroke:#4d4d4d;stroke-width:2.00001;stroke-linecap:round;stroke-dasharray:none;stroke-opacity:1;stop-color:#000" transform="matrix(-3.77953 0 0 3.77953 -391.188 -2885.379)"/><path d="M-402.827-872.91h27.12v27.143h-27.12z" style="fill:#878787;fill-opacity:1;stroke:#4d4d4d;stroke-width:2.00001;stroke-linecap:round;stroke-dasharray:none;stroke-opacity:1;stop-color:#000" transform="rotate(179.935 -195.594 -1442.69)scale(3.77953)"/><path d="M375.659-845.801h27.12v27.141h-27.12z" style="fill:#666;fill-opacity:1;stroke:#4d4d4d;stroke-width:2.00001;stroke-linecap:round;stroke-dasharray:none;stroke-opacity:1;stop-color:#000" transform="matrix(3.77953 0 0 -3.77953 -391.188 -2885.379)"/><path d="M348.557 818.66h27.12v27.14h-27.12z" style="fill:#878787;fill-opacity:1;stroke:#4d4d4d;stroke-width:2.00001;stroke-linecap:round;stroke-dasharray:none;stroke-opacity:1;stop-color:#000" transform="translate(-391.188 -2885.379)scale(3.77953)"/><path d="M-375.676 900.046h27.119v27.142h-27.12z" style="fill:#666;fill-opacity:1;stroke:#4d4d4d;stroke-width:2.00001;stroke-linecap:round;stroke-dasharray:none;stroke-opacity:1;stop-color:#000" transform="matrix(-3.77953 0 0 3.77953 -391.188 -2885.379)"/><path d="M-402.827-927.188h27.12v27.142h-27.12z" style="fill:#878787;fill-opacity:1;stroke:#4d4d4d;stroke-width:2.00001;stroke-linecap:round;stroke-dasharray:none;stroke-opacity:1;stop-color:#000" transform="rotate(179.935 -195.594 -1442.69)scale(3.77953)"/><path d="M375.708-900.08h27.12v27.142h-27.12z" style="fill:#666;fill-opacity:1;stroke:#4d4d4d;stroke-width:2.00001;stroke-linecap:round;stroke-dasharray:none;stroke-opacity:1;stop-color:#000" transform="matrix(3.77953 0 0 -3.77953 -391.188 -2885.379)"/><path d="M348.557 872.938h27.12v27.142h-27.12z" style="fill:#878787;fill-opacity:1;stroke:#4d4d4d;stroke-width:2.00001;stroke-linecap:round;stroke-dasharray:none;stroke-opacity:1;stop-color:#000" transform="translate(-391.188 -2885.379)scale(3.77953)"/><path d="M-375.676 954.282h27.119v27.142h-27.12z" style="fill:#666;fill-opacity:1;stroke:#4d4d4d;stroke-width:2.00001;stroke-linecap:round;stroke-dasharray:none;stroke-opacity:1;stop-color:#000" transform="matrix(-3.77953 0 0 3.77953 -391.188 -2885.379)"/><path d="M-402.827-981.424h27.12v27.142h-27.12z" style="fill:#878787;fill-opacity:1;stroke:#4d4d4d;stroke-width:2.00001;stroke-linecap:round;stroke-dasharray:none;stroke-opacity:1;stop-color:#000" transform="rotate(179.935 -195.594 -1442.69)scale(3.77953)"/><path d="M375.659-954.316h27.12v27.142h-27.12z" style="fill:#666;fill-opacity:1;stroke:#4d4d4d;stroke-width:2.00001;stroke-linecap:round;stroke-dasharray:none;stroke-opacity:1;stop-color:#000" transform="matrix(3.77953 0 0 -3.77953 -391.188 -2885.379)"/><path d="M348.557 927.175h27.12v27.141h-27.12z" style="fill:#878787;fill-opacity:1;stroke:#4d4d4d;stroke-width:2.00001;stroke-linecap:round;stroke-dasharray:none;stroke-opacity:1;stop-color:#000" transform="translate(-391.188 -2885.379)scale(3.77953)"/><path d="M375.659-1008.572h27.12v27.142h-27.12z" style="fill:#666;fill-opacity:1;stroke:#4d4d4d;stroke-width:2.00001;stroke-linecap:round;stroke-dasharray:none;stroke-opacity:1;stop-color:#000" transform="matrix(3.77953 0 0 -3.77953 -391.188 -2885.379)"/><path d="M348.557 981.43h27.12v27.142h-27.12z" style="fill:#878787;fill-opacity:1;stroke:#4d4d4d;stroke-width:2.00001;stroke-linecap:round;stroke-dasharray:none;stroke-opacity:1;stop-color:#000" transform="translate(-391.188 -2885.379)scale(3.77953)"/><path d="M-212.915 791.53h27.12v27.143h-27.12z" style="fill:#666;fill-opacity:1;stroke:#4d4d4d;stroke-width:2.00001;stroke-linecap:round;stroke-dasharray:none;stroke-opacity:1;stop-color:#000" transform="matrix(-3.77953 0 0 3.77953 -391.188 -2885.379)"/><path d="M-240.065-818.673h27.12v27.142h-27.12z" style="fill:#878787;fill-opacity:1;stroke:#4d4d4d;stroke-width:2.00001;stroke-linecap:round;stroke-dasharray:none;stroke-opacity:1;stop-color:#000" transform="rotate(179.935 -195.594 -1442.69)scale(3.77953)"/><path d="M212.897-791.565h27.12v27.142h-27.12z" style="fill:#666;fill-opacity:1;stroke:#4d4d4d;stroke-width:2.00001;stroke-linecap:round;stroke-dasharray:none;stroke-opacity:1;stop-color:#000" transform="matrix(3.77953 0 0 -3.77953 -391.188 -2885.379)"/><path d="M185.795 764.423h27.12v27.142h-27.12z" style="fill:#878787;fill-opacity:1;stroke:#4d4d4d;stroke-width:2.00001;stroke-linecap:round;stroke-dasharray:none;stroke-opacity:1;stop-color:#000" transform="translate(-391.188 -2885.379)scale(3.77953)"/><path d="M-267.147 791.53h27.12v27.143h-27.12z" style="fill:#666;fill-opacity:1;stroke:#4d4d4d;stroke-width:2.00001;stroke-linecap:round;stroke-dasharray:none;stroke-opacity:1;stop-color:#000" transform="matrix(-3.77953 0 0 3.77953 -391.188 -2885.379)"/><path d="M-294.298-818.673h27.12v27.142h-27.12z" style="fill:#878787;fill-opacity:1;stroke:#4d4d4d;stroke-width:2.00001;stroke-linecap:round;stroke-dasharray:none;stroke-opacity:1;stop-color:#000" transform="rotate(179.935 -195.594 -1442.69)scale(3.77953)"/><path d="M240.028 764.423h27.12v27.142h-27.12z" style="fill:#878787;fill-opacity:1;stroke:#4d4d4d;stroke-width:2.00001;stroke-linecap:round;stroke-dasharray:none;stroke-opacity:1;stop-color:#000" transform="translate(-391.188 -2885.379)scale(3.77953)"/><path d="M-321.412 791.53h27.12v27.143h-27.12z" style="fill:#666;fill-opacity:1;stroke:#4d4d4d;stroke-width:2.00001;stroke-linecap:round;stroke-dasharray:none;stroke-opacity:1;stop-color:#000" transform="matrix(-3.77953 0 0 3.77953 -391.188 -2885.379)"/><path d="M-348.562-818.673h27.119v27.142h-27.12z" style="fill:#878787;fill-opacity:1;stroke:#4d4d4d;stroke-width:2.00001;stroke-linecap:round;stroke-dasharray:none;stroke-opacity:1;stop-color:#000" transform="rotate(179.935 -195.594 -1442.69)scale(3.77953)"/><path d="M321.394-791.565h27.12v27.142h-27.12z" style="fill:#666;fill-opacity:1;stroke:#4d4d4d;stroke-width:2.00001;stroke-linecap:round;stroke-dasharray:none;stroke-opacity:1;stop-color:#000" transform="matrix(3.77953 0 0 -3.77953 -391.188 -2885.379)"/><path d="M294.293 764.423h27.119v27.142h-27.12z" style="fill:#878787;fill-opacity:1;stroke:#4d4d4d;stroke-width:2.00001;stroke-linecap:round;stroke-dasharray:none;stroke-opacity:1;stop-color:#000" transform="translate(-391.188 -2885.379)scale(3.77953)"/><path d="M-131.621-791.565h27.12v27.142h-27.12z" style="fill:#666;fill-opacity:1;stroke:#4d4d4d;stroke-width:2.00001;stroke-linecap:round;stroke-dasharray:none;stroke-opacity:1;stop-color:#000" transform="rotate(179.935 -195.594 -1442.69)scale(3.77953)"/><path d="M-158.772 764.423h27.12v27.142h-27.12z" style="fill:#878787;fill-opacity:1;stroke:#4d4d4d;stroke-width:2.00001;stroke-linecap:round;stroke-dasharray:none;stroke-opacity:1;stop-color:#000" transform="matrix(-3.77953 0 0 3.77953 -391.188 -2885.379)"/><path d="M131.603 791.53h27.12v27.143h-27.12z" style="fill:#666;fill-opacity:1;stroke:#4d4d4d;stroke-width:2.00001;stroke-linecap:round;stroke-dasharray:none;stroke-opacity:1;stop-color:#000" transform="translate(-391.188 -2885.379)scale(3.77953)"/><path d="M104.502-818.673h27.119v27.142h-27.12z" style="fill:#878787;fill-opacity:1;stroke:#4d4d4d;stroke-width:2.00001;stroke-linecap:round;stroke-dasharray:none;stroke-opacity:1;stop-color:#000" transform="matrix(3.77953 0 0 -3.77953 -391.188 -2885.379)"/><path d="M-185.853-791.565h27.119v27.142h-27.12z" style="fill:#666;fill-opacity:1;stroke:#4d4d4d;stroke-width:2.00001;stroke-linecap:round;stroke-dasharray:none;stroke-opacity:1;stop-color:#000" transform="rotate(179.935 -195.594 -1442.69)scale(3.77953)"/><path d="M158.734-818.673h27.12v27.142h-27.12z" style="fill:#878787;fill-opacity:1;stroke:#4d4d4d;stroke-width:2.00001;stroke-linecap:round;stroke-dasharray:none;stroke-opacity:1;stop-color:#000" transform="matrix(3.77953 0 0 -3.77953 -391.188 -2885.379)"/><path d="M-212.915 845.767h27.12v27.142h-27.12z" style="fill:#666;fill-opacity:1;stroke:#4d4d4d;stroke-width:2.00001;stroke-linecap:round;stroke-dasharray:none;stroke-opacity:1;stop-color:#000" transform="matrix(-3.77953 0 0 3.77953 -391.188 -2885.379)"/><path d="M-240.065-872.91h27.12v27.143h-27.12z" style="fill:#878787;fill-opacity:1;stroke:#4d4d4d;stroke-width:2.00001;stroke-linecap:round;stroke-dasharray:none;stroke-opacity:1;stop-color:#000" transform="rotate(179.935 -195.594 -1442.69)scale(3.77953)"/><path d="M212.897-845.801h27.12v27.141h-27.12z" style="fill:#666;fill-opacity:1;stroke:#4d4d4d;stroke-width:2.00001;stroke-linecap:round;stroke-dasharray:none;stroke-opacity:1;stop-color:#000" transform="matrix(3.77953 0 0 -3.77953 -391.188 -2885.379)"/><path d="M185.795 818.66h27.12v27.14h-27.12z" style="fill:#878787;fill-opacity:1;stroke:#4d4d4d;stroke-width:2.00001;stroke-linecap:round;stroke-dasharray:none;stroke-opacity:1;stop-color:#000" transform="translate(-391.188 -2885.379)scale(3.77953)"/><path d="M-267.147 845.767h27.12v27.142h-27.12z" style="fill:#666;fill-opacity:1;stroke:#4d4d4d;stroke-width:2.00001;stroke-linecap:round;stroke-dasharray:none;stroke-opacity:1;stop-color:#000" transform="matrix(-3.77953 0 0 3.77953 -391.188 -2885.379)"/><path d="M-294.298-872.91h27.12v27.143h-27.12z" style="fill:#878787;fill-opacity:1;stroke:#4d4d4d;stroke-width:2.00001;stroke-linecap:round;stroke-dasharray:none;stroke-opacity:1;stop-color:#000" transform="rotate(179.935 -195.594 -1442.69)scale(3.77953)"/><path d="M267.13-845.801h27.119v27.141h-27.12z" style="fill:#666;fill-opacity:1;stroke:#4d4d4d;stroke-width:2.00001;stroke-linecap:round;stroke-dasharray:none;stroke-opacity:1;stop-color:#000" transform="matrix(3.77953 0 0 -3.77953 -391.188 -2885.379)"/><path d="M240.028 818.66h27.12v27.14h-27.12z" style="fill:#878787;fill-opacity:1;stroke:#4d4d4d;stroke-width:2.00001;stroke-linecap:round;stroke-dasharray:none;stroke-opacity:1;stop-color:#000" transform="translate(-391.188 -2885.379)scale(3.77953)"/><path d="M-321.412 845.767h27.12v27.142h-27.12z" style="fill:#666;fill-opacity:1;stroke:#4d4d4d;stroke-width:2.00001;stroke-linecap:round;stroke-dasharray:none;stroke-opacity:1;stop-color:#000" transform="matrix(-3.77953 0 0 3.77953 -391.188 -2885.379)"/><path d="M-348.562-872.91h27.119v27.143h-27.12z" style="fill:#878787;fill-opacity:1;stroke:#4d4d4d;stroke-width:2.00001;stroke-linecap:round;stroke-dasharray:none;stroke-opacity:1;stop-color:#000" transform="rotate(179.935 -195.594 -1442.69)scale(3.77953)"/><path d="M321.394-845.801h27.12v27.141h-27.12z" style="fill:#666;fill-opacity:1;stroke:#4d4d4d;stroke-width:2.00001;stroke-linecap:round;stroke-dasharray:none;stroke-opacity:1;stop-color:#000" transform="matrix(3.77953 0 0 -3.77953 -391.188 -2885.379)"/><path d="M294.293 818.66h27.119v27.14h-27.12z" style="fill:#878787;fill-opacity:1;stroke:#4d4d4d;stroke-width:2.00001;stroke-linecap:round;stroke-dasharray:none;stroke-opacity:1;stop-color:#000" transform="translate(-391.188 -2885.379)scale(3.77953)"/><path d="M-131.621-845.801h27.12v27.141h-27.12z" style="fill:#666;fill-opacity:1;stroke:#4d4d4d;stroke-width:2.00001;stroke-linecap:round;stroke-dasharray:none;stroke-opacity:1;stop-color:#000" transform="rotate(179.935 -195.594 -1442.69)scale(3.77953)"/><path d="M-158.772 818.66h27.12v27.14h-27.12z" style="fill:#878787;fill-opacity:1;stroke:#4d4d4d;stroke-width:2.00001;stroke-linecap:round;stroke-dasharray:none;stroke-opacity:1;stop-color:#000" transform="matrix(-3.77953 0 0 3.77953 -391.188 -2885.379)"/><path d="M131.603 845.767h27.12v27.142h-27.12z" style="fill:#666;fill-opacity:1;stroke:#4d4d4d;stroke-width:2.00001;stroke-linecap:round;stroke-dasharray:none;stroke-opacity:1;stop-color:#000" transform="translate(-391.188 -2885.379)scale(3.77953)"/><path d="M104.502-872.91h27.119v27.143h-27.12z" style="fill:#878787;fill-opacity:1;stroke:#4d4d4d;stroke-width:2.00001;stroke-linecap:round;stroke-dasharray:none;stroke-opacity:1;stop-color:#000" transform="matrix(3.77953 0 0 -3.77953 -391.188 -2885.379)"/><path d="M-185.853-845.801h27.119v27.141h-27.12z" style="fill:#666;fill-opacity:1;stroke:#4d4d4d;stroke-width:2.00001;stroke-linecap:round;stroke-dasharray:none;stroke-opacity:1;stop-color:#000" transform="rotate(179.935 -195.594 -1442.69)scale(3.77953)"/><path d="M158.734-872.91h27.12v27.143h-27.12z" style="fill:#878787;fill-opacity:1;stroke:#4d4d4d;stroke-width:2.00001;stroke-linecap:round;stroke-dasharray:none;stroke-opacity:1;stop-color:#000" transform="matrix(3.77953 0 0 -3.77953 -391.188 -2885.379)"/><path d="M-212.915 900.046h27.12v27.142h-27.12z" style="fill:#666;fill-opacity:1;stroke:#4d4d4d;stroke-width:2.00001;stroke-linecap:round;stroke-dasharray:none;stroke-opacity:1;stop-color:#000" transform="matrix(-3.77953 0 0 3.77953 -391.188 -2885.379)"/><path d="M-240.065-927.188h27.12v27.142h-27.12z" style="fill:#878787;fill-opacity:1;stroke:#4d4d4d;stroke-width:2.00001;stroke-linecap:round;stroke-dasharray:none;stroke-opacity:1;stop-color:#000" transform="rotate(179.935 -195.594 -1442.69)scale(3.77953)"/><path d="M212.897-900.08h27.12v27.142h-27.12z" style="fill:#666;fill-opacity:1;stroke:#4d4d4d;stroke-width:2.00001;stroke-linecap:round;stroke-dasharray:none;stroke-opacity:1;stop-color:#000" transform="matrix(3.77953 0 0 -3.77953 -391.188 -2885.379)"/><path d="M185.795 872.938h27.12v27.142h-27.12z" style="fill:#878787;fill-opacity:1;stroke:#4d4d4d;stroke-width:2.00001;stroke-linecap:round;stroke-dasharray:none;stroke-opacity:1;stop-color:#000" transform="translate(-391.188 -2885.379)scale(3.77953)"/><path d="M-267.147 900.046h27.12v27.142h-27.12z" style="fill:#666;fill-opacity:1;stroke:#4d4d4d;stroke-width:2.00001;stroke-linecap:round;stroke-dasharray:none;stroke-opacity:1;stop-color:#000" transform="matrix(-3.77953 0 0 3.77953 -391.188 -2885.379)"/><path d="M-294.298-927.188h27.12v27.142h-27.12z" style="fill:#878787;fill-opacity:1;stroke:#4d4d4d;stroke-width:2.00001;stroke-linecap:round;stroke-dasharray:none;stroke-opacity:1;stop-color:#000" transform="rotate(179.935 -195.594 -1442.69)scale(3.77953)"/><path d="M267.13-900.08h27.119v27.142h-27.12z" style="fill:#666;fill-opacity:1;stroke:#4d4d4d;stroke-width:2.00001;stroke-linecap:round;stroke-dasharray:none;stroke-opacity:1;stop-color:#000" transform="matrix(3.77953 0 0 -3.77953 -391.188 -2885.379)"/><path d="M240.028 872.938h27.12v27.142h-27.12z" style="fill:#878787;fill-opacity:1;stroke:#4d4d4d;stroke-width:2.00001;stroke-linecap:round;stroke-dasharray:none;stroke-opacity:1;stop-color:#000" transform="translate(-391.188 -2885.379)scale(3.77953)"/><path d="M-321.412 900.046h27.12v27.142h-27.12z" style="fill:#666;fill-opacity:1;stroke:#4d4d4d;stroke-width:2.00001;stroke-linecap:round;stroke-dasharray:none;stroke-opacity:1;stop-color:#000" transform="matrix(-3.77953 0 0 3.77953 -391.188 -2885.379)"/><path d="M-348.562-927.188h27.119v27.142h-27.12z" style="fill:#878787;fill-opacity:1;stroke:#4d4d4d;stroke-width:2.00001;stroke-linecap:round;stroke-dasharray:none;stroke-opacity:1;stop-color:#000" transform="rotate(179.935 -195.594 -1442.69)scale(3.77953)"/><path d="M321.394-900.08h27.12v27.142h-27.12z" style="fill:#666;fill-opacity:1;stroke:#4d4d4d;stroke-width:2.00001;stroke-linecap:round;stroke-dasharray:none;stroke-opacity:1;stop-color:#000" transform="matrix(3.77953 0 0 -3.77953 -391.188 -2885.379)"/><path d="M294.293 872.938h27.119v27.142h-27.12z" style="fill:#878787;fill-opacity:1;stroke:#4d4d4d;stroke-width:2.00001;stroke-linecap:round;stroke-dasharray:none;stroke-opacity:1;stop-color:#000" transform="translate(-391.188 -2885.379)scale(3.77953)"/><path d="M-131.621-900.08h27.12v27.142h-27.12z" style="fill:#666;fill-opacity:1;stroke:#4d4d4d;stroke-width:2.00001;stroke-linecap:round;stroke-dasharray:none;stroke-opacity:1;stop-color:#000" transform="rotate(179.935 -195.594 -1442.69)scale(3.77953)"/><path d="M-158.772 872.938h27.12v27.142h-27.12z" style="fill:#878787;fill-opacity:1;stroke:#4d4d4d;stroke-width:2.00001;stroke-linecap:round;stroke-dasharray:none;stroke-opacity:1;stop-color:#000" transform="matrix(-3.77953 0 0 3.77953 -391.188 -2885.379)"/><path d="M131.603 900.046h27.12v27.142h-27.12z" style="fill:#666;fill-opacity:1;stroke:#4d4d4d;stroke-width:2.00001;stroke-linecap:round;stroke-dasharray:none;stroke-opacity:1;stop-color:#000" transform="translate(-391.188 -2885.379)scale(3.77953)"/><path d="M104.502-927.188h27.119v27.142h-27.12z" style="fill:#878787;fill-opacity:1;stroke:#4d4d4d;stroke-width:2.00001;stroke-linecap:round;stroke-dasharray:none;stroke-opacity:1;stop-color:#000" transform="matrix(3.77953 0 0 -3.77953 -391.188 -2885.379)"/><path d="M-185.853-900.08h27.119v27.142h-27.12z" style="fill:#666;fill-opacity:1;stroke:#4d4d4d;stroke-width:2.00001;stroke-linecap:round;stroke-dasharray:none;stroke-opacity:1;stop-color:#000" transform="rotate(179.935 -195.594 -1442.69)scale(3.77953)"/><path d="M158.734-927.188h27.12v27.142h-27.12z" style="fill:#878787;fill-opacity:1;stroke:#4d4d4d;stroke-width:2.00001;stroke-linecap:round;stroke-dasharray:none;stroke-opacity:1;stop-color:#000" transform="matrix(3.77953 0 0 -3.77953 -391.188 -2885.379)"/><path d="M-212.915 954.282h27.12v27.142h-27.12z" style="fill:#666;fill-opacity:1;stroke:#4d4d4d;stroke-width:2.00001;stroke-linecap:round;stroke-dasharray:none;stroke-opacity:1;stop-color:#000" transform="matrix(-3.77953 0 0 3.77953 -391.188 -2885.379)"/><path d="M-240.065-981.424h27.12v27.142h-27.12z" style="fill:#878787;fill-opacity:1;stroke:#4d4d4d;stroke-width:2.00001;stroke-linecap:round;stroke-dasharray:none;stroke-opacity:1;stop-color:#000" transform="rotate(179.935 -195.594 -1442.69)scale(3.77953)"/><path d="M212.897-954.316h27.12v27.142h-27.12z" style="fill:#666;fill-opacity:1;stroke:#4d4d4d;stroke-width:2.00001;stroke-linecap:round;stroke-dasharray:none;stroke-opacity:1;stop-color:#000" transform="matrix(3.77953 0 0 -3.77953 -391.188 -2885.379)"/><path d="M185.795 927.175h27.12v27.141h-27.12z" style="fill:#878787;fill-opacity:1;stroke:#4d4d4d;stroke-width:2.00001;stroke-linecap:round;stroke-dasharray:none;stroke-opacity:1;stop-color:#000" transform="translate(-391.188 -2885.379)scale(3.77953)"/><path d="M-267.147 954.282h27.12v27.142h-27.12z" style="fill:#666;fill-opacity:1;stroke:#4d4d4d;stroke-width:2.00001;stroke-linecap:round;stroke-dasharray:none;stroke-opacity:1;stop-color:#000" transform="matrix(-3.77953 0 0 3.77953 -391.188 -2885.379)"/><path d="M-294.298-981.424h27.12v27.142h-27.12z" style="fill:#878787;fill-opacity:1;stroke:#4d4d4d;stroke-width:2.00001;stroke-linecap:round;stroke-dasharray:none;stroke-opacity:1;stop-color:#000" transform="rotate(179.935 -195.594 -1442.69)scale(3.77953)"/><path d="M267.13-954.316h27.119v27.142h-27.12z" style="fill:#666;fill-opacity:1;stroke:#4d4d4d;stroke-width:2.00001;stroke-linecap:round;stroke-dasharray:none;stroke-opacity:1;stop-color:#000" transform="matrix(3.77953 0 0 -3.77953 -391.188 -2885.379)"/><path d="M240.028 927.175h27.12v27.141h-27.12z" style="fill:#878787;fill-opacity:1;stroke:#4d4d4d;stroke-width:2.00001;stroke-linecap:round;stroke-dasharray:none;stroke-opacity:1;stop-color:#000" transform="translate(-391.188 -2885.379)scale(3.77953)"/><path d="M-321.412 954.282h27.12v27.142h-27.12z" style="fill:#666;fill-opacity:1;stroke:#4d4d4d;stroke-width:2.00001;stroke-linecap:round;stroke-dasharray:none;stroke-opacity:1;stop-color:#000" transform="matrix(-3.77953 0 0 3.77953 -391.188 -2885.379)"/><path d="M-348.562-981.424h27.119v27.142h-27.12z" style="fill:#878787;fill-opacity:1;stroke:#4d4d4d;stroke-width:2.00001;stroke-linecap:round;stroke-dasharray:none;stroke-opacity:1;stop-color:#000" transform="rotate(179.935 -195.594 -1442.69)scale(3.77953)"/><path d="M321.394-954.316h27.12v27.142h-27.12z" style="fill:#666;fill-opacity:1;stroke:#4d4d4d;stroke-width:2.00001;stroke-linecap:round;stroke-dasharray:none;stroke-opacity:1;stop-color:#000" transform="matrix(3.77953 0 0 -3.77953 -391.188 -2885.379)"/><path d="M294.293 927.175h27.119v27.141h-27.12z" style="fill:#878787;fill-opacity:1;stroke:#4d4d4d;stroke-width:2.00001;stroke-linecap:round;stroke-dasharray:none;stroke-opacity:1;stop-color:#000" transform="translate(-391.188 -2885.379)scale(3.77953)"/><path d="M-131.621-954.316h27.12v27.142h-27.12z" style="fill:#666;fill-opacity:1;stroke:#4d4d4d;stroke-width:2.00001;stroke-linecap:round;stroke-dasharray:none;stroke-opacity:1;stop-color:#000" transform="rotate(179.935 -195.594 -1442.69)scale(3.77953)"/><path d="M-158.772 927.175h27.12v27.141h-27.12z" style="fill:#878787;fill-opacity:1;stroke:#4d4d4d;stroke-width:2.00001;stroke-linecap:round;stroke-dasharray:none;stroke-opacity:1;stop-color:#000" transform="matrix(-3.77953 0 0 3.77953 -391.188 -2885.379)"/><path d="M131.603 954.282h27.12v27.142h-27.12z" style="fill:#666;fill-opacity:1;stroke:#4d4d4d;stroke-width:2.00001;stroke-linecap:round;stroke-dasharray:none;stroke-opacity:1;stop-color:#000" transform="translate(-391.188 -2885.379)scale(3.77953)"/><path d="M104.502-981.424h27.119v27.142h-27.12z" style="fill:#878787;fill-opacity:1;stroke:#4d4d4d;stroke-width:2.00001;stroke-linecap:round;stroke-dasharray:none;stroke-opacity:1;stop-color:#000" transform="matrix(3.77953 0 0 -3.77953 -391.188 -2885.379)"/><path d="M-185.853-954.316h27.119v27.142h-27.12z" style="fill:#666;fill-opacity:1;stroke:#4d4d4d;stroke-width:2.00001;stroke-linecap:round;stroke-dasharray:none;stroke-opacity:1;stop-color:#000" transform="rotate(179.935 -195.594 -1442.69)scale(3.77953)"/><path d="M158.734-981.424h27.12v27.142h-27.12z" style="fill:#878787;fill-opacity:1;stroke:#4d4d4d;stroke-width:2.00001;stroke-linecap:round;stroke-dasharray:none;stroke-opacity:1;stop-color:#000" transform="matrix(3.77953 0 0 -3.77953 -391.188 -2885.379)"/><path d="M212.897-1008.572h27.12v27.142h-27.12z" style="fill:#666;fill-opacity:1;stroke:#4d4d4d;stroke-width:2.00001;stroke-linecap:round;stroke-dasharray:none;stroke-opacity:1;stop-color:#000" transform="matrix(3.77953 0 0 -3.77953 -391.188 -2885.379)"/><path d="M185.795 981.43h27.12v27.142h-27.12z" style="fill:#878787;fill-opacity:1;stroke:#4d4d4d;stroke-width:2.00001;stroke-linecap:round;stroke-dasharray:none;stroke-opacity:1;stop-color:#000" transform="translate(-391.188 -2885.379)scale(3.77953)"/><path d="M267.13 764.425h27.119v27.142h-27.12z" style="fill:#666;fill-opacity:1;stroke:#4d4d4d;stroke-width:2.00001;stroke-linecap:round;stroke-dasharray:none;stroke-opacity:1;stop-color:#000" transform="translate(-391.188 -2885.379)scale(3.77953)"/><path d="M240.028 981.43h27.12v27.142h-27.12z" style="fill:#878787;fill-opacity:1;stroke:#4d4d4d;stroke-width:2.00001;stroke-linecap:round;stroke-dasharray:none;stroke-opacity:1;stop-color:#000" transform="translate(-391.188 -2885.379)scale(3.77953)"/><path d="M321.394-1008.572h27.12v27.142h-27.12z" style="fill:#666;fill-opacity:1;stroke:#4d4d4d;stroke-width:2.00001;stroke-linecap:round;stroke-dasharray:none;stroke-opacity:1;stop-color:#000" transform="matrix(3.77953 0 0 -3.77953 -391.188 -2885.379)"/><path d="M294.293 981.43h27.119v27.142h-27.12z" style="fill:#878787;fill-opacity:1;stroke:#4d4d4d;stroke-width:2.00001;stroke-linecap:round;stroke-dasharray:none;stroke-opacity:1;stop-color:#000" transform="translate(-391.188 -2885.379)scale(3.77953)"/><path d="M-131.621-1008.572h27.12v27.142h-27.12z" style="fill:#666;fill-opacity:1;stroke:#4d4d4d;stroke-width:2.00001;stroke-linecap:round;stroke-dasharray:none;stroke-opacity:1;stop-color:#000" transform="rotate(179.935 -195.594 -1442.69)scale(3.77953)"/><path d="M-158.772 981.43h27.12v27.142h-27.12z" style="fill:#878787;fill-opacity:1;stroke:#4d4d4d;stroke-width:2.00001;stroke-linecap:round;stroke-dasharray:none;stroke-opacity:1;stop-color:#000" transform="matrix(-3.77953 0 0 3.77953 -391.188 -2885.379)"/><path d="M-185.853-1008.572h27.119v27.142h-27.12z" style="fill:#666;fill-opacity:1;stroke:#4d4d4d;stroke-width:2.00001;stroke-linecap:round;stroke-dasharray:none;stroke-opacity:1;stop-color:#000" transform="rotate(179.935 -195.594 -1442.69)scale(3.77953)"/></pattern></defs><g style="opacity:1" transform="translate(45.707 -288.957)"><path d="M-436.572-45.696h293.768v246.152h-293.768z" style="fill:url(#b);stroke:none;stroke-width:.264583" transform="rotate(-90)"/><path d="M-44.505 153.278h0c.027 97.413-.037 185.882 0 283.294h243.766V295.446h-9.29v131.836H-35.215v-62.148h167.742v-9.29H-34.95l-.265-202.566h72.466v-9.29h-81.756zm145.08 0h89.4v78.829h9.29v-87.648 0-.47h-98.69z" style="display:inline;fill:#262626;fill-opacity:1;stroke:#171717;stroke-width:2.38099;stroke-linecap:round;stroke-linejoin:miter;stroke-dasharray:none;stroke-opacity:1"/><rect width="9.0085583" height="54.21014" x="356.10269" y="-133.53592" rx="0.26596546" ry="0.26596546" style="opacity:.2;fill:#000;fill-opacity:1;stroke:none;stroke-width:2.35291;stroke-linecap:round;stroke-linejoin:round;stroke-dasharray:none;stroke-opacity:1;stop-color:#000" transform="rotate(90)"/><path d="M80.886 257.084c0 .911.734 1.645 1.646 1.645h17.847c.911 0 1.645-.734 1.645-1.645v-17.848c0-.911-.734-1.645-1.645-1.645H82.532c-.912 0-1.646.734-1.646 1.645z" style="fill:#333;fill-opacity:1;stroke:#171717;stroke-width:2.68959;stroke-linecap:round;stroke-dasharray:none;stroke-opacity:1;paint-order:fill markers stroke;stop-color:#000"/><g stroke="#4d4d4d" stroke-linecap="square" stroke-width="1.66555"><path fill="#878787" d="M-1614.092 1020.517h-13.862V962.75h13.862z" style="fill:#525252;fill-opacity:1;stroke:#262626;stroke-width:2.00001;stroke-dasharray:none;stroke-opacity:1" transform="matrix(1 0 0 -1 1650.24 1387.841)"/><path fill="#828282" d="M-1627.827 1020.517h-13.861V962.75h13.86z" style="fill:#4a4a4a;fill-opacity:1;stroke:#262626;stroke-width:2.00001;stroke-dasharray:none;stroke-opacity:1" transform="matrix(1 0 0 -1 1650.24 1387.841)"/><path fill="#7d7d7d" d="M-1641.562 1020.517h-13.861v-57.766h13.861z" style="fill:#424242;fill-opacity:1;stroke:#262626;stroke-width:2.00001;stroke-dasharray:none;stroke-opacity:1" transform="matrix(1 0 0 -1 1650.24 1387.841)"/><path fill="#787878" d="M-1655.484 1020.517h-13.862V962.75h13.862z" style="fill:#3b3b3b;fill-opacity:1;stroke:#262626;stroke-width:2.00001;stroke-dasharray:none;stroke-opacity:1" transform="matrix(1 0 0 -1 1650.24 1387.841)"/><path fill="#737373" d="M-1669.407 1020.517h-13.861V962.75h13.861z" style="fill:#333;fill-opacity:1;stroke:#262626;stroke-width:2.00001;stroke-dasharray:none;stroke-opacity:1" transform="matrix(1 0 0 -1 1650.24 1387.841)"/><path fill="#878787" d="M-1600.216 1020.517h-13.861V962.75h13.861z" style="fill:#595959;fill-opacity:1;stroke:#262626;stroke-width:2.00001;stroke-dasharray:none;stroke-opacity:1" transform="matrix(1 0 0 -1 1650.24 1387.841)"/></g></g></svg>