<svg xmlns="http://www.w3.org/2000/svg" width="187.9305" height="109.76546" viewBox="0 0 49.723276 29.04211"><g transform="translate(-44.778 -31.895)"><path d="M67.928 57.75h3.423c.24 0 .42.22.42.512v1.17c0 .292-.18.512-.42.512h-3.423c-.24 0-.42-.22-.42-.512v-1.17c0-.292.18-.512.42-.512" class="st21" style="fill:#727272;fill-opacity:1;stroke:#4d4d4d;stroke-width:1.98764;stroke-linecap:round;stroke-linejoin:round;stroke-miterlimit:11.3386;stroke-opacity:1"/><path d="M50.47 42.726V49.6c0 .24-.22.42-.512.42H46.01c-.292 0-.511-.18-.511-.42v-6.875c0-.24.22-.42.511-.42h3.948c.293.03.512.21.512.42m43.311.001V49.6c0 .24-.22.42-.512.42h-3.948c-.292 0-.511-.18-.511-.42v-6.875c0-.24.219-.42.511-.42h3.948c.293.03.512.21.512.42" class="st0" clip-path="url(#SVGID_00000063613552387685992710000007614966880709489049_)" style="fill:none;stroke:#4d4d4d;stroke-width:1.44104;stroke-linecap:round;stroke-linejoin:round;stroke-miterlimit:11.3386;stroke-opacity:1"/><path d="M55.56 32.926h3.422c.24 0 .42.219.42.511v1.17c0 .293-.18.512-.42.512h-3.423c-.24 0-.42-.22-.42-.512v-1.17c0-.292.18-.511.42-.511m24.768 2.156h3.423c.24 0 .42-.219.42-.511V33.4c0-.293-.18-.512-.42-.512h-3.423c-.24 0-.42.22-.42.512v1.17c0 .292.18.511.42.511" class="st21" style="fill:#1c302b;fill-opacity:1;stroke:#1c312b;stroke-width:1.98764;stroke-linecap:round;stroke-linejoin:round;stroke-miterlimit:11.3386;stroke-opacity:1"/><path d="M51.236 35.082h36.807c1.651 0 3.002 1.645 3.002 3.656v15.864c0 2.01-1.35 3.655-3.002 3.655H51.236c-1.651 0-3.002-1.644-3.002-3.655V38.738c0-2.01 1.35-3.656 3.002-3.656" class="st22" style="fill:#2e3726;stroke:#2e3726;stroke-width:1.98764;stroke-linecap:round;stroke-linejoin:round;stroke-miterlimit:11.3386"/><path d="M51.236 35.082h36.807c1.651 0 3.002 1.645 3.002 3.656v15.864c0 2.01-1.35 3.655-3.002 3.655H51.236c-1.651 0-3.002-1.644-3.002-3.655V38.738c0-2.01 1.35-3.656 3.002-3.656" class="st24" style="fill:#406c65;fill-opacity:1;stroke:#1c302b;stroke-width:1.98764;stroke-linecap:round;stroke-linejoin:round;stroke-miterlimit:11.3386;stroke-opacity:1"/><rect width="35.505341" height="1.9868299" x="51.976376" y="38.507599" rx="0.76951581" ry="0.9369356" style="fill:#1c302b;fill-opacity:1;stroke:none;stroke-width:1.68435;stroke-opacity:1;stop-color:#000"/><rect width="35.505341" height="1.9868299" x="51.976376" y="52.361626" rx="0.76951581" ry="0.9369356" style="fill:#1c302b;fill-opacity:1;stroke:none;stroke-width:1.68435;stroke-opacity:1;stop-color:#000"/></g></svg>