<svg xmlns="http://www.w3.org/2000/svg" xmlns:xlink="http://www.w3.org/1999/xlink" width="572.06903" height="403.23801" viewBox="0 0 151.35993 106.69006"><defs><linearGradient xlink:href="#a" id="b" x1="112.28025" x2="96.735085" y1="85.870453" y2="54.829021" gradientTransform="rotate(-86.498 -246.431 293.763)scale(.25914)" gradientUnits="userSpaceOnUse"/><linearGradient id="a"><stop offset="0.53793103" style="stop-color:#008cff;stop-opacity:1"/><stop offset="1" style="stop-color:#a5d9ff;stop-opacity:1"/></linearGradient></defs><g transform="rotate(90 -244.935 296.37)"><rect width="58.629593" height="9.5805492" x="-76.641342" y="454.00894" ry="4.7902746" style="display:inline;fill:#191919;fill-opacity:1;stroke-width:.332656;-inkscape-stroke:none;paint-order:markers stroke fill;stop-color:#000" transform="rotate(90)"/><rect width="55.166004" height="6.6659579" x="-77.341721" y="455.41949" ry="3.332979" style="display:inline;fill:#004d00;fill-opacity:1;stroke-width:.269158;-inkscape-stroke:none;paint-order:markers stroke fill;stop-color:#000" transform="rotate(90)"/><ellipse cx="-458.06012" cy="71.709557" rx="23.445219" ry="23.233999" style="display:inline;fill:#191919;fill-opacity:1;stroke-width:.314504;-inkscape-stroke:none;paint-order:markers stroke fill;stop-color:#000" transform="scale(1 -1)"/><ellipse cx="-458.11746" cy="71.836601" rx="19.546747" ry="19.370649" style="display:inline;fill:#5c3e3e;fill-opacity:1;stroke-width:.262207;-inkscape-stroke:none;paint-order:markers stroke fill;stop-color:#000" transform="scale(1 -1)"/><rect width="68.144051" height="13.999383" x="-517.9837" y="-78.453423" ry="6.9996915" style="display:inline;fill:#191919;fill-opacity:1;stroke-width:.433521;-inkscape-stroke:none;paint-order:markers stroke fill;stop-color:#000"/><rect width="61.926346" height="10.171687" x="-513.90906" y="-76.545403" ry="5.0858436" style="display:inline;fill:#004d00;fill-opacity:1;stroke-width:.35227;-inkscape-stroke:none;paint-order:markers stroke fill;stop-color:#000"/><rect width="3.36268" height="44.211636" x="-459.54968" y="-93.602898" ry="3.1308668" style="display:inline;fill:#191919;fill-opacity:1;stroke-width:1.17124;-inkscape-stroke:none;paint-order:markers stroke fill;stop-color:#000"/><ellipse cx="-456.91632" cy="71.452385" rx="7.0773106" ry="7.0135508" style="display:inline;fill:#191919;fill-opacity:1;stroke-width:.0949382;-inkscape-stroke:none;paint-order:markers stroke fill;stop-color:#000" transform="scale(1 -1)"/><ellipse cx="-457.02075" cy="71.54287" rx="5.337255" ry="5.2891712" style="display:inline;fill:#004d00;fill-opacity:1;stroke-width:.0715963;-inkscape-stroke:none;paint-order:markers stroke fill;stop-color:#000" transform="scale(1 -1)"/><ellipse cx="-512.98938" cy="71.863853" rx="28.315445" ry="28.06035" style="display:inline;fill:#191919;fill-opacity:1;stroke-width:.379836;-inkscape-stroke:none;paint-order:markers stroke fill;stop-color:#000" transform="scale(1 -1)"/><ellipse cx="-458.27985" cy="27.901878" rx="16.91223" ry="16.759865" style="display:inline;fill:#191919;fill-opacity:1;stroke-width:.226868;-inkscape-stroke:none;paint-order:markers stroke fill;stop-color:#000" transform="scale(1 -1)"/><ellipse cx="-513.43958" cy="71.795586" rx="23.993174" ry="23.77702" style="display:inline;fill:#4d4d4d;fill-opacity:1;stroke-width:.321854;-inkscape-stroke:none;paint-order:markers stroke fill;stop-color:#000" transform="scale(1 -1)"/><ellipse cx="-458.44305" cy="28.049156" rx="13.034863" ry="12.917431" style="display:inline;fill:#5c3e3e;fill-opacity:1;stroke-width:.174855;-inkscape-stroke:none;paint-order:markers stroke fill;stop-color:#000" transform="scale(1 -1)"/><rect width="3.36268" height="52.942886" x="62.550892" y="-539.65393" ry="3.7491741" style="display:inline;fill:#191919;fill-opacity:1;stroke-width:1.28168;-inkscape-stroke:none;paint-order:markers stroke fill;stop-color:#000" transform="rotate(-90)"/><rect width="92.689911" height="45.888023" x="-51.435619" y="-538.55066" ry="14.885557" style="fill:#191919;fill-opacity:1;stroke-width:.354424;-inkscape-stroke:none;paint-order:markers stroke fill;stop-color:#000" transform="rotate(-90)"/><rect width="86.348083" height="40.325317" x="-48.259808" y="-535.99817" ry="13.081078" style="display:inline;fill:#4d4d4d;fill-opacity:1;stroke-width:.320681;-inkscape-stroke:none;paint-order:markers stroke fill;stop-color:#000" transform="rotate(-90)"/><rect width="13.096207" height="86.353874" x="-522.22223" y="-38.085289" ry="0" style="display:inline;fill:#606060;fill-opacity:1;stroke-width:.363559;-inkscape-stroke:none;paint-order:markers stroke fill;stop-color:#000"/><rect width="58.629593" height="9.5805492" x="452.24408" y="22.962334" ry="4.7902746" style="display:inline;fill:#191919;fill-opacity:1;stroke-width:.332656;-inkscape-stroke:none;paint-order:markers stroke fill;stop-color:#000" transform="scale(-1)"/><rect width="113.17762" height="13.999383" x="-31.461287" y="-530.30273" ry="6.9996915" style="display:inline;fill:#191919;fill-opacity:1;stroke-width:.558697;-inkscape-stroke:none;paint-order:markers stroke fill;stop-color:#000" transform="rotate(-90)"/><rect width="27.130602" height="13.999383" x="503.1098" y="-31.429115" ry="6.9996915" style="display:inline;fill:#191919;fill-opacity:1;stroke-width:.273542;-inkscape-stroke:none;paint-order:markers stroke fill;stop-color:#000" transform="scale(-1)"/><rect width="58.933609" height="9.5805492" x="23.010088" y="-510.91986" ry="4.7902746" style="display:inline;fill:#191919;fill-opacity:1;stroke-width:.333517;-inkscape-stroke:none;paint-order:markers stroke fill;stop-color:#000" transform="rotate(-90)"/><path d="M-513.32 4.066c.275-.214.825-.64 1.362-1.037a36 36 0 0 1 1.6-1.117A23 23 0 0 1-508.7.907a19 19 0 0 1 1.644-.786c.494-.207.9-.35 1.383-.48a13 13 0 0 1 1.503-.317 5.7 5.7 0 0 1 1.218-.055c.393.024.815.085 1.26.227s.913.367 1.303.618c.39.25.7.528.998.857.297.328.581.709.804 1.124.222.415.383.864.495 1.325s.173.932.193 1.342 0 .757-.044 1.069-.11.586-.187.83a5 5 0 0 1-.28.68 5 5 0 0 1-.458.768c-.214.298-.508.65-.801.939s-.587.515-.83.682a3.3 3.3 0 0 1-.754.394c-.315.12-.749.254-1.11.33-.36.075-.647.093-.96.084a6 6 0 0 1-1.089-.133 9.5 9.5 0 0 1-1.515-.449 14.4 14.4 0 0 1-3.042-1.687 26 26 0 0 1-1.549-1.211 49 49 0 0 1-1.572-1.399c-.466-.43-.835-.78-1.07-.997a9 9 0 0 0-.384-.341c-.05-.042-.05-.042.225-.255" style="display:inline;fill:#212226;stroke:#121212;stroke-width:.600424;stroke-linecap:round;stroke-linejoin:round;stroke-miterlimit:10"/><path d="M-500.297 9.484c.014-.174.042-.52.056-.911.013-.39.012-.823-.048-1.277a9 9 0 0 0-.304-1.362 8.5 8.5 0 0 0-.458-1.243 9 9 0 0 0-.725-1.266 8.4 8.4 0 0 0-2.15-2.17c-.465-.322-.999-.62-1.381-.807-.383-.188-.616-.265-.77-.316s-.23-.077-.272-.121c-.043-.045-.053-.108.003-.157.056-.05.176-.084.354-.136s.412-.121.791-.206.901-.186 1.393-.229a5.7 5.7 0 0 1 2.745.427c.401.174.737.39 1.034.614s.555.457.806.744c.251.288.496.63.677.967.182.335.302.664.412 1.037s.21.791.25 1.199c.042.407.025.804-.016 1.196a6 6 0 0 1-.225 1.166 5.6 5.6 0 0 1-.492 1.128 5.7 5.7 0 0 1-.671.937c-.233.261-.462.464-.595.585s-.17.16-.196.194c-.027.033-.043.06-.08.089a1 1 0 0 1-.123.076c-.028.016-.029.016-.015-.158" style="display:inline;fill:#0f0f0f;fill-opacity:1;stroke:#121212;stroke-width:.600424;stroke-linecap:round;stroke-linejoin:round;stroke-miterlimit:10;stroke-opacity:0"/><path d="M-503.82 7.4a6 6 0 0 1-.68-.017 4.3 4.3 0 0 1-.937-.183 4.6 4.6 0 0 1-.95-.442 7.6 7.6 0 0 1-.917-.66 11.5 11.5 0 0 1-1.511-1.489 9 9 0 0 1-.46-.569c-.08-.116-.052-.121.02-.11.073.011.19.04.388.048.199.009.479-.002.804-.066s.695-.18 1.048-.299c.352-.118.688-.237.934-.32.245-.082.402-.129.551-.172s.291-.083.353-.118c.061-.034.042-.064-.083-.13a3 3 0 0 0-.593-.236 2.8 2.8 0 0 0-.742-.084c-.262.002-.542.027-.671.026-.13-.001-.107-.028-.042-.111.064-.084.17-.224.336-.42.165-.195.39-.447.652-.672.261-.224.56-.423.809-.557s.449-.207.555-.232.119-.003.206.051c.088.055.25.141.472.274.223.132.505.31.833.592s.703.667 1.077 1.11c.374.441.749.939 1.066 1.52s.576 1.246.756 1.91c.179.664.278 1.326.316 1.667.039.34.017.36-.09.452a8 8 0 0 1-.503.402 4.1 4.1 0 0 1-1.497.683c-.33.078-.724.137-1.046.152a3.4 3.4 0 0 1-.848-.065 4.4 4.4 0 0 1-.909-.265 5.7 5.7 0 0 1-.965-.534 4 4 0 0 1-.565-.464c-.089-.093-.067-.099.03-.079.096.02.267.066.475.096s.451.045.741.035.628-.046.869-.1c.24-.056.385-.13.497-.208.113-.077.195-.155.248-.225s.078-.132.09-.162c.013-.031.013-.031-.117-.028" style="display:inline;fill:url(#b);fill-opacity:1;stroke:none;stroke-width:.600424;stroke-linecap:round;stroke-linejoin:round;stroke-miterlimit:10"/><path d="M-504.89.552c.137-.044.41-.133.763-.175s.79-.036 1.162.008c.374.044.685.127.98.233.296.105.576.235.914.463.337.228.732.554 1.07.993a5.7 5.7 0 0 1 .787 1.443c.165.453.214.807.226 1.18s-.012.765-.099 1.154a5.5 5.5 0 0 1-.37 1.063 4 4 0 0 1-.702 1.074c-.075.083-.097.096-.118-.085-.02-.18-.04-.554-.094-.93a6.3 6.3 0 0 0-.314-1.238 15 15 0 0 0-.629-1.493 5.3 5.3 0 0 0-.582-.942c-.214-.284-.482-.61-.78-.922a8.4 8.4 0 0 0-.945-.863c-.322-.248-.64-.443-.86-.58l-.416-.26c-.075-.047-.102-.063-.115-.07s-.014-.009.122-.053" style="display:inline;fill:#0076d5;fill-opacity:1;stroke:#008cff;stroke-width:.605161;stroke-linecap:round;stroke-linejoin:round;stroke-miterlimit:10;stroke-opacity:0"/><rect width="1.5434815" height="12.090605" x="-475.31482" y="-77.494804" ry="0.85620159" style="fill:#191919;fill-opacity:1;stroke-width:.414963;-inkscape-stroke:none;paint-order:markers stroke fill;stop-color:#000"/><rect width="109.35097" height="10.171687" x="-29.580671" y="-528.42047" ry="5.0858436" style="display:inline;fill:#004d00;fill-opacity:1;stroke-width:.468112;-inkscape-stroke:none;paint-order:markers stroke fill;stop-color:#000" transform="rotate(-90)"/><rect width="23.220615" height="10.171687" x="505.17163" y="-29.599434" ry="5.0858436" style="display:inline;fill:#004d00;fill-opacity:1;stroke-width:.215712;-inkscape-stroke:none;paint-order:markers stroke fill;stop-color:#000" transform="scale(-1)"/><rect width="55.166004" height="6.6659579" x="454.18179" y="24.467857" ry="3.332979" style="display:inline;fill:#004d00;fill-opacity:1;stroke-width:.269158;-inkscape-stroke:none;paint-order:markers stroke fill;stop-color:#000" transform="scale(-1)"/><rect width="55.976292" height="6.6659579" x="-80.42009" y="502.80496" ry="3.332979" style="display:inline;fill:#004d00;fill-opacity:1;stroke-width:.271128;-inkscape-stroke:none;paint-order:markers stroke fill;stop-color:#000" transform="rotate(90)"/><rect width="1.5434815" height="8.2541466" x="-464.97827" y="-31.931328" ry="0.58452106" style="display:inline;fill:#191919;fill-opacity:1;stroke-width:.342864;-inkscape-stroke:none;paint-order:markers stroke fill;stop-color:#000"/><rect width="1.5434815" height="8.2541466" x="-477.5397" y="-31.868706" ry="0.58452106" style="display:inline;fill:#191919;fill-opacity:1;stroke-width:.342864;-inkscape-stroke:none;paint-order:markers stroke fill;stop-color:#000"/><rect width="1.5434815" height="8.2541466" x="-490.76886" y="-31.835625" ry="0.58452106" style="display:inline;fill:#191919;fill-opacity:1;stroke-width:.342864;-inkscape-stroke:none;paint-order:markers stroke fill;stop-color:#000"/><rect width="1.5434815" height="8.2541466" x="-502.80737" y="-32.067131" ry="0.58452106" style="display:inline;fill:#191919;fill-opacity:1;stroke-width:.342864;-inkscape-stroke:none;paint-order:markers stroke fill;stop-color:#000"/><rect width="1.5434815" height="8.2541466" x="35.750629" y="-510.17123" ry="0.58452106" style="display:inline;fill:#191919;fill-opacity:1;stroke-width:.342864;-inkscape-stroke:none;paint-order:markers stroke fill;stop-color:#000" transform="rotate(-90)"/><rect width="1.5434815" height="8.2541466" x="48.105427" y="-510.41742" ry="0.58452106" style="display:inline;fill:#191919;fill-opacity:1;stroke-width:.342864;-inkscape-stroke:none;paint-order:markers stroke fill;stop-color:#000" transform="rotate(-90)"/><rect width="1.5434815" height="8.2541466" x="59.546711" y="-509.99921" ry="0.58452106" style="display:inline;fill:#191919;fill-opacity:1;stroke-width:.342864;-inkscape-stroke:none;paint-order:markers stroke fill;stop-color:#000" transform="rotate(-90)"/><ellipse cx="-506.16388" cy="77.17437" rx="4.7854743" ry="4.7423615" style="display:inline;fill:#191919;fill-opacity:1;stroke-width:.0641944;-inkscape-stroke:none;paint-order:markers stroke fill;stop-color:#000" transform="scale(1 -1)"/><ellipse cx="-506.15112" cy="77.238762" rx="3.6683733" ry="3.6353247" style="display:inline;fill:#004d00;fill-opacity:1;stroke-width:.0492091;-inkscape-stroke:none;paint-order:markers stroke fill;stop-color:#000" transform="scale(1 -1)"/><ellipse cx="-457.1463" cy="27.874535" rx="4.7854743" ry="4.7423615" style="display:inline;fill:#191919;fill-opacity:1;stroke-width:.0641944;-inkscape-stroke:none;paint-order:markers stroke fill;stop-color:#000" transform="scale(1 -1)"/><ellipse cx="-457.13354" cy="27.938896" rx="3.6683733" ry="3.6353247" style="display:inline;fill:#004d00;fill-opacity:1;stroke-width:.0492091;-inkscape-stroke:none;paint-order:markers stroke fill;stop-color:#000" transform="scale(1 -1)"/><ellipse cx="-523.31171" cy="74.984245" rx="7.0105634" ry="6.9474049" style="display:inline;fill:#191919;fill-opacity:1;stroke-width:.0940428;-inkscape-stroke:none;paint-order:markers stroke fill;stop-color:#000" transform="scale(1 -1)"/><ellipse cx="-523.33459" cy="74.903587" rx="5.337255" ry="5.2891712" style="display:inline;fill:#004d00;fill-opacity:1;stroke-width:.0715963;-inkscape-stroke:none;paint-order:markers stroke fill;stop-color:#000" transform="scale(1 -1)"/><ellipse cx="-510.1019" cy="-24.44236" rx="7.0105634" ry="6.9474049" style="display:inline;fill:#191919;fill-opacity:1;stroke-width:.0940428;-inkscape-stroke:none;paint-order:markers stroke fill;stop-color:#000" transform="scale(1 -1)"/><ellipse cx="-510.12482" cy="-24.522987" rx="5.337255" ry="5.2891712" style="display:inline;fill:#004d00;fill-opacity:1;stroke-width:.0715963;-inkscape-stroke:none;paint-order:markers stroke fill;stop-color:#000" transform="scale(1 -1)"/><rect width="1.5434815" height="12.057532" x="-518.23889" y="18.345039" ry="0.85385948" style="display:inline;fill:#191919;fill-opacity:1;stroke-width:.414395;-inkscape-stroke:none;paint-order:markers stroke fill;stop-color:#000"/><rect width="1.5434815" height="12.057532" x="-19.354902" y="-529.30524" ry="0.85385948" style="display:inline;fill:#191919;fill-opacity:1;stroke-width:.414395;-inkscape-stroke:none;paint-order:markers stroke fill;stop-color:#000" transform="rotate(-90)"/><rect width="1.5434815" height="12.057532" x="-5.0832949" y="-529.32654" ry="0.85385948" style="display:inline;fill:#191919;fill-opacity:1;stroke-width:.414395;-inkscape-stroke:none;paint-order:markers stroke fill;stop-color:#000" transform="rotate(-90)"/><rect width="1.5434815" height="12.057532" x="9.9090147" y="-529.14471" ry="0.85385948" style="display:inline;fill:#191919;fill-opacity:1;stroke-width:.414395;-inkscape-stroke:none;paint-order:markers stroke fill;stop-color:#000" transform="rotate(-90)"/><rect width="1.5434815" height="12.057532" x="25.156755" y="-529.28503" ry="0.85385948" style="display:inline;fill:#191919;fill-opacity:1;stroke-width:.414395;-inkscape-stroke:none;paint-order:markers stroke fill;stop-color:#000" transform="rotate(-90)"/><rect width="1.5434815" height="12.057532" x="39.814503" y="-529.44421" ry="0.85385948" style="display:inline;fill:#191919;fill-opacity:1;stroke-width:.414395;-inkscape-stroke:none;paint-order:markers stroke fill;stop-color:#000" transform="rotate(-90)"/><rect width="1.5434815" height="12.057532" x="55.457081" y="-529.19952" ry="0.85385948" style="display:inline;fill:#191919;fill-opacity:1;stroke-width:.414395;-inkscape-stroke:none;paint-order:markers stroke fill;stop-color:#000" transform="rotate(-90)"/></g></svg>