<svg xmlns="http://www.w3.org/2000/svg" width="242.80042" height="124.41629" viewBox="0 0 64.240943 32.918478"><path d="M1.058 1.058v21.154h30.556c1.465 6.863 6.142 11.882 11.686 11.882s10.22-5.02 11.686-11.882H67.54V1.058Z" style="fill:#5e5e5e;stroke:#3f3f3f;stroke-width:2.11667;stroke-linecap:round;stroke-linejoin:round;stroke-miterlimit:10;stroke-dasharray:none;stroke-opacity:1" transform="scale(.93646)"/><path fill="#757575" stroke="#3f3f3f" stroke-linecap="round" stroke-linejoin="round" stroke-width="2.06604" d="M1.058 1.058h15.059c.705 0 1.433.117 1.45 1.291.015 1.174-.68 3.517-1.985 5.447s-3.219 3.445-5.567 4.353c-2.347.908-7.555 1.263-8.957 1.081z" style="stroke-miterlimit:10" transform="scale(.93646)"/><path fill="#222" stroke="#3f3f3f" stroke-linecap="round" stroke-linejoin="round" stroke-width="1.26591" d="M3.853 6.216a3.186 3.186 0 1 1 6.372 0 3.186 3.186 0 0 1-6.372 0" style="stroke-miterlimit:10" transform="scale(.93646)"/><path fill="#424242" stroke="#000" stroke-width="1.10271" d="M34.034 6.73V3.516h4.725v3.212zm13.985.125V3.643h4.725v3.212z" style="stroke:#0f0f0f;stroke-miterlimit:10;stroke-opacity:1" transform="scale(.93646)"/><path fill="#1e1e1e" stroke="#000" stroke-width="2.0625344208" d="M48.983 17.03c0 6.882-3.76 12.46-8.398 12.46-4.639 0-8.4-5.578-8.4-12.46 0-3.838-.62-9.613 1.22-11.898 1.46-1.812 12.648-1.799 14.11.033 1.824 2.286 1.468 8.045 1.468 11.865z"/></svg>