<svg xmlns="http://www.w3.org/2000/svg" width="320.05881" height="932.34589" viewBox="0 0 84.682225 246.68318"><g transform="matrix(.93647 0 0 -.93647 -1856.593 841.884)"><path d="M2001.581 636.832h51.793v7.312h-51.793zm.281 106.472h51.792v7.311h-51.792z" style="fill:#333;fill-opacity:1;stroke:#181818;stroke-width:2.5;stroke-linecap:square;stroke-linejoin:round;stroke-dasharray:none;stroke-opacity:1;paint-order:normal;stop-color:#000"/><path d="M1984.634 891.211h86.069v6.977h-86.069z" style="fill:#333;fill-opacity:1;stroke:#181818;stroke-width:1.62719;stroke-linecap:square;stroke-linejoin:round;stroke-dasharray:none;stroke-opacity:1;paint-order:normal;stop-color:#000"/><path d="M2016.605 638.142h22.164V890.36h-22.164z" style="fill:#333;stroke:#181818;stroke-width:3.22301;stroke-linecap:square;stroke-dasharray:none;stroke-opacity:1;stop-color:#000"/><rect width="30.047935" height="5.7062693" x="1985.7523" y="867.01825" ry="0" style="fill:#4d4d4d;fill-opacity:1;stroke:#181818;stroke-width:2.34998;stroke-linecap:square;stroke-linejoin:round;stroke-dasharray:none;stroke-opacity:1;paint-order:normal;stop-color:#000"/><rect width="12.956505" height="34.112766" x="1999.2546" y="853.2453" ry="2.6236489" style="fill:#333;fill-opacity:1;stroke:#181818;stroke-width:2.0632;stroke-linecap:square;stroke-linejoin:round;stroke-dasharray:none;stroke-opacity:1;paint-order:normal;stop-color:#000"/><rect width="12.956505" height="34.112766" x="1983.5845" y="853.07965" ry="2.6236489" style="fill:#333;fill-opacity:1;stroke:#181818;stroke-width:2.0632;stroke-linecap:square;stroke-linejoin:round;stroke-dasharray:none;stroke-opacity:1;paint-order:normal;stop-color:#000"/><rect width="30.047935" height="5.7062693" x="1985.7605" y="827.26801" ry="0" style="fill:#4d4d4d;fill-opacity:1;stroke:#181818;stroke-width:2.34998;stroke-linecap:square;stroke-linejoin:round;stroke-dasharray:none;stroke-opacity:1;paint-order:normal;stop-color:#000"/><rect width="12.956505" height="34.112766" x="1999.2628" y="813.49512" ry="2.6236489" style="fill:#333;fill-opacity:1;stroke:#181818;stroke-width:2.0632;stroke-linecap:square;stroke-linejoin:round;stroke-dasharray:none;stroke-opacity:1;paint-order:normal;stop-color:#000"/><rect width="12.956505" height="34.112766" x="1983.5927" y="813.32947" ry="2.6236489" style="fill:#333;fill-opacity:1;stroke:#181818;stroke-width:2.0632;stroke-linecap:square;stroke-linejoin:round;stroke-dasharray:none;stroke-opacity:1;paint-order:normal;stop-color:#000"/><rect width="30.047935" height="5.7062693" x="-2069.7029" y="867.00879" ry="0" style="fill:#4d4d4d;fill-opacity:1;stroke:#181818;stroke-width:2.34998;stroke-linecap:square;stroke-linejoin:round;stroke-dasharray:none;stroke-opacity:1;paint-order:normal;stop-color:#000" transform="scale(-1 1)"/><rect width="12.956505" height="34.112766" x="-2056.2004" y="853.23584" ry="2.6236489" style="fill:#333;fill-opacity:1;stroke:#181818;stroke-width:2.0632;stroke-linecap:square;stroke-linejoin:round;stroke-dasharray:none;stroke-opacity:1;paint-order:normal;stop-color:#000" transform="scale(-1 1)"/><rect width="12.956505" height="34.112766" x="-2071.9487" y="853.07019" ry="2.6236489" style="fill:#333;fill-opacity:1;stroke:#181818;stroke-width:2.0632;stroke-linecap:square;stroke-linejoin:round;stroke-dasharray:none;stroke-opacity:1;paint-order:normal;stop-color:#000" transform="scale(-1 1)"/><rect width="30.047935" height="5.7062693" x="-2069.6946" y="827.25848" ry="0" style="fill:#4d4d4d;fill-opacity:1;stroke:#181818;stroke-width:2.34998;stroke-linecap:square;stroke-linejoin:round;stroke-dasharray:none;stroke-opacity:1;paint-order:normal;stop-color:#000" transform="scale(-1 1)"/><rect width="12.956505" height="34.112766" x="-2056.1924" y="813.4856" ry="2.6236489" style="fill:#333;fill-opacity:1;stroke:#181818;stroke-width:2.0632;stroke-linecap:square;stroke-linejoin:round;stroke-dasharray:none;stroke-opacity:1;paint-order:normal;stop-color:#000" transform="scale(-1 1)"/><rect width="12.956505" height="34.112766" x="-2071.9407" y="813.31995" ry="2.6236489" style="fill:#333;fill-opacity:1;stroke:#181818;stroke-width:2.0632;stroke-linecap:square;stroke-linejoin:round;stroke-dasharray:none;stroke-opacity:1;paint-order:normal;stop-color:#000" transform="scale(-1 1)"/><path d="M-812.027 2018.313h5.353v18.749h-5.353z" style="fill:#404040;fill-opacity:1;stroke:none;stroke-width:.895485;stroke-linecap:square;stroke-linejoin:round;stroke-dasharray:none;stroke-opacity:1;paint-order:normal;stop-color:#000" transform="rotate(-90)"/><path d="M-890.285 2018.222h5.353v18.931h-5.353z" style="fill:#404040;fill-opacity:1;stroke:none;stroke-width:.899819;stroke-linecap:square;stroke-linejoin:round;stroke-dasharray:none;stroke-opacity:1;paint-order:normal;stop-color:#000" transform="rotate(-90)"/><path d="M-853.204 2018.29h5.353v18.749h-5.353zm164.709.077h5.353v18.75h-5.353zm43.366-.1h5.353v18.748h-5.353zm-121.624.109h5.353v18.749h-5.353zm37.081-.032h5.353v18.749h-5.353z" style="fill:#404040;fill-opacity:1;stroke:none;stroke-width:.895485;stroke-linecap:square;stroke-linejoin:round;stroke-dasharray:none;stroke-opacity:1;paint-order:normal;stop-color:#000" transform="rotate(-90)"/><path d="M-1991.393-847.177h2.828v33.053h-2.828zm-15.527.202h2.827v33.053h-2.827zm15.485-40.053h2.827v33.053h-2.828zm-15.528.202h2.827v33.053h-2.827z" style="fill:#181818;fill-opacity:1;stroke:none;stroke-width:.864093;stroke-linecap:square;stroke-linejoin:round;stroke-dasharray:none;stroke-opacity:1;paint-order:normal;stop-color:#000" transform="scale(-1)"/><path d="M2063.965-886.857h2.827v33.053h-2.827zm-15.528.202h2.827v33.053h-2.827z" style="fill:#181818;fill-opacity:1;stroke:none;stroke-width:.864093;stroke-linecap:square;stroke-linejoin:round;stroke-dasharray:none;stroke-opacity:1;paint-order:normal;stop-color:#000" transform="scale(1 -1)"/><path d="M-2051.037-847.143h2.827v33.053h-2.827zm-15.528.202h2.828v33.053h-2.828z" style="fill:#181818;fill-opacity:1;stroke:none;stroke-width:.864093;stroke-linecap:square;stroke-linejoin:round;stroke-dasharray:none;stroke-opacity:1;paint-order:normal;stop-color:#000" transform="scale(-1)"/><circle cx="1997.0092" cy="747.05817" r="4.8643055" style="fill:#454545;fill-opacity:1;stroke:#181818;stroke-width:2.5;stroke-linecap:square;stroke-linejoin:round;stroke-dasharray:none;stroke-opacity:1;paint-order:fill markers stroke;stop-color:#000"/><circle cx="2058.5378" cy="746.75189" r="4.8643055" style="fill:#454545;fill-opacity:1;stroke:#181818;stroke-width:2.5;stroke-linecap:square;stroke-linejoin:round;stroke-dasharray:none;stroke-opacity:1;paint-order:fill markers stroke;stop-color:#000"/><path d="M1986.431 642.037h28.763v249.501h-28.763z" style="fill:#454545;fill-opacity:1;stroke:#181818;stroke-width:2.31206;stroke-linecap:square;stroke-linejoin:round;stroke-dasharray:none;stroke-opacity:1;paint-order:fill markers stroke;stop-color:#000"/><path d="M2039.8 642.012h28.764v249.27H2039.8z" style="fill:#454545;fill-opacity:1;stroke:#181818;stroke-width:2.31104;stroke-linecap:square;stroke-linejoin:round;stroke-dasharray:none;stroke-opacity:1;paint-order:fill markers stroke;stop-color:#000"/><path d="M-2058.245-890.12h8.13v246.91h-8.13zm53.651-.238h8.13v246.91h-8.13z" style="fill:gray;fill-opacity:1;stroke:none;stroke-width:4.00507;stroke-linecap:square;stroke-linejoin:round;stroke-dasharray:none;stroke-opacity:1;paint-order:normal;stop-color:#000" transform="scale(-1)"/></g></svg>