<svg xmlns="http://www.w3.org/2000/svg" width="407.24243" height="1058.238" viewBox="0 0 107.74956 279.99216"><g style="stroke-width:.963809" transform="matrix(1.00266 0 0 1.0079 -.038 -.03)"><g style="stroke-width:.963809" transform="translate(.262)"><path d="M10.307-217.736h86.131v124.03H10.307z" style="fill:#4d4d4d;stroke:#181818;stroke-width:2.46639;stroke-linecap:square;stroke-linejoin:round;stroke-dasharray:none;stroke-opacity:1;stop-color:#000" transform="scale(1 -1)"/><rect width="90.502663" height="49.06966" x="8.2566099" y="-169.71422" ry="8.0156107" style="fill:gray;stroke:#181818;stroke-width:2.40952;stroke-linecap:square;stroke-dasharray:none;stroke-opacity:1;paint-order:fill markers stroke;stop-color:#000" transform="scale(1 -1)"/><path d="M15.13-216.102h76.441v15.963h-76.44z" style="fill:gray;stroke:#181818;stroke-width:2.3525;stroke-linecap:square;stroke-dasharray:none;stroke-opacity:1;stop-color:#000" transform="scale(1 -1)"/><path d="M63.214-203.055h22.798v7.515H63.214z" style="fill:#999;fill-opacity:1;stroke:#181818;stroke-width:2.28833;stroke-linecap:square;stroke-linejoin:round;stroke-dasharray:none;stroke-opacity:1;paint-order:normal;stop-color:#000" transform="scale(1 -1)"/><ellipse cx="33.002827" cy="-198.5883" rx="11.235309" ry="5.5291042" style="fill:#4d4d4d;fill-opacity:1;stroke:#181818;stroke-width:2.93122;stroke-linecap:square;stroke-linejoin:round;stroke-dasharray:none;stroke-opacity:1;paint-order:normal;stop-color:#000" transform="scale(1 -1)"/><path d="M16.856-214.126h73.126v13.84H16.856z" style="fill:#0094b2;fill-opacity:.3;stroke:#005465;stroke-width:1.9395;stroke-linecap:square;stroke-linejoin:round;stroke-dasharray:none;stroke-opacity:.8;paint-order:normal;stop-color:#000" transform="scale(1 -1)"/><rect width="41.533684" height="15.715447" x="31.838764" y="-153.87413" ry="2.3151042" style="fill:#595959;fill-opacity:1;stroke:#181818;stroke-width:1.92762;stroke-linecap:square;stroke-dasharray:none;stroke-opacity:1;paint-order:normal;stop-color:#000" transform="scale(1 -1)"/><rect width="76.876373" height="27.746502" x="14.916156" y="-198.6834" ry="0" style="fill:#666;stroke:#181818;stroke-width:1.92472;stroke-linecap:square;stroke-dasharray:none;stroke-opacity:1;stop-color:#000" transform="scale(1 -1)"/><path d="M16.216-168.478h5.353v46.583h-5.353z" style="fill:#666;fill-opacity:1;stroke:none;stroke-width:1.36044;stroke-linecap:square;stroke-linejoin:round;stroke-dasharray:none;stroke-opacity:1;paint-order:normal;stop-color:#000" transform="scale(1 -1)"/><path d="M18.024-119.394h5.353v24.406h-5.353zm10.478.004h5.353v24.406h-5.353zm44.009-.01h5.353v24.405h-5.353zm10.479.004h5.352v24.406H82.99z" style="fill:#595959;fill-opacity:1;stroke:none;stroke-width:.984714;stroke-linecap:square;stroke-linejoin:round;stroke-dasharray:none;stroke-opacity:1;paint-order:normal;stop-color:#000" transform="scale(1 -1)"/><path d="M85.375-168.462h5.353v46.583h-5.353z" style="fill:#666;fill-opacity:1;stroke:none;stroke-width:1.36044;stroke-linecap:square;stroke-linejoin:round;stroke-dasharray:none;stroke-opacity:1;paint-order:normal;stop-color:#000" transform="scale(1 -1)"/><path d="M180.73 15.942h5.027v74.832h-5.027z" style="fill:#5e5e5e;fill-opacity:1;stroke:none;stroke-width:3.87246;stroke-linecap:square;stroke-linejoin:round;stroke-dasharray:none;stroke-opacity:1;paint-order:fill markers stroke;stop-color:#000" transform="matrix(0 1 1 0 0 0)"/></g><path d="M1.041-276.825h105.457v9.328H1.041z" style="fill:#333;fill-opacity:1;stroke:#181818;stroke-width:2.00728;stroke-linecap:square;stroke-linejoin:round;stroke-dasharray:none;stroke-opacity:1;paint-order:normal;stop-color:#000" transform="scale(1 -1)"/><rect width="19.38073" height="2.3812499" x="5.4922056" y="-270.89606" ry="0.74414062" style="fill:#d9d96d;fill-opacity:.45;stroke:none;stroke-width:2.40952;stroke-linecap:square;stroke-linejoin:round;stroke-dasharray:none;stroke-opacity:1;paint-order:fill markers stroke;stop-color:#000" transform="scale(1 -1)"/><rect width="19.38073" height="2.3812499" x="82.537735" y="-270.89294" ry="0.74414062" style="fill:#d9d96d;fill-opacity:.45;stroke:none;stroke-width:2.40952;stroke-linecap:square;stroke-linejoin:round;stroke-dasharray:none;stroke-opacity:1;paint-order:fill markers stroke;stop-color:#000" transform="scale(1 -1)"/><path d="M28.907-271.2H79.09v4.2H28.907z" style="fill:gray;stroke:#181818;stroke-width:2.18741;stroke-linecap:square;stroke-linejoin:round;stroke-opacity:1;stop-color:#000" transform="scale(1 -1)"/><g style="stroke-width:.963809"><path d="M4.47-265.167h20.943v46.864H4.47z" style="fill:#4d4d4d;stroke:#181818;stroke-width:2.75299;stroke-linecap:square;stroke-linejoin:round;stroke-opacity:1;stop-color:#000" transform="matrix(1 0 0 -1 .254 0)"/><path d="M12.135-263.747h5.353v43.956h-5.353z" style="fill:#595959;fill-opacity:1;stroke:none;stroke-width:1.32153;stroke-linecap:square;stroke-linejoin:round;stroke-dasharray:none;stroke-opacity:1;paint-order:normal;stop-color:#000" transform="matrix(1 0 0 -1 .254 0)"/><path d="M81.868-265.253h20.71v46.335h-20.71z" style="fill:#4d4d4d;stroke:#181818;stroke-width:2.72217;stroke-linecap:square;stroke-linejoin:round;stroke-opacity:1;stop-color:#000" transform="matrix(1 0 0 -1 .254 0)"/><path d="M89.447-263.833H94.8v43.513h-5.353z" style="fill:#595959;fill-opacity:1;stroke:none;stroke-width:1.31484;stroke-linecap:square;stroke-linejoin:round;stroke-dasharray:none;stroke-opacity:1;paint-order:normal;stop-color:#000" transform="matrix(1 0 0 -1 .254 0)"/><path d="M19.434 219.211h67.97l-6.312 46.71H26.986Z" style="fill:#595959;fill-opacity:1;stroke:#181818;stroke-width:2.56854;stroke-linecap:square;stroke-opacity:1;stop-color:#000" transform="translate(.254)"/><path d="M258.952 46.968h3.107v14.17h-3.107z" style="fill:#666;fill-opacity:1;stroke:none;stroke-width:.571715;stroke-linecap:square;stroke-linejoin:round;stroke-dasharray:none;stroke-opacity:1;paint-order:normal;stop-color:#000" transform="matrix(0 1 1 0 .254 0)"/></g><path d="M10.735-7.79h86.07v6.976h-86.07z" style="fill:#333;fill-opacity:1;stroke:#181818;stroke-width:1.5683;stroke-linecap:square;stroke-linejoin:round;stroke-dasharray:none;stroke-opacity:1;paint-order:normal;stop-color:#000" transform="scale(1 -1)"/><path d="M42.088-118.719h23.204V-8.12H42.088z" style="fill:#333;stroke:#181818;stroke-width:2.10469;stroke-linecap:square;stroke-dasharray:none;stroke-opacity:1;stop-color:#000" transform="scale(1 -1)"/><rect width="30.047935" height="5.7062693" x="11.755291" y="-31.98308" ry="0" style="fill:#4d4d4d;fill-opacity:1;stroke:#181818;stroke-width:2.26493;stroke-linecap:square;stroke-linejoin:round;stroke-dasharray:none;stroke-opacity:1;paint-order:normal;stop-color:#000" transform="scale(1 -1)"/><rect width="12.956505" height="34.112766" x="25.257612" y="-45.756027" ry="2.6236489" style="fill:#333;fill-opacity:1;stroke:#181818;stroke-width:1.98853;stroke-linecap:square;stroke-linejoin:round;stroke-dasharray:none;stroke-opacity:1;paint-order:normal;stop-color:#000" transform="scale(1 -1)"/><rect width="12.956505" height="34.112766" x="9.5874443" y="-45.921677" ry="2.6236489" style="fill:#333;fill-opacity:1;stroke:#181818;stroke-width:1.98853;stroke-linecap:square;stroke-linejoin:round;stroke-dasharray:none;stroke-opacity:1;paint-order:normal;stop-color:#000" transform="scale(1 -1)"/><rect width="30.047935" height="5.7062693" x="11.76347" y="-71.733292" ry="0" style="fill:#4d4d4d;fill-opacity:1;stroke:#181818;stroke-width:2.26493;stroke-linecap:square;stroke-linejoin:round;stroke-dasharray:none;stroke-opacity:1;paint-order:normal;stop-color:#000" transform="scale(1 -1)"/><rect width="12.956505" height="34.112766" x="25.265791" y="-85.50621" ry="2.6236489" style="fill:#333;fill-opacity:1;stroke:#181818;stroke-width:1.98853;stroke-linecap:square;stroke-linejoin:round;stroke-dasharray:none;stroke-opacity:1;paint-order:normal;stop-color:#000" transform="scale(1 -1)"/><rect width="12.956505" height="34.112766" x="9.595623" y="-85.67186" ry="2.6236489" style="fill:#333;fill-opacity:1;stroke:#181818;stroke-width:1.98853;stroke-linecap:square;stroke-linejoin:round;stroke-dasharray:none;stroke-opacity:1;paint-order:normal;stop-color:#000" transform="scale(1 -1)"/><rect width="30.047935" height="5.7062693" x="-95.706337" y="-31.99254" ry="0" style="fill:#4d4d4d;fill-opacity:1;stroke:#181818;stroke-width:2.26493;stroke-linecap:square;stroke-linejoin:round;stroke-dasharray:none;stroke-opacity:1;paint-order:normal;stop-color:#000" transform="scale(-1)"/><rect width="12.956505" height="34.112766" x="-82.203896" y="-45.765488" ry="2.6236489" style="fill:#333;fill-opacity:1;stroke:#181818;stroke-width:1.98853;stroke-linecap:square;stroke-linejoin:round;stroke-dasharray:none;stroke-opacity:1;paint-order:normal;stop-color:#000" transform="scale(-1)"/><rect width="12.956505" height="34.112766" x="-97.952187" y="-45.931137" ry="2.6236489" style="fill:#333;fill-opacity:1;stroke:#181818;stroke-width:1.98853;stroke-linecap:square;stroke-linejoin:round;stroke-dasharray:none;stroke-opacity:1;paint-order:normal;stop-color:#000" transform="scale(-1)"/><rect width="30.047935" height="5.7062693" x="-95.698036" y="-71.742813" ry="0" style="fill:#4d4d4d;fill-opacity:1;stroke:#181818;stroke-width:2.26493;stroke-linecap:square;stroke-linejoin:round;stroke-dasharray:none;stroke-opacity:1;paint-order:normal;stop-color:#000" transform="scale(-1)"/><rect width="12.956505" height="34.112766" x="-82.195839" y="-85.515732" ry="2.6236489" style="fill:#333;fill-opacity:1;stroke:#181818;stroke-width:1.98853;stroke-linecap:square;stroke-linejoin:round;stroke-dasharray:none;stroke-opacity:1;paint-order:normal;stop-color:#000" transform="scale(-1)"/><rect width="12.956505" height="34.112766" x="-97.94413" y="-85.681381" ry="2.6236489" style="fill:#333;fill-opacity:1;stroke:#181818;stroke-width:1.98853;stroke-linecap:square;stroke-linejoin:round;stroke-dasharray:none;stroke-opacity:1;paint-order:normal;stop-color:#000" transform="scale(-1)"/><path d="M86.974 43.178h5.353v21.033h-5.353z" style="fill:#404040;fill-opacity:1;stroke:none;stroke-width:.914129;stroke-linecap:square;stroke-linejoin:round;stroke-dasharray:none;stroke-opacity:1;paint-order:normal;stop-color:#000" transform="matrix(0 1 1 0 0 0)"/><path d="M-17.396 51.825h2.828v33.053h-2.828zm-15.527.201h2.827V85.08h-2.827zm15.484-40.053h2.828v33.053h-2.828zm-15.527.202h2.827v33.053h-2.827z" style="fill:#181818;fill-opacity:1;stroke:none;stroke-width:.83282;stroke-linecap:square;stroke-linejoin:round;stroke-dasharray:none;stroke-opacity:1;paint-order:normal;stop-color:#000" transform="scale(-1 1)"/><path d="M89.968 12.145h2.827v33.052h-2.827zm-15.528.201h2.827V45.4H74.44z" style="fill:#181818;fill-opacity:1;stroke:none;stroke-width:.83282;stroke-linecap:square;stroke-linejoin:round;stroke-dasharray:none;stroke-opacity:1;paint-order:normal;stop-color:#000"/><path d="M45.212 43.164h5.353v21.033h-5.353zm-36.567.025h5.353v21.033H8.645z" style="fill:#404040;fill-opacity:1;stroke:none;stroke-width:.914129;stroke-linecap:square;stroke-linejoin:round;stroke-dasharray:none;stroke-opacity:1;paint-order:normal;stop-color:#000" transform="matrix(0 1 1 0 0 0)"/><path d="M-77.04 51.859h2.827v33.053h-2.828zm-15.528.201h2.827v33.053h-2.827z" style="fill:#181818;fill-opacity:1;stroke:none;stroke-width:.83282;stroke-linecap:square;stroke-linejoin:round;stroke-dasharray:none;stroke-opacity:1;paint-order:normal;stop-color:#000" transform="scale(-1 1)"/></g></svg>