<svg xmlns="http://www.w3.org/2000/svg" width="195.60947" height="195.60947" viewBox="0 0 51.755004 51.755004"><g style="stroke:#392813;stroke-width:2.381;stroke-dasharray:none;stroke-opacity:1" transform="rotate(-90 -119.12 -49.835)"><rect width="7.5903139" height="49.374004" x="-215.97813" y="70.475471" rx="1.5935854" ry="1.5934687" style="fill:#9e7437;fill-opacity:1;stroke:#392813;stroke-width:2.381;stroke-linecap:square;stroke-linejoin:round;stroke-dasharray:none;stroke-opacity:1;paint-order:normal;stop-color:#000"/><rect width="7.5903139" height="49.374004" x="-204.41145" y="70.475471" rx="1.5935854" ry="1.5934687" style="fill:#9e7437;fill-opacity:1;stroke:#392813;stroke-width:2.381;stroke-linecap:square;stroke-linejoin:round;stroke-dasharray:none;stroke-opacity:1;paint-order:normal;stop-color:#000"/><rect width="7.5903139" height="49.374004" x="-192.84477" y="70.475471" rx="1.5935854" ry="1.5935854" style="fill:#9e7437;fill-opacity:1;stroke:#392813;stroke-width:2.381;stroke-linecap:square;stroke-linejoin:round;stroke-dasharray:none;stroke-opacity:1;paint-order:normal;stop-color:#000"/><rect width="7.5903139" height="49.374004" x="-181.27809" y="70.475471" rx="1.5935854" ry="1.5934687" style="fill:#9e7437;fill-opacity:1;stroke:#392813;stroke-width:2.381;stroke-linecap:square;stroke-linejoin:round;stroke-dasharray:none;stroke-opacity:1;paint-order:normal;stop-color:#000"/></g><g style="stroke:#392813;stroke-width:2.381;stroke-dasharray:none;stroke-opacity:1" transform="rotate(-180 -84.478 60.52)"><rect width="7.5903139" height="49.374004" x="-215.97813" y="70.475471" rx="1.5935854" ry="1.5934687" style="fill:#9e7437;fill-opacity:1;stroke:#392813;stroke-width:2.381;stroke-linecap:square;stroke-linejoin:round;stroke-dasharray:none;stroke-opacity:1;paint-order:normal;stop-color:#000"/><rect width="7.5903139" height="49.374004" x="-204.41145" y="70.475471" rx="1.5935854" ry="1.5934687" style="fill:#9e7437;fill-opacity:1;stroke:#392813;stroke-width:2.381;stroke-linecap:square;stroke-linejoin:round;stroke-dasharray:none;stroke-opacity:1;paint-order:normal;stop-color:#000"/><rect width="7.5903139" height="49.374004" x="-192.84477" y="70.475471" rx="1.5935854" ry="1.5935854" style="fill:#9e7437;fill-opacity:1;stroke:#392813;stroke-width:2.381;stroke-linecap:square;stroke-linejoin:round;stroke-dasharray:none;stroke-opacity:1;paint-order:normal;stop-color:#000"/><rect width="7.5903139" height="49.374004" x="-181.27809" y="70.475471" rx="1.5935854" ry="1.5934687" style="fill:#9e7437;fill-opacity:1;stroke:#392813;stroke-width:2.381;stroke-linecap:square;stroke-linejoin:round;stroke-dasharray:none;stroke-opacity:1;paint-order:normal;stop-color:#000"/></g><g style="stroke-width:2.38125;stroke-dasharray:none" transform="rotate(180 52.14 81.75)"><rect width="19.544016" height="41.834824" x="80.120483" y="116.70511" rx="2.7991879" ry="2.7991879" style="fill:#3e6138;fill-opacity:1;stroke:#111f0f;stroke-width:2.38099;stroke-linecap:round;stroke-linejoin:round;stroke-miterlimit:5;stroke-dasharray:none;stroke-opacity:1;paint-order:fill markers stroke"/><g transform="translate(0 -.738)"><rect width="1.9275802" height="3.2882254" x="96.94709" y="149.13246" rx="0" ry="0" style="fill:#1f311b;fill-opacity:1;fill-rule:evenodd;stroke:#111f0f;stroke-width:1.5875;stroke-linecap:round;stroke-linejoin:round;stroke-dasharray:none;stroke-opacity:1"/><rect width="1.9275802" height="3.2882254" x="96.94709" y="124.30054" rx="0" ry="0" style="fill:#1f311b;fill-opacity:1;fill-rule:evenodd;stroke:#111f0f;stroke-width:1.5875;stroke-linecap:round;stroke-linejoin:round;stroke-dasharray:none;stroke-opacity:1"/></g><path d="M82.785 150.785h11.792v3.288H82.785zm0-7.595h11.792v3.289H82.785zm0-7.594h11.792v3.288H82.785zm0-7.595h11.792v3.289H82.785zm0-7.594h11.792v3.288H82.785z" style="fill:#385931;fill-opacity:1;fill-rule:evenodd;stroke:#1c3419;stroke-width:1.587;stroke-linecap:round;stroke-linejoin:round;stroke-dasharray:none;stroke-opacity:1" transform="translate(.247 .382)"/></g><g style="stroke-width:2.38125;stroke-dasharray:none" transform="translate(-98.397 -123.1)"><rect width="19.544016" height="41.834824" x="125.99448" y="128.06064" rx="2.7991879" ry="2.7991879" style="fill:#3e6138;fill-opacity:1;stroke:#111f0f;stroke-width:2.38099;stroke-linecap:round;stroke-linejoin:round;stroke-miterlimit:5;stroke-dasharray:none;stroke-opacity:1;paint-order:fill markers stroke"/><g style="stroke-width:2.38125;stroke-dasharray:none" transform="translate(45.874 10.617)"><rect width="1.9275802" height="3.2882254" x="96.94709" y="149.13246" rx="0" ry="0" style="fill:#1f311b;fill-opacity:1;fill-rule:evenodd;stroke:#111f0f;stroke-width:1.5875;stroke-linecap:round;stroke-linejoin:round;stroke-dasharray:none;stroke-opacity:1"/><rect width="1.9275802" height="3.2882254" x="96.94709" y="124.30054" rx="0" ry="0" style="fill:#1f311b;fill-opacity:1;fill-rule:evenodd;stroke:#111f0f;stroke-width:1.5875;stroke-linecap:round;stroke-linejoin:round;stroke-dasharray:none;stroke-opacity:1"/></g><g style="stroke-width:2.38125;stroke-dasharray:none"><path d="M82.785 150.785h11.792v3.288H82.785zm0-7.595h11.792v3.289H82.785zm0-7.594h11.792v3.288H82.785zm0-7.595h11.792v3.289H82.785zm0-7.594h11.792v3.288H82.785z" style="fill:#385931;fill-opacity:1;fill-rule:evenodd;stroke:#1c3419;stroke-width:1.587;stroke-linecap:round;stroke-linejoin:round;stroke-dasharray:none;stroke-opacity:1" transform="translate(46.121 11.738)"/></g></g></svg>