<svg xmlns="http://www.w3.org/2000/svg" width="131.93883" height="748.22473" viewBox="0 0 34.908814 197.96779"><g transform="translate(-41.62 -29.703)scale(.93647)"><g transform="translate(-.148)"><rect width="5.2023654" height="182.93944" x="48.157368" y="32.513527" ry="1.4283836" style="fill:#a8a8a8;fill-opacity:1;stroke:#333;stroke-width:1.58983;stroke-linecap:square;stroke-linejoin:round;stroke-dasharray:none;stroke-opacity:1;paint-order:fill markers stroke;stop-color:#000"/><path d="M48.966 206.45v-8.11l3.58-3.448v8.147zm.002-17.307v-8.109l3.581-3.448v8.147zm-.028-17.295v-8.109l3.582-3.448v8.147zm.003-17.306v-8.109l3.581-3.448v8.147zm.023-17.713v-8.11l3.581-3.448v8.147zm.003-17.306v-8.11l3.58-3.448v8.147zm-.028-17.295v-8.11l3.581-3.448v8.148zm.003-17.306v-8.11l3.58-3.448v8.148zm.025-17.35v-8.11l3.58-3.447v8.147zm-.028-17.295v-8.11l3.581-3.447v8.147z" style="fill:#870000;fill-opacity:1;stroke:none;stroke-width:1.75138;stroke-linecap:square;stroke-linejoin:round;stroke-dasharray:none;stroke-opacity:1;paint-order:fill markers stroke;stop-color:#000"/></g><rect width="9.3721848" height="26.413754" x="45.924587" y="211.01994" ry="1.7042267" style="fill:#b8c73c;fill-opacity:1;stroke:#444804;stroke-width:2.96102;stroke-linecap:square;stroke-linejoin:round;stroke-dasharray:none;stroke-opacity:1;paint-order:fill markers stroke;stop-color:#000"/><rect width="23.039391" height="33.952785" x="56.963188" y="207.44577" ry="1.6734974" style="fill:#595959;fill-opacity:1;stroke:#252525;stroke-width:3.43729;stroke-linecap:square;stroke-linejoin:round;stroke-dasharray:none;stroke-opacity:1;paint-order:fill markers stroke;stop-color:#000"/></g></svg>