<svg xmlns="http://www.w3.org/2000/svg" width="354.32907" height="185.79984" viewBox="0 0 93.749567 49.159539"><path d="M153.136-190.116h47.159v91.75h-47.16z" style="fill:#dfd8d3;fill-opacity:1;stroke:#272727;stroke-width:2.00001;stroke-linecap:round;stroke-linejoin:round;stroke-dasharray:none;stroke-opacity:1;stop-color:#000" transform="rotate(90 27.384 -124.751)"/><path fill="#e5e0db" fill-rule="evenodd" d="M184.23 169.004a.74.74 0 0 1 .741.742v12.167a.74.74 0 0 1-.741.741h-2.965a.74.74 0 0 1-.742-.741v-12.167c0-.41.332-.742.742-.742z" style="stroke:none;stroke-width:.488332;stroke-linecap:square;stroke-miterlimit:10" transform="translate(-97.367 -152.135)"/><path stroke="#272727" stroke-linejoin="round" stroke-width="1.95333" d="M184.23 169.004a.74.74 0 0 1 .741.742v12.167a.74.74 0 0 1-.741.741h-2.965a.74.74 0 0 1-.742-.741v-12.167c0-.41.332-.742.742-.742z" style="fill:none;stroke-miterlimit:10" transform="translate(-97.367 -152.135)"/><path fill-rule="evenodd" stroke="#272727" stroke-linejoin="round" stroke-width="1.95333" d="M184.635 188.892c0 3.362-4.533 6.088-10.125 6.088h-60.537c-2.686 0-5.26-.641-7.16-1.783-1.899-1.142-2.965-2.69-2.965-4.305v-24.353c0-3.363 4.533-6.089 10.125-6.089h60.537c5.592 0 10.125 2.726 10.125 6.089z" style="fill:#e5e0db;fill-opacity:1;stroke-miterlimit:10" transform="translate(-97.367 -152.135)"/><path fill="#e5e0db" fill-rule="evenodd" d="M180.312 185.825c0 2.516-4.048 4.556-9.041 4.556h-54.059c-2.397 0-4.697-.48-6.393-1.334s-2.648-2.013-2.648-3.222v-18.22c0-2.516 4.048-4.555 9.041-4.555h54.059c4.993 0 9.041 2.039 9.041 4.555z" style="fill:#bdb9b3;fill-opacity:1;stroke:none;stroke-width:.488332;stroke-linecap:square;stroke-miterlimit:10" transform="translate(-97.367 -152.135)"/><path fill="#666" fill-rule="evenodd" d="M186.31 174.627v3.394h-7.77v-3.394z" style="stroke:none;stroke-width:.488332;stroke-linecap:square;stroke-miterlimit:10" transform="translate(-97.367 -152.135)"/><path stroke="#272727" stroke-linejoin="round" stroke-width="1.95333" d="M186.31 175.018v3.394h-7.77v-3.394z" style="fill:none;stroke-miterlimit:10" transform="translate(-97.367 -152.135)"/><path fill="#666" fill-rule="evenodd" d="M183.698 165.016c2.146 0 3.885 1.679 3.885 3.749 0 .994-.41 1.947-1.138 2.65a3.96 3.96 0 0 1-2.747 1.098c-2.145 0-3.884-1.678-3.884-3.748s1.739-3.749 3.884-3.749" style="stroke:none;stroke-width:.488332;stroke-linecap:square;stroke-miterlimit:10" transform="translate(-97.367 -151.584)"/><path stroke="#272727" stroke-linejoin="round" stroke-width="1.92578" d="M183.562 165.003a3.762 3.762 0 0 1 0 7.524 3.762 3.762 0 0 1 0-7.524z" style="fill:none;stroke-miterlimit:10" transform="translate(-97.367 -151.584)"/><path fill="#900" fill-rule="evenodd" d="M183.562 166.851a1.914 1.914 0 1 1 0 3.827 1.914 1.914 0 0 1 0-3.827" style="stroke:none;stroke-width:.479323;stroke-linecap:square;stroke-miterlimit:10" transform="translate(-97.367 -151.584)"/><path fill="#666" fill-rule="evenodd" d="M183.698 180.135c2.146 0 3.885 1.678 3.885 3.748 0 .994-.41 1.948-1.138 2.65a3.96 3.96 0 0 1-2.747 1.098c-2.145 0-3.884-1.678-3.884-3.748s1.739-3.748 3.884-3.748" style="stroke:none;stroke-width:.488332;stroke-linecap:square;stroke-miterlimit:10" transform="translate(-97.367 -151.905)"/><path stroke="#272727" stroke-linejoin="round" stroke-width="1.92579" d="M183.562 180.121a3.762 3.762 0 1 1 0 7.524 3.762 3.762 0 0 1 0-7.524z" style="fill:none;stroke-miterlimit:10" transform="translate(-97.367 -151.905)"/><path fill="#3c78d8" fill-rule="evenodd" d="M183.562 181.97a1.914 1.914 0 0 1 0 3.827 1.913 1.913 0 1 1 0-3.827" style="stroke:none;stroke-width:.480195;stroke-linecap:square;stroke-miterlimit:10" transform="translate(-97.367 -151.905)"/><path fill="#494949" fill-rule="evenodd" d="M-4505.596-424.598c0-.94.787-1.703 1.76-1.703.466 0 .914.18 1.244.499.33.32.516.752.516 1.204 0 .94-.788 1.702-1.76 1.702s-1.76-.762-1.76-1.702" style="stroke:none;stroke-width:.488332;stroke-linecap:square;stroke-miterlimit:10" transform="rotate(180 -2214.637 -200.01)"/><path stroke="#494949" stroke-linejoin="round" stroke-width="0.488332" d="M-4505.596-424.598c0-.94.787-1.703 1.76-1.703.466 0 .914.18 1.244.499.33.32.516.752.516 1.204 0 .94-.788 1.702-1.76 1.702s-1.76-.762-1.76-1.702z" style="fill:none;stroke-miterlimit:10" transform="rotate(180 -2214.637 -200.01)"/></svg>