<svg xmlns="http://www.w3.org/2000/svg" width="511.98666" height="531.60101" viewBox="0 0 511.98666 531.60102"><defs><clipPath id="a" clipPathUnits="userSpaceOnUse"><path d="M1118.505 352.761h206.739v206.74h-206.739Z"/></clipPath><clipPath id="b" clipPathUnits="userSpaceOnUse"><path d="M-155.054 77.527H0V-77.527h-155.054Z"/></clipPath><clipPath id="c" clipPathUnits="userSpaceOnUse"><path d="M977.19 458.523h300.92V759.44H977.19z"/></clipPath><clipPath id="d" clipPathUnits="userSpaceOnUse"><path d="M-225.69 112.845H0v-225.69h-225.69z"/></clipPath><clipPath id="e" clipPathUnits="userSpaceOnUse"><path d="M996.332 190.477h249.705v249.706H996.332Z"/></clipPath><clipPath id="f" clipPathUnits="userSpaceOnUse"><path d="M-187.279 93.64H0V-93.64h-187.279Z"/></clipPath><clipPath id="g" clipPathUnits="userSpaceOnUse"><path d="M977.19 458.523h300.92V759.44H977.19z"/></clipPath><clipPath id="h" clipPathUnits="userSpaceOnUse"><path d="M-225.69 112.845H0v-225.69h-225.69z"/></clipPath><clipPath id="i" clipPathUnits="userSpaceOnUse"><path d="M802.803 445.119h228.762V673.88H802.803Z"/></clipPath><clipPath id="j" clipPathUnits="userSpaceOnUse"><path d="M-171.572 85.786H0V-85.786h-171.572Z"/></clipPath></defs><path d="M0 0h-38.899zh38.899Z" style="fill:#5fbc6d;fill-opacity:1;fill-rule:nonzero;stroke:none" transform="matrix(1.33333 0 0 -1.33333 152.355 606.387)"/><path d="m963.011 449.197 57.176 22.178 27.446-27.81 64.354 21.877-57.16-43.162-37.903 20.364-49.445-15.655-18.412-67.544 90.172-52.106-111.966 31.315-3.739 88.522-28.224 77.917-83.72 21.234 30.584 18.117 62.488-7.082 26.522-53.817z" style="color:#000;fill:#999;stroke-width:3.77953;stroke-linejoin:round;-inkscape-stroke:none" transform="translate(-717.175 -163.478)"/><g opacity="0.949493" style="fill:#457549;fill-opacity:.8509804"><g clip-path="url(#a)" opacity="0.8461" style="fill:#457549;fill-opacity:.8509804" transform="translate(-1091.418 -96.873)scale(1.12328)"><path d="M0 0c0-42.817-34.71-77.527-77.527-77.527S-155.054-42.817-155.054 0s34.71 77.527 77.527 77.527S0 42.817 0 0" clip-path="url(#b)" style="fill:#457549;fill-opacity:.8509804;fill-rule:nonzero;stroke:none" transform="matrix(1.33333 0 0 -1.33333 1325.244 456.13)"/></g></g><g opacity="0.949493" style="opacity:.949904;fill:#457549;fill-opacity:.8509804"><g clip-path="url(#c)" opacity="0.8461" style="fill:#457549;fill-opacity:.8509804" transform="translate(-817.735 -456.218)scale(.99497)"><path d="M0 0c0-62.322-50.522-112.845-112.845-112.845S-225.689-62.322-225.689 0s50.522 112.845 112.844 112.845C-50.522 112.845 0 62.322 0 0" clip-path="url(#d)" style="fill:#457549;fill-opacity:.8509804;fill-rule:nonzero;stroke:none" transform="matrix(1.33333 0 0 -1.33333 1278.11 608.982)"/></g></g><path d="m935.784 371.936 2.936.545c4.618.857 8.948-3.928 9.101-10.461v-.224c.06-4.252-2.697-11.009-5.096-16.065-1.936-4.078-5.529-5.92-8.89-4.595-2.98 1.176-5.218 4.637-5.762 8.913l-.562 4.396c-.287 2.258-.079 4.587.597 6.678l1.379 4.264c1.151 3.562 3.53 6.037 6.293 6.55" style="fill:#4d4d4d;fill-opacity:1;fill-rule:nonzero;stroke:none;stroke-width:1.26426" transform="translate(-717.175 -163.478)"/><path d="m897.254 507.28 7.529 7.007c2.585 2.407 8.664.048 10.95-4.25 2.155-4.955 8.78-13.75 12.593-18.621 1.677-2.143 2.059-4.466.972-5.93l-4.808-6.47c-.83-1.116-2.412-1.577-4.296-1.25l-1.505.259a9.8 9.8 0 0 0-4.141 1.777c-.85.632-2.5 1.62-5.537 3.165l-5.137 2.612c-2.425 1.233-4.369 3.398-4.983 5.549l-2.293 8.038c-.121.427-.19.843-.197 1.242l-.113 4.393c-.038 1.006.31 1.869.966 2.478" style="fill:#4d4d4d;fill-opacity:1;fill-rule:nonzero;stroke:none;stroke-width:1.49771" transform="translate(-717.175 -163.478)"/><path d="m859.683 538.675 4.725 3.16c.812.542 1.656.798 2.357.713l7.784-.942c.413-.05.76-.217 1.015-.487l3.719-3.942c.769-.815.577-2.424-.464-3.892l-13.76-13.233c-1.244-1.755-8.008-8.58-9.245-7.989-4.078 1.947-3.378 10.434-4.526 11.73a1.7 1.7 0 0 0-.314.549l-.31.896c-.329.95.045 2.312.963 3.503l6.605 8.568a6.2 6.2 0 0 0 1.451 1.366" style="fill:#4d4d4d;fill-opacity:1;fill-rule:nonzero;stroke:none;stroke-width:1.29213" transform="translate(-717.175 -163.478)"/><path d="m1038.025 303.002-111.961 31.322a4.5 4.5 0 0 0-3.285 4.14l-3.713 87.83-27.173 75.023-81.407 20.647a4.5 4.5 0 0 0-1.19 8.238l30.584 18.115a4.5 4.5 0 0 0 2.798.598l62.488-7.079a4.5 4.5 0 0 0 3.535-2.488l26.228-53.223 29.307-31.624 54.323 21.068a4.5 4.5 0 0 0 4.828-1.034l25.467-25.8 61.683 20.965a4.5 4.5 0 0 0 4.163-7.847l-57.165-43.162a4.5 4.5 0 0 0-4.835-.376l-36.23 19.466-45.296-14.343-16.853-61.83 87.166-50.375a4.5 4.5 0 0 0-3.462-8.23m-31.875 18.263-59.336 34.282a4.5 4.5 0 0 0-2.089 5.078l18.41 67.545a4.5 4.5 0 0 0 2.983 3.107l49.451 15.657a4.5 4.5 0 0 0 3.484-.324l35.367-19.001 32.532 24.567-37.87-12.874a4.5 4.5 0 0 0-4.65 1.1l-25.371 25.71-54.42-21.111a4.5 4.5 0 0 0-4.93 1.136l-31.831 34.348a4.5 4.5 0 0 0-.731 1.07l-25.438 51.615-58.546 6.636-19.909-11.796 73.162-18.558a4.5 4.5 0 0 0 3.123-2.827l28.22-77.916a4.5 4.5 0 0 0 .265-1.344l3.602-85.26z" style="color:#000;fill:#262626;stroke-width:3.77953;stroke-linejoin:round;-inkscape-stroke:none" transform="translate(-717.175 -163.478)"/><path d="m754.296 381.978 44.102-38.974 35.897-2.051 53.333 20.512 47.178 44.102 101.716-33.184 62.002 14.293 69.781 36.595-67.339-11.02-61.159-12.241-89.617 31.198 29.744 48.204 71.794 6.154 5.127 56.409-41.024 46.153 15.384-47.179-11.282-30.768-50.256 5.128-50.255-64.615-57.435-61.537-46.153-18.461z" style="color:#000;fill:#ccc;stroke-width:3.77953;stroke-linecap:square;stroke-linejoin:round;-inkscape-stroke:none;fill-opacity:1" transform="translate(-717.175 -163.478)"/><path d="m835.196 354.805 5.576 3.202q.335.193.7.321l.898.313c3.074 1.074 5.326 3.722 6.006 7.06l.068.328c.129.624.132 1.28 0 1.924l-1.582 8.424c-.426 2.273-2.308 4.025-4.496 4.19l-1.02.077a4.23 4.23 0 0 1-2.271-.455l-13.991-7.227c-2.277-1.177-3.028-4.173-1.653-6.594l5.877-3.983c1.337-2.354 3.72-8.82 5.88-7.58m94.015 62.766.482-5.103c0-.08 0-.157.038-.237l1.267-7.152c.14-.8-.053-1.614-.554-2.319l-2.972-4.189c-.893-1.258-2.632-1.984-4.444-1.856l-19.23 1.353a5.5 5.5 0 0 0-1.867.46l-2.972 1.33c-1.665.744-2.582 2.223-2.311 3.725l.81 4.498c.084.451.269.886.55 1.284l3.198 4.504c.826 1.164 2.381 1.882 4.064 1.873l2.477-.011 6.111.187c1.036.03 2.027.337 2.816.869l4.932 3.317c2.424 1.632 6.153.882 7.307-1.47.167-.34.269-.698.303-1.061m61.076-1.2 3.736-2.617a6.56 6.56 0 0 1 3.206-1.158l6.096-.52a6.6 6.6 0 0 0 3.21-1.155l3.715-2.606c1.538-1.08 2.48-2.758 2.554-4.565l.62-14.989c.162-3.958-3.722-6.971-7.804-6.052l-3.185.717a6.4 6.4 0 0 0-3.093 1.67l-8.185 8.017a6 6 0 0 0-.853 1.043l-9.215 14.31a5.7 5.7 0 0 0-.912 3.408c.253 4.77 6.046 7.348 10.11 4.497m72.342-21.113 1.316.658c.395.198.811.33 1.237.39l1.244.182c2.387.348 4.675-1.528 5.15-4.385.17-1.034.464-1.744.951-1.501 1.412.708 1.64-4.247 1.64-4.247l-4.114-6.713c-.577-.942-1.379-1.646-2.297-2.016l-1.089-.439a4 4 0 0 0-1.098-.27l-6.746-.678c-.905-.092-1.814.137-2.616.657l-.261.169c-2.537 1.65-3.274 5.646-1.558 8.446q.18.292.39.555l6.252 7.874a4.8 4.8 0 0 0 1.598 1.318" style="fill:#4d4d4d;fill-opacity:1;fill-rule:nonzero;stroke:none;stroke-width:1.49771" transform="translate(-717.175 -163.478)"/><path d="M950.56 442.98c30.084 16.313-30.965 53.444-18.323 12.954 4.72-7.062 11.589-10.65 18.323-12.954" style="fill:#4d4d4d;fill-opacity:1;stroke:none;stroke-width:1.12328px;stroke-linecap:round;stroke-linejoin:round;stroke-opacity:1" transform="translate(-717.175 -163.478)"/><path d="M969.413 516.578c2.028.659 4.404.593 6.287-.171l9.379-3.809c1.184-.481 2.088-1.205 2.577-2.062l7.532-13.203c.54-.945.542-1.995 0-2.959l-1.497-2.692c-.802-1.442-2.704-2.514-4.99-2.812l-11.317-1.476c-1.794-.234-3.624.133-4.88.978-.996.673-1.534 1.578-1.496 2.528.08 1.909.253 5.448.567 9.33.264 3.283-2.584 7.415-5.097 10.377-1.812 2.134-.476 4.867 2.93 5.971" style="fill:#4d4d4d;fill-opacity:1;fill-rule:nonzero;stroke:none;stroke-width:1.4977" transform="translate(-717.175 -163.478)"/><path d="M1161.766 528.472c.805-2.41 2.753-4.367 5.084-5.378 2.331-1.01 5.008-1.11 7.47-.483s4.715 1.953 6.613 3.643 3.455 3.734 4.776 5.905c2.345 3.853 3.998 8.29 3.717 12.792-.14 2.25-.774 4.484-1.95 6.408s-2.907 3.527-4.97 4.436c-1.64.722-3.474.998-5.254.79a193 193 0 0 1-11.374-14.505c-1.426-2.01-2.827-4.07-3.702-6.373s-1.191-4.898-.41-7.235" style="fill:#4d4d4d;fill-opacity:1;stroke:none;stroke-width:1px;stroke-linecap:butt;stroke-linejoin:miter;stroke-opacity:1" transform="translate(-1005.395 -254.466)scale(1.12328)"/><path d="m1105.563 411.856 10.303 3.475c2.781.938 5.767-.196 7.557-2.872l1.076-1.607c2.491-3.725 1.87-9.14-1.373-11.952l-5.99-5.196c-1.891-1.64-4.345-2.076-6.564-1.168l-5.316 2.176c-2.297.942-4.029 3.2-4.592 5.99l-.223 1.099c-.894 4.434 1.38 8.897 5.12 10.055" style="fill:#4d4d4d;fill-opacity:1;fill-rule:nonzero;stroke:none;stroke-width:1.49771" transform="translate(-717.175 -163.478)"/><path d="m834.041 336.457-35.898 2.052a4.5 4.5 0 0 0-2.724 1.122l-44.1 38.977a4.5 4.5 0 0 0 3.787 7.795l60.259-11.05 44.018 17.605 56.612 60.657 50.13 64.459a4.5 4.5 0 0 0 4.009 1.712l46.779-4.776 9.545 26.029-14.905 45.694a4.5 4.5 0 0 0 7.64 4.384l41.03-46.151a4.5 4.5 0 0 0 1.114-3.396l-5.13-56.412a4.5 4.5 0 0 0-4.097-4.075l-69.538-5.957-25.607-41.516 83.164-28.944 59.955 11.995.155.03 67.338 11.022a4.5 4.5 0 0 0 2.82-8.423l-69.781-36.6a4.5 4.5 0 0 0-1.078-.398L1037.53 368a4.5 4.5 0 0 0-2.407.103l-99.182 32.362-45.244-42.29a4.5 4.5 0 0 0-1.454-.909l-53.334-20.514a4.5 4.5 0 0 0-1.868-.295m-.458 9.043 51.615 19.85 46.535 43.501a4.5 4.5 0 0 0 4.466.997l100.527-32.798 60.221 13.878 44.653 23.415-39.832-6.518-61.078-12.224a4.5 4.5 0 0 0-2.362.162l-89.616 31.196a4.5 4.5 0 0 0-2.348 6.614l29.742 48.204a4.5 4.5 0 0 0 3.447 2.119l68.031 5.831 4.614 50.714-25.401 28.583 8.696-26.679a4.5 4.5 0 0 0-.053-2.945l-11.287-30.768a4.5 4.5 0 0 0-4.68-2.93l-47.776 4.88-48.728-62.65a5 5 0 0 0-.257-.31l-57.438-61.536a4.5 4.5 0 0 0-1.617-1.108l-46.151-18.462a4.5 4.5 0 0 0-2.48-.243l-45.628 8.363 30.812-27.232z" style="color:#000;fill:#262626;stroke-width:3.77953;stroke-linecap:square;stroke-linejoin:round;-inkscape-stroke:none" transform="translate(-717.175 -163.478)"/><g opacity="0.949493" style="fill:#457549;fill-opacity:.8509804"><g clip-path="url(#e)" opacity="0.8461" style="fill:#457549;fill-opacity:.8509804" transform="translate(-964.588 -139.452)scale(.98154)"><path d="M0 0c0-51.716-41.924-93.64-93.64-93.64S-187.279-51.716-187.279 0s41.924 93.639 93.639 93.639C-41.924 93.639 0 51.716 0 0" clip-path="url(#f)" style="opacity:.949904;fill:#457549;fill-opacity:.8509804;fill-rule:nonzero;stroke:none" transform="matrix(1.33333 0 0 -1.33333 1246.037 315.33)"/></g></g><g opacity="0.949493" style="opacity:.949904;fill:#457549;fill-opacity:.8509804"><g clip-path="url(#g)" opacity="0.8461" style="fill:#457549;fill-opacity:.8509804" transform="translate(-759.698 -290.99)scale(.99497)"><path d="M0 0c0-62.322-50.522-112.845-112.845-112.845S-225.689-62.322-225.689 0s50.522 112.845 112.844 112.845C-50.522 112.845 0 62.322 0 0" clip-path="url(#h)" style="fill:#457549;fill-opacity:.8509804;fill-rule:nonzero;stroke:none" transform="matrix(1.33333 0 0 -1.33333 1278.11 608.982)"/></g></g><g opacity="0.949493" style="opacity:.949904;fill:#457549;fill-opacity:.8509804"><g clip-path="url(#i)" opacity="0.8461" style="fill:#457549;fill-opacity:.8509804" transform="translate(-901.771 -260.42)scale(1.12328)"><path d="M0 0c0-47.378-38.408-85.786-85.786-85.786S-171.572-47.378-171.572 0s38.408 85.786 85.786 85.786S0 47.378 0 0" clip-path="url(#j)" style="fill:#457549;fill-opacity:.8509804;fill-rule:nonzero;stroke:none" transform="matrix(1.33333 0 0 -1.33333 1031.565 559.5)"/></g></g><path fill="#485e52" d="M1042.202 461.097c56.755 0 102.763-45.782 102.763-102.256s-46.008-102.258-102.763-102.258-102.763 45.783-102.763 102.258 46.008 102.256 102.763 102.256M817.593 426.39c38.3 0 69.351-30.825 69.351-68.847 0-38.023-31.05-68.847-69.351-68.847-38.305 0-69.356 30.824-69.356 68.847s31.051 68.847 69.356 68.847m30.404 217.315c56.754 0 102.762-45.781 102.762-102.256 0-56.474-46.008-102.257-102.762-102.257-56.755 0-102.763 45.783-102.763 102.257s46.008 102.256 102.763 102.256" opacity="0.85" style="opacity:.8;fill:#4f8553;fill-opacity:.80392158;stroke-width:2.54596" transform="translate(-717.175 -163.478)"/><path fill="#485e52" d="M1060.21 618.276c56.754 0 102.762-45.781 102.762-102.255 0-56.475-46.008-102.258-102.763-102.258s-102.763 45.783-102.763 102.258 46.008 102.255 102.763 102.255" opacity="0.85" style="opacity:.8;fill:#4f8553;fill-opacity:.80392158;stroke-width:2.54596" transform="translate(-717.175 -163.478)"/><path fill="#5f926a" d="M788.002 534.305c-5.077-17.341-.983-56.497 21.428-47.57 21.54 10.87-5.07 39.884-21.429 47.57v.002q0-.002 0 0z" style="fill:#489157;fill-opacity:.89803922;stroke-width:2.30631" transform="translate(-717.175 -163.478)"/><path fill="#587e60" d="M742.448 475.82c20.083-12.278 70.661-20.38 66.97 10.912-6.428 30.847-51.82 7.115-66.972-10.898q.002-.004 0 0z" style="fill:#52a664;fill-opacity:.90196079;stroke-width:2.30631" transform="translate(-717.175 -163.478)"/><path fill="#77a37a" d="m784.985 452.764-.002.004c14.432 3.172 40.357 21.453 24.45 33.96-16.915 11.123-26.025-19.263-24.45-33.961z" style="fill:#489157;fill-opacity:.89803922;stroke-width:2.30631" transform="translate(-717.175 -163.478)"/><path fill="#5f926a" d="M1127.741 378.416v-.003c-12.75-6.557-43.875-9.234-40.278 9.571 5.244 18.414 31.839 2.026 40.28-9.562z" style="fill:#489157;fill-opacity:.89803922;stroke-width:1.83005" transform="translate(-717.175 -163.478)"/><path fill="#587e60" d="M1115.7 342.137c-17.797 5.67-48.927 31.802-28.239 45.84 21.843 12.167 31.185-27.389 28.248-45.834l.001.003z" style="fill:#52a664;fill-opacity:.90196079;stroke-width:1.83005" transform="translate(-717.175 -163.478)"/><path fill="#77a37a" d="M1080.845 354.741c-6.898 9.483-12.664 33.985 3.37 33.032 15.897-2.301 5.306-25.136-3.362-33.033z" style="fill:#489157;fill-opacity:.89803922;stroke-width:1.83005" transform="translate(-717.175 -163.478)"/><path fill="#5f926a" d="M1004.259 279.366v-.002c-14.337.08-43.174 12.096-31.291 27.108 13.162 13.904 29.168-12.923 31.297-27.101z" style="fill:#489157;fill-opacity:.89803922;stroke-width:1.83005" transform="translate(-717.175 -163.478)"/><path fill="#587e60" d="M976.81 252.763c-13.16 13.256-28.683 50.819-3.848 53.703 24.992.69 14.99-38.703 3.859-53.702l.002.002z" style="fill:#52a664;fill-opacity:.90196079;stroke-width:1.83005" transform="translate(-717.175 -163.478)"/><path fill="#77a37a" d="M951.73 280.053c-1.733 11.598 4.481 35.99 18.26 27.733 13.031-9.39-6.917-24.742-18.254-27.737z" style="fill:#489157;fill-opacity:.89803922;stroke-width:1.83005" transform="translate(-717.175 -163.478)"/><path fill="#5f926a" d="M1096.374 515.905c11.654-8.35 28.245-34.82 9.872-40.205-18.777-3.741-16.337 27.402-9.88 40.203z" style="fill:#489157;fill-opacity:.89803922;stroke-width:1.83005" transform="translate(-717.175 -163.478)"/><path fill="#587e60" d="M1134.149 521.754c3.079-18.423-5.959-58.05-27.894-46.052-20.796 13.88 10.132 40.25 27.884 46.057z" style="fill:#52a664;fill-opacity:.90196079;stroke-width:1.83005" transform="translate(-717.175 -163.478)"/><path fill="#77a37a" d="M1138.847 484.989c-5.289-10.467-24.456-26.782-30.928-12.082-5.21 15.195 19.942 16.196 30.925 12.089z" style="fill:#489157;fill-opacity:.89803922;stroke-width:1.83005" transform="translate(-717.175 -163.478)"/><path fill="#77a37a" d="M734.098 348.63c12.224 13.308 47.863 30.034 51.8 6.23 1.823-24.06-36.767-16.267-51.8-6.24.004.003 0 0 0 0z" style="fill:#489157;fill-opacity:.89803922;stroke-width:2.30631" transform="translate(-717.175 -163.478)"/><path fill="#5f926a" d="M726.668 392.674c23.166 4.188 73.252-6.535 58.5-34.377-17.14-26.44-50.888 12.091-58.506 34.365v-.002q.001 0 0 0z" style="fill:#52a664;fill-opacity:.90196079;stroke-width:2.30631" transform="translate(-717.175 -163.478)"/><path fill="#5f926a" d="m932.999 546.998-.001.003c-11.415 8.674-41.6 16.723-41.329-2.42 1.961-19.046 31.001-7.532 41.33 2.411z" style="fill:#489157;fill-opacity:.89803922;stroke-width:1.83005" transform="translate(-717.175 -163.478)"/><path fill="#587e60" d="M927.45 584.818c-18.512-2.49-53.712-22.809-35.78-40.231 19.394-15.78 35.473 21.548 35.789 40.224v-.003z" style="fill:#52a664;fill-opacity:.90196079;stroke-width:1.83005" transform="translate(-717.175 -163.478)"/><path fill="#77a37a" d="M890.934 578.468c-8.442-8.14-18.38-31.265-2.425-33.116 16.054-.498 9.595 23.831 2.433 33.115z" style="fill:#489157;fill-opacity:.89803922;stroke-width:1.83005" transform="translate(-717.175 -163.478)"/></svg>