<svg xmlns="http://www.w3.org/2000/svg" width="540.06885" height="546.04102" viewBox="0 0 540.06884 546.04102"><defs><clipPath id="b" clipPathUnits="userSpaceOnUse"><path d="M-876.541 373.053H134.837V-651.525H-876.541Z"/></clipPath><clipPath id="e" clipPathUnits="userSpaceOnUse"><path d="M-747.723 291.966H263.655V-732.612H-747.723Z"/></clipPath><clipPath id="d" clipPathUnits="userSpaceOnUse"><path d="M-795.212 381.64H216.166V-642.94H-795.212Z"/></clipPath><clipPath id="a" clipPathUnits="userSpaceOnUse"><path d="M-833.81 436.484H177.568V-588.094H-833.81Z"/></clipPath><clipPath id="h" clipPathUnits="userSpaceOnUse"><path d="M-830.133 364.534H181.245V-660.044H-830.133Z"/></clipPath><clipPath id="i" clipPathUnits="userSpaceOnUse"><path d="M-814.566 327.01H196.812V-697.568H-814.566Z"/></clipPath><clipPath id="f" clipPathUnits="userSpaceOnUse"><path d="M-742.495 357.393H268.883V-667.185H-742.495Z"/></clipPath><clipPath id="c" clipPathUnits="userSpaceOnUse"><path d="M-775.31 346.139H236.068V-678.44H-775.31Z"/></clipPath><clipPath id="j" clipPathUnits="userSpaceOnUse"><path d="M-818.152 281.124H193.226V-743.454H-818.152Z"/></clipPath><clipPath id="g" clipPathUnits="userSpaceOnUse"><path d="M-745.465 340.506H265.913V-684.072H-745.465Z"/></clipPath><clipPath id="y" clipPathUnits="userSpaceOnUse"><path d="M-225.69 112.845H0v-225.69h-225.69z"/></clipPath><clipPath id="x" clipPathUnits="userSpaceOnUse"><path d="M977.19 458.523h300.92V759.44H977.19z"/></clipPath><clipPath id="w" clipPathUnits="userSpaceOnUse"><path d="M0 .003h1348.504v1366.104H0Z"/></clipPath><clipPath id="p" clipPathUnits="userSpaceOnUse"><path d="M-187.279 93.64H0V-93.64h-187.279Z"/></clipPath><clipPath id="o" clipPathUnits="userSpaceOnUse"><path d="M996.332 190.477h249.705v249.706H996.332Z"/></clipPath><clipPath id="n" clipPathUnits="userSpaceOnUse"><path d="M0 .003h1348.504v1366.104H0Z"/></clipPath><clipPath id="m" clipPathUnits="userSpaceOnUse"><path d="M-165.242 82.621H0V-82.621h-165.242Z"/></clipPath><clipPath id="l" clipPathUnits="userSpaceOnUse"><path d="M785.175 304.017h220.322V524.34H785.175Z"/></clipPath><clipPath id="k" clipPathUnits="userSpaceOnUse"><path d="M0 .003h1348.504v1366.104H0Z"/></clipPath><clipPath id="B" clipPathUnits="userSpaceOnUse"><path d="M-171.572 85.786H0V-85.786h-171.572Z"/></clipPath><clipPath id="A" clipPathUnits="userSpaceOnUse"><path d="M802.803 445.119h228.762V673.88H802.803Z"/></clipPath><clipPath id="z" clipPathUnits="userSpaceOnUse"><path d="M0 .003h1348.504v1366.104H0Z"/></clipPath><clipPath id="s" clipPathUnits="userSpaceOnUse"><path d="M-155.054 77.527H0V-77.527h-155.054Z"/></clipPath><clipPath id="r" clipPathUnits="userSpaceOnUse"><path d="M1118.505 352.761h206.739v206.74h-206.739Z"/></clipPath><clipPath id="q" clipPathUnits="userSpaceOnUse"><path d="M0 .003h1348.504v1366.104H0Z"/></clipPath><clipPath id="H" clipPathUnits="userSpaceOnUse"><path d="M-52.742 0H52.741v-104.634H-52.742Z"/></clipPath><clipPath id="G" clipPathUnits="userSpaceOnUse"><path d="M1050.863 461.825h140.644v139.512h-140.644Z"/></clipPath><clipPath id="F" clipPathUnits="userSpaceOnUse"><path d="M0 .003h1348.504v1366.104H0Z"/></clipPath><clipPath id="E" clipPathUnits="userSpaceOnUse"><path d="M-114.884 57.442H0V-57.442h-114.884Z"/></clipPath><clipPath id="D" clipPathUnits="userSpaceOnUse"><path d="M840.595 491.401h153.178v153.18H840.595Z"/></clipPath><clipPath id="C" clipPathUnits="userSpaceOnUse"><path d="M0 .003h1348.504v1366.104H0Z"/></clipPath><clipPath id="v" clipPathUnits="userSpaceOnUse"><path d="M-79.742 0H79.743v-158.163H-79.742Z"/></clipPath><clipPath id="u" clipPathUnits="userSpaceOnUse"><path d="M852.932 271.003h212.647v210.884H852.932Z"/></clipPath><clipPath id="t" clipPathUnits="userSpaceOnUse"><path d="M0 .003h1348.504v1366.104H0Z"/></clipPath><clipPath id="K" clipPathUnits="userSpaceOnUse"><path d="M-105.035 52.517H0V-52.518h-105.035Z"/></clipPath><clipPath id="J" clipPathUnits="userSpaceOnUse"><path d="M1017.557 296.076h140.047v140.047h-140.047Z"/></clipPath><clipPath id="I" clipPathUnits="userSpaceOnUse"><path d="M0 .003h1348.504v1366.104H0Z"/></clipPath></defs><path d="M0 0h-38.899zh38.899Z" style="fill:#5fbc6d;fill-opacity:1;fill-rule:nonzero;stroke:none" transform="matrix(1.33333 0 0 -1.33333 84.355 579.387)"/><path d="m1026.295 552.186 27.357 28.683-3.362-58.407 14.463-70.29 65.51-.344 21.694-3.758 32.639 11.26-21.669-29.295-30.091-.133-62.28 7.976-9.087-89.35-34.77-23.56 16.281 37.01 3.063 72.415-75.345-16.463-54.444 3.382-22.078 17.041 84.848 8.305 47.35 23.308z" style="opacity:.899889;fill:#a9a9a9;fill-opacity:1;stroke:#252525;stroke-width:9;stroke-linecap:butt;stroke-linejoin:round;stroke-opacity:1;stroke-dasharray:none" transform="translate(-785.175 -190.478)"/><path d="m1161.094 271.304-76.276 61.864-3.243 67.709-35.532 33.516-16.476-64.378-65.802-36.17-57.728 12.513 39.673 20.174 42.8 36.878 23.766 45.621-42.055 26.99-27.78 40.193-38.253 17.639 56.14 10.23 37.868-36.297 51.928-25.053 28.954 18.224-7.363 62.992 16.772 33.83.12 39.342 12.676 18.122 27.723-63.067-10.5-32.676-4.534-54.362 47.794 23.334 44.408 64.385 7.445-37.361-25.144-69.356-66.993-10.505-20.796-24.446 29.97-38.66-3.643-58.03 24.168-30.807z" style="color:#000;fill:#ccc;stroke-width:9;stroke-linejoin:round;-inkscape-stroke:none" transform="translate(-785.175 -190.478)"/><path d="m0 0-2.143-1.592s-.911-2.461-1.995-1.483c-1.084.979-2.05 2.759-2.05 2.759s-2.522-.447-.789 2.982l1.734 3.429 2.759 2.05 5.162-6.948" clip-path="url(#a)" style="fill:#4d4d4d;fill-opacity:1;fill-rule:nonzero;stroke:none;stroke-width:.454747" transform="matrix(-2.9288 -.62749 -.58077 2.81085 300.768 382.848)"/><path d="m0 0 1.254.931c.314.234.686.376 1.076.412l2.046.185c.39.035.762.178 1.077.411l1.247.927c.516.384.832.981.857 1.624l.208 5.332a2.128 2.128 0 0 1-2.619 2.153l-1.069-.255a2.1 2.1 0 0 1-1.038-.594L.292 8.274a2 2 0 0 1-.286-.371l-3.093-5.091A2.1 2.1 0 0 1-3.393 1.6C-3.308-.097-1.364-1.014 0 0" clip-path="url(#b)" style="fill:#4d4d4d;fill-opacity:1;fill-rule:nonzero;stroke:none;stroke-width:.517503" transform="matrix(2.6526 0 0 -2.50255 311.424 354.168)"/><path d="m0 0 5.1-4.616c.875-.792 1.821-1.274 2.638-1.343l9.08-.774c.482-.041.901.063 1.225.303l4.724 3.51c.977.726.934 2.559-.104 4.433L8.261 19.433c-1.24 2.242-8.285 11.406-9.777 11.04-4.917-1.21-5.049-10.803-6.517-11.975a1.6 1.6 0 0 1-.422-.536l-.458-.923c-.485-.979-.204-2.579.723-4.118l6.668-11.064A8.3 8.3 0 0 1 0 0" clip-path="url(#c)" style="fill:#4d4d4d;fill-opacity:1;fill-rule:nonzero;stroke:none;stroke-width:1.47725" transform="matrix(.75675 -.1593 -.07538 -.78539 269.53 259.988)"/><path d="m0 0 2.751-.364c4.327-.572 8.385 2.623 8.528 6.985l.004.15c.056 2.839-2.527 7.35-4.775 10.726a7.55 7.55 0 0 1-8.331 3.068 7.56 7.56 0 0 1-5.399-5.951l-.526-2.935a7.57 7.57 0 0 1 .559-4.459l1.292-2.847A7.56 7.56 0 0 1 0 0" clip-path="url(#d)" style="fill:#4d4d4d;fill-opacity:1;fill-rule:nonzero;stroke:none" transform="matrix(1.33333 0 0 -1.33333 237.543 304.332)"/><path d="m0 0 .73-.301a2.6 2.6 0 0 1 .686-.179l.69-.083C3.43-.722 4.699.136 4.963 1.443c.095.473.257.798.527.687.783-.324.91 1.943.91 1.943L4.118 7.144c-.32.431-.765.753-1.274.922l-.604.201a2.7 2.7 0 0 1-.609.124l-3.742.31A2.6 2.6 0 0 1-3.562 8.4l-.144-.077a2.615 2.615 0 0 1-.648-4.118L-.886.603C-.635.343-.334.138 0 0" clip-path="url(#e)" style="fill:#4d4d4d;fill-opacity:1;fill-rule:nonzero;stroke:none;stroke-width:.75444" transform="matrix(1.60507 0 0 -1.94597 179.129 342.221)"/><path d="m0 0 6.004-1.719a4.15 4.15 0 0 1 4.404 1.421l.627.795a4.15 4.15 0 0 1-.8 5.913L6.744 8.981a4.15 4.15 0 0 1-3.825.578L-.179 8.482a4.15 4.15 0 0 1-2.676-2.963l-.129-.544A4.15 4.15 0 0 1 0 0" clip-path="url(#f)" style="fill:#4d4d4d;fill-opacity:1;fill-rule:nonzero;stroke:none;stroke-width:.804217" transform="matrix(1.5276 0 0 -1.79938 192.4 296.813)"/><path d="m0 0-2.248 3.025q-.135.182-.301.336l-.41.379C-4.36 5.038-4.951 6.984-4.535 8.929l.041.191c.077.364.229.715.445 1.031l2.823 4.132c.761 1.115 2.183 1.609 3.398 1.182l.566-.199a2.5 2.5 0 0 0 1.115-.778l5.83-7.158c.949-1.165.651-2.944-.655-3.915l-4.092-.746C3.666 1.725.871-1.172 0 0" clip-path="url(#g)" style="fill:#4d4d4d;fill-opacity:1;fill-rule:nonzero;stroke:none;stroke-width:.876632" transform="matrix(-1.38947 .6117 .60837 1.39709 336.293 112.445)"/><path d="m0 0 4.679 5.027c1.607 1.726.032 5.785-2.838 7.311-3.308 1.439-9.18 5.862-12.433 8.408-1.431 1.12-2.982 1.375-3.959.649l-4.32-3.21c-.745-.554-1.053-1.61-.835-2.868l.173-1.005a6.56 6.56 0 0 1 1.187-2.765c.422-.568 1.082-1.669 2.113-3.697l1.744-3.43c.823-1.619 2.269-2.917 3.705-3.327l5.367-1.531q.429-.122.829-.132l2.933-.075C-.983-.662-.407-.438 0 0" clip-path="url(#h)" style="fill:#4d4d4d;fill-opacity:1;fill-rule:nonzero;stroke:none" transform="matrix(0 1.33333 1.33333 0 275.087 299.562)"/><path d="M0 0a3.9 3.9 0 0 1 2.414 2.906l1.248 6.571c.157.83.041 1.688-.33 2.445l-5.719 11.661a3.9 3.9 0 0 1-1.958 1.865l-2.386 1.028a3.9 3.9 0 0 1-3.87-.451l-5.528-4.108a3.268 3.268 0 0 1-.241-5.044 348 348 0 0 1 6.41-5.62c2.281-1.948 3.874-5.816 4.826-8.799A3.9 3.9 0 0 1 0 0" clip-path="url(#i)" style="fill:#4d4d4d;fill-opacity:1;fill-rule:nonzero;stroke:none;stroke-width:1.10864" transform="matrix(1.0225 .7231 1.07649 -.6533 353.028 314.69)"/><path d="m0 0 3.369.172q.078.005.157.003l4.76-.066a2.43 2.43 0 0 1 1.48.479l2.544 1.89a2.42 2.42 0 0 1 .922 2.461l-2.148 9.874a2.4 2.4 0 0 1-.423.931l-1.065 1.433a2.42 2.42 0 0 1-2.588.892l-2.888-.793a2.4 2.4 0 0 1-.804-.392L.581 14.851a2.42 2.42 0 0 1-.958-2.265l.171-1.285.279-3.189A2.4 2.4 0 0 0-.31 6.578l-1.845-2.835A2.423 2.423 0 0 1-.714.07C-.481.011-.24-.012 0 0" clip-path="url(#j)" style="fill:#4d4d4d;fill-opacity:1;fill-rule:nonzero;stroke:none;stroke-width:.879695" transform="matrix(.21348 -1.33993 -1.68747 -.16951 343.163 210.402)"/><path d="M1030.409 390.717c26.782 14.523-27.567 47.579-16.312 11.532 4.201-6.286 10.317-9.48 16.311-11.532" style="fill:#4d4d4d;fill-opacity:1;stroke:none;stroke-width:1px;stroke-linecap:round;stroke-linejoin:round;stroke-opacity:1" transform="translate(-785.175 -190.478)"/><path d="M955.392 380.699c8.24-3.888 12.235-11.618 20.238-15.743 2.196-1.073 4.702-1.94 7.275-1.99 6.614.945 11.46 6.499 10.68 11.903-.362 3.39-3.408 6.338-7.307 7.432-2.095.346-2.39 2.51-3.873 3.6-2.906 3.033-7.228 5.743-12.178 5.519-4.639-.217-8.236-3.2-10.369-6.347-.817-1.639-2.614-2.693-4.012-3.989l-.227-.193z" style="opacity:1;fill:#4d4d4d;stroke-width:9.00001;stroke-linecap:round;stroke-linejoin:round" transform="translate(-785.175 -190.478)"/><path d="M1161.766 528.472c.805-2.41 2.753-4.367 5.084-5.378 2.331-1.01 5.008-1.11 7.47-.483s4.715 1.953 6.613 3.643 3.455 3.734 4.776 5.905c2.345 3.853 3.998 8.29 3.717 12.792-.14 2.25-.774 4.484-1.95 6.408s-2.907 3.527-4.97 4.436c-1.64.722-3.474.998-5.254.79a193 193 0 0 1-11.374-14.505c-1.426-2.01-2.827-4.07-3.702-6.373s-1.191-4.898-.41-7.235" style="fill:#4d4d4d;fill-opacity:1;stroke:none;stroke-width:1px;stroke-linecap:butt;stroke-linejoin:miter;stroke-opacity:1" transform="translate(-785.175 -190.478)"/><path d="M1161.686 266.844a4.5 4.5 0 0 0-3.426.965l-76.278 61.863a4.5 4.5 0 0 0-1.66 3.281l-3.154 65.897-28.658 27.03-14.584-56.98a4.5 4.5 0 0 0-2.192-2.828l-65.8-36.17a4.5 4.5 0 0 0-3.121-.455l-57.729 12.514a4.5 4.5 0 0 0-1.086 8.408l39.188 19.928 41.732 35.959 21.467 41.209-38.594 24.77a4.5 4.5 0 0 0-1.271 1.228l-27.08 39.18-37.135 17.123a4.5 4.5 0 0 0 1.076 8.513l56.14 10.23a4.5 4.5 0 0 0 3.92-1.177l37.354-35.803 49.04-23.66 24.444 15.385-7.033 60.172a4.5 4.5 0 0 0 .438 2.521l16.306 32.893.116 38.295a4.5 4.5 0 0 0 .812 2.564l12.678 18.123a4.5 4.5 0 0 0 7.806-.77l27.725-63.066a4.5 4.5 0 0 0 .164-3.187l-10.344-32.186-3.832-45.957 39.615 19.342 43.74 63.414a4.5 4.5 0 0 0 8.118-1.676l7.445-37.361a4.5 4.5 0 0 0-.183-2.412l-25.145-69.358a4.5 4.5 0 0 0-3.533-2.912l-65.344-10.246-17.346-20.39 27.73-35.77a4.5 4.5 0 0 0 .934-3.039l-3.535-56.32 23.11-29.46a4.5 4.5 0 0 0 .882-1.939l9.913-52.388a4.5 4.5 0 0 0-3.83-5.297m-7.297 15.693-7.426 39.24-23.49 29.944a4.5 4.5 0 0 0-.951 3.06l3.537 56.334-28.93 37.317a4.5 4.5 0 0 0 .129 5.673l20.797 24.446a4.5 4.5 0 0 0 2.73 1.53l64.365 10.093 23.81 65.674-5.12 25.699-38.37-55.629a4.5 4.5 0 0 0-1.73-1.49l-47.793-23.334a4.5 4.5 0 0 0-6.459 4.418l4.533 54.361a4.5 4.5 0 0 0 .2 1.004l9.978 31.05-23.816 54.18-7.281-10.41-.116-37.931a4.5 4.5 0 0 0-.466-1.987l-16.18-32.633 7.209-61.666a4.5 4.5 0 0 0-2.074-4.332l-28.953-18.222a4.5 4.5 0 0 0-4.352-.246l-51.93 25.052a4.5 4.5 0 0 0-1.158.805l-36.209 34.707L919 531.98l25.326-11.678a4.5 4.5 0 0 0 1.817-1.528l27.267-39.453 41.297-26.502a4.5 4.5 0 0 0 1.56-5.865L992.5 401.33a4.5 4.5 0 0 0-1.053-1.33l-42.8-36.877a4.5 4.5 0 0 0-.897-.603l-28.404-14.442 43.726-9.478 62.62 34.42 15.992 62.488a4.5 4.5 0 0 0 7.447 2.158l35.531-33.516a4.5 4.5 0 0 0 1.408-3.058l3.147-65.697z" style="color:#000;fill:#252525;stroke-linejoin:round;-inkscape-stroke:none;fill-opacity:1" transform="translate(-785.175 -190.478)"/><g clip-path="url(#k)" opacity="0.949493" style="fill:#457549;fill-opacity:.8509804;opacity:.94990441" transform="translate(-785.175 -190.478)"><g clip-path="url(#l)" opacity="0.8461" style="fill:#457549;fill-opacity:.8509804"><path d="M0 0c0-45.63-36.991-82.621-82.621-82.621S-165.242-45.63-165.242 0s36.991 82.621 82.621 82.621S0 45.63 0 0" clip-path="url(#m)" style="fill:#457549;fill-opacity:.8509804;fill-rule:nonzero;stroke:none" transform="matrix(1.33333 0 0 -1.33333 1005.497 414.179)"/></g></g><g clip-path="url(#n)" opacity="0.949493" style="fill:#457549;fill-opacity:.847059" transform="translate(-785.175 -190.478)"><g clip-path="url(#o)" opacity="0.8461" style="fill:#457549;fill-opacity:.847059"><path d="M0 0c0-51.716-41.924-93.64-93.64-93.64S-187.279-51.716-187.279 0s41.924 93.639 93.639 93.639C-41.924 93.639 0 51.716 0 0" clip-path="url(#p)" style="fill:#457549;fill-opacity:.8509804;fill-rule:nonzero;stroke:none;opacity:.94990441" transform="matrix(1.33333 0 0 -1.33333 1246.037 315.33)"/></g></g><g clip-path="url(#q)" opacity="0.949493" style="fill:#4f8553;fill-opacity:.803922" transform="translate(-785.175 -190.478)"><g clip-path="url(#r)" opacity="0.8461" style="fill:#4f8553;fill-opacity:.803922"><path d="M0 0c0-42.817-34.71-77.527-77.527-77.527S-155.054-42.817-155.054 0s34.71 77.527 77.527 77.527S0 42.817 0 0" clip-path="url(#s)" style="fill:#4f8553;fill-opacity:.803922;fill-rule:nonzero;stroke:none" transform="matrix(1.33333 0 0 -1.33333 1325.244 456.13)"/></g></g><g clip-path="url(#t)" opacity="0.799698" style="fill:#4f8553;fill-opacity:.803922" transform="translate(-785.175 -190.478)"><g clip-path="url(#u)" opacity="0.803894" style="fill:#4f8553;fill-opacity:.803922"><path d="M0 0c44.041 0 79.743-35.406 79.743-79.082S44.041-158.164 0-158.164s-79.743 35.406-79.743 79.082S-44.041 0 0 0" clip-path="url(#v)" style="fill:#4f8553;fill-opacity:.803922;fill-rule:nonzero;stroke:none" transform="matrix(1.33333 0 0 -1.33333 959.255 271.002)"/></g></g><g clip-path="url(#w)" opacity="0.949493" style="opacity:.949904;fill:#457549;fill-opacity:.85098" transform="translate(-804.822 -213.4)"><g clip-path="url(#x)" opacity="0.8461" style="fill:#457549;fill-opacity:.85098"><path d="M0 0c0-62.322-50.522-112.845-112.845-112.845S-225.689-62.322-225.689 0s50.522 112.845 112.844 112.845C-50.522 112.845 0 62.322 0 0" clip-path="url(#y)" style="fill:#457549;fill-opacity:.85098;fill-rule:nonzero;stroke:none" transform="matrix(1.33333 0 0 -1.33333 1278.11 608.982)"/></g></g><path fill="#77a37a" d="M925.78 369.981c-8.05 13.927-12.773 48.656 8.497 45.664 20.924-4.857 4.031-35.565-8.488-45.666l-.001-.009z" style="fill:#489157;fill-opacity:.897981;stroke-width:2.05319" transform="translate(-785.175 -190.478)"/><path fill="#5f926a" d="m886.385 375.395.01.01c2.61 20.794 25.054 60.489 44.779 40.545 17.897-21.6-23.82-40.012-44.769-40.553l-.01-.011q0 .005.002.009z" style="fill:#52a664;fill-opacity:.903002;stroke-width:2.05319" transform="translate(-785.175 -190.478)"/><g clip-path="url(#z)" opacity="0.949493" style="fill:#457549;fill-opacity:.8509804;opacity:.94990441" transform="translate(-785.175 -190.478)"><g clip-path="url(#A)" opacity="0.8461" style="fill:#457549;fill-opacity:.8509804"><path d="M0 0c0-47.378-38.408-85.786-85.786-85.786S-171.572-47.378-171.572 0s38.408 85.786 85.786 85.786S0 47.378 0 0" clip-path="url(#B)" style="fill:#457549;fill-opacity:.8509804;fill-rule:nonzero;stroke:none" transform="matrix(1.33333 0 0 -1.33333 1031.565 559.5)"/></g></g><g clip-path="url(#C)" opacity="0.799698" style="fill:#4f8553;fill-opacity:.803922" transform="translate(-785.175 -190.478)"><g clip-path="url(#D)" opacity="0.803894" style="fill:#4f8553;fill-opacity:.803922"><path d="M0 0c0-31.724-25.718-57.442-57.442-57.442S-114.884-31.724-114.884 0s25.718 57.442 57.442 57.442S0 31.724 0 0" clip-path="url(#E)" style="fill:#4f8553;fill-opacity:.803922;fill-rule:nonzero;stroke:none" transform="matrix(1.33333 0 0 -1.33333 993.773 567.99)"/></g></g><path fill="#5f926a" d="M910.598 642.547c-9.857-10.328-21.193-39.295-2.22-41.164 19.064-.185 10.914 29.833 2.23 41.163v.007z" style="fill:#489157;fill-opacity:.897981;stroke-width:1.82223" transform="translate(-785.175 -190.478)"/><path fill="#77a37a" d="m878.891 586.412.01.006c11.281-3.011 36.11.412 29.48 14.965-7.834 13.944-25.253-4.076-29.484-14.958v-.01z" style="fill:#489157;fill-opacity:.897981;stroke-width:1.82223" transform="translate(-785.175 -190.478)"/><path fill="#587e60" d="m872.556 641.286.012-.012c.397-18.595 16.572-55.693 35.813-39.896 17.778 17.428-17.36 37.505-35.805 39.903l-.01.008-.001-.007h-.01z" style="fill:#52a664;fill-opacity:.903002;stroke-width:1.82223" transform="translate(-785.175 -190.478)"/><path fill="#5f926a" d="M1221.242 586.605c10.462-12.22 21.455-45.5 0-46.448-21.46.949-10.467 34.228-.01 46.449 0-.001.01-.004.011-.006z" style="fill:#489157;fill-opacity:.897981;stroke-width:2.05319" transform="translate(-785.175 -190.478)"/><path fill="#587e60" d="m1279.602 555.789-.016-.004c-11.812-17.31-49.904-42.38-58.349-15.63-6.061 27.39 39.461 24.723 58.345 15.641l.016.004-.01-.008c0-.002.01-.003.01-.005z" style="fill:#52a664;fill-opacity:.903002;stroke-width:2.05319" transform="translate(-785.175 -190.478)"/><path fill="#77a37a" d="m1253.504 521.521-.01.004c-12.874-2.702-40.602 2.657-32.262 18.626 9.663 15.213 28.167-6.12 32.263-18.627zs-.01-.008 0-.009z" style="fill:#489157;fill-opacity:.897981;stroke-width:2.05319" transform="translate(-785.175 -190.478)"/><path fill="#5f926a" d="M1155.437 630.104c1.198 13.629-7.653 42.094-22.972 32.14-14.38-11.27 9.685-28.863 22.965-32.145v-.008.011z" style="fill:#489157;fill-opacity:.897981;stroke-width:1.74631" transform="translate(-785.175 -190.478)"/><path fill="#587e60" d="m1165.113 701.929-.01-.008c-17.56-3.056-50.378-23.723-32.64-39.677 19.072-14.335 33.034 21.85 32.649 39.669l.01.01h-.01l-.001.008z" style="fill:#52a664;fill-opacity:.903002;stroke-width:1.74631" transform="translate(-785.175 -190.478)"/><path fill="#77a37a" d="M1121.336 691.918v-.008c-4.064-10.426-3.442-34.437 11.126-29.666 14.112 5.981-1.203 24.485-11.12 29.67 0 0-.01.001-.01.003z" style="fill:#489157;fill-opacity:.897981;stroke-width:1.74631" transform="translate(-785.175 -190.478)"/><g clip-path="url(#F)" opacity="0.799698" style="fill:#4f8553;fill-opacity:.803922" transform="translate(-785.175 -190.478)"><g clip-path="url(#G)" opacity="0.803894" style="fill:#4f8553;fill-opacity:.803922"><path d="M0 0c29.128 0 52.742-23.423 52.742-52.317S29.128-104.634 0-104.634s-52.742 23.423-52.742 52.317S-29.128 0 0 0" clip-path="url(#H)" style="fill:#4f8553;fill-opacity:.803922;fill-rule:nonzero;stroke:none" transform="matrix(1.33333 0 0 -1.33333 1121.185 461.825)"/></g></g><g clip-path="url(#I)" opacity="0.949493" style="fill:#4f8553;fill-opacity:.803922" transform="translate(-785.175 -190.478)"><g clip-path="url(#J)" opacity="0.8461" style="fill:#4f8553;fill-opacity:.803922"><path d="M0 0c0-29.005-23.513-52.517-52.518-52.517S-105.035-29.005-105.035 0s23.513 52.517 52.517 52.517S0 29.005 0 0" clip-path="url(#K)" style="fill:#4f8553;fill-opacity:.803922;fill-rule:nonzero;stroke:none" transform="matrix(1.33333 0 0 -1.33333 1157.604 366.1)"/></g></g><path fill="#5f926a" d="m1195.37 297.686-.01.002c-12.18-3.818-39.89-1.451-33.884 14.5 7.39 15.36 28.238-3.047 33.887-14.493v-.011z" style="fill:#489157;fill-opacity:.897981;stroke-width:1.6292" transform="translate(-785.175 -190.478)"/><path fill="#587e60" d="M1179.31 267.684v.014c-14.754 7.672-38.103 35.313-17.826 44.494 21.005 7.362 23.206-28.754 17.835-44.49v-.014.003-.009z" style="fill:#52a664;fill-opacity:.903002;stroke-width:1.6292" transform="translate(-785.175 -190.478)"/><path fill="#77a37a" d="M1150.643 284.024v.009c-4.615 9.364-5.96 31.732 7.962 28.467 13.596-4.428.845-22.855-7.956-28.469l-.01-.006z" style="fill:#489157;fill-opacity:.897981;stroke-width:1.6292" transform="translate(-785.175 -190.478)"/></svg>