<svg xmlns="http://www.w3.org/2000/svg" width="250" height="85" viewBox="0 0 66.145833 22.489582"><g transform="translate(-72.662 -93.41)"><rect width="66.145836" height="22.489584" x="72.661758" y="93.410835" rx="3.481781" ry="3.3072917" style="display:inline;fill:#302412;fill-opacity:1;stroke-width:.142823"/><rect width="51.858334" height="18.520834" x="79.805504" y="95.39521" rx="1.458765" ry="1.308548" style="display:inline;fill:#785a2e;fill-opacity:1;stroke-width:.164597"/><rect width="3.175" height="18.520834" x="74.646133" y="95.39521" rx="1.3229167" ry="1.3229167" style="display:inline;fill:#785a2e;fill-opacity:1;stroke-width:.151673"/><rect width="3.175" height="18.520834" x="133.64821" y="95.39521" rx="1.3229167" ry="1.3229167" style="display:inline;fill:#785a2e;fill-opacity:1;stroke-width:.151673"/></g><g transform="rotate(30 213.804 -55.844)"><rect width="5.8917327" height="9.525322" x="95.243782" y="82.555138" rx="0.26328495" ry="0.28339866" style="fill:none;fill-opacity:1;stroke:#0e272f;stroke-width:.925719;stroke-linecap:round;stroke-linejoin:round;stroke-miterlimit:4;stroke-dasharray:none;stroke-opacity:1"/><rect width="2.9439113" height="8.3537979" x="97.847466" y="83.144646" rx="0.26634058" ry="0.25192741" style="fill:#30839e;fill-opacity:1;stroke:#c8c8c8;stroke-width:.906619;stroke-linecap:round;stroke-linejoin:round;stroke-miterlimit:4;stroke-dasharray:none;stroke-opacity:1"/><rect width="5.8917327" height="9.5253229" x="94.572479" y="82.555138" rx="0.26459783" ry="0.26438412" style="fill:#30839e;fill-opacity:1;stroke:#13343f;stroke-width:.925719;stroke-linecap:round;stroke-linejoin:round;stroke-miterlimit:4;stroke-dasharray:none;stroke-opacity:1"/></g><g transform="rotate(-15 -233.154 348.735)"><rect width="5.8917327" height="9.525322" x="95.243782" y="82.555138" rx="0.26328495" ry="0.28339866" style="fill:none;fill-opacity:1;stroke:#42230e;stroke-width:.925719;stroke-linecap:round;stroke-linejoin:round;stroke-miterlimit:4;stroke-dasharray:none;stroke-opacity:1"/><rect width="2.9439113" height="8.3537979" x="97.847466" y="83.144646" rx="0.26634058" ry="0.25192741" style="fill:#30839e;fill-opacity:1;stroke:#c8c8c8;stroke-width:.906619;stroke-linecap:round;stroke-linejoin:round;stroke-miterlimit:4;stroke-dasharray:none;stroke-opacity:1"/><rect width="5.8917327" height="9.5253229" x="94.572479" y="82.555138" rx="0.26459783" ry="0.26438412" style="fill:#d57736;fill-opacity:1;stroke:#582f12;stroke-width:.925719;stroke-linecap:round;stroke-linejoin:round;stroke-miterlimit:4;stroke-dasharray:none;stroke-opacity:1"/></g></svg>