<svg xmlns="http://www.w3.org/2000/svg" width="250" height="85" viewBox="0 0 66.145833 22.489582"><g transform="translate(-72.662 -93.41)"><rect width="66.145836" height="22.489584" x="72.661758" y="93.410835" rx="3.481781" ry="3.3072917" style="display:inline;fill:#302412;fill-opacity:1;stroke-width:.142823"/><rect width="51.858334" height="18.520834" x="79.805504" y="95.39521" rx="1.458765" ry="1.308548" style="display:inline;fill:#785a2e;fill-opacity:1;stroke-width:.164597"/><rect width="3.175" height="18.520834" x="74.646133" y="95.39521" rx="1.3229167" ry="1.3229167" style="display:inline;fill:#785a2e;fill-opacity:1;stroke-width:.151673"/><rect width="3.175" height="18.520834" x="133.64821" y="95.39521" rx="1.3229167" ry="1.3229167" style="display:inline;fill:#785a2e;fill-opacity:1;stroke-width:.151673"/><g transform="rotate(60 92.56 117.287)"><rect width="5.8917327" height="9.525322" x="95.243782" y="82.555138" rx="0.26328495" ry="0.28339866" style="fill:none;fill-opacity:1;stroke:#42230e;stroke-width:.925719;stroke-linecap:round;stroke-linejoin:round;stroke-miterlimit:4;stroke-dasharray:none;stroke-opacity:1"/><rect width="2.9439113" height="8.3537979" x="97.847466" y="83.144646" rx="0.26634058" ry="0.25192741" style="fill:#30839e;fill-opacity:1;stroke:#c8c8c8;stroke-width:.906619;stroke-linecap:round;stroke-linejoin:round;stroke-miterlimit:4;stroke-dasharray:none;stroke-opacity:1"/><rect width="5.8917327" height="9.5253229" x="94.572479" y="82.555138" rx="0.26459783" ry="0.26438412" style="fill:#d57736;fill-opacity:1;stroke:#582f12;stroke-width:.925719;stroke-linecap:round;stroke-linejoin:round;stroke-miterlimit:4;stroke-dasharray:none;stroke-opacity:1"/></g><ellipse cx="106.28225" cy="103.28164" rx="2.9541814" ry="2.9513478" style="fill:#9edfdd;fill-opacity:1;fill-rule:nonzero;stroke:#0e2b2a;stroke-width:.925997;stroke-linecap:round;stroke-linejoin:round;stroke-miterlimit:4;stroke-dasharray:none;stroke-dashoffset:0;stroke-opacity:1;paint-order:normal"/><path d="M107.782 102.134a1.112 1.111 0 0 0-1.112 1.11 1.112 1.111 0 0 0 .002.059 1.112 1.111 0 0 0-.214-.02 1.112 1.111 0 0 0-1.112 1.11 1.112 1.111 0 0 0 .784 1.06 1.112 1.111 0 0 0-.178.603 1.112 1.111 0 0 0 1.112 1.11 1.112 1.111 0 0 0 .906-.465 1.112 1.111 0 0 0 .819.36 1.112 1.111 0 0 0 1.112-1.111 1.112 1.111 0 0 0-.242-.691 1.112 1.111 0 0 0 .786-1.063 1.112 1.111 0 0 0-1.111-1.11 1.112 1.111 0 0 0-.442.091 1.112 1.111 0 0 0-1.11-1.044zm.441 2.13a1.112 1.111 0 0 0 .24.624 1.112 1.111 0 0 0-.58.418 1.112 1.111 0 0 0-.49-.311 1.112 1.111 0 0 0 .178-.602 1.112 1.111 0 0 0-.002-.058 1.112 1.111 0 0 0 .213.02 1.112 1.111 0 0 0 .441-.092z" style="fill:#cb4431;fill-opacity:1;fill-rule:nonzero;stroke:#511b14;stroke-width:.69453;stroke-linecap:round;stroke-linejoin:round;stroke-miterlimit:4;stroke-dasharray:none;stroke-dashoffset:0;stroke-opacity:1;paint-order:normal"/><ellipse cx="107.8959" cy="104.65038" rx="0.78642541" ry="0.78568619" style="fill:#d3db57;fill-opacity:1;fill-rule:nonzero;stroke:#3c3f0d;stroke-width:.463021;stroke-linecap:round;stroke-linejoin:round;stroke-miterlimit:4;stroke-dasharray:none;stroke-dashoffset:0;stroke-opacity:1;paint-order:normal"/><path d="M106.494 98.07a1.112 1.111 0 0 0-1.112 1.111 1.112 1.111 0 0 0 .003.059 1.112 1.111 0 0 0-.214-.021 1.112 1.111 0 0 0-1.112 1.111 1.112 1.111 0 0 0 .784 1.062 1.112 1.111 0 0 0-.179.601 1.112 1.111 0 0 0 1.113 1.111 1.112 1.111 0 0 0 .905-.466 1.112 1.111 0 0 0 .82.36 1.112 1.111 0 0 0 1.112-1.11 1.112 1.111 0 0 0-.242-.692 1.112 1.111 0 0 0 .786-1.062 1.112 1.111 0 0 0-1.112-1.111 1.112 1.111 0 0 0-.44.091 1.112 1.111 0 0 0-1.11-1.044zm.441 2.13a1.112 1.111 0 0 0 .24.625 1.112 1.111 0 0 0-.58.417 1.112 1.111 0 0 0-.49-.31 1.112 1.111 0 0 0 .177-.602 1.112 1.111 0 0 0 0-.06 1.112 1.111 0 0 0 .213.022 1.112 1.111 0 0 0 .44-.092" style="fill:#cb4431;fill-opacity:1;fill-rule:nonzero;stroke:#511b14;stroke-width:.694531;stroke-linecap:round;stroke-linejoin:round;stroke-miterlimit:4;stroke-dasharray:none;stroke-dashoffset:0;stroke-opacity:1;paint-order:normal"/><ellipse cx="106.63796" cy="100.63244" rx="0.78642541" ry="0.78568619" style="fill:#d3db57;fill-opacity:1;fill-rule:nonzero;stroke:#3c3f0d;stroke-width:.463021;stroke-linecap:round;stroke-linejoin:round;stroke-miterlimit:4;stroke-dasharray:none;stroke-dashoffset:0;stroke-opacity:1;paint-order:normal"/><ellipse cx="25.819199" cy="139.35951" rx="2.9541814" ry="2.9513478" style="fill:#9edfdd;fill-opacity:1;fill-rule:nonzero;stroke:#0e2b2a;stroke-width:.925997;stroke-linecap:round;stroke-linejoin:round;stroke-miterlimit:4;stroke-dasharray:none;stroke-dashoffset:0;stroke-opacity:1;paint-order:normal" transform="rotate(-30)"/><path d="M88.267 104.098a1.111 1.112 60 0 0-.408 1.518 1.111 1.112 60 0 0 .03.05 1.111 1.112 60 0 0-.196.09 1.111 1.112 60 0 0-.407 1.518 1.111 1.112 60 0 0 1.209.527 1.111 1.112 60 0 0 .146.61 1.111 1.112 60 0 0 1.519.407 1.111 1.112 60 0 0 .55-.857 1.111 1.112 60 0 0 .89-.097 1.111 1.112 60 0 0 .408-1.519 1.111 1.112 60 0 0-.554-.478 1.111 1.112 60 0 0 .149-1.313 1.111 1.112 60 0 0-1.518-.406 1.111 1.112 60 0 0-.337.3 1.111 1.112 60 0 0-1.483-.35zm1.447 1.624a1.111 1.112 60 0 0 .519.421 1.111 1.112 60 0 0-.292.651 1.111 1.112 60 0 0-.581-.023 1.111 1.112 60 0 0-.147-.61 1.111 1.112 60 0 0-.03-.05 1.111 1.112 60 0 0 .195-.089 1.111 1.112 60 0 0 .336-.3" style="fill:#55d6ce;fill-opacity:1;fill-rule:nonzero;stroke:#0f3c39;stroke-width:.694531;stroke-linecap:round;stroke-linejoin:round;stroke-miterlimit:4;stroke-dasharray:none;stroke-dashoffset:0;stroke-opacity:1;paint-order:normal"/><ellipse cx="24.535995" cy="136.847" rx="0.78642541" ry="0.78568619" style="fill:#d3db57;fill-opacity:1;fill-rule:nonzero;stroke:#000;stroke-width:.463021;stroke-linecap:round;stroke-linejoin:round;stroke-miterlimit:4;stroke-dasharray:none;stroke-dashoffset:0;stroke-opacity:1;paint-order:normal" transform="rotate(-30)"/><path d="M92.765 106.035a1.111 1.112 60 0 0-.407 1.518 1.111 1.112 60 0 0 .029.05 1.111 1.112 60 0 0-.196.09 1.111 1.112 60 0 0-.408 1.518 1.111 1.112 60 0 0 1.21.526 1.111 1.112 60 0 0 .146.611 1.111 1.112 60 0 0 1.519.406 1.111 1.112 60 0 0 .55-.857 1.111 1.112 60 0 0 .89-.097 1.111 1.112 60 0 0 .408-1.518 1.111 1.112 60 0 0-.555-.478 1.111 1.112 60 0 0 .15-1.313 1.111 1.112 60 0 0-1.519-.406 1.111 1.112 60 0 0-.336.3 1.111 1.112 60 0 0-1.483-.35zm1.447 1.624a1.111 1.112 60 0 0 .52.421 1.111 1.112 60 0 0-.293.651 1.111 1.112 60 0 0-.58-.023 1.111 1.112 60 0 0-.147-.61 1.111 1.112 60 0 0-.031-.05 1.111 1.112 60 0 0 .195-.09 1.111 1.112 60 0 0 .336-.299" style="fill:#55d6ce;fill-opacity:1;fill-rule:nonzero;stroke:#0f3c39;stroke-width:.69453;stroke-linecap:round;stroke-linejoin:round;stroke-miterlimit:4;stroke-dasharray:none;stroke-dashoffset:0;stroke-opacity:1;paint-order:normal"/><ellipse cx="27.432907" cy="140.72826" rx="0.78642541" ry="0.78568619" style="fill:#d3db57;fill-opacity:1;fill-rule:nonzero;stroke:#000;stroke-width:.463021;stroke-linecap:round;stroke-linejoin:round;stroke-miterlimit:4;stroke-dasharray:none;stroke-dashoffset:0;stroke-opacity:1;paint-order:normal" transform="rotate(-30)"/></g></svg>