<svg xmlns="http://www.w3.org/2000/svg" width="211.90836" height="166.13826" viewBox="0 0 56.067419 43.957415"><defs><filter id="a" width="1.1271626" height="1.1349911" x="-0.063581316" y="-0.067495535" style="color-interpolation-filters:sRGB"><feFlood flood-color="#000" flood-opacity="0.498039" result="flood"/><feGaussianBlur in="SourceGraphic" result="blur" stdDeviation="0.600000"/><feOffset dx="0.000000" dy="0.000000" in="blur" result="offset"/><feComposite in="flood" in2="offset" operator="in" result="comp1"/><feComposite in="SourceGraphic" in2="comp1" result="comp2"/></filter></defs><g transform="translate(-48.683 -159.015)"><path d="M61.246 163.236h4.75v3.314h-4.75zm25.997 0h4.75v3.314h-4.75z" style="fill:#adadad;fill-opacity:1;stroke:#868686;stroke-width:.731271;stroke-linecap:round;stroke-linejoin:round;stroke-dasharray:none;stroke-opacity:1"/><path d="M69.581 166.377v-6.01h14.076v6.762" style="fill:none;fill-opacity:1;stroke:#5d5d5d;stroke-width:2.70464;stroke-linecap:round;stroke-linejoin:round;stroke-dasharray:none;stroke-opacity:1"/><rect width="53.776321" height="36.933174" x="49.828869" y="164.89325" rx="5.4790974" ry="5.4790974" style="fill:#cfcfcf;fill-opacity:1;stroke:#777;stroke-width:2.2911;stroke-linecap:round;stroke-linejoin:round;stroke-dasharray:none;stroke-opacity:1"/><path d="M49.829 173.04h53.776m-53.776 4.144h53.776m-53.776 12.511h53.776m-53.776 4.144h53.776" style="fill:#cfcfcf;fill-opacity:1;stroke:#777;stroke-width:2.29109;stroke-linecap:round;stroke-linejoin:round;stroke-dasharray:none;stroke-opacity:1"/><path d="M39.18 69.887h7.477l3.738 6.475-3.738 6.475H39.18l-3.738-6.475z" style="fill:#4a4a4a;fill-opacity:1;stroke:none;stroke-width:5.77699;stroke-linecap:round;stroke-linejoin:round;stroke-dasharray:none;stroke-opacity:1" transform="translate(45.82 153.615)scale(.1983)"/><path d="M39.18 69.887h7.477l3.738 6.475-3.738 6.475H39.18l-3.738-6.475z" style="fill:#4a4a4a;fill-opacity:1;stroke:none;stroke-width:5.77699;stroke-linecap:round;stroke-linejoin:round;stroke-dasharray:none;stroke-opacity:1" transform="translate(45.82 182.98)scale(.1983)"/><path d="M39.18 69.887h7.477l3.738 6.475-3.738 6.475H39.18l-3.738-6.475z" style="fill:#4a4a4a;fill-opacity:1;stroke:none;stroke-width:5.77699;stroke-linecap:round;stroke-linejoin:round;stroke-dasharray:none;stroke-opacity:1" transform="translate(90.505 153.615)scale(.1983)"/><path d="M39.18 69.887h7.477l3.738 6.475-3.738 6.475H39.18l-3.738-6.475z" style="fill:#4a4a4a;fill-opacity:1;stroke:none;stroke-width:5.77699;stroke-linecap:round;stroke-linejoin:round;stroke-dasharray:none;stroke-opacity:1" transform="translate(90.505 182.98)scale(.1983)"/><path d="M100.46 122.06c-.068-.001-.185.009-.341.022-.413.036-.863.197-1.627.58-.898.452-1.178.658-1.868 1.38-1.392 1.454-1.927 2.779-1.94 4.8l-.007 1.152-.776.4c-1.592.82-2.992 2.551-3.433 4.246-.337 1.297-.286 3.11.118 4.175.172.454.27.225.131-.308-.39-1.504.109-3.221 1.298-4.47 1.183-1.241 3.06-1.802 4.63-1.383.982.263 1.736.697 2.403 1.382.577.594.663.648.881.549.204-.093.242-.188.242-.603 0-.583.228-.981.733-1.28.267-.157.356-.28.356-.493 0-.27-.04-.291-.818-.458-2.427-.522-4.173-3.094-3.752-5.526.282-1.623 1.453-3.142 2.863-3.712.883-.356 1.112-.451.907-.453m2.223 0c-.205.002.023.097.907.453 1.407.569 2.6 2.125 2.856 3.725.395 2.47-1.319 4.99-3.746 5.513-.779.167-.818.189-.818.459 0 .212.089.335.356.492.505.299.733.697.733 1.28 0 .415.038.51.242.603.218.099.304.045.881-.549 1.926-1.98 4.912-2.026 6.924-.106 1.052 1.003 1.632 2.5 1.506 3.893-.034.381-.11.817-.167.968-.079.208-.073.264.024.232.229-.076.508-1.42.513-2.464.007-1.505-.331-2.673-1.115-3.852-.633-.952-1.6-1.825-2.564-2.314l-.807-.409.067-.68c.044-.443.008-1.024-.1-1.666-.242-1.428-.782-2.48-1.844-3.587-.702-.73-.982-.936-1.881-1.388-.764-.384-1.214-.545-1.627-.581a4 4 0 0 0-.34-.022m-1.112 5.724c-.682 0-1.364.067-1.763.201-.709.238-1.528.628-1.857.885l-.25.194.24.35c.133.193.336.456.451.586.116.13.237.22.27.203 1.984-1.109 3.366-1.217 5.034-.395.928.457.912.46 1.425-.285l.318-.461-.249-.193c-.328-.256-1.148-.646-1.855-.884-.4-.134-1.082-.201-1.764-.201m5.954 5.287c-.146.004-.367.03-.596.07l-.666.116-.046.95c-.038.784-.103 1.074-.368 1.65-.385.835-1.21 1.746-1.97 2.176-.607.344-.618.412-.208 1.297l.202.438.535-.27c1.584-.799 2.725-2.25 3.186-4.056.21-.822.271-2.25.1-2.356a.4.4 0 0 0-.169-.015m-11.914.004a.5.5 0 0 0-.178.02c-.076.047-.095.412-.058 1.118.122 2.313 1.375 4.288 3.356 5.292.458.233.508.239.616.079.096-.142.46-1.113.46-1.227 0-.018-.22-.145-.492-.284-.74-.38-1.619-1.337-2.01-2.189-.278-.604-.341-.885-.38-1.677l-.046-.95-.666-.116a4 4 0 0 0-.602-.066m7.048 1.903c-.081.01-.166.063-.308.165-.422.3-1.137.3-1.56 0-.28-.201-.34-.21-.586-.08l-.275.144.208.546c.445 1.17.349 2.778-.236 3.937-.374.741-1.314 1.702-2.05 2.094-1.906 1.017-4.197.684-5.85-.85-.481-.448-.315-.085.202.44.912.925 1.938 1.51 3.294 1.875.727.196 2.526.193 3.292-.006.832-.215 1.666-.594 2.277-1.033l.504-.362.504.362c.618.444 1.445.817 2.314 1.044.502.13.95.16 1.902.122 1.451-.058 2.385-.333 3.416-1.005.707-.462 1.797-1.516 1.684-1.63-.041-.04-.141.022-.223.138-.242.347-1.452 1.077-2.134 1.29-.752.234-1.89.257-2.655.053-1.713-.456-3.197-1.99-3.551-3.672-.211-1.002-.095-2.353.26-3.051.136-.266.128-.29-.14-.43-.13-.069-.208-.101-.29-.091z" style="fill:#898989;fill-opacity:1;stroke:none;stroke-width:.622152;stroke-linecap:round;stroke-linejoin:round;filter:url(#a)" transform="translate(36.436 130.801)scale(.39659)"/></g></svg>