<svg xmlns="http://www.w3.org/2000/svg" width="288" height="96.998619" viewBox="0 0 76.2 25.664218"><g transform="translate(-17.595 -190.103)"><path d="M-23.885 212.774a2.53 2.53 0 0 1-1.266 2.192 2.53 2.53 0 0 1-2.53 0 2.53 2.53 0 0 1-1.266-2.192m-30.204 0a2.53 2.53 0 0 1-1.266 2.192 2.53 2.53 0 0 1-2.53 0 2.53 2.53 0 0 1-1.266-2.192" style="fill:#d6c14c;fill-opacity:1;stroke:#231f08;stroke-width:.926041;stroke-linecap:round;stroke-linejoin:round;stroke-dasharray:none;stroke-opacity:1;paint-order:normal;stop-color:#000" transform="scale(-1 1)"/><rect width="76.199997" height="23.034327" x="17.594648" y="190.1033" rx="1.743782" ry="1.7523499" style="fill:#292929;fill-opacity:1;stroke-width:3.08825;stroke-linecap:square;stop-color:#000"/><rect width="72.614555" height="19.591656" x="19.436323" y="191.85565" rx="0.83628762" ry="0.83628762" style="fill:#666;fill-opacity:1;stroke-width:3.88477;stroke-linecap:square;stop-color:#000"/><rect width="70.258644" height="12.722226" x="20.565325" y="192.97852" rx="1.0820404" ry="0.97181028" style="fill:#595959;fill-opacity:1;stroke-width:3.4247;stroke-linecap:square;stop-color:#000"/><rect width="33.701302" height="2.4473958" x="20.848005" y="207.63666" rx="1.223611" ry="1.223611" style="fill:#737373;fill-opacity:1;stroke-width:2.71902;stroke-linecap:square;stop-color:#000"/><rect width="33.502865" height="2.4473958" x="57.129013" y="207.63666" rx="1.223611" ry="1.223611" style="fill:#737373;fill-opacity:1;stroke-width:2.71101;stroke-linecap:square;stop-color:#000"/></g></svg>