<svg xmlns="http://www.w3.org/2000/svg" width="92" height="92" fill="none" viewBox="0 0 92 92"><path fill="#AB7166" d="M89.172 2.625H2.624v86.547h86.547z"/><path stroke="#301C24" stroke-linecap="round" stroke-linejoin="round" stroke-width="5.22" d="M16.802 2.896v85.547m72.37-85.818H2.624v86.547h86.547zm-14.797.82v85.63M19.315 17h53.486"/><path stroke="#301C24" stroke-linecap="round" stroke-linejoin="round" stroke-width="5.22331" d="M19.224 74.578h53.32"/><path fill="#D4B4BD" stroke="#301C24" stroke-linecap="round" stroke-linejoin="round" stroke-width="4.22" d="M60.387 83.367a2.11 2.11 0 0 0 3.426.979l18.27-16.266a2.11 2.11 0 0 0-.35-3.404l-2.377-1.368-1.115-2.558a2.11 2.11 0 0 0-3.337-.732L56.635 76.284a2.11 2.11 0 0 0 .56 3.51l2.454 1.07zM9.38 15.449a2.11 2.11 0 0 0 .099 3.563l21.013 12.52a2.11 2.11 0 0 0 3.14-1.36l.59-2.677 2.102-1.834a2.11 2.11 0 0 0-.306-3.403L15.004 9.738a2.11 2.11 0 0 0-3.178 1.59l-.282 2.664z"/><path fill="#F297B1" fill-rule="evenodd" d="m43.51 30.123-.38.22-.708-.148-4.782 2.761.42 2.286a4.92 4.92 0 0 0-1.808 4.113l-2.144 2.79 2.686 9.82 2.76-.482-2.602-9.675.071-.093a4.9 4.9 0 0 0 1.81 1.676 5 5 0 0 0 1.575.528 4.7 4.7 0 0 0-.022 1.168 4.7 4.7 0 0 0 .603 1.845l6.497 11.253q.288.498.67.896a4.7 4.7 0 0 0 4.162 1.39 4.7 4.7 0 0 0 1.58-.567l5.454-3.149a4.7 4.7 0 0 0 1.42-1.262 4.7 4.7 0 0 0 .298-5.15L54.574 39.09a4.7 4.7 0 0 0-1.297-1.446 4.69 4.69 0 0 0-5.116-.273l-.73.422-.624-1.082-1.044.603a5 5 0 0 0-.873-1.467l.878-.507.185-.108-1.769-1.984.275-2.497a1.27 1.27 0 0 0 1.388-.936q.066-.245.032-.496a1.29 1.29 0 0 0-.934-1.065 1.286 1.286 0 0 0-1.513.754 1.29 1.29 0 0 0 .077 1.115m-5.317 10.05.622-.819 2.98-1.721.347-.2 1.192-.688a3.2 3.2 0 0 1 .884 1.46l-1.408.814.625 1.08-.727.42q-.468.272-.848.625c-.34.317-.626.682-.864 1.081a3.2 3.2 0 0 1-.979-.21 3.16 3.16 0 0 1-1.728-1.614c-.034-.075-.055-.156-.096-.228" clip-rule="evenodd"/></svg>