<svg xmlns="http://www.w3.org/2000/svg" width="147.89572" height="160.00713" viewBox="0 0 39.130743 42.335218"><g transform="translate(-81.171 -134.106)"><rect width="37.618755" height="40.823231" x="81.927437" y="134.86208" ry="0" style="fill:#666;fill-opacity:1;stroke:#262626;stroke-width:1.51199;stroke-dasharray:none;stroke-opacity:1;paint-order:fill markers stroke;stop-color:#000;stroke-linejoin:round"/><circle cx="90.4748" cy="144.1404" r="5.3707538" style="fill:#454545;fill-opacity:1;stroke:#262626;stroke-width:1.14166;stroke-dasharray:none;stroke-opacity:1;paint-order:fill markers stroke;stop-color:#000"/><path d="M90.225 138.647h.515v10.917h-.515z" style="fill:#262626;fill-opacity:1;stroke:none;stroke-width:1.60151;stroke-dasharray:none;stroke-opacity:1;paint-order:fill markers stroke;stop-color:#000"/><path d="M-144.406 85.152h.516V96.07h-.516z" style="fill:#262626;fill-opacity:1;stroke:none;stroke-width:1.60151;stroke-dasharray:none;stroke-opacity:1;paint-order:fill markers stroke;stop-color:#000" transform="rotate(-90)"/><path d="M-142.886 85.478h.515v9.71h-.515z" style="fill:#262626;fill-opacity:1;stroke:none;stroke-width:1.5104;stroke-dasharray:none;stroke-opacity:1;paint-order:fill markers stroke;stop-color:#000" transform="rotate(-90)"/><path d="M-141.367 85.923h.516v9.345h-.516z" style="fill:#262626;fill-opacity:1;stroke:none;stroke-width:1.48177;stroke-dasharray:none;stroke-opacity:1;paint-order:fill markers stroke;stop-color:#000" transform="rotate(-90)"/><path d="M-139.939 87.26h.516v6.686h-.516z" style="fill:#262626;fill-opacity:1;stroke:none;stroke-width:1.25338;stroke-dasharray:none;stroke-opacity:1;paint-order:fill markers stroke;stop-color:#000" transform="rotate(-90)"/><path d="M145.303 85.564h.516v9.71h-.516z" style="fill:#262626;fill-opacity:1;stroke:none;stroke-width:1.5104;stroke-dasharray:none;stroke-opacity:1;paint-order:fill markers stroke;stop-color:#000" transform="matrix(0 1 1 0 0 0)"/><path d="M146.822 86.009h.516v9.345h-.516z" style="fill:#262626;fill-opacity:1;stroke:none;stroke-width:1.48177;stroke-dasharray:none;stroke-opacity:1;paint-order:fill markers stroke;stop-color:#000" transform="matrix(0 1 1 0 0 0)"/><path d="M148.25 87.346h.516v6.686h-.516z" style="fill:#262626;fill-opacity:1;stroke:none;stroke-width:1.25338;stroke-dasharray:none;stroke-opacity:1;paint-order:fill markers stroke;stop-color:#000" transform="matrix(0 1 1 0 0 0)"/><path d="M88.796 139.417h.515v9.71h-.515z" style="fill:#262626;fill-opacity:1;stroke:none;stroke-width:1.5104;stroke-dasharray:none;stroke-opacity:1;paint-order:fill markers stroke;stop-color:#000"/><path d="M87.276 139.337h.516v9.345h-.516z" style="fill:#262626;fill-opacity:1;stroke:none;stroke-width:1.48177;stroke-dasharray:none;stroke-opacity:1;paint-order:fill markers stroke;stop-color:#000"/><path d="M85.848 140.658h.516v6.687h-.516z" style="fill:#262626;fill-opacity:1;stroke:none;stroke-width:1.25338;stroke-dasharray:none;stroke-opacity:1;paint-order:fill markers stroke;stop-color:#000"/><path d="M-92.244 139.331h.516v9.71h-.516z" style="fill:#262626;fill-opacity:1;stroke:none;stroke-width:1.5104;stroke-dasharray:none;stroke-opacity:1;paint-order:fill markers stroke;stop-color:#000" transform="scale(-1 1)"/><path d="M-93.763 139.25h.516v9.346h-.516z" style="fill:#262626;fill-opacity:1;stroke:none;stroke-width:1.48177;stroke-dasharray:none;stroke-opacity:1;paint-order:fill markers stroke;stop-color:#000" transform="scale(-1 1)"/><path d="M-95.191 140.572h.516v6.687h-.516z" style="fill:#262626;fill-opacity:1;stroke:none;stroke-width:1.25338;stroke-dasharray:none;stroke-opacity:1;paint-order:fill markers stroke;stop-color:#000" transform="scale(-1 1)"/><path d="M81.355 152.018h38.313v1.725H81.355z" style="fill:#262626;fill-opacity:1;stroke:none;stroke-width:2.3019;stroke-dasharray:none;stroke-opacity:1;paint-order:fill markers stroke;stop-color:#000"/><rect width="16.899076" height="11.611925" x="98.976753" y="138.03804" ry="2.4825497" style="fill:#4f4f4f;fill-opacity:1;stroke:#262626;stroke-width:1.94379;stroke-dasharray:none;stroke-opacity:1;paint-order:fill markers stroke;stop-color:#000"/><path d="m105.481 146.153-2.096.608 1.55-2.066-3.404-.122 3.95-1.154-2.309-2.887 5.135 2.005 1.216-1.884.03 2.401 3.464-.547-2.522 2.765 1.124 2.28-3.585-1.43z" style="fill:#242424;fill-opacity:1;stroke:none;stroke-width:1.70521;stroke-dasharray:none;stroke-opacity:1;paint-order:fill markers stroke;stop-color:#000"/><rect width="9.0418091" height="3.6482289" x="84.074417" y="155.19608" ry="0.51449382" style="fill:gray;fill-opacity:1;stroke:none;stroke-width:2.83252;stroke-dasharray:none;stroke-opacity:1;paint-order:fill markers stroke;stop-color:#000"/><rect width="3.8820899" height="3.6482289" x="84.074905" y="160.04898" ry="0.51449382" style="fill:gray;fill-opacity:1;stroke:none;stroke-width:1.856;stroke-dasharray:none;stroke-opacity:1;paint-order:fill markers stroke;stop-color:#000"/><rect width="3.8820899" height="3.6482289" x="89.240921" y="160.04608" ry="0.51449382" style="fill:gray;fill-opacity:1;stroke:none;stroke-width:1.856;stroke-dasharray:none;stroke-opacity:1;paint-order:fill markers stroke;stop-color:#000"/><rect width="3.8820899" height="3.6482289" x="84.073929" y="165.04453" ry="0.51449382" style="fill:gray;fill-opacity:1;stroke:none;stroke-width:1.856;stroke-dasharray:none;stroke-opacity:1;paint-order:fill markers stroke;stop-color:#000"/><rect width="3.8820899" height="3.6482289" x="89.239944" y="165.04163" ry="0.51449382" style="fill:gray;fill-opacity:1;stroke:none;stroke-width:1.856;stroke-dasharray:none;stroke-opacity:1;paint-order:fill markers stroke;stop-color:#000"/><rect width="3.8820899" height="3.6482289" x="84.080765" y="169.89453" ry="0.51449382" style="fill:gray;fill-opacity:1;stroke:none;stroke-width:1.856;stroke-dasharray:none;stroke-opacity:1;paint-order:fill markers stroke;stop-color:#000"/><rect width="3.8820899" height="3.6482289" x="89.24678" y="169.89163" ry="0.51449382" style="fill:gray;fill-opacity:1;stroke:none;stroke-width:1.856;stroke-dasharray:none;stroke-opacity:1;paint-order:fill markers stroke;stop-color:#000"/><circle cx="100.03046" cy="160.23299" r="2.3521895" style="fill:#595959;fill-opacity:1;stroke:none;stroke-width:2.6939;stroke-dasharray:none;stroke-opacity:1;paint-order:fill markers stroke;stop-color:#000"/><circle cx="100.05781" cy="169.47203" r="2.3521895" style="fill:#595959;fill-opacity:1;stroke:none;stroke-width:2.6939;stroke-dasharray:none;stroke-opacity:1;paint-order:fill markers stroke;stop-color:#000"/><rect width="1.7096574" height="6.4669652" x="99.129097" y="156.92052" ry="0.81766224" style="fill:#4d4d4d;fill-opacity:1;stroke:none;stroke-width:2.94966;stroke-dasharray:none;stroke-opacity:1;paint-order:fill markers stroke;stop-color:#000"/><rect width="1.7096574" height="6.4669652" x="51.959724" y="186.34424" ry="0.81766224" style="fill:#737373;fill-opacity:1;stroke:none;stroke-width:2.94966;stroke-dasharray:none;stroke-opacity:1;paint-order:fill markers stroke;stop-color:#000" transform="rotate(-15)"/><rect width="1.7305702" height="22.808008" x="94.480171" y="153.05528" ry="0.83113688" style="fill:#262626;fill-opacity:1;stroke:none;stroke-width:1.87462;stroke-dasharray:none;stroke-opacity:1;paint-order:fill markers stroke;stop-color:#000"/><rect width="1.7305702" height="22.808008" x="103.81464" y="153.0396" ry="0.83113688" style="fill:#262626;fill-opacity:1;stroke:none;stroke-width:1.87462;stroke-dasharray:none;stroke-opacity:1;paint-order:fill markers stroke;stop-color:#000"/><path d="M108.84 157.9h6.711v12.717h-6.711z" style="fill:#737373;fill-opacity:1;stroke:#333;stroke-width:1.212;stroke-dasharray:none;stroke-opacity:1;paint-order:fill markers stroke;stop-color:#000;stroke-linejoin:round"/><path d="M111.537 158.286h1.22v11.926h-1.22z" style="fill:#333;fill-opacity:1;stroke:none;stroke-width:.677436;stroke-dasharray:none;stroke-opacity:1;paint-order:fill markers stroke;stop-color:#000"/><rect width="1.5709635" height="2.4143229" x="111.3806" y="164.70145" ry="0.38033855" style="fill:#595959;fill-opacity:1;stroke:#333;stroke-width:.5;stroke-dasharray:none;stroke-opacity:1;paint-order:fill markers stroke;stop-color:#000"/><rect width="9.0456314" height="0.93544334" x="84.073479" y="156.83644" ry="0" style="fill:#999;fill-opacity:1;stroke:none;stroke-width:.548002;stroke-dasharray:none;stroke-opacity:1;paint-order:fill markers stroke;stop-color:#000"/></g></svg>