<svg xmlns="http://www.w3.org/2000/svg" width="227.89572" height="160.00711" viewBox="0 0 60.29741 42.335215"><g transform="translate(-88.651 -118.822)"><rect width="58.4216" height="40.459408" x="89.589211" y="119.75977" ry="0" style="fill:#666;fill-opacity:1;stroke:#262626;stroke-width:1.87581;stroke-dasharray:none;stroke-opacity:1;paint-order:fill markers stroke;stop-color:#000;stroke-linejoin:round"/><circle cx="97.954445" cy="128.85617" r="5.3707538" style="fill:#454545;fill-opacity:1;stroke:#262626;stroke-width:1.14166;stroke-dasharray:none;stroke-opacity:1;paint-order:fill markers stroke;stop-color:#000"/><path d="M97.704 123.363h.516v10.917h-.516z" style="fill:#262626;fill-opacity:1;stroke:none;stroke-width:1.60151;stroke-dasharray:none;stroke-opacity:1;paint-order:fill markers stroke;stop-color:#000"/><path d="M-129.121 92.632h.515v10.917h-.515z" style="fill:#262626;fill-opacity:1;stroke:none;stroke-width:1.60151;stroke-dasharray:none;stroke-opacity:1;paint-order:fill markers stroke;stop-color:#000" transform="rotate(-90)"/><path d="M-127.602 92.958h.515v9.71h-.515z" style="fill:#262626;fill-opacity:1;stroke:none;stroke-width:1.5104;stroke-dasharray:none;stroke-opacity:1;paint-order:fill markers stroke;stop-color:#000" transform="rotate(-90)"/><path d="M-126.083 93.403h.516v9.345h-.516z" style="fill:#262626;fill-opacity:1;stroke:none;stroke-width:1.48177;stroke-dasharray:none;stroke-opacity:1;paint-order:fill markers stroke;stop-color:#000" transform="rotate(-90)"/><path d="M-124.655 94.74h.516v6.686h-.516z" style="fill:#262626;fill-opacity:1;stroke:none;stroke-width:1.25338;stroke-dasharray:none;stroke-opacity:1;paint-order:fill markers stroke;stop-color:#000" transform="rotate(-90)"/><path d="M130.019 93.044h.515v9.71h-.515z" style="fill:#262626;fill-opacity:1;stroke:none;stroke-width:1.5104;stroke-dasharray:none;stroke-opacity:1;paint-order:fill markers stroke;stop-color:#000" transform="matrix(0 1 1 0 0 0)"/><path d="M131.538 93.489h.516v9.345h-.516z" style="fill:#262626;fill-opacity:1;stroke:none;stroke-width:1.48177;stroke-dasharray:none;stroke-opacity:1;paint-order:fill markers stroke;stop-color:#000" transform="matrix(0 1 1 0 0 0)"/><path d="M132.966 94.826h.516v6.686h-.516z" style="fill:#262626;fill-opacity:1;stroke:none;stroke-width:1.25338;stroke-dasharray:none;stroke-opacity:1;paint-order:fill markers stroke;stop-color:#000" transform="matrix(0 1 1 0 0 0)"/><path d="M96.275 124.133h.516v9.71h-.516z" style="fill:#262626;fill-opacity:1;stroke:none;stroke-width:1.5104;stroke-dasharray:none;stroke-opacity:1;paint-order:fill markers stroke;stop-color:#000"/><path d="M94.756 124.052h.515v9.345h-.515z" style="fill:#262626;fill-opacity:1;stroke:none;stroke-width:1.48177;stroke-dasharray:none;stroke-opacity:1;paint-order:fill markers stroke;stop-color:#000"/><path d="M93.328 125.374h.516v6.686h-.516z" style="fill:#262626;fill-opacity:1;stroke:none;stroke-width:1.25338;stroke-dasharray:none;stroke-opacity:1;paint-order:fill markers stroke;stop-color:#000"/><path d="M-99.723 124.047h.515v9.71h-.515z" style="fill:#262626;fill-opacity:1;stroke:none;stroke-width:1.5104;stroke-dasharray:none;stroke-opacity:1;paint-order:fill markers stroke;stop-color:#000" transform="scale(-1 1)"/><path d="M-101.243 123.967h.516v9.345h-.516z" style="fill:#262626;fill-opacity:1;stroke:none;stroke-width:1.48177;stroke-dasharray:none;stroke-opacity:1;paint-order:fill markers stroke;stop-color:#000" transform="scale(-1 1)"/><path d="M-102.67 125.288h.515v6.687h-.516z" style="fill:#262626;fill-opacity:1;stroke:none;stroke-width:1.25338;stroke-dasharray:none;stroke-opacity:1;paint-order:fill markers stroke;stop-color:#000" transform="scale(-1 1)"/><path d="M88.834 136.734h59.678v1.725H88.834z" style="fill:#262626;fill-opacity:1;stroke:none;stroke-width:2.8729;stroke-dasharray:none;stroke-opacity:1;paint-order:fill markers stroke;stop-color:#000"/><rect width="16.899076" height="11.611925" x="106.4564" y="122.75382" ry="2.4825497" style="fill:#4f4f4f;fill-opacity:1;stroke:#262626;stroke-width:1.94379;stroke-dasharray:none;stroke-opacity:1;paint-order:fill markers stroke;stop-color:#000"/><rect width="16.899076" height="11.611925" x="126.99693" y="122.72346" ry="2.4825497" style="fill:#4f4f4f;fill-opacity:1;stroke:#262626;stroke-width:1.94379;stroke-dasharray:none;stroke-opacity:1;paint-order:fill markers stroke;stop-color:#000"/><path d="m133.599 130.406-2.097.608 1.55-2.066-3.404-.122 3.95-1.155-2.309-2.886 5.135 2.005 1.216-1.884.03 2.4 3.464-.546-2.522 2.765 1.124 2.279-3.585-1.428z" style="fill:#242424;fill-opacity:1;stroke:none;stroke-width:1.70521;stroke-dasharray:none;stroke-opacity:1;paint-order:fill markers stroke;stop-color:#000"/><rect width="3.8820899" height="3.6482289" x="91.672997" y="139.66971" ry="0.51449382" style="fill:#444;fill-opacity:1;stroke:none;stroke-width:1.856;stroke-dasharray:none;stroke-opacity:1;paint-order:fill markers stroke;stop-color:#000"/><rect width="3.8820899" height="3.6482289" x="96.839012" y="139.66681" ry="0.51449382" style="fill:#444;fill-opacity:1;stroke:none;stroke-width:1.856;stroke-dasharray:none;stroke-opacity:1;paint-order:fill markers stroke;stop-color:#000"/><rect width="3.8820899" height="3.6482289" x="91.679832" y="144.51971" ry="0.51449382" style="fill:#444;fill-opacity:1;stroke:none;stroke-width:1.856;stroke-dasharray:none;stroke-opacity:1;paint-order:fill markers stroke;stop-color:#000"/><rect width="3.8820899" height="3.6482289" x="96.845848" y="144.51682" ry="0.51449382" style="fill:#444;fill-opacity:1;stroke:none;stroke-width:1.856;stroke-dasharray:none;stroke-opacity:1;paint-order:fill markers stroke;stop-color:#000"/><rect width="3.8820899" height="3.6482289" x="91.678856" y="149.51526" ry="0.51449382" style="fill:#444;fill-opacity:1;stroke:none;stroke-width:1.856;stroke-dasharray:none;stroke-opacity:1;paint-order:fill markers stroke;stop-color:#000"/><rect width="3.8820899" height="3.6482289" x="96.844872" y="149.51236" ry="0.51449382" style="fill:#444;fill-opacity:1;stroke:none;stroke-width:1.856;stroke-dasharray:none;stroke-opacity:1;paint-order:fill markers stroke;stop-color:#000"/><rect width="3.8820899" height="3.6482289" x="91.685692" y="154.36526" ry="0.51449382" style="fill:#444;fill-opacity:1;stroke:none;stroke-width:1.856;stroke-dasharray:none;stroke-opacity:1;paint-order:fill markers stroke;stop-color:#000"/><rect width="3.8820899" height="3.6482289" x="96.851707" y="154.36237" ry="0.51449382" style="fill:#444;fill-opacity:1;stroke:none;stroke-width:1.856;stroke-dasharray:none;stroke-opacity:1;paint-order:fill markers stroke;stop-color:#000"/><rect width="1.7305702" height="23.11451" x="101.95982" y="137.7836" ry="0.84230596" style="fill:#262626;fill-opacity:1;stroke:none;stroke-width:1.88718;stroke-dasharray:none;stroke-opacity:1;paint-order:fill markers stroke;stop-color:#000"/><path d="m110.121 153.322-5.544 2.695 5.93-1.608-1.944 2.506 2.95-1.99.494 2.128.353-2.69h2.963l-2.679-1.202.628-1.735-1.482 1.277-.37-1.865-.467 2.008-2.9-.977z" style="fill:#3a3a3a;fill-opacity:1;stroke:none;stroke-width:.542589;stroke-linecap:square;stroke-linejoin:round;stroke-dasharray:none;stroke-opacity:1"/><rect width="1.7305702" height="23.11451" x="117.90903" y="137.39157" ry="0.84230596" style="fill:#262626;fill-opacity:1;stroke:none;stroke-width:1.88718;stroke-dasharray:none;stroke-opacity:1;paint-order:fill markers stroke;stop-color:#000"/><rect width="1.7305702" height="22.357096" x="134.24693" y="137.58997" ry="0.81470537" style="fill:#262626;fill-opacity:1;stroke:none;stroke-width:1.856;stroke-dasharray:none;stroke-opacity:1;paint-order:fill markers stroke;stop-color:#000"/><rect width="1.8241144" height="17.07184" x="122.63316" y="140.34323" ry="0.81470537" style="fill:#333;fill-opacity:1;stroke:none;stroke-width:1.856;stroke-dasharray:none;stroke-opacity:1;paint-order:fill markers stroke;stop-color:#000"/><rect width="1.8241144" height="17.07184" x="129.33873" y="140.34229" ry="0.81470537" style="fill:#333;fill-opacity:1;stroke:none;stroke-width:1.856;stroke-dasharray:none;stroke-opacity:1;paint-order:fill markers stroke;stop-color:#000"/><rect width="5.9736252" height="1.6842848" x="120.5731" y="142.93173" ry="0.8421424" style="fill:gray;fill-opacity:1;stroke:none;stroke-width:2.08912;stroke-dasharray:none;stroke-opacity:1;paint-order:fill markers stroke;stop-color:#000"/><rect width="5.9736252" height="1.7774849" x="127.25864" y="153.67816" ry="0.88874245" style="fill:gray;fill-opacity:1;stroke:none;stroke-width:2.14615;stroke-dasharray:none;stroke-opacity:1;paint-order:fill markers stroke;stop-color:#000"/><circle cx="141.49547" cy="155.23853" r="2.6789062" style="fill:#323232;fill-opacity:1;stroke:none;stroke-width:1;stroke-dasharray:none;stroke-opacity:.8;paint-order:fill markers stroke;stop-color:#000"/><circle cx="141.49547" cy="155.23853" r="1.8751253" style="fill:#4f4f4f;fill-opacity:1;stroke:none;stroke-width:.914463;stroke-dasharray:none;stroke-opacity:.8;paint-order:fill markers stroke;stop-color:#000"/><circle cx="141.49596" cy="142.34686" r="2.6789062" style="fill:#323232;fill-opacity:1;stroke:none;stroke-width:1;stroke-dasharray:none;stroke-opacity:.8;paint-order:fill markers stroke;stop-color:#000"/><circle cx="141.49596" cy="142.34686" r="1.8751253" style="fill:#4f4f4f;fill-opacity:1;stroke:none;stroke-width:.914463;stroke-dasharray:none;stroke-opacity:.8;paint-order:fill markers stroke;stop-color:#000"/><circle cx="141.49352" cy="148.77341" r="2.6789062" style="fill:#323232;fill-opacity:1;stroke:none;stroke-width:1;stroke-dasharray:none;stroke-opacity:.8;paint-order:fill markers stroke;stop-color:#000"/><circle cx="141.49352" cy="148.77341" r="1.8751253" style="fill:#4f4f4f;fill-opacity:1;stroke:none;stroke-width:.914463;stroke-dasharray:none;stroke-opacity:.8;paint-order:fill markers stroke;stop-color:#000"/><path d="M105.037 139.578h11.531v8.391h-11.53z" style="color:#000;fill:#137900;stroke-linecap:round;stroke-linejoin:round;-inkscape-stroke:none;fill-opacity:1"/><path d="m104.815 143.917.606.72 2.675-3.156 1.521 4.62 3.128-1.09 2.353-3.214.643-.43.606-.374" style="fill:none;fill-opacity:1;stroke:#38ff00;stroke-width:.812;stroke-linecap:round;stroke-linejoin:round;stroke-dasharray:none;stroke-opacity:1"/><path d="M105.037 139.278a.606.606 0 0 0-.606.607v8.39a.606.606 0 0 0 .606.606h11.531a.606.606 0 0 0 .605-.605v-8.39a.606.606 0 0 0-.605-.608zm.605 1.213h10.32v7.18h-10.32z" style="color:#000;fill:#262626;stroke-linecap:round;stroke-linejoin:round;-inkscape-stroke:none"/></g></svg>