<svg xmlns="http://www.w3.org/2000/svg" width="227.89572" height="160.00711" viewBox="0 0 60.29741 42.335215"><g transform="translate(-105.325 -103.885)"><rect width="58.4216" height="40.459408" x="106.26287" y="104.82293" ry="0" style="fill:#666;fill-opacity:1;stroke:#262626;stroke-width:1.876;stroke-dasharray:none;stroke-opacity:1;paint-order:fill markers stroke;stop-color:#000;stroke-linejoin:round"/><circle cx="114.62811" cy="113.91933" r="5.3707538" style="fill:#454545;fill-opacity:1;stroke:#262626;stroke-width:1.14166;stroke-dasharray:none;stroke-opacity:1;paint-order:fill markers stroke;stop-color:#000"/><path d="M114.378 108.426h.516v10.917h-.516z" style="fill:#262626;fill-opacity:1;stroke:none;stroke-width:1.60151;stroke-dasharray:none;stroke-opacity:1;paint-order:fill markers stroke;stop-color:#000"/><path d="M-114.185 109.306h.516v10.916h-.516z" style="fill:#333;fill-opacity:1;stroke:none;stroke-width:1.60151;stroke-dasharray:none;stroke-opacity:1;paint-order:fill markers stroke;stop-color:#000" transform="rotate(-90)"/><path d="M-112.665 109.632h.515v9.71h-.515z" style="fill:#262626;fill-opacity:1;stroke:none;stroke-width:1.5104;stroke-dasharray:none;stroke-opacity:1;paint-order:fill markers stroke;stop-color:#000" transform="rotate(-90)"/><path d="M-111.146 110.076h.516v9.345h-.516z" style="fill:#262626;fill-opacity:1;stroke:none;stroke-width:1.48177;stroke-dasharray:none;stroke-opacity:1;paint-order:fill markers stroke;stop-color:#000" transform="rotate(-90)"/><path d="M-109.718 111.413h.516v6.687h-.516z" style="fill:#262626;fill-opacity:1;stroke:none;stroke-width:1.25338;stroke-dasharray:none;stroke-opacity:1;paint-order:fill markers stroke;stop-color:#000" transform="rotate(-90)"/><path d="M115.082 109.717h.516v9.71h-.516z" style="fill:#262626;fill-opacity:1;stroke:none;stroke-width:1.5104;stroke-dasharray:none;stroke-opacity:1;paint-order:fill markers stroke;stop-color:#000" transform="matrix(0 1 1 0 0 0)"/><path d="M116.601 110.162h.516v9.345h-.516z" style="fill:#262626;fill-opacity:1;stroke:none;stroke-width:1.48177;stroke-dasharray:none;stroke-opacity:1;paint-order:fill markers stroke;stop-color:#000" transform="matrix(0 1 1 0 0 0)"/><path d="M118.03 111.5h.515v6.686h-.516z" style="fill:#262626;fill-opacity:1;stroke:none;stroke-width:1.25338;stroke-dasharray:none;stroke-opacity:1;paint-order:fill markers stroke;stop-color:#000" transform="matrix(0 1 1 0 0 0)"/><path d="M112.949 109.196h.516v9.71h-.516z" style="fill:#262626;fill-opacity:1;stroke:none;stroke-width:1.5104;stroke-dasharray:none;stroke-opacity:1;paint-order:fill markers stroke;stop-color:#000"/><path d="M111.43 109.115h.515v9.346h-.516z" style="fill:#262626;fill-opacity:1;stroke:none;stroke-width:1.48177;stroke-dasharray:none;stroke-opacity:1;paint-order:fill markers stroke;stop-color:#000"/><path d="M110.002 110.437h.515v6.686h-.515z" style="fill:#262626;fill-opacity:1;stroke:none;stroke-width:1.25338;stroke-dasharray:none;stroke-opacity:1;paint-order:fill markers stroke;stop-color:#000"/><path d="M-116.397 109.11h.516v9.71h-.516z" style="fill:#262626;fill-opacity:1;stroke:none;stroke-width:1.5104;stroke-dasharray:none;stroke-opacity:1;paint-order:fill markers stroke;stop-color:#000" transform="scale(-1 1)"/><path d="M-117.916 109.03h.515v9.345h-.515z" style="fill:#262626;fill-opacity:1;stroke:none;stroke-width:1.48177;stroke-dasharray:none;stroke-opacity:1;paint-order:fill markers stroke;stop-color:#000" transform="scale(-1 1)"/><path d="M-119.344 110.351h.515v6.687h-.515z" style="fill:#262626;fill-opacity:1;stroke:none;stroke-width:1.25338;stroke-dasharray:none;stroke-opacity:1;paint-order:fill markers stroke;stop-color:#000" transform="scale(-1 1)"/><path d="M105.508 121.797h59.678v1.725h-59.678z" style="fill:#262626;fill-opacity:1;stroke:none;stroke-width:2.8729;stroke-dasharray:none;stroke-opacity:1;paint-order:fill markers stroke;stop-color:#000"/><rect width="16.899076" height="11.611925" x="123.13006" y="107.81698" ry="2.4825497" style="fill:#4f4f4f;fill-opacity:1;stroke:#262626;stroke-width:1.94379;stroke-dasharray:none;stroke-opacity:1;paint-order:fill markers stroke;stop-color:#000"/><rect width="16.899076" height="11.611925" x="143.67058" y="107.78661" ry="2.4825497" style="fill:#4f4f4f;fill-opacity:1;stroke:#262626;stroke-width:1.94379;stroke-dasharray:none;stroke-opacity:1;paint-order:fill markers stroke;stop-color:#000"/><path d="m129.635 115.932-2.097.608 1.55-2.066-3.404-.122 3.95-1.154-2.309-2.887 5.135 2.005 1.216-1.884.03 2.4 3.464-.546-2.522 2.765 1.124 2.279-3.585-1.428z" style="fill:#242424;fill-opacity:1;stroke:none;stroke-width:1.70521;stroke-dasharray:none;stroke-opacity:1;paint-order:fill markers stroke;stop-color:#000"/><g transform="translate(-.268 .056)"><rect width="3.8820899" height="3.6482289" x="108.68653" y="124.78606" ry="0.51449382" style="fill:gray;fill-opacity:1;stroke:none;stroke-width:1.856;stroke-dasharray:none;stroke-opacity:1;paint-order:fill markers stroke;stop-color:#000"/><rect width="3.8820899" height="3.6482289" x="113.85255" y="124.78316" ry="0.51449382" style="fill:gray;fill-opacity:1;stroke:none;stroke-width:1.856;stroke-dasharray:none;stroke-opacity:1;paint-order:fill markers stroke;stop-color:#000"/><rect width="3.8820899" height="3.6482289" x="108.69337" y="129.63606" ry="0.51449382" style="fill:gray;fill-opacity:1;stroke:none;stroke-width:1.856;stroke-dasharray:none;stroke-opacity:1;paint-order:fill markers stroke;stop-color:#000"/><rect width="3.8820899" height="3.6482289" x="113.85938" y="129.63316" ry="0.51449382" style="fill:gray;fill-opacity:1;stroke:none;stroke-width:1.856;stroke-dasharray:none;stroke-opacity:1;paint-order:fill markers stroke;stop-color:#000"/><rect width="3.8820899" height="3.6482289" x="108.69239" y="134.63161" ry="0.51449382" style="fill:gray;fill-opacity:1;stroke:none;stroke-width:1.856;stroke-dasharray:none;stroke-opacity:1;paint-order:fill markers stroke;stop-color:#000"/><rect width="3.8820899" height="3.6482289" x="113.85841" y="134.62871" ry="0.51449382" style="fill:gray;fill-opacity:1;stroke:none;stroke-width:1.856;stroke-dasharray:none;stroke-opacity:1;paint-order:fill markers stroke;stop-color:#000"/><rect width="3.8820899" height="3.6482289" x="108.69923" y="139.48161" ry="0.51449382" style="fill:gray;fill-opacity:1;stroke:none;stroke-width:1.856;stroke-dasharray:none;stroke-opacity:1;paint-order:fill markers stroke;stop-color:#000"/><rect width="3.8820899" height="3.6482289" x="113.86524" y="139.47871" ry="0.51449382" style="fill:gray;fill-opacity:1;stroke:none;stroke-width:1.856;stroke-dasharray:none;stroke-opacity:1;paint-order:fill markers stroke;stop-color:#000"/></g><g transform="translate(-.117 -.56)"><circle cx="124.18377" cy="130.01192" r="2.3521895" style="fill:#595959;fill-opacity:1;stroke:none;stroke-width:2.6939;stroke-dasharray:none;stroke-opacity:1;paint-order:fill markers stroke;stop-color:#000"/><circle cx="124.21111" cy="139.25096" r="2.3521895" style="fill:#595959;fill-opacity:1;stroke:none;stroke-width:2.6939;stroke-dasharray:none;stroke-opacity:1;paint-order:fill markers stroke;stop-color:#000"/><circle cx="130.96989" cy="129.97755" r="2.3521895" style="fill:#595959;fill-opacity:1;stroke:none;stroke-width:2.6939;stroke-dasharray:none;stroke-opacity:1;paint-order:fill markers stroke;stop-color:#000"/><circle cx="130.99724" cy="139.2166" r="2.3521895" style="fill:#595959;fill-opacity:1;stroke:none;stroke-width:2.6939;stroke-dasharray:none;stroke-opacity:1;paint-order:fill markers stroke;stop-color:#000"/><rect width="1.7096574" height="6.4669652" x="123.2824" y="126.69946" ry="0.81766224" style="fill:#4d4d4d;fill-opacity:1;stroke:none;stroke-width:2.94966;stroke-dasharray:none;stroke-opacity:1;paint-order:fill markers stroke;stop-color:#000"/><rect width="1.7034749" height="6.4435792" x="92.093376" y="156.09758" ry="0.81470537" style="fill:#4d4d4d;fill-opacity:1;stroke:none;stroke-width:2.93899;stroke-dasharray:none;stroke-opacity:1;paint-order:fill markers stroke;stop-color:#000" transform="rotate(-15)"/><rect width="1.7096574" height="6.4669652" x="123.37957" y="135.99406" ry="0.81766224" style="fill:#737373;fill-opacity:1;stroke:none;stroke-width:2.94966;stroke-dasharray:none;stroke-opacity:1;paint-order:fill markers stroke;stop-color:#000"/><rect width="1.7096574" height="6.4669652" x="182.23213" y="51.78352" ry="0.81766224" style="fill:#737373;fill-opacity:1;stroke:none;stroke-width:2.94966;stroke-dasharray:none;stroke-opacity:1;paint-order:fill markers stroke;stop-color:#000" transform="rotate(30)"/></g><rect width="1.7305702" height="22.357096" x="118.63348" y="122.83392" ry="0.81470537" style="fill:#262626;fill-opacity:1;stroke:none;stroke-width:1.856;stroke-dasharray:none;stroke-opacity:1;paint-order:fill markers stroke;stop-color:#000"/><rect width="1.7305702" height="22.357096" x="134.58269" y="122.45473" ry="0.81470537" style="fill:#262626;fill-opacity:1;stroke:none;stroke-width:1.856;stroke-dasharray:none;stroke-opacity:1;paint-order:fill markers stroke;stop-color:#000"/><rect width="1.7305702" height="22.357096" x="150.92058" y="122.65313" ry="0.81470537" style="fill:#262626;fill-opacity:1;stroke:none;stroke-width:1.856;stroke-dasharray:none;stroke-opacity:1;paint-order:fill markers stroke;stop-color:#000"/><rect width="1.8241144" height="17.07184" x="139.30681" y="125.40639" ry="0.81470537" style="fill:#333;fill-opacity:1;stroke:none;stroke-width:1.856;stroke-dasharray:none;stroke-opacity:1;paint-order:fill markers stroke;stop-color:#000"/><rect width="1.8241144" height="17.07184" x="146.01237" y="125.40545" ry="0.81470537" style="fill:#333;fill-opacity:1;stroke:none;stroke-width:1.856;stroke-dasharray:none;stroke-opacity:1;paint-order:fill markers stroke;stop-color:#000"/><rect width="5.9736252" height="1.6842848" x="137.24675" y="138.31364" ry="0.8421424" style="fill:gray;fill-opacity:1;stroke:none;stroke-width:2.08912;stroke-dasharray:none;stroke-opacity:1;paint-order:fill markers stroke;stop-color:#000"/><rect width="5.9736252" height="1.7774849" x="143.9323" y="132.6559" ry="0.88874245" style="fill:gray;fill-opacity:1;stroke:none;stroke-width:2.14615;stroke-dasharray:none;stroke-opacity:1;paint-order:fill markers stroke;stop-color:#000"/><circle cx="158.33415" cy="128.7054" r="2.778125" style="fill:#d72828;fill-opacity:1;stroke:#4a1c1c;stroke-width:1;stroke-dasharray:none;stroke-opacity:1;paint-order:fill markers stroke;stop-color:#000"/><rect width="7.7232852" height="7.6463413" x="154.45506" y="-132.49327" rx="0" ry="0.41073114" style="display:inline;fill:#cecfcf;fill-opacity:.3;stroke:#949494;stroke-width:.877348;stroke-miterlimit:4;stroke-dasharray:none;stroke-opacity:.8;paint-order:normal" transform="scale(1 -1)"/><rect width="5.1449385" height="1.1693041" x="155.62904" y="-125.07632" ry="0.58465207" style="fill:#262626;fill-opacity:1;stroke:none;stroke-width:2.13421;stroke-dasharray:none;stroke-opacity:.8;paint-order:fill markers stroke;stop-color:#000" transform="scale(1 -1)"/><circle cx="158.33415" cy="138.31364" r="2.6789062" style="fill:#323232;fill-opacity:1;stroke:none;stroke-width:1;stroke-dasharray:none;stroke-opacity:.8;paint-order:fill markers stroke;stop-color:#000"/><circle cx="158.33415" cy="138.31364" r="1.8751253" style="fill:#4f4f4f;fill-opacity:1;stroke:none;stroke-width:.914463;stroke-dasharray:none;stroke-opacity:.8;paint-order:fill markers stroke;stop-color:#000"/></g></svg>