<svg xmlns="http://www.w3.org/2000/svg" width="227.89572" height="160.00711" viewBox="0 0 60.29741 42.335215"><g transform="translate(-76.146 -153.211)"><rect width="58.4216" height="40.459408" x="77.084061" y="154.14932" ry="0" style="fill:#666;fill-opacity:1;stroke:#262626;stroke-width:1.876;stroke-linejoin:round;stroke-dasharray:none;stroke-opacity:1;paint-order:fill markers stroke;stop-color:#000"/><circle cx="85.449303" cy="163.24573" r="5.3707538" style="fill:#454545;fill-opacity:1;stroke:#262626;stroke-width:1.14166;stroke-dasharray:none;stroke-opacity:1;paint-order:fill markers stroke;stop-color:#000"/><path d="M85.2 157.753h.515v10.916h-.516z" style="fill:#262626;fill-opacity:1;stroke:none;stroke-width:1.60151;stroke-dasharray:none;stroke-opacity:1;paint-order:fill markers stroke;stop-color:#000"/><path d="M-163.511 80.127h.516v10.917h-.516z" style="fill:#333;fill-opacity:1;stroke:none;stroke-width:1.60151;stroke-dasharray:none;stroke-opacity:1;paint-order:fill markers stroke;stop-color:#000" transform="rotate(-90)"/><path d="M-161.992 80.453h.516v9.71h-.516z" style="fill:#262626;fill-opacity:1;stroke:none;stroke-width:1.5104;stroke-dasharray:none;stroke-opacity:1;paint-order:fill markers stroke;stop-color:#000" transform="rotate(-90)"/><path d="M-160.472 80.898h.515v9.345h-.515z" style="fill:#262626;fill-opacity:1;stroke:none;stroke-width:1.48177;stroke-dasharray:none;stroke-opacity:1;paint-order:fill markers stroke;stop-color:#000" transform="rotate(-90)"/><path d="M-159.044 82.234h.515v6.687h-.515z" style="fill:#262626;fill-opacity:1;stroke:none;stroke-width:1.25338;stroke-dasharray:none;stroke-opacity:1;paint-order:fill markers stroke;stop-color:#000" transform="rotate(-90)"/><path d="M164.408 80.539h.516v9.71h-.516z" style="fill:#262626;fill-opacity:1;stroke:none;stroke-width:1.5104;stroke-dasharray:none;stroke-opacity:1;paint-order:fill markers stroke;stop-color:#000" transform="matrix(0 1 1 0 0 0)"/><path d="M165.928 80.983h.515v9.346h-.515z" style="fill:#262626;fill-opacity:1;stroke:none;stroke-width:1.48177;stroke-dasharray:none;stroke-opacity:1;paint-order:fill markers stroke;stop-color:#000" transform="matrix(0 1 1 0 0 0)"/><path d="M167.356 82.32h.515v6.687h-.515z" style="fill:#262626;fill-opacity:1;stroke:none;stroke-width:1.25338;stroke-dasharray:none;stroke-opacity:1;paint-order:fill markers stroke;stop-color:#000" transform="matrix(0 1 1 0 0 0)"/><path d="M83.77 158.522h.516v9.71h-.516z" style="fill:#262626;fill-opacity:1;stroke:none;stroke-width:1.5104;stroke-dasharray:none;stroke-opacity:1;paint-order:fill markers stroke;stop-color:#000"/><path d="M82.25 158.442h.516v9.345h-.515z" style="fill:#262626;fill-opacity:1;stroke:none;stroke-width:1.48177;stroke-dasharray:none;stroke-opacity:1;paint-order:fill markers stroke;stop-color:#000"/><path d="M80.823 159.763h.515v6.687h-.515z" style="fill:#262626;fill-opacity:1;stroke:none;stroke-width:1.25338;stroke-dasharray:none;stroke-opacity:1;paint-order:fill markers stroke;stop-color:#000"/><path d="M-87.218 158.436h.515v9.71h-.515z" style="fill:#262626;fill-opacity:1;stroke:none;stroke-width:1.5104;stroke-dasharray:none;stroke-opacity:1;paint-order:fill markers stroke;stop-color:#000" transform="scale(-1 1)"/><path d="M-88.737 158.356h.515v9.345h-.515z" style="fill:#262626;fill-opacity:1;stroke:none;stroke-width:1.48177;stroke-dasharray:none;stroke-opacity:1;paint-order:fill markers stroke;stop-color:#000" transform="scale(-1 1)"/><path d="M-90.166 159.678h.516v6.686h-.516z" style="fill:#262626;fill-opacity:1;stroke:none;stroke-width:1.25338;stroke-dasharray:none;stroke-opacity:1;paint-order:fill markers stroke;stop-color:#000" transform="scale(-1 1)"/><path d="M76.33 171.123h59.677v1.725H76.33z" style="fill:#262626;fill-opacity:1;stroke:none;stroke-width:2.8729;stroke-dasharray:none;stroke-opacity:1;paint-order:fill markers stroke;stop-color:#000"/><rect width="16.899076" height="11.611925" x="93.951248" y="157.14339" ry="2.4825497" style="fill:#4f4f4f;fill-opacity:1;stroke:#262626;stroke-width:1.94379;stroke-dasharray:none;stroke-opacity:1;paint-order:fill markers stroke;stop-color:#000"/><rect width="16.899076" height="11.611925" x="114.49177" y="157.11301" ry="2.4825497" style="fill:#4f4f4f;fill-opacity:1;stroke:#262626;stroke-width:1.94379;stroke-dasharray:none;stroke-opacity:1;paint-order:fill markers stroke;stop-color:#000"/><path d="m100.456 165.259-2.097.607 1.55-2.066-3.404-.121 3.95-1.155-2.309-2.887 5.135 2.006 1.216-1.884.03 2.4 3.464-.547-2.522 2.765 1.124 2.28-3.585-1.429z" style="fill:#242424;fill-opacity:1;stroke:none;stroke-width:1.70521;stroke-dasharray:none;stroke-opacity:1;paint-order:fill markers stroke;stop-color:#000"/><g transform="translate(-29.447 49.382)"><rect width="3.8820899" height="3.6482289" x="108.68653" y="124.78606" ry="0.51449382" style="fill:gray;fill-opacity:1;stroke:none;stroke-width:1.856;stroke-dasharray:none;stroke-opacity:1;paint-order:fill markers stroke;stop-color:#000"/><rect width="3.8820899" height="3.6482289" x="113.85255" y="124.78316" ry="0.51449382" style="fill:gray;fill-opacity:1;stroke:none;stroke-width:1.856;stroke-dasharray:none;stroke-opacity:1;paint-order:fill markers stroke;stop-color:#000"/><rect width="3.8820899" height="3.6482289" x="108.69337" y="129.63606" ry="0.51449382" style="fill:gray;fill-opacity:1;stroke:none;stroke-width:1.856;stroke-dasharray:none;stroke-opacity:1;paint-order:fill markers stroke;stop-color:#000"/><rect width="3.8820899" height="3.6482289" x="113.85938" y="129.63316" ry="0.51449382" style="fill:gray;fill-opacity:1;stroke:none;stroke-width:1.856;stroke-dasharray:none;stroke-opacity:1;paint-order:fill markers stroke;stop-color:#000"/><rect width="3.8820899" height="3.6482289" x="108.69239" y="134.63161" ry="0.51449382" style="fill:gray;fill-opacity:1;stroke:none;stroke-width:1.856;stroke-dasharray:none;stroke-opacity:1;paint-order:fill markers stroke;stop-color:#000"/><rect width="3.8820899" height="3.6482289" x="113.85841" y="134.62871" ry="0.51449382" style="fill:gray;fill-opacity:1;stroke:none;stroke-width:1.856;stroke-dasharray:none;stroke-opacity:1;paint-order:fill markers stroke;stop-color:#000"/><rect width="3.8820899" height="3.6482289" x="108.69923" y="139.48161" ry="0.51449382" style="fill:gray;fill-opacity:1;stroke:none;stroke-width:1.856;stroke-dasharray:none;stroke-opacity:1;paint-order:fill markers stroke;stop-color:#000"/><rect width="3.8820899" height="3.6482289" x="113.86524" y="139.47871" ry="0.51449382" style="fill:gray;fill-opacity:1;stroke:none;stroke-width:1.856;stroke-dasharray:none;stroke-opacity:1;paint-order:fill markers stroke;stop-color:#000"/></g><g transform="translate(-29.296 48.766)"><circle cx="124.18377" cy="130.01192" r="2.3521895" style="fill:#595959;fill-opacity:1;stroke:none;stroke-width:2.6939;stroke-dasharray:none;stroke-opacity:1;paint-order:fill markers stroke;stop-color:#000"/><circle cx="124.21111" cy="139.25096" r="2.3521895" style="fill:#595959;fill-opacity:1;stroke:none;stroke-width:2.6939;stroke-dasharray:none;stroke-opacity:1;paint-order:fill markers stroke;stop-color:#000"/><circle cx="130.96989" cy="129.97755" r="2.3521895" style="fill:#595959;fill-opacity:1;stroke:none;stroke-width:2.6939;stroke-dasharray:none;stroke-opacity:1;paint-order:fill markers stroke;stop-color:#000"/><circle cx="130.99724" cy="139.2166" r="2.3521895" style="fill:#595959;fill-opacity:1;stroke:none;stroke-width:2.6939;stroke-dasharray:none;stroke-opacity:1;paint-order:fill markers stroke;stop-color:#000"/><rect width="1.7096574" height="6.4669652" x="123.2824" y="126.69946" ry="0.81766224" style="fill:#4d4d4d;fill-opacity:1;stroke:none;stroke-width:2.94966;stroke-dasharray:none;stroke-opacity:1;paint-order:fill markers stroke;stop-color:#000"/><rect width="1.7034749" height="6.4435792" x="92.093376" y="156.09758" ry="0.81470537" style="fill:#4d4d4d;fill-opacity:1;stroke:none;stroke-width:2.93899;stroke-dasharray:none;stroke-opacity:1;paint-order:fill markers stroke;stop-color:#000" transform="rotate(-15)"/><rect width="1.7096574" height="6.4669652" x="123.37957" y="135.99406" ry="0.81766224" style="fill:#737373;fill-opacity:1;stroke:none;stroke-width:2.94966;stroke-dasharray:none;stroke-opacity:1;paint-order:fill markers stroke;stop-color:#000"/><rect width="1.7096574" height="6.4669652" x="182.23213" y="51.78352" ry="0.81766224" style="fill:#737373;fill-opacity:1;stroke:none;stroke-width:2.94966;stroke-dasharray:none;stroke-opacity:1;paint-order:fill markers stroke;stop-color:#000" transform="rotate(30)"/></g><rect width="1.7305702" height="22.357096" x="89.454666" y="172.16031" ry="0.81470537" style="fill:#262626;fill-opacity:1;stroke:none;stroke-width:1.856;stroke-dasharray:none;stroke-opacity:1;paint-order:fill markers stroke;stop-color:#000"/><rect width="1.7305702" height="22.357096" x="105.40388" y="171.78113" ry="0.81470537" style="fill:#262626;fill-opacity:1;stroke:none;stroke-width:1.856;stroke-dasharray:none;stroke-opacity:1;paint-order:fill markers stroke;stop-color:#000"/><rect width="1.7305702" height="22.357096" x="121.74177" y="171.97954" ry="0.81470537" style="fill:#262626;fill-opacity:1;stroke:none;stroke-width:1.856;stroke-dasharray:none;stroke-opacity:1;paint-order:fill markers stroke;stop-color:#000"/><rect width="1.8241144" height="17.07184" x="110.128" y="174.73277" ry="0.81470537" style="fill:#333;fill-opacity:1;stroke:none;stroke-width:1.856;stroke-dasharray:none;stroke-opacity:1;paint-order:fill markers stroke;stop-color:#000"/><rect width="1.8241144" height="17.07184" x="116.83356" y="174.73184" ry="0.81470537" style="fill:#333;fill-opacity:1;stroke:none;stroke-width:1.856;stroke-dasharray:none;stroke-opacity:1;paint-order:fill markers stroke;stop-color:#000"/><rect width="5.9736252" height="1.6842848" x="108.06794" y="187.64003" ry="0.8421424" style="fill:gray;fill-opacity:1;stroke:none;stroke-width:2.08912;stroke-dasharray:none;stroke-opacity:1;paint-order:fill markers stroke;stop-color:#000"/><rect width="5.9736252" height="1.7774849" x="114.75349" y="181.98228" ry="0.88874245" style="fill:gray;fill-opacity:1;stroke:none;stroke-width:2.14615;stroke-dasharray:none;stroke-opacity:1;paint-order:fill markers stroke;stop-color:#000"/><circle cx="129.15533" cy="178.03178" r="2.778125" style="fill:#936c6c;fill-opacity:1;stroke:#3b2b2b;stroke-width:1;stroke-dasharray:none;stroke-opacity:1;paint-order:fill markers stroke;stop-color:#000"/><rect width="5.1449385" height="1.1693041" x="126.45023" y="-174.40271" ry="0.58465207" style="fill:#262626;fill-opacity:1;stroke:none;stroke-width:2.13421;stroke-dasharray:none;stroke-opacity:.8;paint-order:fill markers stroke;stop-color:#000" transform="scale(1 -1)"/><circle cx="129.15533" cy="187.64003" r="2.6789062" style="fill:#323232;fill-opacity:1;stroke:none;stroke-width:1;stroke-dasharray:none;stroke-opacity:.8;paint-order:fill markers stroke;stop-color:#000"/><circle cx="129.15533" cy="187.64003" r="1.8751253" style="fill:#4f4f4f;fill-opacity:1;stroke:none;stroke-width:.914463;stroke-dasharray:none;stroke-opacity:.8;paint-order:fill markers stroke;stop-color:#000"/><g style="paint-order:normal"><rect width="7.7232852" height="7.6463413" x="111.27836" y="-110.30116" rx="0" ry="0.41073114" style="display:inline;fill:#cecfcf;fill-opacity:.3;stroke:#949494;stroke-width:.877348;stroke-miterlimit:4;stroke-dasharray:none;stroke-opacity:.8;paint-order:normal" transform="matrix(1.03657 0 0 -.27058 9.787 146.094)"/></g></g></svg>