<svg xmlns="http://www.w3.org/2000/svg" width="39.836823mm" height="76.604408mm" viewBox="0 0 39.836823 76.604408"><path d="M198.129 161.272h59.385" style="fill:#171717;fill-opacity:1;fill-rule:evenodd;stroke:#262626;stroke-width:1.5875;stroke-linecap:round;stroke-linejoin:round;stroke-dasharray:none;stroke-opacity:1" transform="rotate(-90 53.02 213.29)"/><path d="M190.896 166.46h74.223v30.545h-74.223z" style="fill:#3c7033;fill-opacity:1;stroke:#11200e;stroke-width:2.38125;stroke-linecap:square;stroke-linejoin:round;stroke-miterlimit:5;stroke-dasharray:none;stroke-opacity:1" transform="rotate(-90 53.02 213.29)"/><path d="M194.09 164.549h67.86v34.368h-67.86z" style="fill:#3c7033;fill-opacity:1;stroke:#11200e;stroke-width:2.381;stroke-linecap:square;stroke-linejoin:round;stroke-miterlimit:5;stroke-dasharray:none;stroke-opacity:1" transform="rotate(-90 53.02 213.29)"/><path d="M197.047 164.152h30.925v32.02h-30.925Z" style="fill:#383838;stroke:#171717;stroke-width:1.5875;stroke-linecap:square;stroke-linejoin:round;stroke-miterlimit:5" transform="rotate(-90 53.02 213.29)"/><path d="M198.502 161.462h2.656v2.293h-2.656zm25.359 0h2.656v2.293h-2.656z" style="fill:#171717;fill-opacity:1;fill-rule:evenodd;stroke:#171717;stroke-width:2.38125;stroke-linecap:round;stroke-linejoin:round;stroke-dasharray:none;stroke-opacity:1" transform="rotate(-90 53.02 213.29)"/><path d="M199.98 169.2h4.487v24.407h-4.488zm9.51.082h4.488v24.406h-4.488zm9.511-.11h4.488v24.406h-4.488z" style="fill:#383838;fill-opacity:1;stroke:#262626;stroke-width:1.5875;stroke-linecap:square;stroke-linejoin:round;stroke-miterlimit:5;stroke-dasharray:none;stroke-opacity:1" transform="rotate(-90 51.998 213.537)"/><path d="M227.972 164.152h30.925v32.02h-30.925z" style="fill:#383838;stroke:#171717;stroke-width:1.5875;stroke-linecap:square;stroke-linejoin:round;stroke-miterlimit:5" transform="rotate(-90 53.02 213.29)"/><path d="M254.786 161.462h2.656v2.293h-2.656zm-25.359 0h2.656v2.293h-2.656z" style="fill:#171717;fill-opacity:1;fill-rule:evenodd;stroke:#171717;stroke-width:2.38125;stroke-linecap:round;stroke-linejoin:round;stroke-dasharray:none;stroke-opacity:1" transform="rotate(-90 53.02 213.29)"/><path d="M199.98 169.2h4.487v24.407h-4.488zm9.51.082h4.488v24.406h-4.488zm9.511-.11h4.488v24.406h-4.488z" style="fill:#383838;fill-opacity:1;stroke:#262626;stroke-width:1.5875;stroke-linecap:square;stroke-linejoin:round;stroke-miterlimit:5;stroke-dasharray:none;stroke-opacity:1" transform="rotate(-90 36.535 198.074)"/></svg>