<svg xmlns="http://www.w3.org/2000/svg" width="177" height="40" fill="none" viewBox="0 0 177 40"><path fill="#A0A0A0" d="M3.54 31.374 30.798 4.116l4.32 4.409L7.861 35.782zm22.937 0L53.735 4.116l4.32 4.409-27.257 27.257zm22.937 0L76.671 4.116l4.321 4.409-27.257 27.257zm22.936 0L99.609 4.116l4.321 4.409-27.258 27.257zm22.938 0 27.257-27.258 4.32 4.409-27.257 27.257zm22.936 0 27.258-27.258 4.32 4.409-27.257 27.257zm22.937 0 27.257-27.258 4.321 4.409-27.257 27.257z"/><path fill="#A0A0A0" d="m7.905 4.16 27.257 27.258-4.408 4.32L3.496 8.482zm22.937 0 27.257 27.258-4.408 4.32L26.433 8.482zm22.937 0 27.257 27.258-4.409 4.32L49.37 8.482zm22.936 0 27.258 27.258-4.409 4.32L72.307 8.482zm22.937 0 27.257 27.258-4.408 4.32L95.243 8.482zm22.937 0 27.257 27.258-4.408 4.32L118.18 8.482zm22.937 0 27.257 27.258-4.409 4.32-27.257-27.257z"/><path stroke="#828282" stroke-linecap="square" stroke-width="6.79997" d="M3.54 35.734h169.2V4.164H3.54z"/></svg>