<svg xmlns="http://www.w3.org/2000/svg" width="77.699646mm" height="40.063332mm" viewBox="0 0 77.699646 40.063331"><path d="M35.023 90.683h50.353v32.423H35.023z" style="fill:#6c6042;fill-opacity:1;stroke:#32271b;stroke-width:2.246;stroke-linecap:round;stroke-linejoin:round;stroke-opacity:1;stop-color:#000" transform="translate(-21.167 -87.363)"/><path d="M111.768 35.858h11.112v15.346h-11.112z" style="fill:#f3f3f3;fill-opacity:1;stroke:#999;stroke-width:1.2;stroke-linecap:round;stroke-linejoin:round;stroke-dasharray:none;stroke-opacity:1;stop-color:#000" transform="scale(1 -1)rotate(-89.985 33.11 54.268)"/><path d="M106.761 49.711h11.113v15.346H106.76zM85.578 78.826h11.113V94.17H85.578z" style="fill:#f3f3f3;fill-opacity:1;stroke:#999;stroke-width:1.2;stroke-linecap:round;stroke-linejoin:round;stroke-dasharray:none;stroke-opacity:1;stop-color:#000" transform="scale(-1 1)rotate(85.197 58.089 -32.172)"/><g transform="scale(-1 1)rotate(89.985 1265.063 -1554.016)"><path d="M2821.12-241.035h11.113v15.345h-11.113z" style="fill:#f3f3f3;fill-opacity:1;stroke:#999;stroke-width:1.2;stroke-linecap:round;stroke-linejoin:round;stroke-dasharray:none;stroke-opacity:1;stop-color:#000"/><rect width="4.3965836" height="0.60803813" x="2822.4814" y="-235.2327" rx="0.033072915" ry="0.033072915" style="fill:#999;fill-opacity:1;stroke:none;stroke-width:1.19372;stroke-linecap:round;stroke-linejoin:round;stroke-miterlimit:5;stroke-dasharray:none;stroke-opacity:1;paint-order:fill markers stroke"/><rect width="8.4189901" height="0.60803813" x="2822.4392" y="-233.99762" rx="0.033072915" ry="0.033072915" style="fill:#999;fill-opacity:1;stroke:none;stroke-width:1.19372;stroke-linecap:round;stroke-linejoin:round;stroke-miterlimit:5;stroke-dasharray:none;stroke-opacity:1;paint-order:fill markers stroke"/><rect width="8.4189901" height="0.60803813" x="2822.4392" y="-232.77393" rx="0.033072915" ry="0.033072915" style="fill:#999;fill-opacity:1;stroke:none;stroke-width:1.19372;stroke-linecap:round;stroke-linejoin:round;stroke-miterlimit:5;stroke-dasharray:none;stroke-opacity:1;paint-order:fill markers stroke"/><rect width="8.4189901" height="0.60803813" x="2822.4392" y="-231.51715" rx="0.033072915" ry="0.033072915" style="fill:#999;fill-opacity:1;stroke:none;stroke-width:1.19372;stroke-linecap:round;stroke-linejoin:round;stroke-miterlimit:5;stroke-dasharray:none;stroke-opacity:1;paint-order:fill markers stroke"/><rect width="8.5058308" height="0.60803813" x="2822.353" y="-230.20128" rx="0.033072911" ry="0.033072915" style="fill:#999;fill-opacity:1;stroke:none;stroke-width:1.19372;stroke-linecap:round;stroke-linejoin:round;stroke-miterlimit:5;stroke-dasharray:none;stroke-opacity:1;paint-order:fill markers stroke"/><rect width="4.4998493" height="0.60803813" x="2822.4402" y="-229.07292" rx="0.033072915" ry="0.033072915" style="fill:#999;fill-opacity:1;stroke:none;stroke-width:1.19372;stroke-linecap:round;stroke-linejoin:round;stroke-miterlimit:5;stroke-dasharray:none;stroke-opacity:1;paint-order:fill markers stroke"/><rect width="3.0385339" height="0.60803813" x="2827.6885" y="-229.08525" rx="0.033072919" ry="0.033072915" style="fill:#999;fill-opacity:1;stroke:none;stroke-width:1.19372;stroke-linecap:round;stroke-linejoin:round;stroke-miterlimit:5;stroke-dasharray:none;stroke-opacity:1;paint-order:fill markers stroke" transform="skewX(.004)"/></g><g transform="rotate(110.321 1178.156 -1247.222)"><path d="M2744.408-635.302h11.113v15.346h-11.113z" style="fill:#f3f3f3;fill-opacity:1;stroke:#999;stroke-width:1.2;stroke-linecap:round;stroke-linejoin:round;stroke-dasharray:none;stroke-opacity:1;stop-color:#000"/><rect width="4.3965836" height="0.60803813" x="2745.7517" y="-633.42792" rx="0.033072915" ry="0.033072915" style="fill:#999;fill-opacity:1;stroke:none;stroke-width:1.19372;stroke-linecap:round;stroke-linejoin:round;stroke-miterlimit:5;stroke-dasharray:none;stroke-opacity:1;paint-order:fill markers stroke"/><rect width="8.4189901" height="0.60803813" x="2745.7283" y="-631.95459" rx="0.033072915" ry="0.033072915" style="fill:#999;fill-opacity:1;stroke:none;stroke-width:1.19372;stroke-linecap:round;stroke-linejoin:round;stroke-miterlimit:5;stroke-dasharray:none;stroke-opacity:1;paint-order:fill markers stroke"/><rect width="3.4377539" height="0.60803813" x="2745.7266" y="-629.35724" rx="0.033072915" ry="0.033072915" style="fill:#999;fill-opacity:1;stroke:none;stroke-width:1.19372;stroke-linecap:round;stroke-linejoin:round;stroke-miterlimit:5;stroke-dasharray:none;stroke-opacity:1;paint-order:fill markers stroke"/><rect width="8.4189901" height="0.60803813" x="2745.7437" y="-630.66888" rx="0.033072915" ry="0.033072915" style="fill:#999;fill-opacity:1;stroke:none;stroke-width:1.19372;stroke-linecap:round;stroke-linejoin:round;stroke-miterlimit:5;stroke-dasharray:none;stroke-opacity:1;paint-order:fill markers stroke"/></g><g transform="translate(310.693 159.002)"><g transform="rotate(-179.607 -62.298 .37)scale(1.47987)"><rect width="5.8917327" height="9.525322" x="95.243782" y="82.555138" rx="0.17791069" ry="0.1915022" style="fill:none;fill-opacity:1;stroke:#0e272f;stroke-width:.925719;stroke-linecap:round;stroke-linejoin:round;stroke-miterlimit:4;stroke-dasharray:none;stroke-opacity:1"/><rect width="2.9439113" height="8.3537979" x="97.847466" y="83.144646" rx="0.17997548" ry="0.17023599" style="fill:#30839e;fill-opacity:1;stroke:#c8c8c8;stroke-width:.906619;stroke-linecap:round;stroke-linejoin:round;stroke-miterlimit:4;stroke-dasharray:none;stroke-opacity:1"/><rect width="5.8917327" height="9.5253229" x="94.572479" y="82.555138" rx="0.17879784" ry="0.17865342" style="fill:#30839e;fill-opacity:1;stroke:#13343f;stroke-width:.925719;stroke-linecap:round;stroke-linejoin:round;stroke-miterlimit:4;stroke-dasharray:none;stroke-opacity:1"/></g><rect width="2.112179" height="1.0061817" x="-267.42255" y="-126.06653" rx="0.033072915" ry="0.033072915" style="opacity:.985;fill:gray;fill-opacity:1;stroke:#4d4d4d;stroke-width:.634;stroke-linecap:round;stroke-linejoin:round;stroke-dasharray:none;stroke-opacity:1;stop-color:#000"/><rect width="2.112179" height="1.0061817" x="-267.42255" y="-134.64095" rx="0.033072915" ry="0.033072915" style="opacity:.985;fill:gray;fill-opacity:1;stroke:#4d4d4d;stroke-width:.634;stroke-linecap:round;stroke-linejoin:round;stroke-dasharray:none;stroke-opacity:1;stop-color:#000"/><rect width="2.2566941" height="4.5133882" x="-267.56412" y="-132.05498" rx="0.033072915" ry="0.033072915" style="opacity:.985;fill:#f3f3f3;fill-opacity:1;stroke:#999;stroke-width:.534;stroke-linecap:round;stroke-linejoin:round;stroke-dasharray:none;stroke-opacity:1;stop-color:#000"/><rect width="1.4304235" height="0.21799345" x="-267.19745" y="131.13069" rx="0.033072915" ry="0.033072915" style="fill:#999;fill-opacity:1;stroke:none;stroke-width:.407693;stroke-linecap:round;stroke-linejoin:round;stroke-miterlimit:5;stroke-dasharray:none;stroke-opacity:1;paint-order:fill markers stroke" transform="matrix(1 .0003 .00024 -1 0 0)"/><rect width="0.75198716" height="0.21799345" x="-267.18228" y="130.52757" rx="0.033072904" ry="0.033072915" style="fill:#999;fill-opacity:1;stroke:none;stroke-width:.295601;stroke-linecap:round;stroke-linejoin:round;stroke-miterlimit:5;stroke-dasharray:none;stroke-opacity:1;paint-order:fill markers stroke" transform="matrix(1 .00056 .00013 -1 0 0)"/><rect width="1.3890646" height="0.21799345" x="-267.1958" y="128.02504" rx="0.0330729" ry="0.033072911" style="fill:#999;fill-opacity:1;stroke:none;stroke-width:.401756;stroke-linecap:round;stroke-linejoin:round;stroke-miterlimit:5;stroke-dasharray:none;stroke-opacity:1;paint-order:fill markers stroke" transform="matrix(1 .0003 .00024 -1 0 0)"/><rect width="1.3890646" height="0.21799345" x="-267.19589" y="128.37241" rx="0.0330729" ry="0.033072911" style="fill:#999;fill-opacity:1;stroke:none;stroke-width:.401756;stroke-linecap:round;stroke-linejoin:round;stroke-miterlimit:5;stroke-dasharray:none;stroke-opacity:1;paint-order:fill markers stroke" transform="matrix(1 .0003 .00024 -1 0 0)"/><rect width="1.3890646" height="0.21799345" x="-267.19598" y="128.71977" rx="0.0330729" ry="0.033072911" style="fill:#999;fill-opacity:1;stroke:none;stroke-width:.401756;stroke-linecap:round;stroke-linejoin:round;stroke-miterlimit:5;stroke-dasharray:none;stroke-opacity:1;paint-order:fill markers stroke" transform="matrix(1 .0003 .00024 -1 0 0)"/></g><path d="M109.128 47.47h11.113v15.346h-11.113z" style="fill:#f3f3f3;fill-opacity:1;stroke:#999;stroke-width:1.2;stroke-linecap:round;stroke-linejoin:round;stroke-dasharray:none;stroke-opacity:1;stop-color:#000" transform="scale(-1 1)rotate(85.197 58.089 -32.172)"/><g transform="rotate(90 -178.72 82.81)"><g transform="rotate(-179.607 -54.091 .342)scale(1.47987)"><rect width="5.8917327" height="9.525322" x="95.243782" y="82.555138" rx="0.17791069" ry="0.1915022" style="fill:none;fill-opacity:1;stroke:#35271c;stroke-width:.925719;stroke-linecap:round;stroke-linejoin:round;stroke-miterlimit:4;stroke-dasharray:none;stroke-opacity:1"/><rect width="2.9439113" height="8.3537979" x="97.847466" y="83.144646" rx="0.17997548" ry="0.17023599" style="fill:#30839e;fill-opacity:1;stroke:#c8c8c8;stroke-width:.906619;stroke-linecap:round;stroke-linejoin:round;stroke-miterlimit:4;stroke-dasharray:none;stroke-opacity:1"/><rect width="5.8917327" height="9.5253229" x="94.572479" y="82.555138" rx="0.17879784" ry="0.17865342" style="fill:#ab7f60;fill-opacity:1;stroke:#453225;stroke-width:.925719;stroke-linecap:round;stroke-linejoin:round;stroke-miterlimit:4;stroke-dasharray:none;stroke-opacity:1"/></g><rect width="2.112179" height="1.0061817" x="-251.00938" y="-126.06653" rx="0.033072915" ry="0.033072915" style="opacity:.985;fill:gray;fill-opacity:1;stroke:#4d4d4d;stroke-width:.634;stroke-linecap:round;stroke-linejoin:round;stroke-dasharray:none;stroke-opacity:1;stop-color:#000"/><rect width="2.112179" height="1.0061817" x="-251.00938" y="-134.64095" rx="0.033072915" ry="0.033072915" style="opacity:.985;fill:gray;fill-opacity:1;stroke:#4d4d4d;stroke-width:.634;stroke-linecap:round;stroke-linejoin:round;stroke-dasharray:none;stroke-opacity:1;stop-color:#000"/><rect width="2.2566941" height="4.5133882" x="-251.15096" y="-132.05498" rx="0.033072915" ry="0.033072915" style="opacity:.985;fill:#f3f3f3;fill-opacity:1;stroke:#999;stroke-width:.534;stroke-linecap:round;stroke-linejoin:round;stroke-dasharray:none;stroke-opacity:1;stop-color:#000"/><rect width="1.1349117" height="0.21799345" x="-250.61267" y="131.11632" rx="0.033072915" ry="0.033072915" style="fill:#999;fill-opacity:1;stroke:none;stroke-width:.363147;stroke-linecap:round;stroke-linejoin:round;stroke-miterlimit:5;stroke-dasharray:none;stroke-opacity:1;paint-order:fill markers stroke" transform="matrix(1 .00037 .0002 -1 0 0)"/><rect width="0.75198716" height="0.21799345" x="-250.72272" y="127.83494" rx="0.033072904" ry="0.033072915" style="fill:#999;fill-opacity:1;stroke:none;stroke-width:.295601;stroke-linecap:round;stroke-linejoin:round;stroke-miterlimit:5;stroke-dasharray:none;stroke-opacity:1;paint-order:fill markers stroke" transform="matrix(1 .00056 .00013 -1 0 0)"/><rect width="1.3890646" height="0.21799345" x="-250.76387" y="129.81082" rx="0.0330729" ry="0.033072911" style="fill:#999;fill-opacity:1;stroke:none;stroke-width:.401756;stroke-linecap:round;stroke-linejoin:round;stroke-miterlimit:5;stroke-dasharray:none;stroke-opacity:1;paint-order:fill markers stroke" transform="matrix(1 .0003 .00024 -1 0 0)"/><rect width="1.3890646" height="0.21799345" x="-250.76396" y="130.15819" rx="0.0330729" ry="0.033072911" style="fill:#999;fill-opacity:1;stroke:none;stroke-width:.401756;stroke-linecap:round;stroke-linejoin:round;stroke-miterlimit:5;stroke-dasharray:none;stroke-opacity:1;paint-order:fill markers stroke" transform="matrix(1 .0003 .00024 -1 0 0)"/><rect width="1.3890646" height="0.21799345" x="-250.76405" y="130.50555" rx="0.0330729" ry="0.033072911" style="fill:#999;fill-opacity:1;stroke:none;stroke-width:.401756;stroke-linecap:round;stroke-linejoin:round;stroke-miterlimit:5;stroke-dasharray:none;stroke-opacity:1;paint-order:fill markers stroke" transform="matrix(1 .0003 .00024 -1 0 0)"/></g><g transform="translate(308.803 158.458)"><g transform="rotate(-179.607 -54.091 .342)scale(1.47987)"><rect width="5.8917327" height="9.525322" x="95.243782" y="82.555138" rx="0.17791069" ry="0.1915022" style="fill:none;fill-opacity:1;stroke:#35271c;stroke-width:.925719;stroke-linecap:round;stroke-linejoin:round;stroke-miterlimit:4;stroke-dasharray:none;stroke-opacity:1"/><rect width="2.9439113" height="8.3537979" x="97.847466" y="83.144646" rx="0.17997548" ry="0.17023599" style="fill:#30839e;fill-opacity:1;stroke:#c8c8c8;stroke-width:.906619;stroke-linecap:round;stroke-linejoin:round;stroke-miterlimit:4;stroke-dasharray:none;stroke-opacity:1"/><rect width="5.8917327" height="9.5253229" x="94.572479" y="82.555138" rx="0.17879784" ry="0.17865342" style="fill:#ab7f60;fill-opacity:1;stroke:#453225;stroke-width:.925719;stroke-linecap:round;stroke-linejoin:round;stroke-miterlimit:4;stroke-dasharray:none;stroke-opacity:1"/></g><rect width="2.112179" height="1.0061817" x="-251.00938" y="-126.06653" rx="0.033072915" ry="0.033072915" style="opacity:.985;fill:gray;fill-opacity:1;stroke:#4d4d4d;stroke-width:.634;stroke-linecap:round;stroke-linejoin:round;stroke-dasharray:none;stroke-opacity:1;stop-color:#000"/><rect width="2.112179" height="1.0061817" x="-251.00938" y="-134.64095" rx="0.033072915" ry="0.033072915" style="opacity:.985;fill:gray;fill-opacity:1;stroke:#4d4d4d;stroke-width:.634;stroke-linecap:round;stroke-linejoin:round;stroke-dasharray:none;stroke-opacity:1;stop-color:#000"/><rect width="2.2566941" height="4.5133882" x="-251.15096" y="-132.05498" rx="0.033072915" ry="0.033072915" style="opacity:.985;fill:#f3f3f3;fill-opacity:1;stroke:#999;stroke-width:.534;stroke-linecap:round;stroke-linejoin:round;stroke-dasharray:none;stroke-opacity:1;stop-color:#000"/><rect width="1.1349117" height="0.21799345" x="-250.61267" y="131.11632" rx="0.033072915" ry="0.033072915" style="fill:#999;fill-opacity:1;stroke:none;stroke-width:.363147;stroke-linecap:round;stroke-linejoin:round;stroke-miterlimit:5;stroke-dasharray:none;stroke-opacity:1;paint-order:fill markers stroke" transform="matrix(1 .00037 .0002 -1 0 0)"/><rect width="0.75198716" height="0.21799345" x="-250.72272" y="127.83494" rx="0.033072904" ry="0.033072915" style="fill:#999;fill-opacity:1;stroke:none;stroke-width:.295601;stroke-linecap:round;stroke-linejoin:round;stroke-miterlimit:5;stroke-dasharray:none;stroke-opacity:1;paint-order:fill markers stroke" transform="matrix(1 .00056 .00013 -1 0 0)"/><rect width="1.3890646" height="0.21799345" x="-250.76387" y="129.81082" rx="0.0330729" ry="0.033072911" style="fill:#999;fill-opacity:1;stroke:none;stroke-width:.401756;stroke-linecap:round;stroke-linejoin:round;stroke-miterlimit:5;stroke-dasharray:none;stroke-opacity:1;paint-order:fill markers stroke" transform="matrix(1 .0003 .00024 -1 0 0)"/><rect width="1.3890646" height="0.21799345" x="-250.76396" y="130.15819" rx="0.0330729" ry="0.033072911" style="fill:#999;fill-opacity:1;stroke:none;stroke-width:.401756;stroke-linecap:round;stroke-linejoin:round;stroke-miterlimit:5;stroke-dasharray:none;stroke-opacity:1;paint-order:fill markers stroke" transform="matrix(1 .0003 .00024 -1 0 0)"/><rect width="1.3890646" height="0.21799345" x="-250.76405" y="130.50555" rx="0.0330729" ry="0.033072911" style="fill:#999;fill-opacity:1;stroke:none;stroke-width:.401756;stroke-linecap:round;stroke-linejoin:round;stroke-miterlimit:5;stroke-dasharray:none;stroke-opacity:1;paint-order:fill markers stroke" transform="matrix(1 .0003 .00024 -1 0 0)"/></g><g transform="translate(295.022 159.405)"><g transform="rotate(-179.607 -54.091 .342)scale(1.47987)"><rect width="5.8917327" height="9.525322" x="95.243782" y="82.555138" rx="0.17791069" ry="0.1915022" style="fill:none;fill-opacity:1;stroke:#35271c;stroke-width:.925719;stroke-linecap:round;stroke-linejoin:round;stroke-miterlimit:4;stroke-dasharray:none;stroke-opacity:1"/><rect width="2.9439113" height="8.3537979" x="97.847466" y="83.144646" rx="0.17997548" ry="0.17023599" style="fill:#30839e;fill-opacity:1;stroke:#c8c8c8;stroke-width:.906619;stroke-linecap:round;stroke-linejoin:round;stroke-miterlimit:4;stroke-dasharray:none;stroke-opacity:1"/><rect width="5.8917327" height="9.5253229" x="94.572479" y="82.555138" rx="0.17879784" ry="0.17865342" style="fill:#ab7f60;fill-opacity:1;stroke:#453225;stroke-width:.925719;stroke-linecap:round;stroke-linejoin:round;stroke-miterlimit:4;stroke-dasharray:none;stroke-opacity:1"/></g><rect width="2.112179" height="1.0061817" x="-251.00938" y="-126.06653" rx="0.033072915" ry="0.033072915" style="opacity:.985;fill:gray;fill-opacity:1;stroke:#4d4d4d;stroke-width:.634;stroke-linecap:round;stroke-linejoin:round;stroke-dasharray:none;stroke-opacity:1;stop-color:#000"/><rect width="2.112179" height="1.0061817" x="-251.00938" y="-134.64095" rx="0.033072915" ry="0.033072915" style="opacity:.985;fill:gray;fill-opacity:1;stroke:#4d4d4d;stroke-width:.634;stroke-linecap:round;stroke-linejoin:round;stroke-dasharray:none;stroke-opacity:1;stop-color:#000"/><rect width="2.2566941" height="4.5133882" x="-251.15096" y="-132.05498" rx="0.033072915" ry="0.033072915" style="opacity:.985;fill:#f3f3f3;fill-opacity:1;stroke:#999;stroke-width:.534;stroke-linecap:round;stroke-linejoin:round;stroke-dasharray:none;stroke-opacity:1;stop-color:#000"/><rect width="1.1349117" height="0.21799345" x="-250.61267" y="131.11632" rx="0.033072915" ry="0.033072915" style="fill:#999;fill-opacity:1;stroke:none;stroke-width:.363147;stroke-linecap:round;stroke-linejoin:round;stroke-miterlimit:5;stroke-dasharray:none;stroke-opacity:1;paint-order:fill markers stroke" transform="matrix(1 .00037 .0002 -1 0 0)"/><rect width="0.75198716" height="0.21799345" x="-250.72272" y="127.83494" rx="0.033072904" ry="0.033072915" style="fill:#999;fill-opacity:1;stroke:none;stroke-width:.295601;stroke-linecap:round;stroke-linejoin:round;stroke-miterlimit:5;stroke-dasharray:none;stroke-opacity:1;paint-order:fill markers stroke" transform="matrix(1 .00056 .00013 -1 0 0)"/><rect width="1.3890646" height="0.21799345" x="-250.76387" y="129.81082" rx="0.0330729" ry="0.033072911" style="fill:#999;fill-opacity:1;stroke:none;stroke-width:.401756;stroke-linecap:round;stroke-linejoin:round;stroke-miterlimit:5;stroke-dasharray:none;stroke-opacity:1;paint-order:fill markers stroke" transform="matrix(1 .0003 .00024 -1 0 0)"/><rect width="1.3890646" height="0.21799345" x="-250.76396" y="130.15819" rx="0.0330729" ry="0.033072911" style="fill:#999;fill-opacity:1;stroke:none;stroke-width:.401756;stroke-linecap:round;stroke-linejoin:round;stroke-miterlimit:5;stroke-dasharray:none;stroke-opacity:1;paint-order:fill markers stroke" transform="matrix(1 .0003 .00024 -1 0 0)"/><rect width="1.3890646" height="0.21799345" x="-250.76405" y="130.50555" rx="0.0330729" ry="0.033072911" style="fill:#999;fill-opacity:1;stroke:none;stroke-width:.401756;stroke-linecap:round;stroke-linejoin:round;stroke-miterlimit:5;stroke-dasharray:none;stroke-opacity:1;paint-order:fill markers stroke" transform="matrix(1 .0003 .00024 -1 0 0)"/></g><g transform="translate(293.951 158.972)"><rect width="8.7190075" height="14.096252" x="232.97807" y="121.22101" rx="0.26328495" ry="0.28339866" style="fill:none;fill-opacity:1;stroke:#371616;stroke-width:1.36995;stroke-linecap:round;stroke-linejoin:round;stroke-miterlimit:4;stroke-dasharray:none;stroke-opacity:1" transform="rotate(-179.599)"/><rect width="4.3566108" height="12.362548" x="236.83118" y="122.09341" rx="0.26634058" ry="0.25192741" style="fill:#30839e;fill-opacity:1;stroke:#c8c8c8;stroke-width:1.34168;stroke-linecap:round;stroke-linejoin:round;stroke-miterlimit:4;stroke-dasharray:none;stroke-opacity:1" transform="rotate(-179.599)"/><rect width="8.7190075" height="14.096254" x="231.98462" y="121.22101" rx="0.26459783" ry="0.26438412" style="fill:#ce3d3d;fill-opacity:1;stroke:#4d1d1d;stroke-width:1.36995;stroke-linecap:round;stroke-linejoin:round;stroke-miterlimit:4;stroke-dasharray:none;stroke-opacity:1" transform="rotate(-179.599)"/><rect width="2.112179" height="1.0061817" x="-234.85944" y="-126.06653" rx="0.033072915" ry="0.033072915" style="opacity:.985;fill:gray;fill-opacity:1;stroke:#4d4d4d;stroke-width:.634;stroke-linecap:round;stroke-linejoin:round;stroke-dasharray:none;stroke-opacity:1;stop-color:#000"/><rect width="2.112179" height="1.0061817" x="-234.85944" y="-134.64095" rx="0.033072915" ry="0.033072915" style="opacity:.985;fill:gray;fill-opacity:1;stroke:#4d4d4d;stroke-width:.634;stroke-linecap:round;stroke-linejoin:round;stroke-dasharray:none;stroke-opacity:1;stop-color:#000"/><rect width="2.2566941" height="4.5133882" x="-235.00101" y="-132.05498" rx="0.033072915" ry="0.033072915" style="opacity:.985;fill:#f3f3f3;fill-opacity:1;stroke:#999;stroke-width:.534;stroke-linecap:round;stroke-linejoin:round;stroke-dasharray:none;stroke-opacity:1;stop-color:#000"/><rect width="0.97458047" height="0.21799345" x="-234.60477" y="129.78539" rx="0.0330729" ry="0.033072911" style="fill:#999;fill-opacity:1;stroke:none;stroke-width:.336519;stroke-linecap:round;stroke-linejoin:round;stroke-miterlimit:5;stroke-dasharray:none;stroke-opacity:1;paint-order:fill markers stroke" transform="matrix(1 .00043 .00017 -1 0 0)"/><rect width="1.212525" height="0.21799345" x="-234.61011" y="130.15271" rx="0.0330729" ry="0.033072911" style="fill:#999;fill-opacity:1;stroke:none;stroke-width:.375359;stroke-linecap:round;stroke-linejoin:round;stroke-miterlimit:5;stroke-dasharray:none;stroke-opacity:1;paint-order:fill markers stroke" transform="matrix(1 .00035 .0002 -1 0 0)"/><rect width="1.3890646" height="0.21799345" x="-234.61411" y="130.51047" rx="0.0330729" ry="0.033072911" style="fill:#999;fill-opacity:1;stroke:none;stroke-width:.401756;stroke-linecap:round;stroke-linejoin:round;stroke-miterlimit:5;stroke-dasharray:none;stroke-opacity:1;paint-order:fill markers stroke" transform="matrix(1 .0003 .00024 -1 0 0)"/><rect width="1.3890646" height="0.21799345" x="-234.6142" y="130.88658" rx="0.0330729" ry="0.033072911" style="fill:#999;fill-opacity:1;stroke:none;stroke-width:.401756;stroke-linecap:round;stroke-linejoin:round;stroke-miterlimit:5;stroke-dasharray:none;stroke-opacity:1;paint-order:fill markers stroke" transform="matrix(1 .0003 .00024 -1 0 0)"/><rect width="1.3890646" height="0.21799345" x="-234.61429" y="131.27037" rx="0.0330729" ry="0.033072911" style="fill:#999;fill-opacity:1;stroke:none;stroke-width:.401756;stroke-linecap:round;stroke-linejoin:round;stroke-miterlimit:5;stroke-dasharray:none;stroke-opacity:1;paint-order:fill markers stroke" transform="matrix(1 .0003 .00024 -1 0 0)"/><rect width="1.3890646" height="0.21799345" x="-234.61357" y="128.24609" rx="0.0330729" ry="0.033072911" style="fill:#999;fill-opacity:1;stroke:none;stroke-width:.401756;stroke-linecap:round;stroke-linejoin:round;stroke-miterlimit:5;stroke-dasharray:none;stroke-opacity:1;paint-order:fill markers stroke" transform="matrix(1 .0003 .00024 -1 0 0)"/></g><path d="M28.01 113.136c.54 0 .975-.435.975-.974a.97.97 0 0 0-.975-.974h-4.43v-8.67h4.431a.972.972 0 1 0 0-1.948h-5.456c-.517.024-.924.41-.924.888v10.788c0 .477.407.864.924.888h.05zm64.013-12.566a.97.97 0 0 0-.975.975c0 .54.435.973.975.973h4.431v8.67h-4.431a.97.97 0 0 0-.975.974c0 .54.435.974.975.974h5.456c.517-.024.924-.41.924-.888V101.46c0-.477-.407-.864-.924-.888h-.05z" style="display:inline;fill:gray;fill-opacity:1;stroke:#2e2e2e;stroke-width:.926039;stroke-miterlimit:4;stroke-dasharray:none;stroke-opacity:1" transform="translate(-21.167 -87.363)"/><g transform="rotate(180 -124.644 -59.284)"><g transform="rotate(-179.607 -62.298 .37)scale(1.47987)"><rect width="5.8917327" height="9.525322" x="95.243782" y="82.555138" rx="0.17791069" ry="0.1915022" style="fill:none;fill-opacity:1;stroke:#0e272f;stroke-width:.925719;stroke-linecap:round;stroke-linejoin:round;stroke-miterlimit:4;stroke-dasharray:none;stroke-opacity:1"/><rect width="2.9439113" height="8.3537979" x="97.847466" y="83.144646" rx="0.17997548" ry="0.17023599" style="fill:#30839e;fill-opacity:1;stroke:#c8c8c8;stroke-width:.906619;stroke-linecap:round;stroke-linejoin:round;stroke-miterlimit:4;stroke-dasharray:none;stroke-opacity:1"/><rect width="5.8917327" height="9.5253229" x="94.572479" y="82.555138" rx="0.17879784" ry="0.17865342" style="fill:#30839e;fill-opacity:1;stroke:#13343f;stroke-width:.925719;stroke-linecap:round;stroke-linejoin:round;stroke-miterlimit:4;stroke-dasharray:none;stroke-opacity:1"/></g><rect width="2.112179" height="1.0061817" x="-267.42255" y="-126.06653" rx="0.033072915" ry="0.033072915" style="opacity:.985;fill:gray;fill-opacity:1;stroke:#4d4d4d;stroke-width:.634;stroke-linecap:round;stroke-linejoin:round;stroke-dasharray:none;stroke-opacity:1;stop-color:#000"/><rect width="2.112179" height="1.0061817" x="-267.42255" y="-134.64095" rx="0.033072915" ry="0.033072915" style="opacity:.985;fill:gray;fill-opacity:1;stroke:#4d4d4d;stroke-width:.634;stroke-linecap:round;stroke-linejoin:round;stroke-dasharray:none;stroke-opacity:1;stop-color:#000"/><rect width="2.2566941" height="4.5133882" x="-267.56412" y="-132.05498" rx="0.033072915" ry="0.033072915" style="opacity:.985;fill:#f3f3f3;fill-opacity:1;stroke:#999;stroke-width:.534;stroke-linecap:round;stroke-linejoin:round;stroke-dasharray:none;stroke-opacity:1;stop-color:#000"/><rect width="1.4304235" height="0.21799345" x="-267.19745" y="131.13069" rx="0.033072915" ry="0.033072915" style="fill:#999;fill-opacity:1;stroke:none;stroke-width:.407693;stroke-linecap:round;stroke-linejoin:round;stroke-miterlimit:5;stroke-dasharray:none;stroke-opacity:1;paint-order:fill markers stroke" transform="matrix(1 .0003 .00024 -1 0 0)"/><rect width="0.75198716" height="0.21799345" x="-267.18228" y="130.52757" rx="0.033072904" ry="0.033072915" style="fill:#999;fill-opacity:1;stroke:none;stroke-width:.295601;stroke-linecap:round;stroke-linejoin:round;stroke-miterlimit:5;stroke-dasharray:none;stroke-opacity:1;paint-order:fill markers stroke" transform="matrix(1 .00056 .00013 -1 0 0)"/><rect width="1.3890646" height="0.21799345" x="-267.1958" y="128.02504" rx="0.0330729" ry="0.033072911" style="fill:#999;fill-opacity:1;stroke:none;stroke-width:.401756;stroke-linecap:round;stroke-linejoin:round;stroke-miterlimit:5;stroke-dasharray:none;stroke-opacity:1;paint-order:fill markers stroke" transform="matrix(1 .0003 .00024 -1 0 0)"/><rect width="1.3890646" height="0.21799345" x="-267.19589" y="128.37241" rx="0.0330729" ry="0.033072911" style="fill:#999;fill-opacity:1;stroke:none;stroke-width:.401756;stroke-linecap:round;stroke-linejoin:round;stroke-miterlimit:5;stroke-dasharray:none;stroke-opacity:1;paint-order:fill markers stroke" transform="matrix(1 .0003 .00024 -1 0 0)"/><rect width="1.3890646" height="0.21799345" x="-267.19598" y="128.71977" rx="0.0330729" ry="0.033072911" style="fill:#999;fill-opacity:1;stroke:none;stroke-width:.401756;stroke-linecap:round;stroke-linejoin:round;stroke-miterlimit:5;stroke-dasharray:none;stroke-opacity:1;paint-order:fill markers stroke" transform="matrix(1 .0003 .00024 -1 0 0)"/></g><path d="M30.605 88.486a2.253 2.253 0 0 0-2.258 2.258v33.301a2.253 2.253 0 0 0 2.258 2.259 2.253 2.253 0 0 0 2.258-2.259v-14.747H87.22v14.747a2.253 2.253 0 0 0 2.258 2.259 2.254 2.254 0 0 0 2.258-2.259V90.744a2.253 2.253 0 0 0-2.258-2.258 2.253 2.253 0 0 0-2.258 2.258v13.574H32.863V90.744a2.253 2.253 0 0 0-2.258-2.258" style="fill:#404040;fill-opacity:1;stroke:#1a1a1a;stroke-width:2.246;stroke-linecap:round;stroke-linejoin:round;stroke-opacity:1;stop-color:#000" transform="translate(-21.167 -87.363)"/><g transform="rotate(90 -186.808 90.073)"><g transform="rotate(-179.607 -62.298 .37)scale(1.47987)"><rect width="5.8917327" height="9.525322" x="95.243782" y="82.555138" rx="0.17791069" ry="0.1915022" style="fill:none;fill-opacity:1;stroke:#0e272f;stroke-width:.925719;stroke-linecap:round;stroke-linejoin:round;stroke-miterlimit:4;stroke-dasharray:none;stroke-opacity:1"/><rect width="2.9439113" height="8.3537979" x="97.847466" y="83.144646" rx="0.17997548" ry="0.17023599" style="fill:#30839e;fill-opacity:1;stroke:#c8c8c8;stroke-width:.906619;stroke-linecap:round;stroke-linejoin:round;stroke-miterlimit:4;stroke-dasharray:none;stroke-opacity:1"/><rect width="5.8917327" height="9.5253229" x="94.572479" y="82.555138" rx="0.17879784" ry="0.17865342" style="fill:#30839e;fill-opacity:1;stroke:#13343f;stroke-width:.925719;stroke-linecap:round;stroke-linejoin:round;stroke-miterlimit:4;stroke-dasharray:none;stroke-opacity:1"/></g><rect width="2.112179" height="1.0061817" x="-267.42255" y="-126.06653" rx="0.033072915" ry="0.033072915" style="opacity:.985;fill:gray;fill-opacity:1;stroke:#4d4d4d;stroke-width:.634;stroke-linecap:round;stroke-linejoin:round;stroke-dasharray:none;stroke-opacity:1;stop-color:#000"/><rect width="2.112179" height="1.0061817" x="-267.42255" y="-134.64095" rx="0.033072915" ry="0.033072915" style="opacity:.985;fill:gray;fill-opacity:1;stroke:#4d4d4d;stroke-width:.634;stroke-linecap:round;stroke-linejoin:round;stroke-dasharray:none;stroke-opacity:1;stop-color:#000"/><rect width="2.2566941" height="4.5133882" x="-267.56412" y="-132.05498" rx="0.033072915" ry="0.033072915" style="opacity:.985;fill:#f3f3f3;fill-opacity:1;stroke:#999;stroke-width:.534;stroke-linecap:round;stroke-linejoin:round;stroke-dasharray:none;stroke-opacity:1;stop-color:#000"/><rect width="1.4304235" height="0.21799345" x="-267.19745" y="131.13069" rx="0.033072915" ry="0.033072915" style="fill:#999;fill-opacity:1;stroke:none;stroke-width:.407693;stroke-linecap:round;stroke-linejoin:round;stroke-miterlimit:5;stroke-dasharray:none;stroke-opacity:1;paint-order:fill markers stroke" transform="matrix(1 .0003 .00024 -1 0 0)"/><rect width="0.75198716" height="0.21799345" x="-267.18228" y="130.52757" rx="0.033072904" ry="0.033072915" style="fill:#999;fill-opacity:1;stroke:none;stroke-width:.295601;stroke-linecap:round;stroke-linejoin:round;stroke-miterlimit:5;stroke-dasharray:none;stroke-opacity:1;paint-order:fill markers stroke" transform="matrix(1 .00056 .00013 -1 0 0)"/><rect width="1.3890646" height="0.21799345" x="-267.1958" y="128.02504" rx="0.0330729" ry="0.033072911" style="fill:#999;fill-opacity:1;stroke:none;stroke-width:.401756;stroke-linecap:round;stroke-linejoin:round;stroke-miterlimit:5;stroke-dasharray:none;stroke-opacity:1;paint-order:fill markers stroke" transform="matrix(1 .0003 .00024 -1 0 0)"/><rect width="1.3890646" height="0.21799345" x="-267.19589" y="128.37241" rx="0.0330729" ry="0.033072911" style="fill:#999;fill-opacity:1;stroke:none;stroke-width:.401756;stroke-linecap:round;stroke-linejoin:round;stroke-miterlimit:5;stroke-dasharray:none;stroke-opacity:1;paint-order:fill markers stroke" transform="matrix(1 .0003 .00024 -1 0 0)"/><rect width="1.3890646" height="0.21799345" x="-267.19598" y="128.71977" rx="0.0330729" ry="0.033072911" style="fill:#999;fill-opacity:1;stroke:none;stroke-width:.401756;stroke-linecap:round;stroke-linejoin:round;stroke-miterlimit:5;stroke-dasharray:none;stroke-opacity:1;paint-order:fill markers stroke" transform="matrix(1 .0003 .00024 -1 0 0)"/></g></svg>