<svg xmlns="http://www.w3.org/2000/svg" width="34.957478mm" height="38.049023mm" viewBox="0 0 34.957478 38.049023"><g style="stroke-width:1.0527"><path d="M379.837 519.31c-.568 0-1.026.458-1.026 1.026s.458 1.025 1.026 1.025h4.665v9.128h-4.665c-.568 0-1.026.457-1.026 1.025s.458 1.026 1.026 1.026h5.743c.544-.025.973-.432.973-.935v-11.358c0-.502-.43-.91-.973-.935h-.053z" style="display:inline;fill:gray;fill-opacity:1;stroke:#2e2e2e;stroke-width:.974841;stroke-miterlimit:4;stroke-dasharray:none;stroke-opacity:1" transform="matrix(0 .95006 -.94981 0 516.959 -329.664)"/><g style="stroke-width:1.0527" transform="matrix(0 .95006 -.94981 0 2760.899 -1513.22)"><g style="stroke-width:1.0527"><rect width="33.520153" height="34.256107" x="48.708656" y="58.154305" rx="2.9364145" ry="2.9322169" style="fill:#7f714d;fill-opacity:1;stroke:#32271b;stroke-width:2.45596;stroke-dasharray:none;stroke-opacity:1" transform="matrix(-1 -.00335 0 -1 1676.212 2963.881)"/></g><circle cx="1624.049" cy="2874.7344" r="1.1373528" style="fill:gray;fill-opacity:1;stroke:#2e2e2e;stroke-width:.723912;stroke-linecap:round;stroke-linejoin:round;stroke-opacity:1"/><rect width="31.188677" height="22.820312" x="1595.1523" y="2877.1453" rx="0" ry="0" style="opacity:.15;fill:#000;fill-opacity:1;fill-rule:evenodd;stroke:none;stroke-width:3.55171;stroke-linecap:round;stroke-dasharray:none;stroke-opacity:1;paint-order:stroke fill markers;stop-color:#000"/><rect width="0.9321962" height="11.22103" x="1623.9094" y="2882.8787" rx="0" ry="0" style="fill:#8c8c8c;fill-opacity:1;fill-rule:evenodd;stroke:#404040;stroke-width:2.1054;stroke-linecap:round;stroke-dasharray:none;stroke-opacity:1;paint-order:stroke fill markers;stop-color:#000"/><circle cx="1597.4823" cy="2874.7344" r="1.1373528" style="fill:gray;fill-opacity:1;stroke:#2e2e2e;stroke-width:.723912;stroke-linecap:round;stroke-linejoin:round;stroke-opacity:1"/><circle cx="1624.049" cy="2902.251" r="1.1373528" style="fill:gray;fill-opacity:1;stroke:#2e2e2e;stroke-width:.723912;stroke-linecap:round;stroke-linejoin:round;stroke-opacity:1"/><circle cx="1597.4823" cy="2902.251" r="1.1373528" style="fill:gray;fill-opacity:1;stroke:#2e2e2e;stroke-width:.723912;stroke-linecap:round;stroke-linejoin:round;stroke-opacity:1"/><rect width="2.1749058" height="0.32740518" x="1596.4224" y="2874.5486" rx="0.18674643" ry="0.18647948" style="fill:#2e2e2e;fill-opacity:1;fill-rule:evenodd;stroke:none;stroke-width:3.38307;stroke-linecap:round;stroke-dasharray:none;stroke-opacity:1;paint-order:stroke fill markers;stop-color:#000"/><rect width="2.1749058" height="0.32740518" x="-496.97836" y="3264.1328" rx="0.1866447" ry="0.18658103" style="fill:#2e2e2e;fill-opacity:1;fill-rule:evenodd;stroke:none;stroke-width:3.38307;stroke-linecap:round;stroke-dasharray:none;stroke-opacity:1;paint-order:stroke fill markers;stop-color:#000" transform="rotate(-38.102)"/><rect width="2.1749058" height="0.32740518" x="2810.751" y="-1751.8821" rx="0.18648027" ry="0.18674564" style="fill:#2e2e2e;fill-opacity:1;fill-rule:evenodd;stroke:none;stroke-width:3.38307;stroke-linecap:round;stroke-dasharray:none;stroke-opacity:1;paint-order:stroke fill markers;stop-color:#000" transform="rotate(93.092)"/><rect width="2.1749058" height="0.32740518" x="-317.90988" y="-3310.769" rx="0.18670303" ry="0.18652277" style="fill:#2e2e2e;fill-opacity:1;fill-rule:evenodd;stroke:none;stroke-width:3.38307;stroke-linecap:round;stroke-dasharray:none;stroke-opacity:1;paint-order:stroke fill markers;stop-color:#000" transform="rotate(156.236)"/><rect width="2.1749058" height="0.32740518" x="-1752.8066" y="-2812.0188" rx="0.18674566" ry="0.18648024" style="fill:#2e2e2e;fill-opacity:1;fill-rule:evenodd;stroke:none;stroke-width:3.38307;stroke-linecap:round;stroke-dasharray:none;stroke-opacity:1;paint-order:stroke fill markers;stop-color:#000" transform="rotate(-176.908)"/><rect width="2.1749058" height="0.32740518" x="-3311.6794" y="316.62845" rx="0.18652278" ry="0.18670301" style="fill:#2e2e2e;fill-opacity:1;fill-rule:evenodd;stroke:none;stroke-width:3.38307;stroke-linecap:round;stroke-dasharray:none;stroke-opacity:1;paint-order:stroke fill markers;stop-color:#000" transform="rotate(-113.764)"/><rect width="2.1749058" height="0.32740518" x="2873.6248" y="-1597.6559" rx="0.18647949" ry="0.18674642" style="fill:#2e2e2e;fill-opacity:1;fill-rule:evenodd;stroke:none;stroke-width:3.38307;stroke-linecap:round;stroke-dasharray:none;stroke-opacity:1;paint-order:stroke fill markers;stop-color:#000" transform="rotate(90)"/><rect width="2.1749058" height="0.32740518" x="-3265.384" y="-496.05463" rx="0.18658103" ry="0.18664469" style="fill:#2e2e2e;fill-opacity:1;fill-rule:evenodd;stroke:none;stroke-width:3.38307;stroke-linecap:round;stroke-dasharray:none;stroke-opacity:1;paint-order:stroke fill markers;stop-color:#000" transform="rotate(-128.102)"/></g></g></svg>