<svg xmlns="http://www.w3.org/2000/svg" xml:space="preserve" width="125" height="125" viewBox="0 0 33.072916 33.072916"><rect width="31.088446" height="31.088446" x="0.992235" y="0.992235" rx="2.2548132" ry="2.2548132" style="opacity:1;fill:#212226;fill-opacity:1;stroke:#040404;stroke-width:1.98447;stroke-linecap:square;stroke-linejoin:bevel;stroke-miterlimit:10;stroke-dasharray:none;stroke-opacity:1"/><path d="M16.536 7.27q-.711.001-1.398.095l-.587 1.753a8.5 8.5 0 0 0-2.524 1.045l-1.653-.824a10.3 10.3 0 0 0-1.978 1.978l.825 1.653a8.5 8.5 0 0 0-1.045 2.524l-1.753.586a10.3 10.3 0 0 0 0 2.797l1.753.586c.214.906.57 1.756 1.045 2.525l-.825 1.653c.481.634 1.036 1.21 1.65 1.717q.076-.141.144-.289a21 21 0 0 0 .652-1.64c.09-.24.148-.488.215-.735l.132-.492.057-.173a6.978 6.978 0 1 1 10.271.336c.089.29.177.581.272.87a47 47 0 0 1 .67 2.264l.24.12a10.3 10.3 0 0 0 1.978-1.978l-.825-1.653c.475-.77.831-1.62 1.045-2.525l1.753-.586a10.3 10.3 0 0 0 0-2.797l-1.753-.586a8.6 8.6 0 0 0-1.045-2.524l.825-1.653a10.3 10.3 0 0 0-1.979-1.978l-1.653.824a8.5 8.5 0 0 0-2.524-1.045l-.586-1.753a10 10 0 0 0-1.399-.096z" style="fill:#80808c;fill-opacity:1;stroke:#404046;stroke-width:.450957;stroke-dasharray:none;stroke-opacity:1"/><path d="M16.73 12.241c-.03.003-.067.024-.11.074-.088.1-.204.313-.362.648-.158.336-.358.794-.545 1.222-.187.43-.361.83-.497 1.136-.135.306-.232.519-.319.735a12 12 0 0 0-.235.645q-.106.316-.197.596c-.061.187-.12.361-.164.5s-.078.242-.062.355c.017.113.081.235.14.38.057.145.109.313.115.445a.4.4 0 0 1-.093.3.7.7 0 0 1-.239.161c-.093.045-.197.09-.284.152a1 1 0 0 0-.222.226 1.4 1.4 0 0 0-.168.293.75.75 0 0 0-.068.335c.01.104.062.187.146.255s.2.12.296.207c.097.087.174.21.174.322s-.077.216-.177.316-.223.197-.335.284-.217.164-.31.255q-.141.136-.248.303a3 3 0 0 0-.178.332c-.048.106-.087.203-.138.319s-.116.252-.171.37c-.055.12-.1.223-.148.343-.049.119-.1.254-.168.39-.068.135-.152.27-.216.387-.065.116-.11.213-.155.306q-.067.14-.135.274a.9.9 0 0 0-.104.29c-.013.11.007.24.113.3.107.062.3.055.552.033.251-.023.56-.062.841-.088s.532-.038.723-.058c.19-.019.319-.045.512-.09.194-.045.452-.11.623-.2a.7.7 0 0 0 .325-.358c.071-.151.13-.338.187-.503.058-.164.116-.306.18-.46.065-.156.136-.323.181-.459.046-.135.065-.238.133-.322a.53.53 0 0 1 .625-.13.5.5 0 0 1 .213.2c.048.085.074.181.142.31.068.13.177.29.277.474s.19.39.284.58c.094.191.19.365.306.488.117.122.252.193.445.258.194.064.445.122.662.167.216.045.396.078.631.113.236.036.526.074.745.103.22.03.368.049.507.042.138-.006.267-.039.31-.084.041-.045-.004-.103-.078-.293s-.178-.513-.316-.919c-.139-.406-.313-.897-.436-1.296-.122-.4-.193-.71-.248-.942a3 3 0 0 0-.142-.496.8.8 0 0 0-.193-.262 2 2 0 0 0-.335-.277c-.133-.08-.281-.132-.404-.187-.122-.055-.219-.113-.254-.18-.036-.068-.01-.146.058-.243.067-.096.177-.212.264-.322a.67.67 0 0 0 .168-.358 1.7 1.7 0 0 0-.033-.426c-.016-.093-.016-.093-.045-.132a1.4 1.4 0 0 0-.145-.17.6.6 0 0 0-.235-.133c-.12-.045-.3-.103-.394-.187-.093-.084-.1-.193-.09-.3a.5.5 0 0 1 .1-.287c.065-.077.168-.129.226-.203s.07-.17-.016-.477-.274-.822-.461-1.387a55 55 0 0 1-.523-1.68c-.148-.503-.258-.896-.348-1.215q-.133-.48-.22-.736c-.057-.17-.102-.267-.154-.322-.026-.027-.053-.044-.085-.042" style="fill:#80808c;fill-opacity:1;stroke:#404046;stroke-width:.461363;stroke-linecap:round;stroke-linejoin:round;stroke-miterlimit:10;stroke-dasharray:none;stroke-opacity:1"/></svg>