<svg xmlns="http://www.w3.org/2000/svg" width="201.48338" height="161.92081" viewBox="0 0 53.309145 42.841547"><g transform="translate(-5.027 -127.53)"><path d="M50.729 138.55h3.607v17.974H50.73z" style="fill:#343434;fill-opacity:1;stroke:#1f1f1f;stroke-width:1.89335;stroke-linecap:round;stroke-linejoin:round;stroke-opacity:1;stop-color:#000"/><path d="M-166.472 9.567h3.635V26.87h-3.635z" style="fill:#343434;fill-opacity:1;stroke:#1f1f1f;stroke-width:1.86504;stroke-linecap:round;stroke-linejoin:round;stroke-opacity:1;stop-color:#000" transform="rotate(-90)"/><path d="M42.336 131.393h4.547v35.347h-4.547zm-11.255-.073h4.548v35.346H31.08z" style="fill:#474747;fill-opacity:1;stroke:#1f1f1f;stroke-width:2;stroke-linecap:round;stroke-linejoin:round;stroke-dasharray:none;stroke-opacity:1;stop-color:#000"/><path d="M24.333 132.79h7.37v28.24h-7.37z" style="fill:#343434;fill-opacity:1;stroke:#1f1f1f;stroke-width:2;stroke-linecap:round;stroke-linejoin:round;stroke-dasharray:none;stroke-opacity:1;stop-color:#000"/><path d="M6.277 130.048h50.81v37.99H6.276z" style="fill:none;fill-opacity:1;stroke:#1f1f1f;stroke-width:2.5;stroke-linecap:round;stroke-linejoin:round;stroke-dasharray:none;stroke-opacity:1;stop-color:#000"/><path d="M-131.161 7.73h2.877v47.597h-2.877z" style="fill:#474747;fill-opacity:1;stroke:#1f1f1f;stroke-width:1.5105;stroke-linecap:round;stroke-linejoin:round;stroke-dasharray:none;stroke-opacity:1;stop-color:#000" transform="rotate(-90)"/><path d="M9.09 130.347h18.286v33.569H9.09zm21.519.001h18.285v33.569H30.61z" style="fill:#d83e3e;fill-opacity:1;stroke:#410c0c;stroke-width:2.2285;stroke-linecap:round;stroke-linejoin:round;stroke-opacity:1;stop-color:#000"/><path d="M-141.877 34.997h4.658v9.605h-4.658z" style="fill:#b3b3b3;fill-opacity:1;stroke:#410c0c;stroke-width:1.5;stroke-linecap:round;stroke-linejoin:round;stroke-dasharray:none;stroke-opacity:1;stop-color:#000" transform="rotate(-90)"/><path d="M-162.86 31.718h3.555v16.068h-3.555z" style="fill:#bf2626;fill-opacity:1;stroke:none;stroke-width:1.01761;stroke-linecap:round;stroke-linejoin:round;stroke-dasharray:none;stroke-opacity:1;stop-color:#000" transform="rotate(-90)"/><circle cx="138.8763" cy="83.619705" r="0.5795337" style="fill:#181818;fill-opacity:1;stroke:none;stroke-width:3.67788;stroke-linecap:round;stroke-linejoin:round;stroke-miterlimit:4;stroke-dasharray:none;stroke-opacity:1" transform="rotate(54.93)"/><circle cx="146.79597" cy="72.345291" r="0.5795337" style="fill:#181818;fill-opacity:1;stroke:none;stroke-width:3.67788;stroke-linecap:round;stroke-linejoin:round;stroke-miterlimit:4;stroke-dasharray:none;stroke-opacity:1" transform="rotate(54.93)"/><circle cx="115.06844" cy="66.906815" r="0.5795337" style="fill:#181818;fill-opacity:1;stroke:none;stroke-width:3.67788;stroke-linecap:round;stroke-linejoin:round;stroke-miterlimit:4;stroke-dasharray:none;stroke-opacity:1" transform="rotate(54.93)"/><circle cx="122.98812" cy="55.632401" r="0.5795337" style="fill:#181818;fill-opacity:1;stroke:none;stroke-width:3.67788;stroke-linecap:round;stroke-linejoin:round;stroke-miterlimit:4;stroke-dasharray:none;stroke-opacity:1" transform="rotate(54.93)"/><circle cx="151.222" cy="66.000076" r="0.5795337" style="fill:#181818;fill-opacity:1;stroke:none;stroke-width:3.67788;stroke-linecap:round;stroke-linejoin:round;stroke-miterlimit:4;stroke-dasharray:none;stroke-opacity:1" transform="rotate(54.93)"/><circle cx="159.14168" cy="54.725662" r="0.5795337" style="fill:#181818;fill-opacity:1;stroke:none;stroke-width:3.67788;stroke-linecap:round;stroke-linejoin:round;stroke-miterlimit:4;stroke-dasharray:none;stroke-opacity:1" transform="rotate(54.93)"/><circle cx="127.41415" cy="49.287186" r="0.5795337" style="fill:#181818;fill-opacity:1;stroke:none;stroke-width:3.67788;stroke-linecap:round;stroke-linejoin:round;stroke-miterlimit:4;stroke-dasharray:none;stroke-opacity:1" transform="rotate(54.93)"/><circle cx="135.33382" cy="38.012772" r="0.5795337" style="fill:#181818;fill-opacity:1;stroke:none;stroke-width:3.67788;stroke-linecap:round;stroke-linejoin:round;stroke-miterlimit:4;stroke-dasharray:none;stroke-opacity:1" transform="rotate(54.93)"/><path d="M-169.615 7.748h2.876v47.598h-2.876z" style="fill:#474747;fill-opacity:1;stroke:#1f1f1f;stroke-width:1.5105;stroke-linecap:round;stroke-linejoin:round;stroke-dasharray:none;stroke-opacity:1;stop-color:#000" transform="rotate(-90)"/><path d="M16.066 131.462h4.64v31.345h-4.64z" style="fill:#bf2626;fill-opacity:1;stroke:none;stroke-width:1.62379;stroke-linecap:round;stroke-linejoin:round;stroke-dasharray:none;stroke-opacity:1;stop-color:#000"/><path d="M50.93 146.814h3.308v1.24h-3.307zm.102 4.409h3.307v1.24h-3.307zm-.127-8.698h3.307v1.24h-3.307z" style="fill:#1f1f1f;fill-opacity:1;stroke:none;stroke-width:2.5;stroke-linecap:round;stroke-linejoin:round;stroke-dasharray:none;stroke-opacity:1;stop-color:#000"/><circle cx="18.350853" cy="146.82881" r="2.4592845" style="fill:#5b5b5b;fill-opacity:1;stroke:#1f1f1f;stroke-width:1.07398;stroke-linecap:round;stroke-linejoin:round;stroke-dasharray:none;stroke-opacity:1;stop-color:#000"/><path d="M-44.251 134.522h4.595v.294h-4.595z" style="fill:#5b5b5b;fill-opacity:1;stroke:#1f1f1f;stroke-width:1.07162;stroke-linecap:round;stroke-linejoin:round;stroke-dasharray:none;stroke-opacity:1;stop-color:#000" transform="matrix(.83363 -.55232 .39653 .91802 0 0)"/><path d="M33.31 152.343h.103v4.238h-.104zm2.038.004h.104v4.237h-.104zm2.09-.001h.103v4.238h-.103zm2.039.004h.103v4.237h-.103zm-6.164-7.171h.103v4.237h-.103zm2.039.003h.103v4.238h-.103zm2.089 0h.104v4.237h-.104zm2.039.003h.104v4.238h-.104z" style="fill:#5b5b5b;fill-opacity:1;stroke:#1f1f1f;stroke-width:1.5;stroke-linecap:round;stroke-linejoin:round;stroke-dasharray:none;stroke-opacity:1;stop-color:#000"/></g></svg>