<svg xmlns="http://www.w3.org/2000/svg" xml:space="preserve" width="91.796532" height="91.796524" viewBox="0 0 24.287833 24.28783"><rect width="22.898762" height="22.898762" x="0.6945343" y="0.69453782" rx="0" ry="0" style="fill:#af7a53;fill-opacity:1;fill-rule:nonzero;stroke:none;stroke-width:1.38907;stroke-linecap:round;stroke-linejoin:round;stroke-miterlimit:4;stroke-dasharray:none;stroke-dashoffset:0;stroke-opacity:1;paint-order:normal"/><path d="M4.445.766v22.635" style="fill:none;stroke:#342318;stroke-width:1.38102;stroke-linecap:round;stroke-linejoin:round;stroke-miterlimit:4;stroke-dasharray:none;stroke-opacity:1;paint-order:normal"/><rect width="22.898762" height="22.898762" x="0.6945343" y="0.69453782" rx="0" ry="0" style="fill:none;fill-opacity:1;fill-rule:nonzero;stroke:#342318;stroke-width:1.38907;stroke-linecap:round;stroke-linejoin:round;stroke-miterlimit:4;stroke-dasharray:none;stroke-dashoffset:0;stroke-opacity:1;paint-order:normal"/><path d="M19.678.911v22.657" style="fill:none;stroke:#342318;stroke-width:1.38169;stroke-linecap:round;stroke-linejoin:round;stroke-miterlimit:4;stroke-dasharray:none;stroke-opacity:1;paint-order:normal"/><path d="M5.11 4.498h14.152M5.086 19.732h14.108" style="fill:none;stroke:#342318;stroke-width:1.382;stroke-linecap:round;stroke-linejoin:round;stroke-miterlimit:4;stroke-dasharray:none;stroke-opacity:1;paint-order:normal"/><g transform="translate(.288 .383)"><path d="M3.824 15.001h1.555v.635H3.824z" style="fill:#e2cec0;fill-opacity:1;fill-rule:evenodd;stroke:none;stroke-width:0;stroke-linecap:round;stroke-linejoin:round;stroke-dasharray:none;stroke-opacity:1" transform="matrix(.86686 -.49856 .50144 .8652 0 0)"/><path d="m10.729 10.774-.505.29-.412 1.065.542 2.686-.858.141-.667-3.178.856-1.756-.095-.693 1.262-.726.672.608v.24l.481.561z" style="fill:#e2cec0;fill-opacity:1;fill-rule:evenodd;stroke:none;stroke-width:0;stroke-linecap:round;stroke-linejoin:round;stroke-dasharray:none;stroke-opacity:1"/><ellipse cx="4.6666145" cy="17.817051" rx="2.4937539" ry="2.4889669" style="fill:#e2cec0;fill-opacity:1;fill-rule:evenodd;stroke:none;stroke-width:0;stroke-linecap:round;stroke-linejoin:round;stroke-dasharray:none;stroke-opacity:1" transform="matrix(.86686 -.49856 .50144 .8652 0 0)"/><path d="m10.833 14.338 4.294-2.47" style="fill:none;fill-opacity:.697324;fill-rule:evenodd;stroke:#af7a53;stroke-width:.318391;stroke-linecap:round;stroke-linejoin:round;stroke-dasharray:none;stroke-opacity:1"/><ellipse cx="2.7750192" cy="14.506399" rx="1.1755668" ry="1.17331" style="fill:none;fill-opacity:1;fill-rule:evenodd;stroke:#e2cec0;stroke-width:.53636;stroke-linecap:round;stroke-linejoin:round;stroke-dasharray:none;stroke-opacity:1" transform="matrix(.86686 -.49856 .50144 .8652 0 0)"/><ellipse cx="5.5876837" cy="13.145464" rx="0.64209259" ry="0.64085972" style="fill:#e2cec0;fill-opacity:1;fill-rule:evenodd;stroke:none;stroke-width:0;stroke-linecap:round;stroke-linejoin:round;stroke-dasharray:none;stroke-opacity:1" transform="matrix(.86686 -.49856 .50144 .8652 0 0)"/></g><path d="m15.009 6.3 6.114-2.122.012.91.558.733-6.114 2.123.095-.965zM3.283 16.447l5.771 2.93-.646.639-.141.911-5.771-2.93.76-.6z" style="fill:#e2cec0;fill-opacity:1;fill-rule:nonzero;stroke:#342418;stroke-width:2.08359;stroke-linecap:round;stroke-linejoin:round;stroke-miterlimit:4;stroke-dasharray:none;stroke-dashoffset:0;stroke-opacity:1;paint-order:stroke fill markers"/></svg>