<svg xmlns="http://www.w3.org/2000/svg" width="40.500034mm" height="39.283775mm" viewBox="0 0 40.500034 39.283775"><g style="stroke-width:1.0576" transform="matrix(.94557 0 0 .9455 -2484.228 329.72)"><rect width="3.9026043" height="3.9026043" x="2602.4023" y="614.05225" rx="0" ry="0" style="fill:#404040;fill-opacity:1;stroke:#1a1a1a;stroke-width:1.5864;stroke-linecap:round;stroke-linejoin:round;stroke-dasharray:none;stroke-opacity:1;stop-color:#000" transform="rotate(-19.97)"/><rect width="3.9026043" height="3.9026043" x="2637.6018" y="-312.4798" rx="0" ry="0" style="fill:#404040;fill-opacity:1;stroke:#1a1a1a;stroke-width:1.5864;stroke-linecap:round;stroke-linejoin:round;stroke-dasharray:none;stroke-opacity:1;stop-color:#000"/><rect width="3.9026043" height="3.9026043" x="2685.6387" y="-11.816184" rx="0" ry="0" style="fill:#404040;fill-opacity:1;stroke:#1a1a1a;stroke-width:1.5864;stroke-linecap:round;stroke-linejoin:round;stroke-dasharray:none;stroke-opacity:1;stop-color:#000" transform="rotate(-6.872)"/><rect width="3.9026043" height="3.9026043" x="831.07739" y="2536.2957" rx="0" ry="0" style="fill:#404040;fill-opacity:1;stroke:#1a1a1a;stroke-width:1.5864;stroke-linecap:round;stroke-linejoin:round;stroke-dasharray:none;stroke-opacity:1;stop-color:#000" transform="rotate(-79.265)"/><rect width="3.9026043" height="3.9026043" x="2180.4995" y="1503.9847" rx="0" ry="0" style="fill:#404040;fill-opacity:1;stroke:#1a1a1a;stroke-width:1.5864;stroke-linecap:round;stroke-linejoin:round;stroke-dasharray:none;stroke-opacity:1;stop-color:#000" transform="rotate(-41.79)"/><path d="M2648.875-345.859a1.25 1.25 0 0 0-1.253 1.253v16.102l-15.415-4.13a1.25 1.25 0 0 0-1.535.886 1.25 1.25 0 0 0 .886 1.536l15.43 4.134-7.972 13.805a1.25 1.25 0 0 0 .459 1.712 1.25 1.25 0 0 0 1.712-.46l7.733-13.392 7.733 13.393a1.25 1.25 0 0 0 1.712.459 1.25 1.25 0 0 0 .459-1.712l-7.972-13.807 15.425-4.133a1.25 1.25 0 0 0 .886-1.535 1.25 1.25 0 0 0-1.535-.886l-15.5 4.153v-16.125a1.25 1.25 0 0 0-1.253-1.253" style="fill:#666;fill-opacity:1;stroke:#303030;stroke-width:1.5864;stroke-linecap:round;stroke-linejoin:round;stroke-dasharray:none;stroke-opacity:1;stop-color:#000"/><circle cx="2649.0688" cy="-327.25378" r="3.5388024" style="fill:#666;fill-opacity:1;stroke:#303030;stroke-width:1.5864;stroke-linecap:round;stroke-linejoin:round;stroke-dasharray:none;stroke-opacity:1;stop-color:#000"/><g style="stroke-width:1.0576" transform="translate(-42.843 6.267)"><rect width="24.695704" height="24.695704" x="2678.8408" y="-344.62512" rx="13.058664" ry="2.8333182" style="fill:#616161;fill-opacity:1;stroke:#2b2b2b;stroke-width:1.5864;stroke-linecap:round;stroke-linejoin:round;stroke-dasharray:none;stroke-opacity:1;stop-color:#000"/><g style="stroke-width:1.0576"><rect width="2.9765627" height="13.530412" x="2675.8584" y="-338.55469" rx="13.058663" ry="1.72031" style="fill:#404040;fill-opacity:1;stroke:#1a1a1a;stroke-width:1.5864;stroke-linecap:round;stroke-linejoin:round;stroke-dasharray:none;stroke-opacity:1;stop-color:#000"/><rect width="2.9765627" height="13.530412" x="2703.5735" y="-338.55469" rx="13.058663" ry="1.72031" style="fill:#404040;fill-opacity:1;stroke:#1a1a1a;stroke-width:1.5864;stroke-linecap:round;stroke-linejoin:round;stroke-dasharray:none;stroke-opacity:1;stop-color:#000"/></g><g style="stroke-width:1.0576"><rect width="29.184456" height="7.1009111" x="2676.6016" y="-348.52774" rx="9.0014095" ry="1.5041186" style="fill:#616161;fill-opacity:1;stroke:#2b2b2b;stroke-width:1.5864;stroke-linecap:round;stroke-linejoin:round;stroke-dasharray:none;stroke-opacity:1;stop-color:#000"/><path d="M2677.337-344.448v1.37c0 .32 4.341.997 9.733.997h8.432c5.392 0 9.579-.695 9.579-.996v-1.37z" style="fill:#525252;fill-opacity:1;stroke:none;stroke-width:1.5864;stroke-linecap:round;stroke-linejoin:round;stroke-dasharray:none;stroke-opacity:1;stop-color:#000"/></g></g></g></svg>