<svg xmlns="http://www.w3.org/2000/svg" xml:space="preserve" width="166.75543" height="74.569763" viewBox="0 0 44.120707 19.729917"><g transform="rotate(-90.089 4745.41 6902.07)"><rect width="44.117683" height="5.2916665" x="-2211.47" y="11649.465" rx="1.6536459" ry="1.6536026" style="display:inline;fill:#302412;fill-opacity:1;stroke-width:.0565795" transform="rotate(-90)"/><g transform="rotate(-90 6910.29 -4744.467)"><rect width="4.1367345" height="15.491096" x="-42.472992" y="-19.68218" rx="1.6536459" ry="1.6536459" style="display:inline;fill:#302412;fill-opacity:1;stroke-width:.158334"/><rect width="2.284677" height="3.1010845" x="-41.546993" y="-18.755951" rx="0.72760415" ry="0.72760415" style="display:inline;fill:#785a2e;fill-opacity:1;stroke-width:.0526471"/><rect width="2.284677" height="3.8055022" x="-41.546963" y="-9.6092453" rx="0.72760415" ry="0.73984098" style="display:inline;fill:#785a2e;fill-opacity:1;stroke-width:.0583208"/></g><g transform="rotate(-90 6911.308 -4743.448)"><rect width="4.2434621" height="15.466866" x="-23.673359" y="-19.667952" rx="1.6536459" ry="1.6536459" style="display:inline;fill:#302412;fill-opacity:1;stroke-width:.160238"/><rect width="2.284677" height="3.1010845" x="-22.693966" y="-18.755951" rx="0.72760415" ry="0.72760415" style="display:inline;fill:#785a2e;fill-opacity:1;stroke-width:.0526471"/><rect width="2.284677" height="3.8054049" x="-22.693966" y="-9.6091967" rx="0.73109031" ry="0.72760415" style="display:inline;fill:#785a2e;fill-opacity:1;stroke-width:.0583201"/></g><rect width="41.736435" height="2.9104166" x="-2210.2795" y="11650.655" rx="0.46302083" ry="0.46302083" style="display:inline;fill:#785a2e;fill-opacity:1;stroke-width:.0585354" transform="rotate(-90)"/><g transform="rotate(-90 6911.963 -4742.793)"><rect width="4.3501897" height="15.384368" x="-5.7073793" y="-19.67123" rx="1.6536459" ry="1.6536459" style="display:inline;fill:#302412;fill-opacity:1;stroke-width:.161807"/><rect width="2.284677" height="3.8054049" x="-4.674623" y="-9.6091967" rx="0.85204089" ry="0.72760415" style="display:inline;fill:#785a2e;fill-opacity:1;stroke-width:.0583201"/><rect width="2.284677" height="3.1010845" x="-4.674623" y="-18.755951" rx="0.72760415" ry="0.72760415" style="display:inline;fill:#785a2e;fill-opacity:1;stroke-width:.0526471"/></g></g><g style="stroke-width:.922065" transform="matrix(.28535 -.00044 .00045 .28855 5.031 10.069)"><path d="M98.03 4.2h5.1c.2 0 .3.4.3.9v7.6c0 .5-.2.9-.3.9h-5.1z" class="cls-1" style="fill:#3d3b38;fill-rule:evenodd;stroke:#191615;stroke-width:3px;stroke-linecap:round;stroke-miterlimit:3.87"/><path d="M98.02 4.02c0-.81-.3-1.51-.6-1.51H64.73v13.1h32.69c.3 0 .6-.71.6-1.51z" class="cls-9" style="letter-spacing:-.02em;fill:#43403d;fill-rule:evenodd;stroke:#191615;stroke-width:3px;stroke-linecap:square;stroke-miterlimit:3.87"/><path d="M117.83 5.9c0 .4-.6.8-1.4.8s-1.4-.3-1.4-.8c0-.4.6-.8 1.4-.8s1.4.3 1.4.8zm-1.4 4.8c.83 0 1.45-.73 1.45-1.66s-.62-1.66-1.45-1.66-1.45.73-1.45 1.66.62 1.66 1.45 1.66zm1.4 1.3c0 .4-.6.8-1.4.8s-1.4-.3-1.4-.8c0-.4.6-.8 1.4-.8s1.4.4 1.4.8z" class="cls-8" style="font-size:12px;font-family:MyriadPro-Regular,&quot;Myriad Pro&quot;;fill:none;stroke:#191615;stroke-width:3px;stroke-linecap:round;stroke-miterlimit:3.87"/><path d="M118.33 4.4h-6.1l-1.1.4h-46.4v8.3h46.4l1.1.4h6.1c.2 0 .3-.4.3-.9V5.2c0-.4-.1-.8-.3-.8zm-.5 1.5c0 .4-.6.8-1.4.8s-1.4-.3-1.4-.8c0-.4.6-.8 1.4-.8s1.4.3 1.4.8zm-1.4 4.6c.8 0 1.4-.7 1.4-1.6s-.6-1.6-1.4-1.6-1.4.7-1.4 1.6.6 1.6 1.4 1.6zm0 2.3c.8 0 1.4-.3 1.4-.8 0-.4-.6-.8-1.4-.8s-1.4.3-1.4.8c0 .4.6.8 1.4.8z" class="cls-10" style="fill:#3b3835;fill-rule:evenodd;stroke:#191919;stroke-width:1.5px;stroke-linecap:round;stroke-miterlimit:3.87"/><path d="M1.5 5.06c0-.66.3-1.23.6-1.23h1.01v10.35H2.1c-.3 0-.6-.58-.6-1.23z" class="cls-3" style="fill:#413b35;fill-rule:evenodd;stroke:#191615;stroke-width:3px;stroke-linecap:round;stroke-miterlimit:3.87"/><path d="M3.15 3.82H5v10.36H3.15z" class="cls-4" style="fill:#433d37;stroke:#191615;stroke-width:3px;stroke-linecap:square;stroke-miterlimit:7.47"/><path d="M4.83 3.82h30.03v10.35H4.83z" class="cls-2" style="fill:#49423b;stroke:#191615;stroke-width:3px;stroke-linecap:square;stroke-miterlimit:7.47"/><path d="M7.65 3.82h21.36v10.35H7.65z" class="cls-5" style="fill:#464039;stroke:#191615;stroke-width:3px;stroke-linecap:square;stroke-miterlimit:7.47"/><path d="M40.73 2.2h-5.8c-.1 0-.2.3-.2.6V15c0 .3.1.6.2.6h5.8c.1 0 .2-.3.2-.6V2.8c0-.3-.1-.6-.2-.6z" class="cls-6" style="fill:#5a524a;fill-rule:evenodd;stroke:#191615;stroke-width:3px;stroke-linecap:round;stroke-miterlimit:7.47"/><path d="M40.63 1.5h23.9c.1 0 .2.3.2.6v13.7c0 .3-.1.6-.2.6-8.71-.12-16.12-.03-23.9 0-.1 0-.2-.3-.2-.6V2.1c0-.3.1-.6.2-.6z" class="cls-7" style="fill:#4b4744;fill-rule:evenodd;stroke:#191615;stroke-width:3px;stroke-linecap:round;stroke-miterlimit:7.47"/><rect width="18.4" height="8.3000002" x="45.029999" y="4.8000002" class="cls-12" rx="0.5377931" ry="0.53181899" style="fill:#3e3b38;stroke-width:.922065"/><path d="M47.23 4.8h1.9v8.3h-1.9zm3.8 0h2v8.3h-2zm3.9 0h2.2v8.3h-2.2zm4.17 0h1.92v8.3H59.1z" class="cls-13" style="fill:#6e6963;stroke-width:.922065"/><path d="M62.63 4.8h.8v8.3h-.8z" class="cls-14" style="fill:#484541;stroke-width:.922065"/><path d="M105.93 7.6h4.8v2.81h-4.8z" class="cls-15" style="fill:#2e2b29;stroke-width:.922065"/><path d="M107.25 8.3h2.12v1.4h-2.12z" class="cls-11" style="fill:#d92f2f;stroke-width:.922065"/><path d="M105.93 6.1h4.8v5.8h-4.8z" class="cls-8" style="font-size:12px;font-family:MyriadPro-Regular,&quot;Myriad Pro&quot;;fill:none;stroke:#191615;stroke-width:3px;stroke-linecap:round;stroke-miterlimit:3.87"/><path d="M112.23 4.4h6.1c.2 0 .3.4.3.9v7.4c0 .5-.2.9-.3.9h-6.1l-1.1-.4h-46.4V4.9h46.4z" class="cls-8" style="font-size:12px;font-family:MyriadPro-Regular,&quot;Myriad Pro&quot;;fill:none;stroke:#191615;stroke-width:3px;stroke-linecap:round;stroke-miterlimit:3.87"/><rect width="16.780001" height="8.3000002" x="45.75" y="4.8000002" class="cls-8" rx="0.31525803" ry="0.31175596" style="font-size:12px;font-family:MyriadPro-Regular,&quot;Myriad Pro&quot;;fill:none;stroke:#191615;stroke-width:3px;stroke-linecap:round;stroke-miterlimit:3.87"/></g></svg>