<svg xmlns="http://www.w3.org/2000/svg" id="svg29172" width="219.595" height="74.389" version="1.1" viewBox="0 0 58.101176 19.68209"><defs id="defs29169"><style id="style955">.cls-1{fill:#917852}.cls-2,.cls-3{fill:#c8a572}.cls-7{fill:#9a825e}.cls-3,.cls-9{stroke-width:3px}.cls-3{stroke:#1a1814}.cls-9{fill:#5e5c64;stroke:#171717}</style></defs><g id="layer1"><rect id="rect557-2-9-3" width="44.117683" height="5.2916665" x="-51.109371" y="-5.291667" rx="1.6536459" ry="1.6536026" style="display:inline;fill:#302412;fill-opacity:1;stroke-width:.0565795" transform="scale(-1)"/><g id="g1201" transform="translate(5.461)"><rect id="rect1020-2-7-3-2-1" width="4.1367345" height="15.491096" x="-42.472992" y="-19.68218" rx="1.6536459" ry="1.6536459" style="display:inline;fill:#302412;fill-opacity:1;stroke-width:.158334" transform="scale(-1)"/><rect id="rect1020-2-7-3-8" width="2.284677" height="3.1010845" x="-41.546993" y="-18.755951" rx="0.72760415" ry="0.72760415" style="display:inline;fill:#785a2e;fill-opacity:1;stroke-width:.0526471" transform="scale(-1)"/><rect id="rect1020-2-7-3-8-5" width="2.284677" height="3.8055022" x="-41.546963" y="-9.6092453" rx="0.72760415" ry="0.73984098" style="display:inline;fill:#785a2e;fill-opacity:1;stroke-width:.0583208" transform="scale(-1)"/></g><g id="g1206" transform="translate(7.499)"><rect id="rect1020-2-7-3-2-1-1" width="4.2434621" height="15.466866" x="-23.673359" y="-19.667952" rx="1.6536459" ry="1.6536459" style="display:inline;fill:#302412;fill-opacity:1;stroke-width:.160238" transform="scale(-1)"/><rect id="rect1020-2-7-3-8-2-0" width="2.284677" height="3.1010845" x="-22.693966" y="-18.755951" rx="0.72760415" ry="0.72760415" style="display:inline;fill:#785a2e;fill-opacity:1;stroke-width:.0526471" transform="scale(-1)"/><rect id="rect1020-2-7-3-8-5-4-0" width="2.284677" height="3.8054049" x="-22.693966" y="-9.6091967" rx="0.73109031" ry="0.72760415" style="display:inline;fill:#785a2e;fill-opacity:1;stroke-width:.0583201" transform="scale(-1)"/></g><rect id="rect1018-7-2-6" width="41.736435" height="2.9104166" x="-49.918747" y="-4.1010418" rx="0.46302083" ry="0.46302083" style="display:inline;fill:#785a2e;fill-opacity:1;stroke-width:.0585354" transform="scale(-1)"/><g id="g1211" transform="translate(8.81)"><rect id="rect1020-2-7-3-2" width="4.3501897" height="15.384368" x="-5.7073793" y="-19.67123" rx="1.6536459" ry="1.6536459" style="display:inline;fill:#302412;fill-opacity:1;stroke-width:.161807" transform="scale(-1)"/><rect id="rect1020-2-7-3-8-5-4" width="2.284677" height="3.8054049" x="-4.674623" y="-9.6091967" rx="0.85204089" ry="0.72760415" style="display:inline;fill:#785a2e;fill-opacity:1;stroke-width:.0583201" transform="scale(-1)"/><rect id="rect1020-2-7-3-8-2-0-3" width="2.284677" height="3.1010845" x="-4.674623" y="-18.755951" rx="0.72760415" ry="0.72760415" style="display:inline;fill:#785a2e;fill-opacity:1;stroke-width:.0526471" transform="scale(-1)"/></g><g id="g1017" transform="translate(9.366 9.621)scale(.26458)"><path id="rect11263-9" d="M15.6 8.12h118.9v7.6H15.6z" class="cls-9"/><path id="rect11263-9-6" d="M136 6.92h10c.7 0 1.3.6 1.3 1.3v7.4c0 .7-.6 1.3-1.3 1.3h-10c-.8 0-1.5-.7-1.5-1.5v-7c0-.9.7-1.6 1.5-1.5z" class="cls-9"/><rect id="rect11263" width="34" height="10.4" x="1.5" y="6.6199999" class="cls-3" rx="1.0700001" ry="1.0700001"/><path id="rect11263-5" d="m76.5 17.62-16.4 5.1-1.9-5.2 16.5-5.2z" class="cls-3"/><path id="rect11263-5-6" d="M56.7 17.62H60c1.1 0 1.9.9 1.9 1.9v2.1c0 1-.8 1.8-1.9 1.8h-3.3c-1.1 0-1.9-.9-1.9-1.9v-2.1c0-1 .9-1.8 1.9-1.8z" style="stroke-width:3px;stroke:#1a1814;fill:#77767b"/><path id="rect11263-1" d="m87.2 4.72 9.5-3.1c1.2-.4 2.4.2 2.9 1.4s-.2 2.6-1.4 3l-9.5 3.1c-1.2.4-2.4-.2-2.9-1.4s.1-2.6 1.4-3z" class="cls-3"/><path id="rect11263-7" d="M81.6 11.42h18.7c1.3 0 2.4 1.1 2.4 2.3v6c0 1.3-1.1 2.3-2.4 2.3H81.6c-1.3 0-2.3-1.1-2.3-2.3v-6c0-1.3 1.1-2.3 2.3-2.3z" style="stroke-width:3px;stroke:#121212;fill:#5e5c64"/><path id="path886" d="M50.7 5.22h54.7c1.1 0 2 .9 2 2v9.4c0 1.1-.9 2-2 2H50.7c-1.1 0-2-.9-2-2v-9.4c0-1.1.9-2 2-2" class="cls-2"/><path id="path848" d="M108.7 6.02h13.2c.5 0 .9.4.9.9v9.9c0 .5-.4.9-.9.9h-13.2c-.5 0-.9-.4-.9-.9v-9.9c0-.5.4-.9.9-.9" class="cls-2"/><path id="rect25092" d="M49.5 13.92h55.9v2.1H49.5z" class="cls-7"/><path id="rect25092-7" d="M49.5 7.72h55.9v2.1H49.5z" class="cls-7"/><path id="rect25092-7-4" d="M108.9 7.82h12.4v2h-12.4z" class="cls-7"/><path id="rect25092-7-4-6" d="M108.9 13.82h12.4v2h-12.4z" class="cls-7"/><path id="rect29604" d="M54.9 7.92h2.4v8h-2.4z" class="cls-1"/><path id="rect29604-8" d="M60.9 7.92h2.4v8h-2.4z" class="cls-1"/><path id="rect29604-8-5" d="M66.8 7.92h2.4v8h-2.4z" class="cls-1"/><path id="rect29604-8-5-9" d="M72.9 7.92h2.4v8h-2.4z" class="cls-1"/><path id="rect29604-4" d="M79 7.92h2.4v8H79z" class="cls-1"/><path id="rect29604-8-3" d="M85 7.92h2.4v8H85z" class="cls-1"/><path id="rect29604-8-5-90" d="M90.9 7.92h2.4v8h-2.4z" class="cls-1"/><path id="rect29604-8-5-9-5" d="M97 7.92h2.4v8H97z" class="cls-1"/><path id="rect29604-4-6" d="M103 7.92h2.4v8H103z" class="cls-1"/><path id="rect29604-8-3-3-4" d="M110.3 7.92h2.4v8h-2.4z" class="cls-1"/><path id="rect29604-8-5-90-6-3" d="M116.2 7.92h2.4v8h-2.4z" class="cls-1"/><rect id="rect31" width="8.3999996" height="2.3" x="139" y="10.72" rx="0.68000001" ry="0.68000001" style="fill:#121212"/><path id="path850" d="M108.7 4.52c-1.3 0-2.4 1.1-2.4 2.4v9.9c0 1.3 1.1 2.4 2.4 2.4h13.2c1.3 0 2.4-1.1 2.4-2.4v-9.9c0-1.3-1.1-2.4-2.4-2.4zm.6 3h12v8.7h-12z" style="fill:#19130b"/><path id="path888" d="M50.7 3.72c-1.92 0-3.5 1.58-3.5 3.5v9.4c0 1.92 1.58 3.5 3.5 3.5h54.7c1.92 0 3.5-1.58 3.5-3.5v-9.4c0-1.92-1.58-3.5-3.5-3.5zm0 3h54.7c.28 0 .5.22.5.5v9.4c0 .28-.22.5-.5.5H50.7c-.28 0-.5-.22-.5-.5v-9.4c0-.28.22-.5.5-.5" style="fill:#181209"/></g></g></svg>