<svg xmlns="http://www.w3.org/2000/svg" width="153.39444" height="81.034554" viewBox="0 0 40.585611 21.440393"><g transform="translate(-.377 1.111)"><rect width="27.355536" height="5.2916665" x="-34.347149" y="-5.291667" rx="1.6536459" ry="1.6536026" style="display:inline;fill:#302412;fill-opacity:1;stroke-width:.0565795" transform="scale(-1)"/><g transform="rotate(180 3.75 0)"><rect width="4.2434621" height="15.466866" x="-23.673359" y="-19.667952" rx="1.6536459" ry="1.6536459" style="display:inline;fill:#302412;fill-opacity:1;stroke-width:.160238"/><rect width="2.284677" height="3.1010845" x="-22.693966" y="-18.755951" rx="0.72760415" ry="0.72760415" style="display:inline;fill:#785a2e;fill-opacity:1;stroke-width:.0526471"/><rect width="2.284677" height="3.8054049" x="-22.693966" y="-9.6091967" rx="0.73109031" ry="0.72760415" style="display:inline;fill:#785a2e;fill-opacity:1;stroke-width:.0583201"/></g><rect width="24.974285" height="2.9104166" x="-33.156597" y="-4.1010418" rx="0.46302086" ry="0.46302083" style="display:inline;fill:#785a2e;fill-opacity:1;stroke-width:.0585352" transform="scale(-1)"/><g transform="rotate(180 4.405 0)"><rect width="4.3501897" height="15.384368" x="-5.7073793" y="-19.67123" rx="1.6536459" ry="1.6536459" style="display:inline;fill:#302412;fill-opacity:1;stroke-width:.161807"/><rect width="2.284677" height="3.8054049" x="-4.674623" y="-9.6091967" rx="0.85204089" ry="0.72760415" style="display:inline;fill:#785a2e;fill-opacity:1;stroke-width:.0583201"/><rect width="2.284677" height="3.1010845" x="-4.674623" y="-18.755951" rx="0.72760415" ry="0.72760415" style="display:inline;fill:#785a2e;fill-opacity:1;stroke-width:.0526471"/></g><path fill="#d1cbc7" stroke="#252628" stroke-linejoin="round" stroke-width="1.95754" d="M-49.04 126.47s2.002 2.89 3.174 5.04c1.172 2.148 1.148 4.084 1.148 4.084s-2.264-2.869-3.487-4.173c-1.222-1.304-3.023-2.762-3.023-2.762z" style="fill:#c4ced4;fill-opacity:1;stroke:#383e42;stroke-width:1.1;stroke-linecap:butt;stroke-linejoin:miter;stroke-dasharray:none;stroke-opacity:1" transform="rotate(-135 -41.055 50.807)scale(.8674)"/><path fill="#4a2713" stroke="#150a05" stroke-width="1.95754" d="m-54.52 126.512-24.756 24.756c-.093.094-.1.267-.017.481.082.215.246.453.455.663s.449.374.664.457c.214.082.388.076.482-.018l24.756-24.755z" style="fill:#492013;fill-opacity:1;stroke:#2b170b;stroke-width:1.1;stroke-dasharray:none;stroke-opacity:1" transform="rotate(-135 -41.055 50.807)scale(.8674)"/><path fill="#d1cbc7" stroke="#252628" stroke-width="1.95754" d="m-52.323 122.042 3.856 3.856-3.333 3.333-3.856-3.855z" style="fill:#c4ced4;fill-opacity:1;stroke:#383e41;stroke-width:1.1;stroke-linejoin:round;stroke-dasharray:none;stroke-opacity:1" transform="rotate(-135 -41.055 50.807)scale(.8674)"/><path fill="#d1cbc7" stroke="#252628" stroke-linejoin="bevel" stroke-width="1.95754" d="m-55.586 118.779 2.66 3.867-2.007 2.007-3.986-2.54s.93-1.292 1.486-1.848 1.847-1.486 1.847-1.486z" style="fill:#c4cdd4;fill-opacity:1;stroke:#383f42;stroke-width:1.1;stroke-linejoin:miter;stroke-dasharray:none;stroke-opacity:1" transform="rotate(-135 -41.055 50.807)scale(.8674)"/><path fill="#70645c" d="M-52.497 126.13a.68.68 0 0 0 .961.011.68.68 0 0 0-.011-.96.68.68 0 0 0-.961-.011.68.68 0 0 0 .01.96" style="fill:#393e42;fill-opacity:1;stroke:none;stroke-width:1.4536;stroke-dasharray:none" transform="rotate(-135 -41.055 50.807)scale(.8674)"/></g></svg>