<svg xmlns="http://www.w3.org/2000/svg" width="44.117683mm" height="19.682188mm" viewBox="0 0 44.117683 19.682188"><g transform="matrix(1 0 0 -1 -1705.952 2851.517)"><rect width="44.117683" height="5.2916665" x="1705.9517" y="2846.2253" rx="1.6536459" ry="1.6536026" style="display:inline;fill:#302412;fill-opacity:1;stroke-width:.0565795"/><g transform="translate(1751.6 2851.517)"><rect width="4.1367345" height="15.491096" x="-42.472992" y="-19.68218" rx="1.6536459" ry="1.6536459" style="display:inline;fill:#302412;fill-opacity:1;stroke-width:.158334"/><rect width="2.284677" height="3.1010845" x="-41.546993" y="-18.755951" rx="0.72760415" ry="0.72760415" style="display:inline;fill:#785a2e;fill-opacity:1;stroke-width:.0526471"/><rect width="2.284677" height="3.8055022" x="-41.546963" y="-9.6092453" rx="0.72760415" ry="0.73984098" style="display:inline;fill:#785a2e;fill-opacity:1;stroke-width:.0583208"/></g><g transform="translate(1749.562 2851.517)"><rect width="4.2434621" height="15.466866" x="-23.673359" y="-19.667952" rx="1.6536459" ry="1.6536459" style="display:inline;fill:#302412;fill-opacity:1;stroke-width:.160238"/><rect width="2.284677" height="3.1010845" x="-22.693966" y="-18.755951" rx="0.72760415" ry="0.72760415" style="display:inline;fill:#785a2e;fill-opacity:1;stroke-width:.0526471"/><rect width="2.284677" height="3.8054049" x="-22.693966" y="-9.6091967" rx="0.73109031" ry="0.72760415" style="display:inline;fill:#785a2e;fill-opacity:1;stroke-width:.0583201"/></g><rect width="41.736435" height="2.9104166" x="1707.1423" y="2847.416" rx="0.46302083" ry="0.46302083" style="display:inline;fill:#785a2e;fill-opacity:1;stroke-width:.0585354"/><g transform="translate(1748.252 2851.517)"><rect width="4.3501897" height="15.384368" x="-5.7073793" y="-19.67123" rx="1.6536459" ry="1.6536459" style="display:inline;fill:#302412;fill-opacity:1;stroke-width:.161807"/><rect width="2.284677" height="3.8054049" x="-4.674623" y="-9.6091967" rx="0.85204089" ry="0.72760415" style="display:inline;fill:#785a2e;fill-opacity:1;stroke-width:.0583201"/><rect width="2.284677" height="3.1010845" x="-4.674623" y="-18.755951" rx="0.72760415" ry="0.72760415" style="display:inline;fill:#785a2e;fill-opacity:1;stroke-width:.0526471"/></g><g data-name="Layer 2"><g data-name="Layer 6" transform="rotate(180 874.27 1420.724)scale(.32636)"><rect width="48.720001" height="9.0200005" x="3.75" y="2.8699999" class="cls-5" rx="0.84313101" ry="0.84313101" style="fill:#a05a2c;fill-rule:evenodd;stroke:#23140b;stroke-width:3px;stroke-linecap:round;stroke-linejoin:round;stroke-miterlimit:10"/><path d="M33.08 1.5h62.69c.57 0 1.04.46 1.04 1.04v9.88c0 .57-.46 1.04-1.04 1.04H33.08c-.57 0-1.04-.46-1.04-1.04V2.54c0-.57.46-1.04 1.04-1.04" class="cls-5" style="fill:#a05a2c;fill-rule:evenodd;stroke:#23140b;stroke-width:3px;stroke-linecap:round;stroke-linejoin:round;stroke-miterlimit:10"/><path d="M51.53 4.61h6.08V8.1l-6.08 1.36z" class="cls-1" style="opacity:.997;isolation:isolate;fill:#4d4d4d;stroke:#171717;stroke-width:1.5px;stroke-linecap:round;stroke-miterlimit:12.06"/><rect width="9.6000004" height="3.6800001" x="62.889999" y="9.75" class="cls-3" rx="0.74584669" ry="0.74584669" style="opacity:.997;isolation:isolate;fill:#4d4d4d;fill-rule:evenodd;stroke:#171717;stroke-width:3px;stroke-linecap:round;stroke-linejoin:round;stroke-miterlimit:10"/><path d="M109.36 5.48h11.66v3.83h-11.66z" class="cls-3" style="opacity:.997;isolation:isolate;fill:#4d4d4d;fill-rule:evenodd;stroke:#171717;stroke-width:3px;stroke-linecap:round;stroke-linejoin:round;stroke-miterlimit:10"/><path d="M120.9 5.48h5.13c.72 0 1.3.33 1.3.74v2.3c0 .41-.58.74-1.3.74h-5.13c-.72 0-1.3-.33-1.3-.74v-2.3c0-.41.58-.74 1.3-.74" class="cls-3" style="opacity:.997;isolation:isolate;fill:#4d4d4d;fill-rule:evenodd;stroke:#171717;stroke-width:3px;stroke-linecap:round;stroke-linejoin:round;stroke-miterlimit:10"/><rect width="8.1700001" height="7.6700001" x="102.68" y="3.6600001" class="cls-3" rx="0.38913742" ry="0.38913742" style="opacity:.997;isolation:isolate;fill:#4d4d4d;fill-rule:evenodd;stroke:#171717;stroke-width:3px;stroke-linecap:round;stroke-linejoin:round;stroke-miterlimit:10"/><path d="M55.71 5.2v3.58c0 .43.35.78.78.78h7.19v-.38h4.57c.43 0 .78-.35.78-.78V5.2c0-.43-.35-.78-.78-.78H56.49c-.43 0-.78.35-.78.78" class="cls-3" style="opacity:.997;isolation:isolate;fill:#4d4d4d;fill-rule:evenodd;stroke:#171717;stroke-width:3px;stroke-linecap:round;stroke-linejoin:round;stroke-miterlimit:10"/><path d="M69.27 2.67V9.5c0 .51.41.92.92.92h.44c.51 0 .92.41.92.92v2.42c0 .51.41.92.92.92h12.46c1.51 0 2.73-2.21 2.73-4.94V7.88v0c-.09-2.93-1.42-5.22-3.04-5.22H69.27Z" class="cls-2" style="opacity:.997;isolation:isolate;fill:#393939;fill-rule:evenodd;stroke:#171717;stroke-width:3px;stroke-linecap:round;stroke-miterlimit:10"/><rect width="20.92" height="9.0299997" x="84.339996" y="2.96" class="cls-2" rx="0.40535146" ry="0.40535146" style="opacity:.997;isolation:isolate;fill:#393939;fill-rule:evenodd;stroke:#171717;stroke-width:3px;stroke-linecap:round;stroke-miterlimit:10"/><rect width="3.3900001" height="5.5100002" x="118.44" y="4.6399999" class="cls-2" rx="0.25942492" ry="0.25942492" style="opacity:.997;isolation:isolate;fill:#393939;fill-rule:evenodd;stroke:#171717;stroke-width:3px;stroke-linecap:round;stroke-miterlimit:10"/><rect width="4.7600002" height="9.3500004" x="1.5" y="2.7" class="cls-2" rx="0.89988023" ry="0.89988023" style="opacity:.997;isolation:isolate;fill:#393939;fill-rule:evenodd;stroke:#171717;stroke-width:3px;stroke-linecap:round;stroke-miterlimit:10"/><rect width="4.96" height="5.9099998" x="47.18" y="4.5100002" class="cls-3" rx="0.6323483" ry="0.6323483" style="opacity:.997;isolation:isolate;fill:#4d4d4d;fill-rule:evenodd;stroke:#171717;stroke-width:3px;stroke-linecap:round;stroke-linejoin:round;stroke-miterlimit:10"/></g></g><rect width="0.73758006" height="1.0019339" x="-1720.1343" y="-2840.4805" class="cls-4" rx="0.17727081" ry="0.17727081" style="opacity:.9;fill:#171717;fill-rule:evenodd;stroke:none;stroke-width:10px;stroke-linecap:round;stroke-linejoin:round;stroke-miterlimit:10" transform="scale(-1)"/><rect width="0.73758006" height="1.0019339" x="-1715.9406" y="-2840.4805" class="cls-4" rx="0.17727081" ry="0.17727081" style="opacity:.9;fill:#171717;fill-rule:evenodd;stroke:none;stroke-width:10px;stroke-linecap:round;stroke-linejoin:round;stroke-miterlimit:10" transform="scale(-1)"/><rect width="0.73758006" height="1.0019339" x="-1717.3374" y="-2840.4805" class="cls-4" rx="0.17727081" ry="0.17727081" style="opacity:.9;fill:#171717;fill-rule:evenodd;stroke:none;stroke-width:10px;stroke-linecap:round;stroke-linejoin:round;stroke-miterlimit:10" transform="scale(-1)"/><rect width="0.73758006" height="1.0019339" x="-1718.7341" y="-2840.4805" class="cls-4" rx="0.17727081" ry="0.17727081" style="opacity:.9;fill:#171717;fill-rule:evenodd;stroke:none;stroke-width:10px;stroke-linecap:round;stroke-linejoin:round;stroke-miterlimit:10" transform="scale(-1)"/><rect width="0.73758006" height="1.0019339" x="-1720.1343" y="-2838.6169" class="cls-4" rx="0.17727081" ry="0.17727081" style="opacity:.9;fill:#171717;fill-rule:evenodd;stroke:none;stroke-width:10px;stroke-linecap:round;stroke-linejoin:round;stroke-miterlimit:10" transform="scale(-1)"/><rect width="0.73758006" height="1.0019339" x="-1715.9406" y="-2838.6169" class="cls-4" rx="0.17727081" ry="0.17727081" style="opacity:.9;fill:#171717;fill-rule:evenodd;stroke:none;stroke-width:10px;stroke-linecap:round;stroke-linejoin:round;stroke-miterlimit:10" transform="scale(-1)"/><rect width="0.73758006" height="1.0019339" x="-1717.3374" y="-2838.6169" class="cls-4" rx="0.17727081" ry="0.17727081" style="opacity:.9;fill:#171717;fill-rule:evenodd;stroke:none;stroke-width:10px;stroke-linecap:round;stroke-linejoin:round;stroke-miterlimit:10" transform="scale(-1)"/><rect width="0.73758006" height="1.0019339" x="-1718.7341" y="-2838.6169" class="cls-4" rx="0.17727081" ry="0.17727081" style="opacity:.9;fill:#171717;fill-rule:evenodd;stroke:none;stroke-width:10px;stroke-linecap:round;stroke-linejoin:round;stroke-miterlimit:10" transform="scale(-1)"/></g></svg>