<svg xmlns="http://www.w3.org/2000/svg" xml:space="preserve" width="553.99109" height="106.5004" viewBox="0 0 146.57681 28.17823"><g transform="translate(-6.087 -5.755)"><path fill="#61341a" stroke="#1d0f07" stroke-linecap="round" stroke-width="2.09999" d="M151.737 6.68H7.013v26.327h144.724Z" style="stroke-width:1.85208;stroke-dasharray:none"/><rect width="13.408784" height="13.408784" x="-59.593029" y="9.7288847" rx="1.0068922" ry="1.223611" style="fill:#502b16;fill-opacity:1;stroke:none;stroke-width:1.85208;stroke-linecap:square;stroke-linejoin:bevel;stroke-miterlimit:29;stroke-dasharray:none;stroke-opacity:1" transform="scale(-1 1)"/><path fill="#3e3e3e" stroke="#1f1f1f" stroke-linecap="round" stroke-linejoin="round" stroke-miterlimit="5" stroke-width="1.46199" d="M115.68 22.078h32.422v-12.7H115.68z" style="stroke-width:1.32292;stroke-dasharray:none"/><path fill="#606060" d="M145.174 20.478h.808a.46.46 0 0 0 .458-.458v-.813a.46.46 0 0 0-.458-.458h-.808a.46.46 0 0 0-.458.458v.813c0 .253.205.458.458.458m0-8.191h.808a.46.46 0 0 0 .458-.459v-.812a.46.46 0 0 0-.458-.458h-.808a.46.46 0 0 0-.458.458v.812c0 .253.205.459.458.459m-2.068.08h.808a.46.46 0 0 0 .458-.458v-.813a.46.46 0 0 0-.458-.458h-.808a.46.46 0 0 0-.458.458v.813c0 .253.205.458.458.458m-2.068 0h.808a.46.46 0 0 0 .458-.458v-.813a.46.46 0 0 0-.458-.458h-.808a.46.46 0 0 0-.458.458v.813c0 .253.205.458.458.458m-2.068 0h.808a.46.46 0 0 0 .458-.458v-.813a.46.46 0 0 0-.458-.458h-.808a.46.46 0 0 0-.458.458v.813c0 .253.205.458.458.458m-14.477-.043h.808a.46.46 0 0 0 .458-.458v-.813a.46.46 0 0 0-.458-.458h-.808a.46.46 0 0 0-.458.458v.813c0 .253.205.458.458.458m-2.068.004h.808a.46.46 0 0 0 .458-.458v-.813a.46.46 0 0 0-.458-.458h-.808a.46.46 0 0 0-.458.458v.813c0 .253.205.458.458.458m-2.068-.033h.808a.46.46 0 0 0 .458-.458v-.813a.46.46 0 0 0-.458-.458h-.808a.46.46 0 0 0-.458.458v.813c0 .253.205.458.458.458m-2.607.033h1.347a.46.46 0 0 0 .458-.458v-.813a.46.46 0 0 0-.458-.458h-1.346a.46.46 0 0 0-.458.458v.813c0 .253.205.458.458.458m8.81.039h11.149a.46.46 0 0 0 .458-.458v-.813a.46.46 0 0 0-.458-.458h-11.15a.46.46 0 0 0-.458.458v.813c0 .253.205.458.458.458m17.562 5.995h1.846a.46.46 0 0 0 .458-.459v-.812a.46.46 0 0 0-.458-.458h-1.846a.46.46 0 0 0-.458.458v.812c0 .253.205.459.458.459m-.525-1.977h2.385a.46.46 0 0 0 .458-.458v-.812a.46.46 0 0 0-.458-.459h-2.385a.46.46 0 0 0-.458.459v.812c0 .253.205.458.458.458m-.835-2.05h3.22a.46.46 0 0 0 .458-.458v-.813a.46.46 0 0 0-.458-.458h-3.22a.46.46 0 0 0-.458.458v.813c0 .253.205.458.458.458m-25.012.008h3.88a.46.46 0 0 0 .458-.458v-.82a.46.46 0 0 0-.458-.459h-3.88a.46.46 0 0 0-.457.458v.821c0 .253.205.458.458.458m25.355 6.135h.808a.46.46 0 0 0 .458-.458v-.813a.46.46 0 0 0-.458-.458h-.808a.46.46 0 0 0-.458.458v.813c0 .253.205.458.458.458m-1.085-2.116h.808a.46.46 0 0 0 .458-.459v-.812a.46.46 0 0 0-.458-.458h-.808a.46.46 0 0 0-.458.458v.812c0 .253.205.459.458.459m-.593-2.014h.808a.46.46 0 0 0 .459-.458v-.813a.46.46 0 0 0-.459-.458h-.808a.46.46 0 0 0-.458.458v.813c0 .253.205.458.458.458m-2.104 0h.808a.46.46 0 0 0 .458-.458v-.813a.46.46 0 0 0-.458-.458h-.808a.46.46 0 0 0-.458.458v.813c0 .253.205.458.458.458m-2.054 0h.807a.46.46 0 0 0 .458-.458v-.813a.46.46 0 0 0-.458-.458h-.808a.46.46 0 0 0-.458.458v.813c0 .253.205.458.458.458m-2.055 0h.808a.46.46 0 0 0 .459-.458v-.813a.46.46 0 0 0-.459-.458h-.808a.46.46 0 0 0-.458.458v.813c0 .253.205.458.458.458m-2.054 0h.808a.46.46 0 0 0 .458-.458v-.813a.46.46 0 0 0-.458-.458h-.808a.46.46 0 0 0-.458.458v.813c0 .253.205.458.458.458m-2.055 0h.808a.46.46 0 0 0 .458-.458v-.813a.46.46 0 0 0-.458-.458h-.808a.46.46 0 0 0-.458.458v.813c0 .253.205.458.458.458m-2.055 0h.808a.46.46 0 0 0 .459-.458v-.813a.46.46 0 0 0-.459-.458h-.808a.46.46 0 0 0-.458.458v.813c0 .253.205.458.458.458m-2.054 0h.808a.46.46 0 0 0 .458-.458v-.813a.46.46 0 0 0-.458-.458h-.808a.46.46 0 0 0-.458.458v.813c0 .253.205.458.458.458m-2.055 0h.808a.46.46 0 0 0 .458-.458v-.813a.46.46 0 0 0-.458-.458h-.808a.46.46 0 0 0-.458.458v.813c0 .253.205.458.458.458m-2.055.004h.808a.46.46 0 0 0 .459-.458v-.812a.46.46 0 0 0-.459-.459h-.808a.46.46 0 0 0-.458.459v.812c0 .253.205.458.458.458m17.68-2.017h.808a.46.46 0 0 0 .458-.458v-.813a.46.46 0 0 0-.458-.458h-.808a.46.46 0 0 0-.458.458v.813c0 .253.205.458.458.458m-2.196 0h.808a.46.46 0 0 0 .458-.458v-.813a.46.46 0 0 0-.458-.458h-.808a.46.46 0 0 0-.458.458v.813c0 .253.205.458.458.458m-2.197 0h.808a.46.46 0 0 0 .458-.458v-.813a.46.46 0 0 0-.458-.458h-.808a.46.46 0 0 0-.458.458v.813c0 .253.205.458.458.458m-2.196 0h.808a.46.46 0 0 0 .458-.458v-.813a.46.46 0 0 0-.458-.458h-.808a.46.46 0 0 0-.458.458v.813c0 .253.205.458.458.458m-2.197 0h.809a.46.46 0 0 0 .458-.458v-.813a.46.46 0 0 0-.458-.458h-.809a.46.46 0 0 0-.458.458v.813c0 .253.205.458.458.458m-2.196 0h.808a.46.46 0 0 0 .458-.458v-.813a.46.46 0 0 0-.458-.458h-.808a.46.46 0 0 0-.458.458v.813c0 .253.205.458.458.458m-2.196 0h.808a.46.46 0 0 0 .458-.458v-.813a.46.46 0 0 0-.458-.458h-.809a.46.46 0 0 0-.458.458v.813c0 .253.206.458.458.458m-2.196 0H126a.46.46 0 0 0 .458-.458v-.813a.46.46 0 0 0-.458-.458h-.808a.46.46 0 0 0-.458.458v.813c0 .253.205.458.458.458m-2.198.008h.809a.46.46 0 0 0 .458-.458v-.813a.46.46 0 0 0-.458-.458h-.809a.46.46 0 0 0-.458.458v.813c0 .253.205.458.458.458m16.959 4.019h.808a.46.46 0 0 0 .458-.459v-.812a.46.46 0 0 0-.458-.458h-.808a.46.46 0 0 0-.458.458v.812c0 .253.205.459.458.459m-2.068 0h.808a.46.46 0 0 0 .458-.459v-.812a.46.46 0 0 0-.458-.458h-.808a.46.46 0 0 0-.458.458v.812c0 .253.205.459.458.459m-2.068 0h.808a.46.46 0 0 0 .458-.459v-.812a.46.46 0 0 0-.458-.458h-.808a.46.46 0 0 0-.458.458v.812c0 .253.205.459.458.459m-2.068 0h.808a.46.46 0 0 0 .458-.459v-.812a.46.46 0 0 0-.458-.458h-.808a.46.46 0 0 0-.458.458v.812c0 .253.205.459.458.459m-2.069 0h.808a.46.46 0 0 0 .458-.459v-.812a.46.46 0 0 0-.458-.458h-.808a.46.46 0 0 0-.458.458v.812c0 .253.205.459.458.459m-2.068 0h.808a.46.46 0 0 0 .458-.459v-.812a.46.46 0 0 0-.458-.458h-.808a.46.46 0 0 0-.458.458v.812c0 .253.205.459.458.459m-2.068 0h.808a.46.46 0 0 0 .458-.459v-.812a.46.46 0 0 0-.458-.458h-.808a.46.46 0 0 0-.458.458v.812c0 .253.205.459.458.459m-2.068 0h.808a.46.46 0 0 0 .458-.459v-.812a.46.46 0 0 0-.458-.458h-.808a.46.46 0 0 0-.458.458v.812c0 .253.205.459.458.459m-2.068 0h.808a.46.46 0 0 0 .458-.459v-.812a.46.46 0 0 0-.458-.458h-.808a.46.46 0 0 0-.458.458v.812c0 .253.205.459.458.459m-2.068.053h.808a.46.46 0 0 0 .458-.458v-.812a.46.46 0 0 0-.458-.459h-.808a.46.46 0 0 0-.458.459v.812c0 .253.205.458.458.458m19.698 2.063h.808a.46.46 0 0 0 .458-.458v-.813a.46.46 0 0 0-.458-.458h-.808a.46.46 0 0 0-.458.458v.813c0 .253.205.458.458.458m-2.068 0h.808a.46.46 0 0 0 .458-.458v-.813a.46.46 0 0 0-.458-.458h-.808a.46.46 0 0 0-.458.458v.813c0 .253.205.458.458.458m-2.068 0h.808a.46.46 0 0 0 .458-.458v-.813a.46.46 0 0 0-.458-.458h-.808a.46.46 0 0 0-.459.458v.813c0 .253.206.458.459.458m-2.068 0h.808a.46.46 0 0 0 .458-.458v-.813a.46.46 0 0 0-.458-.458h-.808a.46.46 0 0 0-.459.458v.813c0 .253.205.458.459.458m-2.069 0h.808a.46.46 0 0 0 .459-.458v-.813a.46.46 0 0 0-.459-.458h-.808a.46.46 0 0 0-.458.458v.813c0 .253.205.458.458.458m-2.068 0h.808a.46.46 0 0 0 .459-.458v-.813a.46.46 0 0 0-.459-.458h-.808a.46.46 0 0 0-.458.458v.813c0 .253.205.458.458.458m-2.067 0h.807a.46.46 0 0 0 .458-.458v-.813a.46.46 0 0 0-.458-.458h-.808a.46.46 0 0 0-.458.458v.813c0 .253.205.458.458.458m-2.068 0h.808a.46.46 0 0 0 .459-.458v-.813a.46.46 0 0 0-.459-.458h-.808a.46.46 0 0 0-.458.458v.813c0 .253.205.458.458.458m-2.068 0h.808a.46.46 0 0 0 .458-.458v-.813a.46.46 0 0 0-.458-.458h-.808a.46.46 0 0 0-.458.458v.813c0 .253.205.458.458.458m-2.068 0h.808a.46.46 0 0 0 .458-.458v-.813a.46.46 0 0 0-.458-.458h-.808a.46.46 0 0 0-.458.458v.813c0 .253.205.458.458.458m-4.675 0h3.415a.46.46 0 0 0 .458-.458v-.813a.46.46 0 0 0-.458-.458h-3.414a.46.46 0 0 0-.458.458v.813c0 .253.205.458.458.458m0-4.126h3.627a.46.46 0 0 0 .458-.458v-.78a.46.46 0 0 0-.458-.457h-3.627a.46.46 0 0 0-.458.458v.78c0 .252.205.457.458.457m0 2.063h2.37a.46.46 0 0 0 .457-.458v-.867a.46.46 0 0 0-.458-.458h-2.369a.46.46 0 0 0-.458.458v.867c0 .253.205.458.458.458" style="stroke-width:.264583"/><path fill="#3e3e3e" stroke="#1f1f1f" stroke-linecap="round" stroke-miterlimit="5" stroke-width="1.462" d="M26.832 31.417H42.11v-5.085H26.832z" style="stroke-width:1.32292;stroke-dasharray:none"/><path fill="#454545" stroke="#1f1f1f" stroke-linecap="square" stroke-miterlimit="5" stroke-width="1.46201" d="M18.01 28.86h32.92v-2.9H18.01z" style="stroke-width:1.32292;stroke-dasharray:none"/><path fill="#3e3e3e" stroke="#1f1f1f" stroke-linecap="round" stroke-miterlimit="5" stroke-width="1.462" d="M72.16 31.417h15.277v-5.085H72.161z" style="stroke-width:1.32292;stroke-dasharray:none"/><path fill="#454545" stroke="#1f1f1f" stroke-linecap="square" stroke-miterlimit="5" stroke-width="1.46201" d="M63.34 28.86h32.918v-2.9H63.339z" style="stroke-width:1.32292;stroke-dasharray:none"/><path fill="#3e3e3e" stroke="#1f1f1f" stroke-linecap="round" stroke-miterlimit="5" stroke-width="1.462" d="M117.735 31.417h15.276v-5.085h-15.276z" style="stroke-width:1.32292;stroke-dasharray:none"/><path fill="#454545" stroke="#1f1f1f" stroke-linecap="square" stroke-miterlimit="5" stroke-width="1.46201" d="M108.914 28.86h32.918v-2.9h-32.918z" style="stroke-width:1.32292;stroke-dasharray:none"/><path fill="#3e3e3e" stroke="#1f1f1f" stroke-linecap="round" stroke-linejoin="round" stroke-miterlimit="5" stroke-width="1.46199" d="M9.714 22.078h32.422v-12.7H9.714Z" style="stroke-width:1.32292;stroke-dasharray:none"/><path fill="#606060" d="M39.209 20.478h.808a.46.46 0 0 0 .458-.458v-.813a.46.46 0 0 0-.458-.458h-.808a.46.46 0 0 0-.459.458v.813c0 .253.205.458.459.458m0-8.191h.808a.46.46 0 0 0 .458-.459v-.812a.46.46 0 0 0-.458-.458h-.808a.46.46 0 0 0-.459.458v.812c0 .253.205.459.459.459m-2.069.08h.808a.46.46 0 0 0 .459-.458v-.813a.46.46 0 0 0-.459-.458h-.808a.46.46 0 0 0-.458.458v.813c0 .253.205.458.458.458m-2.068 0h.808a.46.46 0 0 0 .459-.458v-.813a.46.46 0 0 0-.459-.458h-.808a.46.46 0 0 0-.458.458v.813c0 .253.205.458.458.458m-2.068 0h.808a.46.46 0 0 0 .458-.458v-.813a.46.46 0 0 0-.458-.458h-.808a.46.46 0 0 0-.458.458v.813c0 .253.205.458.458.458m-14.476-.043h.808a.46.46 0 0 0 .458-.458v-.813a.46.46 0 0 0-.458-.458h-.808a.46.46 0 0 0-.459.458v.813c0 .253.205.458.459.458m-2.068.004h.808a.46.46 0 0 0 .458-.458v-.813a.46.46 0 0 0-.458-.458h-.809a.46.46 0 0 0-.458.458v.813c0 .253.205.458.458.458m-2.068-.033h.808a.46.46 0 0 0 .459-.458v-.813a.46.46 0 0 0-.459-.458h-.808a.46.46 0 0 0-.458.458v.813c0 .253.205.458.458.458m-2.606.033h1.346a.46.46 0 0 0 .458-.458v-.813a.46.46 0 0 0-.458-.458h-1.346a.46.46 0 0 0-.458.458v.813c0 .253.205.458.458.458m8.811.039h11.148a.46.46 0 0 0 .458-.458v-.813a.46.46 0 0 0-.458-.458H20.596a.46.46 0 0 0-.459.458v.813c0 .253.205.458.459.458m17.56 5.995h1.847a.46.46 0 0 0 .458-.459v-.812a.46.46 0 0 0-.458-.458h-1.847a.46.46 0 0 0-.458.458v.812c0 .253.205.459.458.459m-.524-1.977h2.385a.46.46 0 0 0 .458-.458v-.812a.46.46 0 0 0-.458-.459h-2.385a.46.46 0 0 0-.459.459v.812c0 .253.205.458.459.458m-.835-2.05h3.22a.46.46 0 0 0 .458-.458v-.813a.46.46 0 0 0-.458-.458h-3.22a.46.46 0 0 0-.458.458v.813c0 .253.205.458.458.458m-25.012.008h3.88a.46.46 0 0 0 .458-.458v-.82a.46.46 0 0 0-.459-.459h-3.879a.46.46 0 0 0-.458.458v.821c0 .253.205.458.458.458m25.355 6.135h.808a.46.46 0 0 0 .459-.458v-.813a.46.46 0 0 0-.459-.458h-.808a.46.46 0 0 0-.458.458v.813c0 .253.205.458.458.458m-1.085-2.116h.809a.46.46 0 0 0 .458-.459v-.812a.46.46 0 0 0-.458-.458h-.809a.46.46 0 0 0-.458.458v.812a.46.46 0 0 0 .458.459m-.592-2.014h.808a.46.46 0 0 0 .458-.458v-.813a.46.46 0 0 0-.458-.458h-.808a.46.46 0 0 0-.458.458v.813c0 .253.205.458.458.458m-2.104 0h.808a.46.46 0 0 0 .458-.458v-.813a.46.46 0 0 0-.458-.458h-.808a.46.46 0 0 0-.458.458v.813c0 .253.205.458.458.458m-2.056 0h.809a.46.46 0 0 0 .458-.458v-.813a.46.46 0 0 0-.458-.458h-.809a.46.46 0 0 0-.458.458v.813c0 .253.205.458.458.458m-2.054 0h.808a.46.46 0 0 0 .458-.458v-.813a.46.46 0 0 0-.458-.458h-.808a.46.46 0 0 0-.458.458v.813c0 .253.205.458.458.458m-2.055 0h.808a.46.46 0 0 0 .458-.458v-.813a.46.46 0 0 0-.458-.458h-.808a.46.46 0 0 0-.458.458v.813c0 .253.205.458.458.458m-2.054 0h.808a.46.46 0 0 0 .458-.458v-.813a.46.46 0 0 0-.458-.458h-.809a.46.46 0 0 0-.458.458v.813c0 .253.205.458.458.458m-2.054 0h.808a.46.46 0 0 0 .458-.458v-.813a.46.46 0 0 0-.458-.458h-.808a.46.46 0 0 0-.458.458v.813c0 .253.205.458.458.458m-2.055 0h.808a.46.46 0 0 0 .458-.458v-.813a.46.46 0 0 0-.458-.458h-.808a.46.46 0 0 0-.458.458v.813c0 .253.205.458.458.458m-2.054 0h.808a.46.46 0 0 0 .458-.458v-.813a.46.46 0 0 0-.458-.458h-.808a.46.46 0 0 0-.459.458v.813c0 .253.206.458.459.458m-2.056.004h.809a.46.46 0 0 0 .458-.458v-.812a.46.46 0 0 0-.458-.459h-.808a.46.46 0 0 0-.458.459v.812c0 .253.205.458.458.458M34.6 14.335h.809a.46.46 0 0 0 .458-.458v-.813a.46.46 0 0 0-.458-.458H34.6a.46.46 0 0 0-.459.458v.813c0 .253.205.458.459.458m-2.196 0h.808a.46.46 0 0 0 .459-.458v-.813a.46.46 0 0 0-.459-.458h-.808a.46.46 0 0 0-.458.458v.813c0 .253.205.458.458.458m-2.197 0h.808a.46.46 0 0 0 .459-.458v-.813a.46.46 0 0 0-.459-.458h-.808a.46.46 0 0 0-.458.458v.813c0 .253.205.458.458.458m-2.196 0h.808a.46.46 0 0 0 .458-.458v-.813a.46.46 0 0 0-.458-.458h-.808a.46.46 0 0 0-.458.458v.813c0 .253.205.458.458.458m-2.196 0h.808a.46.46 0 0 0 .458-.458v-.813a.46.46 0 0 0-.458-.458h-.808a.46.46 0 0 0-.458.458v.813c0 .253.205.458.458.458m-2.197 0h.808a.46.46 0 0 0 .458-.458v-.813a.46.46 0 0 0-.458-.458h-.808a.46.46 0 0 0-.458.458v.813c0 .253.205.458.458.458m-2.196 0h.808a.46.46 0 0 0 .458-.458v-.813a.46.46 0 0 0-.458-.458h-.808a.46.46 0 0 0-.458.458v.813c0 .253.205.458.458.458m-2.196 0h.808a.46.46 0 0 0 .458-.458v-.813a.46.46 0 0 0-.458-.458h-.808a.46.46 0 0 0-.459.458v.813c0 .253.206.458.459.458m-2.197.008h.808a.46.46 0 0 0 .458-.458v-.813a.46.46 0 0 0-.458-.458h-.808a.46.46 0 0 0-.458.458v.813c0 .253.205.458.458.458m16.959 4.019h.808a.46.46 0 0 0 .458-.459v-.812a.46.46 0 0 0-.458-.458h-.808a.46.46 0 0 0-.459.458v.812a.46.46 0 0 0 .459.459m-2.068 0h.808a.46.46 0 0 0 .458-.459v-.812a.46.46 0 0 0-.458-.458h-.809a.46.46 0 0 0-.458.458v.812c0 .253.205.459.458.459m-2.068 0h.808a.46.46 0 0 0 .459-.459v-.812a.46.46 0 0 0-.459-.458h-.808a.46.46 0 0 0-.458.458v.812c0 .253.205.459.458.459m-2.068 0h.808a.46.46 0 0 0 .458-.459v-.812a.46.46 0 0 0-.458-.458h-.808a.46.46 0 0 0-.458.458v.812c0 .253.205.459.458.459m-2.068 0h.808a.46.46 0 0 0 .458-.459v-.812a.46.46 0 0 0-.458-.458h-.808a.46.46 0 0 0-.459.458v.812a.46.46 0 0 0 .459.459m-2.068 0h.808a.46.46 0 0 0 .458-.459v-.812a.46.46 0 0 0-.458-.458h-.808a.46.46 0 0 0-.459.458v.812a.46.46 0 0 0 .459.459m-2.069 0h.809a.46.46 0 0 0 .458-.459v-.812a.46.46 0 0 0-.458-.458h-.809a.46.46 0 0 0-.458.458v.812c0 .253.205.459.458.459m-2.068 0h.808a.46.46 0 0 0 .459-.459v-.812a.46.46 0 0 0-.459-.458h-.808a.46.46 0 0 0-.458.458v.812c0 .253.205.459.458.459m-2.068 0h.808a.46.46 0 0 0 .459-.459v-.812a.46.46 0 0 0-.459-.458h-.808a.46.46 0 0 0-.458.458v.812c0 .253.205.459.458.459m-2.068.053h.808a.46.46 0 0 0 .458-.458v-.812a.46.46 0 0 0-.458-.459h-.808a.46.46 0 0 0-.458.459v.812c0 .253.205.458.458.458m19.698 2.063h.808a.46.46 0 0 0 .459-.458v-.813a.46.46 0 0 0-.459-.458h-.808a.46.46 0 0 0-.458.458v.813c0 .253.205.458.458.458m-2.068 0h.808a.46.46 0 0 0 .458-.458v-.813a.46.46 0 0 0-.458-.458h-.808a.46.46 0 0 0-.458.458v.813c0 .253.205.458.458.458m-2.068 0h.808a.46.46 0 0 0 .458-.458v-.813a.46.46 0 0 0-.458-.458h-.808a.46.46 0 0 0-.458.458v.813c0 .253.205.458.458.458m-2.068 0h.808a.46.46 0 0 0 .458-.458v-.813a.46.46 0 0 0-.458-.458h-.808a.46.46 0 0 0-.458.458v.813c0 .253.205.458.458.458m-2.068 0h.808a.46.46 0 0 0 .458-.458v-.813a.46.46 0 0 0-.458-.458H26.8a.46.46 0 0 0-.458.458v.813c0 .253.205.458.458.458m-2.068 0h.808a.46.46 0 0 0 .458-.458v-.813a.46.46 0 0 0-.458-.458h-.808a.46.46 0 0 0-.458.458v.813c0 .253.205.458.458.458m-2.068 0h.808a.46.46 0 0 0 .458-.458v-.813a.46.46 0 0 0-.458-.458h-.808a.46.46 0 0 0-.458.458v.813c0 .253.205.458.458.458m-2.068 0h.808a.46.46 0 0 0 .458-.458v-.813a.46.46 0 0 0-.458-.458h-.808a.46.46 0 0 0-.459.458v.813c0 .253.206.458.459.458m-2.068 0h.808a.46.46 0 0 0 .458-.458v-.813a.46.46 0 0 0-.458-.458h-.808a.46.46 0 0 0-.459.458v.813c0 .253.205.458.459.458m-2.068 0h.808a.46.46 0 0 0 .458-.458v-.813a.46.46 0 0 0-.458-.458h-.809a.46.46 0 0 0-.458.458v.813c0 .253.205.458.458.458m-4.674 0H15.2a.46.46 0 0 0 .459-.458v-.813a.46.46 0 0 0-.459-.458h-3.414a.46.46 0 0 0-.458.458v.813c0 .253.205.458.458.458m0-4.126h3.626a.46.46 0 0 0 .458-.458v-.78a.46.46 0 0 0-.458-.457h-3.626a.46.46 0 0 0-.459.458v.78c0 .252.206.457.459.457m0 2.063h2.369a.46.46 0 0 0 .458-.458v-.867a.46.46 0 0 0-.458-.458h-2.37a.46.46 0 0 0-.457.458v.867c0 .253.205.458.458.458" style="stroke-width:.264583"/><path fill="#454545" stroke="#1f1f1f" stroke-width="1.14166" d="M106.272 20.936a5.37 5.37 0 1 1 0-10.741 5.37 5.37 0 0 1 0 10.741z" style="stroke-width:1.32292;stroke-dasharray:none"/><path fill="#1f1f1f" d="M106.052 10.073h.515v10.916h-.515z" style="stroke-width:.264583"/><path fill="#1f1f1f" d="M111.593 15.316v.516h-10.916v-.516zm-.325-1.519v.515h-9.71v-.515zm-.445-1.52v.516h-9.345v-.516zm-1.337-1.428v.516H102.8v-.516zm1.696 6.395v-.515h-9.71v.515zm-.444 1.52v-.516h-9.346v.516zm-1.338 1.428v-.516h-6.686v.516z" style="stroke-width:.264583"/><path fill="#1f1f1f" d="M107.48 10.842h.516v9.71h-.515zm1.52-.081h.516v9.345h-.515zm1.428 1.323h.515v6.686h-.515zm-5.364-1.327h-.516v9.71h.516zm-1.52-.081h-.515v9.345h.515zm-1.428 1.321h-.515v6.687h.515z" style="stroke-width:.264583"/><path fill="#4f4f4f" stroke="#1f1f1f" stroke-width="0.914463" d="M94.99 13.66a1.875 1.875 0 1 1 0-3.75 1.875 1.875 0 0 1 0 3.75zm0 7.309a1.875 1.875 0 1 1 0-3.75 1.875 1.875 0 0 1 0 3.75zm-6.417-7.309a1.875 1.875 0 1 1 0-3.75 1.875 1.875 0 0 1 0 3.75zm0 7.309a1.875 1.875 0 1 1 0-3.75 1.875 1.875 0 0 1 0 3.75z"/><path fill="#4f4f4f" stroke="#1f1f1f" stroke-width="1.544" d="M64.972 9.603h15.043a2.48 2.48 0 0 1 2.482 2.483v7.838a2.48 2.48 0 0 1-2.482 2.482H64.972a2.483 2.483 0 0 1-2.483-2.482v-7.838a2.483 2.483 0 0 1 2.483-2.483z" style="stroke-width:1.32292;stroke-dasharray:none"/><circle cx="-52.799236" cy="-16.102192" r="2.7076709" style="fill:#936c6c;fill-opacity:1;stroke:#2c1111;stroke-width:.926042;stroke-dasharray:none;stroke-opacity:1;paint-order:fill markers stroke;stop-color:#000" transform="scale(-1)"/><g style="paint-order:normal"><rect width="7.7232852" height="7.6463413" x="111.27836" y="-110.30116" rx="0" ry="0.41073114" style="display:inline;fill:#cecfcf;fill-opacity:.3;stroke:#949494;stroke-width:.877348;stroke-miterlimit:4;stroke-dasharray:none;stroke-opacity:.8;paint-order:normal" transform="matrix(-1.06657 0 0 .2784 175.608 49.55)"/></g><rect width="5.2938294" height="1.0828288" x="-55.483135" y="20.279392" ry="0.54141438" style="fill:#262626;fill-opacity:1;stroke:none;stroke-width:1.85208;stroke-dasharray:none;stroke-opacity:.8;paint-order:fill markers stroke;stop-color:#000" transform="scale(-1 1)"/></g></svg>