<svg xmlns="http://www.w3.org/2000/svg" xml:space="preserve" width="245.20621" height="338.05646" viewBox="0 0 64.877475 89.444106"><g style="opacity:1" transform="rotate(-90.089 13.642 184.515)"><rect width="64.746979" height="89.353119" x="171.15483" y="-198.08121" rx="2.9699221" ry="2.5275857" style="display:inline;fill:#302412;fill-opacity:1;stroke-width:.178457" transform="rotate(90)"/><rect width="54.147556" height="84.870972" x="-230.6021" y="-195.58339" rx="1.3229166" ry="1.3229166" style="display:inline;fill:#785a2e;fill-opacity:1;stroke-width:.188074" transform="scale(1 -1)rotate(90)"/><rect width="1.5875" height="85.05806" x="173.13921" y="-195.77052" rx="0.79374999" ry="0.79374999" style="display:inline;fill:#785a2e;fill-opacity:1;stroke-width:.140188" transform="rotate(90)"/><rect width="1.5875" height="85" x="232.32994" y="-195.71245" rx="0.79374999" ry="0.79374999" style="display:inline;fill:#785a2e;fill-opacity:1;stroke-width:.140141" transform="rotate(90)"/></g><g style="opacity:1" transform="rotate(-.089 -31531.886 44069.693)"><ellipse cx="106.28225" cy="103.28164" rx="2.9541814" ry="2.9513478" style="fill:#9edfdd;fill-opacity:1;fill-rule:nonzero;stroke:#0e2b2a;stroke-width:.925997;stroke-linecap:round;stroke-linejoin:round;stroke-miterlimit:4;stroke-dasharray:none;stroke-dashoffset:0;stroke-opacity:1;paint-order:normal"/><path d="M107.782 102.134a1.112 1.111 0 0 0-1.112 1.11 1.112 1.111 0 0 0 .002.059 1.112 1.111 0 0 0-.214-.02 1.112 1.111 0 0 0-1.112 1.11 1.112 1.111 0 0 0 .784 1.06 1.112 1.111 0 0 0-.178.603 1.112 1.111 0 0 0 1.112 1.11 1.112 1.111 0 0 0 .906-.465 1.112 1.111 0 0 0 .819.36 1.112 1.111 0 0 0 1.112-1.111 1.112 1.111 0 0 0-.242-.691 1.112 1.111 0 0 0 .786-1.063 1.112 1.111 0 0 0-1.111-1.11 1.112 1.111 0 0 0-.442.091 1.112 1.111 0 0 0-1.11-1.044zm.441 2.13a1.112 1.111 0 0 0 .24.624 1.112 1.111 0 0 0-.58.418 1.112 1.111 0 0 0-.49-.311 1.112 1.111 0 0 0 .178-.602 1.112 1.111 0 0 0-.002-.058 1.112 1.111 0 0 0 .213.02 1.112 1.111 0 0 0 .441-.092z" style="fill:#cb4431;fill-opacity:1;fill-rule:nonzero;stroke:#511b14;stroke-width:.69453;stroke-linecap:round;stroke-linejoin:round;stroke-miterlimit:4;stroke-dasharray:none;stroke-dashoffset:0;stroke-opacity:1;paint-order:normal"/><ellipse cx="107.8959" cy="104.65038" rx="0.78642541" ry="0.78568619" style="fill:#d3db57;fill-opacity:1;fill-rule:nonzero;stroke:#3c3f0d;stroke-width:.463021;stroke-linecap:round;stroke-linejoin:round;stroke-miterlimit:4;stroke-dasharray:none;stroke-dashoffset:0;stroke-opacity:1;paint-order:normal"/><path d="M106.494 98.07a1.112 1.111 0 0 0-1.112 1.111 1.112 1.111 0 0 0 .003.059 1.112 1.111 0 0 0-.214-.021 1.112 1.111 0 0 0-1.112 1.111 1.112 1.111 0 0 0 .784 1.062 1.112 1.111 0 0 0-.179.601 1.112 1.111 0 0 0 1.113 1.111 1.112 1.111 0 0 0 .905-.466 1.112 1.111 0 0 0 .82.36 1.112 1.111 0 0 0 1.112-1.11 1.112 1.111 0 0 0-.242-.692 1.112 1.111 0 0 0 .786-1.062 1.112 1.111 0 0 0-1.112-1.111 1.112 1.111 0 0 0-.44.091 1.112 1.111 0 0 0-1.11-1.044zm.441 2.13a1.112 1.111 0 0 0 .24.625 1.112 1.111 0 0 0-.58.417 1.112 1.111 0 0 0-.49-.31 1.112 1.111 0 0 0 .177-.602 1.112 1.111 0 0 0 0-.06 1.112 1.111 0 0 0 .213.022 1.112 1.111 0 0 0 .44-.092" style="fill:#cb4431;fill-opacity:1;fill-rule:nonzero;stroke:#511b14;stroke-width:.694531;stroke-linecap:round;stroke-linejoin:round;stroke-miterlimit:4;stroke-dasharray:none;stroke-dashoffset:0;stroke-opacity:1;paint-order:normal"/><ellipse cx="106.63796" cy="100.63244" rx="0.78642541" ry="0.78568619" style="fill:#d3db57;fill-opacity:1;fill-rule:nonzero;stroke:#3c3f0d;stroke-width:.463021;stroke-linecap:round;stroke-linejoin:round;stroke-miterlimit:4;stroke-dasharray:none;stroke-dashoffset:0;stroke-opacity:1;paint-order:normal"/></g><g style="opacity:1" transform="rotate(-89.687 41.25 102.434)"><rect width="5.8917327" height="9.525322" x="95.243782" y="82.555138" rx="0.26328495" ry="0.28339866" style="fill:none;fill-opacity:1;stroke:#0e272f;stroke-width:.925719;stroke-linecap:round;stroke-linejoin:round;stroke-miterlimit:4;stroke-dasharray:none;stroke-opacity:1"/><rect width="2.9439113" height="8.3537979" x="97.847466" y="83.144646" rx="0.26634058" ry="0.25192741" style="fill:#30839e;fill-opacity:1;stroke:#c8c8c8;stroke-width:.906619;stroke-linecap:round;stroke-linejoin:round;stroke-miterlimit:4;stroke-dasharray:none;stroke-opacity:1"/><rect width="5.8917327" height="9.5253229" x="94.572479" y="82.555138" rx="0.26459783" ry="0.26438412" style="fill:#30839e;fill-opacity:1;stroke:#13343f;stroke-width:.925719;stroke-linecap:round;stroke-linejoin:round;stroke-miterlimit:4;stroke-dasharray:none;stroke-opacity:1"/></g><g style="opacity:1" transform="rotate(85.522 82.613 28.161)"><rect width="5.8917327" height="9.525322" x="95.243782" y="82.555138" rx="0.26328495" ry="0.28339866" style="fill:#ab7f60;fill-opacity:1;stroke:#35271c;stroke-width:.925719;stroke-linecap:round;stroke-linejoin:round;stroke-miterlimit:4;stroke-dasharray:none;stroke-opacity:1"/><rect width="2.9439113" height="8.3537979" x="97.847466" y="83.144646" rx="0.26634058" ry="0.25192741" style="fill:#30839e;fill-opacity:1;stroke:#c8c8c8;stroke-width:.906619;stroke-linecap:round;stroke-linejoin:round;stroke-miterlimit:4;stroke-dasharray:none;stroke-opacity:1"/><rect width="5.8917327" height="9.5253229" x="94.572479" y="82.555138" rx="0.26459783" ry="0.26438412" style="fill:#ab7f60;fill-opacity:1;stroke:#453225;stroke-width:.925719;stroke-linecap:round;stroke-linejoin:round;stroke-miterlimit:4;stroke-dasharray:none;stroke-opacity:1"/></g><circle cx="-19.363213" cy="46.402077" r="4.2107244" style="fill:#0094b2;fill-opacity:.3;fill-rule:evenodd;stroke:#005666;stroke-width:.777939;stroke-linecap:round;stroke-linejoin:round;stroke-dasharray:none;stroke-opacity:.8;stop-color:#000;opacity:1" transform="rotate(-79.901)"/><circle cx="-19.363213" cy="46.402077" r="4.2107244" style="fill:#0094b2;fill-opacity:.3;fill-rule:evenodd;stroke:#005666;stroke-width:.777939;stroke-linecap:round;stroke-linejoin:round;stroke-dasharray:none;stroke-opacity:.8;stop-color:#000;opacity:1" transform="rotate(-79.901)"/><circle cx="-19.415215" cy="46.405251" r="1.908167" style="fill:#b2b2b2;fill-opacity:1;fill-rule:evenodd;stroke:gray;stroke-width:.677984;stroke-linecap:round;stroke-linejoin:round;stroke-dasharray:none;stroke-opacity:1;stop-color:#000;opacity:1" transform="rotate(-79.901)"/><circle cx="-23.682549" cy="35.081276" r="4.2107244" style="fill:#0094b2;fill-opacity:.3;fill-rule:evenodd;stroke:#005666;stroke-width:.777939;stroke-linecap:round;stroke-linejoin:round;stroke-dasharray:none;stroke-opacity:.8;stop-color:#000;opacity:1" transform="rotate(-79.901)"/><circle cx="-23.682549" cy="35.081276" r="4.2107244" style="fill:#0094b2;fill-opacity:.3;fill-rule:evenodd;stroke:#005666;stroke-width:.777939;stroke-linecap:round;stroke-linejoin:round;stroke-dasharray:none;stroke-opacity:.8;stop-color:#000;opacity:1" transform="rotate(-79.901)"/><circle cx="-23.73455" cy="35.08445" r="1.908167" style="fill:#b2b2b2;fill-opacity:1;fill-rule:evenodd;stroke:gray;stroke-width:.677984;stroke-linecap:round;stroke-linejoin:round;stroke-dasharray:none;stroke-opacity:1;stop-color:#000;opacity:1" transform="rotate(-79.901)"/></svg>