<svg xmlns="http://www.w3.org/2000/svg" width="550" height="531.48401" viewBox="0 0 145.52083 140.62181"><g style="fill:none"><path fill="#5b3e24" d="m323.82 201.546-75.392 54.492-46.281-52.253-19.408-69.421-12.69 61.956 31.351 95.548 39.563 16.422 51.506 50.76 2.986 93.308 63.45 52.253-33.591-55.239 20.154-90.322-32.844-50.76h32.844l62.704 26.127 20.154 44.041v-51.506L402.2 291.868l-100.773-29.112 37.323-35.084 48.52-26.126z" style="opacity:.9;fill:#4c3f33;fill-opacity:1;stroke-width:1.49293" transform="scale(.26458)"/><g style="fill:#333;fill-opacity:1;stroke:#171717;stroke-width:2.6346;stroke-dasharray:none;stroke-opacity:1"><g style="fill:#333;fill-opacity:1;stroke:#171717;stroke-width:2.6346;stroke-linecap:round;stroke-linejoin:round;stroke-dasharray:none;stroke-opacity:1"><path d="M-448.958-345.133h8.72l-1.045 3.901h-7.337l-1.063-3.97z" style="opacity:1;fill:#333;fill-opacity:1;stroke:#171717;stroke-width:2.6346;stroke-linecap:round;stroke-linejoin:round;stroke-dasharray:none;stroke-opacity:1;stop-color:#000" transform="matrix(-.35838 .73411 -.89863 -.4387 -410.077 265.844)"/></g><path d="M-426.951-347.084h12.628v3.142h-12.68z" style="fill:#333;fill-opacity:1;stroke:#171717;stroke-width:2.6346;stroke-linecap:round;stroke-linejoin:round;stroke-dasharray:none;stroke-opacity:1;stop-color:#000" transform="matrix(-.35838 .73411 -.89863 -.4387 -401.565 247.895)"/></g><path fill="#6d4a2c" stroke="#1b1917" stroke-linejoin="round" stroke-miterlimit="16" stroke-width="8.95759" d="m297.359 262.784 67.662 4.534 51.772-25.335 82.613 25.334-69.326 6.196-46.333 32.357-72.211 2.564 50.046 80.46 64.127 21.99 30.217 69.66-55.382-45.905-72.409-14.174-49.102-75.598c-17.218 36.316-30.77 56.835-30.77 56.835l-78.207 29.739-52.872 48.466 31.944-67.19 66.09-40.756s16.425-27.252 25.902-60.912l-43.526-26.107h-45.162l-53.974-62.786 53.974 28.64 56.178-5.509 36.842 12.281 7.107-42.245 22.539-50.445-16.921-85.918 46.263 90.324z" style="fill:#5c4b3d;fill-opacity:1;stroke:#1b1713;stroke-width:9;stroke-miterlimit:16;stroke-dasharray:none;stroke-opacity:1" transform="scale(.26458)"/><path fill="#3a4f3f" d="M226.034 276.192c72.558 0 131.378-58.82 131.378-131.378S298.592 13.436 226.034 13.436 94.656 72.256 94.656 144.814s58.82 131.378 131.378 131.378m181.391 241.855C486.167 518.047 550 454.548 550 376.22s-63.833-141.83-142.575-141.83-142.575 63.5-142.575 141.83 63.833 141.828 142.575 141.828" opacity="0.95" style="fill:#527b42;fill-opacity:.85;stroke-width:1.49293" transform="scale(.26458)"/><path fill="#3a4f3f" d="M429.819 340.388c58.129 0 105.252-47.122 105.252-105.251s-47.123-105.252-105.252-105.252-105.252 47.123-105.252 105.252S371.69 340.388 429.82 340.388" opacity="0.95" style="fill:#527b42;fill-opacity:.85;stroke-width:1.49293" transform="scale(.26458)"/><path fill="#3a4f3f" fill-rule="evenodd" d="M210.95 285.316c5.538-50.747-26.821-99.42-77.948-113.118-56.44-15.124-114.38 18.096-129.413 74.198-10.133 37.815 1.815 76.373 27.964 102.123a122 122 0 0 0-2.14 7.112c-17.206 64.214 21.175 130.291 85.726 147.587 64.551 17.297 130.828-20.737 148.035-84.95 13.963-52.115-8.686-105.456-52.223-132.952" clip-rule="evenodd" opacity="0.95" style="fill:#527b42;fill-opacity:.85;stroke-width:1.49293" transform="scale(.26458)"/><path fill="#485e52" d="M264.85 180.645c50.295 0 91.069-40.439 91.069-90.323S315.145 0 264.85 0s-91.069 40.439-91.069 90.322 40.774 90.323 91.07 90.323m170.193 350.839c55.243 0 100.027-44.784 100.027-100.027s-44.784-100.026-100.027-100.026-100.026 44.783-100.026 100.026S379.8 531.484 435.044 531.484M109.585 292.615c35.454 0 64.196-28.742 64.196-64.196 0-35.455-28.742-64.197-64.196-64.197S45.39 192.964 45.39 228.42s28.742 64.196 64.196 64.196m369.5 23.885c35.866 0 64.942-28.741 64.942-64.196s-29.076-64.196-64.942-64.196-64.943 28.742-64.943 64.196c0 35.455 29.077 64.196 64.943 64.196" opacity="0.85" style="opacity:.8;fill:#527b42;fill-opacity:.8;stroke-width:1.49293" transform="scale(.26458)"/><path fill="#485e52" fill-rule="evenodd" d="M244.772 396.869c36.333-3.037 64.866-33.18 64.866-69.917 0-38.752-31.749-70.168-70.914-70.168-39.164 0-70.914 31.416-70.914 70.168q0 2.57.183 5.092a92 92 0 0 0-10.634-.613c-50.295 0-91.069 40.773-91.069 91.069s40.774 91.068 91.069 91.068 91.069-40.773 91.069-91.068c0-8.9-1.277-17.502-3.656-25.631" clip-rule="evenodd" opacity="0.85" style="opacity:.8;fill:#527b42;fill-opacity:.8;stroke-width:1.49293" transform="scale(.26458)"/><path fill="#5f926a" d="M238.486 248.796c-11.483 2.215-32.807 16.174-21.026 26.429 12.64 9.177 21.452-14.735 21.032-26.423l.005-.006q-.006.003-.01 0z" style="fill:#588a42;fill-opacity:.903267;stroke-width:1.49293" transform="scale(.26458)"/><path fill="#587e60" d="m191.33 239.907.007.009c-1.116 15.198 9.207 46.706 26.123 35.31 15.849-12.839-11.258-31.932-26.116-35.315l-.006-.009v.006l-.008-.002z" style="fill:#609648;fill-opacity:.898659;stroke-width:1.49293" transform="scale(.26458)"/><path fill="#77a37a" d="M190.663 271.22h.006c6.102 7.367 24.304 16.872 26.79 4.006 1.39-13.028-18.798-9.27-26.79-4.013h-.006c0-.002.002.002 0 0 0 0 .002.005 0 .006" style="fill:#588a42;fill-opacity:.903267;stroke-width:1.49293" transform="scale(.26458)"/><path fill="#5f926a" d="M533.155 421.5c-4.367 10.85-22.141 29.115-29.958 15.592-6.593-14.16 18.563-18.243 29.955-15.599l.005-.003z" style="fill:#588a42;fill-opacity:.903267;stroke-width:1.49293" transform="scale(.26458)"/><path fill="#77a37a" d="M502.011 464.16v-.006c-6.066-7.398-11.918-27.079 1.186-27.061 13.054 1.123 5.507 20.22-1.18 27.06 0 .003-.005.006-.006.007" style="fill:#588a42;fill-opacity:.903267;stroke-width:1.49293" transform="scale(.26458)"/><path fill="#587e60" d="m545.094 450.307-.01-.005c-14.008 6-47.162 6.491-41.89-13.212 6.984-19.164 33.86.255 41.891 13.203l.012.005-.005.003z" style="fill:#609648;fill-opacity:.898659;stroke-width:1.49293" transform="scale(.26458)"/><path fill="#77a37a" d="M171.45 475.128c9.753-6.453 24.083-27.528 9.269-32.475-15.194-3.622-14.152 21.841-9.277 32.474l-.003.006z" style="fill:#588a42;fill-opacity:.903267;stroke-width:1.49293" transform="scale(.26458)"/><path fill="#5f926a" d="m202.065 481.052-.006-.009c3.07-14.926-3.092-47.505-21.339-38.39-17.376 10.682 7.035 33.119 21.331 38.395l.005.009.002-.006q.004.003.008.002z" style="fill:#609648;fill-opacity:.898659;stroke-width:1.49293" transform="scale(.26458)"/><path fill="#5f926a" d="M84.783 192.98c2.425-11.441 16.769-32.505 26.809-20.54 8.944 12.804-15.125 21.18-26.805 20.547l-.004.003z" style="fill:#588a42;fill-opacity:.903267;stroke-width:1.49293" transform="scale(.26458)"/><path fill="#77a37a" d="M108.076 145.575v.007c7.254 6.236 16.425 24.608 3.517 26.858-13.054 1.153-8.925-18.963-3.523-26.857z" style="fill:#588a42;fill-opacity:.903267;stroke-width:1.49293" transform="scale(.26458)"/><path fill="#587e60" d="m68.039 166.674.012.003c12.757-8.332 45.326-14.555 43.544 5.764-3.562 20.083-33.392 5.608-43.545-5.755l-.012-.003.005-.003z" style="fill:#609648;fill-opacity:.898659;stroke-width:1.49293" transform="scale(.26458)"/><path fill="#5f926a" d="M323.531 58.245c10.717 4.689 28.444 22.997 14.695 30.409-14.35 6.17-17.684-19.097-14.702-30.406l-.002-.006z" style="fill:#588a42;fill-opacity:.903267;stroke-width:1.49293" transform="scale(.26458)"/><path fill="#587e60" d="m381.382 80.428-.01.003c-9.49 11.922-38.448 28.07-43.146 8.223-2.936-20.185 29.934-15.826 43.144-8.232l.01-.003-.004.005q.005.001.006.004" style="fill:#609648;fill-opacity:.898659;stroke-width:1.49293" transform="scale(.26458)"/><path fill="#77a37a" d="m355.926 109.167-.005-.005c-9.487-1.224-27.246-11.535-17.695-20.508 10.271-8.135 17.875 10.94 17.7 20.504 0 0-.002.007 0 .009" style="fill:#588a42;fill-opacity:.903267;stroke-width:1.49293" transform="scale(.26458)"/></g></svg>