<svg xmlns="http://www.w3.org/2000/svg" width="308.90002" height="126.45003" viewBox="0 0 81.729799 33.45657"><path d="M106.521 215.08v-80.143h29.435v80.143z" class="st2" style="clip-rule:evenodd;fill:#4e5c3d;fill-opacity:1;fill-rule:evenodd;stroke:none;stroke-width:.132292;stroke-opacity:1" transform="rotate(90 160.192 55.682)"/><path d="M106.521 215.08v-80.143h29.435v80.143z" class="st3" style="fill:none;fill-opacity:1;stroke:#1a1f14;stroke-width:1.5875;stroke-linejoin:round;stroke-miterlimit:10;stroke-dasharray:none;stroke-opacity:1" transform="rotate(90 160.192 55.682)"/><path fill="none" d="M110.225 214.352V134.21" class="st1" style="clip-rule:evenodd;fill-opacity:0;fill-rule:evenodd;stroke-width:.132292" transform="rotate(90 160.192 55.682)"/><path d="M110.225 214.352V134.21" class="st4" style="fill:none;fill-opacity:1;stroke:#1a1f14;stroke-width:1.05833;stroke-linejoin:round;stroke-miterlimit:10;stroke-dasharray:none;stroke-opacity:1" transform="rotate(90 160.192 55.682)"/><path fill="none" d="M117.647 214.352V134.21" class="st1" style="clip-rule:evenodd;fill-opacity:0;fill-rule:evenodd;stroke-width:.132292" transform="rotate(90 160.192 55.682)"/><path d="M117.647 214.352V134.21" class="st4" style="fill:none;fill-opacity:1;stroke:#1a1f14;stroke-width:1.05833;stroke-linejoin:round;stroke-miterlimit:10;stroke-dasharray:none;stroke-opacity:1" transform="rotate(90 160.192 55.682)"/><path fill="none" d="M125.069 214.352V134.21" class="st1" style="clip-rule:evenodd;fill-opacity:0;fill-rule:evenodd;stroke-width:.132292" transform="rotate(90 160.192 55.682)"/><path d="M125.069 214.352V134.21" class="st4" style="fill:none;fill-opacity:1;stroke:#1a1f14;stroke-width:1.05833;stroke-linejoin:round;stroke-miterlimit:10;stroke-dasharray:none;stroke-opacity:1" transform="rotate(90 160.192 55.682)"/><path fill="none" d="M132.49 214.352V134.21" class="st1" style="clip-rule:evenodd;fill-opacity:0;fill-rule:evenodd;stroke-width:.132292" transform="rotate(90 160.192 55.682)"/><path d="M132.49 214.352V134.21" class="st4" style="fill:none;fill-opacity:1;stroke:#1a1f14;stroke-width:1.05833;stroke-linejoin:round;stroke-miterlimit:10;stroke-dasharray:none;stroke-opacity:1" transform="rotate(90 160.192 55.682)"/><path d="M105.304 146.182v-7.064h31.87v7.064z" class="st2" style="clip-rule:evenodd;fill:#4e5c3d;fill-opacity:1;fill-rule:evenodd;stroke-width:.132292" transform="rotate(90 160.192 55.682)"/><path d="M105.304 146.182v-7.064h31.87v7.064z" class="st3" style="fill:none;fill-opacity:1;stroke:#1a1f14;stroke-width:1.5875;stroke-linejoin:round;stroke-miterlimit:10;stroke-dasharray:none;stroke-opacity:1" transform="rotate(90 160.192 55.682)"/><path d="M135.308 141.737a.65.65 0 0 1-.648-.648.63.63 0 0 1 .635-.635.65.65 0 0 1 .648.648.627.627 0 0 1-.635.635" class="st5" style="clip-rule:evenodd;fill:#999;fill-rule:evenodd;stroke-width:.132292" transform="rotate(90 160.192 55.682)"/><path d="M135.308 141.737a.65.65 0 0 1-.648-.648.63.63 0 0 1 .635-.635.65.65 0 0 1 .648.648.627.627 0 0 1-.635.635z" class="st6" style="fill:#535353;fill-opacity:1;stroke:#181b17;stroke-width:.396875;stroke-linejoin:round;stroke-miterlimit:10;stroke-dasharray:none" transform="rotate(90 160.192 55.682)"/><path d="M135.308 144.899a.65.65 0 0 1-.648-.648.63.63 0 0 1 .635-.635.65.65 0 0 1 .648.648.627.627 0 0 1-.635.635" class="st5" style="clip-rule:evenodd;fill:#999;fill-rule:evenodd;stroke-width:.132292" transform="rotate(90 160.192 55.682)"/><path d="M135.308 144.899a.65.65 0 0 1-.648-.648.63.63 0 0 1 .635-.635.65.65 0 0 1 .648.648.627.627 0 0 1-.635.635z" class="st6" style="fill:#535353;fill-opacity:1;stroke:#181b17;stroke-width:.396875;stroke-linejoin:round;stroke-miterlimit:10;stroke-dasharray:none" transform="rotate(90 160.192 55.682)"/><path d="M107.156 143.59a.65.65 0 0 1 .648.648.63.63 0 0 1-.635.635.65.65 0 0 1-.648-.649c0-.344.278-.635.635-.635" class="st5" style="clip-rule:evenodd;fill:#999;fill-rule:evenodd;stroke-width:.132292" transform="rotate(90 160.192 55.682)"/><path d="M107.156 143.59a.65.65 0 0 1 .648.648.63.63 0 0 1-.635.635.65.65 0 0 1-.648-.649c0-.344.278-.635.635-.635z" class="st6" style="fill:#535353;fill-opacity:1;stroke:#181b17;stroke-width:.396875;stroke-linejoin:round;stroke-miterlimit:10;stroke-dasharray:none" transform="rotate(90 160.192 55.682)"/><path d="M107.156 140.428a.65.65 0 0 1 .648.648.63.63 0 0 1-.635.635.65.65 0 0 1-.648-.648c0-.358.278-.635.635-.635" class="st5" style="clip-rule:evenodd;fill:#999;fill-rule:evenodd;stroke-width:.132292" transform="rotate(90 160.192 55.682)"/><path d="M107.156 140.428a.65.65 0 0 1 .648.648.63.63 0 0 1-.635.635.65.65 0 0 1-.648-.648c0-.358.278-.635.635-.635z" class="st6" style="fill:#535353;fill-opacity:1;stroke:#181b17;stroke-width:.396875;stroke-linejoin:round;stroke-miterlimit:10;stroke-dasharray:none" transform="rotate(90 160.192 55.682)"/><path d="m131.538 148.286-1.733 2.05-1.337-.635.16-1.27-.795-1.111 1.575.794.238 1.11zm-4.618 51.937 1.47.648 1.56-.278 1.19-1.19-1.097-.463-.913.727h-1.098l-1.376-.555zm-15.175-29.107 2.5-1.495.952-1.68.331-4.472-1.15 2.448-.596 2.606z" class="st7" style="clip-rule:evenodd;fill:#414a36;fill-opacity:1;fill-rule:evenodd;stroke-width:.132292" transform="rotate(90 160.192 55.682)"/><path d="M105.304 210.913v-7.065h31.87v7.064z" class="st2" style="clip-rule:evenodd;fill:#4e5c3d;fill-opacity:1;fill-rule:evenodd;stroke-width:.132292" transform="rotate(90 160.192 55.682)"/><path d="M105.304 210.913v-7.065h31.87v7.064z" class="st3" style="fill:none;fill-opacity:1;stroke:#1a1f14;stroke-width:1.5875;stroke-linejoin:round;stroke-miterlimit:10;stroke-dasharray:none;stroke-opacity:1" transform="rotate(90 160.192 55.682)"/><path d="M135.308 206.454a.65.65 0 0 1-.648-.648.63.63 0 0 1 .635-.635.65.65 0 0 1 .648.648.627.627 0 0 1-.635.635" class="st5" style="clip-rule:evenodd;fill:#999;fill-rule:evenodd;stroke-width:.132292" transform="rotate(90 160.192 55.682)"/><path d="M135.308 206.454a.65.65 0 0 1-.648-.648.63.63 0 0 1 .635-.635.65.65 0 0 1 .648.648.627.627 0 0 1-.635.635z" class="st6" style="fill:#535353;fill-opacity:1;stroke:#181b17;stroke-width:.396875;stroke-linejoin:round;stroke-miterlimit:10;stroke-dasharray:none" transform="rotate(90 160.192 55.682)"/><path d="M135.308 209.63a.65.65 0 0 1-.648-.649.63.63 0 0 1 .635-.635.65.65 0 0 1 .648.648.627.627 0 0 1-.635.635" class="st5" style="clip-rule:evenodd;fill:#999;fill-rule:evenodd;stroke-width:.132292" transform="rotate(90 160.192 55.682)"/><path d="M135.308 209.63a.65.65 0 0 1-.648-.649.63.63 0 0 1 .635-.635.65.65 0 0 1 .648.648.627.627 0 0 1-.635.635z" class="st6" style="fill:#535353;fill-opacity:1;stroke:#181b17;stroke-width:.396875;stroke-linejoin:round;stroke-miterlimit:10;stroke-dasharray:none" transform="rotate(90 160.192 55.682)"/><path d="M107.156 208.32a.65.65 0 0 1 .648.648.63.63 0 0 1-.635.635.65.65 0 0 1-.648-.648c0-.358.278-.635.635-.635" class="st5" style="clip-rule:evenodd;fill:#999;fill-rule:evenodd;stroke-width:.132292" transform="rotate(90 160.192 55.682)"/><path d="M107.156 208.32a.65.65 0 0 1 .648.648.63.63 0 0 1-.635.635.65.65 0 0 1-.648-.648c0-.358.278-.635.635-.635z" class="st6" style="fill:#535353;fill-opacity:1;stroke:#181b17;stroke-width:.396875;stroke-linejoin:round;stroke-miterlimit:10;stroke-dasharray:none" transform="rotate(90 160.192 55.682)"/><path d="M107.156 205.145a.65.65 0 0 1 .648.648.63.63 0 0 1-.635.635.65.65 0 0 1-.648-.648c0-.344.278-.635.635-.635" class="st5" style="clip-rule:evenodd;fill:#999;fill-rule:evenodd;stroke-width:.132292" transform="rotate(90 160.192 55.682)"/><path d="M107.156 205.145a.65.65 0 0 1 .648.648.63.63 0 0 1-.635.635.65.65 0 0 1-.648-.648c0-.344.278-.635.635-.635z" class="st6" style="fill:#535353;fill-opacity:1;stroke:#181b17;stroke-width:.396875;stroke-linejoin:round;stroke-miterlimit:10;stroke-dasharray:none" transform="rotate(90 160.192 55.682)"/><g style="fill:none;fill-opacity:1;stroke:#1a1f14;stroke-width:.663618;stroke-dasharray:none;stroke-opacity:1" transform="rotate(-30 87.769 36.135)scale(.7974)"><circle cx="89.627602" cy="16.421349" r="2.7429442" style="fill:none;fill-opacity:1;fill-rule:evenodd;stroke:#1a1f14;stroke-width:.663618;stroke-linecap:round;stroke-linejoin:round;stroke-miterlimit:20;stroke-dasharray:none;stroke-opacity:1"/><path d="M89.628 12.37v8.103m-4.052-4.052h8.104" style="fill:none;fill-opacity:1;fill-rule:evenodd;stroke:#1a1f14;stroke-width:.663618;stroke-linecap:round;stroke-linejoin:round;stroke-miterlimit:20;stroke-dasharray:none;stroke-opacity:1"/></g></svg>