<svg xmlns="http://www.w3.org/2000/svg" xmlns:xlink="http://www.w3.org/1999/xlink" width="392.94507" height="898.28461" viewBox="0 0 103.96671 237.67113"><defs><pattern xlink:href="#a" id="b" x="0" y="0" patternTransform="translate(-489.28 1760.321)scale(2.2256)" preserveAspectRatio="xMidYMid"/><pattern id="a" width="2.5" height="1" patternTransform="scale(2)" patternUnits="userSpaceOnUse" preserveAspectRatio="xMidYMid" style="fill:#161b13"><path d="M0-.5h1v2H0z" style="stroke:none"/></pattern></defs><g transform="rotate(-90.033 97.398 139.668)scale(.6903)"><rect width="47.895199" height="8.3710899" x="64.496536" y="62.820606" rx="0.36639714" ry="0.36639714" style="fill:#292929;fill-opacity:1;stroke:#171717;stroke-width:3.20585;stroke-linejoin:round;stroke-opacity:1"/><rect width="47.895199" height="10.002328" x="63.617371" y="200.1956" rx="0.36639714" ry="0.36639714" style="fill:#292929;fill-opacity:1;stroke:#171717;stroke-width:3.20585;stroke-linejoin:round;stroke-opacity:1"/><rect width="10.644747" height="11.975341" x="331.26614" y="178.80515" rx="0.34735864" ry="0.34735864" style="fill:#333;fill-opacity:1;stroke:#171717;stroke-width:3.03927;stroke-linejoin:round;stroke-opacity:1"/><rect width="47.895199" height="8.3710899" x="230.66702" y="62.916168" rx="0.36639714" ry="0.36639714" style="fill:#292929;fill-opacity:1;stroke:#171717;stroke-width:3.20585;stroke-linejoin:round;stroke-opacity:1"/><rect width="47.895199" height="10.002328" x="229.78786" y="200.29117" rx="0.36639714" ry="0.36639714" style="fill:#292929;fill-opacity:1;stroke:#171717;stroke-width:3.20585;stroke-linejoin:round;stroke-opacity:1"/><path d="M86.406 68.278h244.872c.193 0 .348.155.348.347v136.202a.347.347 0 0 1-.348.348H86.406c-.193 0-81.576-13.357-81.576-13.55l-3.31-3.45.358-103.785 2.996-3.517c.124-.147 81.34-12.595 81.532-12.595Z" style="fill:#2f3725;fill-opacity:1;stroke:#161b13;stroke-width:4.77763;stroke-linejoin:round;stroke-dasharray:none;stroke-opacity:1"/><path d="M256.922 86.985v-3.78h9.3V81.87h-9.3v-9.393h-2.695v9.393h-18.863v1.335h18.863v3.78z" style="fill:#171717;fill-opacity:1;fill-rule:nonzero;stroke:none;stroke-width:2e-08;stroke-linejoin:round;stroke-dasharray:none;stroke-opacity:1"/><rect width="25.521141" height="4.8219671" x="240.94926" y="64.867096" rx="0.34735864" ry="0.34735864" style="fill:#353d29;fill-opacity:1;stroke:#161b13;stroke-width:3.03927;stroke-linejoin:round;stroke-opacity:1"/><path d="M235.233 85.552c2.06-11.607 8.98-12.616 15.55-14.492 6.572 1.835 13.493 2.885 15.552 14.492-5.43.152-10.925.249-15.551 1.76-4.626-1.479-10.121-1.608-15.551-1.76z" style="fill:none;fill-opacity:1;fill-rule:nonzero;stroke:#171717;stroke-width:1.78462;stroke-linejoin:round;stroke-dasharray:none;stroke-opacity:1"/><text xml:space="preserve" x="-248.49609" y="-96.526436" style="font-style:normal;font-variant:normal;font-weight:400;font-stretch:normal;font-size:13.5032px;font-family:Aharoni;-inkscape-font-specification:Aharoni;fill:#171717;fill-opacity:1;stroke:#171717;stroke-width:.434593;stroke-linejoin:round;stroke-dasharray:none;stroke-opacity:1" transform="matrix(-1.2791 .00006 .00003 -.7818 0 0)"><tspan x="-248.49609" y="-96.526436" style="font-style:normal;font-variant:normal;font-weight:400;font-stretch:normal;font-family:Aharoni;-inkscape-font-specification:Aharoni;stroke-width:.434593;stroke-dasharray:none">N.S.D.</tspan></text><rect width="87.153877" height="92.143593" x="231.35101" y="90.377747" rx="0.34735864" ry="0.34735864" style="fill:#293121;fill-opacity:1;stroke:#161b13;stroke-width:3.90844;stroke-linejoin:round;stroke-dasharray:none;stroke-opacity:1"/><rect width="45.240177" height="16.632418" x="132.00972" y="-85.330956" rx="0.34735864" ry="0.34735864" style="fill:#262e1f;fill-opacity:1;stroke:#161b13;stroke-width:3.03927;stroke-linejoin:round;stroke-opacity:1" transform="scale(1 -1)"/><path d="m85.772 68.699 5.738 17.88-.208 100.251-4.033 17.755-39.253-26.445-.499-82.83Z" style="fill:#353d29;fill-opacity:1;stroke:#161b13;stroke-width:3.03927;stroke-linejoin:round;stroke-opacity:1"/><path d="M91.58 86.625h133.85c.193 0 .348.155.348.347v99.508a.347.347 0 0 1-.348.348H91.58c-.192 0-32.281-19.033-32.281-19.226l-.056-61.988c0-.193 32.145-18.99 32.337-18.99Z" style="fill:none;fill-opacity:1;stroke:#161b13;stroke-width:3.90844;stroke-linejoin:round;stroke-dasharray:none;stroke-opacity:1"/><rect width="59.211411" height="54.886978" x="231.68369" y="126.63642" rx="0.34735864" ry="0.34735864" style="fill:url(#b);fill-opacity:1;stroke:#161b13;stroke-width:3.03927;stroke-linejoin:round;stroke-opacity:1"/><path d="M3.503 83.961 47.35 95.775l.697 81.996-44.096 10.858" style="fill:#353d29;fill-opacity:1;stroke:#161b13;stroke-width:3.03927;stroke-linejoin:round;stroke-opacity:1"/><path d="m51.612 133.669-.082-31.755 3.53 3.057.34 28.344zm-.002 6.167-.09 31.755 3.53-3.059.35-28.344z" style="fill:#1e3348;fill-opacity:1;stroke:#161b13;stroke-width:2.4598;stroke-linejoin:round;stroke-dasharray:none;stroke-opacity:1"/><rect width="25.619797" height="28.343758" x="60.306606" y="106.03312" rx="0.34735864" ry="0.34735864" style="fill:#353d29;fill-opacity:1;stroke:#161b13;stroke-width:3.03927;stroke-linejoin:round;stroke-opacity:1" transform="skewX(-.005)"/><rect width="25.619797" height="28.343758" x="60.306606" y="140.28442" rx="0.34735864" ry="0.34735864" style="fill:#353d29;fill-opacity:1;stroke:#161b13;stroke-width:3.03927;stroke-linejoin:round;stroke-opacity:1" transform="skewX(-.005)"/><path d="m59.205 181.106 5.821-4.616 15.219 9.065.25 5.364zm.001-88.803 5.821 4.616 15.219-9.065.25-5.364Z" style="fill:#1e3348;fill-opacity:1;stroke:#161b13;stroke-width:3.03927;stroke-linejoin:round;stroke-opacity:1"/><rect width="45.240177" height="16.632418" x="132.00972" y="188.45195" rx="0.34735864" ry="0.34735864" style="fill:#262e1f;fill-opacity:1;stroke:#161b13;stroke-width:3.03927;stroke-linejoin:round;stroke-opacity:1"/><rect width="14.470202" height="3.1601596" x="146.64577" y="192.49274" rx="0.34735864" ry="0.34735864" style="fill:#353d29;fill-opacity:1;stroke:#161b13;stroke-width:3.03927;stroke-linejoin:round;stroke-opacity:1"/><rect width="16.750847" height="39.252506" x="7.2694302" y="96.973862" rx="0.34735864" ry="0.34735864" style="fill:#353d29;fill-opacity:1;stroke:#161b13;stroke-width:3.03927;stroke-linejoin:round;stroke-opacity:1" transform="skewX(-.003)"/><rect width="37.589264" height="14.303879" x="266.06705" y="190.78049" rx="0.34735864" ry="0.34735864" style="fill:#353d29;fill-opacity:1;stroke:#161b13;stroke-width:3.03927;stroke-linejoin:round;stroke-opacity:1"/><rect width="12.640638" height="0.66529667" x="278.37503" y="196.76816" rx="0.34735864" ry="0.34735864" style="fill:#353d29;fill-opacity:1;stroke:#161b13;stroke-width:3.03927;stroke-linejoin:round;stroke-opacity:1"/><path d="m318.454 90.153 12.23-20.229m-12.23 20.229 12.23-20.229m-12.23 112.269 12.23 20.229" style="fill:#353d29;fill-opacity:1;stroke:#161b13;stroke-width:3.03927;stroke-linejoin:round;stroke-opacity:1"/><path d="m12.67 193.563-.47 12.232c5.884 9.215 15.845-2.196 25.168-9.527M12.67 78.745l-.47-12.231c5.884-9.216 15.845 2.195 25.168 9.526" style="fill:none;fill-opacity:1;stroke:#161b13;stroke-width:3.03927;stroke-linejoin:round;stroke-opacity:1"/><g transform="translate(0 60.234)scale(.71794)"><rect width="20.155226" height="4.4017162" x="204.26033" y="-30.555241" rx="0.48382816" ry="0.48382816" style="fill:#353d29;fill-opacity:1;stroke:#161b13;stroke-width:4.23333;stroke-linejoin:round;stroke-opacity:1" transform="scale(1 -1)"/><path d="M218.872 132.138c-2.636 7.065-13.303 54.634-55.533 29.015" style="fill:#353d29;fill-opacity:1;stroke:#161b13;stroke-width:4.23333;stroke-linejoin:round;stroke-opacity:1"/><path d="m215.233 12.422-65.562 37.762-33.129 61.855 34.519 36.836 12.742 12.278 64.635-34.519 40.31-62.55z" style="fill:#353d29;fill-opacity:1;stroke:#161b13;stroke-width:6.04932;stroke-linejoin:round;stroke-dasharray:none;stroke-opacity:1"/><rect width="20.850233" height="26.178627" x="50.945816" y="182.28598" rx="0.48382816" ry="0.48382816" style="fill:#353d29;fill-opacity:1;stroke:#161b13;stroke-width:4.23333;stroke-linejoin:round;stroke-opacity:1" transform="rotate(-45)"/><rect width="5.7917314" height="18.765209" x="157.65771" y="71.620811" rx="0.48382816" ry="0.48382816" style="fill:#353d29;fill-opacity:1;stroke:#161b13;stroke-width:4.23333;stroke-linejoin:round;stroke-opacity:1" transform="rotate(-2.224)"/><rect width="44.964783" height="4.7886758" x="-26.466537" y="170.94991" rx="0.48382816" ry="0.48382816" style="fill:#333;fill-opacity:1;stroke:#171717;stroke-width:3.62798;stroke-linejoin:round;stroke-dasharray:none;stroke-opacity:1" transform="rotate(-45)"/><path d="m176.98 67.491 34.319 33.992s24.882-22.666 6.798-40.708-37.863 4.787-41.117 6.716z" style="fill:#353d29;fill-opacity:1;stroke:#161b13;stroke-width:4.23333;stroke-linejoin:round;stroke-opacity:1"/><rect width="29.864576" height="4.2387214" x="-28.511909" y="218.73093" rx="0.48382816" ry="0.48382816" style="fill:#333;fill-opacity:1;stroke:#171717;stroke-width:3.22442;stroke-linejoin:round;stroke-dasharray:none;stroke-opacity:1" transform="rotate(-45)"/><rect width="23.857361" height="11.303223" x="19.565474" y="167.69263" rx="0.48382816" ry="0.48382816" style="fill:#353d29;fill-opacity:1;stroke:#161b13;stroke-width:4.23333;stroke-linejoin:round;stroke-opacity:1" transform="rotate(-45)"/><rect width="41.610397" height="16.149817" x="1.7096407" y="212.77565" rx="0.48382816" ry="0.48382816" style="fill:#353d29;fill-opacity:1;stroke:#161b13;stroke-width:4.23333;stroke-linejoin:round;stroke-opacity:1" transform="rotate(-45)"/><rect width="5.7917314" height="18.765209" x="160.97026" y="-95.430443" rx="0.48382816" ry="0.48382816" style="fill:#353d29;fill-opacity:1;stroke:#161b13;stroke-width:4.23333;stroke-linejoin:round;stroke-opacity:1" transform="rotate(45.001)"/><rect width="5.7917314" height="18.765209" x="39.3624" y="-207.83121" rx="0.48382816" ry="0.48382816" style="fill:#353d29;fill-opacity:1;stroke:#161b13;stroke-width:4.23333;stroke-linejoin:round;stroke-opacity:1" transform="rotate(89.942)"/><rect width="5.7917314" height="18.765209" x="-124.77956" y="-205.81007" rx="0.48382816" ry="0.48382816" style="fill:#353d29;fill-opacity:1;stroke:#161b13;stroke-width:4.23333;stroke-linejoin:round;stroke-opacity:1" transform="rotate(134.942)"/><rect width="5.7917314" height="18.765209" x="232.74286" y="-88.267258" rx="0.48382816" ry="0.48382816" style="fill:#353d29;fill-opacity:1;stroke:#161b13;stroke-width:4.23333;stroke-linejoin:round;stroke-opacity:1" transform="scale(1 -1)rotate(-.058)"/><rect width="5.7917314" height="18.765209" x="226.82385" y="-95.432091" rx="0.48382816" ry="0.48382816" style="fill:#353d29;fill-opacity:1;stroke:#161b13;stroke-width:4.23333;stroke-linejoin:round;stroke-opacity:1" transform="rotate(45.001)"/><rect width="5.7917314" height="18.765209" x="102.34646" y="196.89069" rx="0.48382816" ry="0.48382816" style="fill:#353d29;fill-opacity:1;stroke:#161b13;stroke-width:4.23333;stroke-linejoin:round;stroke-opacity:1" transform="scale(-1 1)rotate(87.776)"/><path d="m147.888 86.376 45.558 45.863" style="fill:#353d29;fill-opacity:1;stroke:#161b13;stroke-width:4.23333;stroke-linejoin:round;stroke-opacity:1"/></g><rect width="13.305934" height="32.266888" x="318.29282" y="90.653313" rx="0.34735864" ry="0.34735864" style="fill:#353d29;fill-opacity:1;stroke:#161b13;stroke-width:3.03927;stroke-linejoin:round;stroke-opacity:1"/><path d="M310.928 193.912a3.058 3.051 0 0 1 3.146-2.96 3.058 3.051 0 0 1 2.967 3.14 3.058 3.051 0 0 1-3.146 2.96 3.058 3.051 0 0 1-2.967-3.14" style="fill:#333;fill-opacity:1;stroke:#171717;stroke-width:3.03927;stroke-linejoin:round;stroke-opacity:1"/><path d="M261.934 188.288c-2.06 11.607-8.98 12.616-15.552 14.493-6.57-1.836-13.491-2.886-15.55-14.493 5.43-.151 10.924-.248 15.55-1.76 4.627 1.479 10.122 1.609 15.552 1.76z" style="fill:none;fill-opacity:1;fill-rule:nonzero;stroke:#171717;stroke-width:1.78462;stroke-linejoin:round;stroke-dasharray:none;stroke-opacity:1"/><path d="M240.257 187.206v3.78h-9.299v1.335h9.3v9.393h2.694v-9.393h18.864v-1.335h-18.864v-3.78z" style="fill:#171717;fill-opacity:1;fill-rule:nonzero;stroke:none;stroke-width:2e-08;stroke-linejoin:round;stroke-dasharray:none;stroke-opacity:1"/><text xml:space="preserve" x="140.20761" y="254.2206" style="font-style:normal;font-variant:normal;font-weight:400;font-stretch:normal;font-size:13.5032px;font-family:Aharoni;-inkscape-font-specification:Aharoni;fill:#171717;fill-opacity:1;stroke:#171717;stroke-width:.434593;stroke-linejoin:round;stroke-dasharray:none;stroke-opacity:1" transform="matrix(1.2791 -.00006 -.00003 .7818 0 0)"><tspan x="140.20761" y="254.2206" style="font-style:normal;font-variant:normal;font-weight:400;font-stretch:normal;font-family:Aharoni;-inkscape-font-specification:Aharoni;stroke-width:.434593;stroke-dasharray:none">N.S.D.</tspan></text><path d="M36.436 177.087c-20.524-1.743-22.31-7.599-25.627-13.16 3.245-5.56 5.103-11.416 25.627-13.16.268 4.596.44 9.246 3.112 13.16-2.615 3.916-2.844 8.565-3.112 13.16z" style="fill:none;fill-opacity:1;fill-rule:nonzero;stroke:#171717;stroke-width:2.18304;stroke-linejoin:round;stroke-dasharray:none;stroke-opacity:1"/><path d="M38.35 158.744h-7.02v-8.233h-2.026v8.233h-16.61v2.28h16.61v16.267h2.026v-16.266h7.018z" style="fill:#171717;fill-opacity:1;fill-rule:nonzero;stroke:none;stroke-width:0;stroke-linejoin:round;stroke-dasharray:none;stroke-opacity:1"/></g></svg>