<svg xmlns="http://www.w3.org/2000/svg" xml:space="preserve" width="131.72615" height="142.25027" viewBox="0 0 34.852544 37.637052"><g transform="translate(68.884 -455.996)"><path d="M34.797-490.893h33.32v1.716h-33.32zm.037 30.45H68.12v1.717H34.834z" style="fill:#263645;fill-opacity:1;stroke:#18242f;stroke-width:1.53091;stroke-linecap:round;stroke-linejoin:round;stroke-dasharray:none;stroke-opacity:1;paint-order:stroke fill markers" transform="scale(-1)"/><path d="M-489.004-67.866h28.56v1.798h-28.56zm-.085 31.062h28.56v1.798h-28.56z" style="fill:#454326;fill-opacity:1;stroke:#18242f;stroke-width:1.53091;stroke-linecap:round;stroke-linejoin:round;stroke-dasharray:none;stroke-opacity:1;paint-order:stroke fill markers" transform="rotate(-90)"/><path d="M35.727-490.111h10.228v30.622H35.727z" style="display:inline;fill:#23374c;fill-opacity:1;stroke:#131e29;stroke-width:2.09398;stroke-linecap:round;stroke-linejoin:round;stroke-dasharray:none;stroke-opacity:1;paint-order:stroke fill markers" transform="scale(-1)"/><path d="M56.942-490.111H67.17v30.597H56.942z" style="fill:#23374c;fill-opacity:1;stroke:#131e29;stroke-width:2.09398;stroke-linecap:round;stroke-linejoin:round;stroke-dasharray:none;stroke-opacity:1;paint-order:stroke fill markers" transform="scale(-1)"/><path d="M46.335-490.111h10.227v30.597H46.335z" style="display:inline;fill:#23374c;fill-opacity:1;stroke:#131e29;stroke-width:2.09398;stroke-linecap:round;stroke-linejoin:round;stroke-dasharray:none;stroke-opacity:1;paint-order:stroke fill markers" transform="scale(-1)"/><circle cx="225.08493" cy="426.55646" r="1.1740885" style="fill:#23384c;fill-opacity:1;stroke:none;stroke-width:1.9525;stroke-linecap:square;stroke-linejoin:miter;stroke-dasharray:none;stroke-opacity:1;paint-order:fill markers stroke" transform="rotate(33.55)"/><path d="M38.36-459.216h3.617v2.434h-3.616zm21.752 0h3.616v2.434h-3.616zM38.36-492.848h3.617v2.434h-3.616zm21.752 0h3.616v2.434h-3.616z" style="fill:#2b3a49;fill-opacity:1;stroke:#1c2631;stroke-width:1.57048;stroke-linecap:round;stroke-linejoin:round;stroke-dasharray:none;stroke-opacity:1;paint-order:stroke fill markers" transform="scale(-1)"/><path d="M35.774-487.114h31.48v4.287h-31.48zm0 20.463h31.48v4.286h-31.48z" style="fill:#2a3d50;fill-opacity:1;stroke:#1a2633;stroke-width:2.09398;stroke-linecap:round;stroke-linejoin:round;stroke-dasharray:none;stroke-opacity:1;paint-order:stroke fill markers" transform="scale(-1)"/><path d="M49.395-459.012h3.299v.738h-3.299zm-4.831-32.438h2.991v1.36h-2.99zm10.599-.075h2.991v1.36h-2.991z" style="fill:#3e3e3e;fill-opacity:1;stroke:#2e2e2e;stroke-width:1.57048;stroke-linecap:round;stroke-linejoin:round;stroke-dasharray:none;stroke-opacity:1;paint-order:stroke fill markers" transform="scale(-1)"/><g style="fill:#3c4c23;fill-opacity:1;stroke:none"><path d="M68.558 220.67s-2.231-.119-3.255.249c-1.328.476-2.734 1.705-3.463 2.434s-7.822 7.877-7.822 7.877l1.325 3.249 7.654-7.566s1.762-2.274 2.71-3.346c.95-1.072 2.85-2.896 2.85-2.896" style="color:#000;fill:#23384c;fill-opacity:1;stroke:none;stroke-linecap:round;-inkscape-stroke:none" transform="matrix(-.14336 -.60024 -.45991 -.11022 63.605 533.864)"/></g><path d="m-51.208 472.804 1.155-.082.637.391.397 1.12-1.377 2.226-2.237-1.378z" style="fill:#23384c;fill-opacity:1;stroke-width:1.1;stroke-linecap:square;paint-order:fill markers stroke"/><g style="fill:#ababab;fill-opacity:1;stroke:none"><path d="M68.61 221.328s-2.232-.12-3.256.248c-1.328.476-2.734 1.705-3.463 2.434s-7.822 7.877-7.822 7.877l1.326 3.249 7.653-7.566s1.762-2.274 2.711-3.346 2.85-2.896 2.85-2.896" style="color:#000;fill:#ababab;fill-opacity:1;stroke:none;stroke-linecap:round;-inkscape-stroke:none" transform="matrix(-.14336 -.60024 -.45991 -.11022 63.605 533.864)"/></g><path d="m-53.204 474.15-.628 1.37 3.509 2.37.846-1.123z" style="fill:#23384c;fill-opacity:1;stroke-width:1.27883;stroke-linecap:square;paint-order:fill markers stroke"/><path d="m-53.348 474.519-.353.617 2.982 2.152.5-.568zm.336 1.647-1.927 2.898 1.047.697 1.942-2.837z" style="fill:#ababab;stroke-width:1.1;stroke-linecap:square;paint-order:fill markers stroke"/><circle cx="324.98978" cy="357.33136" r="1.1740885" style="fill:#23384c;fill-opacity:1;stroke:none;stroke-width:1.9525;stroke-linecap:square;stroke-linejoin:miter;stroke-dasharray:none;stroke-opacity:1;paint-order:fill markers stroke" transform="scale(-1 1)rotate(35.828)"/><circle cx="325.31558" cy="357.09323" r="0.94209135" style="fill:#ababab;fill-opacity:1;stroke:none;stroke-width:1.56669;stroke-linecap:square;stroke-linejoin:miter;stroke-dasharray:none;stroke-opacity:1;paint-order:fill markers stroke" transform="scale(-1 1)rotate(35.828)"/></g></svg>