<svg xmlns="http://www.w3.org/2000/svg" width="663.59906" height="678.3208" fill="none" viewBox="0 0 663.59906 678.3208"><path fill="#5b3e24" d="M418.389 246.398 315.82 299.174l-47.015-72.671-10.876-88.72-27.086 73.596 20.656 122.971 45.447 27.495 53.699 71.814-13.702 114.948 68.063 75.866-30.902-73.97L415.62 443.52l-30.821-68.341 40.266 6.111 72.01 43.698 16.514 57.743 9.584-63.144-25.502-47.873-118.126-54.442 52.285-36.067 64.346-23.001Z" style="stroke:#372516;stroke-width:9;stroke-dasharray:none;stroke-opacity:1"/><path fill="#6d4a2c" stroke="#1b1917" stroke-linejoin="round" stroke-miterlimit="16" stroke-width="8.95759" d="m368.726 313.585 83.902 5.622 64.197-31.415 74.846-58.269-58.37 97.365-57.453 40.124-89.543 3.178 62.057 99.771 79.519 27.269 37.469 86.379-68.674-56.924-89.787-17.576-60.887-93.741c-21.35 45.031-38.154 70.475-38.154 70.475L210.87 522.72l-65.562 60.098 39.61-83.317 81.952-50.537s20.367-33.792 32.119-75.53l-53.973-32.373h-56l-66.928-77.856 66.928 35.514 69.66-6.83 45.685 15.228 8.812-52.385 27.948-62.551L320.14 85.643l57.366 112z" style="stroke:#372516;stroke-width:9;stroke-miterlimit:16;stroke-dasharray:none;stroke-opacity:1"/><path fill="#3a4f3f" d="M280.283 330.21c89.972 0 162.909-72.936 162.909-162.908S370.255 4.392 280.282 4.392c-89.971 0-162.908 72.938-162.908 162.91S190.31 330.21 280.283 330.21m206.523 316.552c97.64 0 176.793-78.739 176.793-175.868s-79.153-175.868-176.793-175.868-176.794 78.74-176.794 175.868c0 97.13 79.154 175.868 176.794 175.868" opacity="0.95" style="fill:#416631;fill-opacity:.85098;stroke-width:1.85124"/><path fill="#3a4f3f" d="M490.913 380.895c72.08 0 130.513-58.432 130.513-130.512s-58.433-130.512-130.513-130.512-130.512 58.432-130.512 130.512 58.432 130.512 130.512 130.512" opacity="0.95" style="fill:#416631;fill-opacity:.85098;stroke-width:1.85124"/><path fill="#3a4f3f" fill-rule="evenodd" d="M261.58 341.524c6.866-62.926-33.26-123.28-96.657-140.267C94.936 182.504 23.09 223.697 4.45 293.264c-12.564 46.89 2.25 94.702 34.675 126.632a151 151 0 0 0-2.653 8.82c-21.336 79.625 26.257 161.56 106.3 183.007 80.045 21.449 162.229-25.713 183.564-105.339 17.315-64.621-10.77-130.764-64.756-164.86" clip-rule="evenodd" opacity="0.95" style="fill:#416631;fill-opacity:.85098;stroke-width:1.85124"/><path fill="#485e52" d="M378.366 224c62.366 0 112.925-50.144 112.925-112S440.732 0 378.366 0 265.44 50.144 265.44 112 316 224 378.366 224m-1.03 454.32c68.501 0 124.033-55.53 124.033-124.032s-55.532-124.033-124.033-124.033-124.033 55.531-124.033 124.033c0 68.501 55.531 124.033 124.033 124.033M178.217 326.099c43.964 0 79.604-35.64 79.604-79.604s-35.64-79.603-79.604-79.603-79.603 35.64-79.603 79.603c0 43.964 35.64 79.604 79.603 79.604" opacity="0.85" style="opacity:.8;fill:#4a7538;fill-opacity:.803922;stroke-width:1.85124"/><path fill="#485e52" d="M531.754 496.78c44.474 0 80.53-35.64 80.53-79.604s-36.056-79.603-80.53-79.603-80.529 35.64-80.529 79.603 36.055 79.603 80.53 79.603m7.586-174.196c44.474 0 80.529-35.64 80.529-79.604s-36.055-79.603-80.529-79.603-80.529 35.64-80.529 79.603c0 43.964 36.055 79.604 80.529 79.604" opacity="0.85" style="opacity:.8;fill:#4a7538;fill-opacity:.803922;stroke-width:1.85124"/><path fill="#485e52" fill-rule="evenodd" d="M303.518 479.85c45.053-3.765 80.434-41.143 80.434-86.697 0-48.053-39.368-87.008-87.934-87.008-48.563 0-87.934 38.955-87.934 87.008q.002 3.186.228 6.315a114 114 0 0 0-13.186-.761c-62.367 0-112.926 50.559-112.926 112.925s50.56 112.926 112.926 112.926 112.925-50.56 112.925-112.926c0-11.035-1.582-21.702-4.533-31.782" clip-rule="evenodd" opacity="0.85" style="opacity:.8;fill:#4a7538;fill-opacity:.803922;stroke-width:1.85124"/><path fill="#5f926a" d="M295.724 296.239c-14.24 2.747-40.681 20.056-26.073 32.772 15.673 11.38 26.6-18.271 26.08-32.765l.006-.007q-.007.003-.013 0" style="fill:#588a42;fill-opacity:.903267;stroke-width:1.85124"/><path fill="#587e60" d="m237.25 285.217.008.01c-1.383 18.846 11.416 57.917 32.393 43.786 19.652-15.92-13.96-39.596-32.384-43.79l-.007-.012v.007l-.01-.002z" style="fill:#609648;fill-opacity:.898659;stroke-width:1.85124"/><path fill="#77a37a" d="M236.423 324.044h.007c7.566 9.136 30.137 20.923 33.219 4.97 1.725-16.157-23.31-11.495-33.219-4.977h-.007c0-.002.002.002 0 0 0 0 .002.006 0 .007" style="fill:#588a42;fill-opacity:.903267;stroke-width:1.85124"/><path fill="#5f926a" d="M602.4 378.067c-5.414 13.454-27.455 36.103-37.148 19.334-8.175-17.557 23.018-22.62 37.145-19.342l.006-.004z" style="fill:#588a42;fill-opacity:.903267;stroke-width:1.85124"/><path fill="#77a37a" d="M563.782 430.966v-.007c-7.522-9.173-14.779-33.578 1.47-33.556 16.187 1.392 6.829 25.073-1.463 33.556 0 .002-.006.006-.007.007" style="fill:#588a42;fill-opacity:.903267;stroke-width:1.85124"/><path fill="#587e60" d="m617.205 413.788-.013-.006c-17.37 7.44-58.48 8.05-51.944-16.383 8.66-23.763 41.986.316 51.946 16.372l.015.006-.006.004z" style="fill:#609648;fill-opacity:.898659;stroke-width:1.85124"/><path fill="#77a37a" d="M212.598 576.892c12.094-8.003 29.864-34.135 11.494-40.27-18.84-4.49-17.548 27.084-11.504 40.269l-.004.007q.007-.005.013-.006z" style="fill:#588a42;fill-opacity:.903267;stroke-width:1.85124"/><path fill="#5f926a" d="m250.561 584.238-.007-.011c3.808-18.509-3.834-58.907-26.46-47.605-21.546 13.246 8.723 41.068 26.45 47.61l.007.012.002-.007.01.002z" style="fill:#609648;fill-opacity:.898659;stroke-width:1.85124"/><path fill="#5f926a" d="M96.368 198.11c3.006-14.188 20.793-40.308 33.243-25.472 11.09 15.878-18.755 26.264-33.238 25.479l-.005.004z" style="fill:#588a42;fill-opacity:.903267;stroke-width:1.85124"/><path fill="#77a37a" d="M125.251 139.326v.009c8.995 7.733 20.367 30.515 4.362 33.305-16.188 1.429-11.067-23.515-4.37-33.304z" style="fill:#588a42;fill-opacity:.903267;stroke-width:1.85124"/><path fill="#587e60" d="m75.605 165.489.015.004c15.82-10.332 56.205-18.048 53.995 7.147-4.418 24.903-41.407 6.954-53.996-7.136l-.016-.004q.005 0 .007-.004-.005-.004-.005-.007" style="fill:#609648;fill-opacity:.898659;stroke-width:1.85124"/><path fill="#5f926a" d="M401.18 59.955c13.288 5.814 35.27 28.517 18.222 37.708-17.794 7.65-21.928-23.68-18.231-37.704l-.002-.007z" style="fill:#588a42;fill-opacity:.903267;stroke-width:1.85124"/><path fill="#587e60" d="m472.915 87.463-.012.003c-11.767 14.783-47.675 34.808-53.501 10.197-3.642-25.03 37.117-19.624 53.499-10.208l.013-.003-.006.006q.006 0 .007.005" style="fill:#609648;fill-opacity:.898659;stroke-width:1.85124"/><path fill="#77a37a" d="m441.35 123.099-.006-.006c-11.765-1.518-33.785-14.304-21.943-25.43 12.737-10.088 22.165 13.565 21.949 25.425 0 0-.002.009 0 .011" style="fill:#588a42;fill-opacity:.903267;stroke-width:1.85124"/></svg>