<svg xmlns="http://www.w3.org/2000/svg" width="651.00183" height="680.63391" fill="none" viewBox="0 0 651.00184 680.63391"><path fill="#5b3e24" d="m295.12 124.514-62.871 115.533s-22.692 19.072-36.742 31.842c-28.365 25.78-69.401 69.402-69.401 69.402l3.266 68.176 16.351-56.319 82.852-44.517 31.435 73.892-73.223 50.7-10.876 75.855 30.381-56.35s38.736-21.027 56.576-32.646c18.971-12.356 29.802-24.494 29.802-24.494l20.41 28.576-13.062 75.525 43.838-82.892-70.375-108.98 83.69-54.706 14.696-61.237-32.118 41.163-67.9 26.197 41.231-109.351 52.334-29.771z" style="opacity:1;stroke:#372516;stroke-width:9;stroke-dasharray:none;stroke-opacity:1" transform="translate(-2.48)scale(1.24)"/><path fill="#6d4a2c" stroke="#1b1917" stroke-linejoin="round" stroke-miterlimit="16" stroke-width="12.3191" d="m232.271 239.638 5.716-40.008-20.004-68.176 42.458-61.645-12.656 72.667 31.843 57.154-7.348 59.602 86.548 17.554 55.928-29.393 66.544 24.086-66.544 8.165-55.928 40.009-83.69-11.024c13.598 34.902 20.819 88.998 20.819 88.998l-26.944 55.113-11.839 50.213-15.514-61.645 15.514-54.296s-11.42-50.427-28.17-78.383L183.69 324.96c-25.754 1.546-61.579-8.769-61.579-8.769l-47.223 20.532 37.984-45.008h51.631l31.027-20.236-24.087-31.841-15.431-40.008-46.197-33.94 66.729 19.505s30.797 48.25 55.727 54.443z" style="stroke:#372516;stroke-width:7.25804;stroke-miterlimit:16;stroke-dasharray:none;stroke-opacity:1" transform="translate(-2.48)scale(1.24)"/><path fill="#3a4f3f" d="M192.954 328.801c0 58.339 46.885 105.63 104.719 105.63S402.39 387.14 402.39 328.8c0-58.337-46.884-105.629-104.718-105.629s-104.719 47.292-104.719 105.63" opacity="0.95" style="fill:#416631;fill-opacity:.85098;stroke-width:1.82119" transform="translate(-2.48)scale(1.24)"/><path fill="#3a4f3f" d="M122.432 425.39c66.512 0 120.432-53.736 120.432-120.023s-53.92-120.024-120.432-120.024C55.919 185.343 2 239.08 2 305.367S55.92 425.39 122.432 425.39" opacity="0.95" style="fill:#416631;fill-opacity:.852033;stroke-width:2.05319" transform="translate(-2.48)scale(1.24)"/><path fill="#3a4f3f" d="M258.02 253.173c70.15 0 127.016-56.676 127.016-126.587S328.17 0 258.02 0 131.004 56.675 131.004 126.586s56.867 126.587 127.016 126.587" opacity="0.95" style="fill:#416631;fill-opacity:.852033;stroke-width:2.05319" transform="translate(-2.48)scale(1.24)"/><path fill="#3a4f3f" d="M14.113 160.35c0 58.34 46.885 105.63 104.718 105.63 57.835 0 104.719-47.29 104.719-105.63 0-58.336-46.884-105.628-104.719-105.628-57.833 0-104.718 47.292-104.718 105.629" opacity="0.95" style="fill:#416631;fill-opacity:.85098;stroke-width:1.82119" transform="translate(-2.48)scale(1.24)"/><path fill="#3a4f3f" d="M223.75 548.897c66.513 0 120.432-53.737 120.432-120.024S290.263 308.85 223.75 308.85c-66.512 0-120.431 53.736-120.431 120.023s53.919 120.023 120.431 120.023" opacity="0.95" style="fill:#416631;fill-opacity:.852033;stroke-width:2.05319" transform="translate(-2.48)scale(1.24)"/><path fill="#485e52" d="M206.43 497.996c30.889 0 55.93-24.858 55.93-55.522s-25.041-55.52-55.93-55.52c-30.89 0-55.93 24.857-55.93 55.52s25.04 55.522 55.93 55.522" opacity="0.85" style="opacity:.8;fill:#4a7538;fill-opacity:.803922;stroke-width:2.05319" transform="translate(-2.48)scale(1.24)"/><path fill="#3a4f3f" d="M406.568 392.73C473.081 392.73 527 338.994 527 272.707s-53.919-120.024-120.432-120.024-120.432 53.737-120.432 120.024 53.92 120.023 120.432 120.023" opacity="0.95" style="fill:#416631;fill-opacity:.852033;stroke-width:2.05319" transform="translate(-2.48)scale(1.24)"/><path fill="#485e52" d="M376.071 248.564c45.77 0 82.873-36.92 82.873-82.464S421.84 83.635 376.07 83.635s-82.873 36.92-82.873 82.465c0 45.544 37.104 82.464 82.873 82.464m-30.872 270.635c45.77 0 82.873-36.92 82.873-82.464s-37.103-82.467-82.873-82.467-82.873 36.923-82.873 82.467 37.104 82.464 82.873 82.464" opacity="0.85" style="opacity:.8;fill:#4a7538;fill-opacity:.803922;stroke-width:2.05319" transform="translate(-2.48)scale(1.24)"/><path fill="#485e52" d="M417.183 359.253c45.77 0 82.873-36.92 82.873-82.465 0-45.543-37.103-82.465-82.873-82.465s-82.873 36.922-82.873 82.465 37.104 82.465 82.873 82.465M278.382 137.854c30.888 0 55.928-24.858 55.928-55.522s-25.04-55.521-55.928-55.521c-30.89 0-55.931 24.858-55.931 55.521 0 30.664 25.04 55.522 55.93 55.522M116.225 403.736c45.77 0 82.873-36.92 82.873-82.464 0-45.546-37.103-82.467-82.873-82.467s-82.873 36.92-82.873 82.467c0 45.543 37.104 82.464 82.873 82.464" opacity="0.85" style="opacity:.8;fill:#4a7538;fill-opacity:.803922;stroke-width:2.05319" transform="translate(-2.48)scale(1.24)"/><path fill="#77a37a" d="M42.878 369.266c15.837 2.817 50.094-4.59 40.026-23.564-11.703-18.013-34.807 8.342-40.031 23.556l-.008.004z" style="fill:#588a42;fill-opacity:.897076;stroke-width:2.05319" transform="translate(-2.48)scale(1.24)"/><path fill="#5f926a" d="m67.763 404.195.004-.014c17.209-11.96 41.957-50.26 15.138-58.479-27.439-5.831-24.391 39.666-15.15 58.475l-.005.014.007-.006z" style="fill:#609648;fill-opacity:.897818;stroke-width:2.05319" transform="translate(-2.48)scale(1.24)"/><path fill="#5f926a" d="M370.137 426.835c-3.745 15.643-24.228 44.084-37.598 27.272-11.833-17.926 21.56-28.572 37.591-27.28l.008-.007z" style="fill:#588a42;fill-opacity:.897076;stroke-width:2.05319" transform="translate(-2.48)scale(1.24)"/><path fill="#587e60" d="m354.148 510.53-.006-.011c-18.441-9.954-47.33-45.234-21.603-56.412 26.611-8.874 28.689 36.68 21.616 56.405l.006.015-.008-.004q0 .006-.004.008z" style="fill:#609648;fill-opacity:.897818;stroke-width:2.05319" transform="translate(-2.48)scale(1.24)"/><path fill="#77a37a" d="m309.067 483.047.006-.008c-.645-13.14 9-39.682 23.465-28.932 13.506 11.931-10.469 26.854-23.46 28.938 0 0-.007 0-.012.002z" style="fill:#588a42;fill-opacity:.897076;stroke-width:2.05319" transform="translate(-2.48)scale(1.24)"/><path fill="#5f926a" d="m172.645 132.529-.007.005c-16.015-1.505-49.546 8.697-37.95 26.78 13.145 16.988 34.001-11.18 37.956-26.772z" style="fill:#588a42;fill-opacity:.897076;stroke-width:2.05319" transform="translate(-2.48)scale(1.24)"/><path fill="#587e60" d="m144.963 99.773-.003.015c-16.167 13.334-37.679 53.54-10.274 59.525 27.825 3.553 21.044-41.54 10.286-59.523l.003-.015c0 .002-.005.005-.006.007z" style="fill:#609648;fill-opacity:.897818;stroke-width:2.05319" transform="translate(-2.48)scale(1.24)"/><path fill="#77a37a" d="m100.859 143.689.007.004c5.214 12.079 25.576 31.646 33.819 15.62 6.86-16.663-21.238-19.485-33.816-15.627 0 0-.007.004-.011.004z" style="fill:#588a42;fill-opacity:.897076;stroke-width:2.05319" transform="translate(-2.48)scale(1.24)"/><path fill="#5f926a" d="M166.245 411.851c11.937-10.784 44.911-22.662 46.433-1.234-.377 21.478-33.937 11.375-46.432 1.245h-.006l.006-.01z" style="fill:#588a42;fill-opacity:.897076;stroke-width:2.05319" transform="translate(-2.48)scale(1.24)"/><path fill="#77a37a" d="m230.447 377.865-.004.007c3.045 12.798-1.574 40.659-17.762 32.744-15.465-9.253 5.368-28.318 17.754-32.749z" style="fill:#588a42;fill-opacity:.897076;stroke-width:2.05319" transform="translate(-2.48)scale(1.24)"/><path fill="#587e60" d="m168.836 369.042.01.015c20.932 1.019 62.218 20.378 43.835 41.563-20.177 19.488-41.71-20.707-43.844-41.555l-.011-.012h.008z" style="fill:#609648;fill-opacity:.897818;stroke-width:2.05319" transform="translate(-2.48)scale(1.24)"/><path fill="#5f926a" d="M490.346 265.33c-9.096-13.268-38.397-32.5-44.867-12.018-4.638 20.973 30.353 18.97 44.865 12.028l.006.002z" style="fill:#588a42;fill-opacity:.897076;stroke-width:2.05319" transform="translate(-2.48)scale(1.24)"/><path fill="#587e60" d="m475.684 200.982-.008.015c-19.776 6.93-53.851 37.234-30.198 52.315 24.886 12.943 34.093-31.718 30.208-52.31l.008-.013-.008.004z" style="fill:#609648;fill-opacity:.897818;stroke-width:2.05319" transform="translate(-2.48)scale(1.24)"/><path fill="#77a37a" d="m435.83 217.322.001.008c-5.941 11.736-7.941 39.905 9.646 35.982 17.196-5.396 1.378-28.792-9.637-35.986l-.002-.006q.002-.001 0 0c-.002-.002-.006.004-.008.002" style="fill:#588a42;fill-opacity:.897076;stroke-width:2.05319" transform="translate(-2.48)scale(1.24)"/><path fill="#485e52" d="M137.66 260.787c45.77 0 82.873-36.92 82.873-82.465 0-45.543-37.104-82.465-82.873-82.465s-82.873 36.922-82.873 82.465 37.103 82.465 82.873 82.465" opacity="0.85" style="opacity:.8;fill:#4a7538;fill-opacity:.803922;stroke-width:2.05319" transform="translate(-2.48)scale(1.24)"/></svg>