<svg xmlns="http://www.w3.org/2000/svg" width="599.16754" height="620.62476" fill="none" viewBox="0 0 599.16753 620.62476"><path fill="#5b3e24" d="M3467.997 1416.367s-9.155-1.205-12.528-1.205l-8.674-3.854-4.578-26.984-19.997-10.601 12.77 12.528.722 9.878 3.132 23.852-8.432 4.337-12.287-3.132-12.77 7.95 10.842-1.927 9.396 4.096 15.902-1.446 11.564 1.446 6.746 6.505 7.469 13.492-4.096 8.673 9.155-8.191-1.927-13.251-12.77-14.938 8.674-2.41 10.36 3.374c-2.57-2.33-8.673-8.192-8.673-8.192z" style="stroke:#372516;stroke-width:1.92036;stroke-dasharray:none;stroke-opacity:1" transform="translate(-15847.404 -6342.699)scale(4.68663)"/><path fill="#6d4a2c" stroke="#1b1917" stroke-linejoin="round" stroke-miterlimit="16" stroke-width="11.0123" d="m3441.52 1430.324-7.868 5.296-8.73 14.207-17.415 2.3 14.648-9.225 4.948-14.535 11.538-8.094-10.555-17.837-13.916-5.12-6.27-15.378 11.888 10.306 15.765 3.45 11.243 16.312c3.94-7.858 7.255-12.504 7.255-12.504l12.982-6.023 9.155-11.324-6.264 18.31-11.323 7.952-4.55 11.624 9.223 8.245 15.23 4.337 7.71 15.66-13.353-9.637-12.908-1.927-7.108-5.004.603 11.75-4.003 14.824 3.4 15.66-10.869-15.901 1.928-11.565z" style="stroke:#372516;stroke-width:1.92036;stroke-miterlimit:16;stroke-dasharray:none;stroke-opacity:1" transform="translate(-15847.404 -6342.699)scale(4.68663)"/><path fill="#3a4f3f" d="M3444.078 1427.109c0 18.112 14.59 32.794 32.589 32.794s32.588-14.682 32.588-32.794c0-18.113-14.59-32.795-32.589-32.795s-32.588 14.682-32.588 32.794" opacity="0.95" style="fill:#416631;fill-opacity:.85098;stroke-width:.412515" transform="translate(-15847.404 -6342.699)scale(4.68663)"/><path fill="#3a4f3f" d="M3381.409 1432.862c0 15.435 12.405 27.947 27.707 27.947s27.706-12.512 27.706-27.947-12.404-27.948-27.706-27.948-27.707 12.513-27.707 27.948" opacity="0.95" style="fill:#416631;fill-opacity:.85098;stroke-width:.481857" transform="translate(-15847.404 -6342.699)scale(4.68663)"/><path fill="#3a4f3f" d="M3383.848 1391.669c0 21.157 17.043 38.307 38.066 38.307s38.067-17.15 38.067-38.307-17.043-38.308-38.067-38.308c-21.023 0-38.066 17.151-38.066 38.308" opacity="0.95" style="fill:#416631;fill-opacity:.85098;stroke-width:.481857" transform="translate(-15847.404 -6342.699)scale(4.68663)"/><path fill="#3a4f3f" d="M3407.362 1454.947c0 17.032 13.7 30.839 30.598 30.839 16.899 0 30.598-13.808 30.598-30.84 0-17.031-13.7-30.838-30.598-30.838-16.899 0-30.598 13.807-30.598 30.839" opacity="0.95" style="fill:#416631;fill-opacity:.85098;stroke-width:.481857" transform="translate(-15847.404 -6342.699)scale(4.68663)"/><path fill="#485e52" d="M3390.306 1431.024c0 10.507 8.434 19.025 18.838 19.025s18.838-8.518 18.838-19.025-8.434-19.025-18.838-19.025-18.838 8.518-18.838 19.025" opacity="0.85" style="opacity:.8;fill:#4a7538;fill-opacity:.803922;stroke-width:.373034" transform="translate(-15847.404 -6342.699)scale(4.68663)"/><path fill="#485e52" d="M3420.83 1456.972c0 8.65 6.903 15.66 15.418 15.66s15.42-7.01 15.42-15.66c0-8.648-6.904-15.66-15.42-15.66s-15.419 7.012-15.419 15.66" opacity="0.85" style="opacity:.8;fill:#4a7538;fill-opacity:.803922;stroke-width:.481857" transform="translate(-15847.404 -6342.699)scale(4.68663)"/><path fill="#3a4f3f" d="M3439.085 1396.13c0 15.434 12.405 27.947 27.707 27.947s27.707-12.512 27.707-27.948-12.405-27.947-27.707-27.947-27.707 12.512-27.707 27.947" opacity="0.95" style="fill:#416631;fill-opacity:.85098;stroke-width:.481857" transform="translate(-15847.404 -6342.699)scale(4.68663)"/><path fill="#485e52" d="M3462.421 1393.695c0 8.65 6.904 15.66 15.42 15.66s15.419-7.01 15.419-15.66c0-8.649-6.904-15.66-15.42-15.66s-15.419 7.011-15.419 15.66m-14.508 42.158c0 12.374 9.924 22.406 22.166 22.406 12.241 0 22.165-10.032 22.165-22.406 0-12.375-9.924-22.407-22.165-22.407-12.242 0-22.166 10.032-22.166 22.407" opacity="0.85" style="opacity:.8;fill:#4a7538;fill-opacity:.803922;stroke-width:.481857" transform="translate(-15847.404 -6342.699)scale(4.68663)"/><path fill="#485e52" fill-rule="evenodd" d="M3439.702 1392.302a17.4 17.4 0 0 0 5.537 1.5c9.665.963 18.293-6.198 19.27-15.996s-6.067-18.522-15.733-19.486c-7.562-.754-14.49 3.467-17.614 10.033a24.05 24.05 0 0 0-12.878-5.325c-13.373-1.333-25.305 8.534-26.652 22.04-1.346 13.505 8.403 25.534 21.776 26.867 12.565 1.253 23.858-7.383 26.294-19.633" clip-rule="evenodd" opacity="0.85" style="opacity:.8;fill:#4a7538;fill-opacity:.803922;stroke-width:.481857" transform="translate(-15847.404 -6342.699)scale(4.68663)"/><path fill="#5f926a" d="M3393.066 1438.793c2.4 2.914 9.648 6.803 10.737 1.881.65-5-7.488-3.806-10.737-1.883z" style="fill:#588a42;fill-opacity:.895455;stroke-width:.481857" transform="translate(-15847.404 -6342.699)scale(4.68663)"/><path fill="#587e60" d="M3397.825 1453.532c4.48-2.03 11.818-9.818 5.976-12.855-6.085-2.51-7.313 8.12-5.98 12.854h.001z" style="fill:#609648;fill-opacity:.899472;stroke-width:.481857" transform="translate(-15847.404 -6342.699)scale(4.68663)"/><path fill="#77a37a" d="M3406.804 1448.888c1.146-2.867 1.03-9.493-3-8.212-3.908 1.617.274 6.759 2.998 8.213zm54.863-2.442c-.661 3.717 1.077 11.757 5.53 9.394 4.228-2.747-1.958-8.169-5.528-9.395z" style="fill:#588a42;fill-opacity:.895455;stroke-width:.481857" transform="translate(-15847.404 -6342.699)scale(4.68663)"/><path fill="#5f926a" d="M3453.47 1452.286c2.806 4.04 11.795 9.847 13.724 3.553 1.369-6.44-9.31-5.724-13.724-3.556z" style="fill:#609648;fill-opacity:.899472;stroke-width:.481857" transform="translate(-15847.404 -6342.699)scale(4.68663)"/><path fill="#5f926a" d="M3460.516 1418.18c-3.472-1.48-9.247-7.337-4.832-9.77 4.613-2.034 5.763 6.11 4.834 9.77z" style="fill:#588a42;fill-opacity:.895455;stroke-width:.481857" transform="translate(-15847.404 -6342.699)scale(4.68663)"/><path fill="#77a37a" d="M3446.957 1407.847c2.428-1.908 8.818-3.666 8.725.562-.45 4.206-6.562 1.643-8.725-.56z" style="fill:#588a42;fill-opacity:.895455;stroke-width:.481857" transform="translate(-15847.404 -6342.699)scale(4.68663)"/><path fill="#587e60" d="M3451.141 1421.842c-1.843-4.56-1.781-15.261 4.542-13.43 6.137 2.382-.307 10.925-4.54 13.43z" style="fill:#609648;fill-opacity:.900717;stroke-width:.481857" transform="translate(-15847.404 -6342.699)scale(4.68663)"/><path fill="#5f926a" d="M3393.328 1379.634c2.05-3.17 8.802-7.867 10.45-3.102 1.22 4.89-7.001 4.642-10.45 3.105z" style="fill:#588a42;fill-opacity:.895455;stroke-width:.481857" transform="translate(-15847.404 -6342.699)scale(4.68663)"/><path fill="#77a37a" d="M3405.814 1368.027c1.468 2.716 2.116 9.312-2.036 8.502-4.068-1.157-.505-6.745 2.034-8.502z" style="fill:#588a42;fill-opacity:.895455;stroke-width:.481857" transform="translate(-15847.404 -6342.699)scale(4.68663)"/><path fill="#587e60" d="M3391.312 1369.774c4.807-1.042 15.342.836 12.463 6.756-3.388 5.644-10.713-2.158-12.464-6.754z" style="fill:#609648;fill-opacity:.899472;stroke-width:.481857" transform="translate(-15847.404 -6342.699)scale(4.68663)"/><path fill="#77a37a" d="M3487.064 1411.996c-.186-3.77-3.676-11.219-7.49-7.921-3.506 3.621 3.734 7.525 7.488 7.922z" style="fill:#588a42;fill-opacity:.895455;stroke-width:.481857" transform="translate(-15847.404 -6342.699)scale(4.68663)"/><path fill="#5f926a" d="M3493.75 1404.472c-3.639-3.31-13.697-6.963-14.172-.397.105 6.582 10.353 3.5 14.171.4z" style="fill:#609648;fill-opacity:.899472;stroke-width:.481857" transform="translate(-15847.404 -6342.699)scale(4.68663)"/></svg>