<svg xmlns="http://www.w3.org/2000/svg" xml:space="preserve" width="624.33362" height="644.18304" x="0px" y="0px" viewBox="0 0 624.33359 644.18304"><path fill="#5b3e24" d="M403.776 277.194s-42.908-5.646-58.716-5.646l-40.649-18.066-21.453-126.463-93.72-49.683 59.845 58.716 3.388 46.294 14.679 111.786-39.52 20.324-57.587-14.679-59.844 37.262 50.811-9.033 44.037 19.195 74.523-6.775 54.199 6.775 31.616 30.487 35.003 63.232-2.15 44.002 25.862-41.744-9.033-62.103-59.844-70.007 40.649-11.291 48.553 15.808c-12.044-10.914-40.65-38.39-40.65-38.39z" style="stroke:#372516;stroke-width:9;stroke-dasharray:none;stroke-opacity:1"/><path fill="#6d4a2c" stroke="#1b1917" stroke-linejoin="round" stroke-miterlimit="16" stroke-width="11.0123" d="m320.928 273.156 36.873-24.823 66.86-14.685 97.526 16.844-98.786 25.655-47.854 29.275-47.822 4.876-4.107 83.21 10.813 53.29 11.808 71.24-43.16-62.533-12.78-44.628-1.143-90.18-38.677 63.425-41.588 14-42.908 63.113.06-58.191 46.374-52.33 54.733-56.582-35.616-22.193-49.848 3.898-70.223-86.852 81.111 54.97 41.964-.77 43.095 10.893 43.475-42.51 9.552-55.244 81.168-70.046-44.49 77.872-4.849 48.34z" style="stroke:#372516;stroke-width:9;stroke-miterlimit:16;stroke-dasharray:none;stroke-opacity:1"/><path fill="#3a4f3f" d="M259.658 456.933c0 84.885 68.38 153.697 152.73 153.697 84.351 0 152.731-68.812 152.731-153.697s-68.38-153.698-152.73-153.698-152.731 68.812-152.731 153.698" opacity="0.95" style="fill:#416631;fill-opacity:.85098;stroke-width:1.9333"/><path fill="#3a4f3f" d="M301.645 130.98c0 72.34 58.137 130.98 129.851 130.98 71.715 0 129.851-58.64 129.851-130.98C561.347 58.642 503.211 0 431.497 0c-71.715 0-129.852 58.642-129.852 130.98" opacity="0.95" style="fill:#416631;fill-opacity:.85098;stroke-width:2.25828"/><path fill="#3a4f3f" d="M47.41 187.915c0 99.154 79.876 179.533 178.405 179.533s178.404-80.379 178.404-179.533S324.344 8.381 225.815 8.381 47.41 88.761 47.41 187.915" opacity="0.95" style="fill:#416631;fill-opacity:.85098;stroke-width:2.25828"/><path fill="#3a4f3f" d="M19.806 369.101c0 79.822 64.203 144.53 143.402 144.53s143.4-64.708 143.4-144.53c0-79.821-64.202-144.53-143.4-144.53S19.806 289.28 19.806 369.101m327.874-62.77c0 72.34 58.138 130.98 129.852 130.98s129.85-58.64 129.85-130.98-58.136-130.98-129.85-130.98S347.68 233.991 347.68 306.33" opacity="0.95" style="fill:#416631;fill-opacity:.85098;stroke-width:2.25828"/><path fill="#485e52" d="M316.825 131.206c0 49.243 39.528 89.162 88.287 89.162s88.288-39.919 88.288-89.162c0-49.242-39.528-89.162-88.288-89.162s-88.287 39.92-88.287 89.162m130.933 248.808c0 49.244 39.528 89.162 88.288 89.162s88.288-39.918 88.288-89.162c0-49.241-39.528-89.162-88.288-89.162s-88.288 39.92-88.288 89.162" opacity="0.85" style="opacity:.8;fill:#4a7538;fill-opacity:.803922;stroke-width:1.74827"/><path fill="#3a4f3f" d="M61.012 499.653c0 79.822 64.202 144.53 143.401 144.53 79.198 0 143.4-64.708 143.4-144.53s-64.202-144.53-143.4-144.53S61.012 419.83 61.012 499.653" opacity="0.95" style="fill:#416631;fill-opacity:.85098;stroke-width:2.25828"/><path fill="#485e52" fill-rule="evenodd" d="M340.674 493.42a81.3 81.3 0 0 0 25.952 7.027c45.298 4.517 85.732-29.048 90.31-74.967s-28.434-86.805-73.732-91.322c-35.444-3.533-67.908 16.248-82.55 47.019-16.686-13.635-37.38-22.663-60.357-24.954-62.673-6.249-118.596 39.996-124.906 103.29s39.382 119.67 102.055 125.919c58.886 5.87 111.815-34.601 123.228-92.013" clip-rule="evenodd" opacity="0.85" style="opacity:.8;fill:#4a7538;fill-opacity:.803922;stroke-width:2.25828"/><path fill="#485e52" d="M79.799 164.442c0 63.315 50.537 114.643 112.878 114.643s112.878-51.328 112.878-114.643S255.018 49.801 192.677 49.801 79.8 101.128 79.8 164.442" opacity="0.85" style="opacity:.8;fill:#4a7538;fill-opacity:.803922;stroke-width:3.52745"/><path fill="#5f926a" d="M484.377 357.8c15.261-8.948 38.635-39.603 16.665-48.293-22.653-6.715-23.167 31.832-16.676 48.29l-.003-.001c.003 0 0 0 0 0z" style="fill:#588a42;fill-opacity:.901961;stroke-width:2.25828"/><path fill="#587e60" d="M556.112 346.709c-6.07-22.236-36.674-61.97-55.056-37.19-16.132 26.298 32.154 39.867 55.05 37.202-.003-.003-.005 0-.005 0 .004 0 0-.003 0-.003z" style="fill:#609648;fill-opacity:.898039;stroke-width:2.25828"/><path fill="#77a37a" d="M541.28 301.714c-12.418-7.43-43.169-11.812-40.228 7.788 4.585 19.286 31.48 3.746 40.228-7.78v-.004c.003.003-.001 0 0 0q.001-.002-.001 0zm-49.661 236.17c10.71-14.082 20.667-51.324-2.957-51.004-23.504 2.406-9.317 38.252 2.944 51.005 0-.002.003.002 0 0z" style="fill:#588a42;fill-opacity:.901961;stroke-width:2.25828"/><path fill="#5f926a" d="M538.294 531.075c-3.058-22.848-28.108-66.299-49.621-44.185-19.487 23.922 26.565 43.791 49.612 44.195q0-.001 0 0c.003-.001 0 0 0 0z" style="fill:#609648;fill-opacity:.898039;stroke-width:2.25828"/><path fill="#77a37a" d="M70.44 372.189c10.905 13.93 44.405 33.007 50.087 10.075 3.634-23.345-34.638-18.714-50.084-10.088.002.002-.001.002 0 0z" style="fill:#588a42;fill-opacity:.901961;stroke-width:2.25828"/><path fill="#5f926a" d="M65.19 419.065c22.875 2.836 71.259-10.374 55.325-36.792-18.198-24.917-49.097 14.59-55.333 36.78l-.001.002c.003 0 0 0 0 0q0 .002 0 0z" style="fill:#609648;fill-opacity:.898039;stroke-width:2.25828"/><path fill="#5f926a" d="M102.427 106.311c9.606-14.857 41.252-36.87 48.972-14.541 5.723 22.923-32.81 21.755-48.97 14.552v.003c0-.003 0 0 0 0z" style="fill:#588a42;fill-opacity:.901961;stroke-width:2.25828"/><path fill="#77a37a" d="M160.943 51.911h-.003c6.881 12.73 9.916 43.643-9.539 39.849-19.064-5.423-2.366-31.614 9.53-39.85.002-.001 0-.004 0 0z" style="fill:#588a42;fill-opacity:.901961;stroke-width:2.25828"/><path fill="#587e60" d="M92.978 60.098c22.526-4.883 71.903 3.918 58.41 31.664-15.88 26.452-50.208-10.114-58.415-31.652q.002 0 0-.001c-.003-.004-.003 0-.003 0z" style="fill:#609648;fill-opacity:.898039;stroke-width:2.25828"/><path fill="#5f926a" d="M183.711 503.4c-15.655-8.244-40.403-37.8-18.85-47.482 22.32-7.744 24.593 30.74 18.86 47.478h.003q-.002 0 0 0z" style="fill:#588a42;fill-opacity:.901961;stroke-width:2.25828"/><path fill="#77a37a" d="M124.31 449.967v.003c12.065-7.99 42.583-13.769 40.54 5.947-3.7 19.473-31.277 5.177-40.541-5.937-.001-.002-.004 0 0 0z" style="fill:#588a42;fill-opacity:.901961;stroke-width:2.25828"/><path fill="#587e60" d="M138.524 516.932c-6.872-22.001-2.51-71.967 26.329-61.002 27.763 13.458-5.596 50.91-26.317 61.005q0-.001 0 0v.003z" style="fill:#609648;fill-opacity:.898039;stroke-width:2.25828"/><path fill="#77a37a" d="M462.179 133.005c12.227-12.787 26.312-48.672 2.803-51.013-23.626-.253-13.563 36.96-2.816 51.012.002-.002.003.001 0 0z" style="fill:#588a42;fill-opacity:.901961;stroke-width:2.25828"/><path fill="#5f926a" d="M509.324 131.493c-.467-23.046-20.466-69.04-44.332-49.49-22.056 21.577 21.467 46.504 44.322 49.499h.001q0-.001 0 0 .002 0 0 0z" style="fill:#609648;fill-opacity:.898039;stroke-width:2.25828"/><path fill="#77a37a" d="M349.378 380.77c-6.958 16.267-7.543 54.813 15.292 48.748 22.21-8.059-.283-39.37-15.279-48.751 0 .002-.003-.001 0 0z" style="fill:#588a42;fill-opacity:.901961;stroke-width:2.25828"/><path fill="#5f926a" d="M305.767 398.744h.002c8.53 21.414 43.41 57.455 58.889 30.767 13.072-27.948-36.432-36.001-58.884-30.779q.002.002 0 0z" style="fill:#609648;fill-opacity:.898039;stroke-width:2.25828"/><path fill="#77a37a" d="M210.675 261.228c10.71-14.081 20.667-51.324-2.957-51.004-23.504 2.406-9.317 38.252 2.944 51.004 0-.002.003.002 0 0z" style="fill:#588a42;fill-opacity:.901961;stroke-width:2.25828"/><path fill="#5f926a" d="M257.35 254.42v-.002c-3.058-22.846-28.108-66.297-49.621-44.184-19.487 23.922 26.565 43.792 49.612 44.195v.001c0-.003 0 0 0 0 .003-.002 0 0 0 0z" style="fill:#609648;fill-opacity:.898039;stroke-width:2.25828"/><path fill="#485e52" d="M0 267.397c0 40.534 32.354 73.394 72.265 73.394 39.91 0 72.265-32.86 72.265-73.394s-32.354-73.394-72.265-73.394S0 226.863 0 267.397" opacity="0.85" style="opacity:.8;fill:#4a7538;fill-opacity:.803922;stroke-width:2.25828"/></svg>