<svg xmlns="http://www.w3.org/2000/svg" width="519.42719" height="519.42719" viewBox="0 0 137.43177 137.43178"><path d="M-26.903 71.03c-1.911-1.912 6.818-27.105 5.59-29.514s-26.74-10.155-27.162-12.825S-27.028 10.77-26.605 8.1s-15.664-23.933-14.437-26.342 27.885-1.892 29.797-3.803 1.395-28.57 3.803-29.797c2.41-1.228 23.672 14.86 26.342 14.437S36.821-59.7 39.491-59.275c2.67.422 10.417 25.935 12.825 27.162 2.41 1.228 27.602-7.502 29.514-5.59s-6.818 27.105-5.59 29.514 26.74 10.155 27.163 12.825-21.448 17.92-21.87 20.591c-.424 2.67 15.664 23.933 14.436 26.342s-27.885 1.892-29.796 3.803c-1.912 1.912-1.395 28.57-3.804 29.797s-23.671-14.86-26.342-14.437-17.92 22.293-20.59 21.87C12.765 92.18 5.02 66.667 2.61 65.44c-2.409-1.227-27.602 7.502-29.514 5.59" style="fill:#344721;fill-opacity:.85490203;stroke-width:4.42082;stroke-linecap:square" transform="rotate(179.96 46.783 41.897)scale(.90481)"/><path d="M208.535 134.908c-5.059 2.92-31.376-11.465-37.217-11.465-5.842 0-32.159 14.385-37.218 11.465-5.058-2.921-5.759-32.905-8.68-37.964S96.884 76.287 96.884 70.445s25.617-21.44 28.538-26.498c2.92-5.06 3.62-35.043 8.68-37.964 5.058-2.92 31.375 11.465 37.217 11.465s32.158-14.386 37.217-11.465 5.76 32.905 8.68 37.964 28.537 20.657 28.537 26.498-25.616 21.44-28.537 26.499-3.621 35.043-8.68 37.964" style="fill:#3e4b26;fill-opacity:.547904;stroke:none;stroke-width:2.22615;stroke-linecap:square;stroke-linejoin:round;stroke-dasharray:none;stroke-opacity:1" transform="rotate(-15 134.704 1164.418)scale(.95083)"/><path d="M208.535 134.908c-5.059 2.92-31.376-11.465-37.217-11.465-5.842 0-32.159 14.385-37.218 11.465-5.058-2.921-5.759-32.905-8.68-37.964S96.884 76.287 96.884 70.445s25.617-21.44 28.538-26.498c2.92-5.06 3.62-35.043 8.68-37.964 5.058-2.92 31.375 11.465 37.217 11.465s32.158-14.386 37.217-11.465 5.76 32.905 8.68 37.964 28.537 20.657 28.537 26.498-25.616 21.44-28.537 26.499-3.621 35.043-8.68 37.964" style="fill:#3e4b26;fill-opacity:.547904;stroke:none;stroke-width:2.22615;stroke-linecap:square;stroke-linejoin:round;stroke-dasharray:none;stroke-opacity:1" transform="scale(-.95083 .95083)rotate(-15 270.088 249.2)"/><g stroke-width="0.63494" transform="rotate(123.147 184.19 -23.573)scale(1.10673)"><ellipse cx="-405.63" cy="124.83" fill="#2c251a" fill-opacity="0.99608" rx="0.53011" ry="0.23608001" transform="rotate(-136.69)"/><path fill="#645c4a" d="M376.3 192.45a3.027 3.027 0 0 0 3.028-3.51 3.027 3.027 0 0 0-3.325 3.23c.01.147.15.278.297.28"/><path fill="#595040" d="M377.64 192.55a3.026 3.026 0 0 1 2.376-3.98 3.027 3.027 0 0 1-2.016 4.174.32.32 0 0 1-.36-.194"/><path fill="#5f5644" d="M375.85 190.86a3.027 3.027 0 0 0 3.833-2.607 3.027 3.027 0 0 0-4.048 2.26.32.32 0 0 0 .215.347"/><path fill="#5b5343" d="M377.47 191.21a3.027 3.027 0 0 0 3.028-3.51 3.027 3.027 0 0 0-3.325 3.23c.01.147.15.278.297.28"/><path fill="#564d3e" d="M376.1 189.23a3.027 3.027 0 0 0 4.377-1.526 3.027 3.027 0 0 0-4.494 1.135.32.32 0 0 0 .117.39"/><path fill="#4f473a" d="M379.26 192.2a3.027 3.027 0 0 1 1.265-4.46 3.027 3.027 0 0 1-.867 4.554.32.32 0 0 1-.398-.094"/><path fill="#534a3c" d="M378.49 190.13q.269.003.53-.04a3.03 3.03 0 0 0 1.712-.91c.646-.685.236-.845.086-1.774-.936-.095-1.164-.536-1.81.15a3.03 3.03 0 0 0-.815 2.294c.01.147.15.278.297.28"/><path fill="#4c4438" d="M376.77 187.34a2.97 2.97 0 0 1 4.75 1.1c-.75.656-3.412.236-4.733-.744a.23.23 0 0 1-.017-.356"/><path fill="#463d34" d="M381.1 191.42a2.97 2.97 0 0 0-1.378-4.677c-.611.788-.035 3.42 1.022 4.68a.23.23 0 0 0 .356-.003"/></g><path d="M208.535 134.908c-5.059 2.92-31.376-11.465-37.217-11.465-5.842 0-32.159 14.385-37.218 11.465-5.058-2.921-5.759-32.905-8.68-37.964S96.884 76.287 96.884 70.445s25.617-21.44 28.538-26.498c2.92-5.06 3.62-35.043 8.68-37.964 5.058-2.92 31.375 11.465 37.217 11.465s32.158-14.386 37.217-11.465 5.76 32.905 8.68 37.964 28.537 20.657 28.537 26.498-25.616 21.44-28.537 26.499-3.621 35.043-8.68 37.964" style="fill:#3e4b26;fill-opacity:.547904;stroke:none;stroke-width:2.34189;stroke-linecap:square;stroke-linejoin:round;stroke-dasharray:none;stroke-opacity:1" transform="translate(-276.87 33.206)scale(.90383)"/><path d="M208.535 134.908c-5.059 2.92-31.376-11.465-37.217-11.465-5.842 0-32.159 14.385-37.218 11.465-5.058-2.921-5.759-32.905-8.68-37.964S96.884 76.287 96.884 70.445s25.617-21.44 28.538-26.498c2.92-5.06 3.62-35.043 8.68-37.964 5.058-2.92 31.375 11.465 37.217 11.465s32.158-14.386 37.217-11.465 5.76 32.905 8.68 37.964 28.537 20.657 28.537 26.498-25.616 21.44-28.537 26.499-3.621 35.043-8.68 37.964" style="fill:#3e4b26;fill-opacity:.547904;stroke:none;stroke-width:2.34189;stroke-linecap:square;stroke-linejoin:round;stroke-dasharray:none;stroke-opacity:1" transform="rotate(30 -45.556 -436.37)scale(.90383)"/><g stroke-width="0.63494" transform="rotate(5.679 894.692 -5508.964)scale(1.10673)"><ellipse cx="-405.63" cy="124.83" fill="#2c251a" fill-opacity="0.99608" rx="0.53011" ry="0.23608001" transform="rotate(-136.69)"/><path fill="#645c4a" d="M376.3 192.45a3.027 3.027 0 0 0 3.028-3.51 3.027 3.027 0 0 0-3.325 3.23c.01.147.15.278.297.28"/><path fill="#595040" d="M377.64 192.55a3.026 3.026 0 0 1 2.376-3.98 3.027 3.027 0 0 1-2.016 4.174.32.32 0 0 1-.36-.194"/><path fill="#5f5644" d="M375.85 190.86a3.027 3.027 0 0 0 3.833-2.607 3.027 3.027 0 0 0-4.048 2.26.32.32 0 0 0 .215.347"/><path fill="#5b5343" d="M377.47 191.21a3.027 3.027 0 0 0 3.028-3.51 3.027 3.027 0 0 0-3.325 3.23c.01.147.15.278.297.28"/><path fill="#564d3e" d="M376.1 189.23a3.027 3.027 0 0 0 4.377-1.526 3.027 3.027 0 0 0-4.494 1.135.32.32 0 0 0 .117.39"/><path fill="#4f473a" d="M379.26 192.2a3.027 3.027 0 0 1 1.265-4.46 3.027 3.027 0 0 1-.867 4.554.32.32 0 0 1-.398-.094"/><path fill="#534a3c" d="M378.49 190.13q.269.003.53-.04a3.03 3.03 0 0 0 1.712-.91c.646-.685.236-.845.086-1.774-.936-.095-1.164-.536-1.81.15a3.03 3.03 0 0 0-.815 2.294c.01.147.15.278.297.28"/><path fill="#4c4438" d="M376.77 187.34a2.97 2.97 0 0 1 4.75 1.1c-.75.656-3.412.236-4.733-.744a.23.23 0 0 1-.017-.356"/><path fill="#463d34" d="M381.1 191.42a2.97 2.97 0 0 0-1.378-4.677c-.611.788-.035 3.42 1.022 4.68a.23.23 0 0 0 .356-.003"/></g><g stroke-width="0.63494" transform="rotate(53.342 249.503 -434.208)scale(1.10673)"><ellipse cx="-405.63" cy="124.83" fill="#2c251a" fill-opacity="0.99608" rx="0.53011" ry="0.23608001" transform="rotate(-136.69)"/><path fill="#645c4a" d="M376.3 192.45a3.027 3.027 0 0 0 3.028-3.51 3.027 3.027 0 0 0-3.325 3.23c.01.147.15.278.297.28"/><path fill="#595040" d="M377.64 192.55a3.026 3.026 0 0 1 2.376-3.98 3.027 3.027 0 0 1-2.016 4.174.32.32 0 0 1-.36-.194"/><path fill="#5f5644" d="M375.85 190.86a3.027 3.027 0 0 0 3.833-2.607 3.027 3.027 0 0 0-4.048 2.26.32.32 0 0 0 .215.347"/><path fill="#5b5343" d="M377.47 191.21a3.027 3.027 0 0 0 3.028-3.51 3.027 3.027 0 0 0-3.325 3.23c.01.147.15.278.297.28"/><path fill="#564d3e" d="M376.1 189.23a3.027 3.027 0 0 0 4.377-1.526 3.027 3.027 0 0 0-4.494 1.135.32.32 0 0 0 .117.39"/><path fill="#4f473a" d="M379.26 192.2a3.027 3.027 0 0 1 1.265-4.46 3.027 3.027 0 0 1-.867 4.554.32.32 0 0 1-.398-.094"/><path fill="#534a3c" d="M378.49 190.13q.269.003.53-.04a3.03 3.03 0 0 0 1.712-.91c.646-.685.236-.845.086-1.774-.936-.095-1.164-.536-1.81.15a3.03 3.03 0 0 0-.815 2.294c.01.147.15.278.297.28"/><path fill="#4c4438" d="M376.77 187.34a2.97 2.97 0 0 1 4.75 1.1c-.75.656-3.412.236-4.733-.744a.23.23 0 0 1-.017-.356"/><path fill="#463d34" d="M381.1 191.42a2.97 2.97 0 0 0-1.378-4.677c-.611.788-.035 3.42 1.022 4.68a.23.23 0 0 0 .356-.003"/></g><path d="M208.535 134.908c-5.059 2.92-31.376-11.465-37.217-11.465-5.842 0-32.159 14.385-37.218 11.465-5.058-2.921-5.759-32.905-8.68-37.964S96.884 76.287 96.884 70.445s25.617-21.44 28.538-26.498c2.92-5.06 3.62-35.043 8.68-37.964 5.058-2.92 31.375 11.465 37.217 11.465s32.158-14.386 37.217-11.465 5.76 32.905 8.68 37.964 28.537 20.657 28.537 26.498-25.616 21.44-28.537 26.499-3.621 35.043-8.68 37.964" style="fill:#394623;fill-opacity:.502994;stroke:none;stroke-width:3.21179;stroke-linecap:square;stroke-linejoin:round;stroke-dasharray:none;stroke-opacity:1" transform="rotate(-15 188.282 964.562)scale(.65904)"/><g stroke-width="0.63494" transform="rotate(-97.249 126.285 387.59)scale(1.10673)"><ellipse cx="-405.63" cy="124.83" fill="#2c251a" fill-opacity="0.99608" rx="0.53011" ry="0.23608001" transform="rotate(-136.69)"/><path fill="#645c4a" d="M376.3 192.45a3.027 3.027 0 0 0 3.028-3.51 3.027 3.027 0 0 0-3.325 3.23c.01.147.15.278.297.28"/><path fill="#595040" d="M377.64 192.55a3.026 3.026 0 0 1 2.376-3.98 3.027 3.027 0 0 1-2.016 4.174.32.32 0 0 1-.36-.194"/><path fill="#5f5644" d="M375.85 190.86a3.027 3.027 0 0 0 3.833-2.607 3.027 3.027 0 0 0-4.048 2.26.32.32 0 0 0 .215.347"/><path fill="#5b5343" d="M377.47 191.21a3.027 3.027 0 0 0 3.028-3.51 3.027 3.027 0 0 0-3.325 3.23c.01.147.15.278.297.28"/><path fill="#564d3e" d="M376.1 189.23a3.027 3.027 0 0 0 4.377-1.526 3.027 3.027 0 0 0-4.494 1.135.32.32 0 0 0 .117.39"/><path fill="#4f473a" d="M379.26 192.2a3.027 3.027 0 0 1 1.265-4.46 3.027 3.027 0 0 1-.867 4.554.32.32 0 0 1-.398-.094"/><path fill="#534a3c" d="M378.49 190.13q.269.003.53-.04a3.03 3.03 0 0 0 1.712-.91c.646-.685.236-.845.086-1.774-.936-.095-1.164-.536-1.81.15a3.03 3.03 0 0 0-.815 2.294c.01.147.15.278.297.28"/><path fill="#4c4438" d="M376.77 187.34a2.97 2.97 0 0 1 4.75 1.1c-.75.656-3.412.236-4.733-.744a.23.23 0 0 1-.017-.356"/><path fill="#463d34" d="M381.1 191.42a2.97 2.97 0 0 0-1.378-4.677c-.611.788-.035 3.42 1.022 4.68a.23.23 0 0 0 .356-.003"/></g><path d="M208.535 134.908c-5.059 2.92-31.376-11.465-37.217-11.465-5.842 0-32.159 14.385-37.218 11.465-5.058-2.921-5.759-32.905-8.68-37.964S96.884 76.287 96.884 70.445s25.617-21.44 28.538-26.498c2.92-5.06 3.62-35.043 8.68-37.964 5.058-2.92 31.375 11.465 37.217 11.465s32.158-14.386 37.217-11.465 5.76 32.905 8.68 37.964 28.537 20.657 28.537 26.498-25.616 21.44-28.537 26.499-3.621 35.043-8.68 37.964" style="fill:#394623;fill-opacity:.502994;stroke:none;stroke-width:3.21179;stroke-linecap:square;stroke-linejoin:round;stroke-dasharray:none;stroke-opacity:1" transform="scale(-.65904 .65904)rotate(-15 471.049 55.664)"/><g stroke-width="0.63494" transform="matrix(-1.10637 .02848 -.02848 -1.10637 335.195 275.94)"><ellipse cx="-405.63" cy="124.83" fill="#2c251a" fill-opacity="0.99608" rx="0.53011" ry="0.23608001" transform="rotate(-136.69)"/><path fill="#645c4a" d="M376.3 192.45a3.027 3.027 0 0 0 3.028-3.51 3.027 3.027 0 0 0-3.325 3.23c.01.147.15.278.297.28"/><path fill="#595040" d="M377.64 192.55a3.026 3.026 0 0 1 2.376-3.98 3.027 3.027 0 0 1-2.016 4.174.32.32 0 0 1-.36-.194"/><path fill="#5f5644" d="M375.85 190.86a3.027 3.027 0 0 0 3.833-2.607 3.027 3.027 0 0 0-4.048 2.26.32.32 0 0 0 .215.347"/><path fill="#5b5343" d="M377.47 191.21a3.027 3.027 0 0 0 3.028-3.51 3.027 3.027 0 0 0-3.325 3.23c.01.147.15.278.297.28"/><path fill="#564d3e" d="M376.1 189.23a3.027 3.027 0 0 0 4.377-1.526 3.027 3.027 0 0 0-4.494 1.135.32.32 0 0 0 .117.39"/><path fill="#4f473a" d="M379.26 192.2a3.027 3.027 0 0 1 1.265-4.46 3.027 3.027 0 0 1-.867 4.554.32.32 0 0 1-.398-.094"/><path fill="#534a3c" d="M378.49 190.13q.269.003.53-.04a3.03 3.03 0 0 0 1.712-.91c.646-.685.236-.845.086-1.774-.936-.095-1.164-.536-1.81.15a3.03 3.03 0 0 0-.815 2.294c.01.147.15.278.297.28"/><path fill="#4c4438" d="M376.77 187.34a2.97 2.97 0 0 1 4.75 1.1c-.75.656-3.412.236-4.733-.744a.23.23 0 0 1-.017-.356"/><path fill="#463d34" d="M381.1 191.42a2.97 2.97 0 0 0-1.378-4.677c-.611.788-.035 3.42 1.022 4.68a.23.23 0 0 0 .356-.003"/></g><path fill="#372d20" stroke="#170e08" stroke-linecap="round" stroke-linejoin="round" stroke-width="1.95216" d="m84.04 73.782-3.518 2.92-1.14 4.428-4.551-.423-3.937 2.326-2.92-3.518-4.427-1.139.422-4.552-2.325-3.936 3.518-2.92L66.3 62.54l4.552.423 3.936-2.326 2.92 3.518 4.428 1.14-.423 4.551z" style="fill:#372d20;fill-opacity:1" transform="translate(-194.87 24.074)"/><path d="m71.983 45.434 5.868 24.647 20.926 3.913-21.513 2.738-3.716 21.909-4.303-22.3-22.491-1.37 21.904-6.063z" style="fill:#372d20;fill-opacity:1;stroke:#23150d;stroke-width:2.11667;stroke-linecap:square;stroke-linejoin:round;stroke-opacity:1" transform="translate(-194.87 24.074)"/><path fill="#433828" d="m-115.243 97.088-2.132 1.77-.69 2.684-2.76-.256-2.387 1.41-1.77-2.133-2.684-.69.256-2.76-1.41-2.386 2.133-1.77.69-2.685 2.76.257 2.387-1.41 1.77 2.132 2.684.691-.256 2.76z"/><path d="m58.097 48.76 14.277 19.56 17.211-14.28-13.103 19.562 15.255 21.322-19.558-19.561L55.555 95.12 67.68 72.233z" style="fill:#433828;fill-opacity:1;stroke:#23150d;stroke-width:2.11667;stroke-linecap:square;stroke-linejoin:round;stroke-opacity:1" transform="translate(-194.87 24.074)"/><path d="M208.535 134.908c-5.059 2.92-31.376-11.465-37.217-11.465-5.842 0-32.159 14.385-37.218 11.465-5.058-2.921-5.759-32.905-8.68-37.964S96.884 76.287 96.884 70.445s25.617-21.44 28.538-26.498c2.92-5.06 3.62-35.043 8.68-37.964 5.058-2.92 31.375 11.465 37.217 11.465s32.158-14.386 37.217-11.465 5.76 32.905 8.68 37.964 28.537 20.657 28.537 26.498-25.616 21.44-28.537 26.499-3.621 35.043-8.68 37.964" style="fill:#394623;fill-opacity:.502994;stroke:none;stroke-width:3.37877;stroke-linecap:square;stroke-linejoin:round;stroke-dasharray:none;stroke-opacity:1" transform="translate(-229.428 52.948)scale(.62646)"/><path d="M208.535 134.908c-5.059 2.92-31.376-11.465-37.217-11.465-5.842 0-32.159 14.385-37.218 11.465-5.058-2.921-5.759-32.905-8.68-37.964S96.884 76.287 96.884 70.445s25.617-21.44 28.538-26.498c2.92-5.06 3.62-35.043 8.68-37.964 5.058-2.92 31.375 11.465 37.217 11.465s32.158-14.386 37.217-11.465 5.76 32.905 8.68 37.964 28.537 20.657 28.537 26.498-25.616 21.44-28.537 26.499-3.621 35.043-8.68 37.964" style="fill:#394623;fill-opacity:.502994;stroke:none;stroke-width:3.37877;stroke-linecap:square;stroke-linejoin:round;stroke-dasharray:none;stroke-opacity:1" transform="rotate(30 -106.191 -357.511)scale(.62646)"/><g fill="#576f39"><path d="m81.935-68.858-3.603-2.63a.28.28 0 0 0-.31-.016l-2.827 1.64a.06.06 0 0 1-.08-.083l2.444-3.773a.83.83 0 0 1 .364-.31l4.172-1.834a.044.044 0 0 1 .052.068l-2.073 2.531a.38.38 0 0 0-.044.408l1.992 3.925a.059.059 0 0 1-.087.074m-62.777-4.936 2.606-3.62a.28.28 0 0 0 .014-.31l-1.659-2.817a.06.06 0 0 1 .084-.08l3.788 2.419a.83.83 0 0 1 .313.362l1.861 4.16a.044.044 0 0 1-.068.052l-2.545-2.056a.38.38 0 0 0-.407-.042l-3.912 2.018a.059.059 0 0 1-.075-.086m-21.177-34.682 4.362-.933a.28.28 0 0 0 .218-.22l.662-3.202a.06.06 0 0 1 .116-.004l1.183 4.337a.83.83 0 0 1-.011.478l-1.414 4.333a.044.044 0 0 1-.085-.007l-.506-3.233a.38.38 0 0 0-.274-.304l-4.254-1.131a.059.059 0 0 1 .003-.114" style="fill:#4d6233;fill-opacity:.751497" transform="translate(-175.223 199.816)"/><path d="m6.669-152.002 3.54 2.715a.28.28 0 0 0 .308.023l2.866-1.573a.06.06 0 0 1 .078.087l-2.533 3.713a.83.83 0 0 1-.372.301L6.342-145a.044.044 0 0 1-.05-.07l2.133-2.481a.38.38 0 0 0 .054-.406L6.58-151.93a.059.059 0 0 1 .089-.072" style="fill:#59713b;fill-opacity:.75" transform="translate(-175.223 199.816)"/><path d="m9.765-127.216 4.408.683a.28.28 0 0 0 .282-.128l1.76-2.755a.06.06 0 0 1 .11.039l-.441 4.473a.83.83 0 0 1-.182.443l-2.864 3.544a.044.044 0 0 1-.078-.038l.68-3.2a.38.38 0 0 0-.147-.382L9.72-127.11a.059.059 0 0 1 .043-.106z" style="fill:#4d6233;fill-opacity:.751497" transform="translate(-175.223 199.816)"/><path d="m67.226-164.098-.858 4.377a.28.28 0 0 0 .117.287l2.683 1.868a.06.06 0 0 1-.043.108l-4.452-.618a.83.83 0 0 1-.435-.199l-3.428-3.003a.044.044 0 0 1 .04-.076l3.171.807a.38.38 0 0 0 .388-.133l2.713-3.466a.059.059 0 0 1 .104.047zM7.577-58.077l2.23-3.863a.28.28 0 0 0-.017-.31l-1.933-2.636a.06.06 0 0 1 .075-.09l4.012 2.029a.83.83 0 0 1 .347.329l2.27 3.952a.044.044 0 0 1-.064.059l-2.738-1.791a.38.38 0 0 0-.41 0l-3.69 2.4a.059.059 0 0 1-.082-.08z" style="fill:#59713b;fill-opacity:.75" transform="translate(-175.223 199.816)"/><path d="m80.75-118.737-3.356 2.94a.28.28 0 0 0-.084.298l.982 3.119a.06.06 0 0 1-.1.06l-3.145-3.212a.83.83 0 0 1-.223-.423l-.876-4.472a.044.044 0 0 1 .079-.036l2.015 2.577a.38.38 0 0 0 .388.132l4.266-1.084a.059.059 0 0 1 .053.101z" style="fill:#4d6233;fill-opacity:.751497" transform="translate(-175.223 199.816)"/><path d="m102.923-141.217-2.693 3.556a.28.28 0 0 0-.022.31l1.59 2.856a.06.06 0 0 1-.086.078l-3.728-2.51a.83.83 0 0 1-.304-.37l-1.76-4.204a.044.044 0 0 1 .07-.05l2.494 2.117a.38.38 0 0 0 .406.051l3.96-1.922a.059.059 0 0 1 .073.088m10.245 27.227-4.352.976a.28.28 0 0 0-.216.222l-.63 3.208a.06.06 0 0 1-.116.005l-1.226-4.325a.83.83 0 0 1 .007-.478l1.37-4.346a.044.044 0 0 1 .086.006l.537 3.227a.38.38 0 0 0 .277.302l4.265 1.089a.059.059 0 0 1-.002.114" style="fill:#59713b;fill-opacity:.75" transform="translate(-175.223 199.816)"/><path d="m102.97-95.765-4.413.65a.28.28 0 0 0-.232.205l-.867 3.152a.06.06 0 0 1-.117-.004l-.9-4.404a.83.83 0 0 1 .043-.476l1.69-4.232a.044.044 0 0 1 .085.012l.295 3.258a.38.38 0 0 0 .254.322l4.172 1.403a.059.059 0 0 1-.01.114M47.805-56.358l-1.866-4.051a.28.28 0 0 0-.263-.165l-3.268.055a.06.06 0 0 1-.029-.113l3.973-2.103a.83.83 0 0 1 .469-.094l4.536.43a.044.044 0 0 1 .012.086l-3.043 1.2a.38.38 0 0 0-.237.335l-.172 4.398a.059.059 0 0 1-.112.023z" style="fill:#4d6233;fill-opacity:.751497" transform="translate(-175.223 199.816)"/><path d="m99.759-55.63-3.603-2.63a.28.28 0 0 0-.31-.016l-2.827 1.64a.06.06 0 0 1-.08-.084l2.444-3.772a.83.83 0 0 1 .364-.31l4.171-1.835a.044.044 0 0 1 .052.07l-2.072 2.53a.38.38 0 0 0-.045.408l1.993 3.925a.059.059 0 0 1-.087.074m11.033-25.117-4.398.743a.28.28 0 0 0-.228.21l-.8 3.17a.06.06 0 0 1-.117-.001l-.993-4.385a.83.83 0 0 1 .032-.477l1.6-4.267a.044.044 0 0 1 .086.011l.364 3.251a.38.38 0 0 0 .26.317l4.202 1.315a.059.059 0 0 1-.008.114z" style="fill:#59713b;fill-opacity:.75" transform="translate(-175.223 199.816)"/><path d="m76.174-144.384-2.532 3.673a.28.28 0 0 0-.007.31l1.716 2.783a.06.06 0 0 1-.082.082l-3.837-2.342a.83.83 0 0 1-.32-.355l-1.946-4.12a.044.044 0 0 1 .067-.055l2.586 2.004a.38.38 0 0 0 .408.033l3.87-2.098a.059.059 0 0 1 .077.085m-45.5.229 3.658 2.552a.28.28 0 0 0 .31.01l2.792-1.7a.06.06 0 0 1 .082.082l-2.363 3.824a.83.83 0 0 1-.358.317l-4.131 1.923a.044.044 0 0 1-.054-.067l2.019-2.575a.38.38 0 0 0 .035-.408l-2.076-3.882a.059.059 0 0 1 .086-.076" style="fill:#4d6233;fill-opacity:.751497" transform="translate(-175.223 199.816)"/><path d="m35.867-169.095 1.975 4a.28.28 0 0 0 .267.158l3.265-.143a.06.06 0 0 1 .032.111l-3.914 2.21a.83.83 0 0 1-.466.106l-4.547-.307a.044.044 0 0 1-.014-.085l3.01-1.283a.38.38 0 0 0 .228-.34l.053-4.402a.059.059 0 0 1 .111-.025m-42.101 40.348 4.097 1.763a.28.28 0 0 0 .306-.053l2.392-2.227a.06.06 0 0 1 .097.064l-1.545 4.221a.83.83 0 0 1-.286.383l-3.66 2.716a.044.044 0 0 1-.066-.056l1.459-2.928a.38.38 0 0 0-.048-.407l-2.814-3.385a.059.059 0 0 1 .068-.091" style="fill:#59713b;fill-opacity:.75" transform="translate(-175.223 199.816)"/><path d="m22.958-103.092 4.264-1.309a.28.28 0 0 0 .199-.238l.382-3.246a.06.06 0 0 1 .115-.014l1.555 4.218a.83.83 0 0 1 .03.477l-1.032 4.439a.044.044 0 0 1-.087 0l-.783-3.176a.38.38 0 0 0-.3-.28l-4.336-.758a.059.059 0 0 1-.007-.114zM46.52-130.29l1.835 4.066a.28.28 0 0 0 .261.167l3.27-.03a.06.06 0 0 1 .027.112l-3.988 2.074a.83.83 0 0 1-.47.09l-4.533-.465a.044.044 0 0 1-.012-.085l3.053-1.178a.38.38 0 0 0 .24-.332l.205-4.397a.059.059 0 0 1 .112-.022m30.618 41.423-4.145-1.648a.28.28 0 0 0-.304.061l-2.33 2.294a.06.06 0 0 1-.098-.061l1.426-4.263a.83.83 0 0 1 .276-.391l3.582-2.817a.044.044 0 0 1 .068.054l-1.377 2.968a.38.38 0 0 0 .059.405l2.908 3.305a.059.059 0 0 1-.065.093M47.159-77.64l1.21-4.293a.28.28 0 0 0-.093-.296l-2.522-2.079a.06.06 0 0 1 .05-.104l4.388.977a.83.83 0 0 1 .418.234l3.172 3.271a.044.044 0 0 1-.046.073L50.64-80.92a.38.38 0 0 0-.397.1l-2.986 3.235a.059.059 0 0 1-.1-.055zm50.281-44.946-3.114 3.193a.28.28 0 0 0-.06.305l1.222 3.032a.06.06 0 0 1-.094.067l-3.387-2.955a.83.83 0 0 1-.256-.405l-1.223-4.39a.044.044 0 0 1 .076-.041l2.21 2.411a.38.38 0 0 0 .397.102l4.169-1.415a.059.059 0 0 1 .06.096" style="fill:#4d6233;fill-opacity:.751497" transform="translate(-175.223 199.816)"/><path d="m-10.09-83.246 3.972-2.03a.28.28 0 0 0 .155-.27l-.19-3.263a.06.06 0 0 1 .112-.034l2.265 3.883a.83.83 0 0 1 .112.465l-.244 4.55a.044.044 0 0 1-.085.016l-1.324-2.992a.38.38 0 0 0-.344-.223l-4.402.008a.059.059 0 0 1-.026-.11zm37.819 43.378.107-4.46a.28.28 0 0 0-.163-.263l-2.96-1.389a.06.06 0 0 1 .024-.113l4.493-.142a.83.83 0 0 1 .462.123l3.885 2.382a.044.044 0 0 1-.027.082l-3.261-.26a.38.38 0 0 0-.36.195l-2.09 3.874a.059.059 0 0 1-.11-.029m41.702-1.3-2.848-3.433a.28.28 0 0 0-.297-.092l-3.143.897a.06.06 0 0 1-.057-.101l3.295-3.058a.83.83 0 0 1 .429-.211l4.494-.755a.044.044 0 0 1 .034.079l-2.63 1.945a.38.38 0 0 0-.144.384l.97 4.294a.059.059 0 0 1-.103.05z" style="fill:#59713b;fill-opacity:.75" transform="translate(-175.223 199.816)"/></g><path d="M-26.903 71.03c-1.911-1.912 6.818-27.105 5.59-29.514s-26.74-10.155-27.162-12.825S-27.028 10.77-26.605 8.1s-15.664-23.933-14.437-26.342 27.885-1.892 29.797-3.803 1.395-28.57 3.803-29.797c2.41-1.228 23.672 14.86 26.342 14.437S36.821-59.7 39.491-59.275c2.67.422 10.417 25.935 12.825 27.162 2.41 1.228 27.602-7.502 29.514-5.59s-6.818 27.105-5.59 29.514 26.74 10.155 27.163 12.825-21.448 17.92-21.87 20.591c-.424 2.67 15.664 23.933 14.436 26.342s-27.885 1.892-29.796 3.803c-1.912 1.912-1.395 28.57-3.804 29.797s-23.671-14.86-26.342-14.437-17.92 22.293-20.59 21.87C12.765 92.18 5.02 66.667 2.61 65.44c-2.409-1.227-27.602 7.502-29.514 5.59" style="fill:#3d5425;fill-opacity:.9461078;stroke-width:4;stroke-linecap:square" transform="rotate(-162.267 49.904 37.58)scale(.81939)"/><g stroke-width="0.63494" transform="rotate(-174.322 250.768 128.65)scale(1.10673)"><ellipse cx="-405.63" cy="124.83" fill="#2c251a" fill-opacity="0.99608" rx="0.53011" ry="0.23608001" transform="rotate(-136.69)"/><path fill="#645c4a" d="M376.3 192.45a3.027 3.027 0 0 0 3.028-3.51 3.027 3.027 0 0 0-3.325 3.23c.01.147.15.278.297.28"/><path fill="#595040" d="M377.64 192.55a3.026 3.026 0 0 1 2.376-3.98 3.027 3.027 0 0 1-2.016 4.174.32.32 0 0 1-.36-.194"/><path fill="#5f5644" d="M375.85 190.86a3.027 3.027 0 0 0 3.833-2.607 3.027 3.027 0 0 0-4.048 2.26.32.32 0 0 0 .215.347"/><path fill="#5b5343" d="M377.47 191.21a3.027 3.027 0 0 0 3.028-3.51 3.027 3.027 0 0 0-3.325 3.23c.01.147.15.278.297.28"/><path fill="#564d3e" d="M376.1 189.23a3.027 3.027 0 0 0 4.377-1.526 3.027 3.027 0 0 0-4.494 1.135.32.32 0 0 0 .117.39"/><path fill="#4f473a" d="M379.26 192.2a3.027 3.027 0 0 1 1.265-4.46 3.027 3.027 0 0 1-.867 4.554.32.32 0 0 1-.398-.094"/><path fill="#534a3c" d="M378.49 190.13q.269.003.53-.04a3.03 3.03 0 0 0 1.712-.91c.646-.685.236-.845.086-1.774-.936-.095-1.164-.536-1.81.15a3.03 3.03 0 0 0-.815 2.294c.01.147.15.278.297.28"/><path fill="#4c4438" d="M376.77 187.34a2.97 2.97 0 0 1 4.75 1.1c-.75.656-3.412.236-4.733-.744a.23.23 0 0 1-.017-.356"/><path fill="#463d34" d="M381.1 191.42a2.97 2.97 0 0 0-1.378-4.677c-.611.788-.035 3.42 1.022 4.68a.23.23 0 0 0 .356-.003"/></g><path d="M-26.903 71.03c-1.911-1.912 6.818-27.105 5.59-29.514s-26.74-10.155-27.162-12.825S-27.028 10.77-26.605 8.1s-15.664-23.933-14.437-26.342 27.885-1.892 29.797-3.803 1.395-28.57 3.803-29.797c2.41-1.228 23.672 14.86 26.342 14.437S36.821-59.7 39.491-59.275c2.67.422 10.417 25.935 12.825 27.162 2.41 1.228 27.602-7.502 29.514-5.59s-6.818 27.105-5.59 29.514 26.74 10.155 27.163 12.825-21.448 17.92-21.87 20.591c-.424 2.67 15.664 23.933 14.436 26.342s-27.885 1.892-29.796 3.803c-1.912 1.912-1.395 28.57-3.804 29.797s-23.671-14.86-26.342-14.437-17.92 22.293-20.59 21.87C12.765 92.18 5.02 66.667 2.61 65.44c-2.409-1.227-27.602 7.502-29.514 5.59" style="fill:#435c28;fill-opacity:.84880239;stroke-width:4;stroke-linecap:square" transform="rotate(179.617 43.045 39.768)scale(.63945)"/><path d="M85.308 93.477 71.747 74.901 55.399 88.46l12.447-18.576-14.49-20.249 18.577 18.577 15.79-18.762-11.518 21.734Z" style="fill:#433828;fill-opacity:1;stroke:#23150d;stroke-width:2.11667;stroke-linecap:square;stroke-linejoin:round;stroke-opacity:1" transform="translate(-2.66 -2.655)"/><path d="M72.118 96.635 66.545 73.23l-19.878-3.716 20.435-2.6 3.53-20.806 4.087 21.177 21.364 1.3-20.807 5.76Z" style="fill:#372d20;fill-opacity:1;stroke:#23150d;stroke-width:2.11667;stroke-linecap:square;stroke-linejoin:round;stroke-opacity:1" transform="translate(-2.66 -2.655)"/><path d="M-26.903 71.03c-1.911-1.912 6.818-27.105 5.59-29.514s-26.74-10.155-27.162-12.825S-27.028 10.77-26.605 8.1s-15.664-23.933-14.437-26.342 27.885-1.892 29.797-3.803 1.395-28.57 3.803-29.797c2.41-1.228 23.672 14.86 26.342 14.437S36.821-59.7 39.491-59.275c2.67.422 10.417 25.935 12.825 27.162 2.41 1.228 27.602-7.502 29.514-5.59s-6.818 27.105-5.59 29.514 26.74 10.155 27.163 12.825-21.448 17.92-21.87 20.591c-.424 2.67 15.664 23.933 14.436 26.342s-27.885 1.892-29.796 3.803c-1.912 1.912-1.395 28.57-3.804 29.797s-23.671-14.86-26.342-14.437-17.92 22.293-20.59 21.87C12.765 92.18 5.02 66.667 2.61 65.44c-2.409-1.227-27.602 7.502-29.514 5.59" style="fill:#4b662e;fill-opacity:.64820361;stroke-width:3.02224;stroke-linecap:square" transform="rotate(-162.378 45.833 34.206)scale(.4944)"/><path d="M-26.903 71.03c-1.911-1.912 6.818-27.105 5.59-29.514s-26.74-10.155-27.162-12.825S-27.028 10.77-26.605 8.1s-15.664-23.933-14.437-26.342 27.885-1.892 29.797-3.803 1.395-28.57 3.803-29.797c2.41-1.228 23.672 14.86 26.342 14.437S36.821-59.7 39.491-59.275c2.67.422 10.417 25.935 12.825 27.162 2.41 1.228 27.602-7.502 29.514-5.59s-6.818 27.105-5.59 29.514 26.74 10.155 27.163 12.825-21.448 17.92-21.87 20.591c-.424 2.67 15.664 23.933 14.436 26.342s-27.885 1.892-29.796 3.803c-1.912 1.912-1.395 28.57-3.804 29.797s-23.671-14.86-26.342-14.437-17.92 22.293-20.59 21.87C12.765 92.18 5.02 66.667 2.61 65.44c-2.409-1.227-27.602 7.502-29.514 5.59" style="fill:#537233;fill-opacity:.350299;stroke-width:3.60598;stroke-linecap:square" transform="rotate(179.602 39.933 37.916)scale(.41434)"/><g stroke-width="0.63494" transform="rotate(-56.853 164.202 477.782)scale(1.10673)"><ellipse cx="-405.63" cy="124.83" fill="#2c251a" fill-opacity="0.99608" rx="0.53011" ry="0.23608001" transform="rotate(-136.69)"/><path fill="#645c4a" d="M376.3 192.45a3.027 3.027 0 0 0 3.028-3.51 3.027 3.027 0 0 0-3.325 3.23c.01.147.15.278.297.28"/><path fill="#595040" d="M377.64 192.55a3.026 3.026 0 0 1 2.376-3.98 3.027 3.027 0 0 1-2.016 4.174.32.32 0 0 1-.36-.194"/><path fill="#5f5644" d="M375.85 190.86a3.027 3.027 0 0 0 3.833-2.607 3.027 3.027 0 0 0-4.048 2.26.32.32 0 0 0 .215.347"/><path fill="#5b5343" d="M377.47 191.21a3.027 3.027 0 0 0 3.028-3.51 3.027 3.027 0 0 0-3.325 3.23c.01.147.15.278.297.28"/><path fill="#564d3e" d="M376.1 189.23a3.027 3.027 0 0 0 4.377-1.526 3.027 3.027 0 0 0-4.494 1.135.32.32 0 0 0 .117.39"/><path fill="#4f473a" d="M379.26 192.2a3.027 3.027 0 0 1 1.265-4.46 3.027 3.027 0 0 1-.867 4.554.32.32 0 0 1-.398-.094"/><path fill="#534a3c" d="M378.49 190.13q.269.003.53-.04a3.03 3.03 0 0 0 1.712-.91c.646-.685.236-.845.086-1.774-.936-.095-1.164-.536-1.81.15a3.03 3.03 0 0 0-.815 2.294c.01.147.15.278.297.28"/><path fill="#4c4438" d="M376.77 187.34a2.97 2.97 0 0 1 4.75 1.1c-.75.656-3.412.236-4.733-.744a.23.23 0 0 1-.017-.356"/><path fill="#463d34" d="M381.1 191.42a2.97 2.97 0 0 0-1.378-4.677c-.611.788-.035 3.42 1.022 4.68a.23.23 0 0 0 .356-.003"/></g><g stroke-width="0.63494" transform="rotate(-126.658 233.194 221.64)scale(1.10673)"><ellipse cx="-405.63" cy="124.83" fill="#2c251a" fill-opacity="0.99608" rx="0.53011" ry="0.23608001" transform="rotate(-136.69)"/><path fill="#645c4a" d="M376.3 192.45a3.027 3.027 0 0 0 3.028-3.51 3.027 3.027 0 0 0-3.325 3.23c.01.147.15.278.297.28"/><path fill="#595040" d="M377.64 192.55a3.026 3.026 0 0 1 2.376-3.98 3.027 3.027 0 0 1-2.016 4.174.32.32 0 0 1-.36-.194"/><path fill="#5f5644" d="M375.85 190.86a3.027 3.027 0 0 0 3.833-2.607 3.027 3.027 0 0 0-4.048 2.26.32.32 0 0 0 .215.347"/><path fill="#5b5343" d="M377.47 191.21a3.027 3.027 0 0 0 3.028-3.51 3.027 3.027 0 0 0-3.325 3.23c.01.147.15.278.297.28"/><path fill="#564d3e" d="M376.1 189.23a3.027 3.027 0 0 0 4.377-1.526 3.027 3.027 0 0 0-4.494 1.135.32.32 0 0 0 .117.39"/><path fill="#4f473a" d="M379.26 192.2a3.027 3.027 0 0 1 1.265-4.46 3.027 3.027 0 0 1-.867 4.554.32.32 0 0 1-.398-.094"/><path fill="#534a3c" d="M378.49 190.13q.269.003.53-.04a3.03 3.03 0 0 0 1.712-.91c.646-.685.236-.845.086-1.774-.936-.095-1.164-.536-1.81.15a3.03 3.03 0 0 0-.815 2.294c.01.147.15.278.297.28"/><path fill="#4c4438" d="M376.77 187.34a2.97 2.97 0 0 1 4.75 1.1c-.75.656-3.412.236-4.733-.744a.23.23 0 0 1-.017-.356"/><path fill="#463d34" d="M381.1 191.42a2.97 2.97 0 0 0-1.378-4.677c-.611.788-.035 3.42 1.022 4.68a.23.23 0 0 0 .356-.003"/></g><g stroke-width="0.63494" transform="rotate(82.751 319.252 -90.59)scale(1.10673)"><ellipse cx="-405.63" cy="124.83" fill="#2c251a" fill-opacity="0.99608" rx="0.53011" ry="0.23608001" transform="rotate(-136.69)"/><path fill="#645c4a" d="M376.3 192.45a3.027 3.027 0 0 0 3.028-3.51 3.027 3.027 0 0 0-3.325 3.23c.01.147.15.278.297.28"/><path fill="#595040" d="M377.64 192.55a3.026 3.026 0 0 1 2.376-3.98 3.027 3.027 0 0 1-2.016 4.174.32.32 0 0 1-.36-.194"/><path fill="#5f5644" d="M375.85 190.86a3.027 3.027 0 0 0 3.833-2.607 3.027 3.027 0 0 0-4.048 2.26.32.32 0 0 0 .215.347"/><path fill="#5b5343" d="M377.47 191.21a3.027 3.027 0 0 0 3.028-3.51 3.027 3.027 0 0 0-3.325 3.23c.01.147.15.278.297.28"/><path fill="#564d3e" d="M376.1 189.23a3.027 3.027 0 0 0 4.377-1.526 3.027 3.027 0 0 0-4.494 1.135.32.32 0 0 0 .117.39"/><path fill="#4f473a" d="M379.26 192.2a3.027 3.027 0 0 1 1.265-4.46 3.027 3.027 0 0 1-.867 4.554.32.32 0 0 1-.398-.094"/><path fill="#534a3c" d="M378.49 190.13q.269.003.53-.04a3.03 3.03 0 0 0 1.712-.91c.646-.685.236-.845.086-1.774-.936-.095-1.164-.536-1.81.15a3.03 3.03 0 0 0-.815 2.294c.01.147.15.278.297.28"/><path fill="#4c4438" d="M376.77 187.34a2.97 2.97 0 0 1 4.75 1.1c-.75.656-3.412.236-4.733-.744a.23.23 0 0 1-.017-.356"/><path fill="#463d34" d="M381.1 191.42a2.97 2.97 0 0 0-1.378-4.677c-.611.788-.035 3.42 1.022 4.68a.23.23 0 0 0 .356-.003"/></g><g stroke-width="0.63494" transform="rotate(-1.474 -4469.535 15035.829)scale(1.10673)"><ellipse cx="-405.63" cy="124.83" fill="#2c251a" fill-opacity="0.99608" rx="0.53011" ry="0.23608001" transform="rotate(-136.69)"/><path fill="#645c4a" d="M376.3 192.45a3.027 3.027 0 0 0 3.028-3.51 3.027 3.027 0 0 0-3.325 3.23c.01.147.15.278.297.28"/><path fill="#595040" d="M377.64 192.55a3.026 3.026 0 0 1 2.376-3.98 3.027 3.027 0 0 1-2.016 4.174.32.32 0 0 1-.36-.194"/><path fill="#5f5644" d="M375.85 190.86a3.027 3.027 0 0 0 3.833-2.607 3.027 3.027 0 0 0-4.048 2.26.32.32 0 0 0 .215.347"/><path fill="#5b5343" d="M377.47 191.21a3.027 3.027 0 0 0 3.028-3.51 3.027 3.027 0 0 0-3.325 3.23c.01.147.15.278.297.28"/><path fill="#564d3e" d="M376.1 189.23a3.027 3.027 0 0 0 4.377-1.526 3.027 3.027 0 0 0-4.494 1.135.32.32 0 0 0 .117.39"/><path fill="#4f473a" d="M379.26 192.2a3.027 3.027 0 0 1 1.265-4.46 3.027 3.027 0 0 1-.867 4.554.32.32 0 0 1-.398-.094"/><path fill="#534a3c" d="M378.49 190.13q.269.003.53-.04a3.03 3.03 0 0 0 1.712-.91c.646-.685.236-.845.086-1.774-.936-.095-1.164-.536-1.81.15a3.03 3.03 0 0 0-.815 2.294c.01.147.15.278.297.28"/><path fill="#4c4438" d="M376.77 187.34a2.97 2.97 0 0 1 4.75 1.1c-.75.656-3.412.236-4.733-.744a.23.23 0 0 1-.017-.356"/><path fill="#463d34" d="M381.1 191.42a2.97 2.97 0 0 0-1.378-4.677c-.611.788-.035 3.42 1.022 4.68a.23.23 0 0 0 .356-.003"/></g><path fill="#576f39" d="m110.433 39.039-.647 4.413a.28.28 0 0 0 .13.282l2.77 1.737a.06.06 0 0 1-.037.11l-4.477-.404a.83.83 0 0 1-.444-.177l-3.568-2.836a.044.044 0 0 1 .037-.078l3.205.654a.38.38 0 0 0 .381-.15l2.544-3.593a.059.059 0 0 1 .106.042m-2.136 55.672-4.418-.617a.28.28 0 0 0-.28.132l-1.72 2.78a.06.06 0 0 1-.11-.036l.375-4.48a.83.83 0 0 1 .175-.445l2.812-3.586a.044.044 0 0 1 .078.036l-.633 3.21a.38.38 0 0 0 .153.38l3.61 2.52a.059.059 0 0 1-.042.106M97.98 116.963l-2.86-3.423a.28.28 0 0 0-.296-.091l-3.141.907a.06.06 0 0 1-.058-.101l3.285-3.068a.83.83 0 0 1 .429-.213l4.491-.77a.044.044 0 0 1 .034.08l-2.624 1.954a.38.38 0 0 0-.141.384l.982 4.291a.059.059 0 0 1-.102.05z" style="fill:#637c41;fill-opacity:.851796"/><path fill="#576f39" d="m71.278 124.224-1.45-4.218a.28.28 0 0 0-.245-.19l-3.258-.272a.06.06 0 0 1-.017-.115l4.163-1.696a.83.83 0 0 1 .476-.046l4.47.882a.044.044 0 0 1 .004.087l-3.149.89a.38.38 0 0 0-.269.308l-.612 4.36a.059.059 0 0 1-.113.01M15.49 90.786l4.272-1.282a.28.28 0 0 0 .2-.237l.402-3.244a.06.06 0 0 1 .115-.013l1.529 4.227a.83.83 0 0 1 .027.478l-1.06 4.432a.044.044 0 0 1-.085 0l-.765-3.181a.38.38 0 0 0-.297-.281l-4.332-.785a.059.059 0 0 1-.007-.114zm110.819 6.201-4.457-.172a.28.28 0 0 0-.267.159l-1.43 2.939a.06.06 0 0 1-.114-.025l-.077-4.495a.83.83 0 0 1 .13-.46l2.438-3.85a.044.044 0 0 1 .082.028l-.308 3.257a.38.38 0 0 0 .19.363l3.844 2.146a.059.059 0 0 1-.03.11zM45.686 57.473l4.164 1.598a.28.28 0 0 0 .304-.065l2.3-2.322a.06.06 0 0 1 .1.06l-1.375 4.28a.83.83 0 0 1-.27.394l-3.548 2.86a.044.044 0 0 1-.069-.053l1.34-2.984a.38.38 0 0 0-.063-.405l-2.948-3.269a.059.059 0 0 1 .065-.094m-27.684-7.656 4.401.725a.28.28 0 0 0 .284-.125l1.786-2.739a.06.06 0 0 1 .11.04l-.484 4.469a.83.83 0 0 1-.185.44l-2.899 3.517a.044.044 0 0 1-.077-.038l.71-3.193a.38.38 0 0 0-.143-.384l-3.547-2.607a.059.059 0 0 1 .044-.105M38.065 24.14l2.893 3.394a.28.28 0 0 0 .297.088l3.132-.938a.06.06 0 0 1 .058.1l-3.254 3.101a.83.83 0 0 1-.426.217l-4.484.814a.044.044 0 0 1-.035-.079l2.605-1.98a.38.38 0 0 0 .137-.385l-1.025-4.281a.059.059 0 0 1 .102-.052zm17.584 2.965 2.632 3.601a.28.28 0 0 0 .29.11l3.192-.702a.06.06 0 0 1 .051.104l-3.476 2.85a.83.83 0 0 1-.441.185l-4.532.478a.044.044 0 0 1-.03-.082l2.746-1.78a.38.38 0 0 0 .166-.374l-.704-4.346a.059.059 0 0 1 .106-.044" style="fill:#637c41;fill-opacity:.85179597"/><path fill="#576f39" d="m125.161 58.963-4.274 1.274a.28.28 0 0 0-.2.236l-.408 3.244a.06.06 0 0 1-.116.012l-1.521-4.23a.83.83 0 0 1-.026-.477l1.067-4.43a.044.044 0 0 1 .087 0l.758 3.182a.38.38 0 0 0 .297.282l4.33.792a.059.059 0 0 1 .006.114zm-41.14-27.154-.646 4.413a.28.28 0 0 0 .13.282l2.77 1.736a.06.06 0 0 1-.037.11l-4.478-.403a.83.83 0 0 1-.444-.178l-3.567-2.835a.044.044 0 0 1 .036-.078l3.206.654a.38.38 0 0 0 .38-.151l2.545-3.593a.059.059 0 0 1 .105.042z" style="fill:#637c41;fill-opacity:.851796"/><path fill="#576f39" d="m25.13 73.478 4.43.527a.28.28 0 0 0 .277-.138l1.661-2.815a.06.06 0 0 1 .112.034l-.283 4.486a.83.83 0 0 1-.166.45l-2.738 3.642a.044.044 0 0 1-.079-.034l.567-3.223a.38.38 0 0 0-.16-.376l-3.66-2.446a.059.059 0 0 1 .039-.107" style="fill:#637c41;fill-opacity:.85179597"/><path fill="#576f39" d="m46.545 113.624.552-4.426a.28.28 0 0 0-.136-.28l-2.806-1.676a.06.06 0 0 1 .035-.111l4.484.308a.83.83 0 0 1 .448.168l3.627 2.758a.044.044 0 0 1-.035.08l-3.218-.586a.38.38 0 0 0-.378.159l-2.467 3.646a.059.059 0 0 1-.106-.04" style="fill:#637c41;fill-opacity:.8509804"/><path fill="#576f39" d="m86.469 101.306-3.145-3.163a.28.28 0 0 0-.304-.065l-3.05 1.177a.06.06 0 0 1-.066-.096l3.007-3.342a.83.83 0 0 1 .408-.249l4.408-1.156a.044.044 0 0 1 .04.076l-2.444 2.174a.38.38 0 0 0-.108.395l1.351 4.19a.059.059 0 0 1-.097.059m-35.046-8.165 2.741-3.519a.28.28 0 0 0 .026-.309l-1.55-2.878a.06.06 0 0 1 .086-.077l3.694 2.562a.83.83 0 0 1 .299.373l1.702 4.227a.044.044 0 0 1-.07.05l-2.465-2.151a.38.38 0 0 0-.406-.057l-3.986 1.868a.059.059 0 0 1-.07-.089z" style="fill:#637c41;fill-opacity:.85179597"/><path fill="#576f39" d="m70.709 47.36.474 4.435a.28.28 0 0 0 .196.24l3.115.992a.06.06 0 0 1-.009.116l-4.436.725a.83.83 0 0 1-.474-.061l-4.162-1.857a.044.044 0 0 1 .016-.084l3.267-.166a.38.38 0 0 0 .332-.241l1.567-4.114a.059.059 0 0 1 .113.015zm2.17-30.727.474 4.435a.28.28 0 0 0 .196.24l3.116.992a.06.06 0 0 1-.01.115l-4.436.726a.83.83 0 0 1-.474-.062l-4.162-1.856a.044.044 0 0 1 .016-.085l3.267-.166a.38.38 0 0 0 .332-.24l1.567-4.114a.059.059 0 0 1 .113.015zm17.727 59.728-4.362.931a.28.28 0 0 0-.219.22l-.663 3.201a.06.06 0 0 1-.116.004l-1.181-4.338a.83.83 0 0 1 .012-.478l1.415-4.331a.044.044 0 0 1 .086.007l.504 3.232a.38.38 0 0 0 .274.305l4.253 1.133a.059.059 0 0 1-.003.114m4.706-21.449-3.695 2.5a.28.28 0 0 0-.12.286l.586 3.216a.06.06 0 0 1-.107.047l-2.721-3.578a.83.83 0 0 1-.168-.448l-.313-4.546a.044.044 0 0 1 .082-.026l1.68 2.808a.38.38 0 0 0 .368.18l4.368-.545a.059.059 0 0 1 .04.106" style="fill:#637c41;fill-opacity:.851796"/><path fill="#576f39" d="m34.499 44.501 4.277 1.267a.28.28 0 0 0 .297-.09l2.112-2.494a.06.06 0 0 1 .104.053l-1.035 4.374a.83.83 0 0 1-.24.414l-3.312 3.129a.044.044 0 0 1-.072-.047l1.102-3.08a.38.38 0 0 0-.095-.4L34.442 44.6a.059.059 0 0 1 .057-.1z" style="fill:#637c41;fill-opacity:.85179597"/><path d="M152.627 109.695h44.348v48.594h-44.348z" style="fill:#3e4b26;fill-opacity:.854902;stroke-width:4;stroke-linecap:square"/><path d="M151.612 45.514h44.347v48.594h-44.347z" style="fill:#364221;fill-opacity:.854902;stroke-width:4;stroke-linecap:square"/><path d="M156.639-15.076h44.347v48.594H156.64z" style="fill:#2d361b;fill-opacity:.854902;stroke-width:4;stroke-linecap:square"/><path d="M217.228-3.963h44.348V44.63h-44.348z" style="fill:#272f17;fill-opacity:.854902;stroke-width:4;stroke-linecap:square"/><path d="M204.793 69.062h44.348v48.593h-44.348z" style="fill:#151a0d;fill-opacity:.853293;stroke-width:4;stroke-linecap:square"/><path d="M211.672 143.939h44.348v48.593h-44.348z" style="fill:#3e4b26;fill-opacity:.854902;stroke-width:4;stroke-linecap:square"/></svg>