<svg xmlns="http://www.w3.org/2000/svg" width="185" height="185" viewBox="0 0 48.947917 48.947917"><g transform="scale(1.96165)"><path d="M4 4h16.9v16.9H4z" style="fill:#674b24;fill-opacity:1;stroke:none;stroke-width:.798207;stroke-linecap:butt;stroke-linejoin:miter;stroke-miterlimit:4;stroke-dasharray:none;stroke-opacity:1"/><path d="M8.243 4.041v16.87m8.817-16.87v16.87m-4.408-16.87v16.87" style="fill:none;stroke:#342612;stroke-width:1;stroke-linecap:butt;stroke-linejoin:miter;stroke-miterlimit:4;stroke-dasharray:none;stroke-opacity:1"/><path d="M-14.931 15.644H14.4v4h-29.332z" style="fill:#9e7437;fill-opacity:1;stroke:#3f2e16;stroke-width:1;stroke-linecap:butt;stroke-linejoin:bevel;stroke-miterlimit:4;stroke-dasharray:none;stroke-opacity:1" transform="scale(-1 1)rotate(45)"/><path d="M.5.5v23.952h23.952V.5Zm4.041 4.041h15.87v15.87H4.54Z" style="fill:#9e7437;stroke-width:0;stroke-linecap:round"/><path d="M4 4h16.9v16.9H4z" style="fill:none;fill-opacity:1;stroke:none;stroke-width:1;stroke-linecap:butt;stroke-linejoin:bevel;stroke-miterlimit:4;stroke-dasharray:none;stroke-opacity:1"/><circle cx="2.576957" cy="2.576957" r="0.82695758" style="fill:gray;fill-opacity:1;stroke:#2e2e2e;stroke-width:.499999;stroke-linecap:round;stroke-linejoin:round;stroke-opacity:1"/><circle cx="22.374956" cy="2.576957" r="0.82695758" style="fill:gray;fill-opacity:1;stroke:#2e2e2e;stroke-width:.499999;stroke-linecap:round;stroke-linejoin:round;stroke-opacity:1"/><circle cx="2.576957" cy="22.374956" r="0.82695758" style="fill:gray;fill-opacity:1;stroke:#2e2e2e;stroke-width:.499999;stroke-linecap:round;stroke-linejoin:round;stroke-opacity:1"/><circle cx="22.374956" cy="22.374956" r="0.82695758" style="fill:gray;fill-opacity:1;stroke:#2e2e2e;stroke-width:.499999;stroke-linecap:round;stroke-linejoin:round;stroke-opacity:1"/><path d="M4.54 4.54h15.871v15.871H4.541z" style="fill:none;fill-opacity:1;stroke:#3f2e16;stroke-width:1;stroke-linecap:butt;stroke-linejoin:miter;stroke-miterlimit:4;stroke-dasharray:none;stroke-opacity:1"/><path d="M.5.5h23.952v23.952H.5z" style="fill:none;fill-opacity:1;stroke:#3f2e16;stroke-width:1;stroke-linecap:round;stroke-linejoin:round;stroke-miterlimit:4;stroke-dasharray:none;stroke-opacity:1"/><path d="M20.411 4.54h4m-4 15.871h4m-23.871 0h4M.54 4.54h4" style="fill:none;stroke:#3f2e16;stroke-width:1;stroke-linecap:butt;stroke-linejoin:miter;stroke-miterlimit:4;stroke-dasharray:none;stroke-opacity:1"/></g></svg>