<svg xmlns="http://www.w3.org/2000/svg" width="165.71259" height="244.713" viewBox="0 0 43.844787 64.74698"><g transform="translate(-108.728 -171.155)"><rect width="64.746979" height="43.844788" x="171.15483" y="-152.57288" rx="2.9699221" ry="2.5275857" style="display:inline;fill:#302412;fill-opacity:1;stroke-width:.125008" transform="rotate(90)"/><rect width="54.147556" height="39.876148" x="176.45454" y="-150.58856" rx="1.3229166" ry="1.3229166" style="display:inline;fill:#785a2e;fill-opacity:1;stroke-width:.128916" transform="rotate(90)"/><rect width="1.5875" height="39.876148" x="173.13921" y="-150.58861" rx="0.79374999" ry="0.79374999" style="display:inline;fill:#785a2e;fill-opacity:1;stroke-width:.0959866" transform="rotate(90)"/><rect width="1.5875" height="39.876148" x="232.32994" y="-150.58861" rx="0.79374999" ry="0.79374999" style="display:inline;fill:#785a2e;fill-opacity:1;stroke-width:.0959866" transform="rotate(90)"/><g transform="rotate(-90 203.907 762.472)"><circle cx="-550.88519" cy="877.25281" r="4.2107244" style="fill:#0094b2;fill-opacity:.3;fill-rule:evenodd;stroke:#005666;stroke-width:.777939;stroke-linecap:round;stroke-linejoin:round;stroke-dasharray:none;stroke-opacity:.8;stop-color:#000" transform="rotate(-79.901)"/><circle cx="-550.88519" cy="877.25281" r="4.2107244" style="fill:#0094b2;fill-opacity:.3;fill-rule:evenodd;stroke:#005666;stroke-width:.777939;stroke-linecap:round;stroke-linejoin:round;stroke-dasharray:none;stroke-opacity:.8;stop-color:#000" transform="rotate(-79.901)"/><circle cx="-550.93719" cy="877.25598" r="1.908167" style="fill:#b2b2b2;fill-opacity:1;fill-rule:evenodd;stroke:gray;stroke-width:.677984;stroke-linecap:round;stroke-linejoin:round;stroke-dasharray:none;stroke-opacity:1;stop-color:#000" transform="rotate(-79.901)"/><g transform="matrix(-1 .00155 .00155 1 864.664 579.773)"><ellipse cx="106.28225" cy="103.28164" rx="2.9541814" ry="2.9513478" style="fill:#9edfdd;fill-opacity:1;fill-rule:nonzero;stroke:#0e2b2a;stroke-width:.925997;stroke-linecap:round;stroke-linejoin:round;stroke-miterlimit:4;stroke-dasharray:none;stroke-dashoffset:0;stroke-opacity:1;paint-order:normal"/><path d="M107.782 102.134a1.112 1.111 0 0 0-1.112 1.11 1.112 1.111 0 0 0 .002.059 1.112 1.111 0 0 0-.214-.02 1.112 1.111 0 0 0-1.112 1.11 1.112 1.111 0 0 0 .784 1.06 1.112 1.111 0 0 0-.178.603 1.112 1.111 0 0 0 1.112 1.11 1.112 1.111 0 0 0 .906-.465 1.112 1.111 0 0 0 .819.36 1.112 1.111 0 0 0 1.112-1.111 1.112 1.111 0 0 0-.242-.691 1.112 1.111 0 0 0 .786-1.063 1.112 1.111 0 0 0-1.111-1.11 1.112 1.111 0 0 0-.442.091 1.112 1.111 0 0 0-1.11-1.044zm.441 2.13a1.112 1.111 0 0 0 .24.624 1.112 1.111 0 0 0-.58.418 1.112 1.111 0 0 0-.49-.311 1.112 1.111 0 0 0 .178-.602 1.112 1.111 0 0 0-.002-.058 1.112 1.111 0 0 0 .213.02 1.112 1.111 0 0 0 .441-.092z" style="fill:#cb4431;fill-opacity:1;fill-rule:nonzero;stroke:#511b14;stroke-width:.69453;stroke-linecap:round;stroke-linejoin:round;stroke-miterlimit:4;stroke-dasharray:none;stroke-dashoffset:0;stroke-opacity:1;paint-order:normal"/><ellipse cx="107.8959" cy="104.65038" rx="0.78642541" ry="0.78568619" style="fill:#d3db57;fill-opacity:1;fill-rule:nonzero;stroke:#3c3f0d;stroke-width:.463021;stroke-linecap:round;stroke-linejoin:round;stroke-miterlimit:4;stroke-dasharray:none;stroke-dashoffset:0;stroke-opacity:1;paint-order:normal"/><path d="M106.494 98.07a1.112 1.111 0 0 0-1.112 1.111 1.112 1.111 0 0 0 .003.059 1.112 1.111 0 0 0-.214-.021 1.112 1.111 0 0 0-1.112 1.111 1.112 1.111 0 0 0 .784 1.062 1.112 1.111 0 0 0-.179.601 1.112 1.111 0 0 0 1.113 1.111 1.112 1.111 0 0 0 .905-.466 1.112 1.111 0 0 0 .82.36 1.112 1.111 0 0 0 1.112-1.11 1.112 1.111 0 0 0-.242-.692 1.112 1.111 0 0 0 .786-1.062 1.112 1.111 0 0 0-1.112-1.111 1.112 1.111 0 0 0-.44.091 1.112 1.111 0 0 0-1.11-1.044zm.441 2.13a1.112 1.111 0 0 0 .24.625 1.112 1.111 0 0 0-.58.417 1.112 1.111 0 0 0-.49-.31 1.112 1.111 0 0 0 .177-.602 1.112 1.111 0 0 0 0-.06 1.112 1.111 0 0 0 .213.022 1.112 1.111 0 0 0 .44-.092" style="fill:#cb4431;fill-opacity:1;fill-rule:nonzero;stroke:#511b14;stroke-width:.694531;stroke-linecap:round;stroke-linejoin:round;stroke-miterlimit:4;stroke-dasharray:none;stroke-dashoffset:0;stroke-opacity:1;paint-order:normal"/><ellipse cx="106.63796" cy="100.63244" rx="0.78642541" ry="0.78568619" style="fill:#d3db57;fill-opacity:1;fill-rule:nonzero;stroke:#3c3f0d;stroke-width:.463021;stroke-linecap:round;stroke-linejoin:round;stroke-miterlimit:4;stroke-dasharray:none;stroke-dashoffset:0;stroke-opacity:1;paint-order:normal"/></g><path d="M758.216 684.931a1.112 1.111 74.089 0 0 1.374.765 1.112 1.111 74.089 0 0 .056-.016 1.112 1.111 74.089 0 0 .038.212 1.112 1.111 74.089 0 0 1.374.764 1.112 1.111 74.089 0 0 .806-1.044 1.112 1.111 74.089 0 0 .627.009 1.112 1.111 74.089 0 0 .764-1.375 1.112 1.111 74.089 0 0-.697-.742 1.112 1.111 74.089 0 0 .122-.887 1.112 1.111 74.089 0 0-1.374-.766 1.112 1.111 74.089 0 0-.598.422 1.112 1.111 74.089 0 0-1.237-.464 1.112 1.111 74.089 0 0-.764 1.373 1.112 1.111 74.089 0 0 .209.4 1.112 1.111 74.089 0 0-.7 1.353zm1.928-1.008a1.112 1.111 74.089 0 0 .535-.4 1.112 1.111 74.089 0 0 .56.441 1.112 1.111 74.089 0 0-.164.558 1.112 1.111 74.089 0 0-.627-.009 1.112 1.111 74.089 0 0-.057.018 1.112 1.111 74.089 0 0-.037-.21 1.112 1.111 74.089 0 0-.21-.4z" style="fill:#55d6ce;fill-opacity:1;fill-rule:nonzero;stroke:#0f3c39;stroke-width:.694531;stroke-linecap:round;stroke-linejoin:round;stroke-miterlimit:4;stroke-dasharray:none;stroke-dashoffset:0;stroke-opacity:1;paint-order:normal"/><ellipse cx="-866.41199" cy="543.95367" rx="0.78642541" ry="0.78568619" style="fill:#d3db57;fill-opacity:1;fill-rule:nonzero;stroke:#3c3f0d;stroke-width:.463021;stroke-linecap:round;stroke-linejoin:round;stroke-miterlimit:4;stroke-dasharray:none;stroke-dashoffset:0;stroke-opacity:1;paint-order:normal" transform="rotate(-105.911)"/></g></g></svg>