<svg xmlns="http://www.w3.org/2000/svg" width="125" height="141.90401" viewBox="0 0 33.072917 37.545434"><g transform="rotate(90 101.13 20.512)"><path d="M110.985 98.49c-.568 0-1.026.458-1.026 1.027 0 .568.458 1.025 1.026 1.025h4.665v9.127h-4.665c-.568 0-1.026.457-1.026 1.026 0 .568.458 1.025 1.026 1.025h5.743c.544-.026.973-.433.973-.935V99.427c0-.503-.43-.91-.973-.935l-.052-.001z" style="display:inline;fill:gray;fill-opacity:1;stroke:#2e2e2e;stroke-width:.926042;stroke-miterlimit:4;stroke-dasharray:none;stroke-opacity:1"/><rect width="33.072918" height="32.014584" x="88.569145" y="-112.63292" rx="3.3072915" ry="3.3072915" style="display:inline;fill:#302412;fill-opacity:1;stroke-width:.128064" transform="rotate(90)"/><rect width="29.104166" height="23.415625" x="90.55352" y="-106.01833" rx="1.7457436" ry="1.7716563" style="display:inline;fill:#785a2e;fill-opacity:1;stroke:none;stroke-width:.163173;stroke-miterlimit:4;stroke-dasharray:none" transform="rotate(90)"/><rect width="29.104166" height="2.6458333" x="90.55352" y="-110.64854" rx="1.3229166" ry="1.3229166" style="display:inline;fill:#785a2e;fill-opacity:1;stroke-width:.151955" transform="rotate(90)"/><path d="M92.988 90.554h2.645v29.104h-2.645zm-6.88 0h2.646v29.104h-2.646zm13.759 0h2.646v29.104h-2.646z" style="fill:#5a4323;fill-opacity:1;stroke:none;stroke-width:1.48901;stroke-linecap:round;stroke-linejoin:round"/></g></svg>