<svg xmlns="http://www.w3.org/2000/svg" width="34.806702mm" height="29.351887mm" viewBox="0 0 34.806702 29.351887"><g transform="translate(-96.837 -64.294)"><rect width="32.744442" height="27.293062" x="97.868576" y="65.323151" rx="2.4633474" ry="2.4551489" style="fill:#404040;fill-opacity:1;fill-rule:evenodd;stroke:#0b0b0b;stroke-width:2.06054;stroke-linecap:round;stroke-linejoin:round;stroke-dasharray:none;stroke-opacity:1;stop-color:#000"/><rect width="32.904446" height="22.413494" x="97.788673" y="65.243279" rx="2.4633474" ry="2.4551489" style="fill:#404040;fill-opacity:1;fill-rule:evenodd;stroke:#0b0b0b;stroke-width:1.87184;stroke-linecap:round;stroke-linejoin:round;stroke-dasharray:none;stroke-opacity:1;stop-color:#000"/><path d="M106.714 91.861h15.495a8.805 3.304 0 0 0-7.746-1.736 8.805 3.304 0 0 0-7.75 1.736z" style="fill:#4d4d4d;fill-opacity:1;fill-rule:evenodd;stroke:#0b0b0b;stroke-width:3.286;stroke-linecap:round;stroke-dasharray:none;stroke-opacity:1;paint-order:stroke fill markers;stop-color:#000"/><ellipse cx="-77.892891" cy="115.07082" rx="5.123292" ry="10.263678" style="fill:#4d4d4d;fill-opacity:1;fill-rule:evenodd;stroke:#0b0b0b;stroke-width:3.28599;stroke-linecap:round;stroke-dasharray:none;stroke-opacity:1;paint-order:stroke fill markers;stop-color:#000" transform="rotate(-90)"/><ellipse cx="-79.680748" cy="115.09898" rx="1.4767119" ry="3.1617453" style="fill:#404040;fill-opacity:1;fill-rule:evenodd;stroke:#0b0b0b;stroke-width:2.50897;stroke-linecap:round;stroke-dasharray:none;stroke-opacity:1;paint-order:stroke fill markers;stop-color:#000" transform="rotate(-90)"/><ellipse cx="-31.912403" cy="121.24927" rx="0.96293378" ry="0.96420449" style="fill:gray;fill-opacity:1;stroke:#0b0b0b;stroke-width:.687672;stroke-linecap:round;stroke-linejoin:round;stroke-opacity:1" transform="rotate(-71.118)skewX(.058)"/><rect width="1.8413725" height="0.27756166" x="-32.809689" y="121.09176" rx="0.17703721" ry="0.17750475" style="fill:#0b0b0b;fill-opacity:1;fill-rule:evenodd;stroke:none;stroke-width:3.21371;stroke-linecap:round;stroke-dasharray:none;stroke-opacity:1;paint-order:stroke fill markers;stop-color:#000" transform="rotate(-71.118)skewX(.058)"/><rect width="1.8438025" height="0.27719587" x="120.30873" y="31.765551" rx="0.17750476" ry="0.17703719" style="fill:#0b0b0b;fill-opacity:1;fill-rule:evenodd;stroke:none;stroke-width:3.21371;stroke-linecap:round;stroke-dasharray:none;stroke-opacity:1;paint-order:stroke fill markers;stop-color:#000" transform="rotate(18.824)skewX(-.058)"/><path d="M-90.595 123.895h1.484v1.486h-1.484zm0 1.596h1.484v1.487h-1.484zm0 1.616h1.484v1.487h-1.484z" style="fill:#262626;fill-opacity:1;fill-rule:evenodd;stroke:none;stroke-width:1.605;stroke-linecap:round;stroke-dasharray:none;stroke-opacity:1;paint-order:stroke fill markers;stop-color:#000" transform="rotate(-90)"/><rect width="1.4837949" height="1.4862702" x="-90.595078" y="99.750069" rx="0.87497264" ry="0.8778944" style="fill:#8f2424;fill-opacity:1;fill-rule:evenodd;stroke:none;stroke-width:1.605;stroke-linecap:round;stroke-dasharray:none;stroke-opacity:1;paint-order:stroke fill markers;stop-color:#000" transform="rotate(-90)"/><path d="M-90.595 101.346h1.484v1.487h-1.484zm0 1.616h1.484v1.487h-1.484z" style="fill:#262626;fill-opacity:1;fill-rule:evenodd;stroke:none;stroke-width:1.605;stroke-linecap:round;stroke-dasharray:none;stroke-opacity:1;paint-order:stroke fill markers;stop-color:#000" transform="rotate(-90)"/><path d="M-85.069 99.465h17.184v.555H-85.07zm0 2.201h17.184v.555H-85.07z" style="fill:#0b0b0b;fill-opacity:1;fill-rule:evenodd;stroke:none;stroke-width:1.605;stroke-linecap:round;stroke-dasharray:none;stroke-opacity:1;paint-order:stroke fill markers;stop-color:#000" transform="rotate(-90)"/><rect width="1.2471639" height="1.6458302" x="-83.286888" y="101.13805" rx="0.34668726" ry="0.34784496" style="fill:#626262;fill-opacity:1;fill-rule:evenodd;stroke:none;stroke-width:1.97081;stroke-linecap:round;stroke-dasharray:none;stroke-opacity:1;paint-order:stroke fill markers;stop-color:#000" transform="rotate(-90)"/><ellipse cx="-132.04362" cy="50.535866" rx="0.96342111" ry="0.96371758" style="fill:gray;fill-opacity:1;stroke:#0b0b0b;stroke-width:.687673;stroke-linecap:round;stroke-linejoin:round;stroke-opacity:1" transform="rotate(-129.728)skewX(-.094)"/><rect width="1.8423043" height="0.2774215" x="-132.94136" y="50.378441" rx="0.17721629" ry="0.17732537" style="fill:#0b0b0b;fill-opacity:1;fill-rule:evenodd;stroke:none;stroke-width:3.21371;stroke-linecap:round;stroke-dasharray:none;stroke-opacity:1;paint-order:stroke fill markers;stop-color:#000" transform="rotate(-129.728)skewX(-.094)"/><rect width="1.8428713" height="0.27733615" x="49.595848" y="131.89667" rx="0.17732538" ry="0.17721628" style="fill:#0b0b0b;fill-opacity:1;fill-rule:evenodd;stroke:none;stroke-width:3.21371;stroke-linecap:round;stroke-dasharray:none;stroke-opacity:1;paint-order:stroke fill markers;stop-color:#000" transform="rotate(-39.634)skewX(.094)"/><text xml:space="preserve" x="91.689827" y="103.66196" style="font-size:1.45202px;font-family:sans-serif;-inkscape-font-specification:sans-serif;fill:#262626;fill-opacity:1;fill-rule:evenodd;stroke:#262626;stroke-width:.0999996;stroke-linecap:round;stroke-dasharray:none;stroke-opacity:1;paint-order:stroke fill markers;stop-color:#000" transform="scale(1.20513 .82979)"><tspan x="91.689827" y="103.66196" style="fill:#262626;fill-opacity:1;stroke:#262626;stroke-width:.0999996;stroke-dasharray:none;stroke-opacity:1">surioke 9.0</tspan></text><rect width="1.2471639" height="1.6458302" x="-73.527374" y="98.93692" rx="0.34668726" ry="0.34784496" style="fill:#626262;fill-opacity:1;fill-rule:evenodd;stroke:none;stroke-width:1.97081;stroke-linecap:round;stroke-dasharray:none;stroke-opacity:1;paint-order:stroke fill markers;stop-color:#000" transform="rotate(-90)"/></g></svg>