<svg xmlns="http://www.w3.org/2000/svg" width="182.381" height="139.575" viewBox="0 0 48.254974 36.929218"><g transform="translate(.055 .055)"><path d="M5.835 32.93h5.752l-1.411 3.419-3.09-.012z" style="display:inline;fill:#4d4d4d;fill-opacity:1;stroke:#1f1f1f;stroke-width:.79375;stroke-linejoin:round;stroke-miterlimit:4;stroke-dasharray:none;stroke-opacity:1"/><path d="M12.635 32.995h5.751l-1.41 3.418-3.09-.011zm6.767 0h5.752l-1.41 3.418-3.091-.011zm6.897.065h5.751l-1.41 3.418-3.09-.012z" style="display:inline;fill:#4d4d4d;stroke:#1f1f1f;stroke-width:.79375;stroke-linejoin:round;stroke-miterlimit:4;stroke-dasharray:none;stroke-opacity:1"/><rect width="46.270599" height="32.369175" x="0.93730479" y="0.93730688" rx="1.984375" ry="1.984375" style="fill:#666;fill-opacity:1;stroke:#292929;stroke-width:1.98438;stroke-linecap:square;stroke-linejoin:round;stroke-miterlimit:4;stroke-dasharray:none;stroke-opacity:1"/><g transform="translate(-.207 -2.221)"><rect width="19.843748" height="25.929167" x="24.858763" y="5.076786" rx="1.3229167" ry="1.2789418" style="fill:#4d4d4d;fill-opacity:1;stroke:none;stroke-width:2.25433;stroke-linecap:square;stroke-linejoin:round;stroke-miterlimit:4;stroke-dasharray:none;stroke-opacity:1"/><g transform="translate(1.603 .84)scale(.94778)"><ellipse cx="35.006012" cy="25.127361" rx="5.5832305" ry="5.5832295" style="display:inline;fill:gray;fill-opacity:1;stroke:none;stroke-width:.50361;stroke-linejoin:bevel;stroke-dasharray:none;stroke-opacity:1"/><ellipse cx="35.006012" cy="25.127361" rx="4.8218813" ry="4.8218808" style="display:inline;fill:#666;fill-opacity:1;stroke:none;stroke-width:.434936;stroke-linejoin:bevel;stroke-dasharray:none;stroke-opacity:1"/><circle cx="35.006012" cy="25.127361" r="1.7764821" style="display:inline;fill:#333;fill-opacity:1;stroke:none;stroke-width:1.6628;stroke-linejoin:bevel;stroke-dasharray:none;stroke-opacity:1"/></g><g transform="translate(1.603 -12.388)scale(.94778)"><ellipse cx="35.006012" cy="25.127361" rx="5.5832305" ry="5.5832295" style="display:inline;fill:gray;fill-opacity:1;stroke:none;stroke-width:.50361;stroke-linejoin:bevel;stroke-dasharray:none;stroke-opacity:1"/><ellipse cx="35.006012" cy="25.127361" rx="4.8218813" ry="4.8218808" style="display:inline;fill:#666;fill-opacity:1;stroke:none;stroke-width:.434936;stroke-linejoin:bevel;stroke-dasharray:none;stroke-opacity:1"/><circle cx="35.006012" cy="25.127361" r="1.7764821" style="display:inline;fill:#333;fill-opacity:1;stroke:none;stroke-width:1.6628;stroke-linejoin:bevel;stroke-dasharray:none;stroke-opacity:1"/></g></g><g transform="translate(-21.21 -2.221)"><rect width="19.843748" height="25.929167" x="24.858763" y="5.076786" rx="1.3229167" ry="1.2789418" style="fill:#4d4d4d;fill-opacity:1;stroke:none;stroke-width:2.25433;stroke-linecap:square;stroke-linejoin:round;stroke-miterlimit:4;stroke-dasharray:none;stroke-opacity:1"/><g transform="translate(1.603 .84)scale(.94778)"><ellipse cx="35.006012" cy="25.127361" rx="5.5832305" ry="5.5832295" style="display:inline;fill:gray;fill-opacity:1;stroke:none;stroke-width:.50361;stroke-linejoin:bevel;stroke-dasharray:none;stroke-opacity:1"/><ellipse cx="35.006012" cy="25.127361" rx="4.8218813" ry="4.8218808" style="display:inline;fill:#666;fill-opacity:1;stroke:none;stroke-width:.434936;stroke-linejoin:bevel;stroke-dasharray:none;stroke-opacity:1"/><circle cx="35.006012" cy="25.127361" r="1.7764821" style="display:inline;fill:#333;fill-opacity:1;stroke:none;stroke-width:1.6628;stroke-linejoin:bevel;stroke-dasharray:none;stroke-opacity:1"/></g><g transform="translate(1.603 -12.388)scale(.94778)"><ellipse cx="35.006012" cy="25.127361" rx="5.5832305" ry="5.5832295" style="display:inline;fill:gray;fill-opacity:1;stroke:none;stroke-width:.50361;stroke-linejoin:bevel;stroke-dasharray:none;stroke-opacity:1"/><ellipse cx="35.006012" cy="25.127361" rx="4.8218813" ry="4.8218808" style="display:inline;fill:#666;fill-opacity:1;stroke:none;stroke-width:.434936;stroke-linejoin:bevel;stroke-dasharray:none;stroke-opacity:1"/><circle cx="35.006012" cy="25.127361" r="1.7764821" style="display:inline;fill:#333;fill-opacity:1;stroke:none;stroke-width:1.6628;stroke-linejoin:bevel;stroke-dasharray:none;stroke-opacity:1"/></g></g><rect width="40.846642" height="1.5875" x="3.6492841" y="29.616121" rx="0.79374999" ry="0.95249993" style="fill:gray;fill-opacity:1;stroke:none;stroke-width:2.42561;stroke-linecap:square;stroke-linejoin:round;stroke-miterlimit:4;stroke-dasharray:none;stroke-opacity:1"/></g></svg>