<svg xmlns="http://www.w3.org/2000/svg" xmlns:xlink="http://www.w3.org/1999/xlink" xml:space="preserve" id="svg45" width="308.89999" height="126.45" x="0px" y="0px" version="1.1" viewBox="0 0 308.89999 126.45"><defs id="defs2"><clipPath id="SVGID_00000048473097249157593330000006601284096441088698_"><use xlink:href="#SVGID_1_" id="use1" width="100%" height="100%" x="0" y="0" style="overflow:visible"/></clipPath><defs id="defs1"><path id="SVGID_1_" d="M0 0h648.2v255.5H0z"/></defs></defs><style id="style1" type="text/css">.st1,.st2{fill-rule:evenodd;clip-rule:evenodd}.st1{fill-opacity:0}.st2{fill:#3f4c39}.st3,.st4{fill:none;stroke:#181b17;stroke-width:12;stroke-linejoin:round;stroke-miterlimit:10}.st4{stroke-width:8}.st5{fill-rule:evenodd;clip-rule:evenodd;fill:#999}.st6{fill:none;stroke:#181b17;stroke-width:3;stroke-linejoin:round;stroke-miterlimit:10}.st7{fill-rule:evenodd;clip-rule:evenodd;fill:#353c32}.st8{stroke-linecap:round}.st8,.st9{fill:none;stroke:#5c7388;stroke-width:4;stroke-linejoin:round;stroke-miterlimit:10}</style><path id="path3" d="M3 7.6h302.9v111.25H3Z" class="st2" style="stroke-width:.5"/><path id="path4" d="M3 7.6h302.9v111.25H3Z" class="st3" style="stroke-width:6;stroke-dasharray:none"/><path id="path5" d="M5.75 21.6h302.9" class="st1" style="stroke-width:.5"/><path id="path6" d="M5.75 21.6h302.9" class="st4" style="stroke-width:4;stroke-dasharray:none"/><path id="path7" d="M5.75 49.65h302.9" class="st1" style="stroke-width:.5"/><path id="path8" d="M5.75 49.65h302.9" class="st4" style="stroke-width:4;stroke-dasharray:none"/><path id="path9" d="M5.75 77.7h302.9" class="st1" style="stroke-width:.5"/><path id="path10" d="M5.75 77.7h302.9" class="st4" style="stroke-width:4;stroke-dasharray:none"/><path id="path11" d="M5.75 105.75h302.9" class="st1" style="stroke-width:.5"/><path id="path12" d="M5.75 105.75h302.9" class="st4" style="stroke-width:4;stroke-dasharray:none"/><path id="path13" d="M263.4 3h26.7v120.45h-26.7z" class="st2" style="stroke-width:.5"/><path id="path14" d="M263.4 3h26.7v120.45h-26.7z" class="st3" style="stroke-width:6;stroke-dasharray:none"/><path id="path15" d="M280.2 116.4c0-1.35 1.1-2.45 2.45-2.45.65 0 1.25.25 1.7.7s.7 1.05.7 1.7c0 1.35-1.1 2.45-2.45 2.45-1.3.05-2.4-1.05-2.4-2.4" class="st5" style="stroke-width:.5"/><path id="path16" d="M280.2 116.4c0-1.35 1.1-2.45 2.45-2.45.65 0 1.25.25 1.7.7s.7 1.05.7 1.7c0 1.35-1.1 2.45-2.45 2.45-1.3.05-2.4-1.05-2.4-2.4z" class="st6" style="stroke-width:1.5;stroke-dasharray:none"/><path id="path17" d="M268.25 116.4c0-1.35 1.1-2.45 2.45-2.45.65 0 1.25.25 1.7.7s.7 1.05.7 1.7c0 1.35-1.1 2.45-2.45 2.45-1.3.05-2.4-1.05-2.4-2.4" class="st5" style="stroke-width:.5"/><path id="path18" d="M268.25 116.4c0-1.35 1.1-2.45 2.45-2.45.65 0 1.25.25 1.7.7s.7 1.05.7 1.7c0 1.35-1.1 2.45-2.45 2.45-1.3.05-2.4-1.05-2.4-2.4z" class="st6" style="stroke-width:1.5;stroke-dasharray:none"/><path id="path19" d="M273.2 10c0 1.35-1.1 2.45-2.45 2.45-.65 0-1.25-.25-1.7-.7s-.7-1.05-.7-1.7c0-1.35 1.1-2.45 2.45-2.45a2.4 2.4 0 0 1 2.4 2.4" class="st5" style="stroke-width:.5"/><path id="path20" d="M273.2 10c0 1.35-1.1 2.45-2.45 2.45-.65 0-1.25-.25-1.7-.7s-.7-1.05-.7-1.7c0-1.35 1.1-2.45 2.45-2.45a2.4 2.4 0 0 1 2.4 2.4z" class="st6" style="stroke-width:1.5;stroke-dasharray:none"/><path id="path21" d="M285.15 10c0 1.35-1.1 2.45-2.45 2.45-.65 0-1.25-.25-1.7-.7s-.7-1.05-.7-1.7c0-1.35 1.1-2.45 2.45-2.45s2.4 1.05 2.4 2.4" class="st5" style="stroke-width:.5"/><path id="path22" d="M285.15 10c0 1.35-1.1 2.45-2.45 2.45-.65 0-1.25-.25-1.7-.7s-.7-1.05-.7-1.7c0-1.35 1.1-2.45 2.45-2.45s2.4 1.05 2.4 2.4z" class="st6" style="stroke-width:1.5;stroke-dasharray:none"/><path id="path23" d="m255.45 102.15-7.75-6.55 2.4-5.05 4.8.6 4.2-3-3 5.95-4.2.9z" class="st7" style="stroke-width:.5"/><path id="path24" d="m54.85 57.1-2.45 5.55 1.05 5.9 4.5 4.5 1.75-4.15-2.75-3.45V61.3l2.1-5.2z" class="st7" style="stroke-width:.5"/><path id="path25" d="m230.1 27.7 5.65 9.45 6.35 3.6L259 42l-9.25-4.35-9.85-2.25Z" class="st7" style="stroke-width:.5"/><path id="path26" d="M18.75 3h26.7v120.45h-26.7z" class="st2" style="stroke-width:.5"/><path id="path27" d="M18.75 3h26.7v120.45h-26.7z" class="st3" style="stroke-width:6;stroke-dasharray:none"/><path id="path28" d="M35.6 116.4c0-1.35 1.1-2.45 2.45-2.45.65 0 1.25.25 1.7.7s.7 1.05.7 1.7c0 1.35-1.1 2.45-2.45 2.45-1.3.05-2.4-1.05-2.4-2.4" class="st5" style="stroke-width:.5"/><path id="path29" d="M35.6 116.4c0-1.35 1.1-2.45 2.45-2.45.65 0 1.25.25 1.7.7s.7 1.05.7 1.7c0 1.35-1.1 2.45-2.45 2.45-1.3.05-2.4-1.05-2.4-2.4z" class="st6" style="stroke-width:1.5;stroke-dasharray:none"/><path id="path30" d="M23.6 116.4c0-1.35 1.1-2.45 2.45-2.45.65 0 1.25.25 1.7.7s.7 1.05.7 1.7c0 1.35-1.1 2.45-2.45 2.45-1.3.05-2.4-1.05-2.4-2.4" class="st5" style="stroke-width:.5"/><path id="path31" d="M23.6 116.4c0-1.35 1.1-2.45 2.45-2.45.65 0 1.25.25 1.7.7s.7 1.05.7 1.7c0 1.35-1.1 2.45-2.45 2.45-1.3.05-2.4-1.05-2.4-2.4z" class="st6" style="stroke-width:1.5;stroke-dasharray:none"/><path id="path32" d="M28.55 10c0 1.35-1.1 2.45-2.45 2.45-.65 0-1.25-.25-1.7-.7s-.7-1.05-.7-1.7c0-1.35 1.1-2.45 2.45-2.45s2.4 1.05 2.4 2.4" class="st5" style="stroke-width:.5"/><path id="path33" d="M28.55 10c0 1.35-1.1 2.45-2.45 2.45-.65 0-1.25-.25-1.7-.7s-.7-1.05-.7-1.7c0-1.35 1.1-2.45 2.45-2.45s2.4 1.05 2.4 2.4z" class="st6" style="stroke-width:1.5;stroke-dasharray:none"/><path id="path34" d="M40.55 10c0 1.35-1.1 2.45-2.45 2.45-.65 0-1.25-.25-1.7-.7s-.7-1.05-.7-1.7c0-1.35 1.1-2.45 2.45-2.45a2.4 2.4 0 0 1 2.4 2.4" class="st5" style="stroke-width:.5"/><path id="path35" d="M40.55 10c0 1.35-1.1 2.45-2.45 2.45-.65 0-1.25-.25-1.7-.7s-.7-1.05-.7-1.7c0-1.35 1.1-2.45 2.45-2.45a2.4 2.4 0 0 1 2.4 2.4z" class="st6" style="stroke-width:1.5;stroke-dasharray:none"/><path id="path36" d="m235.7 86.8 2.8 11.45 3.7 1.25 2.55-2.4-.4-1.9" class="st1" style="stroke-width:.5"/><path id="path37" d="m235.5 85.95 2.65 10.8c.2.9.9 1.65 1.75 1.95l.7.25c.95.35 2 .1 2.75-.6l.25-.25c.7-.65 1-1.6.8-2.55l-.1-.4" class="st8" style="stroke-width:2;stroke-dasharray:none"/><path id="path38" d="m235.6 86.35 2.5 10.25c.25 1-.05 2.05-.75 2.8l-.3.3c-.75.8-1.95 1.15-3 .85-1-.3-1.8-1.05-2.1-2.1l-.05-.2" class="st1" style="stroke-width:.5"/><path id="path39" d="m235.4 85.5 2.8 11.35c.2.85-.05 1.8-.65 2.45l-.6.65c-.65.7-1.7 1-2.65.75l-.45-.1c-.9-.25-1.55-.95-1.85-1.8l-.1-.45" class="st8" style="stroke-width:2;stroke-dasharray:none"/><path id="path40" d="m241 87.9-5.15-.75" class="st1" style="stroke-width:.5"/><path id="path41" d="m241 87.9-5.15-.75" class="st9" style="stroke-width:2;stroke-dasharray:none"/><path id="path42" d="m231.65 90.1 4.2-3.05" class="st1" style="stroke-width:.5"/><path id="path43" d="m231.65 90.1 4.2-3.05" class="st9" style="stroke-width:2;stroke-dasharray:none"/><path id="path44" d="M233.4 83.95c-.2-.85.3-1.75 1.2-1.95.4-.1.85-.05 1.2.2.35.2.65.6.75 1 .2.85-.3 1.75-1.2 1.95-.85.2-1.75-.35-1.95-1.2" class="st1" style="stroke-width:.5"/><path id="path45" d="M233.4 83.95c-.2-.85.3-1.75 1.2-1.95.4-.1.85-.05 1.2.2.35.2.65.6.75 1 .2.85-.3 1.75-1.2 1.95-.85.2-1.75-.35-1.95-1.2z" style="fill:none;stroke:#5c7388;stroke-linejoin:round;stroke-miterlimit:10;stroke-width:1.5;stroke-dasharray:none"/></svg>