<svg xmlns="http://www.w3.org/2000/svg" width="523.68701" height="179.92899" viewBox="0 0 138.55885 47.606211"><g transform="translate(-26.194 -143.14)"><rect width="38.974697" height="40.790489" x="-66.122772" y="-189.79146" ry="0" style="fill:#666;fill-opacity:1;stroke:#262626;stroke-width:1.8758958;stroke-dasharray:none;stroke-opacity:1;paint-order:fill markers stroke;stop-color:#000;stroke-linejoin:round" transform="scale(-1)"/><circle cx="-57.591793" cy="-180.52951" r="5.3707538" style="fill:#454545;fill-opacity:1;stroke:#262626;stroke-width:1.00012;stroke-dasharray:none;stroke-opacity:1;paint-order:fill markers stroke;stop-color:#000" transform="scale(-1)"/><path d="M-57.842-186.023h.516v10.917h-.516z" style="fill:#262626;fill-opacity:1;stroke:none;stroke-width:1.00012;stroke-dasharray:none;stroke-opacity:1;paint-order:fill markers stroke;stop-color:#000" transform="scale(-1)"/><path d="M180.264-62.914h.516v10.917h-.516zm1.519.326h.516v9.71h-.516zm1.52.444h.515v9.346h-.515zm1.427 1.337h.517v6.687h-.516z" style="fill:#262626;fill-opacity:1;stroke:none;stroke-width:1.00012;stroke-dasharray:none;stroke-opacity:1;paint-order:fill markers stroke;stop-color:#000" transform="rotate(90)"/><path d="M-179.367-62.502h.516v9.71h-.516zm1.519.444h.516v9.346h-.516zm1.428 1.338h.516v6.686h-.516z" style="fill:#262626;fill-opacity:1;stroke:none;stroke-width:1.00012;stroke-dasharray:none;stroke-opacity:1;paint-order:fill markers stroke;stop-color:#000" transform="scale(1 -1)rotate(90)"/><path d="M-59.271-185.253h.516v9.71h-.516zm-1.519-.08h.515v9.345h-.516zm-1.428 1.321h.515v6.687h-.515z" style="fill:#262626;fill-opacity:1;stroke:none;stroke-width:1.00012;stroke-dasharray:none;stroke-opacity:1;paint-order:fill markers stroke;stop-color:#000" transform="scale(-1)"/><path d="M55.823-185.339h.516v9.71h-.516zm-1.519-.08h.515v9.345h-.515zm-1.428 1.322h.515v6.686h-.515z" style="fill:#262626;fill-opacity:1;stroke:none;stroke-width:1.00012;stroke-dasharray:none;stroke-opacity:1;paint-order:fill markers stroke;stop-color:#000" transform="scale(1 -1)"/><path d="M-66.712-172.652h39.564v1.725h-39.564z" style="fill:#262626;fill-opacity:1;stroke:none;stroke-width:1.00012498;stroke-dasharray:none;stroke-opacity:1;paint-order:fill markers stroke;stop-color:#000" transform="scale(-1)"/><rect width="16.899076" height="11.611925" x="-48.733189" y="-186.5858" ry="2.4825497" style="fill:#4f4f4f;fill-opacity:1;stroke:#262626;stroke-width:1.94204;stroke-dasharray:none;stroke-opacity:1;paint-order:fill markers stroke;stop-color:#000" transform="scale(-1)"/><rect width="9.0418091" height="3.6482289" x="-63.904545" y="-169.44046" ry="0.51449382" style="fill:gray;fill-opacity:1;stroke:none;stroke-width:1.00012;stroke-dasharray:none;stroke-opacity:1;paint-order:fill markers stroke;stop-color:#000" transform="scale(-1)"/><rect width="3.8820899" height="3.6482289" x="-63.904072" y="-164.58755" ry="0.51449382" style="fill:#41816b;fill-opacity:1;stroke:none;stroke-width:1.00012;stroke-dasharray:none;stroke-opacity:1;paint-order:fill markers stroke;stop-color:#000" transform="scale(-1)"/><rect width="3.8820899" height="3.6482289" x="-58.738064" y="-164.59045" ry="0.51449382" style="fill:#937a26;fill-opacity:1;stroke:none;stroke-width:1.00012;stroke-dasharray:none;stroke-opacity:1;paint-order:fill markers stroke;stop-color:#000" transform="scale(-1)"/><rect width="3.8820899" height="3.6482289" x="-63.905033" y="-159.59201" ry="0.51449382" style="fill:#384745;fill-opacity:1;stroke:none;stroke-width:1.00012;stroke-dasharray:none;stroke-opacity:1;paint-order:fill markers stroke;stop-color:#000" transform="scale(-1)"/><rect width="3.8820899" height="3.6482289" x="-58.73904" y="-159.59491" ry="0.51449382" style="fill:#7d020b;fill-opacity:1;stroke:none;stroke-width:1.00012;stroke-dasharray:none;stroke-opacity:1;paint-order:fill markers stroke;stop-color:#000" transform="scale(-1)"/><rect width="3.8820899" height="3.6482289" x="-63.898212" y="-154.742" ry="0.51449382" style="fill:#a03c00;fill-opacity:1;stroke:none;stroke-width:1.00012;stroke-dasharray:none;stroke-opacity:1;paint-order:fill markers stroke;stop-color:#000" transform="scale(-1)"/><rect width="3.8820899" height="3.6482289" x="-58.732204" y="-154.7449" ry="0.51449382" style="fill:#344e49;fill-opacity:1;stroke:none;stroke-width:1.00012;stroke-dasharray:none;stroke-opacity:1;paint-order:fill markers stroke;stop-color:#000" transform="scale(-1)"/><circle cx="-48.053905" cy="-167.17506" r="2.3521895" style="fill:#4a8747;fill-opacity:1;stroke:#333;stroke-width:1.00012;stroke-dasharray:none;stroke-opacity:1;paint-order:fill markers stroke;stop-color:#000" transform="scale(-1)"/><circle cx="-48.053905" cy="-160.43639" r="2.3521895" style="fill:#4c696d;fill-opacity:1;stroke:#333;stroke-width:1.00012;stroke-dasharray:none;stroke-opacity:1;paint-order:fill markers stroke;stop-color:#000" transform="scale(-1)"/><circle cx="-48.053905" cy="-153.69771" r="2.3521895" style="fill:#58446f;fill-opacity:1;stroke:#333;stroke-width:1.00012;stroke-dasharray:none;stroke-opacity:1;paint-order:fill markers stroke;stop-color:#000" transform="scale(-1)"/><rect width="1.7305702" height="22.357096" x="-53.586422" y="-171.61493" ry="0.81470537" style="fill:#262626;fill-opacity:1;stroke:none;stroke-width:1.00012;stroke-dasharray:none;stroke-opacity:1;paint-order:fill markers stroke;stop-color:#000" transform="scale(-1)"/><rect width="1.7305702" height="22.357096" x="-44.251949" y="-171.63031" ry="0.81470537" style="fill:#262626;fill-opacity:1;stroke:none;stroke-width:1.00012;stroke-dasharray:none;stroke-opacity:1;paint-order:fill markers stroke;stop-color:#000" transform="scale(-1)"/><rect width="9.0456314" height="0.93544334" x="-63.905499" y="-167.80009" ry="0" style="fill:#999;fill-opacity:1;stroke:none;stroke-width:1.00012;stroke-dasharray:none;stroke-opacity:1;paint-order:fill markers stroke;stop-color:#000" transform="scale(-1)"/><rect width="39.366299" height="40.781143" x="124.42731" y="-189.78679" ry="0" style="fill:#666;fill-opacity:1;stroke:#262626;stroke-width:1.8758958;stroke-dasharray:none;stroke-opacity:1;paint-order:fill markers stroke;stop-color:#000;stroke-linejoin:round" transform="scale(1 -1)"/><circle cx="132.95363" cy="-180.52951" r="5.3707538" style="fill:#454545;fill-opacity:1;stroke:#262626;stroke-width:1.00012;stroke-dasharray:none;stroke-opacity:1;paint-order:fill markers stroke;stop-color:#000" transform="scale(1 -1)"/><path d="M132.704-186.023h.515v10.917h-.515z" style="fill:#262626;fill-opacity:1;stroke:none;stroke-width:1.00012;stroke-dasharray:none;stroke-opacity:1;paint-order:fill markers stroke;stop-color:#000" transform="scale(1 -1)"/><path d="M180.264 127.631h.516v10.917h-.516zm1.519.326h.516v9.71h-.516zm1.52.445h.515v9.345h-.515zm1.427 1.337h.517v6.686h-.516z" style="fill:#262626;fill-opacity:1;stroke:none;stroke-width:1.00012;stroke-dasharray:none;stroke-opacity:1;paint-order:fill markers stroke;stop-color:#000" transform="matrix(0 1 1 0 0 0)"/><path d="M-179.367 128.043h.516v9.71h-.516zm1.519.445h.516v9.345h-.516zm1.428 1.337h.516v6.686h-.516z" style="fill:#262626;fill-opacity:1;stroke:none;stroke-width:1.00012;stroke-dasharray:none;stroke-opacity:1;paint-order:fill markers stroke;stop-color:#000" transform="rotate(-90)"/><path d="M131.274-185.253h.516v9.71h-.516zm-1.519-.08h.516v9.345h-.516zm-1.428 1.321h.516v6.687h-.516z" style="fill:#262626;fill-opacity:1;stroke:none;stroke-width:1.00012;stroke-dasharray:none;stroke-opacity:1;paint-order:fill markers stroke;stop-color:#000" transform="scale(1 -1)"/><path d="M-134.723-185.339h.516v9.71h-.516zm-1.519-.08h.516v9.345h-.516zm-1.428 1.322h.516v6.686h-.516z" style="fill:#262626;fill-opacity:1;stroke:none;stroke-width:1.00012;stroke-dasharray:none;stroke-opacity:1;paint-order:fill markers stroke;stop-color:#000" transform="scale(-1)"/><path d="M123.834-172.652h39.96v1.725h-39.96z" style="fill:#262626;fill-opacity:1;stroke:none;stroke-width:1.00012498;stroke-dasharray:none;stroke-opacity:1;paint-order:fill markers stroke;stop-color:#000" transform="scale(1 -1)"/><rect width="16.899076" height="11.611925" x="143.12901" y="-186.5858" ry="2.4825497" style="fill:#4f4f4f;fill-opacity:1;stroke:#262626;stroke-width:1.94204;stroke-dasharray:none;stroke-opacity:1;paint-order:fill markers stroke;stop-color:#000" transform="scale(1 -1)"/><rect width="9.0418091" height="3.6482289" x="126.64088" y="-169.44046" ry="0.51449382" style="fill:gray;fill-opacity:1;stroke:none;stroke-width:1.00012;stroke-dasharray:none;stroke-opacity:1;paint-order:fill markers stroke;stop-color:#000" transform="scale(1 -1)"/><rect width="3.8820899" height="3.6482289" x="126.64135" y="-164.58755" ry="0.51449382" style="fill:#814144;fill-opacity:1;stroke:none;stroke-width:1.00012;stroke-dasharray:none;stroke-opacity:1;paint-order:fill markers stroke;stop-color:#000" transform="scale(1 -1)"/><rect width="3.8820899" height="3.6482289" x="131.80736" y="-164.59045" ry="0.51449382" style="fill:#934f26;fill-opacity:1;stroke:none;stroke-width:1.00012;stroke-dasharray:none;stroke-opacity:1;paint-order:fill markers stroke;stop-color:#000" transform="scale(1 -1)"/><rect width="3.8820899" height="3.6482289" x="126.64039" y="-159.59201" ry="0.51449382" style="fill:#027d69;fill-opacity:1;stroke:none;stroke-width:1.00012;stroke-dasharray:none;stroke-opacity:1;paint-order:fill markers stroke;stop-color:#000" transform="scale(1 -1)"/><rect width="3.8820899" height="3.6482289" x="131.80638" y="-159.59491" ry="0.51449382" style="fill:#027d69;fill-opacity:1;stroke:none;stroke-width:1.00012;stroke-dasharray:none;stroke-opacity:1;paint-order:fill markers stroke;stop-color:#000" transform="scale(1 -1)"/><rect width="3.8820899" height="3.6482289" x="126.64721" y="-154.742" ry="0.51449382" style="fill:#934f26;fill-opacity:1;stroke:none;stroke-width:1.00012;stroke-dasharray:none;stroke-opacity:1;paint-order:fill markers stroke;stop-color:#000" transform="scale(1 -1)"/><rect width="3.8820899" height="3.6482289" x="131.81322" y="-154.7449" ry="0.51449382" style="fill:#037f67;fill-opacity:1;stroke:none;stroke-width:1.00012;stroke-dasharray:none;stroke-opacity:1;paint-order:fill markers stroke;stop-color:#000" transform="scale(1 -1)"/><circle cx="158.43666" cy="-164.25441" r="2.0357428" style="fill:#595959;fill-opacity:1;stroke:none;stroke-width:.865571;stroke-dasharray:none;stroke-opacity:1;paint-order:fill markers stroke;stop-color:#000" transform="scale(1 -1)"/><circle cx="142.49152" cy="-167.17506" r="2.3521895" style="fill:#3c5a49;fill-opacity:1;stroke:#333;stroke-width:1.00012;stroke-dasharray:none;stroke-opacity:1;paint-order:fill markers stroke;stop-color:#000" transform="scale(1 -1)"/><circle cx="142.49152" cy="-160.43639" r="2.3521895" style="fill:#6d4c4d;fill-opacity:1;stroke:#333;stroke-width:1.00012;stroke-dasharray:none;stroke-opacity:1;paint-order:fill markers stroke;stop-color:#000" transform="scale(1 -1)"/><circle cx="142.49152" cy="-153.69771" r="2.3521895" style="fill:#6f6744;fill-opacity:1;stroke:#333;stroke-width:1.00012;stroke-dasharray:none;stroke-opacity:1;paint-order:fill markers stroke;stop-color:#000" transform="scale(1 -1)"/><circle cx="158.46033" cy="-156.25832" r="2.0357428" style="fill:#595959;fill-opacity:1;stroke:none;stroke-width:.865571;stroke-dasharray:none;stroke-opacity:1;paint-order:fill markers stroke;stop-color:#000" transform="scale(1 -1)"/><rect width="1.4796523" height="5.5969458" x="38.110237" y="-227.70297" ry="0.70765978" style="fill:#4d4d4d;fill-opacity:1;stroke:none;stroke-width:.865571;stroke-dasharray:none;stroke-opacity:1;paint-order:fill markers stroke;stop-color:#000" transform="scale(1 -1)rotate(34.147)"/><rect width="1.4796523" height="5.5969458" x="-212.67702" y="-70.781647" ry="0.70765978" style="fill:#737373;fill-opacity:1;stroke:none;stroke-width:.865571;stroke-dasharray:none;stroke-opacity:1;paint-order:fill markers stroke;stop-color:#000" transform="scale(-1 1)rotate(-62.384)"/><g style="stroke-width:1.00012;stroke-dasharray:none" transform="matrix(.86547 0 0 -.86547 -4512.91 -196.117)"><circle cx="5390.7065" cy="-416.38913" r="2.3521895" style="fill:#595959;fill-opacity:1;stroke:none;stroke-width:1.00012;stroke-dasharray:none;stroke-opacity:1;paint-order:fill markers stroke;stop-color:#000"/><circle cx="5390.7339" cy="-407.15009" r="2.3521895" style="fill:#595959;fill-opacity:1;stroke:none;stroke-width:1.00012;stroke-dasharray:none;stroke-opacity:1;paint-order:fill markers stroke;stop-color:#000"/><rect width="1.7096574" height="6.4669652" x="5389.8052" y="-419.7016" ry="0.81766224" style="fill:#4d4d4d;fill-opacity:1;stroke:none;stroke-width:1.00012;stroke-dasharray:none;stroke-opacity:1;paint-order:fill markers stroke;stop-color:#000"/><rect width="1.7096574" height="6.4669652" x="5311.6006" y="998.69775" ry="0.81766224" style="fill:#737373;fill-opacity:1;stroke:none;stroke-width:1.00012;stroke-dasharray:none;stroke-opacity:1;paint-order:fill markers stroke;stop-color:#000" transform="rotate(-15)"/></g><rect width="1.7305702" height="22.357096" x="136.959" y="-171.61493" ry="0.81470537" style="fill:#262626;fill-opacity:1;stroke:none;stroke-width:1.00012;stroke-dasharray:none;stroke-opacity:1;paint-order:fill markers stroke;stop-color:#000" transform="scale(1 -1)"/><rect width="1.7305702" height="22.357096" x="146.29347" y="-171.63031" ry="0.81470537" style="fill:#262626;fill-opacity:1;stroke:none;stroke-width:1.00012;stroke-dasharray:none;stroke-opacity:1;paint-order:fill markers stroke;stop-color:#000" transform="scale(1 -1)"/><rect width="9.0456314" height="0.93544334" x="126.63992" y="-167.80009" ry="0" style="fill:#999;fill-opacity:1;stroke:none;stroke-width:1.00012;stroke-dasharray:none;stroke-opacity:1;paint-order:fill markers stroke;stop-color:#000" transform="scale(1 -1)"/><rect width="58.413502" height="40.81522" x="-124.40627" y="-189.80382" ry="0" style="fill:#666;fill-opacity:1;stroke:#262626;stroke-width:1.88391;stroke-dasharray:none;stroke-opacity:1;paint-order:fill markers stroke;stop-color:#000" transform="scale(-1)"/><circle cx="-116.04507" cy="-180.71147" r="5.3707538" style="fill:#454545;fill-opacity:1;stroke:#262626;stroke-width:1.14166;stroke-dasharray:none;stroke-opacity:1;paint-order:fill markers stroke;stop-color:#000" transform="scale(-1)"/><path d="M-116.295-186.205h.516v10.917h-.516z" style="fill:#262626;fill-opacity:1;stroke:none;stroke-width:1.60151;stroke-dasharray:none;stroke-opacity:1;paint-order:fill markers stroke;stop-color:#000" transform="scale(-1)"/><path d="M180.446-121.367h.516v10.916h-.516z" style="fill:#262626;fill-opacity:1;stroke:none;stroke-width:1.60151;stroke-dasharray:none;stroke-opacity:1;paint-order:fill markers stroke;stop-color:#000" transform="rotate(90)"/><path d="M181.965-121.042h.516v9.71h-.516z" style="fill:#262626;fill-opacity:1;stroke:none;stroke-width:1.5104;stroke-dasharray:none;stroke-opacity:1;paint-order:fill markers stroke;stop-color:#000" transform="rotate(90)"/><path d="M183.485-120.597H184v9.345h-.515z" style="fill:#262626;fill-opacity:1;stroke:none;stroke-width:1.48177;stroke-dasharray:none;stroke-opacity:1;paint-order:fill markers stroke;stop-color:#000" transform="rotate(90)"/><path d="M184.913-119.26h.516v6.686h-.516z" style="fill:#262626;fill-opacity:1;stroke:none;stroke-width:1.25338;stroke-dasharray:none;stroke-opacity:1;paint-order:fill markers stroke;stop-color:#000" transform="rotate(90)"/><path d="M-179.549-120.956h.516v9.71h-.516z" style="fill:#262626;fill-opacity:1;stroke:none;stroke-width:1.5104;stroke-dasharray:none;stroke-opacity:1;paint-order:fill markers stroke;stop-color:#000" transform="scale(1 -1)rotate(90)"/><path d="M-178.03-120.51h.516v9.344h-.516z" style="fill:#262626;fill-opacity:1;stroke:none;stroke-width:1.48177;stroke-dasharray:none;stroke-opacity:1;paint-order:fill markers stroke;stop-color:#000" transform="scale(1 -1)rotate(90)"/><path d="M-176.601-119.174h.515v6.686h-.515z" style="fill:#262626;fill-opacity:1;stroke:none;stroke-width:1.25338;stroke-dasharray:none;stroke-opacity:1;paint-order:fill markers stroke;stop-color:#000" transform="scale(1 -1)rotate(90)"/><path d="M-117.724-185.435h.515v9.71h-.515z" style="fill:#262626;fill-opacity:1;stroke:none;stroke-width:1.5104;stroke-dasharray:none;stroke-opacity:1;paint-order:fill markers stroke;stop-color:#000" transform="scale(-1)"/><path d="M-119.244-185.515h.516v9.345h-.516z" style="fill:#262626;fill-opacity:1;stroke:none;stroke-width:1.48177;stroke-dasharray:none;stroke-opacity:1;paint-order:fill markers stroke;stop-color:#000" transform="scale(-1)"/><path d="M-120.672-184.194h.516v6.687h-.516z" style="fill:#262626;fill-opacity:1;stroke:none;stroke-width:1.25338;stroke-dasharray:none;stroke-opacity:1;paint-order:fill markers stroke;stop-color:#000" transform="scale(-1)"/><path d="M114.276-185.52h.516v9.71h-.516z" style="fill:#262626;fill-opacity:1;stroke:none;stroke-width:1.5104;stroke-dasharray:none;stroke-opacity:1;paint-order:fill markers stroke;stop-color:#000" transform="scale(1 -1)"/><path d="M112.757-185.601h.516v9.345h-.516z" style="fill:#262626;fill-opacity:1;stroke:none;stroke-width:1.48177;stroke-dasharray:none;stroke-opacity:1;paint-order:fill markers stroke;stop-color:#000" transform="scale(1 -1)"/><path d="M111.329-184.28h.515v6.687h-.515z" style="fill:#262626;fill-opacity:1;stroke:none;stroke-width:1.25338;stroke-dasharray:none;stroke-opacity:1;paint-order:fill markers stroke;stop-color:#000" transform="scale(1 -1)"/><path d="M-125.348-172.652h59.678v1.725h-59.678z" style="fill:#262626;fill-opacity:1;stroke:none;stroke-width:2.8729;stroke-dasharray:none;stroke-opacity:1;paint-order:fill markers stroke;stop-color:#000" transform="scale(-1)"/><rect width="16.899076" height="11.611925" x="-107.03774" y="-186.57463" rx="2.4825497" ry="2.4825497" style="fill:#4f4f4f;fill-opacity:1;stroke:#262626;stroke-width:1.94379;stroke-dasharray:none;stroke-opacity:1;paint-order:fill markers stroke;stop-color:#000" transform="scale(-1)"/><rect width="5.2081871" height="7.3046875" x="162.99579" y="-121.37686" rx="2.4825497" ry="2.4825497" style="fill:#4f4f4f;fill-opacity:1;stroke:#323232;stroke-width:1.94379;stroke-dasharray:none;stroke-opacity:1;paint-order:fill markers stroke;stop-color:#000" transform="rotate(90)"/><rect width="5.2081871" height="7.3046875" x="152.66876" y="-121.37686" rx="2.4825497" ry="2.4825497" style="fill:#4f4f4f;fill-opacity:1;stroke:#323232;stroke-width:1.94379;stroke-dasharray:none;stroke-opacity:1;paint-order:fill markers stroke;stop-color:#000" transform="rotate(90)"/><rect width="15.181315" height="4.1311679" x="152.84572" y="-119.78988" rx="2.4825497" ry="2.0655839" style="fill:#4f4f4f;fill-opacity:1;stroke:#323232;stroke-width:1.94379;stroke-dasharray:none;stroke-opacity:1;paint-order:fill markers stroke;stop-color:#000" transform="rotate(90)"/><rect width="16.899076" height="11.611925" x="-86.497215" y="-186.605" rx="2.4825497" ry="2.4825497" style="fill:#4f4f4f;fill-opacity:1;stroke:#262626;stroke-width:1.94379;stroke-dasharray:none;stroke-opacity:1;paint-order:fill markers stroke;stop-color:#000" transform="scale(-1)"/><path d="m76.255 178.687-2.097-.608 1.55 2.067-3.403.121 3.95 1.155-2.31 2.887 5.136-2.006 1.215 1.884.03-2.4 3.464.547-2.522-2.766 1.125-2.279-3.586 1.429z" style="fill:#242424;fill-opacity:1;stroke:none;stroke-width:1.70521;stroke-dasharray:none;stroke-opacity:1;paint-order:fill markers stroke;stop-color:#000"/><rect width="1.7305702" height="22.357096" x="-111.84443" y="-171.61493" rx="0.81470537" ry="0.81470537" style="fill:#262626;fill-opacity:1;stroke:none;stroke-width:1.856;stroke-dasharray:none;stroke-opacity:1;paint-order:fill markers stroke;stop-color:#000" transform="scale(-1)"/><rect width="1.7305702" height="22.357096" x="-79.778275" y="-171.61493" rx="0.81470537" ry="0.81470537" style="fill:#262626;fill-opacity:1;stroke:none;stroke-width:1.856;stroke-dasharray:none;stroke-opacity:1;paint-order:fill markers stroke;stop-color:#000" transform="scale(-1)"/><circle cx="-72.762856" cy="-155.7682" r="2.6789062" style="fill:#4f4f4f;fill-opacity:1;stroke:#323232;stroke-width:1;stroke-dasharray:none;stroke-opacity:1;paint-order:fill markers stroke;stop-color:#000" transform="scale(-1)"/><circle cx="-72.762856" cy="-165.54338" r="2.6789062" style="fill:#4f4f4f;fill-opacity:1;stroke:#323232;stroke-width:1;stroke-dasharray:none;stroke-opacity:1;paint-order:fill markers stroke;stop-color:#000" transform="scale(-1)"/><path d="M72.763 167.11c.883 0 1.599-.715 1.599-1.598 0-.36-.095-.657-.252-.893" style="fill:none;stroke:#426336;stroke-width:.593642;stroke-linecap:round;stroke-linejoin:round;stroke-opacity:1;paint-order:fill markers stroke;stop-color:#000"/><path d="M72.763 167.11a1.6 1.6 0 0 1-1.599-1.598c0-.36.095-.657.252-.893" style="fill:none;fill-opacity:1;stroke:#63363e;stroke-width:.593642;stroke-linecap:round;stroke-linejoin:round;stroke-opacity:1;paint-order:fill markers stroke;stop-color:#000"/><circle cx="-72.762878" cy="-165.5434" r="0.70230603" style="fill:#323232;fill-opacity:1;stroke:none;stroke-width:1;stroke-dasharray:none;stroke-opacity:1;paint-order:fill markers stroke;stop-color:#000" transform="scale(-1)"/><circle cx="-72.762856" cy="-155.7682" r="0.70230603" style="fill:#323232;fill-opacity:1;stroke:none;stroke-width:1;stroke-dasharray:none;stroke-opacity:1;paint-order:fill markers stroke;stop-color:#000" transform="scale(-1)"/><circle cx="64.612152" cy="171.5704" r="3.8887107" style="fill:#3f280e;fill-opacity:1;fill-rule:evenodd;stroke:none;stroke-width:1.876;stroke-linecap:round;stroke-linejoin:round;stroke-miterlimit:20;stroke-dasharray:none;stroke-opacity:1" transform="rotate(-10.555)"/><path d="m92.952 146.128 3.988 21.408m-12.698-8.709 21.408-3.99" style="fill:#3f280e;fill-opacity:1;fill-rule:evenodd;stroke:#3f280e;stroke-width:1.876;stroke-linecap:round;stroke-linejoin:round;stroke-miterlimit:20;stroke-dasharray:none;stroke-opacity:1"/><path d="m763.133 3937.182.045 11.602 8.235-8.172-8.172 8.236 11.602.045-11.602.045 8.172 8.235-8.235-8.172-.045 11.602-.045-11.602-8.235 8.172 8.172-8.235-11.602-.045 11.602-.045-8.172-8.236 8.235 8.172z" style="fill:#323232;fill-opacity:1;fill-rule:evenodd;stroke:#323232;stroke-width:1.92809;stroke-linecap:round;stroke-linejoin:round;stroke-miterlimit:20;stroke-dasharray:none;stroke-opacity:1" transform="translate(-45.977 -458.658)scale(.1556)"/><circle cx="64.612152" cy="171.5704" r="11.802148" style="fill:none;fill-opacity:1;fill-rule:evenodd;stroke:#4c361e;stroke-width:2.90777;stroke-linecap:round;stroke-linejoin:round;stroke-miterlimit:20;stroke-dasharray:none;stroke-opacity:1" transform="rotate(-10.555)"/><path d="M32.59 154.186h5.2v12.532h-5.2z" style="fill:#5f685f;fill-opacity:1;stroke:#2d2d2d;stroke-width:1.00012;stroke-linecap:square;stroke-linejoin:round;stroke-dasharray:none;stroke-opacity:1"/><path d="M35.19 156.182v8.54" style="fill:#5f685f;fill-opacity:1;stroke:#444;stroke-width:1.00012;stroke-linecap:round;stroke-linejoin:round;stroke-dasharray:none;stroke-opacity:1"/><path d="M33.058 156.625h4.265v1.034h-4.265z" style="fill:#434b43;fill-opacity:1;stroke:#303030;stroke-width:.735542;stroke-linecap:round;stroke-linejoin:round;stroke-dasharray:none;stroke-opacity:1"/></g></svg>