<svg xmlns="http://www.w3.org/2000/svg" width="182.381" height="139.496" viewBox="0 0 48.254971 36.908318"><path d="M40.603 34.615a16.477 2.261 0 0 1-16.24 2.293 16.477 2.261 0 0 1-16.71-2.228 16.477 2.261 0 0 1 16.239-2.294 16.477 2.261 0 0 1 16.712 2.229l-16.476.032z" style="display:inline;fill:#666;fill-opacity:1;stroke-width:.978577;paint-order:markers stroke fill"/><rect width="48.254974" height="34.561867" x="4.345e-06" y="-2.7499999e-07" rx="3.3072917" ry="3.3072917" style="fill:#8b8b8b;fill-opacity:1;stroke-width:.395831;paint-order:markers stroke fill"/><rect width="44.286224" height="24.337698" x="1.984375" y="1.984375" rx="1.3229166" ry="1.3196043" style="display:inline;fill:#ccc;fill-opacity:1;stroke-width:.318209;paint-order:markers stroke fill"/><rect width="15.938742" height="4.4178205" x="1.9222628" y="28.041624" rx="1.3683457" ry="1.3683457" style="display:inline;fill:#ccc;fill-opacity:1;stroke-width:.0813339;paint-order:markers stroke fill"/><g transform="translate(.167)"><rect width="26.410288" height="4.2711487" x="19.693611" y="28.114187" rx="1.3229166" ry="1.3229166" style="display:inline;fill:#ccc;fill-opacity:1;stroke-width:.102943;paint-order:markers stroke fill"/><rect width="12.456161" height="3.0150797" x="20.751945" y="28.742222" rx="0.79374999" ry="0.79374999" style="fill:#4d4d4d;fill-opacity:1;stroke-width:1.05775;paint-order:markers stroke fill"/><rect width="2.6359808" height="1.4629548" x="35.918636" y="29.518284" ry="0.73147738" style="display:inline;fill:#666;fill-opacity:1;stroke-width:.338944;paint-order:markers stroke fill"/><rect width="2.6359808" height="1.4629548" x="39.161228" y="29.518284" ry="0.73147738" style="display:inline;fill:#666;fill-opacity:1;stroke-width:.338944;paint-order:markers stroke fill"/><rect width="2.6359808" height="1.4629548" x="42.409584" y="29.518284" ry="0.73147738" style="display:inline;fill:#666;fill-opacity:1;stroke-width:.338944;paint-order:markers stroke fill"/></g></svg>