<svg xmlns="http://www.w3.org/2000/svg" width="110" height="110" fill="none" viewBox="0 0 110 110"><g clip-path="url(#a)" transform="translate(-.146 .724)scale(1.00567)"><path fill="#463c2f" stroke="#3d3429" stroke-miterlimit="3.99393" stroke-width="0.542476" d="m91.267 21.598-3.269 1.887c-.09.052-.127.155-.084.23l.908 1.571c.043.075.15.094.24.042l3.269-1.887c.09-.052.127-.154.084-.23l-.908-1.57c-.043-.076-.15-.094-.24-.043z"/><path fill="#9e7543" d="m63.082 45.374 1.67 2.893 2.52-1.454.26-.769L92.998 31.34l-1.402-2.429z"/><path fill="#413c35" d="m56.676 59.141 7.86-5.219c2.665 4.643 6.653 9.474 10.828 13.661l-6.54 6.586c-4.517-4.404-8.976-9.578-12.148-15.028"/><path stroke="#38342e" stroke-linecap="round" stroke-miterlimit="3.99393" stroke-width="1.08495" d="m56.676 59.141 7.86-5.219c2.665 4.643 6.653 9.474 10.828 13.661l-6.54 6.586c-4.517-4.404-8.976-9.578-12.148-15.028Z"/><path fill="#3e3932" stroke="#38342e" stroke-linecap="round" stroke-miterlimit="3.99393" stroke-width="0.542476" d="m73.213 69.75 2.152-2.167c-4.174-4.187-8.162-9.018-10.827-13.661L62.07 55.56c3.682 5.917 6.313 9.214 11.142 14.19zM59.209 57.459l-2.534 1.682c3.173 5.45 7.632 10.624 12.148 15.028l2.015-2.029c-5.009-5.101-7.943-8.38-11.63-14.681Z"/><path fill="#413c35" stroke="#38342e" stroke-linecap="round" stroke-miterlimit="3.99393" stroke-width="1.08495" d="M73.637 66.178 67.51 72.4a.805.805 0 0 0-.02 1.098l.656.714a.71.71 0 0 0 1.043.02l6.127-6.221a.805.805 0 0 0 .02-1.098l-.655-.715a.71.71 0 0 0-1.043-.019z"/><path fill="#3e3932" stroke="#38332e" stroke-miterlimit="3.99393" stroke-width="0.542476" d="M51.066 63.766c-1.527-1.022-1.918-1.876-1.488-4.035l-1.712.988c.216 1.999.89 2.753 2.93 3.544.343.133.608-.272.27-.497z"/><path fill="#9e7543" d="m30.314 57.984 58.585-33.745-1.395-2.418L28.947 55.63Z"/><path fill="#a97d47" d="m30.17 57.7 58.534-33.794 2.976 5.156-28.016 16.136.442.766L44.56 57.25l-9.054 1.499-3.547 2.048z"/><path fill="#9a7241" d="m34.51 65.216-2.551-4.42 3.547-2.047 9.054-1.5 19.107-11.03 1.139 1.971-1.69 1.861 1.617 2.801.544.496-8.121 7.009-1.683-2.915a.814.814 0 0 0-1.112-.298l-2.57 1.484-1.145.542-4.078 2.354c-2.331 1.347-5.831 2.526-9.534 3.125-.842.184-1.69.37-2.524.567"/><path fill="#9e7543" stroke="#48351e" stroke-linecap="round" stroke-miterlimit="3.99393" stroke-width="0.542476" d="m28.947 55.629-1.503 2.35.443 6.033 2.197 3.76 4.427-2.555z"/><path fill="#463c2f" stroke="#3d3429" stroke-linecap="round" stroke-miterlimit="3.99393" stroke-width="1.08495" d="m98.478 21.656-3.893 2.25-.29.52-3.968 2.29.906 1.569 3.968-2.29h.59l3.894-2.248z"/><path fill="#b0824a" d="m62.208 39.35 26.56-15.336 2.421 4.192L62.674 44.67l-1.312-2.273Z"/><path fill="#946d3d" d="M40.539 67.473c-.689-1.115-1.568-2.338-2.678-2.968 3.323-.62 6.42-1.69 8.573-2.904-.278 1.903.038 3.62.933 4.087l-.14.748c-.305.345-.414.823-.459 1.344l-.047-.002c-.113-.372-.33-.563-.555-.763-.287-.253-.589-.52-.715-1.187-.328-1.423-1.167-1.212-2.78-.807l-.404.1c-.998.174-1.682.62-1.727 2.19z"/><path fill="#8c683b" d="M40.542 67.312c.045-1.57.729-2.016 1.727-2.19 1.879-.461 2.83-.83 3.184.706.237 1.254 1.095 1.095 1.305 2.087l1.014 9.167.416.722c.1.172-.014.39-.212.406l-1.776.144-.349-.373-2.54.236-.36.432-2.493.019z"/><path fill="#856238" d="m45.851 77.98.349.374-3.25.295.361-.432z"/><path fill="#7d5c35" d="M43.4 61.311a1.197 1.197 0 1 0-1.197-2.074 1.197 1.197 0 0 0 1.197 2.074"/><path fill="#7a5c38" d="m42.968 60.727-2.173 1.254a.21.21 0 0 1-.284-.076l-.266-.461a.21.21 0 0 1 .076-.284l2.172-1.255"/><path stroke="#7a5c38" stroke-miterlimit="3.99393" stroke-width="0.135619" d="m42.968 60.727-2.173 1.254a.21.21 0 0 1-.284-.076l-.266-.461a.21.21 0 0 1 .076-.284l2.172-1.255"/><path fill="#856237" d="M61.345 50.55a.543.543 0 0 0-.746-.195l-3.073 1.819a.54.54 0 0 0-.236.288l-.38 1.095a.54.54 0 0 0 .042.449l1.332 2.305a.542.542 0 0 0 .82.143l3.448-2.92c.2-.17.25-.459.12-.686z"/><path fill="#464039" d="M35.398 61.924a.692.692 0 1 0-.692-1.198.692.692 0 0 0 .692 1.198"/><path fill="#7a5c38" stroke="#7a5c38" stroke-linecap="round" stroke-miterlimit="3.99393" stroke-width="0.0842519" d="m51.232 54.742-1.291.746a.344.344 0 0 0-.126.47l.746 1.292a.344.344 0 0 0 .47.126l1.292-.746a.344.344 0 0 0 .126-.47l-.746-1.292a.344.344 0 0 0-.47-.126z"/><path fill="#464039" d="M62.91 48.65a.72.72 0 1 0-.722-1.247.72.72 0 0 0 .721 1.248"/><path fill="#4c4133" stroke="#3d3429" stroke-miterlimit="3.99393" stroke-width="0.542476" d="m90.155 21.636-.603.348a.38.38 0 0 0-.14.519l1.207 2.09a.38.38 0 0 0 .519.138l.603-.348a.38.38 0 0 0 .14-.519l-1.207-2.09a.38.38 0 0 0-.52-.138z"/><path fill="#97703f" d="m78.832 26.828 1.198-4.046-1.052-1.495c-.802-1.016-2.09-1.406-3.049-.853.04.488.026.758-.176 1.236z"/><path fill="#464039" d="M37.198 56.462a.617.617 0 1 0-.617-1.068.617.617 0 0 0 .617 1.068m-3.853 1.906a.691.691 0 1 0-.691-1.198.691.691 0 0 0 .691 1.198"/><path fill="#9a7241" d="m63.618 39.643-.603.348a.38.38 0 0 0-.14.519l1.46 2.527a.38.38 0 0 0 .518.139l.604-.348a.38.38 0 0 0 .139-.52l-1.46-2.527a.38.38 0 0 0-.518-.139m2.404-1.387-.603.348a.38.38 0 0 0-.14.519l1.46 2.527a.38.38 0 0 0 .519.14l.603-.35a.38.38 0 0 0 .139-.518l-1.46-2.527a.38.38 0 0 0-.518-.14m2.405-1.388-.604.348a.38.38 0 0 0-.139.52l1.46 2.526a.38.38 0 0 0 .518.14l.603-.349a.38.38 0 0 0 .14-.519l-1.46-2.527a.38.38 0 0 0-.518-.139m2.402-1.386-.604.348a.38.38 0 0 0-.139.518l1.46 2.528a.38.38 0 0 0 .518.139l.604-.348a.38.38 0 0 0 .139-.52l-1.46-2.527a.38.38 0 0 0-.518-.139m2.404-1.387-.603.348a.38.38 0 0 0-.14.519l1.46 2.527a.38.38 0 0 0 .519.14l.603-.35a.38.38 0 0 0 .139-.518l-1.46-2.527a.38.38 0 0 0-.518-.14m2.402-1.386-.603.348a.38.38 0 0 0-.139.52l1.46 2.526a.38.38 0 0 0 .518.14l.603-.349a.38.38 0 0 0 .14-.519l-1.46-2.527a.38.38 0 0 0-.519-.139m2.405-1.389-.604.348a.38.38 0 0 0-.139.52l1.46 2.527a.38.38 0 0 0 .518.139l.604-.349a.38.38 0 0 0 .139-.519l-1.46-2.527a.38.38 0 0 0-.518-.139m2.404-1.386-.603.348a.38.38 0 0 0-.14.519l1.46 2.527a.38.38 0 0 0 .519.139l.603-.348a.38.38 0 0 0 .139-.52l-1.459-2.527a.38.38 0 0 0-.52-.138m2.401-1.388-.603.348a.38.38 0 0 0-.139.519l1.46 2.527a.38.38 0 0 0 .518.14l.603-.349a.38.38 0 0 0 .14-.519l-1.46-2.527a.38.38 0 0 0-.519-.14m2.406-1.388-.603.348a.38.38 0 0 0-.139.52l1.46 2.526a.38.38 0 0 0 .518.14l.604-.349a.38.38 0 0 0 .139-.519l-1.46-2.527a.38.38 0 0 0-.518-.139m2.409-1.375-.602.348a.38.38 0 0 0-.14.52l1.46 2.526a.38.38 0 0 0 .518.14l.604-.349a.38.38 0 0 0 .139-.519l-1.46-2.527a.38.38 0 0 0-.518-.139"/><path fill="#464039" d="M87.524 28.95a.855.855 0 1 0-.855-1.479.855.855 0 0 0 .855 1.48"/><path fill="#9a7241" d="m3.238 73.758 9.523 16.494 3.48-2.936-1.08-5.351-.872-.564c-.473-1.953-.86-3.447 1.188-4.63l9.821-5.775-2.966-5.138-14.63 8.446-2.892-1.453Z"/><path fill="#90673c" stroke="#48351e" stroke-miterlimit="3.99393" stroke-width="0.542476" d="m14.258 77.874-.009-.222-6.513 3.71 5.08 8.798 3.417-2.881-1.072-5.314-.871-.564-.016-.062c-.33-1.363-.606-2.501-.016-3.465Z"/><path stroke="#48351e" stroke-linecap="round" stroke-miterlimit="3.99393" stroke-width="1.08495" d="m3.238 73.758 9.523 16.494 3.48-2.936-1.08-5.351-.872-.564c-.473-1.953-.86-3.447 1.188-4.63l9.821-5.775-2.966-5.138-14.63 8.446-2.892-1.453Z"/><path fill="#504a42" stroke="#38342e" stroke-linecap="round" stroke-miterlimit="3.99393" stroke-width="1.08495" d="m1.308 74.871 1.93-1.114 9.522 16.495c-.538.482-1.142.987-1.876 1.534-.486.318-.657.25-1.02-.11-.44-.48-.67-.944-1.071-1.718-2.06-3.978-4.158-8.695-7.504-13.232-.812-1.068-.798-1.383.019-1.855Z"/><path fill="#464039" d="M8.626 77.527A.882.882 0 1 0 7.744 76a.882.882 0 0 0 .882 1.527"/><path fill="#7d5c35" d="m20.213 69.955-1.292.746a.344.344 0 0 0-.126.47l.746 1.292a.344.344 0 0 0 .47.126l1.292-.746a.344.344 0 0 0 .126-.47l-.746-1.292a.344.344 0 0 0-.47-.126m9.523-9.652-.452.26a.344.344 0 0 0-.126.47l2.352 4.074a.344.344 0 0 0 .47.126l.452-.26a.344.344 0 0 0 .126-.47l-2.352-4.074a.344.344 0 0 0-.47-.126"/><path fill="#8c673a" d="m22.363 65.865 4.947-2.856 2.412 4.177-4.947 2.857z"/><path fill="#936d3e" d="m26.039 65.079-1.248.72 1.855 3.212 1.247-.72z"/><path stroke="#48351e" stroke-linecap="round" stroke-miterlimit="3.99393" stroke-width="1.08495" d="m22.363 65.865 4.947-2.856 2.412 4.177-4.947 2.857z"/><path fill="#a57a46" stroke="#48351e" stroke-linecap="round" stroke-miterlimit="3.99393" stroke-width="1.08495" d="m11.267 68.486 16.178-10.508.443 6.033-15.596 8.978-1.856-2.565c-.793-1.096.25-1.563.83-1.938z"/><path fill="#464039" d="M12.607 70.489a.691.691 0 1 0-.691-1.198.691.691 0 0 0 .69 1.198"/><path stroke="#48351e" stroke-linecap="round" stroke-miterlimit="3.99393" stroke-width="0.542476" d="m47.175 61.294 4.619-2.667c.657-.379 1.414-.409 1.95.543l.979 1.696c.286.507.495 1.478-.116 1.963l-3.06 2.433-3.24.661c-.852.174-1.8-.408-1.805-2.028l.027-1.823c.007-.499.242-.545.646-.778z"/><path fill="#413b35" d="M58.01 40.041a.34.34 0 0 0 .34.588l15.588-9a.34.34 0 0 0-.339-.588z"/><rect width="16.7106" height="3.73403" x="92.746101" y="24.2031" fill="#4c4133" stroke="#3d3429" stroke-miterlimit="3.99393" stroke-width="1.08495" rx="0.271238" transform="rotate(-30 92.746 24.203)"/><path fill="#8c683b" stroke="#48351e" stroke-miterlimit="3.99393" stroke-width="0.542476" d="m54.89 61.143-.134-.215-1.013-1.758a1.9 1.9 0 0 0-.412-.519 1.1 1.1 0 0 0-.773-.27q-.263.014-.52.125a2 2 0 0 0-.244.121l-.003.002 2.57-1.484a.814.814 0 0 1 1.113.298l1.683 2.915-1.452 1.972-4.359 3.29-4.117.817.139-.748 3.643-.65 3.457-2.54c.403-.369.462-.801.423-1.356z"/><path fill="#936d3e" d="m63.593 46.262-1.614-2.796-26.471 15.283 9.054-1.499Z"/><path fill="#70675c" d="m48.098 49.049 9.811-5.665a.71.71 0 0 1 .97.26l.667 1.156c.196.34.08.772-.26.969l-9.811 5.665z"/><path fill="#544d45" d="M48.87 50.083a.271.271 0 1 0 .27.47l4.789-2.764a.271.271 0 0 0-.272-.47z"/><ellipse cx="49.216599" cy="49.693802" fill="#625a50" rx="0.43595999" ry="0.43596101" transform="rotate(-30 49.217 49.694)"/><path stroke="#38332e" stroke-linecap="square" stroke-miterlimit="3.99393" stroke-width="0.542476" d="m48.098 49.049 9.811-5.665a.71.71 0 0 1 .97.26l.667 1.156c.196.34.08.772-.26.969l-9.811 5.665z"/><path fill="#796349" stroke="#403426" stroke-linecap="square" stroke-miterlimit="3.99393" stroke-width="0.542476" d="m47.944 48.787-2.948 1.702 1.68 2.91 2.948-1.702z"/><path stroke="#48351e" stroke-width="1.08495" d="m28.947 55.629-1.504 2.35.443 6.033 2.198 3.76 4.426-2.555a152 152 0 0 1 2.525-.567q.415-.068.827-.144c1.11.63 1.989 1.853 2.677 2.968l-.082 11.194 2.492-.019 3.25-.295 1.775-.144a.27.27 0 0 0 .213-.406l-.416-.722-1.014-9.167.012-.135c.045-.52.154-.998.46-1.343l4.117-.817 4.358-3.29 1.452-1.972 8.121-7.009-.544-.496-1.617-2.8 1.634-1.785 2.52-1.454.259-.77 25.47-14.704-5.496-9.519Z"/><path fill="#97703f" d="m32.496 50.512-.838 3.552-3.549-6.147.798-.46c.563-.325 1.812-.022 2.435 1.057z"/><path fill="#8c673a" stroke="#48351e" stroke-linecap="round" stroke-miterlimit="3.99393" stroke-width="0.542476" d="m31.658 54.064.838-3.552 1.215-.701 3.01-1.411 1.669 1.777z"/><path stroke="#48351e" stroke-linecap="round" stroke-miterlimit="3.99393" stroke-width="1.08495" d="m32.496 50.512-1.154-1.998c-.623-1.079-1.872-1.382-2.435-1.058l-.798.461 3.55 6.147 6.73-3.887-1.668-1.777-3.01 1.41z"/><path fill="#8c673a" stroke="#48351e" stroke-linecap="round" stroke-miterlimit="3.99393" stroke-width="0.542476" d="M83.563 21.63s-1.905.408-2.842.816c-.286.125-.691.335-.691.335l-1.199 4.046 5.831-3.367z"/><path stroke="#48351e" stroke-linecap="round" stroke-miterlimit="3.99393" stroke-width="1.08495" d="m78.832 26.828-3.08-5.158c.203-.478.217-.748.177-1.236.959-.553 2.247-.163 3.049.853l1.052 1.495s.406-.21.692-.335c.936-.408 2.842-.815 2.842-.815l1.099 1.83z"/><path stroke="#48351e" stroke-width="0.542476" d="m62.208 39.35 26.56-15.336L93 31.341 67.531 46.045l-.26.77-2.519 1.453-3.39-5.872z"/><path fill="#464039" d="M64.047 46.502a.998.998 0 1 0-1-1.728.998.998 0 0 0 1 1.728"/></g><defs><clipPath id="a"><path fill="#fff" d="M.086 0h110v110h-110z"/></clipPath></defs></svg>