<svg xmlns="http://www.w3.org/2000/svg" width="108.11526" height="17.501055" viewBox="0 0 28.605495 4.6304874"><g style="fill:none;stroke-width:.610964"><g style="opacity:1;stroke-width:.610964" transform="matrix(.07577 0 0 .07827 -3.566 7.658)"><g style="stroke-width:.610964"><rect width="29.038574" height="35.677677" x="141.48962" y="-80.470314" rx="0" ry="0" style="fill:#48351e;fill-opacity:1;stroke:#48351e;stroke-width:4.88771;stroke-linecap:round;stroke-linejoin:round;stroke-dasharray:none;stroke-opacity:1"/><path d="M68.4-79.081h128.225v32.9H68.401Z" style="fill:#9a7241;fill-opacity:1;stroke:none;stroke-width:4.88771;stroke-linecap:round;stroke-linejoin:round;stroke-dasharray:none;stroke-opacity:1"/><path d="M34.367-62.631H67.11" style="opacity:1;fill:#8c633a;fill-opacity:1;stroke:#171717;stroke-width:5.15352;stroke-linecap:round;stroke-linejoin:round;stroke-dasharray:none;stroke-opacity:1" transform="translate(56.016)"/><path d="M88.453-46.182H68.435v-32.9h20.018z" style="fill:#90673c;fill-opacity:1;stroke:#21170d;stroke-width:10.307;stroke-linecap:round;stroke-linejoin:round;stroke-dasharray:none;stroke-opacity:1"/><path d="M130.335-79.081h48.772v32.9h-48.772l-5-8.226v-16.45z" style="fill:#9a7241;fill-opacity:1;stroke:#21170d;stroke-width:4.88771;stroke-linecap:round;stroke-linejoin:round;stroke-dasharray:none;stroke-opacity:1"/><path fill="#48351e" d="M190.647-47.094h-3.629c-1.093 0-1.98 1.22-1.98 2.723v2.966c0 1.504.887 2.723 1.98 2.723h3.629c1.092 0 1.978-1.219 1.978-2.723v-2.966c0-1.504-.886-2.723-1.978-2.723" style="fill:#21170d;fill-opacity:1;stroke-width:5.45593;stroke-dasharray:none"/><path d="m52.208-78.081 16.279-1v32.9l-16.28-1z" style="opacity:1;fill:#494949;fill-opacity:.952941;stroke:#171717;stroke-width:10.307;stroke-linecap:round;stroke-linejoin:round;stroke-dasharray:none;stroke-opacity:1"/></g><path d="M89.866-79.081h106.759v32.9H89.865Z" style="fill:none;fill-opacity:1;stroke:#21170d;stroke-width:10.307;stroke-linecap:round;stroke-linejoin:round;stroke-dasharray:none;stroke-opacity:1"/><path d="M179.107-79.081h17.518v32.9h-17.518z" style="fill:#9a7241;fill-opacity:1;stroke:#21170d;stroke-width:5.15352;stroke-linecap:round;stroke-linejoin:round;stroke-dasharray:none;stroke-opacity:1"/><g style="stroke-width:.610964"><rect width="20.987" height="39.677673" x="264.03781" y="42.792633" rx="0" ry="0" style="fill:#645e62;fill-opacity:1;stroke:#21170d;stroke-width:5.15352;stroke-linecap:round;stroke-linejoin:round;stroke-dasharray:none;stroke-opacity:1" transform="scale(1 -1)"/><rect width="10.032737" height="42.095318" x="-221.29723" y="41.583809" rx="0" ry="0" style="fill:none;fill-opacity:1;stroke:#21170d;stroke-width:5.15352;stroke-linecap:round;stroke-linejoin:round;stroke-dasharray:none;stroke-opacity:1" transform="scale(-1)"/><rect width="5.271697" height="42.095318" x="-245.4641" y="41.583809" rx="0" ry="0" style="fill:#645e62;fill-opacity:1;stroke:#21170d;stroke-width:5.15352;stroke-linecap:round;stroke-linejoin:round;stroke-dasharray:none;stroke-opacity:1" transform="scale(-1)"/><path d="M306.915-80.47h59.026v35.677h-59.026z" style="opacity:1;fill:#48351e;fill-opacity:1;stroke:#48351e;stroke-width:4.88771;stroke-linecap:round;stroke-linejoin:round;stroke-dasharray:none;stroke-opacity:1"/><rect width="19.581009" height="12.169867" x="287.298" y="-54.962502" rx="0" ry="0" style="fill:#645e62;fill-opacity:1;stroke:#48351e;stroke-width:2.44386;stroke-linecap:round;stroke-linejoin:round;stroke-dasharray:none;stroke-opacity:1"/><path d="M363.41-79.081H196.626v32.9h166.786z" style="fill:#9a7241;fill-opacity:1;stroke:none;stroke-width:4.88772;stroke-linecap:round;stroke-linejoin:round;stroke-dasharray:none;stroke-opacity:1"/><g style="stroke-width:.610964"><path fill="#333" stroke="#333" stroke-linecap="round" stroke-linejoin="round" stroke-width="1.15702" d="m418.916-69.576-25.868.013-2.935 1.754H363.76v10.42h26.354l2.935 1.702h25.868z" style="fill:#171717;fill-opacity:1;stroke:#171717;stroke-width:1.22193;stroke-dasharray:none;stroke-opacity:1"/><rect width="19.964094" height="12.2391" x="364.26825" y="-68.751114" rx="0.90043873" ry="0.90043879" style="fill:#171717;fill-opacity:1;stroke:#171717;stroke-width:1.15122;stroke-linecap:round;stroke-linejoin:round;stroke-dasharray:none;stroke-opacity:1"/><path fill="#2F2D2B" d="M378.084-71.756h-4.007a2.186 2.186 0 0 0-2.185 2.185v13.879c0 1.207.98 2.185 2.185 2.185h4.007a2.186 2.186 0 0 0 2.186-2.185v-13.879a2.186 2.186 0 0 0-2.186-2.185z" style="fill:#171717;fill-opacity:1;stroke:#171717;stroke-width:.610964;stroke-opacity:1"/></g><path fill="#2f2d2b" d="M227.048-79.338h-4.007c-1.207 0-2.185 1.22-2.185 2.723v27.967c0 1.503.978 2.723 2.185 2.723h4.007c1.207 0 2.185-1.22 2.185-2.723v-27.967c0-1.503-.978-2.723-2.185-2.723" style="fill:#8c633a;fill-opacity:1;stroke-width:5.45593;stroke-dasharray:none"/><g style="stroke-width:.610964"><path fill="#48351e" d="M300.778 154.028h-4.007c-1.207 0-2.186 1.22-2.186 2.723v2.967c0 1.503.979 2.722 2.186 2.722h4.007c1.206 0 2.185-1.219 2.185-2.722v-2.967c0-1.503-.98-2.723-2.185-2.723m15.962 0h-4.006c-1.206 0-2.185 1.22-2.185 2.723v2.967c0 1.503.979 2.722 2.185 2.722h4.007c1.207 0 2.186-1.219 2.186-2.722v-2.967c0-1.503-.98-2.723-2.186-2.723m15.964 0h-4.007c-1.207 0-2.185 1.22-2.185 2.723v2.967c0 1.503.978 2.722 2.185 2.722h4.007c1.207 0 2.185-1.219 2.185-2.722v-2.967c0-1.503-.978-2.723-2.185-2.723m15.964 0h-4.007c-1.207 0-2.185 1.22-2.185 2.723v2.967c0 1.503.978 2.722 2.185 2.722h4.007c1.207 0 2.185-1.219 2.185-2.722v-2.967c0-1.503-.978-2.723-2.185-2.723" style="fill:#21170d;fill-opacity:1;stroke-width:5.45593;stroke-dasharray:none" transform="translate(12.892 -201.153)"/></g><path fill="#2f2d2b" d="M243.011-79.338h-4.007c-1.206 0-2.185 1.22-2.185 2.723v27.967c0 1.503.979 2.723 2.185 2.723h4.007c1.207 0 2.186-1.22 2.186-2.723v-27.967c0-1.503-.979-2.723-2.186-2.723" style="fill:#8c633a;fill-opacity:1;stroke-width:5.45593;stroke-dasharray:none"/><g style="stroke-width:.610964"><path fill="#48351e" d="M300.778 154.028h-4.007c-1.207 0-2.186 1.22-2.186 2.723v2.967c0 1.503.979 2.722 2.186 2.722h4.007c1.206 0 2.185-1.219 2.185-2.722v-2.967c0-1.503-.98-2.723-2.185-2.723m15.962 0h-4.006c-1.206 0-2.185 1.22-2.185 2.723v2.967c0 1.503.979 2.722 2.185 2.722h4.007c1.207 0 2.186-1.219 2.186-2.722v-2.967c0-1.503-.98-2.723-2.186-2.723m15.964 0h-4.007c-1.207 0-2.185 1.22-2.185 2.723v2.967c0 1.503.978 2.722 2.185 2.722h4.007c1.207 0 2.185-1.219 2.185-2.722v-2.967c0-1.503-.978-2.723-2.185-2.723m15.964 0h-4.007c-1.207 0-2.185 1.22-2.185 2.723v2.967c0 1.503.978 2.722 2.185 2.722h4.007c1.207 0 2.185-1.219 2.185-2.722v-2.967c0-1.503-.978-2.723-2.185-2.723" style="fill:#21170d;fill-opacity:1;stroke-width:5.45593;stroke-dasharray:none" transform="translate(12.892 -240.61)"/></g><path d="M531.754-62.631h16.754" style="fill:#8c633a;fill-opacity:1;stroke:#333;stroke-width:5.15352;stroke-linecap:round;stroke-linejoin:round;stroke-dasharray:none;stroke-opacity:1" transform="translate(-206.256)"/><g style="stroke-width:.610964"><path fill="#2f2d2b" d="M258.975-79.338h-4.007c-1.207 0-2.185 1.22-2.185 2.723v27.967c0 1.503.978 2.723 2.185 2.723h4.007c1.207 0 2.185-1.22 2.185-2.723v-27.967c0-1.503-.978-2.723-2.185-2.723" style="fill:#8c633a;fill-opacity:1;stroke-width:5.45593;stroke-dasharray:none"/><path fill="#48351e" d="M306.867-79.338h-4.007c-1.207 0-2.186 1.22-2.186 2.723v27.967c0 1.503.979 2.723 2.186 2.723h4.007c1.206 0 2.185-1.22 2.185-2.723v-27.967c0-1.503-.979-2.723-2.185-2.723m15.963 0h-4.007c-1.206 0-2.185 1.22-2.185 2.723v27.967c0 1.503.979 2.723 2.185 2.723h4.007c1.207 0 2.186-1.22 2.186-2.723v-27.967c0-1.503-.979-2.723-2.186-2.723m15.964 0h-4.007c-1.207 0-2.185 1.22-2.185 2.723v27.967c0 1.503.978 2.723 2.185 2.723h4.007c1.207 0 2.185-1.22 2.185-2.723v-27.967c0-1.503-.978-2.723-2.185-2.723m15.964 0h-4.007c-1.207 0-2.185 1.22-2.185 2.723v27.967c0 1.503.978 2.723 2.185 2.723h4.007c1.207 0 2.185-1.22 2.185-2.723v-27.967c0-1.503-.978-2.723-2.185-2.723m-79.819 0h-4.007c-1.207 0-2.185 1.22-2.185 2.723v27.967c0 1.503.978 2.723 2.185 2.723h4.007c1.207 0 2.185-1.22 2.185-2.723v-27.967c0-1.503-.978-2.723-2.185-2.723m15.964 0h-4.007c-1.207 0-2.185 1.22-2.185 2.723v27.967c0 1.503.978 2.723 2.185 2.723h4.007c1.207 0 2.185-1.22 2.185-2.723v-27.967c0-1.503-.978-2.723-2.185-2.723" style="fill:#8c633a;fill-opacity:1;stroke-width:5.45593;stroke-dasharray:none"/></g><path d="M329.976-95.401h3.887v14.93h-3.887z" style="fill:none;fill-opacity:1;stroke:#171717;stroke-width:4.88771;stroke-linecap:round;stroke-linejoin:round;stroke-dasharray:none;stroke-opacity:1"/><path d="M202.336-80.149h29.803v35.035h-29.803z" style="fill:#8c633a;fill-opacity:1;stroke:none;stroke-width:4.88772;stroke-linecap:round;stroke-linejoin:miter;stroke-dasharray:none;stroke-opacity:1"/><path d="M255.815-80.149h-23.676v35.035h23.676z" style="fill:#996d40;fill-opacity:1;stroke:none;stroke-width:4.88772;stroke-linecap:round;stroke-linejoin:miter;stroke-dasharray:none;stroke-opacity:1"/><path d="M202.336-80.47h52.635v35.677h-52.635z" style="fill:none;fill-opacity:1;stroke:#21170d;stroke-width:5.15352;stroke-linecap:round;stroke-linejoin:miter;stroke-dasharray:none;stroke-opacity:1"/><path d="M363.46-80.149h-22.388v35.035h22.389z" style="fill:#996d40;fill-opacity:1;stroke:none;stroke-width:4.88772;stroke-linecap:round;stroke-linejoin:miter;stroke-dasharray:none;stroke-opacity:1"/><path d="M322.1-80.149h24.804v35.035H322.1v-10.131h10.528v-15.07H322.1z" style="fill:#8c633a;fill-opacity:1;stroke:none;stroke-width:4.88772;stroke-linecap:round;stroke-linejoin:miter;stroke-dasharray:none;stroke-opacity:1"/><path d="M312.89-80.149h50.83v35.035h-50.83v0h10v-10.138h10v-14.759h-10v-10.138Z" style="fill:none;fill-opacity:1;stroke:#48331e;stroke-width:5.15352;stroke-linecap:round;stroke-linejoin:miter;stroke-dasharray:none;stroke-opacity:1"/><path d="M364.902-79.081H196.625v32.9h168.387z" style="fill:none;fill-opacity:1;stroke:#21170d;stroke-width:10.307;stroke-linecap:round;stroke-linejoin:round;stroke-dasharray:none;stroke-opacity:1"/></g><rect width="35.075695" height="18.989197" x="387.6546" y="-72.126068" ry="0.13211405" style="fill:#171717;fill-opacity:1;fill-rule:evenodd;stroke:#171717;stroke-width:3.66578;stroke-linecap:round;stroke-linejoin:round;stroke-opacity:1"/></g></g></svg>