<svg xmlns="http://www.w3.org/2000/svg" id="svg1" width="122.9" height="22.81" viewBox="0 0 122.9 22.81"><defs><style>.cls-3,.cls-8{fill:#7d521b;stroke:#261a08;stroke-width:3px;stroke-linecap:round}.cls-8{fill:none;stroke-width:1.5px;stroke:#1a1a1a}</style></defs><path id="rect2023-2" d="M49.7 6.81v5c0 1-.9 1.9-2 1.9H3.5c-1.1 0-2-.9-2-1.9v-5c0-1 .9-1.9 2-1.9h44.1c1.2.1 2.1.9 2.1 1.9Z" class="cls-3"/><path id="rect2077-2" d="M75.3 15.31H27.4l-1.2-2.3v-7.5l1.2-2.3h47.9z" style="stroke-width:3px;stroke-linecap:round;fill:#434343;stroke:#171717"/><path id="path2637-2" d="m30.3 2.51-3.5.1v13.8l3.5.1v-4.3l1.5-1v-4l-1.5-1z" style="fill:#1a1a1a"/><path id="path2938-2" d="M63.8 16.51v6.1c-.1.1-.2.2-.3.2h-.8c-.1 0-.2-.1-.3-.2v-1.6c0-.5 0-1-.3-1.4-.7-1-1.7-1.3-2.2-1.8-.3-.3-.2-1-.5-1.3z" style="fill:#171717"/><rect id="rect5115-2" width="21.8" height="6.5" x="99.6" y="6.01" rx="1.38" ry="1.38" style="stroke-width:3px;stroke-linecap:round;stroke:#171717;fill:#3c3c3c"/><path id="rect983-2" d="M71.9 3.41v11.6H60.8v-2.8l7.1-1.6v-2.7l-7.1-1.6v-2.9z" style="stroke-linecap:round;stroke:#171717;fill:#505050;stroke-width:1.5px"/><path id="path1772-2" d="M75.3 15.31H27.4l-1.2-2.3v-7.5l1.2-2.3h47.9z" style="stroke-width:3px;stroke-linecap:round;stroke:#171717;fill:none"/><path id="rect5006-2" d="M105.8 7.51v3.4c0 2.6-1.7 4.8-4.2 4.9l-24.2 1.3c-1.2 0-2.2-1-2.2-2.3v-11c0-1.3 1-2.4 2.2-2.3l24.2 1.3c2.5 0 4.2 2.1 4.2 4.7Z" class="cls-3"/><g id="g2"><path id="path1" d="M59.47 11.88H32.61" class="cls-8"/><path id="path2" d="M59.47 6.82H32.61" class="cls-8"/></g></svg>