<svg xmlns="http://www.w3.org/2000/svg" width="110" height="110" fill="none" viewBox="0 0 110 110"><g clip-path="url(#a)"><path fill="#3A3A3A" stroke="#333" stroke-width="0.572369" d="m83.859 32.713 1.278-.738-1.146-1.985-1.262.729z"/><path fill="#393939" stroke="#333" stroke-width="0.572369" d="M103.263 19.077 84.084 30.15l1.022 1.77 19.399-11.199-.375-.142z"/><path stroke="#333" stroke-width="1.14474" d="m85.137 31.975-1.278.737-1.13-1.994 1.262-.728.093.16 19.179-11.072.867 1.502.374.141-19.398 11.2z"/><path fill="#3A3A3A" d="m82.18 29.748 1.79-1.034-1.517-2.629-1.77 1.022z"/><path fill="#333" d="m82.73 30.719 1.262-.73-.558-.965-1.254.724z"/><path fill="#363636" d="m51.522 56.388.692-.722.537.62-.981.531z"/><path fill="#3D3D3D" d="M51.952 55.328c3.277 4.31 6.35 6.916 9.971 8.83 4.025 2.129 8.302 3.934 15.36 4.08l.534-8.677c-4.37-.196-7.343-1.002-10.145-2.333-2.843-1.35-5.529-3.218-8.29-6.633z"/><path fill="#3D3D3D" d="M77.699 61.71c-4.811-.236-8.534-1.438-11.926-2.998-3.153-1.45-5.888-3.646-8.618-6.7l2.222-1.415c2.768 3.428 5.46 5.3 8.308 6.654 2.802 1.33 5.776 2.137 10.145 2.332z"/><path fill="#383838" stroke="#333" stroke-width="0.572369" d="m42.495 61.352 2.516-1.603c-.512 1.06-.237 1.783.091 2.207.33.425.726.797 2.084.549.26-.047.34.34.01.388-1.622.234-2.256.019-3.076-1.3-.65.281-1.022.21-1.625-.241Z"/><path fill="#3D3D3D" stroke="#333" stroke-width="0.572369" d="m48.812 57.328 2.457-1.565 1.492 2.523c.186.322-.019 1.083-.34 1.27l-1.341.774c.31.536-.148 1.48-.496 1.68l-4.816 2.996c-.617.356-1.721-.008-1.907-.33l-1.745-3.083.288-.183 1.593 2.758c.279.483 1.178.679 1.635.416l4.67-2.876c.429-.247.568-.936.429-1.177z"/><path fill="#775426" stroke="#4D3719" stroke-width="1.14474" d="M9.877 93.844C6.78 89.234 4.81 86.85.843 82.966c0 0-.162-.156-.056-.468.084-.247.455-.513.455-.513s7.706-6.166 8.595-6.858c.912-.71 6.628-4.935 7.137-5.23.51-.294.456-.387 2.426-.506 1.853-.569 2.485-1.148 2.485-1.148l8.3-6.437 3.929 4.884-8.392 9.996S16.737 87.5 13.107 91.694c-.784.905-1.356 1.378-1.492 1.505-.605.564-.792.672-.792.672s-.226.166-.518.156a.58.58 0 0 1-.428-.183Z"/><path fill="#3C3C3C" stroke="#333" stroke-width="1.14474" d="M.844 82.967c3.967 3.882 5.937 6.268 9.035 10.877 0 0 .135.173.427.183a.9.9 0 0 0 .533-.166 225 225 0 0 0-2.136-3.415c-.784-1.205-2.24-2.978-3.21-4.161l-.534-.651c-.62-.764-2.609-2.643-3.701-3.66l-.015.011s-.37.266-.455.513c-.106.312.056.468.056.468Z"/><path fill="#404040" stroke="#333" stroke-width="0.572369" d="m30.856 58.379-.326 1.48-.785.377.144-1.299z"/><path fill="#484848" d="m49.232 48.77 10.354-5.977.744 1.287-10.354 5.978z"/><path fill="#404040" d="m58.904 43.344.392-.226.644 1.116-.391.226z"/><path fill="#363636" d="m82.543 26.247 4.962-2.865 1.425 2.468-4.962 2.865z"/><path fill="#3B3B3B" d="m87.505 23.382-.965.557.185.322-3.996 2.308.403.697 3.996-2.307.217.375-3.997 2.308.403.697 3.997-2.307.216.375.966-.557z"/><path fill="#424242" stroke="#333" stroke-width="1.14474" d="m62.418 41.873.751-.434 3.066 5.311-.968.059z"/><path fill="#424242" d="M66.33 34.894c-.155-.268.239-.64.573-.617l2.013 3.486-.697.403z"/><path fill="#3B3B3B" d="m66.084 35.465.429-.248 1.703 2.95-.429.248z"/><path stroke="#333" stroke-width="0.572369" d="M66.9 34.277c-.334-.022-.728.349-.573.617l.186.322-.43.248 1.704 2.95 1.126-.65z"/><path fill="#4D4D4D" d="m49.231 48.77 10.354-5.978-.774-1.341-9.174 5.296c-.053.031-.84 1.022-.406 2.023"/><path stroke="#333" stroke-width="0.572369" d="m60.329 44.08-10.354 5.977-.744-1.287c-.434-1 .353-1.992.406-2.023l9.174-5.296z"/><path fill="#363636" fill-rule="evenodd" d="m40.55 54.356 8.87-5.265.558.966-9.822 5.83z" clip-rule="evenodd"/><path fill="#775426" d="M35.437 67.25c-.093-.162-.205-.419-.205-.419l7.9-3.846s.663 1.334.725 1.441c.062.108.035.123-.021.335-.171.385-.149.3-.34.589-.133.327-.151.48-.15.73.028.235.256 8.186.631 7.97 0 0 .59.16.984.898s.259 1.316.259 1.316-.737.891-1.78 1.564c-1.379.832-2.12.974-2.12.974s-.89.192-1.665-.469-1.115-1.931-1.115-1.931c-.29-1.834-.748-5.48-1.008-7.072 0 0-.062-.357-.186-.572 0 0-.226-.453-.969-.871-.742-.42-.739-.29-.94-.638"/><path stroke="#4D3719" stroke-width="1.14474" d="M35.232 66.831s.112.257.205.418m-.205-.418 7.9-3.846s.663 1.334.725 1.441c.062.108.035.123-.021.335-.171.385-.149.3-.34.589-.133.327-.151.48-.15.73.028.235.256 8.186.631 7.97 0 0 .59.16.984.898s.259 1.316.259 1.316-.737.891-1.78 1.564c-1.379.832-2.12.974-2.12.974s-.89.192-1.665-.469-1.115-1.931-1.115-1.931c-.29-1.834-.748-5.48-1.008-7.072 0 0-.062-.357-.186-.572 0 0-.226-.453-.969-.871-.742-.42-.739-.29-.94-.638m-.205-.418.205.418"/><path fill="#484848" stroke="#333" stroke-width="1.14474" d="m34.906 66.187 7.429-4.733.799 1.532-7.901 3.846z"/><path fill="#454545" d="m34.113 66.69-3.928-4.884 19.79-11.748L60.33 44.08l-.836-1.448 2.521-1.456 3.268 5.66-14.031 8.938-.072.706-2.072 1.304-.93-.053z"/><path fill="#424242" d="m50.836 55.14.697-.402.124.215-.697.402z"/><rect width="11.8938" height="2.35065" fill="#404040" rx="0.429277" transform="rotate(-32.6 113.416 -65.428)"/><path fill="#3B3B3B" d="m74.847 68.117.193-2.016a.238.238 0 0 0-.474-.046l-.194 2.02q.235.022.475.042m.865.06L76 65.192a.27.27 0 0 0-.538-.052l-.288 3.001q.267.02.54.036"/><path fill="#383838" d="M75.548 61.533a31 31 0 0 1-.58-.072l.115-1.196a.292.292 0 1 1 .581.056zm.908.091.073-1.139a.292.292 0 0 1 .583.037l-.073 1.148q-.294-.02-.583-.046"/><path fill="#3B3B3B" d="m76.667 68.22.13-2.05a.216.216 0 1 0-.43-.028l-.131 2.06q.213.01.431.018"/><ellipse cx="51.5936" cy="58.7433" fill="#383838" rx="0.464601" ry="0.464591" transform="rotate(-30 51.594 58.743)"/><path fill="#383838" stroke="#333" stroke-width="0.572369" d="m51.879 59.867.272.092.682 1.18c.108.188.419.045.348-.2l-.54-1.63a.66.66 0 0 1-.223.246z"/><path fill="#3B3B3B" d="M55.008 54.806c-.311-.32-.77.123-.532.379 3.011 3.233 5.749 5.333 8.672 6.903 2.938 1.578 6.227 2.735 10.545 3.46.435.074.549-.567.085-.657-4.268-.826-7.3-1.944-10.08-3.407-2.973-1.566-5.687-3.583-8.69-6.678"/><path fill="#3B3B3B" d="M56.135 53.96c-.311-.32-.77.123-.532.38 3.01 3.232 5.413 5.076 8.336 6.647 2.938 1.578 5.648 2.533 9.965 3.26.436.072.55-.568.086-.658-4.268-.826-6.72-1.671-9.5-3.135-2.972-1.566-5.352-3.399-8.355-6.494"/><path fill="#3B3B3B" d="M57.286 53.224c-.312-.32-.77.123-.533.379 2.816 3.218 5.56 4.957 8.482 6.528 2.938 1.578 4.57 2.154 8.888 2.88.435.073.549-.568.085-.658-4.268-.826-5.643-1.291-8.422-2.755-2.973-1.566-5.498-3.28-8.5-6.374m17.682 8.236-.353 3.677a.292.292 0 0 0 .581.055l.351-3.659a32 32 0 0 1-.58-.072m2.071.21q-.294-.021-.582-.045l-.238 3.744a.292.292 0 1 0 .582.037z"/><path fill="#4A4A4A" stroke="#333" stroke-width="0.572369" d="m65.932 35.195-8.53 4.925.558.966.483-.279 1.053 1.824 2.521-1.456.403.698 5.525-3.19z"/><path fill="#424242" d="m60.192 38.51-2.79 1.61.28.483 2.237-1.328c.29-.24.374-.466.273-.765"/><path fill="#424242" stroke="#333" stroke-width="1.14474" d="M84.545 33.926c.14.241-.414.954-.753.863l-4.353-7.786c.59-.341 1.118-.11 1.242.105z"/><ellipse cx="83.7252" cy="26.495" fill="#363636" rx="0.247787" ry="0.247782" transform="rotate(-30 83.725 26.495)"/><ellipse cx="84.7447" cy="25.9071" fill="#363636" rx="0.247787" ry="0.247782" transform="rotate(-30 84.745 25.907)"/><ellipse cx="85.7623" cy="25.3182" fill="#363636" rx="0.247787" ry="0.247782" transform="rotate(-30 85.762 25.318)"/><ellipse cx="86.7818" cy="24.7294" fill="#363636" rx="0.247787" ry="0.247782" transform="rotate(-30 86.782 24.73)"/><path fill="#373737" stroke="#333" stroke-width="0.572369" d="m107.909 18.976.744-.72-.062-.108.483-.279.062.108.429-.248-1.146-1.985-.429.248.093.16-.483.28-.093-.161-.214.123-.186-.321-.59.34 1.208 2.093z"/><path fill="#383838" stroke="#333" stroke-width="0.572369" d="m84.362 33.598 22.304-13.191a2.4 2.4 0 0 1-.389-.137l-.437.047-21.724 12.847z"/><path fill="#3C3C3C" d="m90.405 21.71-2.897 1.672 1.425 2.468 1.555-.899c.511-.044.916.223 1.24.786l1.178 2.039c.24.415.746.57 1.13.348.386-.222.504-.739.265-1.153l3.058-1.766-1.394-2.414s-1.475.852-3.245.264c-1.77-.587-2.315-1.346-2.315-1.346"/><path stroke="#333" stroke-width="1.14474" d="m82.546 26.246 4.962-2.865 2.898-1.673s.545.759 2.314 1.346 3.246-.264 3.246-.264l1.393 2.414-3.057 1.765c.239.415.12.932-.264 1.154-.385.223-.892.067-1.131-.348l-1.177-2.039c-.326-.563-.73-.83-1.24-.786l-1.557.899-6.753 3.899-1.497-2.64 1.77-1.023z"/><path fill="#3C3C3C" fill-rule="evenodd" stroke="#333" stroke-width="0.572369" d="m102.242 13.157.743 5.437 1.146 1.985.412.155.824-.368.91-.096c.912.403 1.468.125 1.825-.804l-.377-.963-3.546-6.142s-.54-.564-1.334-.267c-.794.298-.603 1.063-.603 1.063Zm2.329 4.343 1.234-.713c.214-.124.221-.235.113-.423l-.387-.67c-.248-.43-.417-.475-.846-.227l-.966.557c-.161.093-.516.656-.245 1.125.256.443.936.444 1.097.35Z" clip-rule="evenodd"/><path fill="#474747" stroke="#333" stroke-width="0.572369" d="m30.86 61.738-.53-.981 1.059-4.796c.079-.318.163-.48.4-.732l25.673-15.001.496.858.482-.278.372.643-9.174 5.297c-.053.03-.84 1.022-.406 2.022l.186.322-8.87 5.265-.54 2.1z"/><ellipse cx="104.03" cy="14.5215" fill="#363636" rx="0.712389" ry="0.712373" transform="rotate(-30 104.03 14.521)"/><path fill="#383838" d="m51.95 55.327.26.338.636-.393c3.489 4.31 6.899 6.91 11.123 8.737 2.634 1.14 5.562 2.26 9.532 2.758.368.074.427-.376.14-.439-3.551-.453-6.246-1.413-8.677-2.393-4.284-1.984-7.957-4.49-11.663-8.945l4.213-2.607c2.377 2.643 4.447 4.059 6.785 5.57a29.7 29.7 0 0 0 9.793 3.394c.433.07.56-.517.228-.596-3.842-.916-6.715-1.75-9.192-3.098-2.434-1.325-4.93-3.525-7.371-6.024z"/><path fill="#3D3D3D" d="M57.676 51.682c.122.114.281.19.442.15l1.47-.921c.135-.105.129-.303.062-.486z"/><path fill="#775426" stroke="#4D3719" stroke-width="1.14474" d="m63.17 41.44 4.774-2.757-.03-.054 1.77-1.022.37.144 3.7-2.137.06-.392 2.361-1.363.37.145 3.326-1.92.06-.393 1.609-.93 2.254 4.028c.062.108-.286.559-.581.73-4.404 2.798-6.889 4.298-11.422 6.915 0 0-1.562 1.26-2.164 2.013a11 11 0 0 0-.304.414c-.367.513-.872 1.219-1.322 1.478-.697.403-1.102.428-1.765.411zm3.61-7.377 12.661-7.06 1.92 3.433-1.616.933-.4-.198-3.327 1.92-.028.446-2.36 1.363-.401-.198-3.702 2.137-.029.446-.644.372z"/><path fill="#505050" d="m63.315 35.562.539-.31-.124-.216 1.02-.588c.24-.14.68 0 .803.215l.326.564-6.948 4.01.14-.438 2.165-1.392.097-.7 1.021-.59c-.056-.26.042-.525.264-.653s.501-.08.697.098"/><path fill="#484848" d="m61.33 36.707-4.05 2.339-.187-.322-.702.084.595.907.223.015 4.024-2.323z"/><path fill="#424242" d="M59.312 38.23a.62.62 0 1 1-1.073.619.62.62 0 0 1 1.073-.62"/><path stroke="#333" stroke-width="0.572369" d="m58.963 39.13-.035.108 6.947-4.01-.325-.564c-.124-.215-.562-.355-.804-.216l-1.019.589.124.215-.539.31c-.196-.178-.475-.226-.697-.098-.222.129-.32.394-.264.654l-3.266 1.885a.62.62 0 0 0-.93.537l-.876.506-.186-.322-.702.084.595.907.223.015 1.198-.692a.62.62 0 0 0 .556.092Zm.43-.54 1.84-1.183-1.842 1.063q.006.06.002.12Z" clip-rule="evenodd"/><path fill="#484848" d="M63.346 36.044c.137.237.115.505-.048.6-.163.093-.406-.023-.542-.26-.137-.237-.116-.505.047-.6.163-.093.406.023.543.26"/><path stroke="#333" stroke-width="0.572369" d="M77.699 61.71c-4.811-.236-8.534-1.438-11.926-2.998-3.153-1.45-5.888-3.646-8.618-6.7l2.222-1.415c2.768 3.428 5.46 5.3 8.308 6.654 2.802 1.33 5.776 2.137 10.145 2.332z"/><path stroke="#333" stroke-width="1.14474" d="M51.952 55.328c3.277 4.31 6.35 6.916 9.971 8.83 4.025 2.129 8.302 3.934 15.36 4.08l.534-8.677c-4.37-.196-7.343-1.002-10.145-2.333-2.843-1.35-5.529-3.218-8.29-6.633z"/><path stroke="#333" stroke-width="1.14474" d="M65.93 35.196 57.4 40.12l.063.107-25.674 15.001c-.237.252-.32.413-.4.732l-1.058 4.795.394.73-.54.32 3.93 4.884 14.064-8.96.929.053 2.073-1.303.07-.706 14.032-8.939-2.865-4.962 5.526-3.19zM40.156 55.888l9.822-5.83L60.33 44.08l-1.518-2.629-9.174 5.297c-.054.03-.84 1.021-.406 2.022l.186.322-8.87 5.264z" clip-rule="evenodd"/><path fill="#404040" d="m40.401 56.765.924-2.179 10.471-3.792.432 1.18-.916.458.086.273-2.16 1.462-9.534 6.38q-.09.07-.19.128a1.734 1.734 0 1 1-1.38-3.159z"/><path fill="#474747" d="m45.573 55.997.385.17 3.91-2.579-.807-1.214-7.28 2.63-1.185 2.221-2.314.83c-.091.022-.153.058-.226.1a1.177 1.177 0 1 0 1.299 1.958z"/><ellipse cx="38.6456" cy="59.1739" fill="#4D4D4D" rx="0.867256" ry="0.867237" transform="rotate(-30 38.646 59.174)"/><path fill="#4D4D4D" d="m51.559 52.92-.197-.28L49.07 54l.278.233z"/><ellipse cx="50.2662" cy="52.537" fill="#3B3B3B" rx="0.247787" ry="0.247782" transform="rotate(-30 50.266 52.537)"/><path fill="#4D4D4D" d="M65.865 36.193a.65.65 0 1 0-1.066-.733l-1.214 2.235-.339-.09-.553.963.24.29c.255.318.524.413.973.261z"/><path fill="#424242" d="M65.878 35.476a.588.588 0 1 1-1.02.588.588.588 0 0 1 1.02-.588"/><path fill="#575757" d="m62.95 38.88.634-1.185-.338-.091-.553.963.24.29z"/><path stroke="#333" stroke-width="0.572369" d="M65.865 36.193a.65.65 0 1 0-1.066-.733l-1.214 2.235-.339-.09-.553.963.24.29c.255.318.524.413.973.261z"/><path stroke="#333" stroke-width="1.14474" d="m102.242 13.157.743 5.437 1.146 1.985.412.155.824-.368.91-.096c.912.403 1.468.125 1.825-.804l-.377-.963-3.546-6.142s-.54-.564-1.334-.267c-.794.298-.603 1.063-.603 1.063Z"/><path stroke="#333" stroke-width="0.572369" d="m82.543 26.247 4.962-2.865 1.425 2.468-4.962 2.865zM41.325 54.586l-.924 2.178-2.268.752a1.735 1.735 0 1 0 1.57 3.031l9.534-6.38.017-.012.093.078 2.21-1.313-.166-.236-.08-.252.917-.457-.432-1.181z"/></g><defs><clipPath id="a"><path fill="#fff" d="M0 0h110v110H0z"/></clipPath></defs></svg>