<svg xmlns="http://www.w3.org/2000/svg" width="110" height="110" fill="none" viewBox="0 0 110 110"><g clip-path="url(#a)" transform="translate(-1.64 .172)scale(1.02279)"><path fill="#413e35" stroke="#38362e" stroke-width="0.529113" d="M48.166 65.43c-1.042-.76-1.302-1.394-.846-3.043l-1.21.637c.13 1.5.492 2.374 1.926 2.925.33.126.527-.229.13-.518z"/><path fill="#49463b" stroke="#38362e" stroke-linecap="round" stroke-width="0.529113" d="m85.042 24.684-.642.37 1.42 2.46.642-.371z"/><path fill="#434137" stroke="#38362e" stroke-linecap="square" stroke-width="1.05823" d="M107.741 17.195a.397.397 0 0 0-.542-.145l-5.793 3.347-.194.572-.485.28-.533.052-14.864 8.582 1.05 1.819 14.864-8.582.316-.428.485-.28.588.11 5.794-3.345a.397.397 0 0 0 .146-.543z"/><path fill="#555145" stroke="#38362e" stroke-linecap="round" stroke-width="0.529113" d="m87.345 26.495-2.769 1.599a.25.25 0 0 0-.09.339l1.862 3.225c.068.119.22.16.338.09l2.769-1.598a.25.25 0 0 0 .09-.338l-1.862-3.226a.25.25 0 0 0-.338-.09Z"/><path fill="#847648" stroke="#433b23" stroke-linecap="round" stroke-width="0.529113" d="m83.534 27.37-1.506.869a.47.47 0 0 0-.173.644l2.552 4.421c.13.226.42.303.645.173l1.506-.87a.47.47 0 0 0 .173-.644l-2.553-4.421a.47.47 0 0 0-.644-.173z"/><path fill="#70643d" stroke="#423b24" stroke-linecap="round" stroke-width="0.529113" d="m30.324 50.27-.502-.868 1.15-.663.972.596 1.209 2.093 2.965-1.297 1.394 1.943-4.61 2.662zm41.619-24.028-.502-.868 1.15-.663.972.596 1.209 2.093 2.965-1.297 1.56 2.235-4.686 2.526z"/><path fill="#776a40" d="m62.929 47.467 23.249-13.423.392 3.277-22.125 12.774z"/><path fill="#7e7044" stroke="#433b23" stroke-width="0.529113" d="m34.595 57.36 20.722-11.964c5.665-.555 6.935.368 7.72 1.684l1.734 3.317-4.313 4.52-2.99 1.726-6.914 1.784-5.895 3.582-2.125 3.062-3.864-.652-3.817 1.029-1.216-1.188 2.388-1.834z"/><path fill="#74673e" stroke="#433b23" stroke-width="0.529113" d="M81.372 28.24 29.557 58.157l-1.212 1.167 3.802 6.237 3.819-2.204c.44-.255.821-.533.723-1.383l-.102.035a.31.31 0 0 1-.393-.19l-1.088-3.135a.31.31 0 0 1 .191-.393l.172-.06c-.083-.477-.019-.884.385-1.118L54.95 46.088c2.227-1.286 7.424-.09 8.335 1.488l23.766-13.721Z"/><path fill="#847648" stroke="#433b23" stroke-linecap="round" stroke-width="0.529113" d="m29.034 58.267-.163-1.537 51.056-29.796 1.33 1.237"/><path fill="#49463b" d="M52.82 58.396c2.761 3.68 5.359 5.912 8.426 7.56 3.408 1.83 7.032 3.388 13.03 3.55l.5-7.37c-3.711-.19-6.234-.892-8.608-2.039-2.407-1.163-4.68-2.765-7.008-5.682Z"/><path fill="#46433a" stroke="#413e35" stroke-width="0.529113" d="M74.627 64.244c-4.087-.227-7.09-1.336-9.965-2.68-2.671-1.25-4.984-3.13-7.287-5.741l1.897-1.19c2.333 2.928 4.61 4.534 7.022 5.7 2.374 1.146 4.765 1.617 8.477 1.807z"/><path stroke="#38362e" stroke-width="1.05823" d="M52.822 58.395c2.76 3.681 5.358 5.913 8.425 7.56 3.408 1.83 7.032 3.389 13.03 3.551l.5-7.37c-3.71-.191-6.234-.893-8.608-2.04-2.13-1.028-4.154-2.4-6.204-4.723-.934-1.097-.612-1.079-1.899-.271Z"/><path fill="#6b5f38" fill-rule="evenodd" stroke="#433b23" stroke-width="0.529113" d="m34.599 64.146-2.445 1.41 1.042 1.804 4.68-.866c.344-.027 1.209.954 1.202 1.46l-.107 10.751.293.508c-.199.136-.24.24-.16.502l6.64-1.131c.18-.036.576-.307.796-.586.086-.108-.083-.378-.27-.502-.061-.04-.184-.038-.292-.036-.098.001-.184.003-.201-.027l-.291-.505-.44-4.242c0-.75.19-1.304.698-1.597.158-.092.171-.2.017-.29-.828-.48-1.003-.826-.99-1.533l-.024-1.973c.022-.22.39-.478.693-.37.918.33 1.647.591 2.525.458.683-.104 3.296-1.587 3.296-1.587.39.153.61.212 1.113.197.329-.01.933-.26 1.26-.547.789-.69 1.378-1.505 1.516-2.028l-.16-.276c.393-.23.375-.36.262-.556l-.912-1.58 3.632-2.424 2.964-2.835-.585-1.014s-.173-1.392-2.315-.78c-2.01.574-4.733 2.17-7.226 3.632q-.7.411-1.367.797c-1.582.914-4.966 2.889-4.966 2.889-.496.288-.825.926-1.14 1.54-.42.814-.817 1.584-1.554 1.43a25 25 0 0 1-.812-.202c-1.463-.381-2.598-.677-5.137.496-.481.2-.944.121-1.235-.388zm10.182 1.557c-.008.12.165.501.266.539 1.356.505 2.881.57 3.807.036l2.9-1.674c.435-.35.533-.892.464-1.125-.2-.667-.382-.927-.872-1.51-.446-.531-1.232-.675-1.58-.563-.771.248-1.366.53-1.913.79-.586.276-1.297.626-1.894.971-.15.087-.362.076-.55.068-.148-.008-.28-.014-.356.029-.197.11-.312.352-.308.675z" clip-rule="evenodd"/><path fill="#5e5331" stroke="#3d3829" stroke-width="1.05823" d="m14.087 70.553-8.71 5.028.77 1.331-1.12.647 2.723 1.627 8.49-4.902z"/><path fill="#6b5f38" d="M12.938 70.195 27.53 61.77l.815-2.447 2.287 3.453 2.626 4.548-10.537 4.927-6.985 2.79-1.587-2.748z"/><path stroke="#3d3829" stroke-width="1.05823" d="M12.938 70.195 27.53 61.77l.615-2.256.2-.19 4.862 8.005-10.486 4.922-6.985 2.79-1.587-2.748z"/><path fill="#434037" stroke="#38362e" stroke-linecap="round" stroke-width="0.529273" d="m8.443 80.583 2.413-1.028c-.387 1.058.462 1.848 1.11 2.75l-1.734 1.002z"/><path fill="#645935" d="m4.85 74.686-2.641 1.525 4.684 8.113 4.36 5.275 1.195.733.671-.387.019-1.16-2.837-5.807-2.621-4.54-1.43-1.584-.112.064Z"/><path fill="#413e35" d="M41.468 62.77a1.219 1.219 0 1 1 .457-2.394 1.219 1.219 0 0 1-.457 2.394"/><path fill="#49463c" d="M40.974 63.191a.408.408 0 0 0 .8.153l.24-1.246a.407.407 0 1 0-.801-.153z"/><path fill="#46422f" d="M64.654 47.125a.609.609 0 1 0 .609 1.055.609.609 0 0 0-.609-1.055"/><path fill="#3d3929" d="M33.407 61.545a.703.703 0 1 0 .703 1.217.703.703 0 0 0-.703-1.217"/><path fill="#5e5331" d="M8.724 85.523a.548.548 0 1 0-.548-.95.548.548 0 0 0 .548.95"/><path fill="#46422f" d="M42.289 77.547a.685.685 0 1 0 .684 1.187.685.685 0 0 0-.684-1.187m8.4-17.779a.685.685 0 1 0 .685 1.186.685.685 0 0 0-.685-1.186"/><path fill="#413e35" d="M60.541 47.72a.31.31 0 0 0-.113.422l.937 1.622a.31.31 0 0 0 .422.113l.226-.13a.31.31 0 0 0 .113-.423l-.936-1.622a.31.31 0 0 0-.422-.113Zm-2.431-.708a.31.31 0 0 0-.19.394l1.087 3.134a.31.31 0 0 0 .394.19l.212-.073a.31.31 0 0 0 .19-.394l-1.087-3.134a.31.31 0 0 0-.393-.19zM38.014 54.13a.32.32 0 0 1 .26-.045.32.32 0 0 1 .202.17l.091.158q.03.043.042.087a.31.31 0 0 1-.166.374l-1.856 1.072a.31.31 0 0 1-.405-.044.3.3 0 0 1-.055-.08l-.091-.159a.31.31 0 0 1 .124-.461z"/><path fill="#3b3b3b" d="M49.776 57.94a.32.32 0 0 1 .261-.045.32.32 0 0 1 .2.168l.29.5q.03.043.042.087a.31.31 0 0 1-.166.375l-.814.47a.31.31 0 0 1-.461-.123l-.29-.502a.31.31 0 0 1 .124-.461z"/><path fill="#413e35" d="m54.31 47.92-.148.084.635 1.1a.35.35 0 0 1-.128.477l-6.385 3.686a.35.35 0 0 1-.477-.128l-.635-1.099-6.233 3.599-.448-.776 13.37-7.72a.31.31 0 0 1 .153-.31l.177-.103a.31.31 0 0 1 .346.024l.462-.267.447.776-.461.267a.31.31 0 0 1-.153.311l-.176.102a.31.31 0 0 1-.347-.023"/><path fill="#71643c" d="m47.16 58.753 1.002-.579.02-.01.276-.16.02-.012 1.001-.578a.34.34 0 0 0 .124-.462l-.157-.273a.34.34 0 0 0-.463-.124l-.725.42-.511-.885a.34.34 0 0 0-.466-.125l-.276.16a.34.34 0 0 0-.125.465l.51.885-.726.42a.34.34 0 0 0-.124.462l.157.272c.094.162.3.218.462.124"/><path fill="#74673e" d="M40.44 70.065a.94.94 0 0 1 .886-.97l1.312-.089c.524-.035.942.38.978.885l.406 5.775c.037.535-.394.903-.873.977l-1.58.243c-.535.082-.98-.385-.991-.89z"/><path stroke="#3d3829" stroke-linecap="round" stroke-width="1.05855" d="m2.309 76.001 2.449-1.138 2.87 3.407 4.151 7.861c2.346 4.063 1.038 4.987-.617 3.246C7.65 85.36 4.622 80.913 2.309 76Z"/><path stroke="#433b23" stroke-width="1.05823" d="M81.371 28.24 29.557 58.157l-1.213 1.167 3.847 6.3 1.003 1.736 4.679-.866c.344-.027 1.21.954 1.203 1.46l-.108 10.751.294.508c-.2.136-.24.24-.16.502l6.64-1.131c.18-.035.575-.307.796-.586.085-.108-.083-.378-.27-.502-.062-.04-.185-.038-.293-.036-.098.001-.183.003-.2-.027l-.292-.505-.44-4.242c.001-.75.19-1.304.699-1.598.158-.09.171-.199.016-.288-.828-.48-1.003-.827-.989-1.534l-.024-1.973c.021-.22.39-.478.693-.37.918.33 1.646.591 2.525.458.682-.104 3.295-1.587 3.295-1.587.391.153.61.212 1.114.197.329-.01.933-.26 1.26-.547.788-.69 1.377-1.505 1.516-2.028l-.16-.276c.393-.23.375-.36.262-.556l-.912-1.58 3.632-2.424 2.964-2.835-.477-.827 4.313-4.52-.197-.377 21.995-12.7-.357-2.981.839-.484z"/><path fill="#413e35" d="M35.298 58.29a.31.31 0 0 0-.19.394l1.087 3.134a.31.31 0 0 0 .393.19l.213-.073a.31.31 0 0 0 .19-.393l-1.087-3.134a.31.31 0 0 0-.393-.191Z"/><path fill="#71643c" d="M44.319 53.69a.53.53 0 0 0 .055.394l.054.093 1.882-.934.268.465-1.75 1.163.054.094a.53.53 0 0 0 .723.193l2.093-1.208a.53.53 0 0 0 .205-.703.4.4 0 0 1-.095-.106l-.635-1.1z"/><path fill="#847648" stroke="#433b23" stroke-width="0.529113" d="m65.975 39.903 17.17-9.913 2.25 2.225L67.5 42.546a.397.397 0 0 1-.542-.145l-1.129-1.956a.397.397 0 0 1 .146-.542z"/><path fill="#46422f" d="M72.51 37.342a.477.477 0 1 0 .478.826.477.477 0 0 0-.477-.826m3.965-2.29a.477.477 0 1 0 .477.826.477.477 0 0 0-.477-.827m3.967-2.29a.477.477 0 1 0 .477.827.477.477 0 0 0-.478-.827"/></g><defs><clipPath id="a"><path fill="#fff" d="M.086 0h110v110h-110z"/></clipPath></defs></svg>