<svg xmlns="http://www.w3.org/2000/svg" width="110" height="110" fill="none" viewBox="0 0 110 110"><g clip-path="url(#a)"><path fill="#55554D" stroke="#363630" stroke-linecap="round" stroke-miterlimit="3.99393" stroke-width="1.40303" d="m85.479 33.979-1.092.63 1.089 1.887 1.092-.63z"/><path fill="#55554D" stroke="#363630" stroke-linecap="round" stroke-miterlimit="3.99393" stroke-width="1.40303" d="m83.166 35.316 2.307-1.332s1.014-.596.08-2.16c-.936-1.564-4.608 1.492-4.608 1.492z"/><path fill="#464640" stroke="#353530" stroke-linecap="round" stroke-miterlimit="3.99393" stroke-width="1.40303" d="m74.865 28.724-.669-.837a.65.65 0 0 1 .114-.908l.766-.612a.9.9 0 0 1 .46-.192l4.19-.472a.77.77 0 0 1 .857.665l.18 1.425z"/><path fill="#55554D" stroke="#363630" stroke-linecap="round" stroke-miterlimit="3.99393" stroke-width="1.40303" d="M83.165 35.316s-2.077 1.404-3.48 2.318c.36-.257.581-.383.581-.383l-.728-1.262-17.102 9.876a2.433 2.433 0 0 1-3.323-.89l-2.468-4.276-16.35 9.44c-1.265-.063-3.452-.045-4.713.683L74.44 28.388l6.237-.93s1.397 1.864-.15 2.043a.267.267 0 0 0-.197.415c.64.926 2.168 3.252 2.758 5.127q.045.139.077.273Z"/><path fill="#4B4B44" stroke="#363630" stroke-miterlimit="3.99393" stroke-width="0.701513" d="m63.847 47.494 1.14-.658c.029.946.34 2.124 1.413 3.194a.26.26 0 0 1 .066.252.25.25 0 0 1-.116.148l-2.515 1.451a4 4 0 0 1-.133-.227c-.041-.075-.061-.118-.061-.118-1.302-2.254.006-3.83.17-4.013a.1.1 0 0 1 .036-.029Z"/><path fill="#4B4B44" stroke="#363630" stroke-linecap="round" stroke-miterlimit="3.99393" stroke-width="1.40303" d="m88.148 23.628-8.746 5.049 1.988 3.443 8.746-5.05z"/><path fill="#55554D" stroke="#363630" stroke-linecap="round" stroke-miterlimit="3.99393" stroke-width="1.40303" d="m29.2 76.114 2.9.493 2.581-5.702z"/><path fill="#484841" stroke="#363630" stroke-linecap="round" stroke-miterlimit="3.99393" stroke-width="1.40303" d="M35.578 73.697s8.643 10.527 10.452 11.78c0 0 .978.927 1.282 1.723.304.797 1.617.039 1.617.039l6.548-6.695s1.492-.511-.896-2.358-8.894-9.616-9.837-11.72l-3.1-.859-6.499 5.773z"/><path fill="#6E6E4A" stroke="#3D3D28" stroke-linecap="round" stroke-miterlimit="3.99393" stroke-width="1.40303" d="m83.355 37.722 4.727-2.729s2.64 5.37 4.272 6.91 2.578 4.465 2.578 4.465 1.262 2.041 2.014 2.27c.751.228-1.692 2.299-1.692 2.299s-3.218 2.52-4.364.535c-1.146-1.986-3.229-5.95-4.062-8.612s-3.207-3.98-3.207-3.98-1.33-.544-.266-1.158Z"/><path fill="#6E6E4A" d="M62.435 45.863a2.433 2.433 0 0 1-3.323-.89l-2.468-4.275L3.963 71.113c-4.832 2.79-.434 6.899-.434 6.899L20.27 94.524l7.359-4.248c2.153-1.244.18-2.57.18-2.57-2.545-.631-.804-3.52-.804-3.52s4.357-8.858 5.842-10.856c1.488-1.997 2.494.188 2.666.33s8.57-7.422 8.792-7.627 1.143-1.535.492-2.82c-.648-1.284.538-2.34.538-2.34s1.813-1.931 5.143-4.905c2.414-2.155 4.29-1.668 4.29-1.668s1.588.887 1.202 4.951c-.528 5.575 3.215 11.236 3.617 11.695s1.653-.171 6.81-3.057c5.157-2.884 5.512-6.16 5.512-6.16s1.25-7.351 2.043-14.346 6.313-10.133 6.313-10.133l-.729-1.262zm9.505 1.904-2.15 13.447c-.019.166.023 1.727-2.643 3.266-2.8 1.616-2.948-.621-2.948-.621s-.732-7.273-.903-8.887c-.15-1.417.482-1.733.64-1.79a1 1 0 0 0 .085-.038l.412-.238a.145.145 0 0 0 .03-.228c-.55-.55-.825-1.142-.825-1.142-1.302-2.253.05-3.95.245-4.064l4.46-2.575c.399-.23.867-.324 1.322-.245 2.933.513 2.31 2.982 2.276 3.115"/><path stroke="#3D3D28" stroke-linecap="round" stroke-miterlimit="3.99393" stroke-width="1.40303" d="M71.94 47.766v.001m0 0-2.15 13.447c-.019.166.023 1.727-2.643 3.266-2.8 1.616-2.948-.621-2.948-.621s-.732-7.273-.903-8.887c-.15-1.417.482-1.733.64-1.79a1 1 0 0 0 .085-.038l.412-.238a.145.145 0 0 0 .03-.228c-.55-.55-.825-1.142-.825-1.142-1.302-2.253.05-3.95.245-4.064l4.46-2.575c.399-.23.867-.324 1.322-.245 2.933.513 2.31 2.982 2.276 3.115Zm-9.505-1.904a2.433 2.433 0 0 1-3.323-.89l-2.468-4.275L3.963 71.113c-4.832 2.79-.434 6.899-.434 6.899L20.27 94.524l7.359-4.248c2.153-1.244.18-2.57.18-2.57-2.545-.631-.804-3.52-.804-3.52s4.357-8.858 5.842-10.856c1.488-1.997 2.494.188 2.666.33s8.57-7.422 8.792-7.627 1.143-1.535.492-2.82c-.648-1.284.538-2.34.538-2.34s1.813-1.931 5.143-4.905c2.414-2.155 4.29-1.668 4.29-1.668s1.588.887 1.202 4.951c-.528 5.575 3.215 11.236 3.617 11.695s1.653-.171 6.81-3.057c5.157-2.884 5.512-6.16 5.512-6.16s1.25-7.351 2.043-14.346 6.313-10.133 6.313-10.133l-.729-1.262z"/><path fill="#4F4F35" d="m2.19 76.281.35.608 24.48-14.133-.351-.608zm2.443 3.221.35.608 37.609-21.713-.351-.608z"/><path fill="#464640" stroke="#353530" stroke-linecap="round" stroke-miterlimit="3.99393" stroke-width="0.701513" d="m36.678 54.36-10.78 6.224a.463.463 0 0 0-.17.632l.813 1.41a.463.463 0 0 0 .633.17l10.78-6.225a.463.463 0 0 0 .17-.632l-.814-1.41a.463.463 0 0 0-.632-.17Zm34.467-19.313-9.057 5.229a1.505 1.505 0 0 0 1.506 2.608l9.057-5.23a1.506 1.506 0 0 0-1.506-2.607Z"/><path fill="#505049" stroke="#363630" stroke-linecap="round" stroke-miterlimit="3.99393" stroke-width="1.40303" d="m88.954 26.505-7.868 4.542 1.298 2.248 7.867-4.543z"/><path fill="#464640" stroke="#353530" stroke-linecap="round" stroke-miterlimit="3.99393" stroke-width="0.701513" d="m41.664 57.488 2.705-1.562.782 1.355a.87.87 0 0 1-.318 1.189l-1.233.712a.83.83 0 0 1-1.134-.304z"/><path fill="#46463F" stroke="#363630" stroke-linecap="round" stroke-miterlimit="3.99393" stroke-width="1.40303" d="m103.293 15.669-14.807 8.549 1.342 2.323 14.807-8.548z"/><path fill="#46463F" stroke="#363630" stroke-linecap="round" stroke-miterlimit="3.99393" stroke-width="1.40303" d="m100.175 16.837-.994.573a.293.293 0 0 0-.107.4l1.51 2.616c.081.14.26.188.4.107l.994-.574c.14-.08.188-.26.107-.4l-1.51-2.615a.293.293 0 0 0-.4-.107Zm5.954-3.437-3.814 2.201a.56.56 0 0 0-.204.762l1.245 2.157a.56.56 0 0 0 .762.204l3.814-2.202a.56.56 0 0 0 .204-.762l-1.245-2.157a.56.56 0 0 0-.762-.204Z"/><path fill="#97978C" stroke="#363630" stroke-linecap="round" stroke-miterlimit="3.99393" stroke-width="1.40303" d="m91.72 27.905-1.47.848-1.297-2.248 1.273-.735s.656-.085 1.177.819c.522.904.317 1.316.317 1.316Z"/><path fill="#464640" stroke="#353530" stroke-linecap="round" stroke-miterlimit="3.99393" stroke-width="1.40303" d="M1.754 73.376c-.077-.123-.157-.178-.173-.034-.105.956-.57 3.534 1.99 6.006 3.137 3.033 13.952 13.137 15.34 15.098.12.13.784.736 2.295-.136l.224-.13a.154.154 0 0 0 .028-.247C19.698 92.297 3.81 76.622 1.754 73.376Z"/><path fill="#464640" stroke="#353530" stroke-linecap="round" stroke-miterlimit="3.99393" stroke-width="0.701513" d="M71.59 28.877 34.772 50.134l.5.865L72.09 29.742z"/></g><defs><clipPath id="a"><path fill="#fff" d="M0 0h110v110H0z"/></clipPath></defs></svg>