<svg xmlns="http://www.w3.org/2000/svg" id="Layer_2" width="120.7" height="27.34" data-name="Layer 2" viewBox="0 0 120.7 27.34"><defs><style>.cls-2,.cls-4,.cls-5{stroke-miterlimit:12.06}.cls-4{stroke:#171717}.cls-2{stroke:#1d1d13;fill:#74744e;stroke-width:3px}.cls-4,.cls-5{stroke-width:3px;fill:#515151}.cls-5{stroke:#181818}.cls-7{fill:#2b2b2b}</style></defs><g id="Le_aug_an_saf" data-name="Le aug an saf"><g id="g184"><g id="g182"><g id="g872"><path id="path132" d="M92.6 9.51c-4.5.4-7.8 4.4-7.4 8.9s4.4 7.8 8.9 7.4 7.8-4.4 7.4-8.9-4.4-7.8-8.9-7.4Z" style="stroke-miterlimit:12.06;fill:#74744e;stroke-width:3px;stroke:#1c1c12"/><path id="path136" d="M85.37 15.51h-1.74c-1.16 0-2.13-.73-2.13-1.56V3.06c0-.83.97-1.56 2.13-1.56h1.74c1.16 0 2.13.73 2.13 1.56v10.89c0 .83-.97 1.56-2.13 1.56Z" class="cls-2"/><path id="path138" d="M73.41 25.51H5.92c-1.33 0-2.42-1.08-2.42-2.42V11.93c0-1.33 1.08-2.42 2.42-2.42H73.5c1.1 0 2 .9 2 2v11.86c0 1.02-.9 2.14-2.09 2.14Z" class="cls-2"/><path id="path140" d="M92.01 25.76 76.5 24.57V10.75l15.51-1.19 2.49 3.68v8.55z" class="cls-4"/><path id="path148" d="M10.5 25.51H3.02c-.71 0-1.52-.82-1.52-1.73V11.45c0-1.12.81-1.94 1.52-1.94h7.48z" class="cls-4"/><g id="g180"><path id="path156" d="M38 19.59v-3.38c0-.44.5-1.2 1.4-1.2h32.5c1.2 0 2.4.65 2.6 1.64.2.55.2 1.09.2 1.42s0 .87-.2 1.31c-.2.87-1.2 1.64-2.6 1.64H39.4c-.9 0-1.4-.55-1.4-1.42Z" style="fill:#434343;stroke-width:1.5px;stroke-miterlimit:12.06;stroke:#171717"/></g><path id="path144" d="M114.5 20.51h-20v-6h20z" class="cls-5"/><path id="path146" d="M118.5 21.51h-4.42a.58.58 0 0 1-.58-.58v-6.84c0-.32.26-.58.58-.58h4.42c.2 0 .69.67.69 4.1.1 3.15-.49 3.91-.69 3.91Z" class="cls-5"/></g></g></g></g><path id="rect19" d="M39.7 15.61h2.8v4.1h-2.8z" class="cls-7"/><path id="rect21" d="M65.8 15.61h2.8v4.1h-2.8z" class="cls-7"/><path id="rect23" d="M60.5 15.61h2.8v4.1h-2.8z" class="cls-7"/><path id="rect25" d="M55.3 15.61h2.8v4.1h-2.8z" class="cls-7"/><path id="rect27" d="M50.1 15.61h2.8v4.1h-2.8z" class="cls-7"/><path id="rect29" d="M44.9 15.61h2.8v4.1h-2.8z" class="cls-7"/><path id="rect31" d="M71 15.61h2.8v4.1H71z" class="cls-7"/><path id="path156-2" d="M38.2 19.11v-3.1c0-.4.5-1.1 1.4-1.1h32.5c1.2 0 2.4.6 2.6 1.5.2.5.2 1 .2 1.3s0 .8-.2 1.2c-.2.8-1.2 1.5-2.6 1.5H39.6c-.9 0-1.4-.5-1.4-1.3Z" style="stroke-miterlimit:12.06;stroke:#171717;stroke-width:3px;fill:none"/></svg>