<svg xmlns="http://www.w3.org/2000/svg" xml:space="preserve" width="59.092419" height="40.519176" viewBox="0 0 15.634869 10.720699"><g transform="translate(-16.404 -105.304)"><rect width="14.576537" height="9.6623688" x="16.933332" y="105.83333" ry="3.5674157" style="fill:#8a4c70;fill-opacity:1;stroke:#311b28;stroke-width:1.05833;stroke-linecap:round;stroke-linejoin:round;stroke-dasharray:none;stroke-opacity:1"/><circle cx="20.755806" cy="113.0006" r="1.3993504" style="fill:#693a55;fill-opacity:1;stroke:none;stroke-width:1.05833;stroke-linecap:round;stroke-linejoin:round;stroke-dasharray:none;stroke-opacity:1"/><circle cx="21.031462" cy="106.90337" r="1.0751107" style="fill:#693a55;fill-opacity:1;stroke:none;stroke-width:1.05833;stroke-linecap:round;stroke-linejoin:round;stroke-dasharray:none;stroke-opacity:1"/><circle cx="22.231951" cy="107.99194" r="1.3054916" style="fill:#693a55;fill-opacity:1;stroke:none;stroke-width:1.05833;stroke-linecap:round;stroke-linejoin:round;stroke-dasharray:none;stroke-opacity:1"/><circle cx="28.426636" cy="112.71902" r="1.0495127" style="fill:#693a55;fill-opacity:1;stroke:none;stroke-width:1.05833;stroke-linecap:round;stroke-linejoin:round;stroke-dasharray:none;stroke-opacity:1"/><path d="M18.901 106.553c2.406.803 3.822 3.162 5.887 4.489.617.397 1.09 1.254 1.627 1.683 1.092.874 2.274 1.09 3.664 1.438" style="fill:none;fill-opacity:1;stroke:#311b28;stroke-width:1.05833;stroke-linecap:round;stroke-linejoin:round;stroke-dasharray:none;stroke-opacity:1"/><circle cx="29.114307" cy="111.13417" r="1.508801" style="fill:#693a55;fill-opacity:1;stroke:none;stroke-width:1.05833;stroke-linecap:round;stroke-linejoin:round;stroke-dasharray:none;stroke-opacity:1"/><path d="M17.207 112.201c2.424.71 4.785-1.403 7.135-1.873 1.226-.245 2.395.5 3.627.09 1.22-.408 1.981-1.525 3.002-1.963" style="fill:none;fill-opacity:1;stroke:#311b28;stroke-width:1.05833;stroke-linecap:round;stroke-linejoin:round;stroke-dasharray:none;stroke-opacity:1"/><circle cx="23.648365" cy="107.3776" r="0.62288159" style="fill:#693a55;fill-opacity:1;stroke:none;stroke-width:1.05833;stroke-linecap:round;stroke-linejoin:round;stroke-dasharray:none;stroke-opacity:1"/><circle cx="24.723476" cy="114.06718" r="1.4249482" style="fill:#693a55;fill-opacity:1;stroke:none;stroke-width:1.05833;stroke-linecap:round;stroke-linejoin:round;stroke-dasharray:none;stroke-opacity:1"/><path d="M26.066 105.928c-1.284 3.062-3.095 5.46-2.795 9.068" style="fill:none;fill-opacity:1;stroke:#311b28;stroke-width:1.05833;stroke-linecap:round;stroke-linejoin:round;stroke-dasharray:none;stroke-opacity:1"/><path d="M19.682 108.736h5.327v4.384h-5.327z" style="fill:#707276;fill-rule:evenodd;stroke:#252627;stroke-width:1.05833;stroke-linecap:round;stroke-linejoin:round;paint-order:fill markers stroke"/><circle cx="26.284948" cy="114.51941" r="0.71674049" style="fill:#693a55;fill-opacity:1;stroke:none;stroke-width:1.05833;stroke-linecap:round;stroke-linejoin:round;stroke-dasharray:none;stroke-opacity:1"/><path d="M20.466 111.244h1.155v1.13h-1.155z" style="fill:#92393e;fill-rule:evenodd;stroke-width:.529167;stroke-linejoin:round;paint-order:fill markers stroke"/><path d="M21.94 111.244h1.156v1.13H21.94z" style="fill:#619239;fill-opacity:1;fill-rule:evenodd;stroke-width:.529167;stroke-linejoin:round;paint-order:fill markers stroke"/><path d="M23.325 109.493h.945v2.882h-.945z" style="fill:#397592;fill-rule:evenodd;stroke-width:.529167;stroke-linejoin:round;paint-order:fill markers stroke"/><g style="stroke-width:1.77016"><path d="M19.195 98.95h.778v.779h-.778zm0 1.208h.778v.778h-.778zm1.358-1.208h.778v.779h-.778zm0 1.208h.778v.778h-.778zm1.357-1.208h.778v.779h-.778zm0 1.208h.778v.778h-.778zm1.358-1.208h.778v.779h-.778zm0 1.208h.778v.778h-.778z" style="fill:#3e3f41;fill-rule:evenodd;stroke-width:.936715;stroke-linecap:round;stroke-linejoin:round;paint-order:fill markers stroke" transform="matrix(.54079 0 0 .59013 10.085 51.1)"/></g><rect width="1.9570332" height="1.1894989" x="26.730375" y="107.33148" rx="0.59474945" ry="0.59474945" style="fill:#868484;fill-opacity:1;fill-rule:evenodd;stroke:#272727;stroke-width:.529167;stroke-linecap:round;stroke-linejoin:round;stroke-dasharray:none;stroke-opacity:1"/><rect width="14.576537" height="9.6623688" x="16.933331" y="105.83333" ry="3.5674157" style="fill:none;fill-opacity:1;stroke:#311b28;stroke-width:1.05833;stroke-linecap:round;stroke-linejoin:round;stroke-dasharray:none;stroke-opacity:1"/></g></svg>