<svg xmlns="http://www.w3.org/2000/svg" width="110" height="110" fill="none" viewBox="0 0 110 110"><g clip-path="url(#a)" transform="translate(-1.13 .712)scale(1.02043)"><path fill="#4d4d4d" d="m88.24 26.294 19.978-11.535-.934-1.618-70.512 40.71s-1.022 1.511-1.3 2.544c-.279 1.033-.09 1.36-.09 1.36z"/><path fill="#404040" stroke="#333" stroke-width="0.503386" d="m106.897 15.523-.934-1.619 1.323-.763.934 1.618z"/><path fill="#787777" stroke="#333" stroke-miterlimit="3.99393" stroke-width="0.503386" d="M42.121 61.598c-.528-.914-.567-1.936-.567-1.936l-.152-.26 1.668-.726s-.869 1.546-.485 2.37c.231.497.639.85.925 1.05.099.07.065.225-.056.221-.393-.013-.996-.135-1.333-.719z"/><path fill="#4d4d4d" d="m39.77 60.305-.698 1.066s.938.104 1.378.867c.44.762 1.868 2.228 3.217 1.45l1.817-1.05c1.645-.95 1.023-3.035.65-3.682l-.32-.552c-.244-.424-.152-.86.193-1.562zm5.363 1.724-1.818 1.05s-1.162.671-2.243-1.2c-.63-1.09.54-1.765.54-1.765l2.058-1.188s1.178-.68 1.807.41c1.08 1.871-.344 2.694-.344 2.694"/><path stroke="#333" stroke-miterlimit="3.99393" stroke-width="0.503386" d="m43.316 63.08 1.818-1.05s1.424-.822.343-2.693c-.629-1.09-1.806-.41-1.806-.41l-2.059 1.188s-1.169.675-.54 1.765c1.081 1.871 2.244 1.2 2.244 1.2z"/><path stroke="#333" stroke-miterlimit="3.99393" stroke-width="1.00677" d="m39.072 61.37.698-1.065 6.237-3.463c-.345.701-.437 1.138-.192 1.562l.319.553c.373.646.996 2.731-.65 3.68l-1.817 1.05c-1.349.779-2.776-.686-3.216-1.45-.441-.762-1.38-.866-1.38-.866zM88.24 26.294l19.978-11.535-.934-1.618-70.512 40.71s-1.022 1.511-1.3 2.544c-.279 1.033-.09 1.36-.09 1.36z"/><path fill="#404040" stroke="#333" stroke-miterlimit="3.99393" stroke-width="0.503386" d="m39.35 54.817-1.063-1.84-1.515.874s-1.022 1.511-1.3 2.544c-.279 1.032-.09 1.36-.09 1.36l.974-.58z"/><path fill="#874b2e" d="M29.817 64.018c1.829-.62 3.943-5.037 3.943-5.037s1.215-1.429 2.103-2.668c.697-.973 2.179-1.84 2.179-1.84l1.67-.963 1.283 2.223c.09.157.291.21.448.12l.673-.39a.41.41 0 0 0 .15-.557l-1.243-2.153 45.204-26.099c1.203-.694 2.27.143 2.27.143s1.254 1.165-1.37 2.68c-2.623 1.514-5.012 3.184-5.012 3.184S45.225 57.883 39.54 61.165s-2.28 11.199-2.28 11.199c-1.015 1.02-5.457 1.406-5.457 1.406s-1.282.304-1.47-.023c-.19-.327-.752-.293-.752-.293-.954.115-2.17 1.544-2.17 1.544L11.068 92.135c-1.444-1.491-8.097-12.763-8.097-12.763 6.892-6.969 12.673-10.049 16.82-12.257.892-.476 1.708-.91 2.444-1.335 4.154-2.399 5.03-1.65 5.03-1.65s.723.508 2.552-.112"/><path fill="#404040" stroke="#333" stroke-miterlimit="3.99393" stroke-width="0.503386" d="m74.538 29.617-.264.249.656.696-.603.349a.24.24 0 0 0-.113.246c.04.288-.169.662-.324.895-.103.156.008.366.193.36 0 0 .128.019.322-.094l2.64-1.523c.243-.14.317-.427-.095-.454a1.3 1.3 0 0 1-.752-.33.23.23 0 0 0-.267-.026l-.677.39z"/><path fill="#666" d="M43.77 50.36c.35.604.833.325.833.325l-3.582 2.068-.336-.583c-.092-.159-.333-.17-.498-.074l.102-.612 3.098-1.788zm7.448-4.85c.587 1.017-.306 1.533-.306 1.533l6.451-3.725-.732-1.269-5.558 3.21z"/><path stroke="#333" stroke-miterlimit="3.99393" stroke-width="0.503386" d="M43.77 50.36c.35.604.833.325.833.325l-3.582 2.068-.336-.583c-.092-.159-.333-.17-.498-.074l.102-.612 3.098-1.788zm7.448-4.85c.587 1.017-.306 1.533-.306 1.533l6.451-3.725-.732-1.269-5.558 3.21z"/><path fill="#404040" d="m41.775 51.156-.765.442.692 1.198.765-.441z"/><path fill="#4d4d4d" stroke="#333" stroke-miterlimit="3.99393" stroke-width="0.503386" d="M54.38 44.677a.252.252 0 1 0-.251-.437.252.252 0 0 0 .252.437z"/><path fill="#404040" d="M103.614 12.104a.2.2 0 0 0-.22-.01l-.158.091.063.11-2.514 1.451-.063-.109-.374.216a.127.127 0 0 0-.013.212c.32.246.515.513.627.702a.42.42 0 0 1-.026.465c-.326.428-1.167 1.424-2.424 2.15-1.64.946-1.12 1.47-1.12 1.47l8.146-4.703-.231-.4c-.597-.828-1.404-1.441-1.692-1.647zm-2.125 2.107 1.846-1.065.547.665s-1.826 1.381-2.393.4"/><path fill="#bc3e3c" stroke="#4e1918" stroke-miterlimit="3.99393" stroke-width="0.503386" d="m103.8 13.71.083.101s-1.22.923-1.975.724l-.107-.159z"/><path fill="#424242" stroke="#333" stroke-miterlimit="3.99393" stroke-width="1.00677" d="m11.066 92.135-1.544 1.618s-3.02-5.231-4.56-7.394c-1.54-2.162-3.763-5.002-3.284-5.688l1.29-1.299z"/><path fill="#723f27" stroke="#4c2a1a" stroke-miterlimit="3.99393" stroke-width="0.503386" d="M26.235 65.622c-.45.474-1.745 2.153-.172 4.465 0 0 1 .931 2.885-.391 0 0 .515-.386 1.278-2.008s.77-1.88.77-1.88.306-1.427-.832-.882c-1.095.525-2.135.894-3.614.599a.34.34 0 0 0-.315.097zm4.094 7.11s.329-9.78 6.189-12.001c0 0 .782-.161-.15 2.266-.93 2.426-1.69 4.899-.378 8.937 0 0-4.813 1.762-5.661.798z"/><path fill="#4d4d4d" stroke="#333" stroke-miterlimit="3.99393" stroke-width="0.503386" d="M44.986 54.824a.945.945 0 0 0 .348-1.291.945.945 0 0 0-1.291-.344.945.945 0 0 0-.348 1.29.945.945 0 0 0 1.291.345z"/><path stroke="#333" stroke-miterlimit="3.99393" stroke-width="0.503386" d="M103.614 12.104a.2.2 0 0 0-.22-.01l-.158.091.063.11-2.514 1.451-.063-.109-.374.216a.127.127 0 0 0-.013.212c.32.246.515.513.627.702a.42.42 0 0 1-.026.465c-.326.428-1.167 1.424-2.424 2.15-1.64.946-1.12 1.47-1.12 1.47l8.146-4.703-.231-.4c-.597-.828-1.406-1.44-1.693-1.645zm-2.125 2.107 1.846-1.065.547.665s-1.826 1.381-2.393.4z"/><path fill="#723f27" stroke="#4c2a1a" stroke-miterlimit="3.99393" stroke-width="0.503386" d="m74.142 34.504-23.66 13.805s-1.45 1.128-2.057 2.496c-.556 1.254-1.068 2.312-.559 3.53a.306.306 0 0 0 .453.138l26.314-17.637s.905-.586.902-1.457c-.003-1.015-.19-1.57-1.393-.875zm10.377-3.437a70 70 0 0 1 2.608-1.59c2.623-1.515 1.368-2.68 1.368-2.68s-1.066-.837-2.269-.142l-1.126.65z"/><path fill="#404040" d="m39.709 53.51 1.312-.757 1.243 2.154a.41.41 0 0 1-.15.558l-.673.388a.33.33 0 0 1-.448-.119z"/><path stroke="#4c2a1a" stroke-miterlimit="3.99393" stroke-width="1.00677" d="M29.817 64.018c1.829-.62 3.943-5.037 3.943-5.037s1.215-1.429 2.103-2.668c.697-.973 2.179-1.84 2.179-1.84l1.67-.963 1.283 2.223c.09.157.291.21.448.12l.673-.39a.41.41 0 0 0 .15-.557l-1.243-2.153 45.204-26.099c1.203-.694 2.27.143 2.27.143s1.254 1.165-1.37 2.68c-2.623 1.514-5.012 3.184-5.012 3.184S45.225 57.883 39.54 61.165s-2.28 11.199-2.28 11.199c-1.015 1.02-5.457 1.406-5.457 1.406s-1.282.304-1.47-.023c-.19-.327-.752-.293-.752-.293-.954.115-2.17 1.544-2.17 1.544L11.068 92.135c-1.444-1.491-8.097-12.763-8.097-12.763 6.892-6.969 12.673-10.049 16.82-12.257.892-.476 1.708-.91 2.444-1.335 4.154-2.399 5.03-1.65 5.03-1.65s.723.508 2.552-.112z"/><path fill="#474747" stroke="#333" stroke-miterlimit="3.99393" stroke-width="0.503386" d="m40.695 52.652-.91.525 2.832 4.904.91-.525z"/><path fill="#a3694c" stroke="#4c2a1a" stroke-miterlimit="3.99393" stroke-width="1.00677" d="M43.827 59.126a1.323 1.323 0 0 0 .487-1.807 1.323 1.323 0 0 0-1.809-.482 1.323 1.323 0 0 0-.487 1.807 1.323 1.323 0 0 0 1.809.482z"/></g><defs><clipPath id="a"><path fill="#fff" d="M0 0h110v110H0z"/></clipPath></defs></svg>