<svg xmlns="http://www.w3.org/2000/svg" id="Layer_2" width="143.0327" height="25.50782" data-name="Layer 2" version="1.1" viewBox="0 0 143.0327 25.50782"><defs id="defs1"><style id="style1">.cls-4{stroke:#171717;stroke-linecap:round;fill:none;stroke-width:3px}</style></defs><g id="Layer_2-2" data-name="Layer 2" transform="translate(0 .015)"><path id="path1" d="M7.197 1.83h17.22c17.806 2.205 4.027 2.205 19.17 0 5.1-.743 15.394 0 15.394 0l43.724 2.1c7.18 0 10.355 0 10.355 5.35s-3.176 5.35-10.355 5.35l-43.724 2.101s-10.293.743-15.394 0c-15.143-2.205-1.364-2.205-19.17 0H7.202Z" style="fill:#874b2e"/><path id="path3" d="M8.022 1.83h8.474c17.807 2.205 11.948 2.205 27.091 0 5.1-.743 15.394 0 15.394 0l44.562 2.1c7.179 0 10.355 0 10.355 5.35s-3.176 5.35-10.355 5.35L58.98 16.732s-10.293.743-15.394 0c-15.143-2.205-9.283-2.205-27.09 0h-8.47Z" style="stroke-linecap:round;stroke:#21140d;fill:none;stroke-width:3px"/><path id="path4" d="M46.99 6.363h92.832c.81 0 1.466.676 1.466 1.509v2.818c0 .833-.657 1.509-1.466 1.509h-92.79l-.085-.003c-5.083-.314-8.623-.253-8.711-2.915.088-2.67 3.648-2.601 8.754-2.918" style="fill:#424242"/><path id="path5" d="M46.99 6.363h94.068c.262 0 .475.22.475.489v4.858c0 .27-.213.489-.475.489H46.99c-5.106-.317-8.666-.248-8.754-2.918.088-2.67 3.648-2.6 8.754-2.918z" class="cls-4"/><g id="g7"><path id="path6" d="M8.56 1.83v14.901q-7.06 0-7.06-7.45t7.06-7.45Z" style="stroke:#171717;stroke-miterlimit:1.6805;stroke-linecap:round;fill:#424242;stroke-width:3px"/></g><g id="g12"><path id="rect10" d="M61.504 6.363h9.318V12.2h-9.318z" style="stroke:#171717;stroke-miterlimit:1.6805;stroke-linecap:round;stroke-width:3px;fill:#666"/><rect id="rect11" width="10.9179" height="5.7992001" x="76.298302" y="6.3814001" rx="0.71210003" ry="0.71210003" style="fill:#666"/><path id="rect7" d="M58.742 11.506h2.762v8.791h-2.762z" style="stroke:#171717;stroke-miterlimit:1.6805;fill:#3d3d3d;stroke-width:1.5px"/></g><path id="rect13" d="M76.914 6.137h9.226c.334 0 .605.27.605.605v5.01a.674.674 0 0 1-.674.673h-9.065a.71.71 0 0 1-.708-.707V6.752c0-.34.276-.615.616-.615z" class="cls-4"/><g id="g16"><path id="rect14" d="M101.796 6.363h3.539V12.2h-3.539z" style="stroke:#171717;stroke-miterlimit:1.6805;stroke-linecap:round;stroke-width:3px;fill:#525252"/><path id="rect15" d="M132.111 6.363h3.096c.542 0 .981.453.981 1.01v3.816c0 .558-.44 1.01-.981 1.01h-3.096c-.542 0-.981-.453-.981-1.01V7.373c0-.557.44-1.01.981-1.01" style="fill:#525252"/></g><path id="rect19" d="M131.492 6.015h3.758c.2 0 .363.167.363.373v5.789a.37.37 0 0 1-.363.373h-3.758a.37.37 0 0 1-.362-.373v-5.79c0-.205.162-.372.362-.372z" class="cls-4"/><circle id="circle18" cx="60.128899" cy="21.993099" r="2.7497001" style="stroke-linecap:round;fill:#a3694c;stroke:#170f09;stroke-width:1.5px"/></g></svg>