<svg xmlns="http://www.w3.org/2000/svg" id="Layer_2" width="66.93" height="17.37" data-name="Layer 2" viewBox="0 0 66.93 17.37"><defs><style>.cls-1{fill:#3d3d3d}.cls-1,.cls-5,.cls-8{stroke:#171717}.cls-1,.cls-8{stroke-width:1.5px}.cls-5{fill-rule:evenodd}.cls-5,.cls-8{stroke-linecap:round}.cls-5{stroke-width:3px;fill:#404040}.cls-8{fill:none}</style></defs><g id="Layer_14" data-name="Layer 14"><g id="g5"><path id="path159" d="M27.53 11.83s-.15.67-.22.89c0 .07-.22.22-.37.22h-.96c-.15 0-.37-.15-.37-.22-.07-.22-.29-.89-.29-.89z" style="stroke:#171717;fill-rule:evenodd;stroke-width:1.69px;stroke-linecap:round;fill:#898989"/><path id="path160" d="M19.88 7.17c0 2.81-2.13 5.18-4.71 5.18s-4.71-2.29-4.71-5.18c-.07-2.81 9.41-2.81 9.41 0z" style="fill-rule:evenodd;stroke-width:1.69px;fill:#3a3a3a;stroke:#2d2d2d;stroke-linecap:square"/><path id="path161" d="M5.61 5.73v8.14l-.59-.37-.96-.74-1.4-1.85V8.4l1.32-1.85.88-.52.74-.3s.01 0 0 0Z" class="cls-5"/><path id="path162" d="M65.43 9.76c-.07 2.07-1.1 2.59-1.4 2.59H50.5V7.09h13.68c.29 0 1.18.44 1.25 2.66h0Z" style="stroke:#171717;fill-rule:evenodd;stroke-linecap:round;fill:#898989;stroke-width:3px"/><path id="path163" d="M53.85 9.68c0 2.93-.51 4.48-.78 5.11-.09.21-.31.34-.54.34h-6.81l-1.77.54s-36.98.2-39.26.2c-.22 0-.37-.4-.37-.87V4.16c0-.54.07-.87.29-.87 1.99 0 39.34.07 39.34.07l1.69.61h7.25s.96 1.67.96 5.71Z" class="cls-5"/><path id="path164" d="m9.29 7.1 44.22.3" class="cls-8"/><path id="path165" d="m9.37 11.98 44.22.3" class="cls-8"/><path id="path166" d="M51.81 10.74c-.02.21-.02.42-.04.42h-.7s-.04-.21-.07-.42c-.02-.32-.02-.63-.02-.84s0-.53.02-.84c.02-.32.04-.53.07-.53h.7s.04.32.04.63c.02.32 0 .63 0 .84z" style="stroke:#171717;stroke-width:1.5px;fill-rule:evenodd;stroke-linecap:square;fill:#2e2e2e"/><path id="path169" d="m34.08 15.72-9.05.06-.05-3.84s4.93-2.23 9.02.03l.07 3.74h0Z" style="stroke:#171717;stroke-width:1.5px;fill-rule:evenodd;stroke-linecap:square;fill:#313131"/><path id="path170" d="M9.22 9c0 .96-.37 1.85-.96 2.07-.07.07-.29.07-.29.07V6.93s.22 0 .29.07c.59.22.96.96.96 2Z" style="stroke:#171717;fill-rule:evenodd;stroke-width:1.69px;stroke-linecap:round;fill:#5d5d5d"/><path id="path172" d="M2.67 7.68v3.93c0 .32-.26.57-.57.57H.57a.57.57 0 0 1-.57-.57V7.68c0-.32.26-.57.57-.57h1.52c.32 0 .57.26.57.57z" style="fill-rule:evenodd;fill:#171717"/><path id="path173" d="M9.66 7.11v5.18c0 .15-.15.3-.29.3H7.53c-.15 0-.22-.07-.22-.3V7.04c0-.22.07-.37.22-.37h1.84c.15.07.29.15.29.44Z" style="stroke:#171717;stroke-width:1.69px;stroke-linecap:round;fill:none"/><rect id="rect151" width="4.12" height="1.97" x="8.72" y=".75" class="cls-1" rx=".49" ry=".49"/><path id="rect152" d="M18.36.75h7.29c.25 0 .45.24.45.54v.92c0 .3-.2.54-.45.54h-7.29c-.25 0-.45-.24-.45-.54v-.92c0-.3.2-.54.45-.54Z" class="cls-1"/></g></g></svg>