<svg xmlns="http://www.w3.org/2000/svg" width="110" height="110" fill="none" viewBox="0 0 110 110"><g clip-path="url(#a)"><path fill="#898989" stroke="#343434" stroke-linecap="round" stroke-miterlimit="3.99393" stroke-width="2.0373" d="m102.806 68.75 5.175-2.988c.173-.1.215-.53.232-1.004a2.097 2.097 0 0 0-1.953-2.177l-1.471-.137c-1.358-.144-2.48 1.026-2.356 2.346z"/><path fill="#3B3B3B" stroke="#343434" stroke-linecap="round" stroke-miterlimit="3.99393" stroke-width="2.0373" d="M41.565 48.738s1.334 5.724 6.675 5.133c.2-.057.366-.27.248-.374-1.536-.853-5.815-3.544-3.72-7.246z"/><path fill="#5A5A5A" stroke="#343434" stroke-linecap="round" stroke-miterlimit="3.99393" stroke-width="4.0746" d="m56.829 38.203 39.666 33.153c.306.23.693.296 1.04.095l4.654-2.686c.217-.126.366-.27.439-.544l1.471-5.488c.092-.343.003-.697-.278-.883l-36.28-32.11c-.307-.228-.694-.295-.998-.12l-10.545 5.335a.9.9 0 0 0-.331 1.235z"/><path fill="#424242" stroke="#343434" stroke-miterlimit="3.99393" stroke-width="2.0373" d="M54.014 39.061 71.41 29.02c.826-.477 1.786-.22 2.213.52l.653 1.13c.452.783.17 1.7-.657 2.177l-18.83 10.87-1.43-2.478c-.384-.764-.151-1.768.656-2.177Z"/><path fill="#5A5A5A" d="m41.826 90.56-11.534 7.242 3.585 4.958s-5.462 2.619-3.99 2.591S48.44 94.372 49.145 93.014s-3.971 2.474-3.971 2.474z"/><path stroke="#333" stroke-linecap="round" stroke-miterlimit="3.99393" stroke-width="4.0746" d="m30.292 97.802 11.534-7.242m-11.534 7.242h0m0 0 3.585 4.958m7.949-12.2-11.534 7.242m11.534-7.242 3.348 4.928s4.676-3.832 3.971-2.474c-.704 1.358-17.787 12.309-19.258 12.337s3.99-2.591 3.99-2.591m0 0-3.585-4.958"/><path fill="#898989" stroke="#343434" stroke-linecap="round" stroke-miterlimit="3.99393" stroke-width="4.0746" d="m75.211 12.444 13.594-7.849c.585-.338 1.331-.189 1.683.42l1.582 2.74c.326.565.152 1.304-.478 1.668L77.998 17.27c-.585.338-1.331.189-1.683-.42l-1.581-2.74c-.282-.591-.108-1.33.477-1.667Z"/><path fill="#4D4D4D" d="M70.082 12.968 10.594 47.314c-.218.125-.41.294-.57.619-.562 1.136-1.872 4.791.086 8.184 1.155 2 .784 4.07.05 5.71-.518 1.112.547 2.353 1.704 2.148 2.471-.44 5.398-.391 6.406 2.158 1.67 4.197 2.247 9.314 2.338 10.074.13 1.093-.132 12.426 4.764 20.907 0 0 1.262 4.896 7.567 1.255 5.045-2.912 10.763-6.967 12.673-8.882.359-.381.337-1.122-.132-1.431-.518-.397-1.188-1.054-1.611-2.491l-5.479-18.93s-1.253-4.08 4.713-5.495c5.7-1.376 12.61-5.172 15.315-10.329.223-.418-.08-1.143-.306-1.534l-3.386-6.214c-.22-.684-1.43-3.936.95-5.136 2.286-1.262 12.045-6.954 14.48-8.36.522-.302.738-.832.66-1.367-.076-.536.158-1.135.636-1.41l6.436-3.717c.13-.075.217-.125.323-.244.446-.432 1.337-1.7.333-3.44l-4.193-7.262c-.352-.609-1.2-.873-1.852-.497.018-.068-2.417 1.338-2.417 1.338M56.42 49.885c1.188 2.793-6.749 7.577-7.881 8.118-.84.4-6.3 2.643-8.674-.162-2.017-2.489-1.761-6.386-.487-7.373l9.1-6.935c1.57-1.196 2.726-.757 3.936-.47.343.092 1.312.887 1.512 1.235.537.929 1.6 3.203 2.494 5.587"/><path fill="#3A3A3A" stroke="#343434" stroke-linecap="round" stroke-miterlimit="3.99393" stroke-width="2.0373" d="m31.606 99.046 8.647-5.483c.565-.326.655-1.074.285-1.614-.438-.559-1.06-1.534-1.838-2.882-1.28-2.218-1.455-3.625-1.376-4.192.03-.25.035-.542-.047-.784l-5.658-25.668c-.453-2.29-3.043-3.462-5.087-2.282l-7.566 4.369c-2.425 1.49-2.216 3.127-1.854 4.087.49.361.89.86 1.156 1.534 1.63 4.097 2.219 9.071 2.33 10.012.12 1.017-.124 12.488 4.772 20.968 0 0 .319 1.236 1.435 2.004a5.1 5.1 0 0 0 1.923.596c.778.021 1.726-.161 2.878-.665Z"/><path fill="#404040" fill-rule="evenodd" d="M63.956 23.346 9.512 54.779c-1.166-2.922.733-7.266.733-7.266l62.495-36.08 1.403.334 4.55 7.882c1.231 2.131-.657 3.28-.657 3.28l-7.48 4.318c.151.26.208.46.178.71-.08 1.669-1.69 2.193-1.69 2.193s.537 1.835-.675-.365a16 16 0 0 0-1.402-2.026 4 4 0 0 1-.246-.327z" clip-rule="evenodd"/><path stroke="#343434" stroke-linecap="round" stroke-miterlimit="3.99393" stroke-width="2.0373" d="M78.694 19.65c1.23 2.13-.658 3.279-.658 3.279l-7.48 4.318c.151.26.208.46.178.71-.08 1.669-1.69 2.193-1.69 2.193s.537 1.835-.675-.365a16 16 0 0 0-1.402-2.026 4 4 0 0 1-.246-.327l-2.765-4.086L9.512 54.779c-1.166-2.922.733-7.266.733-7.266l62.495-36.08 1.403.334m4.55 7.882-4.55-7.882m4.55 7.882-4.55-7.882"/><path fill="#898989" d="m34.896 38.385 7.001-4.043s3.17-3.047 2.348-4.37-3.326.064-3.326.064l-6.827 3.942s-1.054 1.188-.552 2.058z"/><path fill="#424242" d="M12.373 42.75a.753.753 0 1 0-1.305.753l1.105 1.914a.753.753 0 1 0 1.305-.753z"/><path fill="#333" d="M11.853 43.356a.265.265 0 0 1-.363-.097l1.765-1.019a1.77 1.77 0 0 0-2.42-.648zm.097-.362a.264.264 0 0 1-.097.362l-1.019-1.764a1.77 1.77 0 0 0-.648 2.42zm1.105 1.914-1.105-1.914-1.764 1.018 1.105 1.914zm-.362-.097a.265.265 0 0 1 .362.097l-1.764 1.018a1.77 1.77 0 0 0 2.42.649zm-.097.362a.265.265 0 0 1 .097-.362l1.018 1.764a1.77 1.77 0 0 0 .649-2.42zM11.49 43.26l1.106 1.914 1.764-1.018-1.105-1.915z"/><path fill="#424242" fill-rule="evenodd" stroke="#333" stroke-linecap="round" stroke-miterlimit="3.99393" stroke-width="2.0373" d="M69.963 9.234a1.739 1.739 0 1 0 1.739 3.012 1.739 1.739 0 0 0-1.739-3.012Zm.462 1.741a.47.47 0 1 1 .815-.47.47.47 0 0 1-.815.47Z" clip-rule="evenodd"/><path fill="#424242" stroke="#333" stroke-miterlimit="3.99393" stroke-width="2.0373" d="M7.058 57.184c-1.115-1.328-2.841-1.607-4.02-.637-1.161.902-1.234 2.684-.213 3.95s2.79 1.52 3.951.618c.193-.169.36-.382.527-.594.771-.271 1.71-.383 3.537.07l-.007-3.104c-.937.17-2.443.286-3.775-.303Zm-2.636 1.058c.322-.245.777-.16 1.065.138.27.366.253.84-.07 1.084-.297.288-.831.254-1.1-.112-.314-.342-.175-.891.105-1.11Z"/><path stroke="#333" stroke-miterlimit="3.99393" stroke-width="2.0373" d="M48.544 57.998c1.133-.541 9.07-5.325 7.881-8.118-.894-2.384-1.957-4.658-2.493-5.587-.201-.348-1.17-1.143-1.513-1.234-1.21-.288-2.366-.727-3.936.47l-9.1 6.935c-1.274.986-1.529 4.883.488 7.372 2.373 2.805 7.834.563 8.673.162Z"/><path fill="#424242" d="m34.139 37.085.751 1.302-8.826 5.098a.753.753 0 0 1-.753-1.305z"/><path stroke="#333" stroke-linecap="round" stroke-miterlimit="3.99393" stroke-width="2.0373" d="m41.639 33.905-15.829 9.14a.753.753 0 0 1-.753-1.306l8.828-5.095-.603-1.045c-.502-.87.551-2.058.551-2.058L40.66 29.6s2.504-1.388 3.326-.065-2.347 4.37-2.347 4.37Z"/><path stroke="#333" stroke-miterlimit="3.99393" stroke-width="4.0746" d="m10.594 47.314 59.488-34.346s2.435-1.406 2.417-1.338c.652-.376 1.5-.112 1.852.497l4.193 7.262c1.004 1.74.113 3.008-.333 3.44-.106.119-.193.169-.323.244l-6.436 3.716c-.478.276-.712.875-.635 1.41a1.32 1.32 0 0 1-.66 1.367c-2.436 1.407-12.195 7.099-14.481 8.361-2.38 1.2-1.17 4.452-.95 5.136l3.386 6.214c.226.391.529 1.116.306 1.534-2.705 5.157-9.615 8.953-15.315 10.33-5.966 1.415-4.713 5.495-4.713 5.495l5.479 18.929c.423 1.437 1.093 2.094 1.611 2.49.469.31.491 1.05.132 1.432-1.91 1.915-7.628 5.97-12.673 8.882-6.305 3.641-7.567-1.255-7.567-1.255-4.896-8.48-4.634-19.814-4.764-20.907-.091-.76-.668-5.877-2.338-10.074-1.008-2.549-3.935-2.598-6.406-2.158-1.157.205-2.222-1.036-1.703-2.147.733-1.642 1.104-3.711-.05-5.712-1.96-3.392-.65-7.047-.087-8.183.16-.325.352-.494.57-.62Z"/></g><defs><clipPath id="a"><path fill="#fff" d="M0 0h110v110H0z"/></clipPath></defs></svg>