<svg xmlns="http://www.w3.org/2000/svg" id="Layer_2" viewBox="0 0 68.55 18.49"><defs><style>.cls-5{stroke-linecap:round;stroke-miterlimit:18.9;fill:#4d4a44;stroke-width:1.5px}.cls-13{fill:#191815}.cls-5{stroke:#171614}</style></defs><g id="Layer_3"><path d="M10.14 8.93h0v5.37H8.25c-.71-.16 1.66-.31 1.07-.47-7.58 0-7.82.75-7.82-4.9h0c0-5.65.24-4.52 7.82-4.52.59-.16-1.78-.31-1.07-.47h1.89z" style="stroke-linecap:round;stroke-width:3px;stroke-miterlimit:18.9;fill:#f3ac14;stroke:#171208"/><g id="g2"><path id="path4" d="M28.64 3.85h36.57c2.46 1.8 2.46 8.11 0 10.36H28.64z" style="stroke-linecap:round;stroke-width:3px;stroke-miterlimit:269.93;stroke:#171103;fill:#e0a420"/><path id="path2" d="M19.3 2.94V15.1h13.23V2.49z" style="fill:#e0a420"/><path id="rect4" d="M19.64 3.4h4.31c2.46 0 3.69 2.38 3.69 5.53v.32c0 3.15-1.85 5.4-3.69 5.4h-4.31c-2.46 0-3.69-2.25-3.69-5.4v-.32c-.62-2.7 1.23-5.53 3.69-5.53" style="fill:#cc8e0a"/><path id="rect6-2" d="M18.52 15.1h4.46c.56 0 1.11.57 1.11 1.13v1.13c0 .57-.56 1.13-1.11 1.13h-4.46c-.56 0-1.11-.57-1.11-1.13v-1.13c0-.57.56-1.13 1.11-1.13" class="cls-13"/><path id="rect7" d="M32.53 2.94c.38 0 .76.45.76.9V14.2c0 .45-.38.9-.76.9H12.5c-.38 0-.76-.45-.76-.9V3.85c0-.45 0-.9.76-.9h20.03Z" style="fill:none;stroke:#171207;stroke-linecap:round;stroke-width:3px;stroke-miterlimit:269.93"/><path id="rect8" d="M42.16 6.55h19.36c.92 0 1.84 1.03 1.84 2.38s-.92 2.13-1.84 2.13H42.16c-.92 0-1.84-.77-1.84-2.13 0-1.35.61-2.38 1.84-2.38" style="fill:#c48f1c"/><path d="M54.03 5.34h1.57v7.35h-1.57zm4.19 0h1.57v7.35h-1.57zm-12.57 0h1.57v7.35h-1.57zm4.19 0h1.57v7.35h-1.57z" style="fill:#614e21"/><path id="rect10" d="M63.67 8.35h3.07V9.7h-3.07zc-.31 0 0 0 0 0" style="fill:#181716"/><path id="path11" d="M9.85 3.4h2.27v11.71H9.85C7.96 11.51 7.96 7 9.85 3.4" style="stroke-linecap:round;stroke-miterlimit:269.93;fill:#f3ac14;stroke:#171208;stroke-width:1.5px"/><path id="path12" d="M13.79 4.3c-3.37 3.15-3.37 6.31 0 9.01H21V4.3z" style="stroke-linecap:round;stroke-width:3px;stroke-miterlimit:269.93;stroke:#171614;fill:#2b2926"/><rect width="5.5" height="3.26" x="4.56" y="7.39" rx=".56" ry=".56" style="stroke-linecap:round;stroke-miterlimit:269.93;stroke:#171613;fill:#4d4a44;stroke-width:1.5px"/><path id="rect1" d="M65.82 5.65c.61 0 .92.45.92 1.35v4.5c0 .9-.31 1.35-.92 1.35h-3.07V5.64h3.07Z" style="stroke-linecap:round;fill:#4d4a44;stroke:#171614;fill-rule:evenodd;stroke-miterlimit:215.95;stroke-width:2px"/></g><path d="M62.75 8.28h3.29v1.79h-3.29zM4.34 8.16h1v1.91h-1zm1.6-.37h1v2.26h-1zm3.3.25h1v1.91h-1zm-1.6-.11h1v2.26h-1z" style="fill:#171614"/><path id="path13" d="M12.1 10.93c.13 1.31.51 1.91 1.4 3.1h4.45v-1.07c-1.26-.28-2.4-1.17-2.77-2.03z" class="cls-5"/><path id="path13-2" d="M15.43 6.49c.36-.86 1.51-1.75 2.77-2.03V3.39h-4.45c-.89 1.19-1.27 1.79-1.4 3.1z" class="cls-5"/><path id="rect6-2-2" d="M17.41 2.26V1.13c0-.57.56-1.13 1.11-1.13h4.46c.56 0 1.11.57 1.11 1.13v1.13c0 .57-.56 1.13-1.11 1.13h-4.46c-.56 0-1.11-.57-1.11-1.13" class="cls-13"/></g></svg>