<svg xmlns="http://www.w3.org/2000/svg" width="110" height="110" fill="none" viewBox="0 0 110 110"><g clip-path="url(#a)"><path fill="#B27F18" stroke="#5A400C" stroke-width="1.69525" d="M53.954 62.74c-3.698-1.052-6.108-5.018-6.043-9.052l-1.928 1.585-1.14 1.994c.93 2.326 1.421 3.694 3.157 5.196 1.248 1.079 3.9 1.563 5.882.962.252-.077.367-.183.395-.31.03-.137-.043-.295-.323-.374Z"/><path fill="#44413B" fill-rule="evenodd" d="M6.268 71.474q.034-.205.064-.4l.227-.175a.04.04 0 0 0 .01-.055l-.166-.263.012-.092.213-.18a.04.04 0 0 0 .008-.053l-.163-.276.009-.094.19-.161a.04.04 0 0 0 .008-.056l-.163-.24.005-.088.217-.163a.04.04 0 0 0 .006-.06l-.206-.242.002-.116.223-.151a.042.042 0 0 0 .008-.063l-.234-.258-.002-.086.186-.174a.04.04 0 0 0 .003-.058l-.21-.241-.008-.115.187-.15a.042.042 0 0 0 .004-.062l-.223-.224q-.036-.418-.09-.893c-.056-.48.423-1.015.97-1.092l2.559-.359c2.752.773 4.421-.34 5.634-2.443l4.356 3.51-2.075 2.414c-.2.233-.496.39-.803.367-3.9-.29-6.201 1.05-8.409 3.717-.447.54-1.069.485-1.408.39-.398-.112-1.064-.576-.941-1.315m11.317-5.793a1.069 1.069 0 1 0-2.023-.69 1.069 1.069 0 0 0 2.022.69" clip-rule="evenodd"/><circle cx="7.38797" cy="71.8619" r="0.575313" fill="#3B3833" transform="rotate(-98.696 7.388 71.862)"/><path stroke="#37342F" stroke-width="1.69525" d="M6.268 71.474q.034-.205.064-.4l.227-.175a.04.04 0 0 0 .01-.055l-.166-.263.012-.092.213-.18a.04.04 0 0 0 .008-.053l-.163-.276.009-.094.19-.161a.04.04 0 0 0 .008-.056l-.163-.24.005-.088.217-.163a.04.04 0 0 0 .006-.06l-.206-.242.002-.116.223-.151a.042.042 0 0 0 .008-.063l-.234-.258-.002-.086.186-.174a.04.04 0 0 0 .003-.058l-.21-.241-.008-.115.187-.15a.042.042 0 0 0 .004-.062l-.223-.224q-.036-.418-.09-.893c-.056-.48.423-1.015.97-1.092l2.559-.359c2.752.773 4.421-.34 5.634-2.443l4.356 3.51-2.075 2.414c-.2.233-.496.39-.803.367-3.9-.29-6.201 1.05-8.409 3.717-.447.54-1.069.485-1.408.39-.398-.112-1.064-.576-.941-1.315Zm11.317-5.793a1.069 1.069 0 1 0-2.023-.69 1.069 1.069 0 0 0 2.022.69Z" clip-rule="evenodd"/><path fill="#F2A60D" fill-rule="evenodd" d="m94.866 4.226-3.019 1.717a.086.086 0 0 1-.125-.051l-.143-.498a.258.258 0 0 0-.377-.152l-.834.481a.09.09 0 0 1-.1-.01l-.825.476a.5.5 0 0 0-.12.096l-.646.694a.5.5 0 0 1-.12.096l-2.551 1.473a.086.086 0 0 0-.032.117l.508.88a.21.21 0 0 1-.078.289l-1.964 1.134a.21.21 0 0 1-.29-.077l-.508-.88a.086.086 0 0 0-.117-.031l-1.644.949a.086.086 0 0 0-.031.117l.508.88a.21.21 0 0 1-.078.29l-1.965 1.134a.21.21 0 0 1-.29-.078l-.507-.88a.086.086 0 0 0-.118-.03l-1.643.948a.086.086 0 0 0-.032.118l.508.879a.21.21 0 0 1-.078.29l-1.964 1.134a.21.21 0 0 1-.29-.078l-.508-.879a.086.086 0 0 0-.117-.031l-1.644.948a.086.086 0 0 0-.031.118l.507.88a.21.21 0 0 1-.077.289l-1.965 1.134a.21.21 0 0 1-.29-.077l-.507-.88a.086.086 0 0 0-.118-.031l-1.643.949a.086.086 0 0 0-.032.117l.508.88a.21.21 0 0 1-.078.29l-1.964 1.134a.21.21 0 0 1-.29-.078l-.508-.88a.086.086 0 0 0-.117-.03l-1.644.948a.086.086 0 0 0-.031.117l.507.88a.21.21 0 0 1-.077.29l-1.965 1.134a.21.21 0 0 1-.29-.078l-.507-.88a.086.086 0 0 0-.118-.03l-1.643.948a.086.086 0 0 0-.032.118l.508.879a.21.21 0 0 1-.078.29l-1.964 1.134a.21.21 0 0 1-.29-.078l-.508-.879a.086.086 0 0 0-.117-.031l-1.644.949a.086.086 0 0 0-.031.117l.507.88a.21.21 0 0 1-.077.29l-1.965 1.133a.21.21 0 0 1-.29-.077l-.507-.88a.086.086 0 0 0-.118-.031l-2.186 1.262c-.472.273-1.37.382-1.92.296a.3.3 0 0 0-.185.031l-11.518 6.65 2.81 4.868a2.6 2.6 0 0 0 1.14 1.038l-.002-.001c.753.357 1.628.359 2.216.02l44.3-25.577a.09.09 0 0 1 .125.034l5.06 8.766 4.765-2.75 2.803-1.88a.52.52 0 0 0 .222-.515L100.56 8.88l-3.773-6.534a.344.344 0 0 0-.47-.126l-1.494.862.029.047a.086.086 0 0 1-.03.12l-.622.36c.15-.023.508.303.686.488a.082.082 0 0 1-.02.128" clip-rule="evenodd"/><path fill="#3F3C37" d="m40.047 106.555-.164-.48 15.792-9.405.64 1.107-15.839 8.806z"/><path fill="#EB9D00" fill-rule="evenodd" d="M13.306 66.54c.263 1.145-.027 2.443-.752 2.892-3.576 2.215-6.885 6.531-6.46 7.268.504.872 1.902.973 2.523.614l6.462-3.611c2.04-1.178 4.699-1.205 6.635-.223 1.734.88 3.257 2.614 3.894 4.624l8.124 27.014.126.218-1.33.767a.087.087 0 0 0-.031.118l.72 1.247a.1.1 0 0 0 .06.042c1.588.265 2.503.273 4.138.12a.1.1 0 0 0 .035-.011l15.058-8.694c3.102-1.791 5.402-3.19 7.375-5.11a.255.255 0 0 0-.013-.375l-2.72-2.34a6 6 0 0 1-1.807-2.73l-4.626-14.482a6.186 6.186 0 0 1 2.8-7.24l.03-.014 1.792-.677c.788-.287 5.753-3.198 9.956-5.721a1.2 1.2 0 0 0 .367-1.715l-.214-.31c-3.071-4.059-3.852-6.404-2.66-11.347l1.55-1.082a.086.086 0 0 0 .029-.107l-.963-1.833 36.647-21.158-2.696-4.67zm35.868-13.895 2.42-1.397c1.803-1.041 3.462-1.124 4.984-.54q.213.08.42.17c.208.088.358.266.506.44l.056.066c.168.196.405.33.662.371l.09.015c.226.034.456.07.64.204.768.562 1.399 1.224 1.832 1.974l1.905 3.3c.641 1.11.26 2.53-.85 3.171l-7.326 4.23c-1.312.758-2.738.867-4.085.488-.167-.047-.303-.162-.424-.285a1.42 1.42 0 0 0-.91-.42c-.171-.011-.344-.04-.488-.133q-.136-.09-.268-.183c-1.972-1.41-4.002-4.45-3.288-6.668.35-1.093 2.646-3.691 4.124-4.803" clip-rule="evenodd"/><path fill="#D89000" d="m13.222 67.855.956-.552-1.672-5.138c-.024-.059-.136-.06-.22-.014-.081.045-.136.138-.128.215l.333 1.73a.36.36 0 0 1-.019.199.36.36 0 0 0-.014.216l.57 2.338q.015.06.04.114l.094.214-.069.594c-.008.07.068.12.129.084"/><path fill="#44413B" stroke="#37342F" stroke-width="1.69525" d="m91.851 5.942 3.018-1.716a.082.082 0 0 0 .02-.129c-.177-.184-.535-.51-.685-.488l.622-.36a.086.086 0 0 0 .03-.12l-.846-1.362c-.076-.167-.428-.406-.767-.492-.325-.083-.75.093-.935.318l-2.332 3.32a.26.26 0 0 0-.012.277l.29.502a.086.086 0 0 0 .117.031l.835-.482a.258.258 0 0 1 .377.153l.143.497a.086.086 0 0 0 .125.051Z"/><path fill="#E99F0C" d="m90.84 17.702-1.49-2.582-29.718 17.157c-2.835 1.637-7.21 1.395-7.93-1.476a.67.67 0 0 1 .23-.663c.964-.828 2.106-1.615 3.64-2.5L97.437 3.467l3.127 5.415.502 2.916z"/><path fill="#D5920B" d="M56.774 28.22c-1.91 1.02-3.168 1.535-5.052 2.22a.7.7 0 0 1 .21-.303c.955-.82 2.085-1.6 3.599-2.476L97.437 3.466l.496.859z"/><path fill="#DA950B" d="m90.838 17.702 3.657 6.335 4.764-2.75 2.804-1.88a.52.52 0 0 0 .196-.246.5.5 0 0 0 .025-.27l-1.22-7.093z"/><path fill="#D08F0B" d="m102.284 18.891-.671-7.17a.8.8 0 0 0-.053-.227l-.998-2.612z"/><path fill="#C28100" d="m98.956 20.786 1.095 1.897L63.404 43.84l.075.143-1.983-.165a.09.09 0 0 1-.067-.042l-.23-.398a.69.69 0 0 1 .252-.94z"/><path fill="#EB9D00" d="m65.264 42.769 1.001 1.734a.086.086 0 0 0 .117.032l1.644-.95a.086.086 0 0 0 .032-.117l-1.002-1.734zm4.124-2.382 1.002 1.735a.086.086 0 0 0 .117.031l1.644-.949a.086.086 0 0 0 .031-.117l-1.001-1.735zm4.125-2.381 1.001 1.734a.086.086 0 0 0 .118.032l1.643-.949a.086.086 0 0 0 .032-.117l-1.002-1.735zm4.124-2.381 1.002 1.734a.086.086 0 0 0 .117.032l1.644-.95a.086.086 0 0 0 .031-.117L79.43 34.59zm4.125-2.382 1.001 1.735a.086.086 0 0 0 .118.031l1.643-.949a.086.086 0 0 0 .032-.117l-1.002-1.734zm4.124-2.381 1.002 1.735a.086.086 0 0 0 .117.031l1.644-.949a.086.086 0 0 0 .031-.117l-1.001-1.735zm4.124-2.382 1.002 1.735a.086.086 0 0 0 .118.032l1.643-.95a.086.086 0 0 0 .032-.117l-1.002-1.734zm4.125-2.38 1.002 1.734a.086.086 0 0 0 .117.032l1.644-.95a.086.086 0 0 0 .031-.117l-1.001-1.734zm4.125-2.382 1.001 1.735a.086.086 0 0 0 .118.031l1.643-.949a.086.086 0 0 0 .032-.117c-.259-.448-.911-1.584-1.002-1.735z"/><path stroke="#640" stroke-width="1.69525" d="m65.264 42.769 1.001 1.734a.086.086 0 0 0 .117.032l1.644-.95a.086.086 0 0 0 .032-.117l-1.002-1.734zm4.124-2.382 1.002 1.735a.086.086 0 0 0 .117.031l1.644-.949a.086.086 0 0 0 .031-.117l-1.001-1.735zm4.125-2.381 1.001 1.734a.086.086 0 0 0 .118.032l1.643-.949a.086.086 0 0 0 .032-.117l-1.002-1.735zm4.124-2.381 1.002 1.734a.086.086 0 0 0 .117.032l1.644-.95a.086.086 0 0 0 .031-.117L79.43 34.59zm4.125-2.382 1.001 1.735a.086.086 0 0 0 .118.031l1.643-.949a.086.086 0 0 0 .032-.117l-1.002-1.734zm4.124-2.381 1.002 1.735a.086.086 0 0 0 .117.031l1.644-.949a.086.086 0 0 0 .031-.117l-1.001-1.735zm4.124-2.382 1.002 1.735a.086.086 0 0 0 .118.032l1.643-.95a.086.086 0 0 0 .032-.117l-1.002-1.734zm4.125-2.38 1.002 1.734a.086.086 0 0 0 .117.032l1.644-.95a.086.086 0 0 0 .031-.117l-1.001-1.734zm4.125-2.382 1.001 1.735a.086.086 0 0 0 .118.031l1.643-.949a.086.086 0 0 0 .032-.117c-.259-.448-.911-1.584-1.002-1.735z"/><circle cx="44.5056" cy="53.8219" r="0.666063" fill="#B17E18" transform="rotate(-30 44.506 53.822)"/><path fill="#D78F00" d="m54.377 45.206-.2 3.763c.846.518 2.197.6 3.379.18l.016.03a1.156 1.156 0 1 0 1.933-1.26c.832-.898 1.112-1.532 1.236-2.972.697-.447.167-1.415-.711-1.232l-1.355.216a.6.6 0 0 1-.496-.146l-.348-.31a.43.43 0 0 0-.267-.11z"/><path fill="#57534B" stroke="#37342F" stroke-width="1.69525" d="M47.614 67.343a1.37 1.37 0 1 0-2.048-1.309l-2.089.783a.594.594 0 1 0 .417 1.112l2.088-.783a1.37 1.37 0 0 0 1.632.197Z"/><path fill="#DB9200" d="M48.414 53.276 45.04 55.81c-.276.207-.53.445-.729.726-1.13 1.594-1.322 3.127-.365 5.006.805 1.58 2.427 2.536 4.572 2.983a.6.6 0 0 0 .23 0l.44-.083-.097-.01c-.171-.012-.344-.04-.488-.134q-.136-.09-.268-.183c-1.972-1.41-4.002-4.45-3.288-6.668.295-.919 1.964-2.902 3.367-4.17"/><path fill="#46433C" d="m56.953 98.58-16.292 9.406a.245.245 0 0 1-.334-.09l-.453-.784a.245.245 0 0 1 .09-.334l20.98-11.928a.26.26 0 0 1 .351.096l.22.38a.26.26 0 0 1-.094.353l-1.804 1.041c-.752.705-1.518 1.198-2.664 1.86"/><path stroke="#37342F" stroke-width="1.69525" d="m39.883 106.075.164.48.278.018-.361.205a.245.245 0 0 0-.09.334l.453.785a.244.244 0 0 0 .334.089l16.292-9.406c1.146-.662 1.912-1.155 2.664-1.86l1.804-1.04a.26.26 0 0 0 .095-.353l-.22-.381a.26.26 0 0 0-.351-.095l-4.758 2.705-.512-.886z"/><circle cx="46.9303" cy="66.1573" r="0.675319" fill="#3F3C36" transform="rotate(-30 46.93 66.157)"/><path fill="#47443D" d="m56.051 44.517 3.462 2.794c.062.05.082.137.044.207-1.05 1.95-3.944 2.33-5.38 1.45l-2.408 1.447a.17.17 0 0 1-.234-.055l-.896-1.42a.09.09 0 0 1-.003-.086l1.047-1.942 4.174-2.41a.17.17 0 0 1 .194.015"/><path fill="#3F3C37" d="m58.41 46.423 1.102.889c.063.05.082.137.044.208-1.05 1.95-3.943 2.33-5.38 1.45-5.408 3.25 3.084-1.856 4.235-2.547"/><circle cx="58.2115" cy="48.9235" r="1.11705" fill="#4B4841" transform="rotate(-30 58.212 48.923)"/><path fill="#3C3934" d="m58.084 46.16-2.035-1.642a.17.17 0 0 0-.194-.015l1.486-.858a.344.344 0 0 1 .47.126l.303.525c.165.285.182.855.046.934l.132.229z"/><path fill="#49463F" stroke="#37342F" stroke-width="1.69525" d="m18.114 48.83-4.03 2.468a.182.182 0 0 1-.278-.168l.072-1.03a.182.182 0 0 0-.273-.17l-.644.372a.09.09 0 0 1-.125-.034L11.18 47.4c-.183-.318-.303-.724-.07-.858l1.125-.65a2.2 2.2 0 0 1 1.505-.255l3.976.76a.27.27 0 0 1 .185.132l.353.61c.025.044.01.1-.035.125l-.813.456a.182.182 0 0 0-.013.31l.728.493a.182.182 0 0 1-.007.306Z"/><path fill="#E09600" d="m62.32 49.473-3.981 2.299c.217.033.436.071.612.2.769.562 1.4 1.224 1.832 1.974l1.906 3.3c.64 1.11.26 2.53-.85 3.171l-7.327 4.23c-1.312.758-2.738.867-4.085.488a.8.8 0 0 1-.251-.13c.55 1.178.904 2.286 1.228 3.657a6.2 6.2 0 0 1 2.113-2.016l.03-.014 1.792-.677c.788-.288 5.753-3.199 9.956-5.721a1.2 1.2 0 0 0 .368-1.715l-.215-.31c-2.476-3.273-3.463-5.431-3.128-8.736"/><path fill="#F2A60D" d="M84.153 10.89a.21.21 0 0 0 .29.078l-2.16 1.247-1.965 1.134-2.16 1.247-1.965 1.134-2.16 1.247-1.964 1.135-2.16 1.247-1.965 1.134-2.16 1.247-1.964 1.134-2.16 1.247-1.965 1.135-2.16 1.247a.21.21 0 0 0 .078-.29l-.507-.88a.086.086 0 0 1 .031-.117l1.644-.949a.086.086 0 0 1 .117.032l.508.879a.21.21 0 0 0 .29.078l1.964-1.135a.21.21 0 0 0 .078-.29l-.508-.879a.086.086 0 0 1 .032-.117l1.643-.949a.086.086 0 0 1 .118.031l.507.88a.21.21 0 0 0 .29.077l1.965-1.134a.21.21 0 0 0 .077-.29l-.507-.879a.086.086 0 0 1 .031-.117l1.644-.95a.086.086 0 0 1 .117.032l.508.88a.21.21 0 0 0 .29.077l1.964-1.134a.21.21 0 0 0 .078-.29l-.508-.88a.086.086 0 0 1 .032-.117l1.643-.949a.086.086 0 0 1 .118.032l.507.88a.21.21 0 0 0 .29.077l1.965-1.135a.21.21 0 0 0 .077-.29l-.507-.879a.086.086 0 0 1 .031-.117l1.644-.949a.086.086 0 0 1 .117.032l.508.879a.21.21 0 0 0 .29.077l1.964-1.134a.21.21 0 0 0 .078-.29l-.508-.879a.086.086 0 0 1 .032-.117l1.643-.95a.086.086 0 0 1 .118.032l.507.88a.21.21 0 0 0 .29.077l1.965-1.134a.21.21 0 0 0 .077-.29l-.507-.88a.086.086 0 0 1 .031-.117l1.644-.949a.086.086 0 0 1 .117.032z"/><path stroke="#640" stroke-width="1.69525" d="M84.443 10.968a.21.21 0 0 1-.29-.078l-.508-.879a.086.086 0 0 0-.117-.031l-1.644.948a.086.086 0 0 0-.031.118l.507.88a.21.21 0 0 1-.077.289l-1.965 1.134a.21.21 0 0 1-.29-.078l-.507-.879a.086.086 0 0 0-.118-.031l-1.643.949a.086.086 0 0 0-.032.117l.508.88a.21.21 0 0 1-.078.29l-1.965 1.133a.21.21 0 0 1-.29-.077l-.507-.88a.086.086 0 0 0-.117-.03l-1.644.948a.086.086 0 0 0-.031.117l.507.88a.21.21 0 0 1-.077.29l-1.965 1.134a.21.21 0 0 1-.29-.078l-.507-.88a.086.086 0 0 0-.118-.03l-1.643.948a.086.086 0 0 0-.032.118l.508.879a.21.21 0 0 1-.078.29l-1.965 1.134a.21.21 0 0 1-.29-.078l-.507-.879a.086.086 0 0 0-.117-.031l-1.644.949a.086.086 0 0 0-.031.117l.507.88a.21.21 0 0 1-.077.289l-1.965 1.134a.21.21 0 0 1-.29-.077l-.507-.88a.086.086 0 0 0-.118-.031l-1.643.949a.086.086 0 0 0-.032.117l.508.88a.21.21 0 0 1-.078.29l-1.965 1.134a.21.21 0 0 1-.29-.078l-.507-.88a.086.086 0 0 0-.117-.03l-1.644.948a.086.086 0 0 0-.031.118l.507.879a.21.21 0 0 1-.077.29z"/><path stroke="#640" stroke-width="1.69525" d="M13.306 66.54c.263 1.145-.027 2.443-.752 2.892-3.576 2.215-6.885 6.531-6.46 7.268.504.872 1.902.973 2.523.614l6.462-3.611c2.04-1.178 4.699-1.205 6.635-.223 1.734.88 3.257 2.614 3.894 4.624l8.124 27.014.126.218-1.33.767a.087.087 0 0 0-.031.118l.72 1.247a.1.1 0 0 0 .06.042c1.588.265 2.503.273 4.138.12a.1.1 0 0 0 .035-.011l15.058-8.694c3.102-1.791 5.402-3.19 7.375-5.11a.255.255 0 0 0-.013-.375l-2.72-2.34a6 6 0 0 1-1.807-2.73l-4.626-14.482a6.186 6.186 0 0 1 2.8-7.24l.03-.014 1.792-.677c.788-.287 5.753-3.198 9.956-5.721a1.2 1.2 0 0 0 .367-1.715l-.214-.31c-3.071-4.059-3.852-6.404-2.66-11.347l1.55-1.082a.086.086 0 0 0 .029-.107l-.963-1.833 36.647-21.158-2.696-4.67zm35.868-13.895 2.42-1.397c1.803-1.041 3.462-1.124 4.984-.54q.213.08.42.17c.208.088.358.266.506.44l.056.066c.168.196.405.33.662.371l.09.015c.226.034.456.07.64.204.768.562 1.399 1.224 1.832 1.974l1.905 3.3c.641 1.11.26 2.53-.85 3.171l-7.326 4.23c-1.312.758-2.738.867-4.085.488-.167-.047-.303-.162-.424-.285a1.42 1.42 0 0 0-.91-.42c-.171-.011-.344-.04-.488-.133q-.136-.09-.268-.183c-1.972-1.41-4.002-4.45-3.288-6.668.35-1.093 2.646-3.691 4.124-4.803Z" clip-rule="evenodd"/><path stroke="#640" stroke-width="3.39049" d="m14.085 51.3 4.03-2.47a.182.182 0 0 0 .007-.306l-.727-.493a.18.18 0 0 1-.078-.18l4.122-2.38q.223-.13.41-.31l2.628-2.544a.3.3 0 0 1 .053-.04l13.91-8.031a.18.18 0 0 1 .248.067l.16.277 11.519-6.65a.28.28 0 0 1 .185-.032c.55.086 1.447-.023 1.92-.296l2.186-1.262a.086.086 0 0 1 .117.032l.508.879a.21.21 0 0 0 .29.078L86.409 9.835a.21.21 0 0 0 .077-.29l-.507-.879a.086.086 0 0 1 .031-.117l2.552-1.473a.5.5 0 0 0 .12-.096l.646-.694a.5.5 0 0 1 .12-.095l.824-.476a.09.09 0 0 0 .1.01l.834-.482a.258.258 0 0 1 .378.152l.142.498a.086.086 0 0 0 .126.05l3.018-1.715a.082.082 0 0 0 .02-.129c-.177-.185-.52-.475-.686-.489l.622-.359a.086.086 0 0 0 .03-.12l-.029-.046 1.495-.863a.344.344 0 0 1 .47.126l3.773 6.535.998 2.612q.042.11.053.226l.671 7.17a.53.53 0 0 1-.221.516l-2.804 1.88-.012.007.802 1.39-36.646 21.158.962 1.832a.086.086 0 0 1-.028.108l-1.55 1.081c-1.193 4.944-.412 7.289 2.66 11.348l.214.31a1.2 1.2 0 0 1-.368 1.714c-4.203 2.523-9.168 5.434-9.956 5.721l-1.792.678-.021.01-.01.004a6.186 6.186 0 0 0-2.799 7.24l4.626 14.482a6 6 0 0 0 1.808 2.73l2.718 2.34c.114.097.12.27.013.375-1.973 1.92-4.272 3.319-7.374 5.11l-15.059 8.693a.1.1 0 0 1-.035.012c-1.635.153-2.55.144-4.137-.121a.1.1 0 0 1-.06-.042l-.72-1.247a.086.086 0 0 1 .03-.117l1.33-.768-.125-.218-8.124-27.014c-.638-2.01-2.16-3.744-3.895-4.623-1.936-.982-4.595-.955-6.635.222l-6.461 3.611c-.622.36-2.02.259-2.523-.613-.426-.737 2.883-5.054 6.46-7.269.724-.449 1.015-1.746.752-2.891l.268-.155-1.202-4.557a.045.045 0 0 0-.058-.032l-.124.04a.046.046 0 0 1-.058-.034l-1.02-4.762c-.037-.35 1.381-5.507 1.637-6.434a.36.36 0 0 1 .169-.216l.826-.477c.078.022.14.095.134.189l-.072 1.03a.182.182 0 0 0 .278.167Z"/><path fill="#4E4A43" d="m23.11 64.175 3.252 12.793a.77.77 0 0 1-.29.813l-.756.559c.619 2.44.876 4.687 1.196 7.481.16 1.39.334 2.915.576 4.668.923 6.672 1.942 10.13 4.773 15.209a.516.516 0 0 0 .69.203c7.863-4.147 12.337-6.665 20.002-11.44.466-.268.892-.888.78-1.313l-8.71-24.588a.43.43 0 0 0-.56-.258l-.67.261a1 1 0 0 1-.726-1.863l.752-.293a.43.43 0 0 0 .25-.544L40.95 58.19a.602.602 0 0 0-.868-.32l-10.426 6.02a.516.516 0 0 1-.704-.19l-1.267-2.194a.774.774 0 0 0-1.098-.258l-3.156 2.09a.77.77 0 0 0-.322.836"/><path fill="#47443E" d="M43.609 73.606a.688.688 0 0 1 1.267.078l6.571 18.903a.433.433 0 0 1-.254.544c-7.392 2.86-11.32 5.1-17.312 9.987a.43.43 0 0 1-.616-.074c-1.002-1.366-1.625-2.511-2.068-3.847a.6.6 0 0 1 .032-.444z"/><circle cx="31.3824" cy="94.6766" r="1.23214" fill="#413F39" transform="rotate(-30 31.382 94.677)"/><path fill="#47443E" d="M42.116 65.743a.36.36 0 0 1-.093.372c-.544.522-.817.986-.842 1.47-.025.49.202 1 .706 1.623a.35.35 0 0 1 .045.38L30.607 92.266a.344.344 0 0 1-.648-.11l-2.055-15.768c-.592-4.542 1.108-7.757 5.888-10.417 2.39-1.33 3.887-1.989 6.196-3.004q.202-.09.412-.181a.6.6 0 0 1 .81.353z"/><circle cx="37.939" cy="81.0553" r="3.91302" fill="#3F3C37" transform="rotate(-30 37.939 81.055)"/><circle cx="37.9384" cy="81.057" r="3.57083" fill="#47443E" transform="rotate(-30 37.938 81.057)"/><path stroke="#37342F" stroke-width="1.69525" d="m23.11 64.175 3.252 12.793a.77.77 0 0 1-.29.813l-.756.559c.619 2.44.876 4.687 1.196 7.481.16 1.39.334 2.915.576 4.668.923 6.672 1.942 10.13 4.773 15.209a.516.516 0 0 0 .69.203c7.863-4.147 12.337-6.665 20.002-11.44.466-.268.892-.888.78-1.313l-8.71-24.588a.43.43 0 0 0-.56-.258l-.67.261a1 1 0 0 1-.726-1.863l.752-.293a.43.43 0 0 0 .25-.544L40.95 58.19a.602.602 0 0 0-.868-.32l-10.426 6.02a.516.516 0 0 1-.704-.19l-1.267-2.194a.774.774 0 0 0-1.098-.258l-3.156 2.09a.77.77 0 0 0-.322.836Z"/><path fill="#FFA800" d="m14.083 51.299 4.03-2.47a.182.182 0 0 0 .007-.306l-.727-.492a.18.18 0 0 1-.078-.181l4.122-2.38q.223-.13.41-.31l2.628-2.544a.3.3 0 0 1 .053-.04l13.91-8.03a.18.18 0 0 1 .248.066l2.97 5.144c.733 1.269 2.412 1.602 3.355 1.057l44.3-25.576a.09.09 0 0 1 .124.033l4.199 7.272-79.412 45.849a.09.09 0 0 1-.134-.056l-1.717-6.507a.046.046 0 0 0-.058-.032l-.123.04a.046.046 0 0 1-.059-.034l-1.02-4.763c-.037-.35 1.381-5.506 1.637-6.433a.36.36 0 0 1 .169-.217l.826-.477c.078.022.14.096.134.19l-.072 1.029a.183.183 0 0 0 .278.168"/><path fill="#F09E00" d="M42.795 40.792c.753.357 1.627.36 2.216.02l44.3-25.577a.09.09 0 0 1 .124.033l1.73 2.997L48.373 42.84a3.01 3.01 0 0 1-3.395-.274zM19.23 65.499l-1.457.84-3.268-12.221 1.456-.84zm1.94-1.121-1.456.84-3.268-12.221 1.456-.84zm1.942-1.121-1.456.84-3.269-12.22 1.456-.841zm1.941-1.121-1.456.841-3.269-12.221 1.456-.841zm1.941-1.12-1.456.84-3.269-12.221 1.457-.84zm1.941-1.121-1.456.84-3.268-12.22 1.456-.842zm1.942-1.121-1.457.84-3.268-12.22 1.456-.841zm1.941-1.121-1.456.841-3.27-12.221 1.457-.841zm1.941-1.12-1.456.84-3.269-12.221 1.456-.84zm1.941-1.121-1.456.84-3.269-12.22 1.456-.842zm1.941-1.121-1.456.84-3.269-12.22 1.457-.841zm1.941-1.121-1.456.841-3.268-12.221 1.456-.841zm1.942-1.12-1.457.84L37.8 40.67l1.456-.84z"/><path fill="#DA9000" d="m23.908 46.435-8.067 4.657c-1.546.893-1.949 3.064-1.056 4.61s3.103 2.21 4.65 1.317l.435-.251q.2-.115.417-.19l6.992-2.418c2.076-.755-.511-5.445-1.07-6.287l-.705-1.063a1.197 1.197 0 0 0-1.596-.375"/><path fill="#4E4A43" d="m23.284 46.871-7.349 4.243a3.166 3.166 0 1 0 4.044 4.734l5.49-6.432a.946.946 0 0 0 .068-1.137l-.69-1.04a1.17 1.17 0 0 0-1.563-.368"/><path fill="#44413B" d="m22.952 47.063-2.104 2.647c-.532.668.252 1.578.992 1.151l2.876-1.66c.466-.27.805-.94.569-1.303l-.438-.66a1.17 1.17 0 0 0-1.562-.366z"/><circle cx="17.5185" cy="53.8579" r="1.68207" fill="#44413B" transform="rotate(-30 17.518 53.858)"/><path fill="#3C3934" d="m18.543 55.19-2.35-2.37q.128-.165.299-.296l2.35 2.37q-.127.166-.3.297"/><rect width="1.72597" height="1.13214" x="25.5527" y="52.0771" fill="#BD7E00" rx="0.566069" transform="rotate(-8.936 25.553 52.077)"/><circle cx="23.9686" cy="53.9578" r="0.591851" fill="#ED220D" transform="rotate(-30 23.969 53.958)"/><path stroke="#640" stroke-width="1.69525" d="m14.083 51.299 4.03-2.47a.182.182 0 0 0 .007-.306l-.727-.492a.18.18 0 0 1-.078-.181l4.122-2.38q.223-.13.41-.31l2.628-2.544a.3.3 0 0 1 .053-.04l13.91-8.03a.18.18 0 0 1 .248.066l2.97 5.144c.733 1.269 2.412 1.602 3.355 1.057l44.3-25.576a.09.09 0 0 1 .124.033l4.199 7.272-79.412 45.849a.09.09 0 0 1-.134-.056l-1.717-6.507a.046.046 0 0 0-.058-.032l-.123.04a.046.046 0 0 1-.059-.034l-1.02-4.763c-.037-.35 1.381-5.506 1.637-6.433a.36.36 0 0 1 .169-.217l.826-.477c.078.022.14.096.134.19l-.072 1.029a.183.183 0 0 0 .278.168Z"/></g><defs><clipPath id="a"><path fill="#fff" d="M0 0h110v110H0z"/></clipPath></defs></svg>