<svg xmlns="http://www.w3.org/2000/svg" width="110" height="110" fill="none" viewBox="0 0 110 110"><g clip-path="url(#a)"><path fill="#B85F14" d="m45.658 63.194 1.871-1.08c-.06 1.38.386 2.494 1.52 2.708.221.041.157.444-.108.39-1.187-.24-1.826-.639-2.134-1.61-.397.168-.956-.073-1.149-.408"/><path fill="#CF6B17" d="m47.523 62.27.005-.155-.254.146.002.152c0 .611.102 1.172.332 1.62.262.51.803.805 1.414.92l.158.025c-.008-.074-.05-.14-.133-.155-1.09-.205-1.544-1.245-1.524-2.553"/><path stroke="#5C2F0A" stroke-miterlimit="3.99393" stroke-width="0.528592" d="m45.658 63.194 1.871-1.08c-.06 1.38.386 2.494 1.52 2.708.221.041.157.444-.108.39-1.187-.24-1.826-.639-2.134-1.61-.397.168-.956-.073-1.149-.408Z"/><path fill="#1F6BAD" stroke="#0F3557" stroke-miterlimit="3.99393" stroke-width="1.05718" d="M101.401 15.692a.133.133 0 0 1 .077-.181l1.684-.574a.13.13 0 0 1 .147.044l2.358 3.053-3.548 2.048.525-1.735z"/><path fill="#307EC0" stroke="#143652" stroke-miterlimit="3.99393" stroke-width="1.05718" d="m6.102 80.546 1.183-.684 8.523 14.762a.264.264 0 0 1-.097.361l-.955.552z"/><path fill="#4085BF" fill-rule="evenodd" d="m43.844 63.694 2.067 3.58a.54.54 0 0 1-.198.737l-.315.182c-.404.233-.635.68-.592 1.145l1.178 12.614a.977.977 0 0 1-.969 1.068l-14.782.052c-2.352.008-5.233 2.24-5.499 5.477-.1 1.227-.191 1.456-.934 1.885l-7.243 4.182a.65.65 0 0 1-.89-.238l-8.38-14.516 20.074-11.455a2.64 2.64 0 0 0 1.06-1.126l2.125-4.307a2.64 2.64 0 0 1 1.049-1.12l.706-.407zm-9.522 8.45c2.944-1.7 4.48-.65 4.982.22.922 1.595-.47 3.38-2.295 4.434-2.494 1.44-4.072.847-4.768-.357-.883-1.53.246-3.239 2.081-4.298" clip-rule="evenodd"/><path fill="#3B7AB0" d="m44.804 69.338-1.71.16a.264.264 0 0 0-.24.288l1.115 11.933c.013.136.128.24.265.24l1.748-.007z"/><path fill="#3B7AB0" fill-rule="evenodd" d="M40.399 71.727c-.712-1.233-2.815-2.764-6.674-.536-2.405 1.388-3.836 3.714-2.584 5.88.985 1.708 3.123 2.604 6.393.716 2.393-1.381 4.171-3.798 2.865-6.06m-1.096.635c-.503-.87-2.039-1.92-4.983-.22-1.835 1.06-2.963 2.769-2.08 4.298.695 1.204 2.273 1.797 4.767.357 1.826-1.054 3.217-2.839 2.296-4.435" clip-rule="evenodd"/><path stroke="#1A354C" stroke-miterlimit="3.99393" stroke-width="1.05718" d="m43.844 63.694 2.067 3.58a.54.54 0 0 1-.198.737l-.315.182c-.404.233-.635.68-.592 1.145l1.178 12.614a.977.977 0 0 1-.969 1.068l-14.782.052c-2.352.008-5.233 2.24-5.499 5.477-.1 1.227-.191 1.456-.934 1.885l-7.243 4.182a.65.65 0 0 1-.89-.238l-8.38-14.516 20.074-11.455a2.64 2.64 0 0 0 1.06-1.126l2.125-4.307a2.64 2.64 0 0 1 1.049-1.12l.706-.407zm-9.522 8.45c2.944-1.7 4.48-.65 4.982.22.922 1.595-.47 3.38-2.295 4.434-2.494 1.44-4.072.847-4.768-.357-.883-1.53.246-3.239 2.081-4.298Z" clip-rule="evenodd"/><path fill="#1A5B93" stroke="#0F3557" stroke-miterlimit="3.99393" stroke-width="0.528592" d="m106.73 23.692.716.025a.067.067 0 0 1 .064.068l-.076 2.173a.067.067 0 0 1-.069.063l-.715-.025z"/><path fill="#1F6BAD" stroke="#0F3557" stroke-miterlimit="3.99393" stroke-width="0.528592" d="m105.814 24.8 2.461-1.42a.133.133 0 0 1 .181.049l.66 1.144a.13.13 0 0 1-.048.18l-2.461 1.421z"/><path fill="url(#b)" fill-rule="evenodd" d="m77.318 38.049.991 1.716 28.926-16.7-.125 3.571c-.01.14-.056.198-.148.262l-9.678 6.49-29.868 17.244-4.955-8.583 44.81-24.96c.13-.075.216-.056.213.068l-.124 3.547zm-7.433 2.129a.132.132 0 0 0-.007.224l.281.188c.042.028.096.03.14.004l1.902-1.098a.132.132 0 0 0 .007-.224l-.282-.188a.13.13 0 0 0-.139-.005zm3.538-1.823a.132.132 0 0 1 .007-.224l1.902-1.098a.13.13 0 0 1 .14.004l.281.188a.132.132 0 0 1-.007.224l-1.902 1.099a.13.13 0 0 1-.14-.005zm3.552-2.271a.132.132 0 0 0-.007.224l.282.188c.041.028.096.03.14.005l1.901-1.098a.132.132 0 0 0 .008-.225l-.282-.188a.13.13 0 0 0-.14-.004zm3.538-1.822a.132.132 0 0 1 .007-.225l1.902-1.098a.13.13 0 0 1 .14.005l.282.188a.132.132 0 0 1-.008.224l-1.902 1.098a.13.13 0 0 1-.14-.004zm3.552-2.271a.132.132 0 0 0-.007.224l.282.188c.042.028.096.03.14.004l1.901-1.098a.132.132 0 0 0 .008-.224l-.282-.188a.13.13 0 0 0-.14-.005zm3.538-1.823a.132.132 0 0 1 .007-.224l1.903-1.098a.13.13 0 0 1 .139.004l.282.188a.132.132 0 0 1-.007.224l-1.903 1.099a.13.13 0 0 1-.139-.005zm3.552-2.271a.132.132 0 0 0-.007.224l.282.188c.042.028.096.03.14.005l1.902-1.098a.132.132 0 0 0 .007-.225l-.282-.188a.13.13 0 0 0-.14-.004z" clip-rule="evenodd"/><rect width="10.9023" height="2.97331" x="52.7402" y="51.667" fill="#423224" rx="0.297333" transform="rotate(-30 52.74 51.667)"/><rect width="10.9023" height="2.97331" x="52.7402" y="51.667" fill="#2E78B7" rx="0.297333" transform="rotate(-30 52.74 51.667)"/><path fill="#296BA3" d="m61.14 47.389.43-.248.99 1.717-.428.247z"/><path stroke="#307EC0" stroke-miterlimit="3.99393" stroke-width="0.0238272" d="m56.65 52.394-.678-.738.48-.13-.08.468.458.035-.157.39m-.102-1.275.663.653m-.663-.653-.17.15m.17-.15.17-.15m.333.971.367-.358m-.599-.718.256-.228m0 0 .252-.226m-.252.226.638.735m-.638-.735-.02-.022m.375-.343.669.662.323-.297m-.633-.04.252-.23m-.587-.104.282-.256m1.187.23-.55-.832.444.07.048-.441.7.577m-.148-1.215-.3.304m.04-.015.674.68m.005-.028.32-.311m-.659-.024.304-.28m-.09-.705.503.612m.18.196-.015-.002-.009.02.01.002z"/><path fill="url(#c)" d="m90.42 37.351-1.66-2.875-23.002 13.28 1.66 2.876z"/><path fill="#266397" stroke="#143652" stroke-miterlimit="3.99393" stroke-width="1.05718" d="m11.22 98.118 1.56-1.55-8.405-14.706-2.434.694a.655.655 0 0 0-.353 1.005c3.665 5.23 5.655 8.628 8.407 14.343a.764.764 0 0 0 1.225.214Z"/><path fill="#2E78B8" stroke="#143652" stroke-miterlimit="3.99393" stroke-width="1.05718" d="M4.12 82.002a.13.13 0 0 1 .041-.177l1.94-1.28 8.655 14.991-1.74 1.005a.434.434 0 0 1-.594-.159z"/><ellipse cx="15.1282" cy="85.4068" fill="#296BA3" stroke="#143652" stroke-miterlimit="3.99393" stroke-width="0.528592" rx="1.2849" ry="1.28488" transform="rotate(-30 15.128 85.407)"/><ellipse cx="15.1277" cy="85.4074" fill="#255F93" rx="0.456674" ry="0.456666" transform="rotate(-30 15.128 85.407)"/><path fill="#2E78B8" stroke="#143652" stroke-miterlimit="3.99393" stroke-width="1.05718" d="m9.479 75.623 16.05-9.266 2.342 4.058c.51.882.207 2.011-.675 2.52l-12.854 7.421a1.845 1.845 0 0 1-2.52-.675z"/><path fill="#1F507A" stroke="#143552" stroke-miterlimit="3.99393" stroke-width="0.528592" d="m34.492 54.306.344-.199 1.288 2.232-.343.198z"/><path fill="#FF9133" fill-rule="evenodd" stroke="#662F00" stroke-miterlimit="3.99393" stroke-width="0.528592" d="m103.899 22.702-.382 2.51-1.03.594.382-2.51zm-5.56 5.5.381-2.51-1.03.594-.382 2.51zm-4.797.48-.382 2.509-1.03.595.382-2.51zM87.98 34.18l.382-2.51-1.03.595-.382 2.51zm-4.796.48-.383 2.51-1.03.595.383-2.51z" clip-rule="evenodd"/><path fill="#245D8F" stroke="#143652" stroke-miterlimit="3.99393" stroke-width="0.66074" d="m44.423 63.907-.343.199 1.738 3.01a.66.66 0 0 0 .902.241l4.87-2.812c.317-.182.362-.562.243-.902l-1.28-3.275-.344.199 1.082 2.93c.129.384.074.72-.242.903l-4.184 2.416a.66.66 0 0 1-.902-.242z"/><path fill="#296BA3" stroke="#143652" stroke-miterlimit="3.99393" stroke-width="1.05718" d="m51.643 64.511 15.17-8.755a1.32 1.32 0 0 0 .66-1.163l-.056-3.962-16.864 9.737 1.28 3.274c.112.321.078.676-.19.87Z"/><path fill="#B35200" stroke="#662F00" stroke-miterlimit="3.99393" stroke-width="0.528592" d="m66.12 48.384 21.765-12.567.517.895-15.45 8.92-.325-.068-1.252.723-.325-.069-4.636 2.677z"/><path fill="url(#d)" fill-rule="evenodd" d="m33.134 59.439 1.862-1.533L62.461 42.05l4.956 8.584-31.128 17.97-3.612-8.9zm19.754-7.514a.297.297 0 0 1 .108-.406l8.927-5.154a.297.297 0 0 1 .406.11l1.19 2.06a.297.297 0 0 1-.11.405l-8.926 5.154a.297.297 0 0 1-.406-.109z" clip-rule="evenodd"/><path fill="url(#e)" fill-rule="evenodd" d="m33.134 59.439 1.862-1.533L62.461 42.05l4.956 8.584-31.128 17.97-3.612-8.9zm19.754-7.514a.297.297 0 0 1 .108-.406l8.927-5.154a.297.297 0 0 1 .406.11l1.19 2.06a.297.297 0 0 1-.11.405l-8.926 5.154a.297.297 0 0 1-.406-.109z" clip-rule="evenodd"/><path fill="#7A491F" stroke="#523114" stroke-miterlimit="3.99393" stroke-width="0.528592" d="m35.018 57.589 27.198-15.703.132.229L35.15 57.818z"/><path fill="#A36229" stroke="#523114" stroke-miterlimit="3.99393" stroke-width="0.528592" d="m34.754 57.13.544-.313.264.458-.544.314zm1.215-.701.543-.314.265.458-.544.313zm1.217-.702.543-.314.264.458-.543.313zm1.216-.703.544-.313.264.457-.543.314zm1.218-.703.543-.314.264.458-.544.314zm1.216-.701.544-.315.264.458-.544.314zm14.604-8.432.543-.314.264.457-.543.314zm-12.17 7.026.543-.314.264.458-.543.314zm4.867-2.811.543-.314.265.458-.544.314zm-6.082 3.512.543-.314.265.458-.544.314zm2.431-1.405.544-.313.264.458-.543.313zm1.219-.702.544-.314.264.458-.544.313zm1.215-.703.544-.313.264.457-.544.314zm2.435-1.405.544-.314.264.458-.543.314zm1.215-.702.544-.314.264.458-.543.314zm1.217-.702.544-.314.264.458-.544.314zm1.217-.703.544-.314.264.458-.544.314zm1.216-.703.544-.313.265.458-.544.313zm2.434-1.405.544-.313.264.457-.543.314zm1.217-.702.544-.314.264.458-.544.314zm1.217-.702.544-.314.264.458-.544.314zm1.217-.703.543-.314.265.458-.544.314zm1.103-.637.544-.314.264.458-.544.314z"/><ellipse cx="38.1592" cy="64.8539" fill="#296BA3" rx="0.462522" ry="0.462514" transform="rotate(-30 38.16 64.854)"/><ellipse cx="40.6455" cy="65.1683" fill="#296BA3" rx="0.462522" ry="0.462514" transform="rotate(-30 40.645 65.168)"/><ellipse cx="65.5576" cy="50.222" fill="#296BA3" rx="0.462522" ry="0.462514" transform="rotate(-30 65.558 50.222)"/><ellipse cx="61.8877" cy="43.8636" fill="#296BA3" rx="0.462522" ry="0.462514" transform="rotate(-30 61.888 43.864)"/><path fill="#245D8F" stroke="#143552" stroke-miterlimit="3.99393" stroke-width="0.528592" d="M34.997 56.424a.264.264 0 0 1 .097-.36l2.632-1.52a.396.396 0 0 1 .542.145l.51.882-3.205 1.85z"/><path fill="#296BA3" stroke="#143652" stroke-miterlimit="3.99393" stroke-width="1.05718" d="M31.054 61.148a.79.79 0 0 1 .395-.736l1.23-.71 3.612 8.9-.721.417a.53.53 0 0 1-.7-.158l-1.124-1.634-2.594-4.493z"/><path fill="url(#f)" d="m105.118 19.159 2.313-.475-.05 1.442-1.564-.141-.471 1.414-1.182.954-1.81.773 1.656-.82 1.008-.921.102-.998-2.368 2.225-1.444.415.076.556-.538.33-.071.378-.062-.453.401-.312-.13-.416-1.12.333-.456 1.036-.904.94.795-.994-.03-.638-1.893 1.569-.426.103-.21.623-.522.026-.225.405.19-.552.354-.056-.013-.343-.853.206-.399.314-.318.008.307-.085.118-.16-1.414.335 1.758-.654-.17-.174-.58-.212.608.042.578.189 1.04-.321.219-.195-.148-.05-.22-.016.263-.084.252.002.68-.638-.698-.196-.495.212.594-.477.98.104.621-.582.412-.152-.265-.35-.442-.13.589-.108.529.435 2.311-.856-.744-.22-1.224.262 1.101-.473 1.33.055.853-.913-.672-.177-.556.185-1.15-.144 1.015-.09.833-.419 1.194-.034z"/><path fill="url(#g)" d="m105.574 25.598 1.62-1.342-.061 1.727-.921.72-1.076.475-.333.73-.604.212.431-.346-.042-.417-.538.175-1.451.89-.358.573-.437.17.4-.295.043-.211-.602.375-1.173.392-.335.45-.495.201.322-.253-.078-.202-.586.196-.49.3-.192.294-.429.222.331-.216-.016-.112-1.593.977.894-.865-.084-.031-.199.114.205-.219.284-.062.825-.798-.116-.04-.342.062-.169-.205.227.087.407-.175.267.006 1.167-.424-.365-.175-.116-.027-.195.182-.202.017.134-.037.147-.19-.233-.056-.34.106.385-.234.581-.115.197.08.082-.222.179-.122-.109.11.044.313.394.158.583-.212 1.084-.825-.336-.056-.494.1-.232.319.09-.353.567-.358.236-.016-.045-.257-.225-.139.303-.006.204.386.474-.033.541-.413.982-.53-.244-.225-.649.195-.344-.376.376.125.692-.4.66.416z"/><path fill="#8A470F" d="M62.413 50.046c0-.204.22-.33.396-.229l1.685.973a.264.264 0 0 1 0 .458l-1.685.972a.264.264 0 0 1-.396-.229z"/><path fill="#FF7400" d="M62.578 50.331c0-.203.22-.33.396-.229l1.19.687a.264.264 0 0 1 0 .458l-1.19.686a.264.264 0 0 1-.396-.228z"/><path fill="#0F518A" d="M62.818 50.29a.13.13 0 0 0-.045.178l.424.683a.102.102 0 0 0 .177-.102l-.38-.71a.13.13 0 0 0-.176-.05m.67 1.161a.099.099 0 1 0-.099-.171.099.099 0 0 0 .1.171"/><ellipse cx="35.9541" cy="56.4374" fill="#1D4B72" rx="0.103693" ry="0.103691" transform="rotate(-30 35.954 56.437)"/><ellipse cx="35.0856" cy="54.9363" fill="#225886" stroke="#143552" stroke-miterlimit="3.99393" stroke-width="0.528592" rx="0.351473" ry="0.351467" transform="rotate(-30 35.086 54.936)"/><path fill="#1F507A" d="M61.748 43.623h.278l.14.24-.14.242h-.278l-.14-.241zm3.672 6.359h.278l.139.241-.14.241h-.277l-.14-.241zm-27.4 14.63h.277l.14.24-.14.242h-.278l-.139-.241zm2.488.316h.278l.139.241-.14.241h-.277l-.14-.24z"/><path fill="#2687D9" stroke="#0F3657" stroke-miterlimit="3.99393" stroke-width="0.528592" d="M44.336 61.326a.645.645 0 0 1 .062.91l-1.182 1.356a.19.19 0 0 1-.271.019.19.19 0 0 1-.02-.271l.119-.136c.338-.388.405-.86.284-1.118a.645.645 0 0 1 1.008-.76Z"/><path stroke="#C76614" stroke-width="0.0183485" d="m105.017 25.075.145.446.171-.065m-.229-.147.144-.066m-.219-.162.162-.074m.171-.09.096.468m-.07-.469.341.365m-.303-.154.097-.045m.03-.26.209-.094m-.097.05.178.423m.013-.526.17.428m-.069-.204.146-.074m-.111-.212.206.406m-.069-.27.217-.172.143-.237.059-.22m-.114.056.121-.07.037.07m-1.89 1.055.185.404.098-.27z"/><path stroke="url(#h)" stroke-miterlimit="3.99393" stroke-width="1.05718" d="m33.134 59.439 1.862-1.533L62.461 42.05l4.956 8.584-31.128 17.97-3.612-8.9z" clip-rule="evenodd"/><rect width="10.9023" height="2.97331" x="52.7402" y="51.667" stroke="#143652" stroke-miterlimit="3.99393" stroke-width="0.528592" rx="0.297333" transform="rotate(-30 52.74 51.667)"/><path stroke="url(#i)" stroke-miterlimit="3.99393" stroke-width="1.05718" d="m77.318 38.049.991 1.716 28.926-16.7-.125 3.571c-.01.14-.056.198-.148.262l-9.678 6.49-29.868 17.244-4.955-8.583 44.81-24.96c.13-.075.216-.056.213.068l-.124 3.547z"/><path stroke="url(#j)" stroke-miterlimit="3.99393" stroke-width="0.528592" d="M69.884 40.177a.132.132 0 0 0-.007.224l.282.188c.042.028.096.03.14.005l1.901-1.098a.132.132 0 0 0 .008-.225l-.282-.188a.13.13 0 0 0-.14-.004z"/><path stroke="url(#k)" stroke-miterlimit="3.99393" stroke-width="0.528592" d="M73.422 38.355a.132.132 0 0 1 .007-.225l1.902-1.098a.13.13 0 0 1 .14.005l.282.188a.132.132 0 0 1-.007.224l-1.903 1.098a.13.13 0 0 1-.14-.004z"/><path stroke="url(#l)" stroke-miterlimit="3.99393" stroke-width="0.528592" d="M76.974 36.084a.132.132 0 0 0-.007.224l.282.188c.042.028.096.03.14.004l1.902-1.098a.132.132 0 0 0 .007-.224l-.282-.188a.13.13 0 0 0-.14-.005z"/><path stroke="url(#m)" stroke-miterlimit="3.99393" stroke-width="0.528592" d="M80.512 34.261a.132.132 0 0 1 .007-.224l1.903-1.099a.13.13 0 0 1 .139.005l.282.188a.132.132 0 0 1-.007.224l-1.903 1.099a.13.13 0 0 1-.139-.005z"/><path stroke="url(#n)" stroke-miterlimit="3.99393" stroke-width="0.528592" d="M84.065 31.99a.132.132 0 0 0-.008.224l.282.188c.042.028.096.03.14.005l1.902-1.098a.132.132 0 0 0 .007-.225l-.282-.188a.13.13 0 0 0-.14-.004z"/><path stroke="url(#o)" stroke-miterlimit="3.99393" stroke-width="0.528592" d="M87.602 30.168a.132.132 0 0 1 .008-.225l1.902-1.098a.13.13 0 0 1 .14.005l.281.188a.132.132 0 0 1-.007.224l-1.902 1.098a.13.13 0 0 1-.14-.004z"/><path stroke="url(#p)" stroke-miterlimit="3.99393" stroke-width="0.528592" d="M91.155 27.896a.132.132 0 0 0-.008.225l.282.188c.042.028.096.03.14.004l1.902-1.098a.132.132 0 0 0 .007-.224l-.282-.188a.13.13 0 0 0-.14-.005z"/><path fill="#3386CC" d="M64.379 43.766a.13.13 0 0 1 .048-.18l11.215-6.476a.13.13 0 0 1 .181.048l1.19 2.06a.13.13 0 0 1-.049.18l-11.216 6.476a.13.13 0 0 1-.18-.048z"/><path fill="#3380CC" d="m65.457 42.99 9.156-5.286 1.321 2.29-9.156 5.285z"/><ellipse cx="75.8458" cy="38.5174" fill="#2E78B7" rx="0.330373" ry="0.330367" transform="rotate(-30 75.846 38.517)"/><ellipse cx="65.545" cy="44.4647" fill="#2E78B7" rx="0.330373" ry="0.330367" transform="rotate(-30 65.545 44.465)"/><path fill="#2E78B7" d="m66 42.676.687-.397 1.321 2.29-.687.396zm1.23-.709.687-.397 1.322 2.29-.687.396zm1.23-.712.688-.397 1.321 2.29-.687.396zm1.231-.709.687-.397 1.322 2.29-.687.396zm1.229-.71.687-.397 1.321 2.29-.687.396zm1.232-.711.687-.396 1.321 2.288-.686.397zm1.228-.71.688-.396 1.321 2.288-.687.397z"/><path fill="#245E8F" d="M65.44 44.282h.21l.106.183-.105.182h-.211l-.106-.182zm10.3-5.947h.212l.105.183-.106.183h-.21l-.106-.183z"/><path stroke="#143652" stroke-miterlimit="3.99393" stroke-width="0.528592" d="M64.379 43.766a.13.13 0 0 1 .048-.18l11.215-6.476a.13.13 0 0 1 .181.048l1.19 2.06a.13.13 0 0 1-.049.18l-11.216 6.476a.13.13 0 0 1-.18-.048z"/><path fill="#296BA3" d="M75.393 42.193c-.505.292-.76.881-.625 1.449l.628 2.655a.66.66 0 0 0 .973.42l12.81-7.395c.193-.111.47-.272.753-.126.326.168.68.208.946.055a.554.554 0 0 0 .204-.756l-1.99-3.447a.66.66 0 0 0-.903-.242z"/><path fill="#1B5E98" d="m88.012 37.924.171-.1.897 1.554-.171.1zm-1.03.595.172-.1.897 1.554-.172.1zm-1.031.595.172-.099.897 1.554-.172.099zm-1.031.595.172-.1.897 1.554-.172.1zm-1.03.595.172-.1.897 1.554-.171.1zm-1.029.594.172-.1.897 1.554-.172.1zm-1.029.594.172-.099.897 1.554-.172.099zm-1.032.595.172-.1.897 1.554-.171.1zm-1.028.595.171-.1.897 1.554-.172.1zm-1.03.594.172-.099.897 1.554-.172.099zm-1.032.595.173-.099.897 1.554-.172.099z"/><path fill="#2F7BBC" d="M75.393 42.193c-.505.292-.76.881-.625 1.449l.628 2.655a.66.66 0 0 0 .973.42l.112-.064-.613-2.592a1.32 1.32 0 0 1 .625-1.449L87.41 36.31a.66.66 0 0 1 .902.242l1.501 2.6q.06.013.12.044c.326.168.68.208.945.055a.554.554 0 0 0 .208-.752l-1.996-3.456-.034-.052a.66.66 0 0 0-.866-.185z"/><path fill="#E6771A" d="M88.972 34.577a.13.13 0 0 0-.048.18l1.916 3.319.941-.544a.13.13 0 0 0 .05-.05l.622-1.108a.13.13 0 0 0 0-.13L90.925 33.6a.13.13 0 0 0-.18-.049z"/><ellipse cx="89.5338" cy="34.8251" fill="#B86014" rx="0.24778" ry="0.247775" transform="rotate(-30 89.534 34.825)"/><ellipse cx="90.6783" cy="34.1639" fill="#B86014" rx="0.24778" ry="0.247775" transform="rotate(-30 90.678 34.164)"/><ellipse cx="90.6021" cy="36.6737" fill="#B86014" rx="0.24778" ry="0.247775" transform="rotate(-30 90.602 36.674)"/><ellipse cx="91.7467" cy="36.0126" fill="#B86014" rx="0.24778" ry="0.247775" transform="rotate(-30 91.747 36.013)"/><path fill="#8A480F" d="M89.458 34.689h.155l.077.134-.077.134h-.155l-.078-.134zm1.142-.659h.155l.078.134-.078.134h-.154l-.078-.134zm-.074 2.51h.155l.078.133-.078.135h-.155l-.077-.135zm1.143-.66h.155l.077.133-.077.134h-.155l-.078-.134z"/><path stroke="#5C300A" stroke-miterlimit="3.99393" stroke-width="0.528592" d="M88.972 34.577a.13.13 0 0 0-.048.18l1.916 3.319.941-.544a.13.13 0 0 0 .05-.05l.622-1.108a.13.13 0 0 0 0-.13L90.925 33.6a.13.13 0 0 0-.18-.049z"/><path stroke="#143652" stroke-miterlimit="3.99393" stroke-width="0.528592" d="M75.393 42.193c-.505.292-.76.881-.625 1.449l.628 2.655a.66.66 0 0 0 .973.42l12.81-7.395c.193-.111.47-.272.753-.126.326.168.68.208.946.055a.554.554 0 0 0 .204-.756l-1.99-3.447a.66.66 0 0 0-.903-.242z"/></g><defs><linearGradient id="b" x1="65.1071" x2="109.357" y1="46.6322" y2="20.6957" gradientUnits="userSpaceOnUse"><stop stop-color="#FF7500"/><stop offset="1" stop-color="#B85F14"/></linearGradient><linearGradient id="c" x1="66.6443" x2="89.4349" y1="49.2923" y2="35.8248" gradientUnits="userSpaceOnUse"><stop stop-color="#F57000"/><stop offset="1" stop-color="#CC650A"/></linearGradient><linearGradient id="d" x1="64.9388" x2="32.7073" y1="46.3409" y2="59.2275" gradientUnits="userSpaceOnUse"><stop stop-color="#E66B00"/><stop offset="1" stop-color="#996333"/></linearGradient><linearGradient id="e" x1="32.7073" x2="64.9389" y1="59.2276" y2="46.341" gradientUnits="userSpaceOnUse"><stop offset="1.05967e-09" stop-color="#1A88E6" stop-opacity="0.7"/><stop offset="1" stop-color="#008AFF" stop-opacity="0"/></linearGradient><linearGradient id="f" x1="108.738" x2="95.3928" y1="20.9479" y2="28.6529" gradientUnits="userSpaceOnUse"><stop stop-color="#08F"/><stop offset="1" stop-color="#08F" stop-opacity="0.5"/></linearGradient><linearGradient id="g" x1="108.738" x2="95.3928" y1="20.9479" y2="28.6529" gradientUnits="userSpaceOnUse"><stop stop-color="#08F"/><stop offset="1" stop-color="#08F" stop-opacity="0.5"/></linearGradient><linearGradient id="h" x1="31.334" x2="64.9389" y1="60.0205" y2="46.341" gradientUnits="userSpaceOnUse"><stop stop-color="#003666"/><stop offset="1" stop-color="#662F00"/></linearGradient><linearGradient id="i" x1="64.9387" x2="109.506" y1="46.3404" y2="20.6094" gradientUnits="userSpaceOnUse"><stop stop-color="#663000"/><stop offset="1" stop-color="#5C300A"/></linearGradient><linearGradient id="j" x1="64.938" x2="109.505" y1="46.3399" y2="20.6088" gradientUnits="userSpaceOnUse"><stop stop-color="#663000"/><stop offset="1" stop-color="#5C300A"/></linearGradient><linearGradient id="k" x1="64.938" x2="109.505" y1="46.3399" y2="20.6088" gradientUnits="userSpaceOnUse"><stop stop-color="#663000"/><stop offset="1" stop-color="#5C300A"/></linearGradient><linearGradient id="l" x1="64.938" x2="109.505" y1="46.3399" y2="20.6088" gradientUnits="userSpaceOnUse"><stop stop-color="#663000"/><stop offset="1" stop-color="#5C300A"/></linearGradient><linearGradient id="m" x1="64.938" x2="109.505" y1="46.3399" y2="20.6088" gradientUnits="userSpaceOnUse"><stop stop-color="#663000"/><stop offset="1" stop-color="#5C300A"/></linearGradient><linearGradient id="n" x1="64.938" x2="109.505" y1="46.3399" y2="20.6088" gradientUnits="userSpaceOnUse"><stop stop-color="#663000"/><stop offset="1" stop-color="#5C300A"/></linearGradient><linearGradient id="o" x1="64.938" x2="109.505" y1="46.3399" y2="20.6088" gradientUnits="userSpaceOnUse"><stop stop-color="#663000"/><stop offset="1" stop-color="#5C300A"/></linearGradient><linearGradient id="p" x1="64.938" x2="109.505" y1="46.3399" y2="20.6088" gradientUnits="userSpaceOnUse"><stop stop-color="#663000"/><stop offset="1" stop-color="#5C300A"/></linearGradient><clipPath id="a"><path fill="#fff" d="M0 0h110v110H0z"/></clipPath></defs></svg>