<svg xmlns="http://www.w3.org/2000/svg" width="163" height="20" fill="none" viewBox="0 0 163 20"><g clip-path="url(#a)"><path fill="#4084BF" d="M2.412 5.062h52.16c.45 0 .81.518.81 1.166v6.994c0 .64-.36 1.167-.81 1.167H2.412c-.45 0-.81-.519-.81-1.167V6.228c0-.64.36-1.166.81-1.166"/><path fill="#266397" stroke="#091825" stroke-width="1.5" d="M1.602 5.062h3.021v9.327H1.602z"/><path stroke="#0B1822" stroke-width="3" d="M2.412 5.062h52.16c.45 0 .81.518.81 1.166v6.994c0 .64-.36 1.167-.81 1.167H2.412c-.45 0-.81-.519-.81-1.167V6.228c0-.64.36-1.166.81-1.166Z"/><path fill="#296BA3" stroke="#071827" stroke-width="3" d="M55.382 5.062h-4.72v9.326h4.72z"/><path fill="#E57719" stroke="#291605" stroke-width="3" d="M151.592 3.79h-1.68v11.87h1.68z"/><path fill="#296BA3" stroke="#071827" stroke-width="3" d="M112.872 1.5h18.47c.33 0 .6.48.6 1.08v14.3c0 .6-.27 1.08-.6 1.08h-18.47c-.33 0-.6-.48-.6-1.08V2.58c0-.6.27-1.08.6-1.08Zm-12.2 14.3h.8c-.1.84-.1 1.28 0 2.1 0 .06 0 .07-.06.03-.05-.04-.25-.24-.31-.37-.23-.44-.43-1.23-.43-1.76Z"/><path fill="url(#b)" d="M101.602 3.66h-46.22V15.8h46.22z"/><path fill="url(#c)" d="M56.522 3.66h43.95c.62 0 1.13.56 1.13 1.26v9.62c0 .7-.51 1.26-1.13 1.26h-43.95c-.62 0-1.13-.56-1.13-1.26V4.92c0-.7.51-1.26 1.13-1.26"/><path fill="#7A491F" d="M97.602 7.03h-41.93v5.4h41.93z"/><path fill="#A36229" d="M56.692 7.03h-1.02v5.4h1.02zm2.28 0h-1.02v5.4h1.02zm2.28 0h-1.02v5.4h1.02zm2.28 0h-1.02v5.4h1.02zm2.28 0h-1.02v5.4h1.02zm2.28 0h-1.02v5.4h1.02zm27.37 0h-1.02v5.4h1.02zm-22.81 0h-1.02v5.4h1.02zm9.13 0h-1.02v5.4h1.02zm-11.41 0h-1.02v5.4h1.02zm4.56 0h-1.02v5.4h1.02zm2.28 0h-1.02v5.4h1.02zm2.29 0h-1.02v5.4h1.02zm4.56 0h-1.02v5.4h1.02zm2.28 0h-1.02v5.4h1.02zm2.28 0h-1.02v5.4h1.02zm2.28 0h-1.02v5.4h1.02zm2.28 0h-1.02v5.4h1.02zm4.56 0h-1.02v5.4h1.02z"/><path fill="url(#d)" stroke="url(#e)" stroke-width="3" d="m101.862 3.66 58.29 1.07c.25 0 .45.37.45.81v8.38c0 .44-.2.8-.45.81l-58.29 1.07z"/><path fill="#1F6BAD" stroke="#071827" stroke-width="1.5" d="M154.992 8.12h-4.45c-.37 0-.67.3-.67.67v1.66c0 .37.3.67.67.67h4.45c.37 0 .67-.3.67-.67V8.79c0-.37-.3-.67-.67-.67Z"/><path stroke="#251609" stroke-width="1.5" d="M96.672 7.03h-40.07a.93.93 0 0 0-.93.93v3.54c0 .514.416.93.93.93h40.07a.93.93 0 0 0 .93-.93V7.96a.93.93 0 0 0-.93-.93Z"/><path stroke="url(#f)" stroke-width="3" d="m56.682 3.65 44.92.01V15.8h-44.92c-.72 0-1.3-.65-1.3-1.45V5.1c0-.8.58-1.45 1.3-1.45Z"/><path fill="#296BA3" d="M61.622 7.3h-5.15c-.24 0-.43.24-.43.54v3.78c0 .3.19.54.43.54h5.15c.24 0 .43-.24.43-.54V7.84c0-.3-.19-.54-.43-.54"/><path fill="#1F507A" d="M57.292 8.51h-.64v2.43h.64z"/><path stroke="#071827" stroke-width="3" d="M61.622 7.3h-5.15c-.24 0-.43.24-.43.54v3.78c0 .3.19.54.43.54h5.15c.24 0 .43-.24.43-.54V7.84c0-.3-.19-.54-.43-.54Z"/></g><defs><linearGradient id="b" x1="101.452" x2="55.5318" y1="12.6102" y2="6.85016" gradientUnits="userSpaceOnUse"><stop stop-color="#E66B00"/><stop offset="1" stop-color="#996333"/></linearGradient><linearGradient id="c" x1="55.6721" x2="101.312" y1="6.86016" y2="12.5902" gradientUnits="userSpaceOnUse"><stop stop-color="#1A88E6" stop-opacity="0.7"/><stop offset="1" stop-color="#008AFF" stop-opacity="0"/></linearGradient><linearGradient id="d" x1="101.802" x2="160.382" y1="9.73016" y2="9.08016" gradientUnits="userSpaceOnUse"><stop stop-color="#FF7500"/><stop offset="1" stop-color="#B85F14"/></linearGradient><linearGradient id="e" x1="101.212" x2="161.262" y1="9.73016" y2="9.73016" gradientUnits="userSpaceOnUse"><stop stop-color="#2E1500"/><stop offset="1" stop-color="#291605"/></linearGradient><linearGradient id="f" x1="55.4418" x2="101.932" y1="6.67039" y2="12.5004" gradientUnits="userSpaceOnUse"><stop stop-color="#071927"/><stop offset="1" stop-color="#2E1500"/></linearGradient><clipPath id="a"><path fill="#fff" d="M.102 0h162v19.46h-162z"/></clipPath></defs></svg>