<svg xmlns="http://www.w3.org/2000/svg" width="110" height="110" fill="none" viewBox="0 0 110 110"><path fill="#545759" stroke="#323334" stroke-width="0.566194" d="m30.443 68.014 8.379-4.838 1.319 2.285a.283.283 0 0 1-.104.387l-7.888 4.554a.283.283 0 0 1-.387-.103z"/><path fill="#464749" d="m38.953 54.618.231-.131a.155.155 0 0 1 .211.057l.876 1.517 2.285-1.32-.948-1.642z"/><path fill="#434446" d="m40.043 55.667-.393-.68 1.967-1.135.187.324a.39.39 0 0 1-.137.527z"/><path fill="#414244" stroke="#323334" stroke-width="0.283097" d="m72.875 37.874-.184.106 1.069 1.852.184-.107z"/><path fill="#393B3C" stroke="#323334" stroke-width="0.283097" d="m57.379 44.363.793-.458.699 1.21-.794.458z"/><path fill="#4A4D4F" fill-rule="evenodd" d="m41.666 53.202 16.406-9.472.839 1.452-16.406 9.472zm14.319-7.66a.223.223 0 1 1-.387.223.223.223 0 0 1 .386-.223m.328 1.015a.223.223 0 1 0-.223-.386.223.223 0 0 0 .223.386m.793-1.662a.223.223 0 1 1-.386.223.223.223 0 0 1 .386-.223m.328 1.014a.223.223 0 1 0-.223-.386.223.223 0 0 0 .224.386m.607-1.554a.223.223 0 1 1-.387.223.223.223 0 0 1 .387-.223m.328 1.015a.223.223 0 1 0-.223-.386.223.223 0 0 0 .223.386" clip-rule="evenodd"/><path stroke="#323334" stroke-width="0.566194" d="m41.666 53.202 16.406-9.472.839 1.452-16.406 9.472z" clip-rule="evenodd"/><path fill="#434547" d="M72.744 38.077 59.957 45.46l.959 1.66 12.786-7.383z"/><rect width="7.81884" height="0.443342" x="65.5645" y="43.0723" fill="#414344" rx="0.221671" transform="rotate(-30 65.564 43.072)"/><rect width="7.81884" height="0.353352" x="65.8262" y="43.5225" fill="#414344" rx="0.176676" transform="rotate(-30 65.826 43.523)"/><rect width="7.81884" height="0.353352" x="65.3496" y="42.7021" fill="#414344" rx="0.176676" transform="rotate(-30 65.35 42.702)"/><rect width="7.81884" height="0.166861" x="65.2285" y="42.4922" fill="#414344" rx="0.0834307" transform="rotate(-30 65.228 42.492)"/><rect width="7.81884" height="0.166861" x="66.0391" y="43.8936" fill="#414344" rx="0.0834307" transform="rotate(-30 66.04 43.894)"/><path stroke="#323334" stroke-width="0.566194" d="M72.744 38.077 59.957 45.46l.959 1.66 12.786-7.383z"/><path fill="#464749" d="m42.85 55.251 17.072-9.857 1.032 1.788-17.072 9.857z"/><path fill="#414244" d="M56.003 48.85a.38.38 0 0 1 .14-.52l3.447-1.99c.183-.106.684-.199.79-.016.105.182-.226.57-.408.675l-3.448 1.991a.38.38 0 0 1-.52-.14m.412.72c-.045-.08.066-.229.248-.334l3.448-1.99c.182-.106.636-.282.681-.203s-.334.383-.516.488l-3.448 1.99c-.182.106-.367.127-.413.049m-.83-1.439c-.045-.079.066-.228.248-.333l3.448-1.99c.182-.106.635-.283.68-.204.046.08-.333.383-.515.489l-3.448 1.99c-.182.106-.367.127-.413.048"/><path stroke="#323334" stroke-width="0.566194" d="m42.85 55.251 17.072-9.857 1.032 1.788-17.072 9.857z"/><path fill="#414344" fill-rule="evenodd" stroke="#323334" stroke-width="0.283097" d="M10.802 78.09a.08.08 0 0 0-.037.104l.323.683a.08.08 0 0 0 .104.037l.328-.155a.08.08 0 0 0 .037-.103l-.323-.684a.08.08 0 0 0-.104-.037zm.492.616a.133.133 0 1 0-.113-.24.133.133 0 0 0 .113.24Z" clip-rule="evenodd"/><path fill="#343637" d="m20.764 68.46.185.353 16.384-9.564-1.276-2.21-11.17 6.402a.39.39 0 0 0-.146.524l.52.937a.465.465 0 0 1-.18.632l-4.132 2.303a.465.465 0 0 0-.185.623"/><path fill="#414344" stroke="#323334" stroke-width="0.283097" d="m24.469 63.969 2.802-1.618.193.334-2.802 1.618z"/><path fill="#4D4F51" d="m36.042 57.013-8.68 5.01a.54.54 0 0 0-.114.222l-.418 1.672a.4.4 0 0 0 .05.303l.522.828 9.932-5.797z"/><path fill="#464749" d="m36.952 58.589-.258-.082-1.783 1.029-.168-.291.078-.579-3.09 1.72a.2.2 0 0 0 .015.063c.47 1.03-.617 2.015-1.482 2.554-.707.44-2.043 1.24-2.415 1.318-.118.025-.257.041-.353-.044-.113-.102-.167-.324-.06-.525l.018-.036-.02.015-.615.305a.4.4 0 0 0 .06.184l.625 1.005 9.932-5.797z"/><path fill="#404244" d="M27.393 62.335c.195.49.341.856.045 1.417-.107.201-.053.423.06.524.097.086.236.07.354.045.371-.079 1.708-.877 2.415-1.318.864-.54 1.95-1.525 1.482-2.554a.2.2 0 0 1-.014-.117c.054-.33-.265-.575-.414-.577l-3.906 2.24c-.035.1-.046.28-.022.34"/><path fill="#4D4F51" d="M6.1 80.648 4.733 78.28l32.602-19.03-.647-1.12 5.868-3.389 2.14 3.705a.233.233 0 0 1-.084.317L25.575 69.968 6.628 80.79a.39.39 0 0 1-.528-.143"/><path fill="#343637" stroke="#323334" stroke-width="0.283097" d="m30.713 71.75-.31-1.043.405-.177.162 1.165c.022.162-.21.212-.257.056Z"/><path fill="#3E4041" stroke="#323334" stroke-width="0.283097" d="M26.747 71.253c-.594.08-1.08-.261-1.292-.74l-.373.216c.32.555 1.006 1.08 1.744.758.136-.06.068-.254-.08-.234Z"/><path fill="#45484A" stroke="#323334" stroke-width="0.283097" d="m28.98 70.876.562-1.35-.143-.06-.562 1.35a.3.3 0 0 1-.134.152l-3.382 1.898a.155.155 0 0 1-.215-.066l-.29-.586-.14.069.292.586a.31.31 0 0 0 .43.132l3.38-1.898a.47.47 0 0 0 .202-.227Z"/><path fill="#434547" stroke="#323334" stroke-width="0.283097" d="m28.73 68.406 1.458 2.524.711-.41-1.583-2.824-.914.528z"/><path fill="#4C3A34" stroke="#3D2E29" stroke-width="0.566194" d="m20.866 73.694-.267-.463 3.762-2.173.433 1.068a.54.54 0 0 1-.014.44l-.09.188c-.147.303-.179.65-.09.975l.74 2.703a2.6 2.6 0 0 0 .39.828.93.93 0 0 1-.372 1.382l-.722.332a1.32 1.32 0 0 1-1.82-.84l-.95-3.378a1.33 1.33 0 0 0-.773-.864.47.47 0 0 1-.227-.198Z"/><path fill="#423F3E" stroke="#353231" stroke-width="0.566194" d="m24.651 71.77-.289-.713L20.6 73.23l.129.225z"/><path fill="#414344" stroke="#323334" stroke-width="0.283097" d="m10.857 83.559 3.108-1.795.169.292-3.108 1.795z"/><path fill="#505254" stroke="#323334" stroke-width="0.283097" d="m43.205 55.867.907 1.57-5.402 3.272a3 3 0 0 0-.57.443l-.24.236a.078.078 0 0 1-.13-.044l-.049-.324a.8.8 0 0 0-.095-.273l-.697-1.208z"/><path fill="#393B3C" stroke="#323334" stroke-width="0.283097" d="m41.409 52.759.197.342c-7.91 4.532-15.845 9.02-23.77 13.525l-.066-.114.034-.125zM11.406 83.63l2.351-1.357.183.317-2.351 1.357z"/><circle cx="38.7912" cy="61.3717" r="0.383308" fill="#5C5E61" transform="rotate(-30 38.791 61.372)"/><circle cx="28.5607" cy="67.0075" r="0.383308" fill="#57595C" transform="rotate(-30 28.56 67.007)"/><circle cx="26.8576" cy="68.4437" r="0.171731" fill="#707376" transform="rotate(-30 26.858 68.444)"/><circle cx="13.8861" cy="74.8507" r="0.368396" fill="#5C5E61" transform="rotate(-30 13.886 74.85)"/><circle cx="11.4153" cy="77.0343" r="0.368396" fill="#5C5E61" transform="rotate(-30 11.415 77.034)"/><circle cx="12.1478" cy="75.8526" r="0.368396" fill="#5C5E61" transform="rotate(-30 12.148 75.853)"/><circle cx="43.7092" cy="58.5339" r="0.383308" fill="#5C5E61" transform="rotate(-30 43.71 58.534)"/><circle cx="42.2795" cy="57.5885" r="0.383308" fill="#5C5E61" transform="rotate(-30 42.28 57.589)"/><circle cx="40.5119" cy="58.6091" r="0.383308" fill="#5C5E61" transform="rotate(-30 40.512 58.61)"/><path fill="#3F454A" d="m4.867 78.805-1.77-3.386-1.945 1.082a1.55 1.55 0 0 0-.64 2.034l.191.392a3.1 3.1 0 0 0 .687.923l.216.2a11.6 11.6 0 0 1 2.578 3.466l.657 1.35a1.86 1.86 0 0 0 2.623.786l5.715-3.392a5.7 5.7 0 0 1 1.232-.547l1.632-.505c.72-.222.732-1.236.017-1.476l-.068-.023a1.71 1.71 0 0 1-1.141-1.333l-.352-2.082-2.845 1.626.236.14a.78.78 0 0 1 .362.494l.256 1.122a1.47 1.47 0 0 1-.689 1.597l-2.012 1.184a.465.465 0 0 1-.645-.18l-1.21-2.243-1.324.756a.39.39 0 0 1-.528-.142l-1.106-1.916z"/><path fill="#34383C" stroke="#2F3337" stroke-width="0.283097" d="m1.726 76.182.797 1.702.545 1.135 4.411 6.624c-.936.555-2.162.201-2.638-.777l-.657-1.35a11.6 11.6 0 0 0-2.578-3.466l-.216-.2a3.1 3.1 0 0 1-.687-.923l-.191-.392a1.55 1.55 0 0 1 .64-2.034z"/><path fill="#505254" stroke="#323334" stroke-width="0.566194" d="m29.33 67.756 1.57 2.804a.233.233 0 0 0 .353.064l5.172-4.375q.29-.245.536-.533l1.887-2.213a.85.85 0 0 0 .108-.946l-.185-.358z"/><path fill="#3B3D3F" stroke="#323334" stroke-width="0.566194" d="m57.998 43.604 2.549-1.472a.31.31 0 0 1 .423.114l.764 1.323a.39.39 0 0 0 .53.142l.395-.229a.08.08 0 0 1 .106.029l1.324 2.293-2.075 1.199-1.204-2.084c-.095-.165-.375-.38-.555-.277l-1.243.718z"/><path fill="#9DA1A4" stroke="#313335" stroke-width="0.283097" d="m52.419 46.4.476.183L41.606 53.1l-.198-.342z"/><path fill="#B0B3B5" fill-rule="evenodd" d="M56.184 47.656c.6.94.896 1.49 1.318 2.531L46.776 56.38l.256.443-.218.46-2.092 1.208L41.61 53.1l11.29-6.518zm-4.96 1.456a.155.155 0 0 0-.056.212l.093.16c.042.075.137.1.211.057l1.693-.977a.155.155 0 0 0 .057-.212l-.093-.16a.155.155 0 0 0-.211-.057zm-2.446 1.592a.155.155 0 0 1 .056-.212l1.693-.977a.155.155 0 0 1 .212.057l.093.16a.155.155 0 0 1-.057.212l-1.693.977a.155.155 0 0 1-.212-.056zm-2.334 1.168a.155.155 0 0 0-.057.212l.093.16c.043.075.138.1.212.057l1.693-.977a.155.155 0 0 0 .056-.212l-.092-.16a.155.155 0 0 0-.212-.057zm-2.447 1.592a.155.155 0 0 1 .057-.212l1.692-.977a.155.155 0 0 1 .212.057l.093.16a.155.155 0 0 1-.057.212l-1.693.977a.155.155 0 0 1-.212-.056zm12.175-4.078a.302.302 0 1 0-.301-.522.302.302 0 0 0 .301.522m-9.918 5.271a.155.155 0 0 1 .057-.211l1.693-.978a.155.155 0 0 1 .211.057l.093.16a.155.155 0 0 1-.057.212l-1.692.978a.155.155 0 0 1-.212-.057zm2.39-1.38a.155.155 0 0 1 .057-.211l1.693-.978a.155.155 0 0 1 .212.057l.092.16a.155.155 0 0 1-.056.212l-1.693.978a.155.155 0 0 1-.212-.057zm2.448-1.592a.155.155 0 0 0-.057.212l.093.16c.042.075.137.1.211.057l1.693-.977a.155.155 0 0 0 .057-.212l-.093-.16a.155.155 0 0 0-.212-.057zm2.39-1.38a.155.155 0 0 0-.057.212l.093.16c.043.075.138.1.212.057l1.693-.977a.155.155 0 0 0 .056-.212l-.092-.16a.155.155 0 0 0-.212-.057zm-.695 2.149a.08.08 0 0 1 .028-.106l1.828-1.055a.08.08 0 0 1 .105.028l.072.123a.08.08 0 0 1-.029.106l-1.827 1.055a.08.08 0 0 1-.106-.028zm-2.363 1.274a.08.08 0 0 0-.028.106l.071.123c.022.037.069.05.106.029L52.4 52.93a.08.08 0 0 0 .029-.106l-.071-.124a.08.08 0 0 0-.106-.028z" clip-rule="evenodd"/><path fill="#A2A6A9" fill-rule="evenodd" d="M57.103 49.275c.129.271.256.564.397.912l-10.316 5.957.872-1.428c.135-.22.324-.405.548-.534zm-4.318 3.179a.08.08 0 0 1 .028-.106l1.828-1.055a.08.08 0 0 1 .105.028l.072.123a.08.08 0 0 1-.029.106l-1.827 1.055a.08.08 0 0 1-.106-.028zm-2.362 1.274a.08.08 0 0 0-.029.106l.071.123c.022.037.07.05.106.029L52.4 52.93a.08.08 0 0 0 .028-.106l-.071-.124a.08.08 0 0 0-.106-.028z" clip-rule="evenodd"/><path fill="#A2A6A9" fill-rule="evenodd" stroke="#313335" stroke-width="0.283097" d="m43.237 53.016 10.607-6.124 2.193.717-12.053 6.959-.892-.827-.04-.036c-.148-.118-.129-.508.185-.69Zm7.93-3.691a.155.155 0 0 1 .057-.212l1.693-.977a.155.155 0 0 1 .212.056l.092.16a.155.155 0 0 1-.056.213l-1.693.977a.155.155 0 0 1-.212-.057zm-2.333 1.168a.155.155 0 0 0-.057.212l.093.16c.042.075.137.1.211.057l1.693-.977a.155.155 0 0 0 .057-.212l-.093-.16a.155.155 0 0 0-.212-.057zm-2.447 1.592a.155.155 0 0 1 .056-.212l1.693-.977a.155.155 0 0 1 .212.057l.093.16a.155.155 0 0 1-.057.212l-1.693.977a.155.155 0 0 1-.212-.057zm-2.334 1.168a.155.155 0 0 0-.057.212l.093.16c.043.075.138.1.212.057l1.692-.977a.155.155 0 0 0 .057-.212l-.092-.16a.155.155 0 0 0-.212-.057z" clip-rule="evenodd"/><path fill="#9DA1A4" d="m43.073 53.725 1.354 1.255-1.301.75-.882-1.527z"/><path fill="#A8ABAE" d="m43.125 55.73 2.455-1.417.86 1.49-2.455 1.417z"/><path fill="#A0A3A6" d="m46.44 55.803-2.456 1.418.735 1.271 2.091-1.207.219-.46z"/><path stroke="#313335" stroke-width="0.283097" d="m43.073 53.725 1.354 1.255 1.154-.667.86 1.49.59 1.02-.22.461-2.09 1.208-.735-1.272-.86-1.49-.882-1.527z"/><path fill="#938582" stroke="#37312F" stroke-width="0.283097" d="m49.785 47.923.43-.248 1.29 2.236a.077.077 0 0 1-.028.106l-.295.17a.08.08 0 0 1-.106-.028z"/><path fill="#414244" stroke="#323334" stroke-width="0.283097" d="m18.12 65.863.292-.17.148.257-.293.17zm-6.423 18.021.294-.17.147.256-.293.17zm7.037-18.375.294-.17.147.256-.293.17zM12.313 83.53l.293-.17.148.256-.294.17zm7.035-18.375.293-.17.148.257-.294.17zm-6.422 18.021.293-.17.148.256-.293.17zM19.963 64.8l.293-.169.148.256-.293.17zm-6.422 18.021.293-.17.148.257-.293.17zm7.031-18.375.294-.17.147.257-.293.17zm.616-.353.293-.17.148.256-.294.17zm.612-.355.294-.17.148.257-.293.17zm.616-.353.293-.17.148.256-.293.17zm.614-.355.293-.17.147.257-.293.17zm.61-.353.294-.17.148.256-.294.17zm.614-.355.293-.17.148.257-.293.17zm.613-.353.294-.17.147.256-.293.17zm.615-.355.294-.17.147.257-.293.17zm.612-.354.293-.17.148.256-.293.17zm.615-.354.293-.17.148.257-.293.17zm.613-.354.294-.17.147.256-.293.17zm.613-.354.294-.17.148.257-.294.17zm.612-.355.293-.17.148.256-.293.17zm.615-.353.293-.17.148.256-.293.17zm.613-.355.294-.17.147.256-.293.17zm.615-.355.294-.17.148.256-.294.17zm.61-.354.293-.17.148.256-.293.17zm.615-.355.294-.17.147.257-.293.17zm.613-.353.294-.17.148.256-.294.17zm.616-.355.293-.17.148.257-.293.17zm.613-.353.293-.17.148.256-.293.17zm.611-.355.294-.17.147.257-.293.17zm.614-.353.293-.17.148.256-.294.17zm.613-.355.293-.17.148.257-.293.17zm.615-.354.294-.17.147.256-.293.17zm.612-.353.293-.17.148.256-.294.17zm.615-.355.293-.17.148.256-.294.17zm.613-.354.293-.17.148.257-.293.17zm.613-.354.294-.17.147.256-.293.17zm.612-.354.293-.17.148.257-.294.17zm.615-.354.293-.17.148.256-.293.17zm.613-.354.293-.17.148.257-.293.17zm.615-.355.294-.169.147.256-.293.17z"/><path fill="#B2B5B8" stroke="#313335" stroke-width="0.283097" d="m41.43 52.406.293-.17.148.257-.294.17zm.611-.353.293-.17.148.256-.293.17zm.615-.356.294-.17.147.257-.293.17zm.614-.353.293-.17.148.256-.294.17zm.613-.354.293-.17.148.256-.293.17zm.613-.354.293-.17.148.256-.293.17zm.615-.356.294-.17.147.257-.293.17zm.612-.354.293-.17.148.256-.294.17zm.615-.354.293-.17.148.257-.293.17zm.612-.354.293-.17.147.256-.293.17zm.615-.354.293-.17.148.257-.294.17zm.613-.354.293-.17.148.256-.294.17zm.615-.354.293-.17.148.257-.293.17zm.609-.354.294-.17.147.256-.293.17zm.616-.354.293-.17.148.257-.294.17zm.612-.354.294-.17.148.256-.293.17zm.616-.354.293-.17.148.256-.293.17z"/><path fill="#595B5E" stroke="#323334" stroke-width="0.283097" d="m35.198 64.398 2.777.744a.96.96 0 0 1 .677 1.173l-.7 2.617-3.841 2.217-2.063-3.573a.57.57 0 0 1-.066-.398l.155-.786a.57.57 0 0 1 .276-.386z"/><circle cx="38.0197" cy="65.8974" r="0.336121" fill="#4D4F51" transform="rotate(-30 38.02 65.897)"/><path fill="#4F5254" stroke="#323334" stroke-width="0.566194" d="M33.632 71.756a.287.287 0 0 1 .105-.393l4.583-2.646a.287.287 0 0 1 .392.106l.424.732-5.08 2.934z"/><path fill="#6A895B" stroke="#2F3D29" stroke-width="0.566194" d="m34.059 72.487 5.08-2.933 3.287 5.694a.96.96 0 0 1-.35 1.308l-3.421 1.975a.96.96 0 0 1-1.31-.35z"/><circle cx="38.2433" cy="73.8709" r="0.476952" fill="#4D534B" stroke="#323630" stroke-width="0.283097" transform="rotate(-30 38.243 73.87)"/><path fill="#646B61" fill-rule="evenodd" stroke="#323630" stroke-width="0.283097" d="m35.146 71.537.899-.52.14.243.832-.48-.14-.243.9-.519.14.243c.681 1.285 1.32 2.75 1.441 3.746.053.433-.151.916-.419 1.07s-.788.09-1.137-.172c-.801-.603-1.751-1.889-2.523-3.121zm2.182.882c-.178.31.004.834.33 1.447.303.572.584.691.915.643a.1.1 0 0 0 .057-.032c.207-.263.244-.566-.1-1.115-.367-.588-.73-1.008-1.088-1.008a.13.13 0 0 0-.114.065Z" clip-rule="evenodd"/><path fill="#414344" d="M3.998 77.147 3.033 75.3a.233.233 0 0 1 .09-.31l11.96-6.796 1.03 1.958z"/><path stroke="#323334" stroke-width="0.566194" d="m42.554 54.741-.947-1.64C36.69 55.915 17.412 66.866 3.123 74.99a.233.233 0 0 0-.09.31l1.832 3.505.127-.073 1.106 1.915a.39.39 0 0 0 .528.143l18.947-10.823L44.61 58.763a.233.233 0 0 0 .083-.317z"/><path stroke="#2F3337" stroke-width="0.566194" d="m4.867 78.805-1.77-3.386-1.945 1.082a1.55 1.55 0 0 0-.64 2.034l.191.392a3.1 3.1 0 0 0 .687.923l.216.2a11.6 11.6 0 0 1 2.578 3.466l.657 1.35a1.86 1.86 0 0 0 2.623.786l5.715-3.392a5.7 5.7 0 0 1 1.232-.547l1.632-.505c.72-.222.732-1.236.017-1.476l-.068-.023a1.71 1.71 0 0 1-1.141-1.333l-.352-2.082-2.845 1.626.236.14a.78.78 0 0 1 .362.494l.256 1.122a1.47 1.47 0 0 1-.689 1.597l-2.012 1.184a.465.465 0 0 1-.645-.18l-1.21-2.243-1.324.756a.39.39 0 0 1-.528-.142l-1.106-1.916z"/><path fill="#545759" stroke="#323334" stroke-width="0.283097" d="M33.68 68.409a.767.767 0 0 1 1.328-.767l1.293 2.24-1.327.767z"/><path stroke="#323334" stroke-width="0.283097" d="m36.042 57.013-8.68 5.01a.54.54 0 0 0-.114.222l-.418 1.672a.4.4 0 0 0 .05.303l.522.828 9.932-5.797z"/><path stroke="#323334" stroke-width="0.566194" d="M6.1 80.648 4.733 78.28l32.602-19.03-.647-1.12 5.868-3.389 2.14 3.705a.233.233 0 0 1-.084.317L25.575 69.968 6.628 80.79a.39.39 0 0 1-.528-.143Z"/><path fill="#484A4C" stroke="#323334" stroke-width="0.566194" d="m36.898 58.794 3.623-1.98a.155.155 0 0 0 .06-.214l-1.187-2.055a.155.155 0 0 0-.21-.057L3.123 74.99a.233.233 0 0 0-.092.31l1.833 3.505 12.36-7.06.194-.34 3.607-1.951c.112-.06.155-.2.096-.313l-.358-.682a.465.465 0 0 1 .185-.622l4.132-2.303a.465.465 0 0 0 .18-.632l-.5-.903c-.103-.185-.057-.453.127-.559l10.64-6.097a.39.39 0 0 1 .528.143l.738 1.278c.021.036.067.05.104.03Z"/><path fill="#57595C" d="m34.984 64.115.74.199-1.017 3.798a.383.383 0 1 1-.74-.198z"/><rect width="0.584516" height="0.952227" x="36.1309" y="59.1025" fill="#5E6164" stroke="#323334" stroke-width="0.283097" rx="0.155068" transform="rotate(-30 36.13 59.102)"/><path fill="#5C5E61" stroke="#323334" stroke-width="0.283097" d="m26.539 69.837-.363-.63-1.012.542-.205-.13-.692.357-.03.308-4.574 2.641.375.556a.077.077 0 0 0 .102.024l6.37-3.562a.077.077 0 0 0 .029-.106Z"/><circle cx="24.7893" cy="70.222" r="0.171731" fill="#707376" transform="rotate(-30 24.79 70.222)"/><path stroke="#313335" stroke-width="0.566194" d="M56.184 47.656c.6.94.896 1.49 1.318 2.531L46.776 56.38l.256.443-.218.46-2.092 1.208L41.61 53.1l11.29-6.518z"/><path stroke="#323334" stroke-width="0.283097" d="M55.986 45.542a.223.223 0 1 1-.386.224.223.223 0 0 1 .386-.224Zm.329 1.015a.223.223 0 1 0-.224-.386.223.223 0 0 0 .224.386Zm.793-1.662a.223.223 0 1 1-.387.223.223.223 0 0 1 .387-.223Zm.328 1.015a.223.223 0 1 0-.223-.386.223.223 0 0 0 .223.386Zm.606-1.555a.223.223 0 1 1-.386.223.223.223 0 0 1 .386-.223Zm.328 1.015a.223.223 0 1 0-.223-.386.223.223 0 0 0 .224.386Z"/><path stroke="#313335" stroke-width="0.283097" d="M56.171 49.387a.302.302 0 1 0-.301-.522.302.302 0 0 0 .301.522Zm-9.918 5.272a.155.155 0 0 1 .057-.212l1.692-.978a.155.155 0 0 1 .212.057l.093.16a.155.155 0 0 1-.057.212l-1.693.978a.155.155 0 0 1-.211-.057zm2.39-1.381a.155.155 0 0 1 .057-.211l1.693-.978a.155.155 0 0 1 .212.057l.092.16a.155.155 0 0 1-.056.212l-1.693.978a.155.155 0 0 1-.212-.057zm2.447-1.591a.155.155 0 0 0-.056.211l.092.16c.043.075.138.1.212.057l1.693-.977a.155.155 0 0 0 .057-.212l-.093-.16a.155.155 0 0 0-.212-.057zm2.39-1.381a.155.155 0 0 0-.056.212l.093.16c.043.075.137.1.212.057l1.692-.977a.155.155 0 0 0 .057-.212l-.093-.16a.155.155 0 0 0-.211-.057zm-.694 2.149a.08.08 0 0 1 .028-.106l1.827-1.055a.08.08 0 0 1 .106.028l.072.123a.08.08 0 0 1-.029.106l-1.827 1.055a.08.08 0 0 1-.106-.028zm-2.363 1.275a.08.08 0 0 0-.028.105l.071.123c.021.037.069.05.106.029l1.827-1.055a.08.08 0 0 0 .029-.106l-.072-.124a.08.08 0 0 0-.105-.028z"/><circle cx="34.3389" cy="68.0137" r="0.288104" fill="#4D4F51" transform="rotate(-30 34.339 68.014)"/><path stroke="#323334" stroke-width="0.283097" d="m34.984 64.115.74.199-1.017 3.798a.383.383 0 1 1-.74-.198z"/><path fill="#5C5F61" fill-rule="evenodd" stroke="#323334" stroke-width="0.283097" d="M35.627 58.763a.767.767 0 0 1 .939-.542l.74.198c.41.11.652.53.542.939l-1.19 4.443a.767.767 0 0 1-.939.541l-.74-.198a.766.766 0 0 1-.542-.939zm.79.013.74.198a.19.19 0 0 1 .136.235l-1.19 4.443a.19.19 0 0 1-.235.135l-.74-.198a.19.19 0 0 1-.136-.235l1.19-4.443a.19.19 0 0 1 .235-.135Z" clip-rule="evenodd"/><path fill="#393A3C" stroke="#323334" stroke-width="0.566194" d="m100.146 20.843 1.603-.926 2.184 3.783-1.603.926z"/><path fill="#37383A" stroke="#323334" stroke-width="0.566194" d="m95.24 23.675 4.907-2.833 2.184 3.783-4.907 2.833z"/><path fill="#393A3C" stroke="#323334" stroke-width="0.566194" d="m93.482 24.69 1.758-1.015 2.184 3.783-1.757 1.015z"/><path fill="#3E3F41" stroke="#323334" stroke-width="0.566194" d="M73.764 36.073 93.48 24.69l2.184 3.783-19.717 11.383z"/><path fill="#393A3C" stroke="#323334" stroke-width="0.566194" d="m81.127 31.821 6.055-3.496 2.184 3.783-6.055 3.496zm-8.773 5.149a.07.07 0 0 1 .026-.097l1.386-.8 2.184 3.782-1.386.8a.07.07 0 0 1-.097-.025z"/><path fill="#343537" fill-rule="evenodd" d="m101.75 19.916.753-.435.519.062 4.127-2.382a.08.08 0 0 1 .06-.01l.434.1q.035.009.054.04l1.484 2.57q.017.033.008.067l-.131.425a.08.08 0 0 1-.038.048l-4.127 2.383-.205.48-.754.435zm1.266.05a.503.503 0 0 0-.184.685l1.006 1.743c.139.24.446.323.686.184l.563-.325a.503.503 0 0 0 .184-.686l-1.006-1.742a.5.5 0 0 0-.686-.184zm1.52-.298a.5.5 0 0 1 .183-.686l.428-.247a.5.5 0 0 1 .685.184l1.007 1.743a.503.503 0 0 1-.184.686l-.428.246a.5.5 0 0 1-.685-.183zm1.794-1.615a.5.5 0 0 0-.184.685l1.006 1.743c.139.24.446.322.686.184l.427-.247a.503.503 0 0 0 .184-.686l-1.006-1.742a.5.5 0 0 0-.686-.184z" clip-rule="evenodd"/><path stroke="#323334" stroke-width="0.566194" d="m101.75 19.916.753-.435.519.062 4.127-2.382a.08.08 0 0 1 .06-.01l.434.1q.035.009.054.04l1.484 2.57q.017.033.008.067l-.131.425a.08.08 0 0 1-.038.048l-4.127 2.383-.205.48-.754.435z"/><path stroke="#323334" stroke-width="0.283097" d="M103.015 19.967a.5.5 0 0 0-.184.685l1.006 1.743c.139.24.446.323.686.184l.563-.325a.503.503 0 0 0 .184-.686l-1.007-1.742a.5.5 0 0 0-.685-.184zm1.52-.298a.5.5 0 0 1 .183-.686l.428-.246a.5.5 0 0 1 .685.183l1.006 1.743a.5.5 0 0 1-.183.686l-.428.246a.5.5 0 0 1-.685-.183zm1.793-1.615a.5.5 0 0 0-.183.685l1.006 1.743c.139.24.446.322.686.184l.427-.247a.503.503 0 0 0 .184-.686l-1.007-1.742a.5.5 0 0 0-.685-.184z"/></svg>