<svg xmlns="http://www.w3.org/2000/svg" width="257" height="29" fill="none" viewBox="0 0 257 29"><g clip-path="url(#a)"><path fill="#4F5254" stroke="#161718" stroke-width="3" d="M56.856 1.698c0-.347.28-.628.627-.628h32.753c.347 0 .628.281.628.628v25.218c0 .346-.28.627-.628.627H57.483a.627.627 0 0 1-.627-.627z"/><path fill="#343637" stroke="#161718" stroke-width="1.5" d="M59.33 1.998a.21.21 0 0 1 .208-.209h28.646a.21.21 0 0 1 .209.21V7.72a.21.21 0 0 1-.21.21H59.539a.21.21 0 0 1-.209-.21z"/><path fill="#9D6F1B" stroke="#271C07" stroke-width="1.5" d="M87.767 5.604c-.715.528-3.7.959-7.65 1.129V3.986c3.95.17 6.935.601 7.65 1.129z"/><path fill="#DE8C3F" stroke="#271607" stroke-width="1.5" d="M60.935 7.477h-.312l-.125-.193V3.438l.125-.194h.312zm.622 0L75.585 7.3l1.15-.464h3.38v-2.95h-3.38l-1.15-.463-14.028-.179-.414.195v3.86z"/><path fill="#C87322" stroke="#271607" stroke-width="1.5" d="M61.143 7.15h-.208V3.57h.208z"/><path fill="#A6761C" stroke="#271C07" stroke-width="1.5" d="M87.767 4.862c-.715.528-3.7.959-7.65 1.129V3.244c3.95.17 6.935.601 7.65 1.129z"/><path fill="#E09148" stroke="#271607" stroke-width="1.5" d="M60.935 6.733h-.312l-.125-.193V2.694l.125-.194h.312zm.622 0 14.028-.178 1.15-.464h3.38V3.142h-3.38l-1.15-.464L61.557 2.5l-.414.195v3.86z"/><path fill="#D17824" stroke="#271607" stroke-width="1.5" d="M61.143 6.408h-.208v-3.58h.208z"/><path fill="#3D3D3D" stroke="#171717" stroke-width="1.5" d="M78.878 2.88v3.413h-1.912V2.88zm-7.742-.629V6.92h-1.913V2.25z"/><path fill="#363636" fill-rule="evenodd" stroke="#171717" stroke-width="1.5" d="M69.55 7.928h1.258V6.92h-1.257zm9.028.002V6.292h-1.314v1.636z" clip-rule="evenodd"/><path fill="#3B3B3B" fill-rule="evenodd" stroke="#171717" stroke-width="1.5" d="M76.71 7.426V2.318h-4.818v5.108z" clip-rule="evenodd"/><path fill="#AE7C1E" stroke="#271C07" stroke-width="1.5" d="M87.767 8.64c-.715.527-3.7.958-7.65 1.128V7.021c3.95.17 6.935.601 7.65 1.13z"/><path fill="#E1954F" stroke="#271607" stroke-width="1.5" d="M60.935 10.51h-.312l-.125-.193V6.47l.125-.194h.312zm.622 0 14.028-.178 1.15-.464h3.38V6.92h-3.38l-1.15-.464-14.028-.179-.414.195v3.86z"/><path fill="#DA7C25" stroke="#271607" stroke-width="1.5" d="M61.143 10.186h-.208v-3.58h.208z"/><path fill="#404040" stroke="#171717" stroke-width="1.5" d="M78.878 6.656v3.412h-1.912V6.656zm-7.742-.627v4.668h-1.913V6.03z"/><path fill="#383838" fill-rule="evenodd" stroke="#171717" stroke-width="1.5" d="M77.807 11.705v-.725h-7.013v.725z" clip-rule="evenodd"/><path fill="#383838" fill-rule="evenodd" stroke="#171717" stroke-width="1.5" d="M69.55 11.705h1.258v-1.008h-1.257z" clip-rule="evenodd"/><path fill="#404040" fill-rule="evenodd" stroke="#171717" stroke-width="1.5" d="M76.71 16.812v-5.107h-4.818v5.107z" clip-rule="evenodd"/><path fill="#383838" fill-rule="evenodd" stroke="#171717" stroke-width="1.5" d="M78.578 11.705v-1.637h-1.314v1.636z" clip-rule="evenodd"/><path fill="#3D3D3D" fill-rule="evenodd" stroke="#171717" stroke-width="1.5" d="M76.71 11.4V6.293h-4.818V11.4z" clip-rule="evenodd"/><path fill="#595B5E" stroke="#161718" stroke-width="1.5" d="M62.512 19.217H85.82v1.051a.42.42 0 0 1-.418.418H62.93a.42.42 0 0 1-.418-.418z"/><path fill="#A2A6A9" stroke="#161718" stroke-width="3" d="M141.516 9.396h9.328v9.819h-9.328z"/><path fill="#464749" d="M159.373 10.68h-49.06v7.255h49.06z"/><path fill="#414244" d="M147.438 14.306c0-.74.395-1.34.882-1.34h9.214c.488 0 1.6.6 1.6 1.34s-1.112 1.34-1.6 1.34h-9.214c-.487 0-.882-.6-.882-1.34m0 2.918c0-.32.395-.58.882-.58h9.214c.488 0 1.6.26 1.6.58s-1.112.58-1.6.58h-9.214c-.487 0-.882-.26-.882-.58m0-5.836c0-.32.395-.58.882-.58h9.214c.488 0 1.6.26 1.6.58s-1.112.58-1.6.58h-9.214c-.487 0-.882-.26-.882-.58"/><path fill="#505254" stroke="#161718" stroke-width="3" d="M110.31 8.73H93.93q-.151 0-.295.043l-2.137.625v9.818l2.138.624q.143.042.292.042h16.382z"/><path fill="#464749" stroke="#161718" stroke-width="3" d="M110.313 9.396h-9.276v9.819h9.276z"/><path fill="#484A4C" stroke="#161718" stroke-width="3" d="M36.762 9.396h64.277v9.819H36.762z"/><path fill="#393A3C" d="M110.314 12.357H47.905v3.899h62.409z"/><path fill="#414244" stroke="#161718" stroke-width="3" d="M185.042 18.063h-.746v-7.514h.746z"/><path fill="#5E6164" stroke="#161718" stroke-width="1.5" d="M89.837 19.217h2.052c-.244 2.859-.248 3.982-.248 6.122 0 .064-.04.123-.1.146l-.053.02c-.322.122-.68.122-1.001 0a.28.28 0 0 1-.179-.22l-.284-1.784a15 15 0 0 1-.187-2.354z"/><path fill="#393A3C" stroke="#161718" stroke-width="3" d="M239.751 6.63h-5.16v15.354h5.16z"/><path fill="#37383A" stroke="#161718" stroke-width="3" d="M234.592 6.63h-13.167v15.354h13.167z"/><path fill="#393A3C" stroke="#161718" stroke-width="3" d="M221.425 6.63h-4.439v15.354h4.439z"/><path fill="#3E3F41" stroke="#161718" stroke-width="3" d="M216.988 6.63h-26.071v15.354h26.071z"/><path fill="#393A3C" stroke="#161718" stroke-width="3" d="M204.238 6.63h-7.042v15.354h7.042zm-19.196.105c0-.057.047-.104.105-.104h5.771v15.353h-5.771a.105.105 0 0 1-.105-.105z"/><path fill="#343537" fill-rule="evenodd" stroke="#161718" stroke-width="3" d="M239.752 6.63h3.058l1.47 1.102h10.946c.275 0 .498.223.498.498v12.155a.49.49 0 0 1-.49.497H244.28l-1.47 1.102h-3.058z" clip-rule="evenodd"/><path fill="#34383C" stroke="#151719" stroke-width="3" d="M1.072 10.698c0-.578.468-1.046 1.046-1.046h6.921v9.309H2.118a1.046 1.046 0 0 1-1.046-1.046z"/><path fill="#3F454A" stroke="#151719" stroke-width="3" d="M9.04 9.652h5.467v9.309H9.04z"/><path fill="#414244" stroke="#161717" stroke-width="3" d="M14.506 9.501c0-.058.047-.105.104-.105h22.151v9.819h-22.15a.105.105 0 0 1-.105-.105z"/><path fill="#414244" d="M51.702 12.357h-1.188v3.899h1.188zm2.488 0h-1.188v3.899h1.188zm2.49 0h-1.188v3.899h1.188zm2.49 0h-1.188v3.899h1.188zm2.49 0h-1.187v3.899h1.188zm2.49 0h-1.188v3.899h1.188zm2.49 0h-1.19v3.899h1.188zm2.49 0h-1.188v3.899h1.189zm2.489 0H70.43v3.899h1.188zm2.49 0h-1.188v3.899h1.188zm2.491 0h-1.19v3.899h1.19zm2.49 0H77.9v3.899h1.188zm2.489 0H80.39v3.899h1.188zm2.489 0H82.88v3.899h1.188zm2.49 0H85.37v3.899h1.188zm2.492 0h-1.19v3.899h1.188zm2.488 0H90.35v3.899h1.188zm2.49 0H92.84v3.899h1.188zm2.489 0H95.33v3.899h1.188zm2.491 0H97.82v3.899h1.188zm2.489 0h-1.188v3.899h1.188zm2.49 0h-1.188v3.899h1.188zm2.49 0h-1.188v3.899h1.188zm2.488 0h-1.188v3.899h1.188z"/><path fill="#B3B5B7" d="M112.179 12.357h-1.188v3.899h1.188z"/><path fill="#5C5E61" stroke="#161718" stroke-width="1.5" d="M76.67 19.826a.21.21 0 0 1 .21-.209h18.308a.21.21 0 0 1 .209.21v1.3a.21.21 0 0 1-.21.21H76.88a.21.21 0 0 1-.21-.21z"/><path fill="#57595C" stroke="#161718" stroke-width="1.5" d="M76.327 20.098h.344v.759h-.074l-.912.746h-7.98v-.76h7.705z"/><path fill="#545759" stroke="#161718" stroke-width="1.5" d="M66.02 20.686h5.39v1.233h-5.39z"/><path stroke="#161718" stroke-width="1.5" d="M110.314 12.357H47.905v3.899h62.409z"/><path fill="#434547" d="M184.294 17.676h-24.918V10.94h24.918z"/><path fill="#414344" d="M183.199 13.527h-12.034a.78.78 0 0 0 0 1.558h12.034a.78.78 0 0 0 0-1.558m.158 1.825h-12.35a.62.62 0 1 0 0 1.241h12.35a.62.62 0 1 0 0-1.241m0-3.33h-12.35a.62.62 0 1 0 0 1.241h12.35a.621.621 0 1 0 0-1.242m.327-.851h-13.005a.293.293 0 0 0 0 .586h13.005a.294.294 0 1 0 0-.586m0 5.687h-13.005a.293.293 0 0 0 0 .587h13.005a.294.294 0 1 0 0-.587"/><path stroke="#161718" stroke-width="3" d="M184.294 17.676h-24.918V10.94h24.918z"/><path fill="#393B3C" stroke="#161718" stroke-width="1.5" d="M162.918 10.81c0-.058.047-.105.105-.105h8.215c.058 0 .105.047.105.105v6.995a.105.105 0 0 1-.105.105h-8.215a.105.105 0 0 1-.105-.105z"/><path stroke="#161718" stroke-width="3" d="M159.373 10.68h-49.06v7.255h49.06z"/><path fill="#A8ABAE" stroke="#161718" stroke-width="3" d="M119.128 8.837c-.143-.07-.3-.107-.459-.107h-8.356v11.152h8.357c.159 0 .315-.036.458-.105l1.15-.56v-9.82z"/><path fill="#B0B3B5" d="M110.314 9.396h31.205v9.819h-31.205z"/><path fill="#9DA1A4" d="M141.519 12.357h-31.205v3.899h31.205z"/><path fill="#938582" stroke="#191615" stroke-width="1.5" d="M132.099 16.256h1.741v2.96h-1.741z"/><path fill="#B3B5B7" d="M114.67 12.357h-1.189v3.899h1.189zm2.491 0h-1.188v3.899h1.188zm2.489 0h-1.188v3.899h1.188zm2.489 0h-1.188v3.899h1.188zm2.49 0h-1.188v3.899h1.188zm2.491 0h-1.188v3.899h1.188zm2.49 0h-1.188v3.899h1.188zm2.488 0h-1.188v3.899h1.188zm2.49 0H133.4v3.899h1.188zm2.491 0h-1.188v3.899h1.188zm2.488 0h-1.188v3.899h1.188z"/><path stroke="#161718" stroke-width="1.5" d="M141.519 12.357h-31.205v3.899h31.205z"/><path stroke="#161718" stroke-width="3" d="M110.314 9.396h31.205v9.819h-31.205z"/><path fill="#4A4D4F" stroke="#161718" stroke-width="1.5" d="M141.519 11.36h18.522v5.895h-18.522z"/><path fill="#3B3D3F" stroke="#161718" stroke-width="1.5" d="M160.045 11.36h7.744c.174 0 .314.14.314.313v5.268c0 .173-.14.314-.314.314h-7.744z"/></g><defs><clipPath id="a"><path fill="#fff" d="M0 0h257v29H0z"/></clipPath></defs></svg>