<svg xmlns="http://www.w3.org/2000/svg" width="110" height="110" fill="none" viewBox="0 0 110 110"><g clip-path="url(#a)"><path fill="#595959" stroke="#333" stroke-miterlimit="3.99393" stroke-width="0.851993" d="m45.394 54.743 62.919-36.334.615 1.066L46.11 55.983"/><path fill="#404040" stroke="#333" stroke-miterlimit="3.99393" stroke-width="0.851993" d="M2.825 82.348c-1.098.74-1.737 1.331-1.38 2.157 1.154 2.704 4.225 7.156 6.667 9.861.272.304.52.383.869.023l1.492-1.615"/><path fill="#8F663D" d="M37.64 62.597c-.069.025-.065-.035-.01-.113.279-.385.355-.837.13-1.296l-.465-.878-.1-.18c-.263-.479-.431-.786-.968-.895l-.12-.028-.187-.05c-.403-.104-.727-.187-.805-.875-3.697 3.296-7.257 7.135-10.337 11.12-.59.709-1.344.725-1.776.67l-.631 1.46c-.31.627-.776 1.064-1.467 1.46L6.26 81.686c-1.402.85-2.24.734-2.822-.05a2.2 2.2 0 0 1-.631.724c-.326.209-.434.407-.286 1.01.628 2.33 3.505 6.627 6.23 9.428.859.806 1 .77 1.138.59l13.894-14.796c.317-.368 1.085-1.064 1.79-.569.093.066.183.052.361.024l.101-.015c1.523-.278 2.758-.993 4.02-1.74.39-.226.318-.312.1-.57q-.078-.09-.174-.213c-2.19-3-1.532-7.394 7.658-12.912"/><path fill="#6C4D2D" d="m34.696 64.111 1.111-.355c-.987.66-1.85 1.304-2.601 1.93-1.122-.114-2.573.31-3.992 1.111q.305-.392.6-.743l.854-.981c.276-.247.665-.404.959-.403 1.035.041 2.345-.347 2.864-.5.1-.03.172-.051.205-.059"/><path fill="#404040" fill-rule="evenodd" d="m65.563 41.84.543.94 42.202-24.369-.645-1.117zm3.418-.938c1.327-.766 2.315-1.54 2.207-1.728s-1.273.28-2.6 1.047-2.316 1.54-2.208 1.729c.109.188 1.273-.281 2.6-1.048m9.611-6.003c.109.188-.88.962-2.207 1.728-1.328.767-2.492 1.236-2.6 1.048s.88-.962 2.207-1.729c1.327-.766 2.492-1.235 2.6-1.047m5.244-2.574c1.328-.766 2.316-1.54 2.207-1.728s-1.273.281-2.6 1.048c-1.328.766-2.316 1.54-2.207 1.728s1.272-.281 2.6-1.048m9.538-5.96c.108.188-.88.962-2.207 1.728-1.328.767-2.492 1.235-2.6 1.047-.11-.187.879-.961 2.207-1.728 1.327-.766 2.491-1.235 2.6-1.047" clip-rule="evenodd"/><path stroke="#333" stroke-miterlimit="3.99393" stroke-width="0.851993" d="m65.563 41.84.543.94 42.202-24.369-.645-1.117z"/><path stroke="#333" stroke-miterlimit="3.99393" stroke-width="0.425996" d="M68.982 40.902c1.328-.766 2.316-1.54 2.208-1.728-.109-.188-1.273.281-2.6 1.048-1.328.766-2.317 1.54-2.208 1.728s1.273-.281 2.6-1.048Zm9.612-6.002c.109.187-.88.961-2.207 1.727-1.328.767-2.492 1.236-2.6 1.048-.11-.188.88-.962 2.207-1.728 1.327-.767 2.491-1.236 2.6-1.048Zm5.244-2.574c1.327-.767 2.316-1.54 2.207-1.729-.109-.188-1.273.281-2.6 1.048-1.328.766-2.316 1.54-2.208 1.728.109.188 1.273-.28 2.6-1.047Zm9.538-5.961c.108.188-.88.962-2.208 1.728-1.327.767-2.491 1.236-2.6 1.048s.88-.962 2.207-1.728c1.328-.767 2.492-1.236 2.6-1.048Z"/><path fill="#999" d="M36.45 56.101c-.834.479-1.423 1.338-1.554 1.828l.076.144.128.025c.04.858.383.946.82 1.058l.188.05.12.029c.536.11.704.416.967.895l.1.18.465.878c.225.459.148.911-.13 1.296-.07.098-.057.168.079.075l6.023-3.763a4.5 4.5 0 0 1 .85-.443c.082-.035.177-.074.292-.125l1.563-.679c.025-.752-.17-2.628-2.515-2.932l-.1-.17-1.164.617-.41-.71-3.107 1.819-.338 1.158-1.204.683c-.343-.317-.863-1.213-.968-2.002z"/><path fill="gray" d="m41.88 54.569.916 1.585c1.953-.608 2.562.916 2.514 1.884l1.126-.49c.025-.751-.169-2.628-2.514-2.931l-.1-.17-1.164.617-.411-.71z"/><path fill="#595959" d="m43.167 54.795-.977-1.693 8.799-4.61 56.008-32.354.667 1.156L65.393 41.94 44.005 54.351z"/><path fill="#383838" fill-rule="evenodd" d="m89.42 25.274 5.34-3.083c-.085.06-.096.124-.112.216q-.007.045-.019.099l-.002.029c-.036.17.118.378.35.3l4.677-2.701c.164-.08.212-.209.258-.372v-.01c.052-.202-.18-.422-.367-.322l-2.958 1.706 9.971-5.756.438.757-56.008 32.355-.812.425-4.985 2.367-8.698 5.022-.205-.356L87.51 26.377c-.086.06-.096.124-.112.216q-.007.045-.019.098l-.007.033a.264.264 0 0 0 .354.296l4.899-2.828c.164-.079.212-.209.258-.372v-.009c.052-.203-.18-.423-.367-.323zM50.652 47.816q-.006.044-.02.099l-.007.032a.264.264 0 0 0 .355.296l4.49-2.591c.163-.08.211-.21.257-.372l.001-.01c.051-.202-.18-.422-.368-.323l-4.544 2.622c-.134.068-.146.139-.164.247m6.954-4.019c.018-.108.03-.178.165-.247l4.953-2.858c.187-.1.42.12.368.323l-.001.01c-.046.162-.094.292-.258.371l-4.899 2.828a.264.264 0 0 1-.354-.296l.007-.032zm7.419-4.196q.012-.053.019-.098c.018-.108.03-.179.165-.247l4.953-2.858c.187-.1.419.12.368.323l-.002.01c-.045.162-.094.292-.257.371l-4.9 2.828a.264.264 0 0 1-.354-.296zm7.467-4.398c.018-.108.03-.179.164-.247l4.953-2.858c.188-.1.42.12.368.323v.01c-.047.162-.095.292-.259.371L72.82 35.63a.264.264 0 0 1-.355-.296l.008-.033q.012-.053.019-.098m7.638-4.554c-.135.068-.146.138-.164.246q-.007.045-.02.099l-.007.032a.264.264 0 0 0 .354.296l4.9-2.828c.163-.079.211-.209.257-.371l.001-.01c.051-.202-.18-.422-.368-.323z" clip-rule="evenodd"/><path fill="#383838" d="m89.42 25.274-1.91 1.103.053-.03zm7.167-4.138-1.774 1.024-.053.031z"/><path stroke="#333" stroke-miterlimit="3.99393" stroke-width="0.425996" d="m94.76 22.191-5.34 3.083m5.34-3.083c-.085.06-.096.124-.112.216q-.007.045-.019.099l-.002.029c-.036.17.118.378.35.3l4.677-2.701c.164-.08.212-.209.258-.372v-.01c.052-.202-.18-.422-.367-.322l-2.958 1.706m-1.827 1.055.053-.03 1.774-1.025m-1.827 1.055 1.827-1.055m-7.167 4.138 3.096-1.786c.187-.1.42.12.368.323l-.001.01c-.046.162-.094.292-.258.371l-4.899 2.828a.264.264 0 0 1-.354-.296l.007-.033.02-.098c.015-.092.025-.157.111-.216m1.91-1.103-1.91 1.103m1.91-1.103-1.857 1.072-.053.031m9.077-5.24 9.971-5.757.438.757-56.008 32.355-.812.425-4.985 2.367-8.698 5.022-.205-.356L87.51 26.377M50.633 47.915l.019-.1c.018-.107.03-.178.164-.245l4.544-2.623c.187-.1.42.12.368.324l-.001.009c-.046.163-.094.292-.258.372l-4.49 2.591a.264.264 0 0 1-.354-.296zm7.138-4.365c-.135.069-.147.139-.165.247q-.006.044-.019.099l-.007.032a.264.264 0 0 0 .354.296l4.899-2.828c.164-.079.212-.209.258-.371v-.01c.052-.203-.18-.423-.367-.323zm7.273-4.047q-.006.044-.02.098l-.007.033a.264.264 0 0 0 .355.296l4.899-2.828c.163-.079.212-.209.257-.371l.002-.01c.05-.203-.181-.423-.368-.323l-4.954 2.858c-.134.068-.146.139-.164.247Zm7.612-4.547c-.134.068-.146.139-.164.247q-.006.044-.02.098l-.007.033a.264.264 0 0 0 .355.296l4.898-2.828c.164-.079.212-.209.258-.371l.001-.01c.051-.203-.18-.423-.368-.323zm7.31-4.06c.018-.109.03-.18.164-.247l4.953-2.859c.187-.1.42.12.368.323l-.001.01c-.046.162-.094.292-.258.371l-4.899 2.828a.264.264 0 0 1-.354-.296l.007-.032q.012-.054.02-.099Z"/><path fill="#474747" d="m42.19 53.1-5.56 2.912c.106.79.626 1.686.969 2.002l1.204-.683.338-1.158 3.106-1.818.411.71.51-.27z"/><path stroke="#333" stroke-miterlimit="3.99393" stroke-width="0.851993" d="m42.19 53.1-5.56 2.912c.106.79.626 1.686.969 2.002l1.204-.683.338-1.158 3.106-1.818.411.71.51-.27.837-.445 21.389-12.41 42.271-24.646-.667-1.155L50.99 48.493z"/><path fill="#404040" stroke="#333" stroke-miterlimit="3.99393" stroke-width="0.425996" d="M37.253 67.228c-1.003.874-2.473 1.308-3.535.6l-.15-.098c-.208-.283-.268-.6-.311-.984-.002-.012-.02-.013-.022 0l-.002.014c-.037.248-.066.446.042.791-.827-.476-1.441-.565-2.127-.123l.27.335c.636-.424 1.196-.092 1.805.268.373.221.764.453 1.203.528 1.158.199 2.184-.257 3.115-1.02.66-.54 1.09-1.244 1.276-1.734.374-.987 0-1.688-.661-2.1-.62-.387-1.663-.164-2.288.24l.247.347c.619-.381 1.506-.505 1.926-.152.309.259.692.654.399 1.447-.192.519-.501 1.044-1.187 1.64Z"/><path fill="#8F673D" d="M43.643 54.139 64.77 41.96c1.174-.684 2.217-.817 3.07.094.955 1.045 1.579 1.886-.385 3.081-4.432 2.692-13.735 8.103-14.475 8.595-2.34 1.492-4.963 3.136-6.544 3.82.025-.753-.169-2.63-2.514-2.933z"/><path fill="#7D5A35" d="M35.115 58.282a78 78 0 0 0-2.401 2.236 11.4 11.4 0 0 0-1.598 3.722l-.026.083c-.087.278-.222.51-.405.736.216-.187.497-.322.748-.37q.101-.02.195-.02c.259.011.535-.005.811-.038.83-.1 1.664-.346 2.053-.461.1-.03.172-.051.205-.058l1.111-.355q.854-.572 1.833-1.16c-.069.025-.065-.035-.01-.113.279-.385.355-.837.13-1.296-.188-.353-.373-.708-.565-1.058-.263-.479-.431-.786-.968-.895l-.12-.028-.187-.05c-.403-.104-.727-.187-.806-.875"/><path fill="#404040" stroke="#333" stroke-miterlimit="3.99393" stroke-width="0.425995" d="m16.795 75.43-1.143.678-.637-1.104 1.143-.677zm-5.565 3.304-1.141.678-.642-1.113 1.143-.676z"/><path fill="#5C4D3D" d="M33.208 65.685c-4.02-.407-12.238 6.077-8.194 12.116l.035.05a.9.9 0 0 1 .527.171c.092.066.183.052.36.024l.102-.015c1.523-.278 2.757-.993 4.019-1.74.391-.226.318-.312.1-.57q-.078-.09-.174-.213c-1.764-2.417-1.68-5.739 3.225-9.823"/><path fill="#3B3B3B" stroke="#333" stroke-miterlimit="3.99393" stroke-width="0.425996" d="M30.705 62.535a85 85 0 0 0-2.795 3.053l-.141-.092c-.15-.087-.17-.368.245-.888.09-.13.154-.269.215-.404.062-.138.122-.27.207-.382l.514-.572c.06-.075.158-.11.273-.15.152-.054.335-.12.503-.304.292-.329.533-.315.68-.307q.06.005.098-.001a.7.7 0 0 1 .2.047Zm2.599 3.068q.706-.582 1.546-1.185l.423.334c.046.037.032.115-.005.162l-.523.645a.8.8 0 0 0-.17.386c-.127.982.208 1.398.92 1.732.01.005.007.02-.005.018h-.001c-.516-.179-.969-.516-1.047-1.415-.018-.213-.284-.44-.514-.412l-.023.003-.042.005-.092.007-.009.004c-.144.054-.18.067-.458-.284Z"/><path stroke="#47331F" stroke-miterlimit="3.99393" stroke-width="0.851993" d="M25.935 78.047c-.178.028-.268.042-.36-.024-.706-.495-1.474.2-1.79.57L9.89 93.388c-.137.178-.28.215-1.139-.59C6.027 89.996 3.15 85.7 2.522 83.37c-.148-.604-.04-.802.286-1.011.337-.259.498-.486.63-.723.582.783 1.421.9 2.823.05l14.643-8.695c.69-.396 1.157-.833 1.467-1.46l.631-1.46c.432.055 1.185.039 1.776-.67 3.08-3.985 6.64-7.824 10.337-11.12.078.688.402.77.805.874l.188.05.12.029c.536.11.704.416.967.895l.1.18.465.878c.226.459.149.911-.13 1.296-.055.078-.059.138.01.113-9.19 5.518-9.848 9.911-7.658 12.911q.096.124.173.214m-4.22 2.325.101-.015c1.523-.278 2.758-.993 4.02-1.74.39-.226.318-.312.1-.57m0 0"/><path fill="#8F663D" d="M21.193 69.467c.322-.172.656-.169.898-.06l-.324.897c-.527 1.104-1.017 1.305-1.684 1.702L5.192 80.819c-.359.205-.896.303-1.107.03-.432-.515-.336-1.12.41-1.545z"/><path fill="#B2B2B2" stroke="#333" stroke-miterlimit="3.99393" stroke-width="0.425995" d="M44.014 58.17a.686.686 0 1 0-.686-1.187.686.686 0 0 0 .686 1.188Z"/><path fill="#4F4F4F" d="M45.259 56.369a.23.23 0 1 0-.23-.4.23.23 0 0 0 .23.4"/><path fill="#3B3B3B" d="M15.552 74.606a.386.386 0 1 0-.385-.67.386.386 0 0 0 .385.67m-5.542 3.338a.386.386 0 1 0-.387-.668.386.386 0 0 0 .386.668"/><path fill="#594026" d="m19.868 72.131.213-.126.187-.11c.574-.334 1.02-.594 1.497-1.592l.324-.897c-.242-.109-.576-.111-.899.06l-1.33.785z"/><path stroke="#47331F" stroke-miterlimit="3.99393" stroke-width="0.851994" d="M21.193 69.467c.322-.172.656-.169.898-.06l-.324.897c-.527 1.104-1.017 1.305-1.684 1.702L5.192 80.819c-.359.205-.896.303-1.107.03-.432-.515-.336-1.12.41-1.545z"/><path fill="#A6A6A6" d="M42.241 59.35c.263-1.134-.685-2.217-2.255-1.361l-1.86 1.09c-.495.276-.813.308-1.066.29l-.214-.023.042.283c.108.137.2.305.308.5l.1.181.465.878c.225.459.149.912-.13 1.296-.07.099-.057.169.079.075l4.692-2.932z"/><path stroke="#333" stroke-miterlimit="3.99393" stroke-width="0.425996" d="m36.846 59.346.015.002m-.015-.002.214.024c.252.017.57-.015 1.066-.29l1.86-1.091c1.57-.856 2.518.227 2.255 1.36l.161.278-4.692 2.932c-.136.094-.148.024-.079-.075.279-.384.355-.837.13-1.296l-.465-.878q-.053-.093-.1-.18a4 4 0 0 0-.308-.5z"/><path fill="#7D5A35" d="M49.53 52.733c-1.071.58-2.18.854-3.165.242l-.277-.246-2.445 1.41.28.478c2.345.304 2.539 2.18 2.514 2.932 1.58-.683 4.204-2.327 6.544-3.82.336-.223 2.44-1.462 5.052-3 3.137-1.847 7.005-4.125 9.423-5.594 1.893-1.151 1.382-1.975.488-2.968-1.019.763-1.906 1.262-3.041 1.9-.305.172-.627.353-.974.552z"/><path fill="#5C4D3D" d="m61.264 48.824 6.13-3.812c-1.343-.547-2.517-.528-4.123.474L52.739 51.66c-2.738 1.828-2.539 2.7-2.351 3.52l.035.158c.848-.521 1.72-1.074 2.556-1.607.337-.223 2.44-1.463 5.053-3.001z"/><path fill="#8C8C8C" stroke="#333" stroke-miterlimit="3.99393" stroke-width="0.425995" d="M33.567 58.579c.11-.11.223-.224.299-.315.857-1.026 1.226-1.369 2.384-2.037-.727.492-1.234 1.252-1.353 1.702l.076.145-1.124.74c-.557.307-1.229.719-1.527.995l-1.82 1.777c-.095.116-.119.061-.158-.03l-.006-.014a.94.94 0 0 1-.056-.557c.027-.112.066-.232.273-.337l.634-.38a.6.6 0 0 1 .216-.056q.057-.007.116-.018c.296-.04.477-.129.786-.419l1.155-1.09z"/><path fill="gray" stroke="#333" stroke-miterlimit="3.99393" stroke-width="0.425996" d="M36.423 56.118c-.82.481-1.397 1.327-1.526 1.811l.076.145.128.025.014.184c.126.288.253.462.53.565.406.149 1.01-.05 1.725-.46l.781-.451-.102-.177-.45.254c-.342-.316-.862-1.212-.967-2.001z"/><path fill="#404040" stroke="#333" stroke-miterlimit="3.99393" stroke-width="0.425996" d="m104.813 16.39 1.313-.76-.38-.66-.655.379z"/><path stroke="#333" stroke-miterlimit="3.99393" stroke-width="0.851993" d="M36.45 56.101c-.834.479-1.423 1.338-1.554 1.828l.076.144.128.025c.04.858.383.946.82 1.058l.188.05.12.029c.536.11.704.416.967.895l.1.18.465.878c.225.459.148.911-.13 1.296-.07.098-.057.168.079.075l6.023-3.763a4.5 4.5 0 0 1 .85-.443c.082-.035.177-.074.292-.125l1.563-.679c.025-.752-.17-2.628-2.515-2.932l-.1-.17-1.164.617-.41-.71-3.107 1.819-.338 1.158-1.204.683c-.343-.317-.863-1.213-.968-2.002z"/><path stroke="#47331F" stroke-miterlimit="3.99393" stroke-width="0.851994" d="M43.643 54.139 64.77 41.96c1.174-.684 2.217-.817 3.07.094.955 1.045 1.579 1.886-.385 3.081-4.432 2.692-13.735 8.103-14.475 8.595-2.34 1.492-4.963 3.136-6.544 3.82.025-.753-.169-2.63-2.514-2.933z"/></g><defs><clipPath id="a"><path fill="#fff" d="M0 0h110v110H0z"/></clipPath></defs></svg>