<svg xmlns="http://www.w3.org/2000/svg" width="126.91824" height="19.022135" viewBox="0 0 33.580445 5.0329398"><g transform="translate(-6.887 -123.194)"><path d="m8.573 123.727 9.579.737.011 2.854-9.824.346z" style="fill:#8f653d;fill-opacity:1;stroke:none;stroke-width:.79375;stroke-linejoin:round;stroke-dasharray:none;stroke-opacity:1"/><path d="M14.21 124.558v2.69h4.2v-2.843z" style="fill:#7d5936;fill-opacity:1;stroke:none;stroke-width:.79375;stroke-linejoin:round;stroke-dasharray:none;stroke-opacity:1"/><path d="M27.153 123.59c2.34 1.23 2.416 3.024.083 4.24H21.84c-2.08-1.18-2.32-2.993.016-4.24z" style="fill:#8f673d;fill-opacity:1;stroke:#20170e;stroke-width:.79375;stroke-linejoin:round;stroke-dasharray:none;stroke-opacity:1"/><path d="M8.373 123.778v3.922l-1.09-.18v-3.508z" style="fill:#404040;fill-opacity:1;stroke:#171717;stroke-width:.79375;stroke-linejoin:round;stroke-dasharray:none;stroke-opacity:1"/><path d="m8.402 123.77 5.306.308c1.353.473 2.94.28 4.537-.033v3.382c-1.256-.276-2.767-.456-4.537-.022l-5.33.297z" style="fill:none;fill-opacity:1;stroke:#20170e;stroke-width:.79375;stroke-linejoin:round;stroke-dasharray:none;stroke-opacity:1"/><rect width="5.1360893" height="1.6880951" x="8.5115395" y="124.89829" ry="0.56154293" style="fill:#7d5a35;fill-opacity:1;stroke:#20170e;stroke-width:.79375;stroke-linejoin:round;stroke-dasharray:none;stroke-opacity:1"/><path d="M18.936 124.409v2.506l2.539-.32.008-1.869z" style="fill:#404040;fill-opacity:1;stroke:none;stroke-width:.396875;stroke-linejoin:round;stroke-dasharray:none;stroke-opacity:1"/><path d="M19.093 124.533v2.49l-.782.351v-3.04z" style="fill:gray;fill-opacity:1;stroke:none;stroke-width:.396875;stroke-linejoin:round;stroke-dasharray:none;stroke-opacity:1"/><path d="M20.932 125.024h19.192v1.333H20.92z" style="fill:#595959;fill-opacity:1;stroke:none;stroke-width:.79375;stroke-linejoin:round;stroke-dasharray:none;stroke-opacity:1"/><path d="m18.224 124.043 2.648.478v2.267l-2.648.634z" style="fill:none;fill-opacity:1;stroke:#171717;stroke-width:.79375;stroke-linejoin:round;stroke-dasharray:none;stroke-opacity:1"/><path d="M18.4 125.522c-.105-.012-1.52 0-1.52 0l-.787-.118c-.315.328-.262.407 0 .757l.764-.14h1.555z" style="fill:#999;fill-opacity:1;stroke:#171717;stroke-width:.396875;stroke-linejoin:round;stroke-dasharray:none;stroke-opacity:1"/><path d="M21.184 125.672h18.547" style="fill:#4d4d4d;fill-opacity:1;stroke:#404040;stroke-width:.396875;stroke-linejoin:round;stroke-dasharray:none;stroke-opacity:1"/><path d="M20.878 124.744H40.07v1.855H20.866z" style="fill:none;fill-opacity:1;stroke:#171717;stroke-width:.79375;stroke-linejoin:round;stroke-dasharray:none;stroke-opacity:1"/><circle cx="14.899387" cy="125.8093" r="0.42115718" style="fill:#171717;fill-opacity:1;stroke:none;stroke-width:.907143;stroke-linejoin:round;stroke-dasharray:none;stroke-opacity:1"/><path d="M19.251 124.243v2.678" style="fill:#7d5936;fill-opacity:1;stroke:#171717;stroke-width:.396875;stroke-linejoin:round;stroke-dasharray:none;stroke-opacity:1"/></g></svg>