<svg xmlns="http://www.w3.org/2000/svg" width="110" height="110" fill="none" viewBox="0 0 110 110"><g clip-path="url(#a)"><path fill="#B27F18" stroke="#5A400C" stroke-miterlimit="3.99393" stroke-width="1.41701" d="M42.834 56.756c-3.092-.88-5.106-4.195-5.052-7.567l-1.611 1.325-.953 1.666c.777 1.945 1.188 3.088 2.639 4.344 1.043.901 3.26 1.306 4.916.803.211-.064.306-.152.33-.258.025-.114-.036-.247-.27-.313Z"/><path fill="#44413B" fill-rule="evenodd" d="M2.978 64.056q.029-.172.053-.335l.19-.145a.035.035 0 0 0 .008-.047l-.138-.22.01-.076.177-.151a.035.035 0 0 0 .008-.044l-.137-.231.008-.078.159-.135a.035.035 0 0 0 .006-.047l-.136-.2.004-.074.181-.137a.035.035 0 0 0 .006-.05l-.172-.201.001-.098.187-.126a.035.035 0 0 0 .006-.053l-.196-.215-.002-.072.156-.146a.035.035 0 0 0 .002-.048l-.175-.202-.006-.096.156-.124a.035.035 0 0 0 .003-.052l-.187-.188c-.02-.234-.045-.48-.075-.746-.046-.4.354-.849.812-.913l2.138-.3c2.301.646 3.696-.284 4.71-2.042l3.64 2.934-1.734 2.017c-.168.195-.414.326-.67.307-3.26-.242-5.184.878-7.03 3.107-.374.452-.893.406-1.176.326-.333-.093-.89-.482-.787-1.099m9.459-4.842a.893.893 0 1 0-1.69-.577.893.893 0 0 0 1.69.577" clip-rule="evenodd"/><circle cx="3.91437" cy="64.3806" r="0.480888" fill="#3B3833" transform="rotate(-98.696 3.914 64.38)"/><path stroke="#37342F" stroke-miterlimit="3.99393" stroke-width="1.41701" d="M2.978 64.056q.029-.172.053-.335l.19-.145a.035.035 0 0 0 .008-.047l-.138-.22.01-.076.177-.151a.035.035 0 0 0 .008-.044l-.137-.231.008-.078.159-.135a.035.035 0 0 0 .006-.047l-.136-.2.004-.074.181-.137a.035.035 0 0 0 .006-.05l-.172-.201.001-.098.187-.126a.035.035 0 0 0 .006-.053l-.196-.215-.002-.072.156-.146a.035.035 0 0 0 .002-.048l-.175-.202-.006-.096.156-.124a.035.035 0 0 0 .003-.052l-.187-.188c-.02-.234-.045-.48-.075-.746-.046-.4.354-.849.812-.913l2.138-.3c2.301.646 3.696-.284 4.71-2.042l3.64 2.934-1.734 2.017c-.168.195-.414.326-.67.307-3.26-.242-5.184.878-7.03 3.107-.374.452-.893.406-1.176.326-.333-.093-.89-.482-.787-1.099Zm9.459-4.842a.893.893 0 1 0-1.69-.577.893.893 0 0 0 1.69.577Z" clip-rule="evenodd"/><path fill="#F2A60D" fill-rule="evenodd" d="m77.036 7.845-2.523 1.434a.072.072 0 0 1-.104-.042l-.12-.416a.216.216 0 0 0-.315-.127l-.698.402a.07.07 0 0 1-.083-.008l-.69.398a.4.4 0 0 0-.1.08l-.54.58a.4.4 0 0 1-.1.08l-2.133 1.23a.07.07 0 0 0-.026.099l.424.735a.177.177 0 0 1-.064.242l-1.643.948a.177.177 0 0 1-.242-.065l-.424-.735a.07.07 0 0 0-.098-.026l-1.374.793a.07.07 0 0 0-.026.098l.424.735a.177.177 0 0 1-.065.243l-1.642.948a.177.177 0 0 1-.242-.065l-.425-.735a.07.07 0 0 0-.098-.026l-1.374.793a.07.07 0 0 0-.026.098l.424.735a.177.177 0 0 1-.065.242l-1.642.948a.177.177 0 0 1-.242-.065l-.424-.735a.07.07 0 0 0-.098-.026l-1.374.793a.07.07 0 0 0-.026.098l.424.735a.177.177 0 0 1-.065.242l-1.642.949a.177.177 0 0 1-.242-.065l-.425-.735a.07.07 0 0 0-.098-.027l-1.374.794a.07.07 0 0 0-.026.098l.424.735a.177.177 0 0 1-.065.242l-1.642.948a.177.177 0 0 1-.242-.065l-.424-.735a.07.07 0 0 0-.099-.026l-1.373.793a.07.07 0 0 0-.027.098l.425.735a.177.177 0 0 1-.065.242l-1.642.948a.177.177 0 0 1-.243-.064l-.424-.735a.07.07 0 0 0-.098-.027l-1.374.794a.07.07 0 0 0-.026.098l.424.735a.177.177 0 0 1-.065.242l-1.642.948a.177.177 0 0 1-.242-.065l-.425-.735a.07.07 0 0 0-.098-.026l-1.373.793a.07.07 0 0 0-.027.098l.425.735a.177.177 0 0 1-.065.242l-1.643.948a.177.177 0 0 1-.242-.064l-.424-.735a.07.07 0 0 0-.098-.027l-1.828 1.055c-.394.228-1.145.32-1.604.247a.24.24 0 0 0-.155.027l-9.628 5.559 2.349 4.068c.23.399.573.687.952.867.629.298 1.36.3 1.852.016L72.39 17.047a.077.077 0 0 1 .104.029l4.23 7.328 3.983-2.3 2.343-1.57a.43.43 0 0 0 .185-.432l-1.44-8.366-3.154-5.462a.29.29 0 0 0-.393-.106L77 6.889l.024.04c.021.034.01.08-.025.1l-.52.3c.126-.018.425.254.573.408a.07.07 0 0 1-.017.108" clip-rule="evenodd"/><path fill="#3F3C37" d="m31.21 93.38-.137-.402 13.2-7.861.535.925-13.239 7.36z"/><path fill="#EB9D00" fill-rule="evenodd" d="M8.86 59.932c.22.957-.023 2.041-.629 2.416-2.989 1.852-5.754 5.46-5.399 6.076.421.73 1.59.813 2.11.513l5.4-3.018c1.705-.984 3.928-1.007 5.547-.187 1.449.736 2.722 2.185 3.255 3.865l6.79 22.58.105.183-1.111.641a.07.07 0 0 0-.027.099l.602 1.042c.01.018.03.031.05.035 1.328.221 2.093.228 3.46.1q.016 0 .028-.009l12.587-7.267c2.593-1.497 4.516-2.666 6.165-4.27a.213.213 0 0 0-.011-.315l-2.273-1.955A5.03 5.03 0 0 1 44 78.179l-3.867-12.106a5.17 5.17 0 0 1 2.365-6.063l1.498-.566c.659-.24 4.81-2.673 8.322-4.782.498-.299.638-.956.307-1.433l-.179-.26c-2.567-3.392-3.22-5.352-2.223-9.485l1.296-.903a.07.07 0 0 0 .024-.09l-.805-1.532L81.37 23.274l-2.254-3.904zm29.982-11.615 2.022-1.168c1.507-.87 2.894-.94 4.167-.452q.177.068.35.142c.174.075.3.223.423.369l.047.055a.93.93 0 0 0 .553.31l.075.012c.19.03.382.06.535.171.643.47 1.17 1.023 1.532 1.65l1.593 2.759a1.94 1.94 0 0 1-.71 2.65l-6.125 3.536c-1.097.633-2.289.725-3.415.408a.83.83 0 0 1-.354-.239 1.18 1.18 0 0 0-.76-.35.84.84 0 0 1-.408-.112q-.113-.074-.224-.153c-1.649-1.179-3.345-3.719-2.749-5.574.294-.913 2.212-3.085 3.448-4.014" clip-rule="evenodd"/><path fill="#D89000" d="m8.791 61.032.8-.462-1.398-4.294c-.02-.05-.113-.051-.184-.012-.068.038-.114.115-.107.18l.278 1.446a.3.3 0 0 1-.015.166.3.3 0 0 0-.013.181l.478 1.954a1 1 0 0 0 .032.095l.079.18-.057.495c-.007.06.056.1.107.07"/><path fill="#44413B" stroke="#37342F" stroke-miterlimit="3.99393" stroke-width="1.41701" d="m74.515 9.28 2.523-1.434a.07.07 0 0 0 .017-.107c-.149-.155-.448-.427-.574-.409l.52-.3a.07.07 0 0 0 .025-.1l-.706-1.139c-.064-.14-.359-.34-.641-.411-.273-.07-.627.078-.782.266l-1.95 2.774a.22.22 0 0 0-.01.232l.243.42c.02.034.063.046.098.026l.697-.403a.216.216 0 0 1 .316.127l.12.416a.072.072 0 0 0 .104.043Z"/><path fill="#E99F0C" d="m73.668 19.109-1.246-2.158-24.84 14.341c-2.37 1.368-6.027 1.166-6.628-1.234a.56.56 0 0 1 .192-.554c.806-.692 1.76-1.35 3.042-2.09L79.183 7.21l2.613 4.527.42 2.437z"/><path fill="#D5920B" d="M45.192 27.901c-1.595.852-2.647 1.282-4.222 1.855a.6.6 0 0 1 .175-.253c.799-.685 1.744-1.338 3.009-2.07L79.182 7.21l.414.717z"/><path fill="#DA950B" d="m73.668 19.11 3.057 5.295 3.982-2.3 2.344-1.57a.43.43 0 0 0 .185-.432l-1.02-5.928z"/><path fill="#D08F0B" d="m83.237 20.103-.561-5.993a.7.7 0 0 0-.045-.19l-.834-2.183z"/><path fill="#C28100" d="m80.452 21.687.916 1.586-30.632 17.685.062.12-1.657-.138a.07.07 0 0 1-.056-.035l-.192-.333a.575.575 0 0 1 .21-.785z"/><path fill="#EB9D00" d="m52.29 40.063.836 1.45c.02.034.064.046.098.026l1.374-.794a.07.07 0 0 0 .026-.098l-.837-1.45zm3.447-1.991.837 1.45c.02.034.064.046.098.026l1.374-.793a.07.07 0 0 0 .026-.098l-.837-1.45zm3.447-1.99.837 1.45c.02.034.064.046.098.026l1.374-.794a.07.07 0 0 0 .027-.098l-.838-1.45zm3.448-1.991.837 1.45c.02.034.064.046.098.026l1.374-.793a.07.07 0 0 0 .026-.098l-.837-1.45zM66.08 32.1l.837 1.45c.02.035.063.047.098.027l1.373-.793a.07.07 0 0 0 .027-.099l-.837-1.45zm3.447-1.99.837 1.45c.02.034.064.046.098.026l1.374-.793a.07.07 0 0 0 .026-.098l-.837-1.45zm3.448-1.99.837 1.45c.02.034.063.046.098.026l1.374-.793a.07.07 0 0 0 .026-.099l-.837-1.45zm3.447-1.99.837 1.45c.02.034.064.045.098.025l1.374-.793a.07.07 0 0 0 .026-.098l-.837-1.45zm3.448-1.991.837 1.45c.02.034.064.046.098.026l1.374-.793a.07.07 0 0 0 .026-.098c-.216-.375-.761-1.324-.837-1.45z"/><path stroke="#640" stroke-miterlimit="3.99393" stroke-width="1.41701" d="m52.29 40.063.836 1.45c.02.034.064.046.098.026l1.374-.794a.07.07 0 0 0 .026-.098l-.837-1.45zm3.447-1.991.837 1.45c.02.034.064.046.098.026l1.374-.793a.07.07 0 0 0 .026-.098l-.837-1.45zm3.447-1.99.837 1.45c.02.034.064.046.098.026l1.374-.794a.07.07 0 0 0 .027-.098l-.838-1.45zm3.448-1.991.837 1.45c.02.034.064.046.098.026l1.374-.793a.07.07 0 0 0 .026-.098l-.837-1.45zM66.08 32.1l.837 1.45c.02.035.063.047.098.027l1.373-.793a.07.07 0 0 0 .027-.099l-.837-1.45zm3.447-1.99.837 1.45c.02.034.064.046.098.026l1.374-.793a.07.07 0 0 0 .026-.098l-.837-1.45zm3.448-1.99.837 1.45c.02.034.063.046.098.026l1.374-.793a.07.07 0 0 0 .026-.099l-.837-1.45zm3.447-1.99.837 1.45c.02.034.064.045.098.025l1.374-.793a.07.07 0 0 0 .026-.098l-.837-1.45zm3.448-1.991.837 1.45c.02.034.064.046.098.026l1.374-.793a.07.07 0 0 0 .026-.098c-.216-.375-.761-1.324-.837-1.45z"/><circle cx="34.9383" cy="49.3014" r="0.556744" fill="#B17E18" transform="rotate(-30 34.938 49.301)"/><path fill="#D78F00" d="m43.19 42.1-.167 3.145c.707.433 1.836.5 2.825.15l.013.025a.966.966 0 1 0 1.616-1.054c.695-.75.93-1.28 1.033-2.483.583-.374.14-1.183-.595-1.03l-1.132.18a.5.5 0 0 1-.415-.121l-.29-.26a.36.36 0 0 0-.223-.09z"/><path fill="#57534B" stroke="#37342F" stroke-miterlimit="3.99393" stroke-width="1.41701" d="M37.538 60.602a1.144 1.144 0 1 0-1.712-1.094l-1.746.654a.496.496 0 1 0 .349.93l1.745-.654c.358.343.913.424 1.364.164Z"/><path fill="#DB9200" d="m38.21 48.845-2.82 2.117a2.8 2.8 0 0 0-.61.607c-.944 1.333-1.106 2.614-.305 4.185.673 1.32 2.029 2.12 3.82 2.493a.5.5 0 0 0 .193 0l.368-.07-.081-.008a.84.84 0 0 1-.408-.112q-.113-.074-.223-.153c-1.649-1.179-3.346-3.719-2.75-5.573.248-.768 1.643-2.426 2.815-3.487"/><path fill="#46433C" d="m45.343 86.713-13.618 7.862a.204.204 0 0 1-.28-.074l-.378-.656a.204.204 0 0 1 .075-.28l17.537-9.97a.216.216 0 0 1 .293.08l.184.319a.215.215 0 0 1-.079.294l-1.508.87c-.628.59-1.268 1.002-2.226 1.555"/><path stroke="#37342F" stroke-miterlimit="3.99393" stroke-width="1.41701" d="m31.073 92.978.137.401.232.015-.302.172a.204.204 0 0 0-.074.28l.378.655a.204.204 0 0 0 .28.075l13.617-7.863c.959-.553 1.599-.965 2.227-1.554l1.508-.87a.216.216 0 0 0 .079-.295l-.184-.318a.216.216 0 0 0-.293-.08L44.7 85.857l-.428-.74z"/><circle cx="36.9664" cy="59.6138" r="0.564481" fill="#3F3C36" transform="rotate(-30 36.966 59.614)"/><path fill="#47443D" d="m44.589 41.525 2.894 2.335a.14.14 0 0 1 .036.173c-.878 1.63-3.296 1.948-4.497 1.212l-2.013 1.21a.144.144 0 0 1-.195-.047l-.749-1.186a.07.07 0 0 1-.002-.072l.875-1.624 3.489-2.014a.14.14 0 0 1 .162.013"/><path fill="#3F3C37" d="m46.563 43.116.92.744a.14.14 0 0 1 .037.173c-.878 1.63-3.296 1.948-4.497 1.212-4.52 2.717 2.578-1.55 3.54-2.129"/><circle cx="46.3946" cy="45.207" r="0.933708" fill="#4B4841" transform="rotate(-30 46.395 45.207)"/><path fill="#3C3934" d="m46.293 42.897-1.701-1.373a.14.14 0 0 0-.162-.012l1.242-.717a.287.287 0 0 1 .392.105l.254.439c.137.238.151.715.038.78l.11.192z"/><path fill="#49463F" stroke="#37342F" stroke-miterlimit="3.99393" stroke-width="1.41701" d="m12.877 45.128-3.37 2.065a.152.152 0 0 1-.23-.141l.059-.86a.152.152 0 0 0-.228-.143l-.538.31a.076.076 0 0 1-.104-.028L7.08 43.934c-.153-.266-.253-.605-.059-.717l.941-.544a1.82 1.82 0 0 1 1.257-.212l3.324.634a.23.23 0 0 1 .155.11l.295.511a.076.076 0 0 1-.029.105l-.68.38a.152.152 0 0 0-.01.26l.608.411a.152.152 0 0 1-.006.256Z"/><path fill="#E09600" d="M49.828 45.666 46.5 47.587c.181.029.364.06.511.168.643.47 1.17 1.023 1.532 1.65l1.593 2.759a1.94 1.94 0 0 1-.71 2.65L43.3 58.35c-1.097.633-2.289.724-3.415.407a.6.6 0 0 1-.21-.109c.461.985.756 1.912 1.027 3.057a5.16 5.16 0 0 1 1.791-1.696l1.499-.566c.658-.24 4.808-2.674 8.321-4.783.498-.298.638-.955.308-1.433l-.18-.259c-2.07-2.735-2.895-4.54-2.614-7.302"/><path fill="#F2A60D" stroke="#640" stroke-miterlimit="3.99393" stroke-width="1.41701" d="M68.079 13.417a.177.177 0 0 0 .242.065l-1.805 1.043-1.643.948-1.805 1.042-1.642.948-1.806 1.042-1.642.949-1.805 1.042-1.642.948-1.806 1.042-1.642.948-1.805 1.043-1.642.948-1.806 1.042a.177.177 0 0 0 .065-.242l-.424-.735a.07.07 0 0 1 .026-.098l1.374-.793a.07.07 0 0 1 .098.026l.424.735a.177.177 0 0 0 .242.065l1.643-.948a.177.177 0 0 0 .065-.242l-.425-.735a.07.07 0 0 1 .027-.098l1.373-.794a.07.07 0 0 1 .099.027l.424.735a.177.177 0 0 0 .242.064l1.642-.948a.177.177 0 0 0 .065-.242l-.424-.735a.07.07 0 0 1 .026-.098l1.374-.793a.07.07 0 0 1 .098.026l.425.735a.177.177 0 0 0 .242.065l1.642-.948a.177.177 0 0 0 .065-.242l-.425-.735a.07.07 0 0 1 .027-.098l1.374-.793a.07.07 0 0 1 .098.026l.424.735a.177.177 0 0 0 .242.065l1.642-.949a.177.177 0 0 0 .065-.242l-.424-.735a.07.07 0 0 1 .026-.098l1.374-.793a.07.07 0 0 1 .098.026l.425.735a.177.177 0 0 0 .242.065l1.642-.948a.177.177 0 0 0 .065-.242l-.424-.735a.07.07 0 0 1 .026-.098l1.374-.793a.07.07 0 0 1 .098.026l.424.735a.177.177 0 0 0 .242.065l1.643-.949a.177.177 0 0 0 .064-.242l-.424-.735a.07.07 0 0 1 .026-.098l1.374-.793a.07.07 0 0 1 .099.026z"/><path stroke="#640" stroke-miterlimit="3.99393" stroke-width="1.41701" d="M8.86 59.932c.22.957-.023 2.041-.629 2.416-2.989 1.852-5.754 5.46-5.399 6.076.421.73 1.59.813 2.11.513l5.4-3.018c1.705-.984 3.928-1.007 5.547-.187 1.449.736 2.722 2.185 3.255 3.865l6.79 22.58.105.183-1.111.641a.07.07 0 0 0-.027.099l.602 1.042c.01.018.03.031.05.035 1.328.221 2.093.228 3.46.1q.016 0 .028-.009l12.587-7.267c2.593-1.497 4.516-2.666 6.165-4.27a.213.213 0 0 0-.011-.315l-2.273-1.955A5.03 5.03 0 0 1 44 78.179l-3.867-12.106a5.17 5.17 0 0 1 2.365-6.063l1.498-.566c.659-.24 4.81-2.673 8.322-4.782.498-.299.638-.956.307-1.433l-.179-.26c-2.567-3.392-3.22-5.352-2.223-9.485l1.296-.903a.07.07 0 0 0 .024-.09l-.805-1.532L81.37 23.274l-2.254-3.904zm29.982-11.615 2.022-1.168c1.507-.87 2.894-.94 4.167-.452q.177.068.35.142c.174.075.3.223.423.369l.047.055a.93.93 0 0 0 .553.31l.075.012c.19.03.382.06.535.171.643.47 1.17 1.023 1.532 1.65l1.593 2.759a1.94 1.94 0 0 1-.71 2.65l-6.125 3.536c-1.097.633-2.289.725-3.415.408a.83.83 0 0 1-.354-.239 1.18 1.18 0 0 0-.76-.35.84.84 0 0 1-.408-.112q-.113-.074-.224-.153c-1.649-1.179-3.345-3.719-2.749-5.574.294-.913 2.212-3.085 3.448-4.014Z" clip-rule="evenodd"/><path stroke="#640" stroke-miterlimit="3.99393" stroke-width="2.83402" d="m9.509 47.191 3.37-2.064a.152.152 0 0 0 .005-.256l-.609-.412a.15.15 0 0 1-.065-.15l3.446-1.99q.187-.108.343-.259l2.196-2.126a.2.2 0 0 1 .045-.034l11.626-6.712a.15.15 0 0 1 .208.055l.134.232 9.628-5.559a.24.24 0 0 1 .155-.026c.46.072 1.21-.02 1.605-.247l1.827-1.055a.07.07 0 0 1 .098.026l.424.735a.177.177 0 0 0 .242.065l25.776-14.881a.177.177 0 0 0 .065-.243l-.425-.735a.07.07 0 0 1 .027-.098l2.132-1.231a.4.4 0 0 0 .1-.08l.54-.58a.4.4 0 0 1 .1-.08l.69-.398c.022.02.056.025.084.009l.697-.403a.216.216 0 0 1 .315.127l.12.416a.072.072 0 0 0 .104.043l2.523-1.435a.07.07 0 0 0 .017-.107c-.148-.155-.434-.397-.573-.409l.52-.3a.07.07 0 0 0 .025-.1L77 6.889l1.249-.72a.29.29 0 0 1 .392.105l3.154 5.463.835 2.182q.035.092.044.19l.56 5.994a.43.43 0 0 1-.184.431l-2.343 1.571-.01.006.67 1.161-30.632 17.686.805 1.532a.07.07 0 0 1-.024.09l-1.296.903c-.997 4.133-.344 6.093 2.223 9.486l.18.258c.33.478.19 1.135-.308 1.434-3.513 2.108-7.663 4.541-8.322 4.782l-1.498.566-.017.008-.008.004a5.17 5.17 0 0 0-2.34 6.051l3.867 12.105a5.03 5.03 0 0 0 1.51 2.282l2.273 1.956c.095.082.1.227.01.314-1.648 1.605-3.57 2.774-6.164 4.27L29.04 94.268a.1.1 0 0 1-.03.01c-1.366.127-2.13.12-3.458-.102a.07.07 0 0 1-.05-.034l-.602-1.043a.07.07 0 0 1 .026-.098l1.111-.642-.105-.182-6.79-22.58c-.533-1.68-1.806-3.13-3.255-3.865-1.619-.82-3.842-.798-5.547.186l-5.4 3.019c-.52.3-1.689.216-2.11-.513-.355-.616 2.41-4.225 5.4-6.076.605-.375.849-1.46.628-2.417l.225-.13-1.005-3.808a.04.04 0 0 0-.048-.027l-.104.033a.04.04 0 0 1-.048-.028l-.853-3.98c-.03-.294 1.154-4.603 1.368-5.378a.3.3 0 0 1 .141-.181l.69-.399c.066.018.118.08.113.158l-.06.86a.152.152 0 0 0 .232.141Z"/><path fill="#4E4A43" d="m17.057 57.954 2.72 10.693a.65.65 0 0 1-.243.68l-.632.467c.517 2.04.732 3.918 1 6.254.132 1.161.278 2.436.48 3.901.772 5.578 1.624 8.467 3.99 12.714a.43.43 0 0 0 .577.169c6.573-3.466 10.312-5.571 16.72-9.562.389-.225.745-.742.65-1.098L35.04 61.619a.36.36 0 0 0-.469-.215l-.56.218a.836.836 0 0 1-.606-1.557l.628-.245a.36.36 0 0 0 .209-.455l-2.271-6.412a.503.503 0 0 0-.726-.268l-8.715 5.032a.43.43 0 0 1-.589-.158l-1.059-1.834a.647.647 0 0 0-.917-.216l-2.638 1.746a.65.65 0 0 0-.27.699"/><path fill="#47443E" d="M34.19 65.838a.575.575 0 0 1 1.059.066l5.493 15.8a.36.36 0 0 1-.213.455c-6.178 2.39-9.462 4.263-14.47 8.347a.36.36 0 0 1-.515-.061c-.837-1.142-1.358-2.1-1.729-3.216a.5.5 0 0 1 .027-.371z"/><circle cx="23.9694" cy="83.4502" r="1.02991" fill="#413F39" transform="rotate(-30 23.97 83.45)"/><path fill="#47443E" d="M32.942 59.267c.038.11.006.23-.078.31-.454.437-.683.825-.703 1.23-.022.409.168.835.59 1.356.073.09.089.214.037.318l-9.466 18.955a.287.287 0 0 1-.542-.09l-1.718-13.182c-.495-3.796.927-6.483 4.922-8.707 1.997-1.111 3.25-1.662 5.18-2.51l.343-.152a.503.503 0 0 1 .678.295z"/><circle cx="29.4504" cy="72.0644" r="3.27078" fill="#3F3C37" transform="rotate(-30 29.45 72.064)"/><circle cx="29.4503" cy="72.0652" r="2.98476" fill="#47443E" transform="rotate(-30 29.45 72.065)"/><path stroke="#37342F" stroke-miterlimit="3.99393" stroke-width="1.41701" d="m17.057 57.954 2.72 10.693a.65.65 0 0 1-.243.68l-.632.467c.517 2.04.732 3.918 1 6.254.132 1.161.278 2.436.48 3.901.772 5.578 1.624 8.467 3.99 12.714a.43.43 0 0 0 .577.169c6.573-3.466 10.312-5.571 16.72-9.562.389-.225.745-.742.65-1.098L35.04 61.619a.36.36 0 0 0-.469-.215l-.56.218a.836.836 0 0 1-.606-1.557l.628-.245a.36.36 0 0 0 .209-.455l-2.271-6.412a.503.503 0 0 0-.726-.268l-8.715 5.032a.43.43 0 0 1-.589-.158l-1.059-1.834a.647.647 0 0 0-.917-.216l-2.638 1.746a.65.65 0 0 0-.27.699Z"/><path fill="#FFA800" d="m9.509 47.19 3.37-2.063a.152.152 0 0 0 .005-.256l-.609-.412a.15.15 0 0 1-.065-.151l3.446-1.99q.187-.107.343-.258l2.196-2.127a.2.2 0 0 1 .045-.034l11.626-6.712a.15.15 0 0 1 .208.056l2.483 4.3c.612 1.06 2.015 1.338 2.804.883L72.39 17.047a.076.076 0 0 1 .104.028l3.51 6.079-66.38 38.323a.076.076 0 0 1-.112-.046l-1.435-5.44a.04.04 0 0 0-.048-.026l-.104.033a.04.04 0 0 1-.048-.028l-.853-3.98c-.03-.294 1.154-4.604 1.368-5.378a.3.3 0 0 1 .141-.182l.69-.398c.066.018.118.08.113.158l-.06.86a.152.152 0 0 0 .232.14"/><path fill="#F09E00" d="M33.51 38.411c.629.299 1.36.3 1.852.016L72.39 17.05a.076.076 0 0 1 .104.028l1.446 2.505-35.768 20.54a2.515 2.515 0 0 1-2.838-.229zm-19.698 20.65-1.217.703-2.732-10.216 1.217-.703zm1.623-.937-1.218.703-2.732-10.216 1.217-.702zm1.622-.937-1.217.703-2.732-10.215 1.217-.703zm1.623-.937-1.217.703-2.733-10.215 1.218-.703zm1.622-.936-1.217.703L16.353 45.8l1.217-.703zm1.623-.937-1.217.703-2.732-10.216 1.217-.703zm1.622-.937-1.217.703-2.732-10.216 1.217-.702zm1.623-.936-1.217.702L21.22 42.99l1.217-.702zm1.623-.937-1.218.702-2.732-10.215 1.217-.703zm1.622-.937-1.217.703-2.732-10.216 1.217-.703zm1.623-.937-1.217.703-2.733-10.216 1.218-.703zm1.622-.937-1.217.703-2.732-10.216 1.217-.702zm1.623-.936-1.217.702-2.732-10.215 1.217-.703z"/><path fill="#DA9000" d="m17.72 43.126-6.743 3.893c-1.292.746-1.629 2.56-.882 3.854.746 1.292 2.593 1.846 3.886 1.1l.364-.21a2 2 0 0 1 .349-.16l5.844-2.02c1.735-.631-.428-4.551-.895-5.255l-.589-.889a1 1 0 0 0-1.334-.313"/><path fill="#4E4A43" d="m17.2 43.493-6.143 3.546a2.646 2.646 0 1 0 3.38 3.957l4.59-5.377a.79.79 0 0 0 .056-.95l-.577-.87a.98.98 0 0 0-1.306-.306"/><path fill="#44413B" d="m16.922 43.653-1.76 2.212c-.444.558.212 1.32.83.962l2.404-1.388c.39-.224.673-.784.476-1.088l-.366-.552a.98.98 0 0 0-1.306-.306z"/><circle cx="12.3816" cy="49.3301" r="1.406" fill="#44413B" transform="rotate(-30 12.382 49.33)"/><path fill="#3C3934" d="m13.238 50.445-1.965-1.982q.108-.137.25-.248l1.965 1.982a1.4 1.4 0 0 1-.25.248"/><rect width="1.44269" height="0.946325" x="19.0938" y="47.8438" fill="#BD7E00" rx="0.473162" transform="rotate(-8.936 19.094 47.844)"/><circle cx="17.7734" cy="49.4145" r="0.494712" fill="#ED220D" transform="rotate(-30 17.773 49.414)"/><path stroke="#640" stroke-miterlimit="3.99393" stroke-width="1.41701" d="m9.509 47.19 3.37-2.063a.152.152 0 0 0 .005-.256l-.609-.412a.15.15 0 0 1-.065-.151l3.446-1.99q.187-.107.343-.258l2.196-2.127a.2.2 0 0 1 .045-.034l11.626-6.712a.15.15 0 0 1 .208.056l2.483 4.3c.612 1.06 2.015 1.338 2.804.883L72.39 17.047a.076.076 0 0 1 .104.028l3.51 6.079-66.38 38.323a.076.076 0 0 1-.112-.046l-1.435-5.44a.04.04 0 0 0-.048-.026l-.104.033a.04.04 0 0 1-.048-.028l-.853-3.98c-.03-.294 1.154-4.604 1.368-5.378a.3.3 0 0 1 .141-.182l.69-.398c.066.018.118.08.113.158l-.06.86a.152.152 0 0 0 .232.14Z"/><path fill="#B27F18" stroke="#5A400C" stroke-miterlimit="3.99393" stroke-width="1.41701" d="M67.029 63.24c-3.092-.88-5.105-4.195-5.051-7.567l-1.612 1.325-.953 1.667c.778 1.944 1.188 3.088 2.64 4.343 1.042.902 3.259 1.306 4.915.804.211-.064.307-.152.33-.26.025-.113-.036-.245-.27-.312Z"/><path fill="#44413B" fill-rule="evenodd" d="M27.173 70.54q.03-.173.054-.336l.19-.145a.035.035 0 0 0 .008-.046l-.14-.22.01-.077.179-.15a.035.035 0 0 0 .007-.045l-.137-.23.008-.079.16-.135a.035.035 0 0 0 .006-.046l-.137-.201.005-.074.18-.136a.035.035 0 0 0 .006-.05l-.172-.202.001-.097.187-.127a.035.035 0 0 0 .006-.052l-.195-.215-.002-.073.155-.145a.035.035 0 0 0 .003-.049l-.176-.201-.006-.096.156-.125a.035.035 0 0 0 .003-.052l-.186-.188a26 26 0 0 0-.076-.746c-.046-.4.354-.848.812-.912l2.139-.3c2.3.645 3.695-.285 4.708-2.043l3.642 2.934-1.735 2.017c-.167.196-.414.327-.67.308-3.26-.243-5.184.877-7.03 3.106-.373.452-.893.406-1.176.327-.333-.094-.89-.482-.787-1.1m9.46-4.843a.893.893 0 1 0-1.692-.577.893.893 0 0 0 1.691.577" clip-rule="evenodd"/><circle cx="28.1097" cy="70.864" r="0.480888" fill="#3B3833" transform="rotate(-98.696 28.11 70.864)"/><path stroke="#37342F" stroke-miterlimit="3.99393" stroke-width="1.41701" d="M27.173 70.54q.03-.173.054-.336l.19-.145a.035.035 0 0 0 .008-.046l-.14-.22.01-.077.179-.15a.035.035 0 0 0 .007-.045l-.137-.23.008-.079.16-.135a.035.035 0 0 0 .006-.046l-.137-.201.005-.074.18-.136a.035.035 0 0 0 .006-.05l-.172-.202.001-.097.187-.127a.035.035 0 0 0 .006-.052l-.195-.215-.002-.073.155-.145a.035.035 0 0 0 .003-.049l-.176-.201-.006-.096.156-.125a.035.035 0 0 0 .003-.052l-.186-.188a26 26 0 0 0-.076-.746c-.046-.4.354-.848.812-.912l2.139-.3c2.3.645 3.695-.285 4.708-2.043l3.642 2.934-1.735 2.017c-.167.196-.414.327-.67.308-3.26-.243-5.184.877-7.03 3.106-.373.452-.893.406-1.176.327-.333-.094-.89-.482-.787-1.1Zm9.46-4.843a.893.893 0 1 0-1.692-.577.893.893 0 0 0 1.691.577Z" clip-rule="evenodd"/><path fill="#F2A60D" fill-rule="evenodd" d="m101.231 14.33-2.522 1.435a.072.072 0 0 1-.105-.043l-.12-.416a.216.216 0 0 0-.315-.127l-.697.403a.07.07 0 0 1-.084-.009l-.689.398a.4.4 0 0 0-.1.08l-.54.58a.4.4 0 0 1-.1.08l-2.133 1.231a.07.07 0 0 0-.026.098l.424.735a.177.177 0 0 1-.065.242l-1.642.948a.177.177 0 0 1-.242-.064l-.425-.735a.07.07 0 0 0-.098-.027l-1.374.794a.07.07 0 0 0-.026.098l.424.735a.177.177 0 0 1-.065.242l-1.642.948a.177.177 0 0 1-.242-.065l-.424-.735a.07.07 0 0 0-.099-.026l-1.373.793a.07.07 0 0 0-.027.098l.425.735a.177.177 0 0 1-.065.242l-1.642.948a.177.177 0 0 1-.243-.064l-.424-.735a.07.07 0 0 0-.098-.027l-1.374.793a.07.07 0 0 0-.026.099l.424.735a.177.177 0 0 1-.065.242l-1.642.948a.177.177 0 0 1-.242-.065l-.425-.735a.07.07 0 0 0-.098-.026l-1.374.793a.07.07 0 0 0-.026.098l.424.735a.177.177 0 0 1-.064.242l-1.643.948a.177.177 0 0 1-.242-.064l-.424-.735a.07.07 0 0 0-.098-.027l-1.374.794a.07.07 0 0 0-.026.098l.424.735a.177.177 0 0 1-.065.242l-1.642.948a.177.177 0 0 1-.242-.065l-.425-.735a.07.07 0 0 0-.098-.026l-1.374.793a.07.07 0 0 0-.026.098l.424.735a.177.177 0 0 1-.065.242l-1.642.948a.177.177 0 0 1-.242-.065l-.424-.735a.07.07 0 0 0-.098-.026l-1.374.793a.07.07 0 0 0-.026.099l.424.734a.177.177 0 0 1-.065.243l-1.642.948a.177.177 0 0 1-.243-.065l-.424-.735a.07.07 0 0 0-.098-.026l-1.827 1.055c-.395.228-1.146.319-1.605.247a.24.24 0 0 0-.155.026l-9.628 5.559 2.35 4.068c.23.4.572.688.952.868l-.001-.001c.629.299 1.36.3 1.852.016l37.029-21.379a.077.077 0 0 1 .104.029l4.231 7.328 3.982-2.3 2.343-1.57a.43.43 0 0 0 .185-.431l-1.44-8.367-3.153-5.462a.29.29 0 0 0-.393-.105l-1.249.72.024.04c.022.034.01.08-.025.1l-.52.3c.126-.018.425.254.573.409a.068.068 0 0 1-.017.107" clip-rule="evenodd"/><path fill="#3F3C37" d="m55.406 99.864-.138-.401 13.2-7.862.535.925-13.239 7.361z"/><path fill="#EB9D00" fill-rule="evenodd" d="M33.056 66.415c.22.957-.023 2.042-.63 2.417-2.988 1.851-5.754 5.46-5.398 6.076.42.728 1.589.812 2.108.512l5.402-3.018c1.704-.984 3.927-1.007 5.546-.186 1.45.735 2.722 2.185 3.255 3.865l6.79 22.58.105.182-1.11.642a.07.07 0 0 0-.027.098l.602 1.042a.07.07 0 0 0 .05.035c1.327.222 2.092.229 3.458.101a.1.1 0 0 0 .03-.009l12.587-7.267c2.593-1.498 4.515-2.666 6.164-4.271a.213.213 0 0 0-.01-.314l-2.273-1.956a5.03 5.03 0 0 1-1.511-2.282l-3.867-12.105a5.17 5.17 0 0 1 2.365-6.063l1.499-.567c.658-.24 4.808-2.673 8.322-4.782.497-.299.637-.956.307-1.433l-.18-.259c-2.567-3.393-3.22-5.353-2.222-9.485l1.295-.904a.07.07 0 0 0 .024-.09l-.805-1.531 30.632-17.686-2.253-3.904zM63.036 54.8l2.023-1.168c1.507-.87 2.894-.939 4.167-.451q.177.067.35.142c.175.074.3.222.423.368l.047.055a.93.93 0 0 0 .628.323c.19.029.382.058.535.17.643.47 1.17 1.024 1.532 1.65l1.593 2.76a1.94 1.94 0 0 1-.71 2.65l-6.125 3.536c-1.097.633-2.288.724-3.414.407a.83.83 0 0 1-.355-.238 1.18 1.18 0 0 0-.76-.35.84.84 0 0 1-.408-.113q-.113-.073-.224-.153c-1.648-1.179-3.345-3.719-2.749-5.573.294-.913 2.212-3.086 3.448-4.015" clip-rule="evenodd"/><path fill="#D89000" d="m32.985 67.515.799-.461-1.397-4.295c-.02-.049-.114-.05-.184-.012s-.114.115-.107.18l.278 1.446a.3.3 0 0 1-.016.166.3.3 0 0 0-.012.181l.477 1.954a1 1 0 0 0 .032.096l.08.179-.058.496c-.007.059.056.1.107.07"/><path fill="#44413B" stroke="#37342F" stroke-miterlimit="3.99393" stroke-width="1.41701" d="m98.708 15.764 2.523-1.434a.07.07 0 0 0 .017-.108c-.148-.154-.448-.426-.573-.408l.519-.3a.07.07 0 0 0 .026-.1l-.707-1.14c-.064-.14-.358-.339-.641-.411-.273-.07-.627.078-.782.266l-1.949 2.774a.22.22 0 0 0-.01.232l.242.42c.02.034.064.046.098.026l.698-.403a.216.216 0 0 1 .315.128l.12.416a.072.072 0 0 0 .104.042Z"/><path fill="#E99F0C" d="m97.864 25.592-1.246-2.158-24.84 14.342c-2.37 1.368-6.027 1.165-6.628-1.234a.56.56 0 0 1 .191-.555c.806-.691 1.76-1.35 3.043-2.09l34.994-20.203 2.613 4.526.42 2.438z"/><path fill="#D5920B" d="M69.388 34.386c-1.596.851-2.648 1.282-4.223 1.854a.6.6 0 0 1 .175-.253c.799-.685 1.744-1.337 3.009-2.07l35.028-20.223.415.718z"/><path fill="#DA950B" d="m97.863 25.593 3.058 5.295 3.982-2.299 2.343-1.57a.44.44 0 0 0 .164-.207.44.44 0 0 0 .021-.225l-1.02-5.929z"/><path fill="#D08F0B" d="m107.43 26.587-.561-5.994a.7.7 0 0 0-.044-.19l-.835-2.183z"/><path fill="#C28100" d="m104.648 28.17.915 1.586-30.632 17.685.063.12-1.657-.137a.07.07 0 0 1-.057-.036l-.192-.332a.575.575 0 0 1 .21-.786z"/><path fill="#EB9D00" d="m76.482 46.546.838 1.45c.02.034.063.046.098.026l1.373-.793a.07.07 0 0 0 .027-.098l-.837-1.45zm3.448-1.991.837 1.45c.02.035.064.046.098.027l1.374-.794a.07.07 0 0 0 .026-.098l-.837-1.45zm3.448-1.99.837 1.45c.02.034.063.046.098.026l1.374-.793a.07.07 0 0 0 .026-.098l-.837-1.45zm3.447-1.99.837 1.45c.02.034.064.046.098.026l1.374-.794a.07.07 0 0 0 .026-.098l-.837-1.45zm3.448-1.991.837 1.45c.02.034.064.046.098.026l1.374-.793a.07.07 0 0 0 .026-.098l-.837-1.45zm3.447-1.99.837 1.45c.02.034.064.046.099.026l1.373-.794a.07.07 0 0 0 .027-.098l-.837-1.45zm3.448-1.991.837 1.45c.02.034.064.046.098.026l1.374-.793a.07.07 0 0 0 .026-.098l-.837-1.45zm3.447-1.99.838 1.45a.07.07 0 0 0 .098.026l1.374-.793a.07.07 0 0 0 .026-.099l-.837-1.45zm3.448-1.991.837 1.45c.02.034.064.046.098.026l1.374-.793a.07.07 0 0 0 .026-.098c-.216-.374-.761-1.324-.837-1.45z"/><path stroke="#640" stroke-miterlimit="3.99393" stroke-width="1.41701" d="m76.482 46.546.838 1.45c.02.034.063.046.098.026l1.373-.793a.07.07 0 0 0 .027-.098l-.837-1.45zm3.448-1.991.837 1.45c.02.035.064.046.098.027l1.374-.794a.07.07 0 0 0 .026-.098l-.837-1.45zm3.448-1.99.837 1.45c.02.034.063.046.098.026l1.374-.793a.07.07 0 0 0 .026-.098l-.837-1.45zm3.447-1.99.837 1.45c.02.034.064.046.098.026l1.374-.794a.07.07 0 0 0 .026-.098l-.837-1.45zm3.448-1.991.837 1.45c.02.034.064.046.098.026l1.374-.793a.07.07 0 0 0 .026-.098l-.837-1.45zm3.447-1.99.837 1.45c.02.034.064.046.099.026l1.373-.794a.07.07 0 0 0 .027-.098l-.837-1.45zm3.448-1.991.837 1.45c.02.034.064.046.098.026l1.374-.793a.07.07 0 0 0 .026-.098l-.837-1.45zm3.447-1.99.838 1.45a.07.07 0 0 0 .098.026l1.374-.793a.07.07 0 0 0 .026-.099l-.837-1.45zm3.448-1.991.837 1.45c.02.034.064.046.098.026l1.374-.793a.07.07 0 0 0 .026-.098c-.216-.374-.761-1.324-.837-1.45z"/><circle cx="59.1336" cy="55.7848" r="0.556744" fill="#B17E18" transform="rotate(-30 59.134 55.785)"/><path fill="#D78F00" d="m67.388 48.583-.168 3.145c.707.433 1.837.501 2.825.151l.013.024a.966.966 0 1 0 1.616-1.053c.695-.75.93-1.28 1.033-2.483.583-.375.14-1.183-.594-1.03l-1.133.18a.5.5 0 0 1-.415-.122l-.29-.26a.36.36 0 0 0-.223-.09z"/><path fill="#57534B" stroke="#37342F" stroke-miterlimit="3.99393" stroke-width="1.41701" d="M61.733 67.085a1.144 1.144 0 1 0-1.712-1.093l-1.745.654a.496.496 0 1 0 .348.93l1.745-.655c.358.343.913.425 1.364.164Z"/><path fill="#DB9200" d="m62.403 55.328-2.82 2.118a2.8 2.8 0 0 0-.61.607c-.944 1.332-1.105 2.613-.305 4.184.673 1.32 2.029 2.12 3.821 2.493a.5.5 0 0 0 .193.001l.367-.07-.08-.008a.84.84 0 0 1-.408-.113q-.114-.073-.224-.153c-1.649-1.178-3.345-3.718-2.749-5.573.247-.768 1.642-2.425 2.815-3.486"/><path fill="#46433C" d="m69.536 93.196-13.618 7.863a.204.204 0 0 1-.28-.075l-.378-.656a.205.205 0 0 1 .075-.279l17.538-9.97a.216.216 0 0 1 .293.08l.184.318a.216.216 0 0 1-.08.295l-1.507.87c-.629.589-1.269 1.001-2.227 1.554"/><path stroke="#37342F" stroke-miterlimit="3.99393" stroke-width="1.41701" d="m55.268 99.462.138.4.232.016-.302.172a.204.204 0 0 0-.075.279l.379.655a.204.204 0 0 0 .279.075l13.618-7.862c.958-.553 1.598-.966 2.227-1.554l1.507-.87a.216.216 0 0 0 .08-.295l-.184-.319a.216.216 0 0 0-.294-.08l-3.977 2.262-.428-.741z"/><circle cx="61.1617" cy="66.0972" r="0.564481" fill="#3F3C36" transform="rotate(-30 61.162 66.097)"/><path fill="#47443D" d="m68.784 48.008 2.894 2.335a.14.14 0 0 1 .037.174c-.878 1.63-3.297 1.948-4.497 1.212l-2.013 1.21a.144.144 0 0 1-.196-.047l-.749-1.187a.07.07 0 0 1-.002-.072l.875-1.623 3.49-2.015a.14.14 0 0 1 .161.013"/><path fill="#3F3C37" d="m70.76 49.6.92.743a.14.14 0 0 1 .038.173c-.878 1.63-3.297 1.949-4.498 1.213-4.52 2.716 2.579-1.551 3.54-2.13"/><circle cx="70.5899" cy="51.6904" r="0.933708" fill="#4B4841" transform="rotate(-30 70.59 51.69)"/><path fill="#3C3934" d="m70.486 49.38-1.7-1.372a.14.14 0 0 0-.163-.013l1.242-.717a.287.287 0 0 1 .393.105l.253.44c.138.238.152.714.038.78l.111.191z"/><path fill="#49463F" stroke="#37342F" stroke-miterlimit="3.99393" stroke-width="1.41701" d="m37.075 51.612-3.37 2.064a.152.152 0 0 1-.231-.14l.06-.861a.152.152 0 0 0-.23-.143l-.537.31a.076.076 0 0 1-.104-.027l-1.384-2.398c-.154-.266-.254-.605-.06-.717l.941-.543a1.83 1.83 0 0 1 1.258-.213l3.323.635a.23.23 0 0 1 .155.11l.295.51a.076.076 0 0 1-.029.105l-.68.38a.152.152 0 0 0-.01.26l.608.412a.152.152 0 0 1-.005.256Z"/><path fill="#E09600" d="m74.023 52.15-3.328 1.92c.181.029.365.06.512.168.642.47 1.17 1.023 1.531 1.65l1.593 2.759a1.94 1.94 0 0 1-.71 2.65l-6.124 3.536c-1.097.633-2.29.725-3.415.408a.6.6 0 0 1-.21-.11c.46.986.755 1.912 1.026 3.058a5.16 5.16 0 0 1 1.792-1.697l1.498-.566c.658-.24 4.809-2.673 8.322-4.782.497-.299.638-.956.307-1.433l-.18-.26c-2.07-2.735-2.895-4.54-2.614-7.301"/><path fill="#F2A60D" stroke="#640" stroke-miterlimit="3.99393" stroke-width="1.41701" d="M92.274 19.9a.177.177 0 0 0 .242.066l-1.805 1.042-1.642.948-1.806 1.042-1.642.948-1.805 1.043-1.642.948-1.806 1.042-1.642.948-1.805 1.043-1.643.948-1.805 1.042-1.642.948-1.806 1.043a.177.177 0 0 0 .065-.242l-.424-.735a.07.07 0 0 1 .026-.099l1.374-.793a.07.07 0 0 1 .098.026l.425.735a.177.177 0 0 0 .242.065l1.642-.948a.177.177 0 0 0 .065-.242l-.424-.735a.07.07 0 0 1 .026-.098l1.374-.793a.07.07 0 0 1 .098.026l.424.735a.177.177 0 0 0 .242.065l1.643-.948a.177.177 0 0 0 .064-.242l-.424-.735a.07.07 0 0 1 .026-.098l1.374-.794a.07.07 0 0 1 .099.027l.424.735a.177.177 0 0 0 .242.064l1.642-.948a.177.177 0 0 0 .065-.242l-.424-.735a.07.07 0 0 1 .026-.098l1.374-.793a.07.07 0 0 1 .098.026l.424.735a.177.177 0 0 0 .243.065l1.642-.948a.177.177 0 0 0 .065-.242l-.425-.735a.07.07 0 0 1 .027-.098l1.373-.794a.07.07 0 0 1 .099.027l.424.735a.177.177 0 0 0 .242.064l1.642-.948a.177.177 0 0 0 .065-.242l-.424-.735a.07.07 0 0 1 .026-.098l1.374-.793a.07.07 0 0 1 .098.026l.424.735a.177.177 0 0 0 .243.065l1.642-.948a.177.177 0 0 0 .065-.242l-.424-.735a.07.07 0 0 1 .026-.098l1.374-.793a.07.07 0 0 1 .098.026z"/><path stroke="#640" stroke-miterlimit="3.99393" stroke-width="1.41701" d="M33.056 66.415c.22.957-.023 2.042-.63 2.417-2.988 1.851-5.754 5.46-5.398 6.076.42.728 1.589.812 2.108.512l5.402-3.018c1.704-.984 3.927-1.007 5.546-.186 1.45.735 2.722 2.185 3.255 3.865l6.79 22.58.105.182-1.11.642a.07.07 0 0 0-.027.098l.602 1.042a.07.07 0 0 0 .05.035c1.327.222 2.092.229 3.458.101a.1.1 0 0 0 .03-.009l12.587-7.267c2.593-1.498 4.515-2.666 6.164-4.271a.213.213 0 0 0-.01-.314l-2.273-1.956a5.03 5.03 0 0 1-1.511-2.282l-3.867-12.105a5.17 5.17 0 0 1 2.365-6.063l1.499-.567c.658-.24 4.808-2.673 8.322-4.782.497-.299.637-.956.307-1.433l-.18-.259c-2.567-3.393-3.22-5.353-2.222-9.485l1.295-.904a.07.07 0 0 0 .024-.09l-.805-1.531 30.632-17.686-2.253-3.904zM63.036 54.8l2.023-1.168c1.507-.87 2.894-.939 4.167-.451q.177.067.35.142c.175.074.3.222.423.368l.047.055a.93.93 0 0 0 .628.323c.19.029.382.058.535.17.643.47 1.17 1.024 1.532 1.65l1.593 2.76a1.94 1.94 0 0 1-.71 2.65l-6.125 3.536c-1.097.633-2.288.724-3.414.407a.83.83 0 0 1-.355-.238 1.18 1.18 0 0 0-.76-.35.84.84 0 0 1-.408-.113q-.113-.073-.224-.153c-1.648-1.179-3.345-3.719-2.749-5.573.294-.913 2.212-3.086 3.448-4.015Z" clip-rule="evenodd"/><path stroke="#640" stroke-miterlimit="3.99393" stroke-width="2.83402" d="m33.702 53.675 3.37-2.064a.152.152 0 0 0 .005-.257l-.608-.411a.15.15 0 0 1-.065-.151l3.445-1.99a1.8 1.8 0 0 0 .343-.258l2.197-2.127a.2.2 0 0 1 .044-.034l11.627-6.712a.15.15 0 0 1 .208.056l.133.231L64.03 34.4a.24.24 0 0 1 .155-.027c.46.072 1.21-.019 1.605-.247l1.827-1.055a.07.07 0 0 1 .098.026l.425.735a.177.177 0 0 0 .242.065l25.775-14.881a.177.177 0 0 0 .065-.242l-.424-.735a.07.07 0 0 1 .026-.098l2.133-1.232a.4.4 0 0 0 .1-.08l.54-.58a.4.4 0 0 1 .1-.08l.69-.397a.07.07 0 0 0 .083.008l.697-.403a.216.216 0 0 1 .316.128l.12.415a.072.072 0 0 0 .104.043l2.523-1.434a.07.07 0 0 0 .017-.108c-.149-.154-.435-.397-.574-.408l.52-.3a.07.07 0 0 0 .025-.1l-.024-.04 1.249-.72a.29.29 0 0 1 .393.104l3.154 5.463.834 2.183q.035.091.045.19l.56 5.993q.009.048.006.094a.43.43 0 0 1-.191.338l-2.343 1.57-.01.006.67 1.162L74.928 47.44l.805 1.532a.07.07 0 0 1-.024.09l-1.295.904c-.997 4.132-.345 6.092 2.222 9.485l.18.259c.33.477.19 1.134-.307 1.433-3.513 2.109-7.664 4.542-8.322 4.782l-1.498.566-.018.008-.008.004a5.17 5.17 0 0 0-2.34 6.051L68.19 84.66a5.03 5.03 0 0 0 1.51 2.282l2.273 1.955c.095.082.1.227.011.315-1.65 1.605-3.571 2.773-6.164 4.27l-12.587 7.267a.1.1 0 0 1-.03.01c-1.366.128-2.13.121-3.458-.101a.08.08 0 0 1-.05-.035l-.602-1.042a.07.07 0 0 1 .026-.098l1.112-.642-.106-.183-6.79-22.58c-.533-1.68-1.806-3.13-3.255-3.864-1.618-.821-3.842-.798-5.546.186l-5.401 3.018c-.52.3-1.688.216-2.11-.513-.355-.616 2.41-4.224 5.4-6.075.606-.376.849-1.46.629-2.417l.224-.13-1.004-3.809a.04.04 0 0 0-.049-.026l-.103.033a.04.04 0 0 1-.05-.028l-.852-3.981c-.03-.293 1.155-4.603 1.369-5.378a.3.3 0 0 1 .14-.18l.691-.4c.066.019.118.08.112.158l-.06.861a.152.152 0 0 0 .232.14Z"/><path fill="#4E4A43" d="m41.25 64.438 2.72 10.694a.65.65 0 0 1-.243.68l-.632.467c.517 2.04.732 3.917 1 6.253.133 1.162.279 2.437.481 3.902.772 5.577 1.623 8.467 3.99 12.713a.43.43 0 0 0 .576.169c6.573-3.466 10.312-5.571 16.72-9.562.389-.224.745-.742.651-1.098l-7.28-20.553a.36.36 0 0 0-.469-.214l-.559.218a.836.836 0 0 1-.607-1.558l.629-.245a.36.36 0 0 0 .208-.454l-2.271-6.413a.503.503 0 0 0-.726-.268l-8.715 5.032a.43.43 0 0 1-.588-.158l-1.06-1.834a.647.647 0 0 0-.917-.216L41.52 63.74a.65.65 0 0 0-.27.698"/><path fill="#47443E" d="M58.384 72.322a.575.575 0 0 1 1.058.065l5.493 15.8a.36.36 0 0 1-.212.455c-6.179 2.39-9.462 4.264-14.471 8.348a.36.36 0 0 1-.514-.062c-.838-1.142-1.359-2.099-1.73-3.215a.5.5 0 0 1 .027-.372z"/><circle cx="48.1647" cy="89.9336" r="1.02991" fill="#413F39" transform="rotate(-30 48.165 89.934)"/><path fill="#47443E" d="M57.135 65.75c.038.11.006.23-.078.311-.454.436-.682.824-.703 1.23-.021.408.169.834.59 1.356.073.09.09.214.037.317L47.516 87.92a.287.287 0 0 1-.542-.091l-1.718-13.181c-.495-3.796.926-6.484 4.922-8.707 1.997-1.112 3.25-1.663 5.179-2.511l.344-.152a.503.503 0 0 1 .678.296z"/><circle cx="53.6457" cy="78.5478" r="3.27078" fill="#3F3C37" transform="rotate(-30 53.646 78.548)"/><circle cx="53.6456" cy="78.5486" r="2.98476" fill="#47443E" transform="rotate(-30 53.646 78.549)"/><path stroke="#37342F" stroke-miterlimit="3.99393" stroke-width="1.41701" d="m41.25 64.438 2.72 10.694a.65.65 0 0 1-.243.68l-.632.467c.517 2.04.732 3.917 1 6.253.133 1.162.279 2.437.481 3.902.772 5.577 1.623 8.467 3.99 12.713a.43.43 0 0 0 .576.169c6.573-3.466 10.312-5.571 16.72-9.562.389-.224.745-.742.651-1.098l-7.28-20.553a.36.36 0 0 0-.469-.214l-.559.218a.836.836 0 0 1-.607-1.558l.629-.245a.36.36 0 0 0 .208-.454l-2.271-6.413a.503.503 0 0 0-.726-.268l-8.715 5.032a.43.43 0 0 1-.588-.158l-1.06-1.834a.647.647 0 0 0-.917-.216L41.52 63.74a.65.65 0 0 0-.27.698Z"/><path fill="#FFA800" d="m33.702 53.674 3.37-2.064a.152.152 0 0 0 .005-.256l-.608-.411a.15.15 0 0 1-.065-.152l3.445-1.989a1.8 1.8 0 0 0 .343-.258l2.197-2.127a.2.2 0 0 1 .044-.034L54.06 39.67a.15.15 0 0 1 .208.056l2.482 4.3c.612 1.06 2.016 1.339 2.804.883l37.03-21.378a.076.076 0 0 1 .103.028l3.51 6.078-66.379 38.324a.076.076 0 0 1-.111-.047l-1.435-5.439a.04.04 0 0 0-.049-.027l-.103.033a.04.04 0 0 1-.05-.028l-.852-3.98c-.03-.294 1.155-4.603 1.369-5.378a.3.3 0 0 1 .14-.181l.691-.399c.066.018.118.08.112.158l-.06.86a.152.152 0 0 0 .232.141"/><path fill="#F09E00" d="M57.705 44.895c.63.298 1.36.3 1.852.016l37.03-21.379a.076.076 0 0 1 .103.028l1.447 2.505-35.77 20.54a2.515 2.515 0 0 1-2.837-.228zm-19.7 20.649-1.217.703-2.732-10.215 1.217-.703zm1.623-.936-1.217.702-2.732-10.215 1.217-.703zm1.622-.938-1.217.704-2.732-10.216 1.217-.703zm1.623-.936-1.217.703-2.732-10.216 1.217-.703zm1.623-.937-1.218.703-2.732-10.216 1.218-.702zm1.622-.937-1.217.703-2.732-10.216 1.217-.702zm1.622-.936-1.216.702-2.733-10.215 1.218-.703zm1.623-.937-1.217.703-2.732-10.216 1.217-.703zm1.623-.937-1.217.703-2.732-10.216 1.217-.703zm1.623-.937-1.218.703L48.66 47.6l1.217-.702zm1.622-.936-1.217.702-2.732-10.215 1.217-.703zm1.623-.937-1.218.702-2.732-10.215 1.217-.703zm1.622-.937-1.217.703-2.732-10.216 1.217-.703z"/><path fill="#DA9000" d="m41.915 49.61-6.742 3.892c-1.293.746-1.63 2.561-.883 3.854s2.593 1.847 3.886 1.1l.364-.21q.167-.096.349-.159l5.844-2.02c1.735-.632-.427-4.552-.894-5.256l-.59-.889a1 1 0 0 0-1.334-.313"/><path fill="#4E4A43" d="m41.396 49.976-6.143 3.547a2.646 2.646 0 1 0 3.38 3.956l4.588-5.376a.79.79 0 0 0 .058-.95l-.577-.87a.98.98 0 0 0-1.306-.307"/><path fill="#44413B" d="m41.117 50.136-1.76 2.212c-.444.559.212 1.32.83.963l2.404-1.388c.39-.225.673-.785.476-1.089l-.366-.551a.98.98 0 0 0-1.306-.307z"/><circle cx="36.5769" cy="55.8135" r="1.406" fill="#44413B" transform="rotate(-30 36.577 55.813)"/><path fill="#3C3934" d="m37.433 56.928-1.964-1.981q.107-.138.25-.248l1.965 1.981a1.4 1.4 0 0 1-.25.248"/><rect width="1.44269" height="0.946325" x="43.2891" y="54.3271" fill="#BD7E00" rx="0.473162" transform="rotate(-8.936 43.29 54.327)"/><circle cx="41.9668" cy="55.8979" r="0.494712" fill="#ED220D" transform="rotate(-30 41.967 55.898)"/><path stroke="#640" stroke-miterlimit="3.99393" stroke-width="1.41701" d="m33.702 53.674 3.37-2.064a.152.152 0 0 0 .005-.256l-.608-.411a.15.15 0 0 1-.065-.152l3.445-1.989a1.8 1.8 0 0 0 .343-.258l2.197-2.127a.2.2 0 0 1 .044-.034L54.06 39.67a.15.15 0 0 1 .208.056l2.482 4.3c.612 1.06 2.016 1.339 2.804.883l37.03-21.378a.076.076 0 0 1 .103.028l3.51 6.078-66.379 38.324a.076.076 0 0 1-.111-.047l-1.435-5.439a.04.04 0 0 0-.049-.027l-.103.033a.04.04 0 0 1-.05-.028l-.852-3.98c-.03-.294 1.155-4.603 1.369-5.378a.3.3 0 0 1 .14-.181l.691-.399c.066.018.118.08.112.158l-.06.86a.152.152 0 0 0 .232.141Z"/></g><defs><clipPath id="a"><path fill="#fff" d="M0 0h110v110H0z"/></clipPath></defs></svg>