<svg xmlns="http://www.w3.org/2000/svg" width="110" height="110" fill="none" viewBox="0 0 110 110"><g clip-path="url(#a)"><path fill="#5C5C5C" stroke="#333" stroke-miterlimit="3.99393" stroke-width="3.79862" d="m75.841 6.09-2.343 1.352 3.157 5.468 2.343-1.353zm3.358 8.062-1.172.676.857 1.484 1.172-.676zM5.304 42.648l1.523-.88 2.48 4.296-3.596-.006z"/><path fill="#4D4D4D" stroke="#333" stroke-miterlimit="3.99393" stroke-width="1.89931" d="m43.385 47.008.044 1.069c.024.402.445.68.819.516l1.58-.6c.117-.068.28-.057.425.015.992.365 5.528 1.547 7.246.555 1.953-1.127-4.114-.54-4.114-.54s-.199 1.728-4.692-2.447c-4.128-3.813-1.833.434-1.404 1.176.045.078.09.156.096.256Z"/><path fill="#5C5C5C" stroke="#333" stroke-miterlimit="3.99393" stroke-width="3.79862" d="m69.367 9.304-.963-2.569 1.445-.834 2.263.673a.368.368 0 0 1 .081.682z"/><path fill="#525252" stroke="#333" stroke-miterlimit="3.99393" stroke-width="3.79862" d="m31.023 90.801-.35 4.264s-1.3 1.896.878 1.16c2.178-.737 15.126-7.171 15.126-7.171s1.336-1.293.66-2.465l-1.714-2.968z"/><path fill="#4F4F4F" stroke="#333" stroke-miterlimit="3.99393" stroke-width="1.89931" d="M42.912 46.09s5.404 5.21 8.363 4.023c2.96-1.188-.13-1.488-.13-1.488s-3.08-.825-4.944-4.956c-1.864-4.13-3.47-.6-3.47-.6z"/><path fill="#474747" d="M3.667 45.674 71.502 6.51a2.213 2.213 0 0 1 3.019.808l4.306 7.46L6.969 56.265 2.798 49.04c-.738-1.188-.303-2.69.869-3.366"/><path fill="#5C5C5C" d="M9.084 55.05c-.481.277-2.456 2.51-2.027 3.253.428.742 3.543-.536 3.84-.655.514-.207 10.474-2.871 9.695 16.793-.793 19.099 3.976 18.793 4.496 18.7.04-.022.062.017.1-.005l3.084.199c.061.016.14-.03.2-.013l21.226-9.234c.296-.118.35-.566.097-.733-1.116-.761-3.277-2.43-3.88-4.737-.673-2.788.529-4.315.874-4.618l.156-.09c.257-.097.983-.464-.461-.62-1.59-.227-2.056-3.29-2.075-3.592 0 0-.022-.04.017-.062-.012-.201.02-1.678.92-3.186a1.21 1.21 0 0 0-.124-1.387c-1.046-1.27-2.91-4.048-1.829-6.234 1.314-2.685 5.457-2.995 6.162-3.037l16.324-9.425s1.579-.963.873-1.284l-.768-.338s-.023-.04-.062-.017c-.168-.11-1.615-.994-3.937-5.016s-.812-6.457-.479-6.962c.017-.061.095-.106.134-.129l15.152-8.748a.45.45 0 0 0 .165-.616.45.45 0 0 1 .166-.616l1.171-.677a.45.45 0 0 1 .616.165c.113.195.382.3.616.165l1.133-.654.117-.067c.267-.259 1.146-1.443.154-3.161l-1.99-3.174a.45.45 0 0 0-.615-.165zm50.76-7.23L49.3 53.909s-5.122.146-6.475-2.197l-1.015-1.757s-2.593-4.492 12.082-12.443c0 0 2.9-2.195 6.056 3.273 3.156 5.467-.103 7.037-.103 7.037"/><path stroke="#333" stroke-miterlimit="3.99393" stroke-width="1.89931" d="m59.844 47.82-10.545 6.088s-5.122.146-6.475-2.197l-1.015-1.757s-2.593-4.491 12.082-12.443c0 0 2.9-2.195 6.056 3.273 3.156 5.467-.103 7.037-.103 7.037Z"/><path fill="#4D4D4D" d="m20.787 51.417 12.497-7.215a1.81 1.81 0 0 1 2.464.66 1.81 1.81 0 0 1-.66 2.465L22.59 54.542a1.81 1.81 0 0 1-2.463-.66 1.81 1.81 0 0 1 .66-2.465"/><path fill="#525252" d="m35.133 60.312 6.651-2.279-.384-3.37-7.008 1.39z"/><path fill="#404040" stroke="#333" stroke-miterlimit="3.99393" stroke-width="1.89931" d="M33.602 28.97s1.706 5.211 4.83 3.407l8.124-4.69s1.398-1.275.31-3.25c-1.089-1.976-1.33-2.305-1.33-2.305"/><path fill="#424242" d="m7.503 45.544-1.562.901 3.833 6.64 1.562-.902zm1.953-1.126-1.561.901 3.833 6.64 1.56-.902zm1.951-1.128-1.561.901 3.833 6.64 1.561-.902zm1.953-1.127-1.561.902 3.833 6.639 1.561-.902zm1.953-1.127-1.561.901 3.833 6.64 1.561-.902zm1.953-1.126-1.56.902 3.832 6.639 1.561-.902zm1.954-1.128-1.562.902 3.833 6.639 1.562-.902zm1.953-1.126-1.562.902 3.833 6.639 1.562-.902z"/><path fill="#525252" d="m25.933 66.66 13.4-5.652 3.116 21.632-14.12 7.11s-3.883-.413-3.098-12.582c.784-12.169.702-10.507.702-10.507"/><path stroke="#333" stroke-miterlimit="3.99393" stroke-width="3.79862" d="M3.667 45.674 71.502 6.51a2.213 2.213 0 0 1 3.019.808l4.306 7.46L6.969 56.265 2.798 49.04c-.738-1.188-.303-2.69.869-3.366Z"/><path fill="#4F4F4F" stroke="#333" stroke-miterlimit="3.99393" stroke-width="1.89931" d="M34.773 31.26c.799 1.092 1.991 1.998 3.542 1.175l-8.56 4.945c-.82.473-1.822.27-2.205-.393-.406-.703-.058-1.633.762-2.107l5.272-3.043c.294-.17.731-.392 1.189-.577Z"/><path stroke="#333" stroke-miterlimit="3.99393" stroke-width="3.79862" d="M7.057 58.303c-.429-.742 1.546-2.976 2.027-3.253l69.24-39.977a.45.45 0 0 1 .617.165l1.989 3.174c.992 1.718.113 2.902-.154 3.16l-.117.068-1.133.654a.45.45 0 0 1-.616-.165.45.45 0 0 0-.616-.165l-1.171.677a.45.45 0 0 0-.166.616.45.45 0 0 1-.165.616L61.64 32.62c-.04.023-.117.068-.134.13-.333.504-1.844 2.938.478 6.96s3.77 4.906 3.938 5.017c.04-.022.062.017.062.017l.768.338c.706.32-.873 1.284-.873 1.284l-16.324 9.425c-.705.042-4.848.352-6.162 3.037-1.08 2.186.783 4.963 1.83 6.234.325.384.378.927.123 1.386-.9 1.51-.932 2.986-.92 3.187-.04.023-.017.062-.017.062.019.302.485 3.365 2.075 3.593 1.444.155.718.522.461.618l-.156.09c-.346.304-1.547 1.831-.874 4.62.603 2.307 2.764 3.975 3.88 4.736.253.167.199.614-.097.733l-21.225 9.234c-.062-.016-.14.029-.201.013l-3.083-.2c-.04.023-.062-.016-.101.007-.52.092-5.29.398-4.496-18.701.779-19.664-9.18-17-9.696-16.793-.296.119-3.411 1.397-3.84.655Z"/><path fill="#5C5C5C" stroke="#333" stroke-miterlimit="3.99393" stroke-width="3.79862" d="m101.787 13.045-2.344 1.353 3.157 5.467 2.343-1.353zm3.355 8.061-1.171.676.857 1.484 1.171-.676zM31.25 49.603l1.523-.88 2.48 4.296-3.597-.006z"/><path fill="#4D4D4D" stroke="#333" stroke-miterlimit="3.99393" stroke-width="1.89931" d="m69.33 53.963.044 1.068c.024.402.445.68.819.516l1.58-.6c.117-.067.28-.057.425.015.992.365 5.528 1.547 7.246.555 1.953-1.127-4.113-.54-4.113-.54s-.2 1.728-4.693-2.447c-4.128-3.813-1.833.434-1.404 1.176.045.078.09.156.096.256Z"/><path fill="#5C5C5C" stroke="#333" stroke-miterlimit="3.99393" stroke-width="3.79862" d="m95.31 16.258-.962-2.568 1.445-.835 2.262.673a.368.368 0 0 1 .082.682z"/><path fill="#525252" stroke="#333" stroke-miterlimit="3.99393" stroke-width="3.79862" d="m56.968 97.757-.35 4.264s-1.3 1.896.878 1.159 15.126-7.17 15.126-7.17 1.337-1.293.66-2.465l-1.713-2.968z"/><path fill="#4F4F4F" stroke="#333" stroke-miterlimit="3.99393" stroke-width="1.89931" d="M68.855 53.043s5.404 5.212 8.364 4.024c2.959-1.188-.13-1.487-.13-1.487s-3.08-.826-4.944-4.956-3.47-.6-3.47-.6z"/><path fill="#474747" d="m29.612 52.63 67.835-39.165a2.214 2.214 0 0 1 3.019.808l4.306 7.46L32.914 63.22l-4.17-7.225c-.739-1.188-.304-2.69.868-3.366"/><path fill="#5C5C5C" d="M35.029 62.005c-.481.277-2.456 2.51-2.027 3.253.428.742 3.544-.536 3.84-.655.515-.207 10.474-2.871 9.695 16.793-.793 19.099 3.977 18.793 4.496 18.701.04-.023.062.016.101-.006l3.083.199c.061.016.14-.029.201-.013l21.225-9.234c.296-.118.35-.566.097-.733-1.116-.761-3.277-2.43-3.88-4.737-.672-2.788.529-4.315.874-4.618l.157-.09c.256-.097.982-.463-.462-.62-1.59-.227-2.056-3.29-2.074-3.592 0 0-.023-.04.016-.062-.012-.201.02-1.678.92-3.186a1.21 1.21 0 0 0-.123-1.387c-1.047-1.27-2.91-4.048-1.83-6.234 1.314-2.685 5.458-2.995 6.162-3.037l16.325-9.425s1.578-.963.872-1.284l-.768-.338s-.022-.04-.061-.017c-.169-.11-1.616-.994-3.938-5.016s-.812-6.457-.479-6.962c.017-.061.095-.106.134-.129l15.153-8.748a.45.45 0 0 0 .165-.616.45.45 0 0 1 .165-.616l1.171-.677a.45.45 0 0 1 .616.165c.113.196.382.3.616.165l1.133-.653.117-.068c.267-.259 1.146-1.443.154-3.161l-1.989-3.174a.45.45 0 0 0-.616-.165zm50.761-7.23-10.544 6.088s-5.123.146-6.476-2.197l-1.015-1.757s-2.593-4.491 12.083-12.443c0 0 2.898-2.195 6.055 3.273 3.157 5.467-.103 7.037-.103 7.037"/><path stroke="#333" stroke-miterlimit="3.99393" stroke-width="1.89931" d="m85.79 54.774-10.545 6.088s-5.123.145-6.476-2.198l-1.015-1.757s-2.593-4.491 12.083-12.443c0 0 2.898-2.195 6.055 3.273 3.157 5.467-.103 7.037-.103 7.037Z"/><path fill="#4D4D4D" d="m46.732 58.372 12.497-7.216a1.81 1.81 0 0 1 2.464.66 1.81 1.81 0 0 1-.66 2.465l-12.497 7.215a1.81 1.81 0 0 1-2.464-.66 1.81 1.81 0 0 1 .66-2.465"/><path fill="#525252" d="m61.078 67.266 6.652-2.278-.385-3.371-7.007 1.39z"/><path fill="#404040" stroke="#333" stroke-miterlimit="3.99393" stroke-width="1.89931" d="M59.545 35.924s1.707 5.21 4.83 3.407l8.124-4.69s1.398-1.276.31-3.251c-1.088-1.976-1.33-2.304-1.33-2.304"/><path fill="#424242" d="m33.448 52.499-1.561.901 3.833 6.64 1.561-.902zm1.952-1.126-1.562.901 3.833 6.64 1.561-.902zm1.952-1.128-1.561.902 3.833 6.639 1.561-.902zm1.954-1.125-1.562.9 3.833 6.64 1.562-.902zm1.951-1.129-1.562.902 3.833 6.639 1.562-.902zm1.955-1.127-1.562.902 3.833 6.639 1.562-.902zm1.951-1.127-1.561.902 3.833 6.639 1.561-.902zm1.953-1.127-1.561.902 3.833 6.639 1.561-.902z"/><path fill="#525252" d="m51.879 73.616 13.399-5.653 3.116 21.632-14.12 7.11s-3.883-.413-3.098-12.582.703-10.507.703-10.507"/><path stroke="#333" stroke-miterlimit="3.99393" stroke-width="3.79862" d="m29.612 52.63 67.835-39.165a2.214 2.214 0 0 1 3.019.808l4.306 7.46L32.914 63.22l-4.17-7.225c-.739-1.188-.304-2.69.868-3.366Z"/><path fill="#4F4F4F" stroke="#333" stroke-miterlimit="3.99393" stroke-width="1.89931" d="M60.718 38.215c.799 1.092 1.992 1.998 3.542 1.175l-8.56 4.945c-.82.474-1.822.271-2.205-.393-.406-.703-.058-1.633.763-2.106l5.272-3.044c.293-.17.73-.392 1.188-.577Z"/><path stroke="#333" stroke-miterlimit="3.99393" stroke-width="3.79862" d="M33.002 65.258c-.429-.742 1.546-2.976 2.027-3.253l69.241-39.977a.45.45 0 0 1 .616.165l1.989 3.174c.992 1.718.113 2.902-.154 3.16l-.117.069-1.133.653a.45.45 0 0 1-.616-.165.45.45 0 0 0-.616-.165l-1.171.677a.45.45 0 0 0-.165.616.45.45 0 0 1-.165.616l-15.153 8.748c-.039.023-.117.068-.134.13-.333.504-1.843 2.938.479 6.96s3.77 4.906 3.938 5.017c.039-.022.061.017.061.017l.768.338c.706.32-.873 1.284-.873 1.284L75.5 62.747c-.704.042-4.848.352-6.161 3.037-1.081 2.186.782 4.963 1.829 6.234.326.384.378.927.123 1.386-.9 1.51-.932 2.986-.92 3.187-.039.023-.016.062-.016.062.018.302.485 3.365 2.074 3.593 1.444.156.718.522.462.619l-.157.09c-.345.303-1.546 1.83-.874 4.618.603 2.308 2.764 3.976 3.88 4.737.253.167.199.615-.097.733l-21.225 9.234c-.062-.016-.14.029-.201.013l-3.083-.199c-.04.022-.062-.017-.1.006-.52.092-5.29.398-4.497-18.701.78-19.664-9.18-17-9.695-16.793-.296.119-3.412 1.397-3.84.655Z"/></g><defs><clipPath id="a"><path fill="#fff" d="M0 0h110v110H0z"/></clipPath></defs></svg>