<svg xmlns="http://www.w3.org/2000/svg" width="110" height="110" fill="none" viewBox="0 0 110 110"><g clip-path="url(#a)"><path fill="#514C49" stroke="#363330" stroke-linecap="round" stroke-miterlimit="3.99393" stroke-width="1.65601" d="M40.006 31.805 79.822 8.817a.21.21 0 0 0 .08-.285l-1.908-3.305a.21.21 0 0 0-.287-.074l-5.182 2.993-.327.478L38.016 28.36z"/><path fill="#45413F" fill-rule="evenodd" stroke="#353230" stroke-linecap="round" stroke-miterlimit="3.99393" stroke-width="1.65601" d="M27.53 58.328c1.65-.331 4.921-2.037 4.921-2.037.912-.263 1.44-.074 1.726.314.293.398.274.996.1 1.898-.369 1.908.469 4.028 1.922 5.206 1.748 1.416 4.309 1.623 5.898.183.325-.295-.016-.746-.414-.564-.754.347-1.176.238-2.335-.048-1.224-.303-2.347-1.191-2.862-2.444-.541-1.314-.587-2.547-.032-3.562.792-1.449 1.55-2.427 2.675-3.52l-1.15-1.328-8.426 2.554z" clip-rule="evenodd"/><path fill="#5D5855" stroke="#363330" stroke-linecap="round" stroke-miterlimit="3.99393" stroke-width="1.65601" d="M18.332 58.8c-.84-1.548-2.016-2.901-2.203-4.903-1.819-.971-3.292-.727-4.937-1.091-1.65-.158-2.304.785-2.659 2.138-.354 1.352-1.233 2.496-1.859 3.22s-.847 1.1-1.184 1.77l-.787-.324 1.62-3.154c1.163-1.874 1.028-3.303.329-4.538l-3.226-1.637.294-1.386 1.246.232.353-1.785.382.078 3.4-5.126.787.257-2.363 5.243 15.493 3.202z"/><path fill="#79726D" fill-rule="evenodd" d="M10.872 68.661c.013-3.144-.875-5.976-1.757-8.683 9.298-4.152 12.277-5.787 10.755-13.438l-4.143-8.734 1.522-.871c.771.17 2.119-.608 2.617-.895s.905-.505 1.348-.694l16.28-9.272c2.64-1.354 5.81-2.793 7.313-2.396L49.9 32.5c-2.08 1.267-3.852 2.773-2.406 7.457.077.493.37.949.663 1.404.61.947 1.22 1.894-.117 3.184l-8.533 6.049c-4.245 2.938-5.18 3.721-6.296 6.328-4.2 3.057-6.956 7.342-8.525 11.9-6.947-6.268-10.693-3.016-13.713-.16zm35.627-25.603-9.17-15.883-15.53 8.938 9.549 16.538z" clip-rule="evenodd"/><path fill="#6E6863" d="M23.393 67.734c-1.124-.874-2.158-1.486-3.115-1.887l6.055-15.44 3.369 1.24z"/><path fill="#484442" d="m27.502 45.983 15.518-8.96-2.314-4.008-15.519 8.96z"/><path fill="#45413F" d="m40.21 32.167-.747-.047-1.99-3.446.334-.67z"/><path fill="#5D5855" fill-rule="evenodd" stroke="#363330" stroke-linecap="round" stroke-miterlimit="3.99393" stroke-width="1.65601" d="m47.249 27.898 2.166 3.752 9.427-5.442-2.167-3.753z" clip-rule="evenodd"/><path fill="#6B6561" fill-rule="evenodd" stroke="#363330" stroke-linecap="round" stroke-miterlimit="3.99393" stroke-width="1.65601" d="m47.248 27.897-2.358-4.084 9.427-5.442 2.358 4.084z" clip-rule="evenodd"/><path fill="#433F3D" stroke="#363330" stroke-linecap="round" stroke-miterlimit="3.99393" stroke-width="1.65601" d="m72.821 7.978 4.703-2.715c-.669-1.105-2.141-1.454-3.29-.792l.388.671-2.134 2.259z"/><path fill="#534E4B" stroke="#363330" stroke-linecap="round" stroke-miterlimit="3.99393" stroke-width="1.65601" d="m63.272 21.607.75 1.3-5.317 3.07-.75-1.3z"/><path fill="#585350" fill-rule="evenodd" d="m31.108 51.336 3.095-1.855-.226-.403 11.352-6.731-8.126-14.15-11.462 6.616-.295-.512-3.13 1.807z" clip-rule="evenodd"/><path fill="#5D5855" stroke="#363330" stroke-linecap="round" stroke-miterlimit="3.99393" stroke-width="1.65601" d="m33.97 49.078-8.236-14.266 11.462-6.617 8.236 14.266z"/><path fill="#484442" fill-rule="evenodd" d="m23.193 35.605 1.467-.847 1.256 2.176c-.28.625-.785.917-1.466.847zm6.705 11.617 1.467-.847 1.28 2.217c-.28.626-.786.917-1.467.847zm-3.339-5.787 1.466-.847 1.846 3.197c-.28.626-.786.917-1.466.847zm6.214-5.21 3.086-1.782c1.669-.963 3.298-1.243 3.653-.628s-.702 1.885-2.37 2.849l-3.087 1.781c-1.668.964-3.297 1.244-3.652.629s.702-1.886 2.37-2.849" clip-rule="evenodd"/><path fill="#484442" d="m39.572 40.878-3.086 1.782c-1.663.96-2.797 2.11-2.533 2.566.264.458 1.826.05 3.49-.91l3.085-1.782c1.664-.96 2.798-2.11 2.534-2.567s-1.826-.05-3.49.91"/><path fill="#484442" fill-rule="evenodd" d="M36.62 28.82c.628-.364-.703 1.885-2.371 2.848l-3.087 1.782c-1.668.963-4.28.991-3.652.628z" clip-rule="evenodd"/><path fill="#484442" stroke="#363330" stroke-linecap="round" stroke-miterlimit="3.99393" stroke-width="1.65601" d="m63.124 21.355 1.039 1.8 2.956-1.578a1.76 1.76 0 0 0-.309-1.15 1.76 1.76 0 0 0-.841-.842z"/><path fill="#6B6561" d="m40.84 49.65 7.203-5.105s.61.363.604.633c-.007.299-.091.56-.184.845-.182.567-.083.976.215 2.216.165.688.935 1.465 1.42 2.241.348.555.857 1.26 1.09 2.108.5 1.815.642 3.586-.147 5.505-.533 1.3-1.865 3.429-3.531 5.066-1.523 1.497-3.782 3.128-5.365 3.894-2.25 1.089-6.562 2.368-10.643-.615-2.296-1.678-3.81-1.966-5.576-.63 1.539-3.193 3.736-6.128 6.692-8.436-2.17 9.83 3.319 9.393 7.138 8.579 1.91-.407 5.243-2.606 7.313-5.158s2.68-5.036 2.19-7.394c-.734-3.545-3.854-5.212-7.599-3.117z"/><path stroke="#363330" stroke-linecap="round" stroke-miterlimit="3.99393" stroke-width="1.65601" d="m31.108 51.336 3.095-1.855-.226-.403 11.352-6.731-8.126-14.15-11.462 6.616-.295-.512-3.13 1.807z" clip-rule="evenodd"/><path fill="#403D3A" stroke="#363331" stroke-miterlimit="3.99393" stroke-width="1.65601" d="M24.705 96.432c-.916-.264-2.207-1.891-2.207-1.891l3.285-1.455s.303 1.8-.079 2.762l1.053 1.824a.573.573 0 0 1-.218.78.573.573 0 0 1-.785-.201z"/><path stroke="#363330" stroke-width="3.31203" d="M9.115 59.978c.882 2.707 1.77 5.54 1.757 8.684h.1c3.02-2.856 6.767-6.108 13.714.16a28 28 0 0 1 1.238-3.014c1.766-1.336 3.28-1.048 5.575.63 4.082 2.984 8.394 1.704 10.644.614 1.583-.765 3.842-2.396 5.364-3.893 1.666-1.637 2.999-3.767 3.532-5.065.788-1.92.647-3.69.147-5.506-.198-.719-.595-1.336-.923-1.846l-.167-.262a12 12 0 0 0-.565-.796l-.003-.004-.002-.002c-.376-.501-.743-.99-.85-1.439l-.002-.003c-.296-1.232-.395-1.648-.213-2.213.092-.285.176-.546.183-.844.003-.094-.07-.2-.165-.296-.179-.184-.439-.338-.439-.338 1.337-1.29.727-2.237.117-3.184-.293-.456-.586-.91-.662-1.404-1.447-4.684.325-6.19 2.405-7.457l-5.093-8.821c-1.503-.397-4.672 1.042-7.313 2.394l-16.28 9.273c-.443.189-.85.407-1.348.694s-1.846 1.066-2.617.895l-1.522.87 4.143 8.735c1.522 7.65-1.457 9.286-10.755 13.438Z"/><path stroke="#363330" stroke-width="1.65601" d="M32.62 57.372c.25-.2.332-.259.595-.45 1.116-2.607 2.05-3.39 6.295-6.329l1.331-.943.82.632c3.745-2.095 6.865-.428 7.6 3.117.489 2.358-.121 4.84-2.191 7.393s-5.404 4.751-7.313 5.159c-3.82.814-9.307 1.252-7.138-8.58Z"/><path fill="#66381A" fill-rule="evenodd" stroke="#512D15" stroke-linecap="round" stroke-miterlimit="3.99393" stroke-width="3.31203" d="M17.677 95.336c4.86-.038 8.896-1.709 11.88-5.458-4.649-6.208-7.61-13.402-4.867-21.054-7.064-6.375-10.819-2.908-13.866-.019-1.034 10.132 2.407 18.526 6.853 26.53Z" clip-rule="evenodd"/><path fill="#5E3417" fill-rule="evenodd" d="m18.55 84.369 2.468-4.581-4.007-2.658-2.394 4.391z" clip-rule="evenodd"/><path fill="#88593A" d="M18.166 81.271a.65.65 0 0 0 .248-.887.65.65 0 0 0-.893-.229.65.65 0 0 0-.248.887.653.653 0 0 0 .893.23"/><path stroke="#363330" stroke-linecap="round" stroke-miterlimit="3.99393" stroke-width="1.65601" d="m46.5 43.056-9.17-15.883-15.53 8.938 9.55 16.539z"/><path fill="#5D5855" fill-rule="evenodd" stroke="#363330" stroke-linecap="round" stroke-miterlimit="3.99393" stroke-width="1.65601" d="m27.87 53.315-.8.46-2.316-3.754c.798-1.318 1.113-2.522.295-3.915l-4.206-7.287 3.487-2.013.772 1.336-2.035 1.216 5.875 10.493.95-.4.197.327-.321.202.813 1.418-2.53 1.46z" clip-rule="evenodd"/><path fill="#514C49" stroke="#363330" stroke-linecap="round" stroke-miterlimit="3.99393" stroke-width="1.65601" d="M68.283 39.385 108.1 16.397a.21.21 0 0 0 .079-.285l-1.908-3.305a.21.21 0 0 0-.286-.074l-5.183 2.993-.327.478L66.294 35.94z"/><path fill="#45413F" fill-rule="evenodd" stroke="#353230" stroke-linecap="round" stroke-miterlimit="3.99393" stroke-width="1.65601" d="M55.807 65.908c1.651-.331 4.921-2.037 4.921-2.037.912-.263 1.44-.074 1.726.315.294.397.274.995.1 1.897-.369 1.908.47 4.028 1.923 5.206 1.748 1.416 4.308 1.623 5.897.183.326-.295-.016-.746-.413-.564-.754.347-1.177.239-2.336-.048-1.223-.303-2.347-1.191-2.862-2.444-.541-1.314-.587-2.547-.032-3.562.793-1.449 1.55-2.427 2.675-3.52l-1.15-1.328-8.425 2.554z" clip-rule="evenodd"/><path fill="#5D5855" stroke="#363330" stroke-linecap="round" stroke-miterlimit="3.99393" stroke-width="1.65601" d="M46.609 66.381c-.84-1.55-2.016-2.902-2.203-4.904-1.818-.971-3.291-.727-4.937-1.091-1.649-.158-2.304.785-2.658 2.138s-1.234 2.496-1.86 3.22c-.625.725-.847 1.1-1.183 1.77l-.788-.324 1.621-3.154c1.163-1.874 1.028-3.303.328-4.538l-3.225-1.637.293-1.385 1.247.231.352-1.785.382.078 3.4-5.126.788.257-2.364 5.243 15.493 3.203z"/><path fill="#79726D" fill-rule="evenodd" d="M39.149 76.242c.014-3.144-.875-5.977-1.757-8.684 9.299-4.152 12.278-5.787 10.755-13.438l-4.142-8.734 1.521-.871c.772.17 2.12-.607 2.617-.895.498-.287.906-.505 1.348-.694l16.28-9.272c2.64-1.354 5.81-2.792 7.313-2.396l5.093 8.822c-2.08 1.267-3.851 2.774-2.405 7.457.077.494.37.949.663 1.404.61.947 1.219 1.894-.118 3.184l-8.533 6.049c-4.244 2.938-5.18 3.721-6.296 6.328-4.2 3.057-6.956 7.342-8.524 11.9-6.947-6.268-10.694-3.016-13.714-.16zm35.627-25.604-9.17-15.883-15.529 8.938 9.548 16.538z" clip-rule="evenodd"/><path fill="#6E6863" d="M51.67 75.314c-1.124-.874-2.158-1.486-3.115-1.887l6.055-15.44 3.369 1.24z"/><path fill="#484442" d="m55.78 53.563 15.517-8.96-2.314-4.008-15.518 8.96z"/><path fill="#45413F" d="m68.487 39.747-.747-.047-1.99-3.446.334-.67z"/><path fill="#5D5855" fill-rule="evenodd" stroke="#363330" stroke-linecap="round" stroke-miterlimit="3.99393" stroke-width="1.65601" d="m75.526 35.478 2.166 3.752 9.427-5.442-2.167-3.753z" clip-rule="evenodd"/><path fill="#6B6561" fill-rule="evenodd" stroke="#363330" stroke-linecap="round" stroke-miterlimit="3.99393" stroke-width="1.65601" d="m75.525 35.477-2.358-4.083 9.427-5.443 2.358 4.084z" clip-rule="evenodd"/><path fill="#433F3D" stroke="#363330" stroke-linecap="round" stroke-miterlimit="3.99393" stroke-width="1.65601" d="m101.091 15.558 4.703-2.715c-.669-1.105-2.142-1.454-3.29-.791l.387.67-2.133 2.259z"/><path fill="#534E4B" stroke="#363330" stroke-linecap="round" stroke-miterlimit="3.99393" stroke-width="1.65601" d="m91.549 29.187.75 1.3-5.316 3.07-.75-1.3z"/><path fill="#585350" fill-rule="evenodd" d="m59.386 58.916 3.094-1.855-.225-.402 11.351-6.732-8.126-14.15-11.461 6.616-.296-.511-3.129 1.806z" clip-rule="evenodd"/><path fill="#5D5855" stroke="#363330" stroke-linecap="round" stroke-miterlimit="3.99393" stroke-width="1.65601" d="m62.248 56.66-8.236-14.264 11.46-6.618 8.237 14.266z"/><path fill="#484442" fill-rule="evenodd" d="m51.47 43.185 1.467-.847 1.256 2.176c-.28.625-.785.917-1.466.847zm6.706 11.617 1.466-.847 1.28 2.217c-.28.626-.785.917-1.466.847zm-3.34-5.787 1.466-.847 1.846 3.197c-.28.626-.786.917-1.466.847zm6.204-5.21 3.087-1.782c1.668-.963 3.297-1.243 3.652-.628s-.702 1.885-2.37 2.849l-3.087 1.782c-1.668.963-3.297 1.243-3.652.628s.702-1.886 2.37-2.849" clip-rule="evenodd"/><path fill="#484442" d="m67.846 48.458-3.087 1.782c-1.663.96-2.797 2.11-2.533 2.566.264.458 1.826.05 3.49-.91l3.086-1.782c1.663-.96 2.797-2.11 2.533-2.567s-1.826-.05-3.49.911"/><path fill="#484442" fill-rule="evenodd" d="M64.897 36.4c.628-.364-.703 1.885-2.37 2.848L59.44 41.03c-1.668.963-4.28.991-3.652.628z" clip-rule="evenodd"/><path fill="#484442" stroke="#363330" stroke-linecap="round" stroke-miterlimit="3.99393" stroke-width="1.65601" d="m91.4 28.936 1.04 1.8 2.956-1.58a1.76 1.76 0 0 0-.309-1.149 1.76 1.76 0 0 0-.84-.842z"/><path fill="#6B6561" d="m69.117 57.23 7.203-5.105s.61.363.604.633c-.007.299-.091.56-.183.845-.183.567-.084.976.214 2.216.165.688.935 1.465 1.42 2.241.348.555.857 1.26 1.09 2.108.5 1.815.642 3.586-.146 5.506-.534 1.298-1.866 3.428-3.532 5.065-1.523 1.497-3.782 3.128-5.365 3.894-2.25 1.089-6.561 2.368-10.643-.615-2.295-1.678-3.809-1.966-5.576-.63 1.539-3.193 3.736-6.128 6.692-8.436-2.169 9.831 3.319 9.393 7.138 8.579 1.91-.407 5.243-2.606 7.313-5.158s2.68-5.036 2.19-7.394c-.734-3.545-3.854-5.212-7.598-3.117z"/><path stroke="#363330" stroke-linecap="round" stroke-miterlimit="3.99393" stroke-width="1.65601" d="m59.386 58.916 3.094-1.855-.225-.402 11.351-6.732-8.126-14.15-11.461 6.616-.296-.511-3.129 1.806z" clip-rule="evenodd"/><path fill="#403D3A" stroke="#363331" stroke-miterlimit="3.99393" stroke-width="1.65601" d="M52.982 104.012c-.916-.264-2.207-1.891-2.207-1.891l3.286-1.455s.302 1.801-.08 2.762l1.053 1.824a.573.573 0 0 1-.218.78.573.573 0 0 1-.784-.201z"/><path stroke="#363330" stroke-width="3.31203" d="M37.392 67.558c.882 2.707 1.77 5.54 1.757 8.684h.1c3.021-2.856 6.768-6.108 13.714.16a28 28 0 0 1 1.238-3.014c1.767-1.336 3.28-1.048 5.576.63 4.081 2.984 8.393 1.704 10.643.615 1.583-.766 3.842-2.397 5.364-3.894 1.667-1.637 2.999-3.767 3.532-5.065.789-1.92.647-3.69.147-5.506-.197-.719-.594-1.336-.923-1.845l-.167-.263a12 12 0 0 0-.565-.796l-.003-.004-.001-.002c-.377-.501-.743-.99-.851-1.439l-.001-.003c-.296-1.232-.396-1.648-.214-2.213.093-.285.177-.546.184-.844.002-.094-.07-.2-.165-.296a2.5 2.5 0 0 0-.44-.338c1.337-1.29.727-2.237.118-3.184-.294-.456-.586-.91-.663-1.404-1.446-4.684.325-6.19 2.405-7.457l-5.093-8.821c-1.502-.397-4.672 1.042-7.313 2.395l-16.28 9.272c-.442.189-.85.407-1.348.694s-1.845 1.066-2.617.895l-1.521.87 4.142 8.735c1.523 7.651-1.456 9.286-10.755 13.438Z"/><path stroke="#363330" stroke-width="1.65601" d="M60.893 64.952c.251-.2.333-.258.595-.45 1.116-2.607 2.051-3.39 6.296-6.329l1.33-.943.821.632c3.745-2.095 6.864-.428 7.6 3.117.488 2.358-.122 4.84-2.192 7.394-2.07 2.552-5.403 4.75-7.312 5.158-3.82.814-9.307 1.252-7.138-8.579Z"/><path fill="#66381A" fill-rule="evenodd" stroke="#512D15" stroke-linecap="round" stroke-miterlimit="3.99393" stroke-width="3.31203" d="M45.954 102.916c4.86-.038 8.896-1.709 11.88-5.458-4.649-6.208-7.61-13.402-4.866-21.054-7.064-6.375-10.82-2.907-13.866-.019-1.034 10.132 2.406 18.527 6.852 26.531Z" clip-rule="evenodd"/><path fill="#5E3417" fill-rule="evenodd" d="m46.828 91.95 2.468-4.582-4.008-2.658-2.393 4.391z" clip-rule="evenodd"/><path fill="#88593A" d="M46.443 88.851a.65.65 0 0 0 .248-.887.65.65 0 0 0-.892-.229.65.65 0 0 0-.248.888.65.65 0 0 0 .892.228"/><path stroke="#363330" stroke-linecap="round" stroke-miterlimit="3.99393" stroke-width="1.65601" d="m74.777 50.64-9.17-15.884-15.529 8.938 9.548 16.538z"/><path fill="#5D5855" fill-rule="evenodd" stroke="#363330" stroke-linecap="round" stroke-miterlimit="3.99393" stroke-width="1.65601" d="m56.147 60.895-.8.46-2.316-3.754c.798-1.318 1.114-2.522.296-3.915l-4.207-7.287 3.488-2.013.772 1.336-2.035 1.216 5.874 10.493.95-.4.197.327-.32.202.812 1.418-2.53 1.46z" clip-rule="evenodd"/></g><defs><clipPath id="a"><path fill="#fff" d="M0 0h110v110H0z"/></clipPath></defs></svg>