<svg xmlns="http://www.w3.org/2000/svg" width="110" height="110" fill="none" viewBox="0 0 110 110"><g clip-path="url(#a)"><path fill="#898989" stroke="#343434" stroke-linecap="round" stroke-miterlimit="3.99393" stroke-width="1.54344" d="m77.547 62.321 3.92-2.263c.132-.076.164-.402.176-.76a1.59 1.59 0 0 0-1.48-1.65l-1.113-.104c-1.03-.109-1.88.778-1.785 1.777z"/><path fill="#3B3B3B" stroke="#343434" stroke-linecap="round" stroke-miterlimit="3.99393" stroke-width="1.54344" d="M31.153 47.166s1.01 4.337 5.057 3.89c.15-.044.277-.205.187-.285-1.163-.646-4.405-2.684-2.818-5.49z"/><path fill="#5A5A5A" stroke="#343434" stroke-linecap="round" stroke-miterlimit="3.99393" stroke-width="3.08687" d="m42.715 39.187 30.05 25.116c.233.173.525.224.789.072l3.525-2.036c.165-.095.277-.204.333-.412l1.114-4.157c.07-.26.002-.529-.21-.67L50.83 32.777c-.232-.173-.525-.224-.755-.09l-7.99 4.04a.68.68 0 0 0-.25.936z"/><path fill="#424242" stroke="#343434" stroke-miterlimit="3.99393" stroke-width="1.54344" d="m40.578 39.832 13.178-7.608c.626-.362 1.354-.167 1.677.393l.495.857c.342.593.128 1.287-.498 1.649l-14.265 8.236-1.084-1.878c-.29-.58-.115-1.34.497-1.65Z"/><path fill="#5A5A5A" d="m31.342 78.846-8.737 5.487 2.715 3.756s-4.138 1.985-3.023 1.963 14.057-8.318 14.59-9.346c.534-1.03-3.008 1.874-3.008 1.874z"/><path stroke="#333" stroke-linecap="round" stroke-miterlimit="3.99393" stroke-width="3.08687" d="m22.605 84.333 8.737-5.487m-8.737 5.487h0m0 0 2.715 3.756m6.022-9.243-8.738 5.487m8.738-5.487 2.537 3.734s3.542-2.903 3.009-1.874c-.534 1.028-13.476 9.324-14.59 9.346-1.116.022 3.022-1.963 3.022-1.963m0 0-2.716-3.756"/><path fill="#898989" stroke="#343434" stroke-linecap="round" stroke-miterlimit="3.99393" stroke-width="3.08687" d="m56.635 19.665 10.299-5.946c.443-.256 1.008-.143 1.275.318l1.198 2.076c.247.428.115.987-.362 1.263l-10.299 5.946c-.443.256-1.009.143-1.275-.318l-1.198-2.076c-.213-.448-.082-1.007.362-1.263Z"/><path fill="#4D4D4D" d="M52.76 20.063 7.69 46.082c-.164.095-.31.223-.431.47-.426.86-1.418 3.63.065 6.2.875 1.515.594 3.083.038 4.326-.392.842.414 1.782 1.291 1.627 1.872-.334 4.09-.297 4.853 1.634 1.265 3.18 1.702 7.057 1.77 7.632.1.828-.099 9.414 3.61 15.838 0 0 .956 3.71 5.733.951 3.821-2.206 8.154-5.278 9.6-6.728.273-.29.256-.85-.099-1.085-.393-.3-.9-.798-1.22-1.887l-4.151-14.34s-.95-3.091 3.57-4.164c4.319-1.043 9.554-3.918 11.603-7.825.169-.317-.06-.866-.231-1.162l-2.565-4.708c-.168-.518-1.084-2.982.72-3.89 1.731-.957 9.125-5.27 10.97-6.335a1 1 0 0 0 .5-1.035c-.058-.406.12-.86.481-1.069l4.876-2.815a.8.8 0 0 0 .245-.185c.338-.327 1.013-1.288.253-2.606l-3.177-5.502c-.266-.46-.909-.661-1.403-.376.014-.052-1.831 1.014-1.831 1.014M42.408 48.03c.9 2.116-5.113 5.74-5.971 6.15-.636.304-4.773 2.003-6.571-.122-1.528-1.885-1.335-4.838-.37-5.585l6.895-5.254c1.19-.907 2.066-.574 2.982-.356.26.07.994.671 1.146.935.406.703 1.212 2.427 1.889 4.232"/><path fill="#3A3A3A" stroke="#343434" stroke-linecap="round" stroke-miterlimit="3.99393" stroke-width="1.54344" d="m23.603 85.278 6.55-4.154c.429-.247.497-.813.217-1.223-.332-.423-.803-1.161-1.392-2.183-.97-1.68-1.103-2.746-1.043-3.175.023-.19.026-.411-.036-.595l-4.286-19.445c-.343-1.735-2.305-2.623-3.853-1.729l-5.733 3.31c-1.837 1.13-1.678 2.37-1.404 3.096.371.274.674.652.876 1.162 1.234 3.104 1.68 6.873 1.765 7.585.091.771-.094 9.46 3.615 15.885 0 0 .24.936 1.086 1.518a3.8 3.8 0 0 0 1.457.452c.59.016 1.308-.122 2.18-.504Z"/><path fill="#404040" fill-rule="evenodd" d="M48.115 27.925 6.868 51.739c-.883-2.214.555-5.504.555-5.504L54.77 18.899l1.063.254 3.448 5.971c.932 1.615-.499 2.484-.499 2.484l-5.666 3.272c.114.198.157.349.134.537-.06 1.265-1.28 1.662-1.28 1.662s.407 1.39-.511-.276a12 12 0 0 0-1.062-1.535c-.094-.118-.16-.2-.187-.248z" clip-rule="evenodd"/><path stroke="#343434" stroke-linecap="round" stroke-miterlimit="3.99393" stroke-width="1.54344" d="M59.28 25.124c.933 1.615-.498 2.484-.498 2.484l-5.666 3.272c.114.198.157.349.134.537-.06 1.265-1.28 1.662-1.28 1.662s.407 1.39-.511-.276a12 12 0 0 0-1.062-1.535c-.094-.118-.16-.2-.187-.248l-2.095-3.095L6.868 51.739c-.883-2.214.555-5.504.555-5.504L54.77 18.899l1.063.254m3.448 5.971-3.448-5.971m3.448 5.971-3.448-5.971"/><path fill="#898989" d="m26.098 39.322 5.304-3.062s2.4-2.309 1.778-3.311-2.52.049-2.52.049l-5.172 2.986s-.798.9-.417 1.559z"/><path fill="#424242" d="M9.033 42.627a.57.57 0 1 0-.988.57l.837 1.45a.57.57 0 1 0 .989-.57z"/><path fill="#333" d="m8.045 43.197-.668.386zm.837 1.45.669-.385zm-.242-1.56a.2.2 0 0 1-.275-.075l1.337-.771a1.34 1.34 0 0 0-1.834-.492zm.073-.276a.2.2 0 0 1-.073.275l-.772-1.337a1.34 1.34 0 0 0-.491 1.834zm.838 1.45-.838-1.45-1.336.772.837 1.45zm-.275-.073a.2.2 0 0 1 .275.074l-1.337.771c.37.642 1.192.862 1.834.492zm-.074.275a.2.2 0 0 1 .074-.275l.772 1.337a1.34 1.34 0 0 0 .491-1.834zm-.837-1.45.837 1.45 1.337-.772-.837-1.45z"/><path fill="#424242" fill-rule="evenodd" stroke="#333" stroke-linecap="round" stroke-miterlimit="3.99393" stroke-width="1.54344" d="M52.66 17.234a1.317 1.317 0 1 0 1.318 2.282 1.317 1.317 0 0 0-1.318-2.282Zm.35 1.319a.356.356 0 1 1 .618-.356.356.356 0 0 1-.617.356Z" clip-rule="evenodd"/><path fill="#424242" stroke="#333" stroke-miterlimit="3.99393" stroke-width="1.54344" d="M5.006 53.565c-.844-1.006-2.152-1.218-3.046-.482-.879.683-.934 2.033-.161 2.992s2.114 1.151 2.994.468c.145-.128.272-.289.399-.45.584-.206 1.295-.29 2.68.053l-.006-2.351c-.71.129-1.85.216-2.86-.23Zm-1.997.801c.244-.185.59-.12.807.105.204.278.192.636-.053.822a.566.566 0 0 1-.834-.086c-.237-.258-.132-.675.08-.84Z"/><path stroke="#333" stroke-miterlimit="3.99393" stroke-width="1.54344" d="M36.434 54.18c.858-.41 6.87-4.034 5.97-6.15-.677-1.805-1.482-3.529-1.889-4.232-.152-.264-.885-.866-1.145-.936-.917-.217-1.793-.55-2.983.356l-6.894 5.255c-.965.747-1.158 3.7.37 5.585 1.797 2.125 5.935.426 6.57.122Z"/><path fill="#424242" d="m25.53 38.334.57.986-6.687 3.862a.57.57 0 1 1-.571-.988z"/><path stroke="#333" stroke-linecap="round" stroke-miterlimit="3.99393" stroke-width="1.54344" d="m31.209 35.924-11.992 6.923a.57.57 0 1 1-.57-.988L25.334 38l-.457-.792c-.38-.659.417-1.559.417-1.559l5.173-2.986s1.897-1.051 2.52-.05c.622 1.003-1.78 3.312-1.78 3.312Z"/><path stroke="#333" stroke-miterlimit="3.99393" stroke-width="3.08687" d="m7.69 46.083 45.07-26.02s1.845-1.066 1.831-1.014c.494-.285 1.137-.085 1.403.376l3.177 5.502c.76 1.318.085 2.279-.253 2.606-.08.09-.146.128-.245.185l-4.876 2.815c-.362.21-.54.663-.48 1.069a1 1 0 0 1-.501 1.035c-1.845 1.066-9.239 5.378-10.97 6.334-1.804.91-.888 3.373-.72 3.892l2.565 4.707c.17.296.4.845.231 1.162-2.049 3.907-7.284 6.782-11.602 7.825-4.52 1.073-3.571 4.164-3.571 4.164l4.15 14.34c.321 1.089.828 1.586 1.221 1.887.355.234.372.796.1 1.085-1.447 1.45-5.78 4.522-9.601 6.728-4.777 2.758-5.733-.95-5.733-.95-3.709-6.425-3.51-15.011-3.61-15.84-.068-.574-.505-4.451-1.77-7.63-.763-1.932-2.981-1.97-4.853-1.635-.877.155-1.683-.785-1.29-1.627.555-1.243.836-2.811-.039-4.327-1.483-2.57-.49-5.34-.065-6.2.121-.246.267-.374.432-.469Z"/><path fill="#898989" stroke="#343434" stroke-linecap="round" stroke-miterlimit="3.99393" stroke-width="1.54344" d="m103.908 69.379 3.921-2.264c.132-.076.163-.401.176-.76a1.59 1.59 0 0 0-1.48-1.65l-1.114-.103c-1.029-.109-1.879.777-1.785 1.777z"/><path fill="#3B3B3B" stroke="#343434" stroke-linecap="round" stroke-miterlimit="3.99393" stroke-width="1.54344" d="M57.514 54.223s1.01 4.336 5.057 3.889c.15-.043.278-.204.188-.284-1.164-.646-4.405-2.684-2.818-5.49z"/><path fill="#5A5A5A" stroke="#343434" stroke-linecap="round" stroke-miterlimit="3.99393" stroke-width="3.08687" d="m69.076 46.245 30.05 25.115c.233.174.526.224.79.072l3.524-2.035c.165-.095.278-.204.333-.412l1.114-4.157c.07-.26.003-.529-.21-.67L77.191 39.835c-.232-.174-.524-.224-.755-.091l-7.99 4.042a.68.68 0 0 0-.25.935z"/><path fill="#424242" stroke="#343434" stroke-miterlimit="3.99393" stroke-width="1.54344" d="m66.94 46.893 13.178-7.608c.626-.361 1.353-.166 1.677.394l.494.856c.343.593.129 1.288-.497 1.65L67.526 50.42l-1.084-1.878c-.29-.579-.114-1.34.498-1.649Z"/><path fill="#5A5A5A" d="m57.704 85.908-8.738 5.487 2.715 3.756s-4.137 1.984-3.023 1.963c1.115-.022 14.057-8.318 14.591-9.347s-3.009 1.874-3.009 1.874z"/><path stroke="#333" stroke-linecap="round" stroke-miterlimit="3.99393" stroke-width="3.08687" d="m48.966 91.395 8.738-5.487m-8.738 5.487h0m0 0 2.715 3.756m6.023-9.243-8.739 5.486m8.739-5.486 2.536 3.733s3.543-2.903 3.009-1.874-13.476 9.325-14.59 9.347c-1.115.021 3.023-1.963 3.023-1.963m0 0-2.717-3.757"/><path fill="#898989" stroke="#343434" stroke-linecap="round" stroke-miterlimit="3.99393" stroke-width="3.08687" d="m82.992 26.727 10.3-5.946c.442-.256 1.008-.143 1.274.318l1.198 2.075c.248.429.116.988-.362 1.264l-10.298 5.946c-.444.256-1.01.143-1.275-.319L82.63 27.99c-.213-.448-.081-1.007.362-1.263Z"/><path fill="#4D4D4D" d="M79.121 27.12 34.052 53.14c-.164.096-.31.224-.432.47-.425.86-1.418 3.63.066 6.2.874 1.515.594 3.083.038 4.327-.393.841.413 1.781 1.29 1.626 1.872-.334 4.09-.296 4.854 1.635 1.264 3.18 1.701 7.056 1.77 7.632.099.828-.1 9.414 3.61 15.838 0 0 .955 3.71 5.732.951 3.822-2.206 8.154-5.279 9.6-6.729.273-.289.256-.85-.099-1.085-.392-.3-.9-.798-1.22-1.886l-4.15-14.34s-.95-3.092 3.57-4.164c4.318-1.043 9.554-3.919 11.603-7.825.168-.317-.06-.866-.232-1.163l-2.565-4.707c-.167-.518-1.084-2.982.72-3.891 1.732-.956 9.125-5.269 10.97-6.334a1 1 0 0 0 .5-1.036c-.058-.405.12-.859.482-1.068l4.876-2.815a.8.8 0 0 0 .244-.185c.339-.328 1.014-1.288.253-2.606l-3.177-5.502c-.266-.461-.909-.661-1.403-.376.014-.052-1.83 1.013-1.83 1.013M68.77 55.088c.9 2.116-5.113 5.74-5.97 6.15-.636.304-4.774 2.002-6.572-.122-1.528-1.886-1.334-4.838-.37-5.586l6.895-5.254c1.19-.906 2.066-.573 2.982-.356.26.07.994.672 1.146.935.407.704 1.212 2.427 1.889 4.233"/><path fill="#3A3A3A" stroke="#343434" stroke-linecap="round" stroke-miterlimit="3.99393" stroke-width="1.54344" d="m49.97 92.335 6.55-4.154c.43-.247.497-.814.217-1.223-.332-.423-.802-1.162-1.392-2.183-.97-1.68-1.102-2.746-1.043-3.176.023-.189.027-.41-.035-.594L49.98 61.56c-.342-1.735-2.305-2.623-3.853-1.729l-5.733 3.31c-1.837 1.13-1.678 2.37-1.404 3.096.371.274.674.652.876 1.162 1.235 3.104 1.68 6.872 1.765 7.585.091.77-.094 9.46 3.615 15.885 0 0 .241.936 1.087 1.518a3.8 3.8 0 0 0 1.457.452c.59.016 1.307-.123 2.18-.504Z"/><path fill="#404040" fill-rule="evenodd" d="M74.476 34.988 33.23 58.803c-.883-2.214.556-5.505.556-5.505l47.347-27.335 1.063.253 3.447 5.972c.932 1.614-.498 2.484-.498 2.484l-5.667 3.272c.114.197.157.348.135.537-.06 1.265-1.281 1.662-1.281 1.662s.407 1.39-.511-.276a12 12 0 0 0-1.062-1.535 3 3 0 0 1-.187-.248z" clip-rule="evenodd"/><path stroke="#343434" stroke-linecap="round" stroke-miterlimit="3.99393" stroke-width="1.54344" d="M85.642 32.188c.932 1.614-.498 2.484-.498 2.484l-5.667 3.272c.114.197.157.348.135.537-.06 1.265-1.281 1.662-1.281 1.662s.407 1.39-.511-.276a12 12 0 0 0-1.062-1.535 3 3 0 0 1-.187-.248l-2.095-3.096L33.23 58.803c-.883-2.214.556-5.505.556-5.505l47.347-27.335 1.063.253m3.447 5.972-3.447-5.972m3.447 5.972-3.447-5.972"/><path fill="#898989" d="m52.457 46.38 5.304-3.063s2.401-2.308 1.779-3.31c-.623-1.003-2.52.048-2.52.048l-5.172 2.987s-.798.9-.418 1.559z"/><path fill="#424242" d="M35.387 49.69a.57.57 0 1 0-.988.57l.837 1.45a.57.57 0 1 0 .988-.57z"/><path fill="#333" d="m34.399 50.26-.669.386zm.837 1.45.668-.386zm-.243-1.561a.2.2 0 0 1-.274-.074l1.336-.772a1.34 1.34 0 0 0-1.833-.491zm.074-.275a.2.2 0 0 1-.074.275l-.771-1.337a1.34 1.34 0 0 0-.492 1.834zm.837 1.45-.837-1.45-1.337.772.838 1.45zm-.275-.073a.2.2 0 0 1 .275.073l-1.337.772a1.34 1.34 0 0 0 1.834.491zm-.073.274a.2.2 0 0 1 .074-.274l.771 1.336c.642-.37.862-1.192.491-1.834zm-.837-1.45.837 1.45 1.337-.772-.838-1.45z"/><path fill="#424242" fill-rule="evenodd" stroke="#333" stroke-linecap="round" stroke-miterlimit="3.99393" stroke-width="1.54344" d="M79.022 24.294a1.317 1.317 0 1 0 1.317 2.282 1.317 1.317 0 0 0-1.317-2.282Zm.35 1.32a.356.356 0 1 1 .617-.357.356.356 0 0 1-.617.356Z" clip-rule="evenodd"/><path fill="#424242" stroke="#333" stroke-miterlimit="3.99393" stroke-width="1.54344" d="M31.365 60.621c-.844-1.006-2.152-1.217-3.045-.482-.88.684-.935 2.034-.162 2.993.774.959 2.115 1.151 2.994.468.146-.128.272-.29.4-.45.583-.206 1.295-.29 2.679.053l-.006-2.352c-.71.13-1.85.217-2.86-.23Zm-1.997.802c.245-.185.59-.12.808.105.204.277.191.636-.053.821a.566.566 0 0 1-.835-.085c-.237-.259-.131-.675.08-.841Z"/><path stroke="#333" stroke-miterlimit="3.99393" stroke-width="1.54344" d="M62.795 61.243c.858-.41 6.87-4.035 5.97-6.15-.677-1.806-1.482-3.53-1.888-4.233-.152-.263-.886-.865-1.146-.935-.916-.218-1.793-.55-2.982.356l-6.895 5.254c-.965.747-1.158 3.7.37 5.585 1.798 2.125 5.935.427 6.57.123Z"/><path fill="#424242" d="m51.89 45.392.569.986-6.687 3.862a.57.57 0 0 1-.57-.988z"/><path stroke="#333" stroke-linecap="round" stroke-miterlimit="3.99393" stroke-width="1.54344" d="m57.568 42.981-11.992 6.924a.57.57 0 0 1-.57-.988l6.688-3.86-.457-.792c-.38-.66.418-1.56.418-1.56l5.172-2.986s1.897-1.05 2.52-.049c.622 1.003-1.779 3.311-1.779 3.311Z"/><path stroke="#333" stroke-miterlimit="3.99393" stroke-width="3.08687" d="m34.052 53.14 45.07-26.02s1.844-1.065 1.83-1.013a1.05 1.05 0 0 1 1.403.376l3.177 5.502c.76 1.318.086 2.279-.253 2.606a.8.8 0 0 1-.244.185l-4.876 2.815c-.363.209-.54.663-.481 1.068a1 1 0 0 1-.5 1.036c-1.846 1.065-9.24 5.378-10.971 6.334-1.804.91-.887 3.373-.72 3.891l2.565 4.707c.171.297.4.846.232 1.163-2.05 3.906-7.285 6.782-11.603 7.825-4.52 1.072-3.57 4.163-3.57 4.163l4.15 14.34c.32 1.09.828 1.587 1.22 1.887.355.235.372.796.1 1.085-1.447 1.45-5.78 4.523-9.6 6.73-4.778 2.757-5.733-.952-5.733-.952-3.71-6.424-3.511-15.01-3.61-15.838-.069-.576-.506-4.453-1.77-7.632-.764-1.931-2.982-1.968-4.854-1.635-.877.155-1.683-.785-1.29-1.626.556-1.244.837-2.812-.038-4.327-1.484-2.57-.491-5.34-.066-6.2.122-.246.268-.374.432-.47Z"/></g><defs><clipPath id="a"><path fill="#fff" d="M0 0h110v110H0z"/></clipPath></defs></svg>