<svg xmlns="http://www.w3.org/2000/svg" width="110" height="110" fill="none" viewBox="0 0 110 110"><g clip-path="url(#a)"><path fill="#3D3D43" stroke="#303036" stroke-miterlimit="3.99393" stroke-width="2.34019" d="m6.878 57.126-.322-1.486.921-.532-1.254-.606-.645.372z"/><path fill="#3E3E41" d="m44.737 41.465 3.884-2.327.322-3.753L81.62 16.457l5.283 9.151-32.731 18.836-3.41-1.596-3.958 2.2z"/><path fill="#39393C" stroke="#323234" stroke-linecap="square" stroke-miterlimit="3.99393" stroke-width="1.1701" d="m79.134 17.9 5.28 9.143-29.336 16.882-5.232-9.062z"/><path stroke="#323234" stroke-miterlimit="3.99393" stroke-width="2.34019" d="m44.737 41.465 3.884-2.327.322-3.753L81.62 16.457l5.283 9.151-32.731 18.836-3.41-1.596-3.958 2.2z"/><path fill="#494950" stroke="#303036" stroke-miterlimit="3.99393" stroke-width="1.1701" d="m10.055 66.071-3.472-1.059-.336-1.006-.15-.042-.986 2.569c-1.918 1.015-2.795 2.629-3.181 4.014-.031.142.105.157.146.039.855-1.988 3.791-3.84 6.83-2.524"/><path fill="#4F4F55" fill-rule="evenodd" d="M31.054 58.388 23.88 45.96l14.272-8.24 2.432.833.376-.218 2.69 1.248 3.205 5.55-13.213 7.63.738 1.268-.627 1.184.381.693-1.438.87-.598.763-.94.61zm10.707-17.992-5.946 3.433-4.348-1.54 5.917-3.391zm-10.963 2.276 4.35 1.542-6.538 3.775c-.265.153-.73.08-1.013-.376L26.25 45.28z" clip-rule="evenodd"/><path fill="#464649" fill-rule="evenodd" d="m23.879 45.96 3.084 5.342 17.59-10.155-.904-1.564-2.69-1.248-.377.217-2.43-.831zm13.504-7.063-5.916 3.391 4.348 1.54 5.946-3.432zm-2.234 5.316-4.35-1.541-4.55 2.606 1.348 2.335c.283.455.748.528 1.013.376z" clip-rule="evenodd"/><path fill="#3C3C3E" stroke="#303036" stroke-miterlimit="3.99393" stroke-width="1.1701" d="m33.99 38.17 1.2-.692 2.514.501-4.048 2.337-.45-.78 1.178-.681z"/><path fill="#55555E" fill-rule="evenodd" d="m6.557 55.64 1.068 4.926 1.093 1.67c.89 1.61.351 5.329-.953 6.408l1.657 2.87 21.465-12.742.167-.385-7.313-12.668-1.735 1.006-.294-.509L7.7 54.304l.293.507zm20.398 1.373L14.7 64.088l-4.88-8.453 1.844-1.065-.88-1.525 10.41-6.01z" clip-rule="evenodd"/><path fill="#464653" stroke="#303036" stroke-miterlimit="3.99393" stroke-width="1.1701" d="M23.982 68.739c.56-.186.377-.201-.324-.116s-1.949-.288-2.588-.961c-.534-.561-.933-1.614-.654-2.94L19 65.538c1.33 2.67 3.463 3.704 4.983 3.2Z"/><path fill="#61616B" d="m14.703 64.09 12.254-7.074-4.836-8.376-12.254 7.075z"/><path fill="#404040" d="m22.656 49.57-8.691 5.018a1.551 1.551 0 0 0 1.55 2.687l8.692-5.018zm2.152 3.724-8.691 5.018A1.551 1.551 0 1 0 17.668 61l8.692-5.018zM14.574 63.872l.086-1.95-2.894-5.014-1.733-.9.391.676-.94.53.444.77-2.546 1.464.243 1.12.291.445 2.833-1.606 2.505 4.338.935-.54z"/><path fill="#3D3D43" d="M12.284 64.802a.59.59 0 1 0-.59-1.023.59.59 0 0 0 .59 1.023m-1.488-3.258a.59.59 0 1 0-.591-1.023.59.59 0 0 0 .59 1.023m17.838-4.734a.59.59 0 1 0-.59-1.023.59.59 0 0 0 .59 1.023"/><path fill="#61616B" d="M30.25 56.997 8.343 69.647l1.08 1.87 21.464-12.743.168-.385z"/><path fill="#3D3D43" d="m33.756 52.957.624 1.074-.627 1.184.382.694-1.439.87-.598.763-.938.61-.104.237-1.675-2.901z"/><path fill="#3D3D43" d="M31.213 55.824a.399.399 0 1 0-.399-.69.399.399 0 0 0 .399.69m-5.043-8.319a.399.399 0 1 0-.399-.69.399.399 0 0 0 .4.69"/><path fill="#3D3D43" stroke="#303036" stroke-miterlimit="3.99393" stroke-width="1.1701" d="m34.684 52.161.708-.409.576.999-.708.409zm1.912-1.103.708-.41.577 1-.709.408zm1.908-1.102.708-.409.577.999-.709.409zm1.912-1.104.708-.41.577 1-.709.408zm1.91-1.103.709-.409.576.999-.708.408zm1.91-1.103.709-.41.576.999-.708.409zm1.911-1.102.708-.41.576 1-.708.408zm-23.004-.864.708-.41.744 1.29-.709.408zm1.859-1.074.708-.409.744 1.289-.708.409zm1.859-1.073.709-.409.744 1.289-.709.409zm1.862-1.075.708-.409.744 1.288-.708.41zm1.857-1.073.708-.41.744 1.29-.708.408z"/><path fill="#464653" stroke="#303036" stroke-miterlimit="3.99393" stroke-width="1.1701" d="m18.389 73.79-.42-3.68q.121.143.235.282c.234.282.439.53.551.636.412.393 1.14.644 1.597.63.593-.018 1.378-.067 2.03-.292.586-.203 1.101-.54 1.616-.891 1.344-.921 3.427-2.641 4.188-3.608.302-.383.457-.694.55-1.058.093-.361.082-.73-.033-1.17-.223-.85-.91-1.878-2.096-3.323l1.006-.597c1.156 1.427 1.83 2.54 2.082 3.503.138.525.068 1.208-.053 1.676-.119.466-.41.936-.744 1.362-1.307 1.66-2.714 2.6-3.943 3.423q-.302.202-.602.407c-.453.31-1.11.737-1.783.97q-1.018.351-1.92.513c-.467.085-.987.18-1.301.36-.263.153-.661.516-.96.857Z"/><path stroke="#303036" stroke-miterlimit="3.99393" stroke-width="1.1701" d="m6.557 55.641 1.068 4.926 1.093 1.669c.89 1.611.351 5.33-.954 6.409l1.658 2.87 21.464-12.743.168-.385-7.313-12.667-1.735 1.005-.44-.762-14.012 8.088.439.76zm20.398 1.372L14.7 64.088l-4.88-8.453 1.844-1.065-.88-1.524 10.41-6.01z" clip-rule="evenodd"/><path stroke="#303036" stroke-miterlimit="3.99393" stroke-width="1.1701" d="m14.703 64.09 12.254-7.074-4.836-8.376-12.254 7.075z"/><path stroke="#303036" stroke-miterlimit="3.99393" stroke-width="1.1701" d="m23.879 45.96 3.084 5.342 17.59-10.155-.904-1.564-2.69-1.248-.377.217-2.43-.831zm13.504-7.063-5.916 3.391 4.348 1.54 5.946-3.432zm-2.234 5.316-4.35-1.541-4.55 2.606 1.348 2.335c.283.455.748.528 1.013.376z" clip-rule="evenodd"/><path fill="#3D3D43" d="m40.603 39.695-6.306 3.64a1.275 1.275 0 0 0-.466 1.742l.55.953c.352.61 1.132.819 1.742.467l6.305-3.64c.61-.353.819-1.133.467-1.742l-.55-.954a1.275 1.275 0 0 0-1.742-.466"/><path fill="#35353B" d="m40.633 39.675.63 1.092 1.014-.585-.197-.341a1.27 1.27 0 0 0-1.447-.166m2.405 1.825-.197-.342-1.014.585.632 1.094a1.28 1.28 0 0 0 .579-1.338M41.62 43.32l-.632-1.093-1.013.585.631 1.094zm-1.852 1.07-.632-1.093-1.013.585.631 1.093zm-1.853 1.07-.63-1.094-1.014.585.631 1.094zm-1.852 1.069-.631-1.094-1.013.585.151.263c.383.392.989.504 1.493.246m-2.359-1.747.151.263 1.014-.585-.631-1.093a1.28 1.28 0 0 0-.534 1.415m1.373-1.899.63 1.092 1.014-.585-.631-1.092zm1.852-1.069.63 1.092 1.014-.585-.63-1.093zm1.851-1.07.632 1.093 1.013-.585-.63-1.093z"/><path fill="#37373E" d="m36.87 46.064 5.556-3.208c.154-.089.283-.205.383-.34l-.952 1.65-3.827 2.21z"/><path fill="#53535F" d="M41.123 43.555 40 44.202a.24.24 0 0 0 .24.416l1.121-.648a.24.24 0 0 0-.24-.415m-6.32.755a.59.59 0 1 0-.59-1.023.59.59 0 0 0 .59 1.023"/><path stroke="#303036" stroke-miterlimit="3.99393" stroke-width="1.1701" d="m34.297 43.335 6.306-3.64a1.275 1.275 0 0 1 1.741.466l.55.954a1.27 1.27 0 0 1-.084 1.402l-.952 1.65-3.827 2.209-1.16-.312-.748.433c-.61.352-1.39.143-1.742-.467l-.55-.953a1.275 1.275 0 0 1 .466-1.742Z"/><path stroke="#303036" stroke-miterlimit="3.99393" stroke-width="2.34019" d="m6.557 55.64 1.068 4.926 1.093 1.67c.89 1.61.351 5.329-.953 6.408l1.657 2.87 21.465-12.742.272-.621.939-.61.598-.762 1.438-.87-.382-.694.628-1.184-.738-1.268 13.213-7.629-3.205-5.55-2.69-1.249-.376.218-2.432-.832-14.272 8.24-.14-.242-1.734 1.006-.294-.509L7.7 54.304l.293.507z"/><path fill="#4B4B4E" d="M17.776 66.494q.069-.04.145-.08l.368-.205.064.111c.022.038.012.108-.044.225-.529 1.096-.468 1.788-.398 2.604.025.286.051.587.054.926l.44 3.852c-2.025 1.089-2.03 1.454-1.324 3.238l2.993 9.4c.199.565-.408.92-1.27 1.426q-.14.08-.289.17L13.02 91.24c-1.092.632-1.25.701-1.363.514q-.025-.045-.053-.105l-.043-.09C8.19 84.89 8.355 80.288 8.437 78.006c.015-.417.028-.756.015-1.017-.02-.585-.213-1.248-.58-1.857-.82-1.363-2.51-2.457-5.082-1.802-.405.108-.635.162-.668.112-.043-.08.372-.4 1.329-1.138l.153-.118c1.372-1.2 2.762-2.384 4.161-3.542q.118-.098.227-.223a.6.6 0 0 0 .089.104l1.341 2.989z"/><path fill="#373739" d="M16.658 75.7c.012.372.173.828.425 1.464l2.993 9.4c.198.565-.408.92-1.27 1.426q-.14.08-.29.17l-5.495 3.079c-1.093.632-1.25.701-1.363.514a1 1 0 0 1-.053-.105l-.043-.09c-3.37-6.668-3.205-11.271-3.123-13.553.015-.417.027-.756.015-1.017a3.9 3.9 0 0 0-.499-1.716z"/><path fill="#3E3E41" d="m8.25 75.94 8.52.366q.062.205.152.445l-8.548-.366a4 4 0 0 0-.124-.444m.207 1.398a6 6 0 0 0-.01-.44l8.668.371.141.445zm-.029.948.015-.438 8.978.384.142.445zm-.021.949q0-.228.006-.439l9.314.399.142.445zm.011.95q-.007-.225-.01-.44l9.626.413.142.445zm.05.952q-.016-.225-.028-.44l9.9.423.142.446zm.09.953q-.026-.225-.047-.44l10.136.433.142.445zm.132.956q-.036-.225-.066-.442l10.33.442.141.445zm.172.957a24 24 0 0 1-.085-.443l10.483.449.142.445zm.212.959-.103-.444 10.596.453.142.446zm.253.96q-.064-.225-.122-.444l10.668.456.142.446zm.291.962-.14-.445 10.62.455c-.034.151-.134.29-.284.427zm.33.964q-.082-.225-.157-.446l9.332.4-.32.188-.288.17-.09.05z"/><path stroke="#323234" stroke-miterlimit="29" stroke-width="2.34019" d="M17.776 66.494q.069-.04.145-.08l.368-.205.064.111c.022.038.012.108-.044.225-.529 1.096-.468 1.788-.398 2.604.025.286.051.587.054.926l.44 3.852c-2.025 1.089-2.03 1.454-1.324 3.238l2.993 9.4c.199.565-.408.92-1.27 1.426q-.14.08-.289.17L13.02 91.24c-1.092.632-1.25.701-1.363.514q-.025-.045-.053-.105l-.043-.09C8.19 84.89 8.355 80.288 8.437 78.006c.015-.417.028-.756.015-1.017-.02-.585-.213-1.248-.58-1.857-.82-1.363-2.51-2.457-5.082-1.802-.405.108-.635.162-.668.112-.043-.08.372-.4 1.329-1.138l.153-.118c1.372-1.2 2.762-2.384 4.161-3.542q.118-.098.227-.223a.6.6 0 0 0 .089.104l1.341 2.989z"/><path fill="#434346" d="M12.594 76.502a.889.889 0 1 0-.889-1.54.889.889 0 0 0 .89 1.54m2.237 9.647a.889.889 0 1 0-.889-1.54.889.889 0 0 0 .89 1.54"/><path fill="#3D3D43" stroke="#303036" stroke-miterlimit="3.99393" stroke-width="2.34019" d="m27.355 62.976-.323-1.485.922-.532-1.255-.607-.644.373z"/><path fill="#3E3E41" d="m65.213 47.316 3.885-2.327.321-3.753 32.679-18.928 5.283 9.15L74.65 50.296l-3.41-1.597-3.959 2.2z"/><path fill="#39393C" stroke="#323234" stroke-linecap="square" stroke-miterlimit="3.99393" stroke-width="1.1701" d="m99.61 23.75 5.28 9.144-29.336 16.881-5.232-9.061z"/><path stroke="#323234" stroke-miterlimit="3.99393" stroke-width="2.34019" d="m65.213 47.316 3.885-2.327.321-3.753 32.679-18.928 5.283 9.15L74.65 50.296l-3.41-1.597-3.959 2.2z"/><path fill="#494950" stroke="#303036" stroke-miterlimit="3.99393" stroke-width="1.1701" d="m30.532 71.922-3.473-1.06-.335-1.005-.151-.043-.986 2.57c-1.918 1.014-2.794 2.628-3.18 4.013-.031.142.105.157.146.04.855-1.988 3.79-3.84 6.829-2.525"/><path fill="#4F4F55" fill-rule="evenodd" d="M51.53 64.239 44.356 51.81l14.273-8.239 2.432.833.376-.218 2.69 1.248 3.204 5.55-13.212 7.629.737 1.268-.627 1.184.382.694-1.439.87-.598.763-.939.609zm10.708-17.992-5.946 3.433-4.348-1.54 5.916-3.392zm-10.963 2.276 4.35 1.541-6.538 3.776c-.265.152-.73.08-1.013-.376l-1.348-2.335z" clip-rule="evenodd"/><path fill="#464649" fill-rule="evenodd" d="m44.356 51.81 3.084 5.343 17.589-10.155-.903-1.565-2.69-1.248-.377.218-2.431-.832zm13.504-7.062-5.916 3.39 4.348 1.541 5.945-3.433zm-2.235 5.316-4.35-1.542-4.55 2.607 1.349 2.334c.283.456.748.529 1.012.376z" clip-rule="evenodd"/><path fill="#3C3C3E" stroke="#303036" stroke-miterlimit="3.99393" stroke-width="1.1701" d="m54.466 44.021 1.2-.693 2.515.502-4.048 2.337-.451-.781 1.179-.68z"/><path fill="#55555E" fill-rule="evenodd" d="m27.033 61.491 1.069 4.926 1.093 1.669c.889 1.611.35 5.33-.954 6.409l1.657 2.87 21.465-12.743.168-.385-7.314-12.667-1.735 1.005-.293-.508-14.012 8.088.293.507zm20.399 1.372L35.176 69.94l-4.88-8.454 1.844-1.065-.88-1.524 10.41-6.01z" clip-rule="evenodd"/><path fill="#464653" stroke="#303036" stroke-miterlimit="3.99393" stroke-width="1.1701" d="M44.459 74.59c.56-.187.377-.201-.325-.116-.701.085-1.948-.288-2.588-.962-.533-.56-.932-1.614-.653-2.94l-1.418.818c1.331 2.67 3.464 3.704 4.983 3.2Z"/><path fill="#61616B" d="m35.18 69.941 12.253-7.074-4.836-8.376-12.253 7.074z"/><path fill="#404040" d="m43.132 55.42-8.69 5.018a1.551 1.551 0 1 0 1.55 2.687l8.692-5.018zm2.153 3.725-8.691 5.018a1.551 1.551 0 0 0 1.55 2.687l8.692-5.018zM35.05 69.723l.087-1.95-2.895-5.014-1.732-.901.39.677-.94.53.445.77-2.547 1.463.243 1.12.292.446 2.833-1.607 2.505 4.339.935-.54z"/><path fill="#3D3D43" d="M32.76 70.653a.59.59 0 1 0-.59-1.023.59.59 0 0 0 .59 1.023m-1.488-3.258a.59.59 0 1 0-.59-1.023.59.59 0 0 0 .59 1.023M49.11 62.66a.59.59 0 1 0-.59-1.023.59.59 0 0 0 .59 1.023"/><path fill="#61616B" d="m50.727 62.848-21.909 12.65 1.08 1.87 21.465-12.744.168-.385z"/><path fill="#3D3D43" d="m54.232 58.808.624 1.074-.626 1.184.382.694-1.44.87-.597.762-.939.61-.104.238-1.675-2.902z"/><path fill="#3D3D43" d="M51.69 61.675a.399.399 0 1 0-.399-.69.399.399 0 0 0 .399.69m-5.043-8.319a.399.399 0 1 0-.4-.691.399.399 0 0 0 .4.69"/><path fill="#3D3D43" stroke="#303036" stroke-miterlimit="3.99393" stroke-width="1.1701" d="m55.16 58.012.709-.41.576 1-.708.408zm1.912-1.104.709-.409.576.999-.708.409zm1.908-1.101.709-.41.576 1-.708.408zm1.913-1.105.708-.409.576.999-.708.409zm1.91-1.102.708-.41.577 1-.709.408zm1.91-1.104.708-.409.577.999-.709.409zm1.91-1.101.708-.41.577.999-.709.409zM43.62 50.53l.707-.409.744 1.289-.708.409zm1.859-1.073.708-.409.744 1.288-.709.41zm1.859-1.073.708-.41.744 1.29-.708.408zm1.862-1.075.708-.41.743 1.29-.708.408zm1.857-1.074.708-.409.744 1.289-.709.409z"/><path fill="#464653" stroke="#303036" stroke-miterlimit="3.99393" stroke-width="1.1701" d="m38.866 79.64-.42-3.68.235.283c.234.282.439.53.55.636.413.392 1.14.644 1.598.63.593-.019 1.378-.067 2.03-.293.585-.202 1.101-.539 1.615-.89 1.345-.921 3.428-2.642 4.189-3.609.302-.383.457-.693.55-1.057.093-.361.082-.73-.034-1.17-.222-.85-.91-1.878-2.096-3.323l1.006-.598c1.156 1.427 1.83 2.54 2.083 3.504.137.525.067 1.208-.053 1.676-.12.466-.41.935-.745 1.361-1.307 1.66-2.713 2.601-3.942 3.424l-.603.406c-.453.31-1.109.738-1.783.971q-1.019.35-1.919.513c-.468.084-.988.18-1.302.36-.262.152-.66.515-.96.856Z"/><path stroke="#303036" stroke-miterlimit="3.99393" stroke-width="1.1701" d="m27.033 61.492 1.068 4.926 1.093 1.668c.89 1.612.352 5.33-.953 6.41l1.657 2.87 21.465-12.743.168-.385-7.314-12.668-1.735 1.006-.44-.762-14.012 8.088.44.76zm20.398 1.372-12.255 7.075-4.88-8.453 1.844-1.065-.88-1.525 10.41-6.01z" clip-rule="evenodd"/><path stroke="#303036" stroke-miterlimit="3.99393" stroke-width="1.1701" d="m35.18 69.941 12.253-7.074-4.836-8.376-12.253 7.074z"/><path stroke="#303036" stroke-miterlimit="3.99393" stroke-width="1.1701" d="m44.356 51.81 3.084 5.343 17.589-10.155-.903-1.565-2.69-1.248-.377.218-2.431-.832zm13.504-7.062-5.916 3.39 4.348 1.541 5.945-3.433zm-2.235 5.316-4.35-1.542-4.55 2.607 1.349 2.334c.283.456.748.529 1.012.376z" clip-rule="evenodd"/><path fill="#3D3D43" d="m61.08 45.545-6.306 3.64a1.275 1.275 0 0 0-.467 1.742l.55.954c.353.61 1.132.818 1.742.466l6.306-3.64c.61-.352.818-1.132.466-1.742l-.55-.953a1.275 1.275 0 0 0-1.742-.467"/><path fill="#35353B" d="m61.11 45.526.63 1.092 1.014-.585-.197-.342a1.27 1.27 0 0 0-1.447-.166m2.404 1.825-.197-.341-1.013.585.631 1.093c.464-.286.682-.827.58-1.337m-1.419 1.822-.631-1.094-1.013.585.63 1.094zm-1.852 1.068-.631-1.093-1.014.585.632 1.094zm-1.852 1.07-.631-1.093-1.014.585.632 1.093zm-1.852 1.07-.631-1.094-1.014.585.152.262c.383.393.988.505 1.493.246m-2.36-1.746.152.262 1.013-.585-.63-1.092a1.28 1.28 0 0 0-.535 1.415m1.373-1.9.631 1.093 1.013-.585-.63-1.093zm1.852-1.069.631 1.093 1.013-.585-.63-1.093zm1.853-1.069.63 1.092 1.014-.585-.631-1.092z"/><path fill="#37373E" d="m57.346 51.915 5.557-3.208q.231-.137.383-.34l-.953 1.65-3.827 2.21z"/><path fill="#53535F" d="m61.599 49.405-1.122.648a.24.24 0 1 0 .24.416l1.122-.648a.24.24 0 0 0-.24-.416m-6.321.755a.59.59 0 1 0-.59-1.023.59.59 0 0 0 .59 1.023"/><path stroke="#303036" stroke-miterlimit="3.99393" stroke-width="1.1701" d="m54.774 49.186 6.305-3.64a1.275 1.275 0 0 1 1.742.466l.55.953a1.27 1.27 0 0 1-.084 1.403l-.952 1.649-3.827 2.21-1.16-.312-.749.432c-.61.352-1.39.143-1.741-.466l-.55-.954a1.275 1.275 0 0 1 .466-1.741Z"/><path stroke="#303036" stroke-miterlimit="3.99393" stroke-width="2.34019" d="m27.033 61.491 1.069 4.926 1.093 1.669c.889 1.611.35 5.33-.954 6.409l1.657 2.87 21.465-12.743.272-.62.94-.61.597-.762 1.439-.87-.382-.694.627-1.184-.737-1.269 13.212-7.628-3.204-5.55-2.69-1.249-.376.218-2.432-.833-14.273 8.24-.139-.241-1.735 1.005-.293-.508-14.012 8.088.293.507z"/><path fill="#4B4B4E" d="M38.252 72.345q.07-.04.145-.08l.369-.205.064.111c.021.037.012.108-.044.224-.529 1.096-.469 1.788-.398 2.605.025.285.05.587.053.926l.44 3.851c-2.024 1.09-2.03 1.454-1.323 3.238l2.992 9.4c.2.566-.407.92-1.27 1.426l-.288.17-5.497 3.08c-1.092.632-1.25.7-1.362.514a1 1 0 0 1-.053-.105l-.043-.09c-3.37-6.669-3.205-11.272-3.123-13.553.015-.417.027-.757.014-1.017-.02-.585-.213-1.248-.579-1.857-.82-1.364-2.51-2.457-5.083-1.802-.404.107-.635.161-.667.112-.044-.08.372-.4 1.328-1.138l.154-.118c1.372-1.2 2.761-2.385 4.16-3.543q.12-.098.228-.222a.6.6 0 0 0 .089.104l1.34 2.988z"/><path fill="#373739" d="M37.135 81.55c.011.373.173.828.425 1.465l2.992 9.4c.199.565-.408.92-1.27 1.425l-.289.17-5.496 3.08c-1.092.632-1.25.7-1.362.514q-.026-.045-.053-.105l-.044-.09c-3.37-6.669-3.204-11.272-3.122-13.553.015-.417.027-.757.014-1.017a3.9 3.9 0 0 0-.498-1.716z"/><path fill="#3E3E41" d="m28.727 81.792 8.52.364q.061.205.151.446l-8.547-.366a4 4 0 0 0-.124-.445m.206 1.399a6 6 0 0 0-.009-.44l8.667.37.142.446zm-.029.948.01-.28.006-.159 8.978.385.141.445zm-.021.949q.002-.23.007-.44l9.314.4.142.445zm.012.95a24 24 0 0 1-.01-.44l9.626.412.141.445zm.049.951a23 23 0 0 1-.028-.44l9.901.424.142.445zm.091.954a23 23 0 0 1-.047-.441l10.136.434.141.445zm.131.955q-.036-.225-.066-.442l10.33.442.142.446zm.172.957q-.045-.225-.084-.442l10.483.448.142.446zm.213.959q-.054-.224-.103-.444l10.595.454.142.445zm.252.961q-.064-.225-.121-.445l10.668.457.142.445zm.292.962-.14-.445 10.62.454c-.035.152-.135.29-.284.427zm.33.964-.158-.446 9.333.4-.32.188q-.14.081-.288.17l-.091.05z"/><path stroke="#323234" stroke-miterlimit="29" stroke-width="2.34019" d="M38.252 72.345q.07-.04.145-.08l.369-.205.064.111c.021.037.012.108-.044.224-.529 1.096-.469 1.788-.398 2.605.025.285.05.587.053.926l.44 3.851c-2.024 1.09-2.03 1.454-1.323 3.238l2.992 9.4c.2.566-.407.92-1.27 1.426l-.288.17-5.497 3.08c-1.092.632-1.25.7-1.362.514a1 1 0 0 1-.053-.105l-.043-.09c-3.37-6.669-3.205-11.272-3.123-13.553.015-.417.027-.757.014-1.017-.02-.585-.213-1.248-.579-1.857-.82-1.364-2.51-2.457-5.083-1.802-.404.107-.635.161-.667.112-.044-.08.372-.4 1.328-1.138l.154-.118c1.372-1.2 2.761-2.385 4.16-3.543q.12-.098.228-.222a.6.6 0 0 0 .089.104l1.34 2.988z"/><path fill="#434346" d="M33.07 82.353a.889.889 0 1 0-.888-1.54.889.889 0 0 0 .889 1.54M35.309 92a.889.889 0 1 0-.889-1.54.889.889 0 0 0 .889 1.54"/></g><defs><clipPath id="a"><path fill="#fff" d="M0 0h110v110H0z"/></clipPath></defs></svg>