<svg xmlns="http://www.w3.org/2000/svg" width="110" height="110" fill="none" viewBox="0 0 110 110"><g clip-path="url(#a)"><path fill="#4D4033" stroke="#3D3329" stroke-width="2.6228" d="m40.846 46.762 21.523-12.427c.143-.082.568.193.838.66l1.03 1.785c.27.466.295.973.153 1.055L42.867 50.262z"/><path fill="#AA5E13" d="m76.914 24.502-14.256 8.23a.656.656 0 0 0-.24.896l2.608 4.518a.655.655 0 0 0 .895.24l14.257-8.231z"/><path fill="#A55C12" d="m80.178 30.155-3.264-5.653 4.625-2.67a.656.656 0 0 1 .895.24l2.609 4.517a.656.656 0 0 1-.24.896z"/><path stroke="#5C330A" stroke-width="2.6228" d="m62.658 32.733 18.88-10.901a.655.655 0 0 1 .897.24l2.608 4.517a.656.656 0 0 1-.24.896l-18.882 10.9a.655.655 0 0 1-.895-.24l-2.608-4.517a.653.653 0 0 1 .24-.895Z"/><path fill="#43382D" d="M45.968 63.429c-1.86.309-2.908.307-4.787.311l-.399-.584-1.717.44-.023-2.076 1.283-.74a85 85 0 0 0 5.4 1.743c.211.062.341.344.404.547.052.168-.05.34-.161.358"/><path stroke="#3D3329" stroke-width="1.3114" d="m39.042 61.52.023 2.077 1.717-.44.4.583c1.878-.004 2.926-.002 4.786-.312.112-.018.213-.19.161-.358-.063-.203-.193-.485-.403-.547a85 85 0 0 1-5.4-1.744m-1.284.741 1.283-.74m-1.283.74 1.283-.74"/><path fill="#4F4235" stroke="#3D3329" stroke-width="1.3114" d="M45.746 63.423c-2.425-.937-3.52-1.865-4.874-4.42-1.967.86-2.687 1.663-2.951 3.9.966.36 1.53.309 2.551-.012 1.797 1.393 2.962 1.544 5.183 1.229a.39.39 0 0 0 .315-.287.35.35 0 0 0-.224-.41Z"/><path fill="#473B2F" d="m31.975 94.366 10.255-5.92.806 1.395-10.256 5.92z"/><path fill="#41362B" d="m42.928 51.458 3.655-2.11.348.602-3.656 2.11zm-13.496 8.595 6.96-4.018.46.797-6.96 4.018z"/><path fill="#86592D" fill-rule="evenodd" d="m35.992 56.647.328-.57 28.85-16.656q.124.21.237.393c.47.773.782 1.288 1.058 2.298.025.093-.04.166-.102.234-.062.069-.12.132-.076.208.358.62-.193 1.05-.531 1.28-.987.669-2.428 1.58-4.044 2.577l-.38-.659-1.35.78.401.695a918 918 0 0 1-6.137 3.705 793 793 0 0 0-2.748 1.653c-1.353.82-1.808 2.627-1.017 3.997l1.024 1.774c.455.788 1.223 1.454 1.924 2.035.645.534.506.958-.285 1.39l-9.201 5.426c-.628.37-1.312.491-2.036.576l-.869.06c-.609.071-.935.302-1.255.724l-.024.033c-.34.447-.592.78-.181 2.94l2.421 14.287c.965 1.505 1.16 2.175.661 2.923-.31.465-11.147 6.79-11.394 6.894-.321.134-.51.069-.731-.248-1.082.075-1.667-.013-2.626-.287-2.07-2.92-2.157-9.042-2.21-12.758-.015-.97-.026-1.777-.07-2.32l-.02-.24c-.155-1.926-.366-4.554-1.028-6.93-.569-2.041-1.94-3.64-3.773-3.876-1.038-.133-1.477-.267-3.357.6-.177.082-.587.14-.876-.35-.288-.49-.495-1.07.006-1.36l-.174-.3 13.225-7.637.182.316.638.184 2.716-1.569-.256-.444zm7.964.463 1.285-.742a3.077 3.077 0 0 1 4.202 1.126l.63 1.092a3 3 0 0 1-1.098 4.097l-5.528 3.192c-.876.506-1.978.579-2.931.243-1.621-.572-2.26-2.327-1.82-3.99.318-1.209.809-2.077 1.921-2.647l1.367-.79c.382-.195.674-.453.986-.728l.203-.178zm-2.067-2.952a.115.115 0 0 0-.095.133l.398 2.436c.01.063.07.105.133.095l.596-.098a.115.115 0 0 0 .096-.132l-.398-2.436a.115.115 0 0 0-.133-.095z" clip-rule="evenodd"/><path fill="#83572C" d="m55.375 50.214-1.764 1.056c-.904-1.673-1.463-2.565-2.517-3.723l14.075-8.127.237.393c.47.774.782 1.29 1.058 2.299.025.093-.04.166-.102.234s-.119.132-.075.208c.357.62-.194 1.05-.532 1.279-.945.641-2.402 1.555-4.05 2.565l-.374-.646-1.35.78.391.677a996 996 0 0 1-4.997 3.005"/><path fill="#534537" d="m32.745 50.688.202-.116c.021-.013.027-.028.036-.044a.13.13 0 0 1 .058-.058l7.416-4.38 2.75 4.763.175 1.145-7.41 4.279z"/><path fill="#C60" d="m61.252 33.733-.547.329c-.294.177-.551.341-.811.508-.36.23-.723.462-1.196.735l-18.26 10.75.75 1.298c.531.92.487 2.186-.477 2.743l-4.514 2.606c-.07.04-.187.002-.305-.037-.101-.033-.204-.067-.278-.051-.165.035-.331.07-.47.15l-1.297.75-1.581-2.74-18.61 10.698c-.456.263-.258.81-.156.986l2.434 4.282.046-.027a.154.154 0 0 1 .21.057l.044.075a.08.08 0 0 1-.006.086l-.107.139.286.504 24.467-14.126-.17-.294a.185.185 0 0 1 .068-.253l2.483-1.434.037-.166 3.45-1.453.073.17 18.418-10.633-3.05-5.153c-.22-.381-.582-.709-.93-.5"/><path fill="#7A6652" d="m32.095 58.516-1.54.89.109.188-.1.376-.515.298a.52.52 0 0 0-.19.707l.347.6c.143.248.46.333.707.19l1.845-1.065a.52.52 0 0 0 .19-.708z"/><path fill="#AD5700" stroke="#630" stroke-width="1.3114" d="m58.662 35.345-.166-1.105a.27.27 0 0 1 .13-.285l.637-.367a.2.2 0 0 1 .158-.016l1.337.563z"/><path fill="#5C4D3E" d="m42.953 56.07-.881.142-.337-2.076.881-.143z"/><path fill="#806B56" d="m41.734 54.496.942-.315.012.037-.83.277.875.001v.02l.006.018-.83.277.876.001v.02l.006.018-.83.277.875.001v.02l.006.018-.83.278h.875v.02l.006.018-.83.278h.875v.02l.007.018-.83.278h.875v.02l.006.018-.83.278h.875v.02l.006.018-.941.315-.012-.036.83-.278h-.876v-.02l-.006-.018.83-.278h-.875v-.02l-.006-.018.83-.278-.875-.001v-.02l-.006-.018.83-.277-.876-.001v-.02l-.006-.018.83-.277-.875-.001v-.02l-.006-.018.83-.277-.875-.001v-.02l-.006-.018.83-.278h-.876v-.02z"/><path fill="#4D4033" d="M28.888 55.353a.88.88 0 0 1 .323-1.205l3.75-2.165.883 1.527-3.75 2.166a.88.88 0 0 1-1.206-.323"/><path fill="#43382D" d="m29.277 54.11.882 1.528-.066.038a.882.882 0 0 1-.882-1.528z"/><path fill="#4F4235" d="m33.204 53.88-.882-1.528.639-.37.882 1.529z"/><path fill="#C76300" d="m33.495 51.986-.75-1.297c-.051-.09-.255-.046-.48.085l.832 1.442z"/><circle cx="59.657" cy="34.2335" r="0.176404" fill="#A35200" transform="rotate(-30 59.657 34.233)"/><circle cx="39.9472" cy="57.9597" r="0.706263" fill="#5C4D3E" transform="rotate(-30 39.947 57.96)"/><path fill="#BD5E00" d="m16.176 60.83.802-.463 2.978 5.158-.802.464zm32.986-19.047.802-.463 2.979 5.158-.803.464z"/><path fill="#AD5700" stroke="#630" stroke-width="1.3114" d="m17.354 59.889-1.943 1.122-.226-1.87.875-.504z"/><path fill="#BD5E00" d="m21.156 57.953-.802.463 2.978 5.158.802-.463zm32.988-19.045-.802.463 2.978 5.158.802-.463zm-34.379 19.85-.802.463 2.978 5.158.802-.463zM52.753 39.71l-.802.464 2.978 5.158.803-.463zM18.37 59.561l-.802.463 2.979 5.159.802-.463zm32.989-19.045-.802.464 2.978 5.158.802-.463zM22.552 57.148l-.802.463 2.978 5.159.802-.463zm32.987-19.046-.803.463 2.979 5.159.802-.463zM23.943 56.345l-.802.464 2.978 5.158.802-.463zm32.99-19.046-.802.463 2.978 5.158.802-.463zM25.335 55.54l-.802.463 2.978 5.158.803-.463zm32.991-19.046-.803.463 2.979 5.158.802-.463z"/><path fill="#534537" stroke="#3D3329" stroke-width="1.3114" d="m41.343 92.37-8.073 4.894c-.343.197-.611-.016-.708-.184-.132-.228-.194-1.299.04-1.434 0 0 9.526-5.805 9.737-6.03.183-.195.412-.575.57-1 .029-.082.135-.104.187-.034.388.526.42 1.107.222 1.671-.248.707-.76 1.515-1.975 2.117Z"/><path fill="#774F28" d="m25.144 72.868.667-.137a.948.948 0 1 0-.38-1.858l-.668.137z"/><circle cx="25.7203" cy="71.7234" r="0.474378" fill="#6B4724" transform="rotate(-30 25.72 71.723)"/><path fill="#D16900" d="m62.395 34.596-.216-.364c-.22-.381-.581-.708-.93-.499l-.547.329c-.294.177-.552.342-.811.508h-.002c-.359.23-.722.463-1.194.735l-18.26 10.75.528.915zM32.79 51.689 13.655 62.737l-.159-.279c-.101-.176-.3-.722.156-.985l18.61-10.699z"/><path fill="#7E542A" d="M51.044 52.924c-2.18.976-3.452 1.71-5.324 3.218a3.08 3.08 0 0 1 3.721 1.352l.63 1.09a3 3 0 0 1-1.098 4.099l-5.528 3.191c-.876.506-1.978.58-2.931.243-1.145-.403-1.799-1.397-1.93-2.53-.135 2.351.12 3.738.81 5.779.06-.368.201-.554.362-.766l.025-.034c.32-.422.646-.653 1.255-.724l.87-.06c.723-.085 1.407-.206 2.035-.576l9.201-5.425c.79-.432.93-.857.285-1.391-.7-.58-1.469-1.247-1.924-2.035l-1.024-1.774c-.695-1.204-.428-2.745.565-3.657"/><path fill="#684523" d="m52.732 49.448 11.3-6.524 1.91-.643c.187-.063.33.17.188.308l-1.468 1.424-3.251 1.877-.08-.138-1.35.78.08.138-6.7 3.868z"/><path fill="#7E542A" d="M26.8 92.746c-.998-3.162-1.06-7.506-1.102-10.395-.014-.971-.026-1.778-.07-2.32l-.02-.241c-.127-1.582-.292-3.638-.714-5.639l1.204-.166c.983 4.237 1.3 6.674 1.19 11.139-.078 3.15.253 4.83.81 7.59zM39.48 70.98q.04.257.098.56l2.197 12.964-1.113.505-2.269-13.85z"/><path fill="#744D27" d="m34.395 67.401.573 2.69 2.08-.444-.079-.373 1.444-.308-.494-2.316z"/><path fill="#7E542A" d="m34.727 68.956.242 1.135.991-.211 2.718 16.178a.55.55 0 0 1-.222.54c-2.863 2.059-4.737 3.101-7.889 4.4a.545.545 0 0 1-.75-.442c-.21-1.855-.286-3.55-.36-5.158a90 90 0 0 0-.169-3.008l-.985-9.365a.56.56 0 0 1 .361-.58c2.616-.978 4.274-1.794 6.063-3.49"/><path fill="#83572C" fill-rule="evenodd" d="m42.984 52.8-1.438.734c-.577.307-1.163 1.14-.994 1.77l.71 2.657c.077.287.409.42.662.263l2.093-1.288a.96.96 0 0 0 .45-.934l-.33-2.755c-.06-.49-.717-.68-1.153-.448m-1.192 1.49a.115.115 0 0 1 .096-.132l.597-.097a.115.115 0 0 1 .132.095l.398 2.436a.115.115 0 0 1-.095.132l-.597.098a.115.115 0 0 1-.133-.096z" clip-rule="evenodd"/><path fill="#4D4033" d="m34.243 53.28-.882-1.527-.397.23.882 1.527z"/><path fill="#794715" d="M27.285 47.938 45.623 37.35l.552.956-18.338 10.588z"/><path fill="#94571A" d="m30.232 45.313 1.307-.754.4.692-1.307.754zm2.573-1.486 1.307-.754.4.691-1.308.755zm2.575-1.487 1.308-.754.4.692-1.308.755zm2.575-1.485 1.307-.755.4.692-1.307.754zM57.7 52.441l1.306-.754-.4-.692-1.306.755zM40.53 39.368l1.306-.754.4.691-1.307.755zm19.75 11.584 1.306-.754-.4-.692-1.306.754zM44.412 37.127l-1.306.755.399.692 2.119-1.224-.082-.142zm19.54 11.706-1.307.755-.4-.692 2.12-1.223.081.142zm-34.989-2.786-1.307.754-.437 1.023.065.114 2.078-1.2zm27.55 7.081-2.598 1.5-1.104-.134-.066-.114 3.368-1.944z"/><path fill="#8B5219" d="m46.893 39.209-.716-.903-14.34 8.279 1.616.383 5.792-3.344a1.2 1.2 0 0 1 .193-.138l2.976-1.718a1 1 0 0 1 .184-.08z"/><path stroke="#4D3319" stroke-width="2.6228" d="m35.992 56.647.328-.57 28.85-16.656.236.391.001.002c.47.773.782 1.288 1.058 2.298.025.093-.04.166-.102.234-.062.069-.12.132-.076.208.358.62-.193 1.05-.531 1.28-.987.669-2.428 1.58-4.044 2.577l-.38-.659-1.35.78.401.695a918 918 0 0 1-6.137 3.705h-.001a899 899 0 0 0-2.747 1.653c-1.353.82-1.808 2.627-1.017 3.997l1.024 1.774c.455.788 1.223 1.454 1.924 2.035.645.534.506.958-.285 1.39l-9.201 5.426c-.628.37-1.312.491-2.036.576l-.869.06c-.609.071-.935.302-1.255.724l-.024.033c-.34.447-.592.78-.181 2.94l2.421 14.287c.965 1.505 1.16 2.175.661 2.923-.31.465-11.147 6.79-11.394 6.894-.321.134-.51.069-.731-.248-1.082.075-1.667-.013-2.626-.287-2.07-2.92-2.157-9.042-2.21-12.758-.015-.97-.026-1.777-.07-2.32l-.02-.24c-.155-1.926-.366-4.554-1.028-6.93-.569-2.041-1.94-3.64-3.773-3.876-1.038-.133-1.477-.267-3.357.6-.177.082-.587.14-.876-.35-.288-.49-.495-1.07.006-1.36l-.174-.3 13.225-7.637.182.316.638.184 2.716-1.569-.256-.444z"/><path stroke="#4D3319" stroke-width="1.3114" d="m43.955 57.11 1.285-.742a3.077 3.077 0 0 1 4.203 1.126l.63 1.091a3 3 0 0 1-1.098 4.098l-5.529 3.192c-.875.505-1.977.579-2.93.242-1.622-.571-2.26-2.327-1.821-3.99.319-1.208.81-2.076 1.922-2.646l1.367-.79c.381-.195.674-.453.985-.728l.204-.178zm-2.066-2.952a.115.115 0 0 0-.095.132l.398 2.436c.01.063.07.106.132.096l.597-.098a.115.115 0 0 0 .095-.132l-.398-2.436a.115.115 0 0 0-.132-.096z"/><path fill="#794715" d="m52.744 54.379 11.618-6.707-.79-1.367-11.617 6.708z"/><path fill="#8B5219" d="m51.039 51.141 11.807-6.817.728 1.983-11.617 6.707z"/><circle cx="60.9981" cy="46.7384" r="0.643425" fill="#7E4A16" transform="rotate(-30 60.998 46.738)"/><path stroke="#3D3329" stroke-width="1.3114" d="m33.04 50.47 7.417-4.38.729 1.263c.53.92.487 2.185-.478 2.742l-4.514 2.606c-.07.04-.186.002-.304-.037-.102-.033-.204-.067-.279-.05-.164.034-.33.07-.47.15l-.9.516-4.148 2.395a.882.882 0 1 1-.882-1.528l4.148-2.395-.614-1.064.202-.116a.1.1 0 0 0 .033-.039l.003-.005a.13.13 0 0 1 .058-.058Z"/><path stroke="#630" stroke-width="2.6228" d="m60.703 34.06.547-.328c.347-.201.712.12.93.498l3.05 5.154-18.417 10.633-.073-.17-3.45 1.453.092.698-26.977 15.575-.286-.504.107-.14a.08.08 0 0 0 .006-.085l-.044-.075a.154.154 0 0 0-.21-.057l-.046.027-2.434-4.282c-.102-.176-.3-.723.155-.986l18.61-10.698c.227-.13.43-.175.482-.085l.203-.117a.1.1 0 0 0 .036-.044.13.13 0 0 1 .057-.057l7.416-4.38-.02-.036L58.9 35.184c.375-.222.685-.419.99-.613.26-.167.518-.333.812-.51Z"/><path fill="#9C5C1C" d="M33.451 46.968 51.04 51.14l11.807-6.817-14.684-4.08a1.84 1.84 0 0 1-.947-.628l-.324-.408-4.295 2.48a.9.9 0 0 1 .455-.018l12.078 2.71c1.143.258 1.376 1.785.361 2.37l-3.324 1.92a1.23 1.23 0 0 1-.938.12L39.71 45.615c-.917-.252-1.135-1.407-.466-1.992z"/><path stroke="#57330F" stroke-width="1.3114" d="m30.23 45.315 1.307-.755.4.692 1.267-.732-.4-.692 1.308-.755.4.692 1.267-.732-.4-.691 1.308-.755.399.692 1.268-.732-.4-.692 1.307-.754.4.691 1.267-.732-.4-.691 1.308-.755.4.692 1.267-.732-.4-.692 1.307-.754 1.13.08.634 1.099.716.902.324.408c.241.304.573.524.947.628l14.684 4.08.728 1.982.789 1.366.082.142-.495 1.019-1.307.755-.4-.692-1.056.61.4.692-1.307.754-.4-.692-1.273.735.4.692-1.308.755-.399-.692-1.186.685.4.692-2.598 1.5-1.105-.134-.066-.113-.788-1.367-.918-1.873-19.203-4.556-3.999 2.31-.552-.957-.065-.114.437-1.023 1.307-.755.399.692 1.268-.732z"/><path fill="#854A0F" d="M2.992 47.505a.656.656 0 0 0-.24.896l4.45 7.707a.656.656 0 0 0 .895.24l1.618-.934-5.106-8.843z"/><path fill="#A05912" d="m16.281 40.504.84-.485 4.524 7.834-.84.485z"/><path fill="#81470E" d="m17.54 40.741 1.025-.592 3.688 6.389-1.025.592z"/><path fill="#8B4D0F" d="M57.28 15.989a.656.656 0 0 1 .895.24l4.6 7.965a.656.656 0 0 1-.24.896l-6.173 3.564-8.412 3.183-25.64 14.802-3.805-6.59 25.639-14.803 6.963-5.694z"/><path fill="#8E4F10" d="m16.152 51.697-6.439 3.718-5.106-8.844 6.44-3.717 5.389-2.08 4.212 7.296z"/><path fill="#CA0" d="m54.518 17.583.41-.237 5.255 9.101-.41.237z"/><path fill="#9D5711" d="m34.011 30.178-6.638 3.833-.253.875 4.037 6.992c3.253-1.393 4.955-2.376 7.776-4.49l-4.037-6.991z"/><path fill="#A65C12" d="m26.875 32.834 6.365-3.675.635 1.099-6.366 3.675z"/><path fill="#A95E13" d="m26.486 32.448 6.615-3.819.263.457-6.614 3.819z"/><path fill="#B26314" d="m31.45 28.665-4.107 2.37-.621 1.278 6.144-3.548z"/><ellipse cx="33.0651" cy="36.2035" fill="#A95E13" rx="3.675" ry="3.67501" transform="rotate(-30 33.065 36.203)"/><circle cx="33.0646" cy="36.2031" r="2.28636" fill="#B26314" transform="rotate(-30 33.065 36.203)"/><path stroke="#5C330A" stroke-width="2.6228" d="m31.45 28.664-4.108 2.371-.62 1.277-.236.136.264.457.124-.072.635 1.098-.137.08-.253.874.083.143-8.696 5.02.058.101-1.025.592-.418-.723-.84.486.155.269-5.389 2.08-8.057 4.652a.656.656 0 0 0-.24.895l4.45 7.708a.656.656 0 0 0 .896.24l8.057-4.651 4.496-3.628.155.269.84-.485-.417-.723 1.026-.592.058.1 8.696-5.02.15.26c3.252-1.393 4.954-2.377 7.775-4.49l-.15-.259 9.168-5.293 8.412-3.183 6.172-3.563a.656.656 0 0 0 .24-.896l-4.599-7.965a.656.656 0 0 0-.895-.24l-6.172 3.563-6.963 5.694-9.168 5.293-.082-.143-.885-.218-.136.078-.634-1.098.124-.072-.264-.457-.235.136z"/><path fill="#634221" d="m24.12 41.368 4.442-2.565 2.333 4.042-4.442 2.565zm12.91-7.453 4.442-2.565 2.333 4.042-4.442 2.565z"/><path fill="#593B1E" d="m26.225 45.541 4.897-2.827 1.579 2.734-4.897 2.828zm12.91-7.453 4.897-2.828 1.58 2.735-4.898 2.828z"/><path fill="#634221" d="m21.785 37.326 4.443-2.565 2.333 4.042-4.442 2.565zm12.908-7.453 4.443-2.565 2.333 4.042-4.442 2.565z"/><path fill="#6B4724" d="m24.12 41.368 4.442-2.565-.22-.38-4.442 2.565zm12.91-7.453 4.442-2.565-.22-.38-4.442 2.565z"/><path fill="#6B4724" d="m24.338 41.747 4.442-2.565-.219-.38-4.442 2.566zm12.91-7.453 4.443-2.565-.22-.38-4.442 2.565z"/><path stroke="#4D3319" stroke-width="1.3114" d="m26.227 34.762-4.443 2.565 4.667 8.083-.228.131 1.58 2.735 4.897-2.828-1.58-2.734-.227.13zm12.91-7.453-4.443 2.564 4.667 8.084-.227.13 1.578 2.736 4.898-2.828-1.58-2.735-.226.132z"/><path fill="#4D4033" stroke="#3D3329" stroke-width="2.6228" d="m63.239 52.762 21.523-12.427c.142-.082.568.193.837.66l1.031 1.785c.27.466.295.973.152 1.055L65.26 56.262z"/><path fill="#AA5E13" d="m99.307 30.502-14.257 8.23a.656.656 0 0 0-.24.896l2.608 4.518a.656.656 0 0 0 .896.24l14.257-8.231z"/><path fill="#A55C12" d="m102.57 36.155-3.263-5.653 4.624-2.67a.656.656 0 0 1 .896.24l2.608 4.517a.656.656 0 0 1-.24.896z"/><path stroke="#5C330A" stroke-width="2.6228" d="m85.05 38.733 18.881-10.901a.656.656 0 0 1 .896.24l2.608 4.517a.656.656 0 0 1-.24.896l-18.881 10.9a.656.656 0 0 1-.896-.24l-2.608-4.517a.653.653 0 0 1 .24-.895Z"/><path fill="#43382D" d="M68.36 69.429c-1.86.309-2.907.307-4.786.311l-.4-.584-1.716.44-.023-2.076 1.283-.74a84 84 0 0 0 5.4 1.743c.21.062.34.344.404.547.052.168-.05.34-.162.359"/><path stroke="#3D3329" stroke-width="1.3114" d="m61.435 67.52.023 2.077 1.717-.44.399.583c1.879-.004 2.927-.002 4.786-.311.112-.02.214-.191.162-.359-.064-.203-.194-.485-.404-.547a84 84 0 0 1-5.4-1.744m-1.283.741 1.283-.74m-1.283.74 1.283-.74"/><path fill="#4F4235" stroke="#3D3329" stroke-width="1.3114" d="M68.139 69.424c-2.426-.937-3.52-1.865-4.875-4.42-1.966.86-2.686 1.663-2.95 3.9.966.36 1.529.309 2.55-.012 1.798 1.393 2.962 1.544 5.184 1.229a.39.39 0 0 0 .314-.287.35.35 0 0 0-.223-.41Z"/><path fill="#473B2F" d="m54.367 100.366 10.256-5.921.805 1.396-10.255 5.92z"/><path fill="#41362B" d="m65.32 57.458 3.656-2.11.348.602-3.656 2.11zm-13.496 8.595 6.96-4.018.46.797-6.96 4.018z"/><path fill="#86592D" fill-rule="evenodd" d="m58.384 62.647.329-.57 28.85-16.656q.125.21.237.393c.469.773.782 1.288 1.057 2.298.025.093-.04.166-.101.234-.062.069-.12.132-.076.208.358.62-.194 1.05-.532 1.28-.986.669-2.428 1.58-4.043 2.577l-.38-.659-1.35.78.4.695a870 870 0 0 1-6.137 3.705 793 793 0 0 0-2.747 1.653c-1.353.82-1.808 2.627-1.017 3.997l1.024 1.774c.455.788 1.223 1.454 1.924 2.035.645.534.505.958-.285 1.39l-9.202 5.426c-.627.37-1.312.491-2.035.576l-.87.06c-.608.071-.935.302-1.254.724l-.025.033c-.34.447-.591.78-.18 2.94l2.421 14.287c.965 1.505 1.16 2.175.66 2.923-.309.465-11.146 6.791-11.393 6.894-.321.134-.51.069-.732-.248-1.08.075-1.667-.013-2.626-.287-2.069-2.92-2.157-9.042-2.21-12.758-.014-.97-.026-1.777-.07-2.32l-.019-.24c-.155-1.926-.367-4.554-1.029-6.93-.568-2.041-1.94-3.64-3.772-3.876-1.038-.133-1.477-.267-3.357.6-.177.082-.588.14-.876-.35s-.495-1.07.005-1.36l-.174-.3 13.226-7.636.182.315.637.184 2.717-1.569-.257-.444zm7.964.463 1.285-.742a3.077 3.077 0 0 1 4.203 1.126l.63 1.092a3 3 0 0 1-1.098 4.097l-5.529 3.192c-.875.506-1.977.579-2.93.243-1.622-.572-2.26-2.327-1.821-3.99.318-1.209.81-2.077 1.922-2.647l1.367-.79c.381-.195.674-.453.985-.728l.204-.178zm-2.066-2.952a.115.115 0 0 0-.095.133l.398 2.436c.01.063.07.105.132.095l.597-.098a.115.115 0 0 0 .095-.132l-.398-2.436a.115.115 0 0 0-.132-.095z" clip-rule="evenodd"/><path fill="#83572C" d="m77.768 56.214-1.764 1.056c-.904-1.673-1.464-2.565-2.518-3.723l14.076-8.127q.124.21.237.393c.47.774.782 1.29 1.057 2.299.026.093-.04.166-.1.234-.063.068-.12.132-.077.208.358.62-.194 1.05-.531 1.279-.946.641-2.402 1.555-4.051 2.565l-.373-.646-1.35.78.391.677c-1.66 1.007-3.42 2.06-4.998 3.005"/><path fill="#534537" d="m55.137 56.688.203-.116c.02-.013.027-.028.036-.044a.13.13 0 0 1 .057-.058l7.416-4.38 2.75 4.763.175 1.145-7.41 4.279z"/><path fill="#C60" d="m83.645 39.733-.547.329c-.294.177-.552.341-.812.508-.359.23-.723.462-1.195.735l-18.26 10.75.75 1.298c.53.92.487 2.186-.478 2.743l-4.514 2.606c-.07.04-.186.002-.304-.037-.102-.033-.204-.067-.278-.051-.165.035-.331.07-.47.15l-1.297.75-1.582-2.74-18.61 10.698c-.456.263-.257.81-.156.986l2.434 4.282.047-.027a.154.154 0 0 1 .21.057l.044.075a.08.08 0 0 1-.006.086l-.108.139.287.504 24.467-14.126-.17-.294a.185.185 0 0 1 .068-.253l2.483-1.434.037-.166 3.45-1.453.072.17 18.418-10.633-3.05-5.153c-.22-.381-.581-.709-.93-.5"/><path fill="#7A6652" d="m54.485 64.516-1.54.89.11.188-.1.376-.515.298a.52.52 0 0 0-.19.707l.347.6c.143.248.46.333.707.19l1.844-1.065a.52.52 0 0 0 .19-.707z"/><path fill="#AD5700" stroke="#630" stroke-width="1.3114" d="m81.054 41.345-.166-1.105a.27.27 0 0 1 .13-.285l.637-.367a.2.2 0 0 1 .159-.016l1.337.563z"/><path fill="#5C4D3E" d="m65.346 62.07-.881.142-.337-2.076.88-.143z"/><path fill="#806B56" d="m64.127 60.496.941-.315.013.037-.83.277.875.001v.02l.006.018-.83.277.875.001v.02l.006.018-.83.277.875.001v.02l.007.018-.83.278h.875v.02l.006.018-.83.278h.875v.02l.006.018-.83.278h.875v.02l.006.018-.83.278h.876v.02l.006.018-.942.315-.012-.036.83-.278h-.875v-.02l-.006-.018.83-.278h-.875v-.02l-.006-.018.83-.278-.876-.001v-.02l-.006-.018.83-.277-.875-.001v-.02l-.006-.018.83-.277-.875-.001v-.02l-.006-.018.83-.277-.876-.001v-.02l-.006-.018.83-.278h-.875v-.02z"/><path fill="#4D4033" d="M51.28 61.353a.88.88 0 0 1 .324-1.205l3.75-2.165.882 1.527-3.75 2.166a.88.88 0 0 1-1.205-.323"/><path fill="#43382D" d="m51.67 60.11.881 1.528-.065.038a.882.882 0 0 1-.882-1.528z"/><path fill="#4F4235" d="m55.597 59.88-.882-1.528.638-.37.883 1.529z"/><path fill="#C76300" d="m55.887 57.986-.749-1.297c-.052-.09-.255-.046-.481.085l.833 1.442z"/><circle cx="82.0496" cy="40.2335" r="0.176404" fill="#A35200" transform="rotate(-30 82.05 40.233)"/><circle cx="62.3398" cy="63.9597" r="0.706263" fill="#5C4D3E" transform="rotate(-30 62.34 63.96)"/><path fill="#BD5E00" d="m38.568 66.83.803-.463 2.978 5.158-.802.464zm32.987-19.047.802-.463 2.978 5.158-.802.464z"/><path fill="#AD5700" stroke="#630" stroke-width="1.3114" d="m39.746 65.889-1.943 1.122-.225-1.87.875-.504z"/><path fill="#BD5E00" d="m43.548 63.953-.802.463 2.978 5.158.803-.463zm32.989-19.045-.803.463 2.979 5.158.802-.463zM42.158 64.757l-.803.464 2.979 5.158.802-.463zM75.146 45.71l-.802.464 2.978 5.158.802-.463zM40.763 65.561l-.802.463 2.978 5.159.802-.463zm32.988-19.045-.802.464 2.978 5.158.803-.463zM44.945 63.148l-.802.463 2.978 5.159.802-.463zm32.986-19.046-.802.463 2.978 5.159.802-.463zM46.335 62.345l-.802.464 2.978 5.158.803-.463zm32.991-19.046-.803.463 2.979 5.158.802-.463zM47.728 61.54l-.802.463 2.978 5.158.802-.463zm32.99-19.046-.802.463 2.978 5.158.802-.463z"/><path fill="#534537" stroke="#3D3329" stroke-width="1.3114" d="m63.736 98.37-8.074 4.894c-.342.197-.61-.016-.707-.184-.132-.229-.195-1.299.04-1.434 0 0 9.526-5.805 9.736-6.03.184-.195.413-.575.57-1 .03-.082.136-.104.187-.034.388.526.42 1.107.223 1.671-.248.707-.76 1.515-1.975 2.117Z"/><path fill="#774F28" d="m47.536 78.868.668-.137a.948.948 0 0 0-.38-1.858l-.668.137z"/><circle cx="48.1129" cy="77.7234" r="0.474378" fill="#6B4724" transform="rotate(-30 48.113 77.723)"/><path fill="#D16900" d="m84.788 40.596-.216-.364c-.22-.381-.582-.708-.93-.499l-.547.329c-.295.177-.552.342-.812.508h-.002c-.358.23-.722.463-1.194.735l-18.26 10.75.529.915zM55.183 57.689 36.047 68.736l-.158-.279c-.102-.176-.3-.722.155-.985l18.61-10.699z"/><path fill="#7E542A" d="M73.437 58.924c-2.18.976-3.452 1.71-5.324 3.218a3.08 3.08 0 0 1 3.72 1.352l.63 1.09a3 3 0 0 1-1.097 4.099l-5.529 3.191c-.875.506-1.977.58-2.93.243-1.145-.403-1.8-1.397-1.931-2.53-.134 2.351.12 3.738.81 5.779.06-.368.202-.554.363-.766l.025-.034c.319-.422.646-.653 1.255-.724l.869-.06c.723-.085 1.408-.206 2.035-.576l9.202-5.425c.79-.432.93-.857.285-1.391-.701-.58-1.47-1.247-1.924-2.035l-1.024-1.774c-.695-1.204-.428-2.745.565-3.657"/><path fill="#684523" d="m75.125 55.448 11.3-6.524 1.91-.643c.186-.063.329.17.188.308l-1.469 1.424-3.25 1.877-.08-.138-1.35.78.08.138-6.7 3.868z"/><path fill="#7E542A" d="M49.193 98.746c-.999-3.162-1.061-7.506-1.103-10.395-.014-.971-.025-1.778-.07-2.32l-.019-.241c-.127-1.582-.292-3.638-.715-5.639l1.205-.166c.982 4.237 1.3 6.674 1.19 11.139-.078 3.15.253 4.83.81 7.59zM61.87 76.98q.041.257.098.56l2.198 12.964-1.113.505-2.27-13.85z"/><path fill="#744D27" d="m56.788 73.401.573 2.69 2.08-.444-.08-.373 1.444-.308-.493-2.316z"/><path fill="#7E542A" d="m57.12 74.956.242 1.135.991-.211 2.718 16.178a.55.55 0 0 1-.222.54c-2.863 2.059-4.737 3.101-7.89 4.4a.545.545 0 0 1-.75-.442c-.209-1.855-.286-3.55-.359-5.158a90 90 0 0 0-.17-3.008l-.984-9.365a.56.56 0 0 1 .36-.58c2.617-.978 4.275-1.794 6.064-3.49"/><path fill="#83572C" fill-rule="evenodd" d="m65.376 58.8-1.437.734c-.577.307-1.163 1.14-.994 1.77l.71 2.657c.076.287.408.42.661.263l2.094-1.288a.96.96 0 0 0 .45-.934l-.33-2.755c-.06-.49-.718-.68-1.154-.448m-1.191 1.49a.115.115 0 0 1 .095-.132l.597-.097a.115.115 0 0 1 .133.095l.398 2.436a.115.115 0 0 1-.096.132l-.596.098a.115.115 0 0 1-.133-.096z" clip-rule="evenodd"/><path fill="#4D4033" d="m56.636 59.28-.882-1.527-.398.23.882 1.527z"/><path fill="#794715" d="M49.678 53.938 68.015 43.35l.552.956L50.23 54.894z"/><path fill="#94571A" d="m52.625 51.313 1.307-.754.4.692-1.308.754zm2.572-1.486 1.307-.754.4.691-1.307.755zm2.576-1.485 1.307-.755.4.692-1.307.755zm2.575-1.487 1.307-.755.4.692-1.308.754zM80.09 58.441l1.307-.754-.4-.692-1.307.755zM62.922 45.368l1.307-.754.4.691-1.308.755zm19.75 11.584 1.307-.754-.4-.692-1.307.754zM66.805 43.127l-1.307.755.4.692 2.118-1.224-.082-.142zm19.539 11.706-1.307.755-.4-.692 2.12-1.223.082.142zm-34.989-2.786-1.307.754-.437 1.023.066.114 2.078-1.2zm27.55 7.081-2.597 1.5-1.105-.134-.065-.114 3.368-1.944z"/><path fill="#8B5219" d="m69.285 45.209-.716-.903-14.339 8.279 1.616.383 5.792-3.344q.087-.075.193-.138l2.976-1.718a1 1 0 0 1 .184-.08z"/><path stroke="#4D3319" stroke-width="2.6228" d="m58.384 62.647.329-.57 28.85-16.656q.123.208.236.391v.002c.47.773.782 1.288 1.058 2.298.025.093-.04.166-.101.234-.062.069-.12.132-.076.208.358.62-.194 1.05-.532 1.28-.986.669-2.428 1.58-4.043 2.577l-.38-.659-1.35.78.4.695a870 870 0 0 1-6.137 3.705 899 899 0 0 0-2.747 1.653c-1.353.82-1.808 2.627-1.017 3.997l1.024 1.774c.455.788 1.223 1.454 1.924 2.035.645.534.505.958-.285 1.39l-9.202 5.426c-.627.37-1.312.491-2.035.576l-.87.06c-.608.071-.935.302-1.254.724l-.025.033c-.34.447-.591.78-.18 2.94l2.421 14.287c.965 1.505 1.16 2.175.66 2.923-.309.465-11.146 6.791-11.393 6.894-.321.134-.51.069-.732-.248-1.08.075-1.667-.013-2.626-.287-2.069-2.92-2.157-9.042-2.21-12.758-.014-.97-.026-1.777-.07-2.32l-.019-.24c-.155-1.926-.367-4.554-1.029-6.93-.568-2.041-1.94-3.64-3.772-3.876-1.038-.133-1.477-.267-3.357.6-.177.082-.588.14-.876-.35s-.495-1.07.005-1.36l-.174-.3 13.226-7.636.182.315.637.184 2.717-1.569-.257-.444z"/><path stroke="#4D3319" stroke-width="1.3114" d="m66.348 63.11 1.285-.742a3.077 3.077 0 0 1 4.203 1.126l.63 1.091a3 3 0 0 1-1.098 4.098l-5.529 3.192c-.875.505-1.977.579-2.93.242-1.622-.571-2.26-2.327-1.822-3.99.319-1.208.81-2.076 1.922-2.646l1.368-.79c.381-.195.674-.453.985-.728l.203-.178zm-2.067-2.952a.115.115 0 0 0-.095.132l.398 2.436c.01.063.07.106.133.096l.597-.098a.115.115 0 0 0 .095-.132l-.398-2.436a.115.115 0 0 0-.133-.096z"/><path fill="#794715" d="m75.137 60.38 11.617-6.707-.789-1.367-11.617 6.708z"/><path fill="#8B5219" d="m73.431 57.141 11.807-6.817.728 1.983-11.617 6.707z"/><circle cx="83.3907" cy="52.7384" r="0.643425" fill="#7E4A16" transform="rotate(-30 83.39 52.738)"/><path stroke="#3D3329" stroke-width="1.3114" d="m55.433 56.47 7.416-4.38.73 1.263c.53.92.486 2.185-.478 2.742l-4.514 2.606c-.07.04-.187.002-.305-.037-.101-.033-.204-.067-.278-.05-.165.034-.331.07-.47.15l-.9.516-4.148 2.395a.882.882 0 1 1-.882-1.528l4.148-2.395-.615-1.064.203-.116a.1.1 0 0 0 .033-.039l.003-.005a.13.13 0 0 1 .057-.058Z"/><path stroke="#630" stroke-width="2.6228" d="m83.096 40.06.547-.328c.346-.201.712.12.93.498l3.05 5.154-18.418 10.633-.073-.17-3.45 1.453.093.698-26.977 15.575-.287-.504.108-.14a.08.08 0 0 0 .006-.085l-.044-.075a.154.154 0 0 0-.21-.057l-.047.027-2.434-4.282c-.101-.176-.3-.723.156-.986l18.61-10.698c.227-.13.43-.175.482-.085l.202-.117a.1.1 0 0 0 .036-.044.13.13 0 0 1 .058-.057l7.416-4.38-.02-.036 18.464-10.87c.375-.222.685-.419.99-.613.26-.167.518-.333.812-.51Z"/><path fill="#9C5C1C" d="M55.844 52.968 73.43 57.14l11.807-6.817-14.683-4.08a1.84 1.84 0 0 1-.948-.628l-.324-.408-4.294 2.48a.9.9 0 0 1 .454-.018l12.078 2.71c1.144.258 1.376 1.785.362 2.37l-3.325 1.92a1.23 1.23 0 0 1-.938.12l-11.518-3.174c-.917-.252-1.135-1.407-.466-1.992z"/><path stroke="#57330F" stroke-width="1.3114" d="m52.623 51.315 1.307-.755.4.692 1.267-.732-.4-.692 1.307-.755.4.692 1.268-.732-.4-.691 1.307-.755.4.692 1.267-.732-.4-.692 1.308-.754.4.691 1.267-.732-.4-.691 1.307-.755.4.692 1.267-.732-.399-.692 1.307-.754 1.13.08.634 1.099.716.902.323.408c.242.304.574.524.948.628l14.683 4.08.729 1.982.788 1.366.082.142-.494 1.019-1.307.755-.4-.692-1.056.61.4.692-1.308.754-.4-.692-1.272.735.399.692-1.307.755-.4-.692-1.186.685.4.692-2.598 1.5-1.105-.134-.065-.113-.789-1.367-.918-1.873-19.202-4.556-4 2.31-.551-.957-.066-.114.437-1.023 1.307-.755.4.692 1.267-.732z"/><path fill="#854A0F" d="M25.384 53.505a.656.656 0 0 0-.24.896l4.45 7.707a.656.656 0 0 0 .896.24l1.618-.934-5.106-8.843z"/><path fill="#A05912" d="m38.674 46.504.84-.485 4.524 7.834-.841.485z"/><path fill="#81470E" d="m39.932 46.741 1.025-.592 3.689 6.389-1.026.592z"/><path fill="#8B4D0F" d="M79.672 21.989a.656.656 0 0 1 .896.24l4.599 7.965a.656.656 0 0 1-.24.896l-6.172 3.564-8.413 3.182L44.704 52.64l-3.805-6.59 25.638-14.803 6.963-5.694z"/><path fill="#8E4F10" d="m38.545 57.697-6.44 3.718L27 52.57l6.44-3.717 5.388-2.08 4.213 7.296z"/><path fill="#CA0" d="m76.91 23.583.41-.237 5.256 9.101-.411.237z"/><path fill="#9D5711" d="m56.404 36.178-6.638 3.833-.253.875 4.037 6.992c3.253-1.393 4.955-2.376 7.775-4.49l-4.037-6.991z"/><path fill="#A65C12" d="m49.268 38.834 6.365-3.675.634 1.099-6.365 3.675z"/><path fill="#A95E13" d="m48.879 38.448 6.614-3.819.264.457-6.614 3.819z"/><path fill="#B26314" d="m53.842 34.665-4.106 2.37-.622 1.278 6.145-3.548z"/><ellipse cx="55.4576" cy="42.2035" fill="#A95E13" rx="3.675" ry="3.67501" transform="rotate(-30 55.458 42.203)"/><circle cx="55.4572" cy="42.2031" r="2.28636" fill="#B26314" transform="rotate(-30 55.457 42.203)"/><path stroke="#5C330A" stroke-width="2.6228" d="m53.842 34.664-4.107 2.371-.621 1.277-.235.136.263.457.125-.072.634 1.098-.136.08-.253.874.082.143-8.695 5.02.058.101-1.026.592-.417-.723-.84.486.155.269-5.39 2.08-8.056 4.652a.656.656 0 0 0-.24.895l4.45 7.708a.656.656 0 0 0 .895.24l8.057-4.651 4.496-3.628.156.269.84-.485-.417-.723 1.026-.592.058.1 8.695-5.02.15.26c3.253-1.393 4.955-2.377 7.775-4.49l-.15-.259 9.168-5.293 8.413-3.183 6.172-3.563a.656.656 0 0 0 .24-.896l-4.6-7.965a.656.656 0 0 0-.895-.24L73.5 25.552l-6.963 5.694-9.167 5.293-.083-.143-.884-.218-.136.078-.635-1.098.125-.072-.264-.457-.235.136z"/><path fill="#634221" d="m46.512 47.368 4.442-2.565 2.334 4.042-4.443 2.565zm12.91-7.453 4.442-2.565 2.334 4.042-4.443 2.565z"/><path fill="#593B1E" d="m48.617 51.541 4.898-2.827 1.579 2.734-4.898 2.828zm12.91-7.453 4.898-2.828 1.579 2.735-4.898 2.828z"/><path fill="#634221" d="m44.178 43.326 4.442-2.565 2.334 4.042-4.443 2.565zm12.908-7.453 4.442-2.565 2.334 4.042-4.443 2.565z"/><path fill="#6B4724" d="m46.512 47.368 4.442-2.565-.219-.38-4.443 2.565zm12.91-7.453 4.442-2.565-.219-.38-4.442 2.565z"/><path fill="#6B4724" d="m46.73 47.748 4.443-2.565-.22-.38-4.442 2.565zm12.91-7.454 4.443-2.565-.219-.38-4.443 2.565z"/><path stroke="#4D3319" stroke-width="1.3114" d="m48.62 40.762-4.443 2.565 4.666 8.083-.227.131 1.579 2.735 4.897-2.828-1.579-2.734-.227.13zm12.91-7.453-4.443 2.565 4.667 8.083-.228.13 1.58 2.736 4.896-2.828-1.578-2.735-.228.132z"/></g><defs><clipPath id="a"><path fill="#fff" d="M0 0h110v110H0z"/></clipPath></defs></svg>