<svg xmlns="http://www.w3.org/2000/svg" width="111" height="111" fill="none" viewBox="0 0 111 111"><path fill="gray" d="m47.241 82.919 45.92-40.47c3.67-3.165 7.699-4.976 11.921-5.931-1.426 3.982-3.61 7.697-7.325 11.081L51.86 88.05"/><path fill="#4D4D4D" d="M102.797 38.689c-1.638 2.25-3.79 4.464-6.245 6.734L53.781 83.199c-1.516 1.253-2.276 3.542-2.76 5.248l2.507-1.44 46.699-41.264z"/><path stroke="#292929" stroke-width="2.6368" d="M50.402 74.517c.516 2.12 2.146 3.612 4.183 1.88L93.171 42.54c3.696-3.174 7.756-4.988 12.012-5.94-1.431 3.997-3.628 7.725-7.37 11.12L55.438 84.902c-2.22 1.935-2.089 3.994-1.587 5.326"/><path fill="gray" d="m39.554 65.161 45.92-40.47c3.67-3.165 7.699-4.976 11.92-5.931-1.425 3.982-3.61 7.697-7.324 11.081l-45.898 40.45M22.177 55.827l45.92-40.47c3.67-3.164 7.699-4.976 11.92-5.931-1.425 3.982-3.61 7.697-7.324 11.081l-45.898 40.45"/><path fill="#4D4D4D" d="M95.291 20.449c-1.638 2.25-3.79 4.465-6.246 6.735L46.45 64.846c-1.299 1.352-1.895 3.098-1.844 5.403l1.402-1.478L92.72 27.504z"/><path stroke="#292929" stroke-width="2.6368" d="M38.465 60.757c.895 1.277 2.493 2.806 4.964.664L85.74 24.319c3.7-3.176 7.767-4.99 12.029-5.943-1.433 4.001-3.632 7.732-7.378 11.128l-42.36 37.144c-2.109 2-.391 4.422.633 5.507"/><path fill="#4D4D4D" d="M77.912 11.503c-1.64 2.252-3.794 4.467-6.252 6.738L33.227 52.206c-2.083 2.025-2.11 4.052-2.168 6.349l-.138-.78 44.42-39.213z"/><path stroke="#292929" stroke-width="2.6368" d="M19.986 52.837c2.755.645 5.21.475 7.447-1.679l40.906-35.887c3.698-3.174 7.76-4.988 12.017-5.94-1.431 3.998-3.63 7.727-7.372 11.122l-38.36 33.652c-1.767 1.895-.896 3.834 1.31 4.066"/><path fill="#5A4D26" d="m39.383 59.078-11.937-1.03-1.824-2.858-7.47-3.536-6.036 2.371-3.967 5.71 1.153 5.807 4.457 5.009.41 3.8-7.442-1.137 11.317 16.927 14.639 11.898-.855-5.895 2.22-2.626 8.007 7.686 6.074.597 5.13-4.353 2.219-6.67-5.62-7.34 1.167-10.834-8.47-5.552zm-3.032 3.8c.412.456.722.993.912 1.58s.257 1.213.197 1.842a4.9 4.9 0 0 1-.548 1.823 5.3 5.3 0 0 1-1.21 1.526 5.4 5.4 0 0 1-1.687.997 5.2 5.2 0 0 1-1.907.317 4.8 4.8 0 0 1-1.838-.412 4.45 4.45 0 0 1-1.488-1.078 4.4 4.4 0 0 1-.911-1.58 4.6 4.6 0 0 1-.197-1.842 5 5 0 0 1 .548-1.823 5.3 5.3 0 0 1 1.21-1.526 5.4 5.4 0 0 1 1.687-.998 5.2 5.2 0 0 1 1.907-.317 4.8 4.8 0 0 1 1.837.413 4.4 4.4 0 0 1 1.488 1.078m9.67 11.418c.41.456.72.993.91 1.58s.258 1.213.198 1.842a4.9 4.9 0 0 1-.548 1.823 5.3 5.3 0 0 1-1.21 1.526 5.4 5.4 0 0 1-1.687.997 5.2 5.2 0 0 1-1.907.317 4.8 4.8 0 0 1-1.838-.412 4.5 4.5 0 0 1-1.488-1.078 4.4 4.4 0 0 1-.911-1.58 4.6 4.6 0 0 1-.197-1.842 4.9 4.9 0 0 1 .548-1.823 5.3 5.3 0 0 1 1.21-1.526 5.4 5.4 0 0 1 1.686-.998 5.2 5.2 0 0 1 1.908-.317 4.8 4.8 0 0 1 1.837.413c.57.255 1.076.622 1.488 1.078M21.344 57.855c.412.456.722.993.912 1.58a4.6 4.6 0 0 1 .197 1.842 4.9 4.9 0 0 1-.548 1.823 5.3 5.3 0 0 1-1.21 1.526 5.4 5.4 0 0 1-1.687.997 5.2 5.2 0 0 1-1.907.317 4.8 4.8 0 0 1-1.838-.412 4.45 4.45 0 0 1-1.487-1.078 4.4 4.4 0 0 1-.912-1.58 4.6 4.6 0 0 1-.197-1.842 4.9 4.9 0 0 1 .548-1.823 5.3 5.3 0 0 1 1.21-1.526 5.4 5.4 0 0 1 1.686-.998 5.2 5.2 0 0 1 1.908-.316 4.8 4.8 0 0 1 1.837.412c.57.255 1.076.622 1.488 1.078m28.249 31.439c.412.456.721.993.912 1.58a4.55 4.55 0 0 1 .196 1.842 4.9 4.9 0 0 1-.548 1.823 5.3 5.3 0 0 1-1.21 1.526 5.4 5.4 0 0 1-1.686.997 5.2 5.2 0 0 1-1.908.317 4.8 4.8 0 0 1-1.837-.412 4.45 4.45 0 0 1-1.488-1.078 4.4 4.4 0 0 1-.912-1.58 4.6 4.6 0 0 1-.196-1.842 4.9 4.9 0 0 1 .548-1.823 5.3 5.3 0 0 1 1.21-1.526 5.4 5.4 0 0 1 1.686-.998 5.2 5.2 0 0 1 1.908-.317 4.8 4.8 0 0 1 1.837.413c.57.255 1.076.622 1.488 1.078M32.059 77.828l-.368 3.83 5.755 6.377-7.054 3.126-7.7-3.211-4.279-6.316-.764-6.315 3.717-5.197 3.751 4.895z"/><path stroke="#2B2412" stroke-width="2.6368" d="M17.17 89.264c4.12 4.498 8.794 8.679 14.795 12.961 1.647 1.338 2.697.256.581-3.092-2.536-4.154 1.925-6.882 4.743-2.456 7.202 13.035 25.335-3.025 14.19-11.263-1.638-1.161-2.124-2.396-1.2-3.934 3.185-6.595.454-11.118-5.386-12.726-1.51-.538-2.218-1.541-2.47-1.86M17.58 89.715C13.527 85.16 9.86 80.1 6.251 73.735c-1.155-1.767.064-2.662 3.194-.198 3.894 2.97 7.184-1.055 3.049-4.333C.18 60.622 18.578 44.853 25.57 56.709c.978 1.737 2.167 2.359 3.831 1.64 7.045-2.317 11.29.887 12.217 6.776.363 1.537 1.292 2.348 1.585 2.632"/><path stroke="#2B2412" stroke-width="2.6368" d="M28.324 69.717c1.716 1.899 4.784 1.978 6.853.177s2.356-4.8.64-6.698-4.783-1.978-6.852-.177-2.356 4.8-.64 6.698Zm-14.582-5.58c1.716 1.898 4.784 1.977 6.853.177s2.356-4.8.64-6.699c-1.715-1.898-4.783-1.977-6.852-.177s-2.356 4.8-.64 6.699ZM38.397 81.05c1.715 1.899 4.783 1.978 6.852.177s2.356-4.8.64-6.698-4.783-1.978-6.852-.177-2.356 4.8-.64 6.698Zm3.763 15.252c1.716 1.898 4.784 1.977 6.853.176 2.069-1.8 2.356-4.8.64-6.698s-4.783-1.977-6.852-.177-2.356 4.8-.64 6.699ZM31.548 76.887c.19.224 1.096 1.004.576 2.696-.653 2.206 1.368 4.75 3.76 6.452.885.589 1.397 2.291-.262 3.304-6.658 3.537-10.5.773-14.393-3.42m10.566-8.758c-.204-.212-.884-1.19-2.655-.884-2.307.373-4.634-1.903-6.068-4.44-.489-.934-2.148-1.637-3.369-.14-4.369 6.074-2.036 10.153 1.735 14.453"/></svg>