<svg xmlns="http://www.w3.org/2000/svg" width="110" height="110" fill="none" viewBox="0 0 110 110"><g clip-path="url(#a)"><path fill="#3B383E" d="m52.12 49.46-10.22 5.9a.697.697 0 0 0-.255.952l1.566 2.711a.697.697 0 0 0 .952.255l10.22-5.9a.697.697 0 0 0 .255-.952l-1.566-2.712a.697.697 0 0 0-.952-.255"/><path fill="#4D4951" d="m52.12 49.46-10.22 5.9a.697.697 0 0 0-.255.952l1.566 2.711a.697.697 0 0 0 .952.255l10.22-5.9a.697.697 0 0 0 .255-.952l-1.566-2.712a.697.697 0 0 0-.952-.255"/><path fill="#403D43" d="m42.336 57.505 9.567-5.524a.205.205 0 1 1 .206.356l-9.568 5.524zm-.592-1.024 9.567-5.523a.206.206 0 1 1 .206.356l-9.567 5.523zm1.18 2.046 9.567-5.523a.206.206 0 1 1 .205.356l-9.567 5.523z"/><path fill="#59555D" stroke="#333036" stroke-linecap="square" stroke-miterlimit="3.99393" stroke-width="0.696947" d="m31.266 83.556-.51 1.06.81 1.406 9.152 4.41c.221.107.469.144.712.108l10.279-1.552-.312-2.067-10.013 1.511z"/><path fill="#736D79" stroke="#333036" stroke-linecap="square" stroke-miterlimit="3.99393" stroke-width="0.696947" d="m29.672 79.951-1.207.697 3.102 5.373.608.294 2.44-4.149-2.195-3.8-1.207.696 1.806 3.128-1.098 1.656z"/><path fill="#7D2DD2" fill-rule="evenodd" stroke="#321254" stroke-linecap="round" stroke-miterlimit="3.99393" stroke-width="0.696947" d="m50.367 68.25 7.653-4.418c-2.085 3.79-.71 6.292 3.102 6.646l-7.101 4.1z" clip-rule="evenodd"/><path fill="#4A464E" stroke="#333036" stroke-miterlimit="3.99393" stroke-width="0.696947" d="m63.014 62.713-.413-.716-.604.348.414.717a1 1 0 0 1 .082.193l1.482 5.116a.52.52 0 0 1-.24.598l-9.278 5.357.348.603 9.278-5.356a1.22 1.22 0 0 0 .561-1.396l-1.482-5.116a1.6 1.6 0 0 0-.148-.348Z"/><path fill="#4D4951" stroke="#333036" stroke-linecap="round" stroke-miterlimit="3.99393" stroke-width="1.39362" d="M58.796 87.918c.343-.052.408-.519.092-.662l-1.915-.87c-.897-7.299-1.905-12.974-2.876-19.938l-7.171 2.91 2.411 17.395c.033.237.021.478-.035.71l-.409 1.707a.174.174 0 0 0 .196.213z"/><path fill="#736D79" fill-rule="evenodd" d="M14.344 68.054 4.908 80.791l6.285 10.886L62.475 62.07l.212-.623-9.051-15.676a.35.35 0 0 0-.476-.127zM41.902 55.36l10.22-5.9a.697.697 0 0 1 .952.255l1.565 2.711a.697.697 0 0 1-.255.953l-10.22 5.9a.697.697 0 0 1-.951-.255l-1.566-2.712a.697.697 0 0 1 .255-.952" clip-rule="evenodd"/><path fill="#7E53AC" stroke="#321254" stroke-width="1.39389" d="m12.52 90.911 14.013-8.09.773 1.34a.87.87 0 0 1-.318 1.19L14.483 92.57a.87.87 0 0 1-1.19-.32z"/><path fill="#D9D7DB" d="m73.664 78.708.497-.287.007.012-.497.287z"/><path fill="#4C4950" stroke="#333036" stroke-linecap="round" stroke-miterlimit="3.99393" stroke-width="0.696947" d="m30.521 40.98-1.204.695a.35.35 0 0 0-.127.476l6.383 11.057 1.807-1.044-6.383-11.056a.35.35 0 0 0-.476-.128Z"/><path fill="#615C66" stroke="#333036" stroke-linecap="round" stroke-miterlimit="3.99393" stroke-width="0.696947" d="m3.489 86.239-1.794 1.035 2.879 4.986 1.793-1.036z"/><path fill="#68636E" stroke="#333036" stroke-linecap="round" stroke-miterlimit="3.99393" stroke-width="1.39362" d="M11.191 91.678 5.51 81.836l-2.82 1.626a.697.697 0 0 0-.255.952l4.986 8.635a.697.697 0 0 0 .952.255z"/><path fill="#59555D" stroke="#333036" stroke-linecap="round" stroke-miterlimit="3.99393" stroke-width="1.39362" d="m38.026 50.781-8.944 5.164 1.559 2.7 8.944-5.164z"/><path fill="url(#b)" fill-rule="evenodd" stroke="url(#c)" stroke-linecap="round" stroke-miterlimit="3.99393" stroke-width="1.39362" d="M54.186 46.726 98.15 21.342l5.292-3.837a.174.174 0 0 1 .253.054l4.102 7.104a.174.174 0 0 1-.08.246l-5.969 2.665-43.963 25.383z" clip-rule="evenodd"/><path fill="#B2AEB6" stroke="#333036" stroke-linecap="round" stroke-miterlimit="3.99393" stroke-width="1.39362" d="M98.896 31.45 58.748 54.629l3.598 6.232 40.148-23.18z"/><path fill="#99949E" stroke="#333036" stroke-linecap="round" stroke-miterlimit="3.99393" stroke-width="0.696947" d="m102.573 30.937-2.98 1.72 2.205 3.817 2.979-1.72z"/><path fill="#7D2DD2" d="m96.187 36.16-9.672 5.584a.35.35 0 0 0-.128.476l2.962 5.13a.35.35 0 0 0 .476.127l9.672-5.584a.35.35 0 0 0 .128-.476l-2.962-5.13a.35.35 0 0 0-.476-.127"/><path fill="#736D78" stroke="#333036" stroke-linecap="round" stroke-miterlimit="3.99393" stroke-width="1.39362" d="m86.385 8.725-1.013.585a.35.35 0 0 0-.127.476l7.281 12.612 1.617-.933L86.86 8.853a.35.35 0 0 0-.476-.128Z"/><path fill="#4D4951" fill-rule="evenodd" stroke="#333036" stroke-linecap="round" stroke-miterlimit="3.99393" stroke-width="0.696947" d="m16.254 74.585 13.623-7.865 2.287 3.962-13.623 7.865z" clip-rule="evenodd"/><path fill="#8C8692" fill-rule="evenodd" stroke="#333036" stroke-linecap="round" stroke-miterlimit="3.99393" stroke-width="0.696947" d="m5.055 81.05 11.198-6.465 2.287 3.962-11.198 6.465z" clip-rule="evenodd"/><path fill="#66616B" stroke="#333036" stroke-linecap="round" stroke-miterlimit="3.99393" stroke-width="0.696947" d="M34.914 49.984a1.459 1.459 0 1 0-1.459-2.527 1.459 1.459 0 0 0 1.459 2.527Z"/><path fill="#7F7986" fill-rule="evenodd" stroke="#333036" stroke-linecap="square" stroke-miterlimit="3.99393" stroke-width="0.696947" d="m4.908 80.792.148.257 29.126-16.815 7.34 1.045 17.532-10.123-5.419-9.385a.35.35 0 0 0-.462-.134l-38.83 22.418zM41.902 55.36l10.22-5.9a.697.697 0 0 1 .952.254l1.565 2.712a.697.697 0 0 1-.255.952l-10.22 5.9a.697.697 0 0 1-.952-.255l-1.565-2.712a.697.697 0 0 1 .255-.951Z" clip-rule="evenodd"/><path fill="#403D43" fill-rule="evenodd" stroke="#333036" stroke-linecap="round" stroke-miterlimit="3.99393" stroke-width="0.696947" d="M103.279 39.156a1.704 1.704 0 1 0 1.705 2.95 1.704 1.704 0 0 0-1.705-2.95Zm-.019 1.978a1.006 1.006 0 1 1 1.742-1.006 1.006 1.006 0 0 1-1.742 1.006Z" clip-rule="evenodd"/><path fill="#59555D" stroke="#333036" stroke-linecap="round" stroke-miterlimit="3.99393" stroke-width="1.39389" d="m94.67 21.135-2.692 1.553 10.459 18.116a1.71 1.71 0 0 1 .844-1.647 1.7 1.7 0 0 1 1.848.093z"/><path fill="#3D3A40" stroke="#333036" stroke-linecap="round" stroke-miterlimit="3.99393" stroke-width="0.696947" d="M59.057 59.266 37.785 71.547a.523.523 0 0 0-.192.714l.463.801c.144.25.464.336.714.191l21.272-12.28a.523.523 0 0 0 .191-.715l-.462-.8a.523.523 0 0 0-.714-.192Z"/><path fill="#4A4F31" d="M32.514 82.083a.523.523 0 0 0-.905.523c3.018 5.227 8.35 9.261 13.742 11.18 5.368 1.909 10.992 1.762 14.412-1.658 4.794-5.108 10.504-10.022 16.257-14.731a904 904 0 0 1 5.95-4.813c3.708-2.98 7.303-5.871 10.525-8.655 4.926-4.257 9.042-8.317 11.403-12.148 2.37-3.848 3.03-7.578.812-11.04a.522.522 0 1 0-.88.563c1.914 2.988 1.438 6.26-.822 9.928-2.269 3.684-6.277 7.655-11.197 11.906-3.209 2.773-6.778 5.642-10.475 8.614-1.968 1.583-3.972 3.194-5.978 4.836-5.759 4.713-11.51 9.661-16.352 14.818-2.997 2.991-8.094 3.248-13.305 1.394-5.189-1.845-10.309-5.732-13.187-10.717"/><path stroke="#3B3F27" stroke-linecap="round" stroke-miterlimit="3.99393" stroke-width="0.696947" d="M59.763 92.128c-3.42 3.42-9.044 3.567-14.412 1.657-5.393-1.918-10.724-5.952-13.742-11.179a.523.523 0 1 1 .905-.523c2.878 4.985 7.998 8.872 13.187 10.718 5.211 1.853 10.308 1.596 13.305-1.395C63.848 86.249 69.6 81.3 75.358 76.588c2.006-1.642 4.01-3.253 5.978-4.836 3.698-2.972 7.267-5.841 10.475-8.614 4.92-4.251 8.928-8.222 11.197-11.906 2.26-3.669 2.736-6.94.822-9.928a.522.522 0 1 1 .88-.563c2.218 3.462 1.558 7.192-.812 11.04-2.361 3.831-6.477 7.891-11.403 12.148-3.222 2.784-6.817 5.674-10.525 8.655a904 904 0 0 0-5.95 4.813c-5.753 4.709-11.463 9.623-16.257 14.73Zm0 0-.006.006"/><path fill="#44482D" stroke="#3B3F27" stroke-linecap="round" stroke-miterlimit="3.99393" stroke-width="0.696947" d="m61.949 87.192-2.73 2.69a.697.697 0 0 0-.007.986l.878.89c.27.275.712.278.986.008l2.73-2.69a.697.697 0 0 0 .007-.985l-.879-.892a.697.697 0 0 0-.985-.007Z"/><path fill="#66616B" stroke="#333036" stroke-width="0.696947" d="m29.877 66.719 2.288 3.962 9.358-5.403-7.34-1.045z"/><path stroke="#333036" stroke-linecap="round" stroke-miterlimit="3.99393" stroke-width="0.696947" d="m52.12 49.46-10.22 5.9a.697.697 0 0 0-.255.952l1.566 2.711a.697.697 0 0 0 .952.255l10.22-5.9a.697.697 0 0 0 .255-.952l-1.566-2.712a.697.697 0 0 0-.952-.255Z"/><path fill="#7D2DD2" stroke="#321254" stroke-linecap="round" stroke-miterlimit="3.99393" stroke-width="1.39362" d="m24.226 62.349-5.218 3.012 9.44 16.353 5.219-3.013z"/><path stroke="#333036" stroke-linecap="round" stroke-miterlimit="3.99393" stroke-width="1.39389" d="m14.344 68.054 38.816-22.41a.35.35 0 0 1 .476.127l9.05 15.676-.06.536-51.433 29.694-6.285-10.886z" clip-rule="evenodd"/><path fill="#4D4951" stroke="#333036" stroke-linecap="round" stroke-miterlimit="3.99393" stroke-width="1.39362" d="M11.92 92.94a1.457 1.457 0 1 0-1.457-2.524 1.457 1.457 0 0 0 1.457 2.524Z"/><path fill="#6424A8" d="m90.03 45.622.995-.575.752 1.304-.995.574zm2.253-1.302.996-.575.752 1.304-.995.575zm2.254-1.301.996-.575.752 1.303-.995.575zm2.256-1.301.996-.575.752 1.303-.996.575z"/><path stroke="#321254" stroke-linecap="round" stroke-miterlimit="3.99393" stroke-width="1.39362" d="m96.187 36.16-9.672 5.584a.35.35 0 0 0-.128.476l2.962 5.13a.35.35 0 0 0 .476.127l9.672-5.584a.35.35 0 0 0 .128-.476l-2.962-5.13a.35.35 0 0 0-.476-.127Z"/><path fill="#454248" stroke="#333036" stroke-width="0.696947" d="m58.201 60.095 32.81-18.943.697 1.207-32.81 18.943z"/><path fill="#4D4951" stroke="#333036" stroke-linecap="round" stroke-miterlimit="3.99393" stroke-width="0.696947" d="M91.963 42.798a1.204 1.204 0 1 0-1.203-2.085 1.204 1.204 0 0 0 1.203 2.085ZM59.455 61.905a1.498 1.498 0 1 0-1.498-2.594 1.498 1.498 0 0 0 1.498 2.594Z"/></g><defs><linearGradient id="b" x1="55.9853" x2="105.746" y1="49.8415" y2="21.1122" gradientUnits="userSpaceOnUse"><stop stop-color="#7E2DD2"/><stop offset="0.33" stop-color="#35C97C"/><stop offset="0.67" stop-color="#D2B12D"/><stop offset="1" stop-color="#D22D2D"/></linearGradient><linearGradient id="c" x1="54.1993" x2="106.35" y1="50.8729" y2="20.7638" gradientUnits="userSpaceOnUse"><stop stop-color="#321254"/><stop offset="0.33" stop-color="#155132"/><stop offset="0.67" stop-color="#544712"/><stop offset="1" stop-color="#541212"/></linearGradient><clipPath id="a"><path fill="#fff" d="M0 0h110v110H0z"/></clipPath></defs></svg>