<svg xmlns="http://www.w3.org/2000/svg" id="svg15" width="91.71" height="20.48" viewBox="0 0 91.71 20.48"><defs><style>.cls-1{fill:#171717}.cls-4{fill:#595959;stroke:#171717;stroke-width:3px}</style></defs><path id="path15" d="M22.76 4.94c-4.52.69-7.27.21-11.79.21-1.88-.05-3.73-.04-5.59.19-1.54.16-2.68.56-3.31 1.77-.31.57-.49 1.33-.55 2.34-.01.24-.02.78-.02.78s0 .54.02.78c.06 1.02.25 1.78.55 2.34.63 1.2 1.77 1.61 3.31 1.77 1.85.3 3.72.19 5.59.19 4.52 0 7.27-.48 11.79.21h13.21V4.94z" style="fill:#5c342b"/><path id="path2" d="M11.97 4.96h12.08s-.55 3.52-.55 5.33.55 5.22.55 5.22H11.97s.49-3.52.47-5.33c.02-1.76-.47-5.22-.47-5.22" style="fill:#5e3d2c"/><path id="path10" d="M22.76 4.94c-4.52.69-7.27.21-11.79.21-1.88-.05-3.73-.04-5.59.19-1.54.16-2.68.56-3.31 1.77-.31.57-.49 1.33-.55 2.34-.01.24-.02.49-.02.76v.04c0 .27 0 .52.02.76.06 1.02.25 1.78.55 2.34.63 1.2 1.77 1.61 3.31 1.77 1.85.3 3.72.19 5.59.19 4.52 0 7.27-.48 11.79.21h13.21V4.94z" style="stroke-width:3px;fill:none;stroke:#1f120f"/><path id="rect3" d="M35.97 4.93h8.99v10.61h-8.99z" class="cls-4"/><g id="g5"><path id="path7" d="M44.18 10.24h44.8c.68 0 1.23.55 1.23 1.23v4.99c0 .66-.53 1.21-1.19 1.23l-42.59 1.29c-3.26 0-3.47-1.64-3.48-7.5 0-.68.55-1.24 1.23-1.24Z" class="cls-4"/><path id="path5" d="M44.18 10.24h44.8c.68 0 1.23-.55 1.23-1.23V4.02c0-.66-.53-1.21-1.19-1.23L46.43 1.5c-3.26 0-3.47 1.64-3.48 7.5 0 .68.55 1.24 1.23 1.24Z" class="cls-4"/></g><path d="M51.63 2.62h2.9v15.55h-2.9zm-15.5 6.06h3.31a1.52 1.52 0 1 1 0 3.04h-3.31a1.52 1.52 0 1 1 0-3.04" class="cls-1"/><path d="M34.61 6.39s-2.54 2.21-8.29 2.36c-.34 0-.61.28-.61.61v1.74c0 .33.26.61.6.62 1.59.04 5.97.33 8.3 2.4z" class="cls-1"/></svg>