<svg xmlns="http://www.w3.org/2000/svg" width="110" height="110" fill="none" viewBox="0 0 110 110"><g clip-path="url(#a)" transform="translate(-.602 .959)scale(1.0115)"><path fill="#3b3635" stroke="#363130" stroke-miterlimit="3.99393" stroke-width="1.14999" d="M29.505 68.18a72 72 0 0 1 4.818-3.83 4.3 4.3 0 0 1-.472.814c-.272.386-.652.85-1.16 1.406-1.646 1.807-2.105 3.298-2.145 4.365-.039 1.076.355 1.81.525 2.071a.74.74 0 0 1 .029.733.76.76 0 0 1-.684.395h.019c-.51-.017-1.01-.417-1.49-1.2-.17-.278-.238-.603-.26-.912a5 5 0 0 1 .05-1.004c.099-.691.31-1.46.54-2.165q.112-.346.23-.673z"/><path fill="#403b3a" stroke="#363130" stroke-miterlimit="3.99393" stroke-width="1.14999" d="m32.555 65.676.045.258c.062.346.144.727.247 1.083.101.347.234.708.413.99.3.472.8 1.063 1.34 1.549.27.244.564.473.861.65.289.17.622.317.964.347.134.011.264.013.385-.004a.83.83 0 0 0 .42-.172.67.67 0 0 0 .247-.536.8.8 0 0 0-.104-.366c-.081-.146-.502-.504-.628-.594q-.061-.044-.122-.085a5.5 5.5 0 0 1-1.368-1.314c-.34-.473-.597-1.032-.653-1.665-.05-.571.06-1.243.48-2.016a77 77 0 0 0-2.527 1.875z"/><path fill="#433e3d" stroke="#363130" stroke-linecap="round" stroke-miterlimit="3.99393" stroke-width="1.14999" d="M41.603 64.52c-.504-1.135-1.258-1.834-2.16-2.155-.87-.309-1.188-.515-1.735-.593l-1.709 1.624c.556-.144 2.439.466 2.86.615.387.138.81.455 1.148 1.217.699 1.573.35 3.04-.233 4.183-.29.57-.895 1.468-1.289 1.802-.368.312-1.549 1.002-2.19 1.41-1.288.819-2.868 1.806-4.07 2.5-1.13.652-1.958.61-2.312.615-.237.004-1.157-.312-1.533-.477-.752-.33-1.75-.759-2.73-1.151-1.293-.517-1.976-1.022-1.976-1.022l-.636 1.86 1.962.784c.955.382 1.935.803 2.677 1.129.371.163 1.043.481 1.267.564.214.078.763.233 1.127.226.727-.012 1.716-.259 3.027-1.015 1.237-.714 2.844-1.719 4.134-2.54l.04-.025c.66-.42 1.95-1.24 2.336-1.639.394-.406 1.36-1.517 1.722-2.228.724-1.42 1.26-3.465.273-5.685z"/><path fill="#403b3a" stroke="#363130" stroke-linecap="round" stroke-miterlimit="3.99393" stroke-width="1.14999" d="M37.455 45.225s-9.031 6.5-12.104 9.912a1.8 1.8 0 0 1-.686.472 75 75 0 0 0-1.516.649c-1.544.69-1.784 1.408-1.784 1.408s-1.243 1.298.048 2.267c1.29.97 4.387-3.844 4.387-3.844l13.129-8.311z"/><path fill="#5c342b" d="M30.089 53.386s-2.73 1.299-4.5 3.606C23.82 59.3 7.968 77.303 7.968 77.303s-9.084 11.825-5.259 22.25c0 0 1.496 3.246 6.45.385 4.956-2.86 5.051-5.664 5.051-5.664s-.582-15.726 22.19-31.092l-5.83-10.099Z"/><path fill="#524a48" stroke="#363130" stroke-linecap="round" stroke-miterlimit="3.99393" stroke-width="1.14999" d="M20.424 63.063a2079 2079 0 0 1-5.97 6.847c.257-.743.931-2.769.964-3.668l2.234-1.856s-.314-1.642 1.245-2.397c.715-.344 1.206.293 1.527 1.074z"/><path fill="#5c3b2b" stroke="#452d21" stroke-linecap="round" stroke-miterlimit="3.99393" stroke-width="1.14999" d="M10.813 74.07S2.66 82.963 2.39 89.044c0 0 11.38 2.33 13.87-3.444 2.491-5.775 9.185-13.397 9.185-13.397l-6.889 2.087 2.551-7.373c.038-.022-4.405-.861-10.293 7.153Z"/><path stroke="#462720" stroke-linecap="round" stroke-miterlimit="3.99393" stroke-width="2.29999" d="M30.089 53.386s-2.73 1.299-4.5 3.606C23.82 59.3 7.968 77.303 7.968 77.303s-9.084 11.825-5.259 22.25c0 0 1.496 3.246 6.45.385 4.956-2.86 5.051-5.664 5.051-5.664s-.582-15.726 22.19-31.092l-5.83-10.099Z"/><path fill="#5d5655" d="m37.259 48.513-6.692 4.57 5.83 10.098s24.521-15.09 25.706-17.362l-2.678-4.638-17.867 11.154s-1.378 1.5-4.3-3.822"/><path fill="#7e7472" d="M37.692 60.442a.502.502 0 1 0-.502-.87.502.502 0 0 0 .502.87m3.763-3.307a.655.655 0 1 0-.655-1.134.655.655 0 0 0 .655 1.134"/><path fill="#585150" d="M54.322 44.949a9 9 0 0 0-.282.18s2.065 4.584-1.77 7.863l-1.36.954c.52-.3.97-.62 1.36-.953l8.442-5.916s-1.716-4.68-6.032-2.335z"/><path stroke="#363130" stroke-linecap="round" stroke-miterlimit="3.99393" stroke-width="1.14999" d="M52.27 52.993c3.835-3.28 1.77-7.864 1.77-7.864q.143-.094.282-.18l.358-.207c4.316-2.346 6.032 2.335 6.032 2.335zm0 0-1.36.953m1.36-.953a9 9 0 0 1-1.36.953m0 0 .516-.298"/><path fill="#514b49" stroke="#363130" stroke-linecap="round" stroke-miterlimit="3.99393" stroke-width="1.14999" d="M37.107 44.62s-1.166 1.606.46 4.424c1.628 2.818 2.525 4.24 3.994 3.292 1.47-.95 66.596-40.87 66.596-40.87s-.175-2.924-3.155-5.465z"/><path fill="#484342" stroke="#363130" stroke-width="1.14999" d="m37.107 44.62 4.454 7.716c-1.469.949-2.366-.474-3.993-3.292s-.461-4.424-.461-4.424z"/><path stroke="#363130" stroke-linecap="round" stroke-miterlimit="3.99393" stroke-width="2.29999" d="M36.744 48.812c-1.18-2.15.362-4.192.362-4.192L105 6c2.98 2.541 3.155 5.465 3.155 5.465s-28.925 17.73-48.657 29.84l2.606 4.514C60.92 48.09 36.4 63.18 36.4 63.18l-5.83-10.098Z"/><path fill="#5c342b" d="m59.78 41.791 2.325 4.028s38.439-25.571 41.245-29.183c0 0 2.09-2.19-1.2-.77L59.147 40.694Z"/><path fill="#5c3b2b" stroke="#362219" stroke-linecap="round" stroke-miterlimit="3.99393" stroke-width="1.14999" d="m69.562 40.656-3.72-1.029L96.8 21.93Z"/><path stroke="#462720" stroke-linecap="round" stroke-miterlimit="3.99393" stroke-width="2.29999" d="m59.78 41.791 2.325 4.028s38.439-25.571 41.245-29.183c0 0 2.09-2.19-1.2-.77L59.147 40.694Z"/></g><defs><clipPath id="a"><path fill="#fff" d="M.2.778h110v110H.2z"/></clipPath></defs></svg>