<svg xmlns="http://www.w3.org/2000/svg" id="Layer_1" width="121.37" height="20" data-name="Layer 1" viewBox="0 0 121.37 20"><defs><style>.cls-7{fill:#a95e13}.cls-8{fill:#b26314}.cls-13{fill:#ad5700}</style></defs><path d="M87.84 5h-1.12v7.76h1.34c.74 0 1.34-.6 1.34-1.34V6.34c0-.37-.15-.7-.38-.94-.25-.25-.59-.4-.96-.4zm-.42 1.97a.9.9 0 0 1-.25-.62v5.07c0-.42.28-.77.67-.87v1.09h1.12V6.12z" style="stroke-width:3px;stroke:#1c1712;fill:none"/><path d="M111.67 4.42H89.19c-.31 0-.58.15-.74.39-.1.14-.16.32-.16.51v7.12c0 .49.4.9.9.9h22.48z" style="fill:#aa5e13"/><path d="M111.67 13.33V4.42h7.29c.5 0 .9.4.9.9v7.12c0 .14-.03.28-.09.4-.15.29-.45.5-.8.5h-7.3Z" style="fill:#a55c12"/><path d="M89.19 4.42h29.78c.5 0 .9.4.9.9v7.12c0 .14-.03.28-.09.4-.15.29-.45.5-.8.5H89.2c-.49 0-.9-.4-.9-.9V5.31a.907.907 0 0 1 .9-.9h-.01Z" style="stroke-width:3px;fill:none;stroke:#291705"/><rect width="83.28" height="11.42" x="4.56" y="3.17" rx="2.24" ry="2.24" style="fill:#c60"/><path d="M47.68 3.39H35.42v3.4h-1.07v4.16h1.07v3.4h12.26z" style="fill:#534537;stroke-width:3px;stroke:#1c1712"/><rect width="3.3" height="2.55" x="76.54" y="7.6" class="cls-13" rx=".45" ry=".45"/><path d="M7.86 7.6h3.3v2.55h-3.3z" style="fill:#a35200"/><path d="M7.86 5.5c0-.25.2-.45.45-.45h2.41c.25 0 .45.2.45.45v2.1h-3.3V5.5Zm0 4.65h3.3v2.1c0 .25-.2.45-.45.45H8.3c-.25 0-.45-.2-.45-.45v-2.1Z" class="cls-13"/><path d="M88.07 6.12h-.22v5.52h.22c.12 0 .22-.1.22-.22V6.34c0-.06-.02-.12-.06-.16s-.1-.07-.16-.07Z" style="fill:#4d4033"/><rect width="83.28" height="11.42" x="4.56" y="3.17" rx="2.24" ry="2.24" style="stroke-width:3px;fill:none;stroke:#2e1700"/><path d="M2.4 15.65c-.49 0-.9-.4-.9-.9V2.6c0-.49.4-.9.9-.9h2.55v13.95z" style="fill:#854a0f"/><path d="M22.9 2.5h1.33v12.35H22.9z" style="fill:#a05912"/><path d="M24.22 3.64h1.62v10.08h-1.62z" style="fill:#81470e"/><path d="M88.13 15.85c.49 0 .9-.4.9-.9V2.4c0-.49-.4-.9-.9-.9H78.4L66.28 3.48H25.84v10.39h40.43l12.12 1.98z" style="fill:#8b4d0f"/><path d="M15.1 1.7H4.95v13.95H15.1l7.79-1.22V2.92z" style="fill:#8e4f10"/><path d="M83.77 1.5h1.59v14.35h-1.59z" style="fill:#ca0"/><path d="M50.92 14.96H40.45l-.9-.86V3.07c4.8-.57 7.48-.57 12.26 0V14.1l-.9.86z" style="fill:#9d5711"/><path d="M40.66 14.96H50.7v1.73H40.66z" style="fill:#a65c12"/><path d="M40.47 16.69H50.9v.72H40.47z" class="cls-7"/><path d="M48.92 18.5h-6.48l-1.61-1.09h9.69l-1.61 1.09z" class="cls-8"/><circle cx="45.68" cy="8.48" r="5.02" class="cls-7"/><circle cx="45.68" cy="8.48" r="3.12" class="cls-8"/><path d="m40.84 17.41 1.61 1.09h6.48l1.61-1.09h.37v-.72h-.2v-1.73h.22l.9-.86v-.22h14.46l12.12 1.98h9.73c.49 0 .9-.4.9-.9V2.4c0-.49-.4-.9-.9-.9h-9.73L66.29 3.48H51.83v-.41c-4.78-.57-7.46-.57-12.26 0v.41H25.86l-2.95-.56-7.04-1.1q-.765-.12-1.53-.12H2.4c-.49 0-.9.4-.9.9v12.15c0 .49.4.9.9.9h12.03c.45 0 .89-.03 1.34-.1l7.13-1.12 2.95-.56h13.71v.22l.9.86h.22v1.73h-.2v.72h.36Zm0 .01h-.39" style="stroke-width:3px;fill:none;stroke:#291704"/><path d="M37.77 2.5H32.4c-.45 0-.82.37-.82.82v11.11c0 .45.37.82.82.82h5.37c.45 0 .82-.37.82-.82V3.32c0-.45-.37-.82-.82-.82Zm20.35 0h-5.37c-.45 0-.82.37-.82.82v11.11c0 .45.37.82.82.82h5.37c.45 0 .82-.37.82-.82V3.32c0-.45-.37-.82-.82-.82Z" style="stroke-width:3px;fill:#634221;stroke:#22170b"/></svg>