<svg xmlns="http://www.w3.org/2000/svg" width="110" height="110" fill="none" viewBox="0 0 110 110"><g clip-path="url(#a)"><path fill="#5C5C5C" stroke="#333" stroke-miterlimit="3.99393" stroke-width="4.38083" d="m90.495 3.47-2.702 1.56 3.64 6.306 2.703-1.56zm3.868 9.295-1.351.78.988 1.711 1.351-.78zM9.144 45.631l1.757-1.014 2.86 4.954-4.148-.007z"/><path fill="#4D4D4D" stroke="#333" stroke-miterlimit="3.99393" stroke-width="2.19042" d="m53.064 50.66.051 1.232c.028.464.513.785.944.596l1.823-.692c.135-.078.322-.066.49.017 1.144.42 6.375 1.784 8.357.64 2.252-1.3-4.744-.624-4.744-.624s-.23 1.994-5.412-2.82c-4.761-4.398-2.114.499-1.62 1.355a.66.66 0 0 1 .111.296Z"/><path fill="#5C5C5C" stroke="#333" stroke-miterlimit="3.99393" stroke-width="4.38083" d="m83.027 7.178-1.11-2.962 1.667-.963 2.61.776a.425.425 0 0 1 .093.786z"/><path fill="#525252" stroke="#333" stroke-miterlimit="3.99393" stroke-width="4.38083" d="m38.813 101.162-.403 4.917s-1.5 2.187 1.012 1.338c2.512-.85 17.444-8.27 17.444-8.27s1.542-1.49.761-2.842l-1.976-3.423z"/><path fill="#4F4F4F" stroke="#333" stroke-miterlimit="3.99393" stroke-width="2.19042" d="M52.512 49.596s6.233 6.01 9.645 4.64c3.413-1.369-.15-1.714-.15-1.714s-3.551-.952-5.701-5.716-4.003-.692-4.003-.692z"/><path fill="#474747" d="M7.261 49.119 85.493 3.951a2.55 2.55 0 0 1 3.48.932l4.968 8.603-82.87 47.845L6.26 53c-.852-1.37-.35-3.101 1.001-3.882"/><path fill="#5C5C5C" d="M13.5 59.93c-.554.321-2.831 2.897-2.337 3.752.494.856 4.086-.617 4.428-.755.594-.238 12.08-3.31 11.181 19.368-.914 22.026 4.587 21.673 5.186 21.567.045-.026.071.019.116-.007l3.556.229c.07.019.16-.033.232-.014l24.477-10.649c.342-.137.404-.653.113-.845-1.288-.878-3.78-2.802-4.476-5.463-.775-3.216.61-4.977 1.009-5.327l.18-.104c.296-.11 1.133-.534-.532-.713-1.833-.263-2.372-3.796-2.393-4.144 0 0-.026-.045.02-.071-.014-.232.023-1.936 1.06-3.675a1.4 1.4 0 0 0-.142-1.6c-1.207-1.465-3.356-4.668-2.11-7.19 1.515-3.096 6.294-3.452 7.106-3.501L79 49.918s1.82-1.11 1.006-1.481l-.885-.39s-.026-.045-.071-.019c-.194-.128-1.863-1.146-4.541-5.785s-.937-7.446-.552-8.029c.019-.07.109-.123.154-.149l17.475-10.089a.52.52 0 0 0 .19-.71.52.52 0 0 1 .19-.71l1.352-.78a.52.52 0 0 1 .71.19.52.52 0 0 0 .71.19l1.306-.754.136-.078c.308-.298 1.32-1.664.177-3.646l-2.294-3.66a.52.52 0 0 0-.71-.19zm58.541-8.336-12.16 7.021s-5.908.168-7.468-2.534l-1.17-2.027s-2.991-5.18 13.933-14.35c0 0 3.343-2.53 6.984 3.775 3.64 6.306-.119 8.115-.119 8.115"/><path stroke="#333" stroke-miterlimit="3.99393" stroke-width="2.19042" d="m72.04 51.595-12.161 7.02s-5.908.169-7.468-2.534l-1.17-2.026s-2.99-5.18 13.933-14.35c0 0 3.343-2.531 6.984 3.775 3.64 6.305-.119 8.115-.119 8.115Z"/><path fill="#4D4D4D" d="m26.995 55.742 14.412-8.32c.99-.573 2.27-.23 2.842.76.572.992.23 2.27-.762 2.842l-14.412 8.321c-.99.572-2.27.23-2.841-.761a2.086 2.086 0 0 1 .76-2.842"/><path fill="#525252" d="m43.545 66.003 7.671-2.627-.443-3.888-8.082 1.603z"/><path fill="#404040" d="M41.778 29.854s1.968 6.01 5.571 3.93l9.368-5.409s1.613-1.471.358-3.75c-1.255-2.277-1.535-2.657-1.535-2.657"/><path stroke="#333" stroke-miterlimit="3.99393" stroke-width="2.19042" d="M41.778 29.854s1.968 6.01 5.571 3.93l9.368-5.409s1.613-1.471.358-3.75c-1.255-2.277-1.535-2.657-1.535-2.657z"/><path fill="#424242" d="m11.676 48.977-1.801 1.04 4.42 7.656 1.801-1.04zm2.252-1.3-1.801 1.04 4.42 7.657 1.801-1.04zm2.25-1.3-1.801 1.04 4.42 7.657 1.801-1.04zm2.25-1.299-1.801 1.04 4.42 7.656 1.801-1.04zm2.263-1.306-1.8 1.04 4.42 7.656 1.8-1.04zm2.25-1.3-1.8 1.04 4.42 7.656 1.8-1.04zm2.252-1.3-1.8 1.04 4.42 7.657 1.8-1.04zm2.25-1.298-1.8 1.04 4.42 7.656 1.8-1.04z"/><path fill="#525252" d="m32.943 73.33 15.453-6.52 3.594 24.95-16.283 8.2s-4.479-.477-3.574-14.511.81-12.118.81-12.118"/><path stroke="#333" stroke-miterlimit="3.99393" stroke-width="4.38083" d="M7.261 49.119 85.493 3.951a2.55 2.55 0 0 1 3.48.932l4.968 8.603-82.87 47.845L6.26 53c-.852-1.37-.35-3.101 1.001-3.882Z"/><path fill="#4F4F4F" stroke="#333" stroke-miterlimit="3.99393" stroke-width="2.19042" d="M43.135 32.496c.921 1.259 2.297 2.304 4.084 1.355l-9.87 5.703c-.946.546-2.102.312-2.544-.454-.468-.81-.067-1.883.88-2.429l6.08-3.51c.338-.196.842-.452 1.37-.665Z"/><path stroke="#333" stroke-miterlimit="3.99393" stroke-width="4.38083" d="M11.163 63.683c-.495-.856 1.783-3.432 2.337-3.752l79.853-46.103a.52.52 0 0 1 .71.19l2.294 3.66c1.144 1.982.13 3.348-.177 3.646l-.136.078-1.306.754a.52.52 0 0 1-.71-.19.52.52 0 0 0-.71-.19l-1.352.78a.52.52 0 0 0-.19.71.52.52 0 0 1-.19.71L74.11 34.066c-.045.025-.135.077-.154.148-.385.583-2.127 3.39.552 8.029s4.347 5.657 4.54 5.785c.046-.026.072.02.072.02l.885.389c.815.37-1.006 1.482-1.006 1.482L60.174 60.788c-.812.049-5.59.405-7.105 3.502-1.247 2.521.902 5.724 2.109 7.19.376.443.437 1.068.142 1.599-1.037 1.74-1.075 3.443-1.06 3.675-.046.026-.02.07-.02.07.021.35.56 3.882 2.393 4.145 1.665.18.828.602.532.713l-.18.104c-.399.35-1.784 2.111-1.009 5.326.696 2.662 3.188 4.586 4.476 5.464.29.192.229.708-.113.845L35.862 104.07c-.071-.019-.161.033-.232.014l-3.556-.229c-.045.026-.07-.019-.116.007-.6.106-6.1.459-5.186-21.567.899-22.679-10.587-19.606-11.181-19.367-.341.137-3.934 1.61-4.428.755Z"/></g><defs><clipPath id="a"><path fill="#fff" d="M0 0h110v110H0z"/></clipPath></defs></svg>