<svg xmlns="http://www.w3.org/2000/svg" id="Layer_1" width="59.31" height="15.5" data-name="Layer 1" viewBox="0 0 59.31 15.5"><defs><style>.cls-3,.cls-5{stroke:#171717}.cls-3{fill:#474747}.cls-5{fill:#787878}.cls-8{fill:#252525}.cls-3,.cls-5{stroke-width:3px}</style></defs><path id="rect2" d="M57.81 5v5.5c0 .4-.3.7-.6.7h-31.5c-.3 0-.6-.3-.6-.7V5c0-.4.3-.7.6-.7h31.4c.4 0 .7.3.7.7Z" class="cls-3"/><path id="path4" d="M28.81 12.7H2.71l-1.1-1.2-.1-7.3 1.4-1.3h26" class="cls-3"/><path id="path4-2" d="M28.71 2.9h25.8l1.3 1.3v7.2l-1.2 1.3h-25.8" class="cls-3" data-name="path4"/><path id="path6" d="m53.51 8.7-.3.4h-2.9l-.3-.3V6.9l.3-.3h2.9l.3.3z" class="cls-8"/><path id="path8" d="m9.71 8.6-.3.4h-2.1l-.3-.3v-5l.4-.4h2l.4.3z" style="stroke-width:1.5px;stroke:#171717;fill:#787878"/><path id="rect10" d="M47.71 6.9v1.9c0 .4-.3.7-.6.7h-5.5c-.3 0-.6-.3-.6-.7V6.9c0-.4.3-.7.6-.7h5.5c.3.1.6.4.6.7" class="cls-8"/><path id="path12" d="M38.81 6.2v3.3c0 .5-.2.9-.5.9h-4.6c-.3 0-.5-.4-.5-.9h-1.3s-.2 0-.2-.1c-.1-.1 0-.4 0-.4V6.9s0-.3.1-.5c.1-.1.2-.1.2-.1h1.3c0-.5.2-.9.5-.9h4.6c.2-.1.4.3.4.8" style="fill:#787878"/><path id="path12-2" d="M20.31 2.5h-5v10.4h5s.4 1.1 1.7 1.1c1.1 0 1.7-1.1 1.7-1.1h4.2V2.5h-4.3s-.4-1-1.7-1c-1.2 0-1.6 1-1.6 1Z" data-name="path12" style="stroke:#171717;fill:#252525;stroke-width:3px"/><ellipse id="ellipse16" cx="21.91" cy="3.2" class="cls-5" rx=".8" ry=".7"/><ellipse id="ellipse18" cx="22.01" cy="12" class="cls-5" rx=".8" ry=".7"/><path id="rect20" d="M50.71 7.2v1.1c0 .8-.4 1.5-.9 1.5s-.9-.7-.9-1.5V7.2c0-.8.4-1.5.9-1.5.5.1.9.7.9 1.5" style="fill:#ff3700"/><path id="path22" d="m10.71 6.8-.3.4h-4.2l-.3-.3V5.6l.4-.4h4.1l.4.3z" style="stroke-width:1.5px;stroke:#171717;fill:#474747"/></svg>