<svg xmlns="http://www.w3.org/2000/svg" width="110" height="110" viewBox="0 0 29.104166 29.104167"><g transform="rotate(30 53.901 17.259)scale(.48534)"><rect width="13.057115" height="2.2573578" x="18.294447" y="63.587769" ry="1.1286789" style="fill:#333;fill-opacity:1;stroke:#000;stroke-width:.979001;stroke-linecap:round;stroke-linejoin:round;stroke-dasharray:none;stroke-opacity:1" transform="rotate(-26.047)"/><path d="M64.355 13.011h3.558v5.757h-3.558z" style="fill:#333;fill-opacity:1;stroke:#000;stroke-width:.979;stroke-linecap:round;stroke-linejoin:round;stroke-dasharray:none;stroke-opacity:1" transform="rotate(35.956)"/><path d="M21.383 48.556 18.917 59.22l29.6-.094-11.133-10.569zm3.61 2.605h10.1c.751 0 1.356.604 1.356 1.355 0 .75-.605 1.355-1.355 1.355h-10.1c-.751 0-1.356-.605-1.356-1.355s.605-1.355 1.355-1.355" style="fill:#c50000;fill-opacity:1;stroke:#830000;stroke-width:1.4;stroke-linecap:round;stroke-linejoin:round;stroke-dasharray:none;stroke-opacity:1"/><rect width="42.488056" height="30.052526" x="56.514015" y="-48.743275" ry="3.7009492" style="fill:#b30000;fill-opacity:1;stroke:#830000;stroke-width:1.4;stroke-linecap:round;stroke-linejoin:round;stroke-dasharray:none;stroke-opacity:1" transform="rotate(90)"/><rect width="34.873058" height="22.564886" x="60.321514" y="-44.999454" ry="2.8349578" style="fill:#d50000;fill-opacity:1;stroke:#830000;stroke-width:1.4;stroke-linecap:round;stroke-linejoin:round;stroke-dasharray:none;stroke-opacity:1" transform="rotate(90)"/><path d="M40.502 66.657 26.932 88.86m0-22.203 13.57 22.202" style="fill:#333;stroke:#830000;stroke-width:2.3;stroke-linecap:round;stroke-linejoin:round;stroke-dasharray:none;stroke-opacity:1"/></g></svg>