<svg xmlns="http://www.w3.org/2000/svg" xmlns:xlink="http://www.w3.org/1999/xlink" width="110" height="110" fill="none" viewBox="0 0 110 110"><defs><linearGradient id="c" x1="57.834801" x2="69.068001" y1="40.6381" y2="51.8713" gradientTransform="translate(-.707 -3.996)" gradientUnits="userSpaceOnUse"><stop stop-color="#2685D9" stop-opacity="0"/><stop offset="0.2" stop-color="#2685D9"/><stop offset="0.4" stop-color="#A8CEF0"/><stop offset="0.6" stop-color="#F0CAA8"/><stop offset="0.8" stop-color="#D97A26"/><stop offset="1" stop-color="#D97A26" stop-opacity="0"/></linearGradient><linearGradient id="a" x1="249.536" x2="249.536" y1="17.1152" y2="10.0732" gradientTransform="rotate(-90 210.036 27.698)" gradientUnits="userSpaceOnUse"><stop offset="0" stop-color="#2685D9" style="stop-color:#ccc;stop-opacity:1"/><stop offset="0.19" stop-color="#2685D9" style="stop-color:#a8cef0;stop-opacity:1"/><stop offset="0.56" stop-color="#2685D9" style="stop-color:#2685d9;stop-opacity:1"/><stop offset="0.93000001" stop-color="#2685D9" stop-opacity="0" style="stop-color:#2685d9;stop-opacity:0"/></linearGradient><linearGradient id="b" x1="249.536" x2="249.536" y1="17.1152" y2="10.0732" gradientTransform="rotate(-90 210.036 27.698)" gradientUnits="userSpaceOnUse"><stop offset="0" stop-color="#2685D9" style="stop-color:#ccc;stop-opacity:1"/><stop offset="0.19" stop-color="#2685D9" style="stop-color:#f0caa8;stop-opacity:1"/><stop offset="0.56" stop-color="#2685D9" style="stop-color:#d97a26;stop-opacity:1"/><stop offset="0.93000001" stop-color="#2685D9" stop-opacity="0" style="stop-color:#d97a26;stop-opacity:0"/></linearGradient><radialGradient xlink:href="#a" id="d" cx="163.20874" cy="-204.49515" r="13.334951" fx="163.20874" fy="-204.49515" gradientTransform="matrix(.64395 0 0 .6413 -30.85 68.129)" gradientUnits="userSpaceOnUse"/><radialGradient xlink:href="#b" id="e" cx="163.20874" cy="-204.49515" r="13.334951" fx="163.20874" fy="-204.49515" gradientTransform="matrix(.64395 0 0 .6413 -30.85 68.129)" gradientUnits="userSpaceOnUse"/></defs><path fill="#848484" d="m24.736 90.726 4.016 1.331-10.709-10.649 1.339 3.994z"/><path fill="gray" stroke="#333" stroke-width="1.34366" d="m19.398 69.71 1.416 4.165 1.374-1.374-.936-3.36 2.29-4.745zM35.88 86.193l-4.164-1.417 1.374-1.374 3.36.937 4.744-2.291z" transform="scale(1.04759 1.04176)"/><path fill="#999" d="m9.343 107.365 15.393-15.308a.94.94 0 0 0 0-1.33l-5.354-5.325a.95.95 0 0 0-1.339 0L2.65 100.709Z"/><path fill="#737373" d="m18.824 83.737.335.999 6.246 6.211 1.005.333zm9.258 8.099-1.003-.333-8.478-8.43-.335-.999Z"/><path fill="#4d4d4d" d="m17.089 88.696-6.728 6.69a.093.093 0 0 0 0 .132.094.094 0 0 0 .133 0l6.727-6.69a.093.093 0 0 0 0-.132.094.094 0 0 0-.132 0"/><path fill="#8c8c8c" stroke="#333" stroke-width="0.671831" d="M20.324 87.79 8.98 99.134a.336.336 0 0 0 0 .475l1.441 1.442a.336.336 0 0 0 .475 0L22.24 89.707a.336.336 0 0 0 0-.475L20.8 87.79a.336.336 0 0 0-.475 0z" transform="scale(1.04759 1.04176)"/><path fill="url(#c)" fill-rule="evenodd" d="m91.443 2.326 11.233 11.234-68.63 68.63-11.233-11.233Z" clip-rule="evenodd" style="fill:url(#c)" transform="scale(1.04759 1.04176)"/><path fill="#8c8c8c" stroke="#333" stroke-width="0.671831" d="m8.918 103.062-1.597 1.597a.903.903 0 0 1-1.278 0l-5.11-5.111a.904.904 0 0 1 0-1.278l1.596-1.597Z" transform="scale(1.04759 1.04176)"/><path stroke="#333" stroke-width="1.34366" d="m23.612 88.368-16.291 16.29a.903.903 0 0 1-1.278 0l-5.11-5.11a.904.904 0 0 1 0-1.278l16.29-16.291a.904.904 0 0 1 1.278 0l5.111 5.11a.903.903 0 0 1 0 1.279z" transform="scale(1.04759 1.04176)"/><path fill="#606060" stroke="#333" stroke-width="0.671831" d="M7.743 90.422a.452.452 0 0 0 .164.817l2.134.427 6.388-6.389-.163-.163a.45.45 0 0 0-.572-.055z" transform="scale(1.04759 1.04176)"/><path stroke="#333" stroke-width="0.671831" d="m23.612 87.09 3.834 1.277-10.222-10.222L18.5 81.98z" transform="scale(1.04759 1.04176)"/><path fill="#999" stroke="#333" stroke-width="1.34366" d="M35.033 83.936a.452.452 0 0 0 .066-.693l-12.75-12.75a.452.452 0 0 0-.694.065L17 77.4a.45.45 0 0 0 .054.573l10.563 10.564a.45.45 0 0 0 .574.054z" transform="scale(1.04759 1.04176)"/><path d="M66.305-63.015a7.943 7.943 0 0 1 7.943-7.943v7.943z" style="fill:url(#d);fill-opacity:1;fill-rule:evenodd;stroke:#252628;stroke-width:0;stroke-linejoin:round;stroke-dasharray:none;paint-order:stroke markers fill" transform="scale(1.04759 1.04176)rotate(45)"/><path d="M74.248-70.958a7.943 7.943 0 0 1 7.943 7.943h-7.943Z" style="fill:url(#e);fill-opacity:1;fill-rule:evenodd;stroke:#252628;stroke-width:0;stroke-linejoin:round;stroke-dasharray:none;paint-order:stroke markers fill" transform="scale(1.04759 1.04176)rotate(45)"/></svg>