<svg xmlns="http://www.w3.org/2000/svg" width="110" height="110" fill="none" viewBox="0 0 110 110"><g clip-path="url(#a)"><path fill="#383633" stroke="#363330" stroke-width="0.493136" d="M43.218 61.089c-.43.261-.875.475-1.486.723-.555.224-.682.89-.632 1.36l.114-.066c.093-.014.17-.022.202.048.522 1.179.897 1.257 1.585 1.323.043.004.062-.05.019-.072a.6.6 0 0 1-.273-.234c-.835-.482-.946-1.11-.874-1.582.071-.47.49-.918 1.345-1.5Z"/><path fill="#3B3835" fill-rule="evenodd" d="m101.609 22.237-13.056 7.477a4.8 4.8 0 0 0-1.343-.01c-1.363.196-2.12.511-3.28.995q-.14.06-.29.12L58.086 45.66l.05.086-.338.195a.2.2 0 0 0-.085.084c-.23-.348-.668-.985-1.04-1.42l43.681-24.541.505-.48 6.161-3.557c.168-.097.843-.07 1.375.851.532.922.211 1.512.045 1.608l-6.161 3.558zm4.984-3.711c.736-.425 1.218-.966 1.077-1.21s-.851-.097-1.586.328c-.735.424-1.217.966-1.077 1.21.141.243.851.096 1.586-.328m.576-2.078c.07.122-.469.564-1.205.989-.735.424-1.388.67-1.458.549s.47-.564 1.205-.988 1.388-.67 1.458-.55m-.203 2.724c.736-.425 1.275-.867 1.205-.988-.07-.122-.723.124-1.458.549-.735.424-1.275.867-1.205.988s.723-.125 1.458-.55" clip-rule="evenodd"/><path fill="#3E3B38" d="m37.844 54.276 17.31-9.994.377.653-17.31 9.994z"/><path fill="#383633" d="m96.475 20.559.687-.397.262.454-.687.397z"/><path fill="#403D3A" d="m95.565 20.547 3.299-1.905c-.047-.429-.485-.868-.83-.668l-2.1 1.212c-.348.201-.537.66-.398 1.248zm.233 2.139-.089-.92.066-.264 3.71-2.143c.138.01.2.064.292.154l.579.616z"/><path fill="#383633" stroke="#353331" stroke-width="0.493136" d="m95.541 28.065.546-.315c.064-.037.275.185.363.337s.173.443.108.48l-.545.316z"/><path fill="#4B4744" fill-rule="evenodd" d="M38.194 54.874c-1.762 1.36-2.607 2.224-3.807 3.976l.95 1.208 2.505 2.514.242.2 6.877-4.035c.535-.328.878-.42 1.544-.464l13.645-8.02a13 13 0 0 0-.19-.366l-2.093-3.625c-.08-.14-1.156-1.79-1.624-2.074zm8.292-3.653c-.024-.21.005-.515.218-.638l7.179-4.145a.444.444 0 0 1 .606.163l.988 1.711a.444.444 0 0 1-.162.607l-8.003 4.62c-.103.06-.192.057-.3.031l-4.44 2.564a.444.444 0 0 1-.444-.769l4.081-2.357c.109-.062.38-.56.372-.927z" clip-rule="evenodd"/><path fill="#413B35" d="m12.14 95.84.089-.158c-.44 0-1.377-.839-1.998-1.598-.09-.111-5.385-6.339-6.373-8.043-.987-1.704-1.769-2.928-1.769-2.928-.739.57-1.067 1.672-.641 2.23l.5.662c.2.113.268.208.32.426l.523.692c.216.112.3.21.36.477l.494.655c.236.074.354.142.372.441l.455.638c.304.048.408.136.378.422l.522.703c.217.053.28.121.248.335l.576.778c.183.066.273.123.29.344l.588.805c.207.073.265.168.295.403l.525.718c.145.092.207.159.237.348l.547.773c.19.087.257.171.308.373l.457.579c.444.547 1.153.796 1.79.449z"/><path fill="#433D37" d="M3.857 86.041c-.987-1.704-1.769-2.928-1.769-2.928.405-.48.783-.73 1.295-.89.212-.067.375.094.466.266-.606.223-.667 1.036-.315 1.646 2.856 4.946 4.8 6.677 8.817 10.822.093.1.33.135.653.143l-.016.02c-.256.332-.434.563-.76.562-.44 0-1.376-.838-1.998-1.598-.09-.11-5.385-6.338-6.373-8.043"/><path fill="#49423B" d="M3.535 84.134c-.353-.61-.291-1.423.314-1.646l3.245-2.514c.004-.153.05-.275.213-.414l17.206-13.38c.196-.15.269-.19.504-.26.218-.066.382-.158.577-.31l3.901-3.06c.081-.061.114-.074.154-.027a1.7 1.7 0 0 0 .033.491l1.571 4.6c.185.532.365.681.676.823-1.546 1.219-2.28 2.023-3.33 3.682l-4.168 6.498c-.222.3-.351.47-.591.78l-10.527 11.29c-.22.262-.26.424-.159.745l.61 1.677c.137.376.1.704-.082 1.024l-.531.661c-.004.151-.044.213-.146.305-.324-.007-.561-.042-.653-.143-4.017-4.145-5.962-5.876-8.817-10.822"/><path fill="#413B35" d="M31.93 68.437c-.311-.14-.491-.29-.677-.823 2.621-1.81 4.065-2.913 6.59-5.04l1.286 1.066c1.07.104 1.602.291 2.37.978-.165.126-.187.196-.134.288.036.061-.134.275-.171.32-.335.41-.637.967-.78 1.546-.163.658-.138 1.334-.033 1.63.064.18.067.293.042.494-.036.278.104.803.272 1.281.05.141.072.196.055.33-.032.255.11.738.319 1.182a.64.64 0 0 1 .066.369c-.021.362.122.736.353 1.174a.73.73 0 0 1 .109.414c0 .186.057.427.13.553 0 0 .507.862.842 1.302.264.345.878.616 1.168.718.084.03.113.047.134.095.063.144-.089.391-.229.49-.429.302-4.925 2.573-5.253 2.757-.327.185-1.456.768-1.79.543-.14-.094-.36-1.026-.355-1.076.034-.402.069-.602-.091-1-.08-.195-.28-.425-.276-.477.017-.21-.013-.997-.257-1.572a.46.46 0 0 1-.024-.312c.05-.261.041-.766-.068-1.217-.02-.08-.042-.12.002-.216.068-.146-.005-.354-.061-.557-.022-.077-.025-.081-.017-.144.053-.434.045-.717-.063-1.093a.67.67 0 0 1-.023-.38c.116-.631.137-.992.054-1.65-.01-1.03-.464-1.677-1.181-2.046-.717-.37-1.541-.478-2.31.073"/><path fill="#544D45" d="M31.252 67.614c2.62-1.81 4.064-2.913 6.59-5.04l-2.505-2.515a163 163 0 0 1-5.342 3.876z"/><path fill="#5A524A" d="M35.338 60.06a163 163 0 0 1-5.343 3.875l-.314-.92a1.7 1.7 0 0 1-.032-.491c-.04-.047.077-.194.154-.259l4.425-3.468c.051-.04.086-.033.135.024z"/><path fill="#3E3832" stroke="#38332E" stroke-width="0.493136" d="m16.346 87.431.664.643s.272.152.605-.216c.333-.367.132-.545.132-.545l-.678-.657z"/><path fill="#464039" d="m7.307 79.56 17.207-13.38-3.007 6.886a3.3 3.3 0 0 1-.687.968L9.397 85.494c-.14.146-.195.106-.28-.047-1.547-2.839-2.058-4.23-2.023-5.474.005-.152.052-.275.213-.414"/><path fill="#413B35" d="M18.102 74.07a.34.34 0 0 0-.125.466l.479.828a.34.34 0 0 0 .589-.34l-.478-.829a.34.34 0 0 0-.465-.124m-1.031 1.374a.34.34 0 1 1 .59-.34l.478.828a.34.34 0 1 1-.59.34zm-.781.444a.34.34 0 0 0-.125.465l.478.828a.34.34 0 0 0 .59-.34l-.479-.829a.34.34 0 0 0-.465-.124m-1.03 1.374a.34.34 0 0 1 .59-.34l.477.828a.34.34 0 1 1-.589.34zm-.782.444a.34.34 0 0 0-.124.465l.478.828a.34.34 0 0 0 .59-.34l-.48-.828a.34.34 0 0 0-.464-.125m-1.031 1.374a.34.34 0 1 1 .59-.34l.478.828a.34.34 0 0 1-.59.34zm-.781.445a.34.34 0 0 0-.125.464l.479.829a.34.34 0 1 0 .589-.34l-.478-.829a.34.34 0 0 0-.465-.125M11.634 80.9a.34.34 0 0 1 .59-.34l.478.828a.34.34 0 1 1-.59.34zm-.782.444a.34.34 0 0 0-.124.465l.478.828a.34.34 0 0 0 .59-.34l-.479-.829a.34.34 0 0 0-.465-.124m-1.03 1.374a.34.34 0 1 1 .589-.34l.478.828a.34.34 0 0 1-.589.34zm-.906.909a.34.34 0 1 1 .589-.34l.478.828a.34.34 0 1 1-.59.34z"/><path fill="#433D37" d="m13.68 90.292-.369.395a2 2 0 0 0-.107.142l-2.126-3.684a.34.34 0 1 1 .589-.34zm.957-1.026-.486.52-2.097-3.633a.34.34 0 0 1 .589-.34zm.956-1.026-.485.52-2.078-3.6a.34.34 0 0 1 .589-.34zm.957-1.026-.486.52-2.059-3.566a.34.34 0 0 1 .59-.34zm.956-1.026-.485.52-2.04-3.532a.34.34 0 1 1 .59-.34zm.957-1.026-.486.52-2.02-3.498a.34.34 0 1 1 .59-.34zm.957-1.026-.486.52-2-3.465a.34.34 0 1 1 .589-.34zm.956-1.026-.485.52-1.981-3.43a.34.34 0 1 1 .589-.341zm.957-1.026-.486.52-1.962-3.397a.34.34 0 0 1 .59-.34zm.957-1.026-.486.52-1.943-3.364a.34.34 0 0 1 .59-.34z"/><path fill="#4F4740" d="M35.183 60.581a.2.2 0 0 0-.115.257l1.007 2.643a.2.2 0 0 0 .373-.142l-1.007-2.643a.2.2 0 0 0-.258-.115m-.84.871a.2.2 0 1 1 .373-.142l.963 2.528a.2.2 0 1 1-.373.142zm-.609.357a.2.2 0 0 0-.115.257l.912 2.394a.2.2 0 0 0 .373-.142l-.912-2.394a.2.2 0 0 0-.258-.115m-.84.871a.2.2 0 0 1 .373-.142l.247.648a.2.2 0 1 1-.372.142zm-.609.356a.2.2 0 0 0-.115.258l.254.666a.2.2 0 0 0 .373-.142l-.254-.667a.2.2 0 0 0-.258-.115m-.839.871a.2.2 0 1 1 .372-.142l.731 1.919a.2.2 0 1 1-.373.142zm-.725.614a.2.2 0 0 1 .373-.142l.677 1.777a.2.2 0 0 1-.373.142z"/><ellipse cx="33.4971" cy="64.4722" fill="#49423B" rx="0.727098" ry="0.727073" transform="rotate(-30 33.497 64.472)"/><path fill="#3E3B38" fill-rule="evenodd" d="m41.538 61.45.404-.246 3.486-2.012c.573-.308 1.062-.419 1.427-.312.08.023.148.034.194.007l2.663-1.57c-.53 1.494-1.07 2.555-1.693 3.776-.215.42-.44.86-.676 1.343-.361.737-1.68 1.817-2.525 2.223-.874.42-2.445.744-3.32-.04-.768-.688-1.3-.875-2.37-.978l-.61-.507c1.222-.595 1.914-1.015 3.02-1.685m.193.362c1.1-.445 1.657-.78 2.572-1.484.117-.09 1.26-.272 1.823.404.564.676.564.976.446 1.469s-.416 1.12-1.657 1.827c-1.053.6-1.857.589-2.486.501s-1.023-.619-1.22-.958-.23-1.454.522-1.759" clip-rule="evenodd"/><ellipse cx="48.1572" cy="56.6328" fill="#55524E" rx="0.269482" ry="0.269473" transform="rotate(-30 48.157 56.633)"/><ellipse cx="55.2918" cy="51.7779" fill="#43403D" rx="0.591102" ry="0.591083" transform="rotate(-30 55.292 51.778)"/><path fill="#3D3B38" d="M46.58 52.08c.004.191-.067.417-.151.6l.532.92.052-.03a.37.37 0 0 0 .299-.031l8.002-4.62a.444.444 0 0 0 .163-.607l-.988-1.712a.444.444 0 0 0-.607-.162l-7.179 4.145c-.212.122-.242.428-.217.638z"/><path fill="#383633" d="m46.962 53.6-.532-.92c-.078.168-.167.299-.22.329l-.324.187.444.769z"/><path fill="#282624" d="m46.33 53.966-.444-.77-3.757 2.17a.444.444 0 1 0 .444.769z"/><ellipse cx="54.3842" cy="47.8856" fill="#383633" rx="0.551233" ry="0.321424" transform="rotate(-30 54.384 47.886)"/><path fill="#383633" d="M53.286 50.09a.62.62 0 0 0-.037-.526c-.187-.324-.653-.405-1.041-.181s-.55.668-.363.992c.092.16.252.26.437.295z"/><path fill="#43403D" d="m54.9 47.31.24.416-.734.424-.24-.416z"/><path fill="#3B3835" d="M53.323 49.928a.6.6 0 0 0-.074-.364.6.6 0 0 0-.278-.246c.351-.173.685-.195.774-.04.09.155-.096.433-.422.65"/><path fill="#46423F" d="M51.183 50.297a.363.363 0 0 0 .363.628l1.164-.672-.363-.628z"/><path fill="#484541" d="m37.658 53.953.775-.447.188.324-.776.447zm1.272-.734.775-.448.187.325-.775.447zm1.271-.735.775-.447.188.324-.776.448zm1.274-.734.775-.448.187.325-.775.447zm1.271-.735.775-.448.188.324-.776.448zm1.272-.734.775-.447.187.324-.775.448zm1.272-.734.774-.448.188.325-.776.447zm1.27-.734.776-.448.187.324-.775.448zm1.274-.735.775-.447.187.324-.775.447zm1.27-.733.775-.448.187.325-.775.447zm1.273-.735.775-.448.187.324-.775.448zm1.273-.735.776-.448.187.325-.775.447zm1.27-.733.775-.448.187.324-.775.448zm1.273-.736.776-.447.187.324-.775.448z"/><path fill="#3E3B38" d="m83.025 39.33 8.407-4.854-.377-.652-8.407 4.853z"/><path fill="#4B4744" d="m83.213 39.654.775-.447-.187-.325-.775.448zm1.273-.735.775-.448-.187-.324-.775.448zm1.274-.734.775-.448-.187-.324-.775.447zm1.27-.734.774-.447-.187-.325-.775.448zm1.273-.735.775-.448-.187-.324-.776.447zm1.269-.734.775-.447-.187-.324-.775.447zm1.274-.735.775-.447-.187-.325-.776.448z"/><path stroke="#363330" stroke-width="0.493136" d="m85.57 37.861-.498.287.188.324-.775.448-.188-.325-.496.287.187.325-.775.447-.565-.977 8.407-4.854.564.978-.775.447-.187-.324-.497.287.187.324-.775.448-.187-.325-.497.287.188.324-.776.448-.187-.325-.497.287.188.325-.776.447-.187-.324-.497.286.188.325-.775.447z"/><path fill="#504D49" d="m45.986 48.608.608 1.053-4.857 2.804-.608-1.053z"/><path fill="#4B4744" d="M41.51 49.19c-.2.116-.897 1.33-.752 1.58l.37.642 4.857-2.804-.37-.641c-.052-.091-.208-.096-.368-.074-.043.005-1.446.352-2.378.652-.336.108-.552.18-.713.273z"/><ellipse cx="43.7447" cy="50.2724" fill="#5B5753" rx="0.432212" ry="0.432197" transform="rotate(-30 43.745 50.272)"/><rect width="0.8319" height="1.58052" x="41.5781" y="49.6602" fill="#403D3A" rx="0.41595" transform="rotate(-30 41.578 49.66)"/><ellipse cx="42.3343" cy="50.1376" fill="#43403D" rx="0.370569" ry="0.370557" transform="rotate(-30 42.334 50.138)"/><path stroke="#353331" stroke-width="0.493136" d="M41.51 49.19c-.2.117-.897 1.33-.752 1.581l.79 1.368-.385.222-.187-.325-.775.448.187.325-.496.286-.188-.324-.775.447.188.325-.497.287-.188-.325-.775.448.565.977 17.31-9.994-.377-.653-.188-.324-.775.447.187.325-.496.286-.188-.324-.775.448.188.324-.497.287-.187-.325-.776.448.188.324-.497.287-.187-.324-.776.447.188.325-.497.287-.187-.325-.776.448.188.324-.497.287-.187-.325-.775.448.187.324-.497.287-.187-.324-.775.447.187.325-.343.198-.79-1.368c-.052-.09-.208-.095-.368-.074-.043.006-1.446.353-2.378.653-.336.108-.552.18-.713.272z"/><path fill="#383633" d="m102.256 18.775 1.42 2.46.478-.276-1.421-2.46zm1.027-.592 1.42 2.46.477-.276-1.42-2.46z"/><path fill="#43403C" stroke="#363330" stroke-width="0.493136" d="m60.504 51.636-.11-.747-2.641-4.637c-.092-.16-.06-.251.047-.313l.337-.195c1.39 2.175 2.143 3.412 3.312 5.736l-.58.334c-.1.058-.249.023-.365-.178Z"/><path fill="#46423F" d="m61.447 51.474 29.616-17.378c.147-.085.474-.966.245-1.578 0 0-.402-1.3-.828-1.93s-1.981-1.072-3.269-.886c-1.363.196-2.119.511-3.279.995q-.14.06-.29.12l-25.554 14.84.05.086c1.388 2.173 2.141 3.41 3.309 5.731"/><path fill="#3D3B38" stroke="#353331" stroke-width="0.986271" d="M91.387 33.037a1.4 1.4 0 0 0-.079-.518s-.402-1.301-.828-1.93c-.174-.259-.538-.485-.996-.65l4.932-2.765c.113-.065.96.166 1.564 1.214s.3 1.718.171 1.792l-4.128 2.569a2.2 2.2 0 0 1-.636.288Z"/><path fill="#403D3A" stroke="#363330" stroke-width="0.493136" d="m90.776 31.13-.919.369c-9.869 4.083-15.03 6.942-22.905 14.073-.549.496-2.059 1.188-2.748 1.045l-3.903-1.01c-.533-.168-1.043.493-.597 1.019l2.085 2.395 1.308 1.485 27.964-16.41c.147-.085.475-.966.246-1.577 0 0-.232-.752-.53-1.389Z"/><path fill="#403D3A" stroke="#363330" stroke-width="0.493136" d="m71.359 39.572-9.436 5.537c-.242.14-.184.35.04.42l2.56.509c.7.063 1.394-.208 2.01-.793 2.153-2.048 3.275-3.2 5.14-5.436.126-.152-.012-.411-.314-.237Z"/><path fill="#43403D" d="M83.169 31.513c1.026-.597 1.6-.86 2.889-1.01 1.54-.196 2.77-.166 4.085.243.275.086.34.25.458.546v.001l.211-.088a4.4 4.4 0 0 0-.332-.617c-.425-.63-1.981-1.072-3.269-.886-1.363.196-2.119.511-3.279.995q-.14.06-.29.12l-25.554 14.84.05.086.247.388 3.38-1.891c-.083-.132.388-.549.675-.715z"/><path fill="#3B3835" d="M85.305 35.461c.066-.04.073-.073.063-.14l-.239-.983c-.016-.073-.07-.104-.123-.082-.446.18-.919.398-1.559.692-4.184 1.925-9.025 4.977-13.08 8.85-.132.126-.092.403.152.262zm3.135-1.823-2.08 1.21q-.087.05-.109-.034l-.207-.832c-.008-.047.137-.136.272-.175a37 37 0 0 1 2.089-.509c.201-.045.305.184.035.34"/><path fill="#383633" d="M85.633 34.952c-.016-.352-.054-.48-.208-.792-.03-.06-.01-.148.05-.173.091-.036.146-.033.186.036.09.156.208.305.279.46.129.285.159.505.124.582-.032.07-.17.146-.278.123-.085-.018-.147-.105-.153-.236"/><path fill="#3B3835" fill-rule="evenodd" d="m98.863 18.642.002.033.62.684-3.71 2.143.015-.06-.226-.895zm-2.6 2.07a.434.434 0 0 1 .158-.592l1.868-1.08a.434.434 0 0 1 .435.753l-1.869 1.079a.434.434 0 0 1-.593-.16" clip-rule="evenodd"/><path stroke="#38332E" stroke-width="0.986271" d="M3.535 84.134c-.353-.61-.291-1.423.314-1.646l3.245-2.514c.004-.153.05-.275.213-.414l17.206-13.38c.196-.15.269-.19.504-.26.218-.066.382-.158.577-.31l3.901-3.06c.081-.061.114-.074.154-.027a1.7 1.7 0 0 0 .033.491l1.571 4.6c.185.532.365.681.676.823-1.546 1.219-2.28 2.023-3.33 3.682l-4.168 6.498c-.222.3-.351.47-.591.78l-10.527 11.29c-.22.262-.26.424-.159.745l.61 1.677c.137.376.1.704-.082 1.024l-.531.661c-.004.151-.044.213-.146.305-.324-.007-.561-.042-.653-.143-4.017-4.145-5.962-5.876-8.817-10.822Z"/><path stroke="#38332E" stroke-width="0.986271" d="M2.088 83.112c.404-.479.782-.73 1.295-.89.212-.067.375.094.465.266-.605.223-.666 1.036-.314 1.646 2.53 4.383 4.345 6.241 7.52 9.492l.002.001c.408.418.838.858 1.295 1.33.092.1.329.135.653.142-.198.256-.415.583-.777.583l-.089.158-.906.524c-.638.346-1.346.097-1.79-.45l-.457-.578c-.052-.202-.118-.286-.309-.373l-.547-.773c-.029-.19-.092-.257-.236-.348l-.526-.718c-.03-.235-.087-.33-.295-.404l-.588-.804c-.016-.221-.106-.278-.29-.344l-.576-.779c.032-.213-.03-.282-.248-.334l-.521-.704c.03-.285-.074-.373-.378-.422l-.456-.637c-.017-.3-.135-.367-.372-.441L3.15 87.6c-.06-.267-.143-.365-.36-.477l-.521-.692c-.054-.219-.121-.314-.322-.426l-.5-.663c-.426-.557-.097-1.66.642-2.23Zm33.249-23.054-.974-1.238c-.05-.057-.084-.063-.135-.023l-4.425 3.467c-.078.065-.195.212-.155.259a1.7 1.7 0 0 0 .033.49l.314.92 1.257 3.68c.185.533.365.682.676.823.768-.55 1.592-.442 2.31-.073.717.37 1.171 1.016 1.18 2.046.084.659.062 1.019-.054 1.65a.67.67 0 0 0 .023.38c.108.376.117.66.063 1.093-.007.058-.004.067.013.129l.004.016.02.069c.051.18.102.358.042.487-.038.082-.027.123-.011.183l.008.033c.11.451.118.956.069 1.217a.46.46 0 0 0 .024.313c.244.575.274 1.362.256 1.571-.002.024.04.086.094.166.062.092.14.207.182.312.147.366.13.564.1.907l-.009.092c-.004.05.216.982.356 1.076.333.226 1.462-.358 1.79-.542.1-.057.596-.311 1.247-.645 1.463-.751 3.709-1.904 4.006-2.113.14-.098.291-.346.229-.49-.021-.047-.05-.065-.134-.094-.29-.102-.905-.374-1.168-.72-.335-.44-.843-1.3-.843-1.3a1.3 1.3 0 0 1-.13-.554.73.73 0 0 0-.108-.414c-.232-.438-.375-.812-.354-1.174a.64.64 0 0 0-.065-.368c-.21-.445-.351-.928-.32-1.183.017-.128-.003-.184-.049-.313l-.005-.017c-.169-.478-.308-1.003-.273-1.281a.9.9 0 0 0-.041-.494c-.105-.296-.13-.971.032-1.63a4.1 4.1 0 0 1 .78-1.545c.038-.046.207-.26.172-.321-.053-.092-.031-.162.133-.288-.767-.687-1.3-.874-2.37-.978l-1.285-1.066z"/><path stroke="#38332E" stroke-width="0.493136" d="m31.287 67.71-.035-.096m0 0c2.62-1.81 4.064-2.913 6.59-5.04l-2.505-2.515a163 163 0 0 1-5.342 3.876z"/><path fill="#45423F" stroke="#353331" stroke-width="0.493136" d="M41.538 61.449c-1.106.67-1.798 1.089-3.02 1.684l-.434-.36 6.877-4.035c.535-.329.878-.42 1.544-.465l13.645-8.02c.27.545.373.892.406 1.37l-.529.305-2.597.839-10.381 6.12c-.047.026-.114.016-.194-.008-.365-.106-.854.004-1.427.312l-3.486 2.013z"/><path stroke="#363330" stroke-width="0.493136" d="M46.43 52.679c.084-.182.155-.408.151-.599l-.094-.86c-.025-.209.005-.515.217-.638l7.179-4.145a.444.444 0 0 1 .607.163l.988 1.712a.444.444 0 0 1-.163.606l-8.002 4.62c-.103.06-.193.058-.3.032l-.683.394-.444-.769.324-.187c.052-.03.142-.16.22-.33Z"/><path stroke="#363330" stroke-width="0.493136" d="M46.485 51.222c-.025-.21.005-.516.217-.638l7.179-4.145a.444.444 0 0 1 .606.163l.988 1.71a.444.444 0 0 1-.162.608l-8.003 4.62c-.102.06-.192.057-.299.031l-4.44 2.564a.444.444 0 1 1-.445-.77l4.082-2.356c.108-.062.379-.56.371-.928z" clip-rule="evenodd"/><path stroke="#363330" stroke-width="0.986271" d="m101.609 22.237-13.056 7.477a4.8 4.8 0 0 0-1.343-.01c-1.363.196-2.12.511-3.28.995q-.14.06-.29.12L58.086 45.66l.05.086-.338.195a.2.2 0 0 0-.085.084c-.23-.348-.668-.985-1.04-1.42l43.681-24.541.505-.48 6.161-3.557c.168-.097.843-.07 1.375.851.532.922.211 1.512.045 1.608l-6.161 3.558z"/><path stroke="#363330" stroke-width="0.493136" d="M106.596 18.524c.736-.425 1.218-.966 1.077-1.21-.141-.243-.851-.097-1.586.328s-1.217.966-1.077 1.21c.141.243.851.096 1.586-.328Zm.576-2.077c.07.121-.469.563-1.204.988-.736.424-1.389.67-1.458.55-.07-.122.469-.564 1.204-.989.735-.424 1.388-.67 1.458-.55Zm-.203 2.723c.736-.425 1.275-.867 1.205-.988s-.723.125-1.458.55c-.735.424-1.275.866-1.205.987s.723-.125 1.458-.549Z"/><path stroke="#363330" stroke-width="0.493136" d="M98.033 17.974c.346-.2.785.24.83.668l.003.033.62.684c.136.01.198.064.291.154l.579.616-4.558 2.557-.089-.92.066-.264.015-.06-.254-1.008c-.14-.588.05-1.047.398-1.248zm-1.61 2.146a.434.434 0 1 0 .433.751l1.869-1.078a.434.434 0 0 0-.434-.752z" clip-rule="evenodd"/><path stroke="#363330" stroke-width="0.986271" d="m61.447 51.474 29.616-17.378c.147-.085.474-.966.245-1.578 0 0-.402-1.3-.828-1.93s-1.981-1.072-3.269-.886c-1.363.196-2.119.511-3.279.995q-.14.06-.29.12l-25.554 14.84.05.086c1.388 2.173 2.141 3.41 3.309 5.731Z"/><path fill="#403D3A" stroke="#363330" stroke-width="0.493136" d="M61.766 44.242c-.084-.132.387-.55.675-.716l20.728-12.012c1.027-.597 1.6-.858 2.89-1.008.204-.024.696.17.747.31.082.22-.12.372-.327.453-.207.08-1.996.733-3.228 1.356S62.877 44.282 62.877 44.282c-.351.163-1.002.13-1.111-.04Z"/><path stroke="#38332E" stroke-width="0.986271" d="m7.307 79.56 17.207-13.38-3.007 6.886a3.3 3.3 0 0 1-.687.968L9.397 85.494c-.14.146-.195.106-.28-.047-1.547-2.839-2.058-4.23-2.023-5.474.005-.152.052-.275.213-.414Z"/></g><defs><clipPath id="a"><path fill="#fff" d="M0 0h110v110H0z"/></clipPath></defs></svg>