<svg xmlns="http://www.w3.org/2000/svg" xml:space="preserve" id="svg1" width="192.09042" height="25.796438" version="1.1" viewBox="0 0 50.823923 6.8253076"><defs id="defs1"><style id="style1">.cls-1,.cls-2{stroke-linecap:round}.cls-1{fill-rule:evenodd}.cls-1,.cls-2{stroke:#171717;stroke-width:2px;stroke-miterlimit:5.89}.cls-1{fill:#242424}.cls-2{fill:#242423}</style></defs><g id="layer1" transform="translate(-49.56 -171.947)"><path id="path75" d="M60.805 172.732v2.976l3.522.364 17.363-.43.05-2.613-17.645-.678z" style="fill:#565b3e;fill-opacity:1;stroke:none;stroke-width:.79375;stroke-dasharray:none;stroke-opacity:1"/><path id="path49" d="m51.365 172.689-1.254-.024v3.242l1.45.058z" style="fill:#333;fill-opacity:1;stroke:none;stroke-width:1;stroke-dasharray:none;stroke-opacity:1"/><path id="path32" d="M51.549 172.665h-.572c-.18-.03-.31-.076-.42-.074-.357.006-.675.272-.673.61l-.004 1.51m1.651 1.146-.572-.005c-.18.028-.31.072-.421.068-.356-.01-.671-.28-.666-.616l.013-1.512" style="fill:none;stroke:#171717;stroke-width:.79153;stroke-dasharray:none;stroke-opacity:1" transform="matrix(.99865 0 0 1.00698 .15 -1.162)"/><path id="path55" d="M59.092 172.865s-.136 2.943 0 2.911 1.972 0 1.972 0v-2.993z" style="fill:#333;fill-opacity:1;stroke:none;stroke-width:.853075;stroke-dasharray:none;stroke-opacity:1"/><path id="path52" d="M58.611 172.872h2.155" style="fill:#171717;fill-opacity:1;stroke:#171717;stroke-width:.79375;stroke-dasharray:none;stroke-opacity:1"/><path id="path53" d="M51.346 172.649v3.142l7.995.083.058-3.076z" style="fill:#575c3d;fill-opacity:1;stroke:none;stroke-width:.79375;stroke-dasharray:none;stroke-opacity:1"/><path id="path52-9" d="M59.26 175.714h1.477" style="fill:#4d4d4d;fill-opacity:1;stroke:#171717;stroke-width:.79375;stroke-dasharray:none;stroke-opacity:1"/><path id="path21" d="M52.45 174.77v-1.97l3.314-.036c.632.027 3.49.214 4.617.21v1.706m-7.934-.634.012 1.972 3.314.015c.632-.03 3.489-.234 4.616-.236l-.01-1.707" style="fill:none;stroke:#1a1c12;stroke-width:.79375;stroke-dasharray:none;stroke-opacity:1" transform="translate(-.985 -.093)"/><circle id="path54" cx="60.49617" cy="172.51021" r="0.40251812" style="fill:#171717;fill-opacity:1;stroke:none;stroke-width:.483608;stroke-dasharray:none;stroke-opacity:1"/><path id="path77-1" d="m80.601 175.125 4.799.895" style="fill:none;fill-opacity:1;stroke:#171717;stroke-width:.79375;stroke-dasharray:none;stroke-opacity:1"/><path id="path77" d="m80.609 173.56 4.798-.895" style="fill:none;fill-opacity:1;stroke:#171717;stroke-width:.79375;stroke-dasharray:none;stroke-opacity:1"/><path id="path21-4" d="m37.633 174.77-.006-.83c-.02-.408.213-.737.6-.746l17.525-.618c.632.027 1.905.397 3.033.392l.009 1.711m-21.163-.545-.001.83c-.018.409.218.737.604.743l17.529.512c.632-.03 1.903-.407 3.03-.41l-.001-1.71" style="fill:none;stroke:#1a1c12;stroke-width:.79375;stroke-dasharray:none;stroke-opacity:1" transform="matrix(-1 0 0 1 119.678 -.102)"/><path id="path61" d="M64.738 173.678h-2.083c-.917.018-.907 1.343 0 1.324h2.087" style="fill:#999;fill-opacity:1;stroke:#171717;stroke-width:.78906;stroke-dasharray:none;stroke-opacity:1"/><path id="path50" d="m51.495 174.077 6.25.04-.1 1.478-6.146-.03z" style="fill:#333;fill-opacity:1;stroke:none;stroke-width:1;stroke-dasharray:none;stroke-opacity:1"/><path id="path32-7" d="M56.645 174.38v-.252a.606.606 0 0 0-.598-.63l-5.49-.009c-.357.006-.675.273-.673.61l-.004.449m6.766-.349-.003.251a.606.606 0 0 1-.605.624l-5.49-.052c-.357-.01-.671-.28-.666-.617v-.45" style="fill:none;stroke:#171717;stroke-width:.79153;stroke-dasharray:none;stroke-opacity:1" transform="matrix(.99865 0 0 1.00698 1.32 -.697)"/><path id="path57" d="m94.866 173.733 1.52-.62s3.405-.042 3.332 0 .072 2.3 0 2.28c-.071-.018-3.256.053-3.309 0-.052-.052-1.473-.62-1.473-.62z" style="fill:#333;fill-opacity:1;stroke:none;stroke-width:.79375;stroke-dasharray:none;stroke-opacity:1"/><path id="path78-2" d="m85.45 175.763-.122.529.584.134-.015.054c.07-.014.314-.11.358-.215.023-.127-.07-.346-.192-.439l-.023.075z" style="fill:#333;fill-opacity:1;stroke:#171717;stroke-width:.396875;stroke-dasharray:none;stroke-opacity:1"/><rect id="rect55" width="30.995876" height="1.3037689" x="63.943699" y="173.68047" ry="0" style="fill:#333;fill-opacity:1;stroke:#171717;stroke-width:.79375;stroke-dasharray:none;stroke-opacity:1"/><path id="path58" d="M96.486 173.603c-.542.665-.47.643 0 1.397l-1.345-.322v-1.067z" style="fill:#262626;fill-opacity:1;stroke:none;stroke-width:.79375;stroke-dasharray:none;stroke-opacity:1"/><path id="path56" d="m98.549 173.699 1.474-.49h3.639l.025 1.152m-5.122.504 1.486.451 3.638-.098-.006-1.153" style="fill:none;fill-opacity:1;stroke:#171717;stroke-width:.79375;stroke-dasharray:none;stroke-opacity:1" transform="translate(-3.704 .033)"/><path id="path60" d="m63.002 177.196.949-1.146a.63.63 0 0 0 .15-.382v-1.161h.678l-.029 1.207c-.003.238-.056.362-.19.547l-1.125 1.32z" style="fill:#333;fill-opacity:1;stroke:#171717;stroke-width:.396875;stroke-dasharray:none;stroke-opacity:1"/><g id="g58" transform="translate(-10.004 -15.704)"><path id="path12-2-8" d="M83.682 190.373v-.685c0-.085-.076-.154-.172-.154h-8.355c-.095 0-.172.07-.172.154v.685c0 .085.077.153.172.153h8.355c.096 0 .172-.068.172-.153z" class="cls-1" style="fill:#4d4d4d;fill-opacity:1;fill-rule:evenodd;stroke:#171717;stroke-width:.529167px;stroke-linecap:round;stroke-miterlimit:5.89"/><path id="path14-5-0" d="M75.393 189.54c.005.013 0 .05 0 .05v.876s.01.037 0 .047c-.01.019-.048.024-.048.024l-.767.13-1.013.013c-.043 0-.077-.03-.077-.066v-1.164c0-.037.034-.067.077-.067l1.01-.01.773.145s.04.011.042.019h.003z" class="cls-1" style="fill:#4d4d4d;fill-opacity:1;fill-rule:evenodd;stroke:#171717;stroke-width:.529167px;stroke-linecap:round;stroke-miterlimit:5.89"/><path id="path16-1-3" d="M81.108 190.627c-.008-.021 0-.074 0-.074v-1.048s-.019-.053-.005-.069c.02-.026.084 0 .084 0l2.68-.317 1.255-.008c.074 0 .132.042.132.098l.008 1.638c0 .052-.058.097-.132.097H83.9l-2.723-.306s-.066 0-.072-.009v0z" class="cls-1" style="fill:#4d4d4d;fill-opacity:1;fill-rule:evenodd;stroke:#171717;stroke-width:.529167px;stroke-linecap:round;stroke-miterlimit:5.89"/><path id="path18-2" d="M78.644 190.029c0 .426.386.773.862.773.477 0 .863-.347.863-.773s-.386-.773-.863-.773c-.476 0-.862.347-.862.773z" class="cls-1" style="fill:#4d4d4d;fill-opacity:1;fill-rule:evenodd;stroke:#171717;stroke-width:.529167px;stroke-linecap:round;stroke-miterlimit:5.89"/><path id="path20-0" d="M82.203 190.696v-1.334c0-.103-.092-.185-.206-.185h-.667c-.116 0-.206.082-.206.185v1.336c0 .104.092.186.206.186h.667c.116 0 .206-.082.206-.186v0z" class="cls-2" style="fill:#262626;fill-opacity:1;stroke:#171717;stroke-width:.529167px;stroke-linecap:round;stroke-miterlimit:5.89"/><path id="path22-1" d="M77.864 190.553v-1.048c0-.103-.093-.185-.207-.185h-.666c-.117 0-.207.082-.207.185v1.048c0 .103.093.185.207.185h.666c.117 0 .207-.082.207-.185z" class="cls-2" style="fill:#262626;fill-opacity:1;stroke:#171717;stroke-width:.529167px;stroke-linecap:round;stroke-miterlimit:5.89"/></g><circle id="path59" cx="62.767208" cy="177.81651" r="0.75691879" style="fill:#404040;fill-opacity:1;stroke:#171717;stroke-width:.396875;stroke-dasharray:none;stroke-opacity:1"/><path id="path78" d="m85.458 172.922-.122-.528.584-.135-.016-.054c.07.014.315.111.359.215.023.127-.071.346-.193.44l-.023-.075z" style="fill:#333;fill-opacity:1;stroke:#171717;stroke-width:.396875;stroke-dasharray:none;stroke-opacity:1"/></g></svg>