<svg xmlns="http://www.w3.org/2000/svg" width="110" height="110" fill="none" viewBox="0 0 110 110"><g clip-path="url(#a)" transform="translate(-.36 -.258)scale(1.00594)"><path fill="#585450" stroke="#363330" stroke-miterlimit="3.99393" stroke-width="0.625" d="m38.59 53.733 1.356-.784.147.255.848-.49-.146-.255 1.187-.685.147.254 1.018-.587-.147-.255.933-.538.147.254.763-.44-.147-.255.763-.44.147.254.679-.392-.147-.255.678-.391.147.254.764-.44 1.42 2.459-16.624 9.598-1.42-2.46.763-.44-.147-.255.679-.392.147.255.678-.392-.147-.255.764-.44.147.254.763-.44-.147-.255.933-.539.147.255 1.018-.588-.147-.254 1.187-.686.147.255.848-.49z"/><path fill="#423f3c" stroke="#363331" stroke-miterlimit="3.99393" stroke-width="0.625" d="m90.009 32.52-1.273.734 1.812 3.138 1.272-.734z"/><path fill="#403a35" stroke="#38332f" stroke-miterlimit="3.99393" stroke-width="0.3125" d="m13.257 83.504-.255.441a.29.29 0 0 0 .103.393l.997.575a.84.84 0 0 0-.036.385q.015.111.025.222c.043.45.08.833.84.297.884-.624.26-1.508.26-1.508s-.03-.162-.296-.106a.3.3 0 0 0-.127-.158l-1.118-.644a.29.29 0 0 0-.393.103z"/><path fill="#403a35" stroke="#38332f" stroke-miterlimit="3.99393" stroke-width="0.625" d="m9.489 87.943 1.78-1.028a.29.29 0 0 1 .402.107l.245.424a.29.29 0 0 1-.107.402l-1.781 1.028a.29.29 0 0 1-.402-.108l-.245-.424a.295.295 0 0 1 .108-.401Zm-5.58-8.916 1.213-.837a.487.487 0 0 1 .683.126l.615.889a.487.487 0 0 1-.125.683l-1.214.836a.487.487 0 0 1-.683-.125l-.615-.89a.493.493 0 0 1 .126-.683Z"/><path fill="#403a35" stroke="#38332f" stroke-miterlimit="3.99393" stroke-width="0.628437" d="m27.336 61.467-.509.294.587 1.017.509-.294z"/><path fill="#815232" stroke="#492f1d" stroke-miterlimit="3.99393" stroke-width="0.625" d="M20.46 69.283s-3.64 1.943-5.413 4.787-3.562 2.057-3.562 2.057L1.227 82.863s-1.022.816-.32 1.757c.701.94 2.306 3.034 4.214 6.614l.549.95s.327.84 1.377-.083 3.435-3.804 3.435-3.804l1.338-1.248s2.816-7.189 11.536-13.004z"/><path fill="#494746" stroke="#343332" stroke-miterlimit="3.99393" stroke-width="0.625" d="m50.762 48.766 39.1-22.574s1.257-.76 2.592-1.19c1.334-.432 3.696-2.022 3.696-2.022l9.584-5.533 3.526 6.106-12.4 7.16s-.796.346-1.158.894-3.875 2.69-3.875 2.69-.473.16-1.915.992L54.714 55.611Z"/><path fill="#36383a" stroke="#313234" stroke-miterlimit="3.99393" stroke-width="0.3125" d="M35.2 67.704s-.005.816.387 1.495c.392.678.695.616.695.616s.085-.049-.098-.17c-.182-.12-.646-.531-.65-1.32-.003-.79.007-.852.007-.852l-.386.154z"/><path fill="#3d3833" stroke="#38332f" stroke-miterlimit="3.99393" stroke-width="0.625" d="M38.91 64.906s3.53 3.333 5.785 2.144c2.254-1.188 1.565-3.165 1.565-3.165l-1.454-2.519z"/><path fill="#3d3833" d="m38.503 64.747-13.17 7.942 1.178-.115s3.608-2.761 4.268.929.994 4.855.994 4.855.078 1.311 1.024.991l3.312-1.12s1.151-.552.175-1.458c0 0-.512-.496-.515-1.286s-.403-3.047-.403-3.047-.636-1.103.381-1.69l2.12-1.225s.425-.244.506-1.083c.081-.838.76-1.23.76-1.23l-.588-1.018s-.106-.889.303-1.102c.408-.213-.345-.343-.345-.343m-.818 4.656-2.12 1.224s-1.152.552-1.788-.55c-.637-1.104.671-1.972.671-1.972l1.628-.94s1.352-.44 1.89.492c.539.933-.273 1.74-.281 1.746"/><path fill="#414447" stroke="#313335" stroke-miterlimit="3.99393" stroke-width="0.625" d="m88.028 26.346-.657-1.136a.284.284 0 0 1 .105-.388l1.034-.597a.284.284 0 0 1 .388.103l.656 1.137 4.687 8.117-1.527.881zM55.06 46.026l-1.61.93 4.21 7.294 1.612-.93zm49.813-28.307.509-.294a.59.59 0 0 1 .803.215l3.134 5.428a.59.59 0 0 1-.215.803l-.509.294a.59.59 0 0 1-.803-.215l-3.134-5.428a.59.59 0 0 1 .215-.803zm-8.82 5.093 2.29-1.323 3.966 6.87s.351.216-.092.585-.088.73-.088.73.27.409-.201.67c-.471.26-.657-.062-.657-.062s-.209-.558-.549-.362c-.339.196-.703-.238-.703-.238zM50.82 48.475l-1.867 1.077 4.211 7.294 1.866-1.077z"/><path fill="#433d37" fill-rule="evenodd" stroke="#38332f" stroke-miterlimit="3.99393" stroke-width="0.625" d="m27.513 60.913-.238.137c-.025.015-.036.055-.021.08l.754 1.307-8.058 4.652s-.058 1.153.51 2.194c.21.387.67 1.152 1.165 1.957l-3.176 2.494a.634.634 0 0 0-.104.897.647.647 0 0 0 .897.104l3.057-2.401c.579.932 1.06 1.698 1.06 1.698l21.467-12.394s.57 1.164 1.115.736.59-1.133.59-1.133.098-.848 1.447-1.626l5.428-3.134-3.065-5.31-17.218 9.94-.705-1.22-4.071 2.35-.754-1.306a.063.063 0 0 0-.08-.022zm9.324 3.89-11.874 6.855-.343-.594 11.875-6.855z" clip-rule="evenodd"/><path fill="#7f797b" stroke="#615c5e" stroke-miterlimit="3.99393" stroke-width="0.625" d="M43.814 65.524c.562-.324.776-1.005.479-1.52s-.994-.67-1.556-.346-.777 1.006-.48 1.521.995.67 1.557.345z"/><path fill="#544944" fill-rule="evenodd" stroke="#39312d" stroke-miterlimit="3.99393" stroke-width="0.625" d="m26.701 61.72-7.066 4.136.939.193-.833.48.784 1.357 7.523-4.343-.852-1.476s-.007-.02-.032-.035l-.129-.223a.243.243 0 0 0-.334-.09Z" clip-rule="evenodd"/><path fill="#494746" fill-rule="evenodd" stroke="#343332" stroke-miterlimit="3.99393" stroke-width="0.625" d="m63.754 52.27-4.548.544s-.835 1.003-.2 1.495c.261.203.76.416 1.257.597-.434.288-.996.756-.78 1.13.044.076.125.12.223.131.68.082 2.408-1.062 2.408-1.062l2.458-1.42.235.408 1.06-.612-.23-.399 6.76-3.902.151.262 2.384-1.376-.152-.262 13.189-7.615-.823-1.425-13.189 7.615-.147-.255-2.383 1.376.147.255-6.76 3.902-.896-1.552-1.06.612z" clip-rule="evenodd"/><path fill="#414447" stroke="#313335" stroke-miterlimit="3.99393" stroke-width="0.625" d="m80.079 31.265 2.917-1.685 3.629 6.285s1.527 2.058 1.027 2.347-.182.625-.182.625l.485.84s.468.42-.592 1.032c-.73.42-1.12-.078-1.12-.078l-.486-.804s-.144-.347-.593-.088c-.404.233-1.262-1.74-1.457-2.19z"/><path fill="#403a35" stroke="#38332f" stroke-linecap="round" stroke-miterlimit="3.99393" stroke-width="0.628437" d="m36.494 64.209 2.884-1.665.588 1.018-1.782 1.028-.245-.424-1.102.637z"/><path fill="#464548" stroke="#323234" stroke-miterlimit="3.99393" stroke-width="0.3125" d="m22.172 66.822 9.531-5.39s.392-.34.245-.594l-.147-.254s-.181-.178.099-.34l.288-.166s.145-.14.341.199l.539.933 16.29-9.293.387.67.769-.432 2.357 4.18-4.071 2.351c.32.946-.747 1.449-.747 1.449l-2.956-4.901-22.399 12.754-.606-1.108.085-.05z"/><path fill="#858585" stroke="#575757" stroke-miterlimit="3.99393" stroke-width="0.3125" d="m34.861 61.929 5.912-3.413a.56.56 0 0 1 .763.204l.279.484a.56.56 0 0 1-.205.762L35.7 63.38a.56.56 0 0 1-.763-.204l-.279-.483a.55.55 0 0 1 .204-.763Z"/><path fill="#6b6b6b" stroke="#333" stroke-miterlimit="3.99393" stroke-width="0.625" d="M39.778 63.725a.685.685 0 1 0-.686-1.187.685.685 0 0 0 .686 1.187z"/><path stroke="#38332f" stroke-miterlimit="3.99393" stroke-width="0.625" d="m25.333 72.689 13.17-7.942s.753.13.345.343-.303 1.102-.303 1.102l.588 1.018s-.679.391-.76 1.23-.505 1.083-.505 1.083l-2.12 1.225c-1.018.587-.382 1.69-.382 1.69s.399 2.257.402 3.047.516 1.285.516 1.285c.976.907-.175 1.459-.175 1.459l-3.312 1.12c-.946.32-1.024-.991-1.024-.991s-.334-1.165-.994-4.855-4.268-.929-4.268-.929z"/><path stroke="#38332f" stroke-miterlimit="3.99393" stroke-width="0.3125" d="m37.685 69.402-2.12 1.224s-1.152.552-1.789-.55c-.636-1.103.672-1.972.672-1.972l1.628-.94s1.352-.44 1.89.492c.539.933-.273 1.74-.281 1.746z"/><path fill="#815232" stroke="#492f1d" stroke-miterlimit="3.99393" stroke-width="0.625" d="m32.763 69.302-2.57 1.484s-.532.195.092 1.079c.623.884.835 2.23.835 2.23l.883 4.467s-.046.705.852.3c.897-.405 2.923-1.009 2.923-1.009s.825-.137.277-.5a4.8 4.8 0 0 1-.878-.736s-.294-.51-.03-1.227l-.38-3.4s.047-.547.216-.802c.241-.366-.852-.3-.852-.3s-1.35-.577-.69-1.977z"/></g><defs><clipPath id="a"><path fill="#fff" d="M0 0h110v110H0z"/></clipPath></defs></svg>