<svg xmlns="http://www.w3.org/2000/svg" id="Layer_1" width="235.2" height="60.400063" data-name="Layer 1" version="1.1" viewBox="0 0 235.2 60.400061"><defs id="defs4"><style id="style2">.cls-1{fill:none;stroke:#171718}.cls-1,.cls-11,.cls-8{stroke-miterlimit:11.34;stroke-width:3px}.cls-12{fill:#403a35}.cls-8{fill:#8a5029;stroke:#25160b}.cls-11{fill:#414447;stroke:#161719}</style></defs><g id="layer1" transform="translate(0 -.002)"><g id="g51462"><path id="rect19761-2" d="M149.13-3.84h19.4v67.7h-19.4z" style="stroke-miterlimit:11.34;stroke-width:3px;fill:#494647;stroke:#181718" transform="rotate(-89.91 158.823 30.014)"/><path id="rect19761-8-2-6" d="M139.6 20.61v18.8c0 .7-.5 1.3-1.2 1.3h-3.5c-.7 0-1.2-.6-1.2-1.3v-18.8c0-.7.5-1.3 1.2-1.3h3.5c.6-.1 1.2.5 1.2 1.3z" class="cls-11"/><path id="rect19761-8-2-1-0" d="M196.8 20.71v18.8c0 .7-.5 1.3-1.2 1.3h-3.5c-.7 0-1.2-.6-1.2-1.3v-18.8c0-.7.5-1.3 1.2-1.3h3.5c.7-.1 1.2.5 1.2 1.3z" style="stroke:#171718;stroke-miterlimit:11.34;stroke-width:3px;fill:#414447"/><path id="path21355-4" d="M196.8 20.41c3 0 7.5 1.3 11.2 1.9h20.8v15.5H208c-3.7.7-7.4 2-11.2 2z" style="stroke-miterlimit:11.34;stroke-width:3px;fill:#494647;stroke:#181718"/><path id="rect21460-9" d="M233.7 24.21v11.7c0 1-.8 1.9-1.7 1.9h-1.5c-.9 0-1.7-.8-1.7-1.9v-11.7c0-1 .8-1.9 1.7-1.9h1.5c1 .1 1.7.9 1.7 1.9z" class="cls-11"/><path id="path26947-8" d="M125.2 20.31v19.4l-57.5-.1c-2-.1-2.9 1.8-3 2.9-.3 3.5-6.3 5.5-6.8-1.4v-17.5c0-4.1 3-3.2 5.9-3.3z" style="stroke-miterlimit:11.34;stroke-width:3px;fill:#44424b;stroke:#161519"/><g id="rect230"><path id="path22835" d="M55.06 26.21v8.11q0 .42-.3.42h-15.4q-.3 0-.3-.42v-8.11q0-.42.3-.42h15.4q.3 0 .3.42z" class="cls-8"/></g><path id="rect230-7" d="M41.2 25.98v8.7c0 .53-.3.92-.7.92l-38.3-.13c-.4 0-.7-.4-.7-.92v-8.7c0-.53.3-.92.7-.92l38.3.13c.3 0 .7.4.7.92z" class="cls-8"/><path id="path20413" d="M80.9 21.71c-1.8 5.2-1.8 10.6 0 16.3h-5.2v-3.3c.1-1.1-.2-1.7-1-1.5H59.2v-6.5h15.5c.7 0 1.1-.4 1-1.5v-3.3z" class="cls-12"/><path id="rect22891" d="M55.24 27.71v4.76l-3.9-.01V27.7z" class="cls-12"/><path id="path25149" d="M60.9 26.099v8.35a.56.56 135 0 1-.56.561h-4.452a.99.99 45 0 1-.988-.988v-.851a.56.56 135 0 1 .56-.561h.28a.56.56 135 0 0 .56-.56v-4.28a.56.56 45 0 0-.56-.56.853.853 45.903 0 1-.84-.866v-.722a.93.93 134.523 0 1 .912-.927l3.6-.06a1.464 1.464 44.523 0 1 1.488 1.464Z" style="stroke-miterlimit:11.34;stroke-width:3px;fill:#403a35;stroke:#1a1816"/><ellipse id="path26795" cx="57.790001" cy="35.07" rx="3.6696799" ry="3.5999999" style="fill:#403a35;stroke:#1a1816;stroke-miterlimit:11.34;stroke-width:3px" transform="rotate(-89.91 57.788 35.077)"/><path id="rect19761-8-2-1-0-4" d="M216.6 21.81v15.9c0 .8-.6 1.4-1.2 1.4h-3.6c-.7 0-1.2-.6-1.2-1.4v-15.9c0-.8.6-1.4 1.2-1.4h3.6c.7 0 1.2.6 1.2 1.4z" class="cls-11"/></g></g><circle id="path22328" cx="-29.167046" cy="95.62056" r="28.700001" style="stroke:#171718;fill:#4b4b4d;stroke-miterlimit:11.34;stroke-width:3px" transform="rotate(-89.38)"/><circle id="path22328-4" cx="94.540001" cy="30.127665" r="17.6" style="fill:none;stroke:#171718;stroke-miterlimit:11.34;stroke-width:3px"/><circle id="path22328-0" cx="-30.035486" cy="95.326942" r="3.2" style="stroke:#171718;fill:#1e1f24;stroke-miterlimit:11.34;stroke-width:3px" transform="rotate(-89.91)"/><path id="rect33587-3" d="M96.42 23.878v12.5c0 .6-.5 1.1-1.1 1.1s-1.1-.5-1.1-1.1v-12.5c0-.6.5-1.1 1.1-1.1s1.1.5 1.1 1.1z" style="stroke:#171718;stroke-miterlimit:11.34;stroke-width:3px;fill:#4b4b4d"/><path id="path36636" d="M95.32 1.378v11.9" class="cls-1"/><path id="path36638" d="M124.02 30.178h-11.9" class="cls-1"/><path id="path36640" d="M95.22 47.078v11.9" class="cls-1"/><path id="path36642" d="M78.32 30.078h-11.9" class="cls-1"/><path id="path36644" d="m114.12 7.378-8.1 9.8" class="cls-1"/><path id="path36646" d="m105.12 44.078 6.7 9.5" class="cls-1"/><path id="path36648" d="m85.72 44.078-6.7 9.8" class="cls-1"/><path id="path36650" d="m83.92 17.778-8.1-8.9" class="cls-1"/></svg>