<svg xmlns="http://www.w3.org/2000/svg" width="110" height="110" fill="none" viewBox="0 0 110 110"><g clip-path="url(#a)"><path fill="#414141" stroke="#333" stroke-width="0.951824" d="m55.796 48.417-3.736 2.157 1.481 2.565 3.736-2.157 1.89-1.684L83.37 35.324l1.411-.457 1.897-1.095-.072-.124 17.469-10.086-1.133-1.963-17.47 10.086-.071-.124-1.897 1.095-1.1.993-24.205 13.974z"/><path fill="#575757" d="m84.07 31.698-2.793 1.612s-.465.269-.648.953c-.184.684.225 1.421.418 1.755l.175.303 4.19-2.419-1.162-2.01a.6.6 0 0 0-.18-.194"/><path fill="#555" d="m81.222 36.321 4.19-2.419-1.162-2.01a.6.6 0 0 0-.18-.194l-.395.228.927 1.607-2.166 1.251-.928-1.607-.231.133-.032.02.927 1.606-1.303.753c.064.13.128.243.178.33z"/><path stroke="#333" stroke-width="0.475912" d="m84.07 31.698-2.793 1.612s-.465.269-.648.953c-.184.684.225 1.421.418 1.755l.175.303 4.19-2.419-1.162-2.01a.6.6 0 0 0-.18-.194Z"/><path fill="#454545" d="m92.294 33.07-.762-1.32.97-.963.22-.128a.65.65 0 0 1 .27-.085l.675-.057a.16.16 0 0 1 .155.08l.47.816-.07.255-1.107.64.206.356-.805.465a.163.163 0 0 1-.222-.06"/><path fill="#4B4B4B" d="m93.2 31.664.27.468a.04.04 0 0 1-.014.056l-.308.177.174.3-.64.37a.244.244 0 0 1-.334-.089l-.342-.593zm.927-.536.165.285-.07.256-.316.182-.258-.447z"/><path stroke="#333" stroke-width="0.475912" d="m92.294 33.07-.762-1.32.97-.963.22-.128a.65.65 0 0 1 .27-.085l.675-.057a.16.16 0 0 1 .155.08l.47.816-.07.255-1.107.64.206.356-.805.465a.163.163 0 0 1-.222-.06Z"/><circle cx="49.1682" cy="49.2234" r="1.04251" fill="#575757" stroke="#333" stroke-width="0.475912" transform="rotate(-30 49.168 49.223)"/><circle cx="36.5022" cy="56.5359" r="1.04251" fill="#575757" stroke="#333" stroke-width="0.475912" transform="rotate(-30 36.502 56.536)"/><path fill="#666" d="m31.723 59.24.248.43.984-.569-.248-.429zm1.523-.88.492-.284.248.43-.492.284zm1.029-.593.492-.284.248.429-.492.284zm1.032-.597.492-.283.247.429-.492.284zm1.031-.595.492-.284.248.43-.492.283zm1.032-.595.491-.285.248.43-.492.284zm1.03-.596.492-.284.248.429-.492.284zm1.032-.594.492-.285.247.43-.492.283zm1.031-.596.492-.284.248.43-.492.284zm1.031-.595.492-.284.248.429-.492.284zm1.031-.596.492-.284.248.429-.492.284zm1.032-.596.492-.284.247.43-.492.283zm1.031-.595.492-.285.248.43-.492.284zm1.029-.595.492-.284.248.429-.492.284zm1.033-.595.492-.284.248.43-.492.283zm1.032-.596.492-.284.247.43-.492.284zm1.031-.596.492-.283.248.429-.492.284zm1.031-.595.248.43.984-.569-.248-.43z"/><path fill="#535353" d="m31.97 59.67.307.531 19.007-10.973-.307-.531z"/><path stroke="#333" stroke-width="0.475912" d="m31.723 59.24.554.96 19.006-10.973-.554-.96-.984.568.248.43-.54.31-.247-.429-.492.284.248.43-.54.31-.247-.428-.492.284.247.429-.539.311-.248-.429-.492.284.248.43-.539.31-.248-.429-.492.285.248.429-.54.311-.247-.43-.492.285.248.43-.54.31-.247-.429-.492.284.248.43-.54.31-.247-.428-.492.284.247.429-.539.311-.248-.43-.492.285.248.43-.539.31-.248-.429-.492.284.248.43-.54.31-.247-.428-.492.284.248.429-.54.311-.247-.43-.492.285.248.43-.54.31-.247-.429-.492.284.247.43-.539.31-.248-.428-.492.284.248.429-.539.311-.248-.429-.492.284.248.43-.54.31-.247-.429-.492.284.248.43-.54.31-.247-.428-.492.284.248.429-.54.311-.247-.429z"/><path fill="#5A5A5A" d="m54.378 54.593-.328-.568-10.573 6.105 2.216 3.838a1.8 1.8 0 0 1 .554-.173l1.332-.77 1.695 2.956a.251.251 0 0 0 .328.38l6.701-5.79a.251.251 0 0 0-.325-.383c-.093.017-.183-.006-.235-.095l-1.76-3.05c-.165-.286-.131-.585.192-1.255s.39-.872.203-1.195"/><path fill="#626262" stroke="#333" stroke-width="0.475912" d="M44.385 59.862a.435.435 0 0 0 .435.753l1.19-.687 1.175 2.035c.157.272-.058.545-.221.64l-1.124.649.15.26c.08.14.433.18.571.101l1.26-.727.616.584c.107.105.275.085.405.013s.206-.211.168-.343l-.333-1.042-1.606-2.782 6.616-3.82-.435-.754z"/><path fill="#515151" d="M53.633 55.567a.613.613 0 1 0-.47-.815z"/><path fill="#5C5C5C" d="m32.615 68.064.627 1.085c.79-.52 1.232-.81 1.816-.777.583.033 1.271.223 1.83.872l3.752-2.166a.24.24 0 0 1 .325.087l.006.01 1.291-.746a1.9 1.9 0 0 1 .424-.656q.17-.171.389-.297l2.513-1.451q.052-.03.106-.057l-2.17-3.759-8.478 4.895c-.14.08-.202.55-.126.817s.218.407.41.576z"/><ellipse cx="35.6729" cy="65.7148" fill="#545454" rx="0.725617" ry="0.725613" transform="rotate(-30 35.673 65.715)"/><ellipse cx="37.6615" cy="64.1379" fill="#4F4F4F" rx="0.312694" ry="0.312692" transform="rotate(-30 37.661 64.138)"/><ellipse cx="43.9972" cy="61.952" fill="#4F4F4F" rx="0.322497" ry="0.322495" transform="rotate(-30 43.997 61.952)"/><path fill="#5B5B5B" d="m42.58 58.576 10.574-6.105.451.783-.645.372-.547.914.186.322-9.123 5.267z"/><path fill="#616161" d="m52.601 54.862-.186-.321.547-.915.645-.372.445.77z"/><path fill="#5E5E5E" d="m31.774 61.946-.678.392 1.711 2.964c.06.103.528.222 1.01.274.526.056 1.076-.063 1.076-.063.018-.19.073-.362.153-.409l8.219-4.744-.392-.678-8.235 4.755-1.375.088z"/><path fill="#5B5B5B" d="m31.096 62.337-1.26.912 2.78 4.814 2.713-1.566c-.191-.17-.332-.31-.409-.576a1.2 1.2 0 0 1-.026-.41s-.55.12-1.076.064c-.483-.052-.951-.172-1.01-.274z"/><path stroke="#333" stroke-width="0.475912" d="m32.615 68.064.627 1.085c.79-.52 1.232-.81 1.816-.777.583.033 1.271.223 1.83.872l3.752-2.166a.24.24 0 0 1 .325.087l.006.01 1.291-.746a1.9 1.9 0 0 1 .424-.656q.17-.171.389-.297l2.513-1.451q.052-.03.106-.057l-2.17-3.759-8.478 4.895c-.14.08-.202.55-.126.817s.218.407.41.576z"/><path stroke="#333" stroke-width="0.475912" d="m54.378 54.593-.328-.568-10.573 6.105 2.216 3.838a1.8 1.8 0 0 1 .554-.173l1.332-.77 1.695 2.956a.251.251 0 0 0 .328.38l6.701-5.79a.251.251 0 0 0-.325-.383c-.093.017-.183-.006-.235-.095l-1.76-3.05c-.165-.286-.131-.585.192-1.255s.39-.872.203-1.195Z"/><path fill="#494949" d="m42.81 65.615 1.13-.652c-.217.895-.263 1.412.102 2.006.339.551.518.641.985.876l.114.058c.088.044.107.1.083.168s-.09.106-.16.084c-.842-.266-1.224-.465-1.592-.92-.367-.454-.654-.883-.661-1.62"/><path fill="#565656" d="m43.94 64.963-.403.233c-.15.778-.189 1.223.07 1.752.257.53.706.829 1.464 1.198.066.032.13-.007.154-.074.023-.068.005-.124-.083-.169-.555-.281-.735-.34-1.1-.934s-.319-1.111-.102-2.006"/><path stroke="#333" stroke-width="0.475912" d="m42.81 65.615 1.13-.652c-.217.895-.263 1.412.102 2.006.339.551.518.641.985.876l.114.058c.088.044.107.1.083.168s-.09.106-.16.084c-.842-.266-1.224-.465-1.592-.92-.367-.454-.654-.883-.661-1.62Z"/><path fill="#4E4E4E" stroke="#333" stroke-width="0.475912" d="m43.717 69.18 5.078-2.932.176.304-5.079 2.932z"/><path fill="#555" stroke="#333" stroke-width="0.475912" d="M48.285 66.262c-.04.087.037.266.105.349a.64.64 0 0 0 .361.195c.145.025.3-.016.479-.168s.205-.402.155-.489l-1.805-3.125-1.332.769a1.87 1.87 0 0 1 1.892.915c.284.491.367 1.077.145 1.554Z"/><path fill="#565656" stroke="#333" stroke-width="0.475912" d="M42.263 66.428a1.87 1.87 0 0 0 1.911 2.53c.087-.009.144.085.179.261.035.178-.044.34-.137.393l-1.238.715c-.084.049-.205-.031-.256-.12l-1.751-3.033z"/><ellipse cx="43.6215" cy="69.3832" fill="#4D4D4D" rx="0.128999" ry="0.128998" transform="rotate(-30 43.621 69.383)"/><ellipse cx="48.8542" cy="66.2691" fill="#4C4C4C" rx="0.193498" ry="0.193497" transform="rotate(-30 48.854 66.27)"/><path fill="#4D4D4D" d="M49.516 66.41a.3.3 0 0 0 .09-.05l6.507-5.624 3.369 5.835a.24.24 0 0 1-.057.307l-6.145 4.943a.48.48 0 0 1-.716-.134z"/><path fill="#444" stroke="#333" stroke-width="0.475912" d="m57.52 68.41.806-.648-3.443-5.964-.787.681zm-3.594 2.89.384-.308-3.35-5.804-.376.324zm-1.793-7.125.49-.424 2.566 4.444a.318.318 0 1 1-.551.318z"/><path fill="#535353" stroke="#333" stroke-width="0.951824" d="m36.89 69.244 3.751-2.166a.24.24 0 0 1 .325.087l1.757 3.042c.072.125.031.318-.063.449-.094.13-.084.275-.062.448l.162 1.338c.01.105.177.415.259.448.317.125.664.292.679.555.01.183-.145.268-.377.395a5 5 0 0 0-.34.202c-.24.16-.253.486-.253.486l.05 3.624c.011.27.165.43.283.49.058.03.12.05.181.072.19.067.374.132.439.428.065.299-.08.562-.312.784-.22.21-.649.49-.836.537l-5.328 1.511c-.262.052-.461-.19-.437-.496l.731-10.668c.005-.117-.138-.765-.61-1.566Z"/><rect width="10.3199" height="1.52391" x="41.7129" y="57.0752" fill="#393939" rx="0.761956" transform="rotate(-30 41.713 57.075)"/><path fill="#515151" d="M42.094 57.735a.76.76 0 0 1 .279-1.04l7.617-4.399a.762.762 0 0 1 .762 1.32l-7.617 4.398a.76.76 0 0 1-1.041-.279"/><path fill="#4C4C4C" d="M49.072 54.586a1.8 1.8 0 0 0-.762-1.32l-2.836 1.638a1.8 1.8 0 0 0 .762 1.32z"/><ellipse cx="47.1234" cy="54.5954" fill="#454545" rx="0.241872" ry="0.241871" transform="rotate(-30 47.123 54.595)"/><path fill="#454545" d="m47.814 55.313-.014-.029a.242.242 0 1 0-.401.269z"/><path fill="#474747" d="m48.332 51.155-16.459 9.502.533.923 16.46-9.502z"/><path fill="#616161" fill-rule="evenodd" d="m42.135 58.404-1.242-2.152 10.832-6.254 1.429 2.474-10.574 6.104-.186-.322zm.238-1.71a.762.762 0 1 0 .762 1.32l7.618-4.398a.762.762 0 1 0-.762-1.32z" clip-rule="evenodd"/><path fill="#4E4E4E" d="m33.052 61.207.127-.297-.34-.587-.32-.039-.646.373.533.923z"/><path fill="#636363" d="M36.545 66.525a.35.35 0 0 0 .454.096l.32-.185a.35.35 0 0 0 .145-.441z"/><path fill="#696969" d="m37.464 65.994-.92.53-.02-.031a.35.35 0 0 1 .127-.475l.32-.186a.35.35 0 0 1 .493.162"/><path fill="#636363" d="M39.627 64.746a.35.35 0 0 0 .454.095l.32-.185a.35.35 0 0 0 .145-.44z"/><path fill="#696969" d="m40.546 64.216-.92.53-.02-.032a.35.35 0 0 1 .127-.475l.32-.185a.35.35 0 0 1 .492.162"/><path fill="#545454" d="m39.836 64.646.017.031q-.018 0-.035.003a.1.1 0 0 0-.03.012.06.06 0 0 0-.03.03.04.04 0 0 0 .004.034q.009.015.021.018a.1.1 0 0 0 .039-.005l.018-.006a.1.1 0 0 1 .06-.003.07.07 0 0 1 .039.035q.018.032.008.06-.01.03-.048.05a.2.2 0 0 1-.072.023l-.019-.031q.024 0 .042-.003a.1.1 0 0 0 .035-.013.07.07 0 0 0 .03-.03.04.04 0 0 0-.004-.037q-.01-.017-.024-.021a.1.1 0 0 0-.039.004l-.018.006a.1.1 0 0 1-.058.005.06.06 0 0 1-.036-.03.07.07 0 0 1-.008-.06.1.1 0 0 1 .043-.05l.03-.013zm.137-.053.035.133.064-.037zm-.034-.017.037-.021.2.185-.032.019-.05-.05-.08.046.018.068-.032.018zm.147-.085.133-.076.015.025-.102.06.035.06.092-.054.015.026-.093.053.066.114-.03.018zm.181-.104.134-.077.014.025-.103.06.035.06.099-.056.015.025-.099.057.05.088.107-.061.015.026-.137.078z"/><path fill="#4B4B4B" stroke="#333" stroke-width="0.475912" d="m51.36 49.36 7.946-4.589 5.63-2.57 19.949-11.518.258.447-19.948 11.517-5.631 2.571-7.947 4.588z"/><rect width="9.35839" height="0.502181" fill="#525252" rx="0.251091" transform="rotate(-40.83 113.4 -32.87)"/><ellipse cx="42.2687" cy="64.4716" fill="#4F4F4F" rx="0.322497" ry="0.322495" transform="rotate(-30 42.269 64.472)"/><rect width="1.11365" height="1.83132" x="45.041" y="61.3701" fill="#525252" rx="0.556826" transform="rotate(-30 45.041 61.37)"/><ellipse cx="45.9814" cy="61.8847" fill="#474747" rx="0.245179" ry="0.245178" transform="rotate(-30 45.981 61.885)"/><path fill="#595959" d="m42.135 58.404.26-.15 1.128 1.955-.26.15z"/><path fill="#626262" d="m32.08 62.475 1.183 2.05 1.375-.089 8.235-4.755-1.488-2.578z"/><path fill="#656565" d="m32.08 62.476 9.305-5.372-.491-.85 10.833-6.255-.445-.77-20.137 11.627.096.167 1.279-.738.32.039.339.588-.126.297-1.278.737z"/><path fill="#595959" d="M42.244 56.4a.922.922 0 0 0 .564 1.715.762.762 0 0 1-.434-1.42l7.617-4.398a.762.762 0 1 1 .762 1.32c.503-.29.639-.846.384-1.287a.92.92 0 0 0-1.26-.338z"/><path fill="#6B6B6B" d="m38.869 57.272 2.13-1.23.595.245.287.498a.92.92 0 0 0 .429 1.244l.18.314-2.176 1.431c-.285.18-.44.217-.587-.037l-.72-1.249z"/><path fill="#3C3C3C" stroke="#333" stroke-width="0.951824" d="m103.131 21.927 1.636-.945.755 1.309-1.636.944z"/><path fill="#5E5E5E" d="M38.176 66.021a.106.106 0 1 0-.184.106.857.857 0 0 0 1.486-.858.106.106 0 0 0-.184.106.646.646 0 0 1-1.118.646"/><ellipse cx="39.3866" cy="65.3219" fill="#5B5B5B" rx="0.105689" ry="0.105688" transform="rotate(-30 39.387 65.322)"/><ellipse cx="39.1092" cy="66.3492" fill="#5B5B5B" rx="0.105689" ry="0.105688" transform="rotate(-30 39.11 66.35)"/><ellipse cx="38.0838" cy="66.0738" fill="#5B5B5B" rx="0.105689" ry="0.105688" transform="rotate(-30 38.084 66.074)"/><path fill="#545454" d="M37.975 65.884a.13.13 0 0 0 .015-.083.752.752 0 1 1 .284.492.13.13 0 0 0-.08-.028l-.4.001a.024.024 0 0 1-.021-.035z"/><path fill="#595959" d="M39.473 65.71a.38.38 0 1 1-.38-.657l1.378-.795a.38.38 0 0 1 .38.657z"/><path fill="#545454" d="m36.615 66.645.051.089.036-.021q.027-.015.033-.031t-.007-.037q-.016-.029-.034-.032t-.043.011zm-.05-.086.036.062.035-.021q.023-.012.027-.027a.03.03 0 0 0-.002-.027q-.01-.017-.024-.019t-.037.011zm-.045-.008.067-.038a.1.1 0 0 1 .062-.016.06.06 0 0 1 .043.031q.008.014.005.033a.05.05 0 0 1-.02.032.06.06 0 0 1 .045-.001q.021.008.039.038t.007.058-.051.05l-.067.039zm.263.033-.08-.139.031-.017.088.152.015.023.009.01a.04.04 0 0 0 .022.005l.024-.009.02-.017a.04.04 0 0 0 .006-.021q0-.006-.003-.013l-.012-.024-.089-.153.03-.017.081.138q.02.034.024.052a.1.1 0 0 1 0 .033.1.1 0 0 1-.016.026.1.1 0 0 1-.057.033.1.1 0 0 1-.031 0 .1.1 0 0 1-.029-.015.2.2 0 0 1-.033-.047m.268-.18h.026a.2.2 0 0 1 .04.02l.067.044-.033.02-.06-.042a.1.1 0 0 0-.039-.02.04.04 0 0 0-.028.008l-.03.017.056.095-.03.017-.131-.225.063-.036q.038-.021.066-.016.03.005.048.037.014.023.009.043a.06.06 0 0 1-.024.037m-.117-.058.046.08.034-.02q.021-.012.027-.028.004-.016-.007-.037-.011-.019-.029-.023-.017-.004-.039.009zm.277-.183.018.03q-.02 0-.036.003a.1.1 0 0 0-.03.012.06.06 0 0 0-.029.03.04.04 0 0 0 .003.034q.009.015.021.018a.1.1 0 0 0 .039-.005l.018-.005a.1.1 0 0 1 .06-.004.07.07 0 0 1 .039.035q.018.033.008.06-.01.03-.048.051a.2.2 0 0 1-.072.023l-.018-.032q.023 0 .042-.003a.1.1 0 0 0 .034-.013.07.07 0 0 0 .03-.03.04.04 0 0 0-.004-.037q-.01-.017-.024-.02a.1.1 0 0 0-.038.003l-.019.006a.1.1 0 0 1-.058.005.06.06 0 0 1-.036-.03.07.07 0 0 1-.008-.06.1.1 0 0 1 .044-.05l.029-.013zm.036-.032.172-.099.015.026-.07.04.114.2-.03.018-.115-.2-.071.041zm.306-1.881.017.03q-.018 0-.035.004a.1.1 0 0 0-.031.011.06.06 0 0 0-.028.03.04.04 0 0 0 .003.034q.008.015.021.018t.038-.004l.019-.006a.1.1 0 0 1 .06-.003.07.07 0 0 1 .039.034q.018.033.008.061-.01.029-.048.05a.2.2 0 0 1-.072.024l-.019-.033q.024 0 .042-.002a.1.1 0 0 0 .035-.013.07.07 0 0 0 .03-.031.04.04 0 0 0-.004-.037q-.01-.017-.024-.02a.1.1 0 0 0-.039.004l-.018.005a.1.1 0 0 1-.058.005.06.06 0 0 1-.037-.03.07.07 0 0 1-.007-.06.1.1 0 0 1 .043-.05l.03-.013zm.058-.044.134-.078.015.026-.103.06.035.06.098-.057.015.026-.099.057.051.088.106-.061.015.025-.137.079zm.163-.093.04-.024.105.092-.026-.137.04-.023.13.224-.028.016-.115-.198.029.142-.024.013-.108-.095.114.198-.028.017zm.21-.123.125-.072.015.026-.047.027.1.174.048-.027.015.025-.126.073-.014-.026.047-.027-.1-.174-.048.027z"/><path fill="#525252" d="m42.578 58.822 9.23-5.329.259.447-9.23 5.33z"/><path fill="#5C5C5C" d="M44.755 60.897a.844.844 0 0 1-1.154-.302l-.765-1.325 9.23-5.33.766 1.326a.843.843 0 0 1-.316 1.15z"/><path fill="#636363" d="m46.137 56.767 2.112-1.22.258.447-2.112 1.22z"/><path fill="#545454" d="m46.598 57.097.804 1.393a.395.395 0 0 1-.148.538l-2.586 1.493a.395.395 0 0 1-.54-.14l-.745-1.29a.06.06 0 0 0-.103.059l.745 1.29a.514.514 0 0 0 .702.184l2.586-1.493a.514.514 0 0 0 .192-.7l-.804-1.393zm2.512.406-.803-1.393-.103.06.804 1.393a.514.514 0 0 0 .703.184l2.585-1.493a.514.514 0 0 0 .192-.7l-.745-1.29a.06.06 0 1 0-.103.06l.745 1.289a.395.395 0 0 1-.148.538l-2.586 1.493a.395.395 0 0 1-.54-.14"/><path fill="#626262" d="m48.124 56.844-.801.462a.06.06 0 0 0-.022.082l.682 1.181a.06.06 0 0 0 .082.022l.801-.463a.06.06 0 0 0 .022-.081l-.682-1.182a.06.06 0 0 0-.082-.021"/><path fill="#696969" d="m48.354 58.425.077.133a.13.13 0 0 0 .177.047.13.13 0 0 0 .049-.177l-.077-.134z"/><path fill="#4A4A4A" d="m45.834 56.456-.271-.47a1 1 0 0 0-.248.497l-.153-.265a1 1 0 0 0-.247.496l-.153-.265a1 1 0 0 0-.248.496l-.153-.265a1 1 0 0 0-.247.497l-.153-.266a1 1 0 0 0-.247.497l-.154-.265a1 1 0 0 0-.247.496l-.153-.265a1 1 0 0 0-.247.496l-.153-.265c-.14.161-.203.3-.243.473a.76.76 0 0 0 .62-.064zm-3.34 1.614a.8.8 0 0 1-.22-.125q.037-.052.085-.109z"/><ellipse cx="43.4851" cy="57.0911" fill="#454545" rx="0.265029" ry="0.265027" transform="rotate(-30 43.485 57.091)"/><path fill="#404040" d="m45.171 56.84-.296.17a.212.212 0 1 1 .296-.17"/><path fill="#515151" d="m33.241 69.148-3.405-5.898L1.645 79.245c-.422.243-.715 1.197-.529 1.603 2.324 5.047 4.055 7.566 7.754 11.879.116.134 1.054.587 1.683.204 1.849-1.125 4.56-5.083 9.303-10.306l7.341-8.184c2.176-2.317 3.484-3.495 6.044-5.293"/><rect width="0.483745" height="1.96722" x="11.6562" y="91.3594" fill="#5D5D5D" stroke="#333" stroke-width="0.475912" rx="0.241872" transform="rotate(-30 11.656 91.36)"/><path fill="#494949" stroke="#333" stroke-width="0.475912" d="M1.802 79.156c.05.713.113 1.077.386 1.78.12.31 2.538 4.09 4.321 6.875.915 1.43 1.663 2.598 1.845 2.9.233.385 1.324 1.413 1.951 2.004l.237.223c-.63.37-1.557-.078-1.672-.211-3.699-4.313-5.43-6.832-7.754-11.88-.186-.405.107-1.359.529-1.602z"/><path fill="#4C4C4C" d="m29.361 63.519 1.677 2.837.443-.255-1.646-2.851z"/><path fill="#454545" d="m103.922 20.59.614-.354 1.516 2.625-.614.355z"/><path fill="#3C3C3C" d="m103.758 20.946.28-.16 1.29 2.233-.28.162zm.89-.514.223-.13 1.29 2.235-.223.129z"/><path fill="#454545" d="m102.75 21.268.894-.516 1.515 2.625-.893.516z"/><path fill="#454545" fill-rule="evenodd" d="m105.441 19.714-.681.393 1.515 2.626.682-.393c.163-.147.474-.36.845-.575s.712-.376.92-.445l.682-.393-1.516-2.626-.681.394c-.164.146-.475.36-.846.574s-.712.377-.92.445m.165.31a.177.177 0 1 0 .177.308l1.788-1.032a.178.178 0 0 0-.178-.307zm.535.701a.29.29 0 1 0 .29.503l1.592-.92a.29.29 0 0 0-.29-.502zm.387 1.252a.177.177 0 0 1 .065-.243l1.787-1.032a.18.18 0 0 1 .243.065.18.18 0 0 1-.065.242l-1.788 1.032a.177.177 0 0 1-.242-.064" clip-rule="evenodd"/><path stroke="#333" stroke-width="0.475912" d="m102.75 21.268.894-.516.113.195.279-.161-.113-.196.615-.355.113.196.223-.129-.113-.195.681-.394c.208-.068.549-.23.92-.445.371-.214.682-.428.846-.574l.681-.393 1.516 2.625-.681.393a5.7 5.7 0 0 0-.921.445c-.371.215-.682.428-.845.575l-.681.393-.113-.196-.223.13.112.195-.614.354-.113-.195-.279.161.112.196-.893.516zm2.792-1.002a.177.177 0 0 1 .065-.242l1.787-1.032a.18.18 0 0 1 .243.065.18.18 0 0 1-.065.242l-1.788 1.032a.177.177 0 0 1-.242-.065Zm.493.855a.29.29 0 0 1 .107-.396l1.592-.92a.29.29 0 1 1 .29.503l-1.592.92a.29.29 0 0 1-.397-.107Zm.559.613a.177.177 0 1 0 .177.307l1.788-1.032a.177.177 0 1 0-.178-.308z" clip-rule="evenodd"/><path fill="#4B4B4B" fill-rule="evenodd" d="m85.116 24.08-.656 5.851 2.582 4.473a.163.163 0 0 0 .222.06l.984-.569a.16.16 0 0 0 .072-.195l-.21-.586a1 1 0 0 0-.073-.16l-1.25-2.164a.163.163 0 0 1 .06-.222l2.572-1.485a.163.163 0 0 1 .222.06l1.518 2.629.516.053.967-.558a.163.163 0 0 0 .058-.224l-5.028-8.439c-.241-.417-.96-.984-1.748-.53-.53.306-.585.817-.673 1.627l-.036.321zm4.512 3.039a.407.407 0 0 1-.149.555l-3.358 1.94a.488.488 0 0 1-.729-.478l.433-3.854a.33.33 0 0 1 .16-.245l1.549-.894a.325.325 0 0 1 .444.12z" clip-rule="evenodd"/><path fill="#454545" fill-rule="evenodd" stroke="#333" stroke-width="0.475912" d="m87.313 34.435.934-.54a.16.16 0 0 0 .071-.082l.327.566a.593.593 0 0 1-.214.811.593.593 0 0 1-.809-.22zm1.014.152a.21.21 0 0 1-.077.29.21.21 0 0 1-.288-.079.21.21 0 0 1 .076-.29c.1-.057.23-.022.289.08Z" clip-rule="evenodd"/><path fill="#484848" d="m51.867 50.24.154-.088 2.032 3.519-.154.088z"/><path fill="#515151" d="m52.191 49.644-.349.201 2.387 4.134.349-.202z"/><path fill="#575757" d="m51.563 48.554 3.484 6.036 1.498-1.277-3.128-5.418z"/><path fill="#4E4E4E" d="m51.842 48.453-.11.04 3.453 5.978.088-.075zm3.658 5.75-.089.075-3.398-5.885.11-.04zm.226-.193-.088.075-3.344-5.792.11-.04zm.227-.194-.089.076-3.29-5.699.11-.039zm.227-.193-.09.076-3.235-5.605.11-.04zm.226-.193-.089.076-3.182-5.512.11-.04z"/><path fill="#515151" d="m53.635 48.274 2.85 4.938.537-.216-2.932-5.08z"/><path fill="#595959" fill-rule="evenodd" d="M80.776 36.579 55.854 50.968l-1.961-3.397 30.564-17.646 1.96 3.397-1.004.58-1.161-2.011a.58.58 0 0 0-.793-.212l-3.631 2.096a.58.58 0 0 0-.213.793zm-5.421.469c.478-.276.7-.788.495-1.143-.205-.354-.759-.418-1.237-.142s-.7.787-.495 1.142.759.419 1.237.143m2.505-2.304c.205.355-.016.867-.494 1.143-.479.276-1.032.212-1.237-.143s.017-.866.495-1.142 1.032-.212 1.237.142m-6.91 3.99c.205.355-.017.866-.495 1.142-.478.277-1.032.213-1.237-.142s.017-.866.495-1.142 1.032-.213 1.237.142m1.516-.019c.478-.276.7-.787.495-1.142s-.759-.418-1.237-.142-.7.787-.495 1.142.759.419 1.237.142m-6.91 3.99c.477-.276.699-.787.494-1.142s-.758-.419-1.236-.142c-.479.276-.7.787-.495 1.142s.758.418 1.236.142m2.505-2.303c.205.355-.017.866-.495 1.142s-1.032.213-1.237-.142c-.204-.355.017-.866.495-1.142.479-.276 1.032-.213 1.237.142m-6.91 3.99c.204.355-.017.866-.495 1.142-.479.276-1.032.212-1.237-.142-.205-.355.017-.867.495-1.143s1.032-.212 1.236.143m1.515-.019c.479-.276.7-.787.495-1.142s-.758-.419-1.236-.142c-.478.276-.7.787-.495 1.142s.758.418 1.236.142m-6.91 3.99c.478-.276.7-.787.495-1.142s-.759-.419-1.237-.143-.7.788-.495 1.143c.205.354.759.418 1.237.142m2.505-2.303c.205.355-.016.866-.494 1.142-.479.276-1.032.212-1.237-.142-.205-.355.017-.867.495-1.143s1.032-.212 1.236.143" clip-rule="evenodd"/><path fill="#595959" d="m53.775 46.038.503-.29.303.524-.503.29zm1.159-.668.502-.29.303.524-.503.29zm1.156-.668.503-.29.302.524-.502.29zm1.156-.668.503-.29.303.524-.503.29zm1.158-.668.503-.29.303.524-.503.29zm1.156-.668.503-.29.303.524-.503.29zm1.159-.668.503-.29.302.524-.502.29zm1.154-.667.503-.29.302.524-.502.29zm1.158-.669.503-.29.303.524-.503.29zm1.159-.668.502-.29.303.524-.503.29zm1.154-.666.503-.29.302.523-.502.29zm1.158-.669.503-.29.302.524-.502.29zm1.156-.668.503-.29.303.524-.503.29zm1.157-.667.502-.29.303.524-.503.29zm1.155-.668.503-.29.303.524-.503.29zm1.157-.668.503-.29.302.525-.502.29zm1.158-.667.503-.29.303.524-.503.29zm1.156-.669.503-.29.303.524-.503.29zm1.157-.667.502-.29.303.524-.503.29zm1.156-.668.503-.29.302.524-.502.29zm1.156-.667.503-.29.303.524-.503.29zm1.158-.668.503-.29.303.524-.503.29zm1.155-.667.502-.29.303.524-.503.29zm1.157-.669.504-.29.302.524-.502.29zm1.157-.668.503-.29.303.524-.503.29zm1.156-.667.503-.29.303.524-.503.29zM71.432 44.559l.502-.29.21.362-.503.29zm1.156-.669.503-.29.21.363-.503.29zm-2.315 1.337.503-.29.21.362-.503.29zm-1.156.668.503-.29.21.362-.503.29zm-1.157.667.504-.29.21.362-.503.29zm-1.155.668.502-.29.21.362-.503.29zm-1.158.668.502-.29.21.363-.503.29zm-1.155.667.503-.29.21.363-.503.29zm-1.158.668.503-.29.21.363-.503.29zm-1.158.668.503-.29.21.363-.504.29zm-1.156.669.502-.29.21.363-.503.29zm-1.157.667.503-.29.21.363-.503.29zm-1.156.668.503-.29.21.363-.503.29zm-1.158.668.503-.29.21.363-.504.29zm16.195-9.35.503-.29.21.363-.503.29zm1.156-.667.503-.29.21.363-.503.29zm1.157-.668.502-.29.21.363-.503.29zm1.158-.668.503-.29.21.363-.504.29zm1.156-.668.503-.29.21.363-.503.29zm1.156-.668.503-.29.21.363-.503.29zm1.157-.667.502-.29.21.363-.503.29zm1.156-.668.503-.29.21.363-.504.29zm1.156-.667.503-.29.21.363-.503.29zm1.158-.669.503-.29.21.363-.503.29zm1.156-.668.503-.29.21.363-.503.29zm1.157-.667.503-.29.21.363-.504.29z"/><path fill="#4A4A4A" d="M53.408 46.735 83.972 29.09l.194.335-30.564 17.647zm3.418 5.92L87.39 35.01l.145.252-30.564 17.646z"/><path fill="#545454" d="m53.89 47.572 29.894-17.259-.29-.502L53.6 47.069zm2.936 5.083L86.72 35.396l-.3-.52-29.894 17.26z"/><path fill="#575757" d="m58.217 51.16-1.69.975-.674-1.167 30.564-17.646.674 1.167-1.95 1.125c.231-.221.332-.48.23-.657-.137-.237-.588-.233-1.008.01-.42.242-.649.63-.512.868.102.176.377.219.684.13l-1.586.915c.23-.22.33-.48.229-.657-.137-.237-.588-.233-1.008.01-.42.242-.649.63-.512.868.102.176.377.219.684.13l-1.586.916c.23-.222.33-.481.229-.657-.137-.238-.588-.233-1.008.01-.42.241-.649.63-.512.867.102.176.377.219.684.13l-1.587.916c.23-.221.331-.481.23-.657-.137-.237-.588-.233-1.008.01-.42.242-.65.63-.512.867.101.176.377.22.683.13l-1.586.916c.23-.221.331-.48.23-.657-.138-.237-.589-.233-1.008.01-.42.242-.65.63-.512.868.101.176.376.218.683.13l-1.586.915c.23-.22.33-.48.23-.657-.138-.237-.589-.232-1.009.01s-.648.63-.512.868c.102.176.377.219.684.13l-1.586.916c.23-.222.33-.481.229-.658-.137-.236-.588-.232-1.008.01s-.649.63-.512.868c.102.176.377.219.684.13l-1.586.916c.23-.221.33-.481.229-.657-.137-.237-.588-.233-1.008.01-.42.242-.649.63-.512.867.102.176.377.22.684.13l-1.587.916c.23-.221.331-.48.23-.657-.137-.237-.588-.233-1.008.01-.42.242-.649.63-.512.867.102.177.377.22.684.13l-1.587.916c.23-.22.331-.48.23-.657-.137-.237-.589-.233-1.008.01-.42.242-.65.63-.512.868.101.176.377.219.683.13l-1.586.916c.23-.222.331-.481.23-.658-.138-.237-.589-.232-1.008.01s-.65.63-.513.868c.102.176.377.219.684.13l-1.586.916c.23-.221.33-.481.23-.657-.138-.237-.589-.233-1.009.01-.42.242-.649.63-.512.867.102.176.377.22.684.13l-1.586.916c.23-.221.33-.481.229-.657-.137-.237-.588-.233-1.008.01-.42.242-.649.63-.512.867.102.176.377.22.684.13"/><path fill="#4F4F4F" d="m91.063 28.295-1.435.829.013.019 1.262 2.186 1.464-.845zm-3.013 4.681-.013-.022-1.25-2.164-.01-.02-1.375.794 1.274 2.206z"/><rect width="0.398368" height="1.96722" x="87.9199" y="34.7031" fill="#5D5D5D" stroke="#333" stroke-width="0.475912" rx="0.199184" transform="rotate(-30 87.92 34.703)"/><path fill="#585858" d="M32.869 52.952c-.348-.602-2.53.73-2.812 1.414l-.204.802.818 1.415.235-.136.207.36 2.065-1.51-.452-2.263.149-.071z"/><path fill="#515151" stroke="#333" stroke-width="0.475912" d="m36.951 55.718 11.35-6.553.42.726-11.35 6.553z"/><path fill="#535353" d="m31.412 58.14 3.016-1.742.178.307-3.017 1.742zm-.435-.755 3.016-1.742.177.308-3.016 1.741z"/><path fill="#4C4C4C" d="m31.35 57.58 2.625-1.516.258.447-2.625 1.516z"/><path fill="#464646" d="m32.436 56.953.111-.064.258.446-.112.065zm.363-.21.112-.064.258.447-.112.064zm.365-.21.112-.064.258.447-.112.064zm.324-.187.112-.065.258.447-.112.065zm.242-.14.112-.064.258.446-.112.065zm-1.546.893-.112.064.258.447.112-.065zm-.323.186-.111.065.258.447.111-.065zm-.241.14-.113.064.258.447.112-.064z"/><path fill="#5C5C5C" fill-rule="evenodd" d="m30.343 57.37 2.833-2.072-.45-2.263 14.573-6.964a1.8 1.8 0 0 1 1.068-.12c.416.074.8.287.898.456l1.536 2.66-1.163.672-1.504-2.605c-.067-.116-.565-.408-.893-.219L35.9 53.678c-.265.153-.43.652-.266.935l1.422 2.464-5.878 3.394zm3.649-1.725-3.016 1.741.612 1.061 3.017-1.741z" clip-rule="evenodd"/><ellipse cx="33.232" cy="57.809" fill="#494949" rx="0.161248" ry="0.161247" transform="rotate(-30 33.232 57.809)"/><ellipse cx="31.5654" cy="55.1919" fill="#606060" stroke="#333" stroke-width="0.475912" rx="1.30611" ry="1.3061" transform="rotate(-30 31.565 55.192)"/><ellipse cx="31.5669" cy="55.1908" fill="#686868" rx="0.886865" ry="0.88686" transform="rotate(-30 31.567 55.19)"/><ellipse cx="31.5684" cy="55.1912" fill="#585858" rx="0.290247" ry="0.290245" transform="rotate(-30 31.568 55.191)"/><ellipse cx="31.8621" cy="55.7005" fill="#525252" rx="0.0463162" ry="0.0463159" transform="rotate(-30 31.862 55.7)"/><path stroke="#333" stroke-width="0.951824" d="M54.38 54.592c.186.323.12.525-.203 1.195-.324.67-.358.969-.193 1.255l1.761 3.05c.052.09.142.112.235.095a.25.25 0 0 1 .325.382l-6.701 5.79a.251.251 0 1 1-.328-.38l-1.695-2.955-1.332.77a1.9 1.9 0 0 0-.661.23l-2.513 1.451a1.86 1.86 0 0 0-.812.953l-1.292.746-.005-.01a.24.24 0 0 0-.325-.086l-3.752 2.166c-.56-.65-1.248-.84-1.831-.873-.584-.033-1.026.257-1.816.777-2.56 1.798-3.868 2.976-6.044 5.293l-7.342 8.184c-1.87 2.06-3.425 3.922-4.735 5.492-2.012 2.412-3.448 4.132-4.567 4.814-.63.383-1.568-.07-1.683-.205-3.7-4.312-5.43-6.831-7.754-11.878-.187-.406.107-1.36.528-1.603L29.836 63.25l1.26-.913.679-.392-.63-1.091 20.137-11.626z"/><path fill="#545454" d="M31.874 60.657a.06.06 0 0 0-.082-.022l-1.056.61a.6.6 0 0 0-.176.154l-.201.264a.06.06 0 0 0-.004.066l.503.872a.037.037 0 0 0 .06.006c.164-.182.44-.389.586-.473l.917-.53z"/><path fill="#454545" d="m31.357 62.1-.224-.388-.372.214.224.388z"/><path fill="#5E5E5E" d="M32.284 60.583a.036.036 0 0 0-.049-.013l-1.018.588a.036.036 0 0 0-.014.05l.201.347-.271.157.224.387.437-.252.117.203c.01.017.032.023.049.013l.852-.492a.036.036 0 0 0 .014-.05z"/><path stroke="#333" stroke-width="0.475912" d="m33.241 69.148-3.405-5.898L1.645 79.245c-.422.243-.715 1.197-.529 1.603 2.324 5.047 4.055 7.566 7.754 11.879.116.134 1.054.587 1.683.204 1.849-1.125 4.56-5.083 9.303-10.306l7.341-8.184c2.176-2.317 3.484-3.495 6.044-5.293Z"/><path fill="#515151" stroke="#333" stroke-width="0.475912" d="m31.46 64.013.975-.562.741 1.284-.973.562z"/><path fill="#676767" stroke="#333" stroke-width="0.475912" d="m32.275 63.172 3.436-1.983s2.485-1.308 2.978-.454-1.882 2.353-1.882 2.353l-3.435 1.983z"/><path fill="#555" stroke="#333" stroke-width="0.475912" d="M30.702 64.32a.41.41 0 0 1 .441-.336l.32.027.741 1.285-.135.29a.413.413 0 0 1-.513.215.4.4 0 0 1-.212-.179l-.594-1.028a.4.4 0 0 1-.048-.274Z"/><path stroke="#333" stroke-width="0.475912" d="m38.869 57.272 2.13-1.23.595.245.287.498a.92.92 0 0 0 .429 1.244l.18.314-2.176 1.431c-.285.18-.44.217-.587-.037l-.72-1.249z"/><path stroke="#333" stroke-width="0.475912" d="M41.907 57.66a.92.92 0 0 1 .337-1.26l7.633-4.408a.92.92 0 0 1 1.26.338c.255.441.12.996-.384 1.286l-7.617 4.398a.76.76 0 0 1-.328.1.92.92 0 0 1-.901-.455Zm9.902-4.167-9.23 5.33 1.022 1.771a.844.844 0 0 0 1.154.303l7.761-4.481a.843.843 0 0 0 .316-1.15z"/><path stroke="#333" stroke-width="0.951824" d="M49.516 66.41a.3.3 0 0 0 .09-.05l6.507-5.624 3.369 5.835a.24.24 0 0 1-.057.307l-6.145 4.943a.48.48 0 0 1-.716-.134z"/><rect width="1.11365" height="1.83132" x="45.041" y="61.3701" stroke="#333" stroke-width="0.475912" rx="0.556826" transform="rotate(-30 45.041 61.37)"/><path stroke="#333" stroke-width="0.475912" d="M31.874 60.657a.06.06 0 0 0-.082-.022l-1.056.61a.6.6 0 0 0-.176.154l-.201.264a.06.06 0 0 0-.004.066l.503.872a.037.037 0 0 0 .06.006c.164-.182.44-.389.586-.473l.342-.197.066.113c.01.017.032.023.049.013l.853-.492a.036.036 0 0 0 .013-.049l-.08-.138.306-.177.127-.296-.34-.588-.32-.039z"/><path stroke="#333" stroke-width="0.475912" d="m30.343 57.37 2.833-2.072-.45-2.263 14.573-6.964a1.8 1.8 0 0 1 1.068-.12c.416.074.8.287.898.456l1.536 2.66-1.163.672-1.504-2.605c-.067-.116-.565-.408-.893-.219L35.9 53.678c-.265.153-.43.652-.266.935l1.422 2.464-5.878 3.394zm3.649-1.725-3.016 1.741.612 1.061 3.017-1.741z" clip-rule="evenodd"/><path stroke="#333" stroke-width="0.951824" d="M30.055 54.367c.282-.685 2.464-2.017 2.812-1.414l.006.01 14.425-6.892a1.8 1.8 0 0 1 1.068-.12c.416.074.801.287.898.456l1.07 1.852q.09-.005.091-.004l.575.995-1.233.712-1.634-2.828c-.067-.116-.565-.409-.893-.219L35.9 53.678c-.265.153-.43.652-.266.935l1.52 2.632-.576.331-.97.56-.096-.167-4.334 2.502-.836-3.1.77-.563-.208-.36-.235.136-.817-1.416z"/><path fill="#595959" d="M35.035 57.14s.391-.672 1.169-1.12c.777-.45 1.555-.452 1.555-.452l.575.995-2.724 1.573z"/><ellipse cx="36.5018" cy="56.5362" fill="#4F4F4F" rx="0.403121" ry="0.403118" transform="rotate(-30 36.502 56.536)"/><path stroke="#333" stroke-width="0.475912" d="M35.035 57.14s.391-.672 1.169-1.12c.777-.45 1.555-.452 1.555-.452l.575.995-2.724 1.573z"/><path fill="#595959" d="M47.703 49.827s.391-.672 1.169-1.121c.777-.449 1.555-.451 1.555-.451l.575.995-2.724 1.572z"/><ellipse cx="49.1698" cy="49.2227" fill="#4F4F4F" rx="0.403121" ry="0.403118" transform="rotate(-30 49.17 49.223)"/><path stroke="#333" stroke-width="0.475912" d="M47.703 49.827s.391-.672 1.169-1.121c.777-.449 1.555-.451 1.555-.451l.575.995-2.724 1.572z"/><path stroke="#333" stroke-width="0.951824" d="m85.116 24.08-.656 5.851 2.582 4.473a.163.163 0 0 0 .222.06l.984-.569a.16.16 0 0 0 .072-.195l-.21-.586a1 1 0 0 0-.073-.16l-1.25-2.164a.163.163 0 0 1 .06-.222l2.572-1.485a.16.16 0 0 1 .222.06l1.518 2.629.516.053.967-.558a.163.163 0 0 0 .058-.224l-5.028-8.439c-.241-.417-.96-.984-1.748-.53-.53.306-.585.817-.673 1.627l-.002.02-.002.02-.013.115-.019.166z"/><path stroke="#333" stroke-width="0.475912" d="M89.628 27.119a.406.406 0 0 1-.15.555l-3.358 1.94a.488.488 0 0 1-.729-.477l.434-3.854a.33.33 0 0 1 .16-.246l.42-.242a.49.49 0 0 1 .667.178l.442.767c.09.155.289.209.444.119l.283-.164a.49.49 0 0 1 .667.179z"/><path fill="#464646" stroke="#333" stroke-width="0.475912" d="m88.242 25.696-.283.163a.325.325 0 0 1-.444-.12l-.442-.765a.49.49 0 0 0-.667-.18l1.128-.65a.325.325 0 0 1 .444.119l.93 1.611a.49.49 0 0 0-.666-.178Z"/><path stroke="#333" stroke-width="0.951824" d="m51.563 48.554 3.484 6.036 1.498-1.277-3.128-5.418z"/><path stroke="#333" stroke-width="0.951824" d="m53.893 47.571 30.564-17.646 2.634 4.564-30.564 17.646z" clip-rule="evenodd"/><path stroke="#333" stroke-width="0.475912" d="M75.355 37.048c.478-.277.7-.788.495-1.143s-.759-.418-1.237-.142-.7.787-.495 1.142.759.419 1.237.142Zm2.505-2.304c.206.355-.016.867-.494 1.142-.478.277-1.032.213-1.237-.142s.017-.866.495-1.142 1.032-.212 1.237.142Zm-6.91 3.99c.205.355-.017.866-.495 1.142-.478.277-1.032.213-1.236-.142-.205-.355.016-.866.495-1.142.478-.276 1.031-.213 1.236.142Zm1.516-.019c.478-.276.7-.787.495-1.142s-.758-.418-1.237-.142c-.478.276-.7.787-.495 1.142s.759.419 1.237.142Zm-6.91 3.99c.478-.276.7-.787.494-1.142-.204-.355-.758-.419-1.236-.143-.478.277-.7.788-.495 1.143.205.354.758.418 1.236.142Zm2.505-2.303c.205.355-.017.866-.495 1.142s-1.032.213-1.236-.142c-.205-.355.016-.866.495-1.142.478-.276 1.031-.213 1.236.142Zm-6.911 3.99c.206.355-.016.866-.494 1.142s-1.032.212-1.237-.142c-.205-.355.017-.867.495-1.143s1.032-.212 1.237.143Zm1.517-.019c.478-.276.7-.787.494-1.142-.204-.355-.758-.419-1.236-.143s-.7.788-.495 1.143c.205.354.758.418 1.237.142Zm-6.911 3.99c.478-.276.7-.788.495-1.142-.205-.355-.759-.419-1.237-.143s-.7.788-.495 1.142c.205.355.759.42 1.237.143Zm2.506-2.303c.205.354-.017.866-.495 1.142s-1.032.212-1.237-.142c-.205-.355.017-.867.495-1.143s1.032-.212 1.237.143Zm26.88-10.445c.23-.222.33-.481.229-.657-.137-.238-.588-.233-1.008.009s-.649.63-.512.868c.102.176.377.219.684.13zm-2.193 1.265c.23-.22.33-.48.229-.656-.137-.237-.588-.233-1.008.01-.42.242-.649.63-.512.867.102.176.377.22.684.13zm-2.194 1.267c.23-.221.331-.48.23-.657-.137-.237-.588-.233-1.008.01-.42.242-.65.63-.512.867.102.177.377.22.683.13zm-2.193 1.266c.23-.221.331-.48.23-.657-.137-.237-.589-.233-1.008.01-.42.242-.65.63-.512.868.101.176.376.219.683.13zM76.37 40.68c.23-.222.33-.481.228-.658-.137-.237-.588-.232-1.007.01-.42.242-.65.63-.513.868.102.176.377.219.684.13zm-2.194 1.266c.23-.221.33-.481.23-.657-.138-.237-.589-.233-1.009.01-.42.242-.649.63-.512.867.102.176.377.22.684.13zm-2.193 1.266c.23-.221.33-.481.229-.657-.137-.237-.588-.233-1.008.01-.42.242-.649.63-.512.867.102.176.377.22.684.13zm-2.193 1.266c.23-.221.33-.48.229-.657-.137-.237-.588-.233-1.008.01-.42.242-.649.63-.512.868.102.176.377.219.684.13zm-2.194 1.267c.23-.222.331-.481.23-.658-.137-.237-.588-.232-1.008.01s-.65.63-.512.868c.101.176.377.219.683.13zm-2.193 1.265c.23-.22.331-.48.23-.656-.137-.237-.589-.233-1.008.01-.42.242-.65.63-.513.867.102.176.377.22.684.13zm-2.193 1.267c.23-.221.33-.481.23-.657-.138-.237-.589-.233-1.009.01-.42.242-.648.63-.512.867.102.176.377.22.684.13zm-2.193 1.266c.23-.221.33-.48.229-.657-.137-.237-.588-.233-1.008.01-.42.242-.649.63-.512.868.102.176.377.218.684.13zm-2.193 1.267c.23-.222.33-.482.229-.658-.137-.237-.588-.233-1.008.01-.42.242-.649.63-.512.868.102.176.377.219.684.13zm20.792-16.243 1.161 2.011 4.637-2.677-1.161-2.01a.58.58 0 0 0-.793-.213l-3.631 2.096a.58.58 0 0 0-.213.793Z"/><path fill="#5F5F5F" d="m55.853 50.969 25.305-14.61-1.29-2.235-25.305 14.61z"/><path fill="#595959" d="m80.352 36.675.531-.306-1.16-2.011-.532.306zm-1.16.67.531-.307-1.161-2.01-.53.306zm-1.158.669.53-.307-1.16-2.01-.531.306zm-1.16.67.53-.307-1.16-2.01-.531.306zm-1.158.669.53-.307-1.16-2.01-.531.306zm-1.16.669.53-.307-1.16-2.01-.532.306zm-1.161.671.531-.307-1.16-2.01-.532.306zm-1.16.669.531-.307-1.161-2.01-.53.306zm-1.158.669.53-.306-1.16-2.01-.531.305zm-1.16.669.53-.306-1.16-2.011-.531.306zm-1.16.67.53-.307-1.16-2.011-.531.306zm-1.158.67.53-.307-1.16-2.011-.531.306zm-1.161.668.531-.306-1.16-2.011-.532.306zm-1.16.671.53-.306-1.16-2.011-.53.306zm-1.16.669.53-.306-1.16-2.011-.531.306zm-1.158.669.53-.306-1.16-2.011-.531.306zm-1.16.67.53-.307-1.16-2.01-.531.306zm-1.159.669.531-.307-1.16-2.01-.532.306zm-1.16.669.531-.307-1.16-2.01-.532.306zm-1.16.671.53-.307-1.16-2.01-.53.306zm-1.16.669.53-.307-1.16-2.01-.531.306zm-1.161.67.532-.307-1.161-2.01-.531.306z"/><path stroke="#333" stroke-width="0.951824" d="m55.853 50.969 25.305-14.61-1.29-2.235-25.305 14.61z"/><path stroke="#333" stroke-width="0.475912" d="m54.278 45.748-.503.29.21.363-.578.334.484.838 29.893-17.259-.29-.503.67-.387-.193-.335-.567.327-.21-.363-.502.29.21.363-.654.378-.21-.363-.502.29.21.363-.655.378-.21-.364-.502.29.21.364-.654.377-.21-.363-.502.29.21.363-.655.378-.21-.363-.502.29.21.363-.654.378-.21-.363-.503.29.21.363-.654.377-.21-.363-.502.29.21.364-.654.377-.21-.363-.503.29.21.363-.654.378-.21-.363-.502.29.21.363-.655.378-.21-.363-.502.29.21.363-.654.377-.21-.363-.503.29.21.364-.654.377-.21-.363-.502.29.21.363-.654.378-.21-.363-.503.29.21.363-.654.378-.21-.363-.502.29.21.363-.654.377-.21-.363-.503.29.21.364-.654.377-.21-.363-.502.29.21.363-.655.378-.21-.363-.503.29.21.364-.654.377-.21-.363-.502.29.21.364-.655.377-.21-.363-.502.29.21.363-.655.378-.21-.363-.502.29.21.363-.654.378-.21-.363-.503.29.21.363-.654.378-.21-.363-.502.29.21.363-.655.378-.21-.364-.502.29.21.364-.655.377-.21-.363-.502.29.21.364-.654.377-.21-.363-.503.29.21.364-.654.377zm17.362-.826-.21-.363-.654.378.21.363-.503.29-.21-.363-.654.378.21.363-.503.29-.21-.363-.654.378.21.363-.503.29-.21-.363-.654.377.21.364-.503.29-.21-.363-.653.377.21.363-.503.29-.21-.362-.654.377.21.363-.503.29-.21-.363-.654.378.21.363-.503.29-.21-.363-.654.378.21.363-.503.29-.21-.363-.653.378.21.363-.504.29-.21-.363-.653.378.21.363-.503.29-.21-.363-.654.377.21.364-.503.29-.21-.363-.654.377.21.363-.503.29-.21-.362-.577.333-.145-.251-.3-.52 29.893-17.258.3.519.67-.387.145.251-.566.327.21.363-.503.29-.21-.362-.654.377.21.363-.503.29-.21-.363-.653.378.21.363-.503.29-.21-.363-.654.378.21.363-.503.29-.21-.363-.653.377.21.363-.503.29-.21-.362-.654.377.21.363-.503.29-.21-.363-.653.378.21.363-.503.29-.21-.363-.654.378.21.363-.503.29-.21-.363-.653.377.21.363-.504.29-.21-.362-.653.377.21.363-.503.29-.21-.363-.654.378.21.363-.503.29-.21-.363-.653.377.21.364-.503.29-.21-.363-.654.377.21.363-.503.29-.21-.363-.653.378.21.363z"/><path fill="#5C5C5C" d="m56.97 52.906 18.713-10.803.565.977-18.713 10.804z"/><path fill="#4F4F4F" d="m57.445 53.376.531-.306.242.419-.53.306z"/><path fill="#585858" d="m58.258 52.163.59 1.023a.258.258 0 1 0 .447-.258l-.59-1.023zm1.528-.883.59 1.023a.258.258 0 1 0 .447-.258l-.59-1.022zm1.528-.881.59 1.022a.258.258 0 1 0 .447-.258l-.59-1.022zm1.529-.883.59 1.023a.258.258 0 1 0 .447-.258l-.59-1.023zm1.527-.882.591 1.022a.258.258 0 0 0 .447-.258l-.59-1.022zm1.529-.882.59 1.022a.258.258 0 0 0 .447-.258l-.59-1.023zm1.528-.882.59 1.022a.258.258 0 1 0 .447-.258l-.59-1.023zm1.528-.883.59 1.022a.258.258 0 1 0 .448-.258l-.59-1.022zm1.529-.882.59 1.022a.258.258 0 1 0 .447-.258l-.59-1.022zm1.528-.883.59 1.023a.258.258 0 1 0 .447-.258l-.59-1.023zm1.528-.882.59 1.022a.258.258 0 0 0 .447-.258l-.59-1.022zm1.528-.882.59 1.022a.258.258 0 1 0 .448-.258l-.59-1.022z"/><path fill="#555" d="m57.543 53.545.53-.306.146.25-.53.307z"/><path stroke="#333" stroke-width="0.475912" d="m56.97 52.906.565.978 1.286-.743.026.045a.258.258 0 0 0 .447-.258l-.026-.045 1.081-.624.026.045a.258.258 0 0 0 .447-.258l-.026-.045 1.081-.624.026.045a.258.258 0 1 0 .447-.258l-.026-.045 1.082-.625.026.045a.258.258 0 1 0 .447-.258l-.026-.045 1.08-.624.027.045a.258.258 0 0 0 .447-.258l-.026-.045 1.081-.624.026.045a.258.258 0 0 0 .447-.258l-.026-.045 1.081-.625.026.045a.258.258 0 1 0 .447-.258l-.026-.045 1.082-.624.025.045a.258.258 0 0 0 .447-.258l-.026-.045 1.082-.624.026.045a.258.258 0 0 0 .447-.258l-.026-.045 1.081-.625.026.045a.258.258 0 1 0 .447-.258l-.026-.044 1.081-.625.026.045a.258.258 0 1 0 .447-.258l-.026-.045 1.082-.624.025.045a.258.258 0 1 0 .447-.258l-.026-.045.17-.098-.565-.977z"/><rect width="22.2525" height="5.54691" x="53.1973" y="47.8086" fill="#5C5C5C" rx="0.951824" transform="rotate(-30 53.197 47.809)"/><rect width="0.515994" height="5.15991" x="55.2031" y="46.874" fill="#585858" rx="0.257997" transform="rotate(-30 55.203 46.874)"/><rect width="0.515994" height="5.15991" x="56.7285" y="45.9932" fill="#585858" rx="0.257997" transform="rotate(-30 56.728 45.993)"/><rect width="0.515994" height="5.15991" x="58.2559" y="45.1113" fill="#585858" rx="0.257997" transform="rotate(-30 58.256 45.111)"/><rect width="0.515994" height="5.15991" x="59.7832" y="44.2295" fill="#585858" rx="0.257997" transform="rotate(-30 59.783 44.23)"/><rect width="0.515994" height="5.15991" x="61.3086" y="43.3486" fill="#585858" rx="0.257997" transform="rotate(-30 61.309 43.349)"/><rect width="0.515994" height="5.15991" x="62.8359" y="42.4668" fill="#585858" rx="0.257997" transform="rotate(-30 62.836 42.467)"/><rect width="0.515994" height="5.15991" x="64.3613" y="41.5859" fill="#585858" rx="0.257997" transform="rotate(-30 64.361 41.586)"/><rect width="0.515994" height="5.15991" x="65.8887" y="40.7041" fill="#585858" rx="0.257997" transform="rotate(-30 65.889 40.704)"/><rect width="0.515994" height="5.15991" x="67.4141" y="39.8242" fill="#585858" rx="0.257997" transform="rotate(-30 67.414 39.824)"/><rect width="0.515994" height="5.15991" x="68.9414" y="38.9424" fill="#585858" rx="0.257997" transform="rotate(-30 68.941 38.942)"/><rect width="0.515994" height="5.15991" x="70.4688" y="38.0605" fill="#585858" rx="0.257997" transform="rotate(-30 70.469 38.06)"/><rect width="0.515994" height="5.15991" x="71.9941" y="37.1797" fill="#585858" rx="0.257997" transform="rotate(-30 71.994 37.18)"/><path fill="#4F4F4F" d="m54.77 47.57-.53.306.671 1.164a.903.903 0 0 0 .85 1.471l.671 1.164.531-.307-.672-1.163a.903.903 0 0 0-.85-1.472z"/><path fill="#555" d="m54.4 48.156.531-.306 1.87 3.24-.53.306z"/><rect width="22.2525" height="5.54691" x="53.1973" y="47.8086" stroke="#333" stroke-width="0.951824" rx="0.951824" transform="rotate(-30 53.197 47.809)"/></g><defs><clipPath id="a"><path fill="#fff" d="M0 0h110v110H0z"/></clipPath></defs></svg>