<svg xmlns="http://www.w3.org/2000/svg" xml:space="preserve" id="svg98" width="148.40437" height="24.299999" x="0px" y="0px" version="1.1" viewBox="0 0 148.40437 24.299999"><style id="style1" type="text/css">.st0{fill:#232323}.st0,.st1,.st4{stroke:#171717;stroke-width:3;stroke-miterlimit:6.51}.st1{fill:#464646}.st4{fill:#515151}.st5{fill:#171717}.st6{fill:#454545}</style><g id="g967" transform="translate(-56.796 -31.5)"><path id="rect2" d="M118.5 50.4v2.7c0 .7-.5 1.2-1.2 1.2h-6.8c-.7 0-1.2-.5-1.2-1.2v-2.7c0-.7.5-1.2 1.2-1.2h6.8c.6 0 1.2.6 1.2 1.2z" class="st0"/><g id="g15"><path id="rect6" d="M155.5 34.2v2.2c0 .7-.5 1.2-1.2 1.2h-26.9c-.7 0-1.2-.5-1.2-1.2v-2.2c0-.7.5-1.2 1.2-1.2h26.9c.6 0 1.2.6 1.2 1.2z" class="st0"/><path id="rect96" d="M155.5 49.9v2.2c0 .7-.5 1.2-1.2 1.2h-26.9c-.7 0-1.2-.5-1.2-1.2v-2.2c0-.7.5-1.2 1.2-1.2h26.9c.7 0 1.2.5 1.2 1.2z" class="st0"/></g><path id="rect8" d="M191.5 41.9v2.3c0 .7-.6 1.3-1.3 1.3h-39.1c-.7 0-1.3-.6-1.3-1.3v-2.3c0-.7.6-1.3 1.3-1.3h39.1c.7.1 1.3.6 1.3 1.3z" class="st1"/><path id="rect10" d="M180.3 41.9v2.5c0 1.3-1.1 2.2-2.2 2.2H170c-1.3 0-2.2-1.1-2.2-2.2v-2.5c0-1.3 1.1-2.2 2.2-2.2h8.1c1.1-.1 2.2 1 2.2 2.2z" style="fill:#333;stroke:#171717;stroke-width:3;stroke-miterlimit:6.51"/><path id="rect12" d="M174.4 38.8v8.5c0 1.3-1.1 2.3-2.4 2.3h-45.5c-1.3 0-2.3-1.1-2.3-2.3v-8.5c0-1.3 1.1-2.3 2.3-2.3H172c1.4 0 2.4 1 2.4 2.3z" style="fill:#5c5c5c;stroke:#171717;stroke-width:3;stroke-miterlimit:6.51"/><path id="path1" d="M109.1 45.5H97.2c-1.1 0-1.9-.8-1.9-1.9v-1.2c0-1.1.8-1.9 1.9-1.9h11.9c1.1 0 1.9.8 1.9 1.9v1.2c0 1.1-.8 1.9-1.9 1.9z" class="st4"/><path id="rect14" d="M172.2 43.1c0 .8-.5 1.3-1.2 1.3h-3.3c-.7 0-1.2-.5-1.2-1.2v-.1c0-.7.5-1.2 1.2-1.2h3.3c.6 0 1.2.5 1.2 1.2" class="st5"/><path id="rect76" d="M153.4 41.2h1.4v3.7h-1.4z" class="st6"/><g id="g1"><path id="rect54" d="M126.2 41.3h1.4V45h-1.4z" class="st6"/><path id="rect56" d="M129.8 41.3h1.4V45h-1.4z" class="st6"/><path id="rect64" d="M133.3 41.3h1.4V45h-1.4z" class="st6"/><path id="rect66" d="M136.8 41.3h1.4V45h-1.4z" class="st6"/><path id="rect68" d="M140.3 41.3h1.4V45h-1.4z" class="st6"/><path id="rect70" d="M143.9 41.4h1.4v3.7h-1.4z" class="st6"/><path id="rect72" d="M147.4 41.4h1.4v3.7h-1.4z" class="st6"/><path id="rect74" d="M150.5 41.4h1.4v3.7h-1.4z" class="st6"/></g><path id="rect80" d="M203.7 41v4.3c0 .7-.6 1.3-1.3 1.3H190c-.7 0-1.3-.6-1.3-1.3V41c0-.7.6-1.3 1.3-1.3h12.5c.6 0 1.2.5 1.2 1.3z" class="st1"/><path id="path90" d="M109.599 43.2c0 2.754-2.223 4.999-5.045 4.999H60.262c-1.111 0-1.966-1.122-1.966-2.347v-5.204c0-1.326.94-2.347 1.966-2.347h44.292c2.822-.204 5.045 2.143 5.045 4.898z" class="st4"/><path id="rect92" d="M122.8 38.8v8.5c0 1.3-1.1 2.3-2.3 2.3H93.2c-1.3 0-2.3-1.1-2.3-2.3v-8.5c0-1.3 1.1-2.3 2.3-2.3h27.2c1.3 0 2.4 1 2.4 2.3z" class="st4"/><g id="g14"><g id="g5"><ellipse id="ellipse16" cx="152.3" cy="40" class="st5" rx="2.0999999" ry="1.2"/><ellipse id="ellipse20" cx="157.2" cy="39.799999" class="st5" rx="2.0999999" ry="1.2"/><ellipse id="ellipse24" cx="162" cy="39.799999" class="st5" rx="2.0999999" ry="1.2"/><ellipse id="ellipse28" cx="166.8" cy="39.799999" class="st5" rx="2.0999999" ry="1.2"/><ellipse id="ellipse32" cx="128.2" cy="40.099998" class="st5" rx="2.0999999" ry="1.2"/><ellipse id="ellipse36" cx="133.10001" cy="40.099998" class="st5" rx="2.0999999" ry="1.2"/><ellipse id="ellipse40" cx="137.8" cy="40" class="st5" rx="2.0999999" ry="1.2"/><ellipse id="ellipse44" cx="142.7" cy="40" class="st5" rx="2.0999999" ry="1.2"/><ellipse id="ellipse50" cx="147.39999" cy="40" class="st5" rx="2.0999999" ry="1.2"/></g><g id="g13"><ellipse id="ellipse5" cx="152.3" cy="46.200001" class="st5" rx="2.0999999" ry="1.2"/><ellipse id="ellipse6" cx="157.2" cy="46.099998" class="st5" rx="2.0999999" ry="1.2"/><ellipse id="ellipse7" cx="162" cy="46.099998" class="st5" rx="2.0999999" ry="1.2"/><ellipse id="ellipse8" cx="166.8" cy="46.099998" class="st5" rx="2.0999999" ry="1.2"/><ellipse id="ellipse9" cx="128.2" cy="46.299999" class="st5" rx="2.0999999" ry="1.2"/><ellipse id="ellipse10" cx="133.10001" cy="46.299999" class="st5" rx="2.0999999" ry="1.2"/><ellipse id="ellipse11" cx="137.8" cy="46.200001" class="st5" rx="2.0999999" ry="1.2"/><ellipse id="ellipse12" cx="142.7" cy="46.200001" class="st5" rx="2.0999999" ry="1.2"/><ellipse id="ellipse13" cx="147.39999" cy="46.200001" class="st5" rx="2.0999999" ry="1.2"/></g></g><path id="path2" d="M116.2 46.2H96.7c-1 0-1.8-.8-1.8-1.9V42c0-1.1.8-1.9 1.8-1.9h19.5c1 0 1.8.8 1.8 1.9v2.2c0 1.1-.8 2-1.8 2z" class="st4"/><path id="rect52" d="M155.7 41.4v3.5c0 .5-.4.8-.8.8h-28.8c-.5 0-.8-.3-.8-.8v-3.5c0-.5.3-.8.8-.8H155c.4.1.7.5.7.8z" style="fill:none;stroke:#171717;stroke-width:3;stroke-miterlimit:6.51"/></g></svg>