<svg xmlns="http://www.w3.org/2000/svg" width="110" height="110" fill="none" viewBox="0 0 110 110"><g clip-path="url(#a)"><path fill="#514C49" stroke="#363330" stroke-linecap="round" stroke-miterlimit="3.99393" stroke-width="1.83249" d="M45.74 33.698 89.8 8.26a.23.23 0 0 0 .088-.315l-2.11-3.657a.23.23 0 0 0-.318-.081l-5.735 3.31-.361.53-37.825 21.838z"/><path fill="#45413F" fill-rule="evenodd" stroke="#353230" stroke-linecap="round" stroke-miterlimit="3.99393" stroke-width="1.83249" d="M31.944 63.045c1.828-.367 5.446-2.254 5.446-2.254 1.01-.29 1.593-.082 1.91.348.325.44.304 1.102.11 2.1-.407 2.111.52 4.457 2.128 5.76 1.934 1.568 4.768 1.797 6.526.203.36-.327-.018-.826-.458-.624-.834.383-1.302.264-2.584-.054-1.354-.335-2.597-1.317-3.167-2.704-.599-1.454-.65-2.818-.035-3.94.877-1.605 1.715-2.687 2.96-3.896l-1.272-1.47-9.324 2.826z" clip-rule="evenodd"/><path fill="#5D5855" stroke="#363330" stroke-linecap="round" stroke-miterlimit="3.99393" stroke-width="1.83249" d="M21.76 63.567c-.929-1.715-2.23-3.212-2.437-5.426-2.012-1.076-3.642-.806-5.463-1.208-1.824-.175-2.549.869-2.941 2.365-.393 1.497-1.366 2.763-2.058 3.564s-.938 1.217-1.31 1.96l-.871-.36 1.793-3.49c1.287-2.074 1.137-3.655.363-5.022l-3.569-1.81.325-1.533 1.38.256.39-1.976.422.087 3.763-5.672.871.284-2.615 5.801 17.143 3.544z"/><path fill="#79726D" fill-rule="evenodd" d="M13.504 74.48c.015-3.478-.968-6.613-1.944-9.608 10.29-4.595 13.586-6.404 11.901-14.87l-4.584-9.665 1.684-.964c.853.19 2.345-.672 2.895-.99a14 14 0 0 1 1.492-.769l18.015-10.26c2.922-1.497 6.43-3.09 8.092-2.65l5.636 9.761c-2.302 1.403-4.262 3.07-2.662 8.252.085.546.41 1.05.734 1.554.675 1.048 1.35 2.096-.13 3.523l-9.442 6.694c-4.697 3.25-5.732 4.118-6.967 7.003-4.647 3.382-7.697 8.124-9.433 13.168-7.687-6.937-11.833-3.338-15.175-.177zm39.424-28.33L42.781 28.573l-17.184 9.89 10.565 18.301z" clip-rule="evenodd"/><path fill="#6E6863" d="M27.362 73.453c-1.244-.967-2.388-1.644-3.447-2.088l6.7-17.085 3.728 1.371z"/><path fill="#484442" d="m31.903 49.383 17.172-9.915-2.561-4.435-17.172 9.914z"/><path fill="#45413F" d="m45.973 34.092-.827-.052-2.201-3.813.368-.742z"/><path fill="#5D5855" fill-rule="evenodd" stroke="#363330" stroke-linecap="round" stroke-miterlimit="3.99393" stroke-width="1.83249" d="m53.757 29.372 2.396 4.152L66.585 27.5l-2.398-4.152z" clip-rule="evenodd"/><path fill="#6B6561" fill-rule="evenodd" stroke="#363330" stroke-linecap="round" stroke-miterlimit="3.99393" stroke-width="1.83249" d="m53.756 29.37-2.61-4.518 10.432-6.023 2.61 4.52z" clip-rule="evenodd"/><path fill="#433F3D" stroke="#363330" stroke-linecap="round" stroke-miterlimit="3.99393" stroke-width="1.83249" d="m82.051 7.329 5.204-3.005c-.74-1.222-2.37-1.609-3.64-.875l.428.742-2.36 2.5z"/><path fill="#534E4B" stroke="#363330" stroke-linecap="round" stroke-miterlimit="3.99393" stroke-width="1.83249" d="m71.487 22.408.83 1.438-5.883 3.396-.83-1.437z"/><path fill="#585350" fill-rule="evenodd" d="m35.897 55.307 3.424-2.053-.25-.446 12.562-7.449-8.992-15.658-12.683 7.322-.327-.566-3.463 1.999z" clip-rule="evenodd"/><path fill="#5D5855" stroke="#363330" stroke-linecap="round" stroke-miterlimit="3.99393" stroke-width="1.83249" d="m39.069 52.812-9.114-15.786 12.683-7.322L51.75 45.49z"/><path fill="#484442" fill-rule="evenodd" d="m27.135 37.898 1.622-.936 1.39 2.408c-.31.692-.869 1.015-1.622.937zm7.424 12.856 1.622-.937 1.416 2.454c-.31.691-.869 1.014-1.622.936zm-3.698-6.404 1.623-.936 2.042 3.538c-.31.692-.869 1.015-1.622.937zm6.869-5.764 3.416-1.972c1.846-1.066 3.649-1.376 4.041-.695s-.776 2.086-2.623 3.152l-3.415 1.972c-1.846 1.065-3.648 1.376-4.041.695s.777-2.086 2.623-3.152" clip-rule="evenodd"/><path fill="#484442" d="m45.257 43.735-3.415 1.972c-1.84 1.063-3.095 2.334-2.803 2.84s2.02.055 3.861-1.008l3.415-1.971c1.84-1.063 3.096-2.334 2.804-2.84-.293-.507-2.021-.055-3.862 1.007"/><path fill="#484442" fill-rule="evenodd" d="M42 30.393c.695-.401-.778 2.087-2.624 3.152l-3.415 1.972c-1.846 1.066-4.737 1.097-4.041.696z" clip-rule="evenodd"/><path fill="#484442" stroke="#363330" stroke-linecap="round" stroke-miterlimit="3.99393" stroke-width="1.83249" d="m71.327 22.132 1.15 1.992 3.27-1.747a1.95 1.95 0 0 0-.341-1.272 1.95 1.95 0 0 0-.93-.932z"/><path fill="#6B6561" d="m46.667 53.44 7.97-5.649s.676.401.669.7c-.008.33-.101.62-.203.936-.202.627-.093 1.08.237 2.452.183.76 1.034 1.621 1.572 2.48.384.614.948 1.394 1.206 2.332.553 2.009.71 3.968-.163 6.092-.59 1.438-2.064 3.794-3.908 5.606-1.684 1.656-4.184 3.46-5.936 4.308-2.49 1.205-7.26 2.621-11.778-.68-2.54-1.857-4.214-2.175-6.17-.697 1.703-3.533 4.135-6.781 7.405-9.335-2.4 10.878 3.673 10.394 7.9 9.493 2.112-.45 5.801-2.883 8.091-5.708 2.29-2.824 2.966-5.572 2.425-8.181-.814-3.923-4.266-5.767-8.41-3.45z"/><path stroke="#363330" stroke-linecap="round" stroke-miterlimit="3.99393" stroke-width="1.83249" d="m35.897 55.307 3.424-2.053-.25-.446 12.562-7.449-8.992-15.658-12.683 7.322-.327-.566-3.463 1.999z" clip-rule="evenodd"/><path fill="#403D3A" stroke="#363331" stroke-miterlimit="3.99393" stroke-width="1.83249" d="M28.81 105.208c-1.012-.292-2.44-2.093-2.44-2.093l3.634-1.61s.335 1.993-.087 3.057l1.165 2.017c.173.3.065.687-.241.864a.634.634 0 0 1-.869-.223z"/><path stroke="#363330" stroke-width="3.66498" d="M11.56 64.872c.976 2.995 1.959 6.13 1.944 9.609h.112c3.342-3.16 7.487-6.759 15.175.178a31 31 0 0 1 1.369-3.336c1.955-1.478 3.63-1.16 6.17.697 4.517 3.302 9.288 1.885 11.777.68 1.752-.847 4.252-2.652 5.937-4.308 1.843-1.812 3.318-4.168 3.908-5.605.872-2.124.716-4.084.163-6.093-.22-.795-.659-1.478-1.022-2.042l-.185-.29c-.185-.295-.406-.59-.625-.88l-.003-.005-.002-.003c-.417-.554-.822-1.095-.942-1.592v-.004c-.328-1.363-.439-1.823-.237-2.448.102-.316.195-.605.203-.935.003-.103-.077-.22-.182-.327-.199-.203-.487-.374-.487-.374 1.48-1.427.805-2.475.13-3.523-.325-.504-.648-1.007-.733-1.553-1.6-5.183.36-6.85 2.661-8.253l-5.636-9.76c-1.662-.44-5.17 1.152-8.092 2.65l-18.015 10.26c-.49.209-.941.45-1.492.768-.55.318-2.042 1.179-2.895.99l-1.684.964L23.461 50c1.685 8.467-1.611 10.276-11.901 14.87Z"/><path stroke="#363330" stroke-width="1.83249" d="M37.568 61.986c.278-.222.368-.286.659-.497 1.235-2.886 2.27-3.753 6.966-7.004l1.473-1.044.908.7c4.143-2.319 7.595-.474 8.408 3.448.541 2.61-.133 5.357-2.424 8.182-2.29 2.824-5.98 5.257-8.092 5.708-4.226.9-10.299 1.385-7.898-9.493Z"/><path fill="#66381A" fill-rule="evenodd" stroke="#512D15" stroke-linecap="round" stroke-miterlimit="3.99393" stroke-width="3.66498" d="M21.034 103.995c5.379-.041 9.844-1.89 13.147-6.04-5.145-6.869-8.421-14.83-5.386-23.297-7.817-7.055-11.972-3.217-15.344-.02-1.144 11.21 2.663 20.5 7.583 29.357Z" clip-rule="evenodd"/><path fill="#5E3417" fill-rule="evenodd" d="m22 91.864 2.73-5.069-4.434-2.94-2.65 4.858z" clip-rule="evenodd"/><path fill="#88593A" d="M21.582 88.432a.72.72 0 0 0 .275-.981.72.72 0 0 0-.988-.254.72.72 0 0 0-.274.982.72.72 0 0 0 .987.253"/><path stroke="#363330" stroke-linecap="round" stroke-miterlimit="3.99393" stroke-width="1.83249" d="M52.927 46.148 42.78 28.572l-17.184 9.89L36.16 56.764z"/><path fill="#5D5855" fill-rule="evenodd" stroke="#363330" stroke-linecap="round" stroke-miterlimit="3.99393" stroke-width="1.83249" d="m32.315 57.495-.885.51-2.563-4.155c.883-1.458 1.232-2.79.327-4.332l-4.655-8.063 3.86-2.228.854 1.48L27 42.05l6.5 11.612 1.05-.444.22.363-.355.223.9 1.57-2.8 1.615z" clip-rule="evenodd"/></g><defs><clipPath id="a"><path fill="#fff" d="M0 0h110v110H0z"/></clipPath></defs></svg>