<svg xmlns="http://www.w3.org/2000/svg" id="Layer_2" width="65.57" height="24.8" data-name="Layer 2" viewBox="0 0 65.57 24.8"><defs><style>.cls-1{fill:#3d3d3d}.cls-3{fill:#595959;stroke-linecap:round;fill-rule:evenodd;stroke:#171717;stroke-width:3px}</style></defs><g id="Layer_14" data-name="Layer 14"><g id="g67"><path id="polygon6" d="m33.22 23.23-8.79-.08c-.36 0-.69-.21-.85-.53l-3.51-6.87h1.25V9.02h-1.25l3.51-6.86c.16-.32.49-.52.85-.53l8.79-.08c.49 0 .9.35.96.84l.89 6.55-1.25.02v6.86l1.25.02-.89 6.55c-.07.48-.48.84-.96.84Z" class="cls-3"/><path id="rect56" d="M26.58 1.5h11.67c.11 0 .2.13.2.29v21.22c0 .16-.09.29-.2.29H26.58c-.11 0-.2-.13-.2-.29V1.79c0-.16.09-.29.2-.29Z" class="cls-3"/><path id="rect57" d="M31.42 19.03h2.52c1.12 0 2.03.2 2.03.44s-.91.44-2.03.44h-2.52c-1.12 0-2.03-.2-2.03-.44s.91-.44 2.03-.44" class="cls-1"/><path id="rect58" d="M31.42 4.51h2.52c1.12 0 2.03.2 2.03.44s-.91.44-2.03.44h-2.52c-1.12 0-2.03-.2-2.03-.44s.91-.44 2.03-.44" class="cls-1"/><path id="path58" d="M1.51 17.13c-.07.77.28 1.09.64 1.4 4.75 1.83 9.66 1.52 14.55.87.47-.07.87-.45 1.27-.88l.35-11.85C13.16 3.9 4.54 4.86 2.14 6.24c-.47.19-.5.77-.58 1.58l-.06 9.3h0Z" style="stroke-linecap:round;fill-rule:evenodd;stroke-width:3px;fill:#803300;stroke:#2e1300"/><path id="path67" d="m39.07 16.16 23.85-.14c1.81-2.26 1.24-4.98-.07-7.06l-23.7-.32z" class="cls-3"/><path id="path59" d="m7.46 8.31 3.69-.8 9.45.39c.75.03 1.34.65 1.34 1.4v6.58c0 .78-.63 1.41-1.41 1.4l-9.16-.03-3.97-1.29a.525.525 0 0 1-.37-.5c-.02-1.13-.06-4.51 0-6.65 0-.25.19-.46.43-.51Z" style="stroke-linecap:round;fill-rule:evenodd;stroke:#171717;stroke-width:3px;fill:#737373"/><path id="rect14" d="M21.57 8.55h25.12c.46 0 .83.37.83.83v6.03c0 .46-.37.83-.83.83H21.57z" style="stroke-linecap:round;stroke:#171717;stroke-width:3px;fill:#737373"/><path id="path61" d="M19.74 10.46c-1.28 0-2.55.21-3.83.34-.25.03-.45.24-.45.49v1.13l-.01 1.09c0 .26.19.47.45.49 1.61.17 3.23.46 4.83.28.25-.03.44-.25.44-.5v-1.09h0v-.6h0V11c0-.25-.19-.48-.44-.5-.33-.04-.66-.05-.99-.06z" style="fill:#595959;stroke-linecap:round;fill-rule:evenodd;stroke:#171717;stroke-width:1.5px"/><path id="path63" d="m43.07 16.05 2.89.07c.55.01 1.02-.41 1.05-.96.1-1.82.09-3.65-.04-5.5-.03-.53-.48-.94-1.01-.95l-2.84-.04c-.57 0-1.03.45-1.03 1.02v5.34c-.02.55.43 1.01.98 1.02Z" class="cls-3"/><path id="rect67" d="M56.83 11.15h3.13c.22 0 .39.23.39.51v1.47c0 .28-.17.51-.39.51h-3.13c-.22 0-.39-.23-.39-.51v-1.47c0-.28.17-.51.39-.51" style="fill-rule:evenodd;fill:#303030"/><path id="path19" d="M11.16 7.53s-2.35 4.05.23 9.75" style="stroke-linecap:round;stroke:#171717;stroke-width:1.5px;fill:none"/></g></g></svg>