<svg xmlns="http://www.w3.org/2000/svg" width="153.78313" height="17.545773" viewBox="0 0 40.688453 4.642319"><g transform="translate(-53.539 -160.872)scale(.26458)"><path d="m238.669 609.59-31.377.023-.022 3.238h-.005l.003.416-.003.415h.005l.022 7.935 31.377.024c4.959-.702 8.154-.837 13.08.018l-.137-12.072c-4.716.684-7.984.705-12.943.003" style="fill:#70401b;fill-opacity:1;fill-rule:evenodd;stroke:#261608;stroke-width:3;stroke-linecap:round;stroke-linejoin:round;stroke-dasharray:none;stroke-opacity:1"/><path d="M252.419 609.52h21.45c.435 0 .784.327.784.733v10.74c0 .405-.35.731-.784.731h-21.45c-.435 0-.624-.355-.784-.732-.874-2.053-.903-8.747 0-10.739.169-.374.35-.732.784-.732" style="fill:#4a4a4a;fill-opacity:1;fill-rule:evenodd;stroke:#171717;stroke-width:3;stroke-linecap:round;stroke-linejoin:round"/><path d="M270.16 611.605h4.071v8.035h-4.072z" style="fill:none;fill-opacity:1;fill-rule:evenodd;stroke:#171717;stroke-width:1.5;stroke-linecap:round;stroke-linejoin:round;stroke-dasharray:none;stroke-opacity:1"/><path d="M270.338 614.586h3.408v2.073h-3.408z" style="fill:#707070;fill-opacity:1;fill-rule:evenodd;stroke:#171717;stroke-width:1.5;stroke-linecap:round;stroke-linejoin:round;stroke-dasharray:none;stroke-opacity:1"/><path d="M352.56 613.956h1.718c.476.603.468 2.677 0 3.334h-1.719z" style="fill:#4a4a4a;fill-rule:evenodd;stroke:#171717;stroke-width:3;stroke-linecap:round;stroke-linejoin:round"/><path d="M334.014 613.727h15.583v3.79h-15.583zm-.914-.761h.736v5.313h-.736zm-.982-.707h.845v6.727h-.845z" style="fill:#4a4a4a;fill-opacity:1;fill-rule:evenodd;stroke:#171717;stroke-width:3;stroke-linecap:round;stroke-linejoin:round;stroke-dasharray:none;stroke-opacity:1"/><path d="M349.382 612.658h2.976v5.93h-2.976z" style="fill:#4a4a4a;fill-opacity:1;fill-rule:evenodd;stroke:#171717;stroke-width:3;stroke-linecap:round;stroke-linejoin:round;stroke-dasharray:none;stroke-opacity:1"/><rect width="3.9273376" height="12.150056" x="203.8519" y="609.54755" ry="0.73226637" style="fill:#4a4a4a;fill-opacity:1;fill-rule:evenodd;stroke:#171717;stroke-width:3;stroke-linecap:round;stroke-linejoin:round;stroke-dasharray:none;stroke-opacity:1"/><path d="m274.08 610.32-.002 2.869h-.002v2.076h.002l.002 5.66 33.52-1.596v-7.413z" style="fill:#854a21;fill-opacity:1;fill-rule:evenodd;stroke:none;stroke-width:3;stroke-linecap:round;stroke-linejoin:round;stroke-dasharray:none;stroke-opacity:1"/><path d="m308.603 611.13.017 2.338-.017 6.648 23.483-.771V611.9z" style="fill:#7d461f;fill-opacity:1;fill-rule:evenodd;stroke:#261608;stroke-width:3;stroke-linecap:round;stroke-linejoin:round;stroke-dasharray:none;stroke-opacity:1"/><path d="m283.179 610.736 2.931.117-.02 9.495-2.911.161z" style="fill:#4d4d4d;fill-opacity:1;fill-rule:evenodd;stroke:#171717;stroke-width:1.5;stroke-linecap:round;stroke-linejoin:round;stroke-dasharray:none;stroke-opacity:1"/><path d="m274.08 609.538-.002 2.87h-.002v2.075h.002l.002 7.224 33.52-1.596v-8.976z" style="fill:none;fill-opacity:1;fill-rule:evenodd;stroke:#261608;stroke-width:3;stroke-linecap:round;stroke-linejoin:round;stroke-dasharray:none;stroke-opacity:1"/><path d="M307.44 610.485h1.369v10.275h-1.37z" style="fill:#4a4a4a;fill-opacity:1;fill-rule:evenodd;stroke:#171717;stroke-width:1.5;stroke-linecap:round;stroke-linejoin:round;stroke-dasharray:none;stroke-opacity:1"/><path d="M255.5 610.539h3.085v10.48H255.5zm3.395 1.962.007 2.418v.042l-.007 3.783 4.744-.905v-4.433z" style="fill:none;fill-opacity:1;fill-rule:evenodd;stroke:#171717;stroke-width:1.5;stroke-linecap:round;stroke-linejoin:round;stroke-dasharray:none;stroke-opacity:1"/><path d="M269.39 621.41h1.684v3.406h-1.684z" style="fill:#4a4a4a;fill-opacity:1;fill-rule:evenodd;stroke:#171717;stroke-width:1.5;stroke-linecap:round;stroke-linejoin:round;stroke-dasharray:none;stroke-opacity:1"/></g></svg>