<svg xmlns="http://www.w3.org/2000/svg" width="110" height="110" fill="none" viewBox="0 0 110 110"><g clip-path="url(#a)"><path fill="#333638" d="M39.684 53.533c-.02.221-.036.486.019.767.042.235.051.395-.135.503l-4.667 2.694a.367.367 0 1 0 .367.637l4.986-2.879c.016.027.023.04.034.043.01.003.023-.005.05-.02l6.683-3.859c.345-.199.369-.708.246-.92l-.597-1.034c-.214-.372-.674-.495-1.364-.097l-4.322 2.496c-.478.276-1.24 1.018-1.3 1.67"/><path fill="#26292C" d="m46.756 51.573.266-.153c.292-.169.354-.56.291-.805l-.833.48z"/><path fill="#A23E2B" d="m97.832 18.406.849-.49.122.212-.848.49z"/><path fill="#323539" d="m98.144 18.086-.212.123.214.371-.053.03.026.044.638-.364-.027-.047-.053.03-.215-.37-.212.122.215.371-.106.061z"/><path stroke="#2F3337" stroke-width="0.417042" d="m97.847 18.81 1.18-.676-.294-.388-1.073.619z"/><path fill="#36393A" stroke="#313435" stroke-width="0.417042" d="M34.45 62.85c-.837.463-.946.937-.974 1.058q-.051.194-.045.335a.8.8 0 0 1 .194-.138c.115-.065.326-.075.376.101.188.575.438.753.94 1.014.064.034.143-.07.06-.14-.776-.654-.88-1.185-.551-2.23Z"/><path fill="#424548" d="M50.02 52.94a337 337 0 0 0-5.758 3.326 251 251 0 0 1-4.823 2.784c-2.01 1.16-3.904 2.11-6.053 3.19-.825.413-1.687.845-2.607 1.316l.642.654c2.904-1.432 4.509-2.272 7.36-3.79.159-.092.27-.016.376.101.837-.56 1.322-.896 2.059-1.578.09-.42.147-.686.482-.88l4.255-2.49.916-.742c.213-.182.405-.34.652-.34l1.998.154 1.114-.643z"/><path fill="#3C3F41" fill-rule="evenodd" d="M38.783 60.42c-2.733 1.456-4.322 2.288-7.008 3.616l1.762 1.323c.37.266.88.319 1.103.318.74-.004 1.376-.158 2.315-.523.375-.146.72-.345 1.014-.692l1.272-2.82c.46-.952.78-1.445 1.466-2.247-.488.41-.918.705-1.547 1.126-.105-.117-.218-.192-.377-.1m-5.306 3.488c.029-.123.14-.606 1.006-1.075a8 8 0 0 1 1.85-.715c.755-.102 1.038.143 1.283.568.323.56.282 1.197-.186 1.698-.34.365-.951.62-1.638.84-.525.167-.918.247-1.32.161-.383-.081-.68-.318-.816-.555-.145-.248-.303-.459-.179-.922" clip-rule="evenodd"/><path fill="#353839" d="m32.89 64.671-.774-.544.075-.36.667-.315.343.226-.046.84z"/><path fill="#484A4B" d="m27.805 60.394.783.927 2.835 2.89s-.857.46-1.761 1.052c-.925.604-1.507 1.188-1.855 2.238-.335 1.006-.288 1.93-.08 2.803a9.3 9.3 0 0 0 .923 2.332c.061.106-.021.33-.18.422l-4.239 1.846c-.154.065-.181.04-.25-.02a1 1 0 0 0-.142-.107c-.24-.14-.43-.153-.597-.115-.17.038-.34.119-.526.374l-6.759 8.835.017-.24-.889.726c-.144.119-.208.191-.211.37l.01.383.13-.005-3.683 4.814-1.803 2.208c-.192.217-.682.288-.934-.026a324 324 0 0 0-5.68-7.082l-.386-.462c-.354-.421-.725-.861-1.096-1.37-.53-.727-.468-1.486.325-2.132 2.342-1.908 3.754-2.879 6.24-4.566l11.997-8.863c.35-.248.548-.318.903-.273l.566.062c.494-.002.872-.144 1.565-.904 2.15-2.356 3.188-3.696 4.777-6.117"/><path fill="#4C5053" d="m27.805 60.393.783.927 2.187-2.642-.658-1.14z"/><path fill="#404344" d="m24.138 74.073 3.286-1.473s-1.43-2.008-.631-4.586 3.382-3.757 3.484-3.886l-2.03-2.046-.576-.692-4.555 5.706c-.382.503-.95 1.786-1.048 2.656l-.36 3.602c1.01-.088 1.566.05 2.43.719"/><path fill="#464849" stroke="#323334" stroke-width="0.417042" d="m6.782 77.314.093.16.573.577c.067.06.106.058.178.003l10.249-7.544c.126-.103.172-.16.204-.259l.362-1.479-10.446 7.716z"/><path fill="#464749" stroke="#323334" stroke-width="0.417042" d="m11.339 89.905-.01.014-1.803 2.207c-.192.217-.682.288-.934-.026a324 324 0 0 0-5.68-7.081l-.386-.463c-.355-.421-.725-.86-1.096-1.37-.53-.727-.469-1.485.325-2.132.513-.418.981-.79 1.426-1.136-.064.255-.12.436.027.651 2.556 3.753 4.167 5.728 7.412 8.98.202.203.428.292.719.356Z"/><path fill="#424446" fill-rule="evenodd" stroke="#323334" stroke-width="0.417042" d="m15.973 83.63-.083 1.144c-.018.152-.188.286-.351.31l-.658.025-.009-.383c.003-.179.067-.251.211-.37zm-.335 1.29a.23.23 0 1 0-.23-.398.23.23 0 0 0 .23.398Z" clip-rule="evenodd"/><path fill="#424445" stroke="#323334" stroke-width="0.417042" d="M9.264 92.284c-.223.065-.502.029-.672-.184a324 324 0 0 0-5.68-7.08q-.19-.23-.386-.463l-.128-.152c.554-.2.971-.128 1.307.333z"/><path fill="#34393C" d="M40.046 55.017a.43.43 0 0 1-.637-.123l-.425.246.368.636.849-.49z"/><path fill="#323639" d="M39.704 54.301c.042.234.051.395-.134.502l-.16.092a.429.429 0 1 0 .286-.635z"/><path fill="#3B4144" d="m45.042 49.522-4.057 2.342c-.478.276-1.24 1.018-1.3 1.67a2.7 2.7 0 0 0 .011.726.429.429 0 0 1 .35.757l.156.27.053-.031c.015.026.023.04.034.042.01.003.023-.005.05-.02l5.94-3.43.247-.92-.674-1.167z"/><path fill="#323539" stroke="#2F3337" stroke-width="0.417042" d="m46.48 51.096.045-.167-.612-1.062.743-.428.674 1.167z"/><path fill="#33373B" d="m46.007 50.027.681-.535.153.265-.681.535z"/><path fill="#36393B" stroke="#313335" stroke-width="0.834085" d="m41.905 57.943 4.048-2.37.916-.742c.213-.182.405-.34.652-.34l.444.034.364.63z"/><rect width="0.306227" height="3.00103" x="47.1738" y="48.0078" fill="#44474A" rx="0.104261" transform="rotate(-30 47.174 48.008)"/><path fill="#393C3F" d="m59.262 41.877 40.946-23.64 1.103 1.91L49.915 49.82l-1.286-2.228z"/><path fill="#3E4143" stroke="#313335" stroke-width="0.417042" d="M47.547 48.04c.167.045.448-.082 1.085-.45l.735 1.274-1.008.582z"/><path fill="#373B3F" stroke="#303336" stroke-width="0.834085" d="m78.42 34.636 26.096-15.067 1.194 2.069-26.096 15.066z"/><path fill="#41464B" stroke="#2F3337" stroke-width="0.834085" d="M76.317 35.956c.423 1.27.546 2.17.335 2.847q-.023.075-.05.14l3.172-2.084c-.103-1.357-.41-1.903-1.41-2.44l-2.252 1.093z"/><path fill="#32363A" stroke="#2F3337" stroke-width="0.834085" d="m104.393 19.357 1.439 2.493 3.394-1.96a.305.305 0 0 0 .112-.418l-1.133-1.962a.306.306 0 0 0-.418-.112z"/><path fill="#373A3C" stroke="#313335" stroke-width="0.417042" d="m100.209 18.236 2.494-1.44 1.103 1.91-2.494 1.44z"/><path fill="#343639" d="m100.793 17.9.637-.368 1.102 1.91-.636.367zm.85-.49.637-.368 1.102 1.91-.636.367z"/><path fill="#353839" stroke="#313435" stroke-width="0.417042" d="m100.21 18.236-.337-.583-49.958 28.49c-.473.428-.783.664-1.457 1.088l-.966.593.107.186.895-.34.136-.078 5.454-2.932c.189-.448.364-.679.784-1.024l3.213-1.784c.503-.161.76-.112 1.144-.04l.113.022 1.126-.65c.185-.452.328-.795.747-1.139l3.107-1.723c.502-.16.76-.112 1.144-.039l.02.004 1.362-.787c.169-.407.32-.726.71-1.046l3.08-1.708c.51-.163.764-.165 1.157-.102l1.378-.796c.142-.356.262-.63.62-.924l3.293-1.83c.467-.15.72-.164 1.06-.117l1.339-.773c.142-.356.261-.63.62-.924l3.293-1.83c.466-.15.72-.164 1.06-.117l1.338-.773c.142-.356.262-.63.621-.924l3.293-1.83c.466-.15.72-.164 1.06-.117l1.194-.69c.127-.312.256-.563.583-.831l3.637-2.03c.42-.134.667-.16.96-.129z"/><path fill="#575C5F" d="m38.064 60.587-1.22.705.631.237c.062.026.113.04.18.003a.16.16 0 0 0 .07-.183l.375-.393c.09-.088.087-.156.056-.21z"/><circle cx="37.4326" cy="61.2693" r="0.122203" fill="#A2352B" transform="rotate(-30 37.433 61.27)"/><path stroke="#323334" stroke-width="0.834085" d="m27.805 60.394.783.927 2.835 2.89s-.857.46-1.761 1.052c-.925.604-1.507 1.188-1.855 2.238-.335 1.006-.288 1.93-.08 2.803a9.3 9.3 0 0 0 .923 2.332c.061.106-.021.33-.18.422l-4.239 1.846c-.154.065-.181.04-.25-.02a1 1 0 0 0-.142-.107c-.24-.14-.43-.153-.597-.115-.17.038-.34.119-.526.374l-6.759 8.835.017-.24-.889.726c-.144.119-.208.191-.211.37l.01.383.13-.005-3.684 4.814-1.802 2.208c-.192.217-.682.288-.934-.026a324 324 0 0 0-5.68-7.082l-.386-.462c-.354-.421-.725-.861-1.096-1.37-.53-.727-.468-1.486.325-2.132 2.342-1.908 3.754-2.879 6.24-4.566l11.997-8.863c.35-.248.548-.318.903-.273l.566.062c.494-.002.872-.144 1.565-.904 2.15-2.356 3.188-3.696 4.777-6.117Z"/><path stroke="#313335" stroke-width="0.417042" d="m40.984 51.865 4.057-2.343.81.24.674 1.166-.247.92-5.94 3.43c-.027.016-.04.023-.05.02s-.018-.016-.034-.042l-.901.52-.368-.636.584-.337c.185-.107.176-.268.134-.502l-.008-.04a2.7 2.7 0 0 1-.01-.727c.06-.651.821-1.394 1.299-1.67Z"/><path fill="#45484B" d="M34.902 57.498a.368.368 0 0 0 .368.636l4.985-2.878c.016.026.023.04.034.042.01.003.023-.005.05-.02l6.683-3.858c.345-.2.37-.709.247-.92l-.582-1.008 1.008-.582 2.327 4.03a329 329 0 0 0-5.758 3.326c-1.664.976-3.228 1.894-4.824 2.784-2.01 1.16-3.904 2.11-6.053 3.19-.824.413-1.686.845-2.606 1.316l-2.194-2.236 2.188-2.642 8.91-5.144c-.02.22-.036.486.02.767.041.234.05.395-.135.502z"/><path fill="#474B4D" d="M47.03 47.804c-.035-.01-.081.016-.179.073l-16.734 9.661.659 1.14 8.91-5.144c.06-.652.822-1.394 1.3-1.67l4.322-2.495c.69-.398 1.15-.275 1.364.096l.016.027 1.007-.582-.566-.981c-.044-.076-.067-.116-.098-.125"/><path stroke="#313335" stroke-width="0.417042" d="m28.588 61.32-.783-.927 2.312-2.855 16.734-9.661c.098-.057.144-.084.18-.073.031.01.054.049.097.124l2.894 5.013.613 1.06-1.114.644-1.999-.155c-.247.001-.438.16-.651.341l-.916.741-4.255 2.491c-.336.194-.393.46-.482.88-.738.682-1.222 1.018-2.06 1.578-.105-.117-.217-.193-.376-.1-2.85 1.517-4.456 2.357-7.36 3.789l-.641-.654z"/><path stroke="#313335" stroke-width="0.834085" d="m27.805 60.393.783.927 2.193 2.236.642.654.351-.174 1.762 1.323c.37.265.88.319 1.103.318.74-.004 1.376-.158 2.314-.523.376-.146.72-.346 1.015-.692l1.272-2.82c.46-.952.776-1.442 1.462-2.243.163-.137.331-.285.516-.456.09-.42.146-.686.482-.88l4.255-2.49.916-.742c.212-.181.404-.34.651-.34l1.999.154 1.114-.643-.613-1.061-2.894-5.013c-.043-.075-.066-.115-.098-.124-.035-.01-.081.016-.18.073l-16.733 9.661z"/><path stroke="#313335" stroke-width="0.417042" d="M34.767 58a.367.367 0 0 1 .134-.502l4.668-2.695c.186-.107.177-.268.134-.502a2.7 2.7 0 0 1-.018-.767c.06-.652.822-1.394 1.3-1.67l4.322-2.496c.69-.398 1.15-.274 1.364.097l.597 1.034c.123.212.098.721-.247.92l-6.683 3.859c-.026.015-.04.023-.05.02s-.018-.016-.033-.043l-4.986 2.88a.367.367 0 0 1-.502-.135Zm-1.292 5.908c.029-.123.14-.607 1.006-1.076a8 8 0 0 1 1.85-.714c.754-.103 1.038.143 1.283.567.323.56.282 1.198-.186 1.7-.34.363-.951.619-1.637.838-.526.168-.919.247-1.322.162-.382-.081-.678-.318-.815-.555l-.033-.057c-.134-.225-.26-.438-.146-.865Z"/><circle cx="38.7622" cy="58.151" r="0.199115" fill="#3C3F42" transform="rotate(-30 38.762 58.151)"/><path fill="#2F71AF" d="m46.432 54.236-.672.388a.245.245 0 0 1-.335-.09l-.276-.477a.245.245 0 0 1 .09-.335l.672-.388c.089-.05.012-.29.266-.436l1.167-.674a.43.43 0 0 1 .586.157l.337.584a.43.43 0 0 1-.157.585l-1.167.674c-.254.147-.422-.04-.511.012"/><circle cx="45.7254" cy="54.043" r="0.35228" fill="#606569" transform="rotate(-30 45.725 54.043)"/><circle cx="45.7262" cy="54.0421" r="0.168482" fill="#4B4E52" transform="rotate(-30 45.726 54.042)"/><path stroke="#163450" stroke-width="0.417042" d="m46.432 54.236-.672.388a.245.245 0 0 1-.335-.09l-.276-.477a.245.245 0 0 1 .09-.335l.672-.388c.089-.05.012-.29.266-.436l1.167-.674a.43.43 0 0 1 .586.157l.337.584a.43.43 0 0 1-.157.585l-1.167.674c-.254.147-.422-.04-.511.012Z"/><circle cx="44.4267" cy="52.0245" r="0.848536" fill="#2C69A2" stroke="#163450" stroke-width="0.417042" transform="rotate(-30 44.427 52.025)"/><path stroke="#303336" stroke-width="0.834085" d="M47.226 48.098a.104.104 0 0 1 .038-.142l.085-.05a.104.104 0 0 1 .142.039l.055.095c.168.045.448-.081 1.085-.449l10.632-5.714 43.44-25.08 1.102 1.91-53.888 31.112-.552-.955-1.007.582.53.917a.104.104 0 0 1-.039.143l-.084.049a.104.104 0 0 1-.143-.038z"/><path fill="#474B4D" d="m48.357 49.446 21.156-12.108c2.218-1.181 3.487-1.8 5.83-2.764.192-.08.307-.02.361.074.061.106.614 1.307.614 1.307l-16.191 8.889c-4.536 1.452-7.34 2.965-11.372 5.292z"/><path fill="#3F4245" d="M48.757 50.136c.169.292.171.429.026.657l1.256 2.175c5.012-2.894 6.598-4.128 10.09-8.124-4.536 1.452-7.34 2.965-11.372 5.292"/><path fill="#434648" d="M60.126 44.844c-3.491 3.996-5.078 5.23-10.09 8.124l.597 1.034 3.707-1.786 21.844-12.754c.222-.146.365-.323.469-.659.21-.677.087-1.576-.336-2.847z"/><path fill="#3A3E40" d="M73.633 40.369 56.43 50.196c-.08.046-.11-.007-.046-.08l4.956-5.195 13.959-7.67c.274 1.278.006 2.153-1.665 3.118"/><path stroke="#313435" stroke-width="0.834085" d="m48.357 49.447 21.156-12.109c2.218-1.18 3.486-1.8 5.83-2.764.192-.08.306-.02.36.074.062.106.614 1.308.614 1.308.423 1.27.546 2.17.336 2.847-.104.336-.247.513-.468.66L54.34 52.214l-3.707 1.787-1.852-3.209c.145-.228.142-.365-.026-.657z"/></g><defs><clipPath id="a"><path fill="#fff" d="M0 0h110v110H0z"/></clipPath></defs></svg>