<svg xmlns="http://www.w3.org/2000/svg" id="Layer_1" width="132" height="26.3" data-name="Layer 1" viewBox="0 0 132 26.3"><defs><style>.cls-7{stroke-width:3px;stroke-linecap:round;stroke:#171717;fill:none}</style></defs><path id="rect2976" d="M28.5 4.7h10v7.2h-10z" style="stroke-width:3px;fill-rule:evenodd;stroke-linecap:round;fill:#3f4344;stroke:#161718"/><path id="rect2059" d="M3.3 2.3h24.5c.4 0 .7.4.7 1h0v9.9c0 .5-.3 1-.7 1H3.3c-1 0-1.8-1.2-1.8-2.7h0V4.9c0-1.4.8-2.6 1.8-2.6Z" style="stroke-width:3px;fill-rule:evenodd;stroke-linecap:round;fill:#494a4c;stroke:#161717"/><path id="path3331" d="m99.79 7.85-2.7-5.75c-.17-.37-.55-.61-.95-.61H66.77c-.45 0-.85.29-1 .72l-1.94 5.75c-.07.22-.07.46 0 .68l1.94 5.75c.14.43.55.72 1 .72h29.37c.41 0 .78-.24.95-.61l2.7-5.75c.13-.28.13-.61 0-.9Z" style="fill:#464a4d;stroke-width:3px;fill-rule:evenodd;stroke-linecap:round;stroke:#171717"/><path id="rect3617" d="M62.5 6.2h67.2c.5 0 .8.6.8 1.2v1.7c0 .7-.4 1.2-.8 1.2H62.5c-.5 0-.8-.6-.8-1.2V7.4c0-.7.3-1.2.8-1.2Z" style="stroke-width:3px;fill-rule:evenodd;stroke-linecap:round;fill:#373c3e;stroke:#161818"/><path id="rect5552" d="M39.52 2.2h22.86c.73 0 1.32.59 1.32 1.32v9.46c0 .73-.59 1.32-1.32 1.32H39.52c-.73 0-1.32-.59-1.32-1.32V3.52c0-.73.59-1.32 1.32-1.32" style="fill-rule:evenodd;fill:#474b4e"/><path id="path5412" d="M39 13.1c2.5-.9 4-2.8 4-4.8s-1.5-3.9-4-4.8z" style="fill-rule:evenodd;fill:#181a1b"/><g id="g5550"><path id="path5544" d="M42.98 10.71h20.7" class="cls-7"/><path id="path5546" d="M42.98 5.81h20.7" class="cls-7"/></g><path id="rect3059" d="M39.41 2.2H63.7v12.1H39.41c-.67 0-1.21-.54-1.21-1.21V3.41c0-.67.54-1.21 1.21-1.21Z" class="cls-7"/><path id="path5875" d="M58.1 15v2.8" style="stroke-width:3px;fill-rule:evenodd;stroke:#171717"/><path id="rect5729" d="M58.3 14c-1.2 0-2.1 1-2.1 2.2v7.9h0l.6.7h3.5l.6-.7h0v-7.9c0-1.2-1-2.2-2.1-2.2z" style="stroke-width:3px;fill-rule:evenodd;stroke-linecap:round;fill:#2c69a2;stroke:#0a1724"/></svg>