<svg xmlns="http://www.w3.org/2000/svg" width="135.40294" height="19.576063" viewBox="0 0 35.82536 5.1795"><g transform="translate(-5.284 -106.24)"><path d="M27.891 106.723h5.54c.212 0 .39.209.39.468v3.302c0 .26-.17.468-.39.468h-5.537c-.212 0-.389-.209-.389-.468v-3.302c.013-.26.183-.468.39-.468z" class="cls-3" style="opacity:.997;isolation:isolate;fill:#595959;fill-opacity:1;fill-rule:evenodd;stroke:none;stroke-width:.79375;stroke-linecap:round;stroke-linejoin:round;stroke-miterlimit:3.87;stroke-dasharray:none;stroke-opacity:1"/><path d="M29.255 107.077v3.757h3.587v-3.898z" style="fill:#4d4d4d;fill-opacity:1;stroke:none;stroke-width:.432418;stroke-linecap:round;stroke-dasharray:none;stroke-opacity:1"/><path d="M30.148 106.826v3.939m-.872-3.829v3.893m1.746-3.877v3.878m.871-3.897v3.588m.874-3.495v3.514" style="fill:#404040;fill-opacity:1;stroke:#3b3b3b;stroke-width:.436098;stroke-linecap:round;stroke-dasharray:none;stroke-opacity:1"/><path d="M27.891 106.637h5.54c.212 0 .39.209.39.468v3.407c0 .26-.17.468-.39.468h-5.537c-.212 0-.389-.209-.389-.468v-3.407c.013-.26.183-.468.39-.468z" class="cls-3" style="opacity:.997;isolation:isolate;fill:none;fill-opacity:1;fill-rule:evenodd;stroke:#171717;stroke-width:.79375;stroke-linecap:round;stroke-linejoin:round;stroke-miterlimit:11.34;stroke-dasharray:none;stroke-opacity:1"/><path d="M24.07 107.975h16.643v1.758H24.07Z" class="cls-5" style="fill:#4c4b4f;fill-opacity:1;fill-rule:evenodd;stroke:#171618;stroke-width:.79375;stroke-linecap:square;stroke-linejoin:round;stroke-miterlimit:7.47;stroke-dasharray:none;stroke-opacity:1"/><path d="M23.261 108.05h1.908v1.622h-1.908z" class="cls-5" style="fill:#3f3e42;fill-opacity:1;fill-rule:evenodd;stroke:#171618;stroke-width:.79375;stroke-linecap:round;stroke-linejoin:round;stroke-miterlimit:11.34;stroke-dasharray:none;stroke-opacity:1"/><path d="M11.76 108.004h3.9v1.693h-3.9z" class="cls-3" style="opacity:.997;isolation:isolate;fill:#3f3e42;fill-opacity:1;fill-rule:evenodd;stroke:#171618;stroke-width:.79375;stroke-linecap:round;stroke-linejoin:round;stroke-miterlimit:3.87;stroke-dasharray:none;stroke-opacity:1"/><path d="m17.825 110.512-3.13-.53v-2.648l3.13-.529" class="cls-2" style="opacity:.997;isolation:isolate;fill:#595959;fill-opacity:1;fill-rule:evenodd;stroke:none;stroke-width:.79375;stroke-linecap:round;stroke-miterlimit:11.34;stroke-dasharray:none;stroke-opacity:1"/><path d="M15.903 107.237h.488v3.315h-.488z" style="fill:#666;fill-opacity:1;fill-rule:evenodd;stroke:none;stroke-width:.396875;stroke-linecap:round;stroke-linejoin:round;stroke-dasharray:none;stroke-opacity:1"/><path d="M17.1 106.989h6.226c.209 0 .378.169.378.378v2.95c0 .21-.17.378-.378.378h-6.227a.38.38 0 0 1-.378-.378v-2.95c0-.209.17-.378.378-.378" class="cls-2" style="opacity:.997;isolation:isolate;fill:#58555d;fill-opacity:1;fill-rule:evenodd;stroke:none;stroke-width:.79375;stroke-linecap:square;stroke-miterlimit:7.47;stroke-dasharray:none;stroke-opacity:1"/><path d="M454.284 57.182h6.57v.78h-6.57zm-.084 3.223h6.57v.78h-6.57z" style="fill:#4c4b4f;fill-opacity:1;fill-rule:evenodd;stroke:none;stroke-width:.396875;stroke-linecap:round;stroke-linejoin:round;stroke-dasharray:none;stroke-opacity:1" transform="translate(-437.315 49.649)"/><path d="m16.663 107.22-.046.698 2.008-.365-.503-.736zm-.263 3.175.055-.699 1.892.366-.504.736z" style="fill:#4b4a4f;fill-opacity:1;stroke:none;stroke-width:.396875;stroke-linejoin:round;stroke-dasharray:none;stroke-opacity:1"/><path d="m16.957 106.99 1.223-.261h5.146c.209 0 .378.297.378.506v3.243c0 .21-.17.544-.378.544h-5.169l-1.2-.26c-.205-.044-.379-.169-.379-.378v-3.015c0-.21.174-.335.379-.378z" class="cls-2" style="opacity:.997;isolation:isolate;fill:none;fill-opacity:1;fill-rule:evenodd;stroke:#171618;stroke-width:.79375;stroke-linecap:round;stroke-miterlimit:11.34;stroke-dasharray:none;stroke-opacity:1"/><path d="M6.025 107.183h5.858a.28.28 0 0 1 .28.28v2.823a.28.28 0 0 1-.28.28H6.025c-.188 0-.344-.264-.344-.59v-2.193c0-.336.154-.6.344-.6" class="cls-3" style="opacity:.997;isolation:isolate;fill:#404040;fill-opacity:1;fill-rule:evenodd;stroke:#171717;stroke-width:.79375;stroke-linecap:round;stroke-linejoin:round;stroke-miterlimit:11.34;stroke-dasharray:none;stroke-opacity:1"/><path d="M7.333 107.183h5.329a.28.28 0 0 1 .28.28v2.823a.28.28 0 0 1-.28.28H7.333c-.188 0-.344-.264-.344-.59v-2.193c0-.336.154-.6.344-.6" class="cls-3" style="opacity:.997;isolation:isolate;fill:#595959;fill-opacity:1;fill-rule:evenodd;stroke:#171717;stroke-width:.79375;stroke-linecap:round;stroke-linejoin:round;stroke-miterlimit:3.87;stroke-dasharray:none;stroke-opacity:1"/><g style="stroke:none;stroke-width:1.25184;stroke-dasharray:none;stroke-opacity:1"><path d="M115.977 9.574h5.31v1.913h-5.31z" style="fill:#3f3e42;fill-opacity:1;fill-rule:evenodd;stroke:none;stroke-width:1.25184;stroke-linecap:butt;stroke-linejoin:round;stroke-dasharray:none;stroke-opacity:1" transform="translate(-5.333 104.846)scale(.3801)"/></g><path d="M39.875 108.556h.701v.7h-.7z" style="fill:#ff3700;fill-opacity:1;stroke:none;stroke-width:.396875;stroke-dasharray:none"/><g style="fill:none;stroke:#171618;stroke-width:1.25184;stroke-dasharray:none;stroke-opacity:1"><path d="M115.959 9.039h5.329v2.833h-5.33z" style="fill:none;fill-opacity:1;fill-rule:evenodd;stroke:#171618;stroke-width:1.25184;stroke-linecap:butt;stroke-linejoin:round;stroke-dasharray:none;stroke-opacity:1" transform="translate(2.149 105.536)scale(.31703)"/></g><path d="M445.43 60.181h.892m.657 0h1.121m-4.458-.001h1.121" style="fill:#404040;fill-opacity:1;fill-rule:evenodd;stroke:#333;stroke-width:.396875;stroke-linecap:round;stroke-linejoin:round;stroke-dasharray:none;stroke-opacity:1" transform="translate(-435.893 47.89)"/><path d="M445.43 60.181h.892m.657 0h1.121m-4.458-.001h1.121" style="fill:#404040;fill-opacity:1;fill-rule:evenodd;stroke:#333;stroke-width:.396875;stroke-linecap:round;stroke-linejoin:round;stroke-dasharray:none;stroke-opacity:1" transform="translate(-435.865 49.622)"/><path d="M15.81 107.532v2.657" style="fill:#4c4b4f;fill-opacity:1;fill-rule:evenodd;stroke:#171717;stroke-width:.396875;stroke-linecap:round;stroke-linejoin:round;stroke-dasharray:none;stroke-opacity:1"/><path d="m16.975 110.761-2.28-.448v-2.914l2.204-.388" class="cls-2" style="opacity:.997;isolation:isolate;fill:none;fill-opacity:1;fill-rule:evenodd;stroke:#171717;stroke-width:.79375;stroke-linecap:round;stroke-miterlimit:11.34;stroke-dasharray:none;stroke-opacity:1"/><path d="M19.935 111.093v-.172a.74.74 0 0 1 .709-.724h1.862c.448.01.727.311.724.815v.078z" style="fill:#3f3e42;fill-opacity:1;stroke:#171618;stroke-width:.396875;stroke-linejoin:round;stroke-dasharray:none;stroke-opacity:1"/><g style="stroke:#171618;stroke-width:1.25184;stroke-dasharray:none;stroke-opacity:1"><path d="M110.962 39.815h7.046v4.267h-7.046z" style="fill:#3f3e42;fill-opacity:1;fill-rule:evenodd;stroke:#171618;stroke-width:1.25184;stroke-linecap:butt;stroke-linejoin:round;stroke-dasharray:none;stroke-opacity:1" transform="translate(-15.698 95.469)scale(.31703)"/></g><path d="M20.134 108.087v1.38" style="fill:#3f3e42;fill-opacity:1;stroke:#171618;stroke-width:.396875;stroke-linejoin:round;stroke-dasharray:none;stroke-opacity:1"/><path d="M18.018 108.82v.006" style="fill:#4b4a4f;fill-opacity:1;stroke:#171618;stroke-width:0;stroke-linejoin:round;stroke-dasharray:none;stroke-opacity:1"/><circle cx="17.795353" cy="108.79306" r="0.53883171" style="fill:#252527;fill-opacity:1;stroke:#161618;stroke-width:.396875;stroke-linejoin:round;stroke-dasharray:none;stroke-opacity:1"/></g></svg>