<svg xmlns="http://www.w3.org/2000/svg" width="110" height="110" fill="none" viewBox="0 0 110 110"><g clip-path="url(#a)"><path fill="#37363A" stroke="#323135" stroke-width="0.578249" d="m104.281 15.402-.268-.465.564-.859c.138-.197.266-.204.369-.006l.41.709"/><path fill="#4C4B4F" stroke="#323135" stroke-width="1.1565" d="m87.049 31.323 2.101-1.213 1.138 1.971-2.101 1.213z"/><path fill="#4C4B4F" d="m56 48.27 30.627-17.683L88.25 33.4 57.633 51.098zM88.25 33.4 57.634 51.098Z"/><path stroke="#323135" stroke-width="1.1565" d="m56 48.27 30.627-17.683L88.25 33.4 57.633 51.098zM88.25 33.4 57.634 51.098Z"/><path fill="#3A393D" stroke="#323135" stroke-width="0.578251" d="m55.768 47.87 15.42-8.903.968 1.676-7.776 4.49-.407-.118-7.39 4.267z"/><path fill="#595959" d="m66.983 42.206 1.994 3.453c.099.18.227.288.458.159l17.13-9.89 1.575-1.067a.754.754 0 0 0 .19-.978l-1.615-2.798c-.279-.447-.3-.558-2.403.641L70.03 39.971c-.067.25-.264.586-.538.762z"/><path fill="#4D4D4D" d="m84.407 31.666-.1.057-12.946 7.474 2.383 4.127 12.816-7.399.22-.15z"/><path fill="#3B3B3B" d="m71.115 39.343.501-.29 2.383 4.128-.501.289zm1.002-.58.501-.29 2.383 4.128-.501.289zm1.004-.577.5-.29 2.384 4.127-.501.29zm1.004-.58.5-.29 2.384 4.127-.501.29zm1.002-.581.5-.289 2.384 4.127-.501.29zm1.002-.579.5-.289 2.383 4.127-.5.29zm1.004-.579.5-.289 2.383 4.127-.5.29zm1.002-.58.5-.289 2.383 4.127-.5.29zm1.005-.58.501-.29 2.383 4.128-.5.289zm1.003-.579.5-.29 2.383 4.128-.5.289zm1.005-.579.501-.29 2.383 4.128-.5.289zm1.004-.579.501-.29 2.383 4.128-.501.289zm1.004-.578.501-.29 2.383 4.128-.501.289zm1.004-.58.501-.29 2.383 4.127-.501.29z"/><path stroke="#333" stroke-width="1.1565" d="m66.983 42.206 1.994 3.453c.099.18.227.288.458.159l17.13-9.89 1.575-1.067a.754.754 0 0 0 .19-.978l-1.615-2.798c-.279-.447-.3-.558-2.403.641L70.03 39.971c-.067.25-.264.586-.538.762z"/><rect width="2.08381" height="0.74653" x="93.5098" y="28.6641" fill="#37363A" stroke="#323135" stroke-width="0.578251" rx="0.373265" transform="rotate(-30 93.51 28.664)"/><path fill="#3F3E42" d="m89.041 29.927 1.514 2.622 3.034-1.751.32-.948.662-.382c.067-.588-.446-1.333-.853-1.479l-.662.383-.98-.193z"/><path fill="#4C4B4F" d="m93.908 29.85.662-.383c.067-.587-.446-1.332-.853-1.478l-.662.382z"/><path stroke="#323135" stroke-width="1.1565" d="m89.041 29.927 1.514 2.622 3.034-1.751.32-.948.662-.382c.067-.588-.446-1.333-.853-1.479l-.662.383-.98-.193z"/><path fill="#444347" d="m89.694 27.656-1.47.848.58 1.003 1.469-.848z"/><path fill="#4C4B4F" d="m90.274 28.66-1.47.848 1.835 3.177 1.469-.848z"/><path stroke="#323135" stroke-width="1.1565" d="m87.936 27.999 2.703 4.683 1.47-.848-2.7-4.676"/><path fill="#4C4B4F" d="m54.44 45.57 53.005-30.36 1.014 1.768-52.774 30.75z"/><path fill="#3F3E42" stroke="#323135" stroke-width="0.578249" d="m102.39 18.106 4.479-2.566-.429-.743-.245.14-.278-.481-2.558 1.476-.905 1.446z"/><path fill="#3F3E42" stroke="#323135" stroke-width="0.578251" d="m56.699 44.275 1.236 2.141-2.25 1.311-1.245-2.158z"/><path stroke="#323135" stroke-width="1.1565" d="m54.44 45.57 53.005-30.36 1.014 1.768-52.774 30.75z"/><path fill="#4D4D4D" d="m53.283 67.076 8.064-6.369.882 1.054.12 1.163c.998-.276 1.384.225.655.86l-6.227 5.379c-.4.384-.647.264-1.087-.006l-1.202-.744z"/><path fill="#404040" d="m55.336 68.938 6.97-6.077Zm7.667-5.155c.729-.635.301-1.198-.696-.922l-6.971 6.077.353.218c.44.27.687.39 1.087.006z"/><path stroke="#333" stroke-width="0.578251" d="m55.336 68.938 6.97-6.077Zm7.667-5.155c.729-.635.301-1.198-.696-.922l-6.971 6.077.353.218c.44.27.687.39 1.087.006z"/><path fill="#404040" d="m54.75 68.576-.265-.164-.456-.506 1.315-1.085a.488.488 0 0 1 .621.753z"/><rect width="4.63757" height="0.897734" x="56.0488" y="66.292" fill="#404040" rx="0.404776" transform="rotate(-39.51 56.049 66.292)"/><path fill="#404040" d="m61.983 61.464.247.295.05.486-1.476 1.217a.396.396 0 1 1-.504-.611z"/><path fill="#3D3D3D" d="m48.342 58.031-1.085-1.9 7.437-4.295.54.933.095.498.389.647.533.419 1.084 1.772c.27.494.768.615 1.195.74l.327.405-8.4 5.47-2.145-3.404c-.352-.572-.209-.84.027-1.279z"/><path fill="#3D3D3D" d="m48.342 58.031-1.085-1.9 7.437-4.295.54.933.095.498.389.647.533.419 1.084 1.772c.27.494.768.615 1.195.74l.327.405-8.4 5.47-2.145-3.404c-.352-.572-.209-.84.027-1.279z"/><path fill="#383838" d="m50.87 59.155 1.528 2.302Zm-1.835 1.312 1.836-1.312 1.527 2.302-1.942 1.264z"/><path stroke="#333" stroke-width="0.578251" d="m50.87 59.155 1.528 2.302Zm-1.835 1.312 1.836-1.312 1.527 2.302-1.942 1.264z"/><path fill="#4D4D4D" stroke="#333" stroke-width="0.578251" d="m49.036 60.465 1.836-1.312-2.45-3.696-1.165.673 1.085 1.9-.003.007c-.236.44-.38.707-.027 1.279z"/><path fill="#383838" stroke="#333" stroke-width="0.578251" d="m54.585 60.033-3.857-5.906 2.11-1.218 3.811 5.78z"/><path fill="#383838" stroke="#333" stroke-width="0.578249" d="M50.045 54.52q.007.017.017.033c.163.317.37.721-.026 1.083l-1.984 1.89-.797-1.395z"/><path fill="#454545" stroke="#333" stroke-width="0.578251" d="m59.917 61.837 1.613-1.275-1.576-1.953-1.56 1.22c.46.691.954 1.312 1.523 2.008Z"/><path fill="#424242" stroke="#333" stroke-width="0.578251" d="m58.393 59.828 1.56-1.219-1.096-1.358-1.417.923c.31.624.622 1.158.953 1.654Z"/><path stroke="#333" stroke-width="1.1565" d="m61.347 60.707-8.064 6.369 1.205 1.337.849.526.353.218c.44.27.687.39 1.087.006l6.227-5.38c.729-.634.301-1.197-.696-.921l-.079-1.1z"/><path fill="#404040" stroke="#333" stroke-width="0.578251" d="M57.436 58.174c.31.624.623 1.157.953 1.654l-1.972 1.54a15 15 0 0 1-1.07-1.834z"/><path fill="#474747" stroke="#333" stroke-width="0.578251" d="M58.392 59.83c.46.691.954 1.312 1.523 2.007l-1.953 1.542c-.575-.703-1.077-1.326-1.542-2.009z"/><path fill="#424242" stroke="#333" stroke-width="0.578251" d="M55.348 59.535c.347.699.698 1.286 1.072 1.835l-2.034 1.589a15.6 15.6 0 0 1-1.175-2.032z"/><path fill="#454545" stroke="#333" stroke-width="0.578251" d="M56.42 61.37c.465.684.966 1.307 1.541 2.01l-2.023 1.598c-.579-.706-1.083-1.333-1.551-2.018z"/><path fill="#404040" stroke="#333" stroke-width="0.578251" d="m53.213 60.929-2.019 1.314c.379.78.828 1.505 1.31 2.19l1.884-1.473a16 16 0 0 1-1.175-2.032Z"/><path fill="#474747" stroke="#333" stroke-width="0.578251" d="m54.388 62.958-1.885 1.473c.5.712 1.035 1.381 1.562 2.025l1.873-1.48c-.578-.705-1.082-1.333-1.55-2.018Z"/><path fill="#383838" stroke="#333" stroke-width="0.578249" d="M54.807 63.471a.753.753 0 1 0-.753-1.303.753.753 0 0 0 .753 1.303Zm3.98-3.04a.753.753 0 1 0-.753-1.303.753.753 0 0 0 .753 1.303Z"/><path stroke="#333" stroke-width="1.15668" d="m47.257 56.13 1.085 1.901c-.237.443-.384.71-.03 1.285l4.916 7.8 8.3-6.555-2.998-3.716c-.427-.125-.926-.246-1.195-.74l-1.084-1.772-.533-.42-.389-.646-.096-.498-.539-.933"/><path fill="#404040" d="M49.758 59.015a.44.44 0 1 0-.44-.764.44.44 0 0 0 .44.764"/><path fill="#58555D" d="M36.615 55.398c-1.69 1.796-4 3.613-5.071 5.389l3.687 3.5 12.586-7.185-.56-.97 7.437-4.295c.62-.35 1.228-.277 1.75.238l1.317-.755-3.52-6.097z"/><path fill="#3F3E42" stroke="#323135" stroke-width="0.578249" d="m40.855 52.952 6.536-3.773c-.662-.586-1.782-.128-3.355.622-2.192 1.09-2.558.879-3.324.437l-.167-.095c-.28-.152-.516-.28-1.356.022-.429.154-.555.416.086 1.125z"/><path fill="#3F3E42" d="m28.277 65.825-7.7 5.148 1.842 2.755 4.482-2.996.286-1.44 2.355-1.574z"/><path fill="#37363A" d="m27.185 69.291-5.345 3.573.577.864 4.482-2.996z"/><path stroke="#323135" stroke-width="1.1565" d="m28.277 65.825-7.7 5.148 1.842 2.755 4.482-2.996.286-1.44 2.355-1.574z"/><path fill="#4D4D4D" stroke="#333" stroke-width="0.578249" d="m27.572 65.497-1.066.779 1.971 2.849 1.24-.943"/><path fill="#4C4B4F" stroke="#323135" stroke-width="0.578249" d="M45.124 60.84c-.084-.726-.037-1.593.184-2.305l2.191-1.25.313.542-.896 1.98z"/><path fill="#666" d="m31.543 60.788 3.687 3.5-1.037.715-3.318-3.085z"/><path fill="#4D4D4D" stroke="#333" stroke-width="0.578251" d="M34.224 69.22c-.354-.793-1.62-3.085-4.021-1.467l5.026-3.465 2.399-1.369 1.587 2.75-1.473 1.771 2.079 10.092.386.26c.138.074.074.154-.03.15l-4.76.71a9.16 9.16 0 0 1-.894-4.473c.066-1.085.722-2.359-.299-4.96Z"/><rect width="4.04487" height="0.57825" x="36.4316" y="78.4902" fill="#3B3B3B" rx="0.289125" transform="rotate(-30 36.432 78.49)"/><rect width="5.3893" height="0.57825" x="34.7578" y="78.0518" fill="#3B3B3B" rx="0.289125" transform="rotate(-30 34.758 78.052)"/><rect width="5.16812" height="0.57825" x="34.623" y="76.6982" fill="#3B3B3B" rx="0.289125" transform="rotate(-30 34.623 76.698)"/><rect width="4.8255" height="0.57825" x="34.5879" y="75.292" fill="#3B3B3B" rx="0.289125" transform="rotate(-30 34.588 75.292)"/><rect width="4.53204" height="0.57825" x="34.334" y="74.0215" fill="#3B3B3B" rx="0.289125" transform="rotate(-30 34.334 74.022)"/><rect width="3.64876" height="0.57825" x="34.8691" y="70.8662" fill="#3B3B3B" rx="0.289125" transform="rotate(-30 34.87 70.866)"/><rect width="2.8927" height="0.57825" x="34.1562" y="69.9365" fill="#3B3B3B" rx="0.289125" transform="rotate(-30 34.156 69.936)"/><rect width="4.03908" height="0.57825" x="34.7188" y="72.3701" fill="#3B3B3B" rx="0.289125" transform="rotate(-30 34.719 72.37)"/><path fill="#595959" d="m27.554 65.589 1.816-1.121 1.506-2.55 3.318 3.084-3.99 2.75-.766.567z"/><path fill="#595959" stroke="#333" stroke-width="0.578251" d="m27.554 65.589 1.816-1.121 1.506-2.55 3.318 3.084-3.99 2.75-.766.567z"/><path fill="#404040" d="M36.21 64.121c.391.476.965.598 1.456.414.381-.146.667-.13.876-.038l-.911-1.58-1.645.94z"/><path stroke="#333" stroke-width="0.578249" d="m35.987 63.857 1.644-.94.911 1.58c-.209-.092-.495-.108-.876.038-.491.184-1.065.062-1.456-.414z"/><path stroke="#333" stroke-width="1.1565" d="m29.37 64.467 2.174-3.681 3.687 3.5 2.398-1.369 1.588 2.75-1.473 1.772 2.079 10.092.386.26c.138.073.074.153-.03.15l-4.76.709a9.16 9.16 0 0 1-.895-4.473c.067-1.084.723-2.358-.298-4.959-.354-.792-1.62-3.084-4.021-1.467l-.766.567-1.884-2.73z"/><path fill="#383838" fill-rule="evenodd" d="M22.927 68.94 5.805 80.5a2 2 0 0 1-.418.062c-.139.008-.245.015-.331.084l-1.628 1.108-2.49 2.61c-.266.353-.188.559.146.848 1.975 1.67 3.56 3.868 5.214 6.161.85 1.18 1.72 2.386 2.67 3.558.443.547.904 1.113 1.587 1.487.835.378 1.72-.52 1.986-1.047l2.768-5.199c.143-.284.682-.642 1.21-.946l-1.079-1.91.919-.564c.235-.15.326-.293.42-.605l1.295-4.781c.19-.559.35-.79 1.159-1.26l4.026-2.447c.723-.438 1.049-.9 1.025-1.603l-.216-2.869 1.21-.815zM12.604 88.366l2.802-1.594c.527-.316.823-.72.993-1.337l1.153-4.063c.18-.448.402-.729.819-.992l1.578-.959-.708-1.32-9.498 6.179zm9.954-11.082-.64-1.108 1.274-.735c.499.84.303 1.355-.634 1.843" clip-rule="evenodd"/><path fill="#404040" d="m15.191 86.888-2.589 1.478-2.86-4.086-1.369.89 2.882 3.694c.251.35.664.24 1.1-.01l1.763-1.019 1.275 2.208c.214-.258.674-.558 1.124-.817z"/><path fill="#595959" d="m8.375 85.17 10.866-7.068 2.233-1.708 2.717-1.569-.124-1.637 1.21-.815-2.35-3.433L5.805 80.5a2 2 0 0 1-.418.063c-.139.008-.245.015-.331.084l-.125.108z"/><path fill="#474747" d="m8.374 85.17-1.045-1.34 7.588-5.186-.133-.23 5.56-3.844.206.275 4.338-3.04.013.02-.162.909-.673.453.124 1.638-2.717 1.568-2.233 1.708z"/><path fill="#4D4D4D" stroke="#333" stroke-width="0.578251" d="M15.31 90.172a.6.6 0 0 1 .086-.129l-1.274-2.208-1.764 1.019c-.436.251-.848.361-1.1.01L4.922 80.74l-1.143.778c2.635 3.791 6.567 9.333 9.355 12.746z"/><path fill="#404040" fill-rule="evenodd" stroke="#333" stroke-width="0.578251" d="m21.475 76.393 2.716-1.568.093 1.23c.015.432-.102.772-.36 1.071l-3.975 2.295-.707-1.321zm1.083.891-.64-1.108 1.274-.735c.499.84.303 1.355-.634 1.843Z" clip-rule="evenodd"/><path fill="#595959" stroke="#333" stroke-width="0.578249" d="m15.243 90.287-.306-.163c-.443-.3-1.049-.213-1.286.309l-.733 1.549c-.158.453.224 1.041.515 1.35l.103.096.485-.845z"/><path fill="#4C4B4F" d="M37.175 56.087c-1.748 1.674-3.808 3.83-5.028 5.25l-.02.003-.583-.553c.714-1.184 1.98-2.387 3.244-3.589a47 47 0 0 0 1.827-1.8l17.626-10.175.438.758-1.158.669c-.388-.49-.941-.47-1.484-.153l-7.813 4.51a1.64 1.64 0 0 0-.85 1.5zM57.22 50.38 34.437 63.531l.794.755 12.578-7.18-.552-.976 7.437-4.294c.62-.35 1.228-.278 1.75.238l1.317-.756z"/><path fill="#3F3D42" d="M46.467 59.614a.44.44 0 1 0-.44-.763.44.44 0 0 0 .44.763"/><path fill="#3F3E42" d="M44.223 51.006c-1.998 1.157-.145 4.607 2.179 3.21l6.547-3.78.33-.363.546-.316c.596-.337.871-1.116.604-1.562l-.798-1.383c-.388-.652-.998-.664-1.595-.315"/><path fill="#3F3D42" d="M36.71 61.444a.339.339 0 1 0-.339-.586.339.339 0 0 0 .339.586"/><path fill="#3E3D42" d="M56.18 50.639a.339.339 0 1 0-.338-.587.339.339 0 0 0 .339.587"/><path fill="#3F3D42" d="M45.928 55.807a.247.247 0 1 0-.247-.429.247.247 0 0 0 .247.429m.44 1.046a.247.247 0 1 0-.248-.429.247.247 0 0 0 .248.428"/><path stroke="#333" stroke-width="1.1565" d="m12.603 88.367 2.802-1.594c.527-.315.823-.72.993-1.336l1.154-4.064c.179-.448.401-.728.818-.991l1.579-.96-.708-1.32-9.498 6.18z"/><path fill="#404040" stroke="#333" stroke-width="0.578251" d="M13.258 94.024c-2.794-3.255-6.586-8.34-9.482-12.507l-.348.237-2.49 2.61c-.266.354-.188.56.146.848 1.975 1.67 3.56 3.868 5.214 6.162.85 1.18 1.72 2.386 2.67 3.558.443.547.904 1.112 1.587 1.486.835.378 1.72-.52 1.986-1.047z"/><path stroke="#323135" stroke-width="1.15668" d="M36.615 55.398c-1.69 1.796-4 3.613-5.071 5.389l3.687 3.5 12.586-7.185-.56-.97 7.437-4.295c.62-.35 1.228-.277 1.75.238l1.317-.755-3.52-6.097z"/><path fill="#474747" d="M23.649 72.699a.29.29 0 0 0-.402-.078l-2.297 1.554a.29.29 0 0 0-.077.401l.057.085a.29.29 0 0 0 .402.078l2.296-1.554a.29.29 0 0 0 .078-.401zm-12.022 8.133a.29.29 0 0 0-.402-.078L8.93 82.308a.29.29 0 0 0-.078.401l.058.085a.29.29 0 0 0 .401.078l2.297-1.554a.29.29 0 0 0 .078-.401zm3.006-2.035a.29.29 0 0 0-.402-.077l-2.296 1.553a.29.29 0 0 0-.078.402l.058.085a.29.29 0 0 0 .401.078l2.297-1.554a.29.29 0 0 0 .077-.402z"/><path fill="#404040" d="M11.157 80.024a.503.503 0 1 0-.503-.871.503.503 0 0 0 .503.87"/><path fill="#474747" d="M10.428 80.126a.72.72 0 0 0 .762.12.29.29 0 0 1-.125.271l-2.297 1.554a.29.29 0 0 1-.401-.078l-.058-.085a.29.29 0 0 1 .078-.401zm1.031-.082a.72.72 0 0 0 .122-.7l2.106-1.424a.29.29 0 0 1 .402.077l.057.085a.29.29 0 0 1-.077.402l-2.297 1.553a.29.29 0 0 1-.313.007m1.686-2.925a.29.29 0 0 1 .402.077l.057.085a.29.29 0 0 1-.077.402L11.432 79.1a.72.72 0 0 0-.71-.21.29.29 0 0 1 .127-.217zm-2.889 2.779a.72.72 0 0 1 .11-.788.3.3 0 0 0-.224.043l-2.297 1.553a.29.29 0 0 0-.077.401l.057.086a.29.29 0 0 0 .402.077z"/><path fill="#404040" d="M15.686 76.985a.503.503 0 1 0-.502-.871.503.503 0 0 0 .502.87"/><path fill="#474747" d="M16.104 76.287a.72.72 0 0 1-1.163.786l-.541.367a.29.29 0 0 0-.078.4l.058.086c.09.132.27.167.401.077l2.297-1.553a.29.29 0 0 0 .078-.402l-.058-.085a.29.29 0 0 0-.401-.077zm.048-1.202a.29.29 0 0 1 .401.078l.058.085a.29.29 0 0 1-.078.401l-.588.398a.72.72 0 0 0-1.172.793l-.537.363a.29.29 0 0 1-.401-.078l-.058-.085a.29.29 0 0 1 .078-.401z"/><path fill="#404040" d="M20.214 73.905a.503.503 0 1 0-.503-.871.503.503 0 0 0 .503.87"/><path fill="#474747" d="M19.307 73.773a.72.72 0 0 1 .095-.756.29.29 0 0 0-.247.037l-2.296 1.553a.29.29 0 0 0-.078.402l.058.085a.29.29 0 0 0 .401.077zm.173.229a.72.72 0 0 0 .727.144.29.29 0 0 1-.125.271l-2.297 1.554a.29.29 0 0 1-.401-.078l-.058-.085a.29.29 0 0 1 .078-.401zm1.013-.047a.72.72 0 0 0 .143-.735l2.068-1.399a.29.29 0 0 1 .402.078l.057.085a.29.29 0 0 1-.077.401l-2.297 1.554a.29.29 0 0 1-.296.016m1.667-2.935a.29.29 0 0 1 .401.077l.058.085a.29.29 0 0 1-.078.401l-2.058 1.393a.72.72 0 0 0-.746-.192.29.29 0 0 1 .126-.211z"/><path stroke="#333" stroke-width="1.1565" d="M22.927 68.94 5.805 80.5c-.366.102-.59.02-.75.146l-1.627 1.108-2.49 2.61c-.266.353-.188.559.146.848 2.992 2.529 5.088 6.27 7.884 9.72.443.546.904 1.112 1.587 1.486.835.378 1.72-.52 1.986-1.047l2.768-5.199c.143-.284.682-.642 1.21-.946l-1.079-1.91.919-.564c.235-.15.326-.293.42-.605l1.295-4.781c.19-.559.35-.79 1.159-1.26l4.026-2.447c.723-.438 1.049-.9 1.025-1.603l-.216-2.869 1.21-.815z"/><path fill="#4D4D4D" stroke="#333" stroke-width="0.578249" d="M18.277 84.496c.017.668.513.59.866.536l.46-3.212c.061-.696.552-1.385 1.489-1.968l1.16-.67-.449-.778c-1.048.617-1.961 1.101-2.873 1.502-.367.164-.43.422-.453.704z"/><path fill="#4D4D4D" stroke="#333" stroke-width="0.578249" d="M22.28 79.96a.683.683 0 1 0-.683-1.182.683.683 0 0 0 .683 1.182Z"/><path fill="#404040" stroke="#333" stroke-width="0.578251" d="m15.35 80.634.09.329c.043.169.076.34.07.508a1 1 0 0 1-.018.162c-.043.22-.166.438-.434.646l-4.468 3.209.008.011 4.469-3.208c.27-.21.396-.43.44-.655.043-.224.005-.453-.053-.677l-.092-.334z"/><path fill="#404040" stroke="#333" stroke-width="0.578251" d="M10.718 85.735a1.138 1.138 0 1 0-1.139-1.971 1.138 1.138 0 0 0 1.139 1.971Z"/><path fill="#37363A" d="m51.371 48.588 2.465-1.423.29.5-2.466 1.424z"/><path stroke="#323135" stroke-width="1.1565" d="M44.223 51.006c-1.998 1.157-.145 4.607 2.179 3.21l6.547-3.78.33-.363.546-.316c.596-.337.871-1.116.604-1.562l-.798-1.383c-.388-.652-.998-.664-1.595-.315"/><path fill="#37363A" stroke="#323135" stroke-width="0.578251" d="M39.913 64.072c-.397-.687-.113-1.602.467-2.52l-.824.475c-.23 1.001-.032 1.814.223 2.122.467.565.813.7 1.408.7.017 0 .02-.023.002-.026-.491-.08-.82-.101-1.276-.751Z"/><path fill="#3F3E42" fill-rule="evenodd" stroke="#323135" stroke-width="0.578251" d="m37.629 62.919 7.678-4.383c-.297.957-.28 2.195-.052 2.996.253.824.3 1.933-.988 2.657L41.82 65.6c-.749.376-2.296.572-3.098-.788zm1.245 1.505c.677 1.385 1.965 1.386 2.713 1.01l2.447-1.412c.83-.48 1.139-1.098 1.053-1.901-.234-1.733-2.002-2.004-2.666-1.603l-2.91 1.664c-.68.375-.84 1.89-.637 2.242Z" clip-rule="evenodd"/><path fill="#3F3E42" stroke="#323135" stroke-width="0.578249" d="M32.483 59.526c.669-.773 1.487-1.55 2.304-2.327l.139-.131-.488-.383-1.564.913-.835 1.527z"/><path fill="#424242" stroke="#333" stroke-width="0.578251" d="M51.194 62.242c.378.78.828 1.505 1.309 2.19l-.648.507-1.398-2.218z"/><path fill="#454545" stroke="#333" stroke-width="0.578251" d="M52.504 64.433c.5.712 1.035 1.38 1.562 2.025l-.836.66-1.374-2.179z"/></g><defs><clipPath id="a"><path fill="#fff" d="M0 0h110v110H0z"/></clipPath></defs></svg>