<svg xmlns="http://www.w3.org/2000/svg" width="110" height="110" fill="none" viewBox="0 0 110 110"><g clip-path="url(#a)"><path fill="#585450" stroke="#363330" stroke-miterlimit="3.99393" stroke-width="0.50133" d="m23.826 58.283 1.497-.864.157.272 1.157-.668.472.817-1.497.864-.157-.272-1.157.668z"/><path fill="#56524E" stroke="#363330" stroke-miterlimit="3.99393" stroke-width="0.50133" d="m57.82 43.777 2.625-1.515 1.383-.112 40.248-23.238 1.297 2.246-40.249 23.238-.788 1.14-2.625 1.516z"/><path fill="#5B5753" fill-rule="evenodd" stroke="#363330" stroke-width="0.50133" d="m92.618 20.38-2 1.155.11.193-31.603 18.246.666 1.153L87.706 25.01l2.415 4.183 2.028-1.17-2.415-4.184 1.66-.958.362.627 2.001-1.155zm-.262 1.022-.886.51.386.668.892-.515z" clip-rule="evenodd"/><path fill="#C1995B" fill-rule="evenodd" d="m26.45 58.351 1.897 3.13c.765 1.01 3.099 2.538 6.318.57l5.75-3.32.138.239-8.098 4.675c-.193.04-.927.037-2.344-.297-.409-.096-.872-.05-1.335.068a7.2 7.2 0 0 0-1.403.55c-.872.443-1.674 1.015-2.108 1.414l-2.562-4.452 1.51-.872c.504-.788 1.679-1.454 2.238-1.705m-.287.76c.294.013.87.234.819 1.025a.5.5 0 0 1-.131.167c-.093.09-1.332.784-1.94 1.12-.185-.06-.573-.287-.641-.719s1.234-1.242 1.893-1.592" clip-rule="evenodd"/><path fill="#C1995B" d="m58.444 40.928-1.633.943 2.801 5.323.402 1.538 2.202-1.271zm-.244 8.307c-.401-.188-.84-.215-1.079-.148l-12.487 7.209.806 1.395 1.338-.773a.8.8 0 0 1 .354-.066.51.51 0 0 1 .42.254l1.278 2.214-.464 1.048.275.117.618-1.679-1.91-3.307z"/><path fill="#C8A56E" stroke="#4A381C" stroke-miterlimit="3.99393" stroke-width="0.50133" d="m28.348 61.48-1.895-3.125-.45-1.328 46.103-26.618.472.816-.441 1.752-14.903 8.604c-.29-.504-1.57.187-1.259.726l1.906 3.3.633-.002.55.953-.181.785.909 1.653-.898.882c-.397-.751-1.368-.904-1.772-.792L34.666 62.051c-3.219 1.968-5.553.44-6.318-.571Z"/><path stroke="#4A381C" stroke-miterlimit="3.99393" stroke-width="0.50133" d="m58.444 40.928-1.633.943 2.802 5.323.4 1.538 2.203-1.272z"/><path fill="#423E38" stroke="#37342F" stroke-miterlimit="3.99393" stroke-width="1.00266" d="M1.096 73.64c-.05-.65.498-.888.993-1.174l.88-.508 9.28 12.789-2.302 1.33-2.18-1.902c-2.271-3.124-6.599-9.601-6.67-10.536Z"/><path fill="#BE9453" fill-rule="evenodd" d="m22.304 71.093-9.33 7.474-.064 5.798-1.425.823-2.546-1.57L4.484 76.8l16.938-9.78zM8.227 76.998a.47.47 0 0 1 .644.172l2.161 3.743a.471.471 0 1 1-.817.471l-2.16-3.742a.47.47 0 0 1 .172-.644" clip-rule="evenodd"/><path fill="#4B4744" stroke="#363330" stroke-miterlimit="3.99393" stroke-width="0.50133" d="m105.109 16.934-3.13 1.807 1.492 2.586 3.131-1.807-.079-.136 2.654-1.532-.393-.681-2.654 1.532-.55-.952 2.654-1.533-.393-.68-2.654 1.532z"/><path fill="#585450" d="m56.875 70.904-5.565-6.969-.294-.368 3.81-5.807 3.635-3.003 1.159.884 8.084 9.935-.83.662-.44-.553c-.118-.147-.287-.106-.356-.067l-8.382 6.692-1.005-1.259z"/><path fill="#46433F" fill-rule="evenodd" stroke="#363430" stroke-miterlimit="3.99393" stroke-width="0.50133" d="m58.197 59.21-1.579-1.978 1.843-1.47 1.4 1.754.67-.681.698.634-.775.789 1.908 2.39.67-.682.698.634-.776.79 3.204 4.012-1.842 1.47-3.026-3.79-2.469 2.512 2.763 3.46-.737.589-2.692-3.371-2.692 2.739-.698-.634 2.798-2.847-1.908-2.39-2.692 2.74-.698-.635 2.798-2.846-1.914-2.397.737-.588 1.842 2.307zm.592.741-2.468 2.512 1.908 2.39 2.469-2.512z" clip-rule="evenodd"/><path fill="#534F4B" stroke="#363430" stroke-miterlimit="3.99393" stroke-width="1.00266" d="M57.672 72.278c.286.463.831 1.042 1.177 1.222.345.181 1.327-.576 1.844-1.041l6.955-5.884c.148-.17.33-.656.056-1l-.83.662-.44-.553c-.118-.147-.287-.106-.356-.067z"/><path stroke="#363430" stroke-miterlimit="3.99393" stroke-width="1.00266" d="m56.875 70.904-5.565-6.969-.294-.368 3.81-5.807 3.635-3.003 1.159.884 8.084 9.935-.83.662-.44-.553c-.118-.147-.287-.106-.356-.067l-8.382 6.692-1.005-1.259z"/><path fill="#56534E" stroke="#363430" stroke-miterlimit="3.99393" stroke-width="1.00266" d="m22.19 65.898-.885.51-2.024-3.504c.654-.377 1.5-.442 1.84-.427.59-.637.679-.849.78-1.085l.817-.472 3.359 5.818-1.872 1.08z"/><path stroke="#4A381C" stroke-miterlimit="3.99393" stroke-width="0.50133" d="M8.87 77.17a.471.471 0 1 0-.816.472l2.16 3.742a.471.471 0 1 0 .817-.471z" clip-rule="evenodd"/><path fill="#B98C46" stroke="#4A381C" stroke-miterlimit="3.99393" stroke-width="0.50133" d="m18.734 68.573-1.96 1.132 2.296 3.979 1.788-1.432z"/><path fill="#433F3D" stroke="#363330" stroke-miterlimit="3.99393" stroke-width="0.50133" d="m44.69 62.207-.1-.487c-.645-.595-1.745-1.279-.976.745.962 2.53 1.883 2.633 2.2 2.632.253-.002.264-.093.238-.138-1.45-.687-1.512-2.121-1.362-2.752Z"/><path fill="#C1995B" stroke="#4A381C" stroke-miterlimit="3.99393" stroke-width="0.50133" d="m55.332 41.273-.761 2.924L30.94 57.84l.515-2.782z"/><path fill="#56524E" stroke="#363330" stroke-miterlimit="3.99393" stroke-width="0.50133" d="m35.364 57.56 1.307-.756.865 1.5-1.307.754c-.027.258-.224.71-.792.458-.569-.253-.814-1.105-.866-1.5.034-.185.24-.537.793-.457Z"/><path fill="#B98C46" stroke="#4A381C" stroke-miterlimit="3.99393" stroke-width="0.50133" d="m54.871 47.31 3.334-1.925.661 1.144-3.334 1.925z"/><path fill="#C49F64" stroke="#4A381C" stroke-miterlimit="3.99393" stroke-width="0.50133" d="m15.585 70.255 1.77-1.022.746 1.293-4.704 4.032-3.335 1.925z"/><path fill="#896734" stroke="#4A381C" stroke-linecap="round" stroke-miterlimit="3.99393" stroke-width="0.50133" d="M9.723 75.663a.723.723 0 1 0 .723 1.252l3.066-1.77a.723.723 0 1 0-.722-1.252z"/><path fill="#C8A56E" stroke="#4A381C" stroke-miterlimit="3.99393" stroke-width="0.50133" d="m19.224 62.573-17.216 9.94L4.483 76.8l17.216-9.94z"/><path stroke="#4A381C" stroke-miterlimit="3.99393" stroke-width="0.50133" d="M49.122 61.236c.36.52.687 1.072.938 1.53a1.9 1.9 0 0 1-.334.617c-.247.279-2.024 1.758-2.603 2.092-.462.267-1.677.787-2.227 1.014-.278.07-.92.087-1.274-.399-.353-.486-.893-1.495-1.12-1.94a.9.9 0 0 1 .176-1.098l4.598-2.655c.346-.109 1.198-.093 1.846.84Zm-22.957-2.124c.294.011.87.233.818 1.024a.5.5 0 0 1-.13.166c-.094.09-1.332.785-1.94 1.12-.185-.06-.573-.286-.641-.718-.069-.433 1.234-1.242 1.893-1.592Z"/><path fill="#C09859" stroke="#4A381C" stroke-miterlimit="3.99393" stroke-width="0.50133" d="m39.768 57.609-1.973 1.14-1.336-2.314 1.973-1.14.06.102 1.973-1.14c3.778-1.398 4.404-.313 1.139 1.974l-1.974 1.14z"/><path fill="#BB8F4A" stroke="#4A381C" stroke-miterlimit="3.99393" stroke-width="0.50133" d="m39.792 52.468 1.906-1.1c.272-.158.842.148 1.093.321l.852 2.184a445 445 0 0 0-2.616 1.284c-.054.031-.179-.048-.234-.092l-1.179-2.041c-.125-.218.067-.462.178-.556Z"/><rect width="13.122" height="2.04088" x="42.1875" y="51.5859" fill="#45423F" rx="1.02044" transform="rotate(-30 42.188 51.586)"/><path fill="#403D3A" d="M51.525 48.552a2.7 2.7 0 0 0-.337-.984 2.7 2.7 0 0 0-.683-.784l-4.324 2.497a2.7 2.7 0 0 0 1.02 1.767z"/><rect width="13.122" height="2.04088" x="42.1875" y="51.5859" stroke="#363330" stroke-miterlimit="3.99393" stroke-width="0.50133" rx="1.02044" transform="rotate(-30 42.188 51.586)"/><path stroke="#4A381C" stroke-miterlimit="3.99393" stroke-width="1.00266" d="m19.224 62.573-17.216 9.94L4.483 76.8l4.455 6.818 2.547 1.57 1.425-.823.063-5.798 9.33-7.474-.882-4.072.278-.161z"/><path fill="#BD9351" fill-rule="evenodd" d="m25.772 66.37-.388-.757-.174-.181c.42-.4 1.253-1.003 2.163-1.465a7.2 7.2 0 0 1 1.403-.55c.463-.119.926-.164 1.335-.068 1.417.334 2.15.337 2.344.297l8.098-4.675-.408-.706.32-.922 2.878-1.662 1.083.255 1.014 1.756 1.338-.773a.8.8 0 0 1 .353-.066.51.51 0 0 1 .42.254l1.279 2.213-.464 1.049.275.117.618-1.68-1.91-3.306 11.093-6.404.453.786c-.465.603-.957 1.477-1.008 1.712l1.67 2.892.322.086.53.919-9.37 7.814-.264.153c-1.172.99-3.084 2.506-3.3 2.63-.112.066-.774.345-1.569.681-.85.36-1.853.784-2.497 1.078l-2.267-2.956-1.077.621-.412-.714-2.28 1.316-4.839.027c-.095.07-.42.278-.952.55-.533.271-1.628.35-2.109.355zm23.125-5.518-1.063-.483a1.3 1.3 0 0 0-.56.029l-4.598 2.655a.9.9 0 0 0-.175 1.099c.226.444.766 1.454 1.12 1.94.352.485.995.468 1.273.398.55-.227 1.765-.747 2.227-1.014.579-.334 2.356-1.813 2.603-2.092.163-.184.277-.449.334-.616-.252-.459-.573-1.065-.933-1.584-.059-.084-.166-.262-.228-.332" clip-rule="evenodd"/><path stroke="#4A381C" stroke-miterlimit="3.99393" stroke-width="0.50133" d="m25.772 66.37-.388-.757-.174-.181c.42-.4 1.253-1.003 2.163-1.465a7.2 7.2 0 0 1 1.403-.55c.463-.119.926-.164 1.335-.068 1.417.334 2.15.337 2.344.297l8.098-4.675-.408-.706.32-.922 2.878-1.662 1.083.255 1.014 1.756 1.338-.773a.8.8 0 0 1 .353-.066.51.51 0 0 1 .42.254l1.279 2.213-.464 1.049.275.117.618-1.68-1.91-3.306 11.093-6.404.453.786c-.465.603-.957 1.477-1.008 1.712l1.67 2.892.322.086.53.919-9.37 7.814-.264.153c-1.172.99-3.084 2.506-3.3 2.63-.112.066-.774.345-1.569.681-.85.36-1.853.784-2.497 1.078l-2.267-2.956-1.077.621-.412-.714-2.28 1.316-4.839.027c-.095.07-.42.278-.952.55-.533.271-1.628.35-2.109.355zm23.125-5.518-1.063-.483a1.3 1.3 0 0 0-.56.029l-4.598 2.655a.9.9 0 0 0-.175 1.099c.226.444.766 1.454 1.12 1.94.352.485.995.468 1.273.398.55-.227 1.765-.747 2.227-1.014.579-.334 2.356-1.813 2.603-2.092.163-.184.277-.449.334-.616-.252-.459-.573-1.065-.933-1.584-.059-.084-.166-.262-.228-.332Z" clip-rule="evenodd"/><path fill="#433F3D" stroke="#363330" stroke-miterlimit="3.99393" stroke-width="0.50133" d="M47.237 57.424a2.47 2.47 0 0 0-1.123.648l1.178 2.042c.096.035.363.062.663-.11.299-.173.379-.522.382-.675z"/><path fill="#433F3D" stroke="#353231" stroke-miterlimit="3.99393" stroke-width="0.50133" d="M30.309 66.29a1.021 1.021 0 1 0-1.022-1.768 1.021 1.021 0 0 0 1.021 1.769Zm5.513-2.548a1.021 1.021 0 1 0-1.021-1.77 1.021 1.021 0 0 0 1.021 1.77Zm2.658-1.761c-.381.22-.567.648-.497 1.058l-.354.613h.708a1.022 1.022 0 0 0 1.652-1l.899-.518c.36-.209.007-.821-.354-.613l-.923.533a1.02 1.02 0 0 0-1.131-.073Z"/><path fill="#585450" d="m55.182 47.849-11.364 6.56 1.355 2.348c.271.47.653.622 1.318.237l9.832-5.676c.446-.257.33-.87.214-1.122z"/><path fill="#5D5955" stroke="#353331" stroke-miterlimit="3.99393" stroke-width="0.50133" d="m49.591 53.254.825 1.429 1.77-1.022c-.254-.413-.744-1.287-.826-1.429s-.258-.214-.395-.135l-1.293.747c-.19.11-.133.319-.081.41Zm-.857-.544-.492-.853 2.45-1.414.492.853z"/><path stroke="#363330" stroke-miterlimit="3.99393" stroke-width="1.00266" d="m55.182 47.849-11.364 6.56 1.355 2.348c.271.47.653.622 1.318.237l9.832-5.676c.446-.257.33-.87.214-1.122z"/><path fill="#CCB289" fill-rule="evenodd" stroke="#47371F" stroke-miterlimit="3.99393" stroke-width="0.50133" d="M60.641 49.368c-.299.172-.69-.176-.85-.372l-.908-1.653.182-.785-.55-.953-.634.003-1.905-3.3c-.312-.54.968-1.23 1.258-.727l14.903-8.604.44-1.751-.47-.816 17.998-10.392 4.146 6.316.427 1.84-28.07 16.206c-.71.592-1.008 1.686-1.067 2.159zM77.064 29.24l-1.686.973a.125.125 0 0 1-.185-.138l.164-.67a.14.14 0 0 1 .06-.08l1.685-.973a.125.125 0 0 1 .184.139l-.163.67-.014.034a.1.1 0 0 1-.022.027zm.18.619a.476.476 0 0 0 .476.825l3.348-1.934a.476.476 0 0 0-.476-.825zm.805 1.394a.476.476 0 1 0 .476.825l3.349-1.933a.476.476 0 0 0-.477-.825zM60.105 44.59a.476.476 0 0 1 .174-.65l2.352-1.358a.476.476 0 1 1 .476.825l-2.352 1.358a.476.476 0 0 1-.65-.175Zm4.183-2.965a.476.476 0 1 0 .476.825l3.349-1.933a.476.476 0 1 0-.477-.825zm4.937-2.85a.476.476 0 0 0 .477.825l3.348-1.934a.476.476 0 0 0-.476-.824zm4.937-2.85a.476.476 0 1 0 .477.824l3.348-1.933a.476.476 0 0 0-.476-.825zm4.938-2.851a.476.476 0 0 0 .476.825l3.348-1.934a.476.476 0 0 0-.476-.824zm4.937-2.85a.476.476 0 0 0 .476.824l3.348-1.933a.476.476 0 0 0-.476-.825zm-1.05-1.82a.476.476 0 0 0 .475.825l3.349-1.934a.476.476 0 0 0-.477-.824zm-.806-1.395a.476.476 0 1 0 .476.825l3.349-1.933a.476.476 0 0 0-.477-.825zm2.96 5.064a.302.302 0 1 0 .303.524l3.65-2.108a.302.302 0 0 0-.303-.523zm3.833-4.7a.476.476 0 0 0 .476.825l3.349-1.933a.476.476 0 0 0-.477-.825zm-1.05-1.82a.476.476 0 1 0 .475.825l3.349-1.933a.476.476 0 1 0-.476-.825zm-.806-1.394a.476.476 0 0 0 .476.825l3.349-1.934a.476.476 0 1 0-.476-.824zm2.782 5.167a.302.302 0 1 0 .303.523l3.65-2.107a.302.302 0 1 0-.303-.524zM60.67 45.615a.38.38 0 0 1 .188-.324l.43-.248a.376.376 0 0 1 .563.327l-.01 2.184a.38.38 0 0 1-.187.324l-.43.248a.376.376 0 0 1-.563-.328zm1.72-.993a.38.38 0 0 1 .188-.324l.429-.248a.376.376 0 0 1 .564.327l-.01 2.184a.38.38 0 0 1-.187.324l-.43.248a.376.376 0 0 1-.564-.328zm1.72-.993a.38.38 0 0 1 .187-.324l.43-.248a.376.376 0 0 1 .564.327l-.01 2.184a.38.38 0 0 1-.188.324l-.429.248a.376.376 0 0 1-.564-.327zm-2.748-1.066-.704.406a.376.376 0 0 1-.564-.322l-.02-1.9a.38.38 0 0 1 .188-.329l.703-.406a.376.376 0 0 1 .564.322l.02 1.9a.38.38 0 0 1-.187.329Zm1.943-1.122-.703.406a.376.376 0 0 1-.564-.322l-.02-1.9a.38.38 0 0 1 .187-.329l.703-.406a.377.377 0 0 1 .565.322l.02 1.9a.38.38 0 0 1-.188.329Zm1.943-1.122-.703.406a.376.376 0 0 1-.564-.322l-.02-1.9a.38.38 0 0 1 .188-.329l.703-.406a.376.376 0 0 1 .564.322l.02 1.9a.38.38 0 0 1-.188.329Zm1.944-1.122-.704.406a.376.376 0 0 1-.564-.322l-.02-1.9a.38.38 0 0 1 .188-.329l.703-.406a.376.376 0 0 1 .564.322l.02 1.9a.38.38 0 0 1-.187.329Zm1.943-1.122-.704.406a.376.376 0 0 1-.563-.322l-.02-1.9a.38.38 0 0 1 .187-.329l.704-.406a.376.376 0 0 1 .564.322l.02 1.9a.38.38 0 0 1-.188.329Zm1.943-1.122-.703.406a.376.376 0 0 1-.564-.322l-.02-1.9a.38.38 0 0 1 .188-.329l.703-.406c.25-.144.56.034.564.322l.02 1.9a.38.38 0 0 1-.188.329Zm.685-3.175.312-.18.972 1.684c.103.177-.067.573-.184.64l-.704.407a.376.376 0 0 1-.564-.322l-.02-1.9a.38.38 0 0 1 .188-.33Zm2.69.803a1.109 1.109 0 1 0-1.11-1.92 1.109 1.109 0 0 0 1.11 1.92Zm3.504-5.856 1.686-.974a.12.12 0 0 0 .06-.078l.163-.67a.125.125 0 0 0-.184-.139l-1.686.973a.13.13 0 0 0-.06.08l-.163.67a.125.125 0 0 0 .184.138Zm2.58-1.49 1.686-.973a.13.13 0 0 0 .059-.079l.164-.67a.125.125 0 0 0-.185-.138l-1.685.973a.13.13 0 0 0-.06.079l-.163.67a.125.125 0 0 0 .184.138Zm2.58-1.489 1.685-.973.016-.011a.12.12 0 0 0 .04-.054l.004-.014.163-.67a.125.125 0 0 0-.184-.139l-1.686.974a.13.13 0 0 0-.059.078l-.164.67a.125.125 0 0 0 .185.14Zm2.58-1.49 1.685-.973a.13.13 0 0 0 .06-.078l.163-.67a.125.125 0 0 0-.184-.139l-1.686.973a.13.13 0 0 0-.06.08l-.163.67a.125.125 0 0 0 .184.138Zm2.579-1.489 1.686-.973a.13.13 0 0 0 .059-.079l.163-.67a.125.125 0 0 0-.184-.138l-1.686.973a.13.13 0 0 0-.059.079l-.164.67a.125.125 0 0 0 .185.138ZM82.48 34.533l-1.416.817a.13.13 0 0 1-.09.013l-1.474-.345a.125.125 0 0 1-.034-.23l1.416-.818a.13.13 0 0 1 .091-.013l1.473.345a.125.125 0 0 1 .034.23Zm-2.643 1.525-1.416.818a.13.13 0 0 1-.09.013l-1.473-.345a.125.125 0 0 1-.034-.23l1.415-.818a.13.13 0 0 1 .091-.013l1.473.345c.11.026.132.174.034.23Zm-2.643 1.526-1.415.817a.13.13 0 0 1-.091.014l-1.473-.345a.125.125 0 0 1-.034-.23l1.415-.818a.13.13 0 0 1 .091-.013l1.473.345c.11.026.133.173.034.23Zm-2.643 1.526-1.415.817-.026.012h-.004l-.009.003a.1.1 0 0 1-.052-.001l-1.473-.345a.125.125 0 0 1-.034-.23l1.415-.818a.13.13 0 0 1 .092-.014l1.472.346c.11.025.133.173.034.23Zm-2.642 1.526-1.416.817a.13.13 0 0 1-.091.014l-1.473-.346a.125.125 0 0 1-.034-.23l1.416-.817a.13.13 0 0 1 .09-.014l1.474.345c.11.026.132.174.034.23Zm-4.402 2.54 1.759-1.014a.125.125 0 0 0-.034-.23l-1.473-.346a.13.13 0 0 0-.091.014l-.803.463zm17.04-9.837-.643-1.114-1.795 1.037a.125.125 0 0 0 .034.23l1.473.345a.12.12 0 0 0 .091-.014zm-8.08-.222.636-.367a.627.627 0 0 0 .23-.857l-.73-1.263a.578.578 0 0 0-1.078.29l.001 1.655c0 .482.523.783.94.542Zm-3.786-.584 1.57-.907a.13.13 0 0 0 .057-.07l.418-1.276a.125.125 0 0 0-.182-.147l-1.705.984a.13.13 0 0 0-.06.08l-.282 1.198a.125.125 0 0 0 .184.138Z" clip-rule="evenodd"/><path stroke="#4A381C" stroke-miterlimit="3.99393" stroke-width="1.00266" d="m90.184 20.154 4.067 6.18.427 1.84-28.07 16.207c-.71.592-1.007 1.686-1.067 2.159l-4.9 2.828c-.298.173-.67-.141-.829-.337a9 9 0 0 0-.9.877c-.465.604-.972 1.45-1.023 1.685l1.67 2.892.322.086.53.919-9.37 7.814-.265.153c-1.171.99-3.083 2.506-3.3 2.631-.112.065-.774.345-1.568.68-.851.36-1.854.784-2.498 1.078l-2.267-2.956-1.076.622-.413-.715-2.28 1.317-4.838.026c-.096.07-.42.279-.953.55s-1.628.35-2.108.355l-3.702-.675-3.068-5.442 1.51-.872c.515-.805 1.73-1.482 2.273-1.72l-.484-1.309 63.761-36.812zm0 0 .014.021"/><path fill="#A1865B" stroke="#413625" stroke-linecap="round" stroke-miterlimit="3.99393" stroke-width="1.00266" d="m33.391 67.232-1.206-1.617c2.223-1.683 4.358-.414 5.148.43l3.062-1.768c.39-.225.994-.085 1.215.297l1.866 3.232c-.26.15-.808.612-.91 1.252-.103.64 1.52 5.593 2.345 7.99l.859.23c.204.355-.117.9-.302 1.128-1.361.786-6.278 1.855-6.756 1.813-.382-.033-.451-.236-.48-.358l-.267-.934c-1.534-3.978-1.466-8.59-1.24-10.399-.945-1.197-2.616-1.363-3.334-1.296Z"/></g><defs><clipPath id="a"><path fill="#fff" d="M0 0h110v110H0z"/></clipPath></defs></svg>