<svg xmlns="http://www.w3.org/2000/svg" id="svg1" width="170.8746" height="15.4152" version="1.1" viewBox="0 0 170.8746 15.4152"><defs id="defs1"><style id="style1">.cls-1{fill:#161618}.cls-2,.cls-3{fill:#494950}.cls-5{fill:#595963}.cls-3,.cls-5{stroke-width:3px}.cls-10,.cls-3,.cls-5{stroke:#161618}.cls-10{stroke-linecap:round;stroke-width:1.5px;fill:#4d4d56}</style></defs><g id="layer1"><g id="g31"><path id="rect1" d="M4.077 12.527c1.417 0 2.577-.188 2.577-.375V3.249c0-.187-1.16-.375-2.577-.375S1.5 3.062 1.5 3.25v8.903c0 .188 1.16.375 2.577.375Z" style="stroke-width:3px;stroke:#161618;fill:#36363a"/><path id="rect6" d="M130.149 4.82h24.779s.091 0 .091.09v5.653s0 .09-.091.09h-24.779s-.091 0-.091-.09z" class="cls-3"/><path id="rect2" d="m5.615 3.026-.092 9.332s0 .09.092.09h37.58s.09 0 .09-.09V3.026s0-.09-.09-.09H5.614z" class="cls-3"/><path id="rect5" d="M44.017 1.68h87.595s.091 0 .091.09v11.934s0 .09-.091.09l-85.548-.538s-.824-.31-.824-.4z" class="cls-2"/><path id="rect18" d="M71.356 1.68h24.78c.09 0 .09.09.09.09v11.845c0 .09-.09.09-.09.09h-24.78c-.091 0-.091-.09-.091-.09V1.769q0-.09.091-.09Z" style="stroke-width:3px;fill:#77778d;stroke:#171717;stroke-linecap:round"/><path id="rect8" d="m151.713 3.575 17.57-.011s.092 0 .092.09v7.627s0 .09-.092.09l-17.494-.027s-.258-.029-.244-.315l.091-7.465c-.091 0 0 0 0 0z" class="cls-5"/><g id="g17"><path id="rect21" d="M70.26 4.886h30.813c.091 0 .091.09.091.09v4.846c0 .09-.091.09-.091.09H70.259c-.091 0-.091-.09-.091-.09V4.976q0-.09.091-.09" class="cls-2"/><path id="path10" d="M70.9 4.976h33.922" class="cls-10"/><path id="path16" d="M70.9 10.36h33.922" class="cls-10"/></g><path id="rect17" d="M58.098 4.282h12.344c.091 0 .091.09.091.09v6.46c0 .09-.091.09-.091.09H58.098c-.091 0-.091-.09-.091-.09v-6.46z" style="stroke:#161618;stroke-linecap:round;stroke-width:1.5px;fill:#52525b"/><path id="rect20" d="M131.612 1.5s.091 0 .091.09v12.204s0 .09-.091.09c0 0-89.8.028-87.668-.012l.072-12.176c0-.108.089-.196.197-.196z" style="stroke-width:3px;stroke:#161618;fill:none"/><path id="rect22" d="M95.404 5h9.509s.091 0 .091.09v5.204s0 .09-.091.09h-9.51s-.09 0-.09-.09L95.402 5c-.09.09 0 0 0 0z" style="fill:#494950;stroke:#161618;stroke-linecap:round;stroke-width:1.5px"/></g></g><ellipse id="ellipse1" cx="111.8048" cy="4.3172" class="cls-1" rx="2.1" ry="1.2"/><ellipse id="ellipse2" cx="116.8048" cy="4.3172" class="cls-1" rx="2.1" ry="1.2"/><ellipse id="ellipse3" cx="121.8048" cy="4.3172" class="cls-1" rx="2.1" ry="1.2"/><ellipse id="ellipse4" cx="126.8048" cy="4.3172" class="cls-1" rx="2.1" ry="1.2"/><ellipse id="ellipse5" cx="111.9048" cy="11.0172" class="cls-1" rx="2.1" ry="1.2"/><ellipse id="ellipse6" cx="116.9048" cy="11.0172" class="cls-1" rx="2.1" ry="1.2"/><ellipse id="ellipse7" cx="121.9048" cy="11.0172" class="cls-1" rx="2.1" ry="1.2"/><ellipse id="ellipse8" cx="126.9048" cy="11.0172" class="cls-1" rx="2.1" ry="1.2"/><rect id="rect9" width="6.309" height="8.2558" x="135.5769" y="3.6513" class="cls-5" rx=".5996" ry=".5996"/></svg>