<svg xmlns="http://www.w3.org/2000/svg" width="110" height="110" fill="none" viewBox="0 0 110 110"><g clip-path="url(#a)" transform="translate(-1.24 3.106)scale(1.01977)"><path fill="#47433e" stroke="#363330" stroke-width="0.837087" d="M89.302 16.791a.837.837 0 0 0-.306 1.144l3.026 5.241-.462.267.57.987 2.985-1.723-.57-.988-.621.36-3.026-5.242a.837.837 0 0 0-1.144-.307Z"/><path fill="#3f3b37" stroke="#363330" stroke-miterlimit="3.99393" stroke-width="0.837087" d="m58.703 64.21-2.494-5.776 8.325-4.806 4.595 5.043zm-7.484-6.565 1.432 2.48 14.132-8.16.07-1.94-.61-1.055z"/><path fill="#4a4641" stroke="#363330" stroke-width="0.837087" d="m52.996 55.934 10.913-6.3 1.937 3.354-10.913 6.3z"/><path fill="#3c3835" stroke="#363330" stroke-miterlimit="3.99393" stroke-width="0.418543" d="M48.189 64.495s.7-.537 1.46.094c.753.636 1.54-.312 1.54-.312s-2.341-1.077-1.224-2.684c1.116-1.607-2.513 1.355-2.513 1.355z"/><path fill="#917a4f" d="M51.85 57.197 38.457 64.93a.203.203 0 0 0-.062.288L39.77 67.6a.58.58 0 0 0 .628.275c.778-.173 2.397-.242 2.256 2.22-.15 2.72-.42 6.856-.494 8.102a.57.57 0 0 0 .304.546c.14.076.295.095.437.049l6.253-1.687a.6.6 0 0 0 .305-.2c.148-.181.344-.487.24-.668-.12-.207-.388-.317-.512-.365-.034-.017-.071-.02-.1-.027-.08-.014-.29-.109-.288-.771-.001-.71-.253-5.603-.332-7.072a.6.6 0 0 1 .367-.573c.606-.241 1.767-.731 2.48-1.142.991-.573 2.975-1.719 3.166-2.43s.381-1.422.173-1.783l-1.625-2.814a.6.6 0 0 1-.079-.303c.006-.136.018-.323.085-.458a.56.56 0 0 0-.027-.525l-.338-.587a.63.63 0 0 0-.819-.189m1.999 5.003c.458.794-.343 1.761-.544 1.974-.031.03-.053.054-.09.075l-3.868 2.234c-.758.437-1.226-.206-1.404-.536a.36.36 0 0 1-.01-.33l1.312-3.08a.36.36 0 0 1 .162-.177l2.498-1.443c.487-.28.996-.046 1.185.074.053.03.108.082.139.136z"/><path fill="#44403c" stroke="#363330" stroke-width="0.418543" d="M41.308 66.917c-.287.34.286.727.546.409l1.744-1.992c.271-.3.18-.837-.023-1.168l.216-.526-.462.267c-.31-.204-.818-.236-1.23.236-.267.304-.308.796-.04 1.22.12.19.15.444.008.619z"/><path stroke="#423824" stroke-linecap="round" stroke-miterlimit="3.99393" stroke-width="0.837087" d="m38.457 64.93 13.393-7.733a.63.63 0 0 1 .819.19l.338.585c.094.163.11.358.027.526-.067.135-.079.322-.085.458a.6.6 0 0 0 .08.303l1.624 2.814c.208.36.018 1.072-.173 1.783s-2.175 1.857-3.167 2.43c-.712.411-1.873.9-2.479 1.142a.6.6 0 0 0-.367.573c.08 1.47.331 6.362.332 7.072-.003.662.208.757.289.77.028.008.065.01.1.027.123.05.391.159.51.366.105.18-.091.486-.239.668a.6.6 0 0 1-.305.2L42.9 78.791a.56.56 0 0 1-.437-.049.57.57 0 0 1-.304-.546c.075-1.246.344-5.382.494-8.101.141-2.463-1.478-2.394-2.256-2.221a.58.58 0 0 1-.628-.275l-1.375-2.38a.203.203 0 0 1 .062-.29z"/><path stroke="#423824" stroke-linecap="round" stroke-miterlimit="3.99393" stroke-width="0.418543" d="M53.304 64.174c.201-.213 1.002-1.18.543-1.974l-.62-1.073a.4.4 0 0 0-.138-.136c-.19-.12-.698-.355-1.185-.074l-2.498 1.442a.36.36 0 0 0-.162.178l-1.313 3.079a.36.36 0 0 0 .01.33c.18.33.647.974 1.405.537l3.869-2.234c.036-.02.058-.045.088-.075z"/><path fill="#957840" stroke="#47391f" stroke-linecap="round" stroke-miterlimit="3.99393" stroke-width="0.837087" d="m33.705 67.674 5.89-3.4.973 1.686s-.532.849-.064 1.66l-1.776 1.026s-.659.38-1.023-.251l-1.932 1.236s-.693.424-1.141-.352z"/><path fill="#3e3b37" stroke="#363330" stroke-miterlimit="3.99393" stroke-width="0.418543" d="m86.29 36.844-5.91 3.412.683 1.182 5.91-3.412z"/><path fill="#393632" stroke="#363330" stroke-width="0.418543" d="m94.373 26.096 1.448-.836 1.702 2.947-1.448.836z"/><path fill="#453d31" stroke="#3c352a" stroke-miterlimit="3.99393" stroke-width="0.837087" d="m4.392 72.687-2.597 2.035a.447.447 0 0 0-.071.606l7.337 9.755c.096.127.27.163.408.084l.08-.046a.1.1 0 0 1 .113.005l.367.264a.31.31 0 0 0 .345.014l2.128-1.282z"/><path fill="#3e3b37" stroke="#363330" stroke-miterlimit="3.99393" stroke-width="0.837087" d="m108.325 18.134-.267.37a.13.13 0 0 1-.049.041l-42.261 24.4c-.073.041-.158.019-.194-.045l-1.063-1.84c-.036-.063-.013-.148.06-.19l42.125-24.321c.027-.016.051-.017.074-.019l.523.011a.2.2 0 0 0 .074-.018l.306-.177c.072-.042.158-.02.194.044l.802 1.389c.037.063.014.148-.058.19l-.226.13a.1.1 0 0 0-.04.035z"/><path fill="#413e39" stroke="#363330" stroke-miterlimit="3.99393" stroke-width="0.418543" d="m93.455 28.74-1.895 1.094 1.719 2.976 1.894-1.093-.255-.441 2.976-1.719-.208-.36.712-.412a.42.42 0 0 0 .157-.583l-.563-.974a.42.42 0 0 0-.583-.157l-.712.412-.157-.27-2.976 1.718z"/><path fill="#4a4641" stroke="#363330" stroke-miterlimit="3.99393" stroke-width="0.418543" d="m93.73 32.55-1.985 1.145-1.764-3.056 1.334-.771a.753.753 0 0 1 1.025.275z"/><path fill="#9b7735" fill-rule="evenodd" d="M85.02 28.403a.68.68 0 0 0 .34-.618l10.148-5.835 2.912 5.045a.314.314 0 0 1-.115.429l-1.801 1.04a.314.314 0 0 1-.429-.115l-1.626-2.817-25.162 14.527-1.297-2.245 1.182-.683c.21.24.573.306.862.14a.69.69 0 0 0 .31-.817l1.335-.77c.22.234.568.297.857.13a.684.684 0 0 0 .315-.807l4.861-2.807a.68.68 0 0 0 1.046-.604l1.155-.666a.681.681 0 0 0 1.046-.604l1.154-.667a.681.681 0 0 0 1.047-.604l1.154-.666c.209.132.48.144.705.014m-14.9 9.914a.469.469 0 1 1-.811.468.469.469 0 0 1 .812-.468m16.586-9.035a.469.469 0 1 0-.469-.811.469.469 0 0 0 .469.811m-1.921.568a.469.469 0 1 1-.812.469.469.469 0 0 1 .812-.469m-2.273 1.853a.469.469 0 1 0-.468-.811.469.469 0 0 0 .468.811m-1.92.568a.469.469 0 1 1-.812.469.469.469 0 0 1 .811-.469m-2.265 1.848a.469.469 0 1 0-.468-.811.469.469 0 0 0 .468.812m-1.92.568a.469.469 0 1 1-.812.469.469.469 0 0 1 .812-.469m-2.273 1.854a.469.469 0 1 0-.469-.812.469.469 0 0 0 .469.812m-1.921.568a.469.469 0 1 1-.812.468.469.469 0 0 1 .812-.468m16.585-9.035a.469.469 0 1 0-.469-.811.469.469 0 0 0 .47.811m4.408-3.086a.469.469 0 1 1-.811.469.469.469 0 0 1 .811-.469m2.104-.673a.469.469 0 1 0-.47-.812.469.469 0 0 0 .47.812m1.264 1.253a.469.469 0 1 1-.812.469.469.469 0 0 1 .812-.47" clip-rule="evenodd"/><path fill="#3e3b37" stroke="#363330" stroke-miterlimit="3.99393" stroke-width="0.837087" d="m36.157 48.846-8.298 4.79 1.458 2.526 8.297-4.79z"/><path fill="#be9241" d="m25.108 51.16 1.963 3.4a.33.33 0 0 0 .455.123l9.344-5.395a.33.33 0 0 0 .122-.455l-.844-1.46a.4.4 0 0 1-.046-.143l-.16-2.048a.335.335 0 0 0-.501-.264L25.23 50.705a.33.33 0 0 0-.122.456"/><path fill="#ad8946" d="m35.983 45.702-10.516 6.08.532.922 10.076-5.818zm.285 1.878-9.92 5.727.52.902 9.92-5.728z"/><path fill="#5c5e28" d="M58.947 63.947a.98.98 0 0 0-.277 1.458c.955 1.217 2.61 3.46 3.29 5.22.84 2.161 2.376 3.74 2.836 4.183a.93.93 0 0 0 .43.244c.408.102 1.259.14 2.706-.54 2.179-1.017 7.902-3.6 7.572-5.213s-.837-2.283-1.656-3.493c-.819-1.211-2.423-4.614-2.479-5.544-.026-.525-.462-1.32-.828-1.914a.97.97 0 0 0-1.322-.331Z"/><path fill="#85662e" d="m88.333 29.663.781 1.353-13.618 7.863-1.041-1.804-8.657 4.938-1.969-3.41a1.3 1.3 0 0 0-.548-.512l-.645-.325a.49.49 0 0 0-.461.013l-6.068 3.383 5.676 9.83 30.186-17.427-2.604-4.51zm-14.2 10.063-2.94 1.697-.443-.767.205-.478 2.6-1.453z"/><path stroke="#4c3a1a" stroke-linecap="round" stroke-miterlimit="3.99393" stroke-width="0.837087" d="m89.114 31.016-.78-1.353 1.031-.607 2.604 4.509-30.186 17.428-5.676-9.83 6.068-3.384a.49.49 0 0 1 .461-.013l.645.325c.235.116.423.296.548.513l1.969 3.409 8.657-4.938 1.041 1.804z"/><path stroke="#4c3a1a" stroke-linecap="round" stroke-miterlimit="3.99393" stroke-width="0.418543" d="m71.193 41.423 2.94-1.698-.578-1-2.6 1.453-.205.478z"/><path fill="#9b7735" d="m24.054 61 5.363 9.289 38.69-22.338-3.098-5.366-6.668 1.985-2.977 1.72.208.36-5.14 2.968s-.696-.08-1.042-.72L31.804 59.05s-3.049 1.46-5.749.794l-.838.484s-.365-.633-.946-.296c-.58.337-.217.967-.217.967"/><path fill="#8d7b55" stroke="#403826" stroke-linecap="round" stroke-miterlimit="3.99393" stroke-width="0.837087" d="M4.229 73.52c.738 1.342 2.965 5.095 7.403 10.47a.656.656 0 0 0 .862.139c1.07-.69 3.597-2.33 4.613-3.216a.665.665 0 0 0 .175-.739c-.347-.87-1.002-2.92.292-3.764 1.598-1.043 7.14-3.462 11.847-6.119l-5.024-8.703c-.174-.32-.576-.5-.891-.318-.242.14-.468.34-.662.575-.294.357-1.015 1.284-1.167 2.095-.176.944-3.833 7.107-16.093 8.053a.6.6 0 0 0-.311.107l-.835.554a.666.666 0 0 0-.209.867Z"/><path fill="#b0873c" stroke="#4c3a1a" stroke-linecap="round" stroke-miterlimit="3.99393" stroke-width="0.837087" d="m26.978 66.062 19.03-10.987.272-1.131 3.617-2.088.981.263 14.728-8.503-5.987 6.835-31.24 18.037z"/><path fill="#7e6e4c" d="M12.51 74.253a.418.418 0 1 0-.686.48l3.419 4.88a.419.419 0 0 0 .685-.48zm-2.614 1.129a.42.42 0 0 1 .583.102l3.419 4.88a.418.418 0 1 1-.686.481l-3.418-4.88a.42.42 0 0 1 .102-.583M7.86 76.606a.42.42 0 0 1 .584.102l3.419 4.88a.419.419 0 1 1-.686.48l-3.419-4.88a.42.42 0 0 1 .103-.582"/><path fill="#514b44" stroke="#38332e" stroke-miterlimit="3.99393" stroke-width="0.418543" d="M63.174 41.904a1.25 1.25 0 1 0-1.25-2.165 1.25 1.25 0 0 0 1.25 2.165z"/><path fill="#916f31" d="M62.37 46.338 27.286 66.593l.781 1.353L63.15 47.69Z"/><path fill="#3e3b37" stroke="#363330" stroke-miterlimit="3.99393" stroke-width="0.418543" d="m87.827 32.535-8.839 5.103 1.146 1.984 8.838-5.103z"/><path fill="#b58b21" stroke="#564210" stroke-width="0.418543" d="M54.662 46.077c1.017-.588 1.75-1.222 1.637-1.419-.113-.196-1.03.122-2.047.71z"/><path fill="#b57921" d="m49.629 47.784-.083.048-.017.066.58 1.005.066.018.083-.048z"/><path fill="#563a10" d="m49.546 47.832-.105-.181a.2.2 0 0 0-.097.127zm.083-.048.181-.105a.21.21 0 0 0-.286-.076zm-.1.113-.203-.054a.2.2 0 0 0 .021.16zm.58 1.006-.181.105a.2.2 0 0 0 .127.097zm.066.018-.054.202a.2.2 0 0 0 .158-.021zm.083-.048.104.181a.21.21 0 0 0 .077-.286zm-.607-.86.082-.048-.209-.362-.083.048zm.64.786-.581-1.006-.363.21.581 1.005zm-.138-.107-.083.048.21.362.082-.048zm-.705-.803.628 1.089.363-.21-.629-1.088zm.283.063.017-.066-.404-.108-.018.065zm.498.767-.066-.018-.108.404.066.018z"/><path fill="#97651c" stroke="#563a10" stroke-linejoin="round" stroke-width="0.418543" d="m49.672 47.857.127-.073.543.942-.127.073z"/><path fill="#b57921" stroke="#563a10" stroke-linejoin="round" stroke-width="0.418543" d="m49.854 47.656 3.253-1.852.423-.074.698-.403.456.79-.698.403-.276.33-3.23 1.89-.111.034-.6-1.038z"/><path fill="#736445" stroke="#403826" stroke-linecap="round" stroke-miterlimit="3.99393" stroke-width="0.837087" d="m27.273 57.822-.39-.674a.37.37 0 0 1 .134-.498l28.59-16.506a.37.37 0 0 1 .497.133l.39.675z"/><path fill="#8d7b55" stroke="#403826" stroke-linecap="round" stroke-miterlimit="3.99393" stroke-width="0.837087" d="M57.177 40.556a.79.79 0 0 1 1.081.29.88.88 0 0 1-.32 1.195l-.974.562.672 1.163-2.796 1.614-.568-.983-5.32 3.073.728 1.262-17.676 10.206c-1.804 1.041-3.018 1.02-3.018 1.02l-1.633.09-.984-1.705z"/><path fill="#44403c" stroke="#363330" stroke-miterlimit="3.99393" stroke-width="0.837087" d="m68.04 40.54-.812.468a.313.313 0 0 1-.427-.114l-2.395-4.149a.313.313 0 0 1 .115-.427l.82-.473a.313.313 0 0 1 .427.114l2.395 4.149a.32.32 0 0 1-.123.431z"/><rect width="10.4139" height="1.1375099" x="60.142601" y="64.559601" fill="#3f3b37" stroke="#37332f" stroke-width="0.418543" rx="0.568753" transform="rotate(-30 60.143 64.56)"/><path fill="#3f3b37" stroke="#37332f" stroke-width="0.418543" d="m70.78 73.02.836-.484-3.818-6.613-.837.484z"/><path fill="#44403b" stroke="#37332f" stroke-width="0.418543" d="m62.738 61.758 3.148-1.817 1.973 3.418-3.147 1.817z"/><path fill="#44403b" stroke="#37332f" stroke-miterlimit="3.99393" stroke-width="0.418543" d="M67.798 66.886c.35-.201.445-.687.215-1.086-.23-.398-.699-.558-1.048-.357-.348.201-.445.688-.215 1.086s.7.558 1.048.357z"/><path stroke="#4c3a1a" stroke-linecap="round" stroke-miterlimit="3.99393" stroke-width="0.837087" d="m24.054 61 5.363 9.289 38.69-22.338-3.098-5.366-6.668 1.985-2.977 1.72.208.36-5.14 2.968s-.696-.08-1.042-.72L31.713 59.102s-2.958 1.407-5.658.741l-.838.484s-.365-.633-.946-.296c-.58.337-.217.968-.217.968z"/><path fill="#474033" stroke="#3b362b" stroke-miterlimit="3.99393" stroke-width="0.837087" d="m62.368 46.34-19.12 11.038.781 1.353 19.12-11.039Z"/><path fill="#544b3c" stroke="#3b362b" stroke-miterlimit="3.99393" stroke-width="0.837087" d="m49.082 50.403-1.533.885 3.843 6.656 1.533-.885z"/><path fill="#c4a165" stroke="#4a391c" stroke-linecap="round" stroke-miterlimit="3.99393" stroke-width="0.837087" d="m58.162 48.779.996 1.433a.33.33 0 0 0 .466.08l10.529-7.799a.326.326 0 0 0 .091-.425l-1.291-2.237a.336.336 0 0 0-.456-.122l-1.92 1.11a.335.335 0 0 0-.123.454l.303.523a.32.32 0 0 1-.092.426l-8.423 6.113a.31.31 0 0 0-.08.444z"/><path fill="#44403c" stroke="#363330" stroke-miterlimit="3.99393" stroke-width="0.418543" d="m25.034 58.946.724 1.254a.276.276 0 0 0 .37.1l.252-.147a.2.2 0 0 1 .115-.03l1.793-.122c.223-.013.921-.23.871-1.068-.046-.762-.661-.955-1.036-.98-.337-.021-1.74.082-2.069.116-.037-.003-.073.018-.11.039l-.82.474c-.117.067-.163.238-.09.364z"/><path fill="#c9a667" stroke="#4b3a1b" stroke-linecap="round" stroke-miterlimit="3.99393" stroke-width="0.837087" d="m80.38 40.255.98 1.696c.531.921-.113 1.304-.429 1.486l-5.835 3.37a.54.54 0 0 0-.215.231l-.53 1.1c-.666 1.515-1.916.974-1.94.976l-3.41-1.158a.5.5 0 0 0-.43.044l-1.281.74a.16.16 0 0 0-.057.213c.354.613 1.795 3.088 1.795 3.088.187.325.105.745-.214.942a.674.674 0 0 1-.943-.238l-1.822-3.156c-.084-.144.068-1.651.154-2.398a.82.82 0 0 1 .415-.636L77.57 40.23z"/><path stroke="#46481e" stroke-linecap="round" stroke-miterlimit="3.99393" stroke-width="0.837087" d="M58.947 63.947a.98.98 0 0 0-.277 1.458c.955 1.217 2.61 3.46 3.29 5.22.84 2.161 2.376 3.74 2.836 4.183a.93.93 0 0 0 .43.244c.408.102 1.259.14 2.706-.54 2.179-1.017 7.902-3.6 7.572-5.213s-.837-2.283-1.656-3.493c-.819-1.211-2.423-4.614-2.479-5.544-.026-.525-.462-1.32-.828-1.914a.97.97 0 0 0-1.322-.331Z"/><path fill="#4f4b46" stroke="#363330" stroke-miterlimit="3.99393" stroke-width="0.418543" d="M79.407 42.632a.781.781 0 1 0-.781-1.353.781.781 0 0 0 .78 1.353z"/><path stroke="#4c3a1a" stroke-miterlimit="3.99393" stroke-width="0.837087" d="M85.02 28.403a.68.68 0 0 0 .34-.618l10.148-5.835 2.912 5.045a.314.314 0 0 1-.115.429l-1.801 1.04a.314.314 0 0 1-.429-.115l-1.626-2.817-25.162 14.527-1.297-2.245 1.182-.683c.21.24.573.306.862.14a.69.69 0 0 0 .31-.817l1.335-.77c.22.234.568.297.857.13a.684.684 0 0 0 .315-.807l4.861-2.807a.68.68 0 0 0 1.046-.604l1.155-.666a.681.681 0 0 0 1.046-.604l1.154-.667a.681.681 0 0 0 1.047-.604l1.154-.666c.209.132.48.144.705.014z"/><path stroke="#4c3a1a" stroke-miterlimit="3.99393" stroke-width="0.418543" d="M70.12 38.316a.469.469 0 1 1-.812.469.469.469 0 0 1 .812-.469zm16.585-9.034a.469.469 0 1 0-.468-.812.469.469 0 0 0 .468.812zm-1.92.568a.469.469 0 1 1-.812.468.469.469 0 0 1 .812-.468zm-2.273 1.853a.469.469 0 1 0-.469-.812.469.469 0 0 0 .469.812zm-1.922.567a.469.469 0 1 1-.81.47.469.469 0 0 1 .81-.47zm-2.263 1.849a.469.469 0 1 0-.469-.812.469.469 0 0 0 .47.812zm-1.921.568a.469.469 0 1 1-.811.468.469.469 0 0 1 .811-.468zm-2.273 1.853a.469.469 0 1 0-.468-.811.469.469 0 0 0 .468.811zm-1.92.568a.469.469 0 1 1-.812.469.469.469 0 0 1 .812-.469zm16.585-9.034a.469.469 0 1 0-.469-.812.469.469 0 0 0 .469.812zm4.408-3.086a.468.468 0 1 1-.811.468.468.468 0 0 1 .81-.468zm2.104-.674a.469.469 0 1 0-.47-.811.469.469 0 0 0 .47.811zm1.264 1.253a.469.469 0 1 1-.812.469.469.469 0 0 1 .812-.469z"/><path fill="#3d3a36" stroke="#363330" stroke-miterlimit="3.99393" stroke-width="0.418543" d="m52.62 47.997 1.133.212 2.255-1.302s.224-.153.068-.424l-.26-.45 2.528-1.46-.526-.911-3.159 1.824.578 1z"/><path stroke="#4c3a1a" stroke-linecap="round" stroke-miterlimit="3.99393" stroke-width="0.837087" d="m25.108 51.16 1.963 3.4a.33.33 0 0 0 .455.123l9.344-5.395a.33.33 0 0 0 .122-.455l-.844-1.46a.4.4 0 0 1-.046-.143l-.16-2.048a.335.335 0 0 0-.501-.264L25.23 50.705a.33.33 0 0 0-.122.456z"/></g><defs><clipPath id="a"><path fill="#fff" d="M0 0h110v110H0z"/></clipPath></defs></svg>