<svg xmlns="http://www.w3.org/2000/svg" id="Layer_1" width="159.3446" height="45.0743" data-name="Layer 1" viewBox="0 0 159.3446 45.0743"><defs><style>.cls-6,.cls-7,.cls-8{stroke-linecap:round}.cls-10,.cls-6{stroke-width:3px}.cls-10,.cls-8{fill:#4a4541}.cls-10{stroke:#191815}.cls-6{stroke:#21190d;fill:#bea26d}.cls-7,.cls-8{stroke-width:1.5px}.cls-7{fill:#4f4b46;stroke:#181716}.cls-8{stroke:#171717}.cls-10{stroke-linecap:square}</style></defs><path id="rect3-8" d="M60.314 1.5h16.113c2.224 0 4.027 7.787 4.027 17.394v7.287c0 9.606-1.803 17.393-4.027 17.393H60.314c-2.224 0-4.026-7.787-4.026-17.393v-7.287c0-9.607 1.803-17.394 4.026-17.394Z" style="stroke-linecap:round;stroke-width:3px;fill:#5c5e28;stroke:#20200e"/><path id="path2-1-9" d="m156.91 24.856-.849.5c-.042.028-.085.028-.127.028H56.45c-.17 0-.298-.167-.298-.361v-5.678c0-.195.128-.362.298-.362h99.165c.063 0 .106.028.148.056l.913.724a.3.3 0 0 0 .149.055h.721c.17 0 .298.167.298.362v4.286c0 .195-.128.362-.298.362h-.53c-.021 0-.064 0-.107.028Z" style="stroke-width:3px;fill:#4a4541;stroke:#191815;stroke-miterlimit:10"/><rect id="rect43-5" width="35.4368" height="19.2603" x="23.5528" y="12.8131" rx="2.4974" ry="2.4974" style="stroke-linecap:round;stroke-width:3px;fill:#8d7b55;stroke:#21190d"/><path id="rect44-2" d="M52.81 13.376h30.882v18.156H52.81z" class="cls-6"/><path id="rect44-7-2" d="M94.02 13.473v.003h-9.07c-.694 0-1.258.563-1.258 1.258v15.444c0 .695.564 1.258 1.259 1.258h9.142v-.01l12.703-1.585a1.26 1.26 0 0 0 1.102-1.25V16.059c0-.644-.486-1.184-1.127-1.25L94.093 13.48v-.005h-.042z" class="cls-6"/><rect id="rect42-3" width="55.6982" height="10.813" x="1.5" y="16.9255" rx="2.059" ry="2.059" style="stroke-linecap:round;stroke-width:3px;fill:#8d7b55;stroke:#1e1710"/><rect id="rect40-5-7" width="4.8607" height="11.7988" x="20.3014" y="16.4325" class="cls-7" rx=".9977" ry=".9977"/><rect id="rect45-9" width="88.9539" height="7.6287" x="48.2197" y="18.5029" rx="1.3659" ry="1.3659" style="stroke-linecap:round;stroke-width:3px;fill:#4a4541;stroke:#191815"/><path id="path8-0" d="M81.878 18.579c-.148 7.25 0 6.956 0 6.956z" class="cls-10"/><path id="path8-5-2" d="M86.964 18.579c-.148 7.25 0 6.956 0 6.956z" class="cls-10"/><path id="path8-54-3" d="M103.618 18.21c-.148 7.25 0 6.956 0 6.956z" class="cls-10"/><path id="path8-5-1-9" d="M109.35 18.296c-.147 7.25 0 6.956 0 6.956z" class="cls-10"/><path id="path8-8-9" d="M115.326 18.233c-.148 7.25 0 6.956 0 6.956z" class="cls-10"/><path id="path8-5-8-7" d="M121.059 18.318c-.148 7.25 0 6.957 0 6.957z" class="cls-10"/><path id="rect8-0" d="M129.975 21.302h3.323c.455 0 .823.2.823.449v1.178c0 .248-.369.45-.823.45h-3.323c-.454 0-.823-.202-.823-.45v-1.178c0-.248.369-.45.823-.45Z" class="cls-8"/><path id="rect45-7-3" d="M32.76 15.666h11.206c.064 0 .116.316.116.705v12.145c0 .389-.052.705-.116.705H32.76c-.064 0-.116-.316-.116-.705V16.37c0-.39.052-.705.116-.705Z" class="cls-8"/><path id="rect1-7" d="m30.062 16.68 4.954 2.59c.258.136.42.403.42.694v5.19a.78.78 0 0 1-.463.714l-4.954 2.22a.783.783 0 0 1-1.102-.714v-10a.783.783 0 0 1 1.145-.694Z" class="cls-7"/><path id="rect41-83-9" d="M33.943 16.275h9.686v12.114h-9.686z" style="stroke-linecap:round;stroke-width:1.5px;fill:#957840;stroke:#211b0d"/><path id="rect2-8" d="M34.691 20.246h8.19v4.395h-8.19z" style="fill:#b7944f"/></svg>