<svg xmlns="http://www.w3.org/2000/svg" id="Layer_2" width="72.010002" height="17.130001" data-name="Layer 2" version="1.1" viewBox="0 0 72.010002 17.130002"><defs id="defs4"><style id="style2">.cls-5,.cls-6,.cls-7,.cls-8{stroke-width:1.5px}.cls-10,.cls-5,.cls-6,.cls-7,.cls-8{stroke-linejoin:round;fill-rule:evenodd}.cls-10{stroke:#161818}.cls-5{stroke:#646f66}.cls-10,.cls-5,.cls-6,.cls-7{fill:#434c4b}.cls-10,.cls-5,.cls-6,.cls-8{stroke-linecap:square}.cls-6{stroke:#353d40}.cls-7{stroke:#272c2d;stroke-linecap:round}.cls-8{fill:#768489;stroke:#2f3737}.cls-10{stroke-width:3px}</style></defs><g id="Layer_14" data-name="Layer 14"><g id="Layer_13" data-name="Layer 13"><rect id="rect156" width="56.560001" height="14.13" x="1.5" y="1.5" rx="1.34" ry="1.34" style="stroke-linejoin:round;stroke:#161818;fill:#434c4b;stroke-linecap:round;stroke-width:3px"/><path id="rect149" d="M58.71 5.49H70.3c.12 0 .21.1.21.22v5.71c0 .12-.09.22-.21.22H58.71c-.12 0-.21-.1-.21-.22v-5.7c0-.12.09-.22.21-.22Z" style="stroke-linejoin:round;fill:#434c4b;stroke-linecap:round;stroke-width:3px;stroke:#151819"/><path id="path148" d="M61.42 6.6v3.94" class="cls-8"/><path id="path3" d="M64.41 6.6v3.94" class="cls-8"/><path id="path4" d="M67.36 6.6v3.94" class="cls-8"/><path id="path150" d="M12.27 5.99h35.27" class="cls-7"/><path id="path151" d="M12.27 11.14h35.27" class="cls-7"/><path id="path152" d="M50.2 5.23h5.47" class="cls-6"/><path id="path153" d="M50.2 11.9h5.47" class="cls-6"/><path id="path154" d="M50.41 2.45v12.22" class="cls-10"/><path id="path155" d="M3.75 5.99h4.5" class="cls-5"/><path id="path156" d="M3.75 11.14h4.5" class="cls-5"/><path id="path157" d="M9.37 2.45v12.22" class="cls-10"/><path id="path158" d="M44.84 6.56v4.01" style="stroke-width:1.5px;fill-rule:evenodd;fill:#434c4b;stroke-linecap:round;stroke:#232c2e;stroke-miterlimit:21.69"/><path id="path8" d="M44.84 5.15V7" style="stroke:#14191a;fill:#303635;stroke-width:1.5px;stroke-linejoin:round;fill-rule:evenodd"/><path id="path9" d="M44.84 10.13v1.86" style="fill:#303635;stroke-width:1.5px;stroke-linejoin:round;fill-rule:evenodd;stroke:#141a1a"/><rect id="rect158" width="9.25" height="4.1300001" x="26.549999" y="11.02" rx="0.76999998" ry="0.76999998" style="stroke-width:1.5px;fill:#2f3232;stroke-miterlimit:82.2;stroke:#161818"/><circle id="path12" cx="54.200001" cy="8.6499996" r="0.88999999" style="fill:#303635;stroke-width:1.5px;stroke-linejoin:round;stroke:#22292b"/><path id="rect149-2" d="M58.71 5.49H70.3c.12 0 .21.1.21.22v5.71c0 .12-.09.22-.21.22H58.71c-.12 0-.21-.1-.21-.22v-5.7c0-.12.09-.22.21-.22Z" data-name="rect149" style="stroke-linejoin:round;stroke-linecap:round;stroke-width:3px;stroke:#151819;fill:none"/></g></g></svg>