<svg xmlns="http://www.w3.org/2000/svg" xml:space="preserve" width="110" height="110" viewBox="0 0 29.104166 29.104166"><g transform="rotate(-30 6.858 26.452)scale(.19106)"><path d="M86.736 104.768c-.405.112-.81.225-1.067.403s-.363.422-.448.693c-.085.272-.15.572-.085.806s.256.403.512.534.576.225.918.3.704.13.982.103c.277-.028.47-.14.587-.347s.16-.506.234-.787c.075-.28.182-.543.342-.721s.374-.272.608-.338c.235-.065.491-.103.62-.187.127-.084.127-.215.127-.347" style="fill:#4d4d4d;stroke:#333;stroke-width:1.05833;stroke-linecap:butt;stroke-linejoin:miter;stroke-dasharray:none;stroke-opacity:1"/><path d="m96.406 104.433 11.208-1.287 3.18 12.268-10.753 2.954zm56.268-13.026 41.576.833v2.575l-36.578.682-2.575 5.43-2.348-.356zm-132.53 9.315.53 22.568-2.65 1.212-.757-24.158z" style="fill:#4d4d4d;stroke:none;stroke-width:.264583px;stroke-linecap:butt;stroke-linejoin:miter;stroke-opacity:1"/><path d="M20.139 100.289v7.877l.73 14.942 36.219-12.425 9.5 2.355 5.279-6.253 11.531-2.923 22.088.487 12.75-3.167 19.083-.406 14.78.244-.082-5.847-15.592.162-4.222 2.112-52.54-1.056-12.181 3.492-7.633-1.543z" style="fill:#a05a2c;stroke:#a05a2c;stroke-width:.264583px;stroke-linecap:butt;stroke-linejoin:miter;stroke-opacity:1"/><path d="m79.663 96.147 2.436-2.923 4.629-1.056 1.91.098 3.612-.098 10.556-.487 10.395-.568 39.222-.163-.244 3.736-15.835.08-2.76 2.437-53.434-1.137z" style="fill:#4d4d4d;stroke:none;stroke-width:.264583px;stroke-linecap:butt;stroke-linejoin:miter;stroke-opacity:1"/><path d="M93.63 104.687c.217.356.434.712.542.95.108.236.108.356.108.425v.144c0 .054 0 .138.018.234s.053.202.13.255.195.053.29.012c.094-.042.165-.125.2-.278s.036-.378.036-.633v-.822" style="fill:#333;stroke:#333;stroke-width:1;stroke-linecap:butt;stroke-linejoin:miter;stroke-dasharray:none;stroke-opacity:1"/><path d="M20.22 100.68c-.876 0-1.753 0-2.254.063s-.626.188-.743.377a2.7 2.7 0 0 0-.309.783 5.5 5.5 0 0 0-.147 1.32c0 .538.062 1.173.12 1.876.059.703.112 1.472.175 2.296s.134 1.7.188 2.538.09 1.633.139 2.56.112 1.983.152 2.963.058 1.884.072 2.735c.013.85.022 1.647.035 2.408s.032 1.486.063 2.023.076.886.157 1.168c.08.282.197.497.331.573s.287.013.748-.166c.46-.179 1.23-.474 2-.77" style="fill:#333;stroke:#333;stroke-width:2.11667;stroke-linecap:butt;stroke-linejoin:miter;stroke-dasharray:none;stroke-opacity:1"/><path d="M81.49 105.29c-.154.225-.307.45-.384.68s-.077.467-.06.716c.019.248.054.508.143.768s.23.52.301.544.071-.19.048-.396c-.024-.207-.071-.408-.077-.627s.03-.455.094-.674c.065-.219.16-.42.296-.644s.313-.473.49-.721" style="fill:#333;stroke:#333;stroke-width:.264583;stroke-linecap:butt;stroke-linejoin:miter;stroke-dasharray:none;stroke-opacity:1"/><path d="M22.452 100.372c-.806.04-1.612.08-2.06.145s-.537.155-.604.271-.112.26-.148.452a10 10 0 0 0-.094.744c-.031.308-.067.684-.08 1.14-.014.457-.005.995 0 1.567.004.573.004 1.182.013 1.876.01.694.027 1.472.054 2.368s.062 1.906.098 2.931.072 2.064.13 3.07c.058 1.008.139 1.984.206 2.847.067.864.12 1.616.184 2.315.062.698.134 1.342.2 1.866.068.524.13.926.198 1.177.067.25.139.35.38.309.242-.04.654-.22 1.066-.399m-.125.055 32.052-11.332" style="fill:none;stroke:#784421;stroke-width:2.11667;stroke-linecap:butt;stroke-linejoin:miter;stroke-dasharray:none;stroke-opacity:1"/><path d="M79.15 105.645c.058.39.117.78.194 1.164.077.385.172.763.337 1.082s.402.58.686.78.615.343 1.005.438.84.142 1.342.148 1.058-.03 1.537-.095.88-.16 1.26-.349c.377-.189.732-.473.945-.792s.283-.674.337-1.022c.053-.35.088-.692.13-1.023.041-.331.088-.65.136-.97" style="fill:none;stroke:#333;stroke-width:1.05833;stroke-linecap:butt;stroke-linejoin:miter;stroke-dasharray:none;stroke-opacity:1"/><path d="M110.809 91.28c1.973-.05 3.945-.1 6.25-.113s4.945.011 6.748.01c1.803-.002 2.769-.03 5.119-.042 2.35-.014 6.082-.013 8.752-.031s4.275-.057 6.006-.063 3.587.019 4.823.024c1.235.004 1.85-.012 2.388-.01s.996.023 1.25.116c.252.093.3.258.338.564s.07.752.076 1.162-.012.783.004 1.122c.015.34.063.646.11.952" style="fill:none;stroke:#333;stroke-width:2.11667;stroke-linecap:butt;stroke-linejoin:miter;stroke-dasharray:none;stroke-opacity:1"/><path d="m189.403 91.407.53-2.347 2.575-.53.227 2.877z" style="fill:#4d4d4d;stroke:none;stroke-width:.264583px;stroke-linecap:butt;stroke-linejoin:miter;stroke-opacity:1"/><path d="M80.783 95.564c.177-.709.354-1.417.526-1.849.171-.431.337-.585.667-.697.331-.112.828-.183 1.418-.278.591-.094 1.276-.212 1.861-.307.585-.094 1.07-.165 1.312-.18s.242.027.503 0c.261-.026.783-.121.793-.155.01-.033-.492-.005-.724-.001-.231.003-.193-.018-.046-.008s.402.05.692.07.614.02.875.02c.26 0 .458-.002.59-.02.132-.02.198-.056.254-.042.057.014.104.078.338.088s.657-.035.95-.063c.294-.028.46-.04 1.039-.087s1.571-.13 2.38-.19c.81-.058 1.436-.094 2.381-.094.946 0 2.21.036 3.25.06 1.04.023 1.855.035 2.416-.012.561-.048.868-.154 1.317-.29a9.7 9.7 0 0 1 1.773-.384c.732-.083 1.607-.083 2.6-.083.992 0 2.102 0 2.658.071.555.072.555.213.555.674 0 .46 0 1.24-.006 2.038s-.018 1.613-.03 2.428" style="fill:#4d4d4d;stroke:#333;stroke-width:2.11667;stroke-linecap:butt;stroke-linejoin:miter;stroke-dasharray:none;stroke-opacity:1"/><path d="M108.003 103.499c.107.639.213 1.277.326 2.016.112.739.23 1.578.402 2.512.171.934.396 1.963.62 2.92.225.958.45 1.845.644 2.592.195.747.36 1.355.525 1.962m-13.618-10.619c.082.532.165 1.065.272 1.744.106.68.236 1.508.396 2.395a84 84 0 0 0 1.172 5.432 67 67 0 0 0 1.104 3.836" style="fill:none;stroke:#333;stroke-width:2.11667;stroke-linecap:butt;stroke-linejoin:miter;stroke-dasharray:none;stroke-opacity:1"/><path d="m22.048 100.385 36.684-1.965 1.918-.122" style="fill:none;stroke:#784421;stroke-width:2.11667;stroke-linecap:butt;stroke-linejoin:miter;stroke-dasharray:none;stroke-opacity:1"/><path d="M60.443 98.311c.435-.018.87-.035 1.241.01.372.044.679.15.957.244.277.095.525.178.832.302.308.124.674.29 1.04.437.367.148.733.278 1.075.366.343.089.662.136 1.005.16s.709.023 1.14 0c.431-.024.927-.071 1.412-.148s.957-.183 1.459-.331a25 25 0 0 0 1.666-.573c.632-.236 1.365-.52 2.074-.792l2.056-.785c.661-.254 1.3-.503 1.784-.686s.815-.301 1.193-.372c.378-.07.804-.094 1.04-.03.236.066.283.22.366.344s.201.218.466.265c.264.047.675.046 1.086.045m-29.059 15.209a26 26 0 0 1 1.708-.573 9 9 0 0 1 1.394-.278 5.7 5.7 0 0 1 1.194-.023c.43.035.939.118 1.482.248.544.13 1.123.307 1.714.508.59.2 1.193.425 1.713.579s.957.236 1.424.319.963.165 1.465.207 1.01.041 1.364-.148.556-.567.81-1.004.56-.934.868-1.36c.307-.425.614-.779.928-1.133.313-.355.632-.71 1.016-1.087.384-.379.833-.78 1.353-1.147a9 9 0 0 1 1.772-.969c.662-.271 1.394-.484 2.227-.685.833-.2 1.767-.39 2.653-.526a35 35 0 0 1 2.747-.295 75 75 0 0 1 3.492-.183c1.264-.036 2.587-.036 3.686-.046 1.1-.01 1.974-.03 2.622-.043.648-.014 1.069-.021 1.49-.028" style="fill:none;stroke:#784421;stroke-width:2.11667;stroke-linecap:butt;stroke-linejoin:miter;stroke-dasharray:none;stroke-opacity:1"/><path d="M90.878 104.344c2.394-.014 2.713-.119 4.155-.202l7.62-.141h2.27l1.842-.39 1.702-.603 4.608-.744 4.005-.426 2.978-.248 3.296-.177 4.112-.071 5.849-.177 7.125-.071 7.479-.106 4.395-.142.39-1.028-.11-4.963-16.089.071c-3.739 2.418-1.639 1.333-2.458 2l-3.674.056-17.251-.15-1.525-.068-24.93.04-5.187-.037" style="fill:none;stroke:#784421;stroke-width:2.11667;stroke-linecap:butt;stroke-linejoin:miter;stroke-dasharray:none;stroke-opacity:1"/><path d="M189.661 91.51h3.041v3.714h-3.04z" style="fill:#4d4d4d;stroke:#333;stroke-width:1.8052;stroke-dasharray:none"/><path d="m156.958 91.878 4.75.319 4.04-.036L194 92.02l-.036 2.658-31.902.425-4.998.178m32.682-3.971c.024-.543.047-1.086.136-1.435s.242-.502.473-.644.537-.272.827-.354c.29-.083.561-.119.786-.119s.401.036.56.16.302.337.326.733c.023.396-.071.975-.166 1.553" style="fill:none;stroke:#333;stroke-width:2.11667;stroke-linecap:butt;stroke-linejoin:miter;stroke-dasharray:none;stroke-opacity:1"/><path d="M149.156 92.884h.409v.09h-.409zm-3.664-.003h.408v.09h-.408zm-3.846 0h.408v.09h-.408z" style="fill:#4d4d4d;stroke:#333;stroke-width:1.2102;stroke-dasharray:none"/><path d="M137.841 92.92h.41v.09h-.41z" style="fill:none;stroke:#333;stroke-width:1.2102;stroke-dasharray:none"/><circle cx="93.038673" cy="100.40816" r="1.2522062" style="fill:#4d4d4d;stroke:#333;stroke-width:1.44831;stroke-dasharray:none"/><path d="m132.326 98.382 3.625-2.384.845 3.253z" style="fill:#a05a2c;stroke:none;stroke-width:.264583px;stroke-linecap:butt;stroke-linejoin:miter;stroke-opacity:1"/><path d="m114.298 94.98.348 1.266 18.748.497-1.292-2.334z" style="fill:#4d4d4d;stroke:none;stroke-width:.264583px;stroke-linecap:butt;stroke-linejoin:miter;stroke-opacity:1"/><path d="m99.617 117.53.383 1.239.312-.091 10.282-3.124-.319-.893" style="fill:none;stroke:#333;stroke-width:2.11667;stroke-linecap:butt;stroke-linejoin:miter;stroke-dasharray:none;stroke-opacity:1"/><path d="m132.4 96.246 3.626-2.657 11.422.273z" style="fill:#4d4d4d;stroke:none;stroke-width:.264583px;stroke-linecap:butt;stroke-linejoin:miter;stroke-opacity:1"/><path d="M81.14 94.232c-.151.541-.302 1.082-.374 1.5s-.064.714.138.863.598.153.934.168c.335.016.61.045 5.475.024 4.866-.02 14.323-.09 19.374-.078s5.694.106 9.48.176 10.715.117 14.25.094c3.534-.024 3.675-.117 4.12-.498.444-.38 1.193-1.047 4.282-1.344s8.515-.223 11.201-.283 2.633-.256 2.6-.664a32 32 0 0 1-.057-1.65" style="fill:none;stroke:#333;stroke-width:2.11667;stroke-linecap:butt;stroke-linejoin:miter;stroke-dasharray:none;stroke-opacity:1"/><path d="M152.778 91.317c.204 0 .614 0 .867.019.253.02.35.058.425.116.077.058.133.135.205.19.072.053.16.084.454.092.293.007.79-.008 1.269-.012.477-.004.935.004 1.2.043s.337.108.41.25c.072.144.144.36.212.596.068.235.133.49.185.749.052.258.092.521.096.788a3 3 0 0 1-.084.756c-.056.22-.137.39-.221.553-.084.162-.173.316-.22.486-.049.17-.057.356-.06.487-.005.131-.005.209-.005.32 0 .113 0 .26-.072.394-.073.135-.217.26-.374.444a4.6 4.6 0 0 0-.437.63c-.113.197-.169.344-.257.556-.089.213-.209.49-.27.761-.06.27-.06.533-.06.753s0 .398-.147.48c-.147.083-.44.07-.944.078s-1.215.034-1.642.018-.567-.075-.609-1.647c-.042-1.571.015-4.655.072-7.738.11-.054.22-.108.187-.135s-.21-.027-.297-.027z" style="fill:none;stroke:#333;stroke-width:2.09148;stroke-linecap:butt;stroke-linejoin:miter;stroke-dasharray:none;stroke-opacity:1"/><path d="m85.335 92.19.397-3.577 4.024 2.186-1.987 1.291z" style="fill:#4d4d4d;stroke:#000;stroke-width:.264583;stroke-linecap:butt;stroke-linejoin:miter;stroke-dasharray:none;stroke-opacity:1"/><path d="M85.506 91.996c.01-.444.031-1.333.044-1.819s.018-.571.044-.651a.7.7 0 0 1 .152-.247c.08-.091.193-.2.332-.282a1.34 1.34 0 0 1 .959-.14c.15.035.278.096.366.162.088.065.134.136.198.218a2.6 2.6 0 0 0 .613.56c.117.072.215.11.333.152s.258.09.395.127c.136.037.27.066.366.09s.152.041.177.093c.026.052.02.137.023.285s.013.36.01.55-.017.359.004.51c.022.15.08.283.048.379-.034.096-.159.156-.433.176-.274.021-.697.003-1.17.022-.471.019-.992.075-1.402.125s-.708.091-.856.074c-.147-.017-.142-.093-.153-.093-.01 0-.035.076-.048.115-.012.038-.012.038-.002-.406z" style="fill:none;stroke:#333;stroke-width:2.11667;stroke-linecap:butt;stroke-linejoin:miter;stroke-dasharray:none;stroke-opacity:1"/></g></svg>