<svg xmlns="http://www.w3.org/2000/svg" width="128.83" height="16.18" viewBox="0 0 128.83 16.18"><defs><style>.cls-2,.cls-3{stroke:#171717}.cls-3{fill:#4d4d4d}.cls-4{fill:#171717}.cls-5{fill:#a05a2c;stroke:#23140b}.cls-2,.cls-3,.cls-5{stroke-width:3px}.cls-2{fill:#393939}</style></defs><g id="Layer_2" data-name="Layer 2"><g id="Layer_6" data-name="Layer 6"><g id="layer1"><g id="g890"><rect id="rect14220" width="48.72" height="9.02" x="3.75" y="2.87" class="cls-5" rx="1.04" ry="1.04"/><path id="rect14222" d="M33.08 1.5h62.69c.57 0 1.04.46 1.04 1.04v9.88c0 .57-.46 1.04-1.04 1.04H33.08c-.57 0-1.04-.46-1.04-1.04V2.54c0-.57.46-1.04 1.04-1.04Z" class="cls-5"/><path id="rect14954" d="M51.53 4.61h6.08V8.1l-6.08 1.36z" style="stroke-width:1.5px;stroke:#171717;fill:#4d4d4d"/><rect id="rect15685" width="9.6" height="3.68" x="62.89" y="9.75" class="cls-3" rx=".92" ry=".92"/><path id="rect15685-8-3" d="M109.36 5.48h11.66v3.83h-11.66z" class="cls-3"/><path id="rect15685-8-3-5" d="M120.9 5.48h5.13c.72 0 1.3.33 1.3.74v2.3c0 .41-.58.74-1.3.74h-5.13c-.72 0-1.3-.33-1.3-.74v-2.3c0-.41.58-.74 1.3-.74Z" class="cls-3"/><rect id="rect15685-8" width="8.17" height="7.67" x="102.68" y="3.66" class="cls-3" rx=".48" ry=".48"/><path id="rect15683" d="M55.71 5.2v3.58c0 .43.35.78.78.78h7.19v-.38h4.57c.43 0 .78-.35.78-.78V5.2c0-.43-.35-.78-.78-.78H56.49c-.43 0-.78.35-.78.78Z" class="cls-3"/><path id="rect15689" d="M69.27 2.67V9.5c0 .51.41.92.92.92h.44c.51 0 .92.41.92.92v2.42c0 .51.41.92.92.92h12.46c1.51 0 2.73-2.21 2.73-4.94V7.88c-.09-2.93-1.42-5.22-3.04-5.22H69.27Z" class="cls-2"/><rect id="rect17958" width="20.92" height="9.03" x="84.34" y="2.96" class="cls-2" rx=".5" ry=".5"/><rect id="rect17958-9" width="3.39" height="5.51" x="118.44" y="4.64" class="cls-2" rx=".32" ry=".32"/><rect id="rect18940" width="4.76" height="9.35" x="1.5" y="2.7" class="cls-2" rx="1.11" ry="1.11"/><rect id="rect14226" width="4.96" height="5.91" x="47.18" y="4.51" class="cls-3" rx=".78" ry=".78"/></g></g></g></g><g id="Layer_3" data-name="Layer 3"><rect width="2.26" height="3.07" x="87.04" y="2.96" class="cls-4" rx=".67" ry=".67"/><rect width="2.26" height="3.07" x="99.89" y="2.96" class="cls-4" rx=".67" ry=".67"/><rect width="2.26" height="3.07" x="95.61" y="2.96" class="cls-4" rx=".67" ry=".67"/><rect width="2.26" height="3.07" x="91.33" y="2.96" class="cls-4" rx=".67" ry=".67"/><rect width="2.26" height="3.07" x="87.04" y="8.67" class="cls-4" rx=".67" ry=".67"/><rect width="2.26" height="3.07" x="99.89" y="8.67" class="cls-4" rx=".67" ry=".67"/><rect width="2.26" height="3.07" x="95.61" y="8.67" class="cls-4" rx=".67" ry=".67"/><rect width="2.26" height="3.07" x="91.33" y="8.67" class="cls-4" rx=".67" ry=".67"/></g></svg>