<svg xmlns="http://www.w3.org/2000/svg" width="161.98112" height="22.574162" viewBox="0 0 42.857505 5.972747"><g transform="translate(-5.728 -152.218)"><path d="m43.601 154.368 1.52-.62s3.406-.042 3.333 0 .071 2.3 0 2.28c-.071-.019-3.256.053-3.31 0-.052-.052-1.472-.62-1.472-.62z" style="fill:#333;fill-opacity:1;stroke:none;stroke-width:.79375;stroke-dasharray:none;stroke-opacity:1"/><path d="M45.28 153.69c-.444.656-.628 1.336-.192 1.97l-1.74-.347v-1.596z" style="fill:#262626;fill-opacity:1;stroke:none;stroke-width:.79375;stroke-dasharray:none;stroke-opacity:1"/><rect width="15.557392" height="1.5851926" x="27.707006" y="154.0237" ry="0" style="fill:#333;fill-opacity:1;stroke:#171717;stroke-width:.79375;stroke-dasharray:none;stroke-opacity:1"/><path d="m98.351 173.524 1.672-.347h3.134v1.184m-4.806.714 1.67.349 3.135.003.001-1.184" style="fill:none;fill-opacity:1;stroke:#171717;stroke-width:.79375;stroke-dasharray:none;stroke-opacity:1" transform="translate(-54.968 -19.488)"/><ellipse cx="16.312449" cy="154.92105" rx="1.7883618" ry="1.262373" style="fill:#595959;fill-opacity:1;stroke:#171717;stroke-width:.841582;stroke-linejoin:round;stroke-dasharray:none;stroke-opacity:1"/><path d="M7.804 153.206H6.125v3.41h1.786" style="fill:#404040;fill-opacity:1;stroke:#171717;stroke-width:.794015;stroke-linejoin:round;stroke-dasharray:none;stroke-opacity:1"/><path d="M16.114 153.062h23.813v3.39H15.973z" style="fill:#957e50;fill-opacity:1;stroke:none;stroke-width:1.33742;stroke-linejoin:round;stroke-dasharray:none;stroke-opacity:1"/><path d="M16.379 154.129h-2.802l-.678-.91h-5.55c-.335.757-.289 2.74 0 3.408h5.565l.625-.91h2.77" style="fill:#4d4d4d;fill-opacity:1;stroke:#171717;stroke-width:.794015;stroke-linejoin:round;stroke-dasharray:none;stroke-opacity:1"/><path d="m17.645 157.089-.892.258.173.639.91-.264z" style="fill:#404040;fill-opacity:1;stroke:#171717;stroke-width:.396875;stroke-linejoin:round;stroke-dasharray:none;stroke-opacity:1"/><path d="m20.87 156.903-3.275 1.01-.204-.763z" style="fill:#857047;fill-opacity:1;stroke:#1e1910;stroke-width:.396875;stroke-linejoin:round;stroke-dasharray:none;stroke-opacity:1"/><rect width="3.9960277" height="1.1875997" x="19.686817" y="156.80423" ry="0.31419271" style="fill:#404040;fill-opacity:1;stroke:#171717;stroke-width:.396875;stroke-linejoin:round;stroke-dasharray:none;stroke-opacity:1"/><path d="m16.563 152.765 8.606.219v3.31l-.994.45-7.67-.06-.456-.864z" style="fill:#957e51;fill-opacity:1;stroke:none;stroke-width:.809496;stroke-linejoin:round;stroke-dasharray:none;stroke-opacity:1"/><path d="M16.016 154.312h24.16v.94h-24.16z" style="fill:#635436;fill-opacity:1;stroke:none;stroke-width:.821687;stroke-linejoin:round;stroke-dasharray:none;stroke-opacity:1"/><path d="M16.082 153.42h9.26v2.788h-9.26z" style="fill:#635436;fill-opacity:1;stroke:none;stroke-width:.875999;stroke-linejoin:round;stroke-dasharray:none;stroke-opacity:1"/><path d="m29.192 155.728.242.51h2.168l-.213-.506zm.008-1.908.232-.539H31.6l-.204.534zm-1.516 1.905.242.51h1.11l-.213-.506zm.007-1.908.233-.538h1.11l-.204.534zm4.075 1.914.241.511h2.169l-.214-.506zm.006-1.908.233-.538h2.169l-.205.534zm2.555 1.9.242.511h2.168l-.213-.506zm.007-1.908.233-.538h2.168l-.204.534zm2.566 1.912.242.511h2.168l-.213-.507zm.007-1.907.233-.539h2.168l-.204.534z" style="fill:#423924;fill-opacity:1;stroke:none;stroke-width:.623841;stroke-linejoin:round;stroke-dasharray:none;stroke-opacity:1"/><path d="M16.548 156.893h8.05l.711-.336h14.356l.53-.32v-2.927l-.53-.354H25.384l-.77-.341h-8.043l-.534.622-.013 3.017z" style="fill:none;fill-opacity:1;stroke:#1e1910;stroke-width:.794;stroke-linejoin:round;stroke-dasharray:none;stroke-opacity:1"/><path d="M189.647 71.014h3.311v.932h-3.311z" style="fill:#423824;fill-opacity:1;stroke:none;stroke-width:.302988;stroke-linejoin:round;stroke-dasharray:none;stroke-opacity:1" transform="matrix(1 0 0 .85938 -165.667 93.342)"/><path d="M193.041 71.015v.926m-.81-.923v.926m-.811-.93v.926m-.801-.93v.927m-.81-.921v.926" style="fill:#423824;fill-opacity:1;stroke:#32291b;stroke-width:.396875;stroke-linejoin:round;stroke-dasharray:none;stroke-opacity:1" transform="matrix(1 0 0 .85938 -165.667 93.342)"/><path d="M25.28 152.983v3.546" style="fill:none;fill-opacity:1;stroke:#1e1910;stroke-width:.794001;stroke-linejoin:round;stroke-dasharray:none;stroke-opacity:1"/><path d="M8.531 153.01c-.637 1.063-.592 2.744 0 3.724h3.638c.477-1.022.52-2.782 0-3.733z" style="fill:#404040;fill-opacity:1;stroke:#171717;stroke-width:.794015;stroke-linejoin:round;stroke-dasharray:none;stroke-opacity:1"/><path d="M18.904 154.194h2.55v1.345h-2.55z" style="fill:#404040;fill-opacity:1;stroke:#171717;stroke-width:.396875;stroke-linejoin:round;stroke-dasharray:none;stroke-opacity:1"/><path d="M86.377 192.833v-.691c0-.086-.074-.155-.165-.155h-8.013c-.092 0-.166.07-.166.155v.69c0 .086.074.155.166.155h8.013c.091 0 .165-.07.165-.154z" class="cls-1" style="opacity:.997;isolation:isolate;fill:#4d4d4d;fill-opacity:1;fill-rule:evenodd;stroke:#171717;stroke-width:.521002px;stroke-linecap:round;stroke-miterlimit:5.89" transform="matrix(-1 0 0 1 104.136 -37.677)"/><path d="m84.854 191.918.58-.237 2.378-.008c.075 0 .133.042.133.098l.008 1.404c0 .053-.059.098-.133.098h-2.354l-.623-.224zm-3.153 1.43c.426 0 .773-.386.773-.862s-.347-.863-.773-.863-.773.387-.773.863.347.862.773.862z" class="cls-1" style="opacity:.997;isolation:isolate;fill:#4d4d4d;fill-opacity:1;fill-rule:evenodd;stroke:#171717;stroke-width:.529167px;stroke-linecap:round;stroke-miterlimit:5.89" transform="matrix(-1 0 0 1 104.136 -37.677)"/><path d="M84.173 193.153v-1.334c0-.103-.093-.185-.206-.185H83.3c-.117 0-.207.082-.207.185v1.336c0 .103.093.185.207.185h.667c.116 0 .206-.082.206-.185v0zm-3.92-.143v-1.048c0-.103-.092-.185-.206-.185h-.667c-.116 0-.206.082-.206.185v1.048c0 .103.092.185.206.185h.667c.116 0 .206-.082.206-.185z" class="cls-2" style="opacity:.997;isolation:isolate;fill:#262626;fill-opacity:1;fill-rule:evenodd;stroke:#171717;stroke-width:.529167px;stroke-linecap:round;stroke-miterlimit:5.89" transform="matrix(-1 0 0 1 104.136 -37.677)"/><path d="M14.718 154.37v1.124" style="fill:#404040;fill-opacity:1;stroke:#171717;stroke-width:.396875;stroke-linejoin:round;stroke-dasharray:none;stroke-opacity:1"/><path d="M197.73 74.166h3.311v.933h-3.311z" style="fill:#423824;fill-opacity:1;stroke:none;stroke-width:.302988;stroke-linejoin:round;stroke-dasharray:none;stroke-opacity:1" transform="matrix(1 0 0 .85938 -161.925 90.65)"/><path d="M201.125 74.168v.926m-.81-.924v.926m-.811-.929v.926m-.802-.93v.926" style="fill:#423824;fill-opacity:1;stroke:#32291b;stroke-width:.396875;stroke-linejoin:round;stroke-dasharray:none;stroke-opacity:1" transform="matrix(1 0 0 .85938 -161.925 90.65)"/><path d="M197.892 74.169v.926" style="fill:#53462d;fill-opacity:1;stroke:#32291b;stroke-width:.396875;stroke-linejoin:round;stroke-dasharray:none;stroke-opacity:1" transform="matrix(1 0 0 .85938 -161.925 90.65)"/></g></svg>