<svg xmlns="http://www.w3.org/2000/svg" width="110" height="110" fill="none" viewBox="0 0 110 110"><g clip-path="url(#a)"><path fill="#404040" stroke="#333" stroke-width="0.815454" d="m56.876 49.742-8.686 5.015 1.655 2.868 8.687-5.016 5.18-4.053 36.045-20.811-.735-1.274-36.044 20.81z"/><path fill="#3B3B3B" stroke="#333" stroke-width="0.407726" d="m74.334 38.992.653.317 2.771-1.6.402.246 1.072 1.858.772-.445.37.64 2.324-1.343.211-.788-.175-.303-.528.306-.979-1.695.021-1.185z"/><path fill="#967E50" fill-rule="evenodd" d="M88.022 29.858 47.32 53.248l2.866 4.962 37.419-21.572.043-.33.263-1.276.177-.928-1.873 1.081a.267.267 0 0 1-.364-.097l-.125-.217a.267.267 0 0 1 .097-.364l2.04-1.178a.267.267 0 0 1 .364.098l.047.08c.085-.155.2-.28.378-.473l.017-.019c.37-.357.388-.433.302-.74zM59.036 52.827l.216-1.248-2.458 1.419-.192 1.234zm6.69-3.863.216-1.248-5.813 3.356-.192 1.234zm6.648-3.838.216-1.248-5.62 3.244-.241 1.263zm6.65-3.84.216-1.247-5.426 3.132-.242 1.264zm-20.54 6.858 1.206.466-4.047 2.336-1.182-.48zm6.69-3.863 1.206.466-5.813 3.356-1.182-.48zm6.656-3.843 1.198.47-5.62 3.245-1.23-.45zm6.681-3.857 1.167.489-5.426 3.132-1.232-.45zm7.373-4.257 1.15.498-5.955 3.439-1.2-.47zm-5.356 6.97-.242 1.264 7.107-4.103.262-1.275zM60.083 49.347l-2.352 1.358a.267.267 0 0 0-.098.364l.126.217a.267.267 0 0 0 .364.097l2.352-1.358a.267.267 0 0 0 .097-.364l-.125-.217a.267.267 0 0 0-.364-.097m1.166-.666 2.352-1.358a.267.267 0 0 1 .364.098l.125.216a.267.267 0 0 1-.098.365l-2.351 1.358a.267.267 0 0 1-.365-.098l-.125-.217a.267.267 0 0 1 .098-.364m5.866-3.387-2.352 1.358a.267.267 0 0 0-.097.364l.125.217a.267.267 0 0 0 .364.098l2.352-1.358a.267.267 0 0 0 .097-.365l-.125-.216a.267.267 0 0 0-.364-.098m1.155-.66 2.352-1.357a.267.267 0 0 1 .364.097l.125.217c.074.128.03.29-.098.364l-2.351 1.358a.267.267 0 0 1-.365-.097l-.125-.217a.267.267 0 0 1 .098-.364m5.852-3.385-2.352 1.358a.267.267 0 0 0-.098.364l.126.217a.267.267 0 0 0 .364.097l2.352-1.358a.267.267 0 0 0 .097-.364l-.125-.217a.267.267 0 0 0-.364-.097m1.166-.666 2.352-1.358a.267.267 0 0 1 .364.098l.125.216a.267.267 0 0 1-.098.365L75.68 41.26a.267.267 0 0 1-.364-.098l-.125-.217a.267.267 0 0 1 .098-.364m5.866-3.387-2.352 1.358a.267.267 0 0 0-.098.364l.126.217a.267.267 0 0 0 .364.097l2.352-1.357a.267.267 0 0 0 .097-.365l-.125-.216a.267.267 0 0 0-.364-.098m1.155-.66 2.352-1.357a.267.267 0 0 1 .364.098l.125.216c.074.128.03.29-.098.364l-2.351 1.358a.267.267 0 0 1-.365-.097l-.125-.217a.267.267 0 0 1 .098-.364" clip-rule="evenodd"/><path fill="#74623E" fill-rule="evenodd" d="m50.185 58.21 37.419-21.572.043-.33.263-1.276.177-.928-1.873 1.081a.267.267 0 0 1-.364-.097l-.125-.217a.267.267 0 0 1 .097-.364l2.04-1.178a.267.267 0 0 1 .364.098l.047.08c.086-.155.2-.28.377-.472l.018-.02c.37-.357.388-.433.302-.74l-.555-1.412-2.532 1.462 1.15.497-5.955 3.439-1.2-.469-1.368.79 1.167.488-5.426 3.133-1.232-.451-1.19.686 1.198.471-5.62 3.244-1.23-.45-1.004.578 1.206.467-5.813 3.355-1.182-.48-.9.52 1.205.467-4.047 2.336-1.182-.48-6.56 3.788zm8.85-5.383.216-1.248-2.458 1.419-.193 1.235zm6.69-3.862.216-1.248-5.813 3.355-.192 1.235zm6.648-3.839.216-1.248-5.62 3.244-.241 1.264zm6.65-3.839.216-1.248-5.426 3.133-.242 1.263zm1.505-1.992-.243 1.263 7.106-4.103.263-1.275zM60.082 49.346l-2.352 1.358a.267.267 0 0 0-.097.364l.124.217a.267.267 0 0 0 .365.097l2.352-1.357a.267.267 0 0 0 .097-.365l-.125-.216a.267.267 0 0 0-.364-.098m1.166-.666 2.352-1.358a.267.267 0 0 1 .364.098l.125.217c.074.127.03.29-.098.364l-2.352 1.358a.267.267 0 0 1-.364-.098l-.125-.216a.267.267 0 0 1 .098-.365m5.866-3.387-2.352 1.358a.267.267 0 0 0-.097.364l.125.217a.267.267 0 0 0 .364.098l2.352-1.358a.267.267 0 0 0 .097-.364l-.125-.217a.267.267 0 0 0-.364-.098m1.155-.659 2.352-1.358a.267.267 0 0 1 .364.098l.125.216a.267.267 0 0 1-.098.365l-2.351 1.358a.267.267 0 0 1-.365-.098l-.125-.217a.267.267 0 0 1 .098-.364m5.852-3.386-2.352 1.358a.267.267 0 0 0-.098.364l.125.217a.267.267 0 0 0 .365.097l2.352-1.357a.267.267 0 0 0 .097-.365l-.125-.216a.267.267 0 0 0-.364-.098m1.166-.666 2.351-1.358a.267.267 0 0 1 .365.098l.125.217c.073.127.03.29-.098.364l-2.352 1.358a.267.267 0 0 1-.364-.098l-.125-.216a.267.267 0 0 1 .098-.365m5.866-3.387L78.8 38.553a.267.267 0 0 0-.097.364l.125.217a.267.267 0 0 0 .364.098l2.352-1.358a.267.267 0 0 0 .097-.364l-.125-.217a.267.267 0 0 0-.364-.098m1.155-.66 2.351-1.357a.267.267 0 0 1 .365.098l.125.216a.267.267 0 0 1-.098.365l-2.35 1.358a.267.267 0 0 1-.364-.098l-.125-.217a.267.267 0 0 1 .098-.364" clip-rule="evenodd"/><path fill="#857047" fill-rule="evenodd" d="M88.864 32 48.516 55.318l.97 1.682 38.476-22.236.126-.661-1.873 1.081a.267.267 0 0 1-.365-.097l-.125-.217a.267.267 0 0 1 .098-.364l2.04-1.178a.267.267 0 0 1 .364.098l.047.08c.085-.155.2-.28.377-.473l.018-.019c.37-.357.388-.433.302-.74zm-31.23 19.067a.267.267 0 0 1 .097-.364l2.352-1.358a.267.267 0 0 1 .364.097l.125.217.013.024a.267.267 0 0 1-.11.34l-2.352 1.358a.267.267 0 0 1-.365-.098zm6.33-3.648a.267.267 0 0 0-.364-.098l-2.352 1.358a.267.267 0 0 0-.097.364l.125.217q.015.023.032.044a.27.27 0 0 0 .332.054L63.992 48a.267.267 0 0 0 .098-.365zm.701-.405a.267.267 0 0 1 .098-.364l2.352-1.358a.267.267 0 0 1 .364.098l.125.216.013.025a.267.267 0 0 1-.11.34l-2.352 1.358a.267.267 0 0 1-.365-.098zm6.32-3.642a.267.267 0 0 0-.364-.097l-2.351 1.358a.267.267 0 0 0-.098.364l.125.217q.015.023.032.044a.27.27 0 0 0 .332.053l2.352-1.358a.267.267 0 0 0 .098-.364zm.687-.403a.267.267 0 0 1 .098-.364l2.352-1.358a.267.267 0 0 1 .364.097l.125.217a.267.267 0 0 1-.098.364l-2.351 1.358a.267.267 0 0 1-.365-.098zm6.332-3.648a.267.267 0 0 0-.365-.098l-2.352 1.358a.267.267 0 0 0-.097.364l.125.217a.265.265 0 0 0 .364.098l2.352-1.358a.267.267 0 0 0 .098-.365zm.7-.405a.267.267 0 0 1 .098-.364l2.352-1.358a.267.267 0 0 1 .364.098l.125.216.013.025a.267.267 0 0 1-.11.34l-2.352 1.358a.267.267 0 0 1-.365-.098zm6.32-3.641a.267.267 0 0 0-.364-.098l-2.352 1.358a.267.267 0 0 0-.097.364l.125.217.015.023c.079.11.23.143.35.074l2.351-1.358a.267.267 0 0 0 .098-.364z" clip-rule="evenodd"/><path fill="#474747" d="m46.158 47.004-14.433 8.333-1.464.086-.312.18-.294-.176-1.53.885.012.337-5.613 3.24 1.92 3.325 7.647-4.425.87-1.275 14.453-8.338z"/><path fill="#595959" d="m29.95 55.603.312-.18.58-.034 1.636 2.835-.386.566-2.46 1.423-1.916-3.32.422-.244-.013-.337 1.532-.884z"/><path fill="#74623F" stroke="#423824" stroke-width="0.407726" d="m47.05 52.782.535-.308.364.63-.535.308zm1.429-.823.176-.102.363.63-.176.102zm1.07-.617.176-.102.364.63-.177.102zm1.066-.617.177-.102.363.63-.176.101zm1.071-.618.176-.101.363.63-.176.101zm1.068-.617.176-.102.364.63-.176.102zm1.07-.617.177-.102.363.63-.176.102zm23.512-13.574.176-.102.364.63-.177.102zm1.066-.617.177-.102.363.63-.176.101zm1.071-.617.176-.102.364.63-.177.101zm1.068-.618.176-.102.364.63-.176.102zm1.07-.617.177-.102.363.63-.176.102zm1.067-.616.176-.102.364.63-.177.102zm1.068-.617.177-.102.363.63-.176.101zm1.07-.617.177-.102.363.63-.176.101zm1.069-.618.176-.101.364.63-.177.101zm1.07-.617.176-.102.364.63-.176.102z"/><path fill="#847048" d="m54.632 54.45-2.85 1.644-.378 1.413 4.64-2.68z"/><path fill="#4D4D4D" fill-rule="evenodd" d="m57.669 55.574.529.21 2.277 2.183.44.21c.267.142.258.119.123-.177-.12-.345-.098-.584.112-.953l1.462-2.667c.135-.204.316-.39.601-.525.196-.082.42.002.118-.226-.06-.045-.09-.13-.048-.242.289-.744.42-1.48 1.597-2.203l1.357-.744c.32-.18.81-.303 1.145.012.242.205.322.15.15-.12l-.929-1.602-9.837 5.68zm2.81-1.84-1.633.998c-.352.218-.372.643-.115.928l.631.698c.277.313.845.323 1.143-.211l.82-1.697c.233-.462-.208-1.045-.846-.715" clip-rule="evenodd" opacity="0.9"/><path fill="#4D4D4D" d="m59.895 57.412.58.555.44.211c.267.141.258.118.122-.178-.12-.345-.098-.583.113-.952l1.46-2.668c.136-.203.317-.39.603-.524a.7.7 0 0 1 .17-.043c.113-.017.159-.025-.052-.184-.06-.045-.091-.13-.048-.242q.054-.143.105-.284c.234-.647.465-1.287 1.491-1.918l1.357-.745c.32-.18.81-.303 1.146.012.242.205.322.15.15-.12l-.93-1.602-3.493 2.017z"/><path fill="#3B3B3B" d="M57.92 55.259a.306.306 0 1 0-.305-.53.306.306 0 0 0 .305.53m2.45 2.321a.306.306 0 1 0-.306-.53.306.306 0 0 0 .306.53"/><path fill="#404040" d="M54.438 55.654a.428.428 0 1 0-.428-.742.428.428 0 0 0 .428.742m-1.512.888a.428.428 0 1 0-.428-.742.428.428 0 0 0 .428.742"/><path stroke="#423824" stroke-width="0.407725" d="m54.632 54.45-2.85 1.644-.378 1.413 4.64-2.68z"/><path fill="#454545" fill-rule="evenodd" d="m107.668 20.782-7.369 4.254-1.326 1.348.836 1.448 1.827-.48 7.372-4.249zm-4.912 3.025-.453.262c-.336.193-.442.64-.236.995l.432.749c.205.356.644.487.98.293l.453-.261c.336-.194.442-.64.236-.996l-.432-.748c-.205-.357-.644-.488-.98-.294m2.092-1.208-.453.262c-.336.194-.442.64-.236.996l.432.748c.205.356.644.487.98.293l.453-.261c.336-.194.442-.64.236-.996l-.432-.748c-.205-.356-.644-.488-.98-.294m2.092-1.208-.453.262c-.336.194-.442.64-.236.996l.432.748c.205.356.644.488.98.294l.453-.262c.336-.194.442-.64.236-.996l-.432-.748c-.205-.356-.644-.487-.98-.294" clip-rule="evenodd"/><path fill="#3B3B3B" fill-rule="evenodd" d="m100.795 24.75 6.871-3.968 1.338 2.318-6.872 3.966c-1.632-.054-2.106-.875-1.337-2.316m1.96-.942-.453.261c-.336.194-.442.64-.236.996l.432.748c.205.356.644.488.98.294l.453-.262c.336-.194.442-.64.236-.996l-.432-.748c-.205-.356-.644-.487-.98-.293m1.639-.947.453-.261c.336-.194.775-.063.98.293l.432.748c.206.357.1.802-.236.996l-.453.262c-.336.194-.775.062-.98-.294l-.432-.748c-.206-.356-.1-.802.236-.996m2.092-1.208.453-.261c.336-.194.775-.063.98.294l.432.748c.206.356.1.802-.236.996l-.453.261c-.336.194-.775.063-.98-.293l-.432-.749c-.206-.356-.1-.802.236-.996" clip-rule="evenodd"/><path stroke="#333" stroke-width="0.815454" d="m100.299 25.036 7.369-4.254 1.34 2.321-7.372 4.249-1.827.48-.836-1.448z"/><path fill="#4D4D4D" d="m35.304 70.604-2.233 1.272c-.562-.974-1.575-1.953-3.221-.985l-.235.136.615 1.064c2.401.343 2.673 1.49 2.1 3.101-.253.657-.262 1.208-.233 1.76l.369 5.8 4.867-2.263.282-.166c-.916-1.163-1.204-1.883-.113-2.838q.044-.035 0-.05c-.902-.325-.671-1.89-.142-2.423.016-.019.005-.048-.034-.063-.884-.475-.729-1.814-.459-2.248l-1.1-1.913c-.149-.254-.338-.252-.463-.184"/><path fill="#404040" d="M36.896 79.184c-.664.395-3.109 1.277-4.587 1.104l.168 2.638 2.015-.769 3.123-1.835c-.337-.428-.589-.796-.719-1.138"/><path fill="#957E51" fill-rule="evenodd" d="M33.071 71.875c-.562-.974-1.575-1.953-3.221-.985l-1.652.972-2.522-4.37.86-2.626.684-.398.166.287 19.933-11.508 2.865 4.962-.414 2.345 1.031 1.75L40.37 71.05c-.37.29-1.025.634-1.302.683l-1.425.34c-.18.043-.499.095-.776.627l-1.1-1.913c-.149-.254-.338-.252-.463-.184zm4.164-.71c.076.404.4.638.976.561.9-.12 1.626-.468 2.21-.988.498-.445.945-1.062.548-1.77l-.434-.746c-.349-.561-1.186-.718-2.055-.24l-1.026.592c-.53.313-.643.56-.587.85z" clip-rule="evenodd"/><path fill="#74623F" d="m48.513 55.312-.682-1.18-14.102 8.14-.526.695-7.453 4.302-.073.224.454.785 10.285-5.959c-.118-.224-.107-.546.223-.756l9.463-5.463c.277-.154.57-.117.703.12l.035.06z"/><path fill="#6D5C3B" stroke="#423824" stroke-width="0.407725" d="m45.608 55.576 2.293-1.323.61 1.058-1.672.97-.035-.061c-.133-.237-.426-.275-.703-.12l-.664.384c-.16-.27-.376-.587.171-.908Z"/><path fill="#4D4D4D" stroke="#333" stroke-width="0.815454" d="m41.43 67.538 3.212 3.82 7.696-6.435-3.087-3.727"/><path fill="#404040" d="m50.226 63.887-6.196 5.238a.33.33 0 0 0-.04.465l.192.227a.33.33 0 0 0 .466.039l6.196-5.237a.33.33 0 0 0 .039-.466l-.192-.227a.33.33 0 0 0-.466-.039m-.966-1.177-6.196 5.237a.33.33 0 0 0-.04.465l.192.227a.33.33 0 0 0 .466.039l6.196-5.237a.33.33 0 0 0 .039-.466l-.192-.226a.33.33 0 0 0-.465-.04m-.844-.966-6.196 5.237a.33.33 0 0 0-.039.466l.192.226a.33.33 0 0 0 .465.04l6.196-5.238a.33.33 0 0 0 .04-.466l-.192-.226a.33.33 0 0 0-.466-.04"/><path fill="#847048" d="m49.771 60.554.246-1.391-7.98 4.607c-.383.242-.434.577-.239.943l.828 1.434-2.764 1.596c.29.075.526.24.674.48l.434.745c.174.31.186.604.102.872l.242.418 9.488-7.953z"/><path fill="#8E784D" stroke="#423824" stroke-width="0.407726" d="m38.244 65.583 1.221 2.115q.21-.003.396.045l2.765-1.596-.828-1.434c-.195-.366-.145-.701.24-.944l7.978-4.606.169-.953-12.218 7.054c.113.088.208.2.277.32Z"/><path fill="#493E28" d="m36.944 63.33-2.016.468-1.78 1.695.075.095 3.769-2.176z"/><path fill="#A58B5A" d="m33.148 65.491-.683-.87 1.634-1.742.828.918z"/><path fill="#7A6742" d="m35.167 61.737-1.07 1.14.831.919 2.013-.468-.028-.05z"/><path fill="#635436" d="m40.398 64.345-1.764 1.019a.57.57 0 0 0-.21.78l.551.955a.57.57 0 0 0 .781.209l1.764-1.019a.57.57 0 0 0 .21-.78l-.551-.955a.57.57 0 0 0-.781-.209"/><path fill="#404040" stroke="#333" stroke-width="0.407726" d="M37.697 67.918c.303.947.939 2.207 1.521 2.706.045.038.147.108.03.052-.712-.339-1.526-1.677-2.082-2.592z"/><path fill="#847048" stroke="#423824" stroke-width="0.407726" d="M33.072 71.875c-.563-.974-1.576-1.953-3.222-.985l-1.651.971-2.523-4.369.377-1.148.894 1.55c.268.443.901.399 1.29.59.445.203.503.082.869.56.243.299.767.314 1.42-.06l6.564-3.804c.466-.267.94.029 1.155.403l1.22 2.115a2.14 2.14 0 0 0-.984.283l-1.026.592c-.53.314-.643.561-.587.85l.052.245z"/><path fill="#4D4D4D" d="M25.806 67.718 2.756 81.025l6.697 10.402 11.226-7.917-.582-1.016c-.346-.555-.296-.994-.308-1.463l-.029-3.184c-.022-.76.146-1.544.857-1.995l7.388-4.324"/><path fill="#454545" d="m18.402 71.991.719 1.245 3.003 1.734 5.881-3.443-2.2-3.81z"/><path stroke="#333" stroke-width="0.407726" d="m22.124 74.97-3.003-1.734-.719-1.245 7.403-4.274 2.2 3.81zm0 0-3.003-1.734"/><path fill="#404040" stroke="#333" stroke-width="0.407725" d="M23.566 73.89a.754.754 0 1 0-.754-1.307.754.754 0 0 0 .754 1.306Z"/><path fill="#404040" d="m1.278 81.878 1.48-.852 6.696 10.402-1.228.891c-.122.079-.264.018-.427-.053l-.005-.002-.747-.374a1.24 1.24 0 0 1-.525-.47l-5.234-8.234c-.247-.453-.156-1.234-.01-1.308"/><path fill="#383838" d="m8.845 91.869-6.78-10.445.692-.399 6.697 10.402z"/><path fill="#474747" d="m2.756 81.025 6.697 10.402 1.563-1.103-4.8-7.681L4.29 81.53l-.596-1.03z"/><path stroke="#333" stroke-width="0.407726" d="m6.216 82.642 4.8 7.683m0 0-4.8-7.683L4.29 81.53l-.596-1.03-.938.526 6.697 10.402z"/><path stroke="#333" stroke-miterlimit="29" stroke-width="0.407726" d="m102.755 23.807-.453.262c-.336.194-.442.64-.236.996l.432.748c.205.356.644.487.98.293l.453-.261c.336-.194.442-.64.236-.996l-.432-.748c-.205-.356-.644-.488-.98-.294Zm2.091-1.207-.452.26c-.336.195-.442.64-.236.997l.432.748c.205.356.644.488.98.293l.453-.26c.336-.195.442-.64.236-.997l-.432-.748c-.205-.356-.645-.488-.981-.294Zm1.64-.947.452-.261c.336-.194.775-.063.981.293l.432.748c.206.356.1.802-.236.996l-.453.262c-.336.194-.775.062-.981-.294l-.431-.748c-.206-.356-.1-.802.236-.996Z"/><path fill="#666" d="m30.261 55.422-.212.123 1.915 3.318.128-.074.386-.566-1.637-2.835z"/><path fill="#616161" d="m31.581 55.345 1.311 2.271-.414.607-1.636-2.834z"/><path fill="#4D4D4D" d="m27.66 56.924 1.916 3.32-5.133 2.97-1.92-3.325z"/><path fill="#404040" d="m23.791 59.157 1.919 3.323-1.267.733-1.92-3.324zm21.582-11.7.785-.453 1.255 2.172-.786.453z"/><path stroke="#333" stroke-width="0.815454" d="m46.158 47.004-14.433 8.333-1.464.086-.312.18-.294-.176-1.53.885.012.337-5.613 3.24 1.92 3.325 7.647-4.425.87-1.275 14.453-8.338z"/><path fill="#404040" d="m37.065 75.479-.23.051c-.68.14-1.361.352-2.049.931-1.507 1.49 1.378 1.386 2.246.948l.236-.105c-.472-.374-.45-1.226-.203-1.825m-.33-2.459-.237.045c-.66.136-1.322.342-1.989.903-1.462 1.445 1.337 1.345 2.18.92l.345-.162c-.434-.459-.434-1.219-.3-1.705"/><path stroke="#333" stroke-width="0.815454" d="m58.198 55.784-.53-.21-.902-1.165 9.837-5.68.929 1.603c.172.27.092.325-.15.12-.336-.315-.825-.193-1.145-.012l-1.357.744c-1.176.724-1.308 1.46-1.597 2.203-.043.111-.011.197.048.242.303.228.078.144-.118.227-.285.135-.466.32-.602.523l-1.46 2.668c-.211.37-.234.608-.113.953.135.296.144.319-.122.178l-.441-.21z"/><path fill="#3B3B3B" d="M62.486 52.88a.557.557 0 1 0-.558-.966.557.557 0 0 0 .558.965"/><path stroke="#333" stroke-width="0.407726" d="m58.848 54.733 1.633-.998c.638-.33 1.078.254.845.715l-.819 1.698c-.298.533-.866.523-1.143.21l-.631-.698c-.258-.285-.237-.71.115-.927Z"/><path fill="#53462C" fill-rule="evenodd" d="M37.614 72.079c-.183.043-.485.115-.749.62l-1.1-1.912c-.128-.219-.286-.247-.407-.208l1.561-.902.315 1.488c.076.405.4.64.976.563.787-.105 1.442-.385 1.984-.802q.117-.09.226-.187c.374-.334.718-.764.7-1.257a1.1 1.1 0 0 0-.151-.513l-.435-.746a1.1 1.1 0 0 0-.674-.479l.611-.353c.343-.198.72.142.8.281l1.02 1.767-1.923 1.61c-.37.29-1.025.635-1.302.684" clip-rule="evenodd"/><path stroke="#423824" stroke-width="0.407726" d="M37.614 72.079c-.183.043-.485.115-.749.62l-1.1-1.912c-.128-.219-.286-.247-.407-.208l1.561-.902.315 1.488c.076.405.4.64.976.563.787-.105 1.442-.385 1.984-.802q.117-.09.226-.187c.374-.334.718-.764.7-1.257a1.1 1.1 0 0 0-.151-.513l-.435-.746a1.1 1.1 0 0 0-.674-.479l.611-.353c.343-.198.72.142.8.281l1.02 1.767-1.923 1.61c-.37.29-1.025.635-1.302.684zm0 0 .027-.007"/><path fill="#404040" stroke="#333" stroke-width="0.407725" d="m42.362 69.38-.78.653-.573-.998.789-.629z"/><path stroke="#333" stroke-width="0.815454" d="M25.806 67.718 2.756 81.025l6.697 10.402 11.226-7.917-.582-1.016c-.346-.555-.296-.994-.308-1.463l-.029-3.184c-.022-.76.146-1.544.857-1.995l7.388-4.324"/><path stroke="#423824" stroke-width="0.815454" d="M88.022 29.858 47.32 53.248l2.866 4.962 37.419-21.572.511-2.683c.107-.456.225-.583.536-.92l.017-.02c.37-.357.388-.433.302-.74z"/><path stroke="#423824" stroke-width="0.815454" d="M29.85 70.89c1.645-.968 2.659.011 3.221.985l2.232-1.273c.125-.068.314-.07.463.184l1.1 1.913c.277-.532.597-.584.776-.628l1.425-.339c.277-.05.931-.394 1.302-.683l10.432-8.744-1.03-1.751.413-2.345-2.865-4.963-19.933 11.509-.166-.287-.684.398-.86 2.627 2.522 4.369z"/><path fill="#4D4D4D" stroke="#333" stroke-width="0.815454" d="m29.933 83.929-.008 2.022c2.09.212 6.758-2.552 8.738-4.244l-.201-1.746z"/><path fill="#404040" d="M34.566 83.742a.56.56 0 1 0-.561-.972.56.56 0 0 0 .56.972m-6.758-15.848 1.126-.65.4.692-1.126.65-.097.227-.047.027-.547-.948.047-.027z"/><path stroke="#333" stroke-width="0.407725" d="m27.807 67.894 1.126-.65.4.692-1.126.65-.097.227-.047.027-.547-.948.047-.027z"/><path fill="#404040" stroke="#333" stroke-width="0.407725" d="m39.967 65.407-.22.128a.15.15 0 0 0-.055.204l.309.535a.15.15 0 0 0 .204.054l.22-.127a.15.15 0 0 0 .055-.204l-.31-.535a.15.15 0 0 0-.203-.055Z"/><path stroke="#423824" stroke-width="0.407725" d="m35.169 61.737-2.704 2.884.757.966 3.77-2.176-.077-.132z"/><path fill="#74623F" d="m33.625 66.1 3.689-2.13-.322-.56-3.77 2.177z"/><path stroke="#423824" stroke-width="0.407725" d="m33.625 66.1 3.689-2.13-.322-.56-3.77 2.177zm0 0 3.688-2.13"/><path fill="#404040" d="m37.197 63.67-.769-1.33c-.13-.224-.13-.56.211-.777l9.463-5.463c.277-.155.57-.117.703.12l.825 1.429z"/><path fill="#383838" d="m43.613 58.229-2.058 1.188a.436.436 0 0 0-.16.596l.193.332c.12.209.387.28.596.16l2.057-1.188a.436.436 0 0 0 .16-.596l-.192-.333a.436.436 0 0 0-.596-.16m2.267-1.314-1.213.701a.436.436 0 0 0-.16.596l.192.332c.12.209.387.28.596.16l1.214-.701a.436.436 0 0 0 .16-.596l-.193-.332a.436.436 0 0 0-.595-.16"/><path fill="#474747" stroke="#333" stroke-width="0.407725" d="m42.3 60.726-5.288 3.053.663 1.148c.129.226.432.387.79.2l9.816-5.667c.272-.163.386-.436.247-.669l-.719-1.246-3.44 1.987.167.277-2.07 1.195z"/><path fill="#3B3B3B" d="M32.057 69.509a.471.471 0 1 0-.471-.816.471.471 0 0 0 .47.816m-13.601 7.746a.471.471 0 1 0-.471-.816.471.471 0 0 0 .471.816m.723 6.144a.47.47 0 1 0-.471-.816.47.47 0 0 0 .47.816m17.858-15.06a.277.277 0 1 0-.277-.48.277.277 0 0 0 .277.48"/><path fill="#404040" stroke="#333" stroke-width="0.407726" d="m33.802 68.769.263-.152a.385.385 0 1 1 .384.666l-.262.152a.385.385 0 0 1-.502-.104l-.662.382c-.079.046-.089.029-.101.006l-.003-.005-.003-.004c-.013-.022-.023-.04.056-.085l.664-.383a.385.385 0 0 1 .166-.473Z"/><path fill="#A58C5A" d="m32.466 64.622 1.16 1.478Zm-2.854 3.796-.93-1.611 3.784-2.186 1.16 1.48z"/><path stroke="#423824" stroke-width="0.407725" d="m32.466 64.622 1.16 1.478Zm-2.854 3.796-.93-1.611 3.784-2.186 1.16 1.48z"/><path fill="#404040" d="m10.364 84.723 6.555-3.784a.892.892 0 0 1 .892 1.545l-6.555 3.784a.892.892 0 0 1-.892-1.545"/><path fill="#404040" d="m11.582 85.051-1.76-3.047a.892.892 0 1 0-1.544.892l1.76 3.047a.892.892 0 1 0 1.544-.892"/><path fill="#383838" stroke="#333" stroke-width="0.407598" d="m17.088 81.359-2.34 1.35a.357.357 0 0 0-.13.488l.086.149c.098.17.316.229.487.13l2.34-1.35a.357.357 0 0 0 .13-.488l-.086-.149a.357.357 0 0 0-.487-.13Zm-6.221 3.349-1.35-2.34a.357.357 0 0 0-.488-.13l-.149.086a.357.357 0 0 0-.13.487l1.35 2.34c.098.17.317.229.487.13l.15-.086a.357.357 0 0 0 .13-.487Z"/><path fill="#404040" stroke="#333" stroke-width="0.815454" d="m5.895 78.19 10.195-5.887.313 7.014c-.004.36.034.633-.427.879L12.65 82.13c-.486.256-.673.228-1.07.044L6.5 79.238z"/><path fill="#404040" d="m8.425 83.917 1.773 3.077a.297.297 0 0 1-.126.377.3.3 0 0 1-.39-.079l-1.778-3.074c-.858-.08-.789-.91-.333-1.179.46-.26 1.213.095.854.878"/><path fill="#383838" d="M8 83.788a.226.226 0 1 0-.226-.391.226.226 0 0 0 .226.391"/><path stroke="#333" stroke-width="0.815454" d="m1.278 81.878 1.48-.852 6.696 10.402-1.228.891c-.122.079-.264.018-.427-.053l-.005-.002-.747-.374a1.24 1.24 0 0 1-.525-.47l-5.234-8.234c-.247-.453-.156-1.234-.01-1.308Z"/><path fill="#404040" stroke="#333" stroke-width="0.407726" d="m27.426 54.689.09.157.17.067.746 1.29.207-.12-.745-1.29.026-.18-.09-.158z"/><path fill="#404040" d="m43.66 60.62-.104.06a.306.306 0 0 0-.112.418l.216.374a.306.306 0 0 0 .418.112l.103-.06a.306.306 0 0 0 .112-.418l-.216-.374a.306.306 0 0 0-.418-.112"/><path stroke="#333" stroke-width="0.407725" d="m8.425 83.917 1.773 3.077a.297.297 0 0 1-.126.377.3.3 0 0 1-.39-.079l-1.778-3.074c-.858-.08-.789-.91-.333-1.179.46-.26 1.213.095.854.878Z"/><path fill="#383838" d="m39.76 59.762-3.12 1.8c-.342.217-.342.554-.212.778l.769 1.33 3.615-2.086z"/><path stroke="#333" stroke-width="0.815454" d="m37.197 63.67-.769-1.33c-.13-.224-.13-.56.211-.777l9.463-5.463c.277-.155.57-.117.703.12l.825 1.429z"/><path stroke="#333" stroke-width="0.815452" d="M33.072 71.876c-.563-.974-1.576-1.953-3.222-.985m0 0-.235.136.615 1.064c2.401.343 2.673 1.49 2.1 3.101-.253.657-.262 1.208-.233 1.76l.369 5.8 4.867-2.263.282-.166c-.916-1.163-1.204-1.883-.113-2.838q.044-.035 0-.05c-.902-.325-.671-1.89-.142-2.423.016-.019.005-.048-.034-.063-.884-.475-.729-1.814-.459-2.248l-1.1-1.913c-.149-.254-.338-.252-.463-.184l-2.233 1.272c-.562-.974-1.575-1.953-3.221-.985Z"/><path fill="#74623F" stroke="#423824" stroke-width="0.407726" d="m29.807 62.74.176-.103.268.465-.176.102zm1.056-.612.177-.102.268.464-.177.102zm1.059-.609.177-.102.268.464-.177.102zm1.058-.612.177-.102.268.465-.176.101zm1.057-.611.177-.102.268.464-.177.102zm1.059-.61.176-.102.268.464-.176.102zm1.058-.612.177-.102.268.464-.177.102zm1.059-.61.176-.102.268.464-.176.102zm1.057-.611.176-.102.268.464-.176.102zm1.058-.611.177-.102.268.464-.177.102zm1.057-.612.176-.101.268.464-.176.102zm1.058-.61.177-.102.268.465-.177.102zm1.059-.61.177-.103.268.464-.177.102zm1.058-.611.177-.102.268.464-.177.102zm1.057-.611.177-.102.268.464-.177.102zm1.057-.611.176-.102.268.464-.176.102zm1.058-.61.318-.184.268.465-.318.183zM28.17 63.684l.762-.44.268.463-.762.44z"/><path fill="#4D4D4D" stroke="#333" stroke-width="0.407725" d="m34.872 58.728-2.03 1.172.68 1.178 5.964-3.443-.413-1.504 3.83-2.234c.166-.093.212-.208.286-.435l.303-.907c.088-.258.134-.44.01-.682l-1.67-2.892-1.081.624 1.67 2.892c.229.439.22.932-.577 1.36l-4.458 2.574c-.479.266-.655.065-.852-.264l-1.786-3.095-1.108.64 1.634 2.83c.142.262.126.354.112.65l-.12.93c-.04.196-.145.47-.395.606Z"/><path fill="#595959" d="m33.683 61.354-.74-1.282 5.966-3.444.736 1.283"/><path fill="#404040" d="M34.475 60.384a.47.47 0 1 0-.471-.816.47.47 0 0 0 .47.816m3.751-2.166a.47.47 0 1 0-.471-.816.47.47 0 0 0 .47.816"/><path stroke="#333" stroke-width="0.407726" d="m33.683 61.354-.74-1.282 5.966-3.444.736 1.283m-9.695-2.308.312-.18.58-.034 1.636 2.835-.386.566-2.46 1.423-1.916-3.32.422-.244-.013-.337 1.532-.884z"/><path fill="#4D4D4D" d="m35.834 50.43 2.693-1.554.867 1.503.7.129 1.33 2.303-.18.667-2.783 1.607-.667-.178-1.33-2.303.238-.67z"/><path fill="#595959" d="m36.535 51.643-.35-.605 2.693-1.554.349.604z"/><path fill="#404040" stroke="#333" stroke-width="0.407725" d="M39.587 53.85a1.39 1.39 0 1 0-1.39-2.41 1.39 1.39 0 0 0 1.39 2.41Z"/><path stroke="#333" stroke-width="0.407725" d="m35.834 50.43 2.693-1.554.867 1.503.7.129 1.33 2.303-.18.667-2.783 1.607-.667-.178-1.33-2.303.238-.67z"/><path stroke="#423824" stroke-width="0.407726" d="m50.185 58.21 37.419-21.572.043-.33.263-1.276.177-.928-1.873 1.081a.267.267 0 0 1-.364-.097l-.125-.217a.267.267 0 0 1 .097-.364l2.04-1.178a.267.267 0 0 1 .364.098l.047.08c.086-.155.2-.28.377-.472l.018-.02c.37-.357.388-.433.302-.74l-.555-1.412-2.532 1.462 1.15.497-5.955 3.439-1.2-.469-1.368.79 1.167.488-5.426 3.133-1.232-.451-1.19.686 1.198.471-5.62 3.244-1.23-.45-1.004.578 1.206.467-5.813 3.355-1.182-.48-.9.52 1.205.467-4.047 2.336-1.182-.48-6.56 3.788zm8.85-5.383.216-1.248-2.458 1.419-.193 1.235zm6.69-3.862.216-1.248-5.813 3.355-.192 1.235zm6.648-3.839.216-1.248-5.62 3.244-.241 1.264zm6.65-3.839.216-1.248-5.426 3.133-.242 1.263zm1.505-1.992-.243 1.263 7.106-4.103.263-1.275zM60.082 49.346l-2.352 1.358a.267.267 0 0 0-.097.364l.124.217a.267.267 0 0 0 .365.097l2.352-1.357a.267.267 0 0 0 .097-.365l-.125-.216a.267.267 0 0 0-.364-.098Zm1.166-.666 2.352-1.358a.267.267 0 0 1 .364.098l.125.217c.074.127.03.29-.098.364l-2.352 1.358a.267.267 0 0 1-.364-.098l-.125-.216a.267.267 0 0 1 .098-.365Zm5.866-3.387-2.352 1.358a.267.267 0 0 0-.097.364l.125.217a.267.267 0 0 0 .364.098l2.352-1.358a.267.267 0 0 0 .097-.364l-.125-.217a.267.267 0 0 0-.364-.098Zm1.155-.659 2.352-1.358a.267.267 0 0 1 .364.098l.125.216a.267.267 0 0 1-.098.365l-2.351 1.358a.267.267 0 0 1-.365-.098l-.125-.217a.267.267 0 0 1 .098-.364Zm5.852-3.386-2.352 1.358a.267.267 0 0 0-.098.364l.125.217a.267.267 0 0 0 .365.097l2.352-1.357a.267.267 0 0 0 .097-.365l-.125-.216a.267.267 0 0 0-.364-.098Zm1.166-.666 2.351-1.358a.267.267 0 0 1 .365.098l.125.217c.073.127.03.29-.098.364l-2.352 1.358a.267.267 0 0 1-.364-.098l-.125-.216a.267.267 0 0 1 .098-.365Zm5.866-3.387L78.8 38.553a.267.267 0 0 0-.097.364l.125.217a.267.267 0 0 0 .364.098l2.352-1.358a.267.267 0 0 0 .097-.364l-.125-.217a.267.267 0 0 0-.364-.098Zm1.155-.66 2.351-1.357a.267.267 0 0 1 .365.098l.125.216a.267.267 0 0 1-.098.365L82.7 37.215a.267.267 0 0 1-.364-.098l-.125-.217a.267.267 0 0 1 .098-.364Z" clip-rule="evenodd"/><path stroke="#423824" stroke-width="0.407726" d="M88.022 29.858 47.32 53.248l2.866 4.962 37.419-21.572.043-.33.263-1.276.177-.928-1.873 1.081a.267.267 0 0 1-.364-.097l-.125-.217a.267.267 0 0 1 .097-.364l2.04-1.178a.267.267 0 0 1 .364.098l.047.08c.085-.155.2-.28.378-.473l.017-.019c.37-.357.388-.433.302-.74zM59.036 52.827l.216-1.248-2.458 1.419-.192 1.234zm6.69-3.863.216-1.248-5.813 3.356-.192 1.234zm6.648-3.838.216-1.248-5.62 3.244-.241 1.263zm6.65-3.84.216-1.247-5.426 3.132-.242 1.264zm-20.54 6.858 1.206.466-4.047 2.336-1.182-.48zm6.69-3.863 1.206.466-5.813 3.356-1.182-.48zm6.656-3.843 1.198.47-5.62 3.245-1.23-.45zm6.681-3.857 1.167.489-5.426 3.132-1.232-.45zm7.373-4.257 1.15.498-5.955 3.439-1.2-.47zm-5.356 6.97-.242 1.264 7.107-4.103.262-1.275zM60.083 49.347l-2.352 1.358a.267.267 0 0 0-.098.364l.126.217a.267.267 0 0 0 .364.097l2.352-1.358a.267.267 0 0 0 .097-.364l-.125-.217a.267.267 0 0 0-.364-.097Zm1.166-.666 2.352-1.358a.267.267 0 0 1 .364.098l.125.216a.267.267 0 0 1-.098.365l-2.351 1.358a.267.267 0 0 1-.365-.098l-.125-.217a.267.267 0 0 1 .098-.364Zm5.866-3.387-2.352 1.358a.267.267 0 0 0-.097.364l.125.217a.267.267 0 0 0 .364.098l2.352-1.358a.267.267 0 0 0 .097-.365l-.125-.216a.267.267 0 0 0-.364-.098Zm1.155-.66 2.352-1.357a.267.267 0 0 1 .364.097l.125.217c.074.128.03.29-.098.364l-2.351 1.358a.267.267 0 0 1-.365-.097l-.125-.217a.267.267 0 0 1 .098-.364Zm5.852-3.385-2.352 1.358a.267.267 0 0 0-.098.364l.126.217a.267.267 0 0 0 .364.097l2.352-1.358a.267.267 0 0 0 .097-.364l-.125-.217a.267.267 0 0 0-.364-.097Zm1.166-.666 2.352-1.358a.267.267 0 0 1 .364.098l.125.216a.267.267 0 0 1-.098.365L75.68 41.26a.267.267 0 0 1-.364-.098l-.125-.217a.267.267 0 0 1 .098-.364Zm5.866-3.387-2.352 1.358a.267.267 0 0 0-.098.364l.126.217a.267.267 0 0 0 .364.097l2.352-1.357a.267.267 0 0 0 .097-.365l-.125-.216a.267.267 0 0 0-.364-.098Zm1.155-.66 2.352-1.357a.267.267 0 0 1 .364.098l.125.216c.074.128.03.29-.098.364l-2.351 1.358a.267.267 0 0 1-.365-.097l-.125-.217a.267.267 0 0 1 .098-.364Z" clip-rule="evenodd"/><path fill="#474747" stroke="#333" stroke-width="0.407725" d="m34.575 55.332 1.113-.642-.937-1.621-1.112.642zm7.114-4.104 1.08-.624-.936-1.623-1.081.624z"/></g><defs><clipPath id="a"><path fill="#fff" d="M0 0h110v110H0z"/></clipPath></defs></svg>