<svg xmlns="http://www.w3.org/2000/svg" width="110" height="110" fill="none" viewBox="0 0 110 110"><g clip-path="url(#a)"><path fill="#453F3B" fill-rule="evenodd" stroke="#37332F" stroke-miterlimit="3.99393" stroke-width="0.560504" d="M50.806 54.931c-.68.992-.888 1.898.03 2.81 1.007.999 1.209 2.412.795 3.958l-.041.151c-.382 1.431-.525 1.968-2.201 2.81-1.935.972-3.447 3.314-3.7 4.996l-.086.572c-.325 2.176-.405 2.705-.875 3.13-.551.498-1.064.863-2.134.886-1.07.022-2.045-1.093-2.353-1.625-.167-.289-.721-2.366.134-4.837.728-2.103 1.253-2.668 2.263-3.758q.265-.283.579-.631l.839-.946a.42.42 0 0 1 .3-.142l.608-.02a.49.49 0 0 1 .438.279c.961 1.852 4.7 1.928 5.402-.696.738-2.754-2.452-4.838-4.436-3.43l2.059-2.288zm-4.157 11.476c-1.358 2.496-1.581 3.164-1.706 5.474-.044.804-.715 1.562-1.931 1.83-.959.21-2.125-.489-2.36-1.354-.713-2.175-.054-5.68 2.502-8.243.968-.971 1.822-.866 2.795-.386 1.041.515 1.088 1.965.7 2.679Z" clip-rule="evenodd"/><path fill="#403B36" stroke="#37332F" stroke-width="0.560504" d="m103.828 17.953.986-.569.652 1.13-.986.57z"/><path fill="#423D38" stroke="#37332F" stroke-width="0.560504" d="M38.26 57.198c-.908.465-1.128.715-1.304 1.314-.031.105.21.108.27.007.22-.372.402-.47.933-.586.407-.09.586-.155.804-.44.053-.068.267-.037.275.059.17 2.11.763 2.901 2.403 4.1l.954-3.603-2.03-1.463-1.268-.27c-.195-.04-.476.008-.593.249-.161.335-.264.54-.443.633Z"/><path fill="#9A9088" d="M40.94 56.778c.643-.829 1.398-2.01.351-4.309l11.7-6.754c.56-.324.82-.74.574-1.166l1.787-1.032 3.607 6.248c-3.195 1.97-7.448 4.773-7.448 4.773-3.692 2.132-4.643 3.317-6.422 5.347"/><path fill="#403B36" stroke="#37332F" stroke-miterlimit="3.99393" stroke-width="0.560504" d="M47.066 62.991c-1.474-.861-1.87-1.729-1.63-3.6l-.631.63c.307 1.729.872 2.832 2.155 3.176.168.045.2-.15.106-.206Z"/><path fill="#534C47" stroke="#37332F" stroke-linecap="round" stroke-miterlimit="3.99393" stroke-width="0.560502" d="m104.746 15.936-.818-1.418 1.575-.91.518.272.61 1.057z"/><path fill="#8E8470" stroke="#39352D" stroke-linecap="round" stroke-miterlimit="3.99393" stroke-width="1.12101" d="M106.9 14.207 55.556 43.85c-.068.04-.062.175.012.304l1.073 1.858c.074.129.189.201.256.162l51.345-29.643c.067-.04.061-.175-.013-.303l-1.073-1.859c-.074-.128-.189-.201-.256-.162Z"/><path fill="#817760" stroke="#3B362B" stroke-linecap="round" stroke-miterlimit="3.99393" stroke-width="1.12101" d="M105.7 18.216 78.827 33.731c-.067.04-.073.155-.013.26l.868 1.504c.06.104.164.156.231.117l26.873-15.515c.068-.039.074-.155.013-.259l-.868-1.504c-.06-.104-.163-.157-.231-.118Z"/><path fill="#877C73" stroke="#37332F" stroke-linecap="round" stroke-miterlimit="3.99393" stroke-width="0.560504" d="m58.959 49.766-3.607-6.248-1.787 1.032 2.626 4.549c.272.47.065 1.021-.602 1.406 0 0-1.027.6-2.47 1.675-1.409 1.048-1.614 1.507-1.608 2.36 0 0 4.253-2.803 7.448-4.774Z"/><path fill="#515151" stroke="#333" stroke-linecap="round" stroke-miterlimit="3.99393" stroke-width="1.12101" d="m2.27 81.64 9.971 15.276 18.056-19.912c.467-.467-4.472-9.307-5.393-8.775z"/><path fill="#883C2B" stroke="#4E2218" stroke-linecap="round" stroke-miterlimit="3.99393" stroke-width="1.12101" d="m5.407 79.764 9.411 14.304 18.055-19.912c.468-.467 1.216-.763 1.608.32l5.361-.524c-2.44-6.207 1.502-9.874 5.245-14.067l-4.15-3.109a130 130 0 0 0-8.286 10.183c-1.915-.838-3.689-1.139-4.61-.607z"/><path fill="#743325" d="m34.942 73 3.142-.431c-1.01-5.88.867-7.615 4.272-11.328l-2.889 1.327.896-3.117c-4.08 5.405-6.383 6.08-5.421 13.55"/><path fill="#57504B" stroke="#37332F" stroke-linecap="round" stroke-miterlimit="3.99393" stroke-width="1.12101" d="m85.307 33.313-2.063-3.574c2.184-1.068 3.187-1.22 3.832-.143.87 1.51.105 2.635-1.769 3.717Z"/><path fill="#47413D" stroke="#37332F" stroke-linecap="round" stroke-miterlimit="3.99393" stroke-width="0.560502" d="M85.664 30.298a.556.556 0 1 0-.556-.963.556.556 0 0 0 .556.963Z"/><path fill="#883C2B" d="m56.454 45.429 26.788-15.69 2.058 3.564C77.506 39.72 67.716 45.017 58.706 49.33z"/><path fill="#5B534D" stroke="#37332F" stroke-linecap="round" stroke-miterlimit="3.99393" stroke-width="0.560502" d="m51.365 50.31-7.77 4.487a.64.64 0 0 0-.236.875l.214.37a.64.64 0 0 0 .876.235l7.77-4.486a.64.64 0 0 0 .235-.876l-.214-.37a.64.64 0 0 0-.876-.235Z"/><path fill="#5B534D" stroke="#37332F" stroke-linecap="round" stroke-miterlimit="3.99393" stroke-width="0.560502" d="M44.325 56.088a.63.63 0 1 0-.63-1.09.63.63 0 0 0 .63 1.09Z"/><path fill="#4E4742" stroke="#37332F" stroke-linecap="round" stroke-miterlimit="3.99393" stroke-width="0.280252" d="M44.683 57.177a.353.353 0 1 0-.352-.611.353.353 0 0 0 .352.61Zm4.244-2.202a.406.406 0 1 0-.405-.703.406.406 0 0 0 .405.703Zm2.627-5.027a.406.406 0 1 0-.252-.772.406.406 0 0 0 .252.771Z"/><path fill="#453F3B" stroke="#37332F" stroke-linecap="round" stroke-miterlimit="3.99393" stroke-width="0.560502" d="m42.788 49.154-1.179.681.724 1.253 1.179-.68z"/><path fill="#3C3834" stroke="#37332F" stroke-linecap="round" stroke-miterlimit="3.99393" stroke-width="0.560502" d="m52.805 51.45-.844-1.482-3.539 2.04c-.34.772.036 1.43.823 1.51z"/><path fill="#605852" stroke="#37332F" stroke-linecap="round" stroke-miterlimit="3.99393" stroke-width="0.560502" d="m41.717 51.048 3.038-1.754 3.46-1.731.394.68-6.383 3.686z"/><path fill="#743325" d="M81.186 36.466c-5.087 3.663-10.734 6.922-16.324 9.809l.097-3.372 13.606-7.855z"/><path stroke="#4D2219" stroke-linecap="round" stroke-miterlimit="3.99393" stroke-width="1.12101" d="m56.454 45.429 26.788-15.69 2.058 3.564C77.506 39.72 67.716 45.017 58.706 49.33z"/><path stroke="#37332F" stroke-linecap="round" stroke-miterlimit="3.99393" stroke-width="1.12101" d="M40.94 56.778c.643-.829 1.398-2.01.351-4.309l11.7-6.754c.56-.324.82-.74.574-1.166l1.787-1.032 3.607 6.248c-3.195 1.97-7.448 4.773-7.448 4.773-3.692 2.132-4.643 3.317-6.422 5.347"/></g><defs><clipPath id="a"><path fill="#fff" d="M0 0h110v110H0z"/></clipPath></defs></svg>