<svg xmlns="http://www.w3.org/2000/svg" id="Layer_2" width="124.91528" height="15.518899" data-name="Layer 2" version="1.1" viewBox="0 0 124.91528 15.518899"><defs id="defs1"><style id="style1">.cls-12{fill:#262121}</style></defs><g id="svg1" transform="translate(-.004)"><g id="layer1"><path id="path1" d="M101.92 7.66c0 .1-3.7 6.3-8.5 6.3l.2-6.3v0l-.2-6.3c4.8.1 8.5 6.3 8.5 6.3z" style="stroke:#171200;stroke-miterlimit:11.3386;stroke-linecap:round;stroke-width:1.5px;fill-rule:evenodd;fill:#8d857c"/><path id="path2" d="M95.02 7.76c.7 2.5 1.5 6.1-1.7 6.4-9.3 1-18.5.6-27.8 0-.2.2-.4-3-.4-6.4 0-3.3.2-6.6.4-6.4 9.3-.6 18.6-1 27.8 0 3.2.3 2.4 4 1.7 6.4z" style="stroke:#171200;stroke-miterlimit:11.3386;stroke-linecap:round;stroke-width:1.5px;fill-rule:evenodd;fill:#883c2b"/><path id="rect2" d="M2.12 2.26h5.1c.3 0 .6.2.6.4v10.4c0 .2-.3.4-.6.4h-5.1c-.3 0-.6-.2-.6-.4V2.66c-.1-.3.2-.4.6-.4z" style="stroke:#171200;stroke-miterlimit:11.3386;fill-rule:evenodd;stroke-linecap:square;stroke-width:3px;fill:#3d3d3d"/><path id="path3" d="M7.82 13.36h10.6c5.6-1.9 11.6-2.1 18 0h12.2V2.26h-12c-6.6 2-12.5 1.7-18 0H7.72" style="stroke:#171200;stroke-miterlimit:11.3386;fill-rule:evenodd;fill:#883c2b;stroke-linecap:square;stroke-width:3px"/><path id="rect4" d="M61.52 3.96h61.5c.2 0 .4.2.4.4v6.9c0 .2-.2.4-.4.4h-61.5c-.2 0-.4-.2-.4-.4v-6.9c0-.2.2-.4.4-.4z" style="stroke:#171200;stroke-miterlimit:11.3386;fill:#817760;stroke-linecap:square;stroke-width:3px"/><path id="rect3" d="M47.92 2.26h13.6c.2 0 .4.2.4.4v10.2c0 .2-.2.4-.4.4h-13.6c-.2 0-.4-.2-.4-.4V2.66c0-.2.2-.4.4-.4z" style="stroke:#171200;stroke-miterlimit:11.3386;fill-rule:evenodd;fill:#9a9088;stroke-linecap:square;stroke-width:3px"/><path id="rect6" d="M45.32 6.56h1.9c.2 0 .4.2.4.4v1.6c0 .2-.2.4-.4.4h-1.9c-.2 0-.4-.2-.4-.4v-1.6c0-.2.2-.4.4-.4z" style="stroke:#171200;stroke-miterlimit:11.3386;stroke-linecap:round;stroke-width:1.5px;fill-rule:evenodd;fill:#5b5553"/><path id="rect7" d="M49.52 5.96h2.8c.2 0 .4.2.4.4v2.9c0 .2-.2.4-.4.4h-2.8c-.2 0-.4-.2-.4-.4v-2.9c0-.2.2-.4.4-.4z" style="stroke:#171200;stroke-miterlimit:11.3386;stroke-linecap:round;stroke-width:1.5px;fill-rule:evenodd;fill:#766866"/><path id="rect17" d="M62.82 5.86h19.1c.2 0 .4.2.4.4v3.1c0 .2-.2.4-.4.4h-19.1c-.2 0-.4-.2-.4-.4v-3.1c0-.2.2-.4.4-.4z" style="stroke:#171200;stroke-miterlimit:11.3386;stroke-linecap:round;stroke-width:1.5px;fill:#4f4644"/></g><path id="rect5" d="M56.22 3.56h3v8.5h-3z" style="fill:#171717"/><path id="rect8" d="M79.02 6.46h1.5v3.3h-1.5z" class="cls-12"/><path id="rect9" d="M76.12 6.46h1.5v3.3h-1.5z" class="cls-12"/><path id="rect10" d="M73.12 6.46h1.5v3.3h-1.5z" class="cls-12"/><path id="rect11" d="M70.22 6.46h1.5v3.3h-1.5z" class="cls-12"/><path id="rect12" d="M67.32 6.46h1.5v3.3h-1.5z" class="cls-12"/><path id="rect13" d="M64.42 6.46h1.5v3.3h-1.5z" class="cls-12"/><path id="rect17-2" d="M62.32 5.86h19.6c.2 0 .4.2.4.4v3c0 .2-.2.4-.4.4h-19.6c-.2 0-.4-.2-.4-.4v-3c0-.3.2-.4.4-.4z" data-name="rect17" style="stroke:#171200;stroke-miterlimit:11.3386;stroke-linecap:round;stroke-width:1.5px;fill:none"/><path id="path13" d="M119.42 8.86h-3c-.6 0-1.1-.5-1.1-1.1s.5-1.1 1.1-1.1h3c.6 0 1.1.5 1.1 1.1s-.5 1.1-1.1 1.1" style="fill:#171414"/></g></svg>