<svg xmlns="http://www.w3.org/2000/svg" width="110" height="110" fill="none" viewBox="0 0 110 110"><g clip-path="url(#a)"><path fill="#504F57" fill-rule="evenodd" d="M37.274 62.17q.419-.405.874-.835l6.4-3.695c-.83.92-1.126 1.983-.871 2.424l.123.214c.4.694.271 1.764-.205 2.11-.569.414-1.417.939-2.055 1.187-1.133.44-2.098.002-2.36-.452l-.231-.4c-.2-.347-1.113-.677-1.675-.554m6.01-1.737c.386.667.13 1.704-1.006 2.325l-.128.07c-.446.245-.865.476-1.26.482-.635.01-1.084-.122-1.334-.582-.264-.488-.212-.954.013-1.396.226-.441.625-.859 1.306-1.251.6-.347 1.065-.425 1.428-.362.474.082.766.34.982.714" clip-rule="evenodd"/><path fill="#45444B" d="M41.836 59.206c.504.09.787.253 1.244.812l.32-.185c-.05-.52.042-.792.423-1.24l-.531-.227z"/><path fill="#3F3E44" stroke="#313036" stroke-width="0.501382" d="M39.427 61.701q.05-.187.144-.369c.197-.386.527-.754 1.062-1.102-.566.715-.587 1.277-.418 1.726.133.35.244.607.689.884.166.104.004.377-.133.325-.472-.179-.751-.32-.973-.576-.192-.222-.287-.5-.37-.888Z"/><path stroke="#313036" stroke-width="0.501382" d="M43.285 60.433c.385.667.13 1.704-1.006 2.325l-.128.07c-.446.245-.865.476-1.261.482-.635.01-1.083-.122-1.333-.582-.264-.488-.212-.954.013-1.395.226-.442.625-.86 1.306-1.252.599-.347 1.065-.425 1.428-.362.474.082.766.34.981.714Z"/><path stroke="#313036" stroke-width="1.00276" d="M37.274 62.17q.419-.405.874-.835l6.4-3.695c-.83.92-1.126 1.983-.871 2.424l.123.214c.4.694.271 1.764-.205 2.11-.569.414-1.417.939-2.055 1.187-1.133.44-2.098.002-2.36-.452l-.231-.4c-.2-.347-1.113-.677-1.675-.554Z"/><rect width="0.616318" height="3.08153" x="17.1426" y="85.8457" fill="#4E4D55" stroke="#313036" stroke-width="0.501382" rx="0.308159" transform="rotate(-30 17.143 85.846)"/><path fill="#714225" stroke="#4E2E18" stroke-width="1.00276" d="M24.064 66.833c-1.107.61-22.79 16.858-22.79 16.858-.185.145-.198.405-.135.505l7.395 11.885c.077.133.395.128.497-.002l17.786-20.41c.22-.234.953-.692 1.388-.801l4.932-1.318c-.642-2.653-.555-4.687.315-6.693.741-1.709 2.397-3.34 4.696-5.522l-4.72-5.032c-1.59 1.743-2.358 2.82-3.3 4.823-1.006 2.135-1.765 3.723-2.993 4.432-.694.4-1.748.547-3.07 1.275Z"/><path fill="#62606B" d="m105.673 16.015-10.622 6.133-.955-1.655 10.621-6.132z"/><path fill="#65636E" d="m107.182 18.631-1.51-2.615-10.621 6.132 3.266 5.658 1.495-.863-.509-.88c.198-.15.302-.484.21-.869l-1-3.088c-.054-.217.188-.784.535-.985l1.094-.631s.214-.123.39.06c.265.273.426.18.666.042.24-.139.4-.231.295-.598-.07-.244.144-.367.144-.367l1.948-1.125c.187-.108.747-.11 1.395.013.648.124 1.348.61 1.348.61z"/><path fill="#4F4E56" stroke="#313036" stroke-width="1.00276" d="m104.842 14.574 1.281-.74 1.233 2.136-1.281.74z"/><path fill="#5C5A63" d="m106.412 17.298.955 1.654 1.068-.616a.246.246 0 0 0 .09-.337l-.709-1.227a.246.246 0 0 0-.336-.09z"/><path fill="#313036" d="m106.412 17.298-.251-.434-.434.25.251.434zm.955 1.654-.434.251.251.434.434-.25zm.435-.25-.956-1.655-.868.502.955 1.654zm.289-.452a.255.255 0 0 1 .093-.348l.502.868a.75.75 0 0 0 .273-1.021zm-.709-1.227.709 1.227.868-.501-.708-1.228zm.348.093a.255.255 0 0 1-.348-.093l.869-.502a.75.75 0 0 0-1.022-.274zm-1.067.616 1.067-.616-.501-.869-1.068.617zm1.521.17-1.067.616.501.869 1.068-.617z"/><path fill="#5C5A63" stroke="#313135" stroke-width="1.00276" d="m51.549 45.413 42.7-24.653 1.325 2.295-16.146 9.322-26.03 16.238z"/><path fill="#6A6873" stroke="#313036" stroke-width="1.00276" d="m38.146 61.336-4.72-5.032c1.205-1.301 2.877-2.658 3.224-2.858l14.438-8.336a.247.247 0 0 1 .337.09l3.544 6.138a.246.246 0 0 1-.09.337l-1.602.925-.139-.24a.493.493 0 0 0-.673-.181l-6.458 3.729a.493.493 0 0 0-.18.673l.138.24z"/><ellipse cx="36.3285" cy="56.5841" fill="#787683" stroke="#313036" stroke-width="0.501382" rx="0.400607" ry="0.400599" transform="rotate(-30 36.328 56.584)"/><ellipse cx="37.7386" cy="58.9025" fill="#787683" stroke="#313036" stroke-width="0.501382" rx="0.400607" ry="0.400599" transform="rotate(-30 37.739 58.903)"/><ellipse cx="46.1215" cy="54.5617" fill="#787683" stroke="#313036" stroke-width="0.501382" rx="0.400607" ry="0.400599" transform="rotate(-30 46.121 54.562)"/><path fill="#4C4B53" stroke="#313135" stroke-width="1.00276" d="m53.522 48.83 29.142-16.826 1.325 2.295-29.142 16.825z"/><path fill="#714225" d="m64.982 40.575 15.906-9.183 2.62 4.537-15.906 9.183z"/><path fill="#613920" d="m65.623 40.205-.16.093 2.62 4.537.16-.093zm3.607 3.967-.16.093-2.62-4.537.16-.093zm.987-.57-.16.092-2.62-4.536.16-.093zm.988-.57-.16.092-2.62-4.536.16-.093zm.987-.57-.16.092-2.62-4.537.16-.092zm.988-.57-.16.092-2.62-4.537.16-.092zm.987-.57-.16.092-2.62-4.537.16-.092zm.987-.57-.16.092-2.62-4.537.161-.092zm.988-.571-.16.093-2.62-4.537.16-.092zm.988-.57-.16.093-2.62-4.537.16-.092zm.987-.57-.16.093-2.62-4.537.16-.093zm.987-.57-.16.093-2.62-4.537.16-.093zm.988-.57-.16.092-2.62-4.536.16-.093zm.987-.571-.16.093-2.62-4.536.16-.093zm.987-.57-.16.093-2.62-4.537.161-.092zm.988-.57-.16.093-2.62-4.537.16-.092z"/><path fill="#56555D" d="m82.447 31.63 3.523-2.033 1.726 2.989-3.523 2.034z"/><path fill="#5C5A64" d="m84.531 30.428.534-.308 1.726 2.988-.534.309zm.694-.401.533-.308 1.726 2.99-.534.307z"/><path fill="#515058" stroke="#313135" stroke-width="0.501382" d="m85.541 28.848 1.602 2.775.854-.493-.8-1.388s-.186-.32-.005-.993c.18-.674.79-1.097.79-1.097l-.093-.16z"/><path fill="#6D6B76" d="m97.809 26.925 1.494-.863.508.88-1.494.863z"/><path fill="#5E5C66" d="m97.485 26.364-1.602-2.775 2.625-1.516.006.033 1 3.087zm9.019-8.907.678 1.174-.854.494s-.699-.486-1.348-.61a6 6 0 0 0-.238-.04z"/><ellipse cx="96.4756" cy="22.144" fill="#6D6B76" rx="0.585502" ry="0.585491" transform="rotate(-30 96.476 22.144)"/><ellipse cx="100.716" cy="19.6957" fill="#6D6B76" rx="0.585502" ry="0.585491" transform="rotate(-30 100.716 19.696)"/><ellipse cx="104.933" cy="17.2612" fill="#6D6B76" rx="0.585502" ry="0.585491" transform="rotate(-30 104.933 17.261)"/><ellipse cx="82.9659" cy="30.7991" fill="#676571" rx="0.179497" ry="0.179494" transform="rotate(-30 82.966 30.8)"/><path fill="#4F4E56" stroke="#313036" stroke-width="1.00276" d="M9.18 95.908 1.273 83.692c-.184.145-.197.405-.135.505l7.395 11.885c.078.133.395.128.497-.002z"/><path fill="#4F4E56" stroke="#313036" stroke-width="1.00276" d="M9.18 95.908 1.273 83.692c-.184.145-.197.405-.135.505l7.395 11.885c.078.133.395.128.497-.002z"/><path stroke="#313036" stroke-width="1.00276" d="m94.096 20.493 4.221 7.312 1.495-.863-.509-.88c.198-.15.302-.484.21-.869l-1-3.088c-.054-.217.188-.784.535-.984l1.095-.632s.213-.123.39.06c.265.274.425.181.665.042s.4-.23.295-.597c-.07-.244.144-.368.144-.368l1.948-1.125c.187-.107.747-.11 1.395.013.649.124 1.349.61 1.349.61l.853-.493-2.465-4.27z"/><rect width="0.616318" height="4.34496" x="97.3809" y="25.3223" fill="#4E4D55" stroke="#313036" stroke-width="0.501382" rx="0.308159" transform="rotate(-30 97.38 25.322)"/><path stroke="#313036" stroke-width="0.501382" d="m107.182 18.631-1.51-2.615-10.621 6.132 3.266 5.658 1.495-.863-.509-.88c.198-.15.302-.484.21-.869l-1-3.088c-.054-.217.188-.784.535-.985l1.094-.631s.214-.123.39.06c.265.273.426.18.666.042.24-.139.4-.231.295-.598-.07-.244.144-.367.144-.367l1.948-1.125c.187-.108.747-.11 1.395.013.648.124 1.348.61 1.348.61zM82.447 31.63l3.523-2.033 1.726 2.989-3.523 2.034z"/><path fill="#5E5D66" stroke="#313135" stroke-width="0.501382" d="m81.879 30.394 1.28-.74 2.404 4.163-1.28.74z"/><path fill="#65636E" stroke="#313036" stroke-width="0.501382" d="M80.889 31.393c.747-.432 1.055.102 1.363.636l1.387 2.401c.277.48.616 1.068-.131 1.5zm-16.023 10.46c-.324-.56-.524-.908.116-1.278l2.62 4.537c-.64.37-.81.076-1.01-.27z"/><path stroke="#4D2D19" stroke-width="0.501382" d="m64.982 40.575 15.906-9.183 2.62 4.537-15.906 9.183z"/><path fill="#65636E" stroke="#313036" stroke-miterlimit="3.99393" stroke-width="0.501382" d="m96.3 19.008.555.96c.184.32.22.691-.473 1.092L67.666 37.639l-.866 1.212-2.669 1.54-1.217-2.108z"/></g><defs><clipPath id="a"><path fill="#fff" d="M0 0h110v110H0z"/></clipPath></defs></svg>