<svg xmlns="http://www.w3.org/2000/svg" width="110" height="110" fill="none" viewBox="0 0 110 110"><g clip-path="url(#a)"><path fill="#484543" stroke="#353231" stroke-width="0.837917" d="m42.767 53.807.236.41-1.747 1.008c.398-.323.577-.529.805-.938z"/><path fill="#4E4A48" d="m32.505 69.377-.015.017.112.11c.717.022 1.236.669 1.12 1.1.676.49 1.218.534 1.91.28.515-.189 1.126-.583 1.567-.941 2.783-2.258 5.88-4.886 7.085-5.971l-1.415-2.266c-1 .617-2.07 1.3-3.121 1.997l-.078.051a.126.126 0 0 0-.17-.026l-1.804 1.22c-.057.039-.069.123-.03.18q-.505.358-.99.713c.371-.194 1.346-.173 1.916.714.46.716.095 1.608-.309 1.925a42 42 0 0 1-2.556 1.876c-.287.197-1.303.243-1.852-.496-.323-.436-.445-.886-.214-1.623-.465.415-.858.799-1.156 1.14"/><path fill="#575351" stroke="#353231" stroke-width="0.418958" d="M41.611 66.283c-.66.56-1.383 1.165-2.124 1.781l-.455-.743 2.082-1.311c.082-.047.234-.099.387.104z"/><path fill="#544F4D" stroke="#353231" stroke-width="0.418958" d="m37.788 64.886 1.651-1.117 1.488 2.357-1.687 1.062z"/><path fill="#474442" stroke="#353231" stroke-width="0.418958" d="M44.28 63.973q.147-.13.255-.231c2.301-2.136 3.349-3.405 4.702-5.788l-2.817 1.678c-.88.469-2.148 1.208-3.554 2.075z"/><path fill="#393635" stroke="#353231" stroke-width="0.418958" d="M34.476 67.541q.376-.31.787-.631l-.353 1.152c-.155.49.01 1.06.702 1.342.332.135.158.527-.1.458-.499-.134-.76-.358-.93-.665-.203-.368-.225-.883-.106-1.656Z"/><path stroke="#363230" stroke-width="0.418958" d="m44.283 63.972.254-.231c2.3-2.136 3.349-3.405 4.702-5.788l-2.817 1.678c-.88.468-2.148 1.207-3.554 2.075-1 .617-2.07 1.3-3.121 1.997l-.077.052a.126.126 0 0 0-.17-.027l-1.805 1.22a.13.13 0 0 0-.03.18q-.505.359-.99.713c.372-.194 1.346-.173 1.916.714.46.717.095 1.608-.309 1.925a42 42 0 0 1-2.556 1.876c-.287.197-1.303.243-1.852-.496-.323-.435-.445-.886-.214-1.623-.465.415-.858.8-1.156 1.14l-.015.017.112.11c.717.022 1.236.67 1.12 1.1.676.49 1.219.534 1.91.28.515-.188 1.126-.583 1.567-.94 2.783-2.26 5.88-4.887 7.085-5.972Z"/><path fill="#4A4745" stroke="#353331" stroke-width="0.418958" d="m98.982 24.415 8.186-4.822.28.476-8.186 4.821z"/><path fill="#54504E" stroke="#353231" stroke-width="0.837917" d="M100.985 23.362q.171-.373.02-.703l-.372-.731 1.655-.956.315.546s.123.214-.032.637c-.136.37-.311.47-.529.597z"/><path fill="#713D25" fill-rule="evenodd" d="m92.824 26.145 1.167 2.02L65.837 45.22l-1.308-2.265zm-7.51 5.652a.379.379 0 1 0 .395.647l1.461-.894a.379.379 0 0 0-.395-.646z" clip-rule="evenodd"/><rect width="1.20283" height="0.840518" fill="#514D4B" stroke="#353331" stroke-width="0.418958" rx="0.314219" transform="scale(-1 1)rotate(30.5 -88.684 -188.768)"/><path fill="#3E3B3A" stroke="#353231" stroke-width="0.837917" d="m99.877 20.835 8.79-5.075.662 1.146-8.79 5.076z"/><path fill="#4E4A48" d="m56.759 45.074-4.214 2.215c-.428.18-.605.126-.88-.075l-.327.19c.307.405.894.61 1.475.348l1.834-.975 1.967-1.583z"/><path fill="#713D25" fill-rule="evenodd" d="M36.067 59.605a.694.694 0 0 0 .947.253l6.333-3.656a.693.693 0 0 0 .254-.947l-.047-.082 20.212-11.96 1.45 2.51c.11.192.066.305-.073.443-2.358 2.345-10.105 8.346-10.733 8.708l-7.99 4.759c-1.506.802-4.15 2.395-6.675 4.072l-.078.052a.126.126 0 0 0-.17-.027l-1.804 1.22a.13.13 0 0 0-.03.18c-2.214 1.567-4.188 3.137-5.161 4.25-9.014 10.3-14.045 15.787-23.574 25.366-.276.278-.691.436-.922.168-2.498-2.902-3.98-4.435-6.73-7.18-.257-.257-.374-.475-.148-.824.617-.95 1.217-1.612 2.456-2.618l15.113-11.02c.756-.581 1.467-.737 2.488-.671 1.38.089 2.068-.138 2.955-1.124l6.2-8.238c.21-.267.435-.506.68-.648zM19.27 79.396a.44.44 0 0 1 .022-.624l1.147-1.068a.442.442 0 0 1 .602.648l-1.147 1.066a.44.44 0 0 1-.624-.022" clip-rule="evenodd"/><path fill="#807A77" d="m30.693 62.843-.39-.675c-.078-.136-.083-1.153.67-1.551l4.259-2.459.835 1.447-5.046 2.986a1.8 1.8 0 0 0-.328.252"/><path fill="#726D6A" stroke="#353231" stroke-width="0.837917" d="m43.003 54.216-7.534 4.35.599 1.038a.694.694 0 0 0 .947.254l6.333-3.657a.693.693 0 0 0 .254-.947z"/><path fill="#544943" fill-rule="evenodd" d="M19.006 78.541a.806.806 0 0 0 1.098 1.18l1.225-1.14a.806.806 0 1 0-1.098-1.18zm.287.23a.442.442 0 1 0 .602.647l1.147-1.067a.442.442 0 1 0-.602-.647z" clip-rule="evenodd"/><path fill="#8E8784" d="M29.682 64.115c-.392-.515-.552-.925-.838-1.832-.087-.278.131-.404.289-.13l.299.518c.395-.032.587-.138.874-.504l.39.675a4 4 0 0 0-.354.396z"/><ellipse cx="47.2296" cy="59.7107" fill="#524E4C" rx="0.378266" ry="0.378264" transform="rotate(-30 47.23 59.71)"/><path fill="#55504F" d="m47.518 51.063-4.75 2.743.788 1.365 4.72-2.794z"/><path fill="#4E4A48" d="m53.16 48.352-1.492.316.733 1.27 1.248-.739z"/><path fill="#595553" d="m53.675 48.237-.268-.464 3.206-2.58c.86-.715 1.157-.959 2.258-1.194.03-.454.369-.686.815-.543l.521.208.347.601z"/><path fill="#524E4C" d="m52.66 46.967 1.124-.61.465.857-1.123.61z"/><rect width="1.00985" height="0.675195" x="52.8496" y="47.0342" fill="#5A5654" rx="0.209479" transform="rotate(-28.5 52.85 47.034)"/><path fill="#643621" d="M46.407 54.69a.915.915 0 0 0 .914 1.584l9.063-5.233s2.075-1.198 1.618-1.99c-.457-.791-2.532.407-2.532.407z"/><path fill="#4D2A19" d="m46.407 54.69-.105-.181-.006.004zm.914 1.584.099.185.006-.004zm9.063-5.233-.104-.181zm-.914-1.583-.105-.182zm-9.189 6.36a.705.705 0 0 1 .237-.95l-.222-.355c-.512.319-.681.99-.378 1.515zm.942.271a.705.705 0 0 1-.942-.27l-.363.21c.304.525.97.713 1.502.43zm9.057-5.23-9.064 5.233.21.363 9.063-5.232zm-9.768 4.013 9.063-5.233-.21-.363-9.063 5.233zm8.958-5.414.105.181q.003 0 .005-.003l.016-.009a5 5 0 0 1 .299-.156c.197-.098.462-.219.739-.315.28-.098.556-.164.78-.165.226-.001.347.062.407.165l.362-.21c-.168-.291-.478-.375-.77-.374-.293 0-.621.085-.917.188a7 7 0 0 0-1.123.512l-.005.003-.002.001zm2.35-.302c.06.104.054.24-.059.435-.113.194-.309.4-.533.594a6.6 6.6 0 0 1-.928.662l-.016.01-.003.002h-.001l.104.182.105.181h.002l.005-.004.019-.01a7 7 0 0 0 .302-.192 7 7 0 0 0 .684-.514c.238-.205.474-.447.622-.7.147-.253.23-.563.06-.855z"/><ellipse cx="47.4262" cy="55.4474" fill="#5C5653" rx="0.819577" ry="0.819571" transform="rotate(-30 47.426 55.447)"/><ellipse cx="47.4267" cy="55.4474" fill="#4C4744" rx="0.315222" ry="0.31522" transform="rotate(-30 47.427 55.447)"/><path fill="#4B4746" d="m53.597 48.1-.437.252.489.847 7.27-4.302-.364-.632-6.88 3.972z"/><path fill="#534F4D" d="m61.627 42.845-1.42.82.711 1.231 1.411-.835z"/><path fill="#653721" d="m92.147 24.971-28.359 16.7.741 1.284 28.295-16.81z"/><path fill="#653721" stroke="#4D2A19" stroke-width="0.418958" d="m62.964 41.819-1.446.835.812 1.408 1.438-.85z"/><path fill="#514744" stroke="#37312F" stroke-width="0.418958" d="m64.953 43.69.378.656 3.413-1.97a.378.378 0 0 0-.379-.656z"/><path fill="#544943" fill-rule="evenodd" d="M84.996 31.75a.583.583 0 0 0 .608.994l1.881-1.15a.583.583 0 0 0-.608-.995zm.316.045a.379.379 0 1 0 .396.647l1.461-.894a.379.379 0 0 0-.395-.647z" clip-rule="evenodd"/><path fill="#653721" d="m98.417 21.204-5.303 3.17.693 1.202 5.304-3.171z"/><path fill="#713D25" d="m93.807 25.577 1.072 1.856 4.532-2.616c1.333-.843 1.869-1.553 1.593-2.158l-.544-1.069-1.35.816z"/><rect width="6.24139" height="0.819571" x="92.5625" y="27.2061" fill="#514744" stroke="#37312F" stroke-width="0.418958" rx="0.409786" transform="rotate(-30 92.563 27.206)"/><path fill="#43403E" stroke="#353331" stroke-width="0.418958" d="m104.217 15.49.928-.536 1.229 2.13-.928.535z"/><path stroke="#39312D" stroke-width="0.418958" d="M84.996 31.75a.583.583 0 0 0 .608.994l1.881-1.15a.583.583 0 0 0-.608-.995zm.316.045a.379.379 0 1 0 .396.647l1.461-.894a.379.379 0 0 0-.395-.647z" clip-rule="evenodd"/><path stroke="#4D2A19" stroke-width="0.418958" d="m92.147 24.971-28.359 16.7.741 1.284 28.295-16.81zm6.27-3.767-5.303 3.17.693 1.202 5.304-3.171z"/><path stroke="#4D2A19" stroke-width="0.837917" d="m93.114 24.375 5.303-3.171.694 1.2 1.349-.814.636 1.011c.276.605-.352 1.372-1.685 2.215l-4.532 2.616-1.072-1.856zM63.788 41.672l28.359-16.7 1.844 3.193L65.837 45.22z"/><path fill="#4B4746" stroke="#353231" stroke-width="0.837917" d="m99.11 22.405-.694-1.2.9-.521c.165-.095.548-.061.643.103l.5.803z"/><path fill="#4B423F" stroke="#37312F" stroke-width="0.837917" d="m92.082 24.861.983-.567 1.954 3.385-.983.567z"/><path stroke="#353231" stroke-width="0.418958" d="M30.343 63.238c.113-.144.23-.28.353-.397q.159-.152.328-.252l5.046-2.986-.835-1.447-4.259 2.46c-.753.397-.748 1.414-.67 1.55-.286.367-.478.473-.873.505l-.3-.519c-.157-.273-.375-.147-.288.13.286.908.446 1.318.838 1.833z"/><path fill="#544943" fill-rule="evenodd" stroke="#39312D" stroke-width="0.418958" d="M19.006 78.541a.806.806 0 0 0 1.098 1.18l1.225-1.14a.806.806 0 1 0-1.098-1.18zm.287.23a.442.442 0 1 0 .602.647l1.147-1.067a.442.442 0 1 0-.602-.647z" clip-rule="evenodd"/><path fill="#55504F" d="m31 62.602-.263-.758c-.052-.153-.005-.325.17-.462l3.206-2.58 1.12-.646.835 1.447-5.046 2.986z"/><path fill="#504D4B" d="m34.386 58.645.191.836c.044.266-.03.454-.232.607l-3.378 2.421-.23-.665c-.052-.152-.006-.324.17-.462l3.206-2.579z"/><path stroke="#353231" stroke-width="0.837917" d="m31 62.602-.263-.758c-.052-.153-.005-.325.17-.462l3.206-2.58 1.12-.646.835 1.447-5.046 2.986z"/><path fill="#4E4A48" stroke="#353231" stroke-width="0.418958" d="m47.516 51.065 4.15-2.396.732 1.27-4.124 2.44z"/><path stroke="#353231" stroke-width="0.837917" d="m42.768 53.806 8.899-5.138 1.492-.316.437-.252.079.136 6.88-3.971.364.631-17.363 10.275z"/><path stroke="#4D2A19" stroke-width="0.837917" d="m61.516 42.655 1.447-.835 2.254 3.903c.11.191.066.305-.073.443-2.359 2.344-10.105 8.345-10.732 8.708l-7.99 4.758c-1.507.803-4.15 2.396-6.676 4.073l-.078.051a.126.126 0 0 0-.17-.026l-1.804 1.22c-.058.039-.069.123-.03.18-2.214 1.566-4.188 3.137-5.161 4.25-9.014 10.299-14.045 15.787-23.574 25.366-.276.278-.691.436-.922.168-2.498-2.903-3.98-4.436-6.73-7.18-.257-.257-.374-.475-.147-.824.616-.95 1.216-1.612 2.455-2.619l15.114-11.019c.755-.582 1.466-.737 2.487-.672 1.38.09 2.068-.138 2.955-1.123l6.2-8.239c.21-.266.435-.506.68-.648l5.047-2.986a.693.693 0 0 0 .947.254l6.334-3.656a.694.694 0 0 0 .253-.948l-.047-.081 18.774-11.11z"/><ellipse cx="37.472" cy="58.5023" fill="#807A77" stroke="#353231" stroke-width="0.837917" rx="1.1348" ry="1.13479" transform="rotate(-30 37.472 58.502)"/><path fill="#4B423F" stroke="#37312F" stroke-width="0.837917" d="m62.963 41.82.682-.395 2.27 3.931-.683.394z"/><path fill="#544D4A" stroke="#363230" stroke-width="0.837917" d="M8.609 94.977c-.219.104-.45.112-.601-.064-2.499-2.902-3.98-4.435-6.73-7.18-.258-.257-.374-.475-.148-.824a9 9 0 0 1 1.433-1.73l-.216 1.064-.479.495c-.303.357-.254.547.067.872 2.674 2.71 4.135 4.361 6.674 7.367Z"/></g><defs><clipPath id="a"><path fill="#fff" d="M0 0h110v110H0z"/></clipPath></defs></svg>