<svg xmlns="http://www.w3.org/2000/svg" width="166.604" height="26.755674" data-name="Layer 1" viewBox="0 0 166.604 26.755675"><path d="M95.685 3.869v6.71" style="stroke-width:3px;fill:none;stroke:#524e4b"/><path d="M1.5 2.116v9.091c9.056.396 7.386 1.566 27.158.351 3.918-.52 12.436-2.013 17.278-.844 4.563 2.561 20.326 1.4 49.408 1.09l.101-9.386c-44.792-.492-43.276-.946-50.042 1.18-5.701 1.253-13.686-1.431-17-1.482C8.975.905 10.969 1.791 1.5 2.116" style="fill:#77391d;fill-opacity:1;stroke:#251209;stroke-width:3;stroke-linecap:round;stroke-linejoin:round;stroke-dasharray:none;stroke-opacity:1"/><path d="M51.641 4.537h37.016v5.437H51.64z" style="fill:#737373;fill-opacity:1;stroke:#171717;stroke-width:3.214;stroke-linecap:round;stroke-linejoin:round;stroke-dasharray:none;stroke-opacity:1"/><path d="M66.575 13.283v6.682" style="stroke-width:3px;fill-rule:evenodd;fill:#4d4946;stroke:#171717;stroke-linecap:round;stroke-opacity:1"/><ellipse cx="66.574562" cy="22.555674" rx="1.6" ry="2.7" style="stroke-miterlimit:15.12;stroke-width:3px;fill:#171717;fill-opacity:1;stroke:#171717;stroke-opacity:1"/><path d="M61.77 9.175v3.705h9.609V9.06" style="fill:#737373;fill-opacity:1;stroke:#171717;stroke-width:3;stroke-linecap:round;stroke-linejoin:round;stroke-dasharray:none;stroke-opacity:1"/><path d="M52.49 4.844h41.03v4.498H52.49z" style="fill:#737373;fill-opacity:1;stroke:none;stroke-width:3.07724;stroke-linecap:round;stroke-linejoin:round;stroke-dasharray:none;stroke-opacity:1"/><path d="M73.413 4.645c1.491 1.737 1.284 3.473 0 5.21" style="fill:#3e3939;fill-opacity:1;stroke:#171717;stroke-width:3;stroke-linecap:round;stroke-linejoin:round;stroke-dasharray:none;stroke-opacity:1"/><path d="M75.27 9.128c0-.054.093-.315.207-.58.37-.859.247-2.397-.274-3.424-.095-.188.293-.198 7.025-.198h7.126v4.301h-7.042c-3.927 0-7.042-.043-7.042-.099" style="fill:#4b4b4b;fill-opacity:1;stroke:#171717;stroke-width:.41795;stroke-linecap:round;stroke-linejoin:round;stroke-dasharray:none;stroke-opacity:1"/><path d="M128.972 4.797h36.132v4.756h-36.132z" style="fill:#2f2f2f;stroke:#0d0d0d;stroke-width:3;stroke-linecap:round;stroke-linejoin:round;stroke-dasharray:none"/><path d="M78.84 3.719h.695v6.713h-.695z" style="fill:#4b4b4b;fill-opacity:1;stroke:#171717;stroke-width:3.343;stroke-linecap:round;stroke-linejoin:round;stroke-dasharray:none;stroke-opacity:1"/><path d="M93.673 2.489h52.585c1.487 0 2.788 1.3 2.788 3v3.6c0 1.6-1.208 3-2.788 3H93.673c-1.487 0-2.788-1.3-2.788-3v-3.6c.093-1.6 1.301-3 2.788-3" style="fill-rule:evenodd;fill:#793a1d;stroke-width:.963885"/><path d="M52.305 9.379h8.125v.254h-8.125zm.143-4.699h8.125v.254h-8.125z" style="fill:#4b4b4b;fill-opacity:1;stroke:#171717;stroke-width:2.16303;stroke-linecap:round;stroke-linejoin:round;stroke-dasharray:none;stroke-opacity:1"/><path d="M90.81 3.22h54.962c2.063 0 3.751 1.504 3.751 3.342v1.253c0 1.838-1.688 3.342-3.751 3.342H90.809Z" style="stroke:#251209;fill:none;stroke-width:3;stroke-dasharray:none"/><path d="M63.364 10.324V9.316l-.882-.004-.881-.003-.202-.425c-.15-.316-.291-.455-.554-.545-.248-.084-1.521-.122-4.307-.126l-3.955-.005v-2.11l4.224-.028 4.223-.029.263-.246c.144-.135.298-.385.341-.554l.08-.308 5.107-.026c4.89-.025 4.987.03 5.108.158 1.378 1.47 1.06 2.77-.027 4.251h-2.089v2.015h-6.449z" style="fill:#767676;fill-opacity:1;stroke:#757575;stroke-width:.336839;stroke-linecap:square;stroke-linejoin:round;stroke-dasharray:none;stroke-opacity:1"/><path d="M139.255 2.482h2.12v9.386h-2.12z" style="fill:#2f2f2f;stroke:#0d0d0d;stroke-width:2.47932;stroke-linecap:round;stroke-linejoin:round;stroke-dasharray:none"/><path d="M97.791 2.925h2.189v8.588h-2.19z" style="fill:#2f2f2f;stroke:#0d0d0d;stroke-width:2.41003;stroke-linecap:square;stroke-linejoin:miter;stroke-dasharray:none"/></svg>