<svg xmlns="http://www.w3.org/2000/svg" width="110" height="110" fill="none" viewBox="0 0 110 110"><g clip-path="url(#a)"><path fill="#414148" stroke="#313135" stroke-width="0.578813" d="m50.756 55.095-.083-.144-.016-.416.726-.42.267.463z"/><circle cx="51.5575" cy="54.4189" r="0.349464" fill="#3E3E43" stroke="#313135" stroke-width="0.578813" transform="rotate(-30 51.557 54.419)"/><path fill="#3E3E43" d="m83.679 38.774-.038.021-2.965-.454L39.05 62.375l2.94 5.094 41.602-24.02 1.28-2.523.038-.022z"/><path fill="#38383D" stroke="#313135" stroke-width="0.578813" d="m44.255 62.08-.819-1.418 2.34-1.351c.24-.139.43.282.23.397-.107.062-.56.825-.458 1.002.094.163.475.25.723.207L63.707 50.85l.43.744-24.99 14.428-.43-.744z"/><path fill="#3B3B40" stroke="#313135" stroke-miterlimit="3.99393" stroke-width="0.578813" d="m8.486 88.672 25.078-14.479.58 1.003-25.08 14.478z"/><path fill="#3E3E43" stroke="#313135" stroke-linecap="round" stroke-miterlimit="3.99393" stroke-width="1.15763" d="M34.216 66.455s-5.854 7.91 5.126 10.424 2.035-8.538 2.035-8.538z"/><path fill="#424248" stroke="#313135" stroke-linecap="round" stroke-miterlimit="3.99393" stroke-width="1.15763" d="m38.967 62.004-3.911 2.258s-1.618 1.28-.822 2.779l1.68 2.91 5.513-3.685z"/><path fill="#38383D" d="m95.32 31.809 8.446-4.877 1.433 2.482-8.446 4.876z"/><path fill="#313135" d="m95.32 31.809-.29-.502-.5.29.289.501zm8.446-4.877.502-.29-.29-.5-.501.289zm1.433 2.482.29.501.501-.289-.29-.501zm-8.446 4.876-.501.29.29.501.5-.29zm8.947-5.165-1.432-2.482-1.003.579 1.433 2.481zm-10.881 2.973 1.433 2.482 1.002-.58-1.432-2.482zm8.658-5.667-8.446 4.876.579 1.003 8.446-4.876zm-6.434 8.36 8.446-4.876-.579-1.002-8.446 4.876z"/><path fill="#3B3B40" stroke="#313135" stroke-linecap="round" stroke-miterlimit="3.99393" stroke-width="1.15763" d="m96.754 34.29 1.337 2.316c.13.226.482.183.574-.06.71-1.892 2.46-4.356 4-5.669z"/><path fill="#424248" d="m79.805 40.732 1.624-.937s1.349.745 1.433 2.481l-1.624.938"/><path fill="#36363A" stroke="#313135" stroke-linecap="round" stroke-miterlimit="3.99393" stroke-width="1.15763" d="m104.191 26.688 1.578-.91 1.432 2.481-1.578.911-.322-.559-.423.245-.788-1.365.423-.244z"/><path fill="#424248" d="M82.862 42.276c.465.025.569.625.569.625l.054.385-1.365.788-.593-1.027zm-1.584-3.434s.285.373.152.952Z"/><path fill="#424248" d="M81.278 38.842s.285.373.152.952l-1.424.822-.781-1.352 1.723-.995z"/><path fill="#3E3E43" stroke="#313135" stroke-linecap="round" stroke-miterlimit="3.99393" stroke-width="1.15763" d="M6.47 88.928s2.532-1.826 3.38-.358c.848 1.469-1.99 2.466-1.99 2.466s3.457 4.397 3.64 5.193c.19.808-1.642.098-1.642.098s-7.31-8.79-7.446-9.387c0 0-.028-.798.253-1.602.149-.432.767-.442.947-.01.313.842 1.082 2.114 2.858 3.6Z"/><path fill="#525258" stroke="#313135" stroke-linecap="round" stroke-miterlimit="3.99393" stroke-width="1.15763" d="M36.328 75.797a2.19 2.19 0 1 0-2.19-3.795 2.19 2.19 0 0 0 2.19 3.795Z"/><path fill="#3E3E43" stroke="#313135" stroke-miterlimit="3.99393" stroke-width="1.15763" d="m84.908 40.904-1.23-2.13 11.747-6.783 1.216 2.105z"/><path fill="#3E3E43" stroke="#313135" stroke-linecap="round" stroke-miterlimit="3.99393" stroke-width="1.15763" d="m99.536 25.754.563 1.096c.045.078.09.156.04.22l-.75 2.39 3.846-2.22-1.529-2.739a.38.38 0 0 0-.512-.137l-1.52.878a.38.38 0 0 0-.138.512Z"/><path fill="#424248" d="m49.72 55.883.508.878 4.3-2.483-.506-.878a.29.29 0 0 0-.396-.106l-3.8 2.193a.29.29 0 0 0-.105.395"/><path fill="#47474F" d="m50.723 54.97 2.009-1.16.201.35-2.009 1.16z"/><path stroke="#313135" stroke-width="0.578813" d="m50.228 56.76-.507-.877a.29.29 0 0 1 .106-.396l3.8-2.193a.29.29 0 0 1 .395.106l.507.878z"/><path fill="#47474F" stroke="#313135" stroke-width="0.578813" d="m51.416 53.476.144-.083.391-.06.402.696-.463.267z"/><path stroke="#313135" stroke-linecap="round" stroke-miterlimit="3.99393" stroke-width="1.15763" d="m83.641 38.795.038-.021 1.23 2.13-.038.022-1.28 2.524L41.99 67.469l-2.941-5.094 10.815-6.244.364.63 4.301-2.482-.364-.631L80.676 38.34z"/><path fill="#38383E" stroke="#313135" stroke-linecap="round" stroke-miterlimit="3.99393" stroke-width="0.578813" d="M45.293 71.224c.489-.578 1.108-.845 1.108-.845 0 .197.02.43.08.653.07.26.186.48.36.634.164.147.432.281.899.29a.6.6 0 1 1-.025 1.2c-.708-.014-1.263-.23-1.673-.593-.4-.357-.61-.812-.72-1.22z"/><path fill="#3D3D42" stroke="#313135" stroke-linecap="square" stroke-miterlimit="3.99393" stroke-width="0.578813" d="m50.756 68.184 2.116-1.065c-.407.362-.727.752-.883 1.144-.152.379-.16.774.098 1.222.43.744.516 1.459.358 2.107-.153.63-.523 1.138-.906 1.523-.385.386-1.134.857-1.457 1.049-1.55.89-2.997 1.269-3.868 1.299q-.325.01-.58-.016c-.066-.674-.259-.752-.259-.752a5 5 0 0 1-.368-.67l.276.131c.028.01.1.034.174.05.147.034.386.069.716.057.657-.023 1.837-.303 3.25-1.12.075-.043.228-.13.362-.209.272-.16.614-.375.904-.666.291-.293.506-.616.59-.96.08-.325.056-.725-.232-1.222-.378-.656-.438-1.305-.291-1.902Z"/><path fill="#71553D" d="M44.744 72.372c-1.09.254-5.257 2.535-5.257 2.535l-.179.104c-.108.363-.212 1.019.15 1.646.54.935.369 1.45.369 1.45s-.47 5.036-.573 6.689 1.42 1.71 1.42 1.71l3.893.021s1.86-.71 1.356-1.822c-.51-1.126-.342-2.003-.342-2.003s.044-5.206.072-6.538c.04-1.34-.277-1.47-.277-1.47-.605-.935-.737-1.705-.632-2.322"/><path fill="#775A40" fill-rule="evenodd" d="M38.72 71.78c-.19-.329-.818-.636-1.41-.97a15 15 0 0 0-.431-.222s.366.138 1.172-.327l21.115-12.19.251-.856 7.236-4.282c.346.445 4.134 5.384-.825 8.247 0 0-1.66.933-3.366 1.069-1.699.149-6.425 3.276-6.425 3.276L46.4 70.378s-1.423.615-1.657 1.994c-1.09.255-5.436 2.639-5.436 2.639.123-1.391.038-2.148-.587-3.23" clip-rule="evenodd"/><path fill="#674E37" d="M66.63 60.644a7 7 0 0 1-.8.537s-.771.433-1.802.752a1.47 1.47 0 1 1 2.603-1.288"/><path fill="#806145" d="M36.88 70.588s.366.138 1.172-.327l21.115-12.19.251-.856 7.236-4.282-.11-.179-.832-1.442a.46.46 0 0 0-.636-.17L37.01 67.346a.9.9 0 0 0-.204.187l-.208.298c-.248.354-.608.868-.874 1.28-.449.692-.072.924-.072.924s.566.227 1.227.553"/><path stroke="#423224" stroke-linecap="round" stroke-miterlimit="3.99393" stroke-width="1.15763" d="M35.651 70.036a19 19 0 0 0 1.66.774l.269.15h0c.502.278.98.542 1.14.821.625 1.083.71 1.84.587 3.23-.108.364-.213 1.019.15 1.646.54.936.369 1.45.369 1.45s-.47 5.036-.573 6.69c-.103 1.652 1.42 1.709 1.42 1.709l3.893.022s1.86-.71 1.356-1.823c-.511-1.125-.342-2.002-.342-2.002s.044-5.206.072-6.539c.04-1.34-.277-1.469-.277-1.469-.605-.936-.737-1.706-.632-2.323.234-1.378 1.657-1.993 1.657-1.993l9.637-4.854s4.727-3.127 6.425-3.276c1.706-.136 3.366-1.068 3.366-1.068 4.96-2.863 1.171-7.802.826-8.247l-.11-.18-.833-1.442a.46.46 0 0 0-.635-.17L37.009 67.346a.9.9 0 0 0-.204.188l-.208.297h0c-.248.355-.608.868-.874 1.28-.449.692-.072.925-.072.925Z"/><path fill="#3E3E43" stroke="#313135" stroke-linecap="round" stroke-miterlimit="3.99393" stroke-width="1.15763" d="m79.9 54.97-4.367 2.521 10.698 18.53 4.366-2.521z"/><path fill="#525258" stroke="#313135" stroke-linecap="round" stroke-miterlimit="3.99393" stroke-width="1.15763" d="m63.763 46.407 4.553 7.888c.203.35 1.315 1.406 3.043.409 1.82-1.05 2.822 1.316 2.822 1.316s.39 1.812.368 2.178c-.017.114.134.13.224.078l6.055-3.495c.078-.045.07-.18-.012-.201-.332-.155-.946-.529-1.448-1.4l-2.25-3.897c-.111-.191.006-.68.528-1.726.452-.867-.151-1.732-.151-1.732L74.32 40.33a.13.13 0 0 0-.164-.044l-1.065.615a.13.13 0 0 0-.044.164l2.55 4.418c.03.052.614 1.43-.53 2.09l-5.805 3.352c-.449.26-1.107.362-1.925-1.054l-2.385-4.132a.13.13 0 0 0-.164-.044l-1.04.6c.006-.02-.016.062.014.113Z"/><path fill="#777781" d="M73.035 50.826a.3.3 0 0 0 .3.52L75.7 49.98a.3.3 0 1 0-.3-.52zm.7 1.208a.3.3 0 1 0 .3.52l2.364-1.366a.3.3 0 1 0-.3-.52zm.722 1.314a.3.3 0 0 0 .3.52l2.365-1.366a.3.3 0 0 0-.3-.52zm.692 1.195a.3.3 0 0 0 .3.52l2.365-1.365a.3.3 0 1 0-.3-.52zm.224 1.378a.3.3 0 0 0 .3.52l3.275-1.89a.3.3 0 0 0-.3-.52z"/><path fill="#525258" stroke="#313135" stroke-linecap="round" stroke-miterlimit="3.99393" stroke-width="1.15763" d="m77.087 38.576 1.04-.6a.38.38 0 0 1 .511.137l3.804 6.588a.38.38 0 0 1-.137.513l-1.04.6a.38.38 0 0 1-.512-.138l-3.804-6.587a.36.36 0 0 1 .138-.513Z"/><circle cx="64.3541" cy="50.9722" r="1.09276" fill="#4A4A4F" stroke="#313135" stroke-width="0.578813" transform="rotate(-30 64.354 50.972)"/></g><defs><clipPath id="a"><path fill="#fff" d="M0 0h110v110H0z"/></clipPath></defs></svg>