<svg xmlns="http://www.w3.org/2000/svg" id="Layer_2" width="113.71011" height="22.440001" data-name="Layer 2" version="1.1" viewBox="0 0 113.7101 22.44"><defs id="defs4"><style id="style2">.cls-2,.cls-6{stroke-miterlimit:15.12}.cls-2{fill:#3f4242;stroke-width:3px}.cls-6{stroke:#171717}.cls-2{stroke:#161717}.cls-6{fill:#5c5c5c}.cls-7{fill:#161717}.cls-6{stroke-width:1.5px}</style></defs><g id="Layer_14" data-name="Layer 14" transform="translate(-.01)"><g id="layer1"><rect id="rect6" width="2.3599999" height="7.3299999" x="65.18" y="0" class="cls-7" rx="1.1799999" ry="1.1799999"/><g id="g3892"><rect id="rect8" width="37.139999" height="14" x="34.380001" y="6.8499999" rx="2.9400001" ry="2.9400001" style="stroke-width:3px;stroke-miterlimit:15.12;fill:#7b6249;stroke:#1d1711"/><path id="path2-0" d="M104.32 13.15v1.72c0 .84-.19 1.52-.41 1.51l-15.89-.31c-.22 0-.4-.69-.4-1.53v-1.72c0-.84.19-1.52.41-1.51l15.89.31c.22 0 .4.69.4 1.53z" class="cls-2"/><path id="path6-5" d="M88.49 17.52c.16-.03.46-.18.46-.18l2.51-1.44s.55-.15.69-.38c.14-.24 0-.83 0-.83v-2.01s.09-.33.01-.46c-.09-.15-.46-.25-.46-.25l-2.79-1.56s-.25-.18-.4-.22c-.08-.02-.24 0-.24 0h-1.05s-.56-.05-.74.16c-.57.69-.04.66-.04.66l-.05 5.6s-.19.66.08.78c.28.13.65.14.65.14h1.02s.23.03.34 0z" class="cls-2"/><path id="path8-6" d="m80.77 11.32-.02 5.11c-.01 2.49-.14 4.51-.29 4.51l-10.37-.06c-.15 0-.25-2.02-.24-4.52l.02-5.11c.01-2.49.14-4.51.29-4.51l10.37.06c.15 0 .25 2.02.24 4.52z" style="stroke-width:3px;stroke-miterlimit:15.12;stroke:#171717;fill:#5c5c5c"/><path id="path10-8" d="m86.19 16.04.03-4.22c0-.12-.1-.23-.27-.31-.18-.08-.42-.13-.67-.13l-46.17-.16c-1.95 0-3.83.26-5.22.73s-2.17 1.12-2.17 1.8.77 1.33 2.15 1.81 3.25.76 5.21.77l46.17.16c.25 0 .49-.05.67-.13s.28-.2.28-.31z" class="cls-2"/><path id="path12-88" d="M34.87 16.37v.69c0 .54-.49.97-1.09.97l-28.65-.24c-.6 0-1.09-.45-1.08-.99v-.69c0-.54.49-.97 1.09-.97l28.65.24c.6 0 1.09.45 1.08.99" class="cls-7"/><path id="path14-8" d="M34.9 10.82v.69c0 .54-.49.97-1.09.97l-28.57-.24c-.6 0-1.08-.45-1.08-.99v-.69c0-.54.49-.97 1.09-.97l28.57.24c.6 0 1.08.45 1.08.99" class="cls-7"/><path id="path16-4" d="M4.77 9.48c1.05 0 1.89.48 1.88 1.06l-.06 6.45c0 .58-.86 1.05-1.9 1.05h-1.3c-1.05 0-1.89-.48-1.88-1.06l.06-6.45c0-.58.86-1.05 1.9-1.05z" class="cls-2"/><path id="path18-8" d="m41.13 17.27.05-6.83c0-.16-.1-.32-.29-.44s-.44-.18-.71-.18l-4.36-.02c-1.42 0-2.79.41-3.8 1.17-1.01.75-1.58 1.77-1.59 2.84 0 1.07.55 2.1 1.55 2.86s2.36 1.19 3.78 1.2l4.36.02c.27 0 .52-.06.71-.18.19-.11.3-.27.3-.43z" style="fill:#3f4242;stroke-width:3px;stroke-miterlimit:15.12;stroke:#171717"/><path id="path20-6" d="m43.25 10.44-.05 6.85c0 .34-.4.61-.88.6l-5.19-.02c-.49 0-.88-.28-.88-.61l.05-6.85c0-.34.4-.61.88-.6l5.19.02c.49 0 .88.28.88.61z" style="stroke-width:3px;stroke-miterlimit:15.12;stroke:#171717;fill:#333334"/><path id="path24-9" d="m86.22 9.37-.06 8.97c0 .69-.09 1.25-.19 1.25h-3c-.1-.01-.18-.57-.17-1.27l.06-8.97c0-.69.09-1.25.19-1.25h3c.1.01.18.57.17 1.27z" class="cls-6"/><path id="path32" d="M112.22 11.96v3.85c-.01.77-.34 1.38-.73 1.38l-6.58-.05c-.4 0-.71-.63-.71-1.39V11.9c.01-.77.34-1.38.73-1.38l6.58.05c.4 0 .71.63.71 1.39z" class="cls-2"/><path id="path36" d="m72.89 11.3-.03 5.11c-.02 2.49-.06 4.52-.1 4.52H69.9s-.06-2.03-.04-4.53l.03-5.11c.02-2.49.06-4.52.1-4.52h2.86s.06 2.03.04 4.53z" class="cls-6"/><path id="path38" d="m81.71 11.3-.03 5.11c-.02 2.49-.06 4.52-.1 4.52h-2.86s-.06-2.03-.04-4.53l.03-5.11c.02-2.49.06-4.52.1-4.52h2.86s.06 2.03.04 4.53z" class="cls-6"/></g><path id="rect24" d="M108.02 10.1h2.29v7.5h-2.29z" class="cls-7"/></g></g></svg>