<svg xmlns="http://www.w3.org/2000/svg" xml:space="preserve" width="144.71773" height="53.979446" viewBox="0 0 144.71773 53.979446"><g transform="translate(-347.23 -277.672)"><path d="M436.184 293.473c-.044-.508-.178-1.801-.705-2.63-.593-.932-1.633-1.375-2.643-1.367h-18.601c-.868.366-1.527.813-1.961 1.431-.436.619-.646 1.41-.614 2.462l-.044 33.332c-.178 1.647 1.34 3.298 2.937 3.325l17.488.216c2.029.101 3.766-.709 3.498-2.973z" style="fill:#506a58;fill-opacity:1;stroke:#141a16;stroke-width:2.8;stroke-linecap:butt;stroke-linejoin:round;stroke-dasharray:none;stroke-opacity:1;paint-order:markers fill stroke"/><g style="stroke-width:10.1305;stroke-linecap:butt;stroke-dasharray:none"><path d="M307.69 339.318h162.798v45.668H307.69z" style="fill:#5b5654;fill-opacity:1;stroke:#181716;stroke-width:9.03519;stroke-linecap:butt;stroke-linejoin:round;stroke-dasharray:none;stroke-opacity:1;paint-order:markers fill stroke" transform="matrix(.2949 0 0 .37385 290.743 171.232)"/><g style="stroke-width:9.03518909;stroke-linecap:butt;stroke-dasharray:none"><path d="M459.663 216.989v39.402h86.39l.38-5.31h24.603v-28.4h-24.603l-.38-5.692z" style="fill:#4d4947;fill-opacity:1;stroke:#171717;stroke-width:9.03518909;stroke-linecap:butt;stroke-linejoin:round;stroke-dasharray:none;stroke-opacity:1;paint-order:markers fill stroke" transform="matrix(.2949 0 0 .37385 294.072 218.185)"/><path d="M483.564 218.662h16.512m12.288 0h16.512m-45.312 35.544h16.512m12.288 0h16.512" style="fill:#304936;fill-opacity:1;stroke:#171717;stroke-width:9.03518909;stroke-linecap:butt;stroke-linejoin:round;stroke-dasharray:none;stroke-opacity:1;paint-order:markers fill stroke" transform="matrix(.2949 0 0 .37385 294.072 218.185)"/></g></g><path d="M382.762 304.54h45.4v3.964h-45.4z" style="fill:#423f3d;fill-opacity:1;stroke:#000;stroke-width:0;stroke-linecap:round;stroke-linejoin:round;stroke-dasharray:none"/><path d="M387.208 301.523v9.58h10.893l3.015-2.156v-4.768l-3.015-2.52z" style="fill:#433f3f;fill-opacity:1;stroke:#171717;stroke-width:1.5;stroke-linecap:butt;stroke-linejoin:round;stroke-dasharray:none;stroke-opacity:1;paint-order:markers fill stroke"/><path d="M403.274 314.682v-3.826h3.08l1.204 1.1h3.128l1.22-1.236h2.252v3.841z" style="fill:#5e5858;fill-opacity:1;stroke:#171717;stroke-width:1.5;stroke-linecap:butt;stroke-linejoin:miter;stroke-dasharray:none;stroke-opacity:1;paint-order:markers fill stroke"/><g style="stroke-width:.894857;stroke-linecap:butt" transform="matrix(.2949 0 0 .37385 294.195 218.407)"><path d="M461.612 229.391h201.84v13.465h-201.84z" style="fill:#6e6969;fill-opacity:1;stroke:#181716;stroke-width:9.03519;stroke-linecap:butt;stroke-linejoin:miter;stroke-dasharray:none;stroke-opacity:1;paint-order:markers fill stroke"/><path d="M645.882 225.843h20.188v20.561h-20.188z" style="fill:#4c4846;fill-opacity:1;stroke:#181716;stroke-width:9.03519;stroke-linecap:butt;stroke-linejoin:round;stroke-dasharray:none;stroke-opacity:1;paint-order:markers fill stroke"/><path d="M564.81 225.379h22.089v22.497h-22.09z" style="fill:#4d4947;fill-opacity:1;stroke:#181716;stroke-width:4.51759;stroke-linecap:butt;stroke-linejoin:round;stroke-dasharray:none;stroke-opacity:1;paint-order:markers fill stroke"/><path d="M460.928 223.125v25.997h9.21l5.2-8.666v-8.665l-5.2-8.666z" style="fill:#696870;fill-opacity:1;stroke:#171717;stroke-width:4.51759;stroke-linecap:butt;stroke-linejoin:round;stroke-dasharray:none;stroke-opacity:1;paint-order:markers fill stroke"/><ellipse cx="576.31555" cy="236.58794" rx="3.5703633" ry="2.8210452" style="fill:#696464;fill-opacity:1;stroke:#353231;stroke-width:0;stroke-linecap:butt;stroke-linejoin:round;stroke-dasharray:none;stroke-opacity:1;paint-order:markers fill stroke"/></g><path d="M416.363 301.703h10.112v9.089h-10.112z" style="fill:#5e5858;fill-opacity:1;stroke:#171717;stroke-width:1.3;stroke-linecap:butt;stroke-linejoin:round;stroke-dasharray:none;stroke-opacity:1;paint-order:markers fill stroke"/><g style="stroke-width:9.69374;stroke-linecap:butt;stroke-dasharray:none"><path d="M433.951 385.228h6.12v17.427h-6.12z" style="fill:#4d4947;fill-opacity:1;stroke:#181716;stroke-width:9.69374;stroke-linecap:butt;stroke-dasharray:none;stroke-opacity:1;paint-order:stroke fill markers" transform="matrix(.3032 0 0 .31589 285.813 194.802)"/><path d="M433.463 400.702h7.095a.5.5 45 0 1 .5.5v6.514a.5.5 135 0 1-.5.5h-7.095a.5.5 45 0 1-.5-.5v-6.514a.5.5 135 0 1 .5-.5z" style="fill:#4d4947;fill-opacity:1;stroke:#181716;stroke-width:9.69374;stroke-linecap:butt;stroke-dasharray:none;stroke-opacity:1;paint-order:stroke fill markers" transform="matrix(.3032 0 0 .31589 285.813 194.802)"/></g><path d="M375.964 302.564h4.062a1 1 45 0 1 1 1v6.382a1 1 135 0 1-1 1h-4.062a1 1 45 0 1-1-1v-6.382a1 1 135 0 1 1-1z" style="fill:#5e5858;fill-opacity:1;stroke:#171717;stroke-width:3;stroke-linecap:butt;stroke-linejoin:miter;stroke-dasharray:none;stroke-opacity:1;paint-order:markers fill stroke"/><rect width="19.6635" height="3.7071235" x="353.74207" y="304.59311" rx="0.10482486" style="fill:#4d4947;fill-opacity:1;stroke:#181716;stroke-width:3;stroke-linecap:round;stroke-linejoin:miter;stroke-dasharray:none;stroke-opacity:1;paint-order:stroke fill markers"/><rect width="5.3881545" height="6.0622206" x="348.73062" y="303.66586" rx="0.1112815" style="fill:#4d4947;fill-opacity:1;stroke:#181716;stroke-width:3;stroke-linecap:butt;stroke-dasharray:none;stroke-opacity:1;paint-order:stroke fill markers"/><path d="M421.69 313.27h6.876v.966h-6.875z" style="fill:#4d4947;fill-opacity:1;stroke:#171717;stroke-width:2.5;stroke-linecap:butt;stroke-dasharray:none;stroke-opacity:1;paint-order:stroke fill markers"/><path d="M453.261 298.43h-4.507c-1.85 0-1.814-.992-1.814-.992s-.144-.579.934-1.02c1.06-.455.646-1.365.646-1.365-1.275-2.522-1.544-6.892-1.544-6.892s-.341-2.687 1.203-5.554c.682-1.268.79-2.013.718-2.454-.036-.276-.34-.537-.754-.69-.233-.082-.646-.289-.97-.826-.556-.868.521-.965.521-.965h6.627s1.095.097.52.965c-.34.551-.718.744-.97.827-.448.152-.718.413-.754.69-.071.44.036 1.185.719 2.453 1.544 2.867 1.203 5.554 1.203 5.554s-.27 4.37-1.544 6.892c0 0-.413.91.646 1.365 1.06.455.934 1.02.934 1.02s.036.992-1.814.992" style="fill:#1a1a1a;stroke-width:.999997;stroke-dasharray:none"/><path d="M387.995 304.558h12.402v3.963h-12.402z" style="fill:#6f6868;fill-opacity:1;stroke:#000;stroke-width:0;stroke-linecap:round;stroke-linejoin:round;stroke-dasharray:none"/><path d="M397.317 302.415v7.933" style="fill:#6f6868;fill-opacity:1;stroke:#606060;stroke-width:1.00371;stroke-linecap:butt;stroke-linejoin:bevel;stroke-dasharray:none;stroke-opacity:1"/></g></svg>