<svg xmlns="http://www.w3.org/2000/svg" width="110" height="110" fill="none" viewBox="0 0 110 110"><g clip-path="url(#a)"><path fill="#413D3D" stroke="#353131" stroke-miterlimit="3.99393" stroke-width="0.483726" d="M45.415 64.5c2.155-.283 3.723-.611 4.618-1.667 1.176-1.386 1.291-3.733 1.052-5.923l-.876.175c.053 1.219.283 2.179.13 3.445a3.6 3.6 0 0 1-1.097 2.16c-.807.757-1.864 1.311-4.295 1.113z"/><path fill="#3D3939" stroke="#353131" stroke-miterlimit="3.99393" stroke-width="0.483726" d="m44.286 58.416.797 3.19a.14.14 0 0 0 .118.104c1.243.128 2.907.255 3.626-.16.114-.066.074-.238-.056-.253-4.008-.468-1.713-5.946-4.452-3.008a.14.14 0 0 0-.033.127Z"/><path fill="#484444" stroke="#353131" stroke-miterlimit="3.99393" stroke-width="0.967438" d="M44.101 59.054c.164.673 2.547 2.805 1.77 5.426-.753 2.526-.16 5.387.317 7.27.355 1.37 1.313.99 1.508 1.67.127.404-.172.499-1.03.9l-3.44 1.814c-1.565-3.214-1.708-7.659-3.118-9.572-.632-.866-1.195-.74-2.846-1.124-.751-.453-.919-.582-1.65-1.483z"/><path fill="#5A5454" stroke="#353131" stroke-miterlimit="3.99393" stroke-width="0.483726" d="m75.898 39.223-2.23 1.288 1.867 3.233 2.23-1.288z"/><path fill="#454141" stroke="#353131" stroke-miterlimit="3.99393" stroke-width="0.483726" d="M75.34 40.756a1.037 1.037 0 0 0-.364 1.423c.291.504.924.68 1.415.396s.656-.919.365-1.423a1.037 1.037 0 0 0-1.415-.396Zm.716 1.238a.381.381 0 0 1-.381-.66.381.381 0 0 1 .38.66Zm-3.819-1.524c-.491.285.482 2.89.773 3.394s.923.68 1.415.396c.491-.284.656-.92.365-1.423-.292-.505-2.061-2.65-2.553-2.366Zm1.853 3.209a.38.38 0 0 1-.52-.14c-.105-.181-1.081-2.213-.9-2.318.182-.105 1.454 1.756 1.559 1.938a.38.38 0 0 1-.14.52Z"/><path fill="#3D3939" stroke="#353131" stroke-miterlimit="3.99393" stroke-width="0.967438" d="m28.814 60.62-3.941 2.275.628 1.088 3.941-2.275zm1.674 2.894-3.941 2.275.69 1.195 3.94-2.276z"/><path fill="#545050" stroke="#353131" stroke-miterlimit="3.99393" stroke-width="0.967438" d="m55.866 40.746-8.938 5.16 1.3 2.252 8.938-5.16z"/><path fill="#484444" stroke="#353131" stroke-miterlimit="3.99393" stroke-width="0.967438" d="m79.473 36.92-.863-1.548a.26.26 0 0 1 .124-.368l4.132-1.792a.26.26 0 0 1 .333.113l.421.76a.263.263 0 0 1-.079.341l-3.69 2.581a.26.26 0 0 1-.379-.087z"/><path fill="#383434" stroke="#353131" stroke-miterlimit="3.99393" stroke-width="0.967438" d="m101.059 18.611.797 1.38-34.554 19.95-1.913-1.318z"/><path fill="#3F3B3B" d="m106.809 14.948-5.71 3.296c-.238.137-.293.5-.116.808l.516.894c.178.308.52.441.758.304l5.71-3.297c.238-.137.293-.5.116-.808l-.517-.894c-.171-.298-.53-.435-.757-.303m.014 1.249c.02-.011.051-.003.074.037.018.03.005.076-.015.088l-1.867 1.078c-.019.011-.057-.007-.074-.037s-.015-.071.005-.083z"/><path fill="#433F3F" stroke="#353131" stroke-miterlimit="3.99393" stroke-width="0.967451" d="m80.707 34.795-2.244 1.296 1.232 2.135 2.245-1.296z"/><path fill="#3F3B3B" stroke="#353131" stroke-miterlimit="3.99393" stroke-width="0.967438" d="m77.32 32.248-1.991 1.15a.393.393 0 0 1-.559-.185l-1.717-4.003a.394.394 0 0 1 .165-.496l1.202-.694a.393.393 0 0 1 .519.114l2.507 3.546a.393.393 0 0 1-.125.568Z"/><path fill="#4C4848" stroke="#353131" stroke-miterlimit="3.99393" stroke-width="0.967438" d="m78.11 31.396 2.694 4.667-4.061 2.344-3.428-5.937 3.375-1.95c.511-.215 1.252.747 1.42.876Z"/><path fill="#464242" stroke="#353131" stroke-miterlimit="3.99393" stroke-width="0.483726" d="M76.184 33.128a1.181 1.181 0 1 0-1.18-2.046 1.181 1.181 0 0 0 1.18 2.046Z"/><path fill="#403C3C" stroke="#353131" stroke-miterlimit="3.99393" stroke-width="0.967451" d="m107.659 24.513.702.93L82.435 39.72l-.703-1.018z"/><path fill="#484444" stroke="#353131" stroke-miterlimit="3.99393" stroke-width="0.967438" d="M82.157 35.902c.924-.533 1.097.294 1.623 1.182l.43.744c.516.894.184 2.039-.74 2.572l-.268.155c-.923.533-2.08.248-2.597-.646l-.43-.744c-.516-.894-1.133-1.504-.204-2.027z"/><path fill="#423E3E" stroke="#353131" stroke-miterlimit="3.99393" stroke-width="0.967438" d="m77.46 33.226-5.302 3.061 2.397 4.15 5.302-3.06z"/><path fill="#4A4545" stroke="#353131" stroke-miterlimit="3.99393" stroke-width="0.483726" d="m101.32 27.413 1.016 1.93a.2.2 0 0 1-.082.27l-13.56 7.34a.2.2 0 0 1-.288-.125l-.5-1.871a.2.2 0 0 1 .095-.226l13.043-7.4a.2.2 0 0 1 .276.082Z"/><path fill="#4F4B4B" stroke="#353131" stroke-miterlimit="3.99393" stroke-width="0.967438" d="m45.284 49.71-15.222 8.788-.882-1.527 12.471-7.2z"/><path fill="#4A4545" stroke="#353131" stroke-miterlimit="3.99393" stroke-width="0.967438" d="m30.728 56.078 8.92-5.15c-.091-.107-.203-.22-.367-.387a39 39 0 0 1-.407-.418c-.34-.354-.955-.615-1.205-.638-.468-.043-.752.373-1.09.868-.286.42-.61.897-1.12 1.199-2.036 1.203-3.155.476-3.155.476s-1.26-.808-2.472-.108c-1.129.651-.42 1.877-.42 1.877z"/><path fill="#4B4747" stroke="#353131" stroke-miterlimit="3.99393" stroke-width="0.967438" d="m31.576 64.1 4.303 1.673L53.394 55.66l-1.8-3.118z"/><path fill="#484444" stroke="#353131" stroke-miterlimit="3.99393" stroke-width="0.967438" d="m60.423 55.515-5.7 3.29c-.348.201-.827.023-1.07-.398l-2.693-4.665c-.243-.421-.158-.925.19-1.127l5.7-3.29c.348-.201.827-.023 1.07.398l2.693 4.665c.243.42.159.925-.19 1.127Z"/><path fill="#575151" stroke="#353131" stroke-miterlimit="3.99393" stroke-width="0.967438" d="m72.553 34.262.458 1.258-15.143 8.743-1.124-1.947 15.202-8.776z"/><path fill="#5A5555" stroke="#353131" stroke-miterlimit="3.99393" stroke-width="0.967438" d="M58.918 41.838 29.538 58.8l2.969 5.143 29.38-16.963z"/><path fill="#4F4B4B" stroke="#353131" stroke-miterlimit="3.99393" stroke-width="0.967438" d="M59.724 45.986 30.581 62.81l-.673-1.166L58.661 45.11z"/><path fill="#4C4848" stroke="#353131" stroke-miterlimit="3.99393" stroke-width="0.967438" d="M71.112 36.2c.806-.439 1.04-.653 1.668.573l1.54 2.553c.703 1.263-.122 2.334-.374 2.493l-13.484 7.785-3.142-5.44z"/><path fill="#423E3E" d="m71.663 37.36-12.571 7.257.132.229 12.57-7.258zm.433.75-12.57 7.258.131.229 12.57-7.258zm.434.75-12.571 7.258.132.228 12.57-7.257zm.433.75-12.57 7.258.132.229 12.57-7.258zm.434.753-12.57 7.257.131.229 12.57-7.258z"/><path fill="#425747" stroke="#303633" stroke-miterlimit="3.99393" stroke-width="0.967438" d="M60.202 53.438c.54-.325 2.315-.026 2.823.992l5.895 10.233c.858 1.279.657 2.308-.152 2.603l-7.13 4.116c-.526.304-.502.184-.923-.592L54.15 59.421c-1.147-1.986-.695-1.823.656-2.762z"/><path fill="#545050" stroke="#353131" stroke-miterlimit="3.99393" stroke-width="0.967438" d="m30.22 58.078-3.157 1.823 3.485 6.037 3.158-1.823z"/><path fill="#3C3838" stroke="#353131" stroke-miterlimit="3.99393" stroke-width="0.967451" d="M107.796 23.557 109 25.923a.2.2 0 0 1-.08.264l-.752.43a.2.2 0 0 1-.278-.084l-1.197-2.378a.2.2 0 0 1 .081-.265l.746-.418a.2.2 0 0 1 .276.085Z"/><path fill="#484444" stroke="#353131" stroke-miterlimit="3.99393" stroke-width="0.483726" d="m54.487 40.46-6.637 3.83a.38.38 0 0 0-.14.522l.297.513a.38.38 0 0 0 .521.14l6.637-3.832a.38.38 0 0 0 .14-.521l-.296-.514a.38.38 0 0 0-.522-.14Z"/><path fill="#506A58" stroke="#303633" stroke-miterlimit="3.99393" stroke-width="0.967438" d="M62.532 56.012c1.104-3.098 1.793-1.46 2.704.447q.119.246.26.478l3.002 4.871c4.422 7.086 2.781 6.193-5.976 11.341-1.16.695-1.318-.014-1.979-.796a5 5 0 0 1-.245-.316l-1.012-1.392a15.3 15.3 0 0 1-1.857-3.383l-.172-.438a5 5 0 0 0-.328-.68l-1.84-3.187c-2.422-4.149-1.455-3.714 1.126-2.292 1.727.95 4.769-.661 6.317-4.653Z"/><path fill="#425747" stroke="#303633" stroke-miterlimit="3.99393" stroke-width="0.483726" d="M63.624 64.2c.357-.206.933-.38 1.137.204.791 1.37 1.428 2.062.128 2.813-3.067.764-4.15 1.708-4.903-.122l-.344-.596z"/><path fill="#545050" stroke="#353131" stroke-miterlimit="3.99393" stroke-width="0.483726" d="M43.521 68.23a.533.533 0 0 0 .187-.73.533.533 0 0 0-.726-.203.533.533 0 0 0-.187.73.533.533 0 0 0 .726.203Zm.879 4.736a.613.613 0 0 0 .216-.84.613.613 0 0 0-.836-.233.613.613 0 0 0-.217.84c.171.296.546.4.836.233Z"/><path fill="#4B4747" stroke="#353131" stroke-miterlimit="3.99393" stroke-width="0.967438" d="m27.003 68.253-.596.345c-.56.323-1.1.438-1.206.256l-3.075-5.327c-.106-.183.263-.592.824-.916l.597-.344c.56-.324 1.1-.438 1.205-.256l3.076 5.327c.105.182-.264.591-.825.915Z"/><path fill="#4F4B4B" stroke="#353131" stroke-miterlimit="3.99393" stroke-width="0.967438" d="m24.064 66.887-1.819 1.05c-.234.136-.325.418-.203.63l.514.89c.123.213.412.275.647.14l1.82-1.05zm-1.437-2.489-1.82 1.05c-.234.135-.324.418-.202.63l.514.89c.122.213.412.275.647.14l1.819-1.051z"/><path fill="#5F5959" stroke="#353131" stroke-miterlimit="3.99393" stroke-width="0.483726" d="m46.925 46.259-.932.538a.323.323 0 0 0-.118.442l.826 1.432c.09.154.287.207.442.118l.932-.538a.323.323 0 0 0 .119-.442l-.827-1.432a.323.323 0 0 0-.442-.118Z"/><path fill="#504C4C" stroke="#353131" stroke-miterlimit="3.99393" stroke-width="0.483726" d="m55.913 41.663 1.021 1.768a.054.054 0 0 0 .072.02l5.676-3.277c.045-.027.03-.096-.023-.099l-3.578-.253-3.148 1.768a.053.053 0 0 0-.02.073Z"/><path fill="#3A3636" stroke="#353131" stroke-miterlimit="3.99393" stroke-width="0.967438" d="M75.257 47.035s.514 2.092 2.356 3.708c0 0 .394.24.32 1.12s1.084 1.103 2.075.667 1.285-2.276.102-2.449c-.582-.084-.55-.266-.55-.266s-.15-2.089-2.478-3.97c-2.329-1.88-1.825 1.19-1.825 1.19Z"/><path fill="#423E3E" stroke="#353131" stroke-miterlimit="3.99393" stroke-width="0.967438" d="M76.148 46.581c.765-.441 1.17-1.172.905-1.63-.265-.46-1.1-.474-1.865-.032s-1.17 1.172-.906 1.63c.266.46 1.1.474 1.866.032Z"/><path fill="#484444" stroke="#353131" stroke-miterlimit="3.99393" stroke-width="0.483726" d="m73.854 44.815.55.953a.197.197 0 0 0 .27.072l2.868-1.657a.2.2 0 0 0 .096-.138l.233-1.404a.197.197 0 0 0-.293-.203l-3.651 2.108a.197.197 0 0 0-.073.27Z"/><path fill="#474343" stroke="#353131" stroke-miterlimit="3.99393" stroke-width="0.967438" d="m22.291 68.2-.63-1.092c.133-.076.231-.26.15-.398l-.539-.934c-.078-.136-.292-.143-.42-.069L3.968 75.455a.27.27 0 0 1-.153.036l-.18-.013c-.213-.015-.464-.037-.633.061l7.566 13.104c.124-.072.197-.135.295-.328.411-.82 1.052-1.358.921-2.162-.432-2.743.266-3.874 4.822-11.668a7.3 7.3 0 0 1 1.932-2.175l4.501-2.814c.122-.075.229-.264.154-.394l-.48-.83c-.076-.133-.289-.148-.422-.072Zm-8.472 7.025c-1.908 2.477-2.904 4.306-3.695 5.151a.44.44 0 0 1-.689-.062c-.462-.71-1.312-2.112-2.011-2.963a.44.44 0 0 1 .122-.66l5.06-2.922c.338-.196 1.015-.41 1.415.098l.047.074c.176.351.176.72-.25 1.284Z"/><path fill="#3D3939" stroke="#353131" stroke-miterlimit="3.99393" stroke-width="0.967438" d="M10.638 88.757a.363.363 0 0 1-.104.476l-.81.578c-.515.416-1.05 1.095-1.715-.334l-3.229-7.06-1.06-1.744-2.337-2.993c-.392-.793-.657-1.183-.06-1.594l1.31-.721a.24.24 0 0 1 .325.09z"/><path fill="#423E3E" stroke="#353131" stroke-miterlimit="3.99393" stroke-width="0.483726" d="M83.002 39.479a.717.717 0 0 0 .254-.981.717.717 0 0 0-.976-.27.717.717 0 0 0-.255.98c.2.346.637.467.977.27Z"/><path stroke="#353131" stroke-miterlimit="3.99393" stroke-width="0.967438" d="m101.099 18.244 5.71-3.296c.227-.132.586.005.757.303l.517.894c.177.308.122.67-.116.808l-5.71 3.297c-.238.137-.58.004-.758-.304l-.516-.894c-.177-.308-.122-.67.116-.808Z"/><path stroke="#353131" stroke-miterlimit="3.99393" stroke-width="0.483726" d="M106.895 16.232c-.023-.04-.054-.048-.075-.037l-1.876 1.084c-.019.011-.022.053-.005.082s.054.049.073.037l1.868-1.078c.019-.011.032-.058.015-.088Z"/><path fill="#565353" stroke="#353131" stroke-width="0.967438" d="M50.47 51.822a1.02 1.02 0 1 0-1.021-1.768 1.02 1.02 0 0 0 1.02 1.768Z"/><path fill="#413F3F" stroke="#353131" stroke-width="0.967438" d="m51.17 44.205-3.506 2.023.623 1.08 3.505-2.024z"/></g><defs><clipPath id="a"><path fill="#fff" d="M0 0h110v110H0z"/></clipPath></defs></svg>