<svg xmlns="http://www.w3.org/2000/svg" id="Layer_2" width="122" height="15.311303" data-name="Layer 2" version="1.1" viewBox="0 0 122 15.311303"><defs id="defs1"><style id="style1">.cls-10{fill:#171715}</style></defs><g id="Layer_1-2" data-name="Layer 1" transform="translate(0 -.008)"><path id="rect1" d="M113.564 4.496h6.327v6.327h-6.327z" style="fill:#4c4c44"/><rect id="rect2" width="18.4774" height="8.1000004" x="94.8535" y="3.6097" rx="0.72759998" ry="0.72759998" style="stroke:#171715;stroke-width:3px;fill:#505048;stroke-miterlimit:3.9939"/><g id="layer1"><path id="path2" d="M1.9 3.72H29c.2 0 .4.2.4.4v7.1c0 .2-.2.4-.4.4H1.9c-.2 0-.4-.2-.4-.4v-7.1c0-.3.1-.4.4-.4z" style="stroke:#171715;stroke-width:3px;stroke-linecap:round;stroke-miterlimit:15.1181;fill-rule:evenodd;fill:#5c5c53"/><path id="path3" d="M29.7 1.62h45.7c.2 0 .4.2.4.4v11.2c0 .2-.2.4-.4.4H29.7c-.2 0-.4-.2-.4-.4V2.02c0-.2.2-.4.4-.4z" style="stroke:#171715;stroke-width:3px;stroke-linecap:round;stroke-miterlimit:15.1181;fill-rule:evenodd;fill:#63635b"/><path id="path4" d="M83.3 5.22v6.6c2-.4 4-.8 6-.7.2 0 .5-.2.5-.4v-6.2c0-.2-.2-.4-.4-.4-2.1.2-4.1-.3-6.1-.7z" style="stroke:#171715;stroke-width:3px;stroke-linecap:round;stroke-miterlimit:15.1181;fill-rule:evenodd;fill:#494944"/><path id="rect4" d="M90.2 4.02h3.5c.2 0 .4.2.4.4v6.4c0 .2-.2.4-.4.4h-3.5c-.2 0-.4-.2-.4-.4v-6.4c0-.2.2-.4.4-.4z" style="stroke:#171715;stroke-width:3px;stroke-linecap:round;stroke-miterlimit:15.1181;fill-rule:evenodd;fill:#565650"/><path id="rect5" d="M94.2 3.62h25.9c.2 0 .4.2.4.4v7.3c0 .2-.2.4-.4.4H94.2c-.2 0-.4-.2-.4-.4v-7.3c0-.2.1-.4.4-.4z" style="stroke:#171715;stroke-width:3px;stroke-linecap:round;stroke-miterlimit:15.1181;fill-rule:evenodd;fill:none"/><path id="path5" d="M73.301 5.374v4.65c0 .1-.1.1-.1.1h-2.8c-.1 0-.1-.1-.1-.1v-.9h-3.5v1.1c0 .1-.1.1-.1.1h-1.3c-.1 0-.1-.1-.1-.1v-1.1h-1.8c-.1 0-.1-.1-.1-.1v-2.65s0-.1.1-.1h1.8v-1.1s0-.1.1-.1h1.3s.1 0 .1.1v1.1h3.5v-.9s0-.1.1-.1h2.8s.1 0 .1.1z" style="stroke:#171715;stroke-linecap:round;stroke-miterlimit:15.1181;fill-rule:evenodd;stroke-width:1.5px;fill:#707065"/><path id="path15" d="M75.7 2.12v11c0 .4.3.7.7.7l8-.3c.4 0 .7-.3.7-.7V2.52c0-.4-.3-.7-.7-.7l-8-.3c-.4-.1-.7.2-.7.6z" style="stroke:#171715;stroke-width:3px;stroke-linecap:round;stroke-miterlimit:15.1181;fill-rule:evenodd;fill:#40403a"/></g><path id="rect7" d="M35.751 5.71h3v3.9h-3z" class="cls-10"/><path id="rect7-2" d="M53.551 5.71h3v3.9h-3z" class="cls-10" data-name="rect7"/><path id="rect7-3" d="M49.151 5.71h3v3.9h-3z" class="cls-10" data-name="rect7"/><path id="rect7-4" d="M44.651 5.71h3v3.9h-3z" class="cls-10" data-name="rect7"/><path id="rect7-5" d="M40.251 5.71h3v3.9h-3z" class="cls-10" data-name="rect7"/><path id="rect7-6" d="M57.951 5.71h3v3.9h-3z" class="cls-10" data-name="rect7"/><rect id="rect6" width="29.6185" height="4.3309999" x="33.782501" y="5.4942002" rx="0.54720002" ry="0.54720002" style="stroke:#171715;stroke-linecap:round;stroke-miterlimit:15.1181;fill:none;stroke-width:1.5px"/></g></svg>