<svg xmlns="http://www.w3.org/2000/svg" width="110" height="110" fill="none" viewBox="0 0 110 110"><g clip-path="url(#a)" transform="translate(-1.76 .427)scale(1.02321)"><path fill="#4a4a43" stroke="#363631" stroke-miterlimit="3.99393" stroke-width="1.09257" d="M73.734 30.47s.96 1.446 1.145 1.766c.184.32.59 1.114.59 1.114l.693 1.202s1.138 2.051 1.377 2.465c.238.413.395 1.075.395 1.075l.959-.554s.496-.312.165-.972c-.331-.661-2.082-3.737-2.082-3.737l.733-.423-1.422-2.463-.92.532s-.472-.643-.928-.392z"/><path fill="#6b6b61" d="m30.088 61.88 9.525-5.499.13-.749 6.662-3.846a3.4 3.4 0 0 1-.01-.613c.005-.115.022-.25.04-.4.038-.302.083-.66.05-1.012a6 6 0 0 1-.03-.415c0-.357.353-.56.353-.56l4.413-2.549c.964-.556 1.52.407 1.52.407l.935 1.618 4.06-2.344-.316-.546-2.688 1.552-1.94-3.361L31.98 55.579s-.612.352-.701.935c-.026.17-.166.658-.343 1.275-.428 1.493-1.073 3.745-.848 4.091"/><path fill="#57574f" fill-rule="evenodd" d="m78.546 31.922-.837.483-1.422-2.463.873-.529-.256-.529c-.138-.283-.398-1.211-.403-1.61-.004-.398.25-.545.767-.843.517-.299.779-.387 1.063-.025.14.178.365.608.643 1.14.289.553.635 1.215 1.003 1.82.723 1.187 1.54 2.558 1.54 2.558L79.284 33.2zm1.597-1.659-.765-1.31c-1.063.614-1.085.697-.943.943.024.041.052.1.085.167.164.333.436.886.773.691z" clip-rule="evenodd"/><path fill="#5e5e55" stroke="#363631" stroke-miterlimit="3.99393" stroke-width="0.546283" d="m32.48 55.31-.076-1.365 1.022-.59.601 1.04zm1.89-2.5.6 1.041.791-.456-.6-1.041zm1.728-.997.6 1.04.792-.456-.601-1.041zm1.728-.998.601 1.04.791-.456-.6-1.041zm1.729-.998.6 1.041.792-.456-.601-1.041zm1.726-.997.601 1.04.791-.456-.6-1.041zm1.731-.999.6 1.041.792-.457-.601-1.04zm1.724-.999.601 1.041.791-.457-.6-1.04z"/><path fill="#505048" stroke="#363631" stroke-miterlimit="3.99393" stroke-width="0.546283" d="m63.697 47.202.525.91.791-.457-.525-.91zm12.151-7.016.525.91 1.455-.841-.525-.91z"/><path fill="#5e5e55" stroke="#363631" stroke-miterlimit="3.99393" stroke-width="0.546283" d="m46.465 45.825.6 1.041.792-.457-.601-1.04zm1.728-.998.601 1.041.791-.457-.6-1.04z"/><path fill="#505048" stroke="#363631" stroke-miterlimit="3.99393" stroke-width="0.546283" d="m65.428 46.204.525.91.79-.457-.524-.91zm8.693-5.018.525.91.791-.458-.525-.91z"/><path fill="#5e5e55" stroke="#363631" stroke-miterlimit="3.99393" stroke-width="0.546283" d="m49.922 43.83.6 1.04 2.521-1.455-.6-1.041z"/><path fill="#43433f" stroke="#363631" stroke-miterlimit="3.99393" stroke-width="0.546283" d="M44.424 59.656c.076.251.088.294-.17.443-.259.15-.167.103.119.728.285.624.432 1.25 1.27 1.484.688.192 1.6.318 1.6.318s-.974.625-1.894.454-1.515-1.094-1.746-1.593-.598-.525-.871-.368-.58.397-.684.357a.47.47 0 0 1-.185-.169z"/><path fill="#707065" stroke="#363631" stroke-miterlimit="3.99393" stroke-width="0.546283" d="m52.429 42.286-.757-1.034.818-.242.185.27s.943-.478 1.028-.669c.084-.19.062-.444.774-.5.712-.057 1.067-.332 1.735-.771.668-.44.79-.811 1.257-.832s1.04.48 1.04.48z"/><path fill="#53534b" stroke="#363631" stroke-miterlimit="3.99393" stroke-width="1.09257" d="m52.801 43.578 1.932 3.346 7.858-4.537-2.442-4.23-7.359 4.25.51.883z"/><path fill="#66665c" stroke="#363631" stroke-miterlimit="3.99393" stroke-width="1.09257" d="M51.657 55.01c1.66 2.376 2.264 3.162 2.254 3.318s-.107.576.41.34c.515-.235 4.088-2.535 4.75-2.993.664-.458.765-.63.379-.67-.387-.04-.944-.483-1.273-.945s-.771-.945-.453-1.305c.42-.473 1.3-1.026 1.3-1.026l-.606-1.093z"/><path fill="#474743" stroke="#363631" stroke-miterlimit="3.99393" stroke-width="1.09257" d="M54.873 58.36s2.503-1.544 3.28-2.072.964-.663.964-.663 4.35 5.016 9.341 8.796c4.486 3.397 5.685 4.018 5.685 4.018l-3.14 4.687s-1.163-1.03-1.541-1.38c-.379-.348-2.027-1.913-2.7-2.34-.671-.428-5.487-4.348-8.065-6.971s-3.824-4.076-3.824-4.076z"/><path fill="#40403a" stroke="#363631" stroke-miterlimit="3.99393" stroke-width="1.09257" d="m60.148 38.157 1.748 3.028 13.571-7.835c-.782-1.44-1.502-2.507-1.734-2.88 0 0-1.501.786-3.223 1.755s-4.308 2.437-4.308 2.437z"/><path fill="#4b4b44" stroke="#363631" stroke-miterlimit="3.99393" stroke-width="1.09257" d="m33.83 66.488 7.715-4.98s1.553 2.386 1.708 2.785c.155.4-.094.531-.556.86-.462.33-.422.833-.213 1.803.21.97 1.519 6.58 1.822 7.67.304 1.091.183 1.011.635 1.665.453.653.916 1 .446 1.51s-.945.796-1.692.977c-.748.18-3.222.932-4.476 1.017s-1.436-.337-1.418-1.5-.39-7.796-.361-8.527c.03-.732-.651-1.78-1.137-2.101-.487-.32-.848-.513-1.309-.486s-.606.1-.776-.128c-.169-.228-.389-.565-.389-.565z"/><path fill="#53534c" stroke="#363631" stroke-miterlimit="3.99393" stroke-width="0.546283" d="m50.246 55.9-2.54 1.636s1.319 1.973 2.074 3.29a1 1 0 0 1 .056.125c.332.814-.575 1.324-2.265 2.583-2.516 1.768-2.722 1.782-3.967.952-.2-.2-.469-.436-.469-.436s.15.179.153.324l.014.806c1.17.973 2.038.741 2.889.25.697-.403 2.576-1.787 3.386-2.406.82-.628 1.078-1.062 1.12-1.6.02-.26-.165-.87-.165-.87l.459-.302s-.654-.036-1.017-.447-.454-1.254-.021-1.536c.433-.28.803-.638.857-.99.054-.35-.564-1.378-.564-1.378z"/><path fill="#5e5e55" stroke="#363631" stroke-miterlimit="3.99393" stroke-width="0.546283" d="m51.656 55.01-1.41.889s.375.573.517 1.08-.137.762-.377.976-.688.36-.699.786c-.01.426-.023.458.143.8.167.344.375.499.631.595.257.097.53.114.53.114s1.612-1.006 1.745-1.07c.132-.064.293.02.457-.076l.74-.421s-.052-.114-.02-.252c.034-.138-.137-.39-.214-.502s-2.043-2.92-2.043-2.92z"/><path fill="#4a4a46" stroke="#363631" stroke-miterlimit="3.99393" stroke-width="0.546283" d="m52.672 59.24.14 1.631.724-.115-.145-1.759c-.406.206-.674.221-.72.244z"/><path fill="#4d4d46" stroke="#363631" stroke-miterlimit="3.99393" stroke-width="1.09257" d="m28.21 62.984 3.418 5.614 1.747-1.824-3.278-4.879z"/><path fill="#5c5c53" stroke="#363631" stroke-miterlimit="3.99393" stroke-width="1.09257" d="M28.348 63.28 3.571 78.617l1.422 1.335L27.64 65.6l1.532 2.524L10 88.028l.556 1.882s2.853-2.303 4.633-4.377 16.28-17.175 16.28-17.175z"/><path fill="#474741" stroke="#363631" stroke-miterlimit="3.99393" stroke-width="1.09257" d="m3.571 78.617 1.531 1.523.225.215s-.27.293-.023.634c.247.34 1.832 2.475 2.859 4.346s.74 1.681 1.082 1.83l.343.147 1.175 2.956s-.445.38-.918.574-1.167-.868-1.447-1.46-1.548-3.132-2.985-5.36c-1.437-2.23-2.577-3.313-2.938-3.982-.36-.669-.201-.849.137-1.044l.89-.514z"/><path fill="#42423e" stroke="#363631" stroke-miterlimit="3.99393" stroke-width="1.09257" d="m77.72 34.116.943 1.699.78-.45-.13-.226.714-.413.31.536 2.343-1.354-.14-.244-1.023-1.74z"/><path stroke="#363631" stroke-miterlimit="3.99393" stroke-width="0.546283" d="m79.38 28.953.764 1.31-.85.491c-.405.234-.716-.612-.858-.858s-.12-.329.943-.943z"/><path fill="#64645a" d="M57.738 45.918 30.09 61.881l3.277 4.878L59.9 49.663Z"/><path fill="#515149" stroke="#363631" stroke-linecap="round" stroke-miterlimit="3.99393" stroke-width="0.546283" d="M52.888 51.452a.557.557 0 0 0 .557.964l1.501-.867a.555.555 0 0 0-.35-1.034.6.6 0 0 0-.206.07Z"/><path fill="#46463f" stroke="#363631" stroke-miterlimit="3.99393" stroke-width="1.09257" d="m76.16 34.551-18.74 10.82 2.485 4.305s.331.486 1.555.13c1.223-.355 1.21-.748 1.716-1.391s.79-1.485 1.903-2.128c1.179-.68 10.745-6.203 11.92-6.906 1.154-.691 1.09-1.453.785-1.982-.17-.294-.723-1.297-1.623-2.848z"/><path fill="#40403a" stroke="#363631" stroke-miterlimit="3.99393" stroke-width="1.09257" d="M74.016 44.44a8 8 0 0 1-.5.37l-.124.083-.122.08q-.06.04-.12.076l-.117.072-.114.067a12 12 0 0 1-.41.23l-.173.091-.261.138-.294.16a26 26 0 0 1-1.026.521 20 20 0 0 1-.638.289 12 12 0 0 1-.33.136c-.055.021-.185.086-.24.107l-.164.06c.047.085.21.28.21.28.667 1.28 2.227 4.56 2.94 6.048.158.335.255.42 1.335.08s2.799-1.26 3.156-1.502c.356-.242.228-.77-.052-1.317-.268-.524-2.608-5.388-2.867-5.888z"/><path fill="#46463f" stroke="#363631" stroke-miterlimit="3.99393" stroke-width="1.09257" d="m73.863 41.228-6.584 3.819c.36 1.28 2.22 1.83 2.254 1.81l.091-.04.165-.063a13 13 0 0 0 .654-.279 19 19 0 0 0 .884-.428 30 30 0 0 0 .456-.24l.294-.159.26-.137.173-.092a13 13 0 0 0 .41-.23q.057-.032.114-.067l.117-.072.12-.075a8 8 0 0 0 .374-.252 7 7 0 0 0 .255-.19s.079-.06.118-.092c0 0-.088-.175-.088-.186 0-.247.42-1.447.364-1.911s-.431-1.116-.431-1.116z"/><path fill="#65655c" stroke="#363630" stroke-linecap="round" stroke-miterlimit="3.99393" stroke-width="0.546283" d="M71.395 44.867a.474.474 0 1 0-.475-.82.474.474 0 0 0 .474.82z"/><path stroke="#363631" stroke-miterlimit="3.99393" stroke-width="1.09257" d="m78.546 31.922-.837.483-1.422-2.463.873-.529-.256-.529c-.138-.283-.398-1.211-.403-1.61-.004-.398.25-.545.767-.843.517-.299.779-.387 1.063-.025.14.178.365.608.643 1.14.289.553.635 1.215 1.003 1.82.723 1.187 1.54 2.558 1.54 2.558L79.284 33.2z"/><path fill="#44443d" stroke="#363631" stroke-miterlimit="3.99393" stroke-width="1.09257" d="m86.773 26.787-6.208 3.584 2.797 4.846 6.236-3.6.093-.218-2.624-4.545z"/><path fill="#505048" stroke="#363631" stroke-miterlimit="3.99393" stroke-width="1.09257" d="m100.322 19.2-13.256 7.653 2.624 4.545 13.256-7.653z"/><path fill="#4c4c44" stroke="#363631" stroke-miterlimit="3.99393" stroke-width="1.09257" d="m100.322 19.2 2.624 4.545 5.533-3.195-2.624-4.544z"/><path fill="#3b3b35" d="m46.406 51.785-6.662 3.847-.13.749 6.99-4.036a1.5 1.5 0 0 1-.198-.56"/><path stroke="#363631" stroke-miterlimit="3.99393" stroke-width="1.09257" d="M30.936 57.789c-.428 1.493-1.073 3.745-.848 4.092l3.277 4.878 26.533-17.096-2.478-4.291-2.688 1.552-1.94-3.361L31.98 55.579s-.613.352-.701.935c-.026.17-.166.658-.343 1.275z"/><path stroke="#363631" stroke-miterlimit="3.99393" stroke-width="0.546283" d="m30.088 61.88 9.525-5.499.13-.749 6.662-3.846a3.4 3.4 0 0 1-.01-.613c.005-.115.022-.25.04-.4.038-.302.083-.66.05-1.012a6 6 0 0 1-.03-.415c0-.357.353-.56.353-.56l4.413-2.549c.964-.556 1.52.407 1.52.407l.935 1.618 4.06-2.344-.316-.546-2.688 1.552-1.94-3.361L31.98 55.579s-.612.352-.701.935c-.026.17-.166.658-.343 1.275-.428 1.493-1.073 3.745-.848 4.091z"/><path fill="#79796d" fill-rule="evenodd" stroke="#363631" stroke-miterlimit="3.99393" stroke-width="0.546283" d="m53.676 48.263-7.072 4.083c-.224-.388-.231-.682-.209-1.172.016-.348.14-.886.091-1.412a6 6 0 0 1-.03-.415c0-.358.353-.561.353-.561l4.413-2.548c.964-.556 1.52.407 1.52.407z" clip-rule="evenodd"/><path fill="#42423d" stroke="#363631" stroke-linecap="round" stroke-miterlimit="3.99393" stroke-width="0.556169" d="M53.44 48.262a.796.796 0 1 0-.797-1.379.796.796 0 0 0 .796 1.38z"/><path stroke="#363631" stroke-miterlimit="3.99393" stroke-width="0.546283" d="M57.738 45.918 30.09 61.881l3.277 4.878L59.9 49.663Z"/><path fill="#4c4c44" fill-rule="evenodd" stroke="#363631" stroke-linecap="round" stroke-miterlimit="3.99393" stroke-width="0.546283" d="M48.023 52.542c-.582.197-.74.542-.88.8s-.397.312-.397.312l-3.833 1.275c-.757.255-1.085.577-1.642.943-.557.367-.686 1.079-.894 1.473s-.471.423-2.086.969a1.085 1.085 0 0 0-.598 1.343c.192.568.81.85 1.379.658.066-.022.266-.122.325-.156l12.048-7.606-.354-1.048z" clip-rule="evenodd"/></g><defs><clipPath id="a"><path fill="#fff" d="M0 0h110v110H0z"/></clipPath></defs></svg>