<svg xmlns="http://www.w3.org/2000/svg" width="141" height="21.73" data-name="Layer 2" viewBox="0 0 141 21.73"><g data-name="Layer 15"><path d="M12.6 2.58h43.42c.79 0 1.43.69 1.43 1.55s-.64 1.55-1.43 1.55H12.6c-.79 0-1.43-.69-1.43-1.55s.64-1.55 1.43-1.55m0 13.48h43.42c.79 0 1.43.69 1.43 1.55s-.64 1.55-1.43 1.55H12.6c-.79 0-1.43-.69-1.43-1.55s.64-1.55 1.43-1.55" style="fill:#181716"/><path d="M97.04 4.83h25.12c.38 0 .74.13 1.01.37s.42.56.42.89v9.63c0 .33-.15.65-.42.89s-.63.37-1.01.37H97.04c-.19 0-.37-.03-.55-.1-.17-.06-.33-.16-.46-.27-.13-.12-.24-.26-.31-.41a1.2 1.2 0 0 1-.11-.48V6.09c0-.33.15-.65.42-.89s.63-.37 1.01-.37Z" style="fill-rule:evenodd;stroke-width:3px;stroke-linecap:round;stroke:#181616;fill:#282624"/><path d="M76.96 8.18h57.88v5.45H76.96z" style="fill-rule:evenodd;stroke-width:3px;stroke-linecap:round;stroke:#181716;fill:#635d5a"/><path d="M27.43 8.21h19.51c.55 0 .99.45.99.99v3.32c0 .55-.45.99-.99.99H27.43c-.55 0-.99-.45-.99-.99V9.2c0-.55.45-.99.99-.99Z" style="fill-rule:evenodd;stroke-width:3px;stroke-linecap:round;fill:#282624;stroke:#181716"/><path d="M3.19 1.5h8.51c.94 0 1.69.76 1.69 1.69v15.34c0 .94-.76 1.69-1.69 1.69H3.19c-.94 0-1.69-.76-1.69-1.69V3.19c0-.94.76-1.69 1.69-1.69Z" style="fill-rule:evenodd;stroke-width:3px;stroke-linecap:round;stroke:#181716;fill:#302e2b"/><path d="M48.64 5.23h27.61c.39 0 .71.32.71.71v9.94c0 .39-.32.71-.71.71H48.64c-.39 0-.71-.32-.71-.71V5.93c0-.39.32-.71.71-.71Z" style="fill-rule:evenodd;stroke-width:3px;stroke-linecap:round;stroke:#181716;fill:#736c68"/><path d="M50.79 13.4h23.27m-23.27 1.16h1.43m-1.43-6.15h23.27M50.79 7.25h1.43" style="stroke-width:1.5px;stroke-linecap:round;fill:none;stroke:#44413f"/><path d="M52.44 7.76h10.47c.49 0 .88.35.88.78v4.74c0 .43-.39.78-.88.78H52.44c-.49 0-.88-.35-.88-.78V8.54c0-.43.39-.78.88-.78Z" style="fill:#6f705c;stroke:#191915;stroke-width:1.5px"/><path d="M64.52 10.45h69.85v.91H64.52z" style="fill:#702929"/><path d="m138.79 7.03-3.8.23c-.35.02-.62.31-.62.66v5.97c0 .35.27.64.62.66l3.8.23c.38.02.71-.28.71-.66V7.69a.66.66 0 0 0-.71-.66Z" style="fill:#6f705c;stroke:#191915;fill-rule:evenodd;stroke-width:3px;stroke-linecap:round"/></g></svg>