<svg xmlns="http://www.w3.org/2000/svg" width="110" height="110" fill="none" viewBox="0 0 110 110"><g clip-path="url(#a)" transform="translate(-.928 -.982)scale(1.01539)"><path fill="#57524f" fill-rule="evenodd" d="M47.727 59.757c-.37.35-.686.66-.956.938.64-.119 1.64.245 1.862.63l.261.453c.296.512 1.39 1.007 2.676.505.724-.282 1.688-.878 2.334-1.347.541-.393.69-1.605.237-2.389l-.14-.241c-.287-.5.051-1.703.994-2.745zm4.682 1.6c1.29-.705 1.582-1.88 1.147-2.633-.244-.422-.574-.714-1.112-.806-.411-.07-.94.02-1.62.413-.773.446-1.227.92-1.484 1.42s-.316 1.027-.018 1.578c.282.521.79.67 1.51.656.45-.008.925-.27 1.431-.548z" clip-rule="evenodd"/><path fill="#635d5a" stroke="#363230" stroke-miterlimit="3.99393" stroke-width="1.1388" d="m62.963 41.706 42.144-24.332 1.498 2.594-11.988 6.922-29.564 18.436z"/><path fill="#736c68" d="m47.724 59.755-5.342-5.683c1.371-1.475 2.9-2.8 3.665-3.242l16.396-9.466a.28.28 0 0 1 .382.101l4.005 6.938a.28.28 0 0 1-.103.381l-1.818 1.05-.157-.272a.56.56 0 0 0-.764-.202l-7.334 4.234a.56.56 0 0 0-.206.763l.156.271z"/><path fill="#44403e" stroke="#363230" stroke-miterlimit="3.99393" stroke-width="0.569402" d="M49.177 60.168a2 2 0 0 1 .164-.418c.224-.438.6-.854 1.207-1.25-.643.81-.669 1.447-.477 1.954.15.397.275.686.778.999.19.117.004.427-.15.368-.535-.201-.852-.36-1.103-.65-.217-.25-.325-.566-.419-1.003z"/><path fill="#534e4b" stroke="#363230" stroke-miterlimit="3.99393" stroke-width="1.1388" d="M65.195 45.567 98.291 26.46l1.498 2.594L66.693 48.16z"/><path fill="#46423f" stroke="#363330" stroke-miterlimit="3.99393" stroke-width="1.1388" d="M78.08 37.648c-.365-.634-.358-.916.136-1.446l18.063-10.429c.572-.129 1.197.114 1.545.717l1.567 2.715c.314.543.302 1.152-.152 1.696L81.176 41.33c-.498.15-.919.088-1.145-.304z"/><path fill="#5c5653" stroke="#363230" stroke-miterlimit="3.99393" stroke-width="1.1388" d="m97.403 24.64 1.454-.84.767 1.327 2.424-1.4-.488-.844 2.668-1.54.104.181s-.693.48-.899 1.243c-.206.762.003 1.124.003 1.124l.905 1.569-.969.56.627 1.086-4.001 2.31-1.95-3.379.12-.07z"/><path stroke="#363230" stroke-miterlimit="3.99393" stroke-width="0.569402" d="M53.554 58.723c.435.754.143 1.928-1.147 2.632l-.146.08c-.506.28-.982.54-1.43.55-.72.012-1.23-.136-1.511-.657-.298-.552-.239-1.079.018-1.579s.71-.973 1.484-1.42c.68-.393 1.209-.483 1.62-.412.538.091.868.383 1.112.805z" clip-rule="evenodd"/><path stroke="#363230" stroke-miterlimit="3.99393" stroke-width="1.1388" d="m47.724 59.755-5.342-5.683c1.371-1.475 2.9-2.8 3.665-3.242l16.396-9.466a.28.28 0 0 1 .382.101l4.005 6.938a.28.28 0 0 1-.103.381l-1.818 1.05-.157-.272a.56.56 0 0 0-.764-.202l-7.334 4.234a.56.56 0 0 0-.206.763l.156.271-1.612.931c-.943 1.043-1.281 2.247-.993 2.746l.14.24c.452.785.303 1.997-.238 2.39-.646.47-1.61 1.065-2.334 1.347-1.286.502-2.38.007-2.676-.506l-.261-.452c-.222-.385-1.222-.749-1.862-.63.27-.278.586-.588.956-.939z" clip-rule="evenodd"/><path fill="#5d5e55" stroke="#353630" stroke-miterlimit="3.99393" stroke-width="0.569402" d="M45.64 50.413 53.285 46l.708 1.227-7.643 4.413z"/><path fill="#702929" stroke="#4a1c1c" stroke-miterlimit="3.99393" stroke-width="0.569402" d="M52.162 44.582c.262-.152.492-.16.769-.103.146.03.318.084.499.141.172.054.365.115.577.166.908.219 2.1.238 3.984-.85l4.498-2.597q-.001-.001.029-.008a1 1 0 0 1 .096-.007c.065 0 .133.005.217.01l.114.009c.253.016.607.026.929-.16l38.598-22.285c.175-.1.253-.277.296-.393.022-.059.044-.131.06-.184q.026-.087.05-.153c.036-.095.064-.122.076-.13.001 0 .036-.027.17.008l.148-.548c-.231-.061-.448-.052-.628.065a.8.8 0 0 0-.298.405c-.025.066-.045.133-.063.19a2 2 0 0 1-.049.153c-.026.072-.045.094-.048.098L63.59 40.692c-.16.093-.358.1-.607.085l-.088-.007a4 4 0 0 0-.281-.013.8.8 0 0 0-.408.092l-4.498 2.597c-1.768 1.02-2.811.97-3.566.789a8 8 0 0 1-.544-.158 6 6 0 0 0-.549-.153c-.372-.078-.754-.073-1.17.167z"/><path fill="#6f705c" stroke="#353630" stroke-miterlimit="3.99393" stroke-width="0.569402" d="m45.763 50.34-3.174-2.8a.284.284 0 0 1 .071-.48l8.511-3.647c.133-.056.276.002.358.119l1.63 2.538z"/><path fill="#6f705c" fill-rule="evenodd" d="M103.155 18.258a.28.28 0 0 1-.028-.215l.148-.548a.28.28 0 0 1 .133-.173l2.757-1.592a.284.284 0 0 1 .388.103l2.09 3.62c.086.149.02.34-.139.405l-3.351 1.37a.283.283 0 0 1-.353-.12z" clip-rule="evenodd"/><path stroke="#353630" stroke-miterlimit="3.99393" stroke-width="1.1388" d="M103.155 18.258a.28.28 0 0 1-.028-.215l.148-.548a.28.28 0 0 1 .133-.173l2.757-1.592a.284.284 0 0 1 .388.103l2.09 3.62c.086.149.02.34-.139.405l-3.351 1.37a.283.283 0 0 1-.353-.12z" clip-rule="evenodd"/><path fill="#46423f" stroke="#363330" stroke-miterlimit="3.99393" stroke-width="1.1388" d="m47.727 59.757-5.342-5.684c-1.808 1.977-4.943 5.664-6.336 7.447-.998 1.276-3.842 3.836-4.242 5.476-.485 1.984.877 3.295 2.098 4.1.667.44 1.12-.967 2.52-1.166 1.402-.199 2.01.83 2.123 1.664.504 3.702-.455 8.041.01 9.638.129.445.359.654.728.52 2.468-.895 4.273-1.52 7.008-2.487.681-.24 1.106-.56.942-1.1-.164-.538-1.12-.143-1.19-.535-.725-4.025-1.581-10.837-1.162-13.118.342-1.86.23-2.282 2.843-4.755z"/><path fill="#3e3b38" stroke="#363230" stroke-miterlimit="3.99393" stroke-width="1.1388" d="M6.386 79.395a.85.85 0 0 1 .311-1.16l43.59-25.167a.85.85 0 0 1 .85 1.472l-33.79 19.508a2.85 2.85 0 0 0-1.346 3.124l1.597 6.718a2.85 2.85 0 0 1-1.347 3.124l-3.364 1.942a.85.85 0 0 1-.85-1.472l2.26-1.305a2.85 2.85 0 0 0 1.347-3.124l-.793-3.337a2.847 2.847 0 0 0-4.193-1.807l-3.11 1.795a.85.85 0 0 1-1.162-.31Z"/><path fill="#504b49" stroke="#363230" stroke-miterlimit="3.99393" stroke-width="0.569402" d="m44.463 59.047-1.017.587a.284.284 0 0 1-.388-.103l-1.134-1.963a.284.284 0 0 1 .105-.388l1.017-.587a.43.43 0 0 1 .188-.518l5.424-3.131a.43.43 0 0 1 .542.096l.84-.485a.284.284 0 0 1 .388.103l1.133 1.963a.284.284 0 0 1-.105.388l-.84.485a.43.43 0 0 1-.187.517l-5.424 3.132a.43.43 0 0 1-.542-.096z"/><path stroke="#363330" stroke-miterlimit="3.99393" stroke-width="0.569402" d="m47.723 59.755 7.267-4.196"/><path fill="#46423f" stroke="#363330" stroke-miterlimit="3.99393" stroke-width="1.1388" d="M1.953 75.611c2.818-2.008 4.793-3.12 7.945-4.574.46-.213 1.014-.097 1.314.311.458.622.732 1.172.968 1.935l4.309 18.133c.1.42-.046.864-.385 1.132-1.148.906-2.038 1.427-3.326 1.947a1.104 1.104 0 0 1-1.3-.383c-4.506-6.161-6.83-10.159-9.9-17.13a1.13 1.13 0 0 1 .375-1.371Z"/></g><defs><clipPath id="a"><path fill="#fff" d="M.018 0h110v110h-110z"/></clipPath></defs></svg>