<svg xmlns="http://www.w3.org/2000/svg" width="110" height="110" fill="none" viewBox="0 0 110 110"><g clip-path="url(#a)"><path fill="#3D3D43" stroke="#303036" stroke-miterlimit="3.99393" stroke-width="2.89316" d="m8.297 57.926-.399-1.837 1.14-.657-1.551-.75-.798.46z"/><path fill="#3E3E41" d="m55.1 38.565 4.803-2.877.398-4.64 40.4-23.4 6.532 11.312-40.466 23.287-4.216-1.973-4.893 2.72z"/><path fill="#39393C" stroke="#323234" stroke-linecap="square" stroke-miterlimit="3.99393" stroke-width="1.44658" d="m97.624 9.43 6.527 11.304-36.267 20.871-6.468-11.203z"/><path stroke="#323234" stroke-miterlimit="3.99393" stroke-width="2.89316" d="m55.1 38.565 4.803-2.877.398-4.64 40.4-23.4 6.532 11.312-40.466 23.287-4.216-1.973-4.893 2.72z"/><path fill="#494950" stroke="#303036" stroke-miterlimit="3.99393" stroke-width="1.44658" d="m12.223 68.984-4.293-1.31-.415-1.243-.187-.053-1.218 3.177c-2.371 1.254-3.455 3.25-3.932 4.962-.039.176.13.194.18.049 1.057-2.458 4.687-4.747 8.443-3.121"/><path fill="#4F4F55" fill-rule="evenodd" d="m38.183 59.487-8.87-15.365 17.644-10.186 3.007 1.029.465-.27 3.325 1.544 3.962 6.862-16.334 9.43.911 1.569-.775 1.463.472.858-1.778 1.076-.74.943-1.16.753zM51.42 37.244l-7.35 4.244-5.376-1.905 7.314-4.192zm-13.553 2.813 5.379 1.906-8.084 4.667c-.328.19-.903.099-1.252-.464l-1.667-2.886z" clip-rule="evenodd"/><path fill="#464649" fill-rule="evenodd" d="m29.313 44.122 3.813 6.605L54.87 38.172l-1.117-1.934-3.325-1.543-.466.269-3.006-1.028zm16.695-8.731-7.314 4.192 5.375 1.904 7.35-4.244zm-2.763 6.572-5.378-1.906-5.624 3.222 1.666 2.886c.35.563.925.654 1.252.465z" clip-rule="evenodd"/><path fill="#3C3C3E" stroke="#303036" stroke-miterlimit="3.99393" stroke-width="1.44658" d="m41.813 34.49 1.484-.856 3.108.62-5.004 2.889-.558-.966 1.458-.841z"/><path fill="#55555E" fill-rule="evenodd" d="m7.899 56.089 1.32 6.09 1.352 2.063c1.099 1.992.434 6.588-1.18 7.923l2.05 3.549 26.536-15.755.208-.475-9.042-15.661-2.145 1.243-.363-.629-17.323 10 .362.626zm25.218 1.696-15.151 8.747-6.034-10.451 2.28-1.317-1.087-1.884 12.87-7.43z" clip-rule="evenodd"/><path fill="#464653" stroke="#303036" stroke-miterlimit="3.99393" stroke-width="1.44658" d="M29.442 72.282c.693-.23.467-.248-.4-.143-.868.105-2.41-.356-3.2-1.189-.66-.694-1.153-1.995-.808-3.635l-1.752 1.011c1.645 3.302 4.281 4.58 6.16 3.956Z"/><path fill="#61616B" d="m17.967 66.536 15.149-8.747-5.979-10.355-15.149 8.747z"/><path fill="#404040" d="m27.802 48.584-10.745 6.203a1.918 1.918 0 0 0 1.918 3.322l10.745-6.203zm2.661 4.604-10.745 6.204a1.918 1.918 0 0 0 1.918 3.322L32.38 56.51zM17.812 66.267l.107-2.412-3.579-6.198-2.142-1.114.483.837-1.163.655.55.953-3.148 1.808.3 1.386.361.55 3.502-1.986 3.097 5.364 1.156-.668z"/><path fill="#3D3D43" d="M14.98 67.413a.73.73 0 1 0-.73-1.265.73.73 0 0 0 .73 1.265m-1.842-4.026a.73.73 0 1 0-.73-1.265.73.73 0 0 0 .73 1.265m22.051-5.853a.73.73 0 1 0-.73-1.264.73.73 0 0 0 .73 1.264"/><path fill="#61616B" d="M37.19 57.765 10.103 73.403l1.334 2.312 26.537-15.754.207-.476z"/><path fill="#3D3D43" d="m41.522 52.771.772 1.328-.775 1.464.472.858-1.779 1.075-.739.943-1.16.754-.128.294-2.071-3.587z"/><path fill="#3D3D43" d="M38.377 56.318a.493.493 0 1 0-.493-.855.493.493 0 0 0 .493.855m-6.23-10.288a.493.493 0 1 0-.493-.854.493.493 0 0 0 .493.854"/><path fill="#3D3D43" stroke="#303036" stroke-miterlimit="3.99393" stroke-width="1.44658" d="m42.67 51.788.876-.505.712 1.234-.875.506zm2.361-1.365.876-.506.713 1.235-.876.505zm2.363-1.363.876-.505.713 1.234-.876.506zm2.36-1.363.876-.505.712 1.234-.875.506zm2.366-1.365.875-.506.712 1.235-.875.505zm2.36-1.363.876-.506.713 1.235-.876.505zm2.362-1.363.875-.505.713 1.234-.876.506zM28.4 42.538l.876-.505.92 1.592-.876.506zm2.301-1.328.876-.505.92 1.593-.876.506zM33 39.884l.876-.506.92 1.593-.876.506zm2.299-1.327.875-.506.92 1.593-.876.505zm2.301-1.328.875-.506.92 1.593-.876.505z"/><path fill="#464653" stroke="#303036" stroke-miterlimit="3.99393" stroke-width="1.44658" d="m22.525 78.527-.519-4.55q.15.178.291.35c.289.348.542.654.68.786.51.485 1.41.796 1.976.778.733-.022 1.703-.083 2.509-.361.724-.25 1.362-.667 1.997-1.102 1.663-1.138 4.237-3.265 5.179-4.46.372-.474.564-.857.68-1.308.114-.446.1-.903-.042-1.446-.275-1.05-1.125-2.322-2.591-4.108l1.244-.739c1.429 1.764 2.262 3.14 2.574 4.332.17.649.084 1.493-.065 2.072-.148.575-.507 1.156-.92 1.682-1.617 2.053-3.355 3.216-4.875 4.233a83 83 0 0 0-.745.503c-.56.383-1.37.912-2.204 1.2-.838.29-1.633.5-2.372.633-.58.105-1.222.223-1.61.447-.325.187-.817.636-1.187 1.058Z"/><path stroke="#303036" stroke-miterlimit="3.99393" stroke-width="1.44658" d="m7.898 56.09 1.32 6.089 1.352 2.063c1.1 1.992.434 6.59-1.179 7.924l2.049 3.548L37.977 59.96l.207-.476-9.042-15.66-2.145 1.243-.544-.942-17.322 9.999.542.94zm25.218 1.695-15.15 8.748-6.035-10.451 2.28-1.317-1.087-1.884 12.87-7.43z" clip-rule="evenodd"/><path stroke="#303036" stroke-miterlimit="3.99393" stroke-width="1.44658" d="m17.967 66.536 15.149-8.747-5.979-10.355-15.149 8.747z"/><path stroke="#303036" stroke-miterlimit="3.99393" stroke-width="1.44658" d="m29.313 44.122 3.813 6.605L54.87 38.172l-1.117-1.934-3.325-1.543-.466.269-3.006-1.028zm16.695-8.731-7.314 4.192 5.375 1.904 7.35-4.244zm-2.763 6.572-5.378-1.906-5.624 3.222 1.666 2.886c.35.563.925.654 1.252.465z" clip-rule="evenodd"/><path fill="#3D3D43" d="m49.986 36.374-7.795 4.501a1.576 1.576 0 0 0-.577 2.153l.68 1.179a1.576 1.576 0 0 0 2.153.576l7.796-4.5a1.576 1.576 0 0 0 .577-2.153l-.68-1.179a1.576 1.576 0 0 0-2.154-.577"/><path fill="#35353B" d="m50.026 36.352.78 1.35 1.253-.723-.244-.422a1.58 1.58 0 0 0-1.789-.205m2.973 2.255-.244-.422-1.253.724.78 1.352A1.58 1.58 0 0 0 53 38.607m-1.754 2.253-.78-1.353-1.253.724.78 1.352zm-2.29 1.321-.78-1.352-1.253.724.78 1.352zm-2.29 1.322-.78-1.352-1.253.724.78 1.352zm-2.289 1.322-.78-1.352-1.254.724.188.324a1.58 1.58 0 0 0 1.846.304m-2.917-2.159.187.324 1.253-.723-.78-1.35a1.58 1.58 0 0 0-.66 1.75m1.697-2.349.78 1.35 1.252-.723-.78-1.35zm2.29-1.322.78 1.35 1.252-.723-.78-1.35zm2.289-1.322.78 1.35 1.253-.723-.78-1.35z"/><path fill="#37373E" d="m45.372 44.25 6.87-3.966c.19-.11.349-.254.473-.42l-1.178 2.04-4.731 2.732z"/><path fill="#53535F" d="m50.632 41.147-1.387.8a.297.297 0 1 0 .297.514l1.386-.8a.297.297 0 1 0-.296-.514m-7.816.934a.73.73 0 1 0-.73-1.264.73.73 0 0 0 .73 1.264"/><path stroke="#303036" stroke-miterlimit="3.99393" stroke-width="1.44658" d="m42.191 40.875 7.795-4.5a1.576 1.576 0 0 1 2.153.576l.68 1.179a1.58 1.58 0 0 1-.103 1.734l-1.177 2.039-4.732 2.731-1.434-.385-.926.534a1.576 1.576 0 0 1-2.152-.576l-.68-1.18a1.576 1.576 0 0 1 .576-2.152Z"/><path stroke="#303036" stroke-miterlimit="3.99393" stroke-width="2.89316" d="m7.899 56.089 1.32 6.09 1.352 2.063c1.099 1.992.434 6.588-1.18 7.923l2.05 3.549 26.536-15.755.337-.767 1.16-.754.74-.942 1.779-1.076-.473-.858.776-1.463-.912-1.569L57.72 43.1l-3.962-6.863-3.325-1.543-.466.27-3.006-1.03-17.645 10.187-.172-.298-2.145 1.243-.363-.629-17.323 10 .362.626z"/><path fill="#4B4B4E" d="M21.769 69.507a5 5 0 0 1 .18-.1l.454-.252.08.137c.026.046.015.133-.055.277-.653 1.355-.579 2.211-.491 3.22.03.353.063.726.066 1.145l.543 4.761c-2.502 1.347-2.508 1.799-1.636 4.004l3.7 11.622c.246.698-.504 1.137-1.57 1.762q-.174.1-.357.21l-6.795 3.807c-1.35.782-1.545.867-1.685.636q-.031-.054-.065-.13l-.053-.112c-4.167-8.244-3.962-13.934-3.861-16.755.018-.515.034-.935.018-1.257-.025-.723-.264-1.543-.716-2.296-1.014-1.685-3.103-3.037-6.284-2.228-.5.133-.785.2-.826.139-.053-.098.46-.494 1.643-1.407l.19-.146a246 246 0 0 1 5.144-4.38q.145-.12.28-.275.047.07.11.13l1.658 3.694z"/><path fill="#373739" d="M20.384 80.888c.014.46.213 1.024.524 1.81l3.7 11.622c.246.699-.504 1.138-1.57 1.763q-.174.1-.357.21l-6.795 3.806c-1.35.782-1.545.868-1.684.636q-.031-.055-.066-.13l-.053-.111c-4.166-8.244-3.962-13.935-3.86-16.755.018-.516.033-.935.017-1.257-.023-.668-.228-1.418-.616-2.122z"/><path fill="#3E3E41" d="m9.992 81.187 10.533.45q.076.254.187.552l-10.566-.453a5 5 0 0 0-.154-.55m.255 1.729a7 7 0 0 0-.011-.544l10.715.459.175.55zm-.036 1.172.012-.346.007-.196 11.1.475.175.55zm-.025 1.173q.001-.282.008-.543l11.515.493.175.55zm.014 1.175q-.009-.28-.013-.544l11.9.51.176.55zm.061 1.177a28 28 0 0 1-.035-.545l12.24.524.176.55zm.112 1.178q-.033-.278-.058-.545l12.53.536.176.55zm.162 1.182q-.044-.279-.081-.547l12.77.547.176.55zm.213 1.183a31 31 0 0 1-.105-.548l12.96.555.176.55zm.262 1.185a32 32 0 0 1-.127-.548l13.1.56.175.55zm.313 1.187a33 33 0 0 1-.15-.549l13.188.565.176.55zm.36 1.19q-.09-.278-.172-.55l13.129.562c-.043.187-.167.359-.351.528zm.408 1.192q-.1-.279-.194-.552l11.537.494-.395.233-.357.21-.112.063z"/><path stroke="#323234" stroke-miterlimit="29" stroke-width="2.89316" d="M21.769 69.507a5 5 0 0 1 .18-.1l.454-.252.08.137c.026.046.015.133-.055.277-.653 1.355-.579 2.211-.491 3.22.03.353.063.726.066 1.145l.543 4.761c-2.502 1.347-2.508 1.799-1.636 4.004l3.7 11.622c.246.698-.504 1.137-1.57 1.762q-.174.1-.357.21l-6.795 3.807c-1.35.782-1.545.867-1.685.636q-.031-.054-.065-.13l-.053-.112c-4.167-8.244-3.962-13.934-3.861-16.755.018-.515.034-.935.018-1.257-.025-.723-.264-1.543-.716-2.296-1.014-1.685-3.103-3.037-6.284-2.228-.5.133-.785.2-.826.139-.053-.098.46-.494 1.643-1.407l.19-.146a246 246 0 0 1 5.144-4.38q.145-.12.28-.275.047.07.11.13l1.658 3.694z"/><path fill="#434346" d="M15.361 81.88a1.099 1.099 0 1 0-1.1-1.903 1.099 1.099 0 0 0 1.1 1.903m2.769 11.925a1.099 1.099 0 1 0-1.098-1.903 1.099 1.099 0 0 0 1.099 1.903"/></g><defs><clipPath id="a"><path fill="#fff" d="M0 0h110v110H0z"/></clipPath></defs></svg>