<svg xmlns="http://www.w3.org/2000/svg" width="88" height="26" fill="none" viewBox="0 0 88 26"><path fill="#3E3E41" d="m60.067 5.98-6.625 7.625L60.66 20.2l24.343.25.47-15.375-25.345.781z"/><path fill="#323234" d="m60.035 5.867-5.75 4.75-.219 5.563 6.72 4.437-2.595-8.312z"/><path stroke="#323234" stroke-miterlimit="29" stroke-width="1.55397" d="M59.711 5.887c-2.099 4.918-1.604 9.549 0 14.063"/><path stroke="#323234" stroke-miterlimit="29" stroke-width="3" d="M83.057 5.797c1.67 4.95 1.275 9.61 0 14.153"/><path stroke="#161617" stroke-miterlimit="29" stroke-width="2.78078" d="M59.12 6.077c.129-.154.16-.203.428-.21L85.5 5.855c1.528 4.7 1.266 10.08-.177 14.839l-25.746.022c-.088-.003-.1-.037-.157-.104l-3.615-4.048-1.671-.03-.045-6.326 1.715-.019z"/><path fill="#323234" stroke="#161617" stroke-miterlimit="29" stroke-width="3.23199" d="M2.24 17.01c-.003 1.976 1.768 3.373 7.141 3.507 5.187.08 5.69.291 12.057-3.359l.236-7.867C15.22 6.328 14.83 6.182 9.436 6.205c-5.01.023-7.226 1.133-7.248 3.127z"/><path fill="#6D6D78" d="m17.342 1.37 1.06 23.379 20.947-.173.429-23.228z"/><path fill="#333" d="M38.624 20.297H24.297a2.387 2.387 0 1 0 0 4.774h14.327a2.387 2.387 0 1 0 0-4.774m.022-19.09H24.32a2.387 2.387 0 0 0 0 4.774h14.327a2.387 2.387 0 0 0 0-4.774"/><path stroke="#171717" stroke-miterlimit="29" stroke-width="2.93548" d="m18.673 2.08 20.807.01c.127-.007.133.07.137.176l-.038 21.899c-.008.101-.075.234-.18.24h-20.61c-.116.003-.134 0-.12-.111l-.016-3.374-.866-1.082-.015-12.927.836-.883-.012-3.828c.002-.093-.02-.127.077-.12Z"/><path fill="#54545E" d="m9.549 10.368 43.139-.774-.023 7.737-42.93-.713z"/><path fill="#60606C" d="M17.723 10.092v6.806l25.256.53-.614-8.037z"/><path fill="#494950" d="m43.388 9.906-.328 7.297 10.484-.078-.484-7.047z"/><path fill="#35353C" d="M51.646 11.988h-7.902a1.397 1.397 0 1 0 0 2.794h7.902a1.397 1.397 0 0 0 0-2.794"/><path stroke="#151518" stroke-miterlimit="29" stroke-width="3" d="M8.941 10.776c.055-.556 1.3-1.403 3.372-1.546l5.27.335 35.308.055c.103-.003.063.034.066.12l.015 7.43c.002.077-.003.112-.151.1l-35.127-.088-5.34.296c-2.044.113-3.413-.975-3.426-1.548z"/><path fill="#3E3E41" d="m17.1 12.094-5.164.279.004 1.97 5.374.31"/><path stroke="#161617" stroke-linejoin="round" stroke-miterlimit="29" stroke-width="1.5" d="m17.1 12.094-5.164.279.004 1.97 5.374.31"/><path fill="#E1B651" d="M16.729 9.563v7.247z"/><path stroke="#151518" stroke-linejoin="round" stroke-miterlimit="29" stroke-width="3" d="M16.729 9.563v7.247"/><path fill="#E1B651" d="M43.236 9.816v7.248z"/><path stroke="#151518" stroke-linejoin="round" stroke-miterlimit="29" stroke-width="3" d="M43.236 9.816v7.248"/><path fill="#242428" d="M46.173 12.508v1.78z"/><path stroke="#242429" stroke-linecap="round" stroke-linejoin="round" stroke-miterlimit="29" stroke-width="1.1141" d="M46.173 12.508v1.78"/><path fill="#242428" d="M48.372 12.5v1.78z"/><path stroke="#242429" stroke-linecap="round" stroke-linejoin="round" stroke-miterlimit="29" stroke-width="1.1141" d="M48.372 12.5v1.78"/><path fill="#151519" d="M53.583 12.39h-3.198c-.3 0-.542.243-.542.542v.583c0 .3.243.542.542.542h3.198a.54.54 0 0 0 .541-.542v-.583a.54.54 0 0 0-.541-.541m-34.081.031h-3.198a.54.54 0 0 0-.542.541v.583c0 .3.243.542.542.542h3.198a.54.54 0 0 0 .542-.542v-.582c0-.3-.243-.542-.542-.542"/></svg>