<svg xmlns="http://www.w3.org/2000/svg" width="110" height="110" fill="none" viewBox="0 0 110 110"><g clip-path="url(#a)"><path fill="#3C4049" d="m72.34 26.997.681-.393 3.814 6.607-.678.397z"/><path fill="#3E434C" fill-rule="evenodd" d="m73.018 26.604 16.915-9.767 3.756 6.505-16.857 9.868zm2.961-.726a.524.524 0 1 0 .525.908l.435-.251a.524.524 0 1 0-.525-.909zm2.918-1.34a.52.52 0 0 1 .261-.496l.435-.25a.524.524 0 1 1 .524.907l-.435.252a.524.524 0 0 1-.785-.413m3.44-2.331a.524.524 0 1 0 .524.908l.435-.251a.524.524 0 1 0-.524-.908zm2.918-1.34a.52.52 0 0 1 .26-.495l.436-.252a.524.524 0 0 1 .524.909l-.435.25a.524.524 0 0 1-.785-.412m3.44-2.33a.524.524 0 0 0 .524.908l.435-.252a.525.525 0 0 0-.525-.908z" clip-rule="evenodd"/><path stroke="#2E3138" stroke-width="0.763677" d="m72.34 26.997 17.597-10.16 3.755 6.505-17.535 10.266zm3.382-.623a.53.53 0 0 1 .26-.496l.436-.251a.524.524 0 1 1 .524.908l-.435.251a.524.524 0 0 1-.785-.413Zm3.44-2.331a.525.525 0 0 0 .524.908l.435-.251a.524.524 0 0 0-.524-.909zm2.918-1.34a.53.53 0 0 1 .26-.496l.435-.25a.524.524 0 1 1 .525.907l-.435.252a.524.524 0 0 1-.785-.413Zm3.44-2.331a.524.524 0 1 0 .523.908l.435-.251a.524.524 0 1 0-.524-.908zm2.917-1.34a.52.52 0 0 1 .26-.495l.436-.252a.524.524 0 1 1 .524.909l-.435.25a.524.524 0 0 1-.785-.412Z" clip-rule="evenodd"/><path fill="#292C32" stroke="#2E3138" stroke-width="0.763677" d="m57.205 53.22.34-.197.918 1.59-.34.196z"/><path fill="#2C2F35" stroke="#2E3138" stroke-width="0.763677" d="m56.904 54.074.596-.344.328.568-.596.344z"/><path fill="#25272D" d="m65.262 48.566.113-.065.82 1.419-.114.066z"/><path fill="#454A54" d="m38.992 47.765 1.901 3.292 21.272-12.282q-.12-.11-.206-.259l-.655-1.135q-.197-.34-.538-.144l-5.137 2.966a.82.82 0 1 1-.82-1.42l14.05-8.11a1.114 1.114 0 0 1 1.522.407l1.115 1.93q.084.15.121.309l3.278-1.893-1.9-3.292z"/><path fill="#17191C" d="M54.51 39.902a.82.82 0 0 1 .3-1.12l14.048-8.11a1.114 1.114 0 0 1 1.522.407l1.115 1.93a1.114 1.114 0 0 1-.408 1.522l-7.607 4.392a1.114 1.114 0 0 1-1.522-.408l-.655-1.135q-.196-.34-.537-.144l-5.137 2.966a.82.82 0 0 1-1.12-.3"/><path fill="#30343B" d="M54.511 39.9a.82.82 0 0 1 .3-1.12l14.05-8.11a1.114 1.114 0 0 1 1.521.407l1.115 1.93a1.114 1.114 0 0 1-.408 1.522l-7.606 4.392a1.114 1.114 0 0 1-1.523-.408l-.655-1.135q-.197-.34-.537-.144L55.63 40.2a.82.82 0 0 1-1.119-.3"/><path fill="#33363E" d="m61.303 37.38.656 1.136q.087.149.206.26l9.452-5.457a1.1 1.1 0 0 0-.122-.309l-.918-1.59-6.357 3.672.197.34c.452.784.07 1.851-.714 2.304s-1.69.219-2.4-.355"/><path fill="#353940" d="m71.616 33.319-9.452 5.456c.349.325.882.4 1.316.149l7.606-4.392c.434-.25.636-.75.53-1.213"/><path fill="#33363E" d="m60.173 35.686.855 1.48a.44.44 0 0 0-.262.07l-5.137 2.966a.82.82 0 1 1-.82-1.42z"/><path fill="#3C4049" d="m64.101 42.424 10.36-5.98c.227-.132.448-.23.649-.317 1.518-.622 2.284-.034 2.713.57.401.563.556 1.42.252 1.746l-.775.847c1.403-.9 1.95-1.044 2.941-1.328l-3.22-2.852-.915-1.585-13.254 7.653z"/><path fill="#373B43" d="m89.148 19.41-11.863 6.849 1.966 3.406 11.864-6.85z"/><path fill="#454A54" d="m40.95 53.975 2.72 4.712c-.009-.486.016-.748.284-1.148l4.23-2.442 5.46-.504L74.108 42.78l3.968-4.335c.304-.327.15-1.184-.251-1.747-.494-.694-1.433-1.367-3.448-.204l-10.275 5.932-1.249-1.247-20.748 11.979-.049-.085-.282.428z"/><circle cx="76.511" cy="37.5686" r="1.40924" fill="#474C57" transform="rotate(-30 76.511 37.569)"/><path fill="#373B43" stroke="#2E3138" stroke-width="0.763677" d="m61.77 54.18-1.852-3.208-2.242 1.295c1.335 2.154 2.437 2.881 4.962 3.416.432.092.5-.44.168-.626-.617-.349-.79-.452-1.036-.878Z"/><path fill="#40454E" d="m26.665 57.224 8.004-4.62 5.702 9.876-23.33 13.47c-1.034.597-1.206 2.238-.382 3.664.29.503.665.912 1.074 1.204l1.138 8.002c.04.468.048.805-.142 1.066l-1.564 2.076c-.218.277-.627.551-1.081.813l-2.072 1.197c-.511.294-.972.032-1.271-.629-3.334-7.347-5.459-10.7-10.896-17.626-.94-1.198-.885-1.533-.033-2.025l16.915-9.766.45-1.319 7.947-4.588z"/><path fill="#373B43" stroke="#2E3138" stroke-width="0.763677" d="m18.777 88.126-1.039-7.307a3.8 3.8 0 0 1-1.074-1.204c-.824-1.426-.652-3.067.382-3.664l6.585-3.802-3.705 4.334c-.67.804-1.05 1.326-1.123 2.314z"/><path fill="#3A3E46" stroke="#2E3138" stroke-width="0.763677" d="M1.26 74.136c-.234.34-.06.755.59 1.581 5.437 6.927 7.561 10.28 10.895 17.626.3.66.76.924 1.271.629l1.874-1.082-.043-.075c-2.045-3.548-3.763-6.529-5.794-9.346C7.8 80.34 5.16 77.415 1.26 74.136Z"/><path fill="#3C4049" d="M8.257 72.924a.524.524 0 0 0-.192.717l3.9 6.755c.145.25.465.336.716.192l1.136-.656c.25-.145.237-.44.191-.716l-1.251-8.133c-.034-.32-.441-.502-.64-.387z"/><rect width="2.94957" height="4.26049" x="4.16016" y="74.082" fill="#454A54" rx="1.14552" transform="rotate(-30 4.16 74.082)"/><rect width="2.03193" height="3.60503" x="4.7168" y="74.1357" fill="#3C4049" rx="0.954596" transform="rotate(-30 4.717 74.136)"/><path fill="#373B43" d="M5.065 74.477a.95.95 0 0 0 .128.486l.277.478 1.76-1.016-.277-.478a.95.95 0 0 0-.357-.354.2.2 0 0 0-.061.023l-1.42.819a.2.2 0 0 0-.05.041M5.8 76.01l.245.423a.95.95 0 0 0 .437.394l.013-.006 1.42-.82.012-.008a.95.95 0 0 0-.123-.576l-.244-.422z"/><path fill="#3C4049" d="M14.432 70.784a1.91 1.91 0 0 1 .93-1.962l18.375-10.609a1.91 1.91 0 0 1 2.839 1.345l.268 1.642a1.91 1.91 0 0 1-.93 1.962L17.54 73.772a1.91 1.91 0 0 1-2.839-1.346z"/><path fill="#454A54" d="m26.67 57.227-7.947 4.588.459.795 7.947-4.589z"/><path fill="#3C4049" d="m40.033 62.678-1.816 1.048.262.455 1.816-1.05zm-4.235-12.124-1.125 2.05 5.703 9.878 3.178-1.835.48-1.137-.067-.312-5.785-10.02z"/><path fill="#3E434C" d="m37.834 55.064 2.81-1.623 2.944 5.1-2.81 1.622z"/><path fill="#373B43" d="m37.834 55.064-1.306.753 2.945 5.1 1.305-.754z"/><path fill="#3A3E46" d="m39.139 57.327-1.306.754.328.568 1.305-.754zm.588 1.023-1.306.753.328.568 1.305-.754zm-1.178-2.042-1.306.753.328.568 1.306-.754zm-.639-1.11-1.305.754.327.568 1.306-.754zm2.457 4.258-1.305.754.327.568 1.306-.754z"/><path fill="#3E434C" d="m39.092 47.936-.64-1.107-1.22.704.64 1.107z"/><path fill="#434851" d="m39.704 51.818-1.835-3.18 1.22-.704 1.836 3.179z"/><path fill="#40454E" d="m38.992 47.765 34.002-19.631-.262-.454L38.73 47.31z"/><path fill="#3A3E46" d="M37.878 45.833c-.23-.397-.217-1.161-.104-1.227l.568-.328 1.41 2.441-1.022.59z"/><path fill="#3E434C" d="m37.879 45.834.459.795 1.021-.59-.458-.795z"/><path fill="#434851" d="M38.898 45.244 70.97 26.727l.46.795L39.356 46.04zm50.581-29.201-18.222 10.52.459.795 18.221-10.52z"/><path fill="#373B43" d="m38.898 45.244 5.11-2.95-.23-.397-5.109 2.95z"/><path fill="#3E434C" d="m38.277 44.166 5.11-2.95.392.682-5.108 2.95zm7.833-4.523.794-.46.393.682-.794.459zm1.732-1 .795-.46.393.682-.795.459zm1.73-.998.795-.46.393.682-.794.459zm1.733-1.001.794-.46.394.682-.795.459zm1.732-1 .795-.46.393.682-.795.459zm1.731-1 .794-.458.394.68-.795.46zm1.728-.998.795-.46.393.682-.795.459zm1.734-.999.795-.46.393.682-.794.459zm1.73-1.002.796-.46.393.682-.795.459zm1.731-.998.795-.46.393.682-.794.459zm1.731-1 .795-.46.393.682-.795.459zm1.734-1 .795-.458.393.68-.795.46zm1.731-.999.794-.458.394.68-.795.46zm8.823-5.098.796-.459.393.681-.795.459zm1.733-.998.795-.459.393.681-.794.459zm1.731-.999.795-.46.393.682-.795.459zm1.732-.999.795-.46.393.682-.795.459zm3.518-2.034 4.427-2.556.394.681-4.428 2.557zM68.59 26.665l1.76-1.016.393.681-1.76 1.016zm2.04-1.18 4.145-2.392.393.681-4.144 2.393z"/><path fill="#373B43" d="m46.734 40.722 24.239-13.994-.23-.398-24.238 13.994zm24.52-14.159 18.221-10.52-.23-.398-18.22 10.52zM39.75 46.719l32.98-19.041-.393-.681-32.98 19.04z"/><path fill="#4A4F5A" d="m39.438 38.047-.284.164 2.36 4.087.738-.426-.066-.114c-.032-.056-.037-.13.048-.179s.081-.122.048-.179l-2.163-3.746-.227.13.164.285a.13.13 0 0 1-.048.179l-.227.13a.13.13 0 0 1-.179-.047z"/><path fill="#474C57" d="m83.242 14.422 1.249-.721 1.639 2.838-1.25.721z"/><path fill="#3E434C" d="m83.697 14.16.34-.197-.196-.34-.34.196z"/><path stroke="#2E3138" stroke-width="0.763677" d="m84.82 18.203-2.725 1.573-.394-.681-.794.459.393.68-.937.541-.393-.68-.795.458.393.681-.936.541-.393-.681-.795.459.393.68-.936.542-.394-.682-.794.46.393.68-.937.541-.393-.681-4.144 2.392 1.082 1.874 18.221-10.52-.688-1.192m-4.428 2.556-.393-.681.454-.263-1.639-2.838.454-.262-.196-.34.34-.197.197.34.454-.262 1.639 2.838 2.725-1.573.393.681m-4.428 2.557 4.428-2.556"/><path fill="#474C57" d="m39.705 51.817 1.245 2.157.823-.475.566-.856-.23-.397-.397.23-.787-1.363z"/><circle cx="44.7741" cy="53.5836" r="1.11428" fill="#4A4F5A" transform="rotate(-30 44.774 53.584)"/><path fill="#373B43" d="m61.407 74.378-6.494-.613c-.618-.163-.93-.56-1.123-1.093l-.929-2.264c-.168-.335-.276-.508-.653-.606l-3.369-.438c-.025 1.676.33 3.106.689 3.726l1.065 1.845c.278.482.633.77 1.24.836l7.968.167c.995.013 1.324-.185 1.532-.885z"/><path fill="#40454E" d="M46.032 58.647c1.22-.704 2.155-.79 2.937-.484.117.046.196.04.325-.028l4.063-2.203c.256-.148.698-.185 1.14-.223.442-.037.883-.075 1.139-.222l1.107-.64-.885-1.532-2.214 1.278-5.461.504-4.229 2.442c-.268.4-.293.662-.284 1.147l.328.568a.85.85 0 0 1 .111.504z"/><path fill="#3C4049" stroke="#2E3138" stroke-width="0.763677" d="m56.74 54.848-1.106.639c-.256.147-.698.185-1.14.222s-.883.075-1.139.223l-4.064 2.203c-.128.069-.207.074-.324.028-.782-.306-1.717-.22-2.937.484.4-.23 1.134-.125 2.082.198.66.225 1.25.527 1.562 1.066.377.653.524 1.434.447 1.824l-1.025 5.435a10.6 10.6 0 0 0-.26 2.195l3.37.438c.376.098.484.272.653.606l.928 2.265c.194.531.505.929 1.123 1.092l6.495.613.111-1.021c.006-.078-.009-.11-.082-.143l-1.035-.233c-.395-.149-.491-.337-.476-.823l-.208-12.028.823-.475c.237-.137.308-.594.065-1.135q-.068-.15-.196-.076l-.426.246c-.17.098-1.176-.267-1.487-.806z"/><path fill="#353940" d="m59.876 69.224.01.564-4.184.755a.279.279 0 1 1-.099-.548zm-.021-1.204.01.564-4.17.752a.278.278 0 1 1-.098-.548zm-.02-1.202.01.564-4.163.751a.278.278 0 1 1-.099-.548zm-.021-1.202.01.564-4.155.75a.279.279 0 0 1-.1-.548zm-.021-1.202.01.564-4.148.749a.279.279 0 0 1-.099-.549zm-.021-1.202.01.564-4.14.747a.279.279 0 0 1-.1-.548zm-.022-1.241.01.565-4.152.749a.279.279 0 0 1-.099-.548z"/><path fill="#32363E" stroke="#2E3138" stroke-width="0.763677" d="m56.654 53.649-.454.262 2.049 3.548c.463.867 1.367 1.254 2.076.844l6.074-3.507c1.05-.606 1.675-2.67 1.118-3.635l-1.72-2.98-.454.262 1.72 2.98c.393.682-.33 2.575-.926 2.92l-6.074 3.506c-.454.262-1.065-.142-1.36-.653z"/><path fill="#373B43" stroke="#2E3138" stroke-width="0.763677" d="m65.537 47.727 2.044-1.18.573.993c.393.681-.029 1.72-.511 1.998l-.795.46z"/><path fill="#33363E" d="m67.075 49.866.072.125c.318.551.524.91.902 1.432.616.851.972 1.315 1.72 1.996.178.162.585-.035.483-.279l-1.98-5.296c.156.653-.215 1.455-.63 1.694zm1.096-2.294v-.004l-.001.001z"/><path stroke="#2E3138" stroke-width="0.763677" d="m67.075 49.866.072.125c.318.551.524.91.902 1.432.616.851.972 1.315 1.72 1.996.178.162.585-.035.483-.279l-1.98-5.296c.156.653-.215 1.455-.63 1.694zm1.096-2.294v-.004l-.001.001z"/><circle cx="67.3006" cy="48.2959" r="0.458822" fill="#33363E" transform="rotate(-30 67.3 48.296)"/><path fill="#40454E" stroke="#2E3238" stroke-width="1.52735" d="m67.58 46.548 6.528-3.769.466-.509 3.186 4.342c.326.41.234.504.04.659l-5.906 4.317c-.207.156-.331.155-.582-.156z"/><path fill="#656D7B" d="m71.754 51.67 14.833 20.195 5.58-3.903 1.47 1.497.405-.347.49.587.223-.204L77.833 47.24l-.035.029-5.905 4.317a.6.6 0 0 1-.14.084"/><path fill="#5C6370" d="m73.594 51.906 4.338-3.06.491.696-4.338 3.06z"/><circle cx="78.4285" cy="53.3402" r="1.08151" fill="#5A606D" transform="rotate(-30 78.428 53.34)"/><circle cx="86.6258" cy="64.6537" r="1.08151" fill="#5A606D" transform="rotate(-30 86.626 64.654)"/><path fill="#555B68" d="m92.505 68.308-4.295 3.225c-.18.136-.209.273-.2.57l.157 1.616c.161-.025.358-.135.625-.326l4.867-3.302c.24-.176.259-.339-.023-.63z"/><path fill="#5E6573" d="m86.588 71.865 5.58-3.902.339.344-4.294 3.226c-.18.136-.21.273-.201.57l.157 1.615c-.304.092-.339-.063-.489-.288z"/><path stroke="#2E3238" stroke-width="0.763677" d="m92.168 67.963-5.58 3.902 1.092 1.565.06.092c.106.173.17.275.429.196.161-.025.358-.135.625-.326l4.867-3.302c.24-.176.259-.339-.023-.63z"/><path stroke="#2E3238" stroke-width="1.52735" d="m71.754 51.67 14.833 20.195 1.092 1.564.059.093c.107.172.17.274.43.196.16-.026.358-.136.624-.327l4.868-3.302c.239-.176.259-.338-.023-.63l.405-.347.49.587.223-.204L77.833 47.24l-.035.029-5.905 4.317a.6.6 0 0 1-.14.084Z"/><path fill="#3E434C" d="M53.901 50.77a1.31 1.31 0 1 0-2.084.685l-.436 1.628a.521.521 0 0 0 1.007.27l.436-1.626a1.31 1.31 0 0 0 1.077-.958"/><path fill="#3A3E46" d="M53.345 49.327a1.31 1.31 0 0 1 .237 2.01l1.02-.135-.051-1.333z"/><circle cx="55.5501" cy="47.9305" r="0.557141" fill="#515662" transform="rotate(-30 55.55 47.93)"/><circle cx="62.9813" cy="45.7956" r="0.65546" fill="#515662" transform="rotate(-30 62.981 45.796)"/><circle cx="76.5108" cy="37.5678" r="0.622687" fill="#4C515C" transform="rotate(-30 76.51 37.568)"/><rect width="6.03023" height="1.63865" x="66.4277" y="41.5361" fill="#40454E" rx="0.819325" transform="rotate(-30 66.428 41.536)"/><rect width="6.88233" height="1.63865" x="67.6406" y="43.6357" fill="#40454E" rx="0.819325" transform="rotate(-30 67.64 43.636)"/><path fill="#494F5A" d="m40.893 51.057.819 1.419.397-.23.23.398-.283.428.05.085 27.19-15.698c.198.344.627.47.956.28.33-.19.434-.624.235-.969l3.486-2.012c.222.221.562.28.835.123a.694.694 0 0 0 .312-.785l.987-.57-1.213-2.1-3.278 1.892c.107.465-.095.963-.529 1.214l-7.606 4.392c-.434.25-.967.175-1.316-.149z"/><path fill="#454A54" d="m90.443 14.047-1.59.918 4.837 8.378 5.487-3.213c.852-.491 1.389-.347 1.881.504l2.554 4.424 1.706-3.402-4.096-7.096z"/><path fill="#3B4049" d="m92.746 14.156-3.267 1.887.458.795 4.505-2.601z"/><path fill="#3C4049" d="m74.504 27.867 2.781-1.606 1.967 3.406-2.782 1.606z"/><path fill="#353940" d="m89.74 20.433-11.864 6.85.787 1.361 11.864-6.85z"/><circle cx="76.8082" cy="28.579" r="0.917644" fill="#40454E" transform="rotate(-30 76.808 28.579)"/><circle cx="76.8048" cy="28.5795" r="0.393276" fill="#3E434C" transform="rotate(-30 76.805 28.58)"/><path fill="#3E434C" d="m78.307 25.669.794-.459.59 1.022-.794.459zm1.379 2.385.794-.46.59 1.023-.795.458zm.408-3.416.795-.46.59 1.023-.795.458zm1.381 2.384.794-.46.59 1.022-.794.46zm.41-3.417.795-.458.59 1.021-.795.46zm1.375 2.383.795-.459.59 1.022-.795.46zm.414-3.414.795-.459.59 1.022-.795.459zm1.375 2.383.795-.459.59 1.022-.795.459zm.414-3.417.795-.459.59 1.022-.795.459zm1.373 2.385.795-.459.59 1.022-.795.459zm.414-3.415.795-.459.59 1.022-.795.459zm1.375 2.382.795-.46.59 1.023-.795.458z"/><path fill="#3E434C" stroke="#2E3138" stroke-width="1.52735" d="m104.821 20.794-3.403-5.895.454-.262c.397-.23.882.02 1.21.588l2.36 4.087z"/><path fill="#575E6A" stroke="#2E3138" stroke-width="1.52735" d="m104.525 17.723 3.633-2.097-1.573-2.725-3.647 2.106q.076.1.145.219z"/><path fill="#474C57" d="m73.04 37.19-.329-.568 1.76-1.016.328.568z"/><path fill="#40454E" d="m40.639 53.44-1.428-2.474a.85.85 0 0 0-1.164-.312l-1.334.77a.85.85 0 0 0-.312 1.165l1.428 2.473zm.138 6.722.413.714a.85.85 0 0 0 1.164.312l1.334-.77a.85.85 0 0 0 .311-1.164l-.412-.714z"/><rect width="1.24537" height="1.24537" x="39.8809" y="39.6064" fill="#535965" rx="0.381838" transform="rotate(-30 39.88 39.606)"/><path stroke="#2E3138" stroke-width="0.763677" d="m38.343 44.28-.065-.114 3.235-1.868-1.034-1.792a.4.4 0 0 1-.164-.153l-.24-.417a.4.4 0 0 1-.051-.218l-.87-1.508.283-.163.164.283a.13.13 0 0 0 .18.048l.226-.13a.13.13 0 0 0 .048-.18l-.164-.284.227-.13.871 1.507a.4.4 0 0 1 .164.153l.24.417a.37.37 0 0 1 .05.218l.839 1.45c.032.058.037.13-.048.18-.086.049-.081.122-.048.179l.065.113 1.135-.655.623 1.079m-5.666 1.984-.568.328c-.113.065-.126.83.104 1.227l.573.993-1.22.705.639 1.107 1.22-.705-.36-.624 34.002-19.631-.394-.681-.908.524-1.081-1.873-1.76 1.016.393.681-.908.524-.393-.68-.795.458.393.681-.936.54-.394-.68-.794.459.393.68-.937.541-.393-.68-.795.458.394.681-.937.541-.393-.681-.795.459.393.68-.936.542-.394-.681-.794.458.393.681-.937.541-.393-.681-.795.459.394.681-.937.54-.393-.68-.795.459.393.68-.936.541-.394-.68-.794.458.393.681-.937.541-.393-.681-.795.459.394.68-.937.541-.393-.68-.795.458.393.681-.936.541-.394-.681-.794.459.393.681-.937.54-.393-.68-.794.458.393.681-.937.541-.393-.68-.795.458.623 1.078-2.725 1.574m-5.666 1.984.557.965 5.109-2.95"/><circle cx="72.1752" cy="30.6852" r="1.10623" fill="#434851" transform="rotate(-30 72.175 30.685)"/><path fill="#373B43" fill-rule="evenodd" d="M75.787 33.825c-.227.13-.265.41.084.67l5.5 4.545 1.23.691 6.11 3.435c.26.132.454.11 1.192-.689l1.925-2.288a.517.517 0 0 1 .47-.56l.717-.852a.517.517 0 0 1 .488-.581l.7-.832a.518.518 0 0 1 .503-.6l.684-.814a.518.518 0 0 1 .518-.617l.67-.798a.518.518 0 0 1 .531-.633l.658-.783a.518.518 0 0 1 .543-.647l.646-.77a.518.518 0 0 1 .552-.66l.636-.76a.52.52 0 0 1 .559-.67c.332-.398.541-.65.586-.71 1.277-1.656 2.227-2.373 2.471-2.145.575.538.984.264.722-.19l-3.425-5.932c-.491-.851-1.028-.995-1.88-.504zm11.757 1.159a8 8 0 0 1-.468.4c-.499.388-1.029.64-1.516.292l-2.24-1.848c-.82-.7-.738-1.278.11-1.842l13.405-8.308c.408-.254.847-.073 1.087.243.178.236.245.546.146.784a.5.5 0 0 1-.146.2z" clip-rule="evenodd"/><path fill="#3A3E46" d="m82.602 39.73 2.4-2.332c-1.276-.995-3.161-2.554-3.64-3.425-.49-.891-.195-1.78.679-2.363l15.277-9.196c.483-.279.84-.183 1.12.3l.603 1.045 1.842-1.79-.518-.898c-.279-.483-.637-.579-1.12-.3L78.868 32.537a1.113 1.113 0 0 0-.407 1.522l2.84 4.919.072.06z"/><path fill="#30343B" d="m83.94 40.484-.883 1.314 2.197 1.478 1.002-1.49z"/><path fill="#32363E" d="m103.762 26.756-2.805-4.858-2.887 2.806a.5.5 0 0 1-.146.2L87.546 34.982a8 8 0 0 1-.468.4l-4.474 4.348 6.109 3.434c.26.133.454.11 1.192-.688l1.925-2.289a.52.52 0 0 1 .47-.56l.717-.852a.517.517 0 0 1 .488-.58l.7-.833a.517.517 0 0 1 .503-.6l.684-.814a.518.518 0 0 1 .518-.616l.67-.799a.518.518 0 0 1 .532-.632l.657-.784a.518.518 0 0 1 .543-.646l.646-.771a.518.518 0 0 1 .552-.66q.346-.41.636-.76a.52.52 0 0 1 .559-.67c.332-.397.541-.65.586-.71 1.277-1.655 2.227-2.372 2.471-2.144"/><path fill="#30343B" d="m99.591 28.533 1.169 1.011-.056.068a.517.517 0 0 0-.559.67l-.05.059-1.182-1.023a.519.519 0 0 1 .678-.785m-1.185 1.432 1.163 1.005-.06.072a.518.518 0 0 0-.552.659l-.054.064-1.175-1.016a.519.519 0 0 1 .678-.784m-1.185 1.431 1.154.998-.065.078a.518.518 0 0 0-.542.646l-.06.07-1.165-1.008a.519.519 0 0 1 .678-.784m-1.184 1.431 1.144.99-.07.085a.517.517 0 0 0-.532.632l-.065.078-1.156-1a.519.519 0 1 1 .678-.785m-1.184 1.431 1.135.982-.078.092a.518.518 0 0 0-.518.617l-.072.085-1.146-.992a.519.519 0 1 1 .678-.784m-1.184 1.432 1.125.973-.085.1a.517.517 0 0 0-.504.6l-.079.094-1.136-.983a.519.519 0 0 1 .678-.785m-1.184 1.431 1.115.965-.093.11a.517.517 0 0 0-.489.581l-.086.103-1.126-.974a.519.519 0 1 1 .679-.785m-1.185 1.432 1.104.955-.102.12a.517.517 0 0 0-.47.56l-.095.114-1.116-.965a.519.519 0 1 1 .679-.784"/><circle cx="81.871" cy="37.0863" r="0.852098" fill="#3A3E46" transform="rotate(-30 81.871 37.086)"/><path fill="#353941" d="M100.713 20.757a.36.36 0 0 0-.132.493l3.179 5.506c.575.538.985.264.722-.19l-3.277-5.677a.36.36 0 0 0-.492-.132"/><path stroke="#2E3138" stroke-width="1.52735" d="m34.669 52.603 5.702 9.877-16.745 9.668-3.704 4.334c-.672.804-1.051 1.326-1.124 2.314l-.026 9.329.044.075.055.62c.04.468.048.805-.142 1.066l-1.564 2.076c-.218.277-.627.551-1.081.813l-2.072 1.197c-.511.294-.972.032-1.271-.629-3.334-7.347-5.459-10.7-10.896-17.626-.94-1.198-.885-1.533-.033-2.025l16.915-9.766.45-1.319-.459-.795zm11.366 6.045c.4-.231 1.134-.125 2.082.197.66.225 1.25.528 1.562 1.067.377.653.524 1.434.447 1.823L49.1 67.17a10.6 10.6 0 0 0-.26 2.195c-.025 1.676.331 3.106.689 3.726l1.065 1.845c.279.483.634.77 1.24.836l7.968.168c.995.013 1.325-.186 1.533-.885l.186-1.697c.005-.078-.01-.11-.083-.143l-1.035-.233c-.396-.149-.491-.336-.476-.823L59.72 60.13l.823-.475c.237-.136.308-.594.064-1.134q-.067-.152-.195-.077l-.426.246c-.17.098-1.176-.267-1.487-.806l-2.638-4.57-2.214 1.278-5.461.504-4.23 2.442c-.267.4-.292.662-.283 1.148l.328.567a.85.85 0 0 1 .11.504z"/><path stroke="#2E3138" stroke-width="0.763677" d="M61.958 38.515a1.114 1.114 0 0 0 1.523.408l7.606-4.392a1.115 1.115 0 0 0 .408-1.522l-1.115-1.93a1.114 1.114 0 0 0-1.522-.408L54.81 38.783a.82.82 0 1 0 .82 1.419l5.137-2.966q.34-.197.537.144z"/><path stroke="#2E3138" stroke-width="1.52735" d="m39.09 47.935-.098-.17 34.002-19.63 1.9 3.291 2.128 3.685 3.22 2.852-.066.02c-.95.271-1.504.43-2.875 1.309l-3.193 3.487-20.464 11.815-5.46.504-4.23 2.442c-.268.4-.293.662-.283 1.147L37.87 48.64z"/><path stroke="#2E3138" stroke-width="0.763677" d="m64.101 42.424 10.36-5.98c.227-.132.448-.23.649-.317 1.518-.622 2.284-.034 2.713.57.401.563.556 1.42.252 1.746l-.775.847c1.403-.9 1.95-1.044 2.941-1.328l-3.22-2.852-.915-1.585-13.254 7.653z"/><path stroke="#2E3138" stroke-width="0.763677" d="m40.925 51.114-.033-.057 21.273-12.281c.349.324.881.399 1.315.148l7.607-4.392c.434-.25.636-.749.53-1.213l3.277-1.893 1.213 2.1-.988.57a.694.694 0 0 1-.311.786.694.694 0 0 1-.836-.123l-3.485 2.012c.2.345.094.778-.235.968-.33.19-.758.065-.957-.28l-27.19 15.698-.05-.085-.282.428-.823.475-1.245-2.157z"/><path fill="#424751" d="m68.832 30.951-7.997 4.73-.144.423.341.675.308.113.145-.084c.29.233.486.433.886.36.614-.112 1.377-.552 1.526-.88.18-.398.1-.68-.098-1.01l5.574-3.39z"/><path fill="#4C515D" d="M68.493 30.43a.197.197 0 0 0-.072.269l.032.056.32-.185.722 1.25-.32.184.032.057a.197.197 0 0 0 .269.072l.34-.197a.197.197 0 0 0 .072-.268l-.786-1.363a.197.197 0 0 0-.269-.072z"/><path fill="#474C57" d="m68.774 30.57.72 1.25-.32.185-.72-1.25z"/><path fill="#353840" fill-rule="evenodd" stroke="#2E3138" stroke-width="0.763677" d="m37.232 47.533-1.873 1.081c-.2.115.095 1.345.44 1.941l2.383-1.376zm-.32 2.265a.655.655 0 1 0-.655-1.135.655.655 0 0 0 .656 1.135Z" clip-rule="evenodd"/><path stroke="#2E3138" stroke-width="0.763677" d="M39.21 50.966a.85.85 0 0 0-1.163-.312l-1.334.77a.85.85 0 0 0-.312 1.165l4.372 7.573.412.714a.85.85 0 0 0 1.164.312l1.334-.77a.85.85 0 0 0 .312-1.164l-.412-.714z"/><path stroke="#2E3138" stroke-width="1.52735" d="m35.36 48.614 1.873-1.082 6.735 11.665.066.313-.479 1.136-3.179 1.836-5.702-9.877 1.124-2.051c-.343-.596-.637-1.826-.439-1.94Z"/><path stroke="#2E3138" stroke-width="1.52735" d="M75.787 33.825c-.227.13-.265.41.084.67l5.5 4.545 1.23.691 6.11 3.435c.26.132.454.11 1.192-.689l1.925-2.288a.517.517 0 0 1 .47-.56l.717-.852a.517.517 0 0 1 .488-.581l.7-.832a.518.518 0 0 1 .503-.6l.684-.814a.518.518 0 0 1 .518-.617l.67-.798a.518.518 0 0 1 .531-.633l.658-.783a.518.518 0 0 1 .543-.647l.646-.77a.518.518 0 0 1 .552-.66l.636-.76a.52.52 0 0 1 .559-.67c.332-.398.541-.65.586-.71 1.277-1.656 2.227-2.373 2.471-2.145.575.538.984.264.722-.19l-3.425-5.932c-.491-.851-1.028-.995-1.88-.504zm11.757 1.159a8 8 0 0 1-.468.4c-.499.388-1.029.64-1.516.292l-2.24-1.848c-.82-.7-.738-1.278.11-1.842l13.405-8.308c.408-.254.847-.073 1.087.243.178.236.245.546.146.784a.5.5 0 0 1-.146.2z" clip-rule="evenodd"/><path stroke="#2E3138" stroke-width="0.763677" d="m103.762 26.756-2.805-4.858-2.887 2.806a.5.5 0 0 1-.146.2L87.546 34.982a8 8 0 0 1-.468.4l-4.474 4.348 6.109 3.434c.26.133.454.11 1.192-.688l1.925-2.289a.52.52 0 0 1 .47-.56l.717-.852a.517.517 0 0 1 .488-.58l.7-.833a.517.517 0 0 1 .503-.6l.684-.814a.518.518 0 0 1 .518-.616l.67-.799a.518.518 0 0 1 .532-.632l.657-.784a.518.518 0 0 1 .543-.646l.646-.771a.518.518 0 0 1 .552-.66q.346-.41.636-.76a.52.52 0 0 1 .559-.67c.332-.397.541-.65.586-.71 1.277-1.655 2.227-2.372 2.471-2.144Z"/><path fill="#32363E" stroke="#2E3138" stroke-width="0.763677" d="m70.63 25.485-.283.164 1.082 1.873.283-.163z"/><path stroke="#2E3138" stroke-width="1.52735" d="m90.443 14.047-1.59.918 4.837 8.378 5.487-3.213c.852-.491 1.389-.347 1.881.504l2.554 4.424 1.706-3.402-4.096-7.096z"/><path fill="#3C4049" d="m89.148 19.41 2.952-1.705 1.967 3.406-2.952 1.704z"/><circle cx="91.5113" cy="20.0908" r="0.917644" fill="#40454E" transform="rotate(-30 91.511 20.09)"/><circle cx="91.5118" cy="20.0912" r="0.393276" fill="#3E434C" transform="rotate(-30 91.512 20.091)"/><path stroke="#2E3138" stroke-width="0.763677" d="M74.504 27.867 92.1 17.707l1.966 3.406-17.597 10.16z"/></g><defs><clipPath id="a"><path fill="#fff" d="M0 0h110v110H0z"/></clipPath></defs></svg>