<svg xmlns="http://www.w3.org/2000/svg" id="Layer_2" width="96.41" height="17.89" data-name="Layer 2" viewBox="0 0 96.41 17.89"><defs><style>.cls-8{fill:#15151a}.cls-9{fill:#29292e;stroke:#29292e}.cls-10,.cls-14,.cls-16,.cls-9{fill-rule:evenodd}.cls-9{stroke-miterlimit:28.35;stroke-width:.75px}.cls-10{fill:#2e3038;stroke:#15151a;stroke-width:3px}.cls-16{fill:#62626a}.cls-14{fill:#4a5157}</style></defs><g id="Layer_14" data-name="Layer 14"><g id="Layer_14-2" data-name="Layer 14-2"><g id="layer1"><g id="g8"><path id="path129" d="M88.96 11.07h5.15c.44 0 .8-.36.8-.8V7.72c0-.44-.36-.8-.8-.8h-5.15c-.44 0-.8.36-.8.8v2.55c0 .44.36.8.8.8Z" style="fill-rule:evenodd;fill:#454a54;stroke-width:3px;stroke:#16161a"/><path id="path126" d="M89.37 12.31c.1-.04.16-.13.16-.23V5.92c0-.1-.06-.2-.16-.23l-6.35-2.48c-.16-.06-.34.06-.34.23v11.11c0 .18.18.3.34.23z" style="fill-rule:evenodd;stroke-width:3px;stroke:#16161a;fill:#62626a"/><path id="path118" d="M34.93 10.88V7.12c0-.6-.53-1.08-1.17-1.08H2.67c-.65 0-1.17.48-1.17 1.08v3.76c0 .6.53 1.08 1.17 1.08h31.1c.65 0 1.17-.48 1.17-1.08Z" style="fill-rule:evenodd;stroke-miterlimit:28.35;stroke-width:3px;fill:#252528;stroke:#151719"/><path id="path94" d="M82.63 14.49V3.5c0-.24-.19-.43-.43-.43H64.04c-.24 0-.43.19-.43.43v10.99c0 .24.19.43.43.43H82.2c.24 0 .43-.19.43-.43Z" class="cls-10"/><path id="path100" d="M53.99 16.15v-2.27a.56.56 0 0 0-.56-.56h-.7a.56.56 0 0 0-.56.56v2.27c0 .31.25.56.56.56h.7c.31 0 .56-.25.56-.56" style="fill-rule:evenodd;fill:#2b2e3b"/><path id="path102" d="M63.61 12.7V5.29c0-.68-.55-1.23-1.23-1.23H33.69c-.68 0-1.23.55-1.23 1.23v7.41c0 .68.55 1.23 1.23 1.23h28.69c.68 0 1.23-.55 1.23-1.23Z" class="cls-10"/><path id="path104" d="M53.08 9.13v-.27c0-.41-.33-.75-.75-.75H49.5c-.41 0-.75.33-.75.75v.27c0 .41.33.75.75.75h2.83c.41 0 .75-.33.75-.75" class="cls-16"/><path id="path105" d="M59.42 9.35v-.71c0-.43-.35-.79-.79-.79h-3.62c-.43 0-.79.35-.79.79v.71c0 .43.35.79.79.79h3.62c.43 0 .79-.35.79-.79" class="cls-16"/><path id="path107" d="M81.48 10.82V7.17a.87.87 0 0 0-.87-.87H65.3a.87.87 0 0 0-.87.87v3.65c0 .48.39.87.87.87h15.31c.48 0 .87-.39.87-.87" class="cls-14"/><path id="path109" d="M65.6 10.88V7.12c0-.46-.37-.82-.82-.82H34.39c-.46 0-.82.37-.82.82v3.76c0 .46.37.82.82.82h30.39c.46 0 .82-.37.82-.82" class="cls-14"/><path id="path110" d="M42.85 11.37V6.63h-5.19v4.74z" style="fill-rule:evenodd;fill:#3e3e42"/><path id="path120" d="M76.3 11.37V6.62h-1.13v4.74h1.13Z" class="cls-9"/><path id="path122" d="M72.53 11.37V6.62H71.4v4.74h1.13Z" class="cls-9"/><path id="path124" d="M68.76 11.37V6.62h-1.13v4.74h1.13Z" class="cls-9"/><path id="path128" d="M80.07 11.37V6.62h-1.13v4.74h1.13Z" class="cls-9"/><path id="path131" d="M82.61 11.96h6.85V6.04h-6.85z" style="stroke-width:1.5px;fill-rule:evenodd;stroke:#141418;fill:#454a54"/><path id="path132" d="M17.69 11.94V6.05z" style="stroke-width:1.5px;fill-rule:evenodd;fill:#2e3238;stroke:#111313"/><path id="path134" d="M48.77 6.63v4.74h1.13V6.63z" class="cls-9"/><path id="path136" d="M52.54 6.63v4.74h1.13V6.63z" class="cls-9"/><path id="path138" d="M56.31 6.63v4.74h1.13V6.63z" class="cls-9"/><path id="path140" d="M44.99 6.63v4.74h1.13V6.63z" class="cls-9"/><path id="path142" d="M32.48 11.31V6.69c0-.37-.3-.66-.66-.66h-1.21c-.37 0-.66.3-.66.66v4.62c0 .37.3.66.66.66h1.21c.37 0 .66-.3.66-.66Z" style="stroke-width:1.5px;fill-rule:evenodd;fill:#3d3d42;stroke:#15171a"/><path id="path228" d="M63.86 6.63v4.74h1.13V6.63z" class="cls-9"/><path id="path229" d="M60.08 6.63v4.74h1.13V6.63z" class="cls-9"/><rect id="rect1" width="47.63" height="5.24" x="33.56" y="6.38" rx=".81" ry=".81" style="stroke:#161819;stroke-width:1.5px;stroke-miterlimit:82.2;fill:none"/><path id="path111" d="M42.85 11.37V6.63h-5.19v4.74z" style="fill:none;stroke-width:.75px;stroke:#151519"/><ellipse id="ellipse144" cx="40.32" cy="9" rx="1.26" ry="1.28" style="stroke-miterlimit:82.2;stroke-width:.75px;fill:#313135;stroke:#17171a"/></g><rect id="rect2" width="3.36" height="2.96" x="73.91" y="0" class="cls-8" rx=".8" ry=".8"/><rect id="rect3" width="3.36" height="2.96" x="66.31" y="0" class="cls-8" rx=".8" ry=".8"/><rect id="rect4" width="3.36" height="2.96" x="70.11" y="0" class="cls-8" rx=".8" ry=".8"/><rect id="rect5" width="3.36" height="2.96" x="77.71" y="0" class="cls-8" rx=".8" ry=".8"/><rect id="rect6" width="3.36" height="2.96" x="66.29" y="14.93" class="cls-8" rx=".8" ry=".8"/><rect id="rect7" width="3.36" height="2.96" x="73.89" y="14.93" class="cls-8" rx=".8" ry=".8"/><rect id="rect8" width="3.36" height="2.96" x="70.09" y="14.93" class="cls-8" rx=".8" ry=".8"/><rect id="rect9" width="3.36" height="2.96" x="77.69" y="14.93" class="cls-8" rx=".8" ry=".8"/><rect id="rect10" width="3.37" height="2.57" x="38.59" y=".78" class="cls-8" rx=".78" ry=".78"/><rect id="rect11" width="3.37" height="2.83" x="38.59" y="14.37" class="cls-8" rx=".95" ry=".95"/></g></g></g><path d="M16.94 7.49h1.5v3.14h-1.5z" style="fill:#161719"/></svg>