<svg xmlns="http://www.w3.org/2000/svg" xml:space="preserve" width="33.122486mm" height="29.584726mm" viewBox="0 0 33.122486 29.584726"><g transform="translate(69.056 -86.519)"><rect width="14.107388" height="2.2072144" x="-126.06544" y="32.137962" rx="2.5194237e-15" ry="0" style="display:inline;fill:#704122;fill-opacity:1;fill-rule:evenodd;stroke:#2b1a0e;stroke-width:1.1;stroke-linecap:round;stroke-linejoin:miter;stroke-dasharray:none;stroke-opacity:1" transform="rotate(-45)"/><path d="m-55.295 105.102 17.6-17.6-6.735 1.6-13.617 13.21z" style="fill:#b4a894;fill-opacity:1;stroke:#3d3b36;stroke-width:1.1;stroke-linecap:round;stroke-linejoin:miter;stroke-dasharray:none;stroke-opacity:1"/><path d="m-39.45 88.484-2.635.627-13.8 13.782-.513.504 1.116.922.511-.525 14.608-14.608z" style="fill:#221f18;fill-opacity:.463462;stroke-width:1.91395;stroke-linecap:round"/><rect width="0.92252678" height="13.321125" x="-34.158791" y="99.533768" rx="2.5194235e-15" style="fill:#3e3b33;fill-opacity:1;stroke:none;stroke-width:1.5;stroke-linecap:round;stroke-linejoin:miter;stroke-dasharray:none;stroke-opacity:1" transform="scale(-1 1)rotate(-45)"/><path d="M-63.843 114.891c-.446-2.32-2.258-3.706-4.086-4.206l.21 1.26-.787.512.803.771-.206.795.896.897.776-.202.73.836.55-.792z" style="fill:#dac042;fill-opacity:1;fill-rule:evenodd;stroke:#33320a;stroke-width:1.1;stroke-linecap:round;stroke-linejoin:round;stroke-dasharray:none;stroke-opacity:1"/><path d="m-54.573 105.806-4.197-4.197h0v0l-.093 2.704-1.617 1.617 1.56 1.56 1.633-1.632z" style="fill:#dac042;fill-opacity:1;stroke:#33320a;stroke-width:1.1;stroke-linecap:round;stroke-linejoin:round;stroke-dasharray:none;stroke-opacity:1"/><rect width="3.3072205" height="0.99313188" x="-34.89518" y="117.2263" rx="2.2475877e-15" style="fill:#33320a;fill-opacity:1;stroke:none;stroke-width:1.15377;stroke-linecap:round;stroke-linejoin:miter;stroke-dasharray:none;stroke-opacity:1" transform="scale(-1 1)rotate(-45)"/></g></svg>