<svg xmlns="http://www.w3.org/2000/svg" width="110" height="110" fill="none" viewBox="0 0 110 110"><g clip-path="url(#a)"><path fill="#524E4B" d="m98.07 27.879-.892.515 1.813 3.14.891-.516z"/><path fill="#45423F" stroke="#353331" stroke-linecap="round" stroke-miterlimit="3.99393" stroke-width="0.46191" d="m98.998 29.484-.892.515.886 1.535.891-.515z"/><path fill="#404040" d="m61.887 42.814-7.074 4.084.448.778 7.074-4.084z"/><path fill="#404040" stroke="#333" stroke-linecap="round" stroke-miterlimit="3.99393" stroke-width="0.46191" d="m61.39 41.955-.607.35.627 1.085.606-.35z"/><path fill="#454545" fill-rule="evenodd" d="m54.076 45.45.837 1.45 3.285-1.897.423.733 1.777-1.026-.32-.554 1.36-.786-1.004-1.74c-.42-.117-.583.026-.685.396l-.79.456c-.227-.196-.58.004-.51.295l-.31.179-.14.377-.556.32-2.31 1.693z" clip-rule="evenodd"/><path fill="#383838" d="M58.916 42.524a.231.231 0 0 0-.4.23c.154.267.309.478.525.638s.474.254.808.324a.231.231 0 0 0 .094-.453c-.3-.062-.486-.138-.627-.243s-.26-.253-.4-.496"/><path fill="#404040" d="m53.981 48.15-2.717 1.57.888 1.538 2.717-1.57z"/><path fill="#4D4D4D" stroke="#333" stroke-linecap="round" stroke-miterlimit="3.99393" stroke-width="0.46191" d="m53.865 49.119-2.432 1.404a.35.35 0 0 0-.128.476l.62 1.074c.096.167.31.224.476.127l2.433-1.404a.35.35 0 0 0 .128-.476l-.62-1.074a.35.35 0 0 0-.477-.128Z"/><path fill="#7B6B47" fill-rule="evenodd" d="m40.732 55.8 10.532-6.08.888 1.538-10.532 6.08z" clip-rule="evenodd"/><path fill="#81714B" fill-rule="evenodd" stroke="#413825" stroke-miterlimit="3.99393" stroke-width="0.46191" d="m40.063 54.642 13.15-7.592a.115.115 0 0 1 .157.042l.612 1.06-13.25 7.649z" clip-rule="evenodd"/><path stroke="#413825" stroke-miterlimit="3.99393" stroke-width="0.923819" d="m53.212 47.05-13.15 7.592 1.558 2.697 10.532-6.08-.888-1.539 2.718-1.569-.612-1.06a.115.115 0 0 0-.158-.041Z"/><path fill="#706442" d="m50.65 50.732-4.496 2.596c-.167.096-.235.29-.152.434l.096.168c.084.143.286.182.453.085l4.496-2.595c.167-.097.235-.291.152-.435l-.097-.167c-.083-.144-.286-.182-.452-.086"/><path fill="#4D4D4D" d="m40.062 54.64-11.453 6.613 2.344 4.06L65.544 45.34l-2.49-4.312-1.34.774 1.074 1.861-4.63 2.673-.394-.06-4.474 2.582.235.407-.549 1.515-5.873 3.39-1.857-.977-4.514 2.606z"/><path fill="#404040" stroke="#333" stroke-linecap="round" stroke-miterlimit="3.99393" stroke-width="0.46191" d="m54.69 46.69-1.928 1.113.968 1.677 1.929-1.113z"/><path fill="#404040" d="m40.223 54.522-11.52 6.65.913 1.581 11.52-6.65z"/><path stroke="#333" stroke-linecap="round" stroke-miterlimit="3.99393" stroke-width="0.923925" d="m40.062 54.64-11.453 6.613 2.344 4.06L65.544 45.34l-2.49-4.312-1.34.774 1.074 1.861-4.63 2.673-.394-.06-4.474 2.582.235.407-.549 1.515-5.873 3.39-1.857-.977-4.514 2.606z"/><path fill="#424242" fill-rule="evenodd" d="m48.356 59.06 3.333 3.31 3.685-4.423.116-.865 2.615-3.787-2.237.19z" clip-rule="evenodd"/><path fill="#4A4A4A" d="m55.072 58.31.303-.363.117-.864 2.614-3.787-2.236.19-3.413 2.533z"/><path fill="#474747" d="m55.462 57.3.03-.217 2.614-3.787-2.237.19-2.578 1.913z"/><path stroke="#333" stroke-linecap="round" stroke-miterlimit="3.99393" stroke-width="0.923925" d="m48.356 59.06 3.333 3.31 3.685-4.423.116-.865 2.615-3.787-2.237.19z" clip-rule="evenodd"/><path fill="#404040" stroke="#333" stroke-linecap="round" stroke-miterlimit="3.99393" stroke-width="0.46191" d="M46.862 61.282a.115.115 0 1 0-.228.04c.066.37.181.64.488.831a.115.115 0 0 0 .122-.196c-.228-.142-.322-.335-.382-.675Z"/><path fill="#3B3B3B" stroke="#333" stroke-linecap="round" stroke-miterlimit="3.99393" stroke-width="0.923925" d="m49.082 59.954.233.403-.445.257-.635-.17-1.487.858-.744-1.29.197-.113 2.137-1.234z"/><path fill="#3B3B3B" fill-rule="evenodd" stroke="#333" stroke-miterlimit="3.99393" stroke-width="0.46191" d="M37.525 65.513c-.231.11-.443.123-.413.377.07.6.284 1.104.528 1.808.244.703.56 1.099 1.283 1.292.248.059.457.175.484.06.019-.08-.078-.132-.3-.22-.74-.294-.949-.45-1.113-.924-.164-.473-.218-1.608.167-2.34.083-.157-.406-.161-.636-.053Z" clip-rule="evenodd"/><path fill="#404040" stroke="#333" stroke-linecap="round" stroke-miterlimit="3.99393" stroke-width="0.46191" d="M41.741 63.73a.231.231 0 0 0-.4.231l1.228 2.126c.273.474.291.927.15 1.319-.143.397-.456.748-.872.987l-3.222 1.86a1.3 1.3 0 0 1-1.245.054c-.396-.183-.752-.542-.992-.981s-.35-.938-.284-1.39c.066-.444.305-.854.794-1.137a.231.231 0 0 0-.231-.4c-.616.356-.934.891-1.02 1.469-.084.57.058 1.17.336 1.68.277.508.7.946 1.203 1.178.51.236 1.1.257 1.67-.072l3.222-1.86c.493-.285.89-.715 1.076-1.232.188-.523.154-1.118-.185-1.706z"/><path fill="#909090" fill-rule="evenodd" stroke="#333" stroke-linecap="round" stroke-miterlimit="3.99393" stroke-width="0.923925" d="M96.98 29.269c-.547.652-1.339 1.31-2.246 1.835-8.429 5.054-14.66 9.149-21.63 12.161L79.5 37.28l14.573-8.414c.674-.389 1.571-.817 2.17-.872z" clip-rule="evenodd"/><path stroke="#353331" stroke-linecap="round" stroke-miterlimit="3.99393" stroke-width="0.46196" d="m98.07 27.879-.892.515 1.813 3.14.891-.516z"/><path fill="#5E5955" stroke="#353331" stroke-linecap="round" stroke-miterlimit="3.99393" stroke-width="0.923925" d="m101.829 24.665-5.78 3.337.865 1.499 5.78-3.338z"/><path fill="#757575" d="m94.087 29.659-13.13 7.58a.247.247 0 1 0 .247.429l13.13-7.581a.247.247 0 1 0-.247-.428"/><path fill="#504B49" fill-rule="evenodd" stroke="#353331" stroke-linecap="round" stroke-miterlimit="3.99393" stroke-width="0.924069" d="m74.633 37.077 33.494-19.338 1.099 1.904-33.494 19.338z" clip-rule="evenodd"/><path fill="#423F3D" fill-rule="evenodd" d="m73.967 34.923 13.52-7.806 1.099 1.904-13.52 7.806z" clip-rule="evenodd"/><path fill="#353331" d="m73.967 34.923-.231-.4-.4.23.23.4zm13.52-7.806.4-.23-.231-.401-.4.231zm1.099 1.904.23.4.4-.231-.23-.4zm-13.52 7.806-.4.23.23.4.4-.23zm-.868-1.504 13.52-7.806-.462-.8-13.52 7.806zm12.889-7.975 1.099 1.904.8-.462-1.1-1.904zm1.268 1.273-13.52 7.805.462.8 13.52-7.805zm-12.889 7.975-1.1-1.904-.8.462 1.1 1.903z"/><path fill="#757575" stroke="#353331" stroke-linecap="round" stroke-miterlimit="3.99393" stroke-width="0.924069" d="m77.2 32.442-1.134.654 2.508 4.344 1.133-.654a.116.116 0 0 0 .043-.158l-2.393-4.144a.115.115 0 0 0-.158-.042Z"/><path fill="#504B49" d="m104.662 14.44-1.303.752 2.295 3.975 1.303-.752z"/><path fill="#454545" fill-rule="evenodd" d="m29.918 61.963 2.091-1.208a.465.465 0 0 1 .637.171l.052.09c.13.224.04.487-.17.637l-1.977 1.408c-.21.15-.508.053-.637-.17l-.167-.29a.465.465 0 0 1 .17-.638" clip-rule="evenodd"/><path fill="#424242" stroke="#333" stroke-linecap="round" stroke-miterlimit="3.99393" stroke-width="0.46196" d="M31.021 67.942a.617.617 0 1 0-.617-1.07.617.617 0 0 0 .617 1.07Z"/><path fill="#964436" d="m79.274 37.414-6.4 6.106-25.28 16.861-14.01 8.089c-3.104 1.792-3.537 4.208-3.917 6.334-.388 2.166-.723 4.032-3.769 4.633-.517.102-1.246.439-1.619.811L9.07 95.458l-.354-.603c-2.055-3.487-4.11-6.975-7.559-9.99l17.387-11.398c.888-.582 2.468-1.137 3.5-1.38 4.425-1.037 7.194-3.811 8.368-7.92 1.735-1.668 3.61-2.852 15.308-9.605l1.898-.145 4.845-2.797c1.166-.673 1.53-1.702 1.385-2.247l9.907-5.72 14.342-8.28z"/><path fill="#823C30" fill-rule="evenodd" stroke="#4A231C" stroke-linecap="round" stroke-miterlimit="3.99393" stroke-width="0.46191" d="m62.435 41.366 1.32 2.287 14.342-8.28-1.32-2.287a.346.346 0 0 0-.473-.127l-13.742 7.934a.346.346 0 0 0-.127.473Zm4.25.071-1.32.763a.19.19 0 1 0 .19.33l1.321-.762a.19.19 0 1 0-.19-.33Zm2.965-1.711 1.321-.763a.19.19 0 1 1 .19.33l-1.32.763a.19.19 0 0 1-.19-.33Zm4.286-2.474 1.32-.763a.19.19 0 0 1 .192.33l-1.322.763a.19.19 0 1 1-.19-.33Z" clip-rule="evenodd"/><path fill="#74352A" d="m67.073 42.871-7.66 4.422a.645.645 0 0 0 .645 1.116l7.66-4.421a.645.645 0 0 0-.645-1.117"/><path fill="#424242" stroke="#333" stroke-linecap="round" stroke-miterlimit="3.99393" stroke-width="0.46196" d="M56.986 50.151a.618.618 0 1 0-.618-1.07.618.618 0 0 0 .618 1.07Z"/><path fill="#423F3D" stroke="#353331" stroke-miterlimit="3.99393" stroke-width="0.924069" d="m102.257 20.552-1.673.966 1.732 3 1.673-.966z"/><path fill="#423F3D" stroke="#353331" stroke-miterlimit="3.99393" stroke-width="0.924069" d="M104.099 25.673c.693-.4.999-1.168.683-1.715s-1.133-.666-1.826-.266-.999 1.167-.683 1.714 1.133.667 1.826.267Z"/><path fill="#403D3B" d="m99.065 26.26.865 1.498.626-.361-.865-1.5zm.759-.439.865 1.499.627-.362-.865-1.499zm.76-.437.865 1.498.627-.362-.865-1.498z"/><path stroke="#353331" stroke-linecap="round" stroke-miterlimit="3.99393" stroke-width="0.923925" d="m101.829 24.665-5.78 3.337.865 1.499 5.78-3.338z"/><path fill="#3A3836" d="M103.732 25.039a.412.412 0 1 0-.412-.713.412.412 0 0 0 .412.713"/><path fill="#615538" stroke="#413825" stroke-miterlimit="3.99393" stroke-width="0.46191" d="M51.707 49.414a.78.78 0 1 0-.78-1.35.78.78 0 0 0 .78 1.35Z"/><path fill="#3B3B3B" d="M30.509 62.648a.262.262 0 1 0-.262-.454.262.262 0 0 0 .262.454m.945-.852a.262.262 0 1 0-.262-.454.262.262 0 0 0 .262.454"/><path fill="#423F3D" d="m105.894 16.575-1.302.752 1.062 1.84 1.302-.753z"/><path stroke="#353331" stroke-linecap="round" stroke-miterlimit="3.99393" stroke-width="0.924069" d="m104.662 14.44-1.303.752 2.295 3.975 1.303-.752z"/><path fill="#433F3D" stroke="#353331" stroke-linecap="round" stroke-miterlimit="3.99393" stroke-width="0.46191" d="M105.245 16.952a.453.453 0 1 0-.454-.783.453.453 0 0 0 .454.783Z"/><path fill="#383838" d="M58.944 44.99a.296.296 0 1 0-.297-.513.296.296 0 0 0 .297.513"/><path fill="#4D4D4D" fill-rule="evenodd" d="m58.67 44.443 1.166-2.568.73.075-.695 1.251c.393.217.209.626-.224.389l-.577 1.054z" clip-rule="evenodd"/><path fill="#383838" d="M59.975 43.612a.157.157 0 1 0-.157-.273.157.157 0 0 0 .157.273m-4.225 1.281-.62.453-1.056.104.837 1.45 3.202-1.848-.41-.71-1.703.983z"/><path stroke="#333" stroke-linecap="round" stroke-miterlimit="3.99393" stroke-width="0.46196" d="m54.076 45.45.837 1.45 3.285-1.897.423.733 1.777-1.026-.32-.554 1.36-.786-1.004-1.74c-.42-.117-.583.026-.685.396l-.79.456c-.227-.196-.58.004-.51.295l-.31.179-.14.377-.556.32-2.31 1.693z" clip-rule="evenodd"/><path fill="#3D3D3D" d="M60.35 42.408a.427.427 0 1 0-.427-.74.427.427 0 0 0 .427.74"/><path stroke="#333" stroke-linecap="round" stroke-miterlimit="3.99393" stroke-width="0.46191" d="M60.35 42.409a.4.4 0 0 1-.054.026l-.426.766c.394.217.21.626-.223.389l-.578 1.054-.4-.201 1.05-2.31a.428.428 0 1 1 .63.276Z"/><path stroke="#333" stroke-linecap="round" stroke-miterlimit="3.99393" stroke-width="0.46196" d="m29.918 61.963 2.091-1.208a.465.465 0 0 1 .637.171l.052.09c.13.224.04.487-.17.637l-1.977 1.408c-.21.15-.508.053-.637-.17l-.167-.29a.465.465 0 0 1 .17-.638Z" clip-rule="evenodd"/><path stroke="#4B221B" stroke-linecap="round" stroke-miterlimit="3.99393" stroke-width="0.923819" d="m63.755 43.653-1.32-2.286a.347.347 0 0 1 .127-.474l13.742-7.934a.346.346 0 0 1 .473.127l2.498 4.327-6.4 6.106-25.28 16.862-14.01 8.088c-3.104 1.792-3.536 4.208-3.917 6.335-.388 2.166-.722 4.031-3.768 4.633-.517.102-1.247.438-1.62.81L9.071 95.458l-.355-.602c-2.055-3.488-4.11-6.975-7.559-9.991l17.387-11.398c.888-.582 2.468-1.137 3.501-1.379 4.424-1.037 7.193-3.812 8.367-7.92 1.735-1.669 3.611-2.852 15.308-9.606l1.898-.145 4.845-2.796c1.166-.674 1.531-1.703 1.385-2.247z" clip-rule="evenodd"/><path fill="#3D3A38" fill-rule="evenodd" stroke="#353331" stroke-linecap="round" stroke-miterlimit="3.99393" stroke-width="0.924069" d="m87.486 27.116.657-.379 1.7.83 1.53 2.648-1.573.909z" clip-rule="evenodd"/><path fill="#3B3B3B" stroke="#333" stroke-linecap="round" stroke-miterlimit="3.99393" stroke-width="0.46191" d="M54.38 44.463a.116.116 0 0 0-.062.223l.699.195 3.043-1.712a.116.116 0 0 0-.114-.201l-2.959 1.665z"/><path fill="#404040" stroke="#333" stroke-linecap="round" stroke-miterlimit="3.99393" stroke-width="0.46196" d="m55.334 44.043.447.796 1.214-.683-.448-.795z"/></g><defs><clipPath id="a"><path fill="#fff" d="M0 0h110v110H0z"/></clipPath></defs></svg>