<svg xmlns="http://www.w3.org/2000/svg" width="150" height="22" fill="none" viewBox="0 0 150 22"><g clip-path="url(#a)"><path fill="#4F4D4A" d="M112.766 4.902h36.031v6.563h-36.978z"/><path fill="#423F3D" fill-rule="evenodd" d="M111.736 6.008h13.025v4.031h-13.025z" clip-rule="evenodd"/><path fill="#353331" d="M146.885 6.21h-2.735v3.858h2.735z"/><path fill="#964436" fill-rule="evenodd" stroke="#220F0C" stroke-linecap="round" stroke-linejoin="round" stroke-width="3" d="m26.65 1.532-23.244.117c-2.86 2.515-2.218 10.301.08 12.814l23.164-.112c2.345-1.14 9.95-3.067 16.953.68V1.508c-6.37 2.347-12.225 1.968-16.953.024" clip-rule="evenodd"/><path fill="#873E31" fill-rule="evenodd" d="m93.164 13.883-15.918 1.183L80.254 8.3l-3.008-6.77 15.918 1.183" clip-rule="evenodd"/><path stroke="#220F0C" stroke-linecap="round" stroke-linejoin="round" stroke-width="3" d="m93.164 13.883-15.918 1.183L80.254 8.3l-3.008-6.77 15.918 1.183"/><path fill="#404040" fill-rule="evenodd" stroke="#171717" stroke-linecap="round" stroke-linejoin="round" stroke-width="3" d="M43.603 1.508h34.205c.693 0 1.25.308 1.25.691v12.14c0 .383-.557.691-1.25.691H43.604z" clip-rule="evenodd"/><path fill="#81714B" stroke="#1D1911" stroke-linecap="round" stroke-linejoin="round" stroke-width="1.5" d="M73.021 11.477h-3.187v7.348h3.187z"/><path fill="#81714B" stroke="#1D1911" stroke-linecap="round" stroke-linejoin="round" stroke-width="3" d="M76.37 3.313H57.314V13.52H76.37z"/><path stroke="#171717" stroke-width="3" d="M108.792 5.672h39.533v5.217h-39.31z"/><path fill="#333" fill-rule="evenodd" stroke="#171717" stroke-linecap="round" stroke-linejoin="round" stroke-width="3" d="M108.99 2.844h2.439v10.993h-2.439z" clip-rule="evenodd"/><path fill="#615538" stroke="#1D1911" stroke-linecap="round" stroke-linejoin="round" stroke-width="1.5" d="M68.459 18.205v.946c0 .706.682 1.279 1.524 1.279h2.857c.842 0 1.525-.573 1.525-1.28v-.945c0-.706-.683-1.278-1.525-1.278h-2.857c-.842 0-1.525.572-1.525 1.278"/><path fill="#964436" fill-rule="evenodd" stroke="#220F0C" stroke-linecap="round" stroke-linejoin="round" stroke-width="3" d="M85.752 2.672h23.432V14.07H85.752z" clip-rule="evenodd"/><path fill="#353331" d="M92.5 2.27v12.672Z"/><path stroke="#21100D" stroke-width="3" d="M92.5 2.27v12.672"/><path fill="#404040" fill-rule="evenodd" stroke="#171717" stroke-linecap="round" stroke-linejoin="round" stroke-width="1.5" d="m78.842 2.59 12.911.6v9.795l-12.91.6z" clip-rule="evenodd"/><path fill="#333" fill-rule="evenodd" stroke="#171717" stroke-linecap="round" stroke-linejoin="round" stroke-width="1.58998" d="M78.919 6.11h12.82v4.094H78.92z" clip-rule="evenodd"/><path fill="#3B3937" stroke="#171717" stroke-linecap="round" stroke-linejoin="round" stroke-width="1.5" d="M141.584 4.29h-2.64v7.927h2.64z"/><path fill="#404040" stroke="#171717" stroke-linecap="round" stroke-linejoin="round" stroke-width="1.58998" d="M80.846 5.691H79.82v1.191h1.027zm0 3.739H79.82v1.19h1.027z"/><path fill="#404040" fill-rule="evenodd" d="M82.919 6.738v.476Z" clip-rule="evenodd"/><path stroke="#171717" stroke-linecap="round" stroke-linejoin="round" stroke-width="1.58998" d="M82.919 6.738v.476"/><path fill="#404040" fill-rule="evenodd" d="M84.163 9.102v.476Z" clip-rule="evenodd"/><path stroke="#171717" stroke-linecap="round" stroke-linejoin="round" stroke-width="1.58998" d="M84.163 9.102v.476"/><path fill="#404040" fill-rule="evenodd" d="M85.406 6.738v.476Z" clip-rule="evenodd"/><path stroke="#171717" stroke-linecap="round" stroke-linejoin="round" stroke-width="1.58998" d="M85.406 6.738v.476"/><path fill="#404040" fill-rule="evenodd" d="M86.65 9.102v.476Z" clip-rule="evenodd"/><path stroke="#171717" stroke-linecap="round" stroke-linejoin="round" stroke-width="1.58998" d="M86.65 9.102v.476"/><path fill="#404040" fill-rule="evenodd" d="M87.893 6.738v.476Z" clip-rule="evenodd"/><path stroke="#171717" stroke-linecap="round" stroke-linejoin="round" stroke-width="1.58998" d="M87.893 6.738v.476"/><path fill="#454545" stroke="#171717" stroke-linecap="round" stroke-linejoin="round" stroke-width="1.58998" d="M91.722 5.727h-1.933v4.86h1.933z"/><path fill="#404040" fill-rule="evenodd" stroke="#171717" stroke-linecap="round" stroke-linejoin="round" stroke-width="3.00095" d="M43.644 1.5h13.673v13.523H43.644z" clip-rule="evenodd"/><path fill="#4F4D4A" d="M124.588 5.203v5.823Z"/><path stroke="#171717" stroke-width="3" d="M124.588 5.203v5.823"/></g><defs><clipPath id="a"><path fill="#fff" d="M0 0h149.825v21.18H0z"/></clipPath></defs></svg>