<svg xmlns="http://www.w3.org/2000/svg" id="Layer_2" width="131.58" height="14.45" data-name="Layer 2" viewBox="0 0 131.58 14.45"><defs><style>.cls-2{fill:#646b78}.cls-6{stroke-width:3px;stroke:#151518;fill:#4d4d57}</style></defs><g id="Layer_6" data-name="Layer 6"><g id="layer1"><g id="g911"><rect id="rect17870" width="113.58" height="7.21" x="16.5" y="3.42" rx="1.17" ry="1.17" style="stroke-width:3px;stroke:#151518;fill:#474750"/><rect id="rect20102" width="34.35" height="11.45" x="37.02" y="1.5" class="cls-6" rx=".52" ry=".52"/><rect id="rect24670" width="42.24" height="10.43" x="70.59" y="1.98" class="cls-6" rx="1.33" ry="1.33"/><g id="g20821"><path id="rect36327" d="M44.72 3.58h1.74v7.26h-1.74z" class="cls-2"/><path id="rect36327-3" d="M48.5 3.62h1.74v7.26H48.5z" class="cls-2"/><path id="rect36327-3-8" d="M52.35 3.62h1.74v7.26h-1.74z" class="cls-2"/><path id="rect36327-3-8-9" d="M56.19 3.62h1.74v7.26h-1.74z" class="cls-2"/><path id="rect36327-3-3" d="M59.99 3.67h1.74v7.26h-1.74z" class="cls-2"/><path id="rect36327-3-8-7" d="M63.84 3.67h1.74v7.26h-1.74z" class="cls-2"/><path id="rect36327-3-8-9-1" d="M67.38 3.67h1.74v7.26h-1.74z" class="cls-2"/></g><path id="rect37257" d="M70.77 4.97h40.3v4.17h-40.3z" style="stroke:#151518;fill:#464956;stroke-width:2px"/><path id="rect36327-3-8-9-1-5" d="M73.19 5.8h1.74v2.51h-1.74z" class="cls-2"/><path id="rect36327-3-8-9-1-5-6" d="M76.52 5.81h1.74v2.51h-1.74z" class="cls-2"/><path id="rect36327-3-8-9-1-5-6-0" d="M79.88 5.81h1.74v2.51h-1.74z" class="cls-2"/><path id="rect36327-3-8-9-1-5-1" d="M83.24 5.81h1.74v2.51h-1.74z" class="cls-2"/><path id="rect36327-3-8-9-1-5-6-6" d="M86.58 5.82h1.74v2.51h-1.74z" class="cls-2"/><path id="rect36327-3-8-9-1-5-6-0-2" d="M89.94 5.82h1.74v2.51h-1.74z" class="cls-2"/><path id="rect36327-3-8-9-1-5-3" d="M93.38 5.81h1.74v2.51h-1.74z" class="cls-2"/><path id="rect36327-3-8-9-1-5-6-5" d="M96.71 5.82h1.74v2.51h-1.74z" class="cls-2"/><path id="rect36327-3-8-9-1-5-3-4-5" d="M100.22 5.81h1.74v2.51h-1.74z" class="cls-2"/><path id="rect36327-3-8-9-1-5-6-5-0-5" d="M103.55 5.82h1.74v2.51h-1.74z" class="cls-2"/><path id="rect36327-3-8-9-1-5-6-0-9-8-1" d="M106.91 5.82h1.74v2.51h-1.74z" class="cls-2"/><rect id="rect45574" width="27.53" height="10.37" x="1.5" y="1.92" class="cls-6" rx=".63" ry=".63"/><path id="rect14302" d="M37.82 2.35h5.77v9.61h-5.77z" style="fill:#2f2f36;stroke-width:3px;stroke:#151518"/><rect id="rect15445" width="5.04" height="4.14" x="38.22" y="5.2" rx="1.12" ry="1.12" style="stroke-width:3px;stroke:#151518;fill:#3e3e47"/></g></g></g><rect width="4.37" height="6.39" x="43.26" y="4.04" rx="1.31" ry="1.31" style="fill:#151518"/></svg>