<svg xmlns="http://www.w3.org/2000/svg" width="110" height="110" fill="none" viewBox="0 0 110 110"><g clip-path="url(#a)" transform="translate(-.385 .196)scale(1.0055)"><path fill="#4e4a41" d="M55.476 46.033c-.351.15-.67-.403-.67-.403l-.104-.18a.87.87 0 0 0-1.185-.318l-2.497 1.442.746 1.587L31.09 60.098l2.914 5.047 13.087-6.529 14.403-8.315s-4.171-5.052-6.018-4.268"/><path fill="#403d35" d="M54.19 46.225a.684.684 0 1 0-.684-1.184.684.684 0 0 0 .684 1.184"/><path stroke="#38352e" stroke-linecap="round" stroke-width="0.985937" d="M55.476 46.033c-.351.15-.67-.403-.67-.403l-.104-.18a.87.87 0 0 0-1.185-.318l-2.624 1.516.873 1.513L31.09 60.098l2.914 5.047 13.087-6.529 14.403-8.315s-4.171-5.052-6.018-4.268z"/><path fill="#3f3b37" stroke="#373430" stroke-width="0.492969" d="m46.21 60.723-.52.272a.49.49 0 0 0-.212.66l.978 1.89c.068.13.188.218.321.251.057.4-.035 1.198-1.375 1.88-1.864.95-2.484.927-2.963.88-.48-.049.311.539.311.539s.86.364 2.94-.921c1.777-1.099 1.666-1.88 1.59-2.415l-.012-.083.367-.192a.49.49 0 0 0 .213-.658l-.979-1.89a.49.49 0 0 0-.658-.213z"/><path fill="#3d3e42" stroke="#313235" stroke-linecap="round" stroke-width="0.985937" d="M36.267 71.332s-1.346 4.12-1.001 6.941c0 0-.1.805 1.159.615 1.09-.164 4.736-.887 5.672-1.074a.36.36 0 0 0 .285-.264l.146-.578a.65.65 0 0 0-.098-.536l-.794-1.107s-.34-.297-.26-1.134.17-5.008.17-5.008-.347-1.14.827-1.916c0 0 .51-.535-.295-1.17-.804-.637-.611-1.524-.453-1.714l-.306-.628-5.171 2.577s-.511.239-.507.49c.004.252-1.207.697-1.207.697s-.121.253.6.33c.722.078 1.307.7 1.489 1.088.188.4.295.76.058 1.467a65 65 0 0 1-.314.924z"/><path fill="#46423a" stroke="#37352e" stroke-linecap="round" stroke-width="0.492969" d="m53.705 46.872-.8-1.386-1.905 1.1 1.075 1.862 1.429-.825a.547.547 0 0 0 .2-.75z"/><path fill="#686664" stroke="#343332" stroke-width="0.492969" d="M88.482 29.94a.433.433 0 0 1 .584.157l1.46 2.529a.433.433 0 0 1-.157.584.433.433 0 0 1-.584-.156l-1.46-2.53a.433.433 0 0 1 .157-.583z"/><path fill="#7a7875" stroke="#343332" stroke-linecap="round" stroke-width="0.492969" d="m92.848 29-11.533 6.658.604 1.048 11.534-6.66z"/><path fill="#403d36" stroke="#37352e" stroke-linecap="round" stroke-width="0.985937" d="m80.934 35.002-1.682.972 1.197 2.074 1.683-.972z"/><path fill="#46423a" stroke="#37352e" stroke-linecap="round" stroke-width="0.985937" d="M104.139 18.544 79.611 32.705l1.02 1.767 24.528-14.16Z"/><path fill="#524d47" stroke="#363330" stroke-width="0.492969" d="m63.744 33.769 4.867-2.81c1.069-.618 2.2-.1 2.823.98.574.994 2.415 1.738 3.41 1.163l5.184-2.993s.293-.226-.012-.558c-.304-.332-.608-.1-.608-.1L74.7 32.169s-1.306.768-2.55-.898-2.555-1.981-3.793-1.266l-5.09 2.938s-.43.234-.185.657c.244.423.662.168.662.168z"/><path fill="#7a7875" stroke="#343332" stroke-linecap="round" stroke-width="0.985937" d="m92.493 28.063 1.883-1.088a.27.27 0 0 1 .367.099l.99 1.714a.27.27 0 0 1-.099.367l-1.883 1.088a.27.27 0 0 1-.367-.099l-.99-1.714a.27.27 0 0 1 .099-.367z"/><path fill="#4e4a41" stroke="#37352e" stroke-linecap="round" stroke-width="0.985937" d="m75.956 31.387 2.434-1.405a.45.45 0 0 1 .617.166l2.316 4.01a.45.45 0 0 1-.166.617l-2.434 1.406a.45.45 0 0 1-.617-.166l-2.315-4.01a.444.444 0 0 1 .165-.618z"/><path fill="#403d35" fill-rule="evenodd" d="m107.974 16.148-3.661 2.114a.3.3 0 0 0-.102.41l.874 1.514a.29.29 0 0 0 .401.107l3.661-2.114a.29.29 0 0 0 .107-.4l-.88-1.524a.29.29 0 0 0-.4-.107m-.402 1.6c.05.088-.288.378-.755.648-.468.27-.888.418-.938.33-.051-.088.287-.378.754-.647.468-.27.888-.418.939-.33" clip-rule="evenodd"/><path stroke="#37352e" stroke-linecap="round" stroke-width="0.985937" d="m107.974 16.148-3.661 2.114a.3.3 0 0 0-.102.41l.874 1.514a.29.29 0 0 0 .401.107l3.661-2.114a.29.29 0 0 0 .107-.4l-.88-1.524a.29.29 0 0 0-.4-.107z"/><path stroke="#37352e" stroke-linecap="round" stroke-width="0.492969" d="M107.571 17.748c.05.088-.287.377-.755.647-.467.27-.887.418-.937.33s.287-.377.754-.647.887-.418.938-.33z"/><path fill="#4e4a41" stroke="#37352e" stroke-linecap="round" stroke-width="0.985937" d="m89.837 22.048.826-.477a.793.793 0 0 1 1.085.29l2.98 5.164-2.264 1.308-2.944-5.1a.863.863 0 0 1 .317-1.185z"/><path fill="#605f5c" d="M94.338 29.085a.403.403 0 1 0-.403-.698.403.403 0 0 0 .403.698"/><path fill="#3f3b37" stroke="#363330" stroke-width="0.492969" d="m68.597 29.414.733 1.27c.299.519-.236.813-.236.813s-.283.22-.703.054c-.415-.156-.834.241-.834.241-1.147 1.142-3.443 2.566-3.443 2.566s-1.384.926-3.169 1.378c-.787.2-1.207.401-1.428.557a.6.6 0 0 0-.248.425c-.006.088-.055.272-.285.532-.374.427-.604.151-.604.151l-1.076-1.862s-.124-.338.433-.448c.352-.075.518-.03.604.019a.56.56 0 0 0 .492-.002c.245-.114.629-.377 1.196-.959 1.284-1.32 2.778-2.055 2.778-2.055s2.381-1.276 3.943-1.698c0 0 .554-.165.627-.602s.397-.582.397-.582.523-.316.822.202z"/><path fill="#3d3e42" stroke="#313235" stroke-linecap="round" stroke-width="0.985937" d="M28.803 62.956a.35.35 0 0 1 .478.12l2.865 4.962a.34.34 0 0 1-.125.467l-1.059.612c-.466.269-1.071.939-1.716 1.668-.641.724-16.084 19.232-18.154 21.683-.128.144-.866.528-1.01.4-1.275-1.084-6.577-6.065-9.12-10.762-.067-.117-.433-.653.951-1.48 1.544-.92 20.768-12.513 21.301-12.835.163-.098 3.21-2.333 3.969-3.927.239-.491.41-.83.533-1.056s.467-.242.602-.009c.11.19.31.244.485.157z"/><path fill="#46423a" stroke="#37342e" stroke-linecap="round" stroke-width="0.985937" d="m50.074 60.185 9.211 13.291a.896.896 0 0 0 1.433.062l3.93-4.752a.905.905 0 0 0 .05-1.087l-7.432-10.72a.91.91 0 0 0-1.065-.331l-5.71 2.182a.898.898 0 0 0-.417 1.355z"/><path fill="#605a53" stroke="#373430" stroke-linecap="round" stroke-width="0.985937" d="m29.852 57.95.55.952c.11.191.343.254.534.144l2.116-1.222a.386.386 0 0 0 .143-.534l-.147-.254a.386.386 0 0 0-.534-.143l-.338.195a.38.38 0 0 1-.407-.02c-.09-.06-.224-.095-.404.009z"/><path fill="#403d36" stroke="#37352e" stroke-linecap="round" stroke-width="0.977464" d="m57.09 51.492 1.332-.77a.72.72 0 0 1 .985.264l.269.466a.72.72 0 0 1-.264.985l-1.333.77a.72.72 0 0 1-.985-.265l-.275-.476a.72.72 0 0 1 .27-.974z"/><path fill="#48453c" stroke="#37342e" stroke-linecap="round" stroke-width="0.985937" d="m28.909 60.498 2.356 5.793 2.324-1.864-2.87-4.974z"/><path fill="#4e4a41" stroke="#37342e" stroke-linecap="round" stroke-width="0.985937" d="m30.007 58.735-.49-.041a.2.2 0 0 0-.075.015l-.815.47a.12.12 0 0 0-.045.167l.52.899a.12.12 0 0 0 .166.045l1.174-.678a.12.12 0 0 0 .045-.167l-.379-.656c-.018-.031-.057-.05-.101-.054z"/><path fill="#433f38" stroke="#37342e" stroke-linecap="round" stroke-width="0.492969" d="m31.41 60.648-1.703.983.666 1.153 1.702-.983z"/><path fill="#3c3934" d="m42.513 61.56.12.622s-.484.97.311 2.007l-.02.012a.574.574 0 1 0 .573.995.63.63 0 0 0 .242-.267c.325.222.732.438 1.242.637 0 0 .64-.016.327-.118-.33-.106-.723-.372-.723-.372s-2.235-1.673-.363-3.685-1.71.169-1.71.169m.91 3.312a.27.27 0 0 1-.367-.099.27.27 0 0 1 .099-.367.27.27 0 0 1 .367.098.27.27 0 0 1-.099.367"/><path stroke="#373430" stroke-width="0.492969" d="m42.632 62.182-.12-.622s3.581-2.18 1.71-.169c-1.872 2.012.363 3.685.363 3.685s.394.266.723.372c.313.102-.327.118-.327.118a6.2 6.2 0 0 1-1.242-.637.63.63 0 0 1-.242.267.574.574 0 0 1-.784-.21c-.159-.276-.044-.638.231-.797-.795-1.036-.312-2.007-.312-2.007z"/><path fill="#534f46" stroke="#38352e" stroke-linecap="round" stroke-width="0.985937" d="m28.908 60.498 3.14 4.875 12.907-7.848s1.855.623 3.314-.05c0 0 .295-.2.697.57s1.22 1.723 1.22 1.723L34.62 67.555l-.375-.136-2.155 1.033s-.76.1-1.243-.736-3.124-5.9-3.124-5.9-.201-.518.333-.84c.533-.323.863-.485.852-.479z"/><path fill="#676159" stroke="#373430" stroke-linecap="round" stroke-width="0.985937" d="m30.75 59.506.8 1.386a.65.65 0 0 0 .884.237l12.02-6.94a.297.297 0 0 0 .108-.4.297.297 0 0 1 .107-.401l7.365-4.252a.297.297 0 0 0 .107-.4l-1.362-2.36a.71.71 0 0 0-.968-.26l-7.756 4.479a.3.3 0 0 0-.109.105c-.054.101-.217.308-.619.54l-4.645 2.682a.3.3 0 0 0-.146.212l-.165 1.18a1.25 1.25 0 0 1-.612.919l-4.92 2.868c-.12.084-.159.261-.09.405z"/><path fill="#5e5d5a" stroke="#343332" stroke-linecap="round" stroke-width="0.985937" d="m55.47 45.97-2.325 2.865-2.74 1.582-.702 1.083-16.962 9.793a.37.37 0 0 0-.128.51l.52.9a.456.456 0 0 0 .606.172l46.484-26.203.913-1.204c.279-.373.058-.95-.418-1.042l-3.953-.738zm-4.835 13.595 5.56-2.49a.97.97 0 0 0 .4-.358l2.037-3.533a1 1 0 0 0 .117-.335c.019-.237-.048-.523-.173-.69-.203-.279-.853-.721-1.375-.208-.876.83-2.193 1.774-2.424 1.935l-.074.043-5.873 3.39a.86.86 0 0 0-.066 1.45l1.023.721a.91.91 0 0 0 .848.075z"/><path fill="#44403b" d="M55.291 56.637a.952.952 0 1 0-.952-1.65.952.952 0 0 0 .952 1.65m1.551-1.856a.623.623 0 1 0-.623-1.079.623.623 0 0 0 .623 1.079m-5.986 3.655a.623.623 0 1 0-.623-1.078.623.623 0 0 0 .623 1.078m1.958-.836a.745.745 0 1 0-.745-1.29.745.745 0 0 0 .745 1.29m5.542-10.633a.696.696 0 1 0-.697-1.206.696.696 0 0 0 .697 1.206m2.55-1.475a.696.696 0 1 0-.696-1.205.696.696 0 0 0 .696 1.205m2.541-1.465a.696.696 0 1 0-.696-1.206.696.696 0 0 0 .696 1.206m2.549-1.471a.696.696 0 1 0-.696-1.206.696.696 0 0 0 .696 1.206m2.539-1.466a.696.696 0 1 0-.696-1.207.696.696 0 0 0 .696 1.206m2.551-1.473a.696.696 0 1 0-.696-1.205.696.696 0 0 0 .696 1.205m2.549-1.471a.696.696 0 1 0-.696-1.206.696.696 0 0 0 .696 1.206m2.539-1.466a.696.696 0 1 0-.696-1.206.696.696 0 0 0 .696 1.206M60.166 46.994a.696.696 0 1 0-.695-1.205.696.696 0 0 0 .695 1.205m2.539-1.465a.696.696 0 1 0-.696-1.206.696.696 0 0 0 .696 1.206m2.561-1.479a.696.696 0 1 0-.696-1.206.696.696 0 0 0 .696 1.206m2.539-1.466a.696.696 0 1 0-.696-1.206.696.696 0 0 0 .696 1.206m2.549-1.472a.696.696 0 1 0-.696-1.206.696.696 0 0 0 .696 1.206m2.529-1.46a.696.696 0 1 0-.696-1.206.696.696 0 0 0 .696 1.206m2.572-1.485a.696.696 0 1 0-.696-1.206.696.696 0 0 0 .696 1.206m2.528-1.461a.696.696 0 1 0-.696-1.205.696.696 0 0 0 .695 1.205M57.51 48.457a.44.44 0 1 0-.44-.762.44.44 0 0 0 .44.762"/><path fill="#7a7975" stroke="#343332" stroke-linecap="round" stroke-width="0.985937" d="M32.276 60.487a1.039 1.039 0 1 0-1.039-1.8 1.039 1.039 0 0 0 1.039 1.8z"/><path fill="#3a3731" stroke="#37352e" stroke-linecap="round" stroke-width="0.985937" d="m58.932 50.77 3.618-2.09a.52.52 0 0 1 .718.192l.666 1.154a.52.52 0 0 1-.192.717l-3.62 2.09a.52.52 0 0 1-.717-.192l-.666-1.154a.53.53 0 0 1 .193-.718Z"/><path fill="#7a7875" stroke="#343332" stroke-linecap="round" stroke-width="0.985937" d="m58.954 48.71-11.686 7.325c-.153.102-.188.334-.05.523l.596.911c.12.185.327.249.475.163l11.697-7.402c.153-.102.176-.355.039-.544l-.598-.84a.6.6 0 0 0-.167-.143c-.102-.055-.217-.059-.306.007z"/><path fill="#403d36" stroke="#37352e" stroke-linecap="round" stroke-width="0.985937" d="M58.387 47.216 78.873 35.39a.27.27 0 0 1 .367.098l2.12 3.672a.27.27 0 0 1-.099.367L60.776 51.353a.27.27 0 0 1-.367-.098l-2.12-3.672a.27.27 0 0 1 .098-.367z"/><path fill="#514e48" d="M60.695 46.93a.247.247 0 1 0-.427.246l1.411 2.445a.247.247 0 1 0 .427-.247zm1.91-1.104a.247.247 0 0 0-.427.247l1.411 2.444a.246.246 0 1 0 .427-.246zm1.914-1.106a.246.246 0 1 0-.427.247l1.411 2.445a.247.247 0 0 0 .427-.247zm1.911-1.102a.247.247 0 0 0-.428.247l1.411 2.444a.246.246 0 1 0 .427-.246zm1.91-1.103a.246.246 0 1 0-.428.246l1.405 2.434a.246.246 0 1 0 .427-.246zm1.913-1.105a.247.247 0 0 0-.427.247l1.406 2.434a.246.246 0 1 0 .426-.247zm1.91-1.103a.246.246 0 1 0-.426.246l1.405 2.434a.246.246 0 1 0 .427-.246zm1.915-1.105a.246.246 0 1 0-.427.247l1.405 2.434a.246.246 0 1 0 .427-.247zm1.91-1.103a.246.246 0 1 0-.427.246l1.405 2.434a.246.246 0 0 0 .427-.247zm1.912-1.104a.246.246 0 1 0-.427.247l1.405 2.434a.247.247 0 0 0 .427-.247z"/></g><defs><clipPath id="a"><path fill="#fff" d="M.086 0h110v110h-110z"/></clipPath></defs></svg>