<svg xmlns="http://www.w3.org/2000/svg" id="Layer_2" width="179.79024" height="26.139767" data-name="Layer 2" version="1.1" viewBox="0 0 179.79024 26.139767"><defs id="defs1"><style id="style1">.cls-1,.cls-2{fill:#242424;stroke:#171717;stroke-width:2px;stroke-miterlimit:5.89}.cls-2{fill:#464646}</style></defs><g id="Layer_14" data-name="Layer 14" transform="translate(.01 .01)"><path id="path8" d="M54.77 4.92v7.37c-.01.88-.17 2.4-.95 2.22-4.25-1.07-12.82-.64-16.99.48-.28.07-.55.12-.84.11l-33.67-.14c-.46 0-.84-.72-.83-1.6l.06-10.27c0-.88.39-1.6.85-1.6l33.43.13c.39 0 .77.09 1.13.21 3.27 1.16 9.5 1.38 14.51.61 1.7-.26 3.3.91 3.29 2.45v.03z" style="stroke-miterlimit:5.89;stroke-width:3px;stroke:#171a14;fill:#424b3b"/><path id="rect1" d="M54.02 1.87h62.96c1.27 0 2.3.92 2.3 2.06v8.57c0 1.14-1.03 2.06-2.3 2.06H54.02c-1.27 0-2.3-.92-2.3-2.06V3.93c0-1.14 1.03-2.06 2.3-2.06z" style="stroke-miterlimit:5.89;stroke-width:3px;fill:#424b3b;stroke:#161a14"/><path id="path2" d="m64.95 22.47.03-11.54h-2.85l-.03 11.51h2.85z" style="fill:#151719;fill-opacity:1"/><path id="path4" d="m64 23.28.33-3.12c.11-.98-.13-1.97-.52-2.22l-.04-.02c-.39-.25-.8.34-.9 1.31l-.33 3.12c-.11.98.13 1.97.52 2.22l.04.02c.39.25.8-.34.9-1.31z" style="stroke-miterlimit:5.89;stroke-width:3px;fill:#151719;fill-opacity:1;stroke:#14181a;stroke-opacity:1"/><path id="rect2" d="M59.34 5.59h113.73c1.36 0 2.46.79 2.46 1.76v1.43c0 .97-1.1 1.76-2.46 1.76H59.34c-1.36 0-2.46-.79-2.46-1.76V7.35c0-.97 1.1-1.76 2.46-1.76z" style="stroke-miterlimit:5.89;fill:#272c22;stroke-width:3px;stroke:#171a14"/><path id="path28" d="M53.79 3.41v9.62c-2.17-.68-5.04-.69-9.66-.51V4.35c2.94.08 6.53-.07 9.66-.95z" style="fill:#2a2f33"/><path id="rect3" d="M165.44 4.78h10.51c1.29 0 2.33.75 2.33 1.68v3.21c0 .93-1.04 1.68-2.33 1.68h-10.51c-1.29 0-2.33-.75-2.33-1.68V6.46c0-.93 1.04-1.68 2.33-1.68z" style="stroke-miterlimit:5.89;stroke-width:3px;stroke:#161a14;fill:#404c39"/><path id="path12" d="M99.25 9.36V6.77c0-.32-.29-.58-.65-.58H67.02c-.36 0-.65.26-.65.58v2.59c0 .32.29.58.65.58H98.6c.36 0 .65-.26.65-.58z" class="cls-1"/><path id="path14" d="M67.92 6.21c.02.05 0 .19 0 .19v3.31s.04.14 0 .18c-.04.07-.18.09-.18.09l-2.9.49-3.83.05c-.16 0-.29-.11-.29-.25v-4.4c0-.14.13-.25.29-.25l3.82-.04 2.92.55s.15.04.16.07h.01z" class="cls-1"/><path id="path16" d="M89.52 10.32c-.03-.08 0-.28 0-.28V6.08s-.07-.2-.02-.26c.08-.1.32 0 .32 0l10.13-1.2 4.74-.03c.28 0 .5.16.5.37l.03 6.19c0 .2-.22.37-.5.37h-4.65l-10.29-1.16s-.25 0-.27-.03z" class="cls-1"/><path id="path18" d="M80.67 8.06c0 1.61 1.46 2.92 3.26 2.92s3.26-1.31 3.26-2.92-1.46-2.92-3.26-2.92-3.26 1.31-3.26 2.92z" class="cls-1"/><path id="path20" d="M93.66 10.58V5.54c0-.39-.35-.7-.78-.7h-2.52c-.44 0-.78.31-.78.7v5.05c0 .39.35.7.78.7h2.52c.44 0 .78-.31.78-.7z" class="cls-2"/><path id="path22" d="M77.15 10.04V6.08c0-.39-.35-.7-.78-.7h-2.52c-.44 0-.78.31-.78.7v3.96c0 .39.35.7.78.7h2.52c.44 0 .78-.31.78-.7z" class="cls-2"/></g></svg>