<svg xmlns="http://www.w3.org/2000/svg" width="110" height="110" fill="none" viewBox="0 0 110 110"><g clip-path="url(#a)"><path fill="#373B35" stroke="#323630" stroke-miterlimit="3.99393" stroke-width="0.452145" d="m41.801 49.067 2.524-1.456c.269-.156.598-.093.736.146l1.44 2.494c.138.24.028.555-.241.71l-2.524 1.458c-.27.155-.598.092-.736-.147l-1.44-2.493c-.138-.24-.028-.556.241-.712Z"/><path fill="#333D2E" stroke="#303A2C" stroke-miterlimit="3.99393" stroke-width="0.452145" d="M40.995 69.947s-1.59.054-2.462-1.478l.398-.256s1.232 1.536 2.194 1.313c0 0 .166.104.144.25-.022.145-.274.17-.274.17Z"/><path fill="#3A4635" fill-rule="evenodd" stroke="#303A2C" stroke-miterlimit="3.99393" stroke-width="0.452145" d="M37.784 68.669c.092.618.32 1.393.6 1.736a1.95 1.95 0 0 0 1.176.684c.877.166 1.901-.15 2.746-.57.829-.411 1.397-.767 1.757-1.2.373-.45.498-.955.52-1.6a1.2 1.2 0 0 0-.101-.522c-.026-.98-.293-2.316-.37-2.679-1.716 1.136-2.918 1.923-3.37 2.198-1.403.846-2.276 1.45-2.958 1.953Zm.608.244 4.033-2.577.157.06c.173.07.401.174.626.308.226.135.436.293.585.47q.222.258.214.526c-.02.575-.126.936-.388 1.251-.275.333-.745.644-1.57 1.053-.809.402-1.693.65-2.381.52a1.37 1.37 0 0 1-.838-.483c-.2-.245-.36-.606-.438-1.128Z" clip-rule="evenodd"/><path fill="#3F4C39" d="m42.569 58.054.218.378c.133.23.362.35.521.258l6.035-3.484c.15-.086.17-.35.037-.58l-.236-.409L79.61 36.443s.657-.499 1.654 1.067c1 1.55-.806 2.566-.806 2.566S53.933 58.01 44.123 64.511c-1.722 1.14-2.929 1.93-3.382 2.205-1.91 1.153-2.837 1.856-3.638 2.465-.486.368-.925.702-1.51 1.08-1.55 1-1.466 6.099-.827 7.459.64 1.36-1.34 2.077-1.34 2.077s-3.467 2.081-4.7 1.051-2.39.675-2.39.675L13.42 95.936a1.6 1.6 0 0 1-.419.334l-2.75 1.548s-8.58-8.917-9.109-10.34.217-1.974.217-1.974 16.205-10.008 20.01-12.816c2.994-2.207 3.529-1.718 3.529-1.718s.862.631 2.16.692c1.3.062 2.497-1.586 2.497-1.586l1.588-2.34c1.583-2.603 6.984-7.09 6.984-7.09z"/><path fill="#32393E" d="M38.243 68.337c.145-.175.3-.377.473-.611.19-.262.315-.3.375-.29l-.034-.04c-.668-.905-2.679-3.176-5.345-2.634a1 1 0 0 0-.1.025q-.29.293-.565.587c-.79.84-1.483 1.669-1.905 2.363l-1.588 2.34s-.075.102-.207.256c-.332.384-1.024 1.083-1.81 1.28a1.7 1.7 0 0 1-.486.05 4.44 4.44 0 0 1-1.907-.54c-.197-.015-.51.26-.626.411-1.028 1.445-4.787 7.419 1.948 9.249a.5.5 0 0 1 .158.096c.08.064.156.124.229.066a1 1 0 0 1 .189-.128c.446-.308 1.054-.494 1.683.031.212.177.49.263.805.282q.033.003.068.003c.225-.006.472-.029.732-.066 1.174-.223 2.502-.933 2.943-1.182.097-.055.151-.088.151-.088s.124-.044.3-.133c.483-.243 1.358-.817 1.131-1.697a1.4 1.4 0 0 0-.09-.247c-.559-1.19-.693-5.242.32-6.907.145-.238.313-.427.507-.552.511-.33.912-.627 1.33-.943l.18-.137a42 42 0 0 1 1.14-.844"/><path stroke="#2E3438" stroke-miterlimit="3.99393" stroke-width="0.452145" d="M38.243 68.337c.145-.175.3-.377.473-.611.19-.262.315-.3.375-.29m-.849.901-.044.032m.044-.032-.044.032m.893-.933c.028.029.042.03.042.025 0-.006-.014-.02-.042-.025Zm0 0-.034-.04c-.668-.905-2.679-3.176-5.345-2.634a1 1 0 0 0-.1.025q-.29.293-.565.587c-.79.84-1.483 1.669-1.905 2.363l-1.588 2.34s-.075.102-.207.256c-.332.384-1.024 1.083-1.81 1.28a1.7 1.7 0 0 1-.486.05m0 0c-.002 0 .002 0 0 0Zm0 0a4.44 4.44 0 0 1-1.907-.54c-.197-.015-.51.26-.626.411-1.028 1.445-4.787 7.419 1.948 9.249a.5.5 0 0 1 .158.096c.08.064.156.124.229.066a1 1 0 0 1 .189-.128c.446-.308 1.054-.494 1.683.031.212.177.49.263.805.282q.033.003.068.003c.225-.006.472-.029.732-.066 1.174-.223 2.502-.933 2.943-1.182.097-.055.151-.088.151-.088s.124-.044.3-.133c.483-.243 1.358-.817 1.131-1.697a1.4 1.4 0 0 0-.09-.247c-.559-1.19-.693-5.242.32-6.907.145-.238.313-.427.507-.552.511-.33.912-.627 1.33-.943l.18-.137c.325-.247.671-.51 1.096-.812"/><path fill="#3D443C" stroke="#323630" stroke-miterlimit="3.99393" stroke-width="0.90429" d="m74.128 45.22-13.491 9.842.543.744 13.491-9.841z"/><path fill="#393E38" stroke="#323630" stroke-miterlimit="3.99393" stroke-width="0.90429" d="m60.363 54.688-1.582 1.154 1.154 1.582 1.582-1.154z"/><path fill="#4D673D" stroke="#304026" stroke-miterlimit="3.99393" stroke-width="0.90429" d="M72.93 43.717a1.156 1.156 0 0 1 1.618.156l.457.56c.4.487.331 1.219-.155 1.62-.487.4-1.219.33-1.62-.156l-.456-.56a1.14 1.14 0 0 1 .155-1.62Z"/><path fill="#2F2F2D" d="M74.494 45.62a.23.23 0 1 0-.23-.398.23.23 0 0 0 .23.399"/><path fill="#353933" stroke="#323630" stroke-miterlimit="3.99393" stroke-width="0.452145" d="m42.027 47.5.848-.49a.54.54 0 0 1 .74.199l.431.748a.54.54 0 0 1-.198.739l-.847.49a.54.54 0 0 1-.74-.199l-.432-.748a.54.54 0 0 1 .198-.74Z"/><path fill="#373B35" stroke="#323630" stroke-miterlimit="3.99393" stroke-width="0.452145" d="m44.106 46.887-2.912 1.681-.167-.29s-.261-.22.437-.624l1.756-1.013s.535-.363.673-.123z"/><path fill="#32393E" stroke="#2E3438" stroke-miterlimit="3.99393" stroke-width="0.452145" d="M80.41 40.108c-.872.589-13.824 9.345-24.735 16.676l-1.255-2.766s-.57-1.183.562-1.814c1.308-.729 23.278-13.812 23.278-13.812s.903-.508 1.388.355c.371.66.653 1.166.761 1.361Z"/><path fill="#3A3E38" stroke="#323630" stroke-miterlimit="3.99393" stroke-width="0.90429" d="m28.083 57.255 1.598 2.768-.517.464-2.853 1.647-1.727-2.992 2.942-1.7z"/><path stroke="#303A2C" stroke-miterlimit="3.99393" stroke-width="0.90429" d="m42.569 58.054.218.378c.133.23.362.35.521.258l6.035-3.484c.15-.086.17-.35.037-.58l-.236-.409L79.61 36.443s.657-.499 1.654 1.067c1 1.55-.806 2.566-.806 2.566S53.933 58.01 44.123 64.511c-1.722 1.14-2.929 1.93-3.382 2.205-1.91 1.153-2.837 1.856-3.638 2.465-.486.368-.925.702-1.51 1.08-1.55 1-1.466 6.099-.827 7.459.64 1.36-1.34 2.077-1.34 2.077s-3.467 2.081-4.7 1.051-2.39.675-2.39.675L13.42 95.936a1.6 1.6 0 0 1-.419.334l-2.75 1.548s-8.58-8.917-9.109-10.34.217-1.974.217-1.974 16.205-10.008 20.01-12.816c2.994-2.207 3.529-1.718 3.529-1.718s.862.631 2.16.692c1.3.062 2.497-1.586 2.497-1.586l1.588-2.34c1.583-2.603 6.984-7.09 6.984-7.09z"/><path fill="#3F433D" stroke="#323630" stroke-miterlimit="3.99393" stroke-width="0.90429" d="m57.456 38.956 5.805-3.351 2.85 4.937-5.805 3.352-9.024 3.278-14.902 8.603c.23.4-.179.635-.179.635l-1.645.95c-.51.294-.74-.105-.74-.105l-2.952 1.705-1.182 1.062-1.598-2.768 1.502-.508 2.982-1.722c-.218-.446.317-.742.317-.742l1.486-.858c.538-.31.83.08.83.08l14.86-8.58z"/><path fill="#3A4332" fill-rule="evenodd" d="m107.458 18.156-4.503 2.52s-1.542 1.13-2.495 1.667c-.943.531-41.84 23.997-41.84 23.997s-6.399 3.774-10.846 6.368l-4.057 2.37q-.409.226-.78.436a76 76 0 0 1-.778.436c-4.253 2.376-4.285 2.367-4.285 2.367L35.5 59.689l-.226.622-1.665.962s-.296.317.194 1.165c.489.848 1.015.837 1.015.837l.922-.533c1.322-1.211 2.387-2.096 2.387-2.096l4.442-2.592.218.379c.133.23.362.35.522.258l6.034-3.484c.15-.087.17-.351.037-.58l-.236-.409L79.61 36.443s.43-.327 1.121.377l21.972-12.966s1.653-.661 3.66-1.793c2.006-1.132 2.381-1.335 2.381-1.335s.407-.354-.217-1.457c-.603-1.115-1.068-1.113-1.068-1.113m-2.317 3.08c.109.19.012.459-.223.581-.236.123-.501.077-.617-.122l-.172-.3c-.11-.19-.012-.458.223-.58.235-.123.501-.077.616.122zm1.418-.791c.109.189.012.458-.224.58-.235.123-.501.077-.616-.122l-.173-.3c-.109-.19-.012-.458.224-.58.235-.123.501-.077.616.122zm1.422-.808c.109.19.012.458-.223.58-.236.123-.502.077-.617-.122l-.172-.3c-.11-.189-.012-.458.223-.58.235-.123.501-.077.616.123z" clip-rule="evenodd"/><path stroke="#333A2C" stroke-miterlimit="3.99393" stroke-width="0.90429" d="m107.458 18.156-4.503 2.52s-1.542 1.13-2.495 1.667c-.943.531-41.84 23.997-41.84 23.997s-6.399 3.774-10.846 6.368l-4.057 2.37q-.409.226-.78.436a76 76 0 0 1-.778.436c-4.253 2.376-4.285 2.367-4.285 2.367L35.5 59.689l-.226.622-1.665.962s-.296.317.194 1.165c.489.848 1.015.837 1.015.837l.922-.533c1.322-1.211 2.387-2.096 2.387-2.096l4.442-2.592.218.379c.133.23.362.35.522.258l6.034-3.484c.15-.087.17-.351.037-.58l-.236-.409L79.61 36.443s.43-.327 1.121.377l21.972-12.966s1.653-.661 3.66-1.793c2.006-1.132 2.381-1.335 2.381-1.335s.407-.354-.217-1.457c-.603-1.115-1.068-1.113-1.068-1.113Z"/><path stroke="#333A2C" stroke-miterlimit="3.99393" stroke-width="0.452145" d="M105.14 21.236c.109.19.012.459-.223.581-.235.123-.501.077-.617-.123l-.172-.299c-.11-.19-.012-.458.223-.58.235-.123.501-.077.616.122zm1.418-.792c.109.19.012.459-.223.581-.236.123-.502.077-.617-.122l-.172-.3c-.11-.19-.012-.458.223-.58.235-.123.501-.077.616.122zm1.422-.807c.109.19.012.458-.223.58-.236.123-.501.077-.617-.122l-.172-.3c-.11-.189-.012-.458.223-.58.235-.123.501-.077.616.122z"/><path fill="#535850" d="m48.417 44.452-1.696.979 2.183 3.78-.11.063.588 1.018-.34.195-.212-.369-1.197.691.944 1.636 3.92-2.263-.945-1.636-.488.283-.375-.649-.09.052zM37.76 50.87l-1.695.98 2.073 3.59-.1.058.634 1.097-.5.288-.206-.36-1.197.692.944 1.635 3.92-2.263-.945-1.635-.329.19-.426-.738-.1.057z"/><path fill="#323630" d="m46.722 45.43-.227-.39-.391.225.226.392zm1.695-.978.392-.226-.226-.392-.392.226zm.487 4.759.226.392.392-.227-.226-.391zm-.11.063-.226-.391-.391.226.226.391zm.588 1.018.226.391.391-.226-.226-.391zm-.34.195-.391.227.226.391.392-.226zm-.212-.369.391-.226-.226-.391-.392.226zm-1.197.691-.226-.391-.392.226.226.392zm.944 1.636-.392.226.226.392.392-.226zm3.92-2.263.226.392.392-.226-.227-.392zm-.945-1.636.392-.226-.226-.391-.392.226zm-.488.283-.392.226.226.391.392-.226zm-.375-.649.392-.226-.226-.391-.392.226zm-.09.052-.391.226.226.392.392-.226zM36.066 51.85l-.226-.391-.392.226.226.392zm1.695-.978.392-.227-.226-.391-.392.226zm.378 4.57.226.39.392-.225-.227-.392zm-.1.057-.226-.392-.392.226.227.392zm.634 1.097.226.392.391-.227-.226-.391zm-.5.288-.39.226.225.392.392-.227zm-.206-.36.391-.225-.226-.392-.392.226zm-1.197.692-.226-.392-.392.226.226.392zm.944 1.635-.392.227.227.391.391-.226zm3.92-2.263.226.392.392-.226-.227-.392zm-.945-1.635.392-.226-.226-.392-.392.226zm-.329.19-.391.226.226.391.391-.226zm-.426-.738.392-.226-.226-.392-.392.226zm-.1.057-.391.226.226.392.392-.226zm7.115-8.639 1.695-.979-.452-.783-1.696.98zm2.348 3.163-2.183-3.78-.783.452 2.183 3.78zm-.618-.166-.11.064.452.783.11-.063zm-.275.681.587 1.018.783-.452-.587-1.018zm.753.4-.34.196.453.783.339-.196zm.278.361-.213-.369-.783.452.213.37zm-.83-.534-1.197.69.452.784 1.197-.691zm.2 3.11 3.919-2.263-.452-.783-3.92 2.263zm4.084-2.88-.944-1.637-.783.453.944 1.635zm-1.562-1.802-.488.282.452.783.489-.282zm.13.447-.375-.648-.783.452.374.649zm-.993-.813-.09.051.453.784.09-.052zm-2.437-3.111 2.182 3.78.783-.452-2.182-3.78zM36.29 52.241l1.695-.979-.452-.783-1.695.979zm2.238 2.973-2.073-3.59-.783.452 2.073 3.59zm-.265.675.1-.057-.452-.783-.1.057zm.8.48-.634-1.097-.783.452.633 1.097zm-.665.905.499-.288-.453-.783-.498.288zm-.825-.524.207.359.783-.452-.207-.36zm-.58.856 1.198-.69-.453-.784-1.196.691zm4.413-1.41-3.92 2.263.452.783 3.92-2.263zm-1.11-1.018.944 1.636.783-.453-.944-1.635zm.288.355.33-.19-.453-.783-.329.19zm-1.043-.903.426.738.783-.452-.426-.738zm.517.223.1-.058-.452-.783-.1.058zm-2.69-3.756 2.073 3.59.783-.452-2.073-3.59zm9.872-.061.944 1.635.784-.452-.945-1.636zm-9.136 7.588-.945-1.635-.783.452.944 1.636z"/><path fill="#353D2E" stroke="#333A2C" stroke-miterlimit="3.99393" stroke-width="0.90429" d="m35.838 61.383.858 1.486c.025.065.119.344.193 1.072.09.732.234 1.833.283 2.217.005.077-.016.156-.08.206-.197.167-.623.626-.675 1.573l-.17 2.652a.243.243 0 0 0 .236.25l2.604-.028a.243.243 0 0 0 .233-.241c-.005-.769.098-3.102-.939-4.299 0 0-.863-.805-.316-3.195a.3.3 0 0 0-.03-.169l-1.233-2.134a.227.227 0 0 0-.324-.079l-.556.374a.224.224 0 0 0-.084.315Z"/></g><defs><clipPath id="a"><path fill="#fff" d="M0 0h110v110H0z"/></clipPath></defs></svg>