<svg xmlns="http://www.w3.org/2000/svg" width="131.31" height="24.37" viewBox="0 0 131.31 24.37"><defs><style>.cls-1,.cls-3{fill-rule:evenodd;stroke-miterlimit:15.12;stroke-width:3px;stroke-linecap:square;stroke:#171717}.cls-1{fill:#4d4d4d}.cls-3,.cls-8{fill:#171717}</style></defs><g id="svg1"><g id="layer1"><path id="rect35" d="M96.14 1.5h2.63c.36 0 .64.81.64 1.81V9.9c0 1-.29 1.81-.64 1.81h-2.63c-.36 0-.64-.81-.64-1.81V3.31c0-1 .29-1.81.64-1.81Z" class="cls-1"/><path id="rect1" d="M1.71 9.82h32.65c.12 0 .21 1.37.21 3.05v6.16c0 1.69-.09 3.05-.21 3.05H1.71c-.12 0-.21-1.37-.21-3.05v-6.16c0-1.69.09-3.05.21-3.05Z" style="fill-rule:evenodd;stroke-miterlimit:15.12;stroke-width:3px;stroke-linecap:square;fill:#3d3d3d;stroke:#171717"/><path id="path31" d="M37.83 9.25c-1.03-.02-2.05.07-2.98.18v13.06c2.49.31 5.54.41 8.04-1.16l34.9-.35c.82 1.8 1.83 1.68 2.82 1.67V9.28c-1 0-2-.14-2.82 1.67l-34.9-.35c-1.56-.98-3.33-1.31-5.06-1.35z" style="fill-rule:evenodd;stroke-miterlimit:15.12;stroke-width:3px;stroke-linecap:square;stroke:#171717;fill:#999"/><path id="rect32" d="M81.28 9.18h20.5c.12 0 .21 1.37.21 3.05v7.44c0 1.69-.09 3.05-.21 3.05h-20.5c-.12 0-.21-1.37-.21-3.05v-7.44c0-1.69.09-3.05.21-3.05Z" style="fill-rule:evenodd;stroke-miterlimit:15.12;stroke-width:3px;stroke-linecap:square;stroke:#171717;fill:#404040"/><path id="rect34" d="M104.38 13.62h25.21c.12 0 .21 1.05.21 2.34h0c0 1.29-.09 2.34-.21 2.34h-25.21c-.12 0-.21-1.05-.21-2.34h0c0-1.29.09-2.34.21-2.34Z" class="cls-1"/><path id="path34" d="M105.4 11.35v9.36s3.3-1.45 3.32-4.46c.03-3.01-3.32-4.9-3.32-4.9Z" class="cls-3"/><path id="rect36" d="M47.6 14.7h1.72c.12 0 .21.56.21 1.26 0 .69-.09 1.26-.21 1.26H47.6c-.12 0-.21-.56-.21-1.26 0-.69.09-1.26.21-1.26" style="fill-rule:evenodd;fill:#4d4d4d"/><path id="path37" d="M53.82 22.4h12.72" class="cls-1"/><path id="rect33" d="M102.22 9.05h2.85c.12 0 .21 1.37.21 3.05v7.71c0 1.69-.09 3.05-.21 3.05h-2.85c-.12 0-.21-1.37-.21-3.05V12.1c0-1.69.09-3.05.21-3.05Z" class="cls-3"/><path id="rect39" d="M103.07 13.84h.49c.12 0 .21.95.21 2.11h0c0 1.17-.09 2.11-.21 2.11h-.49c-.12 0-.21-.95-.21-2.11h0c0-1.17.09-2.11.21-2.11Z" style="fill-rule:evenodd;stroke-miterlimit:15.12;stroke-width:3px;stroke:#171717;fill:#4d4d4d;stroke-linecap:round"/></g></g><g id="Layer_2" data-name="Layer 2"><path d="M52.31 21.84h15.76v2.01H52.31zm-7.66-8.6H73v1.46H44.65zm0 3.75H73v1.44H44.65z" class="cls-8"/><rect width="16.57" height="1.64" x="83.37" y="13.11" class="cls-8" rx=".82" ry=".82"/><rect width="16.73" height="1.48" x="83.37" y="17.2" class="cls-8" rx=".74" ry=".74"/></g></svg>