<svg xmlns="http://www.w3.org/2000/svg" width="110" height="110" fill="none" viewBox="0 0 110 110"><g clip-path="url(#a)" style="stroke-width:.989177" transform="matrix(1.01091 0 0 1.01097 -.644 5.242)"><path fill="#999" d="m32.359 63.322-4.77-8.263 1.4-.809c.405-.234.68-.333 1.174-.294l28.055-16.198c.42-.619 1.66-1.472 2.23-1.526l4.57 7.915c.144.249.114.424-.117.557l-.876.506c-.309.178-.405.49-.287.696l.245.424c.11.19.084.352-.044.585l-2.185 3.406c-.125.219-.354.239-.446.08l-1.426-2.304c-.245-.425-.398-.417-.816-.154L52.6 52.301 33.789 63.16c-.13.076-.47-.097-.64.002l-.47.272c-.132.075-.233.038-.32-.113" style="stroke-width:.978471"/><path fill="#919191" d="M32.772 59.209 61.573 42.58c-3.85 1.388-4.77.683-2.536-2.158L32.074 55.99c3.253-.26 3.292.5.698 3.22" style="stroke-width:.978471"/><path fill="#404040" stroke="#333" stroke-width="0.491818" d="M88.767 22.047a.124.124 0 0 0-.055.175l.189.327-.27.155.4.693.27-.156.084.147a.125.125 0 0 0 .178.04l.412-.28a.125.125 0 0 0 .038-.164l-.635-1.099a.124.124 0 0 0-.16-.05z"/><path fill="#4a4a4a" stroke="#333" stroke-width="0.491818" d="m85.639 22.55 1.364-.788a.994.994 0 0 1 1.359.364l.815 1.411a.994.994 0 0 1-.364 1.359l-1.365.788z"/><path fill="#545454" fill-rule="evenodd" stroke="#333" stroke-width="0.491818" d="M83.204 19.702c.522.485 1.306 1.846 1.986 3.028l-2.31 1.334-.596-.666-.445-.77-.336-1.817c-.402.06-.66.092-.818-.181l-.786-1.362c-.11-.191-.156-.42-.186-.733l.433-.25.676.068.79-.38c.23-.132.401-.123.69.077s.543.557.993 1.353c.08.14.03.229-.09.299zm-.6 2.34.878-.507.331.573-.878.507zm1.36.327-.878.507.279.484.878-.507z" clip-rule="evenodd"/><path fill="#4d4d4d" stroke="#333" stroke-width="0.983635" d="m82.807 24.071 2.598-1.5a.373.373 0 0 1 .51.137l4.165 7.214-2.921 1.687z"/><path fill="#4d4d4d" stroke="#333" stroke-width="0.491818" d="M47.517 59.508c-.11 1.344.26 1.838 1.261 2.518.061.042.048.1.039.118-.027.052-.1.111-.17.086-1.31-.479-1.747-.968-2.062-2.184z"/><path fill="#3d3d3d" stroke="#333" stroke-width="0.983635" d="m32.36 63.32-4.771-8.262-25.28 13.311c-1.008.547-1.383.867-1.076 1.269 3.635 4.753 5.424 7.524 7.85 12.706.366.784.74.704 1.796.123l3.217-1.858c.82-.498 1.272-.928 2.005-1.994l4.617-6.955c1.027-1.545 1.762-2.277 3.414-3.292l8.133-4.696c.126-.072.181-.2.094-.351z"/><path fill="#404040" d="m60.463 36.259 4.554 7.888q.12.204.074.35c.135.339.42.597.553.52l21.464-13.52c-1.36-3.208-2.74-5.662-4.727-8.188L60.59 35.782a.35.35 0 0 0-.128.477" style="stroke-width:.978471"/><path fill="#595959" d="m51.886 56.544 1.879 3.255.042-.052 2.1-2.34-3.306-5.106-18.812 10.86c-.051.03-.125.023-.205.015a1 1 0 0 0-.133-.008.5.5 0 0 0-.246.076l.556.964c.176.304.518.347 1.13.208l3.014-.813.292-2.389L47.3 55.96a.996.996 0 0 1 1.36.364l.28.483c.137.239.442.32.68.183l1.246-.72a.747.747 0 0 1 1.02.274" style="stroke-width:.978471"/><path fill="#4d4d4d" d="m46.702 64.266-.088.05c-.204.119-.318.38-.304.665l-.041 6.676c.001.226.003.503.435.671.365.142.61.411.492.851s-.327.54-.76.696c-1.981.715-2.975 1.038-4.94 1.384-.749.131-.889-.221-.885-.996l.77-9.617c.031-.33-.102-.596-.35-1.026-.088-.15-.19-.26-.303-.34l3.406-1.966a.747.747 0 0 1 1.021.273z" style="stroke-width:.978471"/><path fill="#858585" d="M43.486 59.943a.77.77 0 1 1-.374-.647l1.383-.798a.373.373 0 1 1 .373.647z" style="stroke-width:.978471"/><circle cx="50.808998" cy="57.291302" r="0.68370003" fill="#4d4d4d" style="stroke-width:.978471" transform="rotate(-30 50.809 57.291)"/><rect width="19.7465" height="1.24541" x="64.292999" y="36.376999" fill="#383838" rx="0.61478144" ry="0.61476326" style="stroke-width:.978471" transform="rotate(-30 64.293 36.377)"/><rect width="19.7465" height="0.87130201" x="63.474602" y="34.962898" fill="#383838" rx="0.4303467" ry="0.43033397" style="stroke-width:.978471" transform="rotate(-30 63.475 34.963)"/><rect width="9.1944704" height="1.12087" x="67.273399" y="41.539101" fill="#383838" rx="0.55330318" ry="0.55328685" style="stroke-width:.978471" transform="rotate(-30 67.273 41.54)"/><rect width="16.6623" height="1.24541" x="69.033203" y="38.421902" fill="#383838" rx="0.61478144" ry="0.61476326" style="stroke-width:.978471" transform="rotate(-30 69.033 38.422)"/><circle cx="64.184502" cy="40.145599" r="0.61118299" fill="#3d3d3d" style="stroke-width:.978471" transform="rotate(-30 64.184 40.146)"/><path fill="#3b3b3b" d="M68.602 38.131a1.495 1.495 0 1 1-.623-1.078l14.09-8.135a.623.623 0 1 1 .624 1.078z" style="stroke-width:.978471"/><path fill="#3b3b3b" d="m83.48 26.098.575-.461c1.157 1.774 2.11 3.635 3.053 5.859l-21.464 13.52c-.134.077-.418-.18-.553-.52q.044-.146-.075-.35l-1.153-1.997 1.544-.628a1 1 0 0 1 1.104.243l.789.846c.122.13.32.156.471.061l2.596-1.626 4.942-2.853a.56.56 0 0 0 .276-.415l9.459-5.926a.373.373 0 0 0 .134-.487l-.968-1.895a.722.722 0 0 1-.424-1.195l-.435-1.797a.37.37 0 0 1 .129-.38" style="stroke-width:.978471"/><circle cx="84.680496" cy="28.5471" r="0.51817203" fill="#3b3b3b" style="stroke-width:.978471" transform="rotate(-30 84.68 28.547)"/><path fill="#424242" stroke="#333" stroke-width="0.983635" d="M107.498 15.55 88.211 26.684l1.339 2.318 19.286-11.135a.25.25 0 0 0 .091-.34l-1.09-1.888a.25.25 0 0 0-.339-.09z"/><path fill="#666" d="M55.399 42.524 44.613 48.75l2.363 4.092c.172.298.553.4.85.228l9.707-5.605a.623.623 0 0 0 .228-.85z" style="stroke-width:.978471"/><path fill="#8c8c8c" d="m44.479 48.827-.745.43 1.568 2.717-3.105 1.792 1.569 2.717 19.377-11.188-1.568-2.716-3.721 2.148-1.569-2.716-.744.43 2.438 4.223a.623.623 0 0 1-.228.85l-9.984 5.764a.623.623 0 0 1-.85-.228z" style="stroke-width:.978471"/><path fill="#878787" d="M43.635 50.687a.353.353 0 0 1 .129-.481l13.316-7.688a.353.353 0 0 1 .353.61l-13.317 7.689a.353.353 0 0 1-.48-.13" style="stroke-width:.978471"/><path fill="#595959" d="M51.129 48.992h1.407v1.523h-1.407z" style="stroke-width:.978471" transform="rotate(-30 51.129 48.992)"/><path fill="#595959" d="M46.315 50.183a.062.062 0 0 0-.108.062l1.103 1.91a.31.31 0 0 0 .425.114l2.92-1.686a.31.31 0 0 0 .115-.426l-.698-1.209a.187.187 0 0 1 .068-.255l2.444-1.411a.187.187 0 0 1 .256.068l.698 1.21a.31.31 0 0 0 .425.113l2.921-1.686a.31.31 0 0 0 .114-.426l-1.103-1.91a.062.062 0 1 0-.107.063l1.102 1.91a.187.187 0 0 1-.068.255L53.9 48.565a.187.187 0 0 1-.255-.068l-.698-1.21a.31.31 0 0 0-.426-.113l-2.444 1.411a.31.31 0 0 0-.114.425l.698 1.21a.187.187 0 0 1-.068.255l-2.921 1.686a.187.187 0 0 1-.256-.068z" style="stroke-width:.978471"/><path fill="gray" d="M63.688 45.726a.4.4 0 0 0 .05.18l.244.423c.11.19.084.353-.045.586l-2.185 3.405c-.124.22-.353.24-.445.08l-1.426-2.304c-.245-.425-.399-.416-.816-.153L52.6 52.3 33.788 63.161c-.072.042-.21.007-.348-.015l-.303-.526 29.905-17.266a.374.374 0 0 1 .51.137z" style="stroke-width:.978471"/><path fill="#454545" d="m59.1 47.92-.037.022-6.465 4.358 3.306 5.107c5.264 7.773 9.04 11.8 16.132 18.255l5.885-6.26c.13-.155.126-.259-.121-.5-7.263-6.793-11.508-11.274-16.474-18.472l-.02-.03h-.001l-1.06-1.714-.055-.089-.31-.501c-.188-.324-.321-.396-.56-.296a2 2 0 0 0-.22.12" style="stroke-width:.978471"/><path fill="#878787" d="M34.035 58.48h9.424v3.136h-9.424z" style="stroke-width:.978471" transform="rotate(-30 34.035 58.48)"/><path fill="#8c8c8c" d="m32.772 59.208 1.263-.729 1.568 2.717-2.466 1.424-.438-.758.557-.321a.747.747 0 0 0 .273-1.021z" style="stroke-width:.978471"/><path fill="#3b3b3b" d="m64.268 54.487-6.77 5.22q.142.203.286.403l6.75-5.278zm2.432 3.032-6.895 5.314.304.391 6.872-5.372zm2.19 2.505-6.717 5.73.348.406 6.721-5.75zm2.621 2.778-6.776 5.804q.183.194.368.387l6.73-5.863zm2.217 2.215-6.29 6.333.406.394 6.308-6.314zm3.746 3.579-1.14 1.21.176.212-3.965 4.184-.173-.19-.99 1.052.656.6 5.886-6.261c.13-.154.125-.258-.122-.5z" style="stroke-width:.978471"/><path fill="#545454" d="M51.52 61.326 48.097 63.3l-.225-.39q.165-.043.332-.14l2.688-1.551q.235-.137.38-.32z" style="stroke-width:.978471"/><path fill="#636363" d="m37.905 63.601 1.641-.442c.296-.055.803-.147 1.182.121l3.406-1.966a.747.747 0 0 1 1.021.273l1.547 2.68 1.296-.75a.22.22 0 0 0 .1-.215l-.225-.39c-.632.17-1.227-.201-1.596-.84a1.57 1.57 0 0 1 .574-2.145l2.256-1.303a1.57 1.57 0 0 1 2.145.575c.434.75.392 1.587-.359 2.02q.235-.137.38-.32l.247.426c.083.077.199.055.25.024l1.377-.794.617-.757-1.88-3.255a.747.747 0 0 0-1.02-.274l-1.246.72a.5.5 0 0 1-.68-.183l-.279-.483a.996.996 0 0 0-1.361-.365l-9.101 5.255z" style="stroke-width:.978471"/><path stroke="#333" stroke-width="0.491818" d="M50.893 61.22c.751-.435.793-1.27.359-2.021a1.57 1.57 0 0 0-2.145-.575l-2.256 1.302a1.57 1.57 0 0 0-.574 2.145c.369.64.964 1.012 1.596.84l.226.39a.22.22 0 0 1-.101.217l-1.296.748-1.547-2.679a.747.747 0 0 0-1.02-.273l-3.407 1.966c-.38-.269-.886-.176-1.182-.122l-1.641.443.292-2.388 9.101-5.255a.996.996 0 0 1 1.361.365l.279.483c.137.238.442.32.68.182l1.246-.719a.747.747 0 0 1 1.02.274l1.88 3.254-.617.758-1.376.794c-.052.03-.168.053-.252-.024l-.246-.426q-.145.183-.38.32zm0 0-2.687 1.55a1.4 1.4 0 0 1-.33.14"/><path stroke="#333" stroke-width="0.983635" d="m53.148 60.556-1.376.795c-.052.03-.168.052-.252-.025l-3.42 1.975a.22.22 0 0 1-.102.218l-1.383.799c-.204.118-.318.38-.304.664l-.041 6.676c.001.226.002.503.435.672.364.141.61.41.491.85-.117.44-.326.54-.759.696-1.981.715-2.975 1.038-4.94 1.384-.75.131-.89-.221-.885-.995l.77-9.617c.031-.331-.103-.597-.351-1.027a1.05 1.05 0 0 0-.302-.34c-.38-.268-.886-.176-1.182-.121l-4.656 1.256c-.612.14-.954.096-1.13-.208l-.556-.964a.5.5 0 0 1 .246-.076q.067.001.133.008c.08.008.154.015.205-.014L52.6 52.3l3.306 5.107-2.1 2.339z"/><path fill="gray" d="m44.145 49.987 12.557-7.25.353.61-12.558 7.251z" style="stroke-width:.978471"/><path fill="#a8a8a8" d="m49.453 46.92 1.937-1.117.352.61-1.936 1.119z" style="stroke-width:.978471"/><path stroke="#333" stroke-width="0.983635" d="m59.1 47.92-.037.022-6.465 4.358 3.306 5.107c5.264 7.773 9.04 11.8 16.132 18.255l5.885-6.26c.13-.155.126-.259-.121-.5-7.263-6.794-11.508-11.274-16.474-18.472l-1.081-1.744-.055-.089-.31-.501c-.188-.324-.321-.396-.56-.296a2 2 0 0 0-.22.12z"/><path fill="#404040" stroke="#333" stroke-width="0.491818" d="M54.976 50.698c6.28 9.404 10.375 14.33 18.662 22.433l1.865-1.936c-8.472-7.888-12.642-12.767-18.581-21.809Z"/><path fill="#555" stroke="#333" stroke-width="0.491818" d="M30.998 46.131a.06.06 0 0 1 .023-.085l.166-.096a.06.06 0 0 1 .085.023l.519.898-.274.158z"/><path fill="#a8a8a8" stroke="#333" stroke-width="0.491818" d="M30.981 47.737c-.125 2.647.062 4.203-.27 6.602l4.569-2.637c-1.385-.327-1.832-1.063-1.514-1.878.211-.54.282-.78.273-1.413-.007-.404.302-.636.608-.812l15.572-8.99c.463-.264.722-.24 1.186.005l1.173.872c.732.592.53 1.19-.19 2.443l3.791-2.189c-1.297-1.176-4.058-2.805-4.058-2.805-.565-.355-.87-.351-1.25-.136l-19.45 10.16c-.351.166-.42.377-.44.778z"/><circle cx="32.473999" cy="48.199402" r="1.24918" fill="#666" style="stroke-width:.978471" transform="rotate(-30 32.474 48.2)"/><ellipse cx="32.473801" cy="48.199699" fill="#595959" rx="0.46551001" ry="0.465509" style="stroke-width:.978471" transform="rotate(-30 32.474 48.2)"/><path stroke="#333" stroke-width="0.983635" d="M30.927 50.352c.003-.787.006-1.625.053-2.616.019-.401.088-.612.44-.778l19.448-10.16c.381-.216.686-.22 1.251.135 0 0 2.091 1.234 3.489 2.33l2.608-1.506c.42-.62 1.659-1.473 2.23-1.526l4.57 7.915c.144.248.114.423-.117.557l-.876.505c-.309.179-.406.491-.287.697l.245.423c.11.19.084.353-.045.586l-2.185 3.405c-.124.22-.353.24-.445.08l-1.426-2.303c-.245-.426-.399-.417-.816-.154l-6.465 4.357L33.787 63.16c-.06.035-.166.017-.28-.003-.13-.023-.27-.048-.36.005l-.47.271c-.132.076-.233.038-.32-.112l-4.771-8.263 1.401-.81c.405-.233.68-.332 1.173-.293l.64-.37c.119-1.158.122-2.147.126-3.233z"/><path stroke="#333" stroke-width="0.491818" d="M52.943 40.802 34.519 51.44c-.781-.383-1.005-.976-.754-1.617.211-.54.282-.78.272-1.413-.006-.403.303-.635.61-.812l15.571-8.99c.463-.264.722-.239 1.186.006l1.173.871c.47.38.555.762.366 1.317zm2.456 1.722L44.613 48.75l2.363 4.092c.172.298.553.4.85.228l9.707-5.605a.623.623 0 0 0 .228-.85z"/><path stroke="#333" stroke-width="0.491818" d="m33.256 61.54-.557.322.741 1.283.07.012q.08.016.15.022h.054a.2.2 0 0 0 .074-.018L52.6 52.3l6.465-4.357c.418-.264.571-.272.817.153l1.425 2.304c.092.16.32.14.445-.08l2.185-3.406c.13-.232.154-.395.045-.585l-.245-.424a.4.4 0 0 1-.049-.179l-.136-.235c-.103-.179-.375-.215-.41-.195l-1.568-2.717c-3.85 1.388-4.77.683-2.536-2.158L32.075 55.99c3.252-.261 3.292.499.697 3.22l.758 1.31a.747.747 0 0 1-.274 1.022z"/><path stroke="#333" stroke-width="0.983635" d="m60.463 36.259 4.554 7.888q.12.204.074.35c.135.339.42.597.553.52l21.464-13.52c-1.36-3.208-2.74-5.662-4.727-8.188L60.59 35.782a.35.35 0 0 0-.128.477z"/></g><defs><clipPath id="a"><path fill="#fff" d="M.086 0h110v110h-110z"/></clipPath></defs></svg>