<svg xmlns="http://www.w3.org/2000/svg" xml:space="preserve" width="110" height="110" viewBox="0 0 29.104166 29.104167"><g style="fill:none" transform="rotate(-30 17.334 9.662)scale(.05488)"><path fill="#373c3e" d="m405.861 219.865-29.207-11.628-77.297 194.164 29.208 11.627z"/><path fill="#e6e7e8" fill-rule="evenodd" d="M153.473 203.84v-30.704l340.612 1.085 4.082 24.048-47.492-.457-6.958 7.41-120.243.143-14.369 10.586-37.669 107.081-19.51.755-78.8-27.987c-4.024-2.057-2.866-6.599-2.758-9.138.014-.319.028-.648.036-.996.584-3.815 1.85-8.764 3.113-13.713.328-1.284.656-2.568.972-3.83 3.464-10.314 7.146-18.875 10.892-26.923l9.228-15.427c.424-.612.817-1.15 1.21-1.687 1.367-1.871 2.735-3.743 5.445-8.748 1.041-1.922-.524-8.829-1.209-10.285-1.019-2.397-2.332-5.474-7.41-7.11-1.4-.332-4.652-.992-11.495-.454-3.44.27-7.282 4.158-9.68 6.352zm131.131-2.41-34.636-.004-4.084 3.63-6.808 15.578c-.749 1.482.454 2.928 2.117 3.781l16.032 6.506 26.62 1.212 7.564-22.839c1.56-4.359-4.144-7.865-6.805-7.865zm-26.774 34.936-17.544-7.262c-1.917-.544-3.983.82-4.84 2.42l-22.692 59.893-.303 3.63 25.327 8.717c1.5.466 5.3-.484 8.25-3.572l21.781-23.29 13.313-39.324z" clip-rule="evenodd" style="fill:#abb0b3;fill-opacity:1"/><path stroke="#303436" stroke-linecap="round" stroke-miterlimit="3.99393" stroke-width="4" d="m328.565 414.028 77.296-194.163-29.207-11.628-77.3 194.16m29.211 11.631v2.791h-29.21v-14.422m29.21 11.631-29.21-11.63" style="fill:#3e4242;fill-opacity:1;stroke-width:8;stroke-dasharray:none"/><path fill="#e6e7e8" d="m370.05 321.981-98.615.75 38.123-107.083 14.218-9.98 120.243.16 6.958-7.714 48.097.609 1.812 33.73-74.263 1.808-3.933 6.957-11.646.755-8.47 5.898-28.44 64.28-.606 8.62z" style="fill:#a9adb0;fill-opacity:1"/><path fill="#3c4144" stroke="#303436" stroke-linecap="round" stroke-miterlimit="3.99393" stroke-width="8" d="m361.573 174.31 43.635.003-.002 30.801h-1.497v4.706l-40-.003.001-4.706h-2.139z" style="fill:#42484b;fill-opacity:1"/><path fill="#323739" d="m299.354 402.397 29.211 11.631v2.791h-29.21z" style="fill:#384042;fill-opacity:1;stroke-width:8;stroke-dasharray:none"/><path fill="#464b4e" d="m215.482 158.041 1.283 8.342-27.807-.643 6.632-12.192 17.112 1.499c1.828.848 2.488 2.224 2.78 2.994"/><path fill="#35393b" d="M198.363 168.192a3.526 3.526 0 1 0 0-7.052 3.526 3.526 0 0 0 0 7.052"/><path fill="#464b4e" d="m485.843 158.414.756 7.11-20.948-.456-.3-10.739h7.107c3.994.22 7.946.665 11.798 1.665.823.34 1.295.588 1.587 2.42"/><path fill="#35393b" d="M470.661 167.858a3.526 3.526 0 1 0 0-7.052 3.526 3.526 0 0 0 0 7.052"/><path fill="#3c4144" stroke="#303436" stroke-linecap="round" stroke-miterlimit="3.99393" stroke-width="4" d="m324.004 324.43-62.806-.005c-1.08 0-1.955.357-1.955.797s.875.798 1.955.798l62.806.005c1.08 0 1.955-.357 1.955-.798 0-.44-.875-.797-1.955-.797z"/><path fill="#373c3e" stroke="#303436" stroke-linecap="round" stroke-miterlimit="3.99393" stroke-width="4" d="m528.274 206.774-18.316-.001v19.45h18.314z" style="fill:#414749;fill-opacity:1;stroke-width:8;stroke-dasharray:none"/><path fill="#35393b" stroke="#303436" stroke-miterlimit="3.99393" stroke-width="4" d="M261.552 202.684c.08-.739.134-1.23.13-1.325h-10.803c-1.025.074-2.49 1.464-3.955 2.855-.396.376-.79.751-1.179 1.101-.023.011.126.067.406.17 1.66.617 7.904 2.936 9.968 7.852.166.761.397 1.563.621 2.341.325 1.132.636 2.213.713 3.045l.147.621c.367 1.568.728 3.113 1.727 4.688 1.973 1.476 2.986 1.59 3.998 1.704.266.03.531.06.814.115l1.823-.799c.125-.089.214-.4.143-.525l-4.853-10.655c-.75-1.593-.017-8.293.3-11.188z" style="fill:#3d4143;fill-opacity:1"/><path fill="#3c4144" stroke="#303436" stroke-linecap="round" stroke-miterlimit="3.99393" stroke-width="4" d="M508.708 209.117h-9.334v14.758l9.333.001z"/><path fill="#3a3e41" stroke="#303436" stroke-linecap="round" stroke-miterlimit="3.99393" stroke-width="4" d="m488.151 166.403-329.06-.025v6.756l329.06.025z"/><path fill="#3c4143" d="m396.493 253.5-10.937-3.649a1.88 1.88 0 0 0-2.352 1.14l-1.164 3.215a1.77 1.77 0 0 0 1.11 2.292l10.936 3.648a1.88 1.88 0 0 0 2.352-1.139l1.164-3.216a1.77 1.77 0 0 0-1.109-2.292m-104.337 48.865 8.83-27.058c.771-2.365.061-4.649-1.587-5.103s-3.609 1.095-4.38 3.46l-8.829 27.058c-.772 2.364-.062 4.65 1.586 5.103s3.61-1.096 4.38-3.46m60.789-45.267a3.583 3.583 0 1 0 .002-7.166 3.583 3.583 0 0 0-.002 7.166m-16.761 46.82a3.583 3.583 0 1 0 .003-7.166 3.583 3.583 0 0 0-.003 7.166m-17.99 13.307a3.583 3.583 0 1 0 0-7.166 3.583 3.583 0 0 0 0 7.166m-60.129-.006a3.584 3.584 0 1 0 0-7.167 3.584 3.584 0 0 0 0 7.167M301.2 191.79a3.583 3.583 0 1 0 .001-7.165 3.583 3.583 0 0 0 0 7.165m134.796-.976a3.583 3.583 0 1 0 0-7.167 3.583 3.583 0 0 0 0 7.167m-17.571 38.002a2.866 2.866 0 1 0 0-5.732 2.866 2.866 0 0 0 0 5.732m-221.133 66.946-11.953-3.924a2.107 2.107 0 0 0-2.6 1.24l-.333.874a1.88 1.88 0 0 0 1.182 2.48l11.953 3.923a2.107 2.107 0 0 0 2.6-1.239l.333-.874a1.88 1.88 0 0 0-1.182-2.48m239.705-72.844a2.866 2.866 0 1 0 0-5.732 2.866 2.866 0 0 0 0 5.732m46.979.222a2.867 2.867 0 1 0 0-5.733 2.867 2.867 0 0 0 0 5.733"/><path fill="#393e40" stroke="#303436" stroke-miterlimit="3.99393" stroke-width="4" d="m238.689 193.316-15.991.076c-2.021.001-2.943-3.579-2.455-3.577h4.238l11.718-7.855c.753-.483 2.604-1.125 4.345-.386.569.218 1.086 1.552 1.75 3.269q.198.51.413 1.057c.22.727.32 1.666-.968 4.805-.635 1.29-1.776 2.687-3.05 2.611z"/><path fill="#464b4e" stroke="#303436" stroke-miterlimit="3.99393" stroke-width="4" d="m180.833 128.52 1.281 37.433 6.203-.428 5.776-10.48 1.071-12.192c-1.238-4.65-2.743-9.21-5.775-13.263-2.28-2.377-4.563-2.569-6.844-2.567-1.206-.136-1.715.424-1.712 1.497zm284.268 35.316.107.641-19.679.32.217-31.443 4.491.107 1.177-2.674 5.562-.106c2.464.513 3.04 1.157 3.62 1.805.17.19.34.38.557.566 1.252 1.854 2.43 3.703 3.094 10.25z"/><rect width="13.92" height="72.882401" x="430.56491" y="85.714302" fill="#cfd2d4" stroke="#303436" stroke-miterlimit="3.99393" stroke-width="4" rx="6.96" ry="6.96" style="fill:#babfc2;fill-opacity:1" transform="rotate(20.835)"/><path stroke="#303436" stroke-miterlimit="3.99393" stroke-width="8" d="m370.05 321.981-98.615.75 38.123-107.083 14.218-9.98 120.243.16 6.958-7.714 48.097.609 1.812 33.73-74.263 1.808-3.933 6.957-11.646.755-8.47 5.898-28.44 64.28-.606 8.62z"/><path fill="#3d4245" stroke="#303436" stroke-linecap="round" stroke-miterlimit="3.99393" stroke-width="8" d="m153.473 168.378-24.77-.002-.004 34.383 24.771.002z" style="fill:#525a5e;fill-opacity:1"/><path fill="#545b5e" stroke="#303436" stroke-miterlimit="3.99393" stroke-width="8" d="m126.786 202.481-1.602-1.986.003-32.578h6.121l.188 10.92 20.062.001.093 13.627-20.627-.182-.283 10.198z" style="stroke-width:4;stroke-dasharray:none"/><path fill="#464b4e" stroke="#303436" stroke-linecap="round" stroke-miterlimit="3.99393" stroke-width="8" d="m122.928 169.356-19.426-.002-.003 32.3 19.427.002z" style="fill:#4d5356;fill-opacity:1"/><path stroke="#303436" stroke-miterlimit="3.99393" stroke-width="4" d="m215.482 158.041 1.283 8.342-27.807-.643 6.632-12.192 17.112 1.499c1.828.848 2.488 2.224 2.78 2.994zm270.361.373.756 7.11-20.948-.456-.3-10.739h7.107c3.994.22 7.946.665 11.798 1.665.823.34 1.295.588 1.587 2.42z"/><path fill="#52595c" stroke="#303436" stroke-linecap="round" stroke-miterlimit="3.99393" stroke-width="4" d="m402.681 193.924-38.666-.003v8.827l38.666.003z"/><path stroke="#303436" stroke-miterlimit="3.99393" stroke-width="8" d="M153.473 203.84v-30.704l340.612 1.085 4.082 24.048-47.492-.457-6.958 7.41-120.243.143-14.369 10.586-37.669 107.081-19.51.755-78.8-27.987c-4.024-2.057-2.866-6.599-2.758-9.138.014-.319.028-.648.036-.996.584-3.815 1.85-8.764 3.113-13.713.328-1.284.656-2.568.972-3.83 3.464-10.314 7.146-18.875 10.892-26.923l9.228-15.427c.424-.612.817-1.15 1.21-1.687 1.367-1.871 2.735-3.743 5.445-8.748 1.041-1.922-.524-8.829-1.209-10.285-1.019-2.397-2.332-5.474-7.41-7.11-1.4-.332-4.652-.992-11.495-.454-3.44.27-7.282 4.158-9.68 6.352z"/><path stroke="#303436" stroke-miterlimit="3.99393" stroke-width="4" d="m284.603 201.43-34.636-.004-4.084 3.63-6.807 15.578c-.749 1.483.454 2.928 2.117 3.782l16.032 6.505 26.62 1.212 7.564-22.838c1.558-4.36-4.145-7.866-6.806-7.866zm-26.773 34.936-17.545-7.26c-1.917-.546-3.982.817-4.84 2.418l-22.692 59.893-.302 3.63 25.327 8.717c1.5.466 5.3-.484 8.25-3.572l21.781-23.29 13.313-39.324z"/><path fill="#3c4144" stroke="#303436" stroke-linecap="round" stroke-miterlimit="3.99393" stroke-width="4" d="m499.158 233.169-71.858.572.073 9.19 71.858-.573z" style="stroke-width:4;stroke-dasharray:none"/><path d="m84.605 44.549-9.01 21.547h-55.62L12.37 73.93l2.748 93.12h29.5l4.06-4.061H64.92l9.299-11.173 31.063-74.771h67.633V44.549ZM35.334 90.77h30.18l-21.245 50.07-8.935.27z" style="fill:#464b4e;fill-opacity:1;stroke:#303436;stroke-width:8;stroke-linecap:square;stroke-dasharray:none;stroke-opacity:1" transform="translate(-69.316 124.708)"/><path fill="#303436" stroke="#303436" stroke-linecap="round" stroke-miterlimit="3.99393" stroke-width="3.05409" d="M-32.984 206.184a2.866 2.866 0 1 0 0-5.733 2.866 2.866 0 0 0 0 5.733zm-.813 75.724a2.866 2.866 0 1 0 0-5.733 2.866 2.866 0 0 0 0 5.733z"/><path d="M-69.108 209.868h2.632v3.58h-2.632zm-.267 12.142h2.633v3.579h-2.633zm-.208 12.15h2.633v3.58h-2.633zm-.312 12.246h2.632v3.58h-2.632zm-.266 12.142h2.632v3.58h-2.632zm-.209 12.15h2.633v3.58h-2.633z" style="fill:red;fill-opacity:1;stroke:#303436;stroke-width:5.49819;stroke-linecap:square;stroke-linejoin:bevel;stroke-dasharray:none;stroke-opacity:1" transform="matrix(.99944 -.03356 .03821 .99927 0 0)"/><path d="m15.29 169.257 20.675 32.496M5.773 189.605l20.676 32.496" style="fill:red;fill-opacity:1;stroke:#303436;stroke-width:4;stroke-linecap:butt;stroke-linejoin:bevel;stroke-dasharray:none;stroke-opacity:1"/><path d="M39.878 193.67h54.558v-16.33H29.11Z" style="fill:#414649;fill-opacity:1;stroke:none;stroke-width:8;stroke-linecap:butt;stroke-linejoin:bevel;stroke-dasharray:none;stroke-opacity:1"/></g></svg>