<svg xmlns="http://www.w3.org/2000/svg" xml:space="preserve" width="36.11879mm" height="5.2351575mm" viewBox="0 0 36.118789 5.2351575"><g style="fill:none"><g style="stroke-width:.84785" transform="matrix(.3523 0 0 .36133 -203.157 -128.299)"><rect width="5.2975025" height="3.3590217" x="662.85669" y="360.04092" rx="0.087815583" ry="0.085882425" style="fill:#393e40;fill-opacity:1;fill-rule:evenodd;stroke:#171717;stroke-width:1.27177;stroke-linecap:round;stroke-linejoin:round;stroke-dasharray:none;stroke-opacity:1"/><path fill="#696969" fill-rule="evenodd" d="M610.577 357.595c-8.557.005-8.755-.008-17.311 0-.226.015-3.41 1.847-3.41 4.914s3.184 3.324 3.41 3.338c8.556.002 8.754 0 17.31 0z" clip-rule="evenodd" style="fill:#464b4e;fill-opacity:1;stroke-width:.184599;stroke-linejoin:round"/><path fill="#515151" d="M663.108 365.913a.567.567 0 0 0 .573-.56v-7.264a.567.567 0 0 0-.573-.561h-52.531v8.385z" style="fill:#abb0b3;fill-opacity:1;stroke-width:.184599;stroke-linejoin:round"/><path stroke="#171717" stroke-width="8" d="M591.6 357.782h18.212v7.877H591.6a3.9 3.9 0 0 1-1.455-.43c-.63-.344-1.228-.948-1.228-2.161s.599-4.076 1.228-4.42c.65-.353 1.336-.857 1.455-.866zm71.483 7.877H611.34v-7.877h51.742z" style="stroke-width:2.54356;stroke-linejoin:round;stroke-dasharray:none"/><path fill="#404040" stroke="#171717" stroke-width="4" d="M609.523 356.766a.19.19 0 0 1 .191-.187h2.918a.19.19 0 0 1 .192.187v6.978c0 .517.428.935.956.935h1.272a.19.19 0 0 1 .192.187v.896c0 .127.026.244.064.348.064.177.187.576.185 1.014-.002.435-.124.87-.503 1.195-.74.635-1.35.673-1.783.57a2 2 0 0 1-.895-.502l-.01-.016-.725-1.41a.96.96 0 0 0-.855-.515h-1.008a.19.19 0 0 1-.191-.187z" style="fill:#545b5e;fill-opacity:1;stroke-width:1.27177;stroke-linejoin:round;stroke-dasharray:none"/><ellipse cx="613.55176" cy="366.56418" fill="#404040" stroke="#171717" stroke-width="2" rx="0.35790914" ry="0.35003021" style="stroke-width:1.27177;stroke-linejoin:round;stroke-dasharray:none"/><path fill="#515151" stroke="#171717" stroke-width="4" d="M617.073 366.55c0-.147.108-.267.24-.267h5.84c.132 0 .24.12.24.267v.275c0 .108-.053.174-.102.195-.273.12-.566.215-.754.215-.175 0-.444-.084-.708-.196a1.17 1.17 0 0 0-1.316.263l-.52.535a.23.23 0 0 1-.162.071h-2.518c-.132 0-.24-.12-.24-.267z" style="fill:#393e40;fill-opacity:1;stroke-width:1.27177;stroke-linejoin:round;stroke-dasharray:none"/><path d="M580.873 357.781h11.382v7.878h-11.382z" style="fill:#393e40;fill-opacity:1;fill-rule:evenodd;stroke:#171717;stroke-width:2.54355;stroke-linecap:round;stroke-linejoin:round;stroke-dasharray:none;stroke-opacity:1"/><rect width="10.129211" height="5.118988" x="667.78546" y="359.16095" rx="0.087815583" ry="0.085882425" style="fill:#393e40;fill-opacity:1;fill-rule:evenodd;stroke:#171717;stroke-width:2.54355;stroke-linecap:round;stroke-linejoin:round;stroke-dasharray:none;stroke-opacity:1"/><path fill="#404040" stroke="#171717" stroke-width="8" d="M577.935 365.9v-8.358l1.62-1.197h.855l.835.581v9.589l-.835.58h-.854z" style="fill:#464b4e;fill-opacity:1;stroke:#171717;stroke-width:2.54356;stroke-linejoin:round;stroke-dasharray:none;stroke-opacity:1"/><path d="M659.664 360.27v3.05m-27.897-3.05v3.05m5.579-3.05v3.05m2.79-3.05v3.05m2.79-3.05v3.05m2.79-3.05v3.05m2.789-3.05v3.05m2.79-3.05v3.05m-36.267-3.05v3.05m11.159-3.05v3.05m2.79-3.05v3.05m5.58-3.05v3.05m-11.16-3.05v3.05" style="fill:#393e40;fill-opacity:1;fill-rule:evenodd;stroke:#171717;stroke-width:1.27177;stroke-linecap:round;stroke-linejoin:round;stroke-dasharray:none;stroke-opacity:1"/><rect width="4.4700437" height="2.7285485" x="617.27966" y="360.43134" rx="0.1" ry="0.1" style="fill:#393e40;fill-opacity:1;fill-rule:evenodd;stroke:#171717;stroke-width:1.27177;stroke-linecap:round;stroke-linejoin:round;stroke-dasharray:none;stroke-opacity:1"/><rect width="4.4700437" height="2.7285485" x="653.09906" y="360.43134" rx="0.1" ry="0.1" style="fill:#393e40;fill-opacity:1;fill-rule:evenodd;stroke:#171717;stroke-width:1.27177;stroke-linecap:round;stroke-linejoin:round;stroke-dasharray:none;stroke-opacity:1"/></g></g></svg>