<svg xmlns="http://www.w3.org/2000/svg" width="110" height="110" fill="none" viewBox="0 0 110 110"><g clip-path="url(#a)" transform="translate(-.928 -2.428)scale(1.01314)"><path fill="#403a3a" d="M48.804 50.027c-.29-.613-.548-1.18-.57-1.284-.25-1.139-.018-2.295.601-2.652l10.596-6.118 2.871.507.885-.51 1.65 2.857-15.25 8.805-5.053 2.556.24-1.835z"/><path fill="#504949" stroke="#353131" stroke-miterlimit="3.99393" stroke-width="1.13766" d="m93.656 20.054-10.533 6.08 1.721 2.982 10.533-6.081z"/><path fill="#585050" stroke="#353131" stroke-miterlimit="3.99393" stroke-width="0.568829" d="m90.066 26.001 3.401-1.964.325.563-3.4 1.964z"/><path fill="#706666" stroke="#353131" stroke-miterlimit="3.99393" stroke-width="1.13766" d="m91.675 21.094-.531-1.847a.5.5 0 0 1 .249-.52l1.073-.62a.5.5 0 0 1 .684.184l2.828 4.9-2.352 1.358-1.896-3.285c-.02-.033-.033-.086-.045-.131z"/><path fill="#463f3f" stroke="#353131" stroke-miterlimit="3.99393" stroke-width="1.13766" d="M102.515 19.685 85.18 29.693l1.479 2.562 17.335-10.008Z"/><rect width="6.8000798" height="3.7395101" x="90.330101" y="26.4512" fill="#635a5a" stroke="#353131" stroke-miterlimit="3.99393" stroke-width="1.13766" rx="0.142207" transform="rotate(-30 90.33 26.451)"/><path fill="#484141" stroke="#353131" stroke-miterlimit="3.99393" stroke-width="0.568829" d="M56.126 54.529a.14.14 0 0 0-.106.17l1.077 4.597a.14.14 0 0 0 .17.106l.075-.018a.14.14 0 0 0 .106-.17l-1.077-4.597a.14.14 0 0 0-.17-.106z"/><path fill="#4b4444" stroke="#353131" stroke-miterlimit="3.99393" stroke-width="0.568829" d="m69.997 46.928-.418 1.958-2.557-1.85 2.206-1.441Z"/><path fill="#625959" d="m56.12 54.1 10.395-6.546c4.703 4.743 7.688 7.104 13.25 10.859.128.086.166.26.083.39l-5.853 9.215a.286.286 0 0 1-.405.08c-7.143-5.009-11.006-8.128-17.47-13.999"/><path fill="#564e4e" d="m70.155 51.875-4.692 5.207a.58.58 0 0 1-.828.037.58.58 0 0 1-.037-.83l4.692-5.206a.58.58 0 0 1 .829-.037.596.596 0 0 1 .036.829m2.578 2.284-4.421 5.442a.587.587 0 0 1-.832.09.587.587 0 0 1-.09-.833l4.422-5.441a.587.587 0 0 1 .832-.09.587.587 0 0 1 .09.832m2.726 2.046-4.145 5.656a.593.593 0 0 1-.823.135.593.593 0 0 1-.135-.823l4.145-5.655a.593.593 0 0 1 .822-.135c.262.188.324.56.136.822m2.767 2.022-3.925 5.801a.58.58 0 0 1-.808.16.58.58 0 0 1-.16-.807l3.924-5.801a.58.58 0 0 1 .808-.16.577.577 0 0 1 .16.807m-8.198 6.553 4.117-5.674a.593.593 0 0 1 .823-.135c.262.189.324.56.135.823l-4.117 5.674a.593.593 0 0 1-.823.135.593.593 0 0 1-.135-.823m-3.116-2.333 4.421-5.442a.587.587 0 0 1 .832-.09.587.587 0 0 1 .09.833l-4.421 5.442a.587.587 0 0 1-.833.089.587.587 0 0 1-.089-.832m-3.152-2.46 4.607-5.295a.592.592 0 0 1 .891.777l-4.608 5.295a.59.59 0 0 1-.834.057.6.6 0 0 1-.057-.834"/><path stroke="#353131" stroke-miterlimit="3.99393" stroke-width="1.13766" d="m56.12 54.1 10.395-6.546c4.703 4.743 7.688 7.104 13.25 10.859.128.086.166.26.083.39l-5.853 9.215a.286.286 0 0 1-.405.08c-7.143-5.009-11.006-8.128-17.47-13.999z"/><path fill="#5e5555" stroke="#353131" stroke-miterlimit="3.99393" stroke-width="1.13766" d="m55.624 54.467 4.547 4.5 9.738-9.875-2.496-2.295z"/><path fill="#564e4e" stroke="#353131" stroke-miterlimit="3.99393" stroke-width="0.568829" d="m87.63 28.174-1.671.964 2.89 5.004 1.177-.68a.57.57 0 0 0 .208-.777z"/><path fill="#605757" d="M86.179 29.01 66.422 40.418l3.025 5.239s1.439-.151 2.423-.72c.983-.567 2.207-1.681 2.207-1.681l14.476-8.63c.519-.324.392-.822.01-1.485z"/><path fill="#564e4e" stroke="#353131" stroke-miterlimit="3.99393" stroke-width="0.568829" d="m52.428 56.557 1.345 2.328s.97 1.618-1.514 2.967l-2.129 1.23s-.87.472-1.718.385c-.362-.038-1.115-.45-1.128-.323-.088.547 1.228.872 1.228.872s.539.198 1.813-.538l2.613-1.508s2.586-1.19.91-3.74l-1.244-2.154Z"/><path fill="#605757" stroke="#353131" stroke-miterlimit="3.99393" stroke-width="1.13766" d="M38.658 65.457c.19.327.417.835.66.851.774.052 1.905 1.163 1.901 2.189-.01 3.129.17 5.078.698 7.718a1.815 1.815 0 0 0 2.054 1.426l4.204-.619a1.163 1.163 0 0 0 .838-1.731 4.5 4.5 0 0 1-.58-2.085c-.097-2.395-.533-4.194-1.252-6.74a1.98 1.98 0 0 1 .607-2.035.46.46 0 0 0 .097-.578l-1.861-3.224z"/><path fill="#3b3535" d="M47.07 59.624c.248.4.49.822.72 1.13.23.31.461.534.761.7.308.18.679.322 1.064.372.386.05.765 0 1.07-.09.304-.092.534-.224.632-.349s.077-.248-.09-.271c-.165-.023-.497.05-.793.067a2.3 2.3 0 0 1-.804-.097 1.4 1.4 0 0 1-.584-.393 4.5 4.5 0 0 1-.503-.577c-.143-.189-.233-.375-.358-.592s-.28-.484-.422-.759"/><path stroke="#353131" stroke-miterlimit="3.99393" stroke-width="0.568829" d="M47.07 59.624c.248.4.49.822.72 1.13.23.31.461.534.761.7.308.18.679.322 1.064.372.386.05.765 0 1.07-.09.304-.092.534-.224.632-.349s.077-.248-.09-.271c-.165-.023-.497.05-.793.067a2.3 2.3 0 0 1-.804-.097 1.4 1.4 0 0 1-.584-.393 4.5 4.5 0 0 1-.503-.577c-.143-.189-.233-.375-.358-.592s-.28-.484-.422-.759"/><path fill="#4b4444" d="m108.613 20.475-4.806 2.774a.627.627 0 0 1-.864-.232l-1.502-2.6a.63.63 0 0 1 .232-.864l4.805-2.775a.63.63 0 0 1 .865.232l1.501 2.6a.647.647 0 0 1-.231.865"/><path fill="#332e2e" d="m102.878 18.857-.927.536 1.829.929c.218.112.447-.14.309-.348zm1.467-.845-.927.535 1.829.93c.218.111.447-.14.309-.349zm1.467-.848-.927.535 1.829.93c.218.112.446-.14.309-.349zm-.697 5.33-.927.535.11-2.048c.012-.245.343-.317.456-.094zm1.467-.844-.927.535.11-2.049c.011-.245.343-.317.455-.093zm.524-.306.11-2.049c.012-.244.343-.317.456-.093l.361 1.607z"/><path fill="#534b4b" d="m67.384 42.089 16.264-9.39-.294-.51-16.264 9.39Zm.813 1.401L84.46 34.1l-.294-.51-16.264 9.39ZM69 44.879l16.263-9.39-.294-.51-16.264 9.39Z"/><path fill="#534b4b" d="m73.574 36.29-.51.294 3.126 5.413.505-.301z"/><path fill="#5b5252" stroke="#353131" stroke-miterlimit="3.99393" stroke-width="1.13766" d="M32.176 61.848 3.178 82.73l1.245 1.73L33.42 63.578Z"/><path fill="#4b4444" stroke="#353131" stroke-miterlimit="3.99393" stroke-width="0.568829" d="M16.584 76.837 4.995 85.18l.25.346 11.588-8.344z"/><path fill="#5b5252" stroke="#353131" stroke-miterlimit="3.99393" stroke-width="1.13766" d="M34.145 64.611 22.32 73.045a8.17 8.17 0 0 0-2.9 3.767L13.4 92.755l1.994.753 6.018-15.943a6.04 6.04 0 0 1 2.143-2.785l11.827-8.433z"/><rect width="15.0309" height="5.5541701" x="14.3984" y="73.917999" fill="#786d6d" stroke="#353131" stroke-miterlimit="3.99393" stroke-width="1.13766" rx="0.568829" transform="rotate(-34.75 14.398 73.918)"/><path fill="#6b6161" d="M15.807 78.79 8.34 84.119a.71.71 0 0 0-.155 1.007l4.572 6.065c1.32-.762 3.834.155 3.711 1.466l-.048.479a1 1 0 0 1-.419.716l-3.948 2.768a.287.287 0 0 1-.401-.076c-3.57-5.338-5.999-8.347-9.994-12.888a.713.713 0 0 1 .109-1.043l1.774-1.32a2.6 2.6 0 0 1 .695-.366l2.046-.704a2.6 2.6 0 0 0 .705-.375l6.24-4.69a.284.284 0 0 1 .404.063l2.243 3.175c.09.128.06.305-.067.396"/><path fill="#564e4e" stroke="#353131" stroke-miterlimit="3.99393" stroke-width="0.568829" d="m10.962 95.517 1.064-2.45-6.89-8.735-1.601 1.479c2.725 3.177 4.791 5.83 7.427 9.706z"/><path fill="#4e4646" d="m42.077 68.514 3.792-2.19a.284.284 0 0 1 .42.188l1.443 6.876a.28.28 0 0 1-.136.305l-4.296 2.48a.284.284 0 0 1-.423-.21l-.94-7.166a.28.28 0 0 1 .14-.283"/><path fill="#504949" stroke="#353131" stroke-miterlimit="3.99393" stroke-width="1.13766" d="m33.306 60.644-1.178.887.354 2.722c.057.434.31.817.686 1.04l2.056 1.216 1.674-1.17z"/><path fill="#564e4e" d="M48.235 48.744c.05.225 1.228 2.67 1.354 2.888l15.25-8.804-1.65-2.858-.885.51-2.87-.506-10.597 6.118c-.619.357-.851 1.513-.602 2.652"/><path fill="#635a5a" d="m34.714 54.004 24.491-14.14.105.182-10.47 6.045c-.61.352-.845 1.477-.614 2.599l-7.03 5.098-.906 3.104-5.967 3.446-.523-.905z"/><path fill="#665c5c" stroke="#353131" stroke-miterlimit="3.99393" stroke-width="0.568829" d="M36.283 51.844a.85.85 0 0 0-.414.591l-.176 1.003 23.51-13.574-.303-.524-22.012 12.708-.24-.415Z"/><path fill="#867979" stroke="#353131" stroke-miterlimit="3.99393" stroke-width="0.568829" d="m36.916 51.477.5-.29.24.416-.5.289zm1.271-.733.501-.289.24.415-.5.29zm1.272-.732.5-.29.24.416-.5.289zm1.268-.734.5-.289.24.415-.5.29zm1.269-.732.5-.29.24.416-.5.289zm1.27-.734.5-.29.24.416-.5.289zm1.271-.734.5-.289.24.415-.5.29zm1.272-.733.5-.29.24.416-.5.289zm1.269-.732.5-.289.24.415-.5.29zm1.27-.734 3.86-2.23.24.416-3.86 2.23zm4.615-2.665.5-.29.24.416-.5.289zm1.269-.734.501-.288.24.415-.501.288zm1.272-.732.5-.289.24.415-.5.289zm3.156-1.823-1.887 1.09.24.415 3.087-1.782c-.24-.416-.765-.112-1.44.277z"/><path fill="#4b4444" d="m62.924 42.015.548-.317.464.803-.549.316z"/><path fill="#706666" d="m65.418 38.682-2.23 1.288 1.37 2.373 2.23-1.288z"/><path fill="#6e6363" d="m66.423 40.418 5.684-3.282-2.347-4.066-10.86 6.27.408.706.126-.072 2.87.507 3.116-1.8z"/><path fill="#685f5f" d="M48.235 48.744c.022.103.283.675.57 1.284l-4.029 2.326-.24 1.835-4.245 2.703.902-3.103 7.03-5.098z"/><path fill="#5b5252" d="m72.036 37.012 14.072-8.124-1.921-3.328a.71.71 0 0 0-.97-.26L69.76 33.07z"/><path fill="#534b4b" d="m82.953 30.874-.51.294 3.05 5.282.506-.301zm1.274-.737-.51.295 3.04 5.264.505-.302zm1.277-.736-.51.294 3.03 5.247.505-.302z"/><path stroke="#353131" stroke-miterlimit="3.99393" stroke-width="1.13766" d="M15.807 78.79 8.34 84.119a.71.71 0 0 0-.155 1.007l4.572 6.065c1.32-.762 3.834.155 3.711 1.466l-.048.479a1 1 0 0 1-.419.716l-3.948 2.768a.287.287 0 0 1-.401-.076c-3.57-5.338-5.999-8.347-9.994-12.888a.713.713 0 0 1 .109-1.043l1.774-1.32a2.6 2.6 0 0 1 .695-.366l2.046-.704a2.6 2.6 0 0 0 .705-.375l6.24-4.69a.284.284 0 0 1 .404.063l2.243 3.175c.09.128.06.305-.067.396z"/><path stroke="#353131" stroke-miterlimit="3.99393" stroke-width="0.568829" d="M48.235 48.744c.05.225 1.228 2.67 1.354 2.888l15.25-8.804-1.65-2.858-.885.51-2.87-.506-10.597 6.118c-.619.357-.851 1.513-.602 2.652z"/><path fill="#786d6d" d="m37.58 66.23-4.416-5.77.919-.53.236.409 5.968-3.445 9.021-5.745L66.79 41.056l2.657 4.601z"/><path fill="#706666" d="m55.682 49.878.292.484-3.074 2.282-.429-.327z"/><path fill="#6b6161" d="m56.732 46.863 10.059-5.807 1.171 2.028-10.059 5.807Z"/><path stroke="#353131" stroke-miterlimit="3.99393" stroke-width="1.13766" d="m66.422 40.416 5.684-3.282-2.347-4.065-10.86 6.27.303.524-24.49 14.14-.915 5.429.286.496-.918.53 4.415 5.771 31.867-20.573z"/><path stroke="#353131" stroke-miterlimit="3.99393" stroke-width="0.568829" d="m37.58 66.23-4.416-5.77.919-.53.236.409 5.968-3.445 9.021-5.745L66.79 41.056l2.657 4.601z"/><path fill="#635a5a" d="m44.823 55.561-2.454.887a1.446 1.446 0 1 0 1.394 2.49l11.919-9.06-.35-.579-9.625 3.478z"/><circle cx="42.8587" cy="57.812901" r="0.72413999" fill="#554e4e" transform="rotate(-19.864 42.859 57.813)"/><path stroke="#353131" stroke-miterlimit="3.99393" stroke-width="0.568829" d="m42.37 56.449 2.455-.887.884-2.784 9.625-3.478.643 1.063-3.075 2.281-.428-.326-8.71 6.621q-.181.146-.41.23a1.446 1.446 0 1 1-.983-2.72z"/><path stroke="#353131" stroke-miterlimit="3.99393" stroke-width="1.13766" d="M86.179 29.01 66.422 40.418l3.025 5.239s1.439-.151 2.423-.72c.983-.567 2.207-1.681 2.207-1.681l14.476-8.63c.519-.324.392-.822.01-1.485zm-14.143 8.002 14.072-8.124-1.921-3.328a.71.71 0 0 0-.97-.26L69.76 33.07z"/><path fill="#765656" d="M72.199 44.713c.068.114.2.19.343.172l4.215-.73a.35.35 0 0 1 .318.1l2.865 2.967c.128.128.315.153.459.05l.916-.62a.36.36 0 0 0 .159-.335l-.415-4.405a.36.36 0 0 1 .133-.32c1.04-.814 7.024-5.543 7.508-5.937.527-.438.436-.331.416-.766-.018-.315-.298-.353-.45-.348a.4.4 0 0 0-.174.054l-5.286 3.176a.364.364 0 0 1-.505-.126l-.454-.756a.364.364 0 0 0-.505-.126l-6.699 4.026a.364.364 0 0 0-.126.505l.41.68a.364.364 0 0 1-.126.506l-2.902 1.743c-.151.091-.206.314-.1.49m7.33.54-2.134-2.237a.47.47 0 0 1-.107-.263l.096-1.266a.38.38 0 0 1 .182-.298l.88-.478a.36.36 0 0 1 .442.078l.61.67a.4.4 0 0 1 .087.172l.56 3.304a.37.37 0 0 1-.164.356c-.158.09-.33.078-.452-.038"/><path stroke="#3b2b2b" stroke-miterlimit="3.99393" stroke-width="1.13766" d="M72.542 44.885a.35.35 0 0 1-.343-.172c-.106-.176-.051-.398.1-.49l2.902-1.743a.364.364 0 0 0 .126-.505l-.41-.681a.364.364 0 0 1 .126-.505l6.699-4.026a.364.364 0 0 1 .505.126l.454.756a.364.364 0 0 0 .505.126l5.286-3.176a.4.4 0 0 1 .174-.053c.152-.006.432.032.45.347.02.435.111.328-.416.766-.484.394-6.468 5.123-7.508 5.937a.36.36 0 0 0-.133.32l.415 4.405a.36.36 0 0 1-.16.336l-.915.619c-.144.103-.33.078-.46-.05l-2.864-2.967a.35.35 0 0 0-.318-.1z"/><path stroke="#3b2b2b" stroke-miterlimit="3.99393" stroke-width="0.568829" d="m77.397 43.016 2.134 2.238c.121.116.303.123.452.037a.37.37 0 0 0 .164-.356l-.56-3.304a.4.4 0 0 0-.087-.171l-.61-.67a.36.36 0 0 0-.442-.078l-.88.478a.38.38 0 0 0-.182.298l-.096 1.266a.47.47 0 0 0 .107.262z"/><path stroke="#353131" stroke-miterlimit="3.99393" stroke-width="1.13766" d="m108.613 20.475-4.806 2.774a.627.627 0 0 1-.864-.232l-1.502-2.6a.63.63 0 0 1 .232-.864l4.805-2.775a.63.63 0 0 1 .865.232l1.501 2.6a.647.647 0 0 1-.231.865z"/><path fill="#624646" stroke="#3b2b2b" stroke-miterlimit="3.99393" stroke-width="1.13766" d="m50.334 44.285 9.1-5.254a.52.52 0 0 0 .189-.704l-.214-.37a2.02 2.02 0 0 0-2.754-.738l-7.8 4.504a.52.52 0 0 0-.19.704l.965 1.67c.14.241.461.328.704.188z"/><path fill="#7a5252" d="m50.884 43.969 4.193-2.421c.293-.17.453-.483.358-.734l-.07-.18c-.063-.168-.22-.264-.432-.278l-3.885-.136-.099.006c-.144.015-.666-.006-1.464-.77a21 21 0 0 1-1.45-1.541c-.164-.195-.515-.213-.808-.044l-6.462 3.731a.51.51 0 0 0-.16.755c.396.537.904 1.535.618 2.923-.295 1.462.136 2.709.459 3.356a.52.52 0 0 0 .718.214l5.022-2.9z"/><path fill="#684b4b" d="m41.45 49.414-.78-2.353.072-1.436 9.139-5.276 5.003.63-.037.7z"/><path stroke="#3b2b2b" stroke-miterlimit="3.99393" stroke-width="1.13766" d="m55.077 41.547-4.194 2.422-.05.028-9.382 5.417-.781-2.353.072-1.435.466-.27.015-.076c.285-1.388-.223-2.387-.618-2.923a.51.51 0 0 1 .16-.755l6.462-3.731c.293-.17.643-.15.807.044.312.364.85.971 1.45 1.541.798.764 1.32.785 1.465.77l.098-.006 3.886.136c.211.014.369.11.432.277l.07.18c.094.252-.065.565-.358.734z"/><path fill="#594040" stroke="#3b2b2b" stroke-miterlimit="3.99393" stroke-width="1.13766" d="M46.428 47.5a1.31 1.31 0 1 0-1.31-2.268 1.31 1.31 0 0 0 1.31 2.268z"/></g><defs><clipPath id="a"><path fill="#fff" d="M0 0h110v110H0z"/></clipPath></defs></svg>