<svg xmlns="http://www.w3.org/2000/svg" id="Layer_2" width="122.1297" height="19.735399" data-name="Layer 2" version="1.1" viewBox="0 0 122.1297 19.735399"><defs id="defs1"><style id="style1">.cls-8{stroke:#171717}.cls-10{fill:#171717}.cls-8{stroke-width:3px;fill:#504949}</style></defs><g id="Layer_1-2" data-name="Layer 1" transform="rotate(90 61.065 61.065)"><path id="rect1" d="M4.995 85.23h5.8v30.5h-5.8z" style="stroke:#171717;stroke-width:3px;fill:#5b5252"/><g id="svg623"><g id="g84"><g id="g37"><path id="path1" d="M3.664 81.199h8.512c.866 0 1.587.317 1.587.635l-.289 3.975c0 .318-.721.636-1.587.636H3.953c-.866 0-1.587-.318-1.587-.636l-.289-3.974c0-.239.721-.636 1.587-.636z" class="cls-8"/><path id="rect3" d="M7.127 21.791h1.587c.432 0 .865.245.865.734v1.833c0 .367-.288.734-.865.734H7.127c-.433 0-.866-.245-.866-.734v-1.956c0-.244.433-.61.866-.61z" style="stroke:#171717;fill:#d8d8d8;stroke-width:3px"/><path id="rect4" d="M5.972 5.9h3.896c.433 0 .865.245.865.734l.145 30.315c0 .366-.289.733-.866.733H6.117c-.433 0-.866-.244-.866-.733L5.107 6.634c0-.489.433-.733.865-.733z" style="stroke:#171717;stroke-width:3px;fill:#463f3f"/><path id="path6" d="M14.917 49.295h2.02c.721 0 1.298.489 1.298.978v3.055c0 .245-.721.49-1.442.978-.866.49-1.876.978-1.876.978-.721 0-1.298-.489-1.298-.978V50.15c0-.244.577-.855 1.298-.855z" style="stroke:#171717;stroke-width:3px;fill:#222"/><path id="rect8" d="M2.943 26.925h9.81c.721 0 1.298.611 1.298 1.467v51.462c0 .856-.72 1.467-1.442 1.467h-9.81c-.722 0-1.299-.611-1.299-1.467V28.392c.144-.978.721-1.467 1.443-1.467z" style="stroke-width:3px;fill:#6e6363;stroke:#171516"/><path id="rect9" d="M5.684 1.5h4.472c.289 0 .577.122.577.367V7.49c0 .122-.144.366-.577.366H5.684c-.289 0-.577-.122-.577-.366V1.867c0-.245.288-.367.577-.367Z" style="stroke:#171717;stroke-width:3px;fill:#4b4444"/><path id="rect17" d="M7.127 56.873h1.587c.721 0 1.298.367 1.298.978l.144 18.58c0 .49-.577.978-1.298.978H7.27c-.721 0-1.298-.367-1.298-.978l-.145-18.58c-.144-.366.577-.978 1.299-.978Z" style="stroke-width:1.5px;fill:#595959;stroke:#171717"/></g></g></g><path id="path2" d="M12.995 40.83h-10.1c-.7 0-1.3-.7-1.3-1.6v-10.9c0-.8.6-1.6 1.3-1.6h10.1c.7 0 1.3.7 1.3 1.6v10.9c-.1 1-.6 1.6-1.3 1.6z" style="stroke-width:3px;fill:#403a3c;stroke:#171515"/><path id="path3" d="M9.995 109.03h-4.1c-.8 0-1.5-.6-1.5-1.5v-10c0-.8.6-1.5 1.5-1.5h4.1c.8 0 1.5.6 1.5 1.5v10c0 .9-.7 1.5-1.5 1.5z" style="stroke-width:3px;stroke:#171516;fill:#786d6d"/><path id="path4" d="M4.095 16.467c-.1 0-.1.1-.1.1v11c0 .1.1.1.1.1h7.7c.1 0 .1-.1.1-.1l-.098-10.871a.23.23 0 0 0-.23-.229Z" class="cls-8"/><path id="path91" d="M18.295 44.73h-3.8v-4.8h3.8c.7 0 1.2.5 1.2 1.2v2.4c0 .7-.5 1.2-1.2 1.2" class="cls-10"/><path id="path92" d="M11.995 120.63h-8c-.9 0 .9-9.4.9-9.4.1-.5.8-.8 1.5-.8h3.2c.7 0 1.3.3 1.5.8.133.178 1.8 9.4.9 9.4z" style="stroke-width:3px;fill:#6b6161;stroke:#171616"/><path id="rect92" d="M5.795 71.33h4.3v3h-4.3z" class="cls-10"/><path id="rect93" d="M5.995 65.63h4.3v3h-4.3z" class="cls-10"/><path id="rect94" d="M5.795 60.43h4.3v3h-4.3z" class="cls-10"/><path id="path94" d="M8.595 66.03h-1.3c-.9 0-1.5-.7-1.5-1.5v-13.7c0-.9.7-1.5 1.5-1.5h1.3c.9 0 1.5.7 1.5 1.5v13.7c0 .8-.7 1.5-1.5 1.5z" style="stroke:#171111;stroke-miterlimit:3.9939;stroke-width:1.5px;fill:#624646"/><path id="path95" d="M10.095 63.63h-4.3c-.4 0-.8-.3-.8-.8v-7.4c0-.4.3-.8.8-.8h4.3c.4 0 .8.3.8.8v7.4c0 .4-.4.8-.8.8z" style="fill:#7a5252;stroke:#171111;stroke-miterlimit:3.9939;stroke-width:1.5px"/></g></svg>