<svg xmlns="http://www.w3.org/2000/svg" width="110" height="110" fill="none" viewBox="0 0 110 110"><g clip-path="url(#a)"><path fill="#4D4D4D" stroke="#333" stroke-width="0.882654" d="m61.05 49.916 1.563-.902 1.221 2.114-1.562.903z"/><path fill="#666" stroke="#333" stroke-width="0.441327" d="m46.532 58.454.99-.571-.378-.654-.99.57z"/><path fill="#404040" stroke="#333" stroke-width="0.441327" d="m46.465 58.337 13.97-8.066.312.541-13.97 8.066z"/><path fill="#4D4D4D" d="m50.439 43.908-5.525 3.19-3.153 3.294-11.133 6.586-.212.012-2.662 1.526-.494-.012-.524.294-.157.215-.918.54-.698.23-4.426 2.549 1.802 3.121 4.42-2.559.55-.488.926-.526.264-.028.516-.307.238-.434 2.652-1.542.116-.178 11.271-6.348 4.428-1.084 5.525-3.19z"/><path fill="#404040" d="M44.911 47.099c.511 1.866 1.369 3.41 2.807 4.86l-4.428 1.084-1.531-2.651z"/><path fill="#595959" d="m29.137 61.319-1.622-2.808-.258-.006-.524.294-.137.188 1.669 2.89.231-.025.517-.307z"/><path fill="#404040" d="m52.312 49.307.931-.537-2.806-4.861-.931.537z"/><path fill="#595959" d="m23.185 64.964-1.801-3.12-.847.488 1.802 3.121z"/><path stroke="#333" stroke-miterlimit="29" stroke-width="0.882654" d="m51.845 46.338-1.407-2.429-5.525 3.19-3.152 3.293-11.133 6.587-.213.011-2.66 1.527-.495-.012-.524.294-.157.214-.918.54-.698.232-4.426 2.548.898 1.562.904 1.559 4.42-2.559.55-.488.926-.526.264-.029.516-.306.238-.434 2.652-1.542.116-.178 11.27-6.348 4.429-1.084 5.525-3.19z"/><path fill="#666" d="m32.525 64.75-4.279-7.411 2.554-1.475 3.224 5.584c.299.5.856.605 1.493.248l4.974-2.872c.743-.409 1.018-.992.689-1.566l-3.195-5.534 2.411-1.392 4.275 7.405"/><path stroke="#333" stroke-width="0.882655" d="m32.525 64.75-4.279-7.411 2.554-1.475 3.224 5.584c.299.5.856.605 1.493.248l4.974-2.872c.743-.409 1.018-.992.689-1.566l-3.195-5.534 2.411-1.392 4.275 7.405"/><path fill="#666" d="m32.525 64.75-4.279-7.411 2.554-1.475 3.224 5.584c.299.5.856.605 1.493.248l4.974-2.872c.743-.409 1.018-.992.689-1.566l-3.195-5.534 2.411-1.392 4.275 7.405"/><path fill="#3B3B3B" d="m56.94 48.812.543.94-1.45.837-.543-.94z"/><path fill="#404040" d="m54.781 50.057 3.39-1.957.542.94-3.388 1.958z"/><path fill="#363636" d="M56.673 50.038a.404.404 0 1 0-.405-.7.404.404 0 0 0 .405.7"/><path stroke="#333" stroke-width="0.441326" d="m56.94 48.812.543.94-1.45.837-.543-.94z"/><path stroke="#333" stroke-width="0.441326" d="m54.781 50.057 3.39-1.957.542.94-3.388 1.958z"/><path fill="#4D4D4D" stroke="#333" stroke-width="0.441326" d="m59.368 47.409.798 1.383-1.198.691-.798-1.382z"/><path fill="#404040" stroke="#333" stroke-width="0.441326" d="m30.8 65.745-.495-.864-6.95 4.013.498.862z"/><path fill="#55454F" fill-rule="evenodd" d="m60.604 48.538 1.522 2.636-18.602 10.744-16.259 9.31c-.608-1.055-.897-1.554-1.732-1.073l-4.401 2.523-.585-1.013zm-13.885 8.96 3.057-1.764a.54.54 0 0 1 .744.19.54.54 0 0 1-.208.738l-3.057 1.765a.543.543 0 0 1-.743-.19.543.543 0 0 1 .207-.738m8.074-4.648-3.057 1.765a.54.54 0 0 0-.207.738c.147.257.48.341.743.19l3.057-1.765a.54.54 0 0 0 .207-.739.54.54 0 0 0-.743-.189m2.264-1.31 2.49-1.438a.547.547 0 0 1 .748.197c.15.26.06.595-.203.746l-2.49 1.438a.547.547 0 0 1-.748-.197.547.547 0 0 1 .203-.746" clip-rule="evenodd"/><path stroke="#382E35" stroke-width="0.882654" d="m60.604 48.538 1.522 2.636-18.602 10.744-16.259 9.31c-.608-1.055-.897-1.554-1.732-1.073l-4.401 2.523-.585-1.013z"/><path fill="#404040" stroke="#333" stroke-width="0.441327" d="m20.318 61.694-4.2.516.027.219 4.2-.516z"/><path fill="#474747" stroke="#333" stroke-width="0.441188" d="m50.065 43.263.373.646-1.392.803.655-1.238z"/><path fill="#454545" stroke="#333" stroke-width="0.441188" d="m21.907 61.543-1.367-.051-.368.212.363.629z"/><path fill="#4D4D4D" d="m35.166 51.143-.243-.421-2.11 1.218.243.42-.295.171 1.28 2.224-.118.43 1.506 2.606.204.042 2.984-1.722.065-.198-1.503-2.607-.432-.114-1.286-2.22zm-8.234 13.369-2.768 1.598.43.718.465-.27 2.291-1.322z"/><path fill="#404040" d="m23.232 65.855.762 1.318.601-.347-.783-1.306z"/><path fill="#4D4D4D" stroke="#333" stroke-width="0.441327" d="m23.027 68.316.333.577 3.335-1.925-.263-.456-1.199.692-.171-.644-1.067.616-1.047.605z"/><path stroke="#333" stroke-width="0.441327" d="m23.232 65.855.762 1.318 1.067-.615 2.29-1.323-.418-.724-2.768 1.598-.353-.589z"/><path fill="#403A3E" stroke="#382E35" stroke-width="0.441327" d="M42.864 65.75c.321 1.325 1.204 2.474 1.62 2.829.165.14.256.134.054-.116-.817-1.047-.93-2.139-.82-3.203z"/><path fill="#484146" stroke="#382E35" stroke-width="0.441327" d="m47.009 64.374.058.033.35-.208.29.499c.166.275.32.532.445.77.17.324.302.637.341.945.04.318-.02.623-.215.92-.19.289-.5.568-.947.843l-4.083 2.357-.06-.106a.6.6 0 0 1 .157-.177l-.123-.212 3.884-2.252c.414-.255.664-.484.803-.696a.88.88 0 0 0 .146-.622c-.029-.228-.13-.484-.293-.794-.12-.227-.266-.47-.429-.743z"/><path fill="#474747" d="m21.913 82.494 8.407-6.484 4.353 5.528-8.666 6.722c-1.082-2.07-2.253-3.506-3.66-5.232z"/><path fill="#404040" stroke="#333" stroke-width="0.441188" d="m33.615 82.358-7.611 5.903a22 22 0 0 0-.443-.804l7.52-5.785z"/><path fill="#404040" d="m21.913 82.494 8.407-6.484.51.646-8.352 6.532-.13-.16z"/><path stroke="#333" stroke-width="0.441327" d="m22.347 83.028-.434-.534 8.407-6.484.51.646-8.352 6.532m-.13-.16.13.16m-.13-.16.13.16"/><path stroke="#333" stroke-width="0.882654" d="m21.913 82.494 8.407-6.484 4.353 5.528-8.666 6.722c-1.082-2.07-2.253-3.506-3.66-5.232z"/><path fill="#3B3B3B" stroke="#333" stroke-width="0.441327" d="m63.854 52.343.506-.293.221.384-.506.293zm-2.506-4.338.506-.292.222.383-.507.293z"/><path fill="#404040" stroke="#333" stroke-width="0.882654" d="m104.208 22.066-42.866 24.75 3.76 6.512 42.866-24.75z"/><path fill="#383838" stroke="#333" stroke-width="0.882654" d="m105.271 21.288-1.132.653.072.125 3.76 6.513.072.125 1.132-.653z"/><path fill="#41353F" stroke="#382E35" stroke-width="0.882655" d="M27.266 71.226c-.61-1.054-.897-1.553-1.732-1.072l-8.058 4.61c-.295.153-.51.58-.252 1.031l.865 1.549c.216.373.522.28 1.052-.026l7.854-4.535c.556-.31.752-.689.27-1.557Z"/><path fill="#595959" d="m5.93 84.365 12.162-7.022c.215.373.521.28 1.052-.025l7.853-4.535c.557-.31.752-.689.271-1.557l34.759-19.9 1.593 2.759-32.804 18.839c-.67.353-1.124.929-.634 1.645l.681 1.023-9.238 7.124-.67.352c-1.845-1.786-6.4.693-5.43 6.508.087.673-.134.735-.57.972l-2.87 1.662c-2.574-2.384-4.537-5.026-6.154-7.845"/><path fill="#404040" stroke="#333" stroke-width="0.882655" d="m36.04 69.924-1.462.845c1.425-.76 3.838-1.345 4.374 1.45l.831 6.456c.028.276.087.472.447.354l4.367-1.371c.446-.132.438-.241.344-.583l-1.844-5.453c-.241-.704.065-1.248.25-1.37l-1.96-3.398z"/><path fill="#4D4D4D" d="M7.586 87.001a31.3 31.3 0 0 0 4.497 5.21l2.869-1.662.09-.05c.377-.2.56-.298.48-.923-.97-5.814 3.585-8.293 5.43-6.507l.67-.352 9.239-7.124-.682-1.023a1.1 1.1 0 0 1-.2-.497z"/><path stroke="#333" stroke-width="0.882655" d="M18.092 77.343 5.931 84.365c1.617 2.819 3.58 5.461 6.155 7.845l2.868-1.662c.437-.237.658-.3.571-.972-.97-5.815 3.585-8.294 5.43-6.508l.67-.352 9.238-7.124-.682-1.023c-.49-.716-.034-1.291.635-1.645l32.804-18.84-1.593-2.759-34.759 19.9c.481.87.286 1.248-.27 1.558l-7.855 4.535c-.53.306-.836.398-1.051.025Zm0 0-12.417 7.17"/><path fill="#4D4D4D" d="m4.154 81.882 1.52 2.631.255-.148c1.618 2.82 3.58 5.462 6.155 7.846q-.384.222-.721.413c-1.191.678-1.986 1.13-2.86 2.036-.128.133-.47.427-.56.474-.437.241-.506.21-.537-.297-.421-4.774-2.232-8.346-5.784-11.06-.245-.13-.258-.273.008-.439z"/><path fill="#404040" d="M10.167 93.327c.36-.226.751-.449 1.198-.703q.337-.19.72-.413c-2.574-2.383-4.537-5.026-6.154-7.845l-.256.147-1.52-2.631-1.146.662c.901 4.08 4.039 8.052 7.158 10.783"/><path stroke="#333" stroke-width="0.882655" d="m4.154 81.882 1.52 2.631.255-.148c1.618 2.82 3.58 5.462 6.155 7.846q-.384.222-.721.413c-1.191.678-1.986 1.13-2.86 2.036-.128.133-.47.427-.56.474-.437.241-.506.21-.537-.297-.421-4.774-2.232-8.346-5.784-11.06-.245-.13-.258-.273.008-.439z"/><path fill="#474747" d="M43.525 61.917c-.196.113-.225.209-.145.348l1.518 2.628.747-.427c.466-.272.877-.379 1.423-.06l16.928-9.995-1.87-3.239z"/><path fill="#595959" d="m35.622 51.246-2.701 1.56 1.121 1.949-.062.229 2.999-1.732-.23-.06z"/><path fill="#595959" stroke="#333" stroke-miterlimit="29" stroke-width="0.441326" d="M36.877 56.54a1.315 1.315 0 1 0-1.315-2.276 1.315 1.315 0 0 0 1.315 2.276Z"/><path fill="#4D4D4D" fill-rule="evenodd" d="M35.859 54.778a.73.73 0 1 0 .73 1.264.73.73 0 0 0-.73-1.264m.02.831a.4.4 0 1 1 .69-.399.4.4 0 0 1-.69.4" clip-rule="evenodd"/><path stroke="#333" stroke-miterlimit="29" stroke-width="0.441327" d="m35.169 51.138-.246-.416-2.11 1.218.237.42-.289.171 1.28 2.224-.118.43 1.506 2.606.204.042 2.984-1.722.065-.198-1.503-2.607-.432-.114-1.286-2.22z"/><path fill="#999" d="m33.299 60.194 7.18-4.146Z"/><path fill="#999" fill-rule="evenodd" d="m40.48 56.048.7 1.212c.329.573.054 1.157-.69 1.566l-4.973 2.871c-.638.358-1.195.252-1.494-.248l-.724-1.255zm-2.577 3.72a.792.792 0 1 0-.792-1.371.792.792 0 0 0 .792 1.371m-2.042 1.227a.792.792 0 1 0-.792-1.37.792.792 0 0 0 .792 1.37m4.277-3.425a.792.792 0 1 1-1.372.792.792.792 0 0 1 1.372-.792" clip-rule="evenodd"/><path stroke="#333" stroke-width="0.441327" d="m33.299 60.194.726 1.258m-.726-1.258 7.18-4.146m-7.18 4.146.724 1.255c.3.5.856.606 1.494.248l4.974-2.872c.743-.409 1.018-.992.688-1.565l-.7-1.212m0 0 .727 1.258m-3.013 1.38a.792.792 0 1 1-1.371.792.792.792 0 0 1 1.37-.791Zm-2.043 1.228a.792.792 0 1 1-1.37.792.792.792 0 0 1 1.37-.792Zm3.698-1.262a.792.792 0 1 0-.792-1.372.792.792 0 0 0 .792 1.372Z"/><path fill="#999" stroke="#333" stroke-width="0.441326" d="M9.27 89.23q-.755-.916-1.43-1.869l.78-.45 1.386 1.893z"/><path fill="#3D3D3D" d="m46.789 60.195.596 1.033c.196.392.49.517.989.206l12.144-7.013c.56-.322.531-.84.384-1.111l-.553-.975z"/><path fill="#595959" stroke="#333" stroke-width="0.441327" d="m40.398 50.333-2.412 1.393 1.035 1.791 2.411-1.392zM30.8 55.864l-2.554 1.475 1.038 1.798 2.554-1.475z"/><path fill="gray" stroke="#333" stroke-width="0.441327" d="m28.504 67.828-1.545.892.557.964 1.544-.894-.077-.134 11.712-6.772-.397-.686-11.716 6.764z"/><path fill="#4D4D4D" stroke="#333" stroke-width="0.441327" d="m40.19 61.008.617 1.068 1.702-.984-.617-1.067z"/><path stroke="#333" stroke-width="0.882655" d="M43.525 61.917c-.196.113-.225.209-.145.348l1.518 2.628.747-.427c.466-.272.877-.379 1.423-.06l16.928-9.995-1.87-3.239z"/><path fill="#404040" stroke="#333" stroke-width="0.441326" d="M45.397 63.804a.843.843 0 1 0-.843-1.46.843.843 0 0 0 .843 1.46Z"/><path fill="#3B3B3B" d="M59.176 48.382a.146.146 0 1 0-.146-.253.146.146 0 0 0 .146.253"/><path fill="#404040" d="M42.83 57.408a.635.635 0 1 0-.635-1.1.635.635 0 0 0 .635 1.1m-9.63 5.556a.635.635 0 1 0-.636-1.101.635.635 0 0 0 .635 1.1"/><path fill="#404040" stroke="#333" stroke-width="0.441326" d="M8.382 86.094a.978.978 0 1 0-.978-1.695.978.978 0 0 0 .978 1.695Z"/><path fill="#474747" stroke="#333" stroke-width="0.882655" d="m21.337 70.822.684 1.186c.046.079.014.148-.07.196l-4.474 2.56c-.295.153-.51.58-.251 1.031l.864 1.549-12.416 7.168-1.516-2.624c-.238-.41-.26-1.012.173-1.262z"/><path stroke="#382E35" stroke-width="0.441326" d="m49.779 55.734-3.058 1.765a.54.54 0 0 0-.207.738c.148.257.48.341.743.19l3.057-1.765a.54.54 0 0 0 .208-.739.54.54 0 0 0-.743-.189Zm5.015-2.884-3.057 1.764a.54.54 0 0 0-.207.739c.148.256.48.34.743.189l3.057-1.765a.54.54 0 0 0 .207-.738.54.54 0 0 0-.743-.19Zm4.754-2.75-2.49 1.438a.547.547 0 0 0-.204.746c.15.26.486.349.748.197l2.49-1.437a.547.547 0 0 0 .203-.746.547.547 0 0 0-.747-.198Z"/><path fill="#404040" stroke="#333" stroke-width="0.441327" d="m53.64 38.503-3.683 4.887.176.133 3.683-4.887z"/><path fill="#404040" stroke="#333" stroke-width="0.441326" d="m40.3 61.2-.943.544.397.687.942-.545z"/></g><defs><clipPath id="a"><path fill="#fff" d="M0 0h110v110H0z"/></clipPath></defs></svg>