<svg xmlns="http://www.w3.org/2000/svg" width="167.7023" height="20.883343" viewBox="0 0 44.371233 5.5253845"><g transform="translate(.082 34.118)scale(.26458)"><path d="M60.717-119.663h3.65v10.597h-3.65z" style="fill:#4d4d4d;fill-opacity:1;fill-rule:evenodd;stroke:#171717;stroke-width:2;stroke-linecap:round;stroke-linejoin:round;stroke-dasharray:none"/><path d="M92.452-122.936h10.72v5.535h-10.72Z" style="fill:#4d4d4d;fill-opacity:1;fill-rule:evenodd;stroke:#171717;stroke-width:3;stroke-linejoin:round"/><path d="m.817-126.532 6.052 1.31v10.478l-6.052 1.31z" style="fill:#404040;fill-opacity:1;fill-rule:evenodd;stroke:none;stroke-width:3.16544;stroke-linecap:round;stroke-linejoin:round"/><path d="M4.446-126.293c-1.574 4.252-1.252 8.435 0 12.595H1.789v-13.604Z" style="fill:#4d4d4d;fill-opacity:1;stroke:none;stroke-width:2.11029;stroke-linejoin:round;stroke-dasharray:none;stroke-opacity:1"/><path d="m1.188-127.364 6.053 1.177v11.41L1.188-113.6z" style="fill:none;fill-rule:evenodd;stroke:#171717;stroke-width:3;stroke-linecap:round;stroke-linejoin:round"/><path d="M16.51-126.359h77.485v12.224H16.51z" style="fill:#5b3e50;fill-opacity:1;fill-rule:evenodd;stroke:#1c1219;stroke-width:3;stroke-linecap:round;stroke-linejoin:round;stroke-opacity:1"/><path d="M33.628 99.103h1.69v.91h-1.69" style="fill:#4d4d4d;fill-opacity:1;fill-rule:evenodd;stroke:#171717;stroke-width:.396875;stroke-linecap:round;stroke-linejoin:round;stroke-dasharray:none;stroke-opacity:1" transform="translate(-40.258 -496.56)scale(3.77953)"/><path d="M33.841 99.103h.577v.91h-.577" style="fill:#404040;fill-opacity:1;fill-rule:evenodd;stroke:#171717;stroke-width:.396875;stroke-linecap:round;stroke-linejoin:round;stroke-dasharray:none;stroke-opacity:1" transform="translate(-40.258 -496.56)scale(3.77953)"/><path d="M32.833 99.054c.223-.13.867-.107.867.548 0 .574-.645.585-.867.457" style="fill:none;fill-rule:evenodd;stroke:#171717;stroke-width:.396875;stroke-linecap:round;stroke-linejoin:round" transform="translate(-40.258 -496.56)scale(3.77953)"/><path d="M33.14 99.558h.48" style="fill:#4d4d4d;fill-opacity:1;fill-rule:evenodd;stroke:#171717;stroke-width:.396875;stroke-linecap:round;stroke-linejoin:round;stroke-dasharray:none;stroke-opacity:1" transform="translate(-40.258 -496.56)scale(3.77953)"/><path d="M98.513-126.683h67.378v12.585H98.513Z" style="fill:#404040;fill-rule:evenodd;stroke:#171717;stroke-width:3;stroke-linecap:round;stroke-linejoin:round"/><path d="M162.131-128.083v15.47" style="fill:#404040;fill-opacity:1;fill-rule:evenodd;stroke:#171717;stroke-width:1.5;stroke-linecap:butt;stroke-linejoin:round;stroke-dasharray:none;stroke-opacity:1"/><path d="M154.321 99.904h.15v.198h-.15zm0 3.168h.15v.198h-.15z" style="fill:#404040;fill-rule:evenodd;stroke:#171717;stroke-width:.396875;stroke-linecap:round;stroke-linejoin:round" transform="translate(-486.25 -504.135)scale(3.77953)"/><path d="M25.504-113.602v-.648c.004-1.3 1.061-2.79 2.68-2.853h10.102c2.47-.034 2.746 1.29 2.735 3.194v.297z" style="fill:#3d2938;fill-opacity:1;stroke:#1c1217;stroke-width:1.5;stroke-linejoin:round;stroke-dasharray:none;stroke-opacity:1"/><path d="M42.582-113.417c-.127-1.898-.006-2.917-.006-2.917h3.534l-.015.712H64.88s.005.028.005 2.194z" style="fill:gray;fill-opacity:1;stroke:#171717;stroke-width:1.5;stroke-linejoin:round;stroke-dasharray:none;stroke-opacity:1"/><rect width="24.72752" height="14.163369" x="6.6542621" y="-127.44933" ry="2.9505298" style="fill:#404040;fill-opacity:1;stroke:#171717;stroke-width:3;stroke-linejoin:round;stroke-dasharray:none;stroke-opacity:1"/><g transform="translate(-2905.632 -3160.579)scale(3.77953)"><path d="M783.616 803.3h1.194v2.265h-1.194z" style="fill:#595959;fill-opacity:1;fill-rule:evenodd;stroke:#171717;stroke-width:.529167;stroke-linecap:round;stroke-linejoin:round;stroke-dasharray:none"/><path d="M787.996 804.682v-.482c0-.129-.117-.234-.263-.234h-6.93c-.145 0-.262.105-.262.234v.482c0 .13.117.234.262.234h6.93c.146 0 .263-.105.263-.234z" class="cls-1" style="opacity:.997;isolation:isolate;fill:#4d4d4d;fill-opacity:1;fill-rule:evenodd;stroke:#171717;stroke-width:.529167;stroke-linecap:round;stroke-miterlimit:5.89;stroke-dasharray:none"/><path d="M781.594 803.958c.008.011 0 .041 0 .041v.965s.017.03 0 .039c-.017.015-.076.02-.076.02l-.673.17-2.463.011c-.067 0-.122-.024-.122-.053v-1.505c0-.03.055-.054.122-.054l2.458-.009.682.358s.064.009.068.015h.004z" class="cls-1" style="opacity:.997;isolation:isolate;fill:#4d4d4d;fill-opacity:1;fill-rule:evenodd;stroke:none;stroke-width:.592381;stroke-linecap:round;stroke-miterlimit:5.89;stroke-dasharray:none"/><path d="m787.228 803.976 1.316-.502h1.859v2.031h-2.07l-1.082-.625z" style="fill:#4d4d4d;fill-opacity:1;stroke:none;stroke-width:.396875;stroke-linejoin:round;stroke-dasharray:none;stroke-opacity:1"/><path d="M790.655 805.513h-.574v-2.12h.574z" style="fill:#404040;fill-opacity:1;fill-rule:evenodd;stroke:none;stroke-width:1.09843;stroke-linecap:round;stroke-linejoin:round;stroke-dasharray:none;stroke-opacity:1"/><path d="M788.614 803.5c-.339.949-.29.82.006 1.836l-1.543-.53-.006-.777z" style="fill:#404040;fill-opacity:1;fill-rule:evenodd;stroke:none;stroke-width:.793749;stroke-linecap:round;stroke-linejoin:round;stroke-dasharray:none;stroke-opacity:1"/><path d="M787.102 804.784v-.744c0-.083.054-.087.121-.105l1.29-.512 1.855-.012c.113 0 .202.064.202.15l.012 1.7c.01.169-.196.15-.317.15h-1.704l-1.354-.498c-.115-.06-.11-.07-.105-.13z" class="cls-1" style="opacity:.997;isolation:isolate;fill:none;fill-opacity:1;fill-rule:evenodd;stroke:#171717;stroke-width:.529167;stroke-linecap:round;stroke-miterlimit:5.89;stroke-dasharray:none"/><path d="M780.49 803.72h.563v1.359h-.563z" style="fill:#595959;fill-rule:evenodd;stroke-width:.539063;stroke-linecap:round;stroke-linejoin:round;stroke-dasharray:none"/><path d="M778.653 803.58h.563v1.645h-.563z" style="fill:#595959;fill-rule:evenodd;stroke-width:.593236;stroke-linecap:round;stroke-linejoin:round;stroke-dasharray:none"/><path d="M781.61 803.944c.062.014.062.073.061.093v.803c.001.077-.023.088-.072.11l-1.171.22-2.051.001c-.065 0-.117-.044-.117-.1v-1.248c0-.057.052-.101.117-.101l2.047-.016z" class="cls-1" style="opacity:.997;isolation:isolate;fill:none;fill-opacity:1;fill-rule:evenodd;stroke:#171717;stroke-width:.529167;stroke-linecap:round;stroke-miterlimit:5.89;stroke-dasharray:none"/><path d="M786.452 804.87v-.957c0-.157-.141-.282-.315-.282h-.313c-.177 0-.315.125-.315.282v.957c0 .158.142.283.315.283h.313c.178 0 .315-.125.315-.283zm-4.026.04v-.957c0-.157-.14-.282-.314-.282h-.313c-.178 0-.315.125-.315.282v.957c0 .157.141.283.315.283h.313c.177 0 .314-.126.314-.283z" class="cls-2" style="opacity:.997;isolation:isolate;fill:#666;fill-opacity:1;fill-rule:evenodd;stroke:#171717;stroke-width:.529167;stroke-linecap:round;stroke-miterlimit:5.89;stroke-dasharray:none;stroke-opacity:1"/><circle cx="784.20398" cy="804.43585" r="0.52683109" style="fill:#5a5a5a;fill-opacity:1;stroke:#171717;stroke-width:.396875;stroke-linejoin:round;stroke-dasharray:none;stroke-opacity:1"/><ellipse cx="777.38092" cy="804.40063" rx="0.47465745" ry="0.79711837" style="fill:#333;fill-opacity:1;stroke:none;stroke-width:.396875;stroke-linejoin:round;stroke-dasharray:none;stroke-opacity:1"/><path d="M777.442 803.74c-.217.457-.246.91 0 1.355l-.458-.215.008-.996z" style="fill:#404040;fill-opacity:1;stroke:none;stroke-width:.529167;stroke-linejoin:round;stroke-dasharray:none;stroke-opacity:1"/><ellipse cx="777.37994" cy="804.42639" rx="0.47465745" ry="0.79711837" style="fill:none;fill-opacity:1;stroke:#171717;stroke-width:.396875;stroke-linejoin:round;stroke-dasharray:none;stroke-opacity:1"/><ellipse cx="-791.48297" cy="804.40869" rx="0.54481667" ry="1.0162264" style="fill:#333;fill-opacity:1;stroke:none;stroke-width:.48009;stroke-linejoin:round;stroke-dasharray:none;stroke-opacity:1" transform="scale(-1 1)"/><path d="M791.381 803.413q.465 1.015 0 1.963l.483-.31-.008-1.444z" style="fill:#404040;fill-opacity:1;stroke:none;stroke-width:.636799;stroke-linejoin:round;stroke-dasharray:none;stroke-opacity:1"/><ellipse cx="-791.4881" cy="804.40533" rx="0.47465745" ry="1.0617017" style="fill:none;fill-opacity:1;stroke:#171717;stroke-width:.396875;stroke-linejoin:round;stroke-dasharray:none;stroke-opacity:1" transform="scale(-1 1)"/><path d="M791.054 804.472h-.885" style="fill:#333;fill-opacity:1;stroke:#171717;stroke-width:.568755;stroke-linejoin:round;stroke-dasharray:none;stroke-opacity:1"/><path d="M778.695 804.438h-.892" style="fill:#333;fill-opacity:1;stroke:#171717;stroke-width:.560199;stroke-linejoin:round;stroke-dasharray:none;stroke-opacity:1"/></g></g></svg>