<svg xmlns="http://www.w3.org/2000/svg" width="110" height="110" fill="none" viewBox="0 0 110 110"><g clip-path="url(#a)"><path fill="#696256" stroke="#38352E" stroke-linecap="round" stroke-miterlimit="3.99393" stroke-width="1.12442" d="m103.007 14.348.712 1.232a.19.19 0 0 0 .267.072l1.74-1.005a.19.19 0 0 0 .072-.267l-.754-1.305a.196.196 0 0 0-.243-.086c-.176.086-.492.124-.808-.339a.18.18 0 0 0-.204-.075c-.412.125-1.473.576-.782 1.773Z"/><path fill="#464239" d="m83.95 31.635-2.163-3.746 23.954-13.83 2.163 3.746z"/><path fill="#4B463D" stroke="#38352E" stroke-linecap="round" stroke-miterlimit="3.99393" stroke-width="1.12442" d="m81.789 27.887-13.875 8.01 2.163 3.747 13.874-8.01z"/><path fill="#4B463D" d="M54.21 56.54s3.362 4.344 10.61 12.405l6.087-6.092s-8.941-8.035-11.335-12.293z"/><path fill="#464239" stroke="#38352E" stroke-linecap="round" stroke-miterlimit="3.99393" stroke-width="0.562208" d="M69.91 61.938c-1.582 1.946-5.396 5.495-5.97 6.025l.88.982 6.087-6.093s-.377-.339-.997-.914Z"/><path fill="#413C35" d="M59.572 55.23a.28.28 0 1 0-.32-.457l-4.086 2.859a.28.28 0 1 0 .32.457zm1.968 2.472a.28.28 0 1 0-.354-.432l-3.82 3.124a.28.28 0 0 0 .353.432zm2.12 2.235a.279.279 0 1 0-.385-.404l-3.43 3.27a.28.28 0 0 0 .385.404zm2.286 2.545a.28.28 0 1 0-.4-.389L62.4 65.327a.28.28 0 1 0 .4.389zm3.104-1.265a.28.28 0 1 0-.417-.371l-2.735 3.078a.28.28 0 0 0 .417.37zm-2.182-2.221a.279.279 0 1 0-.421-.366l-3.012 3.463a.28.28 0 0 0 .421.366zm-2.191-2.193a.28.28 0 1 0-.396-.394l-3.314 3.331a.28.28 0 0 0 .396.394zm-1.957-2.035a.279.279 0 1 0-.34-.443l-3.945 3.019a.279.279 0 1 0 .34.443z"/><path stroke="#38352E" stroke-linecap="round" stroke-miterlimit="3.99393" stroke-width="1.12442" d="M54.21 56.54s3.362 4.344 10.61 12.405l6.087-6.092s-8.941-8.035-11.335-12.293z"/><path fill="#696256" d="M72.356 30.756c-1.088.628-.699 1.692-.699 1.692l-2.808 1.444s-.761.44-.935 1.088l.398.689 6.731-3.887-.641-1.111s-.958-.543-2.046.085m.9 1.14c-.097.056-.237.008-.3-.1-.063-.11-.034-.255.063-.31.096-.057.237-.009.3.1.062.109.046.247-.063.31"/><path fill="#3E3A32" stroke="#38352E" stroke-linecap="round" stroke-miterlimit="3.99393" stroke-width="0.562208" d="m100.06 17.338-17.283 9.978 2.024 3.505 17.282-9.978z"/><path stroke="#38352E" stroke-linecap="round" stroke-miterlimit="3.99393" stroke-width="1.12442" d="M71.657 32.448s-.389-1.064.699-1.692 2.046-.085 2.046-.085l.641 1.111-6.731 3.887-.398-.689c.174-.648.935-1.088.935-1.088z"/><path stroke="#38352E" stroke-linecap="round" stroke-miterlimit="3.99393" stroke-width="0.562208" d="M73.255 31.896c-.097.056-.238.008-.3-.1-.063-.11-.034-.255.062-.31.097-.057.237-.009.3.1s.046.247-.062.31Z"/><path fill="#433F37" stroke="#38352E" stroke-linecap="round" stroke-miterlimit="3.99393" stroke-width="0.562208" d="M66.238 32.998a.28.28 0 1 0-.483.279l.418.725a.6.6 0 0 0 .086.103c.05.043.12.088.214.113.192.051.426.01.705-.151l4.471-2.582a.28.28 0 1 0-.279-.483l-4.47 2.581a.8.8 0 0 1-.218.092.2.2 0 0 1-.049.005z"/><path fill="#696256" stroke="#38352E" stroke-linecap="round" stroke-miterlimit="3.99393" stroke-width="1.12442" d="m105.834 13.521.592-.341a.346.346 0 0 1 .477.127l2.156 3.735a.346.346 0 0 1-.128.476l-.592.342a.346.346 0 0 1-.477-.128l-2.156-3.734c-.109-.162-.041-.379.128-.477ZM66.67 35.81l.713-.411a.346.346 0 0 1 .477.127l2.435 4.218a.346.346 0 0 1-.128.477l-.713.412a.346.346 0 0 1-.476-.128l-2.436-4.218c-.11-.162-.041-.379.128-.477Z"/><path fill="#403D3A" stroke="#363330" stroke-linecap="round" stroke-miterlimit="3.99393" stroke-width="1.12442" d="m34.726 53.609 1.427-.824a.37.37 0 0 1 .495.133l.823 1.426a.37.37 0 0 1-.132.496l-1.426.823a.37.37 0 0 1-.496-.133l-.824-1.426a.36.36 0 0 1 .133-.495Zm4.219-2.436 2.925-1.689a.34.34 0 0 1 .457.123l1.689 2.925a.34.34 0 0 1-.123.457l-2.924 1.689a.34.34 0 0 1-.458-.123l-1.689-2.925c-.102-.15-.046-.36.123-.457Zm5.438-3.139 2.912-1.681a.34.34 0 0 1 .458.122l1.681 2.913a.34.34 0 0 1-.122.457l-2.913 1.682a.34.34 0 0 1-.457-.123l-1.682-2.912c-.103-.15-.047-.36.123-.458Zm5.499-3.176 2.792-1.612a.42.42 0 0 1 .572.153l1.612 2.792a.42.42 0 0 1-.154.572l-2.791 1.612a.42.42 0 0 1-.572-.153l-1.612-2.792a.42.42 0 0 1 .153-.572Z"/><path fill="#DA9F34" stroke="#533D13" stroke-linecap="round" stroke-miterlimit="3.99393" stroke-width="1.12442" d="M19.863 73.808s3.06-1.01 3.713 1.965c.654 2.974.897 4.01.897 4.01s.596 2.315-.946 3.302c-1.541.986-.638 1.77-.638 1.77l11.182-6.31-1.977-.326s-2.577.392-3.23-2.582c-.654-2.974-.94-4.083-.94-4.083s-.356-1.873 1.002-2.592c1.357-.719-4.478.813-4.478.813z"/><path fill="#E0AD52" stroke="#533D13" stroke-linecap="round" stroke-miterlimit="3.99393" stroke-width="1.12442" d="m40.9 55.233-8.792 4.56-3.03 1.62s-2.732 4.784-8.44 8.015c-5.716 3.22-17.088 9.48-17.088 9.48s2.723 3.6 4.244 6.428c1.52 2.829 3.436 7.878 3.436 7.878l26.61-15.928s2.204-1.207 3.321-.612l7.158-3.762c.2-.1.177-.392-.04-.46-.593-.19-1.409-.653-1.633-1.796-.369-1.867-1.447-6.804-1.447-6.804s-.147-.897.394-1.355zM39.33 67.95c.932 2.803 1.352 5.625-.84 6.834-1.917.978-21.212 11.377-21.212 11.377s-1.862.962-3.785-.555-2.49-1.994-2.49-1.994-3.71-3.079-.022-5.063l24.102-12.933s3.123-1.819 4.248 2.334Z"/><path fill="#4C473E" stroke="#38352E" stroke-linecap="round" stroke-miterlimit="3.99393" stroke-width="1.12442" d="M3.559 78.92s3.068 4.254 4.42 6.761c1.35 2.508 3.26 7.545 3.26 7.545L9.02 94.409a.616.616 0 0 1-.877-.347c-.51-1.526-1.796-5.232-2.929-7.333s-3.296-4.817-4.164-5.846a.46.46 0 0 1 .138-.709z"/><path fill="#464139" stroke="#38342E" stroke-linecap="round" stroke-miterlimit="3.99393" stroke-width="1.12442" d="M45.936 55.838s-.345 2.707 2.208 3.45c.304.088.733-.003.398-.282-.691-.578-1.757-2.793-1.78-3.645z"/><path fill="#696256" fill-rule="evenodd" d="m34.138 63.359-1.842-3.19-.944-1.663s1.088-1.885 1.317-2.743c.23-.857.658-.927.658-.927l21.936-12.665 4.632 8.025s-5.39 6.013-5.907 6.794l-.687 1.042-7.486 4.322-.526-.203-3.14-2.193-6.755 3.9c-.846.49-1.256-.499-1.256-.499m11.713-1.679 6.076-3.508-2.11-3.607-6.056 3.496z" clip-rule="evenodd"/><path stroke="#38342E" stroke-linecap="round" stroke-miterlimit="3.99393" stroke-width="0.562208" d="m45.85 61.681 6.076-3.508-2.111-3.607-6.055 3.496z" clip-rule="evenodd"/><path fill="#4B463D" stroke="#38352E" stroke-linecap="round" stroke-miterlimit="3.99393" stroke-width="1.12442" d="m55.19 42.052 4.897 8.146c.133.23.602-.074.785-.26l8.316-8.12c.124-.12.43-.426.352-.59l-3.2-5.404a.397.397 0 0 0-.548-.167L55.34 41.499a.405.405 0 0 0-.148.553Z"/><path stroke="#38352E" stroke-miterlimit="3.99393" stroke-width="1.12442" d="m83.95 31.635-2.163-3.746 23.954-13.83 2.163 3.746z"/><path fill="#413C35" stroke="#38352E" stroke-miterlimit="3.99393" stroke-width="0.562208" d="m42.704 53.754 4.808-3.224.709 1.228-6.254 3.61z"/><path fill="#4C473E" stroke="#38342E" stroke-miterlimit="3.99393" stroke-width="0.562208" d="M46.762 53.323a.512.512 0 1 1 .32.973l-2.933.965a.7.7 0 0 0-.262.155l-.945.89a.874.874 0 1 1-.894-.566l1.19-1.119c.15-.14.329-.247.524-.31z"/><path fill="#4C463E" stroke="#38352E" stroke-miterlimit="3.99393" stroke-width="0.562208" d="m55.99 43.668 1.602 2.679-9.6 5.542-.894-1.896a1.124 1.124 0 0 1 .455-1.454z"/><path stroke="#38342E" stroke-linecap="round" stroke-miterlimit="3.99393" stroke-width="1.12442" d="m34.138 63.359-1.842-3.19-.944-1.663s1.088-1.885 1.317-2.743c.23-.857.658-.927.658-.927l21.936-12.665 4.777 7.941s-5.536 6.097-6.052 6.878l-.687 1.042-7.486 4.322-.526-.203-3.14-2.193-6.755 3.9c-.846.49-1.256-.499-1.256-.499Z" clip-rule="evenodd"/><path fill="#423D36" d="m55.738 45.854.552-.319.43.746-.551.318z"/></g><defs><clipPath id="a"><path fill="#fff" d="M0 0h110v110H0z"/></clipPath></defs></svg>