<svg xmlns="http://www.w3.org/2000/svg" id="Layer_2" width="121.07" height="18.48208" data-name="Layer 2" version="1.1" viewBox="0 0 121.07 18.48208"><defs id="defs4"><style id="style2">.cls-2{stroke-width:1.5px;stroke:#4a4a4a;fill:#5f5f5f}</style></defs><g id="Layer_14" data-name="Layer 14" transform="translate(.01 .034)"><g id="g1"><path id="path2" d="M45.69 1.51c.12.03.45.51.45.51l1.99 2.41.06 9.45-1.99 2.49s-.39.52-.52.56c-.11.04-.64-.25-.64-.25s-12.57-.61-13.2-.73c-6.22-1.18-21.01-.06-21.01-.06s-.33.07-.51.06c-.1 0-.42-.1-.42-.1l-6.45-1.22c-1.56 0-1.96-4.77-1.96-5.29 0-.54.36-5.45 1.92-5.45l6.44-1.3s.34-.09.45-.1c.11 0 .47.03.47.03s14.52 1.16 20.99-.03c.65-.12 13.41-.8 13.41-.8s.4-.22.51-.18z" style="stroke-width:3px;fill:#3e3e3e;stroke:#161616"/><path id="path4" d="m47.28 2.01 1.99 2.42.06 9.44-1.98 2.49s-.4.52-.52.57c-.11.03-.64-.25-.64-.25s-12.57-.61-13.2-.73c-6.22-1.18-21.01-.06-21.01-.06s-.33.07-.51.06c-.11 0-.42-.1-.42-.1l-4.6-.88c-1.56 0-1.95-5.1-1.95-5.63 0-.54.39-5.86 1.95-5.86L11 2.59s.34-.09.45-.1c.11 0 .47.04.47.04s14.52 1.16 20.99-.04c.65-.11 13.41-.8 13.41-.8s.39-.21.51-.18c.179.075.309.343.45.5z" style="stroke-width:3px;fill:#e4c48b;stroke:#241a08"/><path id="rect6" d="M49.88 8.39v2.85c0 .96-.42 1.73-.93 1.73h-6.27c-.51 0-.93-.78-.93-1.73V8.39c0-.96.42-1.73.93-1.73h6.27c.51 0 .93.78.93 1.73z" style="fill:#5f5f5f;stroke-width:3px;stroke:#181818"/><path id="rect8" d="M119.56 6.35v5.23c0 1.28-.42 2.32-.93 2.32h-3.44c-.51 0-.93-1.04-.93-2.32V6.35c0-1.28.42-2.32.93-2.32h3.44c.51 0 .93 1.04.93 2.32z" style="stroke:#171717;fill:#646464;stroke-width:3px"/><path id="rect12" d="M117.71 5.03v7.87c0 1.28-.42 2.32-.93 2.32H76.77c-.51 0-.93-1.04-.93-2.32V5.03c0-1.28.42-2.32.93-2.32h40.01c.51 0 .93 1.04.93 2.32z" style="fill:#444;stroke-width:3px;stroke:#181818"/><path id="path18" d="M66.7 2.12c.12.22.11.67.11.67V15.7s.04.43-.08.64c-.15.26-.56.22-.56.22H46.52s-.35-.02-.55-.17c-.11-.07-.36-.26-.36-.26l-1.42-2.42s-.21-.42-.27-.67c-.07-.31-.06-.89-.06-.89V6.04s.03-.55.09-.82c.07-.27.29-.67.29-.67l1.11-1.86s.35-.51.55-.66c.2-.14.59-.17.59-.17h19.65s.38-.02.53.25z" style="fill:#5f5f5f;stroke-width:3px;stroke:#161616"/><path id="line12" d="M62.2 1.95v14.53" class="cls-2"/><path id="line14" d="M57.67 1.95v14.53" class="cls-2"/><path id="line16" d="M53.14 2.42v13.59" class="cls-2"/><path id="line18" d="M48.61 2.42v13.59" class="cls-2"/><path id="path18-2" d="M66.82 2.54c.12.2.11.63.11.63v12.14s.04.41-.08.6c-.15.25-.56.21-.56.21H46.64s-.35-.02-.55-.16c-.11-.07-.36-.24-.36-.24l-1.42-2.28s-.21-.39-.27-.63c-.07-.29-.06-.84-.06-.84V6.23s.03-.52.09-.77c.07-.26.29-.63.29-.63l1.11-1.75s.35-.48.55-.62c.2-.13.59-.16.59-.16h19.65s.38-.01.53.24z" data-name="path18" style="stroke-width:3px;stroke:#161616;fill:none"/><path id="rect24" d="M115.03 8.85v.23c0 .64-.21 1.16-.46 1.16h-3.11c-.26 0-.46-.52-.46-1.16v-.23c0-.64.21-1.16.46-1.16h3.11c.26 0 .46.52.46 1.16" style="fill:#171717"/><path id="rect28" d="M83.4 8.38v1.18c0 .73-.43 1.32-.96 1.32h-4.46c-.53 0-.96-.59-.96-1.32V8.38c0-.73.43-1.32.96-1.32h4.46c.53 0 .96.59.96 1.32z" style="stroke-width:1.5px;stroke:#171717;fill:#444"/><path id="rect10" d="M76.4 3.43V15c0 .79-.51 1.43-1.14 1.43H63.54c-.63 0-1.14-.64-1.14-1.43V3.43c0-.79.51-1.43 1.14-1.43h11.72c.63 0 1.14.64 1.14 1.43z" style="stroke:#171717;fill:#444;stroke-width:3px"/><path id="rect25" d="M86.4 4.29h24v9.35h-24z" style="fill:#333"/></g></g></svg>